<?xml version="1.0" encoding="UTF-8" standalone="no"?><!DOCTYPE svg PUBLIC "-//W3C//DTD SVG 1.1//EN" "http://www.w3.org/Graphics/SVG/1.1/DTD/svg11.dtd"><svg width="100%" height="100%" viewBox="0 0 59 59" version="1.1" xmlns="http://www.w3.org/2000/svg" xmlns:xlink="http://www.w3.org/1999/xlink" xml:space="preserve" style="fill-rule:evenodd;clip-rule:evenodd;stroke-linejoin:round;stroke-miterlimit:1.41421;"><path id="github.-with.-circle" d="M29.14,28.94c0,0 -0.031,0 -0.046,0l-0.045,0c-3.61,0 -6.789,-0.919 -8.671,0.812c-1.124,1.036 -1.597,2.285 -1.597,3.628c0,5.612 4.494,6.303 10.271,6.303l0.088,0c5.773,0 10.271,-0.694 10.271,-6.303c0,-1.343 -0.473,-2.595 -1.598,-3.628c-1.885,-1.731 -5.064,-0.812 -8.673,-0.812l0,0Zm-4.916,7.67c-1.1,0 -1.988,-1.236 -1.988,-2.758c0,-1.521 0.888,-2.751 1.988,-2.751c1.1,0 1.991,1.23 1.991,2.751c0,1.522 -0.888,2.758 -1.991,2.758Zm9.737,0c-1.1,0 -1.991,-1.236 -1.991,-2.758c0,-1.521 0.891,-2.751 1.991,-2.751c1.098,0 1.989,1.23 1.989,2.751c0,1.522 -0.888,2.758 -1.989,2.758Zm-4.867,-36.61c-16.068,0 -29.094,13.026 -29.094,29.094c0,16.069 13.026,29.095 29.094,29.095c16.069,0 29.095,-13.026 29.095,-29.095c0,-16.068 -13.026,-29.094 -29.095,-29.094l0,0Zm2.655,41.032c-0.521,0 -1.558,0 -2.655,0.006c-1.097,-0.006 -2.133,-0.006 -2.655,-0.006c-2.303,0 -11.431,-0.179 -11.431,-11.18c0,-2.528 0.867,-4.379 2.288,-5.925c-0.224,-0.558 -0.236,-3.734 0.97,-6.777c0,0 2.776,0.304 6.973,3.186c0.876,-0.246 2.367,-0.37 3.855,-0.37c1.488,0 2.976,0.124 3.858,0.367c4.198,-2.883 6.974,-3.186 6.974,-3.186c1.206,3.043 1.197,6.222 0.97,6.777c1.421,1.546 2.288,3.397 2.288,5.925c-0.003,11.007 -9.132,11.183 -11.435,11.183l0,0Z" style="fill:#023e62;fill-rule:nonzero;"/></svg>