<?xml version="1.0" encoding="UTF-8" standalone="no"?><!DOCTYPE svg PUBLIC "-//W3C//DTD SVG 1.1//EN" "http://www.w3.org/Graphics/SVG/1.1/DTD/svg11.dtd"><svg width="100%" height="100%" viewBox="0 0 684 500" version="1.1" xmlns="http://www.w3.org/2000/svg" xmlns:xlink="http://www.w3.org/1999/xlink" xml:space="preserve" style="fill-rule:evenodd;clip-rule:evenodd;stroke-linejoin:round;stroke-miterlimit:10;"><g><path d="M436.66,211.775l-21.329,0l-7.618,-24.377l36.565,0l-7.618,24.377Z" style="fill:#fff;fill-rule:nonzero;stroke:#1050ff;stroke-width:3.05px;"/><path d="M656.053,211.775l-27.424,0l-4.571,-36.566l36.566,0l-4.571,36.566Z" style="fill:#fff;fill-rule:nonzero;stroke:#1050ff;stroke-width:3.05px;"/><path d="M438.184,187.398l-24.377,0l0,-31.995l12.188,-9.141l12.189,9.141l0,31.995Z" style="fill:#fff;fill-rule:nonzero;"/><path d="M550.927,211.775l-6.094,-16.759l-21.33,0l-6.094,16.759l33.518,0Z" style="fill:#fff;fill-rule:nonzero;"/><path d="M572.257,91.414l35.042,0l0,103.602l-146.262,0l0,-103.602l38.089,0" style="fill:#fff;fill-rule:nonzero;"/><path d="M526.55,108.173l-7.617,-63.99l15.235,-35.042l15.236,35.042l-7.618,63.99l-15.236,0Z" style="fill:#fff;fill-rule:nonzero;"/><path d="M425.995,146.262l12.189,9.141l0,31.995l-12.189,0l0,-41.136Z" style="fill:#ccefff;fill-rule:nonzero;"/><path d="M547.576,202.634l-2.743,-7.618l-21.33,0l-2.742,7.618l26.815,0Z" style="fill:#ccefff;fill-rule:nonzero;"/><path d="M534.168,9.141l15.236,35.042l-7.618,63.99l-7.618,0l0,-99.032Z" style="fill:#ccefff;fill-rule:nonzero;"/><path d="M607.299,91.414l0,83.795l-146.262,0l146.262,-83.795Z" style="fill:#ccefff;fill-rule:nonzero;"/><path d="M631.676,167.592l3.047,-3.047l-6.094,-6.095l3.047,-3.047" style="fill:none;stroke:#1050ff;stroke-width:3.05px;stroke-linecap:round;"/><path d="M642.341,167.592l3.047,-3.047l-6.094,-6.095l3.047,-3.047" style="fill:none;stroke:#1050ff;stroke-width:3.05px;stroke-linecap:round;"/><path d="M653.006,167.592l3.047,-3.047l-6.094,-6.095l3.047,-3.047" style="fill:none;stroke:#1050ff;stroke-width:3.05px;stroke-linecap:round;"/><path d="M538.739,187.398l-4.571,3.047l-4.57,-3.047l0,-4.571l4.57,-3.047l4.571,3.047l0,4.571Z" style="fill:none;stroke:#1050ff;stroke-width:3.05px;"/><path d="M550.927,211.775l-6.094,-16.759l-21.33,0l-6.094,16.759l33.518,0Z" style="fill:none;stroke:#1050ff;stroke-width:3.05px;stroke-linecap:round;"/><path d="M438.184,187.398l-24.377,0l0,-31.995l12.188,-9.141l12.189,9.141l0,31.995Z" style="fill:none;stroke:#1050ff;stroke-width:3.05px;stroke-linecap:round;"/><path d="M413.807,163.021l-4.571,0" style="fill:none;stroke:#1050ff;stroke-width:3.05px;stroke-linecap:round;"/><path d="M413.807,155.403l-3.047,-1.523" style="fill:none;stroke:#1050ff;stroke-width:3.05px;stroke-linecap:round;"/><path d="M413.807,172.162l-4.571,0" style="fill:none;stroke:#1050ff;stroke-width:3.05px;stroke-linecap:round;"/><path d="M413.807,181.304l-4.571,0" style="fill:none;stroke:#1050ff;stroke-width:3.05px;stroke-linecap:round;"/><path d="M438.184,163.021l4.571,0" style="fill:none;stroke:#1050ff;stroke-width:3.05px;stroke-linecap:round;"/><path d="M438.184,172.162l4.571,0" style="fill:none;stroke:#1050ff;stroke-width:3.05px;stroke-linecap:round;"/><path d="M438.184,181.304l4.571,0" style="fill:none;stroke:#1050ff;stroke-width:3.05px;stroke-linecap:round;"/><path d="M419.901,150.832l-3.047,-3.047" style="fill:none;stroke:#1050ff;stroke-width:3.05px;stroke-linecap:round;"/><path d="M438.184,155.403l3.047,-1.523" style="fill:none;stroke:#1050ff;stroke-width:3.05px;stroke-linecap:round;"/><path d="M432.09,150.832l3.047,-3.047" style="fill:none;stroke:#1050ff;stroke-width:3.05px;stroke-linecap:round;"/><path d="M409.693,193.492l32.757,0" style="fill:none;stroke:#1050ff;stroke-width:3.05px;stroke-linecap:round;"/><path d="M419.901,181.304l3.047,-4.571l-3.047,-4.571l3.047,-4.57l-3.047,-4.571l3.047,-4.571" style="fill:none;stroke:#1050ff;stroke-width:3.05px;stroke-linecap:round;"/><path d="M429.043,181.304l3.047,-4.571l-3.047,-4.571l3.047,-4.57l-3.047,-4.571l3.047,-4.571" style="fill:none;stroke:#1050ff;stroke-width:3.05px;stroke-linecap:round;"/><g><path d="M404.666,211.775l265.099,0" style="fill:none;stroke:#1050ff;stroke-width:3.05px;stroke-linecap:round;"/><path d="M677.383,211.775l4.571,0" style="fill:none;stroke:#1050ff;stroke-width:3.05px;stroke-linecap:round;"/><path d="M390.954,211.775l4.57,0" style="fill:none;stroke:#1050ff;stroke-width:3.05px;stroke-linecap:round;"/></g><path d="M540.263,52.563l-6.095,3.809l-6.094,-3.809l0,-7.618l6.094,-3.809l6.095,3.809l0,7.618Z" style="fill:#fff;fill-rule:nonzero;stroke:#1050ff;stroke-width:3.05px;"/><path d="M526.55,108.173l-7.617,-63.99l15.235,-35.042l15.236,35.042l-7.618,63.99l-15.236,0Z" style="fill:none;stroke:#1050ff;stroke-width:3.05px;stroke-linecap:round;"/><path d="M517.409,123.408l-7.618,9.142l-7.617,-9.142l7.617,-33.518l7.618,33.518Z" style="fill:#fff;fill-rule:nonzero;stroke:#1050ff;stroke-width:3.05px;stroke-linecap:round;"/><path d="M541.786,123.408l-7.618,9.142l-7.618,-9.142l7.618,-33.518l7.618,33.518Z" style="fill:#fff;fill-rule:nonzero;stroke:#1050ff;stroke-width:3.05px;stroke-linecap:round;"/><path d="M566.163,123.408l-7.618,9.142l-7.618,-9.142l7.618,-33.518l7.618,33.518Z" style="fill:#fff;fill-rule:nonzero;stroke:#1050ff;stroke-width:3.05px;stroke-linecap:round;"/><path d="M512.686,102.536l10.665,-21.483" style="fill:none;stroke:#1050ff;stroke-width:3.05px;stroke-linecap:round;"/><path d="M516.038,117.162l10.512,-8.989" style="fill:none;stroke:#1050ff;stroke-width:3.05px;stroke-linecap:round;"/><path d="M555.65,102.536l-10.664,-21.483" style="fill:none;stroke:#1050ff;stroke-width:3.05px;stroke-linecap:round;"/><path d="M552.299,117.162l-10.513,-8.989" style="fill:none;stroke:#1050ff;stroke-width:3.05px;stroke-linecap:round;"/><path d="M534.168,9.141l0,-7.617" style="fill:none;stroke:#1050ff;stroke-width:3.05px;stroke-linecap:round;"/><path d="M502.174,123.408l15.235,0" style="fill:none;stroke:#1050ff;stroke-width:3.05px;stroke-linecap:round;"/><path d="M526.55,123.408l15.236,0" style="fill:none;stroke:#1050ff;stroke-width:3.05px;stroke-linecap:round;"/><path d="M550.927,123.408l15.236,0" style="fill:none;stroke:#1050ff;stroke-width:3.05px;stroke-linecap:round;"/><path d="M642.341,201.11l9.141,-9.141l-4.57,-7.618l-4.571,4.57l-4.571,-4.57l-4.57,7.618l9.141,9.141Z" style="fill:#ccefff;fill-rule:nonzero;stroke:#1050ff;stroke-width:3.05px;"/><path d="M659.557,184.351l11.732,0l-7.618,18.283l-6.399,0" style="fill:none;stroke:#1050ff;stroke-width:3.05px;stroke-linecap:round;"/><g><path d="M534.168,140.168l0,9.141" style="fill:none;stroke:#1050ff;stroke-width:3.05px;stroke-linecap:round;"/><path d="M534.168,155.403l0,3.047" style="fill:none;stroke:#1050ff;stroke-width:3.05px;stroke-linecap:round;"/><path d="M540.263,137.12l0,9.142" style="fill:none;stroke:#1050ff;stroke-width:3.05px;stroke-linecap:round;"/><path d="M540.263,152.356l0,3.047" style="fill:none;stroke:#1050ff;stroke-width:3.05px;stroke-linecap:round;"/><path d="M528.074,137.12l0,9.142" style="fill:none;stroke:#1050ff;stroke-width:3.05px;stroke-linecap:round;"/><path d="M528.074,152.356l0,3.047" style="fill:none;stroke:#1050ff;stroke-width:3.05px;stroke-linecap:round;"/><path d="M534.168,164.545l0,1.523" style="fill:none;stroke:#1050ff;stroke-width:3.05px;stroke-linecap:round;"/><path d="M540.263,161.497l0,1.524" style="fill:none;stroke:#1050ff;stroke-width:3.05px;stroke-linecap:round;"/><path d="M528.074,161.497l0,1.524" style="fill:none;stroke:#1050ff;stroke-width:3.05px;stroke-linecap:round;"/></g><g><path d="M509.791,140.168l0,9.141" style="fill:none;stroke:#1050ff;stroke-width:3.05px;stroke-linecap:round;"/><path d="M509.791,155.403l0,3.047" style="fill:none;stroke:#1050ff;stroke-width:3.05px;stroke-linecap:round;"/><path d="M515.886,137.12l0,9.142" style="fill:none;stroke:#1050ff;stroke-width:3.05px;stroke-linecap:round;"/><path d="M515.886,152.356l0,3.047" style="fill:none;stroke:#1050ff;stroke-width:3.05px;stroke-linecap:round;"/><path d="M503.697,137.12l0,9.142" style="fill:none;stroke:#1050ff;stroke-width:3.05px;stroke-linecap:round;"/><path d="M503.697,152.356l0,3.047" style="fill:none;stroke:#1050ff;stroke-width:3.05px;stroke-linecap:round;"/><path d="M509.791,164.545l0,1.523" style="fill:none;stroke:#1050ff;stroke-width:3.05px;stroke-linecap:round;"/><path d="M515.886,161.497l0,1.524" style="fill:none;stroke:#1050ff;stroke-width:3.05px;stroke-linecap:round;"/><path d="M503.697,161.497l0,1.524" style="fill:none;stroke:#1050ff;stroke-width:3.05px;stroke-linecap:round;"/></g><g><path d="M558.545,140.168l0,9.141" style="fill:none;stroke:#1050ff;stroke-width:3.05px;stroke-linecap:round;"/><path d="M558.545,155.403l0,3.047" style="fill:none;stroke:#1050ff;stroke-width:3.05px;stroke-linecap:round;"/><path d="M564.639,137.12l0,9.142" style="fill:none;stroke:#1050ff;stroke-width:3.05px;stroke-linecap:round;"/><path d="M564.639,152.356l0,3.047" style="fill:none;stroke:#1050ff;stroke-width:3.05px;stroke-linecap:round;"/><path d="M552.451,137.12l0,9.142" style="fill:none;stroke:#1050ff;stroke-width:3.05px;stroke-linecap:round;"/><path d="M552.451,152.356l0,3.047" style="fill:none;stroke:#1050ff;stroke-width:3.05px;stroke-linecap:round;"/><path d="M558.545,164.545l0,1.523" style="fill:none;stroke:#1050ff;stroke-width:3.05px;stroke-linecap:round;"/><path d="M564.639,161.497l0,1.524" style="fill:none;stroke:#1050ff;stroke-width:3.05px;stroke-linecap:round;"/><path d="M552.451,161.497l0,1.524" style="fill:none;stroke:#1050ff;stroke-width:3.05px;stroke-linecap:round;"/></g><path d="M572.257,91.414l35.042,0l0,103.602l-146.262,0l0,-103.602l38.089,0" style="fill:none;stroke:#1050ff;stroke-width:3.05px;stroke-linecap:round;"/><path d="M461.037,175.209l146.262,0" style="fill:none;stroke:#1050ff;stroke-width:3.05px;stroke-linecap:round;"/></g><g><path id="body.-bg.-flat" d="M2.772,497.69c0,0 -10.302,-90.311 78.44,-100.387l37.974,0l0,-17.493c0,0 26.711,11.473 53.76,1.28l0.853,16.213l44.373,0c0,0 77.274,7.715 72.6,100.387l-288,0Z" style="fill:#fff;fill-rule:nonzero;"/><path id="Rounded-Rectangle-13-copy-3" d="M290.034,499.277l-284.516,0l-5.518,0l1.377,-23.53c2.69,-45.942 38.887,-81.004 80.31,-81.004l37.499,0l0,4.694l-34.984,0c-39.923,0 -74.81,33.748 -77.402,77.97l-0.957,16.323l283.44,0l-0.531,-16.323c-2.592,-44.222 -37.479,-77.97 -77.402,-77.97l-35.418,0l0,-4.694l37.68,0c41.423,0 77.62,35.062 80.31,81.004l1.377,23.53l-5.265,0Z" style="fill:#3b434f;fill-rule:nonzero;"/><path id="neck-copy-7" d="M122.172,377.836l0,26.315c0,13.656 11.08,24.726 24.747,24.726c13.667,0 24.747,-11.07 24.747,-24.726l0,-25.772c1.436,-0.437 2.858,-0.912 4.266,-1.425l0,27.376c0,16.149 -13.085,29.24 -29.226,29.24c-16.142,0 -29.227,-13.091 -29.227,-29.24l0,-28.186c1.546,0.611 3.112,1.173 4.693,1.692Z" style="fill:#3b434f;fill-rule:nonzero;"/><path id="Rounded-Rectangle-2" d="M223.492,451.179l-12.085,25.207c-0.611,1.275 -2.14,1.813 -3.415,1.202c-1.275,-0.611 -1.813,-2.14 -1.202,-3.415l11.672,-24.345l-9.12,-15.797c-0.707,-1.224 -0.287,-2.79 0.937,-3.497c1.224,-0.707 2.79,-0.287 3.497,0.937l9.813,16.998c0.506,0.875 0.433,1.924 -0.097,2.71Z" style="fill:#3b434f;fill-rule:nonzero;"/><path id="Rounded-Rectangle-2-copy-3" d="M70.135,451.204l12.15,25.284c0.614,1.279 2.152,1.819 3.433,1.206c1.282,-0.613 1.823,-2.147 1.208,-3.426l-11.734,-24.42l9.169,-15.845c0.711,-1.228 0.289,-2.799 -0.942,-3.508c-1.231,-0.709 -2.805,-0.288 -3.516,0.94l-9.866,17.05c-0.508,0.878 -0.435,1.931 0.098,2.719Z" style="fill:#3b434f;fill-rule:nonzero;"/><rect id="Rectangle-24" x="117.479" y="393.89" width="4.693" height="103.68" style="fill:#3b434f;fill-rule:nonzero;"/><rect id="Rectangle-24-copy" x="171.666" y="394.743" width="4.693" height="103.68" style="fill:#3b434f;fill-rule:nonzero;"/><path id="Shape-34" d="M134.772,444.69l12,-13l13,13l-7,7l11,45l-34,0l12,-45l-7,-7Z" style="fill:#3b434f;fill-rule:nonzero;"/><path id="Rectangle-24-copy-4" d="M161.472,497.38l-12.094,-45.136l2.514,-0.754l1.668,-1.772l12.791,47.738l-4.879,-0.076Zm-34.115,-0.533l12.626,-46.909l0.816,0.699l2.56,1.706l0.844,0.085l-11.976,44.495l-4.87,-0.076Z" style="fill:#3b434f;"/><path id="Ellipse-6" d="M175.918,457.478l-3.319,3.318l-12.913,-12.913c-2.492,3.958 -6.891,6.594 -11.914,6.594c-5.225,0 -9.776,-2.853 -12.205,-7.08l-13.479,13.479l-3.328,-3.327l26.539,-26.539l2.076,-1.925l2.075,1.925l26.468,26.468Zm-37.74,-12.692c1.701,3.465 5.261,5.851 9.381,5.851c4.028,0 7.514,-2.284 9.259,-5.622l-9.435,-9.434l-9.205,9.205Z" style="fill:#3b434f;"/><path id="_2-copy-5" d="M147.987,110.157c53.078,0 94.972,49.601 93.61,109.198l-1.448,63.341c-1.283,56.146 -42.531,100.527 -92.162,100.527c-49.631,0 -90.879,-44.381 -92.162,-100.527l-1.448,-63.341c-1.362,-59.597 40.532,-109.198 93.61,-109.198Z" style="fill:#fff;fill-rule:nonzero;"/><path id="_2-line" d="M245.862,217.391l-1.517,65.914c-1.345,58.428 -44.566,104.612 -96.571,104.612c-52.005,0 -95.226,-46.184 -96.571,-104.612l-1.517,-65.914c-1.428,-62.018 42.471,-113.634 98.088,-113.634c55.617,0 99.515,51.616 98.088,113.634Zm-98.301,-106.808c-52.353,0 -93.674,49.214 -92.331,108.345l1.428,62.847c1.266,55.707 41.95,99.742 90.903,99.742c48.952,0 89.636,-44.035 90.902,-99.742l1.428,-62.847c1.344,-59.131 -39.978,-108.345 -92.33,-108.345Z" style="fill:#3b434f;"/><path id="usta" d="M193.852,321.016c-7.755,6.734 -25.272,13.141 -45.653,13.141c-20.381,0 -37.898,-6.407 -45.653,-13.141c0,0 -0.794,-2.183 0.37,-3.348c1.186,-1.185 3.043,-0.927 3.043,-0.927c7.747,6.738 21.851,12.296 42.24,12.296c20.389,0 34.493,-5.558 42.24,-12.296c0,0 1.895,-0.704 2.816,0.216c1.773,1.773 0.597,4.059 0.597,4.059Z" style="fill:#3b434f;fill-rule:nonzero;"/><rect id="_.-" x="134.119" y="344.397" width="27.307" height="4.267" style="fill:#3b434f;fill-rule:nonzero;"/><path id="Shape-11-copy" d="M49.58,227.003c-0.012,0.001 -1.048,-0.826 -3.004,-1.442c-0.978,-0.308 -2.193,-0.56 -3.577,-0.623c-0.346,-0.015 -0.702,-0.019 -1.067,-0.009c-0.364,0.011 -0.736,0.035 -1.115,0.076c-0.757,0.08 -1.539,0.226 -2.326,0.452c-3.151,0.906 -6.366,3.108 -8.254,7.652c-0.948,2.272 -1.573,5.131 -1.738,8.707c-0.041,0.894 -0.054,1.833 -0.036,2.819c0.018,0.986 0.067,2.018 0.149,3.1c0.163,2.164 0.458,4.523 0.898,7.095c-0.009,-0.003 -0.41,7.77 2.369,16.701c2.612,8.732 8.885,19.458 20.467,22.523c-1.332,-22.179 -1.374,-44.774 -2.766,-67.051l0,0Z" style="fill:#fff;fill-rule:nonzero;"/><path id="Shape-3" d="M50.9,227.897c0,0 -20.176,-6.251 -19.466,14.491c0,0 3.004,30.077 4.308,32.849c0,0 7.924,17.512 21.001,18.288c12.781,0.759 0,0 0,0l0.159,5.645c0,0 -22.985,-2.947 -27.424,-29.435l-3.504,-24.062c0,0 -2.721,-31.845 23.67,-23.748c25.709,7.888 0,0 0,0l1.256,5.972" style="fill:#3b434f;fill-rule:nonzero;"/><path id="Shape-4" d="M44.241,269.685c0,0 -1.129,0.853 -2.099,0.853c-0.97,0 -2.086,-0.853 -2.086,-0.853l-2.082,-20.983c0,0 2.873,-10.334 15.064,-4.873l0.288,6c0,0 -10.696,-3.793 -10.475,0.93c0.213,4.547 1.39,18.926 1.39,18.926Z" style="fill:#3b434f;fill-rule:nonzero;"/><path id="Shape-11-copy_1" d="M245.586,227.052c0.012,0.001 1.052,-0.826 3.017,-1.441c0.981,-0.307 2.202,-0.56 3.593,-0.622c0.347,-0.016 0.705,-0.019 1.07,-0.009c0.366,0.01 0.74,0.035 1.121,0.075c0.76,0.081 1.546,0.226 2.336,0.452c3.165,0.905 6.394,3.106 8.29,7.647c0.952,2.271 1.58,5.127 1.746,8.701c0.041,0.893 0.054,1.832 0.036,2.817c-0.019,0.985 -0.068,2.017 -0.15,3.098c-0.164,2.162 -0.46,4.52 -0.902,7.09c0.01,-0.003 0.412,7.764 -2.379,16.69c-2.624,8.726 -8.924,19.445 -20.556,22.508c1.337,-22.165 1.379,-44.744 2.778,-67.006l0,0Z" style="fill:#fff;fill-rule:nonzero;"/><path id="Shape-3_1" d="M244.255,227.946c0,0 20.265,-6.248 19.552,14.481c0,0 -3.018,30.056 -4.328,32.827c0,0 -7.958,17.5 -21.093,18.275c-12.837,0.758 0,0 0,0l-0.159,5.641c0,0 23.085,-2.945 27.544,-29.415l3.519,-24.046c0,0 2.733,-31.823 -23.773,-23.732c-25.822,7.883 0,0 0,0l-1.262,5.969" style="fill:#3b434f;fill-rule:nonzero;"/><path id="Shape-4_1" d="M250.944,269.705c0,0 1.134,0.852 2.108,0.852c0.974,0 2.095,-0.852 2.095,-0.852l2.091,-20.969c0,0 -2.886,-10.326 -15.13,-4.869l-0.289,5.996c0,0 10.742,-3.791 10.52,0.929c-0.214,4.544 -1.395,18.913 -1.395,18.913Z" style="fill:#3b434f;fill-rule:nonzero;"/><path id="R-copy" d="M175.099,220.131c0,0 25.545,-14.605 43.793,1.486l4.827,0.748c0,0 -6.182,-22.497 -51.2,-7.869l1.253,4.194m1,0c0,0 25.988,-14.926 43.12,3.927l8.827,-0.252c0,0 -11.009,-24.032 -56.2,-8.869l4.253,6.194" style="fill:#3b434f;fill-rule:nonzero;"/><path id="R-copy-3" d="M120.211,220.215c0,0 -25.46,-14.475 -43.647,1.473l-4.811,0.742c0,0 6.162,-22.298 51.029,-7.799l-1.249,4.156m-0.996,0c0,0 -25.901,-14.794 -42.976,3.893l-8.798,-0.25c0,0 10.972,-23.819 56.013,-8.79l-4.239,6.138" style="fill:#3b434f;fill-rule:nonzero;"/><path id="fill" d="M242.361,227.49c0,0 39.387,-103.344 -81.899,-126.887c0,0 -25.386,-1.374 -45.214,-25.006c0,0 -14.166,19.418 -5.972,34.268c0,0 -10.426,9.096 -38.39,1.853c0,0 -4.232,9.039 -0.853,19.449c0,0 -35.174,15.209 -18.411,83.239c0.16,0.652 0.326,1.308 0.496,1.97c0,0 15.049,-60.161 25.593,-61.128c0,0 56.814,32.616 104.932,-2.779c0,0 23.758,31.698 52.893,33.343c0,0 5.269,20.441 6.825,41.678Z" style="fill:#847b73;fill-rule:nonzero;"/><path id="line" d="M245.052,228.343c-1.184,3.213 -5.12,2.134 -5.12,2.134c-1.555,-21.237 -6.4,-41.814 -6.4,-41.814c-29.517,-3.719 -51.626,-32 -51.626,-32c-47.834,32.875 -104.107,1.28 -104.107,1.28c-11.298,9.367 -22.613,58.88 -22.613,58.88c-0.17,-0.661 -5.813,0.652 -5.974,0c-16.762,-68.03 17.494,-87.04 17.494,-87.04c-3.379,-10.41 2.133,-21.333 2.133,-21.333c27.964,7.243 36.693,0.853 36.693,0.853c-7.392,-18.517 8.96,-37.546 8.96,-37.546c19.828,23.632 46.934,26.026 46.934,26.026c111.548,22.354 91.535,109.102 83.626,130.56Zm-86.186,-125.013c0,0 -22.831,-1.242 -43.094,-22.613c0,0 -11.606,15.443 -3.413,30.293c0,0 -11.716,11.51 -39.68,4.267c0,0 -2.212,5.794 0,16.64c0,0 -31.361,16.19 -20.48,71.253c0.13,0.658 -0.17,-0.235 0,0.427c0,0 13.118,-50.808 25.173,-51.2c0,0 58.863,33.324 106.24,-3.84c0,0 25.053,33.341 54.187,34.986c0,0 2.527,7.146 5.547,28.16c0,0 25.551,-87.405 -84.48,-108.373Z" style="fill:#3b434f;"/><path id="new_vector_shape_done" d="M122.864,98.637c0.782,0.015 0.78,0.547 1.009,1.101c0.341,0.827 0.646,1.669 1.041,2.455c0.598,1.192 1.212,2.374 1.923,3.463c0.599,0.915 1.248,1.79 1.892,2.66c0.373,0.502 0.822,0.947 1.199,1.448c0.15,0.199 0.351,0.364 0.504,0.566c0.053,0.048 0.105,0.095 0.158,0.142c0.193,0.255 0.438,0.454 0.631,0.708c0.21,0.205 0.42,0.409 0.63,0.614c0.329,0.328 0.637,0.695 1.009,0.976c0.079,0.084 0.158,0.168 0.237,0.252c0.296,0.223 0.538,0.5 0.836,0.724c0.047,0.052 0.094,0.105 0.142,0.157c0.429,0.322 0.802,0.719 1.229,1.039c0.695,0.52 1.351,1.071 2.066,1.574c0.474,0.333 0.942,0.703 1.419,1.038c0.849,0.597 1.747,1.132 2.617,1.7c0.53,0.346 1.098,0.61 1.64,0.944c1.534,0.947 3.212,1.755 4.857,2.582c0.531,0.267 1.059,0.484 1.608,0.724c0.35,0.152 0.729,0.333 1.072,0.503c0.19,0.094 0.374,0.136 0.568,0.22c0.42,0.184 0.874,0.379 1.293,0.567c0.387,0.174 0.766,0.288 1.166,0.441c0.432,0.165 0.89,0.371 1.325,0.535c0.756,0.285 1.522,0.537 2.27,0.818c0.778,0.293 1.556,0.487 2.35,0.756c1.538,0.52 3.176,0.904 4.777,1.385c0.48,0.144 0.979,0.212 1.451,0.346c0.235,0.067 0.54,0.054 0.741,0.157c0.082,0.042 0.175,0.131 0.252,0.189c0.125,0.094 0.222,0.251 0.316,0.378c0.149,0.204 0.308,0.404 0.425,0.645c0.122,0.25 0.156,0.596 0.221,0.882c0.052,0.229 -0.02,0.516 -0.063,0.676c-0.036,0.135 -0.024,0.228 -0.063,0.362c-0.102,0.349 -0.257,0.687 -0.457,0.945c-0.207,0.267 -0.717,0.274 -1.104,0.173c-0.676,-0.177 -1.419,-0.253 -2.081,-0.441c-0.142,-0.04 -0.255,-0.022 -0.394,-0.063c-0.769,-0.222 -1.608,-0.349 -2.366,-0.566c-0.173,-0.05 -0.318,-0.043 -0.488,-0.095c-0.598,-0.182 -1.221,-0.286 -1.829,-0.472c-1.525,-0.468 -3.087,-0.856 -4.541,-1.385c-0.341,-0.124 -0.656,-0.188 -0.994,-0.315c-2.387,-0.9 -4.757,-1.767 -6.937,-2.864c-0.574,-0.289 -1.144,-0.517 -1.703,-0.819c-1.589,-0.855 -3.133,-1.741 -4.636,-2.675c-0.198,-0.123 -0.39,-0.28 -0.583,-0.409c-0.874,-0.582 -1.711,-1.174 -2.555,-1.779c-0.851,-0.61 -1.609,-1.342 -2.444,-1.967c-0.176,-0.132 -0.324,-0.305 -0.504,-0.441c-0.053,-0.058 -0.105,-0.115 -0.158,-0.173c-0.195,-0.147 -0.346,-0.344 -0.536,-0.488c-0.457,-0.345 -0.843,-0.794 -1.246,-1.196c-0.38,-0.379 -0.793,-0.75 -1.119,-1.18c-0.074,-0.069 -0.147,-0.137 -0.221,-0.205c-0.212,-0.28 -0.485,-0.51 -0.694,-0.787c-0.363,-0.483 -0.791,-0.917 -1.151,-1.401c-0.447,-0.601 -0.907,-1.197 -1.34,-1.81c-0.433,-0.613 -0.809,-1.247 -1.214,-1.888c-1.097,-1.738 -1.99,-3.633 -2.822,-5.65c-0.302,-0.732 -0.506,-1.513 -0.757,-2.282c-0.173,-0.53 -0.257,-1.1 -0.41,-1.637c-0.04,-0.14 -0.026,-0.251 -0.063,-0.394c-0.081,-0.306 -0.173,-0.689 -0.063,-1.007c0.049,-0.142 0.251,-0.344 0.394,-0.393c0.099,-0.035 0.196,-0.009 0.268,-0.063Zm-7.742,23.607c0.561,0.004 0.812,0.416 1.056,0.74c0.254,0.336 0.596,0.606 0.852,0.944c0.21,0.21 0.42,0.42 0.631,0.63c0.143,0.189 0.322,0.338 0.488,0.504c0.172,0.171 0.325,0.356 0.521,0.503c0.189,0.189 0.378,0.378 0.567,0.567c0.195,0.146 0.346,0.344 0.536,0.488c0.591,0.445 1.095,1.005 1.688,1.448c0.628,0.469 1.219,0.996 1.86,1.448c0.84,0.591 1.678,1.193 2.539,1.762c0.44,0.292 0.891,0.536 1.34,0.819c0.344,0.216 0.7,0.464 1.056,0.661c1.479,0.817 2.975,1.62 4.51,2.392c1.215,0.611 2.498,1.106 3.753,1.668c0.386,0.174 0.766,0.289 1.166,0.441c0.904,0.343 1.854,0.692 2.775,1.039c0.872,0.327 1.797,0.551 2.681,0.85c0.144,0.048 0.267,0.043 0.41,0.094c0.457,0.164 0.975,0.267 1.45,0.409c0.24,0.072 0.477,0.071 0.71,0.158c0.51,0.19 1.154,0.763 1.34,1.274c0.324,0.886 -0.034,1.893 -0.441,2.471c-0.123,0.175 -0.305,0.462 -0.521,0.536c-0.34,0.116 -0.698,-0.006 -1.009,-0.095c-0.402,-0.115 -0.787,-0.132 -1.182,-0.252c-0.73,-0.221 -1.49,-0.341 -2.224,-0.566c-1.535,-0.472 -3.065,-0.895 -4.525,-1.448c-3.379,-1.28 -6.497,-2.782 -9.366,-4.564c-1.19,-0.74 -2.319,-1.574 -3.437,-2.393c-0.398,-0.291 -0.758,-0.65 -1.151,-0.944c-0.538,-0.403 -0.996,-0.888 -1.529,-1.291c-0.058,-0.063 -0.116,-0.125 -0.174,-0.188c-0.109,-0.097 -0.228,-0.181 -0.331,-0.284c-0.084,-0.089 -0.168,-0.178 -0.252,-0.267c-0.201,-0.152 -0.36,-0.344 -0.536,-0.52c-0.172,-0.171 -0.357,-0.324 -0.505,-0.519c-0.116,-0.11 -0.231,-0.22 -0.347,-0.331c-0.386,-0.51 -0.876,-0.931 -1.261,-1.447c-0.091,-0.122 -0.224,-0.225 -0.316,-0.347c-0.37,-0.493 -0.779,-0.96 -1.135,-1.463c-0.405,-0.574 -0.826,-1.151 -1.198,-1.747c-0.147,-0.236 -0.259,-0.476 -0.41,-0.709c-0.166,-0.255 -0.291,-0.523 -0.442,-0.802c-0.089,-0.166 -0.22,-0.35 -0.283,-0.535c-0.065,-0.189 -0.086,-0.555 0.015,-0.724c0.069,-0.116 0.232,-0.298 0.363,-0.347c0.099,-0.036 0.196,-0.008 0.268,-0.063Zm-10.596,11.49c0.634,0.007 0.793,0.474 1.057,0.849c0.424,0.604 0.914,1.16 1.356,1.747c0.352,0.468 0.812,0.855 1.167,1.322c0.136,0.132 0.273,0.263 0.41,0.394c0.196,0.259 0.497,0.56 0.756,0.755c0.053,0.058 0.105,0.116 0.158,0.173c0.129,0.129 0.263,0.251 0.41,0.362c0.068,0.074 0.137,0.147 0.205,0.221c0.35,0.264 0.644,0.605 0.993,0.865c0.836,0.622 1.632,1.301 2.492,1.905c1.862,1.309 3.913,2.402 6.023,3.462c0.689,0.347 1.423,0.604 2.113,0.945c0.294,0.145 0.596,0.218 0.898,0.346c0.827,0.35 1.714,0.655 2.57,0.976c1.186,0.443 2.442,0.722 3.658,1.133c0.427,0.144 0.881,0.208 1.293,0.346c0.367,0.123 0.743,0.142 1.12,0.252c0.747,0.217 1.579,0.337 2.349,0.535c0.445,0.114 0.895,0.141 1.325,0.252c0.48,0.123 0.982,0.137 1.45,0.252c0.105,0.01 0.211,0.021 0.316,0.031c0.481,0.122 1.04,0.136 1.529,0.252c0.209,0.05 0.389,0.014 0.599,0.063c0.684,0.159 1.464,0.127 2.16,0.283c0.199,0.045 0.406,0.023 0.584,0.063c0.063,0 0.126,0 0.189,0c0.24,0.054 0.546,0.041 0.788,0.095c0.069,0 0.137,0 0.205,0c0.397,0.087 0.877,0.038 1.278,0.125c0.089,0 0.178,0 0.268,0c0.509,0.112 1.122,0.014 1.639,0.126c0.2,0.006 0.4,0.011 0.6,0.016c0.113,0.025 0.292,-0.013 0.425,0.016c0.352,0.076 0.806,0.009 1.167,0.063c0.214,0.032 0.472,-0.026 0.662,0.016c0.168,0.036 0.388,-0.017 0.536,0.015c0.41,0 0.82,0 1.23,0c0.971,0 1.918,-0.027 2.854,-0.031c0.443,-0.002 0.926,-0.099 1.293,0.031c0.208,0.074 0.399,0.256 0.568,0.378c0.379,0.275 0.735,0.667 0.914,1.133c0.055,0.142 0.05,0.268 0.095,0.425c0.071,0.253 0.174,0.65 0.094,0.992c-0.051,0.222 -0.079,0.491 -0.157,0.708c-0.121,0.334 -0.443,0.432 -0.82,0.519c-0.137,0.006 -0.273,0.011 -0.41,0.016c-0.582,0.127 -1.291,0.015 -1.876,0.142c-0.113,0.024 -0.27,-0.005 -0.363,0.015c-0.221,0.006 -0.442,0.011 -0.662,0.016c-0.214,0.046 -0.484,-0.02 -0.726,0.032c-0.202,0.043 -0.449,0.031 -0.678,0.031c-0.084,0 -0.168,0 -0.252,0c-0.195,0.042 -0.468,0.031 -0.678,0.032c-0.305,0 -0.61,0 -0.914,0c-0.284,0.06 -0.68,0.015 -0.994,0.015c-0.26,0 -0.588,0.034 -0.82,-0.015c-0.178,0 -0.357,0 -0.536,0c-0.373,0 -0.741,0 -1.088,-0.032c-0.178,0 -0.357,0 -0.536,0c-0.306,-0.067 -0.705,0.003 -1.009,-0.063c-0.121,0 -0.242,0 -0.363,0c-0.222,-0.048 -0.521,-0.015 -0.741,-0.063c-0.105,0 -0.21,0 -0.315,0c-0.169,-0.037 -0.415,-0.026 -0.583,-0.063c-0.084,0 -0.169,0 -0.253,0c-0.584,-0.129 -1.257,-0.061 -1.829,-0.189c-0.157,-0.01 -0.315,-0.021 -0.473,-0.031c-0.742,-0.169 -1.564,-0.143 -2.286,-0.315c-0.196,-0.047 -0.358,-0.016 -0.552,-0.063c-0.672,-0.164 -1.411,-0.209 -2.065,-0.378c-0.108,-0.027 -0.176,-0.003 -0.284,-0.031c-0.31,-0.081 -0.672,-0.134 -0.978,-0.22c-0.142,-0.041 -0.252,-0.022 -0.394,-0.063c-1.063,-0.306 -2.17,-0.466 -3.217,-0.787c-1.854,-0.568 -3.728,-1.077 -5.408,-1.826c-0.38,-0.17 -0.76,-0.268 -1.135,-0.441c-0.664,-0.305 -1.349,-0.583 -2.003,-0.912c-1.022,-0.515 -2.023,-1.057 -3.011,-1.606c-0.695,-0.386 -1.364,-0.857 -2.018,-1.29c-0.537,-0.356 -1.055,-0.704 -1.577,-1.071c-0.513,-0.36 -0.992,-0.775 -1.498,-1.148c-0.514,-0.38 -0.955,-0.858 -1.466,-1.244c-0.195,-0.146 -0.359,-0.389 -0.552,-0.535c-0.477,-0.36 -0.873,-0.839 -1.293,-1.259c-1.795,-1.792 -3.32,-3.851 -4.683,-6.075c-0.315,-0.513 -0.544,-1.049 -0.82,-1.605c-0.126,-0.254 -0.258,-0.596 -0.126,-0.945c0.042,-0.111 0.267,-0.336 0.378,-0.377c0.092,-0.035 0.199,-0.011 0.268,-0.063Zm104.349,15.518c0.574,0.006 0.751,0.387 0.994,0.724c0.239,0.332 0.511,0.644 0.757,0.976c0.521,0.703 1.176,1.303 1.702,1.998c0.184,0.243 0.445,0.431 0.631,0.677c0.074,0.068 0.147,0.136 0.221,0.205c0.256,0.338 0.6,0.615 0.899,0.913c0.257,0.257 0.515,0.514 0.772,0.771c0.406,0.306 0.734,0.735 1.136,1.038c0.229,0.174 0.42,0.397 0.646,0.567c0.746,0.559 1.423,1.21 2.176,1.763c1.134,0.832 2.27,1.672 3.453,2.455c1.778,1.178 3.666,2.241 5.582,3.274c1.088,0.586 2.228,1.084 3.342,1.636c0.397,0.197 0.812,0.344 1.199,0.536c0.143,0.07 0.282,0.086 0.425,0.157c0.617,0.305 1.304,0.535 1.94,0.818c0.163,0.073 0.305,0.094 0.473,0.158c0.618,0.234 1.273,0.473 1.908,0.708c0.356,0.132 0.78,0.183 1.103,0.362c0.818,0.452 1.573,1.421 1.151,2.707c-0.149,0.458 -0.404,0.814 -0.662,1.165c-0.178,0.242 -0.401,0.338 -0.725,0.44c-0.079,0.025 -0.433,-0.1 -0.505,-0.126c-0.434,-0.157 -0.871,-0.232 -1.308,-0.377c-2.259,-0.751 -4.429,-1.546 -6.512,-2.456c-3.373,-1.472 -6.395,-3.35 -9.24,-5.351c-0.828,-0.582 -1.575,-1.27 -2.381,-1.873c-0.236,-0.176 -0.439,-0.402 -0.678,-0.582c-0.047,-0.052 -0.095,-0.105 -0.142,-0.157c-0.321,-0.242 -0.579,-0.546 -0.899,-0.787c-0.141,-0.147 -0.283,-0.294 -0.425,-0.441c-0.161,-0.121 -0.285,-0.269 -0.426,-0.409c-0.141,-0.141 -0.288,-0.264 -0.41,-0.425c-0.1,-0.094 -0.2,-0.189 -0.3,-0.283c-0.18,-0.181 -0.365,-0.379 -0.52,-0.583c-0.094,-0.094 -0.189,-0.189 -0.284,-0.283c-0.203,-0.268 -0.462,-0.49 -0.662,-0.755c-0.521,-0.692 -1.088,-1.332 -1.592,-2.046c-0.454,-0.642 -0.951,-1.278 -1.372,-1.952c-0.539,-0.863 -1.033,-1.753 -1.514,-2.676c-0.211,-0.405 -0.451,-0.912 -0.599,-1.353c-0.066,-0.196 -0.086,-0.547 0.016,-0.724c0.069,-0.12 0.228,-0.296 0.362,-0.346c0.092,-0.035 0.199,-0.011 0.268,-0.063Z" style="fill:#3b434f;fill-opacity:0.2;"/><path id="new_vector_shape_done_1" d="M155.666,268.023c0.497,0 0.995,0 1.493,0c3.087,4.193 4.344,10.637 5.973,16.214c0.505,1.728 0.015,4.751 -0.426,5.973c-1.618,4.475 -6.698,4.395 -10.88,6.4c-1.124,0.538 -1.959,1.468 -3.414,1.707c-0.948,-0.836 -2.093,-1 -2.56,-2.347c-1.152,-1.587 0.333,-2.578 1.494,-3.2c2.106,-1.13 8.608,-2.243 9.386,-4.267c0.964,-1.095 0.323,-4.39 0,-5.546c-0.826,-2.963 -1.223,-5.436 -2.346,-8.107c-0.746,-1.775 -2.057,-3.646 -1.28,-5.76c0.643,-0.276 2.033,-0.59 2.56,-1.067Z" style="fill:#3b434f;"/><path id="oko" d="M100.839,231.757c4.713,0 8.533,3.82 8.533,8.533c0,4.713 -3.82,8.533 -8.533,8.533c-4.713,0 -8.533,-3.82 -8.533,-8.533c0,-4.713 3.82,-8.533 8.533,-8.533Z" style="fill:#3b434f;fill-rule:nonzero;"/><path id="oko_1" d="M195.559,231.757c4.713,0 8.533,3.82 8.533,8.533c0,4.713 -3.82,8.533 -8.533,8.533c-4.713,0 -8.533,-3.82 -8.533,-8.533c0,-4.713 3.82,-8.533 8.533,-8.533Z" style="fill:#3b434f;fill-rule:nonzero;"/><path id="Ellipse-3" d="M199.399,263.33c5.891,0 10.667,4.776 10.667,10.667c0,5.891 -4.776,10.666 -10.667,10.666c-5.891,0 -10.667,-4.775 -10.667,-10.666c0,-5.891 4.776,-10.667 10.667,-10.667Z" style="fill:#f5f3ef;fill-rule:nonzero;"/><path id="Ellipse-3-copy" d="M96.146,263.33c5.891,0 10.666,4.776 10.666,10.667c0,5.891 -4.775,10.666 -10.666,10.666c-5.891,0 -10.667,-4.775 -10.667,-10.666c0,-5.891 4.776,-10.667 10.667,-10.667Z" style="fill:#f4f3ef;fill-rule:nonzero;"/></g></svg>