<svg viewBox="0 0 684 500" xmlns="http://www.w3.org/2000/svg" fill-rule="evenodd" clip-rule="evenodd" stroke-linejoin="round" stroke-miterlimit="10"><path d="M436.66 211.775h-21.329l-7.618-24.377h36.565l-7.618 24.377zm219.393 0h-27.424l-4.571-36.566h36.566l-4.571 36.566z" fill="#fff" fill-rule="nonzero" stroke="#1050ff" stroke-width="3.05"/><path d="M438.184 187.398h-24.377v-31.995l12.188-9.141 12.189 9.141v31.995zm112.743 24.377l-6.094-16.759h-21.33l-6.094 16.759h33.518zm21.33-120.361h35.042v103.602H461.037V91.414h38.089" fill="#fff" fill-rule="nonzero"/><path d="M526.55 108.173l-7.617-63.99 15.235-35.042 15.236 35.042-7.618 63.99H526.55z" fill="#fff" fill-rule="nonzero"/><path d="M425.995 146.262l12.189 9.141v31.995h-12.189v-41.136zm121.581 56.372l-2.743-7.618h-21.33l-2.742 7.618h26.815zM534.168 9.141l15.236 35.042-7.618 63.99h-7.618V9.141zm73.131 82.273v83.795H461.037l146.262-83.795z" fill="#ccefff" fill-rule="nonzero"/><path d="M631.676 167.592l3.047-3.047-6.094-6.095 3.047-3.047m10.665 12.189l3.047-3.047-6.094-6.095 3.047-3.047m10.665 12.189l3.047-3.047-6.094-6.095 3.047-3.047" fill="none" stroke="#1050ff" stroke-width="3.05" stroke-linecap="round"/><path d="M538.739 187.398l-4.571 3.047-4.57-3.047v-4.571l4.57-3.047 4.571 3.047v4.571z" fill="none" stroke="#1050ff" stroke-width="3.05"/><path d="M550.927 211.775l-6.094-16.759h-21.33l-6.094 16.759h33.518zm-112.743-24.377h-24.377v-31.995l12.188-9.141 12.189 9.141v31.995zm-24.377-24.377h-4.571m4.571-7.618l-3.047-1.523m3.047 18.282h-4.571m4.571 9.142h-4.571m28.948-18.283h4.571m-4.571 9.141h4.571m-4.571 9.142h4.571m-22.854-30.472l-3.047-3.047m21.33 7.618l3.047-1.523m-9.141-3.048l3.047-3.047m-25.444 45.707h32.757" fill="none" stroke="#1050ff" stroke-width="3.05" stroke-linecap="round"/><path d="M419.901 181.304l3.047-4.571-3.047-4.571 3.047-4.57-3.047-4.571 3.047-4.571m6.095 22.854l3.047-4.571-3.047-4.571 3.047-4.57-3.047-4.571 3.047-4.571m-27.424 53.325h265.099m7.618 0h4.571m-291 0h4.57" fill="none" stroke="#1050ff" stroke-width="3.05" stroke-linecap="round"/><path d="M540.263 52.563l-6.095 3.809-6.094-3.809v-7.618l6.094-3.809 6.095 3.809v7.618z" fill="#fff" fill-rule="nonzero" stroke="#1050ff" stroke-width="3.05"/><path d="M526.55 108.173l-7.617-63.99 15.235-35.042 15.236 35.042-7.618 63.99H526.55z" fill="none" stroke="#1050ff" stroke-width="3.05" stroke-linecap="round"/><path d="M517.409 123.408l-7.618 9.142-7.617-9.142 7.617-33.518 7.618 33.518zm24.377 0l-7.618 9.142-7.618-9.142 7.618-33.518 7.618 33.518zm24.377 0l-7.618 9.142-7.618-9.142 7.618-33.518 7.618 33.518z" fill="#fff" fill-rule="nonzero" stroke="#1050ff" stroke-width="3.05" stroke-linecap="round"/><path d="M512.686 102.536l10.665-21.483m-7.313 36.109l10.512-8.989m29.1-5.637l-10.664-21.483m7.313 36.109l-10.513-8.989m-7.618-99.032V1.524m-31.994 121.884h15.235m9.141 0h15.236m9.141 0h15.236" fill="none" stroke="#1050ff" stroke-width="3.05" stroke-linecap="round"/><path d="M642.341 201.11l9.141-9.141-4.57-7.618-4.571 4.57-4.571-4.57-4.57 7.618 9.141 9.141z" fill="#ccefff" fill-rule="nonzero" stroke="#1050ff" stroke-width="3.05"/><path d="M659.557 184.351h11.732l-7.618 18.283h-6.399m-123.104-62.466v9.141m0 6.094v3.047m6.095-21.33v9.142m0 6.094v3.047m-12.189-18.283v9.142m0 6.094v3.047m6.094 9.142v1.523m6.095-4.571v1.524m-12.189-1.524v1.524m-18.283-22.853v9.141m0 6.094v3.047m6.095-21.33v9.142m0 6.094v3.047m-12.189-18.283v9.142m0 6.094v3.047m6.094 9.142v1.523m6.095-4.571v1.524m-12.189-1.524v1.524m54.848-22.853v9.141m0 6.094v3.047m6.094-21.33v9.142m0 6.094v3.047m-12.188-18.283v9.142m0 6.094v3.047m6.094 9.142v1.523m6.094-4.571v1.524m-12.188-1.524v1.524m19.806-71.607h35.042v103.602H461.037V91.414h38.089m-38.089 83.795h146.262" fill="none" stroke="#1050ff" stroke-width="3.05" stroke-linecap="round"/><path id="body.-bg.-flat" d="M2.772 497.69s-10.302-90.311 78.44-100.387h37.974V379.81s26.711 11.473 53.76 1.28l.853 16.213h44.373s77.274 7.715 72.6 100.387h-288z" fill="#fff" fill-rule="nonzero"/><path id="Rounded-Rectangle-13-copy-3" d="M290.034 499.277H0l1.377-23.53c2.69-45.942 38.887-81.004 80.31-81.004h37.499v4.694H84.202c-39.923 0-74.81 33.748-77.402 77.97l-.957 16.323h283.44l-.531-16.323c-2.592-44.222-37.479-77.97-77.402-77.97h-35.418v-4.694h37.68c41.423 0 77.62 35.062 80.31 81.004l1.377 23.53h-5.265z" fill="#3b434f" fill-rule="nonzero"/><path id="neck-copy-7" d="M122.172 377.836v26.315c0 13.656 11.08 24.726 24.747 24.726s24.747-11.07 24.747-24.726v-25.772a83.309 83.309 0 0 0 4.266-1.425v27.376c0 16.149-13.085 29.24-29.226 29.24-16.142 0-29.227-13.091-29.227-29.24v-28.186a84.31 84.31 0 0 0 4.693 1.692z" fill="#3b434f" fill-rule="nonzero"/><path id="Rounded-Rectangle-2" d="M223.492 451.179l-12.085 25.207a2.56 2.56 0 1 1-4.617-2.213l11.672-24.345-9.12-15.797a2.56 2.56 0 0 1 4.434-2.56l9.813 16.998a2.555 2.555 0 0 1-.097 2.71z" fill="#3b434f" fill-rule="nonzero"/><path id="Rounded-Rectangle-2-copy-3" d="M70.135 451.204l12.15 25.284a2.576 2.576 0 0 0 3.433 1.206 2.565 2.565 0 0 0 1.208-3.426l-11.734-24.42 9.169-15.845a2.565 2.565 0 0 0-.942-3.508 2.578 2.578 0 0 0-3.516.94l-9.866 17.05a2.56 2.56 0 0 0 .098 2.719z" fill="#3b434f" fill-rule="nonzero"/><path id="Rectangle-24" fill="#3b434f" fill-rule="nonzero" d="M117.479 393.89h4.693v103.68h-4.693z"/><path id="Rectangle-24-copy" fill="#3b434f" fill-rule="nonzero" d="M171.666 394.743h4.693v103.68h-4.693z"/><path id="Shape-34" d="M134.772 444.69l12-13 13 13-7 7 11 45h-34l12-45-7-7z" fill="#3b434f" fill-rule="nonzero"/><path id="Rectangle-24-copy-4" d="M161.472 497.38l-12.094-45.136 2.514-.754 1.668-1.772 12.791 47.738-4.879-.076zm-34.115-.533l12.626-46.909.816.699 2.56 1.706.844.085-11.976 44.495-4.87-.076z" fill="#3b434f"/><path id="Ellipse-6" d="M175.918 457.478l-3.319 3.318-12.913-12.913c-2.492 3.958-6.891 6.594-11.914 6.594-5.225 0-9.776-2.853-12.205-7.08l-13.479 13.479-3.328-3.327 26.539-26.539 2.076-1.925 2.075 1.925 26.468 26.468zm-37.74-12.692a10.444 10.444 0 0 0 9.381 5.851c4.028 0 7.514-2.284 9.259-5.622l-9.435-9.434-9.205 9.205z" fill="#3b434f"/><path id="_2-copy-5" d="M147.987 110.157c53.078 0 94.972 49.601 93.61 109.198l-1.448 63.341c-1.283 56.146-42.531 100.527-92.162 100.527-49.631 0-90.879-44.381-92.162-100.527l-1.448-63.341c-1.362-59.597 40.532-109.198 93.61-109.198z" fill="#fff" fill-rule="nonzero"/><path id="_2-line" d="M245.862 217.391l-1.517 65.914c-1.345 58.428-44.566 104.612-96.571 104.612-52.005 0-95.226-46.184-96.571-104.612l-1.517-65.914c-1.428-62.018 42.471-113.634 98.088-113.634s99.515 51.616 98.088 113.634zm-98.301-106.808c-52.353 0-93.674 49.214-92.331 108.345l1.428 62.847c1.266 55.707 41.95 99.742 90.903 99.742 48.952 0 89.636-44.035 90.902-99.742l1.428-62.847c1.344-59.131-39.978-108.345-92.33-108.345z" fill="#3b434f"/><path id="usta" d="M193.852 321.016c-7.755 6.734-25.272 13.141-45.653 13.141s-37.898-6.407-45.653-13.141c0 0-.794-2.183.37-3.348 1.186-1.185 3.043-.927 3.043-.927 7.747 6.738 21.851 12.296 42.24 12.296 20.389 0 34.493-5.558 42.24-12.296 0 0 1.895-.704 2.816.216 1.773 1.773.597 4.059.597 4.059z" fill="#3b434f" fill-rule="nonzero"/><path id="_.-" fill="#3b434f" fill-rule="nonzero" d="M134.119 344.397h27.307v4.267h-27.307z"/><path id="Shape-11-copy" d="M49.58 227.003c-.012.001-1.048-.826-3.004-1.442a14.11 14.11 0 0 0-3.577-.623 14.404 14.404 0 0 0-2.182.067c-.757.08-1.539.226-2.326.452-3.151.906-6.366 3.108-8.254 7.652-.948 2.272-1.573 5.131-1.738 8.707a44.016 44.016 0 0 0-.036 2.819c.018.986.067 2.018.149 3.1.163 2.164.458 4.523.898 7.095-.009-.003-.41 7.77 2.369 16.701 2.612 8.732 8.885 19.458 20.467 22.523-1.332-22.179-1.374-44.774-2.766-67.051z" fill="#fff" fill-rule="nonzero"/><path id="Shape-3" d="M50.9 227.897s-20.176-6.251-19.466 14.491c0 0 3.004 30.077 4.308 32.849 0 0 7.924 17.512 21.001 18.288 12.781.759 0 0 0 0l.159 5.645s-22.985-2.947-27.424-29.435l-3.504-24.062s-2.721-31.845 23.67-23.748c25.709 7.888 0 0 0 0l1.256 5.972" fill="#3b434f" fill-rule="nonzero"/><path id="Shape-4" d="M44.241 269.685s-1.129.853-2.099.853c-.97 0-2.086-.853-2.086-.853l-2.082-20.983s2.873-10.334 15.064-4.873l.288 6s-10.696-3.793-10.475.93c.213 4.547 1.39 18.926 1.39 18.926z" fill="#3b434f" fill-rule="nonzero"/><path id="Shape-11-copy_1" d="M245.586 227.052c.012.001 1.052-.826 3.017-1.441.981-.307 2.202-.56 3.593-.622a14.597 14.597 0 0 1 2.191.066c.76.081 1.546.226 2.336.452 3.165.905 6.394 3.106 8.29 7.647.952 2.271 1.58 5.127 1.746 8.701.041.893.054 1.832.036 2.817a54.998 54.998 0 0 1-.15 3.098 75.798 75.798 0 0 1-.902 7.09c.01-.003.412 7.764-2.379 16.69-2.624 8.726-8.924 19.445-20.556 22.508 1.337-22.165 1.379-44.744 2.778-67.006z" fill="#fff" fill-rule="nonzero"/><path id="Shape-3_1" d="M244.255 227.946s20.265-6.248 19.552 14.481c0 0-3.018 30.056-4.328 32.827 0 0-7.958 17.5-21.093 18.275-12.837.758 0 0 0 0l-.159 5.641s23.085-2.945 27.544-29.415l3.519-24.046s2.733-31.823-23.773-23.732c-25.822 7.883 0 0 0 0l-1.262 5.969" fill="#3b434f" fill-rule="nonzero"/><path id="Shape-4_1" d="M250.944 269.705s1.134.852 2.108.852c.974 0 2.095-.852 2.095-.852l2.091-20.969s-2.886-10.326-15.13-4.869l-.289 5.996s10.742-3.791 10.52.929c-.214 4.544-1.395 18.913-1.395 18.913z" fill="#3b434f" fill-rule="nonzero"/><path id="R-copy" d="M175.099 220.131s25.545-14.605 43.793 1.486l4.827.748s-6.182-22.497-51.2-7.869l1.253 4.194m1 0s25.988-14.926 43.12 3.927l8.827-.252s-11.009-24.032-56.2-8.869l4.253 6.194" fill="#3b434f" fill-rule="nonzero"/><path id="R-copy-3" d="M120.211 220.215s-25.46-14.475-43.647 1.473l-4.811.742s6.162-22.298 51.029-7.799l-1.249 4.156m-.996 0s-25.901-14.794-42.976 3.893l-8.798-.25s10.972-23.819 56.013-8.79l-4.239 6.138" fill="#3b434f" fill-rule="nonzero"/><path id="fill" d="M242.361 227.49s39.387-103.344-81.899-126.887c0 0-25.386-1.374-45.214-25.006 0 0-14.166 19.418-5.972 34.268 0 0-10.426 9.096-38.39 1.853 0 0-4.232 9.039-.853 19.449 0 0-35.174 15.209-18.411 83.239.16.652.326 1.308.496 1.97 0 0 15.049-60.161 25.593-61.128 0 0 56.814 32.616 104.932-2.779 0 0 23.758 31.698 52.893 33.343 0 0 5.269 20.441 6.825 41.678z" fill="#847b73" fill-rule="nonzero"/><path id="line" d="M245.052 228.343c-1.184 3.213-5.12 2.134-5.12 2.134-1.555-21.237-6.4-41.814-6.4-41.814-29.517-3.719-51.626-32-51.626-32-47.834 32.875-104.107 1.28-104.107 1.28-11.298 9.367-22.613 58.88-22.613 58.88-.17-.661-5.813.652-5.974 0-16.762-68.03 17.494-87.04 17.494-87.04-3.379-10.41 2.133-21.333 2.133-21.333 27.964 7.243 36.693.853 36.693.853-7.392-18.517 8.96-37.546 8.96-37.546 19.828 23.632 46.934 26.026 46.934 26.026 111.548 22.354 91.535 109.102 83.626 130.56zM158.866 103.33s-22.831-1.242-43.094-22.613c0 0-11.606 15.443-3.413 30.293 0 0-11.716 11.51-39.68 4.267 0 0-2.212 5.794 0 16.64 0 0-31.361 16.19-20.48 71.253.13.658-.17-.235 0 .427 0 0 13.118-50.808 25.173-51.2 0 0 58.863 33.324 106.24-3.84 0 0 25.053 33.341 54.187 34.986 0 0 2.527 7.146 5.547 28.16 0 0 25.551-87.405-84.48-108.373z" fill="#3b434f"/><path id="new_vector_shape_done" d="M122.864 98.637c.782.015.78.547 1.009 1.101.341.827.646 1.669 1.041 2.455.598 1.192 1.212 2.374 1.923 3.463.599.915 1.248 1.79 1.892 2.66.373.502.822.947 1.199 1.448.15.199.351.364.504.566l.158.142c.193.255.438.454.631.708l.63.614c.329.328.637.695 1.009.976l.237.252c.296.223.538.5.836.724l.142.157c.429.322.802.719 1.229 1.039.695.52 1.351 1.071 2.066 1.574.474.333.942.703 1.419 1.038.849.597 1.747 1.132 2.617 1.7.53.346 1.098.61 1.64.944 1.534.947 3.212 1.755 4.857 2.582.531.267 1.059.484 1.608.724.35.152.729.333 1.072.503.19.094.374.136.568.22.42.184.874.379 1.293.567.387.174.766.288 1.166.441.432.165.89.371 1.325.535.756.285 1.522.537 2.27.818.778.293 1.556.487 2.35.756 1.538.52 3.176.904 4.777 1.385.48.144.979.212 1.451.346.235.067.54.054.741.157.082.042.175.131.252.189.125.094.222.251.316.378.149.204.308.404.425.645.122.25.156.596.221.882.052.229-.02.516-.063.676-.036.135-.024.228-.063.362a2.895 2.895 0 0 1-.457.945c-.207.267-.717.274-1.104.173-.676-.177-1.419-.253-2.081-.441-.142-.04-.255-.022-.394-.063-.769-.222-1.608-.349-2.366-.566-.173-.05-.318-.043-.488-.095-.598-.182-1.221-.286-1.829-.472-1.525-.468-3.087-.856-4.541-1.385-.341-.124-.656-.188-.994-.315-2.387-.9-4.757-1.767-6.937-2.864-.574-.289-1.144-.517-1.703-.819a85.735 85.735 0 0 1-4.636-2.675c-.198-.123-.39-.28-.583-.409a89.71 89.71 0 0 1-2.555-1.779c-.851-.61-1.609-1.342-2.444-1.967-.176-.132-.324-.305-.504-.441l-.158-.173c-.195-.147-.346-.344-.536-.488-.457-.345-.843-.794-1.246-1.196-.38-.379-.793-.75-1.119-1.18a41.313 41.313 0 0 0-.221-.205c-.212-.28-.485-.51-.694-.787-.363-.483-.791-.917-1.151-1.401-.447-.601-.907-1.197-1.34-1.81-.433-.613-.809-1.247-1.214-1.888-1.097-1.738-1.99-3.633-2.822-5.65-.302-.732-.506-1.513-.757-2.282-.173-.53-.257-1.1-.41-1.637-.04-.14-.026-.251-.063-.394-.081-.306-.173-.689-.063-1.007a.805.805 0 0 1 .394-.393c.099-.035.196-.009.268-.063zm-7.742 23.607c.561.004.812.416 1.056.74.254.336.596.606.852.944l.631.63c.143.189.322.338.488.504.172.171.325.356.521.503l.567.567c.195.146.346.344.536.488.591.445 1.095 1.005 1.688 1.448.628.469 1.219.996 1.86 1.448.84.591 1.678 1.193 2.539 1.762.44.292.891.536 1.34.819.344.216.7.464 1.056.661 1.479.817 2.975 1.62 4.51 2.392 1.215.611 2.498 1.106 3.753 1.668.386.174.766.289 1.166.441.904.343 1.854.692 2.775 1.039.872.327 1.797.551 2.681.85.144.048.267.043.41.094.457.164.975.267 1.45.409.24.072.477.071.71.158.51.19 1.154.763 1.34 1.274.324.886-.034 1.893-.441 2.471-.123.175-.305.462-.521.536-.34.116-.698-.006-1.009-.095-.402-.115-.787-.132-1.182-.252-.73-.221-1.49-.341-2.224-.566-1.535-.472-3.065-.895-4.525-1.448-3.379-1.28-6.497-2.782-9.366-4.564-1.19-.74-2.319-1.574-3.437-2.393-.398-.291-.758-.65-1.151-.944-.538-.403-.996-.888-1.529-1.291l-.174-.188c-.109-.097-.228-.181-.331-.284l-.252-.267c-.201-.152-.36-.344-.536-.52-.172-.171-.357-.324-.505-.519l-.347-.331c-.386-.51-.876-.931-1.261-1.447-.091-.122-.224-.225-.316-.347-.37-.493-.779-.96-1.135-1.463-.405-.574-.826-1.151-1.198-1.747-.147-.236-.259-.476-.41-.709-.166-.255-.291-.523-.442-.802-.089-.166-.22-.35-.283-.535-.065-.189-.086-.555.015-.724.069-.116.232-.298.363-.347.099-.036.196-.008.268-.063zm-10.596 11.49c.634.007.793.474 1.057.849.424.604.914 1.16 1.356 1.747.352.468.812.855 1.167 1.322l.41.394c.196.259.497.56.756.755l.158.173c.129.129.263.251.41.362l.205.221c.35.264.644.605.993.865.836.622 1.632 1.301 2.492 1.905 1.862 1.309 3.913 2.402 6.023 3.462.689.347 1.423.604 2.113.945.294.145.596.218.898.346.827.35 1.714.655 2.57.976 1.186.443 2.442.722 3.658 1.133.427.144.881.208 1.293.346.367.123.743.142 1.12.252.747.217 1.579.337 2.349.535.445.114.895.141 1.325.252.48.123.982.137 1.45.252l.316.031c.481.122 1.04.136 1.529.252.209.05.389.014.599.063.684.159 1.464.127 2.16.283.199.045.406.023.584.063h.189c.24.054.546.041.788.095h.205c.397.087.877.038 1.278.125h.268c.509.112 1.122.014 1.639.126l.6.016c.113.025.292-.013.425.016.352.076.806.009 1.167.063.214.032.472-.026.662.016.168.036.388-.017.536.015h1.23c.971 0 1.918-.027 2.854-.031.443-.002.926-.099 1.293.031.208.074.399.256.568.378.379.275.735.667.914 1.133.055.142.05.268.095.425.071.253.174.65.094.992-.051.222-.079.491-.157.708-.121.334-.443.432-.82.519l-.41.016c-.582.127-1.291.015-1.876.142-.113.024-.27-.005-.363.015l-.662.016c-.214.046-.484-.02-.726.032-.202.043-.449.031-.678.031h-.252c-.195.042-.468.031-.678.032h-.914c-.284.06-.68.015-.994.015-.26 0-.588.034-.82-.015h-.536c-.373 0-.741 0-1.088-.032h-.536c-.306-.067-.705.003-1.009-.063h-.363c-.222-.048-.521-.015-.741-.063h-.315c-.169-.037-.415-.026-.583-.063h-.253c-.584-.129-1.257-.061-1.829-.189l-.473-.031c-.742-.169-1.564-.143-2.286-.315-.196-.047-.358-.016-.552-.063-.672-.164-1.411-.209-2.065-.378-.108-.027-.176-.003-.284-.031-.31-.081-.672-.134-.978-.22-.142-.041-.252-.022-.394-.063-1.063-.306-2.17-.466-3.217-.787-1.854-.568-3.728-1.077-5.408-1.826-.38-.17-.76-.268-1.135-.441-.664-.305-1.349-.583-2.003-.912a84.394 84.394 0 0 1-3.011-1.606c-.695-.386-1.364-.857-2.018-1.29a69.114 69.114 0 0 1-1.577-1.071c-.513-.36-.992-.775-1.498-1.148-.514-.38-.955-.858-1.466-1.244-.195-.146-.359-.389-.552-.535-.477-.36-.873-.839-1.293-1.259-1.795-1.792-3.32-3.851-4.683-6.075-.315-.513-.544-1.049-.82-1.605-.126-.254-.258-.596-.126-.945.042-.111.267-.336.378-.377.092-.035.199-.011.268-.063zm104.349 15.518c.574.006.751.387.994.724.239.332.511.644.757.976.521.703 1.176 1.303 1.702 1.998.184.243.445.431.631.677l.221.205c.256.338.6.615.899.913l.772.771c.406.306.734.735 1.136 1.038.229.174.42.397.646.567.746.559 1.423 1.21 2.176 1.763 1.134.832 2.27 1.672 3.453 2.455 1.778 1.178 3.666 2.241 5.582 3.274 1.088.586 2.228 1.084 3.342 1.636.397.197.812.344 1.199.536.143.07.282.086.425.157.617.305 1.304.535 1.94.818.163.073.305.094.473.158.618.234 1.273.473 1.908.708.356.132.78.183 1.103.362.818.452 1.573 1.421 1.151 2.707-.149.458-.404.814-.662 1.165-.178.242-.401.338-.725.44-.079.025-.433-.1-.505-.126-.434-.157-.871-.232-1.308-.377-2.259-.751-4.429-1.546-6.512-2.456-3.373-1.472-6.395-3.35-9.24-5.351-.828-.582-1.575-1.27-2.381-1.873-.236-.176-.439-.402-.678-.582l-.142-.157c-.321-.242-.579-.546-.899-.787l-.425-.441c-.161-.121-.285-.269-.426-.409-.141-.141-.288-.264-.41-.425l-.3-.283a5.995 5.995 0 0 1-.52-.583l-.284-.283c-.203-.268-.462-.49-.662-.755-.521-.692-1.088-1.332-1.592-2.046-.454-.642-.951-1.278-1.372-1.952a39.39 39.39 0 0 1-1.514-2.676 10.124 10.124 0 0 1-.599-1.353c-.066-.196-.086-.547.016-.724.069-.12.228-.296.362-.346.092-.035.199-.011.268-.063z" fill="#3b434f" fill-opacity=".2"/><path id="new_vector_shape_done_1" d="M155.666 268.023h1.493c3.087 4.193 4.344 10.637 5.973 16.214.505 1.728.015 4.751-.426 5.973-1.618 4.475-6.698 4.395-10.88 6.4-1.124.538-1.959 1.468-3.414 1.707-.948-.836-2.093-1-2.56-2.347-1.152-1.587.333-2.578 1.494-3.2 2.106-1.13 8.608-2.243 9.386-4.267.964-1.095.323-4.39 0-5.546-.826-2.963-1.223-5.436-2.346-8.107-.746-1.775-2.057-3.646-1.28-5.76.643-.276 2.033-.59 2.56-1.067z" fill="#3b434f"/><path id="oko" d="M100.839 231.757a8.533 8.533 0 0 1 8.533 8.533 8.533 8.533 0 0 1-8.533 8.533 8.533 8.533 0 0 1-8.533-8.533 8.533 8.533 0 0 1 8.533-8.533z" fill="#3b434f" fill-rule="nonzero"/><path id="oko_1" d="M195.559 231.757a8.533 8.533 0 0 1 8.533 8.533 8.533 8.533 0 0 1-8.533 8.533 8.533 8.533 0 0 1-8.533-8.533 8.533 8.533 0 0 1 8.533-8.533z" fill="#3b434f" fill-rule="nonzero"/><path id="Ellipse-3" d="M199.399 263.33c5.891 0 10.667 4.776 10.667 10.667s-4.776 10.666-10.667 10.666-10.667-4.775-10.667-10.666 4.776-10.667 10.667-10.667z" fill="#f5f3ef" fill-rule="nonzero"/><path id="Ellipse-3-copy" d="M96.146 263.33c5.891 0 10.666 4.776 10.666 10.667s-4.775 10.666-10.666 10.666-10.667-4.775-10.667-10.666 4.776-10.667 10.667-10.667z" fill="#f4f3ef" fill-rule="nonzero"/></svg>