<svg viewBox="0 0 59 59" xmlns="http://www.w3.org/2000/svg" fill-rule="evenodd" clip-rule="evenodd" stroke-linejoin="round" stroke-miterlimit="1.414"><path d="M29.14 28.94h-.091c-3.61 0-6.789-.919-8.671.812-1.124 1.036-1.597 2.285-1.597 3.628 0 5.612 4.494 6.303 10.271 6.303h.088c5.773 0 10.271-.694 10.271-6.303 0-1.343-.473-2.595-1.598-3.628-1.885-1.731-5.064-.812-8.673-.812zm-4.916 7.67c-1.1 0-1.988-1.236-1.988-2.758 0-1.521.888-2.751 1.988-2.751s1.991 1.23 1.991 2.751c0 1.522-.888 2.758-1.991 2.758zm9.737 0c-1.1 0-1.991-1.236-1.991-2.758 0-1.521.891-2.751 1.991-2.751 1.098 0 1.989 1.23 1.989 2.751 0 1.522-.888 2.758-1.989 2.758zM29.094 0C13.026 0 0 13.026 0 29.094c0 16.069 13.026 29.095 29.094 29.095 16.069 0 29.095-13.026 29.095-29.095C58.189 13.026 45.163 0 29.094 0zm2.655 41.032c-.521 0-1.558 0-2.655.006-1.097-.006-2.133-.006-2.655-.006-2.303 0-11.431-.179-11.431-11.18 0-2.528.867-4.379 2.288-5.925-.224-.558-.236-3.734.97-6.777 0 0 2.776.304 6.973 3.186.876-.246 2.367-.37 3.855-.37s2.976.124 3.858.367c4.198-2.883 6.974-3.186 6.974-3.186 1.206 3.043 1.197 6.222.97 6.777 1.421 1.546 2.288 3.397 2.288 5.925-.003 11.007-9.132 11.183-11.435 11.183z" fill="#023e62" fill-rule="nonzero"/></svg>