<svg viewBox="0 0 19 12" xmlns="http://www.w3.org/2000/svg" fill-rule="evenodd" clip-rule="evenodd" stroke-linejoin="round" stroke-miterlimit="1.414"><g fill="#777" fill-rule="nonzero"><path d="M6.667 10.284l.137.08c-.194.567-.641.852-1.339.852-.383 0-.703-.095-.957-.285-.168-.123-.34-.34-.52-.647-.363.323-.636.537-.82.64a2.503 2.503 0 0 1-1.226.292c-.597 0-1.069-.144-1.418-.43-.35-.287-.524-.673-.524-1.16 0-.448.144-.825.43-1.126a1.91 1.91 0 0 1 .56-.402c.21-.1.516-.202.916-.304.47-.12.818-.219 1.042-.3.224-.082.412-.18.563-.293a.978.978 0 0 0 .357-.437c.065-.168.097-.4.097-.698 0-.632-.118-1.094-.356-1.386a1.232 1.232 0 0 0-.95-.446c-.22 0-.419.057-.592.17-.173.114-.301.27-.388.47l-.203.47c-.107.255-.303.382-.584.382a.635.635 0 0 1-.649-.64c0-.276.195-.509.586-.698.21-.097.472-.178.783-.24a4.65 4.65 0 0 1 .914-.093c.336 0 .685.043 1.047.13.363.086.667.197.911.333.352.199.57.46.657.777.043.162.066.436.066.82v3c0 .508.022.854.065 1.038.09.384.312.576.664.576a.73.73 0 0 0 .393-.09c.095-.058.208-.177.338-.355zM3.982 7.088a5.41 5.41 0 0 1-.962.64 8.49 8.49 0 0 0-.817.48c-.15.107-.288.238-.412.388-.254.313-.38.679-.38 1.095 0 .357.099.652.295.885a.936.936 0 0 0 .748.348c.264 0 .513-.083.748-.247.234-.165.41-.385.53-.662.167-.361.25-.886.25-1.572V7.088z"/><path d="M18.279 11.07h-5.327v-.187c.48-.043.816-.125 1.004-.244.335-.21.504-.502.504-.874 0-.222-.076-.52-.228-.893l-.137-.34-.78-1.915H9.749l-.421 1.12-.204.502c-.243.595-.365 1.063-.365 1.404a1.212 1.212 0 0 0 .495.981c.21.145.48.233.812.259v.187H6.43v-.187a1.67 1.67 0 0 0 .755-.21c.216-.125.426-.324.632-.601.173-.222.342-.507.507-.856.164-.348.382-.871.653-1.57L11.945 0h.463l3.528 8.523c.264.644.476 1.103.632 1.379.157.276.327.484.51.624.131.098.28.171.447.224.167.051.419.095.754.133v.187zm-5.092-4.785l-1.704-4.2-1.605 4.2h3.309z"/></g></svg>