<svg viewBox="0 0 59 59" xmlns="http://www.w3.org/2000/svg" fill-rule="evenodd" clip-rule="evenodd" stroke-linejoin="round" stroke-miterlimit="1.414"><path d="M29.094 0C13.026 0 0 13.026 0 29.094c0 16.069 13.026 29.095 29.094 29.095 16.069 0 29.095-13.026 29.095-29.095C58.189 13.026 45.163 0 29.094 0zm-7.122 41.153h-5.891v-18.96h5.891v18.96zM18.99 19.866c-1.861 0-3.064-1.318-3.064-2.949 0-1.664 1.24-2.943 3.14-2.943 1.9 0 3.064 1.279 3.1 2.943 0 1.631-1.2 2.949-3.176 2.949zm24.5 21.287h-5.892V30.646c0-2.446-.854-4.107-2.985-4.107-1.627 0-2.594 1.125-3.021 2.207-.158.385-.197.93-.197 1.473V41.15H25.5V28.24a126.4 126.4 0 0 0-.155-6.05h5.119l.27 2.634h.118c.776-1.236 2.676-3.061 5.855-3.061 3.876 0 6.783 2.597 6.783 8.18v11.21z" fill="#023e62" fill-rule="nonzero"/></svg>