<?xml version="1.0" encoding="UTF-8" standalone="no"?><!DOCTYPE svg PUBLIC "-//W3C//DTD SVG 1.1//EN" "http://www.w3.org/Graphics/SVG/1.1/DTD/svg11.dtd"><svg width="100%" height="100%" viewBox="0 0 59 59" version="1.1" xmlns="http://www.w3.org/2000/svg" xmlns:xlink="http://www.w3.org/1999/xlink" xml:space="preserve" style="fill-rule:evenodd;clip-rule:evenodd;stroke-linejoin:round;stroke-miterlimit:1.41421;"><path id="linkedin.-with.-circle" d="M29.094,0c-16.068,0 -29.094,13.026 -29.094,29.094c0,16.069 13.026,29.095 29.094,29.095c16.069,0 29.095,-13.026 29.095,-29.095c0,-16.068 -13.026,-29.094 -29.095,-29.094l0,0Zm-7.122,41.153l-5.891,0l0,-18.96l5.891,0l0,18.96Zm-2.982,-21.287c-1.861,0 -3.064,-1.318 -3.064,-2.949c0,-1.664 1.24,-2.943 3.14,-2.943c1.9,0 3.064,1.279 3.1,2.943c0,1.631 -1.2,2.949 -3.176,2.949Zm24.5,21.287l-5.892,0l0,-10.507c0,-2.446 -0.854,-4.107 -2.985,-4.107c-1.627,0 -2.594,1.125 -3.021,2.207c-0.158,0.385 -0.197,0.93 -0.197,1.473l0,10.931l-5.895,0l0,-12.91c0,-2.367 -0.076,-4.346 -0.155,-6.05l5.119,0l0.27,2.634l0.118,0c0.776,-1.236 2.676,-3.061 5.855,-3.061c3.876,0 6.783,2.597 6.783,8.18l0,11.21Z" style="fill:#023e62;fill-rule:nonzero;"/></svg>