<svg viewBox="0 0 55 55" xmlns="http://www.w3.org/2000/svg" fill-rule="evenodd" clip-rule="evenodd" stroke-linejoin="round" stroke-miterlimit="1.414"><path d="M27.276 0C12.212 0 0 12.212 0 27.276s12.212 27.276 27.276 27.276S54.552 42.34 54.552 27.276 42.34 0 27.276 0zM16.568 18.752h21.365c1.133 0 .55 1.454-.067 1.827l-9.47 5.724c-.319.191-.73.283-1.145.283-.414 0-.826-.092-1.144-.283l-9.471-5.724c-.617-.373-1.2-1.827-.068-1.827zm22.073 15.627c0 .597-.715 1.421-1.263 1.421H17.174c-.548 0-1.263-.824-1.263-1.421V24.018c0-.261-.005-.601.488-.311.701.411 9.279 5.47 9.708 5.722.429.253.73.283 1.144.283.415 0 .715-.03 1.145-.283l9.757-5.72c.493-.29.488.049.488.31v10.36z" fill="#023e62" fill-rule="nonzero"/></svg>