<?xml version="1.0" encoding="UTF-8" standalone="no"?><!DOCTYPE svg PUBLIC "-//W3C//DTD SVG 1.1//EN" "http://www.w3.org/Graphics/SVG/1.1/DTD/svg11.dtd"><svg width="100%" height="100%" viewBox="0 0 59 59" version="1.1" xmlns="http://www.w3.org/2000/svg" xmlns:xlink="http://www.w3.org/1999/xlink" xml:space="preserve" style="fill-rule:evenodd;clip-rule:evenodd;stroke-linejoin:round;stroke-miterlimit:1.41421;"><path id="twitter.-with.-circle" d="M29.094,0c-16.068,0 -29.094,13.026 -29.094,29.094c0,16.069 13.026,29.095 29.094,29.095c16.069,0 29.095,-13.026 29.095,-29.095c0,-16.068 -13.026,-29.094 -29.095,-29.094l0,0Zm11.835,23.833c0.012,0.249 0.015,0.497 0.015,0.74c0,7.576 -5.761,16.307 -16.302,16.307c-3.237,0 -6.249,-0.945 -8.783,-2.576c0.446,0.055 0.904,0.076 1.367,0.076c2.685,0 5.155,-0.912 7.116,-2.452c-2.506,-0.048 -4.622,-1.703 -5.352,-3.976c0.349,0.064 0.706,0.1 1.076,0.1c0.521,0 1.03,-0.07 1.509,-0.2c-2.621,-0.527 -4.597,-2.843 -4.597,-5.619l0,-0.069c0.773,0.427 1.657,0.688 2.597,0.718c-1.54,-1.031 -2.549,-2.782 -2.549,-4.773c0,-1.049 0.282,-2.037 0.776,-2.883c2.828,3.468 7.046,5.747 11.81,5.992c-0.1,-0.421 -0.148,-0.858 -0.148,-1.309c0,-3.161 2.564,-5.731 5.731,-5.731c1.646,0 3.137,0.697 4.182,1.812c1.306,-0.26 2.531,-0.733 3.637,-1.391c-0.427,1.337 -1.333,2.461 -2.518,3.173c1.16,-0.142 2.263,-0.448 3.291,-0.906c-0.767,1.149 -1.74,2.161 -2.858,2.967l0,0Z" style="fill:#023e62;fill-rule:nonzero;"/></svg>