<svg viewBox="0 0 59 59" xmlns="http://www.w3.org/2000/svg" fill-rule="evenodd" clip-rule="evenodd" stroke-linejoin="round" stroke-miterlimit="1.414"><path id="twitter.-with.-circle" d="M29.094 0C13.026 0 0 13.026 0 29.094c0 16.069 13.026 29.095 29.094 29.095 16.069 0 29.095-13.026 29.095-29.095C58.189 13.026 45.163 0 29.094 0zm11.835 23.833c.012.249.015.497.015.74 0 7.576-5.761 16.307-16.302 16.307-3.237 0-6.249-.945-8.783-2.576.446.055.904.076 1.367.076 2.685 0 5.155-.912 7.116-2.452a5.74 5.74 0 0 1-5.352-3.976 5.771 5.771 0 0 0 2.585-.1 5.735 5.735 0 0 1-4.597-5.619v-.069a5.744 5.744 0 0 0 2.597.718 5.728 5.728 0 0 1-2.549-4.773c0-1.049.282-2.037.776-2.883a16.288 16.288 0 0 0 11.81 5.992 5.65 5.65 0 0 1-.148-1.309 5.732 5.732 0 0 1 9.913-3.919 11.487 11.487 0 0 0 3.637-1.391 5.752 5.752 0 0 1-2.518 3.173 11.496 11.496 0 0 0 3.291-.906 11.62 11.62 0 0 1-2.858 2.967z" fill="#023e62" fill-rule="nonzero"/></svg>