<?xml version="1.0" encoding="UTF-8" standalone="no"?><!DOCTYPE svg PUBLIC "-//W3C//DTD SVG 1.1//EN" "http://www.w3.org/Graphics/SVG/1.1/DTD/svg11.dtd"><svg width="100%" height="100%" viewBox="0 0 19 16" version="1.1" xmlns="http://www.w3.org/2000/svg" xmlns:xlink="http://www.w3.org/1999/xlink" xml:space="preserve" style="fill-rule:evenodd;clip-rule:evenodd;stroke-linejoin:round;stroke-miterlimit:1.41421;"><path id="github" d="M12.38,9.109c-0.718,0 -1.3,0.807 -1.3,1.799c0,0.994 0.582,1.801 1.3,1.801c0.718,0 1.3,-0.807 1.3,-1.801c-0.001,-0.992 -0.582,-1.799 -1.3,-1.799Zm4.526,-4.683c0.149,-0.365 0.155,-2.439 -0.635,-4.426c0,0 -1.811,0.199 -4.551,2.08c-0.575,-0.16 -1.548,-0.238 -2.519,-0.238c-0.973,0 -1.945,0.078 -2.52,0.238c-2.741,-1.881 -4.552,-2.08 -4.552,-2.08c-0.789,1.987 -0.781,4.061 -0.634,4.426c-0.928,1.008 -1.495,2.219 -1.495,3.871c0,7.186 5.963,7.301 7.467,7.301c0.342,0 1.018,0.002 1.734,0.002c0.716,0 1.392,-0.002 1.732,-0.002c1.506,0 7.467,-0.115 7.467,-7.301c0,-1.652 -0.566,-2.863 -1.494,-3.871l0,0Zm-7.678,10.289l-0.056,0c-3.771,0 -6.709,-0.449 -6.709,-4.115c0,-0.879 0.31,-1.693 1.047,-2.369c1.227,-1.127 3.305,-0.531 5.662,-0.531l0.056,0c2.357,0 4.436,-0.596 5.664,0.531c0.735,0.676 1.045,1.49 1.045,2.369c0,3.666 -2.937,4.115 -6.709,4.115l0,0Zm-3.207,-5.606c-0.718,0 -1.3,0.807 -1.3,1.799c0,0.994 0.582,1.801 1.3,1.801c0.718,0 1.301,-0.807 1.301,-1.801c0,-0.992 -0.582,-1.799 -1.301,-1.799Z" style="fill:#333;fill-rule:nonzero;"/></svg>