<?xml version="1.0" encoding="UTF-8" standalone="no"?>
<!DOCTYPE svg PUBLIC "-//W3C//DTD SVG 1.1//EN" "http://www.w3.org/Graphics/SVG/1.1/DTD/svg11.dtd">
<svg width="100%" height="100%" viewBox="0 0 19 12" version="1.1" xmlns="http://www.w3.org/2000/svg" xmlns:xlink="http://www.w3.org/1999/xlink" xml:space="preserve" style="fill-rule:evenodd;clip-rule:evenodd;stroke-linejoin:round;stroke-miterlimit:1.41421;">
    <g transform="matrix(1,0,0,1,-98.5408,-63.5563)">
        <g transform="matrix(1.38405,0,0,1.38405,3.31787,-37.6855)">
            <path d="M73.617,80.579L73.716,80.637C73.576,81.047 73.253,81.253 72.749,81.253C72.472,81.253 72.241,81.184 72.057,81.047C71.936,80.958 71.811,80.801 71.682,80.579C71.419,80.813 71.222,80.967 71.089,81.042C70.835,81.182 70.539,81.253 70.203,81.253C69.772,81.253 69.431,81.149 69.179,80.942C68.926,80.735 68.8,80.456 68.8,80.104C68.8,79.78 68.904,79.508 69.111,79.29C69.228,79.169 69.363,79.072 69.515,79C69.667,78.927 69.888,78.854 70.177,78.78C70.517,78.694 70.768,78.622 70.93,78.563C71.092,78.504 71.228,78.434 71.337,78.352C71.462,78.262 71.548,78.157 71.595,78.036C71.642,77.915 71.665,77.747 71.665,77.532C71.665,77.075 71.58,76.741 71.408,76.53C71.33,76.432 71.229,76.354 71.106,76.295C70.983,76.237 70.855,76.208 70.722,76.208C70.562,76.208 70.419,76.249 70.294,76.331C70.169,76.413 70.076,76.526 70.013,76.67L69.867,77.01C69.789,77.194 69.648,77.286 69.445,77.286C69.312,77.286 69.201,77.242 69.111,77.154C69.021,77.066 68.976,76.956 68.976,76.823C68.976,76.624 69.117,76.456 69.399,76.319C69.551,76.249 69.74,76.191 69.965,76.146C70.19,76.101 70.41,76.079 70.625,76.079C70.868,76.079 71.12,76.11 71.382,76.172C71.644,76.235 71.864,76.315 72.04,76.413C72.294,76.557 72.452,76.745 72.515,76.975C72.546,77.092 72.562,77.29 72.562,77.567L72.562,79.735C72.562,80.102 72.578,80.352 72.609,80.485C72.675,80.762 72.835,80.901 73.089,80.901C73.21,80.901 73.305,80.879 73.373,80.836C73.442,80.794 73.523,80.708 73.617,80.579ZM71.677,78.27C71.467,78.446 71.235,78.6 70.982,78.733C70.698,78.885 70.501,79.001 70.392,79.079C70.283,79.157 70.184,79.251 70.094,79.36C69.911,79.586 69.82,79.85 69.82,80.151C69.82,80.409 69.891,80.622 70.033,80.79C70.175,80.958 70.355,81.042 70.573,81.042C70.764,81.042 70.944,80.982 71.114,80.863C71.283,80.744 71.41,80.585 71.496,80.385C71.617,80.124 71.677,79.745 71.677,79.249L71.677,78.27Z" style="fill:rgb(51,51,51);fill-rule:nonzero;"/>
            <path d="M82.007,81.147L78.158,81.147L78.158,81.012C78.505,80.981 78.748,80.922 78.884,80.836C79.126,80.684 79.248,80.473 79.248,80.204C79.248,80.044 79.193,79.829 79.083,79.559L78.984,79.313L78.421,77.93L75.843,77.93L75.539,78.739L75.392,79.102C75.216,79.532 75.128,79.87 75.128,80.116C75.128,80.26 75.161,80.395 75.225,80.52C75.29,80.645 75.376,80.747 75.486,80.825C75.638,80.93 75.833,80.993 76.072,81.012L76.072,81.147L73.447,81.147L73.447,81.012C73.654,81.001 73.835,80.95 73.992,80.86C74.148,80.77 74.3,80.626 74.449,80.426C74.574,80.266 74.696,80.06 74.815,79.808C74.934,79.556 75.091,79.178 75.287,78.674L77.431,73.149L77.765,73.149L80.314,79.307C80.505,79.772 80.658,80.104 80.771,80.303C80.884,80.503 81.007,80.653 81.14,80.754C81.234,80.825 81.341,80.878 81.462,80.916C81.583,80.953 81.765,80.985 82.007,81.012L82.007,81.147ZM78.328,77.69L77.097,74.655L75.937,77.69L78.328,77.69Z" style="fill:rgb(51,51,51);fill-rule:nonzero;"/>
        </g>
    </g>
</svg>
