<?xml version="1.0" encoding="UTF-8" standalone="no"?><!DOCTYPE svg PUBLIC "-//W3C//DTD SVG 1.1//EN" "http://www.w3.org/Graphics/SVG/1.1/DTD/svg11.dtd"><svg width="100%" height="100%" viewBox="0 0 18 18" version="1.1" xmlns="http://www.w3.org/2000/svg" xmlns:xlink="http://www.w3.org/1999/xlink" xml:space="preserve" style="fill-rule:evenodd;clip-rule:evenodd;stroke-linejoin:round;stroke-miterlimit:1.41421;"><path id="linkedin" d="M4,18l-4,0l0,-13l4,0l0,13Zm6,0l-4,0l0,-8.556c0,-1.545 -0.051,-2.836 -0.102,-3.951l3.594,0l0.178,1.723l0.076,0c0.506,-0.811 1.746,-2 3.822,-2c2.532,0 4.432,1.695 4.432,5.342l0,7.442l-4,0l0,-6.861c0,-1.594 -0.607,-2.81 -2,-2.81c-1.062,0 -1.594,0.86 -1.873,1.569c-0.102,0.254 -0.127,0.608 -0.127,0.963l0,7.139Zm-6,-16c0,1.062 -0.71,1.976 -2.001,1.976c-1.215,0 -1.999,-0.862 -1.999,-1.924c0,-1.09 0.76,-2.052 2,-2.052c1.24,0 1.976,0.91 2,2Z" style="fill:#333;"/></svg>