<?xml version="1.0" encoding="UTF-8" standalone="no"?><!DOCTYPE svg PUBLIC "-//W3C//DTD SVG 1.1//EN" "http://www.w3.org/Graphics/SVG/1.1/DTD/svg11.dtd"><svg width="100%" height="100%" viewBox="0 0 400 400" version="1.1" xmlns="http://www.w3.org/2000/svg" xmlns:xlink="http://www.w3.org/1999/xlink" xml:space="preserve" style="fill-rule:evenodd;clip-rule:evenodd;stroke-linecap:round;stroke-linejoin:round;stroke-miterlimit:1.5;"><path id="XMLID_13_" d="M253.202,210.596c-3.964,7.968 -10.492,13.79 -18.915,18.002c-4.075,2.039 -8.371,3.616 -12.855,4.785c-0.268,0.131 -0.535,0.259 -0.939,0.233c0.213,-0.28 0.518,-0.31 0.778,-0.412c2.898,-1.368 4.683,-3.578 5.622,-6.302c2.074,-6.017 1.81,-11.946 -1.271,-17.674c-1.568,-2.915 -3.455,-5.69 -4.776,-8.716c-1.377,-3.149 -2.741,-6.298 -3.264,-9.677c-0.119,-0.777 -0.038,-1.555 -0.034,-2.405c-0.501,0.157 -0.68,0.502 -0.901,0.786c-2.414,3.132 -3.451,6.664 -3.697,10.408c-0.174,2.651 0.072,5.286 0.633,7.9c0.043,0.191 0.077,0.386 0.094,0.582c0.008,0.072 -0.047,0.153 -0.098,0.302c-0.587,-0.238 -0.973,-0.642 -1.352,-1.042c-2.732,-2.843 -3.803,-6.229 -3.994,-9.893c-0.191,-3.642 0.459,-7.194 1.691,-10.649c1.819,-5.087 1.454,-10.114 -0.344,-15.103c-1.606,-4.446 -4.624,-8.019 -8.716,-10.884c-0.174,-0.119 -0.357,-0.229 -0.54,-0.34c-0.046,-0.029 -0.114,-0.025 -0.187,-0.042c-0.225,0.217 -0.021,0.421 0.051,0.608c3.918,10.662 0.519,22.234 -9.434,28.345c-4.092,2.515 -5.703,3.416 -6.697,3.93c-0.094,0.047 -0.667,0.319 -1.428,0.727c0,0 -0.472,0.251 -0.91,0.506c-0.981,0.565 -1.959,1.279 -2.881,2.04c-3.977,3.276 -6.629,7.861 -7.432,12.953c-0.527,3.336 -0.617,7.254 0.31,11.236c0.748,3.208 2.04,5.524 2.758,6.659c2.397,3.795 5.996,6.757 10.705,8.949c0.114,0.039 0.306,0.124 0.238,0.204c-0.175,0.209 -0.387,0.022 -0.583,-0.029c-12.935,-2.86 -24.681,-7.718 -33.958,-16.557c-6.927,-6.6 -10.522,-14.504 -10.952,-23.568c-0.399,-8.508 1.947,-16.514 5.414,-24.325c1.662,-3.748 3.804,-7.293 5.746,-10.922c2.898,-5.414 4.968,-11.07 5.733,-17.066c0.675,-5.308 0.17,-10.459 -2.741,-15.256c-0.102,-0.166 -0.306,-0.366 -0.145,-0.536c0.191,-0.2 0.476,-0.055 0.706,0.013c2.486,0.731 4.666,1.942 6.603,3.502c4.004,3.217 6.468,7.292 8.083,11.809c2.282,6.383 2.822,12.957 2.554,19.612c-0.076,1.857 -0.233,3.71 -0.348,5.563c-0.013,0.208 -0.149,0.485 0.166,0.595c0.238,0.081 0.399,-0.119 0.556,-0.251c0.795,-0.658 1.386,-1.457 1.883,-2.307c1.538,-2.639 2.197,-5.504 2.584,-8.423c0.735,-5.542 0.476,-11.083 -0.289,-16.595c-0.353,-2.562 -1.356,-5.027 -1.866,-7.581c-2.218,-11.092 -2.546,-22.166 0.467,-33.19c2.61,-9.553 7.658,-17.882 15.716,-24.656c3.361,-2.826 7.08,-5.223 11.1,-7.246c0.161,-0.08 0.335,-0.153 0.51,-0.212c0.046,-0.017 0.114,0.021 0.178,0.034c0.111,0.28 -0.119,0.476 -0.238,0.692c-3.846,6.936 -5.83,14.313 -6.34,22.009c-1.054,15.809 4.33,29.964 13.875,43.036c3.259,4.462 6.961,8.619 10.947,12.575c0.284,0.28 0.518,0.633 1.058,0.812c-0.451,-9.876 3.14,-18.435 10.305,-25.821c3.544,-3.655 7.726,-6.634 12.337,-9.128c0.225,0.255 0.102,0.412 0.042,0.565c-3.718,9.94 -3.816,20.011 -1.334,30.164c1.092,4.47 2.822,8.754 4.951,12.914c4.968,9.711 8.18,19.85 9.043,30.53c0.646,8.006 -0.293,15.817 -3.978,23.228Z" style="fill:url(#_Linear1);fill-rule:nonzero;"/><g transform="matrix(0.902384,0,0,0.902384,-1212.01,-498.213)"><g transform="matrix(1,0,0.0174551,1,-16.7692,0)"><text x="1442.31px" y="960.709px" style="font-family:'NeutraText-Bold', 'Neutra Text';font-weight:700;font-size:15px;fill:none;">C<tspan x="1452.88px " y="960.709px ">O</tspan>LETIV<tspan x="1504.45px " y="960.709px ">O</tspan> DE DESENV<tspan x="1598.07px 1610.07px 1616.76px " y="960.709px 960.709px 960.709px ">OLV</tspan>EDORES</text></g><g transform="matrix(1,0,0.0174551,1,-16.7692,0)"><text x="1442.31px" y="960.709px" style="font-family:'NeutraText-Bold', 'Neutra Text';font-weight:700;font-size:15px;fill:#555;">C<tspan x="1452.88px " y="960.709px ">O</tspan>LETIV<tspan x="1504.45px " y="960.709px ">O</tspan> DE DESENV<tspan x="1598.07px 1610.07px 1616.76px " y="960.709px 960.709px 960.709px ">OLV</tspan>EDORES</text></g></g><path d="M86.982,353.825l223.284,0" style="fill:none;stroke:url(#_Linear2);stroke-width:0.78px;"/><g transform="matrix(6.28282,0,0,6.28282,-779.318,-45.4855)"><text x="132.881px" y="57.112px" style="font-family:'Lato-Bold', 'Lato', sans-serif;font-weight:700;font-size:10px;fill:none;">Apollo UX</text><text x="132.881px" y="57.112px" style="font-family:'Lato-Bold', 'Lato', sans-serif;font-weight:700;font-size:10px;fill:#555;">Apollo UX</text></g><defs><linearGradient id="_Linear1" x1="0" y1="0" x2="1" y2="0" gradientUnits="userSpaceOnUse" gradientTransform="matrix(60.6138,75.5014,-75.5014,60.6138,177.271,122.171)"><stop offset="0" style="stop-color:#ffad73;stop-opacity:1"/><stop offset="1" style="stop-color:#ff714c;stop-opacity:1"/></linearGradient><linearGradient id="_Linear2" x1="0" y1="0" x2="1" y2="0" gradientUnits="userSpaceOnUse" gradientTransform="matrix(223.284,0,0,0,86.9824,353.825)"><stop offset="0" style="stop-color:#ff5f6d;stop-opacity:1"/><stop offset="0.5" style="stop-color:#ff8a74;stop-opacity:1"/><stop offset="1" style="stop-color:#feb47b;stop-opacity:1"/></linearGradient></defs></svg>