<svg xmlns="http://www.w3.org/2000/svg" fill-rule="evenodd" viewBox="0 0 647 324" clip-rule="evenodd"><path fill="#fefdfd" d="M0 0h647v323.5H0z"/><path fill="url(#a)" d="M364.72 154.5c-3 6-7.92 10.4-14.28 13.6-3.08 1.53-6.33 2.72-9.7 3.6-.2.1-.42.2-.72.18.16-.2.4-.23.6-.3 2.17-1.04 3.52-2.7 4.23-4.77 1.57-4.54 1.37-9-.96-13.34-1.2-2.2-2.62-4.3-3.62-6.58-1.04-2.38-2.07-4.76-2.46-7.3-.1-.6-.03-1.2-.03-1.83-.38.12-.52.38-.7.6-1.8 2.36-2.6 5.03-2.78 7.86-.13 2 .06 4 .48 5.97.03.15.06.3.07.44 0 .07-.04.13-.07.24-.45-.18-.74-.48-1.02-.78-2.07-2.15-2.88-4.7-3.02-7.48-.15-2.75.34-5.43 1.28-8.04 1.37-3.84 1.1-7.64-.26-11.4-1.22-3.37-3.5-6.07-6.6-8.23-.12-.08-.26-.16-.4-.25-.03-.02-.08-.02-.14-.03-.17.16 0 .32.04.46 2.96 8.05.4 16.8-7.12 21.4-3.1 1.9-4.3 2.6-5.06 2.98-.07.03-.5.24-1.08.55 0 0-.36.2-.7.4-.73.42-1.47.96-2.16 1.53-3 2.48-5 5.94-5.62 9.78-.4 2.53-.46 5.5.24 8.5.56 2.42 1.54 4.17 2.08 5.03 1.8 2.87 4.53 5.1 8.08 6.76.1.02.24.08.18.14-.13.16-.3.02-.44-.02-9.77-2.16-18.64-5.83-25.65-12.5-5.23-5-7.94-10.96-8.27-17.8-.3-6.43 1.47-12.48 4.1-18.38 1.25-2.83 2.87-5.5 4.33-8.25 2.18-4.1 3.74-8.37 4.32-12.9.5-4 .13-7.9-2.07-11.52-.08-.13-.23-.28-.1-.4.14-.16.35-.05.53 0 1.87.56 3.52 1.47 4.98 2.65 3.03 2.43 4.9 5.5 6.1 8.92 1.73 4.82 2.14 9.8 1.94 14.8-.06 1.4-.18 2.8-.27 4.2 0 .17-.1.38.13.46.18.07.3-.08.42-.18.6-.5 1.05-1.1 1.42-1.74 1.16-2 1.66-4.16 1.95-6.36.56-4.2.36-8.37-.2-12.54-.28-1.93-1.04-3.8-1.42-5.72-1.68-8.38-1.93-16.74.35-25.07 1.97-7.23 5.78-13.52 11.87-18.63 2.54-2.14 5.35-3.95 8.38-5.48.13-.07.26-.12.4-.17.02 0 .08.02.12.03.1.2-.1.36-.18.52-2.9 5.24-4.4 10.8-4.8 16.62-.78 11.95 3.3 22.64 10.5 32.5 2.46 3.38 5.25 6.52 8.26 9.5.22.22.4.5.8.62-.34-7.46 2.37-13.92 7.8-19.5 2.66-2.76 5.82-5 9.3-6.9.17.2.08.32.04.43-2.8 7.5-2.9 15.12-1 22.78.8 3.38 2.12 6.62 3.73 9.76 3.75 7.32 6.18 14.98 6.83 23.05.5 6.05-.22 11.95-3 17.54z"/><g fill="none"><path d="M245.84 274.4c1.34 0 2.3-.58 2.88-1.52l-1.13-.77c-.4.6-.88 1.03-1.78 1.03-1.26 0-2.13-1-2.15-2.3-.02-1.3.8-2.26 2.07-2.26.8 0 1.36.38 1.7.9l1.08-.77c-.64-.97-1.55-1.42-2.8-1.42-2 0-3.56 1.5-3.52 3.56.03 2.06 1.65 3.57 3.64 3.57zM253.07 274.4c2 0 3.57-1.5 3.54-3.56-.03-2.06-1.65-3.57-3.66-3.57-2 0-3.57 1.5-3.53 3.57.04 2.06 1.66 3.57 3.67 3.57zm-.02-1.27c-1.27 0-2.15-1-2.17-2.3-.02-1.3.82-2.28 2.1-2.28 1.25 0 2.13 1 2.15 2.3.03 1.3-.8 2.28-2.08 2.28zM257.9 274.32h4.57l-.02-1.26h-3.15l-.1-5.7h-1.43l.12 6.96zM263.63 274.32h4.74l-.02-1.26h-3.3l-.03-1h2.8l-.03-1.23H265l-.04-2.2h3.17l-.02-1.27h-4.6l.13 6.96zM271.3 274.32h1.42l-.1-5.7h2l-.03-1.26h-5.42l.03 1.26h2l.1 5.7zM275.67 267.36h1.43l.12 6.96h-1.43zM281.36 274.38h.14l2.93-7.02h-1.4l-1.1 2.68c-.27.6-.52 1.58-.52 1.58s-.28-1-.56-1.58l-1.24-2.68h-1.54l3.3 7.02zM288.24 274.4c2 0 3.57-1.5 3.54-3.56-.04-2.06-1.66-3.57-3.67-3.57-2 0-3.56 1.5-3.52 3.57.03 2.06 1.65 3.57 3.66 3.57zm-.02-1.27c-1.27 0-2.15-1-2.17-2.3-.02-1.3.82-2.28 2.1-2.28 1.26 0 2.13 1 2.16 2.3.03 1.3-.8 2.28-2.08 2.28zM295.32 274.32h2.14c2.14 0 3.63-1.42 3.6-3.48-.04-2.06-1.6-3.48-3.73-3.48h-2.13l.12 6.96zm1.4-1.26l-.07-4.44h.63c1.55 0 2.27.92 2.3 2.22.02 1.3-.67 2.22-2.22 2.22h-.63zM302.33 274.32h4.75l-.03-1.26h-3.3l-.03-1h2.8l-.03-1.23h-2.8l-.04-2.2h3.17l-.02-1.27h-4.6l.13 6.96zM310.66 274.32h2.14c2.15 0 3.64-1.42 3.6-3.48-.03-2.06-1.58-3.48-3.72-3.48h-2.14l.12 6.96zm1.4-1.26l-.07-4.44h.63c1.54 0 2.27.92 2.3 2.22 0 1.3-.68 2.22-2.22 2.22h-.63zM317.67 274.32h4.75l-.02-1.26h-3.32v-1h2.78l-.02-1.23h-2.8l-.03-2.2h3.18l-.03-1.27h-4.6l.12 6.96zM325.8 274.4c1.37 0 2.37-.7 2.34-2-.02-1.18-.7-1.7-1.94-2.24l-.36-.15c-.62-.26-.9-.43-.9-.86 0-.35.26-.6.68-.6.4 0 .68.16.93.6l1.1-.7c-.48-.84-1.14-1.16-2.05-1.16-1.28 0-2.1.82-2.07 1.9.02 1.16.72 1.7 1.76 2.15l.35.15c.66.3 1.05.46 1.06.96.02.4-.36.7-.95.7-.7 0-1.1-.37-1.43-.87l-1.15.68c.43.83 1.3 1.46 2.63 1.46zM329.3 274.32h4.74l-.02-1.26h-3.32v-1h2.78l-.02-1.23h-2.8l-.03-2.2h3.17l-.02-1.27h-4.6l.1 6.96zM340.94 274.38h.15l-.14-7.02h-1.34l.06 2.92c0 .48.1 1.27.1 1.27s-.48-.64-.83-.96l-3.56-3.3h-.16l.13 7.02h1.34l-.04-2.92c0-.5-.13-1.27-.13-1.27s.5.63.85.95l3.56 3.3zM345.2 274.38h.14l2.93-7.02h-1.4l-1.1 2.68c-.27.6-.52 1.58-.52 1.58s-.3-1-.57-1.58l-1.24-2.68h-1.53l3.3 7.02zM352.1 274.4c2 0 3.56-1.5 3.53-3.56-.04-2.06-1.66-3.57-3.67-3.57-2 0-3.57 1.5-3.53 3.57.03 2.06 1.65 3.57 3.66 3.57zm-.03-1.27c-1.27 0-2.15-1-2.17-2.3-.02-1.3.82-2.28 2.1-2.28 1.25 0 2.13 1 2.15 2.3.03 1.3-.82 2.28-2.08 2.28zM356.9 274.32h4.6l-.04-1.26h-3.15l-.1-5.7h-1.42l.12 6.96zM364.13 274.38h.14l2.92-7.02h-1.4l-1.12 2.68c-.25.6-.5 1.58-.5 1.58s-.3-1-.57-1.58l-1.23-2.68h-1.54l3.3 7.02zM368.26 274.32H373l-.02-1.26h-3.3l-.03-1h2.8l-.03-1.23h-2.8l-.03-2.2h3.16l-.02-1.27h-4.6l.12 6.96zM374.33 274.32h2.14c2.15 0 3.64-1.42 3.6-3.48-.03-2.06-1.58-3.48-3.72-3.48h-2.14l.13 6.96zm1.4-1.26l-.06-4.44h.63c1.55 0 2.27.92 2.3 2.22 0 1.3-.68 2.22-2.22 2.22h-.64zM384.7 274.4c2 0 3.58-1.5 3.55-3.56-.04-2.06-1.66-3.57-3.67-3.57-2 0-3.57 1.5-3.53 3.57.03 2.06 1.65 3.57 3.66 3.57zm0-1.27c-1.28 0-2.16-1-2.18-2.3-.02-1.3.82-2.28 2.1-2.28 1.25 0 2.13 1 2.15 2.3.03 1.3-.82 2.28-2.08 2.28zM393.18 272.15c.85-.4 1.32-1.08 1.3-2.16-.03-1.7-1.2-2.64-3.15-2.64h-1.93l.13 6.96h1.43l-.03-1.73h.5c.12 0 .26-.02.4-.04l1.17 1.76h1.66l-1.48-2.17zm-2.27-.8l-.04-2.73h.45c1.15 0 1.7.4 1.7 1.37.03.97-.48 1.34-1.64 1.34h-.45zM395.8 274.32h4.76l-.03-1.26h-3.3l-.03-1h2.8l-.03-1.23h-2.8l-.03-2.2h3.17v-1.27h-4.6l.1 6.96zM403.94 274.4c1.36 0 2.36-.7 2.34-2-.02-1.18-.72-1.7-1.94-2.24l-.36-.15c-.62-.26-.9-.43-.9-.86 0-.35.26-.6.68-.6.4 0 .67.16.93.6l1.1-.7c-.5-.84-1.16-1.16-2.07-1.16-1.27 0-2.08.82-2.06 1.9.02 1.16.72 1.7 1.76 2.15l.36.15c.65.3 1.04.46 1.05.96 0 .4-.37.7-.96.7-.72 0-1.12-.37-1.44-.87l-1.15.68c.44.83 1.3 1.46 2.64 1.46z"/></g><g fill="#555"><path d="M245.84 274.4c1.34 0 2.3-.58 2.88-1.52l-1.13-.77c-.4.6-.88 1.03-1.78 1.03-1.26 0-2.13-1-2.15-2.3-.02-1.3.8-2.26 2.07-2.26.8 0 1.36.38 1.7.9l1.08-.77c-.64-.97-1.55-1.42-2.8-1.42-2 0-3.56 1.5-3.52 3.56.03 2.06 1.65 3.57 3.64 3.57zM253.07 274.4c2 0 3.57-1.5 3.54-3.56-.03-2.06-1.65-3.57-3.66-3.57-2 0-3.57 1.5-3.53 3.57.04 2.06 1.66 3.57 3.67 3.57zm-.02-1.27c-1.27 0-2.15-1-2.17-2.3-.02-1.3.82-2.28 2.1-2.28 1.25 0 2.13 1 2.15 2.3.03 1.3-.8 2.28-2.08 2.28zM257.9 274.32h4.57l-.02-1.26h-3.15l-.1-5.7h-1.43l.12 6.96zM263.63 274.32h4.74l-.02-1.26h-3.3l-.03-1h2.8l-.03-1.23H265l-.04-2.2h3.17l-.02-1.27h-4.6l.13 6.96zM271.3 274.32h1.42l-.1-5.7h2l-.03-1.26h-5.42l.03 1.26h2l.1 5.7zM275.67 267.36h1.43l.12 6.96h-1.43zM281.36 274.38h.14l2.93-7.02h-1.4l-1.1 2.68c-.27.6-.52 1.58-.52 1.58s-.28-1-.56-1.58l-1.24-2.68h-1.54l3.3 7.02zM288.24 274.4c2 0 3.57-1.5 3.54-3.56-.04-2.06-1.66-3.57-3.67-3.57-2 0-3.56 1.5-3.52 3.57.03 2.06 1.65 3.57 3.66 3.57zm-.02-1.27c-1.27 0-2.15-1-2.17-2.3-.02-1.3.82-2.28 2.1-2.28 1.26 0 2.13 1 2.16 2.3.03 1.3-.8 2.28-2.08 2.28zM295.32 274.32h2.14c2.14 0 3.63-1.42 3.6-3.48-.04-2.06-1.6-3.48-3.73-3.48h-2.13l.12 6.96zm1.4-1.26l-.07-4.44h.63c1.55 0 2.27.92 2.3 2.22.02 1.3-.67 2.22-2.22 2.22h-.63zM302.33 274.32h4.75l-.03-1.26h-3.3l-.03-1h2.8l-.03-1.23h-2.8l-.04-2.2h3.17l-.02-1.27h-4.6l.13 6.96zM310.66 274.32h2.14c2.15 0 3.64-1.42 3.6-3.48-.03-2.06-1.58-3.48-3.72-3.48h-2.14l.12 6.96zm1.4-1.26l-.07-4.44h.63c1.54 0 2.27.92 2.3 2.22 0 1.3-.68 2.22-2.22 2.22h-.63zM317.67 274.32h4.75l-.02-1.26h-3.32v-1h2.78l-.02-1.23h-2.8l-.03-2.2h3.18l-.03-1.27h-4.6l.12 6.96zM325.8 274.4c1.37 0 2.37-.7 2.34-2-.02-1.18-.7-1.7-1.94-2.24l-.36-.15c-.62-.26-.9-.43-.9-.86 0-.35.26-.6.68-.6.4 0 .68.16.93.6l1.1-.7c-.48-.84-1.14-1.16-2.05-1.16-1.28 0-2.1.82-2.07 1.9.02 1.16.72 1.7 1.76 2.15l.35.15c.66.3 1.05.46 1.06.96.02.4-.36.7-.95.7-.7 0-1.1-.37-1.43-.87l-1.15.68c.43.83 1.3 1.46 2.63 1.46zM329.3 274.32h4.74l-.02-1.26h-3.32v-1h2.78l-.02-1.23h-2.8l-.03-2.2h3.17l-.02-1.27h-4.6l.1 6.96zM340.94 274.38h.15l-.14-7.02h-1.34l.06 2.92c0 .48.1 1.27.1 1.27s-.48-.64-.83-.96l-3.56-3.3h-.16l.13 7.02h1.34l-.04-2.92c0-.5-.13-1.27-.13-1.27s.5.63.85.95l3.56 3.3zM345.2 274.38h.14l2.93-7.02h-1.4l-1.1 2.68c-.27.6-.52 1.58-.52 1.58s-.3-1-.57-1.58l-1.24-2.68h-1.53l3.3 7.02zM352.1 274.4c2 0 3.56-1.5 3.53-3.56-.04-2.06-1.66-3.57-3.67-3.57-2 0-3.57 1.5-3.53 3.57.03 2.06 1.65 3.57 3.66 3.57zm-.03-1.27c-1.27 0-2.15-1-2.17-2.3-.02-1.3.82-2.28 2.1-2.28 1.25 0 2.13 1 2.15 2.3.03 1.3-.82 2.28-2.08 2.28zM356.9 274.32h4.6l-.04-1.26h-3.15l-.1-5.7h-1.42l.12 6.96zM364.13 274.38h.14l2.92-7.02h-1.4l-1.12 2.68c-.25.6-.5 1.58-.5 1.58s-.3-1-.57-1.58l-1.23-2.68h-1.54l3.3 7.02zM368.26 274.32H373l-.02-1.26h-3.3l-.03-1h2.8l-.03-1.23h-2.8l-.03-2.2h3.16l-.02-1.27h-4.6l.12 6.96zM374.33 274.32h2.14c2.15 0 3.64-1.42 3.6-3.48-.03-2.06-1.58-3.48-3.72-3.48h-2.14l.13 6.96zm1.4-1.26l-.06-4.44h.63c1.55 0 2.27.92 2.3 2.22 0 1.3-.68 2.22-2.22 2.22h-.64zM384.7 274.4c2 0 3.58-1.5 3.55-3.56-.04-2.06-1.66-3.57-3.67-3.57-2 0-3.57 1.5-3.53 3.57.03 2.06 1.65 3.57 3.66 3.57zm0-1.27c-1.28 0-2.16-1-2.18-2.3-.02-1.3.82-2.28 2.1-2.28 1.25 0 2.13 1 2.15 2.3.03 1.3-.82 2.28-2.08 2.28zM393.18 272.15c.85-.4 1.32-1.08 1.3-2.16-.03-1.7-1.2-2.64-3.15-2.64h-1.93l.13 6.96h1.43l-.03-1.73h.5c.12 0 .26-.02.4-.04l1.17 1.76h1.66l-1.48-2.17zm-2.27-.8l-.04-2.73h.45c1.15 0 1.7.4 1.7 1.37.03.97-.48 1.34-1.64 1.34h-.45zM395.8 274.32h4.76l-.03-1.26h-3.3l-.03-1h2.8l-.03-1.23h-2.8l-.03-2.2h3.17v-1.27h-4.6l.1 6.96zM403.94 274.4c1.36 0 2.36-.7 2.34-2-.02-1.18-.72-1.7-1.94-2.24l-.36-.15c-.62-.26-.9-.43-.9-.86 0-.35.26-.6.68-.6.4 0 .67.16.93.6l1.1-.7c-.5-.84-1.16-1.16-2.07-1.16-1.27 0-2.08.82-2.06 1.9.02 1.16.72 1.7 1.76 2.15l.36.15c.65.3 1.04.46 1.05.96 0 .4-.37.7-.96.7-.72 0-1.12-.37-1.44-.87l-1.15.68c.44.83 1.3 1.46 2.64 1.46z"/></g><path fill="none" stroke="url(#b)" stroke-width=".78" d="M239.17 262.68h168.66"/><path fill="none" d="M249.05 232.1h-4.93c-.56 0-1-.14-1.37-.4-.35-.3-.6-.64-.77-1.05l-2.56-7h-14.2l-2.57 7c-.13.37-.38.7-.75 1-.37.3-.83.45-1.37.45h-4.96l13.48-34.3h6.53l13.47 34.3zm-22.2-12.96h10.93l-4.17-11.4c-.18-.5-.4-1.1-.62-1.8-.23-.7-.45-1.44-.68-2.24-.22.8-.44 1.56-.65 2.25-.22.7-.42 1.3-.63 1.83l-4.17 11.36zM252.26 240.05v-32.3h3.58c.38 0 .7.1.97.26.28.2.45.46.54.82l.47 2.26c1-1.12 2.12-2.04 3.4-2.73 1.27-.7 2.76-1.05 4.46-1.05 1.33 0 2.55.28 3.64.83 1.1.56 2.05 1.36 2.85 2.4.8 1.06 1.42 2.36 1.85 3.9.44 1.55.66 3.3.66 5.3 0 1.83-.25 3.5-.74 5.06-.5 1.54-1.2 2.9-2.1 4.02-.9 1.14-2 2.04-3.3 2.68-1.3.64-2.73.95-4.33.95-1.38 0-2.55-.2-3.5-.62-.96-.42-1.82-1-2.58-1.75v9.97h-5.86zm11.4-28.12c-1.23 0-2.27.26-3.14.77-.85.52-1.66 1.24-2.4 2.17v10.92c.66.8 1.38 1.38 2.17 1.7.77.33 1.6.5 2.52.5.88 0 1.7-.17 2.4-.5.72-.34 1.33-.84 1.83-1.52s.88-1.54 1.15-2.58c.27-1.03.4-2.25.4-3.66 0-1.43-.1-2.63-.34-3.62-.23-1-.56-1.8-.98-2.4-.43-.63-.95-1.08-1.56-1.36-.6-.3-1.3-.43-2.07-.43zM289.5 207.37c1.8 0 3.46.3 4.93.88 1.48.6 2.74 1.42 3.8 2.5 1.03 1.07 1.84 2.4 2.4 3.93.58 1.55.86 3.3.86 5.2 0 1.93-.3 3.67-.86 5.22-.57 1.55-1.38 2.87-2.42 3.96-1.05 1.1-2.3 1.93-3.8 2.52-1.46.6-3.12.87-4.93.87-1.83 0-3.5-.28-4.97-.87-1.5-.6-2.76-1.43-3.8-2.52-1.06-1.1-1.88-2.4-2.46-3.96-.57-1.55-.86-3.3-.86-5.22 0-1.9.3-3.65.87-5.2.58-1.54 1.4-2.86 2.45-3.94 1.05-1.07 2.32-1.9 3.8-2.5 1.5-.57 3.15-.87 4.97-.87zm0 20.58c2 0 3.5-.68 4.48-2.04.97-1.35 1.46-3.34 1.46-5.97s-.5-4.63-1.46-6c-.97-1.38-2.47-2.07-4.5-2.07-2.05 0-3.57.7-4.55 2.08-.98 1.38-1.47 3.38-1.47 6 0 2.6.5 4.58 1.47 5.96.98 1.36 2.5 2.05 4.56 2.05zM306.45 196.84h5.86v35.26h-5.85zM319.3 196.84h5.87v35.26h-5.86zM342.2 207.37c1.8 0 3.46.3 4.93.88 1.48.6 2.74 1.42 3.8 2.5 1.03 1.07 1.84 2.4 2.4 3.93.58 1.55.86 3.3.86 5.2 0 1.93-.3 3.67-.86 5.22-.57 1.55-1.38 2.87-2.42 3.96-1.05 1.1-2.3 1.93-3.8 2.52-1.46.6-3.12.87-4.93.87-1.83 0-3.5-.28-4.97-.87-1.5-.6-2.76-1.43-3.8-2.52-1.06-1.1-1.88-2.4-2.46-3.96-.57-1.55-.86-3.3-.86-5.22 0-1.9.3-3.65.87-5.2.58-1.54 1.4-2.86 2.45-3.94 1.05-1.07 2.32-1.9 3.8-2.5 1.5-.57 3.15-.87 4.97-.87zm0 20.58c2 0 3.5-.68 4.48-2.04.97-1.35 1.46-3.34 1.46-5.97s-.5-4.63-1.46-6c-.97-1.38-2.47-2.07-4.5-2.07-2.05 0-3.57.7-4.55 2.08-.98 1.38-1.47 3.38-1.47 6 0 2.6.5 4.58 1.47 5.96.98 1.36 2.5 2.05 4.56 2.05zM382.07 226.95c1.24 0 2.34-.2 3.3-.62.98-.4 1.8-.98 2.48-1.73.67-.74 1.18-1.64 1.54-2.7.35-1.06.53-2.25.53-3.56V197.8h6.38v20.54c0 2.04-.32 3.93-.98 5.66-.65 1.73-1.6 3.22-2.83 4.48-1.24 1.26-2.74 2.24-4.5 2.94-1.75.7-3.73 1.06-5.93 1.06-2.2 0-4.17-.35-5.93-1.06-1.76-.7-3.25-1.68-4.47-2.94-1.23-1.26-2.17-2.75-2.83-4.48-.65-1.73-.98-3.62-.98-5.66V197.8h6.38v20.5c0 1.33.18 2.5.53 3.57.36 1.06.87 1.97 1.54 2.72.67.74 1.5 1.32 2.46 1.73.97.42 2.08.62 3.3.62zM411.04 214.45L400.1 197.8h6.37c.44 0 .76.05.95.17.2.12.38.3.54.58l7.8 12.6c.1-.2.17-.4.27-.6.1-.2.2-.4.33-.6l7.14-11.28c.35-.6.8-.88 1.35-.88h6.13l-11.06 16.38 11.36 17.92h-6.38c-.43 0-.77-.1-1.03-.33-.26-.22-.48-.48-.65-.76l-7.95-13.14c-.06.2-.13.37-.22.54-.08.16-.15.32-.23.46L407.2 231c-.18.28-.4.52-.64.76-.25.22-.57.34-.95.34h-5.97l11.4-17.65z"/><path fill="#555" d="M249.05 232.1h-4.93c-.56 0-1-.14-1.37-.4-.35-.3-.6-.64-.77-1.05l-2.56-7h-14.2l-2.57 7c-.13.37-.38.7-.75 1-.37.3-.83.45-1.37.45h-4.96l13.48-34.3h6.53l13.47 34.3zm-22.2-12.96h10.93l-4.17-11.4c-.18-.5-.4-1.1-.62-1.8-.23-.7-.45-1.44-.68-2.24-.22.8-.44 1.56-.65 2.25-.22.7-.42 1.3-.63 1.83l-4.17 11.36zM252.26 240.05v-32.3h3.58c.38 0 .7.1.97.26.28.2.45.46.54.82l.47 2.26c1-1.12 2.12-2.04 3.4-2.73 1.27-.7 2.76-1.05 4.46-1.05 1.33 0 2.55.28 3.64.83 1.1.56 2.05 1.36 2.85 2.4.8 1.06 1.42 2.36 1.85 3.9.44 1.55.66 3.3.66 5.3 0 1.83-.25 3.5-.74 5.06-.5 1.54-1.2 2.9-2.1 4.02-.9 1.14-2 2.04-3.3 2.68-1.3.64-2.73.95-4.33.95-1.38 0-2.55-.2-3.5-.62-.96-.42-1.82-1-2.58-1.75v9.97h-5.86zm11.4-28.12c-1.23 0-2.27.26-3.14.77-.85.52-1.66 1.24-2.4 2.17v10.92c.66.8 1.38 1.38 2.17 1.7.77.33 1.6.5 2.52.5.88 0 1.7-.17 2.4-.5.72-.34 1.33-.84 1.83-1.52s.88-1.54 1.15-2.58c.27-1.03.4-2.25.4-3.66 0-1.43-.1-2.63-.34-3.62-.23-1-.56-1.8-.98-2.4-.43-.63-.95-1.08-1.56-1.36-.6-.3-1.3-.43-2.07-.43zM289.5 207.37c1.8 0 3.46.3 4.93.88 1.48.6 2.74 1.42 3.8 2.5 1.03 1.07 1.84 2.4 2.4 3.93.58 1.55.86 3.3.86 5.2 0 1.93-.3 3.67-.86 5.22-.57 1.55-1.38 2.87-2.42 3.96-1.05 1.1-2.3 1.93-3.8 2.52-1.46.6-3.12.87-4.93.87-1.83 0-3.5-.28-4.97-.87-1.5-.6-2.76-1.43-3.8-2.52-1.06-1.1-1.88-2.4-2.46-3.96-.57-1.55-.86-3.3-.86-5.22 0-1.9.3-3.65.87-5.2.58-1.54 1.4-2.86 2.45-3.94 1.05-1.07 2.32-1.9 3.8-2.5 1.5-.57 3.15-.87 4.97-.87zm0 20.58c2 0 3.5-.68 4.48-2.04.97-1.35 1.46-3.34 1.46-5.97s-.5-4.63-1.46-6c-.97-1.38-2.47-2.07-4.5-2.07-2.05 0-3.57.7-4.55 2.08-.98 1.38-1.47 3.38-1.47 6 0 2.6.5 4.58 1.47 5.96.98 1.36 2.5 2.05 4.56 2.05zM306.45 196.84h5.86v35.26h-5.85zM319.3 196.84h5.87v35.26h-5.86zM342.2 207.37c1.8 0 3.46.3 4.93.88 1.48.6 2.74 1.42 3.8 2.5 1.03 1.07 1.84 2.4 2.4 3.93.58 1.55.86 3.3.86 5.2 0 1.93-.3 3.67-.86 5.22-.57 1.55-1.38 2.87-2.42 3.96-1.05 1.1-2.3 1.93-3.8 2.52-1.46.6-3.12.87-4.93.87-1.83 0-3.5-.28-4.97-.87-1.5-.6-2.76-1.43-3.8-2.52-1.06-1.1-1.88-2.4-2.46-3.96-.57-1.55-.86-3.3-.86-5.22 0-1.9.3-3.65.87-5.2.58-1.54 1.4-2.86 2.45-3.94 1.05-1.07 2.32-1.9 3.8-2.5 1.5-.57 3.15-.87 4.97-.87zm0 20.58c2 0 3.5-.68 4.48-2.04.97-1.35 1.46-3.34 1.46-5.97s-.5-4.63-1.46-6c-.97-1.38-2.47-2.07-4.5-2.07-2.05 0-3.57.7-4.55 2.08-.98 1.38-1.47 3.38-1.47 6 0 2.6.5 4.58 1.47 5.96.98 1.36 2.5 2.05 4.56 2.05zM382.07 226.95c1.24 0 2.34-.2 3.3-.62.98-.4 1.8-.98 2.48-1.73.67-.74 1.18-1.64 1.54-2.7.35-1.06.53-2.25.53-3.56V197.8h6.38v20.54c0 2.04-.32 3.93-.98 5.66-.65 1.73-1.6 3.22-2.83 4.48-1.24 1.26-2.74 2.24-4.5 2.94-1.75.7-3.73 1.06-5.93 1.06-2.2 0-4.17-.35-5.93-1.06-1.76-.7-3.25-1.68-4.47-2.94-1.23-1.26-2.17-2.75-2.83-4.48-.65-1.73-.98-3.62-.98-5.66V197.8h6.38v20.5c0 1.33.18 2.5.53 3.57.36 1.06.87 1.97 1.54 2.72.67.74 1.5 1.32 2.46 1.73.97.42 2.08.62 3.3.62zM411.04 214.45L400.1 197.8h6.37c.44 0 .76.05.95.17.2.12.38.3.54.58l7.8 12.6c.1-.2.17-.4.27-.6.1-.2.2-.4.33-.6l7.14-11.28c.35-.6.8-.88 1.35-.88h6.13l-11.06 16.38 11.36 17.92h-6.38c-.43 0-.77-.1-1.03-.33-.26-.22-.48-.48-.65-.76l-7.95-13.14c-.06.2-.13.37-.22.54-.08.16-.15.32-.23.46L407.2 231c-.18.28-.4.52-.64.76-.25.22-.57.34-.95.34h-5.97l11.4-17.65z"/><defs><linearGradient id="a" x2="1" gradientUnits="userSpaceOnUse" gradientTransform="matrix(45.783 57.028 -57.028 45.783 307.371 87.705)"><stop offset="0" stop-color="#ffad73"/><stop offset="1" stop-color="#ff714c"/></linearGradient><linearGradient id="b" x2="1" gradientUnits="userSpaceOnUse" gradientTransform="matrix(168.652 0 0 0 239.174 262.678)"><stop offset="0" stop-color="#ff5f6d"/><stop offset=".5" stop-color="#ff8a74"/><stop offset="1" stop-color="#feb47b"/></linearGradient></defs></svg>