<?xml version="1.0" encoding="UTF-8" standalone="no"?><!DOCTYPE svg PUBLIC "-//W3C//DTD SVG 1.1//EN" "http://www.w3.org/Graphics/SVG/1.1/DTD/svg11.dtd"><svg width="100%" height="100%" viewBox="0 0 400 400" version="1.1" xmlns="http://www.w3.org/2000/svg" xmlns:xlink="http://www.w3.org/1999/xlink" xml:space="preserve" style="fill-rule:evenodd;clip-rule:evenodd;stroke-linecap:round;stroke-linejoin:round;stroke-miterlimit:1.5;"><g><path id="XMLID_13_" d="M255.202,190.596c-3.964,7.968 -10.492,13.79 -18.915,18.002c-4.075,2.039 -8.371,3.616 -12.855,4.785c-0.268,0.131 -0.535,0.259 -0.939,0.233c0.213,-0.28 0.518,-0.31 0.778,-0.412c2.898,-1.368 4.683,-3.578 5.622,-6.302c2.074,-6.017 1.81,-11.946 -1.271,-17.674c-1.568,-2.915 -3.455,-5.69 -4.776,-8.716c-1.377,-3.149 -2.741,-6.298 -3.264,-9.677c-0.119,-0.777 -0.038,-1.555 -0.034,-2.405c-0.501,0.157 -0.68,0.502 -0.901,0.786c-2.414,3.132 -3.451,6.664 -3.697,10.408c-0.174,2.651 0.072,5.286 0.633,7.9c0.043,0.191 0.077,0.386 0.094,0.582c0.008,0.072 -0.047,0.153 -0.098,0.302c-0.587,-0.238 -0.973,-0.642 -1.352,-1.042c-2.732,-2.843 -3.803,-6.229 -3.994,-9.893c-0.191,-3.642 0.459,-7.194 1.691,-10.649c1.819,-5.087 1.454,-10.114 -0.344,-15.103c-1.606,-4.446 -4.624,-8.019 -8.716,-10.884c-0.174,-0.119 -0.357,-0.229 -0.54,-0.34c-0.046,-0.029 -0.114,-0.025 -0.187,-0.042c-0.225,0.217 -0.021,0.421 0.051,0.608c3.918,10.662 0.519,22.234 -9.434,28.345c-4.092,2.515 -5.703,3.416 -6.697,3.93c-0.094,0.047 -0.667,0.319 -1.428,0.727c0,0 -0.472,0.251 -0.91,0.506c-0.981,0.565 -1.959,1.279 -2.881,2.04c-3.977,3.276 -6.629,7.861 -7.432,12.953c-0.527,3.336 -0.617,7.254 0.31,11.236c0.748,3.208 2.04,5.524 2.758,6.659c2.397,3.795 5.996,6.757 10.705,8.949c0.114,0.039 0.306,0.124 0.238,0.204c-0.175,0.209 -0.387,0.022 -0.583,-0.029c-12.935,-2.86 -24.681,-7.718 -33.958,-16.557c-6.927,-6.6 -10.522,-14.504 -10.952,-23.568c-0.399,-8.508 1.947,-16.514 5.414,-24.325c1.662,-3.748 3.804,-7.293 5.746,-10.922c2.898,-5.414 4.968,-11.07 5.733,-17.066c0.675,-5.308 0.17,-10.459 -2.741,-15.256c-0.102,-0.166 -0.306,-0.366 -0.145,-0.536c0.191,-0.2 0.476,-0.055 0.706,0.013c2.486,0.731 4.666,1.942 6.603,3.502c4.004,3.217 6.468,7.292 8.083,11.809c2.282,6.383 2.822,12.957 2.554,19.612c-0.076,1.857 -0.233,3.71 -0.348,5.563c-0.013,0.208 -0.149,0.485 0.166,0.595c0.238,0.081 0.399,-0.119 0.556,-0.251c0.795,-0.658 1.386,-1.457 1.883,-2.307c1.538,-2.639 2.197,-5.504 2.584,-8.423c0.735,-5.542 0.476,-11.083 -0.289,-16.595c-0.353,-2.562 -1.356,-5.027 -1.866,-7.581c-2.218,-11.092 -2.546,-22.166 0.467,-33.19c2.61,-9.553 7.658,-17.882 15.716,-24.656c3.361,-2.826 7.08,-5.223 11.1,-7.246c0.161,-0.08 0.335,-0.153 0.51,-0.212c0.046,-0.017 0.114,0.021 0.178,0.034c0.111,0.28 -0.119,0.476 -0.238,0.692c-3.846,6.936 -5.83,14.313 -6.34,22.009c-1.054,15.809 4.33,29.964 13.875,43.036c3.259,4.462 6.961,8.619 10.947,12.575c0.284,0.28 0.518,0.633 1.058,0.812c-0.451,-9.876 3.14,-18.435 10.305,-25.821c3.544,-3.655 7.726,-6.634 12.337,-9.128c0.225,0.255 0.102,0.412 0.042,0.565c-3.718,9.94 -3.816,20.011 -1.334,30.164c1.092,4.47 2.822,8.754 4.951,12.914c4.968,9.711 8.18,19.85 9.043,30.53c0.646,8.006 -0.293,15.817 -3.978,23.228Z" style="fill:url(#_Linear1);fill-rule:nonzero;"/><g><g><path d="M96.897,348.837c1.773,0 3.032,-0.785 3.809,-2.03l-1.494,-1.015c-0.5,0.785 -1.153,1.353 -2.345,1.353c-1.665,0 -2.811,-1.313 -2.841,-3.032c-0.03,-1.719 1.071,-3.005 2.736,-3.005c1.056,0 1.809,0.501 2.254,1.205l1.431,-1.029c-0.848,-1.286 -2.05,-1.881 -3.715,-1.881c-2.639,0 -4.703,1.99 -4.655,4.71c0.047,2.721 2.18,4.724 4.82,4.724Z" style="fill:none;"/><path d="M106.462,348.837c2.653,0 4.73,-2.003 4.682,-4.724c-0.047,-2.72 -2.194,-4.724 -4.847,-4.724c-2.653,0 -4.729,2.004 -4.682,4.724c0.048,2.721 2.194,4.724 4.847,4.724Zm-0.029,-1.692c-1.679,0 -2.839,-1.313 -2.869,-3.032c-0.03,-1.719 1.084,-3.032 2.763,-3.032c1.678,0 2.838,1.313 2.868,3.032c0.03,1.719 -1.084,3.032 -2.762,3.032Z" style="fill:none;"/><path d="M112.84,348.715l6.064,0l-0.029,-1.664l-4.169,0l-0.132,-7.54l-1.895,0l0.161,9.204Z" style="fill:none;"/><path d="M120.429,348.715l6.281,0l-0.03,-1.664l-4.385,0l-0.023,-1.327l3.695,0l-0.028,-1.624l-3.696,0l-0.051,-2.924l4.196,0l-0.029,-1.665l-6.091,0l0.161,9.204Z" style="fill:none;"/><path d="M130.572,348.715l1.895,0l-0.132,-7.539l2.626,0l-0.029,-1.665l-7.147,0l0.029,1.665l2.626,0l0.132,7.539Z" style="fill:none;"/><path d="M138.262,339.511l-1.895,0l0.16,9.204l1.895,0l-0.16,-9.204Z" style="fill:none;"/><path d="M143.892,348.797l0.19,0l3.871,-9.286l-1.84,0l-1.482,3.546c-0.338,0.799 -0.667,2.085 -0.667,2.085c0,0 -0.388,-1.299 -0.754,-2.085l-1.645,-3.546l-2.031,0l4.358,9.286Z" style="fill:none;"/><path d="M152.998,348.837c2.653,0 4.73,-2.003 4.682,-4.724c-0.047,-2.72 -2.194,-4.724 -4.847,-4.724c-2.653,0 -4.729,2.004 -4.682,4.724c0.048,2.721 2.194,4.724 4.847,4.724Zm-0.029,-1.692c-1.679,0 -2.839,-1.313 -2.869,-3.032c-0.03,-1.719 1.084,-3.032 2.763,-3.032c1.678,0 2.838,1.313 2.868,3.032c0.03,1.719 -1.084,3.032 -2.762,3.032Z" style="fill:none;"/><path d="M162.363,348.715l2.829,0c2.842,0 4.813,-1.881 4.765,-4.602c-0.047,-2.72 -2.097,-4.602 -4.926,-4.602l-2.829,0l0.161,9.204Zm1.866,-1.664l-0.103,-5.875l0.839,0c2.044,0 2.999,1.218 3.029,2.937c0.03,1.719 -0.882,2.938 -2.926,2.938l-0.839,0Z" style="fill:none;"/><path d="M171.639,348.715l6.281,0l-0.029,-1.664l-4.386,0l-0.023,-1.327l3.695,0l-0.028,-1.624l-3.695,0l-0.051,-2.924l4.196,0l-0.029,-1.665l-6.091,0l0.16,9.204Z" style="fill:none;"/><path d="M182.666,348.715l2.829,0c2.843,0 4.813,-1.881 4.766,-4.602c-0.048,-2.72 -2.097,-4.602 -4.926,-4.602l-2.829,0l0.16,9.204Zm1.866,-1.664l-0.102,-5.875l0.839,0c2.044,0 2.999,1.218 3.029,2.937c0.03,1.719 -0.883,2.938 -2.926,2.938l-0.84,0Z" style="fill:none;"/><path d="M191.943,348.715l6.28,0l-0.029,-1.664l-4.385,0l-0.023,-1.327l3.695,0l-0.028,-1.624l-3.696,0l-0.051,-2.924l4.196,0l-0.029,-1.665l-6.091,0l0.161,9.204Z" style="fill:none;"/><path d="M202.701,348.837c1.801,0 3.124,-0.934 3.095,-2.639c-0.028,-1.584 -0.947,-2.288 -2.57,-2.978l-0.477,-0.203c-0.819,-0.352 -1.175,-0.582 -1.184,-1.151c-0.008,-0.46 0.337,-0.812 0.892,-0.812c0.542,0 0.898,0.23 1.233,0.812l1.459,-0.947c-0.642,-1.097 -1.516,-1.516 -2.721,-1.516c-1.692,0 -2.755,1.083 -2.731,2.504c0.027,1.543 0.947,2.274 2.324,2.856l0.477,0.203c0.873,0.379 1.392,0.609 1.403,1.259c0.01,0.541 -0.484,0.934 -1.269,0.934c-0.934,0 -1.471,-0.487 -1.889,-1.151l-1.527,0.894c0.574,1.096 1.726,1.935 3.485,1.935l0,0Z" style="fill:none;"/><path d="M207.319,348.715l6.281,0l-0.029,-1.664l-4.386,0l-0.023,-1.327l3.696,0l-0.029,-1.624l-3.695,0l-0.051,-2.924l4.196,0l-0.029,-1.665l-6.091,0l0.16,9.204Z" style="fill:none;"/><path d="M222.734,348.797l0.189,0l-0.162,-9.286l-1.773,0l0.067,3.858c0.011,0.636 0.151,1.678 0.151,1.678c0,0 -0.651,-0.839 -1.105,-1.259l-4.718,-4.358l-0.19,0l0.162,9.285l1.773,0l-0.067,-3.857c-0.012,-0.664 -0.165,-1.679 -0.165,-1.679c0,0 0.651,0.826 1.119,1.259l4.719,4.359Z" style="fill:none;"/><path d="M228.365,348.797l0.189,0l3.872,-9.286l-1.841,0l-1.481,3.546c-0.338,0.799 -0.668,2.085 -0.668,2.085c0,0 -0.388,-1.299 -0.754,-2.085l-1.645,-3.546l-2.031,0l4.359,9.286Z" style="fill:none;"/><path d="M237.479,348.837c2.653,0 4.73,-2.003 4.682,-4.724c-0.047,-2.72 -2.194,-4.724 -4.847,-4.724c-2.653,0 -4.729,2.004 -4.682,4.724c0.048,2.721 2.194,4.724 4.847,4.724Zm-0.029,-1.692c-1.679,0 -2.839,-1.313 -2.869,-3.032c-0.03,-1.719 1.084,-3.032 2.763,-3.032c1.678,0 2.838,1.313 2.868,3.032c0.03,1.719 -1.084,3.032 -2.762,3.032Z" style="fill:none;"/><path d="M243.848,348.715l6.064,0l-0.029,-1.664l-4.169,0l-0.132,-7.54l-1.895,0l0.161,9.204Z" style="fill:none;"/><path d="M253.406,348.797l0.189,0l3.872,-9.286l-1.841,0l-1.481,3.546c-0.338,0.799 -0.668,2.085 -0.668,2.085c0,0 -0.388,-1.299 -0.754,-2.085l-1.645,-3.546l-2.031,0l4.359,9.286Z" style="fill:none;"/><path d="M258.873,348.715l6.28,0l-0.029,-1.664l-4.385,0l-0.024,-1.327l3.696,0l-0.029,-1.624l-3.695,0l-0.051,-2.924l4.196,0l-0.029,-1.665l-6.091,0l0.161,9.204Z" style="fill:none;"/><path d="M266.913,348.715l2.829,0c2.842,0 4.813,-1.881 4.765,-4.602c-0.047,-2.72 -2.097,-4.602 -4.926,-4.602l-2.829,0l0.161,9.204Zm1.866,-1.664l-0.103,-5.875l0.84,0c2.043,0 2.999,1.218 3.029,2.937c0.03,1.719 -0.883,2.938 -2.927,2.938l-0.839,0Z" style="fill:none;"/><path d="M280.64,348.837c2.653,0 4.73,-2.003 4.682,-4.724c-0.047,-2.72 -2.194,-4.724 -4.847,-4.724c-2.653,0 -4.729,2.004 -4.682,4.724c0.048,2.721 2.194,4.724 4.847,4.724Zm-0.029,-1.692c-1.679,0 -2.839,-1.313 -2.869,-3.032c-0.03,-1.719 1.085,-3.032 2.763,-3.032c1.678,0 2.838,1.313 2.868,3.032c0.03,1.719 -1.084,3.032 -2.762,3.032Z" style="fill:none;"/><path d="M291.85,345.846c1.128,-0.515 1.748,-1.421 1.723,-2.856c-0.039,-2.247 -1.604,-3.479 -4.175,-3.479l-2.545,0l0.161,9.204l1.895,0l-0.04,-2.287l0.649,0c0.176,0 0.366,-0.014 0.541,-0.041l1.557,2.328l2.192,0l-1.958,-2.869l0,0Zm-3.01,-1.069l-0.063,-3.601l0.596,0c1.516,0 2.228,0.514 2.251,1.814c0.023,1.299 -0.646,1.787 -2.189,1.787l-0.595,0Z" style="fill:none;"/><path d="M295.329,348.715l6.281,0l-0.029,-1.664l-4.386,0l-0.023,-1.327l3.695,0l-0.028,-1.624l-3.696,0l-0.051,-2.924l4.196,0l-0.029,-1.665l-6.091,0l0.161,9.204Z" style="fill:none;"/><path d="M306.088,348.837c1.8,0 3.124,-0.934 3.094,-2.639c-0.028,-1.584 -0.947,-2.288 -2.57,-2.978l-0.477,-0.203c-0.818,-0.352 -1.174,-0.582 -1.184,-1.151c-0.008,-0.46 0.337,-0.812 0.892,-0.812c0.542,0 0.898,0.23 1.233,0.812l1.459,-0.947c-0.642,-1.097 -1.516,-1.516 -2.72,-1.516c-1.692,0 -2.756,1.083 -2.732,2.504c0.027,1.543 0.947,2.274 2.324,2.856l0.478,0.203c0.873,0.379 1.391,0.609 1.402,1.259c0.01,0.541 -0.484,0.934 -1.269,0.934c-0.934,0 -1.471,-0.487 -1.888,-1.151l-1.528,0.894c0.574,1.096 1.726,1.935 3.486,1.935l0,0Z" style="fill:none;"/></g><g><path d="M96.897,348.837c1.773,0 3.032,-0.785 3.809,-2.03l-1.494,-1.015c-0.5,0.785 -1.153,1.353 -2.345,1.353c-1.665,0 -2.811,-1.313 -2.841,-3.032c-0.03,-1.719 1.071,-3.005 2.736,-3.005c1.056,0 1.809,0.501 2.254,1.205l1.431,-1.029c-0.848,-1.286 -2.05,-1.881 -3.715,-1.881c-2.639,0 -4.703,1.99 -4.655,4.71c0.047,2.721 2.18,4.724 4.82,4.724Z" style="fill:#555;fill-rule:nonzero;"/><path d="M106.462,348.837c2.653,0 4.73,-2.003 4.682,-4.724c-0.047,-2.72 -2.194,-4.724 -4.847,-4.724c-2.653,0 -4.729,2.004 -4.682,4.724c0.048,2.721 2.194,4.724 4.847,4.724Zm-0.029,-1.692c-1.679,0 -2.839,-1.313 -2.869,-3.032c-0.03,-1.719 1.084,-3.032 2.763,-3.032c1.678,0 2.838,1.313 2.868,3.032c0.03,1.719 -1.084,3.032 -2.762,3.032Z" style="fill:#555;fill-rule:nonzero;"/><path d="M112.84,348.715l6.064,0l-0.029,-1.664l-4.169,0l-0.132,-7.54l-1.895,0l0.161,9.204Z" style="fill:#555;fill-rule:nonzero;"/><path d="M120.429,348.715l6.281,0l-0.03,-1.664l-4.385,0l-0.023,-1.327l3.695,0l-0.028,-1.624l-3.696,0l-0.051,-2.924l4.196,0l-0.029,-1.665l-6.091,0l0.161,9.204Z" style="fill:#555;fill-rule:nonzero;"/><path d="M130.572,348.715l1.895,0l-0.132,-7.539l2.626,0l-0.029,-1.665l-7.147,0l0.029,1.665l2.626,0l0.132,7.539Z" style="fill:#555;fill-rule:nonzero;"/><path d="M138.262,339.511l-1.895,0l0.16,9.204l1.895,0l-0.16,-9.204Z" style="fill:#555;"/><path d="M143.892,348.797l0.19,0l3.871,-9.286l-1.84,0l-1.482,3.546c-0.338,0.799 -0.667,2.085 -0.667,2.085c0,0 -0.388,-1.299 -0.754,-2.085l-1.645,-3.546l-2.031,0l4.358,9.286Z" style="fill:#555;fill-rule:nonzero;"/><path d="M152.998,348.837c2.653,0 4.73,-2.003 4.682,-4.724c-0.047,-2.72 -2.194,-4.724 -4.847,-4.724c-2.653,0 -4.729,2.004 -4.682,4.724c0.048,2.721 2.194,4.724 4.847,4.724Zm-0.029,-1.692c-1.679,0 -2.839,-1.313 -2.869,-3.032c-0.03,-1.719 1.084,-3.032 2.763,-3.032c1.678,0 2.838,1.313 2.868,3.032c0.03,1.719 -1.084,3.032 -2.762,3.032Z" style="fill:#555;fill-rule:nonzero;"/><path d="M162.363,348.715l2.829,0c2.842,0 4.813,-1.881 4.765,-4.602c-0.047,-2.72 -2.097,-4.602 -4.926,-4.602l-2.829,0l0.161,9.204Zm1.866,-1.664l-0.103,-5.875l0.839,0c2.044,0 2.999,1.218 3.029,2.937c0.03,1.719 -0.882,2.938 -2.926,2.938l-0.839,0Z" style="fill:#555;fill-rule:nonzero;"/><path d="M171.639,348.715l6.281,0l-0.029,-1.664l-4.386,0l-0.023,-1.327l3.695,0l-0.028,-1.624l-3.695,0l-0.051,-2.924l4.196,0l-0.029,-1.665l-6.091,0l0.16,9.204Z" style="fill:#555;fill-rule:nonzero;"/><path d="M182.666,348.715l2.829,0c2.843,0 4.813,-1.881 4.766,-4.602c-0.048,-2.72 -2.097,-4.602 -4.926,-4.602l-2.829,0l0.16,9.204Zm1.866,-1.664l-0.102,-5.875l0.839,0c2.044,0 2.999,1.218 3.029,2.937c0.03,1.719 -0.883,2.938 -2.926,2.938l-0.84,0Z" style="fill:#555;fill-rule:nonzero;"/><path d="M191.943,348.715l6.28,0l-0.029,-1.664l-4.385,0l-0.023,-1.327l3.695,0l-0.028,-1.624l-3.696,0l-0.051,-2.924l4.196,0l-0.029,-1.665l-6.091,0l0.161,9.204Z" style="fill:#555;fill-rule:nonzero;"/><path d="M202.701,348.837c1.801,0 3.124,-0.934 3.095,-2.639c-0.028,-1.584 -0.947,-2.288 -2.57,-2.978l-0.477,-0.203c-0.819,-0.352 -1.175,-0.582 -1.184,-1.151c-0.008,-0.46 0.337,-0.812 0.892,-0.812c0.542,0 0.898,0.23 1.233,0.812l1.459,-0.947c-0.642,-1.097 -1.516,-1.516 -2.721,-1.516c-1.692,0 -2.755,1.083 -2.731,2.504c0.027,1.543 0.947,2.274 2.324,2.856l0.477,0.203c0.873,0.379 1.392,0.609 1.403,1.259c0.01,0.541 -0.484,0.934 -1.269,0.934c-0.934,0 -1.471,-0.487 -1.889,-1.151l-1.527,0.894c0.574,1.096 1.726,1.935 3.485,1.935l0,0Z" style="fill:#555;fill-rule:nonzero;"/><path d="M207.319,348.715l6.281,0l-0.029,-1.664l-4.386,0l-0.023,-1.327l3.696,0l-0.029,-1.624l-3.695,0l-0.051,-2.924l4.196,0l-0.029,-1.665l-6.091,0l0.16,9.204Z" style="fill:#555;fill-rule:nonzero;"/><path d="M222.734,348.797l0.189,0l-0.162,-9.286l-1.773,0l0.067,3.858c0.011,0.636 0.151,1.678 0.151,1.678c0,0 -0.651,-0.839 -1.105,-1.259l-4.718,-4.358l-0.19,0l0.162,9.285l1.773,0l-0.067,-3.857c-0.012,-0.664 -0.165,-1.679 -0.165,-1.679c0,0 0.651,0.826 1.119,1.259l4.719,4.359Z" style="fill:#555;fill-rule:nonzero;"/><path d="M228.365,348.797l0.189,0l3.872,-9.286l-1.841,0l-1.481,3.546c-0.338,0.799 -0.668,2.085 -0.668,2.085c0,0 -0.388,-1.299 -0.754,-2.085l-1.645,-3.546l-2.031,0l4.359,9.286Z" style="fill:#555;fill-rule:nonzero;"/><path d="M237.479,348.837c2.653,0 4.73,-2.003 4.682,-4.724c-0.047,-2.72 -2.194,-4.724 -4.847,-4.724c-2.653,0 -4.729,2.004 -4.682,4.724c0.048,2.721 2.194,4.724 4.847,4.724Zm-0.029,-1.692c-1.679,0 -2.839,-1.313 -2.869,-3.032c-0.03,-1.719 1.084,-3.032 2.763,-3.032c1.678,0 2.838,1.313 2.868,3.032c0.03,1.719 -1.084,3.032 -2.762,3.032Z" style="fill:#555;fill-rule:nonzero;"/><path d="M243.848,348.715l6.064,0l-0.029,-1.664l-4.169,0l-0.132,-7.54l-1.895,0l0.161,9.204Z" style="fill:#555;fill-rule:nonzero;"/><path d="M253.406,348.797l0.189,0l3.872,-9.286l-1.841,0l-1.481,3.546c-0.338,0.799 -0.668,2.085 -0.668,2.085c0,0 -0.388,-1.299 -0.754,-2.085l-1.645,-3.546l-2.031,0l4.359,9.286Z" style="fill:#555;fill-rule:nonzero;"/><path d="M258.873,348.715l6.28,0l-0.029,-1.664l-4.385,0l-0.024,-1.327l3.696,0l-0.029,-1.624l-3.695,0l-0.051,-2.924l4.196,0l-0.029,-1.665l-6.091,0l0.161,9.204Z" style="fill:#555;fill-rule:nonzero;"/><path d="M266.913,348.715l2.829,0c2.842,0 4.813,-1.881 4.765,-4.602c-0.047,-2.72 -2.097,-4.602 -4.926,-4.602l-2.829,0l0.161,9.204Zm1.866,-1.664l-0.103,-5.875l0.84,0c2.043,0 2.999,1.218 3.029,2.937c0.03,1.719 -0.883,2.938 -2.927,2.938l-0.839,0Z" style="fill:#555;fill-rule:nonzero;"/><path d="M280.64,348.837c2.653,0 4.73,-2.003 4.682,-4.724c-0.047,-2.72 -2.194,-4.724 -4.847,-4.724c-2.653,0 -4.729,2.004 -4.682,4.724c0.048,2.721 2.194,4.724 4.847,4.724Zm-0.029,-1.692c-1.679,0 -2.839,-1.313 -2.869,-3.032c-0.03,-1.719 1.085,-3.032 2.763,-3.032c1.678,0 2.838,1.313 2.868,3.032c0.03,1.719 -1.084,3.032 -2.762,3.032Z" style="fill:#555;fill-rule:nonzero;"/><path d="M291.85,345.846c1.128,-0.515 1.748,-1.421 1.723,-2.856c-0.039,-2.247 -1.604,-3.479 -4.175,-3.479l-2.545,0l0.161,9.204l1.895,0l-0.04,-2.287l0.649,0c0.176,0 0.366,-0.014 0.541,-0.041l1.557,2.328l2.192,0l-1.958,-2.869l0,0Zm-3.01,-1.069l-0.063,-3.601l0.596,0c1.516,0 2.228,0.514 2.251,1.814c0.023,1.299 -0.646,1.787 -2.189,1.787l-0.595,0Z" style="fill:#555;fill-rule:nonzero;"/><path d="M295.329,348.715l6.281,0l-0.029,-1.664l-4.386,0l-0.023,-1.327l3.695,0l-0.028,-1.624l-3.696,0l-0.051,-2.924l4.196,0l-0.029,-1.665l-6.091,0l0.161,9.204Z" style="fill:#555;fill-rule:nonzero;"/><path d="M306.088,348.837c1.8,0 3.124,-0.934 3.094,-2.639c-0.028,-1.584 -0.947,-2.288 -2.57,-2.978l-0.477,-0.203c-0.818,-0.352 -1.174,-0.582 -1.184,-1.151c-0.008,-0.46 0.337,-0.812 0.892,-0.812c0.542,0 0.898,0.23 1.233,0.812l1.459,-0.947c-0.642,-1.097 -1.516,-1.516 -2.72,-1.516c-1.692,0 -2.756,1.083 -2.732,2.504c0.027,1.543 0.947,2.274 2.324,2.856l0.478,0.203c0.873,0.379 1.391,0.609 1.402,1.259c0.01,0.541 -0.484,0.934 -1.269,0.934c-0.934,0 -1.471,-0.487 -1.888,-1.151l-1.528,0.894c0.574,1.096 1.726,1.935 3.486,1.935l0,0Z" style="fill:#555;fill-rule:nonzero;"/></g></g><path d="M88.982,333.825l223.284,0" style="fill:none;stroke:url(#_Linear2);stroke-width:0.78px;"/><g><path d="M102.063,293.339l-6.534,0c-0.735,0 -1.338,-0.182 -1.809,-0.547c-0.472,-0.37 -0.811,-0.823 -1.018,-1.369l-3.393,-9.268l-18.817,0l-3.393,9.268c-0.169,0.483 -0.496,0.923 -0.992,1.319c-0.49,0.402 -1.094,0.597 -1.804,0.597l-6.565,0l17.843,-45.425l8.639,0l17.843,45.425Zm-29.403,-17.152l14.481,0l-5.528,-15.11c-0.252,-0.666 -0.528,-1.458 -0.836,-2.369c-0.302,-0.911 -0.597,-1.904 -0.892,-2.972c-0.295,1.068 -0.584,2.067 -0.867,2.985c-0.283,0.923 -0.559,1.727 -0.83,2.418l-5.528,15.048Z" style="fill:none;"/><path d="M106.304,303.863l0,-42.755l4.744,0c0.502,0 0.929,0.119 1.288,0.346c0.358,0.232 0.584,0.59 0.691,1.068l0.628,2.984c1.301,-1.483 2.79,-2.689 4.473,-3.613c1.69,-0.917 3.663,-1.382 5.925,-1.382c1.759,0 3.368,0.371 4.819,1.1c1.458,0.735 2.714,1.797 3.77,3.191c1.061,1.389 1.878,3.11 2.45,5.152c0.578,2.042 0.867,4.379 0.867,7.018c0,2.413 -0.327,4.643 -0.974,6.691c-0.647,2.055 -1.577,3.833 -2.783,5.341c-1.2,1.508 -2.658,2.689 -4.367,3.537c-1.702,0.848 -3.612,1.269 -5.73,1.269c-1.822,0 -3.367,-0.276 -4.636,-0.829c-1.263,-0.559 -2.4,-1.326 -3.406,-2.312l0,13.194l-7.759,0l0,0Zm15.079,-37.226c-1.615,0 -2.991,0.339 -4.134,1.024c-1.137,0.679 -2.199,1.64 -3.186,2.871l0,14.451c0.88,1.093 1.835,1.847 2.872,2.28c1.036,0.428 2.155,0.641 3.348,0.641c1.175,0 2.237,-0.22 3.186,-0.659c0.955,-0.44 1.759,-1.106 2.419,-2.011c0.659,-0.898 1.168,-2.036 1.526,-3.405c0.358,-1.376 0.534,-2.991 0.534,-4.857c0,-1.885 -0.15,-3.481 -0.458,-4.787c-0.302,-1.313 -0.735,-2.375 -1.301,-3.192c-0.565,-0.817 -1.25,-1.414 -2.061,-1.791c-0.804,-0.377 -1.721,-0.565 -2.745,-0.565l0,0Z" style="fill:none;"/><path d="M155.593,260.605c2.406,0 4.593,0.39 6.547,1.163c1.96,0.779 3.631,1.878 5.013,3.298c1.382,1.426 2.45,3.167 3.204,5.215c0.754,2.054 1.131,4.348 1.131,6.88c0,2.557 -0.377,4.863 -1.131,6.911c-0.754,2.054 -1.822,3.801 -3.204,5.246c-1.382,1.445 -3.053,2.557 -5.013,3.33c-1.954,0.779 -4.141,1.162 -6.547,1.162c-2.407,0 -4.599,-0.383 -6.566,-1.162c-1.966,-0.773 -3.65,-1.885 -5.045,-3.33c-1.388,-1.445 -2.469,-3.192 -3.235,-5.246c-0.761,-2.048 -1.144,-4.354 -1.144,-6.911c0,-2.532 0.383,-4.826 1.144,-6.88c0.766,-2.048 1.847,-3.789 3.235,-5.215c1.395,-1.42 3.079,-2.519 5.045,-3.298c1.967,-0.773 4.159,-1.163 6.566,-1.163Zm0,27.236c2.683,0 4.662,-0.898 5.95,-2.701c1.288,-1.797 1.935,-4.436 1.935,-7.917c0,-3.474 -0.647,-6.125 -1.935,-7.947c-1.288,-1.822 -3.267,-2.733 -5.95,-2.733c-2.721,0 -4.731,0.917 -6.032,2.752c-1.3,1.828 -1.947,4.473 -1.947,7.928c0,3.456 0.647,6.089 1.947,7.904c1.301,1.81 3.311,2.714 6.032,2.714l0,0Z" style="fill:none;"/><rect x="178.054" y="246.658" width="7.759" height="46.681" style="fill:none;"/><rect x="195.08" y="246.658" width="7.759" height="46.681" style="fill:none;"/><path d="M225.364,260.605c2.406,0 4.592,0.39 6.546,1.163c1.96,0.779 3.632,1.878 5.014,3.298c1.382,1.426 2.45,3.167 3.204,5.215c0.754,2.054 1.131,4.348 1.131,6.88c0,2.557 -0.377,4.863 -1.131,6.911c-0.754,2.054 -1.822,3.801 -3.204,5.246c-1.382,1.445 -3.054,2.557 -5.014,3.33c-1.954,0.779 -4.14,1.162 -6.546,1.162c-2.407,0 -4.599,-0.383 -6.566,-1.162c-1.967,-0.773 -3.65,-1.885 -5.045,-3.33c-1.389,-1.445 -2.469,-3.192 -3.236,-5.246c-0.76,-2.048 -1.143,-4.354 -1.143,-6.911c0,-2.532 0.383,-4.826 1.143,-6.88c0.767,-2.048 1.847,-3.789 3.236,-5.215c1.395,-1.42 3.078,-2.519 5.045,-3.298c1.967,-0.773 4.159,-1.163 6.566,-1.163Zm0,27.236c2.682,0 4.661,-0.898 5.949,-2.701c1.288,-1.797 1.935,-4.436 1.935,-7.917c0,-3.474 -0.647,-6.125 -1.935,-7.947c-1.288,-1.822 -3.267,-2.733 -5.949,-2.733c-2.721,0 -4.731,0.917 -6.032,2.752c-1.301,1.828 -1.948,4.473 -1.948,7.928c0,3.456 0.647,6.089 1.948,7.904c1.301,1.81 3.311,2.714 6.032,2.714l0,0Z" style="fill:none;"/><path d="M278.171,286.522c1.633,0 3.091,-0.27 4.379,-0.817c1.288,-0.54 2.381,-1.307 3.267,-2.293c0.892,-0.98 1.571,-2.174 2.042,-3.581c0.471,-1.401 0.71,-2.972 0.71,-4.712l0,-27.205l8.45,0l0,27.205c0,2.701 -0.433,5.202 -1.307,7.495c-0.867,2.293 -2.117,4.272 -3.751,5.937c-1.633,1.665 -3.612,2.96 -5.937,3.896c-2.324,0.93 -4.944,1.395 -7.853,1.395c-2.909,0 -5.529,-0.465 -7.854,-1.395c-2.325,-0.936 -4.297,-2.231 -5.925,-3.896c-1.621,-1.665 -2.865,-3.644 -3.738,-5.937c-0.867,-2.293 -1.3,-4.794 -1.3,-7.495l0,-27.205l8.45,0l0,27.173c0,1.741 0.232,3.311 0.704,4.712c0.471,1.408 1.149,2.602 2.029,3.6c0.88,0.993 1.96,1.766 3.248,2.306c1.288,0.547 2.752,0.817 4.386,0.817Z" style="fill:none;"/><path d="M316.527,269.967l-14.482,-22.053l8.419,0c0.585,0 1.012,0.082 1.269,0.239c0.264,0.157 0.503,0.415 0.71,0.766l10.336,16.681c0.106,-0.27 0.22,-0.54 0.345,-0.798c0.126,-0.264 0.27,-0.527 0.44,-0.804l9.456,-14.922c0.458,-0.772 1.055,-1.162 1.79,-1.162l8.105,0l-14.639,21.707l15.047,23.718l-8.45,0c-0.565,0 -1.024,-0.145 -1.37,-0.44c-0.345,-0.289 -0.628,-0.628 -0.86,-1.005l-10.524,-17.404c-0.082,0.252 -0.176,0.491 -0.283,0.71c-0.107,0.22 -0.207,0.421 -0.314,0.61l-10.084,16.084c-0.232,0.358 -0.515,0.685 -0.848,0.993c-0.333,0.301 -0.754,0.452 -1.257,0.452l-7.916,0l15.11,-23.372l0,0Z" style="fill:none;"/><path d="M102.063,293.339l-6.534,0c-0.735,0 -1.338,-0.182 -1.809,-0.547c-0.472,-0.37 -0.811,-0.823 -1.018,-1.369l-3.393,-9.268l-18.817,0l-3.393,9.268c-0.169,0.483 -0.496,0.923 -0.992,1.319c-0.49,0.402 -1.094,0.597 -1.804,0.597l-6.565,0l17.843,-45.425l8.639,0l17.843,45.425Zm-29.403,-17.152l14.481,0l-5.528,-15.11c-0.252,-0.666 -0.528,-1.458 -0.836,-2.369c-0.302,-0.911 -0.597,-1.904 -0.892,-2.972c-0.295,1.068 -0.584,2.067 -0.867,2.985c-0.283,0.923 -0.559,1.727 -0.83,2.418l-5.528,15.048Z" style="fill:#555;fill-rule:nonzero;"/><path d="M106.304,303.863l0,-42.755l4.744,0c0.502,0 0.929,0.119 1.288,0.346c0.358,0.232 0.584,0.59 0.691,1.068l0.628,2.984c1.301,-1.483 2.79,-2.689 4.473,-3.613c1.69,-0.917 3.663,-1.382 5.925,-1.382c1.759,0 3.368,0.371 4.819,1.1c1.458,0.735 2.714,1.797 3.77,3.191c1.061,1.389 1.878,3.11 2.45,5.152c0.578,2.042 0.867,4.379 0.867,7.018c0,2.413 -0.327,4.643 -0.974,6.691c-0.647,2.055 -1.577,3.833 -2.783,5.341c-1.2,1.508 -2.658,2.689 -4.367,3.537c-1.702,0.848 -3.612,1.269 -5.73,1.269c-1.822,0 -3.367,-0.276 -4.636,-0.829c-1.263,-0.559 -2.4,-1.326 -3.406,-2.312l0,13.194l-7.759,0l0,0Zm15.079,-37.226c-1.615,0 -2.991,0.339 -4.134,1.024c-1.137,0.679 -2.199,1.64 -3.186,2.871l0,14.451c0.88,1.093 1.835,1.847 2.872,2.28c1.036,0.428 2.155,0.641 3.348,0.641c1.175,0 2.237,-0.22 3.186,-0.659c0.955,-0.44 1.759,-1.106 2.419,-2.011c0.659,-0.898 1.168,-2.036 1.526,-3.405c0.358,-1.376 0.534,-2.991 0.534,-4.857c0,-1.885 -0.15,-3.481 -0.458,-4.787c-0.302,-1.313 -0.735,-2.375 -1.301,-3.192c-0.565,-0.817 -1.25,-1.414 -2.061,-1.791c-0.804,-0.377 -1.721,-0.565 -2.745,-0.565l0,0Z" style="fill:#555;fill-rule:nonzero;"/><path d="M155.593,260.605c2.406,0 4.593,0.39 6.547,1.163c1.96,0.779 3.631,1.878 5.013,3.298c1.382,1.426 2.45,3.167 3.204,5.215c0.754,2.054 1.131,4.348 1.131,6.88c0,2.557 -0.377,4.863 -1.131,6.911c-0.754,2.054 -1.822,3.801 -3.204,5.246c-1.382,1.445 -3.053,2.557 -5.013,3.33c-1.954,0.779 -4.141,1.162 -6.547,1.162c-2.407,0 -4.599,-0.383 -6.566,-1.162c-1.966,-0.773 -3.65,-1.885 -5.045,-3.33c-1.388,-1.445 -2.469,-3.192 -3.235,-5.246c-0.761,-2.048 -1.144,-4.354 -1.144,-6.911c0,-2.532 0.383,-4.826 1.144,-6.88c0.766,-2.048 1.847,-3.789 3.235,-5.215c1.395,-1.42 3.079,-2.519 5.045,-3.298c1.967,-0.773 4.159,-1.163 6.566,-1.163Zm0,27.236c2.683,0 4.662,-0.898 5.95,-2.701c1.288,-1.797 1.935,-4.436 1.935,-7.917c0,-3.474 -0.647,-6.125 -1.935,-7.947c-1.288,-1.822 -3.267,-2.733 -5.95,-2.733c-2.721,0 -4.731,0.917 -6.032,2.752c-1.3,1.828 -1.947,4.473 -1.947,7.928c0,3.456 0.647,6.089 1.947,7.904c1.301,1.81 3.311,2.714 6.032,2.714l0,0Z" style="fill:#555;fill-rule:nonzero;"/><rect x="178.054" y="246.658" width="7.759" height="46.681" style="fill:#555;"/><rect x="195.08" y="246.658" width="7.759" height="46.681" style="fill:#555;"/><path d="M225.364,260.605c2.406,0 4.592,0.39 6.546,1.163c1.96,0.779 3.632,1.878 5.014,3.298c1.382,1.426 2.45,3.167 3.204,5.215c0.754,2.054 1.131,4.348 1.131,6.88c0,2.557 -0.377,4.863 -1.131,6.911c-0.754,2.054 -1.822,3.801 -3.204,5.246c-1.382,1.445 -3.054,2.557 -5.014,3.33c-1.954,0.779 -4.14,1.162 -6.546,1.162c-2.407,0 -4.599,-0.383 -6.566,-1.162c-1.967,-0.773 -3.65,-1.885 -5.045,-3.33c-1.389,-1.445 -2.469,-3.192 -3.236,-5.246c-0.76,-2.048 -1.143,-4.354 -1.143,-6.911c0,-2.532 0.383,-4.826 1.143,-6.88c0.767,-2.048 1.847,-3.789 3.236,-5.215c1.395,-1.42 3.078,-2.519 5.045,-3.298c1.967,-0.773 4.159,-1.163 6.566,-1.163Zm0,27.236c2.682,0 4.661,-0.898 5.949,-2.701c1.288,-1.797 1.935,-4.436 1.935,-7.917c0,-3.474 -0.647,-6.125 -1.935,-7.947c-1.288,-1.822 -3.267,-2.733 -5.949,-2.733c-2.721,0 -4.731,0.917 -6.032,2.752c-1.301,1.828 -1.948,4.473 -1.948,7.928c0,3.456 0.647,6.089 1.948,7.904c1.301,1.81 3.311,2.714 6.032,2.714l0,0Z" style="fill:#555;fill-rule:nonzero;"/><path d="M278.171,286.522c1.633,0 3.091,-0.27 4.379,-0.817c1.288,-0.54 2.381,-1.307 3.267,-2.293c0.892,-0.98 1.571,-2.174 2.042,-3.581c0.471,-1.401 0.71,-2.972 0.71,-4.712l0,-27.205l8.45,0l0,27.205c0,2.701 -0.433,5.202 -1.307,7.495c-0.867,2.293 -2.117,4.272 -3.751,5.937c-1.633,1.665 -3.612,2.96 -5.937,3.896c-2.324,0.93 -4.944,1.395 -7.853,1.395c-2.909,0 -5.529,-0.465 -7.854,-1.395c-2.325,-0.936 -4.297,-2.231 -5.925,-3.896c-1.621,-1.665 -2.865,-3.644 -3.738,-5.937c-0.867,-2.293 -1.3,-4.794 -1.3,-7.495l0,-27.205l8.45,0l0,27.173c0,1.741 0.232,3.311 0.704,4.712c0.471,1.408 1.149,2.602 2.029,3.6c0.88,0.993 1.96,1.766 3.248,2.306c1.288,0.547 2.752,0.817 4.386,0.817Z" style="fill:#555;fill-rule:nonzero;"/><path d="M316.527,269.967l-14.482,-22.053l8.419,0c0.585,0 1.012,0.082 1.269,0.239c0.264,0.157 0.503,0.415 0.71,0.766l10.336,16.681c0.106,-0.27 0.22,-0.54 0.345,-0.798c0.126,-0.264 0.27,-0.527 0.44,-0.804l9.456,-14.922c0.458,-0.772 1.055,-1.162 1.79,-1.162l8.105,0l-14.639,21.707l15.047,23.718l-8.45,0c-0.565,0 -1.024,-0.145 -1.37,-0.44c-0.345,-0.289 -0.628,-0.628 -0.86,-1.005l-10.524,-17.404c-0.082,0.252 -0.176,0.491 -0.283,0.71c-0.107,0.22 -0.207,0.421 -0.314,0.61l-10.084,16.084c-0.232,0.358 -0.515,0.685 -0.848,0.993c-0.333,0.301 -0.754,0.452 -1.257,0.452l-7.916,0l15.11,-23.372l0,0Z" style="fill:#555;fill-rule:nonzero;"/></g></g><defs><linearGradient id="_Linear1" x1="0" y1="0" x2="1" y2="0" gradientUnits="userSpaceOnUse" gradientTransform="matrix(60.6138,75.5014,-75.5014,60.6138,179.271,102.171)"><stop offset="0" style="stop-color:#ffad73;stop-opacity:1"/><stop offset="1" style="stop-color:#ff714c;stop-opacity:1"/></linearGradient><linearGradient id="_Linear2" x1="0" y1="0" x2="1" y2="0" gradientUnits="userSpaceOnUse" gradientTransform="matrix(223.284,0,0,223.284,88.9824,333.825)"><stop offset="0" style="stop-color:#ff5f6d;stop-opacity:1"/><stop offset="0.5" style="stop-color:#ff8a74;stop-opacity:1"/><stop offset="1" style="stop-color:#feb47b;stop-opacity:1"/></linearGradient></defs></svg>