<?xml version="1.0" encoding="UTF-8" standalone="no"?><!DOCTYPE svg PUBLIC "-//W3C//DTD SVG 1.1//EN" "http://www.w3.org/Graphics/SVG/1.1/DTD/svg11.dtd"><svg width="100%" height="100%" viewBox="0 0 647 324" version="1.1" xmlns="http://www.w3.org/2000/svg" xmlns:xlink="http://www.w3.org/1999/xlink" xml:space="preserve" style="fill-rule:evenodd;clip-rule:evenodd;stroke-linecap:round;stroke-linejoin:round;stroke-miterlimit:1.5;"><rect x="0" y="0" width="647" height="323.5" style="fill:#fefdfd;"/><g><path id="XMLID_13_" d="M364.724,154.494c-2.995,6.019 -7.925,10.416 -14.287,13.597c-3.078,1.541 -6.323,2.732 -9.71,3.615c-0.202,0.099 -0.404,0.195 -0.709,0.176c0.16,-0.212 0.392,-0.234 0.587,-0.311c2.189,-1.034 3.538,-2.703 4.247,-4.76c1.566,-4.546 1.367,-9.023 -0.96,-13.35c-1.184,-2.202 -2.609,-4.298 -3.608,-6.584c-1.04,-2.378 -2.07,-4.757 -2.465,-7.308c-0.09,-0.588 -0.029,-1.175 -0.025,-1.817c-0.379,0.119 -0.514,0.379 -0.681,0.594c-1.823,2.365 -2.606,5.033 -2.793,7.861c-0.131,2.002 0.055,3.993 0.479,5.967c0.032,0.144 0.058,0.292 0.07,0.439c0.007,0.055 -0.035,0.116 -0.073,0.228c-0.443,-0.179 -0.736,-0.484 -1.021,-0.786c-2.064,-2.148 -2.873,-4.706 -3.017,-7.473c-0.145,-2.751 0.346,-5.434 1.277,-8.044c1.374,-3.842 1.098,-7.639 -0.26,-11.407c-1.213,-3.358 -3.492,-6.057 -6.583,-8.221c-0.132,-0.09 -0.27,-0.173 -0.408,-0.257c-0.035,-0.022 -0.087,-0.019 -0.141,-0.032c-0.17,0.164 -0.016,0.318 0.038,0.459c2.96,8.054 0.392,16.794 -7.126,21.41c-3.091,1.9 -4.307,2.581 -5.058,2.969c-0.071,0.035 -0.504,0.241 -1.079,0.549c0,0 -0.356,0.189 -0.687,0.382c-0.741,0.427 -1.479,0.966 -2.176,1.541c-3.004,2.475 -5.007,5.938 -5.614,9.783c-0.398,2.52 -0.465,5.48 0.234,8.487c0.565,2.424 1.541,4.173 2.083,5.03c1.811,2.866 4.53,5.104 8.086,6.76c0.087,0.029 0.231,0.093 0.18,0.154c-0.132,0.157 -0.292,0.016 -0.44,-0.022c-9.771,-2.161 -18.643,-5.83 -25.65,-12.506c-5.232,-4.985 -7.947,-10.955 -8.272,-17.802c-0.301,-6.426 1.471,-12.473 4.09,-18.373c1.255,-2.831 2.873,-5.508 4.339,-8.249c2.19,-4.09 3.753,-8.362 4.331,-12.891c0.51,-4.009 0.128,-7.9 -2.071,-11.523c-0.077,-0.126 -0.231,-0.276 -0.109,-0.405c0.145,-0.151 0.36,-0.042 0.533,0.01c1.878,0.552 3.524,1.467 4.988,2.645c3.024,2.43 4.885,5.508 6.105,8.92c1.724,4.821 2.131,9.787 1.929,14.813c-0.058,1.403 -0.176,2.803 -0.263,4.202c-0.01,0.157 -0.112,0.366 0.125,0.449c0.18,0.061 0.302,-0.09 0.421,-0.189c0.6,-0.498 1.046,-1.101 1.422,-1.743c1.162,-1.993 1.659,-4.157 1.951,-6.362c0.556,-4.186 0.36,-8.371 -0.218,-12.534c-0.266,-1.936 -1.024,-3.798 -1.409,-5.727c-1.676,-8.377 -1.923,-16.742 0.353,-25.069c1.971,-7.215 5.784,-13.507 11.87,-18.623c2.539,-2.135 5.348,-3.945 8.384,-5.473c0.122,-0.061 0.254,-0.116 0.385,-0.16c0.036,-0.013 0.087,0.016 0.135,0.025c0.084,0.212 -0.09,0.36 -0.18,0.523c-2.905,5.239 -4.404,10.811 -4.789,16.624c-0.796,11.941 3.271,22.633 10.48,32.506c2.462,3.371 5.258,6.51 8.269,9.498c0.215,0.212 0.392,0.479 0.799,0.613c-0.34,-7.459 2.372,-13.924 7.784,-19.503c2.677,-2.76 5.836,-5.01 9.318,-6.894c0.17,0.192 0.077,0.311 0.032,0.427c-2.808,7.507 -2.882,15.115 -1.007,22.783c0.824,3.377 2.131,6.612 3.739,9.755c3.752,7.334 6.179,14.993 6.831,23.059c0.487,6.048 -0.222,11.947 -3.005,17.545Z" style="fill:url(#_Linear1);fill-rule:nonzero;"/><g transform="matrix(0.681593,0,0,0.681593,-741.987,-380.886)"><g transform="matrix(1,0,0.0174551,1,-16.7692,0)"><path d="M1448.28,960.844c1.965,0 3.375,-0.87 4.26,-2.25l-1.635,-1.125c-0.57,0.87 -1.305,1.5 -2.625,1.5c-1.845,0 -3.09,-1.455 -3.09,-3.36c0,-1.905 1.245,-3.33 3.09,-3.33c1.17,0 1.995,0.555 2.475,1.335l1.605,-1.14c-0.915,-1.425 -2.235,-2.085 -4.08,-2.085c-2.925,0 -5.25,2.205 -5.25,5.22c0,3.015 2.325,5.235 5.25,5.235Z" style="fill:none;"/><path d="M1458.88,960.844c2.94,0 5.28,-2.22 5.28,-5.235c0,-3.015 -2.34,-5.235 -5.28,-5.235c-2.94,0 -5.28,2.22 -5.28,5.235c0,3.015 2.34,5.235 5.28,5.235Zm0,-1.875c-1.86,0 -3.12,-1.455 -3.12,-3.36c0,-1.905 1.26,-3.36 3.12,-3.36c1.86,0 3.12,1.455 3.12,3.36c0,1.905 -1.26,3.36 -3.12,3.36Z" style="fill:none;"/><path d="M1465.95,960.709l6.72,0l0,-1.845l-4.62,0l0,-8.355l-2.1,0l0,10.2Z" style="fill:none;"/><path d="M1474.36,960.709l6.96,0l0,-1.845l-4.86,0l0,-1.47l4.095,0l0,-1.8l-4.095,0l0,-3.24l4.65,0l0,-1.845l-6.75,0l0,10.2Z" style="fill:none;"/><path d="M1485.6,960.709l2.1,0l0,-8.355l2.91,0l0,-1.845l-7.92,0l0,1.845l2.91,0l0,8.355Z" style="fill:none;"/><rect x="1492.2" y="950.509" width="2.1" height="10.2" style="fill:none;"/><path d="M1500.36,960.799l0.21,0l4.47,-10.29l-2.04,0l-1.71,3.93c-0.39,0.885 -0.78,2.31 -0.78,2.31c0,0 -0.405,-1.44 -0.795,-2.31l-1.755,-3.93l-2.25,0l4.65,10.29Z" style="fill:none;"/><path d="M1510.45,960.844c2.94,0 5.28,-2.22 5.28,-5.235c0,-3.015 -2.34,-5.235 -5.28,-5.235c-2.94,0 -5.28,2.22 -5.28,5.235c0,3.015 2.34,5.235 5.28,5.235Zm0,-1.875c-1.86,0 -3.12,-1.455 -3.12,-3.36c0,-1.905 1.26,-3.36 3.12,-3.36c1.86,0 3.12,1.455 3.12,3.36c0,1.905 -1.26,3.36 -3.12,3.36Z" style="fill:none;"/><path d="M1520.83,960.709l3.135,0c3.15,0 5.37,-2.085 5.37,-5.1c0,-3.015 -2.235,-5.1 -5.37,-5.1l-3.135,0l0,10.2Zm2.1,-1.845l0,-6.51l0.93,0c2.265,0 3.3,1.35 3.3,3.255c0,1.905 -1.035,3.255 -3.3,3.255l-0.93,0Z" style="fill:none;"/><path d="M1531.11,960.709l6.96,0l0,-1.845l-4.86,0l0,-1.47l4.095,0l0,-1.8l-4.095,0l0,-3.24l4.65,0l0,-1.845l-6.75,0l0,10.2Z" style="fill:none;"/><path d="M1543.33,960.709l3.135,0c3.15,0 5.37,-2.085 5.37,-5.1c0,-3.015 -2.235,-5.1 -5.37,-5.1l-3.135,0l0,10.2Zm2.1,-1.845l0,-6.51l0.93,0c2.265,0 3.3,1.35 3.3,3.255c0,1.905 -1.035,3.255 -3.3,3.255l-0.93,0Z" style="fill:none;"/><path d="M1553.61,960.709l6.96,0l0,-1.845l-4.86,0l0,-1.47l4.095,0l0,-1.8l-4.095,0l0,-3.24l4.65,0l0,-1.845l-6.75,0l0,10.2Z" style="fill:none;"/><path d="M1565.53,960.844c1.995,0 3.48,-1.035 3.48,-2.925c0,-1.755 -1.005,-2.535 -2.79,-3.3l-0.525,-0.225c-0.9,-0.39 -1.29,-0.645 -1.29,-1.275c0,-0.51 0.39,-0.9 1.005,-0.9c0.6,0 0.99,0.255 1.35,0.9l1.635,-1.05c-0.69,-1.215 -1.65,-1.68 -2.985,-1.68c-1.875,0 -3.075,1.2 -3.075,2.775c0,1.71 1.005,2.52 2.52,3.165l0.525,0.225c0.96,0.42 1.53,0.675 1.53,1.395c0,0.6 -0.555,1.035 -1.425,1.035c-1.035,0 -1.62,-0.54 -2.07,-1.275l-1.71,0.99c0.615,1.215 1.875,2.145 3.825,2.145Z" style="fill:none;"/><path d="M1570.65,960.709l6.96,0l0,-1.845l-4.86,0l0,-1.47l4.095,0l0,-1.8l-4.095,0l0,-3.24l4.65,0l0,-1.845l-6.75,0l0,10.2Z" style="fill:none;"/><path d="M1587.73,960.799l0.21,0l0,-10.29l-1.965,0l0,4.275c0,0.705 0.135,1.86 0.135,1.86c0,0 -0.705,-0.93 -1.2,-1.395l-5.145,-4.83l-0.21,0l0,10.29l1.965,0l0,-4.275c0,-0.735 -0.15,-1.86 -0.15,-1.86c0,0 0.705,0.915 1.215,1.395l5.145,4.83Z" style="fill:none;"/><path d="M1593.97,960.799l0.21,0l4.47,-10.29l-2.04,0l-1.71,3.93c-0.39,0.885 -0.78,2.31 -0.78,2.31c0,0 -0.405,-1.44 -0.795,-2.31l-1.755,-3.93l-2.25,0l4.65,10.29Z" style="fill:none;"/><path d="M1604.07,960.844c2.94,0 5.28,-2.22 5.28,-5.235c0,-3.015 -2.34,-5.235 -5.28,-5.235c-2.94,0 -5.28,2.22 -5.28,5.235c0,3.015 2.34,5.235 5.28,5.235Zm0,-1.875c-1.86,0 -3.12,-1.455 -3.12,-3.36c0,-1.905 1.26,-3.36 3.12,-3.36c1.86,0 3.12,1.455 3.12,3.36c0,1.905 -1.26,3.36 -3.12,3.36Z" style="fill:none;"/><path d="M1611.13,960.709l6.72,0l0,-1.845l-4.62,0l0,-8.355l-2.1,0l0,10.2Z" style="fill:none;"/><path d="M1621.72,960.799l0.21,0l4.47,-10.29l-2.04,0l-1.71,3.93c-0.39,0.885 -0.78,2.31 -0.78,2.31c0,0 -0.405,-1.44 -0.795,-2.31l-1.755,-3.93l-2.25,0l4.65,10.29Z" style="fill:none;"/><path d="M1627.78,960.709l6.96,0l0,-1.845l-4.86,0l0,-1.47l4.095,0l0,-1.8l-4.095,0l0,-3.24l4.65,0l0,-1.845l-6.75,0l0,10.2Z" style="fill:none;"/><path d="M1636.69,960.709l3.135,0c3.15,0 5.37,-2.085 5.37,-5.1c0,-3.015 -2.235,-5.1 -5.37,-5.1l-3.135,0l0,10.2Zm2.1,-1.845l0,-6.51l0.93,0c2.265,0 3.3,1.35 3.3,3.255c0,1.905 -1.035,3.255 -3.3,3.255l-0.93,0Z" style="fill:none;"/><path d="M1651.9,960.844c2.94,0 5.28,-2.22 5.28,-5.235c0,-3.015 -2.34,-5.235 -5.28,-5.235c-2.94,0 -5.28,2.22 -5.28,5.235c0,3.015 2.34,5.235 5.28,5.235Zm0,-1.875c-1.86,0 -3.12,-1.455 -3.12,-3.36c0,-1.905 1.26,-3.36 3.12,-3.36c1.86,0 3.12,1.455 3.12,3.36c0,1.905 -1.26,3.36 -3.12,3.36Z" style="fill:none;"/><path d="M1664.38,957.529c1.26,-0.57 1.965,-1.575 1.965,-3.165c0,-2.49 -1.71,-3.855 -4.56,-3.855l-2.82,0l0,10.2l2.1,0l0,-2.535l0.72,0c0.195,0 0.405,-0.015 0.6,-0.045l1.68,2.58l2.43,0l-2.115,-3.18Zm-3.315,-1.185l0,-3.99l0.66,0c1.68,0 2.46,0.57 2.46,2.01c0,1.44 -0.75,1.98 -2.46,1.98l-0.66,0Z" style="fill:none;"/><path d="M1668.18,960.709l6.96,0l0,-1.845l-4.86,0l0,-1.47l4.095,0l0,-1.8l-4.095,0l0,-3.24l4.65,0l0,-1.845l-6.75,0l0,10.2Z" style="fill:none;"/><path d="M1680.1,960.844c1.995,0 3.48,-1.035 3.48,-2.925c0,-1.755 -1.005,-2.535 -2.79,-3.3l-0.525,-0.225c-0.9,-0.39 -1.29,-0.645 -1.29,-1.275c0,-0.51 0.39,-0.9 1.005,-0.9c0.6,0 0.99,0.255 1.35,0.9l1.635,-1.05c-0.69,-1.215 -1.65,-1.68 -2.985,-1.68c-1.875,0 -3.075,1.2 -3.075,2.775c0,1.71 1.005,2.52 2.52,3.165l0.525,0.225c0.96,0.42 1.53,0.675 1.53,1.395c0,0.6 -0.555,1.035 -1.425,1.035c-1.035,0 -1.62,-0.54 -2.07,-1.275l-1.71,0.99c0.615,1.215 1.875,2.145 3.825,2.145Z" style="fill:none;"/></g><g transform="matrix(1,0,0.0174551,1,-16.7692,0)"><path d="M1448.28,960.844c1.965,0 3.375,-0.87 4.26,-2.25l-1.635,-1.125c-0.57,0.87 -1.305,1.5 -2.625,1.5c-1.845,0 -3.09,-1.455 -3.09,-3.36c0,-1.905 1.245,-3.33 3.09,-3.33c1.17,0 1.995,0.555 2.475,1.335l1.605,-1.14c-0.915,-1.425 -2.235,-2.085 -4.08,-2.085c-2.925,0 -5.25,2.205 -5.25,5.22c0,3.015 2.325,5.235 5.25,5.235Z" style="fill:#555;fill-rule:nonzero;"/><path d="M1458.88,960.844c2.94,0 5.28,-2.22 5.28,-5.235c0,-3.015 -2.34,-5.235 -5.28,-5.235c-2.94,0 -5.28,2.22 -5.28,5.235c0,3.015 2.34,5.235 5.28,5.235Zm0,-1.875c-1.86,0 -3.12,-1.455 -3.12,-3.36c0,-1.905 1.26,-3.36 3.12,-3.36c1.86,0 3.12,1.455 3.12,3.36c0,1.905 -1.26,3.36 -3.12,3.36Z" style="fill:#555;fill-rule:nonzero;"/><path d="M1465.95,960.709l6.72,0l0,-1.845l-4.62,0l0,-8.355l-2.1,0l0,10.2Z" style="fill:#555;fill-rule:nonzero;"/><path d="M1474.36,960.709l6.96,0l0,-1.845l-4.86,0l0,-1.47l4.095,0l0,-1.8l-4.095,0l0,-3.24l4.65,0l0,-1.845l-6.75,0l0,10.2Z" style="fill:#555;fill-rule:nonzero;"/><path d="M1485.6,960.709l2.1,0l0,-8.355l2.91,0l0,-1.845l-7.92,0l0,1.845l2.91,0l0,8.355Z" style="fill:#555;fill-rule:nonzero;"/><rect x="1492.2" y="950.509" width="2.1" height="10.2" style="fill:#555;fill-rule:nonzero;"/><path d="M1500.36,960.799l0.21,0l4.47,-10.29l-2.04,0l-1.71,3.93c-0.39,0.885 -0.78,2.31 -0.78,2.31c0,0 -0.405,-1.44 -0.795,-2.31l-1.755,-3.93l-2.25,0l4.65,10.29Z" style="fill:#555;fill-rule:nonzero;"/><path d="M1510.45,960.844c2.94,0 5.28,-2.22 5.28,-5.235c0,-3.015 -2.34,-5.235 -5.28,-5.235c-2.94,0 -5.28,2.22 -5.28,5.235c0,3.015 2.34,5.235 5.28,5.235Zm0,-1.875c-1.86,0 -3.12,-1.455 -3.12,-3.36c0,-1.905 1.26,-3.36 3.12,-3.36c1.86,0 3.12,1.455 3.12,3.36c0,1.905 -1.26,3.36 -3.12,3.36Z" style="fill:#555;fill-rule:nonzero;"/><path d="M1520.83,960.709l3.135,0c3.15,0 5.37,-2.085 5.37,-5.1c0,-3.015 -2.235,-5.1 -5.37,-5.1l-3.135,0l0,10.2Zm2.1,-1.845l0,-6.51l0.93,0c2.265,0 3.3,1.35 3.3,3.255c0,1.905 -1.035,3.255 -3.3,3.255l-0.93,0Z" style="fill:#555;fill-rule:nonzero;"/><path d="M1531.11,960.709l6.96,0l0,-1.845l-4.86,0l0,-1.47l4.095,0l0,-1.8l-4.095,0l0,-3.24l4.65,0l0,-1.845l-6.75,0l0,10.2Z" style="fill:#555;fill-rule:nonzero;"/><path d="M1543.33,960.709l3.135,0c3.15,0 5.37,-2.085 5.37,-5.1c0,-3.015 -2.235,-5.1 -5.37,-5.1l-3.135,0l0,10.2Zm2.1,-1.845l0,-6.51l0.93,0c2.265,0 3.3,1.35 3.3,3.255c0,1.905 -1.035,3.255 -3.3,3.255l-0.93,0Z" style="fill:#555;fill-rule:nonzero;"/><path d="M1553.61,960.709l6.96,0l0,-1.845l-4.86,0l0,-1.47l4.095,0l0,-1.8l-4.095,0l0,-3.24l4.65,0l0,-1.845l-6.75,0l0,10.2Z" style="fill:#555;fill-rule:nonzero;"/><path d="M1565.53,960.844c1.995,0 3.48,-1.035 3.48,-2.925c0,-1.755 -1.005,-2.535 -2.79,-3.3l-0.525,-0.225c-0.9,-0.39 -1.29,-0.645 -1.29,-1.275c0,-0.51 0.39,-0.9 1.005,-0.9c0.6,0 0.99,0.255 1.35,0.9l1.635,-1.05c-0.69,-1.215 -1.65,-1.68 -2.985,-1.68c-1.875,0 -3.075,1.2 -3.075,2.775c0,1.71 1.005,2.52 2.52,3.165l0.525,0.225c0.96,0.42 1.53,0.675 1.53,1.395c0,0.6 -0.555,1.035 -1.425,1.035c-1.035,0 -1.62,-0.54 -2.07,-1.275l-1.71,0.99c0.615,1.215 1.875,2.145 3.825,2.145Z" style="fill:#555;fill-rule:nonzero;"/><path d="M1570.65,960.709l6.96,0l0,-1.845l-4.86,0l0,-1.47l4.095,0l0,-1.8l-4.095,0l0,-3.24l4.65,0l0,-1.845l-6.75,0l0,10.2Z" style="fill:#555;fill-rule:nonzero;"/><path d="M1587.73,960.799l0.21,0l0,-10.29l-1.965,0l0,4.275c0,0.705 0.135,1.86 0.135,1.86c0,0 -0.705,-0.93 -1.2,-1.395l-5.145,-4.83l-0.21,0l0,10.29l1.965,0l0,-4.275c0,-0.735 -0.15,-1.86 -0.15,-1.86c0,0 0.705,0.915 1.215,1.395l5.145,4.83Z" style="fill:#555;fill-rule:nonzero;"/><path d="M1593.97,960.799l0.21,0l4.47,-10.29l-2.04,0l-1.71,3.93c-0.39,0.885 -0.78,2.31 -0.78,2.31c0,0 -0.405,-1.44 -0.795,-2.31l-1.755,-3.93l-2.25,0l4.65,10.29Z" style="fill:#555;fill-rule:nonzero;"/><path d="M1604.07,960.844c2.94,0 5.28,-2.22 5.28,-5.235c0,-3.015 -2.34,-5.235 -5.28,-5.235c-2.94,0 -5.28,2.22 -5.28,5.235c0,3.015 2.34,5.235 5.28,5.235Zm0,-1.875c-1.86,0 -3.12,-1.455 -3.12,-3.36c0,-1.905 1.26,-3.36 3.12,-3.36c1.86,0 3.12,1.455 3.12,3.36c0,1.905 -1.26,3.36 -3.12,3.36Z" style="fill:#555;fill-rule:nonzero;"/><path d="M1611.13,960.709l6.72,0l0,-1.845l-4.62,0l0,-8.355l-2.1,0l0,10.2Z" style="fill:#555;fill-rule:nonzero;"/><path d="M1621.72,960.799l0.21,0l4.47,-10.29l-2.04,0l-1.71,3.93c-0.39,0.885 -0.78,2.31 -0.78,2.31c0,0 -0.405,-1.44 -0.795,-2.31l-1.755,-3.93l-2.25,0l4.65,10.29Z" style="fill:#555;fill-rule:nonzero;"/><path d="M1627.78,960.709l6.96,0l0,-1.845l-4.86,0l0,-1.47l4.095,0l0,-1.8l-4.095,0l0,-3.24l4.65,0l0,-1.845l-6.75,0l0,10.2Z" style="fill:#555;fill-rule:nonzero;"/><path d="M1636.69,960.709l3.135,0c3.15,0 5.37,-2.085 5.37,-5.1c0,-3.015 -2.235,-5.1 -5.37,-5.1l-3.135,0l0,10.2Zm2.1,-1.845l0,-6.51l0.93,0c2.265,0 3.3,1.35 3.3,3.255c0,1.905 -1.035,3.255 -3.3,3.255l-0.93,0Z" style="fill:#555;fill-rule:nonzero;"/><path d="M1651.9,960.844c2.94,0 5.28,-2.22 5.28,-5.235c0,-3.015 -2.34,-5.235 -5.28,-5.235c-2.94,0 -5.28,2.22 -5.28,5.235c0,3.015 2.34,5.235 5.28,5.235Zm0,-1.875c-1.86,0 -3.12,-1.455 -3.12,-3.36c0,-1.905 1.26,-3.36 3.12,-3.36c1.86,0 3.12,1.455 3.12,3.36c0,1.905 -1.26,3.36 -3.12,3.36Z" style="fill:#555;fill-rule:nonzero;"/><path d="M1664.38,957.529c1.26,-0.57 1.965,-1.575 1.965,-3.165c0,-2.49 -1.71,-3.855 -4.56,-3.855l-2.82,0l0,10.2l2.1,0l0,-2.535l0.72,0c0.195,0 0.405,-0.015 0.6,-0.045l1.68,2.58l2.43,0l-2.115,-3.18Zm-3.315,-1.185l0,-3.99l0.66,0c1.68,0 2.46,0.57 2.46,2.01c0,1.44 -0.75,1.98 -2.46,1.98l-0.66,0Z" style="fill:#555;fill-rule:nonzero;"/><path d="M1668.18,960.709l6.96,0l0,-1.845l-4.86,0l0,-1.47l4.095,0l0,-1.8l-4.095,0l0,-3.24l4.65,0l0,-1.845l-6.75,0l0,10.2Z" style="fill:#555;fill-rule:nonzero;"/><path d="M1680.1,960.844c1.995,0 3.48,-1.035 3.48,-2.925c0,-1.755 -1.005,-2.535 -2.79,-3.3l-0.525,-0.225c-0.9,-0.39 -1.29,-0.645 -1.29,-1.275c0,-0.51 0.39,-0.9 1.005,-0.9c0.6,0 0.99,0.255 1.35,0.9l1.635,-1.05c-0.69,-1.215 -1.65,-1.68 -2.985,-1.68c-1.875,0 -3.075,1.2 -3.075,2.775c0,1.71 1.005,2.52 2.52,3.165l0.525,0.225c0.96,0.42 1.53,0.675 1.53,1.395c0,0.6 -0.555,1.035 -1.425,1.035c-1.035,0 -1.62,-0.54 -2.07,-1.275l-1.71,0.99c0.615,1.215 1.875,2.145 3.825,2.145Z" style="fill:#555;fill-rule:nonzero;"/></g></g><path d="M239.174,262.678l168.652,0" style="fill:none;stroke:url(#_Linear2);stroke-width:0.78px;"/><g transform="matrix(4.74557,0,0,4.74557,-415.164,-38.9304)"><path d="M139.966,57.112l-1.04,0c-0.117,0 -0.213,-0.029 -0.288,-0.087c-0.075,-0.059 -0.129,-0.131 -0.162,-0.218l-0.54,-1.475l-2.995,0l-0.54,1.475c-0.027,0.077 -0.079,0.147 -0.158,0.21c-0.078,0.064 -0.174,0.095 -0.287,0.095l-1.045,0l2.84,-7.23l1.375,0l2.84,7.23Zm-4.68,-2.73l2.305,0l-0.88,-2.405c-0.04,-0.106 -0.084,-0.232 -0.133,-0.377c-0.048,-0.145 -0.095,-0.303 -0.142,-0.473c-0.047,0.17 -0.093,0.329 -0.138,0.475c-0.045,0.147 -0.089,0.275 -0.132,0.385l-0.88,2.395Z" style="fill:none;"/><path d="M140.641,58.787l0,-6.805l0.755,0c0.08,0 0.148,0.019 0.205,0.055c0.057,0.037 0.093,0.094 0.11,0.17l0.1,0.475c0.207,-0.236 0.444,-0.428 0.712,-0.575c0.269,-0.146 0.583,-0.22 0.943,-0.22c0.28,0 0.536,0.059 0.767,0.175c0.232,0.117 0.432,0.286 0.6,0.508c0.169,0.221 0.299,0.495 0.39,0.82c0.092,0.325 0.138,0.697 0.138,1.117c0,0.384 -0.052,0.739 -0.155,1.065c-0.103,0.327 -0.251,0.61 -0.443,0.85c-0.191,0.24 -0.423,0.428 -0.695,0.563c-0.271,0.135 -0.575,0.202 -0.912,0.202c-0.29,0 -0.536,-0.044 -0.738,-0.132c-0.201,-0.089 -0.382,-0.211 -0.542,-0.368l0,2.1l-1.235,0Zm2.4,-5.925c-0.257,0 -0.476,0.054 -0.658,0.163c-0.181,0.108 -0.35,0.261 -0.507,0.457l0,2.3c0.14,0.174 0.292,0.294 0.457,0.363c0.165,0.068 0.343,0.102 0.533,0.102c0.187,0 0.356,-0.035 0.507,-0.105c0.152,-0.07 0.28,-0.176 0.385,-0.32c0.105,-0.143 0.186,-0.324 0.243,-0.542c0.057,-0.219 0.085,-0.476 0.085,-0.773c0,-0.3 -0.024,-0.554 -0.073,-0.762c-0.048,-0.209 -0.117,-0.378 -0.207,-0.508c-0.09,-0.13 -0.199,-0.225 -0.328,-0.285c-0.128,-0.06 -0.274,-0.09 -0.437,-0.09Z" style="fill:none;"/><path d="M148.486,51.902c0.383,0 0.731,0.062 1.042,0.185c0.312,0.124 0.578,0.299 0.798,0.525c0.22,0.227 0.39,0.504 0.51,0.83c0.12,0.327 0.18,0.692 0.18,1.095c0,0.407 -0.06,0.774 -0.18,1.1c-0.12,0.327 -0.29,0.605 -0.51,0.835c-0.22,0.23 -0.486,0.407 -0.798,0.53c-0.311,0.124 -0.659,0.185 -1.042,0.185c-0.383,0 -0.732,-0.061 -1.045,-0.185c-0.313,-0.123 -0.581,-0.3 -0.803,-0.53c-0.221,-0.23 -0.393,-0.508 -0.515,-0.835c-0.121,-0.326 -0.182,-0.693 -0.182,-1.1c0,-0.403 0.061,-0.768 0.182,-1.095c0.122,-0.326 0.294,-0.603 0.515,-0.83c0.222,-0.226 0.49,-0.401 0.803,-0.525c0.313,-0.123 0.662,-0.185 1.045,-0.185Zm0,4.335c0.427,0 0.742,-0.143 0.947,-0.43c0.205,-0.286 0.308,-0.706 0.308,-1.26c0,-0.553 -0.103,-0.975 -0.308,-1.265c-0.205,-0.29 -0.52,-0.435 -0.947,-0.435c-0.433,0 -0.753,0.146 -0.96,0.438c-0.207,0.291 -0.31,0.712 -0.31,1.262c0,0.55 0.103,0.969 0.31,1.258c0.207,0.288 0.527,0.432 0.96,0.432Z" style="fill:none;"/><rect x="152.061" y="49.682" width="1.235" height="7.43" style="fill:none;"/><rect x="154.771" y="49.682" width="1.235" height="7.43" style="fill:none;"/><path d="M159.591,51.902c0.383,0 0.731,0.062 1.042,0.185c0.312,0.124 0.578,0.299 0.798,0.525c0.22,0.227 0.39,0.504 0.51,0.83c0.12,0.327 0.18,0.692 0.18,1.095c0,0.407 -0.06,0.774 -0.18,1.1c-0.12,0.327 -0.29,0.605 -0.51,0.835c-0.22,0.23 -0.486,0.407 -0.798,0.53c-0.311,0.124 -0.659,0.185 -1.042,0.185c-0.383,0 -0.732,-0.061 -1.045,-0.185c-0.313,-0.123 -0.581,-0.3 -0.803,-0.53c-0.221,-0.23 -0.393,-0.508 -0.515,-0.835c-0.121,-0.326 -0.182,-0.693 -0.182,-1.1c0,-0.403 0.061,-0.768 0.182,-1.095c0.122,-0.326 0.294,-0.603 0.515,-0.83c0.222,-0.226 0.49,-0.401 0.803,-0.525c0.313,-0.123 0.662,-0.185 1.045,-0.185Zm0,4.335c0.427,0 0.742,-0.143 0.947,-0.43c0.205,-0.286 0.308,-0.706 0.308,-1.26c0,-0.553 -0.103,-0.975 -0.308,-1.265c-0.205,-0.29 -0.52,-0.435 -0.947,-0.435c-0.433,0 -0.753,0.146 -0.96,0.438c-0.207,0.291 -0.31,0.712 -0.31,1.262c0,0.55 0.103,0.969 0.31,1.258c0.207,0.288 0.527,0.432 0.96,0.432Z" style="fill:none;"/><path d="M167.996,56.027c0.26,0 0.492,-0.043 0.697,-0.13c0.205,-0.086 0.379,-0.208 0.52,-0.365c0.142,-0.156 0.25,-0.346 0.325,-0.57c0.075,-0.223 0.113,-0.473 0.113,-0.75l0,-4.33l1.345,0l0,4.33c0,0.43 -0.069,0.828 -0.208,1.193c-0.138,0.365 -0.337,0.68 -0.597,0.945c-0.26,0.265 -0.575,0.471 -0.945,0.62c-0.37,0.148 -0.787,0.222 -1.25,0.222c-0.463,0 -0.88,-0.074 -1.25,-0.222c-0.37,-0.149 -0.684,-0.355 -0.943,-0.62c-0.258,-0.265 -0.456,-0.58 -0.595,-0.945c-0.138,-0.365 -0.207,-0.763 -0.207,-1.193l0,-4.33l1.345,0l0,4.325c0,0.277 0.037,0.527 0.112,0.75c0.075,0.224 0.183,0.414 0.323,0.573c0.14,0.158 0.312,0.281 0.517,0.367c0.205,0.087 0.438,0.13 0.698,0.13Z" style="fill:none;"/><path d="M174.101,53.392l-2.305,-3.51l1.34,0c0.093,0 0.161,0.013 0.202,0.038c0.042,0.025 0.08,0.066 0.113,0.122l1.645,2.655c0.017,-0.043 0.035,-0.086 0.055,-0.127c0.02,-0.042 0.043,-0.084 0.07,-0.128l1.505,-2.375c0.073,-0.123 0.168,-0.185 0.285,-0.185l1.29,0l-2.33,3.455l2.395,3.775l-1.345,0c-0.09,0 -0.163,-0.023 -0.218,-0.07c-0.055,-0.046 -0.1,-0.1 -0.137,-0.16l-1.675,-2.77c-0.013,0.04 -0.028,0.078 -0.045,0.113c-0.017,0.035 -0.033,0.067 -0.05,0.097l-1.605,2.56c-0.037,0.057 -0.082,0.109 -0.135,0.158c-0.053,0.048 -0.12,0.072 -0.2,0.072l-1.26,0l2.405,-3.72Z" style="fill:none;"/><path d="M139.966,57.112l-1.04,0c-0.117,0 -0.213,-0.029 -0.288,-0.087c-0.075,-0.059 -0.129,-0.131 -0.162,-0.218l-0.54,-1.475l-2.995,0l-0.54,1.475c-0.027,0.077 -0.079,0.147 -0.158,0.21c-0.078,0.064 -0.174,0.095 -0.287,0.095l-1.045,0l2.84,-7.23l1.375,0l2.84,7.23Zm-4.68,-2.73l2.305,0l-0.88,-2.405c-0.04,-0.106 -0.084,-0.232 -0.133,-0.377c-0.048,-0.145 -0.095,-0.303 -0.142,-0.473c-0.047,0.17 -0.093,0.329 -0.138,0.475c-0.045,0.147 -0.089,0.275 -0.132,0.385l-0.88,2.395Z" style="fill:#555;fill-rule:nonzero;"/><path d="M140.641,58.787l0,-6.805l0.755,0c0.08,0 0.148,0.019 0.205,0.055c0.057,0.037 0.093,0.094 0.11,0.17l0.1,0.475c0.207,-0.236 0.444,-0.428 0.712,-0.575c0.269,-0.146 0.583,-0.22 0.943,-0.22c0.28,0 0.536,0.059 0.767,0.175c0.232,0.117 0.432,0.286 0.6,0.508c0.169,0.221 0.299,0.495 0.39,0.82c0.092,0.325 0.138,0.697 0.138,1.117c0,0.384 -0.052,0.739 -0.155,1.065c-0.103,0.327 -0.251,0.61 -0.443,0.85c-0.191,0.24 -0.423,0.428 -0.695,0.563c-0.271,0.135 -0.575,0.202 -0.912,0.202c-0.29,0 -0.536,-0.044 -0.738,-0.132c-0.201,-0.089 -0.382,-0.211 -0.542,-0.368l0,2.1l-1.235,0Zm2.4,-5.925c-0.257,0 -0.476,0.054 -0.658,0.163c-0.181,0.108 -0.35,0.261 -0.507,0.457l0,2.3c0.14,0.174 0.292,0.294 0.457,0.363c0.165,0.068 0.343,0.102 0.533,0.102c0.187,0 0.356,-0.035 0.507,-0.105c0.152,-0.07 0.28,-0.176 0.385,-0.32c0.105,-0.143 0.186,-0.324 0.243,-0.542c0.057,-0.219 0.085,-0.476 0.085,-0.773c0,-0.3 -0.024,-0.554 -0.073,-0.762c-0.048,-0.209 -0.117,-0.378 -0.207,-0.508c-0.09,-0.13 -0.199,-0.225 -0.328,-0.285c-0.128,-0.06 -0.274,-0.09 -0.437,-0.09Z" style="fill:#555;fill-rule:nonzero;"/><path d="M148.486,51.902c0.383,0 0.731,0.062 1.042,0.185c0.312,0.124 0.578,0.299 0.798,0.525c0.22,0.227 0.39,0.504 0.51,0.83c0.12,0.327 0.18,0.692 0.18,1.095c0,0.407 -0.06,0.774 -0.18,1.1c-0.12,0.327 -0.29,0.605 -0.51,0.835c-0.22,0.23 -0.486,0.407 -0.798,0.53c-0.311,0.124 -0.659,0.185 -1.042,0.185c-0.383,0 -0.732,-0.061 -1.045,-0.185c-0.313,-0.123 -0.581,-0.3 -0.803,-0.53c-0.221,-0.23 -0.393,-0.508 -0.515,-0.835c-0.121,-0.326 -0.182,-0.693 -0.182,-1.1c0,-0.403 0.061,-0.768 0.182,-1.095c0.122,-0.326 0.294,-0.603 0.515,-0.83c0.222,-0.226 0.49,-0.401 0.803,-0.525c0.313,-0.123 0.662,-0.185 1.045,-0.185Zm0,4.335c0.427,0 0.742,-0.143 0.947,-0.43c0.205,-0.286 0.308,-0.706 0.308,-1.26c0,-0.553 -0.103,-0.975 -0.308,-1.265c-0.205,-0.29 -0.52,-0.435 -0.947,-0.435c-0.433,0 -0.753,0.146 -0.96,0.438c-0.207,0.291 -0.31,0.712 -0.31,1.262c0,0.55 0.103,0.969 0.31,1.258c0.207,0.288 0.527,0.432 0.96,0.432Z" style="fill:#555;fill-rule:nonzero;"/><rect x="152.061" y="49.682" width="1.235" height="7.43" style="fill:#555;fill-rule:nonzero;"/><rect x="154.771" y="49.682" width="1.235" height="7.43" style="fill:#555;fill-rule:nonzero;"/><path d="M159.591,51.902c0.383,0 0.731,0.062 1.042,0.185c0.312,0.124 0.578,0.299 0.798,0.525c0.22,0.227 0.39,0.504 0.51,0.83c0.12,0.327 0.18,0.692 0.18,1.095c0,0.407 -0.06,0.774 -0.18,1.1c-0.12,0.327 -0.29,0.605 -0.51,0.835c-0.22,0.23 -0.486,0.407 -0.798,0.53c-0.311,0.124 -0.659,0.185 -1.042,0.185c-0.383,0 -0.732,-0.061 -1.045,-0.185c-0.313,-0.123 -0.581,-0.3 -0.803,-0.53c-0.221,-0.23 -0.393,-0.508 -0.515,-0.835c-0.121,-0.326 -0.182,-0.693 -0.182,-1.1c0,-0.403 0.061,-0.768 0.182,-1.095c0.122,-0.326 0.294,-0.603 0.515,-0.83c0.222,-0.226 0.49,-0.401 0.803,-0.525c0.313,-0.123 0.662,-0.185 1.045,-0.185Zm0,4.335c0.427,0 0.742,-0.143 0.947,-0.43c0.205,-0.286 0.308,-0.706 0.308,-1.26c0,-0.553 -0.103,-0.975 -0.308,-1.265c-0.205,-0.29 -0.52,-0.435 -0.947,-0.435c-0.433,0 -0.753,0.146 -0.96,0.438c-0.207,0.291 -0.31,0.712 -0.31,1.262c0,0.55 0.103,0.969 0.31,1.258c0.207,0.288 0.527,0.432 0.96,0.432Z" style="fill:#555;fill-rule:nonzero;"/><path d="M167.996,56.027c0.26,0 0.492,-0.043 0.697,-0.13c0.205,-0.086 0.379,-0.208 0.52,-0.365c0.142,-0.156 0.25,-0.346 0.325,-0.57c0.075,-0.223 0.113,-0.473 0.113,-0.75l0,-4.33l1.345,0l0,4.33c0,0.43 -0.069,0.828 -0.208,1.193c-0.138,0.365 -0.337,0.68 -0.597,0.945c-0.26,0.265 -0.575,0.471 -0.945,0.62c-0.37,0.148 -0.787,0.222 -1.25,0.222c-0.463,0 -0.88,-0.074 -1.25,-0.222c-0.37,-0.149 -0.684,-0.355 -0.943,-0.62c-0.258,-0.265 -0.456,-0.58 -0.595,-0.945c-0.138,-0.365 -0.207,-0.763 -0.207,-1.193l0,-4.33l1.345,0l0,4.325c0,0.277 0.037,0.527 0.112,0.75c0.075,0.224 0.183,0.414 0.323,0.573c0.14,0.158 0.312,0.281 0.517,0.367c0.205,0.087 0.438,0.13 0.698,0.13Z" style="fill:#555;fill-rule:nonzero;"/><path d="M174.101,53.392l-2.305,-3.51l1.34,0c0.093,0 0.161,0.013 0.202,0.038c0.042,0.025 0.08,0.066 0.113,0.122l1.645,2.655c0.017,-0.043 0.035,-0.086 0.055,-0.127c0.02,-0.042 0.043,-0.084 0.07,-0.128l1.505,-2.375c0.073,-0.123 0.168,-0.185 0.285,-0.185l1.29,0l-2.33,3.455l2.395,3.775l-1.345,0c-0.09,0 -0.163,-0.023 -0.218,-0.07c-0.055,-0.046 -0.1,-0.1 -0.137,-0.16l-1.675,-2.77c-0.013,0.04 -0.028,0.078 -0.045,0.113c-0.017,0.035 -0.033,0.067 -0.05,0.097l-1.605,2.56c-0.037,0.057 -0.082,0.109 -0.135,0.158c-0.053,0.048 -0.12,0.072 -0.2,0.072l-1.26,0l2.405,-3.72Z" style="fill:#555;fill-rule:nonzero;"/></g></g><defs><linearGradient id="_Linear1" x1="0" y1="0" x2="1" y2="0" gradientUnits="userSpaceOnUse" gradientTransform="matrix(45.7831,57.0281,-57.0281,45.7831,307.371,87.7048)"><stop offset="0" style="stop-color:#ffad73;stop-opacity:1"/><stop offset="1" style="stop-color:#ff714c;stop-opacity:1"/></linearGradient><linearGradient id="_Linear2" x1="0" y1="0" x2="1" y2="0" gradientUnits="userSpaceOnUse" gradientTransform="matrix(168.652,0,0,0,239.174,262.678)"><stop offset="0" style="stop-color:#ff5f6d;stop-opacity:1"/><stop offset="0.5" style="stop-color:#ff8a74;stop-opacity:1"/><stop offset="1" style="stop-color:#feb47b;stop-opacity:1"/></linearGradient></defs></svg>