<?xml version="1.0" encoding="UTF-8" standalone="no"?><!DOCTYPE svg PUBLIC "-//W3C//DTD SVG 1.1//EN" "http://www.w3.org/Graphics/SVG/1.1/DTD/svg11.dtd"><svg width="100%" height="100%" viewBox="0 0 400 400" version="1.1" xmlns="http://www.w3.org/2000/svg" xmlns:xlink="http://www.w3.org/1999/xlink" xml:space="preserve" style="fill-rule:evenodd;clip-rule:evenodd;stroke-linecap:round;stroke-linejoin:round;stroke-miterlimit:1.5;"><g><path id="XMLID_13_" d="M253.202,210.596c-3.964,7.968 -10.492,13.79 -18.915,18.002c-4.075,2.039 -8.371,3.616 -12.855,4.785c-0.268,0.131 -0.535,0.259 -0.939,0.233c0.213,-0.28 0.518,-0.31 0.778,-0.412c2.898,-1.368 4.683,-3.578 5.622,-6.302c2.074,-6.017 1.81,-11.946 -1.271,-17.674c-1.568,-2.915 -3.455,-5.69 -4.776,-8.716c-1.377,-3.149 -2.741,-6.298 -3.264,-9.677c-0.119,-0.777 -0.038,-1.555 -0.034,-2.405c-0.501,0.157 -0.68,0.502 -0.901,0.786c-2.414,3.132 -3.451,6.664 -3.697,10.408c-0.174,2.651 0.072,5.286 0.633,7.9c0.043,0.191 0.077,0.386 0.094,0.582c0.008,0.072 -0.047,0.153 -0.098,0.302c-0.587,-0.238 -0.973,-0.642 -1.352,-1.042c-2.732,-2.843 -3.803,-6.229 -3.994,-9.893c-0.191,-3.642 0.459,-7.194 1.691,-10.649c1.819,-5.087 1.454,-10.114 -0.344,-15.103c-1.606,-4.446 -4.624,-8.019 -8.716,-10.884c-0.174,-0.119 -0.357,-0.229 -0.54,-0.34c-0.046,-0.029 -0.114,-0.025 -0.187,-0.042c-0.225,0.217 -0.021,0.421 0.051,0.608c3.918,10.662 0.519,22.234 -9.434,28.345c-4.092,2.515 -5.703,3.416 -6.697,3.93c-0.094,0.047 -0.667,0.319 -1.428,0.727c0,0 -0.472,0.251 -0.91,0.506c-0.981,0.565 -1.959,1.279 -2.881,2.04c-3.977,3.276 -6.629,7.861 -7.432,12.953c-0.527,3.336 -0.617,7.254 0.31,11.236c0.748,3.208 2.04,5.524 2.758,6.659c2.397,3.795 5.996,6.757 10.705,8.949c0.114,0.039 0.306,0.124 0.238,0.204c-0.175,0.209 -0.387,0.022 -0.583,-0.029c-12.935,-2.86 -24.681,-7.718 -33.958,-16.557c-6.927,-6.6 -10.522,-14.504 -10.952,-23.568c-0.399,-8.508 1.947,-16.514 5.414,-24.325c1.662,-3.748 3.804,-7.293 5.746,-10.922c2.898,-5.414 4.968,-11.07 5.733,-17.066c0.675,-5.308 0.17,-10.459 -2.741,-15.256c-0.102,-0.166 -0.306,-0.366 -0.145,-0.536c0.191,-0.2 0.476,-0.055 0.706,0.013c2.486,0.731 4.666,1.942 6.603,3.502c4.004,3.217 6.468,7.292 8.083,11.809c2.282,6.383 2.822,12.957 2.554,19.612c-0.076,1.857 -0.233,3.71 -0.348,5.563c-0.013,0.208 -0.149,0.485 0.166,0.595c0.238,0.081 0.399,-0.119 0.556,-0.251c0.795,-0.658 1.386,-1.457 1.883,-2.307c1.538,-2.639 2.197,-5.504 2.584,-8.423c0.735,-5.542 0.476,-11.083 -0.289,-16.595c-0.353,-2.562 -1.356,-5.027 -1.866,-7.581c-2.218,-11.092 -2.546,-22.166 0.467,-33.19c2.61,-9.553 7.658,-17.882 15.716,-24.656c3.361,-2.826 7.08,-5.223 11.1,-7.246c0.161,-0.08 0.335,-0.153 0.51,-0.212c0.046,-0.017 0.114,0.021 0.178,0.034c0.111,0.28 -0.119,0.476 -0.238,0.692c-3.846,6.936 -5.83,14.313 -6.34,22.009c-1.054,15.809 4.33,29.964 13.875,43.036c3.259,4.462 6.961,8.619 10.947,12.575c0.284,0.28 0.518,0.633 1.058,0.812c-0.451,-9.876 3.14,-18.435 10.305,-25.821c3.544,-3.655 7.726,-6.634 12.337,-9.128c0.225,0.255 0.102,0.412 0.042,0.565c-3.718,9.94 -3.816,20.011 -1.334,30.164c1.092,4.47 2.822,8.754 4.951,12.914c4.968,9.711 8.18,19.85 9.043,30.53c0.646,8.006 -0.293,15.817 -3.978,23.228Z" style="fill:url(#_Linear1);fill-rule:nonzero;"/><g transform="matrix(0.902384,0,0,0.902384,-1212.01,-498.213)"><g transform="matrix(1,0,0.0174551,1,-16.7692,0)"><path d="M1448.28,960.844c1.965,0 3.375,-0.87 4.26,-2.25l-1.635,-1.125c-0.57,0.87 -1.305,1.5 -2.625,1.5c-1.845,0 -3.09,-1.455 -3.09,-3.36c0,-1.905 1.245,-3.33 3.09,-3.33c1.17,0 1.995,0.555 2.475,1.335l1.605,-1.14c-0.915,-1.425 -2.235,-2.085 -4.08,-2.085c-2.925,0 -5.25,2.205 -5.25,5.22c0,3.015 2.325,5.235 5.25,5.235Z" style="fill:none;"/><path d="M1458.88,960.844c2.94,0 5.28,-2.22 5.28,-5.235c0,-3.015 -2.34,-5.235 -5.28,-5.235c-2.94,0 -5.28,2.22 -5.28,5.235c0,3.015 2.34,5.235 5.28,5.235Zm0,-1.875c-1.86,0 -3.12,-1.455 -3.12,-3.36c0,-1.905 1.26,-3.36 3.12,-3.36c1.86,0 3.12,1.455 3.12,3.36c0,1.905 -1.26,3.36 -3.12,3.36Z" style="fill:none;"/><path d="M1465.95,960.709l6.72,0l0,-1.845l-4.62,0l0,-8.355l-2.1,0l0,10.2Z" style="fill:none;"/><path d="M1474.36,960.709l6.96,0l0,-1.845l-4.86,0l0,-1.47l4.095,0l0,-1.8l-4.095,0l0,-3.24l4.65,0l0,-1.845l-6.75,0l0,10.2Z" style="fill:none;"/><path d="M1485.6,960.709l2.1,0l0,-8.355l2.91,0l0,-1.845l-7.92,0l0,1.845l2.91,0l0,8.355Z" style="fill:none;"/><rect x="1492.2" y="950.509" width="2.1" height="10.2" style="fill:none;"/><path d="M1500.36,960.799l0.21,0l4.47,-10.29l-2.04,0l-1.71,3.93c-0.39,0.885 -0.78,2.31 -0.78,2.31c0,0 -0.405,-1.44 -0.795,-2.31l-1.755,-3.93l-2.25,0l4.65,10.29Z" style="fill:none;"/><path d="M1510.45,960.844c2.94,0 5.28,-2.22 5.28,-5.235c0,-3.015 -2.34,-5.235 -5.28,-5.235c-2.94,0 -5.28,2.22 -5.28,5.235c0,3.015 2.34,5.235 5.28,5.235Zm0,-1.875c-1.86,0 -3.12,-1.455 -3.12,-3.36c0,-1.905 1.26,-3.36 3.12,-3.36c1.86,0 3.12,1.455 3.12,3.36c0,1.905 -1.26,3.36 -3.12,3.36Z" style="fill:none;"/><path d="M1520.83,960.709l3.135,0c3.15,0 5.37,-2.085 5.37,-5.1c0,-3.015 -2.235,-5.1 -5.37,-5.1l-3.135,0l0,10.2Zm2.1,-1.845l0,-6.51l0.93,0c2.265,0 3.3,1.35 3.3,3.255c0,1.905 -1.035,3.255 -3.3,3.255l-0.93,0Z" style="fill:none;"/><path d="M1531.11,960.709l6.96,0l0,-1.845l-4.86,0l0,-1.47l4.095,0l0,-1.8l-4.095,0l0,-3.24l4.65,0l0,-1.845l-6.75,0l0,10.2Z" style="fill:none;"/><path d="M1543.33,960.709l3.135,0c3.15,0 5.37,-2.085 5.37,-5.1c0,-3.015 -2.235,-5.1 -5.37,-5.1l-3.135,0l0,10.2Zm2.1,-1.845l0,-6.51l0.93,0c2.265,0 3.3,1.35 3.3,3.255c0,1.905 -1.035,3.255 -3.3,3.255l-0.93,0Z" style="fill:none;"/><path d="M1553.61,960.709l6.96,0l0,-1.845l-4.86,0l0,-1.47l4.095,0l0,-1.8l-4.095,0l0,-3.24l4.65,0l0,-1.845l-6.75,0l0,10.2Z" style="fill:none;"/><path d="M1565.53,960.844c1.995,0 3.48,-1.035 3.48,-2.925c0,-1.755 -1.005,-2.535 -2.79,-3.3l-0.525,-0.225c-0.9,-0.39 -1.29,-0.645 -1.29,-1.275c0,-0.51 0.39,-0.9 1.005,-0.9c0.6,0 0.99,0.255 1.35,0.9l1.635,-1.05c-0.69,-1.215 -1.65,-1.68 -2.985,-1.68c-1.875,0 -3.075,1.2 -3.075,2.775c0,1.71 1.005,2.52 2.52,3.165l0.525,0.225c0.96,0.42 1.53,0.675 1.53,1.395c0,0.6 -0.555,1.035 -1.425,1.035c-1.035,0 -1.62,-0.54 -2.07,-1.275l-1.71,0.99c0.615,1.215 1.875,2.145 3.825,2.145Z" style="fill:none;"/><path d="M1570.65,960.709l6.96,0l0,-1.845l-4.86,0l0,-1.47l4.095,0l0,-1.8l-4.095,0l0,-3.24l4.65,0l0,-1.845l-6.75,0l0,10.2Z" style="fill:none;"/><path d="M1587.73,960.799l0.21,0l0,-10.29l-1.965,0l0,4.275c0,0.705 0.135,1.86 0.135,1.86c0,0 -0.705,-0.93 -1.2,-1.395l-5.145,-4.83l-0.21,0l0,10.29l1.965,0l0,-4.275c0,-0.735 -0.15,-1.86 -0.15,-1.86c0,0 0.705,0.915 1.215,1.395l5.145,4.83Z" style="fill:none;"/><path d="M1593.97,960.799l0.21,0l4.47,-10.29l-2.04,0l-1.71,3.93c-0.39,0.885 -0.78,2.31 -0.78,2.31c0,0 -0.405,-1.44 -0.795,-2.31l-1.755,-3.93l-2.25,0l4.65,10.29Z" style="fill:none;"/><path d="M1604.07,960.844c2.94,0 5.28,-2.22 5.28,-5.235c0,-3.015 -2.34,-5.235 -5.28,-5.235c-2.94,0 -5.28,2.22 -5.28,5.235c0,3.015 2.34,5.235 5.28,5.235Zm0,-1.875c-1.86,0 -3.12,-1.455 -3.12,-3.36c0,-1.905 1.26,-3.36 3.12,-3.36c1.86,0 3.12,1.455 3.12,3.36c0,1.905 -1.26,3.36 -3.12,3.36Z" style="fill:none;"/><path d="M1611.13,960.709l6.72,0l0,-1.845l-4.62,0l0,-8.355l-2.1,0l0,10.2Z" style="fill:none;"/><path d="M1621.72,960.799l0.21,0l4.47,-10.29l-2.04,0l-1.71,3.93c-0.39,0.885 -0.78,2.31 -0.78,2.31c0,0 -0.405,-1.44 -0.795,-2.31l-1.755,-3.93l-2.25,0l4.65,10.29Z" style="fill:none;"/><path d="M1627.78,960.709l6.96,0l0,-1.845l-4.86,0l0,-1.47l4.095,0l0,-1.8l-4.095,0l0,-3.24l4.65,0l0,-1.845l-6.75,0l0,10.2Z" style="fill:none;"/><path d="M1636.69,960.709l3.135,0c3.15,0 5.37,-2.085 5.37,-5.1c0,-3.015 -2.235,-5.1 -5.37,-5.1l-3.135,0l0,10.2Zm2.1,-1.845l0,-6.51l0.93,0c2.265,0 3.3,1.35 3.3,3.255c0,1.905 -1.035,3.255 -3.3,3.255l-0.93,0Z" style="fill:none;"/><path d="M1651.9,960.844c2.94,0 5.28,-2.22 5.28,-5.235c0,-3.015 -2.34,-5.235 -5.28,-5.235c-2.94,0 -5.28,2.22 -5.28,5.235c0,3.015 2.34,5.235 5.28,5.235Zm0,-1.875c-1.86,0 -3.12,-1.455 -3.12,-3.36c0,-1.905 1.26,-3.36 3.12,-3.36c1.86,0 3.12,1.455 3.12,3.36c0,1.905 -1.26,3.36 -3.12,3.36Z" style="fill:none;"/><path d="M1664.38,957.529c1.26,-0.57 1.965,-1.575 1.965,-3.165c0,-2.49 -1.71,-3.855 -4.56,-3.855l-2.82,0l0,10.2l2.1,0l0,-2.535l0.72,0c0.195,0 0.405,-0.015 0.6,-0.045l1.68,2.58l2.43,0l-2.115,-3.18Zm-3.315,-1.185l0,-3.99l0.66,0c1.68,0 2.46,0.57 2.46,2.01c0,1.44 -0.75,1.98 -2.46,1.98l-0.66,0Z" style="fill:none;"/><path d="M1668.18,960.709l6.96,0l0,-1.845l-4.86,0l0,-1.47l4.095,0l0,-1.8l-4.095,0l0,-3.24l4.65,0l0,-1.845l-6.75,0l0,10.2Z" style="fill:none;"/><path d="M1680.1,960.844c1.995,0 3.48,-1.035 3.48,-2.925c0,-1.755 -1.005,-2.535 -2.79,-3.3l-0.525,-0.225c-0.9,-0.39 -1.29,-0.645 -1.29,-1.275c0,-0.51 0.39,-0.9 1.005,-0.9c0.6,0 0.99,0.255 1.35,0.9l1.635,-1.05c-0.69,-1.215 -1.65,-1.68 -2.985,-1.68c-1.875,0 -3.075,1.2 -3.075,2.775c0,1.71 1.005,2.52 2.52,3.165l0.525,0.225c0.96,0.42 1.53,0.675 1.53,1.395c0,0.6 -0.555,1.035 -1.425,1.035c-1.035,0 -1.62,-0.54 -2.07,-1.275l-1.71,0.99c0.615,1.215 1.875,2.145 3.825,2.145Z" style="fill:none;"/></g><g transform="matrix(1,0,0.0174551,1,-16.7692,0)"><path d="M1448.28,960.844c1.965,0 3.375,-0.87 4.26,-2.25l-1.635,-1.125c-0.57,0.87 -1.305,1.5 -2.625,1.5c-1.845,0 -3.09,-1.455 -3.09,-3.36c0,-1.905 1.245,-3.33 3.09,-3.33c1.17,0 1.995,0.555 2.475,1.335l1.605,-1.14c-0.915,-1.425 -2.235,-2.085 -4.08,-2.085c-2.925,0 -5.25,2.205 -5.25,5.22c0,3.015 2.325,5.235 5.25,5.235Z" style="fill:#555;fill-rule:nonzero;"/><path d="M1458.88,960.844c2.94,0 5.28,-2.22 5.28,-5.235c0,-3.015 -2.34,-5.235 -5.28,-5.235c-2.94,0 -5.28,2.22 -5.28,5.235c0,3.015 2.34,5.235 5.28,5.235Zm0,-1.875c-1.86,0 -3.12,-1.455 -3.12,-3.36c0,-1.905 1.26,-3.36 3.12,-3.36c1.86,0 3.12,1.455 3.12,3.36c0,1.905 -1.26,3.36 -3.12,3.36Z" style="fill:#555;fill-rule:nonzero;"/><path d="M1465.95,960.709l6.72,0l0,-1.845l-4.62,0l0,-8.355l-2.1,0l0,10.2Z" style="fill:#555;fill-rule:nonzero;"/><path d="M1474.36,960.709l6.96,0l0,-1.845l-4.86,0l0,-1.47l4.095,0l0,-1.8l-4.095,0l0,-3.24l4.65,0l0,-1.845l-6.75,0l0,10.2Z" style="fill:#555;fill-rule:nonzero;"/><path d="M1485.6,960.709l2.1,0l0,-8.355l2.91,0l0,-1.845l-7.92,0l0,1.845l2.91,0l0,8.355Z" style="fill:#555;fill-rule:nonzero;"/><rect x="1492.2" y="950.509" width="2.1" height="10.2" style="fill:#555;fill-rule:nonzero;"/><path d="M1500.36,960.799l0.21,0l4.47,-10.29l-2.04,0l-1.71,3.93c-0.39,0.885 -0.78,2.31 -0.78,2.31c0,0 -0.405,-1.44 -0.795,-2.31l-1.755,-3.93l-2.25,0l4.65,10.29Z" style="fill:#555;fill-rule:nonzero;"/><path d="M1510.45,960.844c2.94,0 5.28,-2.22 5.28,-5.235c0,-3.015 -2.34,-5.235 -5.28,-5.235c-2.94,0 -5.28,2.22 -5.28,5.235c0,3.015 2.34,5.235 5.28,5.235Zm0,-1.875c-1.86,0 -3.12,-1.455 -3.12,-3.36c0,-1.905 1.26,-3.36 3.12,-3.36c1.86,0 3.12,1.455 3.12,3.36c0,1.905 -1.26,3.36 -3.12,3.36Z" style="fill:#555;fill-rule:nonzero;"/><path d="M1520.83,960.709l3.135,0c3.15,0 5.37,-2.085 5.37,-5.1c0,-3.015 -2.235,-5.1 -5.37,-5.1l-3.135,0l0,10.2Zm2.1,-1.845l0,-6.51l0.93,0c2.265,0 3.3,1.35 3.3,3.255c0,1.905 -1.035,3.255 -3.3,3.255l-0.93,0Z" style="fill:#555;fill-rule:nonzero;"/><path d="M1531.11,960.709l6.96,0l0,-1.845l-4.86,0l0,-1.47l4.095,0l0,-1.8l-4.095,0l0,-3.24l4.65,0l0,-1.845l-6.75,0l0,10.2Z" style="fill:#555;fill-rule:nonzero;"/><path d="M1543.33,960.709l3.135,0c3.15,0 5.37,-2.085 5.37,-5.1c0,-3.015 -2.235,-5.1 -5.37,-5.1l-3.135,0l0,10.2Zm2.1,-1.845l0,-6.51l0.93,0c2.265,0 3.3,1.35 3.3,3.255c0,1.905 -1.035,3.255 -3.3,3.255l-0.93,0Z" style="fill:#555;fill-rule:nonzero;"/><path d="M1553.61,960.709l6.96,0l0,-1.845l-4.86,0l0,-1.47l4.095,0l0,-1.8l-4.095,0l0,-3.24l4.65,0l0,-1.845l-6.75,0l0,10.2Z" style="fill:#555;fill-rule:nonzero;"/><path d="M1565.53,960.844c1.995,0 3.48,-1.035 3.48,-2.925c0,-1.755 -1.005,-2.535 -2.79,-3.3l-0.525,-0.225c-0.9,-0.39 -1.29,-0.645 -1.29,-1.275c0,-0.51 0.39,-0.9 1.005,-0.9c0.6,0 0.99,0.255 1.35,0.9l1.635,-1.05c-0.69,-1.215 -1.65,-1.68 -2.985,-1.68c-1.875,0 -3.075,1.2 -3.075,2.775c0,1.71 1.005,2.52 2.52,3.165l0.525,0.225c0.96,0.42 1.53,0.675 1.53,1.395c0,0.6 -0.555,1.035 -1.425,1.035c-1.035,0 -1.62,-0.54 -2.07,-1.275l-1.71,0.99c0.615,1.215 1.875,2.145 3.825,2.145Z" style="fill:#555;fill-rule:nonzero;"/><path d="M1570.65,960.709l6.96,0l0,-1.845l-4.86,0l0,-1.47l4.095,0l0,-1.8l-4.095,0l0,-3.24l4.65,0l0,-1.845l-6.75,0l0,10.2Z" style="fill:#555;fill-rule:nonzero;"/><path d="M1587.73,960.799l0.21,0l0,-10.29l-1.965,0l0,4.275c0,0.705 0.135,1.86 0.135,1.86c0,0 -0.705,-0.93 -1.2,-1.395l-5.145,-4.83l-0.21,0l0,10.29l1.965,0l0,-4.275c0,-0.735 -0.15,-1.86 -0.15,-1.86c0,0 0.705,0.915 1.215,1.395l5.145,4.83Z" style="fill:#555;fill-rule:nonzero;"/><path d="M1593.97,960.799l0.21,0l4.47,-10.29l-2.04,0l-1.71,3.93c-0.39,0.885 -0.78,2.31 -0.78,2.31c0,0 -0.405,-1.44 -0.795,-2.31l-1.755,-3.93l-2.25,0l4.65,10.29Z" style="fill:#555;fill-rule:nonzero;"/><path d="M1604.07,960.844c2.94,0 5.28,-2.22 5.28,-5.235c0,-3.015 -2.34,-5.235 -5.28,-5.235c-2.94,0 -5.28,2.22 -5.28,5.235c0,3.015 2.34,5.235 5.28,5.235Zm0,-1.875c-1.86,0 -3.12,-1.455 -3.12,-3.36c0,-1.905 1.26,-3.36 3.12,-3.36c1.86,0 3.12,1.455 3.12,3.36c0,1.905 -1.26,3.36 -3.12,3.36Z" style="fill:#555;fill-rule:nonzero;"/><path d="M1611.13,960.709l6.72,0l0,-1.845l-4.62,0l0,-8.355l-2.1,0l0,10.2Z" style="fill:#555;fill-rule:nonzero;"/><path d="M1621.72,960.799l0.21,0l4.47,-10.29l-2.04,0l-1.71,3.93c-0.39,0.885 -0.78,2.31 -0.78,2.31c0,0 -0.405,-1.44 -0.795,-2.31l-1.755,-3.93l-2.25,0l4.65,10.29Z" style="fill:#555;fill-rule:nonzero;"/><path d="M1627.78,960.709l6.96,0l0,-1.845l-4.86,0l0,-1.47l4.095,0l0,-1.8l-4.095,0l0,-3.24l4.65,0l0,-1.845l-6.75,0l0,10.2Z" style="fill:#555;fill-rule:nonzero;"/><path d="M1636.69,960.709l3.135,0c3.15,0 5.37,-2.085 5.37,-5.1c0,-3.015 -2.235,-5.1 -5.37,-5.1l-3.135,0l0,10.2Zm2.1,-1.845l0,-6.51l0.93,0c2.265,0 3.3,1.35 3.3,3.255c0,1.905 -1.035,3.255 -3.3,3.255l-0.93,0Z" style="fill:#555;fill-rule:nonzero;"/><path d="M1651.9,960.844c2.94,0 5.28,-2.22 5.28,-5.235c0,-3.015 -2.34,-5.235 -5.28,-5.235c-2.94,0 -5.28,2.22 -5.28,5.235c0,3.015 2.34,5.235 5.28,5.235Zm0,-1.875c-1.86,0 -3.12,-1.455 -3.12,-3.36c0,-1.905 1.26,-3.36 3.12,-3.36c1.86,0 3.12,1.455 3.12,3.36c0,1.905 -1.26,3.36 -3.12,3.36Z" style="fill:#555;fill-rule:nonzero;"/><path d="M1664.38,957.529c1.26,-0.57 1.965,-1.575 1.965,-3.165c0,-2.49 -1.71,-3.855 -4.56,-3.855l-2.82,0l0,10.2l2.1,0l0,-2.535l0.72,0c0.195,0 0.405,-0.015 0.6,-0.045l1.68,2.58l2.43,0l-2.115,-3.18Zm-3.315,-1.185l0,-3.99l0.66,0c1.68,0 2.46,0.57 2.46,2.01c0,1.44 -0.75,1.98 -2.46,1.98l-0.66,0Z" style="fill:#555;fill-rule:nonzero;"/><path d="M1668.18,960.709l6.96,0l0,-1.845l-4.86,0l0,-1.47l4.095,0l0,-1.8l-4.095,0l0,-3.24l4.65,0l0,-1.845l-6.75,0l0,10.2Z" style="fill:#555;fill-rule:nonzero;"/><path d="M1680.1,960.844c1.995,0 3.48,-1.035 3.48,-2.925c0,-1.755 -1.005,-2.535 -2.79,-3.3l-0.525,-0.225c-0.9,-0.39 -1.29,-0.645 -1.29,-1.275c0,-0.51 0.39,-0.9 1.005,-0.9c0.6,0 0.99,0.255 1.35,0.9l1.635,-1.05c-0.69,-1.215 -1.65,-1.68 -2.985,-1.68c-1.875,0 -3.075,1.2 -3.075,2.775c0,1.71 1.005,2.52 2.52,3.165l0.525,0.225c0.96,0.42 1.53,0.675 1.53,1.395c0,0.6 -0.555,1.035 -1.425,1.035c-1.035,0 -1.62,-0.54 -2.07,-1.275l-1.71,0.99c0.615,1.215 1.875,2.145 3.825,2.145Z" style="fill:#555;fill-rule:nonzero;"/></g></g><path d="M86.982,353.825l223.284,0" style="fill:none;stroke:url(#_Linear2);stroke-width:0.78px;"/><g transform="matrix(6.28282,0,0,6.28282,-779.318,-45.4855)"><path d="M139.966,57.112l-1.04,0c-0.117,0 -0.213,-0.029 -0.288,-0.087c-0.075,-0.059 -0.129,-0.131 -0.162,-0.218l-0.54,-1.475l-2.995,0l-0.54,1.475c-0.027,0.077 -0.079,0.147 -0.158,0.21c-0.078,0.064 -0.174,0.095 -0.287,0.095l-1.045,0l2.84,-7.23l1.375,0l2.84,7.23Zm-4.68,-2.73l2.305,0l-0.88,-2.405c-0.04,-0.106 -0.084,-0.232 -0.133,-0.377c-0.048,-0.145 -0.095,-0.303 -0.142,-0.473c-0.047,0.17 -0.093,0.329 -0.138,0.475c-0.045,0.147 -0.089,0.275 -0.132,0.385l-0.88,2.395Z" style="fill:none;"/><path d="M140.641,58.787l0,-6.805l0.755,0c0.08,0 0.148,0.019 0.205,0.055c0.057,0.037 0.093,0.094 0.11,0.17l0.1,0.475c0.207,-0.236 0.444,-0.428 0.712,-0.575c0.269,-0.146 0.583,-0.22 0.943,-0.22c0.28,0 0.536,0.059 0.767,0.175c0.232,0.117 0.432,0.286 0.6,0.508c0.169,0.221 0.299,0.495 0.39,0.82c0.092,0.325 0.138,0.697 0.138,1.117c0,0.384 -0.052,0.739 -0.155,1.065c-0.103,0.327 -0.251,0.61 -0.443,0.85c-0.191,0.24 -0.423,0.428 -0.695,0.563c-0.271,0.135 -0.575,0.202 -0.912,0.202c-0.29,0 -0.536,-0.044 -0.738,-0.132c-0.201,-0.089 -0.382,-0.211 -0.542,-0.368l0,2.1l-1.235,0Zm2.4,-5.925c-0.257,0 -0.476,0.054 -0.658,0.163c-0.181,0.108 -0.35,0.261 -0.507,0.457l0,2.3c0.14,0.174 0.292,0.294 0.457,0.363c0.165,0.068 0.343,0.102 0.533,0.102c0.187,0 0.356,-0.035 0.507,-0.105c0.152,-0.07 0.28,-0.176 0.385,-0.32c0.105,-0.143 0.186,-0.324 0.243,-0.542c0.057,-0.219 0.085,-0.476 0.085,-0.773c0,-0.3 -0.024,-0.554 -0.073,-0.762c-0.048,-0.209 -0.117,-0.378 -0.207,-0.508c-0.09,-0.13 -0.199,-0.225 -0.328,-0.285c-0.128,-0.06 -0.274,-0.09 -0.437,-0.09Z" style="fill:none;"/><path d="M148.486,51.902c0.383,0 0.731,0.062 1.042,0.185c0.312,0.124 0.578,0.299 0.798,0.525c0.22,0.227 0.39,0.504 0.51,0.83c0.12,0.327 0.18,0.692 0.18,1.095c0,0.407 -0.06,0.774 -0.18,1.1c-0.12,0.327 -0.29,0.605 -0.51,0.835c-0.22,0.23 -0.486,0.407 -0.798,0.53c-0.311,0.124 -0.659,0.185 -1.042,0.185c-0.383,0 -0.732,-0.061 -1.045,-0.185c-0.313,-0.123 -0.581,-0.3 -0.803,-0.53c-0.221,-0.23 -0.393,-0.508 -0.515,-0.835c-0.121,-0.326 -0.182,-0.693 -0.182,-1.1c0,-0.403 0.061,-0.768 0.182,-1.095c0.122,-0.326 0.294,-0.603 0.515,-0.83c0.222,-0.226 0.49,-0.401 0.803,-0.525c0.313,-0.123 0.662,-0.185 1.045,-0.185Zm0,4.335c0.427,0 0.742,-0.143 0.947,-0.43c0.205,-0.286 0.308,-0.706 0.308,-1.26c0,-0.553 -0.103,-0.975 -0.308,-1.265c-0.205,-0.29 -0.52,-0.435 -0.947,-0.435c-0.433,0 -0.753,0.146 -0.96,0.438c-0.207,0.291 -0.31,0.712 -0.31,1.262c0,0.55 0.103,0.969 0.31,1.258c0.207,0.288 0.527,0.432 0.96,0.432Z" style="fill:none;"/><rect x="152.061" y="49.682" width="1.235" height="7.43" style="fill:none;"/><rect x="154.771" y="49.682" width="1.235" height="7.43" style="fill:none;"/><path d="M159.591,51.902c0.383,0 0.731,0.062 1.042,0.185c0.312,0.124 0.578,0.299 0.798,0.525c0.22,0.227 0.39,0.504 0.51,0.83c0.12,0.327 0.18,0.692 0.18,1.095c0,0.407 -0.06,0.774 -0.18,1.1c-0.12,0.327 -0.29,0.605 -0.51,0.835c-0.22,0.23 -0.486,0.407 -0.798,0.53c-0.311,0.124 -0.659,0.185 -1.042,0.185c-0.383,0 -0.732,-0.061 -1.045,-0.185c-0.313,-0.123 -0.581,-0.3 -0.803,-0.53c-0.221,-0.23 -0.393,-0.508 -0.515,-0.835c-0.121,-0.326 -0.182,-0.693 -0.182,-1.1c0,-0.403 0.061,-0.768 0.182,-1.095c0.122,-0.326 0.294,-0.603 0.515,-0.83c0.222,-0.226 0.49,-0.401 0.803,-0.525c0.313,-0.123 0.662,-0.185 1.045,-0.185Zm0,4.335c0.427,0 0.742,-0.143 0.947,-0.43c0.205,-0.286 0.308,-0.706 0.308,-1.26c0,-0.553 -0.103,-0.975 -0.308,-1.265c-0.205,-0.29 -0.52,-0.435 -0.947,-0.435c-0.433,0 -0.753,0.146 -0.96,0.438c-0.207,0.291 -0.31,0.712 -0.31,1.262c0,0.55 0.103,0.969 0.31,1.258c0.207,0.288 0.527,0.432 0.96,0.432Z" style="fill:none;"/><path d="M167.996,56.027c0.26,0 0.492,-0.043 0.697,-0.13c0.205,-0.086 0.379,-0.208 0.52,-0.365c0.142,-0.156 0.25,-0.346 0.325,-0.57c0.075,-0.223 0.113,-0.473 0.113,-0.75l0,-4.33l1.345,0l0,4.33c0,0.43 -0.069,0.828 -0.208,1.193c-0.138,0.365 -0.337,0.68 -0.597,0.945c-0.26,0.265 -0.575,0.471 -0.945,0.62c-0.37,0.148 -0.787,0.222 -1.25,0.222c-0.463,0 -0.88,-0.074 -1.25,-0.222c-0.37,-0.149 -0.684,-0.355 -0.943,-0.62c-0.258,-0.265 -0.456,-0.58 -0.595,-0.945c-0.138,-0.365 -0.207,-0.763 -0.207,-1.193l0,-4.33l1.345,0l0,4.325c0,0.277 0.037,0.527 0.112,0.75c0.075,0.224 0.183,0.414 0.323,0.573c0.14,0.158 0.312,0.281 0.517,0.367c0.205,0.087 0.438,0.13 0.698,0.13Z" style="fill:none;"/><path d="M174.101,53.392l-2.305,-3.51l1.34,0c0.093,0 0.161,0.013 0.202,0.038c0.042,0.025 0.08,0.066 0.113,0.122l1.645,2.655c0.017,-0.043 0.035,-0.086 0.055,-0.127c0.02,-0.042 0.043,-0.084 0.07,-0.128l1.505,-2.375c0.073,-0.123 0.168,-0.185 0.285,-0.185l1.29,0l-2.33,3.455l2.395,3.775l-1.345,0c-0.09,0 -0.163,-0.023 -0.218,-0.07c-0.055,-0.046 -0.1,-0.1 -0.137,-0.16l-1.675,-2.77c-0.013,0.04 -0.028,0.078 -0.045,0.113c-0.017,0.035 -0.033,0.067 -0.05,0.097l-1.605,2.56c-0.037,0.057 -0.082,0.109 -0.135,0.158c-0.053,0.048 -0.12,0.072 -0.2,0.072l-1.26,0l2.405,-3.72Z" style="fill:none;"/><path d="M139.966,57.112l-1.04,0c-0.117,0 -0.213,-0.029 -0.288,-0.087c-0.075,-0.059 -0.129,-0.131 -0.162,-0.218l-0.54,-1.475l-2.995,0l-0.54,1.475c-0.027,0.077 -0.079,0.147 -0.158,0.21c-0.078,0.064 -0.174,0.095 -0.287,0.095l-1.045,0l2.84,-7.23l1.375,0l2.84,7.23Zm-4.68,-2.73l2.305,0l-0.88,-2.405c-0.04,-0.106 -0.084,-0.232 -0.133,-0.377c-0.048,-0.145 -0.095,-0.303 -0.142,-0.473c-0.047,0.17 -0.093,0.329 -0.138,0.475c-0.045,0.147 -0.089,0.275 -0.132,0.385l-0.88,2.395Z" style="fill:#555;fill-rule:nonzero;"/><path d="M140.641,58.787l0,-6.805l0.755,0c0.08,0 0.148,0.019 0.205,0.055c0.057,0.037 0.093,0.094 0.11,0.17l0.1,0.475c0.207,-0.236 0.444,-0.428 0.712,-0.575c0.269,-0.146 0.583,-0.22 0.943,-0.22c0.28,0 0.536,0.059 0.767,0.175c0.232,0.117 0.432,0.286 0.6,0.508c0.169,0.221 0.299,0.495 0.39,0.82c0.092,0.325 0.138,0.697 0.138,1.117c0,0.384 -0.052,0.739 -0.155,1.065c-0.103,0.327 -0.251,0.61 -0.443,0.85c-0.191,0.24 -0.423,0.428 -0.695,0.563c-0.271,0.135 -0.575,0.202 -0.912,0.202c-0.29,0 -0.536,-0.044 -0.738,-0.132c-0.201,-0.089 -0.382,-0.211 -0.542,-0.368l0,2.1l-1.235,0Zm2.4,-5.925c-0.257,0 -0.476,0.054 -0.658,0.163c-0.181,0.108 -0.35,0.261 -0.507,0.457l0,2.3c0.14,0.174 0.292,0.294 0.457,0.363c0.165,0.068 0.343,0.102 0.533,0.102c0.187,0 0.356,-0.035 0.507,-0.105c0.152,-0.07 0.28,-0.176 0.385,-0.32c0.105,-0.143 0.186,-0.324 0.243,-0.542c0.057,-0.219 0.085,-0.476 0.085,-0.773c0,-0.3 -0.024,-0.554 -0.073,-0.762c-0.048,-0.209 -0.117,-0.378 -0.207,-0.508c-0.09,-0.13 -0.199,-0.225 -0.328,-0.285c-0.128,-0.06 -0.274,-0.09 -0.437,-0.09Z" style="fill:#555;fill-rule:nonzero;"/><path d="M148.486,51.902c0.383,0 0.731,0.062 1.042,0.185c0.312,0.124 0.578,0.299 0.798,0.525c0.22,0.227 0.39,0.504 0.51,0.83c0.12,0.327 0.18,0.692 0.18,1.095c0,0.407 -0.06,0.774 -0.18,1.1c-0.12,0.327 -0.29,0.605 -0.51,0.835c-0.22,0.23 -0.486,0.407 -0.798,0.53c-0.311,0.124 -0.659,0.185 -1.042,0.185c-0.383,0 -0.732,-0.061 -1.045,-0.185c-0.313,-0.123 -0.581,-0.3 -0.803,-0.53c-0.221,-0.23 -0.393,-0.508 -0.515,-0.835c-0.121,-0.326 -0.182,-0.693 -0.182,-1.1c0,-0.403 0.061,-0.768 0.182,-1.095c0.122,-0.326 0.294,-0.603 0.515,-0.83c0.222,-0.226 0.49,-0.401 0.803,-0.525c0.313,-0.123 0.662,-0.185 1.045,-0.185Zm0,4.335c0.427,0 0.742,-0.143 0.947,-0.43c0.205,-0.286 0.308,-0.706 0.308,-1.26c0,-0.553 -0.103,-0.975 -0.308,-1.265c-0.205,-0.29 -0.52,-0.435 -0.947,-0.435c-0.433,0 -0.753,0.146 -0.96,0.438c-0.207,0.291 -0.31,0.712 -0.31,1.262c0,0.55 0.103,0.969 0.31,1.258c0.207,0.288 0.527,0.432 0.96,0.432Z" style="fill:#555;fill-rule:nonzero;"/><rect x="152.061" y="49.682" width="1.235" height="7.43" style="fill:#555;fill-rule:nonzero;"/><rect x="154.771" y="49.682" width="1.235" height="7.43" style="fill:#555;fill-rule:nonzero;"/><path d="M159.591,51.902c0.383,0 0.731,0.062 1.042,0.185c0.312,0.124 0.578,0.299 0.798,0.525c0.22,0.227 0.39,0.504 0.51,0.83c0.12,0.327 0.18,0.692 0.18,1.095c0,0.407 -0.06,0.774 -0.18,1.1c-0.12,0.327 -0.29,0.605 -0.51,0.835c-0.22,0.23 -0.486,0.407 -0.798,0.53c-0.311,0.124 -0.659,0.185 -1.042,0.185c-0.383,0 -0.732,-0.061 -1.045,-0.185c-0.313,-0.123 -0.581,-0.3 -0.803,-0.53c-0.221,-0.23 -0.393,-0.508 -0.515,-0.835c-0.121,-0.326 -0.182,-0.693 -0.182,-1.1c0,-0.403 0.061,-0.768 0.182,-1.095c0.122,-0.326 0.294,-0.603 0.515,-0.83c0.222,-0.226 0.49,-0.401 0.803,-0.525c0.313,-0.123 0.662,-0.185 1.045,-0.185Zm0,4.335c0.427,0 0.742,-0.143 0.947,-0.43c0.205,-0.286 0.308,-0.706 0.308,-1.26c0,-0.553 -0.103,-0.975 -0.308,-1.265c-0.205,-0.29 -0.52,-0.435 -0.947,-0.435c-0.433,0 -0.753,0.146 -0.96,0.438c-0.207,0.291 -0.31,0.712 -0.31,1.262c0,0.55 0.103,0.969 0.31,1.258c0.207,0.288 0.527,0.432 0.96,0.432Z" style="fill:#555;fill-rule:nonzero;"/><path d="M167.996,56.027c0.26,0 0.492,-0.043 0.697,-0.13c0.205,-0.086 0.379,-0.208 0.52,-0.365c0.142,-0.156 0.25,-0.346 0.325,-0.57c0.075,-0.223 0.113,-0.473 0.113,-0.75l0,-4.33l1.345,0l0,4.33c0,0.43 -0.069,0.828 -0.208,1.193c-0.138,0.365 -0.337,0.68 -0.597,0.945c-0.26,0.265 -0.575,0.471 -0.945,0.62c-0.37,0.148 -0.787,0.222 -1.25,0.222c-0.463,0 -0.88,-0.074 -1.25,-0.222c-0.37,-0.149 -0.684,-0.355 -0.943,-0.62c-0.258,-0.265 -0.456,-0.58 -0.595,-0.945c-0.138,-0.365 -0.207,-0.763 -0.207,-1.193l0,-4.33l1.345,0l0,4.325c0,0.277 0.037,0.527 0.112,0.75c0.075,0.224 0.183,0.414 0.323,0.573c0.14,0.158 0.312,0.281 0.517,0.367c0.205,0.087 0.438,0.13 0.698,0.13Z" style="fill:#555;fill-rule:nonzero;"/><path d="M174.101,53.392l-2.305,-3.51l1.34,0c0.093,0 0.161,0.013 0.202,0.038c0.042,0.025 0.08,0.066 0.113,0.122l1.645,2.655c0.017,-0.043 0.035,-0.086 0.055,-0.127c0.02,-0.042 0.043,-0.084 0.07,-0.128l1.505,-2.375c0.073,-0.123 0.168,-0.185 0.285,-0.185l1.29,0l-2.33,3.455l2.395,3.775l-1.345,0c-0.09,0 -0.163,-0.023 -0.218,-0.07c-0.055,-0.046 -0.1,-0.1 -0.137,-0.16l-1.675,-2.77c-0.013,0.04 -0.028,0.078 -0.045,0.113c-0.017,0.035 -0.033,0.067 -0.05,0.097l-1.605,2.56c-0.037,0.057 -0.082,0.109 -0.135,0.158c-0.053,0.048 -0.12,0.072 -0.2,0.072l-1.26,0l2.405,-3.72Z" style="fill:#555;fill-rule:nonzero;"/></g></g><defs><linearGradient id="_Linear1" x1="0" y1="0" x2="1" y2="0" gradientUnits="userSpaceOnUse" gradientTransform="matrix(60.6138,75.5014,-75.5014,60.6138,177.271,122.171)"><stop offset="0" style="stop-color:#ffad73;stop-opacity:1"/><stop offset="1" style="stop-color:#ff714c;stop-opacity:1"/></linearGradient><linearGradient id="_Linear2" x1="0" y1="0" x2="1" y2="0" gradientUnits="userSpaceOnUse" gradientTransform="matrix(223.284,0,0,0,86.9824,353.825)"><stop offset="0" style="stop-color:#ff5f6d;stop-opacity:1"/><stop offset="0.5" style="stop-color:#ff8a74;stop-opacity:1"/><stop offset="1" style="stop-color:#feb47b;stop-opacity:1"/></linearGradient></defs></svg>