<?xml version="1.0" encoding="UTF-8" standalone="no"?>
<!DOCTYPE svg PUBLIC "-//W3C//DTD SVG 1.1//EN" "http://www.w3.org/Graphics/SVG/1.1/DTD/svg11.dtd">
<svg width="100%" height="100%" viewBox="0 0 21 13" version="1.1" xmlns="http://www.w3.org/2000/svg" xmlns:xlink="http://www.w3.org/1999/xlink" xml:space="preserve" style="fill-rule:evenodd;clip-rule:evenodd;stroke-linejoin:round;stroke-miterlimit:1.41421;">
    <g transform="matrix(1,0,0,1,-1403,-179)">
        <g id="behance" transform="matrix(1,0,0,1,1401,173.446)">
            <path d="M19.582,12.273C19.538,11.654 19.331,11.185 18.959,10.865C18.589,10.543 18.128,10.382 17.577,10.382C16.978,10.382 16.516,10.554 16.186,10.893C15.856,11.231 15.65,11.691 15.565,12.273M21.923,12.041C21.984,12.448 22.011,13.039 22,13.811L15.509,13.811C15.545,14.708 15.854,15.334 16.441,15.692C16.795,15.917 17.223,16.027 17.726,16.027C18.255,16.027 18.687,15.893 19.02,15.618C19.201,15.472 19.36,15.266 19.498,15.007L21.878,15.007C21.815,15.536 21.529,16.073 21.014,16.618C20.216,17.484 19.098,17.919 17.661,17.919C16.475,17.919 15.429,17.553 14.521,16.822C13.616,16.089 13.161,14.9 13.161,13.251C13.161,11.704 13.569,10.521 14.388,9.697C15.21,8.871 16.27,8.46 17.577,8.46C18.352,8.46 19.051,8.599 19.673,8.877C20.295,9.156 20.808,9.595 21.213,10.197C21.578,10.728 21.814,11.342 21.923,12.041ZM9.578,14.066C9.578,13.419 9.314,12.972 8.786,12.733C8.492,12.596 8.075,12.527 7.542,12.522L4.871,12.522L4.871,15.838L7.501,15.838C8.041,15.838 8.459,15.768 8.761,15.62C9.305,15.349 9.578,14.832 9.578,14.066ZM4.871,10.461L7.504,10.461C8.045,10.461 8.483,10.358 8.82,10.153C9.156,9.947 9.324,9.582 9.324,9.058C9.324,8.479 9.102,8.095 8.656,7.91C8.272,7.782 7.782,7.716 7.187,7.716L4.871,7.716M11.716,12.421C12.039,12.921 12.2,13.53 12.2,14.243C12.2,14.982 12.018,15.644 11.647,16.229C11.412,16.617 11.119,16.944 10.767,17.207C10.371,17.512 9.901,17.72 9.362,17.832C8.821,17.944 8.236,18 7.605,18L2,18L2,5.554L8.011,5.554C9.526,5.579 10.6,6.018 11.234,6.88C11.615,7.409 11.803,8.043 11.803,8.78C11.803,9.541 11.612,10.15 11.228,10.613C11.014,10.872 10.698,11.108 10.28,11.321C10.914,11.553 11.394,11.918 11.716,12.421ZM20.064,7.316L15.052,7.316L15.052,6.071L20.064,6.071L20.064,7.316Z" style="fill:rgb(102,102,102);fill-rule:nonzero;"/>
        </g>
    </g>
</svg>
