<?xml version="1.0" encoding="UTF-8" standalone="no"?><!DOCTYPE svg PUBLIC "-//W3C//DTD SVG 1.1//EN" "http://www.w3.org/Graphics/SVG/1.1/DTD/svg11.dtd"><svg width="100%" height="100%" viewBox="0 0 647 324" version="1.1" xmlns="http://www.w3.org/2000/svg" xmlns:xlink="http://www.w3.org/1999/xlink" xml:space="preserve" style="fill-rule:evenodd;clip-rule:evenodd;stroke-linejoin:round;stroke-miterlimit:1.41421;"><path d="M0,0l647,0l0,323.5l-647,0l0,-323.5Z" style="fill:#bfd9dc;"/><g><clipPath id="_clip1"><path d="M213.3,59.92l220.4,0l0,141.1l-220.4,0l0,-141.1Z"/></clipPath><g clip-path="url(#_clip1)"><path d="M342.63,109.78c2.16,-0.4 1.2,-1.72 0.72,-2.85c-2.52,-4.42 -11.64,-7.33 -13.58,-1.57c-1.17,3.46 1,8.8 4.7,9.4c5,0.83 4.57,-4.17 8.16,-4.98m81.46,61.57c5.27,-7.56 9.74,-14.94 8.35,-26.12c-1.55,-12.33 -9.1,-14.98 -16.2,-21.4c-1.9,-1.74 -3,-4.5 -4.7,-5.75c-4.3,-3.14 -14.58,-4.52 -18.8,-2.1c-0.53,0.1 -0.82,0.4 -1,0.82c-0.62,1.34 -1.76,2.34 -3.12,2.92c-5.66,2.45 -7.88,10.46 -15.2,12.46c-7,1.92 -17.24,-1.6 -26.63,-0.53c-3.4,0.4 -7.56,2.32 -10.45,2.1c-7.8,-0.63 -13,-6 -19.84,-5.75c-4.52,0.16 -8.13,3.05 -12.53,3.13c-4.77,0.1 -8.66,-3 -13.06,-3.13c-8.68,-0.25 -17.04,4.45 -19.3,10.97c-5,-1.52 -2.58,-4.53 -3.12,-8.5c-1.2,-8.87 -9.13,-12.55 -19.94,-12.88c-0.64,-0.03 -1.28,0.1 -1.88,0.33c-5.1,2.02 -10.3,2.8 -14.24,6.4c-4.74,4.36 -11.15,14.5 -13.58,21.43c-5.28,15.08 0.4,34.07 12.54,40.73c5.83,3.2 12.84,2.3 21.84,3.42c0.9,0.12 1.84,-0.14 2.52,-0.75c1.8,-1.6 4.54,-2.23 6.45,-3.72c1.55,-1.17 -1,-3.44 1.03,-3.66c0.8,0.5 1.48,0.78 2.06,0.97c2.5,0.8 3.03,4.12 0.92,5.7c-1.22,0.9 -2.4,1.77 -2.46,3.77c-0.18,5.7 8.5,8.56 13.02,4.98c1.25,-1 2.86,-1.45 4.42,-1.13c11.1,2.2 21.8,-2.34 31.13,-0.73c6.15,1.06 14.1,-2.2 20.9,-0.52c1.14,0.3 1.9,1.43 3.12,1.57c3.63,0.4 7.6,-0.46 10.92,-2.05c0.75,-0.36 1.6,-0.4 2.36,-0.06c4.26,1.83 10.37,5.58 16.5,4.73c2.35,-0.33 4.56,-3.12 7.3,-3.66c4.74,-0.92 9.84,1.04 13.58,-1.57c1.68,-1.16 1.96,-2.8 2.58,-4.37c0.44,-1.13 1.57,-1.82 2.76,-1.7c17.24,1.66 24.77,-6.4 31.75,-16.4m9.08,-23.15c0.73,2.03 0.66,4.25 0,6.27c-1.8,14.05 -6.7,22.64 -16.72,29.77c-3.88,2.76 -10.17,5.52 -15.14,6.27c-1.47,0.2 -3.57,-0.47 -5.22,0c-1.74,0.47 -2.08,1.83 -3.66,2.6c-1.06,0.52 -2.2,0 -3.65,0.52c-2.45,0.87 -4.6,3.3 -6.28,3.66c-3.36,0.7 -7.3,-0.58 -10.45,0c-4.62,0.84 -7.9,3.76 -12.54,3.65c-4.4,-0.1 -7.43,-1.53 -11.4,-3.4c-0.96,-0.46 -2.08,-0.48 -3.07,-0.06c-5.27,2.28 -10.62,0.47 -16.86,-0.2c-5.77,-0.6 -12.5,2.13 -20.36,2.62c-7.44,0.45 -21.5,-3.1 -30.3,-1.58c-3.6,0.63 -6.54,3.25 -9.92,2.6c-4.9,-0.9 -7.7,-7.74 -6.27,-12c-20.14,10.08 -43.22,-3.9 -46.48,-20.37c-0.36,-1.85 0.23,-4.1 0,-6.26c-0.27,-2.58 -1.5,-5.05 -1.56,-7.33c-0.2,-6.65 3.17,-14.5 6.8,-20.37c2.78,-4.5 6.08,-10.14 9.4,-13.04c8.82,-7.72 28.3,-7.66 36.93,1.22c0.77,0.8 1.3,1.8 1.53,2.88c0.4,1.8 0.74,3.6 1.23,5.3c4.9,-1.4 10.93,-5.15 18.8,-4.2c-0.62,-7.6 2.83,-14.63 10.96,-15.13c-1.4,-3.75 -6.72,-7.35 -7.32,-12c-2.72,-21.23 14.4,-38.3 33.43,-39.7l8.35,0c9.5,0.6 16.1,4.1 18.3,12c19.25,-10.74 43.3,-2.8 43.33,19.33c0,5.14 -1.12,15.5 -4.7,19.85c-3.2,3.9 -10.55,6.87 -16.7,8.9c-0.44,1.35 1.15,4.56 0.5,7.8c5.1,-2.94 8.86,-6.25 13.07,-10.42c2.3,-2.3 3.07,-4.6 6.8,-5.23c21.14,-3.58 42.06,18.44 39.16,36.03m-82.3,-34.66c0.08,-0.18 0.25,-0.33 0.42,-0.4c0.08,-0.04 0.16,-0.05 0.24,-0.05c0.43,0.2 0.67,0.25 0.45,0.1c2.03,0.66 2.94,2.6 5.1,3.05c0.28,0.07 2.13,0.5 2.43,0.48c3.7,-0.2 2.97,-4.07 2.55,-8.34c-0.02,-0.23 -0.12,-0.45 -0.3,-0.58c-3.1,-2.33 -10.18,-0.45 -12.8,1.8c-1.18,1.37 1.3,2.9 2.5,3.47c-0.06,0 -0.12,0.03 -0.18,0.07c-0.2,0.06 -0.36,0.2 -0.42,0.4m-0.02,0c-0.12,0.27 -0.1,0.6 0.22,0.87c1.75,1.54 -5.18,-2.05 -8.64,-2.2c-0.15,0 -0.3,0.02 -0.45,0.1c-3.08,1.64 -3.28,4.5 -7.1,4.6c-7.82,0.13 -10.5,-15.84 -2.1,-17.77c7,-1.6 7.07,3.83 10.97,5.74c5.94,2.9 12.08,-1.72 16.7,-1.04c5.2,0.76 5.37,6.32 4.82,12.03c-0.06,0.54 0.38,1 0.92,0.94c9.97,-0.95 21.27,-5.15 24.03,-13.5c3.04,-9.17 -0.96,-24.63 -7.3,-30.3c-3,-2.65 -7.86,-3.96 -11.5,-4.17c-9.3,-0.53 -13.74,6.75 -22.2,7.62c-0.7,0.08 -1.27,-0.07 -1.3,-0.72c-0.3,-9.06 -6.7,-13.04 -14.62,-13.16c-8.26,-0.13 -23.4,2.94 -29.77,9.4c-3.17,3.2 -6,9.36 -6.8,15.14c-1.93,14.16 2.57,19.28 8.54,26.04c0.8,0.9 0.1,2.3 -1.1,2.2c-3.77,-0.25 -8.34,-1.15 -10.92,1.37c-0.1,0.12 -0.2,0.26 -0.28,0.4c-0.6,1.12 -0.8,2.6 -0.9,4c-0.03,0.67 0.14,1.35 0.53,1.9c4.48,6.5 11.67,1.93 22.42,2.76c8.65,0.66 16.6,6.23 22.98,6.26c2.58,0.02 5.84,-1.54 9.4,-2.1c11.86,-1.8 20.62,2.8 22.24,-6.94c0.14,-0.83 -0.46,-1.6 -1.3,-1.66c-1.65,-0.14 -2.73,-1.76 -4.9,-2.7c-0.2,-0.1 -0.46,-0.1 -0.67,0c-3.28,1.55 -9.76,-2.5 -11.72,-4.23c-0.27,-0.24 -0.33,-0.6 -0.22,-0.87" style="fill:#333;"/><path d="M243.54,149.2c0.44,0.15 0.8,-0.36 0.5,-0.7c-5.86,-6.6 -13.35,9.1 -6.55,12.78c1.82,1 3.4,-1.83 1.6,-2.87c-0.84,-0.47 -1.92,-0.7 -2.87,-1.08c-2.04,-4.67 2.92,-9.5 7.3,-8.12m40.28,5.25c1.83,0 2.27,-1.4 2.13,-3.4c-0.02,-0.16 -0.08,-0.33 -0.2,-0.46c-2.82,-3.23 -6.33,3.32 -1.92,3.85m42.9,16.83c0.2,-4.1 -1.54,-4.96 -3.18,-7.15c-0.4,-0.55 -1.03,-0.87 -1.7,-0.92c-5.25,-0.42 -4.54,1.94 -7.75,3.33c-0.45,0.2 -0.8,0.56 -0.97,1c-0.4,0.98 -1.13,2.22 -0.5,3.56c0.26,0.52 0.76,0.87 1.32,1.06c1.6,0.54 1.75,4.96 4.38,5.26c0.17,0.02 0.28,0.2 0.2,0.36c-1.05,1.55 1.37,4.17 -0.22,5.4c-1.24,-0.72 -2.4,-1.52 -3.27,-2.6c-0.1,-0.17 -0.37,-0.07 -0.35,0.14c0.57,6.58 12.54,4.14 11.52,-0.3c-0.7,1.74 -3.45,1.1 -4.76,2.23c-0.72,-1.38 -1.57,-2.66 -1.64,-4.7c-0.03,-0.93 0.4,-1.82 1.17,-2.33c1.63,-1.1 3.2,-1.84 4.92,-2.9c0.5,-0.3 0.83,-0.85 0.85,-1.44m11.92,-27.28c-8.82,1.17 -11.05,-4.27 -14.63,-8.35c-0.4,-0.52 -1.06,-0.52 -1.56,0.52c-1.3,2.67 3.9,5.74 3.65,7.3c-7.74,-0.4 -12.44,-4.06 -16.43,-8.07c-0.2,-0.2 -0.45,-0.34 -0.72,-0.34c-0.23,0 -0.43,0.04 -0.63,0.13c-0.48,0.22 -0.74,0.76 -0.7,1.3c0,0.02 0,0.04 0,0.05c1.58,8.76 21.48,10.44 31.03,7.46m28.68,9.08c0.4,-0.75 0.56,-1.4 0.22,-2.37c-0.1,-0.3 -0.33,-0.54 -0.6,-0.68c-1.72,-0.82 -4.17,0.03 -3.85,2.4c0.03,0.3 0.2,0.55 0.43,0.73c0.58,0.44 1.2,0.82 2.16,0.86c0.67,0.05 1.32,-0.32 1.63,-0.92m36.36,7.16c6.25,-5.36 -6.68,-21.5 -10.2,-11c3.65,-3.7 9.43,0.87 9.38,5.73c-0.6,0.56 -1.44,1.13 -2.16,1.78c-2.2,2 0.73,5.4 2.97,3.5m28.75,-15.02c1.4,11.18 -3.08,18.56 -8.36,26.1c-7,10 -14.52,18.05 -31.76,16.4c-1.2,-0.12 -2.32,0.57 -2.76,1.7c-0.62,1.56 -0.9,3.2 -2.57,4.37c-3.72,2.6 -8.83,0.65 -13.57,1.57c-2.74,0.54 -4.95,3.33 -7.3,3.66c-6.13,0.85 -12.24,-2.9 -16.5,-4.72c-0.76,-0.32 -1.6,-0.3 -2.36,0.07c-3.3,1.6 -7.28,2.44 -10.92,2.05c-1.2,-0.13 -1.98,-1.28 -3.13,-1.57c-6.78,-1.68 -14.74,1.58 -20.9,0.52c-9.3,-1.6 -20.03,2.92 -31.12,0.72c-1.56,-0.33 -3.17,0.13 -4.42,1.12c-4.53,3.58 -13.2,0.72 -13.02,-4.98c0.06,-2 1.24,-2.86 2.46,-3.77c2.1,-1.58 1.58,-4.9 -0.93,-5.7c-0.6,-0.2 -1.25,-0.47 -2.06,-0.98c-2.05,0.2 0.5,2.48 -1.05,3.65c-1.92,1.5 -4.67,2.12 -6.45,3.72c-0.7,0.6 -1.62,0.87 -2.53,0.75c-9,-1.1 -16,-0.23 -21.84,-3.43c-12.15,-6.67 -17.82,-25.66 -12.54,-40.74c2.43,-6.95 8.84,-17.07 13.58,-21.42c3.94,-3.6 9.13,-4.4 14.24,-6.4c0.6,-0.24 1.24,-0.37 1.88,-0.35c10.8,0.32 18.74,4 19.95,12.88c0.52,3.96 -1.9,6.97 3.1,8.5c2.26,-6.53 10.62,-11.23 19.3,-10.98c4.4,0.13 8.3,3.23 13.07,3.13c4.4,-0.08 8,-2.97 12.54,-3.13c6.85,-0.25 12.06,5.12 19.85,5.74c2.9,0.23 7.06,-1.7 10.45,-2.1c9.4,-1.06 19.62,2.46 26.63,0.54c7.32,-2 9.54,-10 15.2,-12.46c1.36,-0.58 2.5,-1.58 3.1,-2.92c0.2,-0.4 0.5,-0.73 1.03,-0.8c4.2,-2.44 14.5,-1.06 18.8,2.08c1.7,1.25 2.78,4 4.7,5.74c7.08,6.43 14.64,9.08 16.2,21.4" style="fill:#eff4f4;"/><path d="M393.5,149.23c3.52,-10.5 16.44,5.65 10.2,11c-2.25,1.93 -5.17,-1.5 -3,-3.48c0.74,-0.65 1.57,-1.22 2.18,-1.78c0.05,-4.86 -5.73,-9.44 -9.4,-5.74" style="fill:#333;"/><path d="M382.94,73c6.35,5.68 10.35,21.14 7.3,30.3c-2.75,8.35 -14.05,12.55 -24.02,13.5c-0.54,0.05 -0.98,-0.4 -0.93,-0.94c0.55,-5.7 0.36,-11.27 -4.82,-12.03c-4.63,-0.7 -10.77,3.95 -16.7,1.04c-3.9,-1.9 -3.97,-7.35 -10.98,-5.74c-8.4,1.93 -5.72,17.9 2.1,17.76c3.82,-0.1 4.02,-2.96 7.1,-4.6c0.13,-0.08 0.3,-0.1 0.45,-0.1c3.45,0.15 10.38,3.74 8.63,2.2c1.96,1.7 8.44,5.77 11.72,4.2c0.2,-0.1 0.47,-0.08 0.68,0c2.16,0.96 3.24,2.58 4.9,2.72c0.83,0.07 1.43,0.83 1.3,1.66c-1.63,9.73 -10.4,5.13 -22.25,6.95c-3.56,0.55 -6.82,2.1 -9.4,2.1c-6.37,-0.04 -14.33,-5.6 -22.98,-6.27c-10.75,-0.83 -17.94,3.75 -22.42,-2.75c-0.38,-0.55 -0.56,-1.23 -0.52,-1.9c0.1,-1.4 0.3,-2.87 0.9,-4c0.07,-0.15 0.17,-0.28 0.28,-0.4c2.58,-2.5 7.15,-1.6 10.93,-1.35c1.2,0.1 1.9,-1.32 1.1,-2.2c-5.97,-6.77 -10.48,-11.9 -8.53,-26.03c0.8,-5.8 3.62,-11.94 6.8,-15.15c6.35,-6.46 21.5,-9.53 29.76,-9.4c7.9,0.12 14.33,4.1 14.63,13.16c0.02,0.65 0.6,0.8 1.28,0.72c8.47,-0.87 12.92,-8.15 22.2,-7.62c3.66,0.2 8.5,1.52 11.5,4.18" style="fill:#f8d5e0;"/><path d="M367.55,150.7c0.34,0.98 0.17,1.63 -0.22,2.4c-0.3,0.6 -0.96,0.95 -1.64,0.9c-0.96,-0.03 -1.6,-0.4 -2.17,-0.85c-0.23,-0.17 -0.4,-0.44 -0.43,-0.73c-0.32,-2.37 2.13,-3.22 3.84,-2.4c0.28,0.14 0.5,0.4 0.6,0.7" style="fill:#333;"/><path d="M362.08,108.36c0.42,4.27 1.14,8.14 -2.55,8.35c-0.3,0.02 -2.15,-0.4 -2.44,-0.48c-2.16,-0.46 -3.07,-2.4 -5.1,-3.05c-0.03,-0.02 -0.06,-0.04 -0.1,-0.06c-0.13,-0.07 -0.27,-0.08 -0.42,-0.05c-1.2,-0.55 -3.67,-2.1 -2.48,-3.47c2.6,-2.25 9.67,-4.13 12.78,-1.8c0.18,0.13 0.28,0.35 0.3,0.58m-10.07,4.79c0.2,0.15 -0.03,0.1 -0.46,-0.1c0.08,0 0.16,0.02 0.24,0.04c0.08,0.03 0.14,0.05 0.2,0.07m0.02,-0.01c-0.08,-0.02 -0.14,-0.04 -0.22,-0.06c-0.08,0 -0.16,-0.02 -0.24,-0.02c-0.02,-0.02 -0.04,-0.03 -0.06,-0.03c0.15,-0.03 0.3,-0.02 0.4,0.06c0.06,0.03 0.1,0.05 0.1,0.07m-0.5,-0.14c0.02,0 0.04,0 0.06,0.02c-0.08,0 -0.16,0.02 -0.24,0.05c0.06,-0.04 0.12,-0.06 0.18,-0.07m-0.18,0.07c-0.17,0.07 -0.34,0.22 -0.42,0.4c0.06,-0.2 0.2,-0.34 0.42,-0.4m-0.43,0.41c-0.1,0.28 -0.06,0.63 0.2,0.86c-0.3,-0.3 -0.33,-0.6 -0.2,-0.87m-7.52,-6.59c0.47,1.12 1.43,2.46 -0.72,2.85c-3.6,0.8 -3.16,5.8 -8.16,5c-3.7,-0.62 -5.87,-5.96 -4.7,-9.4c1.94,-5.78 11.06,-2.87 13.58,1.55" style="fill:#f8d5e0;"/><path d="M324.02,135.65c3.58,4.08 5.8,9.52 14.63,8.36c-9.55,3 -29.45,1.3 -31.02,-7.45c0,0 0,-0.03 0,-0.05c-0.05,-0.54 0.2,-1.07 0.7,-1.3c0.2,-0.1 0.4,-0.15 0.62,-0.14c0.27,0 0.53,0.14 0.72,0.34c3.98,4 8.7,7.66 16.44,8.08c0.27,-1.57 -4.95,-4.64 -3.64,-7.3c0.5,-1.05 1.16,-1.05 1.56,-0.53m-0.51,28.47c1.64,2.18 3.37,3.06 3.18,7.15c-0.02,0.6 -0.35,1.13 -0.85,1.44c-1.7,1.06 -3.3,1.8 -4.92,2.9c-0.77,0.5 -1.2,1.4 -1.17,2.32c0.07,2.05 0.9,3.33 1.65,4.7c1.32,-1.1 4.06,-0.48 4.77,-2.22c1.02,4.44 -10.95,6.88 -11.52,0.3c-0.02,-0.2 0.24,-0.3 0.36,-0.15c0.88,1.1 2.03,1.9 3.28,2.6c1.6,-1.22 -0.83,-3.84 0.2,-5.4c0.1,-0.14 0,-0.33 -0.18,-0.35c-2.63,-0.3 -2.77,-4.72 -4.38,-5.27c-0.56,-0.18 -1.06,-0.53 -1.32,-1.06c-0.63,-1.35 0.1,-2.6 0.5,-3.57c0.18,-0.44 0.52,-0.8 0.97,-1c3.2,-1.4 2.5,-3.75 7.75,-3.32c0.67,0.06 1.3,0.38 1.7,0.93m-37.61,-13.07c0.14,2 -0.3,3.38 -2.12,3.4c-4.4,-0.55 -0.9,-7.1 1.93,-3.87c0.12,0.12 0.18,0.3 0.2,0.46m-41.91,-2.55c0.3,0.34 -0.05,0.84 -0.5,0.7c-4.38,-1.4 -9.34,3.45 -7.3,8.12c0.95,0.37 2.03,0.6 2.87,1.1c1.8,1.03 0.22,3.85 -1.6,2.86c-6.8,-3.68 0.68,-19.4 6.53,-12.8" style="fill:#333;"/></g></g><path d="M291.88,168.68c0,2 -1.8,3.62 -3.98,3.62c-2.2,0 -4,-1.62 -4,-3.62c0,-2 1.8,-3.63 4,-3.63c2.2,0 3.98,1.62 3.98,3.63m71.22,0c0,2 -1.8,3.62 -3.98,3.62c-2.2,0 -4,-1.62 -4,-3.62c0,-2 1.8,-3.63 4,-3.63c2.2,0 3.98,1.62 3.98,3.63" style="fill:#f8d5e0;"/><path d="M265.937,240.111c-0.563,0.25 -1.109,0.58 -1.638,0.991c-0.529,0.41 -1.063,0.86 -1.604,1.348c-0.54,0.488 -1.1,1.003 -1.681,1.545c-0.58,0.541 -1.206,1.045 -1.879,1.512c-0.672,0.466 -1.405,0.911 -2.198,1.336c-0.793,0.424 -1.67,0.796 -2.629,1.116c-0.96,0.319 -2.018,0.573 -3.173,0.762c-1.155,0.188 -2.434,0.283 -3.836,0.283c-1.552,0 -2.951,-0.309 -4.198,-0.927c-1.248,-0.618 -2.314,-1.452 -3.199,-2.501c-0.885,-1.049 -1.566,-2.268 -2.043,-3.657c-0.477,-1.389 -0.715,-2.849 -0.715,-4.38c0,-1.064 0.115,-2.207 0.344,-3.428c0.23,-1.221 0.561,-2.465 0.992,-3.733c0.431,-1.267 0.957,-2.532 1.577,-3.793c0.621,-1.262 1.325,-2.471 2.113,-3.629c0.787,-1.157 1.652,-2.231 2.594,-3.22c0.943,-0.99 1.949,-1.852 3.018,-2.587c1.069,-0.735 2.195,-1.311 3.379,-1.727c1.184,-0.417 2.414,-0.625 3.69,-0.625c0.827,0 1.666,0.146 2.517,0.439c0.85,0.293 1.615,0.745 2.293,1.354c0.678,0.609 1.233,1.379 1.664,2.31c0.431,0.931 0.646,2.029 0.646,3.293c0,0.851 -0.135,1.71 -0.405,2.578c-0.27,0.868 -0.641,1.701 -1.112,2.5c-0.471,0.799 -1.026,1.549 -1.664,2.25c-0.638,0.701 -1.324,1.307 -2.06,1.819c-0.736,0.511 -1.5,0.916 -2.293,1.215c-0.793,0.299 -1.586,0.449 -2.379,0.449c-1.046,0 -1.828,-0.141 -2.345,-0.423c-0.518,-0.281 -0.776,-0.687 -0.776,-1.215c0,-0.092 -0.003,-0.201 -0.009,-0.328c-0.006,-0.126 -0.008,-0.259 -0.008,-0.396c0,-0.207 0.011,-0.423 0.034,-0.647c0.023,-0.224 0.069,-0.428 0.138,-0.612c0.069,-0.184 0.17,-0.333 0.302,-0.448c0.132,-0.115 0.313,-0.173 0.543,-0.173c0.138,0 0.258,0.02 0.362,0.061c0.103,0.04 0.218,0.083 0.345,0.129c0.126,0.046 0.278,0.089 0.457,0.129c0.178,0.04 0.405,0.061 0.681,0.061c0.735,0 1.48,-0.161 2.232,-0.483c0.753,-0.322 1.431,-0.776 2.035,-1.362c0.603,-0.587 1.098,-1.285 1.483,-2.095c0.385,-0.81 0.577,-1.704 0.577,-2.681c0,-0.517 -0.069,-1.009 -0.207,-1.474c-0.138,-0.466 -0.362,-0.874 -0.672,-1.224c-0.31,-0.351 -0.71,-0.633 -1.198,-0.845c-0.489,-0.213 -1.084,-0.319 -1.785,-0.319c-0.827,0 -1.635,0.182 -2.422,0.548c-0.788,0.365 -1.543,0.86 -2.268,1.486c-0.724,0.626 -1.41,1.368 -2.06,2.226c-0.649,0.858 -1.25,1.777 -1.802,2.756c-0.551,0.98 -1.048,2 -1.491,3.061c-0.442,1.061 -0.819,2.119 -1.129,3.174c-0.311,1.055 -0.549,2.078 -0.716,3.069c-0.166,0.991 -0.25,1.904 -0.25,2.739c0,1.226 0.147,2.295 0.44,3.205c0.293,0.911 0.71,1.67 1.25,2.277c0.54,0.607 1.201,1.06 1.983,1.357c0.781,0.298 1.661,0.447 2.638,0.447c1.218,0 2.353,-0.158 3.405,-0.474c1.051,-0.315 2.054,-0.729 3.008,-1.241c0.954,-0.512 1.877,-1.089 2.768,-1.732c0.89,-0.643 1.781,-1.289 2.672,-1.937c0.891,-0.649 1.799,-1.268 2.724,-1.857c0.925,-0.59 1.905,-1.087 2.94,-1.492l0,3.84Z" style="fill:#333;fill-rule:nonzero;"/><path d="M274.299,232.4c0.333,0.667 0.583,1.371 0.75,2.112c0.167,0.742 0.25,1.578 0.25,2.509c0,0.678 -0.075,1.362 -0.224,2.052c-0.15,0.689 -0.365,1.356 -0.647,2c-0.281,0.643 -0.626,1.247 -1.034,1.81c-0.408,0.563 -0.874,1.052 -1.397,1.465c-0.523,0.414 -1.095,0.742 -1.715,0.983c-0.621,0.242 -1.282,0.362 -1.983,0.362c-1.012,0 -1.877,-0.221 -2.595,-0.663c-0.718,-0.443 -1.307,-1.021 -1.767,-1.733c-0.46,-0.713 -0.796,-1.517 -1.009,-2.414c-0.212,-0.897 -0.319,-1.805 -0.319,-2.724c0,-1.517 0.19,-2.825 0.569,-3.923c0.38,-1.097 0.923,-2.051 1.63,-2.862c0.706,-0.81 1.571,-1.448 2.594,-1.913c1.023,-0.466 2.173,-0.699 3.449,-0.699c1.092,0 2.115,0.17 3.069,0.509c0.954,0.339 1.847,0.793 2.681,1.362c0.833,0.569 1.609,1.284 2.327,2.146c0.719,0.863 1.388,1.684 2.009,2.466l-0.328,2.431c-0.31,-0.414 -0.73,-0.862 -1.258,-1.345c-0.529,-0.483 -1.089,-1.017 -1.681,-1.603c-0.592,-0.586 -1.176,-1.084 -1.75,-1.492c-0.575,-0.408 -1.069,-0.75 -1.483,-1.025l-0.138,0.189Zm-5.328,9.983c0.391,0 0.77,-0.198 1.138,-0.595c0.368,-0.396 0.69,-0.896 0.966,-1.5c0.276,-0.603 0.497,-1.333 0.664,-2.19c0.166,-0.856 0.25,-1.617 0.25,-2.284c0,-0.529 -0.041,-1.02 -0.121,-1.474c-0.081,-0.454 -0.201,-0.848 -0.362,-1.181c-0.161,-0.334 -0.368,-0.598 -0.621,-0.793c-0.253,-0.196 -0.557,-0.293 -0.914,-0.293c-0.471,0 -0.919,0.201 -1.344,0.603c-0.426,0.402 -0.799,0.917 -1.121,1.543c-0.322,0.627 -0.575,1.319 -0.759,2.078c-0.184,0.758 -0.276,1.615 -0.276,2.569c0,0.482 0.046,0.936 0.138,1.362c0.092,0.425 0.236,0.796 0.431,1.112c0.196,0.316 0.454,0.569 0.776,0.758c0.322,0.19 0.707,0.285 1.155,0.285Z" style="fill:#333;fill-rule:nonzero;"/><path d="M296.677,241.421c-0.265,0.372 -0.618,0.808 -1.061,1.307c-0.442,0.5 -0.939,0.977 -1.491,1.43c-0.552,0.453 -1.144,0.837 -1.776,1.151c-0.632,0.314 -1.264,0.471 -1.896,0.471c-0.764,0 -1.401,-0.242 -1.91,-0.726c-0.51,-0.483 -0.951,-1.186 -1.321,-2.107c-0.279,0.318 -0.62,0.642 -1.026,0.972c-0.405,0.33 -0.849,0.629 -1.329,0.896c-0.481,0.267 -0.982,0.486 -1.504,0.657c-0.521,0.17 -1.043,0.256 -1.564,0.256c-0.552,0 -1.089,-0.113 -1.612,-0.339c-0.523,-0.226 -0.986,-0.551 -1.388,-0.974c-0.402,-0.424 -0.724,-0.94 -0.966,-1.548c-0.241,-0.609 -0.362,-1.296 -0.362,-2.062c0,-0.859 0.122,-1.741 0.365,-2.645c0.242,-0.905 0.618,-1.885 1.127,-2.938c0.509,-1.054 1.055,-1.965 1.639,-2.732c0.584,-0.768 1.223,-1.438 1.917,-2.01c0.693,-0.573 1.425,-1.028 2.194,-1.366c0.769,-0.338 1.552,-0.507 2.35,-0.507c0.266,0 0.474,0.052 0.624,0.157c0.151,0.104 0.275,0.223 0.373,0.357c0.098,0.134 0.194,0.264 0.286,0.392c0.093,0.128 0.208,0.221 0.347,0.279c0.139,0.058 0.28,0.096 0.425,0.113c0.145,0.017 0.292,0.026 0.442,0.026c0.127,0 0.258,-0.003 0.391,-0.009c0.133,-0.005 0.263,-0.008 0.39,-0.008c0.173,0 0.335,0.017 0.485,0.052c0.151,0.035 0.284,0.11 0.399,0.226c0.115,0.117 0.204,0.279 0.268,0.488c0.063,0.209 0.095,0.494 0.095,0.854c0,0.549 -0.058,1.159 -0.173,1.829c-0.115,0.669 -0.246,1.356 -0.395,2.058c-0.148,0.703 -0.317,1.504 -0.507,2.404c-0.19,0.899 -0.285,1.657 -0.285,2.274c0,0.526 0.049,0.938 0.147,1.235c0.098,0.297 0.307,0.446 0.629,0.446c0.242,0 0.495,-0.06 0.759,-0.18c0.264,-0.12 0.532,-0.276 0.802,-0.47c0.27,-0.194 0.54,-0.413 0.81,-0.658c0.27,-0.245 0.526,-0.499 0.767,-0.761c0.563,-0.615 1.132,-1.31 1.707,-2.085l0.828,3.795Zm-14.792,-1.351c0,0.297 0.02,0.584 0.061,0.863c0.04,0.278 0.112,0.527 0.216,0.747c0.103,0.219 0.241,0.397 0.414,0.533c0.173,0.136 0.391,0.204 0.656,0.204c0.426,0 0.812,-0.185 1.157,-0.555c0.346,-0.37 0.645,-0.816 0.899,-1.337c0.253,-0.52 0.457,-1.058 0.613,-1.614c0.155,-0.555 0.256,-1.018 0.302,-1.389l1.286,-5.605c-0.472,0 -0.931,0.117 -1.38,0.351c-0.448,0.233 -0.87,0.55 -1.267,0.948c-0.396,0.399 -0.761,0.855 -1.095,1.368c-0.333,0.512 -0.661,1.145 -0.982,1.897c-0.322,0.752 -0.549,1.413 -0.682,1.983c-0.132,0.569 -0.198,1.105 -0.198,1.606Z" style="fill:#333;fill-rule:nonzero;"/><path d="M299.127,245.693c-0.618,0 -1.193,-0.268 -1.726,-0.806c-0.532,-0.537 -0.996,-1.259 -1.391,-2.164c-0.395,-0.905 -0.704,-1.954 -0.928,-3.148c-0.223,-1.193 -0.335,-2.446 -0.335,-3.759c0,-1.128 0.166,-2.633 0.498,-4.517c0.331,-1.883 0.497,-2.825 0.497,-2.824c0,0 0.251,-0.941 0.753,-2.822c0.502,-1.881 1.006,-3.39 1.511,-4.526c0.505,-1.136 1.053,-2.198 1.645,-3.185c0.592,-0.987 1.213,-1.847 1.864,-2.581c0.65,-0.733 1.329,-1.309 2.037,-1.729c0.708,-0.419 1.428,-0.628 2.16,-0.628c0.532,0 0.971,0.101 1.318,0.304c0.346,0.203 0.619,0.472 0.817,0.805c0.198,0.333 0.337,0.711 0.418,1.133c0.08,0.422 0.12,0.851 0.12,1.289c0,1.086 -0.128,2.193 -0.385,3.32c-0.257,1.127 -0.604,2.26 -1.04,3.398c-0.436,1.139 -0.941,2.28 -1.515,3.424c-0.573,1.145 -1.171,2.28 -1.792,3.407c-0.622,1.127 -1.246,2.237 -1.873,3.329c-0.628,1.092 -1.207,2.16 -1.737,3.203c-0.058,0.116 -0.119,0.267 -0.182,0.452c-0.063,0.186 -0.124,0.386 -0.182,0.6c-0.057,0.215 -0.115,0.444 -0.173,0.687c-0.057,0.243 -0.103,0.481 -0.138,0.713l0,0.243c0,0.302 0.032,0.594 0.095,0.878c0.064,0.284 0.141,0.539 0.234,0.765c0.092,0.226 0.19,0.406 0.294,0.539c0.103,0.134 0.201,0.2 0.294,0.2c0.223,0 0.479,-0.046 0.768,-0.139c0.288,-0.093 0.594,-0.217 0.918,-0.374c0.323,-0.156 0.656,-0.336 0.997,-0.539c0.341,-0.202 0.671,-0.408 0.989,-0.617c0.741,-0.487 1.518,-1.049 2.33,-1.686l1.523,3.634c-1.054,0.699 -2.096,1.322 -3.125,1.869c-0.45,0.229 -0.915,0.456 -1.394,0.68c-0.479,0.224 -0.962,0.424 -1.447,0.599c-0.485,0.174 -0.959,0.314 -1.42,0.418c-0.462,0.103 -0.894,0.155 -1.297,0.155Zm0.017,-13.667c0.519,-0.927 1.069,-1.97 1.652,-3.13c0.582,-1.159 1.133,-2.353 1.652,-3.581c0.519,-1.229 0.968,-2.455 1.349,-3.678c0.38,-1.223 0.622,-2.362 0.726,-3.416c0,-0.337 -0.008,-0.623 -0.024,-0.861c-0.017,-0.238 -0.068,-0.356 -0.155,-0.356c-0.316,0 -0.657,0.218 -1.022,0.654c-0.364,0.437 -0.729,1.028 -1.094,1.773c-0.365,0.745 -0.801,1.958 -1.307,3.636c-0.507,1.679 -0.76,2.519 -0.761,2.519c0,0.001 -0.154,0.78 -0.463,2.337c-0.31,1.558 -0.494,2.925 -0.553,4.103Z" style="fill:#333;fill-rule:nonzero;"/><path d="M322.677,241.421c-0.265,0.372 -0.618,0.808 -1.061,1.307c-0.442,0.5 -0.939,0.977 -1.491,1.43c-0.552,0.453 -1.144,0.837 -1.776,1.151c-0.632,0.314 -1.264,0.471 -1.896,0.471c-0.764,0 -1.4,-0.242 -1.91,-0.726c-0.51,-0.483 -0.951,-1.186 -1.321,-2.107c-0.278,0.318 -0.62,0.642 -1.026,0.972c-0.405,0.33 -0.849,0.629 -1.329,0.896c-0.481,0.267 -0.982,0.486 -1.504,0.657c-0.521,0.17 -1.043,0.256 -1.564,0.256c-0.552,0 -1.089,-0.113 -1.612,-0.339c-0.523,-0.226 -0.986,-0.551 -1.388,-0.974c-0.402,-0.424 -0.724,-0.94 -0.965,-1.548c-0.242,-0.609 -0.363,-1.296 -0.363,-2.062c0,-0.859 0.122,-1.741 0.365,-2.645c0.243,-0.905 0.618,-1.885 1.127,-2.938c0.509,-1.054 1.055,-1.965 1.639,-2.732c0.584,-0.768 1.223,-1.438 1.917,-2.01c0.693,-0.573 1.425,-1.028 2.194,-1.366c0.769,-0.338 1.552,-0.507 2.35,-0.507c0.266,0 0.474,0.052 0.624,0.157c0.151,0.104 0.275,0.223 0.373,0.357c0.098,0.134 0.194,0.264 0.286,0.392c0.093,0.128 0.208,0.221 0.347,0.279c0.139,0.058 0.28,0.096 0.425,0.113c0.145,0.017 0.292,0.026 0.442,0.026c0.128,0 0.258,-0.003 0.391,-0.009c0.133,-0.005 0.263,-0.008 0.39,-0.008c0.173,0 0.335,0.017 0.486,0.052c0.15,0.035 0.283,0.11 0.398,0.226c0.115,0.117 0.205,0.279 0.268,0.488c0.063,0.209 0.095,0.494 0.095,0.854c0,0.549 -0.058,1.159 -0.173,1.829c-0.115,0.669 -0.246,1.356 -0.395,2.058c-0.148,0.703 -0.317,1.504 -0.507,2.404c-0.19,0.899 -0.284,1.657 -0.284,2.274c0,0.526 0.048,0.938 0.146,1.235c0.098,0.297 0.308,0.446 0.629,0.446c0.242,0 0.495,-0.06 0.759,-0.18c0.264,-0.12 0.532,-0.276 0.802,-0.47c0.27,-0.194 0.54,-0.413 0.81,-0.658c0.27,-0.245 0.526,-0.499 0.767,-0.761c0.564,-0.615 1.133,-1.31 1.707,-2.085l0.828,3.795Zm-14.792,-1.351c0,0.297 0.02,0.584 0.061,0.863c0.04,0.278 0.112,0.527 0.216,0.747c0.103,0.219 0.241,0.397 0.414,0.533c0.173,0.136 0.392,0.204 0.656,0.204c0.426,0 0.812,-0.185 1.157,-0.555c0.346,-0.37 0.645,-0.816 0.899,-1.337c0.253,-0.52 0.457,-1.058 0.613,-1.614c0.155,-0.555 0.256,-1.018 0.302,-1.389l1.286,-5.605c-0.472,0 -0.931,0.117 -1.38,0.351c-0.448,0.233 -0.87,0.55 -1.267,0.948c-0.396,0.399 -0.761,0.855 -1.095,1.368c-0.333,0.512 -0.661,1.145 -0.982,1.897c-0.322,0.752 -0.549,1.413 -0.681,1.983c-0.133,0.569 -0.199,1.105 -0.199,1.606Z" style="fill:#333;fill-rule:nonzero;"/><path d="M337.889,215.762c1.88,0 3.552,0.155 5.016,0.464c1.465,0.309 2.748,0.739 3.849,1.288c1.101,0.55 2.032,1.205 2.793,1.967c0.762,0.761 1.378,1.592 1.851,2.491c0.473,0.898 0.816,1.852 1.029,2.859c0.214,1.008 0.32,2.039 0.32,3.092c0,1.452 -0.161,3.024 -0.484,4.718c-0.323,1.694 -0.79,3.238 -1.401,4.632c-0.611,1.394 -1.363,2.702 -2.257,3.923c-0.893,1.221 -1.917,2.287 -3.07,3.197c-1.153,0.91 -2.421,1.628 -3.805,2.152c-1.384,0.524 -2.877,0.786 -4.48,0.786c-0.534,0 -1.081,-0.041 -1.638,-0.123c-0.558,-0.082 -1.099,-0.194 -1.622,-0.335c-0.524,-0.14 -1.019,-0.299 -1.485,-0.475c-0.467,-0.176 -0.877,-0.358 -1.23,-0.546c-0.148,-0.047 -0.264,-0.103 -0.35,-0.167c-0.085,-0.065 -0.15,-0.141 -0.196,-0.229c-0.045,-0.088 -0.074,-0.197 -0.085,-0.326c-0.012,-0.129 -0.017,-0.293 -0.017,-0.493c0,-1.906 0.048,-3.859 0.144,-5.857c0.096,-1.998 0.292,-4.051 0.588,-6.159c0.296,-2.107 0.723,-3.968 1.28,-5.582c0.558,-1.613 1.298,-3.103 2.219,-4.47c0.228,-0.333 0.962,-0.5 2.202,-0.5c0.979,0 1.681,0.356 2.107,1.068c-0.53,0.711 -0.973,1.503 -1.33,2.376c-0.356,0.872 -0.656,1.73 -0.897,2.574c-0.242,0.843 -0.444,1.764 -0.605,2.763c-0.31,1.928 -0.46,2.904 -0.449,2.927c0.035,0.023 -0.097,1.125 -0.397,3.306c-0.115,0.757 -0.204,1.417 -0.267,1.98c-0.064,0.562 -0.11,1.055 -0.138,1.48c-0.029,0.425 -0.043,0.838 -0.043,1.24c0,0.424 0.014,0.78 0.043,1.067c0.028,0.287 0.097,0.517 0.207,0.689c0.109,0.172 0.276,0.295 0.5,0.37c0.225,0.075 0.527,0.112 0.907,0.112c1.151,0 2.244,-0.227 3.28,-0.68c1.036,-0.454 1.991,-1.062 2.866,-1.825c0.874,-0.764 1.66,-1.65 2.356,-2.66c0.696,-1.01 1.289,-2.178 1.778,-3.504c0.489,-1.326 0.866,-2.571 1.131,-3.736c0.265,-1.165 0.397,-2.287 0.397,-3.366c0,-1.331 -0.219,-2.522 -0.656,-3.572c-0.437,-1.051 -1.05,-1.94 -1.839,-2.669c-0.788,-0.729 -1.735,-1.286 -2.839,-1.67c-1.105,-0.385 -2.319,-0.577 -3.643,-0.577c-0.967,0 -1.924,0.058 -2.872,0.173c-0.949,0.116 -1.828,0.295 -2.639,0.537c-0.81,0.243 -1.523,0.552 -2.137,0.927c-0.615,0.376 -1.078,0.824 -1.388,1.343c-0.84,1.305 -1.529,2.313 -2.069,3.024c-0.541,0.71 -0.995,1.065 -1.362,1.065c-0.506,0 -0.759,-0.58 -0.759,-1.741c0,-1.127 0.146,-2.138 0.44,-3.035c0.293,-0.896 0.701,-1.692 1.224,-2.388c0.523,-0.695 1.143,-1.287 1.862,-1.775c0.718,-0.489 1.506,-0.891 2.362,-1.207c0.856,-0.316 1.767,-0.549 2.733,-0.699c0.965,-0.149 1.954,-0.224 2.965,-0.224Z" style="fill:#333;fill-rule:nonzero;"/><path d="M365.437,232.4c0.334,0.667 0.584,1.371 0.75,2.112c0.167,0.742 0.25,1.578 0.25,2.509c0,0.678 -0.075,1.362 -0.224,2.052c-0.149,0.689 -0.365,1.356 -0.646,2c-0.282,0.643 -0.627,1.247 -1.035,1.81c-0.408,0.563 -0.874,1.052 -1.397,1.465c-0.523,0.414 -1.094,0.742 -1.715,0.983c-0.621,0.242 -1.282,0.362 -1.983,0.362c-1.011,0 -1.876,-0.221 -2.595,-0.663c-0.718,-0.443 -1.307,-1.021 -1.767,-1.733c-0.46,-0.713 -0.796,-1.517 -1.009,-2.414c-0.212,-0.897 -0.319,-1.805 -0.319,-2.724c0,-1.517 0.19,-2.825 0.569,-3.923c0.38,-1.097 0.923,-2.051 1.63,-2.862c0.707,-0.81 1.572,-1.448 2.595,-1.913c1.023,-0.466 2.172,-0.699 3.448,-0.699c1.092,0 2.115,0.17 3.069,0.509c0.954,0.339 1.848,0.793 2.681,1.362c0.833,0.569 1.609,1.284 2.328,2.146c0.718,0.863 1.387,1.684 2.008,2.466l-0.327,2.431c-0.311,-0.414 -0.73,-0.862 -1.259,-1.345c-0.529,-0.483 -1.089,-1.017 -1.681,-1.603c-0.592,-0.586 -1.175,-1.084 -1.75,-1.492c-0.575,-0.408 -1.069,-0.75 -1.483,-1.025l-0.138,0.189Zm-5.327,9.983c0.39,0 0.77,-0.198 1.138,-0.595c0.367,-0.396 0.689,-0.896 0.965,-1.5c0.276,-0.603 0.497,-1.333 0.664,-2.19c0.167,-0.856 0.25,-1.617 0.25,-2.284c0,-0.529 -0.04,-1.02 -0.121,-1.474c-0.08,-0.454 -0.201,-0.848 -0.362,-1.181c-0.161,-0.334 -0.368,-0.598 -0.621,-0.793c-0.252,-0.196 -0.557,-0.293 -0.913,-0.293c-0.472,0 -0.92,0.201 -1.345,0.603c-0.426,0.402 -0.799,0.917 -1.121,1.543c-0.322,0.627 -0.575,1.319 -0.759,2.078c-0.183,0.758 -0.275,1.615 -0.275,2.569c0,0.482 0.046,0.936 0.138,1.362c0.091,0.425 0.235,0.796 0.431,1.112c0.195,0.316 0.454,0.569 0.775,0.758c0.322,0.19 0.707,0.285 1.156,0.285Z" style="fill:#333;fill-rule:nonzero;"/><path d="M375.083,245.693c-1.064,0 -1.999,-0.195 -2.803,-0.586c-0.804,-0.391 -1.478,-0.914 -2.022,-1.569c-0.543,-0.655 -0.954,-1.414 -1.232,-2.276c-0.278,-0.862 -0.416,-1.758 -0.416,-2.689c0,-0.667 0.115,-1.466 0.346,-2.397c0.231,-0.931 0.483,-1.744 0.754,-2.44c0.272,-0.695 0.607,-1.359 1.005,-1.991c0.399,-0.632 0.861,-1.187 1.387,-1.664c0.526,-0.477 1.112,-0.856 1.759,-1.138c0.647,-0.281 1.358,-0.422 2.132,-0.422c0.697,0 1.342,0.1 1.935,0.302c0.594,0.201 1.101,0.479 1.523,0.836c0.422,0.356 0.752,0.779 0.991,1.267c0.238,0.489 0.357,1.014 0.357,1.578c0,0.39 -0.056,0.775 -0.168,1.155c-0.112,0.379 -0.329,0.825 -0.653,1.336c-0.323,0.512 -0.637,0.859 -0.942,1.043c-0.304,0.184 -0.65,0.276 -1.035,0.276c-0.582,0 -0.957,-0.144 -1.127,-0.431c-0.278,-0.448 -0.366,-0.845 -0.263,-1.19c0.034,-0.184 0.137,-0.609 0.309,-1.276c0.023,-0.092 0.029,-0.298 0.017,-0.62c0,-0.276 -0.028,-0.506 -0.086,-0.69c-0.057,-0.184 -0.183,-0.276 -0.377,-0.276c-0.469,0 -0.87,0.112 -1.202,0.336c-0.332,0.225 -0.615,0.518 -0.85,0.88c-0.234,0.362 -0.466,0.873 -0.695,1.534c-0.229,0.661 -0.392,1.216 -0.489,1.664c-0.097,0.448 -0.157,0.876 -0.18,1.284c-0.023,0.409 -0.035,0.751 -0.035,1.026c0,0.414 0.038,0.845 0.112,1.293c0.074,0.449 0.223,0.86 0.446,1.233c0.223,0.374 0.512,0.684 0.867,0.931c0.355,0.247 0.813,0.371 1.373,0.371c0.552,0 1.161,-0.17 1.828,-0.509c0.667,-0.339 1.336,-0.767 2.009,-1.284c0.672,-0.517 1.313,-1.086 1.922,-1.707c0.609,-0.621 1.132,-1.207 1.569,-1.759l1.19,2c-0.862,1.23 -1.793,2.328 -2.793,3.293c-0.426,0.414 -0.888,0.817 -1.388,1.207c-0.5,0.391 -1.023,0.739 -1.569,1.043c-0.546,0.305 -1.115,0.552 -1.707,0.742c-0.592,0.189 -1.192,0.284 -1.799,0.284Z" style="fill:#333;fill-rule:nonzero;"/><path d="M388.498,245.693c-1.074,0 -2.013,-0.199 -2.818,-0.596c-0.805,-0.398 -1.476,-0.933 -2.012,-1.606c-0.537,-0.673 -0.939,-1.451 -1.208,-2.334c-0.268,-0.884 -0.402,-1.811 -0.402,-2.782c0,-0.635 0.12,-1.392 0.36,-2.272c0.24,-0.879 0.489,-1.659 0.746,-2.339c0.257,-0.681 0.58,-1.331 0.969,-1.949c0.389,-0.618 0.843,-1.163 1.363,-1.633c0.521,-0.471 1.104,-0.846 1.75,-1.124c0.646,-0.277 1.363,-0.416 2.152,-0.416c0.644,0 1.242,0.103 1.795,0.309c0.552,0.207 1.033,0.497 1.441,0.87c0.409,0.373 0.728,0.824 0.958,1.352c0.23,0.528 0.345,1.119 0.345,1.774c0,0.696 -0.233,1.477 -0.699,2.343c-0.467,0.865 -1.011,1.607 -1.633,2.225c-0.622,0.618 -1.362,1.169 -2.221,1.652c-0.858,0.484 -1.788,0.86 -2.79,1.13c0.173,0.304 0.343,0.556 0.511,0.759c0.167,0.202 0.337,0.359 0.51,0.472c0.173,0.112 0.355,0.191 0.545,0.236c0.19,0.045 0.395,0.067 0.615,0.067c0.689,0 1.416,-0.135 2.181,-0.404c0.764,-0.27 1.508,-0.607 2.232,-1.012c0.725,-0.405 1.408,-0.846 2.052,-1.323c0.644,-0.478 1.19,-0.93 1.638,-1.357l2.224,2.259c-1.011,1.077 -2.086,2.03 -3.224,2.858c-0.494,0.355 -1.026,0.705 -1.595,1.048c-0.569,0.343 -1.166,0.648 -1.793,0.914c-0.626,0.267 -1.276,0.48 -1.948,0.64c-0.673,0.159 -1.354,0.239 -2.044,0.239Zm-2.302,-8.211c0.415,0 0.868,-0.104 1.358,-0.312c0.491,-0.208 0.946,-0.475 1.368,-0.801c0.421,-0.326 0.833,-0.764 1.237,-1.315c0.404,-0.551 0.606,-1.006 0.606,-1.366c0,-0.505 -0.095,-0.921 -0.286,-1.247c-0.19,-0.326 -0.424,-0.489 -0.701,-0.489c-0.496,0 -0.92,0.09 -1.272,0.27c-0.352,0.18 -0.646,0.413 -0.882,0.699c-0.237,0.287 -0.427,0.613 -0.571,0.978c-0.145,0.365 -0.312,0.818 -0.502,1.357c-0.191,0.54 -0.297,0.984 -0.321,1.332c-0.023,0.348 -0.034,0.646 -0.034,0.894Z" style="fill:#333;fill-rule:nonzero;"/><path d="M395.217,239.186c0.643,-0.558 1.166,-1.022 1.569,-1.394c0.402,-0.372 0.804,-0.805 1.207,-1.298c0.402,-0.494 0.721,-0.898 0.956,-1.212c0.236,-0.314 0.515,-0.685 0.837,-1.115c0.321,-0.43 0.712,-0.956 1.172,-1.577c0.46,-0.622 1.058,-1.398 1.793,-2.327c0.15,-0.209 0.316,-0.413 0.5,-0.61c0.184,-0.198 0.388,-0.375 0.612,-0.532c0.224,-0.156 0.472,-0.284 0.742,-0.383c0.27,-0.099 0.571,-0.148 0.905,-0.148c0.552,0 0.978,0.061 1.276,0.183c0.299,0.122 0.518,0.27 0.656,0.444c0.138,0.174 0.218,0.357 0.241,0.549c0.023,0.192 0.035,0.357 0.035,0.497c0,0.279 -0.11,0.587 -0.328,0.924c-0.218,0.336 -0.46,0.662 -0.724,0.976c-0.265,0.313 -0.515,0.601 -0.75,0.862c-0.236,0.262 -0.371,0.456 -0.406,0.584c0,0.36 0.026,0.688 0.079,0.985c0.053,0.296 0.123,0.586 0.211,0.871c0.088,0.285 0.179,0.587 0.273,0.906c0.093,0.32 0.183,0.689 0.27,1.107c0.086,0.418 0.097,0.993 0.034,1.726c-0.063,0.732 -0.095,1.469 -0.095,2.213c0.414,-0.279 0.859,-0.532 1.336,-0.758c0.477,-0.227 0.975,-0.462 1.492,-0.706c0.517,-0.244 1.049,-0.514 1.595,-0.81c0.546,-0.297 1.094,-0.654 1.646,-1.072l0.017,3.904c-0.712,0.532 -1.537,1.03 -2.474,1.496c-0.937,0.466 -1.922,0.876 -2.955,1.23c-1.033,0.355 -2.076,0.635 -3.127,0.84c-1.052,0.205 -2.049,0.307 -2.992,0.307c-0.678,0 -1.31,-0.06 -1.896,-0.181c-0.587,-0.121 -1.101,-0.311 -1.544,-0.569c-0.442,-0.258 -0.801,-0.596 -1.077,-1.014c-0.276,-0.418 -0.443,-0.923 -0.5,-1.517c-0.161,0.035 -0.319,0.058 -0.474,0.07c-0.155,0.011 -0.308,0.017 -0.457,0.017c-0.184,0 -0.356,-0.006 -0.517,-0.017c-0.161,-0.012 -0.299,-0.055 -0.414,-0.131c-0.115,-0.075 -0.207,-0.197 -0.276,-0.366c-0.069,-0.168 -0.104,-0.409 -0.104,-0.723c0,-0.279 0.069,-0.538 0.207,-0.776c0.138,-0.238 0.299,-0.45 0.483,-0.636c0.184,-0.186 0.368,-0.348 0.552,-0.488c0.184,-0.139 0.322,-0.25 0.414,-0.331Zm2.151,2.231c0.138,0 0.291,0.087 0.457,0.261c0.167,0.174 0.359,0.366 0.578,0.575c0.218,0.209 0.471,0.401 0.758,0.575c0.288,0.175 0.615,0.262 0.983,0.262c0.448,0 0.819,-0.076 1.112,-0.227c0.293,-0.151 0.526,-0.351 0.699,-0.601c0.172,-0.25 0.293,-0.54 0.362,-0.871c0.069,-0.331 0.103,-0.677 0.103,-1.037c0,-0.314 -0.02,-0.633 -0.06,-0.959c-0.041,-0.325 -0.035,-0.729 0.017,-1.211c0.052,-0.482 0.04,-0.854 -0.035,-1.116c-0.074,-0.261 -0.14,-0.485 -0.198,-0.671l-4.776,5.02Z" style="fill:#333;fill-rule:nonzero;"/></svg>