<?xml version="1.0" encoding="UTF-8" standalone="no"?><!DOCTYPE svg PUBLIC "-//W3C//DTD SVG 1.1//EN" "http://www.w3.org/Graphics/SVG/1.1/DTD/svg11.dtd"><svg width="100%" height="100%" viewBox="0 0 400 400" version="1.1" xmlns="http://www.w3.org/2000/svg" xmlns:xlink="http://www.w3.org/1999/xlink" xml:space="preserve" style="fill-rule:evenodd;clip-rule:evenodd;stroke-linejoin:round;stroke-miterlimit:1.41421;"><g><g><path d="M226.894,130.297c2.911,-0.535 1.607,-2.362 0.973,-3.897c-3.405,-6.044 -15.703,-10.02 -18.325,-2.141c-1.572,4.725 1.36,12.019 6.343,12.846c6.752,1.121 6.174,-5.709 11.009,-6.808m109.921,84.116c7.125,-10.321 13.158,-20.405 11.276,-35.678c-2.086,-16.858 -12.284,-20.476 -21.849,-29.261c-2.579,-2.363 -4.038,-6.138 -6.343,-7.837c-5.801,-4.296 -19.678,-6.18 -25.366,-2.854c-0.726,0.1 -1.113,0.535 -1.374,1.106c-0.824,1.827 -2.361,3.19 -4.186,3.989c-7.641,3.341 -10.636,14.289 -20.517,17.015c-9.465,2.633 -23.258,-2.184 -35.937,-0.713c-4.568,0.535 -10.192,3.168 -14.097,2.854c-10.515,-0.85 -17.542,-8.186 -26.775,-7.851c-6.104,0.228 -10.981,4.168 -16.916,4.283c-6.441,0.135 -11.692,-4.105 -17.619,-4.283c-11.735,-0.335 -23.012,6.081 -26.07,14.988c-6.745,-2.077 -3.475,-6.188 -4.194,-11.597c-1.621,-12.126 -12.327,-17.157 -26.909,-17.614c-0.868,-0.029 -1.727,0.15 -2.538,0.47c-6.9,2.763 -13.905,3.833 -19.212,8.757c-6.4,5.938 -15.048,19.777 -18.325,29.261c-7.125,20.612 0.522,46.555 16.915,55.662c7.873,4.374 17.324,3.168 29.468,4.689c1.233,0.156 2.488,-0.194 3.411,-1.029c2.41,-2.183 6.125,-3.047 8.697,-5.088c2.107,-1.592 -1.354,-4.703 1.409,-4.996c1.093,0.693 1.988,1.085 2.77,1.342c3.383,1.092 4.103,5.631 1.255,7.786c-1.649,1.242 -3.235,2.413 -3.32,5.146c-0.239,7.793 11.46,11.697 17.571,6.808c1.691,-1.349 3.855,-1.976 5.962,-1.548c14.963,3.005 29.426,-3.176 42.007,-0.978c8.302,1.449 19.036,-3.012 28.185,-0.714c1.557,0.393 2.593,1.963 4.228,2.141c4.906,0.536 10.262,-0.62 14.737,-2.797c1.008,-0.486 2.157,-0.528 3.18,-0.086c5.75,2.491 13.996,7.615 22.25,6.452c3.193,-0.449 6.174,-4.261 9.867,-4.996c6.4,-1.256 13.285,1.42 18.325,-2.141c2.255,-1.591 2.636,-3.847 3.468,-5.981c0.591,-1.534 2.114,-2.483 3.728,-2.319c23.265,2.262 33.414,-8.736 42.838,-22.388m12.262,-31.645c0.988,2.769 0.896,5.794 0,8.564c-2.417,19.191 -9.02,30.938 -22.553,40.673c-5.237,3.768 -13.722,7.544 -20.432,8.564c-1.987,0.3 -4.821,-0.628 -7.047,0c-2.341,0.657 -2.806,2.513 -4.935,3.568c-1.431,0.714 -2.974,0 -4.933,0.714c-3.285,1.192 -6.203,4.51 -8.457,4.996c-4.525,0.978 -9.84,-0.785 -14.097,0c-6.237,1.156 -10.642,5.138 -16.915,4.996c-5.963,-0.136 -10.036,-2.091 -15.371,-4.646c-1.311,-0.628 -2.826,-0.664 -4.158,-0.086c-7.119,3.112 -14.337,0.636 -22.751,-0.264c-7.789,-0.828 -16.888,2.905 -27.481,3.569c-10.029,0.627 -29.016,-4.205 -40.878,-2.141c-4.863,0.856 -8.831,4.432 -13.384,3.568c-6.597,-1.256 -10.41,-10.599 -8.458,-16.415c-27.184,13.767 -58.328,-5.331 -62.72,-27.834c-0.493,-2.526 0.31,-5.602 0,-8.557c-0.366,-3.511 -2.023,-6.88 -2.114,-9.992c-0.261,-9.099 4.271,-19.805 9.162,-27.833c3.75,-6.153 8.204,-13.868 12.687,-17.828c11.897,-10.541 38.2,-10.456 49.829,1.669c1.043,1.092 1.755,2.463 2.072,3.94c0.522,2.441 1.001,4.925 1.656,7.223c6.64,-1.913 14.766,-7.016 25.366,-5.709c-0.818,-10.378 3.834,-19.998 14.8,-20.684c-1.902,-5.124 -9.056,-10.048 -9.866,-16.414c-3.679,-28.99 19.431,-52.307 45.1,-54.241l11.276,0c12.799,0.835 21.715,5.609 24.668,16.415c26,-14.688 58.442,-3.853 58.491,26.407c0.008,7.022 -1.508,21.189 -6.343,27.12c-4.327,5.295 -14.243,9.37 -22.553,12.133c-0.578,1.855 1.572,6.244 0.704,10.691c6.865,-4.04 11.947,-8.565 17.621,-14.26c3.115,-3.14 4.151,-6.28 9.162,-7.137c28.545,-4.896 56.764,25.194 52.852,49.231m-111.054,-47.368c0.119,-0.243 0.338,-0.443 0.578,-0.549c0.099,-0.044 0.204,-0.057 0.317,-0.057l0.006,0c0.578,0.263 0.903,0.335 0.607,0.135c2.749,0.892 3.975,3.54 6.879,4.168c0.395,0.086 2.889,0.678 3.291,0.656c4.976,-0.285 4.011,-5.566 3.447,-11.405c-0.029,-0.307 -0.17,-0.606 -0.416,-0.792c-4.194,-3.175 -13.737,-0.606 -17.246,2.456c-1.607,1.884 1.74,3.989 3.354,4.745c-0.084,0.015 -0.162,0.044 -0.239,0.094c-0.283,0.085 -0.487,0.292 -0.578,0.549m-0.014,0.021c-0.17,0.35 -0.142,0.785 0.289,1.171c2.368,2.119 -6.985,-2.784 -11.651,-3.005c-0.211,-0.007 -0.423,0.043 -0.613,0.143c-4.144,2.248 -4.419,6.166 -9.578,6.273c-10.537,0.2 -14.167,-21.631 -2.819,-24.265c9.451,-2.198 9.542,5.238 14.8,7.85c8.007,3.968 16.303,-2.362 22.547,-1.427c6.991,1.042 7.238,8.636 6.491,16.443c-0.071,0.728 0.529,1.349 1.248,1.278c13.461,-1.299 28.706,-7.03 32.435,-18.435c4.095,-12.532 -1.298,-33.658 -9.868,-41.393c-4.031,-3.64 -10.586,-5.424 -15.505,-5.71c-12.532,-0.736 -18.544,9.213 -29.968,10.412c-0.937,0.1 -1.706,-0.1 -1.734,-0.992c-0.395,-12.382 -9.057,-17.813 -19.741,-17.984c-11.136,-0.179 -31.582,4.025 -40.167,12.846c-4.278,4.389 -8.091,12.789 -9.162,20.697c-2.622,19.334 3.453,26.328 11.509,35.556c1.071,1.22 0.134,3.14 -1.473,3.026c-5.096,-0.357 -11.263,-1.584 -14.737,1.856c-0.155,0.157 -0.29,0.335 -0.388,0.527c-0.796,1.542 -1.086,3.57 -1.198,5.461c-0.056,0.927 0.183,1.855 0.705,2.619c6.046,8.885 15.745,2.626 30.25,3.754c11.671,0.913 22.412,8.521 31.004,8.564c3.482,0.021 7.879,-2.105 12.686,-2.855c16.013,-2.49 27.825,3.79 30.01,-9.506c0.191,-1.135 -0.62,-2.17 -1.747,-2.27c-2.228,-0.193 -3.693,-2.405 -6.604,-3.696c-0.29,-0.129 -0.628,-0.137 -0.916,0c-4.426,2.126 -13.173,-3.412 -15.816,-5.767c-0.36,-0.321 -0.438,-0.792 -0.289,-1.171" style="fill:#333;fill-rule:nonzero;"/><path d="M93.193,184.16c0.593,0.193 1.072,-0.5 0.662,-0.971c-7.9,-9.021 -18.007,12.439 -8.83,17.471c2.474,1.349 4.609,-2.505 2.17,-3.925c-1.127,-0.657 -2.586,-0.985 -3.869,-1.492c-2.756,-6.373 3.933,-12.989 9.867,-11.083m54.333,7.172c2.46,-0.021 3.052,-1.92 2.854,-4.631c-0.02,-0.236 -0.105,-0.464 -0.26,-0.643c-3.814,-4.411 -8.549,4.539 -2.594,5.274m57.878,22.995c0.247,-5.588 -2.086,-6.787 -4.292,-9.777c-0.542,-0.742 -1.395,-1.185 -2.297,-1.256c-7.091,-0.585 -6.125,2.64 -10.46,4.546c-0.599,0.257 -1.057,0.757 -1.304,1.363c-0.535,1.335 -1.522,3.033 -0.67,4.86c0.339,0.728 1.023,1.2 1.777,1.456c2.17,0.742 2.361,6.78 5.906,7.194c0.233,0.028 0.381,0.293 0.254,0.493c-1.403,2.112 1.867,5.695 -0.282,7.372c-1.678,-0.978 -3.228,-2.077 -4.406,-3.562c-0.168,-0.213 -0.521,-0.078 -0.492,0.2c0.767,8.993 16.922,5.667 15.547,-0.4c-0.951,2.37 -4.652,1.507 -6.42,3.048c-0.994,-1.891 -2.129,-3.64 -2.228,-6.444c-0.042,-1.256 0.536,-2.47 1.572,-3.169c2.199,-1.485 4.334,-2.505 6.639,-3.961c0.677,-0.422 1.121,-1.156 1.156,-1.963m16.119,-37.269c-11.904,1.592 -14.907,-5.837 -19.734,-11.418c-0.55,-0.714 -1.431,-0.714 -2.115,0.713c-1.768,3.647 5.286,7.836 4.934,9.992c-10.46,-0.579 -16.809,-5.567 -22.187,-11.048c-0.261,-0.272 -0.606,-0.457 -0.973,-0.464c-0.303,-0.007 -0.585,0.057 -0.846,0.178c-0.648,0.322 -1.008,1.056 -0.944,1.791c0.007,0.022 0.007,0.05 0.014,0.072c2.114,11.962 28.967,14.259 41.851,10.184m38.7,12.404c0.529,-1.027 0.761,-1.919 0.297,-3.247c-0.142,-0.407 -0.438,-0.75 -0.825,-0.942c-2.305,-1.113 -5.603,0.042 -5.18,3.275c0.049,0.4 0.268,0.764 0.584,1.007c0.776,0.592 1.629,1.114 2.918,1.178c0.917,0.05 1.783,-0.45 2.206,-1.271m49.069,9.778c8.436,-7.322 -9.008,-29.383 -13.772,-15.045c4.948,-5.053 12.743,1.207 12.679,7.851c-0.832,0.764 -1.953,1.534 -2.925,2.426c-2.946,2.72 0.994,7.394 4.018,4.768m38.799,-20.504c1.882,15.273 -4.151,25.357 -11.277,35.677c-9.424,13.652 -19.572,24.65 -42.838,22.389c-1.614,-0.165 -3.136,0.784 -3.728,2.319c-0.832,2.133 -1.212,4.389 -3.468,5.981c-5.039,3.56 -11.925,0.884 -18.325,2.141c-3.692,0.735 -6.674,4.546 -9.867,4.996c-8.253,1.163 -16.499,-3.962 -22.25,-6.453c-1.023,-0.442 -2.171,-0.399 -3.179,0.086c-4.475,2.177 -9.831,3.333 -14.737,2.798c-1.635,-0.178 -2.672,-1.749 -4.229,-2.141c-9.148,-2.299 -19.882,2.163 -28.185,0.714c-12.581,-2.199 -27.043,3.982 -42.006,0.977c-2.107,-0.428 -4.271,0.2 -5.962,1.549c-6.111,4.889 -17.811,0.985 -17.571,-6.809c0.084,-2.733 1.67,-3.904 3.32,-5.146c2.847,-2.154 2.128,-6.694 -1.255,-7.785c-0.782,-0.258 -1.678,-0.65 -2.77,-1.342c-2.763,0.292 0.698,3.404 -1.409,4.995c-2.573,2.041 -6.287,2.905 -8.697,5.089c-0.924,0.835 -2.179,1.184 -3.412,1.028c-12.144,-1.52 -21.595,-0.314 -29.468,-4.689c-16.393,-9.107 -24.04,-35.049 -16.915,-55.661c3.278,-9.485 11.926,-23.323 18.325,-29.261c5.307,-4.925 12.313,-5.995 19.213,-8.757c0.811,-0.321 1.67,-0.5 2.537,-0.471c14.582,0.457 25.288,5.488 26.909,17.614c0.719,5.41 -2.551,9.52 4.194,11.598c3.059,-8.907 14.335,-15.323 26.07,-14.988c5.928,0.178 11.179,4.417 17.62,4.282c5.935,-0.114 10.812,-4.054 16.916,-4.282c9.233,-0.335 16.259,7.001 26.775,7.85c3.905,0.315 9.529,-2.319 14.096,-2.854c12.679,-1.471 26.472,3.347 35.937,0.713c9.881,-2.726 12.877,-13.674 20.517,-17.014c1.826,-0.799 3.362,-2.162 4.187,-3.99c0.26,-0.57 0.648,-1.006 1.374,-1.106c5.688,-3.326 19.565,-1.442 25.365,2.855c2.305,1.699 3.764,5.474 6.344,7.837c9.564,8.785 19.763,12.403 21.849,29.261" style="fill:#fff;fill-rule:nonzero;"/><path d="M295.52,184.195c4.764,-14.338 22.208,7.722 13.772,15.045c-3.024,2.626 -6.964,-2.049 -4.018,-4.768c0.973,-0.892 2.093,-1.663 2.925,-2.427c0.064,-6.644 -7.731,-12.903 -12.679,-7.85" style="fill:#333;fill-rule:nonzero;"/><path d="M281.29,80.054c8.57,7.736 13.962,28.862 9.867,41.394c-3.728,11.405 -18.973,17.135 -32.435,18.434c-0.718,0.072 -1.318,-0.55 -1.247,-1.277c0.747,-7.808 0.5,-15.401 -6.491,-16.444c-6.245,-0.935 -14.541,5.396 -22.547,1.428c-5.258,-2.613 -5.349,-10.049 -14.801,-7.85c-11.347,2.633 -7.718,24.464 2.819,24.265c5.16,-0.108 5.435,-4.025 9.578,-6.274c0.191,-0.1 0.402,-0.15 0.614,-0.142c4.665,0.22 14.018,5.124 11.65,3.004c2.643,2.355 11.39,7.894 15.816,5.767c0.289,-0.136 0.627,-0.129 0.917,0c2.91,1.292 4.376,3.504 6.603,3.696c1.128,0.1 1.938,1.136 1.748,2.27c-2.185,13.296 -13.997,7.016 -30.01,9.507c-4.807,0.749 -9.205,2.876 -12.686,2.854c-8.592,-0.043 -19.333,-7.651 -31.004,-8.564c-14.505,-1.128 -24.204,5.131 -30.251,-3.754c-0.521,-0.764 -0.761,-1.691 -0.705,-2.619c0.113,-1.891 0.402,-3.919 1.199,-5.46c0.098,-0.193 0.232,-0.371 0.387,-0.528c3.475,-3.44 9.642,-2.213 14.738,-1.856c1.607,0.115 2.544,-1.806 1.472,-3.026c-8.055,-9.228 -14.131,-16.222 -11.509,-35.556c1.072,-7.908 4.885,-16.308 9.163,-20.697c8.584,-8.821 29.03,-13.025 40.166,-12.846c10.685,0.171 19.347,5.602 19.741,17.985c0.029,0.892 0.797,1.092 1.734,0.992c11.425,-1.199 17.437,-11.148 29.968,-10.413c4.92,0.286 11.475,2.07 15.506,5.71" style="fill:#f8d5e0;fill-rule:nonzero;"/><path d="M260.52,186.215c0.465,1.328 0.232,2.22 -0.297,3.248c-0.423,0.82 -1.289,1.32 -2.206,1.27c-1.289,-0.064 -2.142,-0.586 -2.918,-1.178c-0.316,-0.242 -0.535,-0.607 -0.584,-1.006c-0.423,-3.233 2.876,-4.389 5.18,-3.276c0.388,0.193 0.683,0.535 0.825,0.942" style="fill:#333;fill-rule:nonzero;"/><path d="M253.148,128.349c0.563,5.838 1.529,11.12 -3.447,11.405c-0.402,0.021 -2.896,-0.571 -3.291,-0.657c-2.904,-0.628 -4.13,-3.276 -6.88,-4.168c-0.034,-0.028 -0.077,-0.057 -0.133,-0.092c-0.17,-0.1 -0.359,-0.122 -0.557,-0.079c-1.614,-0.756 -4.961,-2.862 -3.354,-4.746c3.509,-3.062 13.052,-5.631 17.245,-2.455c0.247,0.185 0.388,0.485 0.417,0.792" style="fill:#f8d5e0;fill-rule:nonzero;"/><path d="M239.53,134.929c0.297,0.2 -0.028,0.128 -0.606,-0.135c0.106,0 0.205,0.013 0.325,0.042c0.098,0.028 0.19,0.058 0.281,0.093" style="fill:#f8d5e0;fill-rule:nonzero;"/><path d="M239.53,134.929c-0.091,-0.035 -0.183,-0.065 -0.281,-0.093c-0.12,-0.029 -0.219,-0.042 -0.325,-0.042l-0.006,0c-0.022,-0.015 -0.05,-0.029 -0.078,-0.037c0.197,-0.042 0.387,-0.021 0.557,0.079c0.056,0.036 0.099,0.065 0.133,0.093" style="fill:#f8d5e0;fill-rule:nonzero;"/><path d="M238.84,134.757c0.028,0.007 0.056,0.022 0.078,0.036c-0.113,0 -0.219,0.014 -0.318,0.058c0.078,-0.05 0.156,-0.079 0.24,-0.094" style="fill:#f8d5e0;fill-rule:nonzero;"/><path d="M238.6,134.851c-0.24,0.106 -0.458,0.306 -0.578,0.549c0.092,-0.257 0.296,-0.464 0.578,-0.549" style="fill:#f8d5e0;fill-rule:nonzero;"/><path d="M238.009,135.422c-0.149,0.378 -0.071,0.849 0.288,1.17c-0.43,-0.385 -0.458,-0.82 -0.288,-1.17" style="fill:#f8d5e0;fill-rule:nonzero;"/><path d="M227.866,126.4c0.634,1.535 1.938,3.362 -0.973,3.897c-4.835,1.099 -4.257,7.929 -11.009,6.808c-4.983,-0.827 -7.914,-8.121 -6.343,-12.846c2.622,-7.879 14.921,-3.903 18.325,2.141" style="fill:#f8d5e0;fill-rule:nonzero;"/><path d="M201.789,165.639c4.827,5.581 7.83,13.01 19.734,11.418c-12.884,4.076 -39.737,1.778 -41.851,-10.184c-0.007,-0.021 -0.007,-0.049 -0.014,-0.071c-0.064,-0.735 0.296,-1.47 0.944,-1.791c0.261,-0.121 0.543,-0.186 0.846,-0.179c0.367,0.008 0.712,0.193 0.973,0.465c5.378,5.481 11.727,10.469 22.187,11.047c0.352,-2.155 -6.702,-6.345 -4.934,-9.991c0.684,-1.428 1.565,-1.428 2.115,-0.714" style="fill:#333;fill-rule:nonzero;"/><path d="M201.112,204.55c2.206,2.99 4.539,4.19 4.292,9.777c-0.035,0.807 -0.479,1.542 -1.156,1.963c-2.305,1.456 -4.44,2.476 -6.639,3.961c-1.036,0.699 -1.614,1.913 -1.572,3.169c0.099,2.804 1.234,4.553 2.228,6.444c1.768,-1.541 5.469,-0.677 6.42,-3.047c1.375,6.066 -14.78,9.392 -15.547,0.399c-0.029,-0.278 0.324,-0.413 0.492,-0.2c1.178,1.485 2.728,2.584 4.406,3.562c2.149,-1.677 -1.121,-5.26 0.282,-7.372c0.127,-0.2 -0.021,-0.464 -0.254,-0.493c-3.545,-0.414 -3.736,-6.452 -5.906,-7.194c-0.754,-0.256 -1.438,-0.728 -1.777,-1.455c-0.852,-1.828 0.134,-3.526 0.67,-4.861c0.247,-0.606 0.705,-1.106 1.304,-1.363c4.335,-1.906 3.369,-5.131 10.46,-4.546c0.901,0.071 1.754,0.514 2.297,1.256" style="fill:#333;fill-rule:nonzero;"/><path d="M150.381,186.701c0.198,2.712 -0.395,4.61 -2.855,4.631c-5.955,-0.735 -1.219,-9.685 2.595,-5.274c0.155,0.179 0.239,0.407 0.26,0.643" style="fill:#333;fill-rule:nonzero;"/><path d="M93.856,183.189c0.409,0.472 -0.07,1.164 -0.662,0.971c-5.934,-1.906 -12.623,4.71 -9.868,11.083c1.283,0.507 2.742,0.835 3.87,1.492c2.438,1.42 0.303,5.274 -2.171,3.925c-9.176,-5.031 0.931,-26.492 8.831,-17.471" style="fill:#333;fill-rule:nonzero;"/></g><path d="M158.409,210.769c0,2.737 -2.404,4.956 -5.371,4.956c-2.967,0 -5.371,-2.219 -5.371,-4.956c0,-2.738 2.404,-4.956 5.371,-4.956c2.967,0 5.371,2.218 5.371,4.956" style="fill:#f8d5e0;fill-rule:nonzero;"/><path d="M254.513,210.769c0,2.737 -2.405,4.956 -5.371,4.956c-2.967,0 -5.372,-2.219 -5.372,-4.956c0,-2.738 2.405,-4.956 5.372,-4.956c2.966,0 5.371,2.218 5.371,4.956" style="fill:#f8d5e0;fill-rule:nonzero;"/><path d="M118.216,308.312c-0.824,0.371 -1.623,0.86 -2.396,1.468c-0.774,0.609 -1.556,1.274 -2.346,1.997c-0.791,0.724 -1.61,1.486 -2.459,2.289c-0.85,0.802 -1.766,1.549 -2.75,2.239c-0.983,0.691 -2.055,1.351 -3.216,1.979c-1.16,0.629 -2.442,1.18 -3.846,1.654c-1.404,0.473 -2.951,0.849 -4.641,1.129c-1.69,0.279 -3.561,0.419 -5.612,0.419c-2.27,0 -4.317,-0.458 -6.142,-1.373c-1.824,-0.916 -3.384,-2.151 -4.679,-3.705c-1.294,-1.553 -2.291,-3.359 -2.988,-5.417c-0.698,-2.057 -1.047,-4.22 -1.047,-6.488c0,-1.577 0.168,-3.27 0.504,-5.079c0.337,-1.809 0.82,-3.652 1.451,-5.53c0.63,-1.877 1.399,-3.75 2.307,-5.619c0.908,-1.869 1.938,-3.66 3.09,-5.375c1.152,-1.714 2.417,-3.305 3.796,-4.771c1.379,-1.466 2.85,-2.743 4.414,-3.832c1.564,-1.088 3.212,-1.941 4.944,-2.558c1.732,-0.618 3.531,-0.926 5.397,-0.926c1.211,0 2.439,0.217 3.683,0.651c1.244,0.434 2.363,1.102 3.355,2.005c0.992,0.902 1.803,2.043 2.434,3.422c0.63,1.38 0.945,3.006 0.945,4.879c0,1.26 -0.197,2.533 -0.592,3.818c-0.395,1.286 -0.938,2.52 -1.627,3.703c-0.69,1.184 -1.501,2.295 -2.434,3.334c-0.933,1.038 -1.938,1.936 -3.014,2.694c-1.076,0.758 -2.195,1.358 -3.355,1.801c-1.16,0.442 -2.32,0.664 -3.481,0.664c-1.53,0 -2.673,-0.209 -3.43,-0.626c-0.757,-0.417 -1.135,-1.017 -1.135,-1.801c0,-0.136 -0.004,-0.298 -0.013,-0.485c-0.008,-0.187 -0.012,-0.383 -0.012,-0.587c0,-0.307 0.017,-0.626 0.05,-0.958c0.034,-0.332 0.101,-0.634 0.202,-0.907c0.101,-0.272 0.248,-0.494 0.442,-0.664c0.193,-0.17 0.458,-0.255 0.794,-0.255c0.202,0 0.378,0.03 0.53,0.089c0.151,0.06 0.319,0.124 0.504,0.192c0.185,0.068 0.408,0.132 0.669,0.191c0.26,0.06 0.592,0.09 0.996,0.09c1.076,0 2.165,-0.239 3.266,-0.715c1.102,-0.477 2.094,-1.15 2.976,-2.018c0.883,-0.869 1.606,-1.903 2.17,-3.103c0.563,-1.201 0.845,-2.525 0.845,-3.972c0,-0.766 -0.101,-1.494 -0.303,-2.184c-0.202,-0.689 -0.53,-1.294 -0.984,-1.813c-0.454,-0.519 -1.038,-0.937 -1.753,-1.252c-0.714,-0.315 -1.585,-0.472 -2.61,-0.472c-1.211,0 -2.392,0.27 -3.544,0.811c-1.152,0.541 -2.258,1.276 -3.317,2.203c-1.059,0.927 -2.064,2.026 -3.014,3.297c-0.95,1.271 -1.829,2.632 -2.636,4.083c-0.807,1.451 -1.534,2.962 -2.182,4.534c-0.647,1.571 -1.198,3.138 -1.652,4.701c-0.454,1.563 -0.803,3.079 -1.046,4.547c-0.244,1.468 -0.366,2.821 -0.366,4.057c0,1.817 0.214,3.4 0.643,4.749c0.429,1.349 1.038,2.473 1.829,3.372c0.79,0.9 1.757,1.57 2.9,2.011c1.144,0.441 2.43,0.661 3.859,0.661c1.783,0 3.443,-0.233 4.982,-0.701c1.538,-0.467 3.006,-1.08 4.401,-1.838c1.396,-0.759 2.745,-1.614 4.049,-2.566c1.303,-0.953 2.606,-1.909 3.909,-2.87c1.303,-0.962 2.632,-1.879 3.985,-2.752c1.354,-0.872 2.787,-1.609 4.301,-2.208l0,5.687Z" style="fill:#333;fill-rule:nonzero;"/><path d="M130.449,296.89c0.487,0.987 0.853,2.03 1.097,3.129c0.244,1.098 0.366,2.337 0.366,3.716c0,1.004 -0.11,2.018 -0.328,3.039c-0.219,1.022 -0.534,2.009 -0.946,2.963c-0.412,0.953 -0.917,1.847 -1.514,2.682c-0.596,0.834 -1.277,1.558 -2.043,2.171c-0.765,0.613 -1.601,1.098 -2.509,1.456c-0.908,0.357 -1.875,0.536 -2.901,0.536c-1.48,0 -2.745,-0.328 -3.796,-0.983c-1.051,-0.656 -1.913,-1.512 -2.585,-2.567c-0.673,-1.056 -1.165,-2.248 -1.476,-3.576c-0.311,-1.328 -0.466,-2.673 -0.466,-4.035c0,-2.248 0.277,-4.185 0.832,-5.811c0.555,-1.626 1.349,-3.039 2.384,-4.24c1.034,-1.2 2.299,-2.145 3.796,-2.835c1.496,-0.689 3.178,-1.034 5.044,-1.034c1.598,0 3.094,0.251 4.49,0.753c1.395,0.503 2.703,1.175 3.922,2.018c1.219,0.843 2.354,1.903 3.405,3.18c1.051,1.277 2.03,2.494 2.938,3.652l-0.479,3.601c-0.454,-0.613 -1.068,-1.277 -1.841,-1.992c-0.774,-0.715 -1.593,-1.507 -2.459,-2.375c-0.866,-0.868 -1.72,-1.605 -2.56,-2.209c-0.841,-0.605 -1.564,-1.111 -2.17,-1.52l-0.201,0.281Zm-7.794,14.788c0.572,0 1.126,-0.294 1.665,-0.881c0.538,-0.588 1.008,-1.328 1.412,-2.222c0.404,-0.894 0.727,-1.975 0.971,-3.244c0.244,-1.268 0.366,-2.396 0.366,-3.384c0,-0.783 -0.059,-1.511 -0.177,-2.184c-0.117,-0.672 -0.294,-1.256 -0.529,-1.749c-0.236,-0.494 -0.538,-0.886 -0.908,-1.175c-0.37,-0.29 -0.816,-0.434 -1.337,-0.434c-0.69,0 -1.345,0.298 -1.968,0.894c-0.622,0.596 -1.168,1.357 -1.639,2.285c-0.471,0.928 -0.841,1.954 -1.11,3.078c-0.269,1.124 -0.403,2.392 -0.403,3.806c0,0.715 0.067,1.387 0.201,2.017c0.135,0.63 0.345,1.18 0.631,1.648c0.286,0.468 0.664,0.843 1.135,1.124c0.471,0.281 1.034,0.421 1.69,0.421l0,0Z" style="fill:#333;fill-rule:nonzero;"/><path d="M163.185,310.253c-0.386,0.551 -0.903,1.196 -1.551,1.937c-0.647,0.74 -1.374,1.446 -2.182,2.118c-0.807,0.671 -1.673,1.239 -2.598,1.704c-0.924,0.465 -1.849,0.698 -2.774,0.698c-1.117,0 -2.048,-0.359 -2.794,-1.075c-0.746,-0.716 -1.39,-1.757 -1.933,-3.122c-0.407,0.472 -0.907,0.952 -1.5,1.441c-0.593,0.488 -1.241,0.931 -1.945,1.327c-0.703,0.396 -1.436,0.72 -2.199,0.973c-0.763,0.253 -1.526,0.379 -2.288,0.379c-0.808,0 -1.594,-0.168 -2.359,-0.502c-0.765,-0.335 -1.442,-0.816 -2.03,-1.443c-0.589,-0.627 -1.06,-1.392 -1.413,-2.294c-0.353,-0.902 -0.529,-1.919 -0.529,-3.053c0,-1.272 0.177,-2.579 0.532,-3.919c0.356,-1.341 0.905,-2.791 1.65,-4.352c0.744,-1.561 1.543,-2.91 2.398,-4.047c0.854,-1.137 1.788,-2.13 2.803,-2.978c1.015,-0.848 2.085,-1.523 3.21,-2.023c1.125,-0.501 2.271,-0.751 3.438,-0.751c0.389,0 0.694,0.077 0.913,0.232c0.22,0.155 0.402,0.331 0.546,0.529c0.144,0.198 0.283,0.392 0.418,0.581c0.136,0.189 0.305,0.327 0.508,0.413c0.203,0.086 0.41,0.142 0.622,0.168c0.211,0.025 0.427,0.038 0.647,0.038c0.186,0 0.376,-0.004 0.571,-0.013c0.194,-0.008 0.384,-0.013 0.57,-0.013c0.254,0 0.491,0.026 0.711,0.078c0.22,0.051 0.414,0.163 0.583,0.335c0.169,0.173 0.299,0.414 0.392,0.723c0.092,0.31 0.138,0.731 0.138,1.265c0,0.814 -0.084,1.717 -0.252,2.709c-0.168,0.992 -0.361,2.008 -0.578,3.049c-0.217,1.041 -0.464,2.228 -0.742,3.561c-0.277,1.332 -0.416,2.455 -0.416,3.368c0,0.78 0.072,1.39 0.214,1.83c0.143,0.44 0.45,0.66 0.921,0.66c0.353,0 0.723,-0.088 1.11,-0.266c0.387,-0.177 0.778,-0.409 1.173,-0.696c0.395,-0.287 0.79,-0.612 1.185,-0.975c0.395,-0.363 0.769,-0.738 1.123,-1.127c0.824,-0.911 1.656,-1.941 2.497,-3.088l1.21,5.621Zm-21.638,-2.001c0,0.439 0.029,0.865 0.088,1.278c0.059,0.412 0.164,0.781 0.316,1.106c0.152,0.325 0.354,0.588 0.606,0.79c0.253,0.202 0.573,0.303 0.96,0.303c0.623,0 1.188,-0.274 1.693,-0.823c0.505,-0.548 0.943,-1.208 1.314,-1.98c0.371,-0.771 0.67,-1.568 0.897,-2.391c0.227,-0.823 0.375,-1.508 0.442,-2.057l1.881,-8.303c-0.689,0 -1.362,0.173 -2.018,0.519c-0.656,0.346 -1.274,0.814 -1.854,1.405c-0.58,0.591 -1.114,1.266 -1.601,2.025c-0.488,0.76 -0.967,1.697 -1.438,2.811c-0.471,1.114 -0.803,2.093 -0.996,2.937c-0.194,0.844 -0.29,1.637 -0.29,2.38l0,0Z" style="fill:#333;fill-rule:nonzero;"/><path d="M166.771,316.582c-0.905,0 -1.747,-0.398 -2.526,-1.194c-0.779,-0.797 -1.457,-1.865 -2.035,-3.206c-0.578,-1.34 -1.03,-2.895 -1.357,-4.663c-0.327,-1.768 -0.49,-3.624 -0.49,-5.568c0,-1.671 0.242,-3.902 0.727,-6.692c0.485,-2.79 0.728,-4.185 0.728,-4.184c-0.001,0 0.367,-1.393 1.101,-4.18c0.735,-2.787 1.472,-5.021 2.21,-6.704c0.739,-1.683 1.542,-3.256 2.408,-4.719c0.866,-1.462 1.775,-2.736 2.726,-3.823c0.951,-1.086 1.944,-1.94 2.98,-2.561c1.037,-0.621 2.09,-0.932 3.159,-0.932c0.779,0 1.422,0.151 1.929,0.452c0.507,0.301 0.905,0.698 1.195,1.192c0.29,0.494 0.494,1.053 0.611,1.678c0.118,0.625 0.177,1.261 0.177,1.91c0,1.609 -0.188,3.249 -0.564,4.918c-0.376,1.669 -0.883,3.347 -1.521,5.034c-0.638,1.686 -1.377,3.377 -2.216,5.072c-0.839,1.695 -1.713,3.378 -2.622,5.047c-0.909,1.67 -1.823,3.313 -2.741,4.931c-0.918,1.618 -1.765,3.2 -2.541,4.745c-0.084,0.172 -0.173,0.395 -0.265,0.67c-0.093,0.275 -0.182,0.571 -0.266,0.889c-0.084,0.317 -0.169,0.657 -0.253,1.017c-0.084,0.361 -0.152,0.713 -0.203,1.056l0,0.361c0,0.446 0.047,0.88 0.14,1.3c0.092,0.421 0.206,0.799 0.341,1.134c0.135,0.335 0.279,0.601 0.43,0.798c0.152,0.198 0.296,0.296 0.431,0.296c0.327,0 0.701,-0.068 1.123,-0.206c0.422,-0.137 0.869,-0.322 1.343,-0.553c0.473,-0.232 0.96,-0.498 1.459,-0.799c0.499,-0.3 0.982,-0.605 1.447,-0.914c1.084,-0.721 2.221,-1.554 3.409,-2.498l2.227,5.383c-1.542,1.036 -3.065,1.959 -4.572,2.768c-0.658,0.34 -1.337,0.676 -2.039,1.008c-0.701,0.332 -1.406,0.628 -2.117,0.887c-0.71,0.259 -1.402,0.465 -2.077,0.619c-0.676,0.154 -1.308,0.231 -1.896,0.231l0,0Zm0.024,-20.246c0.759,-1.374 1.564,-2.919 2.416,-4.636c0.852,-1.718 1.657,-3.486 2.417,-5.306c0.759,-1.821 1.417,-3.636 1.973,-5.448c0.557,-1.812 0.911,-3.499 1.063,-5.061c0,-0.498 -0.012,-0.923 -0.036,-1.275c-0.024,-0.352 -0.099,-0.528 -0.227,-0.528c-0.462,0 -0.96,0.323 -1.494,0.97c-0.533,0.647 -1.067,1.522 -1.601,2.626c-0.534,1.104 -1.171,2.9 -1.912,5.387c-0.742,2.487 -1.112,3.731 -1.112,3.731c0,0.001 -0.227,1.155 -0.679,3.462c-0.452,2.307 -0.722,4.333 -0.808,6.078Z" style="fill:#333;fill-rule:nonzero;"/><path d="M201.221,310.253c-0.387,0.551 -0.904,1.196 -1.551,1.937c-0.647,0.74 -1.375,1.446 -2.182,2.118c-0.807,0.671 -1.673,1.239 -2.598,1.704c-0.925,0.465 -1.849,0.698 -2.774,0.698c-1.117,0 -2.049,-0.359 -2.794,-1.075c-0.746,-0.716 -1.39,-1.757 -1.933,-3.122c-0.407,0.472 -0.907,0.952 -1.5,1.441c-0.593,0.488 -1.242,0.931 -1.945,1.327c-0.703,0.396 -1.436,0.72 -2.199,0.973c-0.763,0.253 -1.526,0.379 -2.289,0.379c-0.807,0 -1.593,-0.168 -2.358,-0.502c-0.765,-0.335 -1.442,-0.816 -2.03,-1.443c-0.589,-0.627 -1.06,-1.392 -1.413,-2.294c-0.353,-0.902 -0.53,-1.919 -0.53,-3.053c0,-1.272 0.178,-2.579 0.533,-3.919c0.355,-1.341 0.905,-2.791 1.65,-4.352c0.744,-1.561 1.543,-2.91 2.397,-4.047c0.854,-1.137 1.789,-2.13 2.804,-2.978c1.015,-0.848 2.085,-1.523 3.21,-2.023c1.125,-0.501 2.271,-0.751 3.438,-0.751c0.389,0 0.693,0.077 0.913,0.232c0.22,0.155 0.402,0.331 0.546,0.529c0.143,0.198 0.283,0.392 0.418,0.581c0.136,0.189 0.305,0.327 0.508,0.413c0.203,0.086 0.41,0.142 0.621,0.168c0.212,0.025 0.428,0.038 0.647,0.038c0.186,0 0.377,-0.004 0.571,-0.013c0.195,-0.008 0.385,-0.013 0.571,-0.013c0.254,0 0.491,0.026 0.711,0.078c0.22,0.051 0.414,0.163 0.583,0.335c0.168,0.173 0.299,0.414 0.391,0.723c0.093,0.31 0.139,0.731 0.139,1.265c0,0.814 -0.084,1.717 -0.252,2.709c-0.168,0.992 -0.361,2.008 -0.578,3.049c-0.217,1.041 -0.464,2.228 -0.742,3.561c-0.277,1.332 -0.416,2.455 -0.416,3.368c0,0.78 0.071,1.39 0.214,1.83c0.143,0.44 0.45,0.66 0.921,0.66c0.353,0 0.723,-0.088 1.11,-0.266c0.386,-0.177 0.777,-0.409 1.173,-0.696c0.395,-0.287 0.79,-0.612 1.185,-0.975c0.395,-0.363 0.769,-0.738 1.122,-1.127c0.824,-0.911 1.657,-1.941 2.497,-3.088l1.211,5.621Zm-21.639,-2.001c0,0.439 0.03,0.865 0.089,1.278c0.059,0.412 0.164,0.781 0.316,1.106c0.151,0.325 0.354,0.588 0.606,0.79c0.253,0.202 0.573,0.303 0.96,0.303c0.623,0 1.187,-0.274 1.693,-0.823c0.505,-0.548 0.943,-1.208 1.314,-1.98c0.37,-0.771 0.669,-1.568 0.897,-2.391c0.227,-0.823 0.374,-1.508 0.442,-2.057l1.881,-8.303c-0.69,0 -1.362,0.173 -2.018,0.519c-0.656,0.346 -1.274,0.814 -1.854,1.405c-0.58,0.591 -1.114,1.266 -1.602,2.025c-0.487,0.76 -0.966,1.697 -1.437,2.811c-0.471,1.114 -0.803,2.093 -0.996,2.937c-0.194,0.844 -0.291,1.637 -0.291,2.38l0,0Z" style="fill:#333;fill-rule:nonzero;"/><path d="M223.475,272.243c2.75,0 5.196,0.229 7.339,0.687c2.142,0.458 4.019,1.094 5.63,1.908c1.611,0.815 2.973,1.786 4.086,2.914c1.114,1.128 2.016,2.358 2.708,3.689c0.692,1.332 1.194,2.744 1.506,4.237c0.312,1.492 0.468,3.019 0.468,4.58c0,2.15 -0.236,4.48 -0.709,6.989c-0.472,2.509 -1.155,4.796 -2.049,6.861c-0.894,2.065 -1.995,4.003 -3.302,5.812c-1.307,1.809 -2.804,3.388 -4.491,4.736c-1.687,1.348 -3.542,2.411 -5.567,3.187c-2.024,0.777 -4.208,1.165 -6.553,1.165c-0.782,0 -1.582,-0.061 -2.397,-0.182c-0.816,-0.122 -1.607,-0.287 -2.373,-0.496c-0.766,-0.209 -1.49,-0.443 -2.173,-0.704c-0.682,-0.261 -1.282,-0.53 -1.798,-0.809c-0.216,-0.069 -0.387,-0.152 -0.512,-0.248c-0.125,-0.095 -0.22,-0.208 -0.287,-0.339c-0.066,-0.13 -0.108,-0.291 -0.125,-0.482c-0.016,-0.191 -0.025,-0.435 -0.025,-0.73c0,-2.825 0.071,-5.717 0.211,-8.677c0.141,-2.961 0.428,-6.002 0.861,-9.124c0.432,-3.122 1.057,-5.878 1.873,-8.268c0.815,-2.391 1.897,-4.598 3.246,-6.623c0.333,-0.493 1.406,-0.74 3.221,-0.74c1.431,0 2.458,0.527 3.081,1.581c-0.774,1.055 -1.423,2.228 -1.944,3.52c-0.522,1.292 -0.96,2.563 -1.314,3.813c-0.353,1.25 -0.648,2.614 -0.884,4.094c-0.454,2.856 -0.673,4.301 -0.656,4.335c0.05,0.034 -0.144,1.667 -0.581,4.897c-0.169,1.122 -0.299,2.1 -0.392,2.933c-0.092,0.833 -0.16,1.564 -0.202,2.194c-0.042,0.629 -0.063,1.241 -0.063,1.836c0,0.629 0.021,1.156 0.063,1.581c0.042,0.425 0.143,0.765 0.303,1.02c0.16,0.255 0.404,0.438 0.733,0.549c0.328,0.11 0.77,0.165 1.326,0.165c1.683,0 3.283,-0.335 4.798,-1.007c1.515,-0.672 2.913,-1.573 4.192,-2.704c1.28,-1.13 2.429,-2.444 3.448,-3.94c1.018,-1.496 1.885,-3.226 2.601,-5.19c0.715,-1.964 1.267,-3.809 1.654,-5.535c0.387,-1.725 0.581,-3.387 0.581,-4.986c0,-1.972 -0.32,-3.736 -0.96,-5.292c-0.639,-1.556 -1.536,-2.874 -2.689,-3.953c-1.154,-1.08 -2.539,-1.905 -4.155,-2.474c-1.616,-0.57 -3.392,-0.855 -5.329,-0.855c-1.414,0 -2.814,0.086 -4.202,0.257c-1.387,0.171 -2.674,0.436 -3.859,0.796c-1.186,0.359 -2.228,0.817 -3.128,1.373c-0.899,0.556 -1.576,1.219 -2.03,1.989c-1.228,1.933 -2.237,3.426 -3.027,4.479c-0.79,1.052 -1.454,1.578 -1.992,1.578c-0.74,0 -1.11,-0.86 -1.11,-2.579c0,-1.669 0.214,-3.167 0.643,-4.496c0.429,-1.328 1.026,-2.507 1.791,-3.537c0.765,-1.03 1.673,-1.907 2.724,-2.631c1.051,-0.723 2.203,-1.319 3.455,-1.788c1.253,-0.468 2.586,-0.813 3.998,-1.034c1.413,-0.221 2.859,-0.332 4.338,-0.332l0,0Z" style="fill:#333;fill-rule:nonzero;"/><path d="M263.776,296.89c0.487,0.987 0.853,2.03 1.097,3.129c0.244,1.098 0.366,2.337 0.366,3.716c0,1.004 -0.11,2.018 -0.328,3.039c-0.219,1.022 -0.534,2.009 -0.946,2.963c-0.412,0.953 -0.917,1.847 -1.513,2.682c-0.597,0.834 -1.278,1.558 -2.043,2.171c-0.766,0.613 -1.602,1.098 -2.51,1.456c-0.908,0.357 -1.875,0.536 -2.901,0.536c-1.479,0 -2.745,-0.328 -3.796,-0.983c-1.051,-0.656 -1.912,-1.512 -2.585,-2.567c-0.673,-1.056 -1.165,-2.248 -1.476,-3.576c-0.311,-1.328 -0.466,-2.673 -0.466,-4.035c0,-2.248 0.277,-4.185 0.832,-5.811c0.555,-1.626 1.35,-3.039 2.384,-4.24c1.034,-1.2 2.299,-2.145 3.796,-2.835c1.496,-0.689 3.178,-1.034 5.044,-1.034c1.598,0 3.094,0.251 4.49,0.753c1.396,0.503 2.703,1.175 3.922,2.018c1.219,0.843 2.354,1.903 3.405,3.18c1.051,1.277 2.03,2.494 2.938,3.652l-0.479,3.601c-0.454,-0.613 -1.068,-1.277 -1.841,-1.992c-0.773,-0.715 -1.593,-1.507 -2.459,-2.375c-0.866,-0.868 -1.72,-1.605 -2.56,-2.209c-0.841,-0.605 -1.564,-1.111 -2.169,-1.52l-0.202,0.281l0,0Zm-7.794,14.788c0.572,0 1.127,-0.294 1.665,-0.881c0.538,-0.588 1.009,-1.328 1.412,-2.222c0.404,-0.894 0.727,-1.975 0.971,-3.244c0.244,-1.268 0.366,-2.396 0.366,-3.384c0,-0.783 -0.059,-1.511 -0.177,-2.184c-0.117,-0.672 -0.294,-1.256 -0.529,-1.749c-0.236,-0.494 -0.538,-0.886 -0.908,-1.175c-0.37,-0.29 -0.816,-0.434 -1.337,-0.434c-0.69,0 -1.345,0.298 -1.968,0.894c-0.622,0.596 -1.168,1.357 -1.639,2.285c-0.471,0.928 -0.841,1.954 -1.11,3.078c-0.269,1.124 -0.403,2.392 -0.403,3.806c0,0.715 0.067,1.387 0.201,2.017c0.135,0.63 0.345,1.18 0.631,1.648c0.286,0.468 0.664,0.843 1.135,1.124c0.471,0.281 1.034,0.421 1.69,0.421l0,0Z" style="fill:#333;fill-rule:nonzero;"/><path d="M277.887,316.582c-1.557,0 -2.924,-0.29 -4.1,-0.869c-1.177,-0.578 -2.163,-1.353 -2.958,-2.324c-0.796,-0.97 -1.397,-2.094 -1.803,-3.371c-0.406,-1.277 -0.609,-2.605 -0.609,-3.984c0,-0.988 0.169,-2.171 0.507,-3.551c0.338,-1.379 0.705,-2.584 1.103,-3.614c0.397,-1.03 0.887,-2.013 1.47,-2.95c0.583,-0.936 1.26,-1.758 2.029,-2.464c0.769,-0.707 1.627,-1.269 2.573,-1.686c0.947,-0.417 1.987,-0.626 3.119,-0.626c1.02,0 1.963,0.149 2.831,0.447c0.868,0.298 1.611,0.711 2.228,1.239c0.617,0.528 1.1,1.153 1.449,1.877c0.349,0.724 0.523,1.503 0.523,2.337c0,0.579 -0.082,1.149 -0.246,1.711c-0.163,0.562 -0.482,1.222 -0.955,1.98c-0.473,0.758 -0.932,1.273 -1.378,1.545c-0.446,0.272 -0.951,0.409 -1.515,0.409c-0.85,0 -1.4,-0.213 -1.648,-0.639c-0.407,-0.664 -0.536,-1.251 -0.385,-1.762c0.05,-0.273 0.201,-0.903 0.452,-1.89c0.034,-0.136 0.042,-0.443 0.025,-0.92c0,-0.408 -0.042,-0.749 -0.125,-1.021c-0.084,-0.273 -0.268,-0.409 -0.553,-0.409c-0.686,0 -1.272,0.166 -1.758,0.498c-0.485,0.332 -0.9,0.766 -1.243,1.303c-0.343,0.536 -0.682,1.294 -1.017,2.273c-0.335,0.979 -0.573,1.8 -0.715,2.465c-0.143,0.664 -0.231,1.298 -0.264,1.902c-0.034,0.605 -0.05,1.111 -0.05,1.52c0,0.613 0.054,1.251 0.163,1.916c0.109,0.664 0.326,1.272 0.653,1.826c0.326,0.553 0.749,1.013 1.268,1.379c0.519,0.366 1.189,0.549 2.009,0.549c0.807,0 1.698,-0.251 2.674,-0.753c0.975,-0.503 1.954,-1.137 2.938,-1.903c0.984,-0.766 1.921,-1.609 2.812,-2.529c0.891,-0.919 1.657,-1.788 2.296,-2.605l1.74,2.963c-1.261,1.822 -2.623,3.448 -4.086,4.878c-0.622,0.613 -1.299,1.209 -2.031,1.788c-0.731,0.579 -1.496,1.094 -2.295,1.545c-0.799,0.451 -1.631,0.818 -2.497,1.098c-0.866,0.281 -1.743,0.422 -2.631,0.422l0,0Z" style="fill:#333;fill-rule:nonzero;"/><path d="M297.511,316.582c-1.57,0 -2.944,-0.295 -4.121,-0.884c-1.178,-0.589 -2.159,-1.382 -2.944,-2.379c-0.785,-0.996 -1.374,-2.149 -1.767,-3.457c-0.392,-1.309 -0.589,-2.682 -0.589,-4.121c0,-0.941 0.176,-2.063 0.527,-3.365c0.352,-1.303 0.715,-2.458 1.092,-3.466c0.376,-1.009 0.848,-1.971 1.417,-2.887c0.569,-0.916 1.234,-1.722 1.995,-2.42c0.761,-0.697 1.614,-1.252 2.558,-1.663c0.945,-0.412 1.995,-0.618 3.149,-0.618c0.942,0 1.818,0.153 2.626,0.459c0.808,0.306 1.511,0.736 2.108,1.288c0.598,0.553 1.065,1.221 1.402,2.003c0.336,0.782 0.505,1.658 0.505,2.627c0,1.032 -0.341,2.19 -1.024,3.472c-0.682,1.282 -1.479,2.38 -2.389,3.296c-0.909,0.916 -1.992,1.732 -3.248,2.448c-1.255,0.716 -2.616,1.273 -4.082,1.673c0.254,0.45 0.503,0.824 0.747,1.124c0.245,0.3 0.494,0.533 0.747,0.699c0.253,0.167 0.519,0.283 0.797,0.35c0.279,0.066 0.578,0.1 0.899,0.1c1.009,0 2.073,-0.2 3.191,-0.6c1.118,-0.399 2.207,-0.899 3.266,-1.498c1.06,-0.6 2.06,-1.253 3.002,-1.961c0.941,-0.707 1.74,-1.377 2.396,-2.01l3.254,3.347c-1.48,1.595 -3.052,3.007 -4.717,4.234c-0.723,0.526 -1.501,1.044 -2.333,1.552c-0.832,0.509 -1.707,0.96 -2.623,1.355c-0.917,0.394 -1.867,0.71 -2.85,0.947c-0.984,0.236 -1.981,0.355 -2.991,0.355Zm-3.367,-12.165c0.608,0 1.27,-0.154 1.987,-0.462c0.718,-0.308 1.384,-0.703 2,-1.186c0.617,-0.483 1.22,-1.132 1.811,-1.948c0.59,-0.816 0.886,-1.49 0.886,-2.023c0,-0.749 -0.139,-1.365 -0.418,-1.848c-0.278,-0.483 -0.62,-0.724 -1.025,-0.724c-0.726,0 -1.346,0.133 -1.861,0.4c-0.515,0.266 -0.945,0.611 -1.291,1.036c-0.346,0.424 -0.625,0.907 -0.836,1.448c-0.211,0.541 -0.456,1.212 -0.734,2.011c-0.279,0.799 -0.435,1.456 -0.468,1.973c-0.034,0.516 -0.051,0.957 -0.051,1.323l0,0Z" style="fill:#333;fill-rule:nonzero;"/><path d="M307.34,306.942c0.942,-0.826 1.707,-1.514 2.296,-2.065c0.588,-0.551 1.177,-1.192 1.765,-1.923c0.589,-0.732 1.055,-1.33 1.4,-1.795c0.345,-0.465 0.753,-1.015 1.223,-1.652c0.471,-0.637 1.043,-1.416 1.716,-2.337c0.672,-0.92 1.547,-2.069 2.623,-3.446c0.218,-0.31 0.462,-0.611 0.731,-0.904c0.269,-0.293 0.568,-0.555 0.896,-0.787c0.328,-0.233 0.689,-0.422 1.084,-0.568c0.395,-0.146 0.837,-0.22 1.324,-0.22c0.808,0 1.431,0.091 1.868,0.272c0.437,0.18 0.757,0.4 0.959,0.658c0.201,0.258 0.319,0.529 0.353,0.813c0.033,0.284 0.05,0.529 0.05,0.736c0,0.413 -0.16,0.869 -0.479,1.368c-0.32,0.499 -0.673,0.981 -1.06,1.446c-0.386,0.465 -0.752,0.891 -1.097,1.278c-0.344,0.387 -0.542,0.676 -0.594,0.865c0,0.533 0.039,1.02 0.116,1.458c0.077,0.439 0.18,0.869 0.309,1.291c0.129,0.422 0.262,0.869 0.399,1.343c0.137,0.473 0.268,1.019 0.395,1.639c0.126,0.62 0.142,1.472 0.05,2.556c-0.092,1.085 -0.139,2.178 -0.139,3.279c0.606,-0.413 1.257,-0.788 1.955,-1.123c0.698,-0.336 1.425,-0.684 2.182,-1.046c0.756,-0.361 1.534,-0.761 2.333,-1.2c0.799,-0.439 1.602,-0.968 2.409,-1.588l0.025,5.783c-1.043,0.788 -2.249,1.527 -3.62,2.217c-1.37,0.689 -2.811,1.297 -4.323,1.822c-1.511,0.526 -3.036,0.94 -4.575,1.244c-1.539,0.304 -2.997,0.456 -4.376,0.456c-0.992,0 -1.917,-0.09 -2.775,-0.269c-0.857,-0.179 -1.61,-0.46 -2.257,-0.843c-0.647,-0.383 -1.173,-0.883 -1.577,-1.502c-0.403,-0.619 -0.647,-1.368 -0.731,-2.247c-0.235,0.051 -0.467,0.086 -0.694,0.103c-0.227,0.017 -0.449,0.026 -0.668,0.026c-0.269,0 -0.521,-0.009 -0.757,-0.026c-0.235,-0.017 -0.437,-0.082 -0.605,-0.193c-0.168,-0.112 -0.303,-0.293 -0.404,-0.543c-0.1,-0.249 -0.151,-0.606 -0.151,-1.071c0,-0.413 0.101,-0.796 0.303,-1.149c0.202,-0.353 0.437,-0.667 0.706,-0.942c0.269,-0.276 0.538,-0.517 0.807,-0.723c0.269,-0.207 0.471,-0.37 0.605,-0.491l0,0Zm3.148,3.305c0.202,0 0.425,0.129 0.669,0.387c0.243,0.258 0.525,0.542 0.845,0.852c0.319,0.31 0.689,0.594 1.109,0.852c0.421,0.258 0.9,0.387 1.438,0.387c0.656,0 1.198,-0.112 1.627,-0.335c0.429,-0.224 0.769,-0.521 1.021,-0.891c0.253,-0.37 0.429,-0.8 0.53,-1.291c0.101,-0.49 0.151,-1.002 0.151,-1.536c0,-0.465 -0.029,-0.938 -0.088,-1.42c-0.059,-0.482 -0.05,-1.08 0.025,-1.794c0.076,-0.715 0.059,-1.265 -0.05,-1.653c-0.109,-0.387 -0.206,-0.718 -0.29,-0.994l-6.987,7.436l0,0Z" style="fill:#333;fill-rule:nonzero;"/></g></svg>