<svg xmlns="http://www.w3.org/2000/svg" fill-rule="evenodd" viewBox="0 0 647 324" clip-rule="evenodd"><path fill="#bfd9dc" d="M0 0h647v323.5H0z"/><clipPath id="a"><path d="M213.3 59.92h220.4v141.1H213.3z"/></clipPath><g clip-path="url(#a)"><path fill="#333" d="M342.63 109.78c2.16-.4 1.2-1.72.72-2.85-2.52-4.42-11.64-7.33-13.58-1.57-1.17 3.46 1 8.8 4.7 9.4 5 .83 4.57-4.17 8.16-4.98m81.46 61.57c5.27-7.56 9.74-14.94 8.35-26.12-1.55-12.33-9.1-14.98-16.2-21.4-1.9-1.74-3-4.5-4.7-5.75-4.3-3.14-14.58-4.52-18.8-2.1-.53.1-.82.4-1 .82-.62 1.34-1.76 2.34-3.12 2.92-5.66 2.45-7.88 10.46-15.2 12.46-7 1.92-17.24-1.6-26.63-.53-3.4.4-7.56 2.32-10.45 2.1-7.8-.63-13-6-19.84-5.75-4.52.16-8.13 3.05-12.53 3.13-4.77.1-8.66-3-13.06-3.13-8.68-.25-17.04 4.45-19.3 10.97-5-1.52-2.58-4.53-3.12-8.5-1.2-8.87-9.13-12.55-19.94-12.88-.64-.03-1.28.1-1.88.33-5.1 2.02-10.3 2.8-14.24 6.4-4.74 4.36-11.15 14.5-13.58 21.43-5.28 15.08.4 34.07 12.54 40.73 5.83 3.2 12.84 2.3 21.84 3.42.9.12 1.84-.14 2.52-.75 1.8-1.6 4.54-2.23 6.45-3.72 1.55-1.17-1-3.44 1.03-3.66.8.5 1.48.78 2.06.97 2.5.8 3.03 4.12.92 5.7-1.22.9-2.4 1.77-2.46 3.77-.18 5.7 8.5 8.56 13.02 4.98 1.25-1 2.86-1.45 4.42-1.13 11.1 2.2 21.8-2.34 31.13-.73 6.15 1.06 14.1-2.2 20.9-.52 1.14.3 1.9 1.43 3.12 1.57 3.63.4 7.6-.46 10.92-2.05.75-.36 1.6-.4 2.36-.06 4.26 1.83 10.37 5.58 16.5 4.73 2.35-.33 4.56-3.12 7.3-3.66 4.74-.92 9.84 1.04 13.58-1.57 1.68-1.16 1.96-2.8 2.58-4.37.44-1.13 1.57-1.82 2.76-1.7 17.24 1.66 24.77-6.4 31.75-16.4m9.08-23.15c.73 2.03.66 4.25 0 6.27-1.8 14.05-6.7 22.64-16.72 29.77-3.88 2.76-10.17 5.52-15.14 6.27-1.47.2-3.57-.47-5.22 0-1.74.47-2.08 1.83-3.66 2.6-1.06.52-2.2 0-3.65.52-2.45.87-4.6 3.3-6.28 3.66-3.36.7-7.3-.58-10.45 0-4.62.84-7.9 3.76-12.54 3.65-4.4-.1-7.43-1.53-11.4-3.4-.96-.46-2.08-.48-3.07-.06-5.27 2.28-10.62.47-16.86-.2-5.77-.6-12.5 2.13-20.36 2.62-7.44.45-21.5-3.1-30.3-1.58-3.6.63-6.54 3.25-9.92 2.6-4.9-.9-7.7-7.74-6.27-12-20.14 10.08-43.22-3.9-46.48-20.37-.36-1.85.23-4.1 0-6.26-.27-2.58-1.5-5.05-1.56-7.33-.2-6.65 3.17-14.5 6.8-20.37 2.78-4.5 6.08-10.14 9.4-13.04 8.82-7.72 28.3-7.66 36.93 1.22.77.8 1.3 1.8 1.53 2.88.4 1.8.74 3.6 1.23 5.3 4.9-1.4 10.93-5.15 18.8-4.2-.62-7.6 2.83-14.63 10.96-15.13-1.4-3.75-6.72-7.35-7.32-12-2.72-21.23 14.4-38.3 33.43-39.7h8.35c9.5.6 16.1 4.1 18.3 12 19.25-10.74 43.3-2.8 43.33 19.33 0 5.14-1.12 15.5-4.7 19.85-3.2 3.9-10.55 6.87-16.7 8.9-.44 1.35 1.15 4.56.5 7.8 5.1-2.94 8.86-6.25 13.07-10.42 2.3-2.3 3.07-4.6 6.8-5.23 21.14-3.58 42.06 18.44 39.16 36.03m-82.3-34.66c.08-.18.25-.33.42-.4.08-.04.16-.05.24-.05.43.2.67.25.45.1 2.03.66 2.94 2.6 5.1 3.05.28.07 2.13.5 2.43.48 3.7-.2 2.97-4.07 2.55-8.34-.02-.23-.12-.45-.3-.58-3.1-2.33-10.18-.45-12.8 1.8-1.18 1.37 1.3 2.9 2.5 3.47-.06 0-.12.03-.18.07-.2.06-.36.2-.42.4m-.02 0c-.12.27-.1.6.22.87 1.75 1.54-5.18-2.05-8.64-2.2-.15 0-.3.02-.45.1-3.08 1.64-3.28 4.5-7.1 4.6-7.82.13-10.5-15.84-2.1-17.77 7-1.6 7.07 3.83 10.97 5.74 5.94 2.9 12.08-1.72 16.7-1.04 5.2.76 5.37 6.32 4.82 12.03-.06.54.38 1 .92.94 9.97-.95 21.27-5.15 24.03-13.5 3.04-9.17-.96-24.63-7.3-30.3-3-2.65-7.86-3.96-11.5-4.17-9.3-.53-13.74 6.75-22.2 7.62-.7.08-1.27-.07-1.3-.72-.3-9.06-6.7-13.04-14.62-13.16-8.26-.13-23.4 2.94-29.77 9.4-3.17 3.2-6 9.36-6.8 15.14-1.93 14.16 2.57 19.28 8.54 26.04.8.9.1 2.3-1.1 2.2-3.77-.25-8.34-1.15-10.92 1.37-.1.12-.2.26-.28.4-.6 1.12-.8 2.6-.9 4-.03.67.14 1.35.53 1.9 4.48 6.5 11.67 1.93 22.42 2.76 8.65.66 16.6 6.23 22.98 6.26 2.58.02 5.84-1.54 9.4-2.1 11.86-1.8 20.62 2.8 22.24-6.94.14-.83-.46-1.6-1.3-1.66-1.65-.14-2.73-1.76-4.9-2.7-.2-.1-.46-.1-.67 0-3.28 1.55-9.76-2.5-11.72-4.23-.27-.24-.33-.6-.22-.87"/><path fill="#eff4f4" d="M243.54 149.2c.44.15.8-.36.5-.7-5.86-6.6-13.35 9.1-6.55 12.78 1.82 1 3.4-1.83 1.6-2.87-.84-.47-1.92-.7-2.87-1.08-2.04-4.67 2.92-9.5 7.3-8.12m40.28 5.25c1.83 0 2.27-1.4 2.13-3.4-.02-.16-.08-.33-.2-.46-2.82-3.23-6.33 3.32-1.92 3.85m42.9 16.83c.2-4.1-1.54-4.96-3.18-7.15-.4-.55-1.03-.87-1.7-.92-5.25-.42-4.54 1.94-7.75 3.33-.45.2-.8.56-.97 1-.4.98-1.13 2.22-.5 3.56.26.52.76.87 1.32 1.06 1.6.54 1.75 4.96 4.38 5.26.17.02.28.2.2.36-1.05 1.55 1.37 4.17-.22 5.4-1.24-.72-2.4-1.52-3.27-2.6-.1-.17-.37-.07-.35.14.57 6.58 12.54 4.14 11.52-.3-.7 1.74-3.45 1.1-4.76 2.23-.72-1.38-1.57-2.66-1.64-4.7-.03-.93.4-1.82 1.17-2.33 1.63-1.1 3.2-1.84 4.92-2.9.5-.3.83-.85.85-1.44M338.65 144c-8.82 1.17-11.05-4.27-14.63-8.35-.4-.52-1.06-.52-1.56.52-1.3 2.67 3.9 5.74 3.65 7.3-7.74-.4-12.44-4.06-16.43-8.07-.2-.2-.45-.34-.72-.34-.23 0-.43.04-.63.13-.48.22-.74.76-.7 1.3 0 .02 0 .04 0 .05 1.58 8.76 21.48 10.44 31.03 7.46m28.68 9.08c.4-.75.56-1.4.22-2.37-.1-.3-.33-.54-.6-.68-1.72-.82-4.17.03-3.85 2.4.03.3.2.55.43.73.58.44 1.2.82 2.16.86.67.05 1.32-.32 1.63-.92m36.36 7.16c6.25-5.36-6.68-21.5-10.2-11 3.65-3.7 9.43.87 9.38 5.73-.6.56-1.44 1.13-2.16 1.78-2.2 2 .73 5.4 2.97 3.5m28.75-15.02c1.4 11.18-3.08 18.56-8.36 26.1-7 10-14.52 18.05-31.76 16.4-1.2-.12-2.32.57-2.76 1.7-.62 1.56-.9 3.2-2.57 4.37-3.72 2.6-8.83.65-13.57 1.57-2.74.54-4.95 3.33-7.3 3.66-6.13.85-12.24-2.9-16.5-4.72-.76-.32-1.6-.3-2.36.07-3.3 1.6-7.28 2.44-10.92 2.05-1.2-.13-1.98-1.28-3.13-1.57-6.78-1.68-14.74 1.58-20.9.52-9.3-1.6-20.03 2.92-31.12.72-1.56-.33-3.17.13-4.42 1.12-4.53 3.58-13.2.72-13.02-4.98.06-2 1.24-2.86 2.46-3.77 2.1-1.58 1.58-4.9-.93-5.7-.6-.2-1.25-.47-2.06-.98-2.05.2.5 2.48-1.05 3.65-1.92 1.5-4.67 2.12-6.45 3.72-.7.6-1.62.87-2.53.75-9-1.1-16-.23-21.84-3.43-12.15-6.67-17.82-25.66-12.54-40.74 2.43-6.95 8.84-17.07 13.58-21.42 3.94-3.6 9.13-4.4 14.24-6.4.6-.24 1.24-.37 1.88-.35 10.8.32 18.74 4 19.95 12.88.52 3.96-1.9 6.97 3.1 8.5 2.26-6.53 10.62-11.23 19.3-10.98 4.4.13 8.3 3.23 13.07 3.13 4.4-.08 8-2.97 12.54-3.13 6.85-.25 12.06 5.12 19.85 5.74 2.9.23 7.06-1.7 10.45-2.1 9.4-1.06 19.62 2.46 26.63.54 7.32-2 9.54-10 15.2-12.46 1.36-.58 2.5-1.58 3.1-2.92.2-.4.5-.73 1.03-.8 4.2-2.44 14.5-1.06 18.8 2.08 1.7 1.25 2.78 4 4.7 5.74 7.08 6.43 14.64 9.08 16.2 21.4"/><path fill="#333" d="M393.5 149.23c3.52-10.5 16.44 5.65 10.2 11-2.25 1.93-5.17-1.5-3-3.48.74-.65 1.57-1.22 2.18-1.78.05-4.86-5.73-9.44-9.4-5.74"/><path fill="#f8d5e0" d="M382.94 73c6.35 5.68 10.35 21.14 7.3 30.3-2.75 8.35-14.05 12.55-24.02 13.5-.54.05-.98-.4-.93-.94.55-5.7.36-11.27-4.82-12.03-4.63-.7-10.77 3.95-16.7 1.04-3.9-1.9-3.97-7.35-10.98-5.74-8.4 1.93-5.72 17.9 2.1 17.76 3.82-.1 4.02-2.96 7.1-4.6.13-.08.3-.1.45-.1 3.45.15 10.38 3.74 8.63 2.2 1.96 1.7 8.44 5.77 11.72 4.2.2-.1.47-.08.68 0 2.16.96 3.24 2.58 4.9 2.72.83.07 1.43.83 1.3 1.66-1.63 9.73-10.4 5.13-22.25 6.95-3.56.55-6.82 2.1-9.4 2.1-6.37-.04-14.33-5.6-22.98-6.27-10.75-.83-17.94 3.75-22.42-2.75-.38-.55-.56-1.23-.52-1.9.1-1.4.3-2.87.9-4 .07-.15.17-.28.28-.4 2.58-2.5 7.15-1.6 10.93-1.35 1.2.1 1.9-1.32 1.1-2.2-5.97-6.77-10.48-11.9-8.53-26.03.8-5.8 3.62-11.94 6.8-15.15 6.35-6.46 21.5-9.53 29.76-9.4 7.9.12 14.33 4.1 14.63 13.16.02.65.6.8 1.28.72 8.47-.87 12.92-8.15 22.2-7.62 3.66.2 8.5 1.52 11.5 4.18"/><path fill="#333" d="M367.55 150.7c.34.98.17 1.63-.22 2.4-.3.6-.96.95-1.64.9-.96-.03-1.6-.4-2.17-.85-.23-.17-.4-.44-.43-.73-.32-2.37 2.13-3.22 3.84-2.4.28.14.5.4.6.7"/><path fill="#f8d5e0" d="M362.08 108.36c.42 4.27 1.14 8.14-2.55 8.35-.3.02-2.15-.4-2.44-.48-2.16-.46-3.07-2.4-5.1-3.05-.03-.02-.06-.04-.1-.06-.13-.07-.27-.08-.42-.05-1.2-.55-3.67-2.1-2.48-3.47 2.6-2.25 9.67-4.13 12.78-1.8.18.13.28.35.3.58M352 113.17c.2.15-.03.1-.46-.1.08 0 .16.02.24.04.08.03.14.05.2.07M352 113.17c-.08-.02-.14-.04-.22-.06-.08 0-.16-.02-.24-.02-.02-.02-.04-.03-.06-.03.15-.03.3-.02.4.06.06.03.1.05.1.07M351.48 113.05c.02 0 .04 0 .06.02-.08 0-.16.02-.24.05.06-.04.12-.06.18-.07M351.3 113.12c-.17.07-.34.22-.42.4.06-.2.2-.34.42-.4M350.87 113.53c-.1.28-.06.63.2.86-.3-.3-.33-.6-.2-.87M343.35 106.93c.47 1.12 1.43 2.46-.72 2.85-3.6.8-3.16 5.8-8.16 5-3.7-.62-5.87-5.96-4.7-9.4 1.94-5.78 11.06-2.87 13.58 1.55"/><path fill="#333" d="M324.02 135.65c3.58 4.08 5.8 9.52 14.63 8.36-9.55 3-29.45 1.3-31.02-7.45 0 0 0-.03 0-.05-.05-.54.2-1.07.7-1.3.2-.1.4-.15.62-.14.27 0 .53.14.72.34 3.98 4 8.7 7.66 16.44 8.08.27-1.57-4.95-4.64-3.64-7.3.5-1.05 1.16-1.05 1.56-.53M323.52 164.13c1.64 2.18 3.37 3.06 3.18 7.15-.02.6-.35 1.13-.85 1.44-1.7 1.06-3.3 1.8-4.92 2.9-.77.5-1.2 1.4-1.17 2.32.07 2.05.9 3.33 1.65 4.7 1.32-1.1 4.06-.48 4.77-2.22 1.02 4.44-10.95 6.88-11.52.3-.02-.2.24-.3.36-.15.88 1.1 2.03 1.9 3.28 2.6 1.6-1.22-.83-3.84.2-5.4.1-.14 0-.33-.18-.35-2.63-.3-2.77-4.72-4.38-5.27-.56-.18-1.06-.53-1.32-1.06-.63-1.35.1-2.6.5-3.57.18-.44.52-.8.97-1 3.2-1.4 2.5-3.75 7.75-3.32.67.06 1.3.38 1.7.93M285.93 151.06c.14 2-.3 3.38-2.12 3.4-4.4-.55-.9-7.1 1.93-3.87.12.12.18.3.2.46M244.03 148.5c.3.34-.05.84-.5.7-4.38-1.4-9.34 3.45-7.3 8.12.95.37 2.03.6 2.87 1.1 1.8 1.03.22 3.85-1.6 2.86-6.8-3.68.68-19.4 6.53-12.8"/></g><path fill="#f8d5e0" d="M291.88 168.68c0 2-1.8 3.62-3.98 3.62-2.2 0-4-1.62-4-3.62s1.8-3.63 4-3.63 3.98 1.62 3.98 3.63M363.1 168.68c0 2-1.8 3.62-3.98 3.62-2.2 0-4-1.62-4-3.62s1.8-3.63 4-3.63 3.98 1.62 3.98 3.63"/><path fill="#333" d="M262.1 240.07c-.62.27-1.22.63-1.8 1.07-.56.45-1.14.93-1.73 1.46-.58.53-1.2 1.1-1.82 1.68-.63.58-1.3 1.13-2.04 1.64-.7.5-1.5.98-2.37 1.44-.86.46-1.8.87-2.85 1.2-1.04.36-2.2.64-3.44.84-1.25.2-2.64.3-4.16.3-1.68 0-3.2-.33-4.55-1-1.35-.67-2.5-1.57-3.47-2.7-.96-1.15-1.7-2.47-2.2-3.97-.53-1.5-.8-3.1-.8-4.75 0-1.16.14-2.4.4-3.72.24-1.32.6-2.67 1.06-4.05.47-1.36 1.04-2.73 1.7-4.1.68-1.37 1.45-2.68 2.3-3.93.85-1.26 1.8-2.42 2.8-3.5 1.04-1.07 2.13-2 3.3-2.8 1.14-.8 2.37-1.42 3.65-1.87 1.28-.45 2.62-.68 4-.68.9 0 1.8.16 2.73.48.92.32 1.75.8 2.48 1.47.74.66 1.34 1.5 1.8 2.5.48 1 .7 2.2.7 3.57 0 .92-.14 1.85-.43 2.8-.3.94-.7 1.84-1.2 2.7-.52.87-1.12 1.7-1.8 2.45-.7.75-1.45 1.4-2.24 1.96-.8.55-1.62 1-2.48 1.32-.86.32-1.72.48-2.58.48-1.13 0-1.98-.15-2.54-.46-.56-.3-.84-.74-.84-1.3 0-.1 0-.23 0-.37-.02-.14-.02-.28-.02-.43 0-.22 0-.46.04-.7.02-.24.07-.46.15-.66.07-.2.18-.37.32-.5.15-.1.34-.18.6-.18.14 0 .27.02.38.07.12.04.24.1.38.14.15.05.3.1.5.14.2.05.44.07.74.07.8 0 1.6-.17 2.42-.52.82-.35 1.55-.84 2.2-1.48.66-.63 1.2-1.4 1.62-2.27.4-.88.62-1.84.62-2.9 0-.56-.07-1.1-.22-1.6s-.4-.95-.73-1.33c-.34-.38-.77-.68-1.3-.9-.53-.25-1.17-.36-1.94-.36-.88 0-1.76.2-2.6.6-.86.4-1.68.94-2.47 1.62-.78.67-1.53 1.48-2.23 2.4-.7.94-1.36 1.93-1.96 3-.6 1.06-1.13 2.16-1.6 3.3-.5 1.16-.9 2.3-1.24 3.46-.33 1.14-.6 2.25-.77 3.32-.18 1.08-.27 2.07-.27 2.97 0 1.33.15 2.5.47 3.48.32.98.77 1.8 1.36 2.47.57.65 1.3 1.14 2.14 1.47.84.3 1.8.47 2.86.47 1.32 0 2.55-.17 3.7-.5 1.13-.35 2.22-.8 3.25-1.36 1.03-.54 2.03-1.17 3-1.87.97-.7 1.93-1.4 2.9-2.1.96-.7 1.95-1.37 2.95-2 1-.65 2.07-1.2 3.2-1.63v4.17zM271.15 231.7c.37.73.64 1.5.82 2.3.18.8.27 1.7.27 2.72 0 .73-.08 1.47-.24 2.22-.17.75-.4 1.47-.7 2.17-.3.7-.7 1.36-1.13 1.97-.44.6-.94 1.14-1.5 1.6-.58.44-1.2.8-1.87 1.06-.68.26-1.4.4-2.15.4-1.1 0-2.04-.25-2.8-.73-.8-.48-1.43-1.1-1.93-1.88-.5-.77-.86-1.65-1.1-2.62-.23-.97-.34-1.95-.34-2.95 0-1.65.2-3.06.62-4.25.4-1.2 1-2.23 1.76-3.1.77-.88 1.7-1.58 2.82-2.08 1.1-.5 2.35-.76 3.74-.76 1.18 0 2.3.2 3.32.55 1.04.38 2 .87 2.9 1.5.9.6 1.75 1.38 2.53 2.32.78.93 1.5 1.82 2.18 2.67l-.35 2.63c-.34-.45-.8-.94-1.37-1.46-.57-.53-1.18-1.1-1.82-1.74-.63-.64-1.27-1.18-1.9-1.62-.6-.43-1.15-.8-1.6-1.1l-.15.2zm-5.77 10.83c.42 0 .83-.22 1.23-.65.4-.43.76-.97 1.06-1.62.3-.66.54-1.45.72-2.38.18-.92.27-1.75.27-2.47 0-.57-.04-1.1-.13-1.6-.1-.48-.22-.9-.4-1.27-.17-.36-.4-.65-.67-.86-.27-.2-.6-.32-1-.32-.5 0-.98.22-1.45.65-.46.44-.86 1-1.2 1.68-.36.68-.63 1.43-.83 2.25-.2.82-.3 1.75-.3 2.8 0 .5.05 1 .15 1.46.1.45.25.86.46 1.2.22.34.5.6.85.82.34.2.76.3 1.25.3zM295.4 241.5c-.27.4-.66.86-1.13 1.4-.48.55-1.02 1.06-1.62 1.55-.6.5-1.24.9-1.93 1.25-.68.34-1.37.5-2.05.5-.83 0-1.52-.25-2.07-.77-.56-.53-1.04-1.3-1.44-2.3-.3.36-.67.7-1.1 1.07-.45.35-.93.68-1.45.97-.5.3-1.05.52-1.62.7-.57.2-1.13.3-1.7.3-.6 0-1.18-.14-1.74-.38-.57-.26-1.07-.6-1.5-1.07-.44-.46-.8-1.02-1.06-1.68-.26-.66-.4-1.4-.4-2.23 0-.93.14-1.9.4-2.87.27-.98.68-2.04 1.23-3.19.56-1.14 1.15-2.12 1.8-2.96.62-.83 1.3-1.56 2.06-2.18.76-.62 1.55-1.1 2.38-1.48.84-.36 1.7-.55 2.55-.55.28 0 .5.05.67.16.16.12.3.25.4.4.1.14.2.28.3.42.1.13.24.24.4.3.14.06.3.1.45.12.16.02.32.03.48.03.14 0 .28 0 .42 0 .15-.02.3-.02.42-.02.2 0 .37.03.53.07.16.04.3.12.43.24.13.14.22.32.3.54.06.23.1.54.1.93 0 .6-.07 1.25-.2 1.98-.12.73-.26 1.47-.42 2.23-.16.76-.34 1.63-.55 2.6-.2.98-.3 1.8-.3 2.47 0 .57.05 1.02.15 1.34.1.3.34.48.68.48.27 0 .54-.07.83-.2.27-.13.56-.3.86-.5.3-.22.58-.46.87-.72.3-.27.57-.54.84-.83.6-.66 1.22-1.42 1.85-2.26l.9 4.12zM279.4 240c0 .32.02.63.06.94.05.3.12.57.24.8.1.24.26.44.45.6.18.13.42.2.7.2.47 0 .9-.2 1.26-.6.37-.4.7-.88.97-1.45.27-.55.5-1.13.66-1.74.17-.6.28-1.1.33-1.5l1.4-6.08c-.52 0-1.02.13-1.5.38-.5.26-.95.6-1.38 1.03-.43.42-.82.92-1.18 1.47-.37.56-.72 1.24-1.07 2.06-.35.82-.6 1.53-.74 2.15-.15.62-.22 1.2-.22 1.74zM298.07 246.12c-.67 0-1.3-.3-1.87-.88-.58-.58-1.08-1.36-1.5-2.34-.44-.98-.77-2.12-1-3.42-.26-1.3-.38-2.65-.38-4.07 0-1.2.18-2.85.54-4.9.36-2.03.54-3.05.54-3.05s.27-1.02.82-3.06c.54-2.05 1.1-3.68 1.64-4.92.54-1.23 1.14-2.38 1.78-3.45.64-1.07 1.3-2 2.02-2.8.7-.8 1.44-1.42 2.2-1.87.78-.46 1.56-.68 2.35-.68.6 0 1.06.1 1.44.33.37.23.67.52.88.88.22.36.37.77.46 1.23.08.47.13.93.13 1.4 0 1.18-.13 2.38-.4 3.6-.3 1.23-.66 2.46-1.14 3.7-.47 1.22-1.02 2.46-1.64 3.7-.62 1.24-1.27 2.47-1.94 3.7-.68 1.22-1.35 2.42-2.03 3.6-.68 1.2-1.3 2.35-1.9 3.48-.05.12-.12.3-.18.5-.07.2-.14.4-.2.64-.06.23-.13.48-.2.74-.05.27-.1.52-.14.78v.26c0 .33.04.64.1.95.07.3.16.6.26.83.1.25.2.44.3.6.12.13.23.2.33.2.24 0 .52-.05.83-.15.3-.1.64-.23 1-.4.34-.17.7-.37 1.07-.6.37-.2.73-.43 1.08-.66.8-.53 1.65-1.13 2.53-1.83l1.65 3.94c-1.14.76-2.27 1.44-3.38 2.03-.5.26-1 .5-1.52.75-.52.24-1.04.46-1.56.65-.53.2-1.04.34-1.54.45-.5.1-.97.17-1.4.17zm.02-14.82c.55-1 1.15-2.14 1.78-3.4.63-1.25 1.23-2.54 1.8-3.88.55-1.33 1.04-2.66 1.45-3.98.42-1.33.68-2.56.8-3.7 0-.37-.02-.68-.04-.94-.02-.26-.08-.4-.17-.4-.35 0-.72.25-1.1.72-.4.48-.8 1.12-1.2 1.93-.4.8-.87 2.12-1.42 3.94-.53 1.8-.8 2.72-.8 2.72s-.18.84-.5 2.53c-.35 1.7-.55 3.17-.6 4.45zM323.6 241.5c-.3.4-.67.86-1.15 1.4-.48.55-1.02 1.06-1.6 1.55-.6.5-1.25.9-1.94 1.25-.67.34-1.36.5-2.05.5-.82 0-1.5-.25-2.07-.77-.55-.53-1.03-1.3-1.43-2.3-.3.36-.67.7-1.1 1.07-.45.35-.93.68-1.45.97-.52.3-1.07.52-1.63.7-.57.2-1.13.3-1.7.3-.6 0-1.18-.14-1.75-.38-.56-.26-1.06-.6-1.5-1.07-.44-.46-.8-1.02-1.05-1.68-.26-.66-.4-1.4-.4-2.23 0-.93.14-1.9.4-2.87.27-.98.68-2.04 1.23-3.19.55-1.14 1.14-2.12 1.77-2.96.64-.83 1.33-1.56 2.08-2.18.75-.62 1.55-1.1 2.38-1.48.83-.36 1.68-.55 2.55-.55.3 0 .5.05.68.16.16.12.3.25.4.4.1.14.2.28.3.42.1.13.24.24.4.3.14.06.3.1.45.12.16.02.32.03.5.03.12 0 .27 0 .4 0 .15-.02.3-.02.43-.02.2 0 .37.03.53.07.16.04.3.12.43.24.12.14.2.32.28.54.07.23.1.54.1.93 0 .6-.06 1.25-.18 1.98-.13.73-.27 1.47-.43 2.23-.16.76-.35 1.63-.55 2.6-.2.98-.3 1.8-.3 2.47 0 .57.04 1.02.15 1.34.1.3.33.48.68.48.26 0 .54-.07.82-.2.3-.13.58-.3.87-.5.3-.22.6-.46.88-.72.3-.27.57-.54.83-.83.6-.66 1.23-1.42 1.85-2.26l.9 4.12zM307.57 240c0 .32.02.63.06.94.04.3.12.57.24.8.1.24.26.44.44.6.2.13.44.2.73.2.46 0 .88-.2 1.25-.6.38-.4.7-.88.98-1.45.27-.55.5-1.13.66-1.74.17-.6.28-1.1.33-1.5l1.4-6.08c-.52 0-1.02.13-1.5.38-.5.26-.95.6-1.38 1.03-.43.42-.82.92-1.18 1.47-.38.56-.73 1.24-1.08 2.06-.35.82-.6 1.53-.74 2.15-.14.62-.2 1.2-.2 1.74zM340.1 213.67c2.03 0 3.84.17 5.43.5 1.6.34 2.98.8 4.18 1.4 1.2.6 2.2 1.3 3.03 2.13.83.83 1.5 1.73 2 2.7.52.97.9 2 1.13 3.1.23 1.1.34 2.2.34 3.35 0 1.58-.17 3.28-.52 5.12-.35 1.83-.86 3.5-1.52 5.02-.66 1.5-1.48 2.92-2.45 4.24-.96 1.33-2.07 2.48-3.32 3.47-1.25 1-2.62 1.77-4.12 2.34-1.5.57-3.12.85-4.86.85-.58 0-1.17-.05-1.77-.14-.6-.1-1.2-.2-1.76-.36-.57-.16-1.1-.33-1.6-.52-.52-.2-.96-.4-1.35-.6-.16-.04-.28-.1-.38-.17-.1-.06-.16-.14-.2-.24-.06-.1-.1-.2-.1-.35 0-.13-.02-.3-.02-.53 0-2.06.05-4.18.16-6.35.1-2.16.3-4.4.63-6.67.34-2.3.8-4.3 1.4-6.05.6-1.75 1.4-3.37 2.4-4.85.25-.36 1.05-.54 2.4-.54 1.06 0 1.82.4 2.28 1.16-.58.78-1.06 1.63-1.44 2.58-.4.94-.7 1.87-.98 2.8-.26.9-.48 1.9-.65 3-.33 2.08-.5 3.13-.48 3.16.04.02-.1 1.22-.43 3.58-.13.82-.23 1.54-.3 2.15-.07.6-.12 1.14-.15 1.6-.03.46-.04.9-.04 1.35 0 .46.02.84.05 1.16.03.3.1.56.23.74.12.2.3.32.54.4.24.08.57.12.98.12 1.25 0 2.44-.24 3.56-.73 1.12-.5 2.16-1.15 3.1-1.98.95-.84 1.8-1.8 2.56-2.9.75-1.1 1.4-2.36 1.93-3.8.53-1.43.94-2.78 1.22-4.04.3-1.27.43-2.48.43-3.65 0-1.44-.23-2.73-.7-3.87-.48-1.14-1.15-2.1-2-2.9-.86-.78-1.88-1.38-3.08-1.8-1.2-.42-2.5-.63-3.95-.63-1.05 0-2.08.07-3.1.2-1.04.12-2 .3-2.87.57-.88.27-1.65.6-2.32 1-.67.42-1.17.9-1.5 1.47-.9 1.4-1.66 2.5-2.25 3.27-.58.78-1.08 1.17-1.47 1.17-.55 0-.83-.63-.83-1.9 0-1.2.16-2.3.48-3.28.33-.98.77-1.84 1.34-2.6.56-.75 1.24-1.4 2.02-1.92.77-.53 1.63-.97 2.56-1.3.92-.35 1.9-.6 2.96-.77 1.05-.15 2.12-.23 3.2-.23zM369.96 231.7c.36.73.63 1.5.8 2.3.2.8.3 1.7.3 2.72 0 .73-.1 1.47-.26 2.22-.16.75-.4 1.47-.7 2.17-.3.7-.68 1.36-1.12 1.97-.44.6-.95 1.14-1.52 1.6-.56.44-1.18.8-1.86 1.06-.67.26-1.38.4-2.14.4-1.1 0-2.04-.25-2.82-.73-.78-.48-1.42-1.1-1.9-1.88-.5-.77-.88-1.65-1.1-2.62-.24-.97-.35-1.95-.35-2.95 0-1.65.2-3.06.6-4.25.4-1.2 1-2.23 1.77-3.1.77-.88 1.7-1.58 2.8-2.08 1.12-.5 2.37-.76 3.75-.76 1.2 0 2.3.2 3.33.55 1.03.38 2 .87 2.9 1.5.9.6 1.75 1.38 2.53 2.32.78.93 1.5 1.82 2.18 2.67l-.36 2.63c-.34-.45-.8-.94-1.36-1.46-.58-.53-1.18-1.1-1.83-1.74-.63-.64-1.26-1.18-1.88-1.62-.63-.43-1.16-.8-1.6-1.1l-.16.2zm-5.78 10.83c.43 0 .84-.22 1.24-.65.4-.43.75-.97 1.04-1.62.3-.66.54-1.45.73-2.38.17-.92.26-1.75.26-2.47 0-.57-.05-1.1-.13-1.6-.1-.48-.22-.9-.4-1.27-.17-.36-.4-.65-.67-.86-.27-.2-.6-.32-1-.32-.5 0-1 .22-1.45.65-.45.44-.85 1-1.2 1.68-.35.68-.63 1.43-.83 2.25-.2.82-.3 1.75-.3 2.8 0 .5.05 1 .15 1.46.1.45.26.86.47 1.2.2.34.48.6.83.82.35.2.77.3 1.26.3zM380.42 246.12c-1.16 0-2.17-.2-3.04-.64-.87-.42-1.6-1-2.2-1.7-.58-.7-1.03-1.53-1.33-2.47-.3-.92-.45-1.9-.45-2.9 0-.72.13-1.6.38-2.6s.52-1.9.8-2.65c.3-.75.67-1.47 1.1-2.15.43-.7.94-1.3 1.5-1.8.58-.52 1.2-.94 1.9-1.24.7-.3 1.48-.46 2.32-.46.76 0 1.46.1 2.1.33.65.22 1.2.52 1.65.9.46.4.82.85 1.08 1.38.26.54.38 1.1.38 1.72 0 .42-.05.84-.17 1.25-.12.4-.35.9-.7 1.45-.36.55-.7.93-1.03 1.13-.33.2-.7.3-1.12.3-.63 0-1.04-.16-1.22-.47-.3-.48-.4-.9-.3-1.3.05-.2.16-.65.35-1.37.03-.1.04-.3.03-.66 0-.3-.03-.55-.1-.75-.06-.2-.2-.3-.4-.3-.5 0-.95.1-1.3.35-.37.25-.67.57-.93.96-.25.4-.5.95-.75 1.67s-.43 1.32-.53 1.8c-.1.5-.17.96-.2 1.4-.02.44-.04.8-.04 1.1 0 .46.04.93.13 1.4.1.5.25.94.5 1.35.23.4.54.74.93 1 .38.28.88.4 1.5.4.6 0 1.25-.18 1.97-.54.72-.37 1.45-.83 2.18-1.4.73-.56 1.42-1.17 2.08-1.85.66-.67 1.23-1.3 1.7-1.9l1.3 2.17c-.94 1.33-1.95 2.52-3.04 3.57-.46.45-.96.88-1.5 1.3-.54.43-1.1.8-1.7 1.14-.6.34-1.2.6-1.85.8-.64.2-1.3.32-1.95.32zM394.96 246.12c-1.16 0-2.18-.22-3.05-.65-.87-.43-1.6-1-2.17-1.74-.6-.73-1.02-1.57-1.3-2.53-.3-.96-.45-1.96-.45-3.02 0-.7.13-1.5.4-2.46.25-.95.52-1.8.8-2.53.28-.75.63-1.46 1.05-2.13.42-.67.9-1.26 1.48-1.77.57-.5 1.2-.9 1.9-1.22.7-.3 1.48-.45 2.34-.45.7 0 1.34.1 1.94.34.6.22 1.12.54 1.57.94.44.42.8.9 1.03 1.48.25.57.38 1.2.38 1.92 0 .75-.25 1.6-.76 2.54-.5.94-1.1 1.74-1.77 2.4-.67.68-1.48 1.28-2.4 1.8-.94.53-1.95.94-3.03 1.23.2.33.37.6.55.82.18.2.37.38.55.5.2.12.4.2.6.26.2.05.42.07.66.07.75 0 1.54-.14 2.37-.44.83-.3 1.63-.67 2.42-1.1.78-.44 1.52-.92 2.22-1.44.7-.52 1.3-1 1.78-1.47l2.4 2.44c-1.1 1.17-2.25 2.2-3.5 3.1-.52.38-1.1.76-1.72 1.13-.6.38-1.26.7-1.94 1-.7.28-1.4.52-2.12.7-.73.16-1.47.25-2.22.25zm-2.5-8.9c.46 0 .95-.12 1.48-.34.53-.23 1.02-.52 1.48-.87.46-.34.9-.82 1.34-1.42.44-.6.66-1.1.66-1.48 0-.54-.1-1-.3-1.35-.22-.35-.47-.53-.77-.53-.54 0-1 .1-1.38.3-.38.2-.7.44-.96.75-.24.3-.45.67-.6 1.06-.16.4-.34.9-.55 1.47-.2.6-.32 1.07-.35 1.45-.02.37-.03.7-.03.97zM402.25 239.06c.7-.6 1.26-1.1 1.7-1.5.43-.4.87-.88 1.3-1.42.44-.53.8-.97 1.04-1.3.25-.35.55-.75.9-1.22.35-.46.77-1.03 1.27-1.7.5-.68 1.15-1.52 1.94-2.53.18-.24.36-.46.56-.67.2-.22.42-.4.66-.58.24-.17.5-.3.8-.4.3-.12.62-.17.98-.17.6 0 1.06.06 1.4.2.3.13.55.3.7.48.15.2.24.38.26.6.03.2.04.38.04.53 0 .3-.12.63-.36 1-.23.36-.5.7-.78 1.05-.3.34-.56.65-.82.93-.25.3-.4.5-.44.64 0 .4.03.74.1 1.07.05.3.12.62.22.93.1.3.2.64.3.98.1.36.2.76.3 1.2.08.47.1 1.1.02 1.88-.06.8-.1 1.6-.1 2.4.45-.3.93-.57 1.45-.82.5-.25 1.05-.5 1.6-.76.57-.27 1.14-.56 1.74-.88.6-.32 1.18-.7 1.78-1.17l.02 4.24c-.77.56-1.67 1.1-2.68 1.6-1.02.5-2.1.96-3.2 1.34-1.13.4-2.26.7-3.4.9-1.14.24-2.22.35-3.24.35-.74 0-1.42-.08-2.06-.2-.63-.14-1.2-.35-1.67-.63-.5-.28-.88-.64-1.18-1.1-.3-.45-.48-1-.54-1.64-.17.04-.34.06-.5.07-.18.02-.35.02-.5.02-.2 0-.4 0-.57-.02-.16 0-.3-.05-.44-.14-.12-.08-.22-.2-.3-.4-.07-.18-.1-.44-.1-.78 0-.3.07-.58.22-.84s.32-.5.52-.7c.2-.2.4-.37.6-.52.2-.15.35-.27.45-.36zm2.33 2.42c.15 0 .3.1.5.3.17.17.38.38.62.6.24.23.5.44.82.63.3.2.67.3 1.07.3.47 0 .88-.1 1.2-.25.3-.16.56-.38.75-.65.2-.27.32-.6.4-.95.07-.36.1-.73.1-1.12 0-.34-.02-.7-.06-1.04-.05-.36-.05-.8 0-1.32.06-.53.05-.93-.03-1.2-.08-.3-.15-.54-.2-.74l-5.2 5.44z"/></svg>