<?xml version="1.0" encoding="UTF-8" standalone="no"?><!DOCTYPE svg PUBLIC "-//W3C//DTD SVG 1.1//EN" "http://www.w3.org/Graphics/SVG/1.1/DTD/svg11.dtd"><svg width="100%" height="100%" viewBox="0 0 647 324" version="1.1" xmlns="http://www.w3.org/2000/svg" xmlns:xlink="http://www.w3.org/1999/xlink" xml:space="preserve" style="fill-rule:evenodd;clip-rule:evenodd;stroke-linejoin:round;stroke-miterlimit:1.41421;"><rect x="0" y="0" width="647" height="323.5" style="fill:#bfd9dc;"/><g><g><clipPath id="_clip1"><rect x="213.299" y="59.923" width="220.402" height="141.109"/></clipPath><g clip-path="url(#_clip1)"><path d="M342.628,109.784c2.158,-0.392 1.191,-1.729 0.721,-2.852c-2.523,-4.423 -11.637,-7.333 -13.58,-1.567c-1.165,3.458 1.008,8.796 4.7,9.402c5.005,0.82 4.576,-4.179 8.159,-4.983m81.461,61.561c5.281,-7.553 9.752,-14.934 8.357,-26.111c-1.546,-12.337 -9.103,-14.986 -16.192,-21.415c-1.911,-1.729 -2.992,-4.492 -4.7,-5.735c-4.299,-3.144 -14.584,-4.523 -18.799,-2.09c-0.538,0.073 -0.825,0.392 -1.019,0.81c-0.61,1.337 -1.749,2.335 -3.102,2.92c-5.662,2.445 -7.882,10.457 -15.205,12.452c-7.014,1.927 -17.236,-1.598 -26.632,-0.522c-3.385,0.392 -7.554,2.319 -10.447,2.089c-7.793,-0.622 -13.001,-5.991 -19.843,-5.746c-4.524,0.167 -8.138,3.051 -12.536,3.135c-4.774,0.099 -8.665,-3.004 -13.057,-3.135c-8.697,-0.245 -17.055,4.45 -19.321,10.969c-4.999,-1.52 -2.575,-4.528 -3.108,-8.487c-1.201,-8.875 -9.135,-12.557 -19.942,-12.891c-0.643,-0.021 -1.28,0.109 -1.881,0.344c-5.113,2.022 -10.305,2.805 -14.238,6.409c-4.743,4.346 -11.152,14.474 -13.58,21.415c-5.281,15.085 0.386,34.071 12.536,40.736c5.834,3.202 12.838,2.319 21.838,3.432c0.914,0.115 1.844,-0.142 2.527,-0.753c1.787,-1.598 4.54,-2.23 6.446,-3.723c1.562,-1.165 -1.003,-3.443 1.044,-3.657c0.81,0.507 1.473,0.794 2.053,0.982c2.507,0.799 3.04,4.121 0.93,5.699c-1.222,0.909 -2.397,1.765 -2.46,3.766c-0.178,5.703 8.493,8.56 13.021,4.982c1.254,-0.987 2.857,-1.446 4.419,-1.133c11.089,2.199 21.807,-2.324 31.13,-0.716c6.153,1.061 14.108,-2.204 20.888,-0.522c1.154,0.288 1.922,1.436 3.134,1.567c3.635,0.392 7.605,-0.454 10.921,-2.048c0.747,-0.355 1.599,-0.386 2.357,-0.062c4.261,1.823 10.372,5.573 16.489,4.721c2.366,-0.328 4.575,-3.118 7.312,-3.656c4.743,-0.919 9.846,1.04 13.581,-1.567c1.671,-1.164 1.953,-2.815 2.57,-4.377c0.438,-1.122 1.567,-1.817 2.763,-1.697c17.241,1.656 24.763,-6.393 31.746,-16.385m9.088,-23.16c0.732,2.027 0.664,4.241 0,6.268c-1.791,14.045 -6.685,22.642 -16.714,29.767c-3.881,2.758 -10.169,5.521 -15.142,6.268c-1.473,0.219 -3.572,-0.46 -5.223,0c-1.734,0.48 -2.079,1.838 -3.656,2.611c-1.061,0.523 -2.204,0 -3.656,0.523c-2.435,0.872 -4.597,3.3 -6.268,3.656c-3.353,0.716 -7.292,-0.574 -10.447,0c-4.622,0.846 -7.887,3.76 -12.536,3.656c-4.418,-0.099 -7.437,-1.53 -11.391,-3.4c-0.972,-0.46 -2.094,-0.486 -3.082,-0.063c-5.275,2.277 -10.624,0.465 -16.86,-0.193c-5.772,-0.606 -12.515,2.126 -20.365,2.612c-7.433,0.459 -21.504,-3.077 -30.295,-1.567c-3.604,0.626 -6.545,3.243 -9.919,2.611c-4.889,-0.919 -7.714,-7.757 -6.268,-12.013c-20.146,10.076 -43.227,-3.902 -46.481,-20.371c-0.366,-1.848 0.23,-4.1 0,-6.262c-0.272,-2.57 -1.499,-5.036 -1.567,-7.313c-0.193,-6.659 3.166,-14.494 6.79,-20.37c2.779,-4.503 6.08,-10.149 9.402,-13.048c8.817,-7.714 28.31,-7.652 36.928,1.222c0.773,0.799 1.3,1.802 1.536,2.884c0.386,1.786 0.741,3.604 1.227,5.286c4.92,-1.4 10.943,-5.135 18.799,-4.179c-0.607,-7.595 2.841,-14.636 10.968,-15.137c-1.41,-3.75 -6.712,-7.354 -7.312,-12.013c-2.727,-21.217 14.4,-38.281 33.423,-39.697l8.357,0c9.485,0.612 16.093,4.106 18.281,12.014c19.268,-10.75 43.311,-2.82 43.347,19.326c0.006,5.139 -1.118,15.507 -4.701,19.848c-3.207,3.875 -10.555,6.858 -16.714,8.879c-0.428,1.359 1.165,4.571 0.522,7.825c5.088,-2.957 8.854,-6.268 13.059,-10.436c2.308,-2.299 3.076,-4.597 6.79,-5.224c21.154,-3.583 42.067,18.438 39.168,36.03m-82.301,-34.667c0.088,-0.177 0.25,-0.323 0.428,-0.401c0.073,-0.032 0.152,-0.042 0.235,-0.042l0.005,0c0.428,0.193 0.669,0.245 0.45,0.099c2.036,0.653 2.945,2.591 5.097,3.051c0.293,0.062 2.142,0.495 2.439,0.48c3.688,-0.209 2.973,-4.074 2.555,-8.347c-0.021,-0.225 -0.126,-0.444 -0.308,-0.58c-3.108,-2.324 -10.181,-0.443 -12.782,1.797c-1.19,1.379 1.29,2.92 2.486,3.473c-0.062,0.011 -0.119,0.032 -0.177,0.069c-0.209,0.062 -0.361,0.213 -0.428,0.401m-0.011,0.016c-0.125,0.256 -0.105,0.575 0.215,0.857c1.754,1.551 -5.177,-2.037 -8.635,-2.199c-0.156,-0.005 -0.313,0.031 -0.454,0.105c-3.071,1.645 -3.275,4.512 -7.098,4.591c-7.809,0.146 -10.499,-15.832 -2.089,-17.759c7.004,-1.609 7.071,3.834 10.968,5.745c5.934,2.904 12.081,-1.728 16.709,-1.045c5.181,0.763 5.364,6.321 4.81,12.035c-0.052,0.533 0.392,0.987 0.925,0.935c9.976,-0.951 21.275,-5.145 24.037,-13.492c3.035,-9.172 -0.961,-24.633 -7.312,-30.294c-2.988,-2.664 -7.846,-3.97 -11.491,-4.179c-9.287,-0.538 -13.743,6.743 -22.209,7.621c-0.695,0.073 -1.264,-0.073 -1.285,-0.726c-0.293,-9.062 -6.712,-13.037 -14.63,-13.163c-8.253,-0.13 -23.405,2.946 -29.768,9.402c-3.17,3.212 -5.996,9.36 -6.789,15.147c-1.943,14.15 2.559,19.268 8.529,26.022c0.794,0.894 0.099,2.298 -1.092,2.215c-3.776,-0.261 -8.346,-1.159 -10.921,1.358c-0.115,0.115 -0.215,0.246 -0.288,0.386c-0.59,1.129 -0.804,2.612 -0.887,3.996c-0.042,0.679 0.135,1.359 0.522,1.917c4.481,6.503 11.668,1.922 22.418,2.748c8.649,0.668 16.609,6.236 22.977,6.268c2.58,0.015 5.839,-1.541 9.402,-2.09c11.866,-1.822 20.62,2.774 22.24,-6.957c0.141,-0.831 -0.46,-1.588 -1.295,-1.661c-1.651,-0.141 -2.737,-1.761 -4.895,-2.706c-0.214,-0.093 -0.465,-0.099 -0.679,0c-3.28,1.557 -9.762,-2.496 -11.72,-4.22c-0.267,-0.235 -0.325,-0.58 -0.215,-0.857" style="fill:#333;fill-rule:nonzero;"/><path d="M243.544,149.204c0.439,0.141 0.794,-0.366 0.491,-0.711c-5.855,-6.602 -13.345,9.104 -6.545,12.787c1.834,0.987 3.416,-1.834 1.609,-2.873c-0.835,-0.481 -1.916,-0.721 -2.867,-1.092c-2.043,-4.664 2.914,-9.506 7.312,-8.111m40.266,5.249c1.823,-0.016 2.261,-1.405 2.115,-3.39c-0.015,-0.172 -0.078,-0.339 -0.193,-0.47c-2.826,-3.228 -6.336,3.322 -1.922,3.86m42.893,16.829c0.183,-4.09 -1.546,-4.967 -3.181,-7.156c-0.402,-0.543 -1.034,-0.867 -1.703,-0.919c-5.254,-0.428 -4.539,1.932 -7.751,3.327c-0.444,0.188 -0.784,0.554 -0.966,0.998c-0.397,0.977 -1.129,2.22 -0.497,3.556c0.251,0.534 0.758,0.879 1.317,1.067c1.608,0.543 1.749,4.961 4.377,5.264c0.172,0.021 0.282,0.215 0.188,0.361c-1.04,1.546 1.384,4.168 -0.209,5.395c-1.243,-0.715 -2.393,-1.519 -3.265,-2.606c-0.125,-0.157 -0.386,-0.058 -0.365,0.146c0.569,6.581 12.54,4.148 11.522,-0.293c-0.705,1.734 -3.448,1.103 -4.758,2.231c-0.737,-1.384 -1.578,-2.664 -1.651,-4.717c-0.031,-0.919 0.397,-1.807 1.165,-2.318c1.629,-1.087 3.212,-1.834 4.92,-2.9c0.502,-0.308 0.83,-0.845 0.857,-1.436m11.945,-27.276c-8.822,1.166 -11.047,-4.272 -14.625,-8.356c-0.407,-0.523 -1.06,-0.523 -1.567,0.522c-1.311,2.669 3.917,5.735 3.656,7.312c-7.751,-0.423 -12.457,-4.074 -16.442,-8.085c-0.194,-0.199 -0.449,-0.335 -0.721,-0.34c-0.225,-0.005 -0.433,0.042 -0.627,0.131c-0.48,0.235 -0.747,0.773 -0.7,1.311c0.005,0.015 0.005,0.036 0.011,0.052c1.566,8.754 21.467,10.436 31.015,7.453m28.681,9.078c0.391,-0.752 0.564,-1.405 0.219,-2.376c-0.105,-0.298 -0.324,-0.549 -0.611,-0.689c-1.708,-0.815 -4.153,0.03 -3.839,2.397c0.036,0.292 0.199,0.559 0.433,0.736c0.575,0.434 1.207,0.815 2.163,0.862c0.679,0.037 1.321,-0.329 1.635,-0.93m36.364,7.156c6.252,-5.359 -6.676,-21.504 -10.206,-11.011c3.666,-3.697 9.443,0.884 9.396,5.746c-0.616,0.559 -1.447,1.123 -2.168,1.776c-2.183,1.99 0.737,5.411 2.978,3.489m28.753,-15.006c1.395,11.178 -3.076,18.558 -8.357,26.111c-6.984,9.991 -14.505,18.04 -31.747,16.385c-1.196,-0.12 -2.324,0.574 -2.763,1.698c-0.616,1.561 -0.898,3.212 -2.569,4.377c-3.735,2.606 -8.838,0.647 -13.581,1.567c-2.736,0.538 -4.946,3.326 -7.312,3.656c-6.116,0.851 -12.227,-2.899 -16.49,-4.722c-0.757,-0.324 -1.608,-0.292 -2.355,0.063c-3.317,1.592 -7.287,2.439 -10.922,2.047c-1.212,-0.13 -1.98,-1.28 -3.134,-1.567c-6.779,-1.682 -14.734,1.583 -20.888,0.523c-9.323,-1.61 -20.041,2.914 -31.13,0.715c-1.562,-0.314 -3.165,0.146 -4.418,1.134c-4.529,3.577 -13.2,0.721 -13.022,-4.984c0.062,-2 1.238,-2.857 2.46,-3.766c2.11,-1.577 1.577,-4.899 -0.93,-5.698c-0.579,-0.188 -1.243,-0.475 -2.052,-0.982c-2.048,0.214 0.517,2.492 -1.045,3.656c-1.907,1.494 -4.659,2.126 -6.445,3.725c-0.685,0.611 -1.615,0.866 -2.529,0.751c-8.999,-1.112 -16.004,-0.229 -21.838,-3.431c-12.149,-6.665 -17.816,-25.651 -12.536,-40.736c2.43,-6.942 8.838,-17.069 13.581,-21.415c3.933,-3.604 9.125,-4.387 14.238,-6.409c0.601,-0.235 1.238,-0.365 1.881,-0.345c10.806,0.335 18.741,4.017 19.942,12.891c0.533,3.96 -1.891,6.968 3.108,8.488c2.267,-6.518 10.623,-11.214 19.32,-10.969c4.393,0.131 8.284,3.233 13.058,3.134c4.398,-0.083 8.013,-2.966 12.536,-3.134c6.842,-0.245 12.05,5.124 19.843,5.746c2.894,0.23 7.062,-1.698 10.446,-2.089c9.397,-1.077 19.619,2.45 26.633,0.522c7.323,-1.995 9.543,-10.008 15.205,-12.452c1.353,-0.585 2.491,-1.583 3.103,-2.92c0.193,-0.418 0.48,-0.736 1.018,-0.809c4.215,-2.435 14.5,-1.056 18.798,2.089c1.708,1.243 2.79,4.006 4.702,5.735c7.087,6.43 14.645,9.078 16.191,21.415" style="fill:#eff4f4;fill-rule:nonzero;"/><path d="M393.486,149.23c3.531,-10.494 16.459,5.651 10.207,11.01c-2.241,1.922 -5.161,-1.499 -2.978,-3.489c0.721,-0.653 1.552,-1.217 2.168,-1.776c0.047,-4.863 -5.73,-9.443 -9.397,-5.745" style="fill:#333;fill-rule:nonzero;"/><path d="M382.941,73.013c6.351,5.662 10.347,21.123 7.312,30.294c-2.763,8.347 -14.06,12.541 -24.037,13.492c-0.533,0.052 -0.977,-0.402 -0.924,-0.935c0.554,-5.714 0.371,-11.272 -4.811,-12.034c-4.628,-0.685 -10.776,3.949 -16.709,1.044c-3.896,-1.912 -3.964,-7.354 -10.969,-5.745c-8.409,1.927 -5.719,17.905 2.089,17.759c3.824,-0.079 4.028,-2.946 7.099,-4.592c0.141,-0.073 0.297,-0.109 0.455,-0.104c3.457,0.162 10.388,3.75 8.633,2.199c1.959,1.724 8.441,5.777 11.721,4.22c0.215,-0.099 0.465,-0.094 0.679,0c2.157,0.946 3.244,2.565 4.894,2.706c0.836,0.073 1.437,0.83 1.296,1.661c-1.619,9.731 -10.374,5.134 -22.241,6.957c-3.562,0.548 -6.821,2.105 -9.401,2.09c-6.367,-0.032 -14.328,-5.6 -22.977,-6.268c-10.749,-0.826 -17.937,3.755 -22.419,-2.748c-0.386,-0.559 -0.563,-1.237 -0.522,-1.917c0.084,-1.384 0.298,-2.867 0.888,-3.995c0.073,-0.142 0.173,-0.272 0.287,-0.387c2.576,-2.517 7.146,-1.619 10.923,-1.358c1.191,0.084 1.885,-1.322 1.091,-2.215c-5.97,-6.753 -10.473,-11.872 -8.53,-26.021c0.794,-5.788 3.62,-11.936 6.791,-15.148c6.361,-6.456 21.514,-9.532 29.766,-9.402c7.919,0.126 14.338,4.1 14.631,13.163c0.021,0.653 0.59,0.799 1.284,0.726c8.468,-0.877 12.923,-8.159 22.21,-7.621c3.646,0.209 8.503,1.515 11.491,4.179" style="fill:#f8d5e0;fill-rule:nonzero;"/><path d="M367.548,150.708c0.345,0.971 0.172,1.624 -0.219,2.377c-0.314,0.6 -0.956,0.966 -1.636,0.929c-0.955,-0.047 -1.587,-0.428 -2.162,-0.862c-0.235,-0.177 -0.397,-0.444 -0.433,-0.736c-0.314,-2.366 2.131,-3.213 3.839,-2.398c0.287,0.142 0.506,0.392 0.611,0.69" style="fill:#333;fill-rule:nonzero;"/><path d="M362.085,108.358c0.417,4.273 1.133,8.138 -2.554,8.347c-0.298,0.016 -2.147,-0.418 -2.44,-0.481c-2.151,-0.46 -3.06,-2.397 -5.098,-3.05c-0.026,-0.021 -0.057,-0.042 -0.099,-0.068c-0.125,-0.073 -0.266,-0.089 -0.412,-0.057c-1.196,-0.554 -3.677,-2.095 -2.486,-3.474c2.6,-2.241 9.673,-4.121 12.78,-1.797c0.183,0.136 0.288,0.356 0.309,0.58" style="fill:#f8d5e0;fill-rule:nonzero;"/><path d="M351.993,113.174c0.22,0.146 -0.02,0.094 -0.449,-0.099c0.078,0 0.152,0.01 0.241,0.031c0.073,0.021 0.14,0.042 0.208,0.068" style="fill:#f8d5e0;fill-rule:nonzero;"/><path d="M351.993,113.174c-0.068,-0.026 -0.135,-0.047 -0.208,-0.068c-0.089,-0.021 -0.163,-0.031 -0.241,-0.031l-0.005,0c-0.016,-0.011 -0.036,-0.021 -0.057,-0.027c0.146,-0.03 0.287,-0.015 0.412,0.058c0.042,0.026 0.074,0.047 0.099,0.068" style="fill:#f8d5e0;fill-rule:nonzero;"/><path d="M351.481,113.049c0.021,0.005 0.042,0.015 0.058,0.025c-0.083,0 -0.162,0.011 -0.235,0.043c0.058,-0.037 0.115,-0.058 0.177,-0.068" style="fill:#f8d5e0;fill-rule:nonzero;"/><path d="M351.304,113.117c-0.178,0.078 -0.339,0.224 -0.428,0.402c0.068,-0.189 0.219,-0.34 0.428,-0.402" style="fill:#f8d5e0;fill-rule:nonzero;"/><path d="M350.865,113.534c-0.11,0.277 -0.052,0.622 0.214,0.857c-0.319,-0.282 -0.339,-0.6 -0.214,-0.857" style="fill:#f8d5e0;fill-rule:nonzero;"/><path d="M343.349,106.932c0.47,1.123 1.436,2.46 -0.721,2.852c-3.583,0.804 -3.155,5.803 -8.159,4.983c-3.692,-0.606 -5.865,-5.944 -4.7,-9.402c1.942,-5.766 11.057,-2.856 13.58,1.567" style="fill:#f8d5e0;fill-rule:nonzero;"/><path d="M324.023,135.649c3.578,4.085 5.803,9.522 14.625,8.357c-9.548,2.983 -29.449,1.301 -31.015,-7.453c-0.006,-0.015 -0.006,-0.036 -0.011,-0.052c-0.047,-0.538 0.22,-1.076 0.7,-1.311c0.194,-0.089 0.402,-0.136 0.627,-0.131c0.272,0.006 0.527,0.141 0.721,0.34c3.985,4.011 8.691,7.662 16.442,8.085c0.261,-1.577 -4.967,-4.643 -3.656,-7.312c0.507,-1.045 1.16,-1.045 1.567,-0.523" style="fill:#333;fill-rule:nonzero;"/><path d="M323.522,164.126c1.635,2.188 3.364,3.067 3.181,7.156c-0.027,0.59 -0.355,1.129 -0.857,1.436c-1.708,1.066 -3.291,1.813 -4.92,2.899c-0.768,0.512 -1.197,1.4 -1.165,2.319c0.073,2.053 0.914,3.333 1.651,4.717c1.31,-1.128 4.053,-0.496 4.758,-2.23c1.019,4.439 -10.953,6.873 -11.522,0.292c-0.021,-0.204 0.24,-0.303 0.365,-0.146c0.872,1.086 2.022,1.891 3.265,2.606c1.593,-1.227 -0.831,-3.849 0.209,-5.395c0.094,-0.146 -0.016,-0.34 -0.188,-0.361c-2.628,-0.303 -2.769,-4.721 -4.377,-5.265c-0.559,-0.188 -1.066,-0.533 -1.317,-1.065c-0.632,-1.337 0.099,-2.581 0.497,-3.557c0.183,-0.444 0.522,-0.81 0.966,-0.998c3.212,-1.395 2.497,-3.755 7.751,-3.327c0.668,0.052 1.3,0.376 1.703,0.919" style="fill:#333;fill-rule:nonzero;"/><path d="M285.925,151.063c0.147,1.985 -0.293,3.374 -2.116,3.39c-4.413,-0.538 -0.903,-7.088 1.923,-3.86c0.115,0.131 0.177,0.298 0.193,0.47" style="fill:#333;fill-rule:nonzero;"/><path d="M244.035,148.493c0.303,0.345 -0.052,0.852 -0.491,0.711c-4.398,-1.395 -9.354,3.447 -7.312,8.111c0.95,0.371 2.031,0.611 2.867,1.092c1.807,1.039 0.225,3.86 -1.608,2.873c-6.801,-3.682 0.689,-19.389 6.544,-12.787" style="fill:#333;fill-rule:nonzero;"/></g></g><path d="M291.875,168.678c0,2.003 -1.782,3.627 -3.98,3.627c-2.199,0 -3.981,-1.624 -3.981,-3.627c0,-2.004 1.782,-3.627 3.981,-3.627c2.198,0 3.98,1.623 3.98,3.627" style="fill:#f8d5e0;fill-rule:nonzero;"/><path d="M363.097,168.678c0,2.003 -1.782,3.627 -3.981,3.627c-2.199,0 -3.981,-1.624 -3.981,-3.627c0,-2.004 1.782,-3.627 3.981,-3.627c2.199,0 3.981,1.623 3.981,3.627" style="fill:#f8d5e0;fill-rule:nonzero;"/><path d="M262.088,240.066c-0.611,0.271 -1.203,0.629 -1.776,1.074c-0.573,0.445 -1.153,0.933 -1.738,1.462c-0.586,0.529 -1.194,1.087 -1.823,1.675c-0.629,0.587 -1.308,1.133 -2.037,1.639c-0.729,0.505 -1.524,0.988 -2.384,1.448c-0.859,0.46 -1.81,0.863 -2.85,1.21c-1.041,0.346 -2.187,0.622 -3.44,0.826c-1.252,0.205 -2.638,0.307 -4.159,0.307c-1.682,0 -3.199,-0.335 -4.551,-1.005c-1.352,-0.67 -2.508,-1.574 -3.468,-2.711c-0.959,-1.137 -1.697,-2.459 -2.215,-3.964c-0.517,-1.506 -0.775,-3.089 -0.775,-4.749c0,-1.154 0.124,-2.393 0.374,-3.717c0.249,-1.324 0.607,-2.673 1.074,-4.047c0.468,-1.374 1.038,-2.745 1.711,-4.112c0.673,-1.368 1.436,-2.679 2.29,-3.934c0.853,-1.255 1.791,-2.419 2.813,-3.492c1.022,-1.072 2.112,-2.007 3.271,-2.804c1.159,-0.797 2.38,-1.421 3.664,-1.873c1.283,-0.451 2.616,-0.677 4,-0.677c0.897,0 1.807,0.159 2.729,0.476c0.922,0.318 1.751,0.807 2.486,1.468c0.735,0.66 1.336,1.495 1.804,2.504c0.467,1.01 0.701,2.2 0.701,3.571c0,0.922 -0.147,1.853 -0.44,2.794c-0.293,0.941 -0.694,1.844 -1.205,2.71c-0.511,0.867 -1.113,1.68 -1.804,2.44c-0.692,0.76 -1.436,1.417 -2.234,1.972c-0.797,0.554 -1.626,0.994 -2.486,1.318c-0.86,0.324 -1.72,0.486 -2.58,0.486c-1.133,0 -1.981,-0.153 -2.542,-0.458c-0.56,-0.306 -0.841,-0.745 -0.841,-1.318c0,-0.1 -0.003,-0.218 -0.009,-0.355c-0.006,-0.137 -0.009,-0.281 -0.009,-0.43c0,-0.224 0.012,-0.458 0.037,-0.701c0.025,-0.243 0.075,-0.464 0.149,-0.664c0.075,-0.199 0.184,-0.361 0.328,-0.486c0.143,-0.124 0.339,-0.187 0.588,-0.187c0.15,0 0.281,0.022 0.393,0.066c0.112,0.043 0.237,0.09 0.374,0.14c0.137,0.05 0.302,0.097 0.495,0.14c0.193,0.044 0.439,0.066 0.738,0.066c0.798,0 1.605,-0.175 2.421,-0.524c0.816,-0.349 1.552,-0.841 2.206,-1.476c0.654,-0.636 1.19,-1.393 1.607,-2.272c0.418,-0.878 0.626,-1.847 0.626,-2.906c0,-0.561 -0.074,-1.094 -0.224,-1.598c-0.149,-0.505 -0.392,-0.947 -0.729,-1.328c-0.336,-0.38 -0.769,-0.685 -1.299,-0.915c-0.53,-0.231 -1.174,-0.346 -1.935,-0.346c-0.897,0 -1.772,0.198 -2.626,0.594c-0.853,0.396 -1.673,0.933 -2.458,1.612c-0.785,0.678 -1.53,1.483 -2.234,2.413c-0.704,0.93 -1.355,1.926 -1.953,2.988c-0.598,1.062 -1.137,2.168 -1.617,3.318c-0.48,1.15 -0.888,2.297 -1.224,3.441c-0.337,1.143 -0.595,2.252 -0.776,3.327c-0.181,1.075 -0.271,2.064 -0.271,2.97c0,1.329 0.159,2.487 0.477,3.475c0.318,0.987 0.769,1.81 1.355,2.468c0.586,0.658 1.302,1.149 2.15,1.471c0.847,0.323 1.8,0.484 2.859,0.484c1.321,0 2.552,-0.171 3.692,-0.513c1.14,-0.342 2.228,-0.79 3.262,-1.345c1.034,-0.555 2.034,-1.181 3,-1.878c0.966,-0.697 1.932,-1.397 2.897,-2.101c0.966,-0.703 1.951,-1.374 2.954,-2.013c1.003,-0.639 2.065,-1.178 3.187,-1.617l0,4.163Z" style="fill:#333;fill-rule:nonzero;"/><path d="M271.153,231.706c0.362,0.723 0.633,1.486 0.814,2.29c0.18,0.804 0.271,1.711 0.271,2.72c0,0.735 -0.081,1.477 -0.243,2.224c-0.162,0.748 -0.396,1.471 -0.701,2.169c-0.306,0.697 -0.68,1.352 -1.122,1.962c-0.442,0.611 -0.947,1.141 -1.514,1.589c-0.567,0.449 -1.187,0.804 -1.86,1.066c-0.673,0.261 -1.389,0.392 -2.149,0.392c-1.097,0 -2.035,-0.24 -2.814,-0.72c-0.778,-0.479 -1.417,-1.105 -1.916,-1.878c-0.498,-0.773 -0.863,-1.645 -1.093,-2.617c-0.231,-0.972 -0.346,-1.956 -0.346,-2.953c0,-1.645 0.206,-3.063 0.617,-4.253c0.411,-1.19 1,-2.224 1.766,-3.103c0.767,-0.878 1.704,-1.57 2.814,-2.075c1.109,-0.504 2.355,-0.757 3.738,-0.757c1.184,0 2.293,0.184 3.327,0.552c1.035,0.367 2.003,0.86 2.907,1.476c0.903,0.617 1.744,1.393 2.523,2.328c0.779,0.934 1.505,1.825 2.178,2.673l-0.355,2.635c-0.337,-0.448 -0.792,-0.934 -1.365,-1.458c-0.573,-0.523 -1.18,-1.103 -1.822,-1.738c-0.642,-0.636 -1.274,-1.175 -1.897,-1.617c-0.624,-0.442 -1.159,-0.813 -1.608,-1.112l-0.15,0.205Zm-5.775,10.823c0.423,0 0.834,-0.215 1.233,-0.645c0.399,-0.43 0.748,-0.972 1.047,-1.626c0.299,-0.654 0.539,-1.445 0.72,-2.374c0.18,-0.928 0.271,-1.754 0.271,-2.477c0,-0.573 -0.044,-1.105 -0.131,-1.598c-0.087,-0.492 -0.218,-0.919 -0.393,-1.28c-0.174,-0.362 -0.398,-0.648 -0.673,-0.86c-0.274,-0.212 -0.604,-0.318 -0.99,-0.318c-0.511,0 -0.997,0.218 -1.458,0.654c-0.461,0.437 -0.866,0.994 -1.215,1.673c-0.349,0.68 -0.623,1.43 -0.823,2.253c-0.199,0.822 -0.299,1.751 -0.299,2.785c0,0.523 0.05,1.016 0.15,1.477c0.099,0.461 0.255,0.863 0.467,1.205c0.212,0.343 0.492,0.617 0.841,0.823c0.349,0.205 0.767,0.308 1.253,0.308Z" style="fill:#333;fill-rule:nonzero;"/><path d="M295.414,241.486c-0.286,0.403 -0.67,0.876 -1.149,1.418c-0.48,0.542 -1.019,1.058 -1.617,1.55c-0.598,0.491 -1.24,0.907 -1.926,1.247c-0.685,0.34 -1.37,0.511 -2.056,0.511c-0.827,0 -1.518,-0.263 -2.07,-0.787c-0.553,-0.524 -1.031,-1.286 -1.432,-2.285c-0.302,0.345 -0.673,0.697 -1.112,1.055c-0.44,0.357 -0.92,0.681 -1.442,0.971c-0.521,0.29 -1.064,0.527 -1.63,0.712c-0.565,0.185 -1.13,0.277 -1.695,0.277c-0.599,0 -1.181,-0.122 -1.748,-0.367c-0.567,-0.245 -1.069,-0.597 -1.505,-1.056c-0.436,-0.459 -0.785,-1.018 -1.047,-1.679c-0.261,-0.66 -0.392,-1.404 -0.392,-2.234c0,-0.931 0.131,-1.888 0.395,-2.869c0.263,-0.98 0.67,-2.042 1.222,-3.185c0.552,-1.142 1.144,-2.129 1.777,-2.961c0.633,-0.832 1.325,-1.559 2.078,-2.18c0.752,-0.62 1.545,-1.114 2.378,-1.48c0.834,-0.367 1.683,-0.55 2.548,-0.55c0.289,0 0.514,0.057 0.677,0.17c0.163,0.113 0.298,0.243 0.404,0.387c0.107,0.145 0.21,0.287 0.311,0.425c0.1,0.139 0.225,0.24 0.376,0.303c0.15,0.063 0.304,0.103 0.46,0.122c0.157,0.019 0.317,0.029 0.48,0.029c0.138,0 0.279,-0.004 0.423,-0.01c0.144,-0.006 0.285,-0.009 0.423,-0.009c0.188,0 0.364,0.019 0.527,0.056c0.163,0.038 0.307,0.12 0.432,0.246c0.125,0.126 0.221,0.302 0.29,0.529c0.068,0.227 0.103,0.535 0.103,0.925c0,0.596 -0.063,1.257 -0.187,1.983c-0.125,0.726 -0.267,1.47 -0.428,2.232c-0.161,0.762 -0.344,1.63 -0.55,2.605c-0.206,0.976 -0.309,1.798 -0.309,2.466c0,0.571 0.053,1.017 0.159,1.339c0.106,0.322 0.334,0.483 0.682,0.483c0.262,0 0.536,-0.065 0.823,-0.195c0.287,-0.129 0.576,-0.299 0.869,-0.509c0.293,-0.21 0.586,-0.448 0.879,-0.714c0.292,-0.265 0.57,-0.54 0.831,-0.824c0.611,-0.667 1.228,-1.421 1.851,-2.261l0.897,4.114Zm-16.036,-1.464c0,0.321 0.022,0.633 0.066,0.935c0.043,0.302 0.121,0.572 0.234,0.81c0.112,0.237 0.262,0.43 0.449,0.578c0.187,0.148 0.424,0.222 0.711,0.222c0.462,0 0.88,-0.201 1.255,-0.603c0.374,-0.401 0.699,-0.884 0.974,-1.449c0.274,-0.564 0.496,-1.148 0.664,-1.75c0.169,-0.602 0.278,-1.104 0.328,-1.505l1.394,-6.077c-0.511,0 -1.009,0.127 -1.495,0.38c-0.486,0.253 -0.944,0.596 -1.374,1.028c-0.43,0.433 -0.826,0.927 -1.187,1.483c-0.362,0.556 -0.717,1.241 -1.066,2.056c-0.349,0.816 -0.595,1.532 -0.738,2.15c-0.143,0.618 -0.215,1.198 -0.215,1.742Z" style="fill:#333;fill-rule:nonzero;"/><path d="M298.071,246.118c-0.67,0 -1.294,-0.291 -1.871,-0.874c-0.578,-0.583 -1.081,-1.365 -1.509,-2.346c-0.428,-0.981 -0.763,-2.119 -1.005,-3.413c-0.243,-1.294 -0.364,-2.652 -0.364,-4.075c0,-1.223 0.18,-2.855 0.54,-4.897c0.359,-2.042 0.539,-3.063 0.539,-3.062c-0.001,0 0.272,-1.02 0.816,-3.059c0.544,-2.04 1.09,-3.675 1.638,-4.907c0.547,-1.232 1.142,-2.383 1.784,-3.453c0.642,-1.07 1.315,-2.003 2.02,-2.798c0.705,-0.795 1.441,-1.42 2.209,-1.875c0.768,-0.454 1.548,-0.681 2.341,-0.681c0.577,0 1.054,0.11 1.429,0.33c0.376,0.22 0.671,0.511 0.886,0.872c0.215,0.362 0.366,0.771 0.453,1.229c0.087,0.457 0.131,0.923 0.131,1.397c0,1.178 -0.139,2.378 -0.418,3.6c-0.278,1.221 -0.654,2.449 -1.127,3.684c-0.473,1.234 -1.02,2.471 -1.642,3.712c-0.622,1.241 -1.27,2.472 -1.944,3.694c-0.673,1.221 -1.35,2.424 -2.031,3.608c-0.68,1.185 -1.308,2.342 -1.883,3.473c-0.062,0.126 -0.128,0.289 -0.197,0.49c-0.068,0.201 -0.134,0.418 -0.196,0.651c-0.063,0.232 -0.125,0.48 -0.188,0.744c-0.062,0.264 -0.113,0.522 -0.15,0.773l0,0.264c0,0.327 0.034,0.644 0.103,0.952c0.069,0.308 0.153,0.584 0.253,0.829c0.1,0.246 0.207,0.44 0.319,0.585c0.112,0.144 0.219,0.217 0.319,0.217c0.242,0 0.52,-0.051 0.832,-0.151c0.313,-0.101 0.645,-0.236 0.996,-0.406c0.35,-0.169 0.711,-0.364 1.081,-0.584c0.37,-0.22 0.727,-0.443 1.072,-0.669c0.804,-0.528 1.646,-1.137 2.526,-1.828l1.651,3.94c-1.142,0.758 -2.272,1.433 -3.388,2.026c-0.488,0.248 -0.991,0.494 -1.511,0.737c-0.52,0.243 -1.043,0.459 -1.569,0.649c-0.526,0.19 -1.039,0.341 -1.54,0.453c-0.5,0.113 -0.969,0.169 -1.405,0.169Zm0.018,-14.817c0.562,-1.006 1.159,-2.137 1.791,-3.393c0.631,-1.257 1.228,-2.551 1.791,-3.883c0.562,-1.332 1.05,-2.661 1.462,-3.987c0.413,-1.326 0.675,-2.561 0.788,-3.704c0,-0.365 -0.009,-0.676 -0.027,-0.933c-0.017,-0.258 -0.073,-0.387 -0.168,-0.387c-0.342,0 -0.711,0.237 -1.107,0.71c-0.396,0.474 -0.791,1.114 -1.187,1.922c-0.395,0.808 -0.868,2.122 -1.417,3.942c-0.549,1.821 -0.824,2.731 -0.824,2.731c0,0.001 -0.168,0.845 -0.503,2.534c-0.335,1.688 -0.535,3.171 -0.599,4.448Z" style="fill:#333;fill-rule:nonzero;"/><path d="M323.602,241.486c-0.287,0.403 -0.67,0.876 -1.15,1.418c-0.479,0.542 -1.018,1.058 -1.616,1.55c-0.599,0.491 -1.24,0.907 -1.926,1.247c-0.685,0.34 -1.37,0.511 -2.056,0.511c-0.828,0 -1.518,-0.263 -2.071,-0.787c-0.552,-0.524 -1.03,-1.286 -1.432,-2.285c-0.301,0.345 -0.672,0.697 -1.111,1.055c-0.44,0.357 -0.921,0.681 -1.442,0.971c-0.521,0.29 -1.064,0.527 -1.63,0.712c-0.565,0.185 -1.13,0.277 -1.696,0.277c-0.598,0 -1.18,-0.122 -1.747,-0.367c-0.567,-0.245 -1.069,-0.597 -1.505,-1.056c-0.436,-0.459 -0.785,-1.018 -1.047,-1.679c-0.261,-0.66 -0.392,-1.404 -0.392,-2.234c0,-0.931 0.131,-1.888 0.395,-2.869c0.263,-0.98 0.67,-2.042 1.222,-3.185c0.551,-1.142 1.144,-2.129 1.777,-2.961c0.633,-0.832 1.325,-1.559 2.078,-2.18c0.752,-0.62 1.545,-1.114 2.378,-1.48c0.834,-0.367 1.683,-0.55 2.548,-0.55c0.288,0 0.514,0.057 0.677,0.17c0.163,0.113 0.298,0.243 0.404,0.387c0.107,0.145 0.21,0.287 0.31,0.425c0.101,0.139 0.226,0.24 0.377,0.303c0.15,0.063 0.304,0.103 0.46,0.122c0.157,0.019 0.317,0.029 0.48,0.029c0.138,0 0.279,-0.004 0.423,-0.01c0.144,-0.006 0.285,-0.009 0.423,-0.009c0.188,0 0.364,0.019 0.527,0.056c0.163,0.038 0.306,0.12 0.431,0.246c0.125,0.126 0.222,0.302 0.291,0.529c0.068,0.227 0.103,0.535 0.103,0.925c0,0.596 -0.063,1.257 -0.187,1.983c-0.125,0.726 -0.268,1.47 -0.428,2.232c-0.161,0.762 -0.345,1.63 -0.55,2.605c-0.206,0.976 -0.309,1.798 -0.309,2.466c0,0.571 0.053,1.017 0.159,1.339c0.106,0.322 0.333,0.483 0.682,0.483c0.262,0 0.536,-0.065 0.823,-0.195c0.286,-0.129 0.576,-0.299 0.869,-0.509c0.293,-0.21 0.586,-0.448 0.878,-0.714c0.293,-0.265 0.571,-0.54 0.832,-0.824c0.611,-0.667 1.228,-1.421 1.851,-2.261l0.897,4.114Zm-16.036,-1.464c0,0.321 0.022,0.633 0.065,0.935c0.044,0.302 0.122,0.572 0.235,0.81c0.112,0.237 0.262,0.43 0.449,0.578c0.187,0.148 0.424,0.222 0.711,0.222c0.462,0 0.88,-0.201 1.255,-0.603c0.374,-0.401 0.699,-0.884 0.974,-1.449c0.274,-0.564 0.496,-1.148 0.664,-1.75c0.169,-0.602 0.278,-1.104 0.328,-1.505l1.394,-6.077c-0.511,0 -1.01,0.127 -1.496,0.38c-0.486,0.253 -0.943,0.596 -1.373,1.028c-0.43,0.433 -0.826,0.927 -1.187,1.483c-0.362,0.556 -0.717,1.241 -1.066,2.056c-0.349,0.816 -0.595,1.532 -0.738,2.15c-0.143,0.618 -0.215,1.198 -0.215,1.742Z" style="fill:#333;fill-rule:nonzero;"/><path d="M340.094,213.668c2.038,0 3.851,0.168 5.439,0.503c1.587,0.335 2.978,0.801 4.172,1.397c1.194,0.596 2.204,1.307 3.029,2.132c0.825,0.826 1.494,1.726 2.006,2.7c0.513,0.975 0.885,2.008 1.116,3.101c0.231,1.092 0.347,2.209 0.347,3.352c0,1.573 -0.175,3.278 -0.525,5.115c-0.35,1.836 -0.856,3.51 -1.519,5.021c-0.662,1.512 -1.478,2.929 -2.447,4.253c-0.969,1.324 -2.078,2.48 -3.328,3.467c-1.25,0.986 -2.625,1.764 -4.125,2.332c-1.501,0.569 -3.119,0.853 -4.857,0.853c-0.58,0 -1.172,-0.045 -1.777,-0.134c-0.604,-0.089 -1.19,-0.21 -1.758,-0.362c-0.568,-0.153 -1.104,-0.325 -1.61,-0.516c-0.506,-0.191 -0.95,-0.388 -1.333,-0.592c-0.16,-0.051 -0.287,-0.111 -0.379,-0.181c-0.093,-0.07 -0.164,-0.153 -0.213,-0.248c-0.049,-0.096 -0.08,-0.213 -0.093,-0.353c-0.012,-0.14 -0.018,-0.318 -0.018,-0.535c0,-2.067 0.052,-4.183 0.156,-6.35c0.105,-2.166 0.317,-4.392 0.638,-6.677c0.321,-2.285 0.783,-4.302 1.388,-6.051c0.604,-1.75 1.406,-3.365 2.406,-4.847c0.246,-0.361 1.042,-0.542 2.387,-0.542c1.061,0 1.822,0.386 2.283,1.157c-0.574,0.772 -1.054,1.631 -1.441,2.576c-0.387,0.946 -0.711,1.876 -0.973,2.791c-0.262,0.915 -0.481,1.913 -0.655,2.996c-0.337,2.09 -0.499,3.148 -0.487,3.173c0.038,0.025 -0.106,1.219 -0.43,3.584c-0.125,0.821 -0.222,1.537 -0.29,2.146c-0.069,0.61 -0.119,1.145 -0.15,1.606c-0.031,0.46 -0.047,0.908 -0.047,1.343c0,0.461 0.016,0.846 0.047,1.158c0.031,0.311 0.106,0.56 0.224,0.746c0.119,0.187 0.3,0.321 0.543,0.402c0.244,0.081 0.571,0.121 0.983,0.121c1.248,0 2.433,-0.246 3.556,-0.737c1.123,-0.492 2.159,-1.151 3.107,-1.979c0.948,-0.827 1.8,-1.789 2.554,-2.884c0.755,-1.095 1.398,-2.361 1.928,-3.798c0.531,-1.438 0.939,-2.788 1.226,-4.051c0.287,-1.263 0.431,-2.479 0.431,-3.649c0,-1.443 -0.237,-2.734 -0.711,-3.873c-0.475,-1.139 -1.139,-2.103 -1.994,-2.893c-0.855,-0.79 -1.881,-1.394 -3.079,-1.811c-1.197,-0.417 -2.514,-0.625 -3.949,-0.625c-1.048,0 -2.086,0.063 -3.114,0.188c-1.028,0.125 -1.981,0.319 -2.86,0.582c-0.879,0.263 -1.651,0.598 -2.318,1.005c-0.667,0.407 -1.168,0.892 -1.505,1.456c-0.909,1.415 -1.657,2.507 -2.243,3.278c-0.585,0.77 -1.078,1.155 -1.476,1.155c-0.549,0 -0.823,-0.629 -0.823,-1.888c0,-1.221 0.159,-2.318 0.477,-3.29c0.318,-0.972 0.76,-1.835 1.327,-2.589c0.567,-0.754 1.24,-1.395 2.019,-1.925c0.779,-0.53 1.632,-0.966 2.561,-1.309c0.928,-0.342 1.916,-0.595 2.962,-0.757c1.047,-0.162 2.119,-0.243 3.215,-0.243Z" style="fill:#333;fill-rule:nonzero;"/><path d="M369.96,231.706c0.362,0.723 0.633,1.486 0.814,2.29c0.18,0.804 0.271,1.711 0.271,2.72c0,0.735 -0.081,1.477 -0.243,2.224c-0.162,0.748 -0.396,1.471 -0.701,2.169c-0.306,0.697 -0.679,1.352 -1.122,1.962c-0.442,0.611 -0.947,1.141 -1.514,1.589c-0.567,0.449 -1.187,0.804 -1.86,1.066c-0.673,0.261 -1.389,0.392 -2.149,0.392c-1.097,0 -2.035,-0.24 -2.814,-0.72c-0.778,-0.479 -1.417,-1.105 -1.916,-1.878c-0.498,-0.773 -0.863,-1.645 -1.093,-2.617c-0.231,-0.972 -0.346,-1.956 -0.346,-2.953c0,-1.645 0.206,-3.063 0.617,-4.253c0.411,-1.19 1,-2.224 1.766,-3.103c0.767,-0.878 1.705,-1.57 2.814,-2.075c1.109,-0.504 2.355,-0.757 3.738,-0.757c1.184,0 2.293,0.184 3.327,0.552c1.035,0.367 2.003,0.86 2.907,1.476c0.903,0.617 1.744,1.393 2.523,2.328c0.779,0.934 1.505,1.825 2.178,2.673l-0.355,2.635c-0.337,-0.448 -0.791,-0.934 -1.365,-1.458c-0.573,-0.523 -1.18,-1.103 -1.822,-1.738c-0.642,-0.636 -1.274,-1.175 -1.897,-1.617c-0.624,-0.442 -1.159,-0.813 -1.608,-1.112l-0.15,0.205Zm-5.775,10.823c0.423,0 0.834,-0.215 1.233,-0.645c0.399,-0.43 0.748,-0.972 1.047,-1.626c0.299,-0.654 0.539,-1.445 0.72,-2.374c0.18,-0.928 0.271,-1.754 0.271,-2.477c0,-0.573 -0.044,-1.105 -0.131,-1.598c-0.087,-0.492 -0.218,-0.919 -0.393,-1.28c-0.174,-0.362 -0.398,-0.648 -0.673,-0.86c-0.274,-0.212 -0.604,-0.318 -0.99,-0.318c-0.511,0 -0.997,0.218 -1.458,0.654c-0.461,0.437 -0.866,0.994 -1.215,1.673c-0.349,0.68 -0.623,1.43 -0.823,2.253c-0.199,0.822 -0.299,1.751 -0.299,2.785c0,0.523 0.05,1.016 0.15,1.477c0.099,0.461 0.255,0.863 0.467,1.205c0.212,0.343 0.492,0.617 0.841,0.823c0.349,0.205 0.767,0.308 1.253,0.308Z" style="fill:#333;fill-rule:nonzero;"/><path d="M380.418,246.118c-1.154,0 -2.167,-0.212 -3.039,-0.635c-0.871,-0.424 -1.602,-0.991 -2.192,-1.701c-0.589,-0.711 -1.035,-1.533 -1.336,-2.468c-0.301,-0.934 -0.451,-1.906 -0.451,-2.916c0,-0.723 0.125,-1.589 0.376,-2.598c0.25,-1.009 0.523,-1.891 0.817,-2.645c0.294,-0.754 0.658,-1.474 1.09,-2.159c0.432,-0.685 0.933,-1.287 1.503,-1.804c0.57,-0.517 1.206,-0.928 1.907,-1.233c0.702,-0.306 1.472,-0.458 2.311,-0.458c0.756,0 1.456,0.109 2.099,0.327c0.643,0.218 1.193,0.52 1.65,0.906c0.458,0.387 0.816,0.845 1.074,1.374c0.259,0.53 0.388,1.1 0.388,1.711c0,0.423 -0.06,0.841 -0.182,1.252c-0.121,0.411 -0.357,0.894 -0.708,1.449c-0.35,0.554 -0.691,0.931 -1.021,1.13c-0.331,0.2 -0.705,0.3 -1.123,0.3c-0.63,0 -1.037,-0.156 -1.221,-0.468c-0.302,-0.486 -0.397,-0.916 -0.286,-1.29c0.038,-0.199 0.149,-0.66 0.335,-1.383c0.025,-0.099 0.032,-0.324 0.019,-0.673c0,-0.299 -0.031,-0.548 -0.093,-0.747c-0.062,-0.2 -0.198,-0.299 -0.409,-0.299c-0.509,0 -0.943,0.121 -1.303,0.364c-0.36,0.243 -0.667,0.561 -0.921,0.953c-0.255,0.393 -0.506,0.947 -0.754,1.664c-0.248,0.717 -0.425,1.318 -0.53,1.804c-0.106,0.486 -0.171,0.95 -0.196,1.392c-0.025,0.443 -0.037,0.813 -0.037,1.113c0,0.448 0.04,0.915 0.121,1.401c0.081,0.486 0.242,0.932 0.484,1.337c0.242,0.405 0.555,0.741 0.94,1.009c0.384,0.268 0.881,0.402 1.488,0.402c0.599,0 1.259,-0.184 1.982,-0.551c0.723,-0.368 1.448,-0.832 2.177,-1.393c0.729,-0.561 1.424,-1.177 2.085,-1.85c0.66,-0.673 1.227,-1.309 1.701,-1.907l1.289,2.168c-0.934,1.334 -1.944,2.524 -3.028,3.571c-0.461,0.448 -0.962,0.884 -1.504,1.308c-0.543,0.424 -1.11,0.801 -1.701,1.131c-0.592,0.33 -1.209,0.598 -1.851,0.804c-0.642,0.205 -1.292,0.308 -1.95,0.308Z" style="fill:#333;fill-rule:nonzero;"/><path d="M394.961,246.118c-1.163,0 -2.181,-0.216 -3.054,-0.647c-0.873,-0.431 -1.6,-1.011 -2.182,-1.741c-0.582,-0.729 -1.018,-1.572 -1.309,-2.53c-0.291,-0.958 -0.436,-1.963 -0.436,-3.016c0,-0.689 0.13,-1.509 0.39,-2.463c0.261,-0.953 0.53,-1.798 0.809,-2.536c0.279,-0.738 0.629,-1.443 1.05,-2.113c0.422,-0.67 0.915,-1.26 1.479,-1.771c0.564,-0.51 1.196,-0.916 1.896,-1.218c0.7,-0.301 1.478,-0.451 2.333,-0.451c0.699,0 1.347,0.112 1.946,0.336c0.599,0.224 1.12,0.538 1.563,0.942c0.443,0.405 0.789,0.893 1.038,1.466c0.25,0.572 0.375,1.213 0.375,1.923c0,0.755 -0.253,1.602 -0.759,2.54c-0.506,0.938 -1.096,1.743 -1.77,2.413c-0.675,0.67 -1.477,1.267 -2.407,1.791c-0.931,0.524 -1.939,0.932 -3.025,1.225c0.187,0.329 0.372,0.603 0.553,0.822c0.181,0.22 0.366,0.39 0.553,0.512c0.188,0.122 0.385,0.207 0.591,0.256c0.207,0.049 0.429,0.073 0.667,0.073c0.747,0 1.535,-0.146 2.364,-0.439c0.829,-0.292 1.636,-0.658 2.421,-1.096c0.785,-0.439 1.526,-0.917 2.224,-1.435c0.698,-0.518 1.29,-1.008 1.776,-1.471l2.411,2.449c-1.096,1.168 -2.262,2.201 -3.495,3.099c-0.536,0.385 -1.112,0.764 -1.729,1.136c-0.617,0.372 -1.265,0.703 -1.944,0.991c-0.679,0.289 -1.384,0.52 -2.113,0.693c-0.729,0.173 -1.467,0.26 -2.216,0.26Zm-2.495,-8.903c0.45,0 0.941,-0.112 1.473,-0.338c0.531,-0.225 1.025,-0.514 1.482,-0.868c0.457,-0.353 0.904,-0.829 1.342,-1.426c0.437,-0.597 0.656,-1.09 0.656,-1.48c0,-0.548 -0.103,-0.999 -0.309,-1.352c-0.207,-0.354 -0.46,-0.531 -0.76,-0.531c-0.538,0 -0.998,0.098 -1.379,0.293c-0.382,0.195 -0.701,0.448 -0.957,0.758c-0.257,0.311 -0.463,0.664 -0.619,1.06c-0.157,0.397 -0.338,0.887 -0.544,1.472c-0.207,0.585 -0.323,1.066 -0.348,1.444c-0.025,0.377 -0.037,0.7 -0.037,0.968Z" style="fill:#333;fill-rule:nonzero;"/><path d="M402.246,239.063c0.698,-0.604 1.265,-1.108 1.701,-1.511c0.436,-0.403 0.872,-0.872 1.308,-1.408c0.436,-0.535 0.782,-0.973 1.038,-1.313c0.255,-0.34 0.557,-0.743 0.906,-1.209c0.349,-0.466 0.773,-1.036 1.271,-1.71c0.499,-0.674 1.147,-1.515 1.944,-2.523c0.162,-0.226 0.343,-0.447 0.542,-0.661c0.2,-0.214 0.421,-0.406 0.664,-0.576c0.243,-0.17 0.511,-0.309 0.804,-0.416c0.292,-0.107 0.62,-0.161 0.981,-0.161c0.599,0 1.06,0.067 1.384,0.199c0.324,0.132 0.561,0.293 0.71,0.482c0.15,0.189 0.237,0.387 0.262,0.595c0.025,0.208 0.037,0.387 0.037,0.538c0,0.303 -0.118,0.636 -0.355,1.002c-0.236,0.365 -0.498,0.718 -0.785,1.058c-0.286,0.34 -0.557,0.652 -0.813,0.935c-0.255,0.284 -0.402,0.495 -0.44,0.633c0,0.391 0.029,0.746 0.086,1.068c0.057,0.321 0.133,0.636 0.229,0.944c0.095,0.309 0.193,0.636 0.295,0.983c0.102,0.346 0.199,0.746 0.293,1.2c0.093,0.453 0.106,1.077 0.037,1.87c-0.068,0.794 -0.103,1.594 -0.103,2.4c0.449,-0.303 0.932,-0.577 1.449,-0.822c0.517,-0.246 1.056,-0.501 1.617,-0.765c0.561,-0.265 1.137,-0.558 1.729,-0.879c0.592,-0.321 1.187,-0.708 1.785,-1.162l0.019,4.232c-0.773,0.577 -1.667,1.118 -2.683,1.623c-1.015,0.504 -2.083,0.949 -3.203,1.334c-1.121,0.384 -2.251,0.687 -3.391,0.91c-1.14,0.222 -2.221,0.333 -3.243,0.333c-0.736,0 -1.421,-0.065 -2.056,-0.196c-0.636,-0.132 -1.194,-0.337 -1.673,-0.617c-0.48,-0.28 -0.87,-0.647 -1.169,-1.1c-0.299,-0.453 -0.479,-1.001 -0.542,-1.644c-0.174,0.037 -0.346,0.063 -0.514,0.075c-0.168,0.013 -0.333,0.019 -0.495,0.019c-0.2,0 -0.386,-0.006 -0.561,-0.019c-0.174,-0.012 -0.324,-0.059 -0.449,-0.141c-0.124,-0.082 -0.224,-0.214 -0.299,-0.397c-0.074,-0.183 -0.112,-0.444 -0.112,-0.784c0,-0.303 0.075,-0.583 0.225,-0.841c0.149,-0.258 0.324,-0.488 0.523,-0.69c0.199,-0.201 0.399,-0.377 0.598,-0.529c0.199,-0.151 0.349,-0.271 0.449,-0.359Zm2.332,2.419c0.15,0 0.315,0.094 0.496,0.283c0.18,0.189 0.389,0.397 0.626,0.624c0.237,0.226 0.511,0.434 0.822,0.623c0.312,0.189 0.667,0.284 1.066,0.284c0.486,0 0.888,-0.082 1.206,-0.246c0.317,-0.164 0.57,-0.381 0.757,-0.652c0.186,-0.271 0.317,-0.586 0.392,-0.945c0.075,-0.359 0.112,-0.733 0.112,-1.124c0,-0.34 -0.022,-0.686 -0.065,-1.039c-0.044,-0.353 -0.038,-0.79 0.019,-1.313c0.056,-0.523 0.043,-0.926 -0.038,-1.21c-0.081,-0.283 -0.153,-0.525 -0.215,-0.727l-5.178,5.442Z" style="fill:#333;fill-rule:nonzero;"/></g></svg>