<?xml version="1.0" encoding="UTF-8" standalone="no"?>
<!DOCTYPE svg PUBLIC "-//W3C//DTD SVG 1.1//EN" "http://www.w3.org/Graphics/SVG/1.1/DTD/svg11.dtd">
<svg width="100%" height="100%" viewBox="0 0 400 400" version="1.1" xmlns="http://www.w3.org/2000/svg" xmlns:xlink="http://www.w3.org/1999/xlink" xml:space="preserve" style="fill-rule:evenodd;clip-rule:evenodd;stroke-linejoin:round;stroke-miterlimit:1.41421;">
    <g transform="matrix(0.851174,0,0,0.861911,34.1822,28.2287)">
        <g transform="matrix(1,0,0,1,-104,-80)">
            <clipPath id="_clip1">
                <rect x="125.382" y="119.377" width="349.402" height="223.699"/>
            </clipPath>
            <g clip-path="url(#_clip1)">
                <path d="M330.407,198.421C333.827,197.8 332.295,195.68 331.55,193.9C327.55,186.887 313.101,182.274 310.021,191.416C308.174,196.897 311.619,205.36 317.473,206.32C325.406,207.62 324.727,199.696 330.407,198.421M459.547,296.013C467.918,284.039 475.006,272.339 472.795,254.619C470.344,235.061 458.363,230.863 447.126,220.67C444.096,217.929 442.382,213.549 439.674,211.578C432.859,206.594 416.555,204.408 409.873,208.266C409.02,208.382 408.565,208.887 408.258,209.55C407.29,211.669 405.485,213.251 403.34,214.178C394.364,218.054 390.845,230.756 379.236,233.919C368.116,236.974 351.911,231.385 337.015,233.091C331.649,233.712 325.041,236.767 320.454,236.403C308.1,235.417 299.844,226.905 288.997,227.294C281.826,227.559 276.096,232.13 269.124,232.263C261.556,232.42 255.387,227.501 248.424,227.294C234.637,226.905 221.388,234.349 217.795,244.683C209.871,242.274 213.713,237.504 212.868,231.228C210.964,217.159 198.386,211.322 181.254,210.792C180.235,210.759 179.225,210.966 178.273,211.338C170.166,214.543 161.936,215.785 155.701,221.498C148.182,228.387 138.022,244.443 134.172,255.447C125.801,279.361 134.785,309.46 154.045,320.026C163.294,325.101 174.398,323.702 188.665,325.466C190.114,325.648 191.588,325.242 192.672,324.273C195.504,321.74 199.868,320.738 202.89,318.37C205.366,316.523 201.3,312.913 204.546,312.573C205.83,313.377 206.881,313.832 207.8,314.13C211.775,315.397 212.62,320.663 209.274,323.164C207.337,324.605 205.474,325.963 205.374,329.134C205.093,338.176 218.838,342.705 226.017,337.033C228.004,335.468 230.546,334.74 233.022,335.237C250.601,338.723 267.593,331.552 282.373,334.102C292.127,335.783 304.738,330.608 315.486,333.274C317.316,333.73 318.533,335.551 320.454,335.758C326.217,336.379 332.51,335.038 337.768,332.512C338.952,331.949 340.302,331.9 341.503,332.413C348.259,335.303 357.947,341.248 367.644,339.898C371.395,339.377 374.897,334.955 379.236,334.102C386.755,332.645 394.844,335.75 400.765,331.618C403.414,329.772 403.862,327.155 404.839,324.679C405.534,322.899 407.323,321.798 409.219,321.988C436.552,324.613 448.476,311.853 459.547,296.013M473.954,259.298C475.114,262.511 475.006,266.021 473.954,269.234C471.114,291.5 463.356,305.129 447.457,316.424C441.305,320.796 431.336,325.176 423.453,326.36C421.118,326.708 417.789,325.631 415.173,326.36C412.423,327.122 411.877,329.275 409.376,330.5C407.695,331.328 405.882,330.5 403.58,331.328C399.721,332.711 396.293,336.561 393.644,337.124C388.328,338.259 382.084,336.214 377.083,337.124C369.755,338.466 364.58,343.086 357.21,342.921C350.205,342.763 345.419,340.495 339.151,337.53C337.611,336.802 335.831,336.76 334.266,337.431C325.903,341.041 317.423,338.168 307.537,337.124C298.387,336.164 287.697,340.495 275.252,341.265C263.469,341.993 241.162,336.387 227.226,338.781C221.513,339.774 216.851,343.923 211.502,342.921C203.751,341.463 199.272,330.624 201.565,323.876C169.628,339.849 133.038,317.691 127.879,291.583C127.299,288.652 128.243,285.083 127.879,281.655C127.448,277.581 125.502,273.672 125.395,270.062C125.088,259.505 130.413,247.084 136.159,237.769C140.564,230.631 145.797,221.68 151.064,217.085C165.041,204.855 195.943,204.954 209.606,219.022C210.831,220.289 211.667,221.879 212.04,223.593C212.653,226.425 213.216,229.307 213.986,231.973C221.786,229.754 231.333,223.833 243.787,225.349C242.826,213.309 248.291,202.147 261.175,201.352C258.94,195.407 250.535,189.694 249.583,182.308C245.261,148.673 272.412,121.621 302.569,119.377L315.817,119.377C330.854,120.346 341.329,125.885 344.798,138.422C375.344,121.381 413.458,133.951 413.516,169.059C413.525,177.207 411.744,193.643 406.064,200.524C400.98,206.668 389.33,211.396 379.567,214.601C378.888,216.754 381.414,221.846 380.395,227.005C388.46,222.318 394.43,217.068 401.096,210.461C404.756,206.817 405.973,203.174 411.86,202.18C445.396,196.5 478.55,231.41 473.954,259.298M343.482,204.341C343.622,204.06 343.879,203.828 344.161,203.704C344.277,203.654 344.401,203.638 344.533,203.638L344.541,203.638C345.22,203.944 345.601,204.027 345.254,203.795C348.483,204.83 349.924,207.902 353.335,208.631C353.799,208.73 356.73,209.417 357.202,209.392C363.048,209.061 361.914,202.934 361.251,196.16C361.218,195.804 361.052,195.457 360.763,195.241C355.836,191.557 344.624,194.538 340.501,198.09C338.613,200.276 342.546,202.718 344.442,203.596C344.343,203.613 344.252,203.646 344.161,203.704C343.829,203.803 343.589,204.043 343.482,204.341M343.465,204.366C343.266,204.772 343.299,205.277 343.805,205.724C346.587,208.183 335.599,202.495 330.117,202.238C329.869,202.23 329.62,202.288 329.397,202.404C324.528,205.012 324.205,209.558 318.144,209.682C305.765,209.914 301.5,184.585 314.832,181.529C325.936,178.979 326.043,187.607 332.22,190.637C341.627,195.241 351.373,187.897 358.709,188.981C366.923,190.19 367.213,199.001 366.335,208.059C366.252,208.904 366.956,209.624 367.801,209.541C383.616,208.034 401.527,201.385 405.907,188.153C410.718,173.613 404.383,149.103 394.314,140.128C389.578,135.905 381.877,133.835 376.098,133.503C361.375,132.65 354.312,144.193 340.89,145.584C339.789,145.7 338.886,145.468 338.853,144.433C338.389,130.067 328.213,123.766 315.66,123.567C302.577,123.36 278.556,128.237 268.47,138.472C263.444,143.564 258.964,153.31 257.706,162.484C254.626,184.916 261.763,193.03 271.228,203.737C272.486,205.153 271.385,207.38 269.497,207.248C263.51,206.834 256.265,205.41 252.183,209.401C252.001,209.583 251.843,209.79 251.727,210.013C250.792,211.802 250.452,214.154 250.32,216.348C250.254,217.424 250.535,218.501 251.148,219.387C258.252,229.696 269.646,222.434 286.687,223.742C300.399,224.802 313.018,233.629 323.112,233.679C327.203,233.703 332.369,231.236 338.017,230.366C356.829,227.477 370.707,234.763 373.274,219.337C373.498,218.02 372.545,216.82 371.221,216.704C368.604,216.48 366.882,213.913 363.462,212.415C363.122,212.266 362.725,212.257 362.386,212.415C357.186,214.882 346.91,208.457 343.805,205.724C343.382,205.352 343.291,204.805 343.465,204.366" style="fill:rgb(51,51,51);fill-rule:nonzero;"/>
                <path d="M173.329,260.913C174.025,261.137 174.588,260.333 174.107,259.787C164.825,249.321 152.951,274.219 163.732,280.057C166.639,281.622 169.147,277.151 166.282,275.503C164.958,274.741 163.244,274.36 161.737,273.772C158.499,266.378 166.357,258.702 173.329,260.913M237.162,269.235C240.052,269.21 240.747,267.007 240.515,263.861C240.491,263.588 240.391,263.323 240.209,263.116C235.729,257.998 230.165,268.382 237.162,269.235M305.16,295.914C305.45,289.43 302.709,288.039 300.117,284.57C299.48,283.709 298.478,283.195 297.418,283.113C289.088,282.434 290.222,286.176 285.13,288.387C284.426,288.685 283.888,289.265 283.598,289.969C282.969,291.517 281.809,293.488 282.811,295.607C283.209,296.452 284.012,296.999 284.898,297.297C287.448,298.158 287.672,305.163 291.837,305.643C292.11,305.676 292.284,305.983 292.135,306.215C290.487,308.666 294.329,312.822 291.804,314.768C289.833,313.634 288.011,312.359 286.628,310.636C286.43,310.388 286.016,310.545 286.049,310.868C286.951,321.301 305.93,317.443 304.315,310.404C303.197,313.153 298.85,312.152 296.772,313.94C295.604,311.746 294.271,309.717 294.155,306.463C294.106,305.006 294.785,303.598 296.002,302.787C298.585,301.064 301.094,299.88 303.802,298.191C304.597,297.702 305.118,296.85 305.16,295.914M324.097,252.674C310.111,254.521 306.584,245.901 300.912,239.426C300.266,238.598 299.231,238.598 298.428,240.254C296.35,244.485 304.638,249.345 304.224,251.846C291.936,251.175 284.476,245.387 278.158,239.028C277.851,238.713 277.446,238.498 277.015,238.49C276.659,238.482 276.328,238.556 276.021,238.697C275.26,239.07 274.837,239.922 274.912,240.775C274.92,240.8 274.92,240.833 274.928,240.858C277.412,254.736 308.96,257.402 324.097,252.674M369.564,267.065C370.185,265.873 370.458,264.838 369.912,263.298C369.746,262.826 369.398,262.428 368.943,262.205C366.235,260.913 362.36,262.254 362.857,266.005C362.915,266.469 363.172,266.891 363.544,267.173C364.455,267.86 365.457,268.465 366.972,268.539C368.049,268.597 369.067,268.017 369.564,267.065M427.212,278.409C437.123,269.914 416.629,244.319 411.032,260.954C416.845,255.092 426.003,262.354 425.928,270.063C424.951,270.949 423.634,271.843 422.492,272.878C419.031,276.033 423.659,281.456 427.212,278.409M472.795,254.62C475.006,272.34 467.918,284.04 459.546,296.013C448.475,311.853 436.552,324.613 409.218,321.989C407.322,321.798 405.534,322.899 404.838,324.68C403.861,327.155 403.414,329.772 400.764,331.619C394.844,335.75 386.754,332.645 379.235,334.103C374.897,334.956 371.394,339.377 367.643,339.899C357.947,341.249 348.259,335.303 341.502,332.413C340.301,331.9 338.952,331.95 337.768,332.513C332.51,335.038 326.217,336.38 320.454,335.759C318.533,335.552 317.315,333.73 315.485,333.275C304.738,330.608 292.127,335.784 282.372,334.103C267.592,331.552 250.601,338.723 233.022,335.237C230.546,334.74 228.004,335.469 226.017,337.034C218.838,342.706 205.092,338.177 205.374,329.134C205.473,325.963 207.336,324.605 209.274,323.164C212.619,320.664 211.774,315.397 207.8,314.131C206.881,313.832 205.829,313.377 204.546,312.574C201.3,312.913 205.366,316.524 202.89,318.37C199.867,320.738 195.504,321.74 192.672,324.274C191.587,325.243 190.113,325.648 188.664,325.466C174.397,323.703 163.293,325.102 154.044,320.026C134.784,309.46 125.8,279.362 134.171,255.448C138.022,244.443 148.182,228.388 155.7,221.499C161.935,215.785 170.166,214.543 178.272,211.339C179.225,210.966 180.235,210.759 181.253,210.792C198.385,211.322 210.963,217.16 212.867,231.228C213.712,237.505 209.87,242.274 217.794,244.684C221.388,234.35 234.636,226.906 248.423,227.295C255.387,227.502 261.556,232.42 269.124,232.263C276.096,232.131 281.826,227.56 288.997,227.295C299.844,226.906 308.099,235.418 320.454,236.403C325.041,236.768 331.649,233.712 337.014,233.091C351.91,231.385 368.115,236.975 379.235,233.919C390.844,230.756 394.364,218.054 403.339,214.179C405.484,213.252 407.289,211.67 408.258,209.55C408.564,208.888 409.02,208.383 409.873,208.267C416.555,204.408 432.859,206.594 439.673,211.579C442.381,213.55 444.095,217.93 447.126,220.671C458.362,230.864 470.344,235.062 472.795,254.62" style="fill:rgb(239,244,244);fill-rule:nonzero;"/>
                <path d="M411.032,260.954C416.629,244.319 437.123,269.913 427.212,278.409C423.659,281.456 419.031,276.032 422.492,272.878C423.635,271.843 424.951,270.948 425.928,270.062C426.003,262.353 416.845,255.092 411.032,260.954" style="fill:rgb(51,51,51);fill-rule:nonzero;"/>
                <path d="M394.314,140.128C404.383,149.104 410.717,173.614 405.906,188.154C401.526,201.386 383.616,208.035 367.8,209.542C366.956,209.625 366.252,208.904 366.335,208.06C367.213,199.001 366.923,190.191 358.709,188.982C351.372,187.897 341.626,195.242 332.22,190.638C326.043,187.607 325.935,178.979 314.831,181.53C301.5,184.585 305.764,209.914 318.143,209.683C324.205,209.558 324.528,205.013 329.396,202.404C329.62,202.288 329.868,202.23 330.117,202.239C335.598,202.495 346.586,208.184 343.804,205.725C346.909,208.457 357.185,214.883 362.385,212.415C362.725,212.258 363.122,212.266 363.462,212.415C366.881,213.914 368.604,216.481 371.22,216.704C372.545,216.82 373.497,218.021 373.274,219.337C370.707,234.764 356.829,227.477 338.016,230.367C332.369,231.236 327.202,233.704 323.112,233.679C313.018,233.629 300.399,224.802 286.687,223.743C269.646,222.434 258.252,229.696 251.147,219.387C250.535,218.501 250.253,217.425 250.319,216.348C250.452,214.154 250.791,211.802 251.727,210.014C251.843,209.79 252,209.583 252.182,209.401C256.265,205.41 263.51,206.834 269.497,207.248C271.385,207.381 272.486,205.153 271.227,203.737C261.763,193.031 254.625,184.916 257.705,162.485C258.964,153.31 263.444,143.564 268.47,138.472C278.555,128.237 302.576,123.36 315.659,123.567C328.212,123.766 338.389,130.067 338.852,144.434C338.886,145.469 339.788,145.701 340.889,145.585C354.312,144.194 361.375,132.651 376.097,133.504C381.877,133.835 389.578,135.905 394.314,140.128" style="fill:rgb(248,213,224);fill-rule:nonzero;"/>
                <path d="M369.912,263.298C370.459,264.838 370.185,265.873 369.564,267.066C369.067,268.018 368.049,268.597 366.972,268.539C365.457,268.465 364.455,267.86 363.544,267.173C363.172,266.892 362.915,266.469 362.857,266.006C362.36,262.255 366.236,260.913 368.943,262.205C369.399,262.429 369.746,262.826 369.912,263.298" style="fill:rgb(51,51,51);fill-rule:nonzero;"/>
                <path d="M361.251,196.161C361.913,202.934 363.048,209.062 357.202,209.393C356.73,209.418 353.799,208.731 353.335,208.631C349.924,207.902 348.483,204.83 345.253,203.795C345.212,203.762 345.162,203.729 345.096,203.688C344.897,203.572 344.674,203.547 344.442,203.597C342.546,202.719 338.613,200.276 340.501,198.09C344.624,194.538 355.836,191.557 360.762,195.242C361.052,195.457 361.218,195.805 361.251,196.161" style="fill:rgb(248,213,224);fill-rule:nonzero;"/>
                <path d="M345.253,203.795C345.601,204.027 345.22,203.944 344.541,203.638C344.665,203.638 344.781,203.654 344.922,203.687C345.038,203.72 345.145,203.754 345.253,203.795" style="fill:rgb(248,213,224);fill-rule:nonzero;"/>
                <path d="M345.253,203.795C345.145,203.754 345.038,203.72 344.922,203.687C344.781,203.654 344.665,203.638 344.541,203.638L344.533,203.638C344.508,203.621 344.475,203.605 344.442,203.596C344.673,203.547 344.897,203.571 345.096,203.687C345.162,203.729 345.212,203.762 345.253,203.795" style="fill:rgb(248,213,224);fill-rule:nonzero;"/>
                <path d="M344.442,203.596C344.475,203.604 344.508,203.621 344.533,203.637C344.401,203.637 344.276,203.654 344.16,203.704C344.252,203.646 344.343,203.613 344.442,203.596" style="fill:rgb(248,213,224);fill-rule:nonzero;"/>
                <path d="M344.16,203.704C343.878,203.828 343.622,204.06 343.481,204.342C343.589,204.043 343.829,203.803 344.16,203.704" style="fill:rgb(248,213,224);fill-rule:nonzero;"/>
                <path d="M343.465,204.367C343.291,204.806 343.382,205.352 343.804,205.725C343.299,205.278 343.266,204.773 343.465,204.367" style="fill:rgb(248,213,224);fill-rule:nonzero;"/>
                <path d="M331.549,193.9C332.294,195.68 333.826,197.8 330.406,198.421C324.726,199.696 325.405,207.62 317.472,206.32C311.618,205.36 308.174,196.897 310.02,191.416C313.1,182.274 327.55,186.887 331.549,193.9" style="fill:rgb(248,213,224);fill-rule:nonzero;"/>
                <path d="M300.912,239.425C306.584,245.9 310.111,254.52 324.097,252.673C308.96,257.402 277.412,254.735 274.928,240.857C274.92,240.833 274.92,240.8 274.912,240.775C274.837,239.922 275.26,239.069 276.021,238.696C276.328,238.556 276.659,238.481 277.015,238.489C277.446,238.498 277.851,238.713 278.158,239.028C284.476,245.387 291.936,251.175 304.224,251.845C304.638,249.345 296.35,244.484 298.428,240.253C299.231,238.597 300.266,238.597 300.912,239.425" style="fill:rgb(51,51,51);fill-rule:nonzero;"/>
                <path d="M300.117,284.57C302.709,288.039 305.45,289.431 305.16,295.914C305.118,296.85 304.597,297.703 303.802,298.191C301.094,299.88 298.585,301.064 296.002,302.787C294.784,303.598 294.105,305.006 294.155,306.463C294.271,309.717 295.604,311.746 296.772,313.94C298.85,312.152 303.197,313.154 304.315,310.405C305.93,317.443 286.951,321.301 286.049,310.868C286.016,310.545 286.43,310.388 286.628,310.636C288.011,312.359 289.833,313.634 291.804,314.768C294.329,312.822 290.487,308.666 292.135,306.215C292.284,305.983 292.11,305.677 291.837,305.643C287.672,305.163 287.448,298.158 284.898,297.297C284.012,296.999 283.209,296.452 282.811,295.608C281.809,293.488 282.968,291.517 283.598,289.969C283.888,289.265 284.426,288.685 285.13,288.387C290.222,286.176 289.088,282.434 297.418,283.113C298.477,283.195 299.479,283.709 300.117,284.57" style="fill:rgb(51,51,51);fill-rule:nonzero;"/>
                <path d="M240.516,263.861C240.748,267.008 240.052,269.21 237.162,269.235C230.166,268.382 235.73,257.998 240.21,263.116C240.392,263.323 240.491,263.588 240.516,263.861" style="fill:rgb(51,51,51);fill-rule:nonzero;"/>
                <path d="M174.108,259.787C174.588,260.334 174.025,261.137 173.33,260.913C166.358,258.702 158.5,266.378 161.737,273.772C163.244,274.36 164.958,274.741 166.283,275.503C169.148,277.151 166.639,281.622 163.733,280.057C152.952,274.22 164.826,249.321 174.108,259.787" style="fill:rgb(51,51,51);fill-rule:nonzero;"/>
            </g>
        </g>
        <g transform="matrix(1,0,0,1,-104,-80)">
            <path d="M249.948,291.785C249.948,294.961 247.123,297.535 243.638,297.535C240.152,297.535 237.327,294.961 237.327,291.785C237.327,288.609 240.152,286.035 243.638,286.035C247.123,286.035 249.948,288.609 249.948,291.785" style="fill:rgb(248,213,224);fill-rule:nonzero;"/>
        </g>
        <g transform="matrix(1,0,0,1,-104,-80)">
            <path d="M362.855,291.785C362.855,294.961 360.03,297.535 356.545,297.535C353.059,297.535 350.234,294.961 350.234,291.785C350.234,288.609 353.059,286.035 356.545,286.035C360.03,286.035 362.855,288.609 362.855,291.785" style="fill:rgb(248,213,224);fill-rule:nonzero;"/>
        </g>
        <g transform="matrix(1,0,0,1,-104,-80)">
            <text x="150.395px" y="414.551px" style="font-family:'Pacifico';font-size:60.688px;fill:rgb(51,51,51);">Coala Doces</text>
        </g>
    </g>
</svg>
