<?xml version="1.0" encoding="UTF-8" standalone="no"?>
<!DOCTYPE svg PUBLIC "-//W3C//DTD SVG 1.1//EN" "http://www.w3.org/Graphics/SVG/1.1/DTD/svg11.dtd">
<svg width="100%" height="100%" viewBox="0 0 650 324" version="1.1" xmlns="http://www.w3.org/2000/svg" xmlns:xlink="http://www.w3.org/1999/xlink" xml:space="preserve" style="fill-rule:evenodd;clip-rule:evenodd;stroke-linejoin:round;stroke-miterlimit:1.41421;">
    <g transform="matrix(0.729497,0,0,0.729497,88.4571,48.7377)">
        <path d="M164.35,198.8L184.23,198.8L184.23,169.4L222.71,169.4L222.71,151.66L184.24,151.66L184.24,119.7L226.54,119.7L226.54,102.24L164.36,102.24L164.36,198.8L164.35,198.8ZM271.13,200.08C290.03,200.08 304.08,190.28 304.08,172.38C304.08,155.78 294.56,148.38 277.66,141.15L272.69,139.02C264.16,135.32 260.47,132.92 260.47,126.95C260.47,122.12 264.17,118.43 269.99,118.43C275.67,118.43 279.36,120.85 282.77,126.95L298.24,117.01C291.71,105.51 282.62,101.11 269.99,101.11C252.24,101.11 240.89,112.48 240.89,127.39C240.89,143.59 250.39,151.24 264.73,157.35L269.7,159.48C278.8,163.46 284.2,165.88 284.2,172.68C284.2,178.38 278.94,182.48 270.7,182.48C260.9,182.48 255.37,177.38 251.1,170.41L234.92,179.79C240.74,191.29 252.67,200.09 271.12,200.09L271.13,200.08ZM327.93,199.66C334.33,199.66 339.86,194.69 339.86,187.59C339.86,180.62 334.32,175.65 327.93,175.65C321.4,175.65 315.86,180.62 315.86,187.58C315.86,194.68 321.4,199.64 327.93,199.64L327.93,199.66Z" style="fill:rgb(51,51,51);"/>
    </g>
    <g transform="matrix(0.729497,0,0,0.729497,88.4571,48.7377)">
        <path d="M380.05,200.08C397.65,200.08 409.72,190.71 409.72,170.12L409.72,102.24L389.84,102.24L389.84,169.84C389.84,179.78 385.74,182.34 379.19,182.34C372.37,182.34 369.53,177.64 366.39,172.11L350.22,181.91C354.9,191.86 364.12,200.09 380.04,200.09L380.05,200.08ZM456.73,200.08C475.61,200.08 489.67,190.28 489.67,172.38C489.67,155.78 480.17,148.38 463.27,141.15L458.29,139.02C449.76,135.32 446.07,132.92 446.07,126.95C446.07,122.12 449.77,118.43 455.57,118.43C461.27,118.43 464.95,120.85 468.37,126.95L483.84,117.01C477.31,105.51 468.22,101.11 455.58,101.11C437.82,101.11 426.46,112.48 426.46,127.39C426.46,143.59 435.96,151.24 450.32,157.35L455.29,159.48C464.39,163.46 469.79,165.88 469.79,172.68C469.79,178.38 464.53,182.48 456.29,182.48C446.49,182.48 440.95,177.38 436.69,170.41L420.51,179.79C426.33,191.29 438.26,200.09 456.71,200.09L456.73,200.08Z" style="fill:rgb(248,212,115);"/>
    </g>
</svg>
