<?xml version="1.0" encoding="UTF-8" standalone="no"?><!DOCTYPE svg PUBLIC "-//W3C//DTD SVG 1.1//EN" "http://www.w3.org/Graphics/SVG/1.1/DTD/svg11.dtd"><svg width="100%" height="100%" viewBox="0 0 650 324" version="1.1" xmlns="http://www.w3.org/2000/svg" xmlns:xlink="http://www.w3.org/1999/xlink" xml:space="preserve" style="fill-rule:evenodd;clip-rule:evenodd;stroke-linejoin:round;stroke-miterlimit:1.41421;"><path d="M208.35,193.762l14.502,0l0,-21.448l28.071,0l0,-12.941l-28.063,0l0,-23.315l30.857,0l0,-12.737l-45.36,0l0,70.441l-0.007,0Zm77.896,0.933c13.787,0 24.037,-7.149 24.037,-20.207c0,-12.109 -6.945,-17.508 -19.274,-22.782l-3.625,-1.554c-6.223,-2.699 -8.915,-4.45 -8.915,-8.805c0,-3.523 2.699,-6.215 6.945,-6.215c4.144,0 6.835,1.765 9.323,6.215l11.285,-7.251c-4.763,-8.389 -11.394,-11.599 -20.608,-11.599c-12.949,0 -21.228,8.295 -21.228,19.171c0,11.818 6.93,17.399 17.391,21.856l3.625,1.554c6.639,2.903 10.578,4.669 10.578,9.629c0,4.158 -3.837,7.149 -9.848,7.149c-7.149,0 -11.183,-3.72 -14.298,-8.805l-11.803,6.843c4.245,8.389 12.948,14.809 26.407,14.809l0.008,-0.008Zm41.435,-0.306c4.669,0 8.703,-3.626 8.703,-8.805c0,-5.085 -4.041,-8.71 -8.703,-8.71c-4.764,0 -8.805,3.625 -8.805,8.703c0,5.179 4.041,8.797 8.805,8.797l0,0.015Z" style="fill:#333;"/><path d="M365.702,194.695c12.84,0 21.645,-6.835 21.645,-21.855l0,-49.519l-14.503,0l0,49.314c0,7.252 -2.991,9.119 -7.769,9.119c-4.975,0 -7.047,-3.428 -9.337,-7.463l-11.796,7.149c3.414,7.259 10.14,13.263 21.753,13.263l0.007,-0.008Zm55.938,0c13.773,0 24.03,-7.149 24.03,-20.207c0,-12.109 -6.93,-17.508 -19.259,-22.782l-3.633,-1.554c-6.222,-2.699 -8.914,-4.45 -8.914,-8.805c0,-3.523 2.699,-6.215 6.93,-6.215c4.158,0 6.843,1.765 9.338,6.215l11.285,-7.251c-4.764,-8.389 -11.395,-11.599 -20.616,-11.599c-12.956,0 -21.243,8.295 -21.243,19.171c0,11.818 6.931,17.399 17.406,21.856l3.626,1.554c6.638,2.903 10.577,4.669 10.577,9.629c0,4.158 -3.837,7.149 -9.848,7.149c-7.149,0 -11.19,-3.72 -14.298,-8.805l-11.803,6.843c4.246,8.389 12.948,14.809 26.408,14.809l0.014,-0.008Z" style="fill:#f8d473;"/></svg>