<?xml version="1.0" encoding="UTF-8" standalone="no"?><!DOCTYPE svg PUBLIC "-//W3C//DTD SVG 1.1//EN" "http://www.w3.org/Graphics/SVG/1.1/DTD/svg11.dtd"><svg width="100%" height="100%" viewBox="0 0 400 400" version="1.1" xmlns="http://www.w3.org/2000/svg" xmlns:xlink="http://www.w3.org/1999/xlink" xml:space="preserve" style="fill-rule:evenodd;clip-rule:evenodd;stroke-linejoin:round;stroke-miterlimit:1.41421;"><g><path d="M35.995,242.691l19.88,0l0,-29.393l38.482,0l0,-17.75l-38.482,0l0,-31.95l42.316,0l0,-17.466l-62.196,0l0,96.559Z" style="fill:#333;fill-rule:nonzero;"/><path d="M142.779,243.969c18.886,0 32.944,-9.798 32.944,-27.689c0,-16.614 -9.514,-23.998 -26.412,-31.24l-4.97,-2.13c-8.52,-3.692 -12.212,-6.106 -12.212,-12.07c0,-4.828 3.692,-8.52 9.514,-8.52c5.68,0 9.372,2.414 12.78,8.52l15.478,-9.94c-6.532,-11.502 -15.62,-15.904 -28.258,-15.904c-17.75,0 -29.11,11.36 -29.11,26.27c0,16.188 9.514,23.856 23.856,29.962l4.97,2.13c9.088,3.976 14.484,6.39 14.484,13.206c0,5.679 -5.254,9.797 -13.49,9.797c-9.798,0 -15.336,-5.112 -19.596,-12.069l-16.188,9.371c5.822,11.502 17.75,20.306 36.21,20.306Z" style="fill:#333;fill-rule:nonzero;"/><path d="M199.579,243.543c6.39,0 11.928,-4.97 11.928,-12.07c0,-6.958 -5.538,-11.927 -11.928,-11.927c-6.532,0 -12.07,4.969 -12.07,11.927c0,7.1 5.538,12.07 12.07,12.07Z" style="fill:#333;fill-rule:nonzero;"/><path d="M251.693,243.969c17.608,0 29.678,-9.372 29.678,-29.961l0,-67.876l-19.88,0l0,67.592c0,9.939 -4.118,12.495 -10.65,12.495c-6.816,0 -9.656,-4.686 -12.78,-10.223l-16.188,9.797c4.686,9.94 13.916,18.176 29.82,18.176Z" style="fill:#f8d473;fill-rule:nonzero;"/><path d="M328.372,243.969c18.886,0 32.944,-9.798 32.944,-27.689c0,-16.614 -9.514,-23.998 -26.412,-31.24l-4.97,-2.13c-8.52,-3.692 -12.212,-6.106 -12.212,-12.07c0,-4.828 3.692,-8.52 9.514,-8.52c5.68,0 9.372,2.414 12.78,8.52l15.478,-9.94c-6.532,-11.502 -15.62,-15.904 -28.258,-15.904c-17.75,0 -29.11,11.36 -29.11,26.27c0,16.188 9.514,23.856 23.856,29.962l4.97,2.13c9.088,3.976 14.484,6.39 14.484,13.206c0,5.679 -5.254,9.797 -13.49,9.797c-9.798,0 -15.336,-5.112 -19.596,-12.069l-16.187,9.371c5.821,11.502 17.749,20.306 36.209,20.306Z" style="fill:#f8d473;fill-rule:nonzero;"/></g></svg>