<?xml version="1.0" encoding="UTF-8" standalone="no"?><!DOCTYPE svg PUBLIC "-//W3C//DTD SVG 1.1//EN" "http://www.w3.org/Graphics/SVG/1.1/DTD/svg11.dtd"><svg width="100%" height="100%" viewBox="0 0 650 324" version="1.1" xmlns="http://www.w3.org/2000/svg" xmlns:xlink="http://www.w3.org/1999/xlink" xml:space="preserve" style="fill-rule:evenodd;clip-rule:evenodd;stroke-linejoin:round;stroke-miterlimit:1.41421;"><rect x="1.171" y="0" width="647" height="323.5" style="fill:#333;"/><path d="M0,0l649.343,0l-649.343,323.5l0,-323.5Z" style="fill:#f8d473;"/><g transform="matrix(11.8333,0,0,11.8333,-414.927,-3491.99)"><path d="M48.953,311.899l1.68,0l0,-2.484l3.252,0l0,-1.5l-3.252,0l0,-2.7l3.576,0l0,-1.476l-5.256,0l0,8.16Z" style="fill:#333;fill-rule:nonzero;"/><path d="M57.977,312.007c1.596,0 2.784,-0.828 2.784,-2.34c0,-1.404 -0.804,-2.028 -2.232,-2.64l-0.42,-0.18c-0.72,-0.312 -1.032,-0.516 -1.032,-1.02c0,-0.408 0.312,-0.72 0.804,-0.72c0.48,0 0.792,0.204 1.08,0.72l1.308,-0.84c-0.552,-0.972 -1.32,-1.344 -2.388,-1.344c-1.5,0 -2.46,0.96 -2.46,2.22c0,1.368 0.804,2.016 2.016,2.532l0.42,0.18c0.768,0.336 1.224,0.54 1.224,1.116c0,0.48 -0.444,0.828 -1.14,0.828c-0.828,0 -1.296,-0.432 -1.656,-1.02l-1.368,0.792c0.492,0.972 1.5,1.716 3.06,1.716Z" style="fill:#333;fill-rule:nonzero;"/><path d="M62.777,311.971c0.54,0 1.008,-0.42 1.008,-1.02c0,-0.588 -0.468,-1.008 -1.008,-1.008c-0.552,0 -1.02,0.42 -1.02,1.008c0,0.6 0.468,1.02 1.02,1.02Z" style="fill:#333;fill-rule:nonzero;"/><path d="M67.181,312.007c1.488,0 2.508,-0.792 2.508,-2.532l0,-5.736l-1.68,0l0,5.712c0,0.84 -0.348,1.056 -0.9,1.056c-0.576,0 -0.816,-0.396 -1.08,-0.864l-1.368,0.828c0.396,0.84 1.176,1.536 2.52,1.536Z" style="fill:#f8d473;fill-rule:nonzero;"/><path d="M73.661,312.007c1.596,0 2.784,-0.828 2.784,-2.34c0,-1.404 -0.804,-2.028 -2.232,-2.64l-0.42,-0.18c-0.72,-0.312 -1.032,-0.516 -1.032,-1.02c0,-0.408 0.312,-0.72 0.804,-0.72c0.48,0 0.792,0.204 1.08,0.72l1.308,-0.84c-0.552,-0.972 -1.32,-1.344 -2.388,-1.344c-1.5,0 -2.46,0.96 -2.46,2.22c0,1.368 0.804,2.016 2.016,2.532l0.42,0.18c0.768,0.336 1.224,0.54 1.224,1.116c0,0.48 -0.444,0.828 -1.14,0.828c-0.828,0 -1.296,-0.432 -1.656,-1.02l-1.368,0.792c0.492,0.972 1.5,1.716 3.06,1.716Z" style="fill:#f8d473;fill-rule:nonzero;"/></g></svg>