<?xml version="1.0" encoding="UTF-8" standalone="no"?><!DOCTYPE svg PUBLIC "-//W3C//DTD SVG 1.1//EN" "http://www.w3.org/Graphics/SVG/1.1/DTD/svg11.dtd"><svg width="100%" height="100%" viewBox="0 0 650 324" version="1.1" xmlns="http://www.w3.org/2000/svg" xmlns:xlink="http://www.w3.org/1999/xlink" xml:space="preserve" style="fill-rule:evenodd;clip-rule:evenodd;stroke-linejoin:round;stroke-miterlimit:1.41421;"><path d="M208.35,178.762l14.502,0l0,-21.448l28.071,0l0,-12.941l-28.063,0l0,-23.315l30.857,0l0,-12.737l-45.36,0l0,70.441l-0.007,0l0,0Zm77.896,0.933c13.787,0 24.037,-7.149 24.037,-20.207c0,-12.109 -6.945,-17.508 -19.274,-22.782l-3.625,-1.554c-6.223,-2.699 -8.915,-4.45 -8.915,-8.805c0,-3.523 2.699,-6.215 6.945,-6.215c4.144,0 6.835,1.765 9.323,6.215l11.285,-7.251c-4.763,-8.389 -11.394,-11.599 -20.608,-11.599c-12.949,0 -21.228,8.295 -21.228,19.171c0,11.818 6.93,17.399 17.391,21.856l3.625,1.554c6.639,2.903 10.578,4.669 10.578,9.629c0,4.158 -3.837,7.149 -9.848,7.149c-7.149,0 -11.183,-3.72 -14.298,-8.805l-11.803,6.843c4.245,8.389 12.948,14.809 26.407,14.809l0.008,-0.008l0,0Zm41.435,-0.306c4.669,0 8.703,-3.626 8.703,-8.805c0,-5.085 -4.041,-8.71 -8.703,-8.71c-4.764,0 -8.805,3.625 -8.805,8.703c0,5.179 4.041,8.797 8.805,8.797l0,0.015Z" style="fill:#333;"/><path d="M365.702,179.695c12.84,0 21.645,-6.835 21.645,-21.855l0,-49.519l-14.503,0l0,49.314c0,7.252 -2.991,9.119 -7.769,9.119c-4.975,0 -7.047,-3.428 -9.337,-7.463l-11.796,7.149c3.414,7.259 10.14,13.263 21.753,13.263l0.007,-0.008Zm55.938,0c13.773,0 24.03,-7.149 24.03,-20.207c0,-12.109 -6.93,-17.508 -19.259,-22.782l-3.633,-1.554c-6.222,-2.699 -8.914,-4.45 -8.914,-8.805c0,-3.523 2.699,-6.215 6.93,-6.215c4.158,0 6.843,1.765 9.338,6.215l11.285,-7.251c-4.764,-8.389 -11.395,-11.599 -20.616,-11.599c-12.956,0 -21.243,8.295 -21.243,19.171c0,11.818 6.931,17.399 17.406,21.856l3.626,1.554c6.638,2.903 10.577,4.669 10.577,9.629c0,4.158 -3.837,7.149 -9.848,7.149c-7.149,0 -11.19,-3.72 -14.298,-8.805l-11.803,6.843c4.246,8.389 12.948,14.809 26.408,14.809l0.014,-0.008l0,0Z" style="fill:#f8d473;"/><rect x="208.35" y="191" width="234" height="1" style="fill:#333;"/><g transform="matrix(1.28306,0,0,1.28306,-187.896,-51.5124)"><path d="M252.582,201.355l0,6.366c0,0.268 -0.035,0.52 -0.105,0.756c-0.07,0.236 -0.182,0.443 -0.336,0.621c-0.154,0.178 -0.356,0.318 -0.606,0.42c-0.25,0.102 -0.555,0.153 -0.915,0.153c-0.14,0 -0.27,-0.009 -0.39,-0.027c-0.12,-0.018 -0.242,-0.047 -0.366,-0.087l0.048,-0.798c0.012,-0.08 0.044,-0.131 0.096,-0.153c0.052,-0.022 0.152,-0.033 0.3,-0.033c0.148,0 0.273,-0.015 0.375,-0.045c0.102,-0.03 0.184,-0.078 0.246,-0.144c0.062,-0.066 0.106,-0.153 0.132,-0.261c0.026,-0.108 0.039,-0.242 0.039,-0.402l0,-6.366l1.482,0Zm0.222,-1.794c0,0.128 -0.026,0.248 -0.078,0.36c-0.052,0.112 -0.121,0.21 -0.207,0.294c-0.086,0.084 -0.187,0.151 -0.303,0.201c-0.116,0.05 -0.24,0.075 -0.372,0.075c-0.128,0 -0.249,-0.025 -0.363,-0.075c-0.114,-0.05 -0.213,-0.117 -0.297,-0.201c-0.084,-0.084 -0.151,-0.182 -0.201,-0.294c-0.05,-0.112 -0.075,-0.232 -0.075,-0.36c0,-0.132 0.025,-0.256 0.075,-0.372c0.05,-0.116 0.117,-0.216 0.201,-0.3c0.084,-0.084 0.183,-0.151 0.297,-0.201c0.114,-0.05 0.235,-0.075 0.363,-0.075c0.132,0 0.256,0.025 0.372,0.075c0.116,0.05 0.217,0.117 0.303,0.201c0.086,0.084 0.155,0.184 0.207,0.3c0.052,0.116 0.078,0.24 0.078,0.372Z" style="fill:#333;fill-rule:nonzero;"/><path d="M259.056,207.511l-0.666,0c-0.14,0 -0.25,-0.021 -0.33,-0.063c-0.08,-0.042 -0.14,-0.127 -0.18,-0.255l-0.132,-0.438c-0.156,0.14 -0.309,0.263 -0.459,0.369c-0.15,0.106 -0.305,0.195 -0.465,0.267c-0.16,0.072 -0.33,0.126 -0.51,0.162c-0.18,0.036 -0.38,0.054 -0.6,0.054c-0.26,0 -0.5,-0.035 -0.72,-0.106c-0.22,-0.07 -0.409,-0.175 -0.567,-0.316c-0.158,-0.14 -0.281,-0.315 -0.369,-0.523c-0.088,-0.209 -0.132,-0.452 -0.132,-0.729c0,-0.233 0.061,-0.462 0.183,-0.689c0.122,-0.227 0.325,-0.431 0.609,-0.614c0.284,-0.183 0.662,-0.334 1.134,-0.455c0.472,-0.12 1.058,-0.18 1.758,-0.18l0,-0.363c0,-0.415 -0.087,-0.722 -0.261,-0.922c-0.174,-0.199 -0.427,-0.299 -0.759,-0.299c-0.24,0 -0.44,0.028 -0.6,0.084c-0.16,0.056 -0.299,0.119 -0.417,0.189c-0.118,0.07 -0.227,0.133 -0.327,0.189c-0.1,0.056 -0.21,0.084 -0.33,0.084c-0.1,0 -0.186,-0.026 -0.258,-0.078c-0.072,-0.052 -0.13,-0.116 -0.174,-0.192l-0.27,-0.474c0.708,-0.648 1.562,-0.972 2.562,-0.972c0.36,0 0.681,0.059 0.963,0.177c0.282,0.118 0.521,0.282 0.717,0.492c0.196,0.21 0.345,0.461 0.447,0.753c0.102,0.292 0.153,0.612 0.153,0.96l0,3.888Zm-2.88,-0.924c0.152,0 0.292,-0.014 0.42,-0.042c0.128,-0.027 0.249,-0.068 0.363,-0.124c0.114,-0.055 0.224,-0.123 0.33,-0.203c0.106,-0.081 0.213,-0.177 0.321,-0.287l0,-1.03c-0.432,0 -0.793,0.027 -1.083,0.081c-0.29,0.055 -0.523,0.124 -0.699,0.209c-0.176,0.085 -0.301,0.183 -0.375,0.296c-0.074,0.113 -0.111,0.236 -0.111,0.369c0,0.261 0.077,0.449 0.231,0.562c0.154,0.112 0.355,0.169 0.603,0.169Z" style="fill:#333;fill-rule:nonzero;"/><path d="M263.382,207.511l-1.344,0l-2.448,-6.156l1.23,0c0.108,0 0.199,0.026 0.273,0.078c0.074,0.052 0.125,0.118 0.153,0.198l1.188,3.288c0.068,0.192 0.125,0.38 0.171,0.564c0.046,0.184 0.087,0.368 0.123,0.552c0.036,-0.184 0.077,-0.368 0.123,-0.552c0.046,-0.184 0.105,-0.372 0.177,-0.564l1.218,-3.288c0.028,-0.08 0.078,-0.146 0.15,-0.198c0.072,-0.052 0.158,-0.078 0.258,-0.078l1.17,0l-2.442,6.156Z" style="fill:#333;fill-rule:nonzero;"/><path d="M271.524,207.511l-0.666,0c-0.14,0 -0.25,-0.021 -0.33,-0.063c-0.08,-0.042 -0.14,-0.127 -0.18,-0.255l-0.132,-0.438c-0.156,0.14 -0.309,0.263 -0.459,0.369c-0.15,0.106 -0.305,0.195 -0.465,0.267c-0.16,0.072 -0.33,0.126 -0.51,0.162c-0.18,0.036 -0.38,0.054 -0.6,0.054c-0.26,0 -0.5,-0.035 -0.72,-0.106c-0.22,-0.07 -0.409,-0.175 -0.567,-0.316c-0.158,-0.14 -0.281,-0.315 -0.369,-0.523c-0.088,-0.209 -0.132,-0.452 -0.132,-0.729c0,-0.233 0.061,-0.462 0.183,-0.689c0.122,-0.227 0.325,-0.431 0.609,-0.614c0.284,-0.183 0.662,-0.334 1.134,-0.455c0.472,-0.12 1.058,-0.18 1.758,-0.18l0,-0.363c0,-0.415 -0.087,-0.722 -0.261,-0.922c-0.174,-0.199 -0.427,-0.299 -0.759,-0.299c-0.24,0 -0.44,0.028 -0.6,0.084c-0.16,0.056 -0.299,0.119 -0.417,0.189c-0.118,0.07 -0.227,0.133 -0.327,0.189c-0.1,0.056 -0.21,0.084 -0.33,0.084c-0.1,0 -0.186,-0.026 -0.258,-0.078c-0.072,-0.052 -0.13,-0.116 -0.174,-0.192l-0.27,-0.474c0.708,-0.648 1.562,-0.972 2.562,-0.972c0.36,0 0.681,0.059 0.963,0.177c0.282,0.118 0.521,0.282 0.717,0.492c0.196,0.21 0.345,0.461 0.447,0.753c0.102,0.292 0.153,0.612 0.153,0.96l0,3.888Zm-2.88,-0.924c0.152,0 0.292,-0.014 0.42,-0.042c0.128,-0.027 0.249,-0.068 0.363,-0.124c0.114,-0.055 0.224,-0.123 0.33,-0.203c0.106,-0.081 0.213,-0.177 0.321,-0.287l0,-1.03c-0.432,0 -0.793,0.027 -1.083,0.081c-0.29,0.055 -0.523,0.124 -0.699,0.209c-0.176,0.085 -0.301,0.183 -0.375,0.296c-0.074,0.113 -0.111,0.236 -0.111,0.369c0,0.261 0.077,0.449 0.231,0.562c0.154,0.112 0.355,0.169 0.603,0.169Z" style="fill:#333;fill-rule:nonzero;"/><path d="M276.636,202.555c-0.04,0.064 -0.082,0.109 -0.126,0.135c-0.044,0.026 -0.1,0.039 -0.168,0.039c-0.072,0 -0.149,-0.02 -0.231,-0.06c-0.082,-0.04 -0.177,-0.085 -0.285,-0.135c-0.108,-0.05 -0.231,-0.095 -0.369,-0.135c-0.138,-0.04 -0.301,-0.06 -0.489,-0.06c-0.292,0 -0.522,0.062 -0.69,0.186c-0.168,0.124 -0.252,0.286 -0.252,0.486c0,0.132 0.043,0.243 0.129,0.333c0.086,0.09 0.2,0.169 0.342,0.237c0.142,0.068 0.303,0.129 0.483,0.183c0.18,0.054 0.364,0.113 0.552,0.177c0.188,0.064 0.372,0.137 0.552,0.219c0.18,0.082 0.341,0.186 0.483,0.312c0.142,0.126 0.256,0.277 0.342,0.453c0.086,0.176 0.129,0.388 0.129,0.636c0,0.296 -0.054,0.569 -0.162,0.819c-0.108,0.25 -0.266,0.466 -0.474,0.648c-0.208,0.182 -0.465,0.324 -0.771,0.426c-0.306,0.102 -0.657,0.153 -1.053,0.153c-0.212,0 -0.419,-0.019 -0.621,-0.057c-0.202,-0.038 -0.396,-0.091 -0.582,-0.159c-0.186,-0.068 -0.358,-0.148 -0.516,-0.24c-0.158,-0.092 -0.297,-0.192 -0.417,-0.3l0.342,-0.564c0.044,-0.068 0.096,-0.12 0.156,-0.156c0.06,-0.036 0.136,-0.054 0.228,-0.054c0.092,0 0.179,0.026 0.261,0.078c0.082,0.052 0.177,0.108 0.285,0.168c0.108,0.06 0.235,0.116 0.381,0.168c0.146,0.052 0.331,0.078 0.555,0.078c0.176,0 0.327,-0.021 0.453,-0.063c0.126,-0.042 0.23,-0.097 0.312,-0.165c0.082,-0.068 0.142,-0.147 0.18,-0.237c0.038,-0.09 0.057,-0.183 0.057,-0.279c0,-0.144 -0.043,-0.262 -0.129,-0.354c-0.086,-0.092 -0.2,-0.172 -0.342,-0.24c-0.142,-0.068 -0.304,-0.129 -0.486,-0.183c-0.182,-0.054 -0.368,-0.113 -0.558,-0.177c-0.19,-0.064 -0.376,-0.139 -0.558,-0.225c-0.182,-0.086 -0.344,-0.195 -0.486,-0.327c-0.142,-0.132 -0.256,-0.294 -0.342,-0.486c-0.086,-0.192 -0.129,-0.424 -0.129,-0.696c0,-0.252 0.05,-0.492 0.15,-0.72c0.1,-0.228 0.247,-0.427 0.441,-0.597c0.194,-0.17 0.436,-0.306 0.726,-0.408c0.29,-0.102 0.625,-0.153 1.005,-0.153c0.424,0 0.81,0.07 1.158,0.21c0.348,0.14 0.638,0.324 0.87,0.552l-0.336,0.534Z" style="fill:#333;fill-rule:nonzero;"/><path d="M282.552,202.657c-0.044,0.056 -0.087,0.1 -0.129,0.132c-0.042,0.032 -0.103,0.048 -0.183,0.048c-0.076,0 -0.15,-0.023 -0.222,-0.069c-0.072,-0.046 -0.158,-0.098 -0.258,-0.156c-0.1,-0.058 -0.219,-0.11 -0.357,-0.156c-0.138,-0.046 -0.309,-0.069 -0.513,-0.069c-0.26,0 -0.488,0.047 -0.684,0.141c-0.196,0.094 -0.359,0.229 -0.489,0.405c-0.13,0.176 -0.227,0.389 -0.291,0.639c-0.064,0.25 -0.096,0.533 -0.096,0.849c0,0.328 0.035,0.62 0.105,0.876c0.07,0.256 0.171,0.471 0.303,0.645c0.132,0.174 0.292,0.306 0.48,0.396c0.188,0.09 0.4,0.135 0.636,0.135c0.236,0 0.427,-0.029 0.573,-0.087c0.146,-0.058 0.269,-0.122 0.369,-0.192c0.1,-0.07 0.187,-0.134 0.261,-0.192c0.074,-0.058 0.157,-0.087 0.249,-0.087c0.12,0 0.21,0.046 0.27,0.138l0.426,0.54c-0.164,0.192 -0.342,0.353 -0.534,0.483c-0.192,0.13 -0.391,0.234 -0.597,0.312c-0.206,0.078 -0.419,0.133 -0.639,0.165c-0.22,0.032 -0.438,0.048 -0.654,0.048c-0.38,0 -0.738,-0.071 -1.074,-0.213c-0.336,-0.142 -0.629,-0.349 -0.879,-0.621c-0.25,-0.272 -0.448,-0.605 -0.594,-0.999c-0.146,-0.394 -0.219,-0.843 -0.219,-1.347c0,-0.452 0.065,-0.871 0.195,-1.257c0.13,-0.386 0.321,-0.72 0.573,-1.002c0.252,-0.282 0.564,-0.503 0.936,-0.663c0.372,-0.16 0.8,-0.24 1.284,-0.24c0.46,0 0.863,0.074 1.209,0.222c0.346,0.148 0.657,0.36 0.933,0.636l-0.39,0.54Z" style="fill:#333;fill-rule:nonzero;"/><path d="M283.95,207.511l0,-6.156l0.87,0c0.152,0 0.258,0.028 0.318,0.084c0.06,0.056 0.1,0.152 0.12,0.288l0.09,0.744c0.22,-0.38 0.478,-0.68 0.774,-0.9c0.296,-0.22 0.628,-0.33 0.996,-0.33c0.304,0 0.556,0.07 0.756,0.21l-0.192,1.11c-0.012,0.072 -0.038,0.123 -0.078,0.153c-0.04,0.03 -0.094,0.045 -0.162,0.045c-0.06,0 -0.142,-0.014 -0.246,-0.042c-0.104,-0.028 -0.242,-0.042 -0.414,-0.042c-0.308,0 -0.572,0.085 -0.792,0.255c-0.22,0.17 -0.406,0.419 -0.558,0.747l0,3.834l-1.482,0Z" style="fill:#333;fill-rule:nonzero;"/><path d="M290.43,201.355l0,6.156l-1.482,0l0,-6.156l1.482,0Zm0.222,-1.794c0,0.128 -0.026,0.248 -0.078,0.36c-0.052,0.112 -0.121,0.21 -0.207,0.294c-0.086,0.084 -0.187,0.151 -0.303,0.201c-0.116,0.05 -0.24,0.075 -0.372,0.075c-0.128,0 -0.249,-0.025 -0.363,-0.075c-0.114,-0.05 -0.213,-0.117 -0.297,-0.201c-0.084,-0.084 -0.151,-0.182 -0.201,-0.294c-0.05,-0.112 -0.075,-0.232 -0.075,-0.36c0,-0.132 0.025,-0.256 0.075,-0.372c0.05,-0.116 0.117,-0.216 0.201,-0.3c0.084,-0.084 0.183,-0.151 0.297,-0.201c0.114,-0.05 0.235,-0.075 0.363,-0.075c0.132,0 0.256,0.025 0.372,0.075c0.116,0.05 0.217,0.117 0.303,0.201c0.086,0.084 0.155,0.184 0.207,0.3c0.052,0.116 0.078,0.24 0.078,0.372Z" style="fill:#333;fill-rule:nonzero;"/><path d="M292.104,209.521l0,-8.166l0.906,0c0.096,0 0.178,0.022 0.246,0.066c0.068,0.044 0.112,0.112 0.132,0.204l0.12,0.57c0.248,-0.284 0.533,-0.514 0.855,-0.69c0.322,-0.176 0.699,-0.264 1.131,-0.264c0.336,0 0.643,0.07 0.921,0.21c0.278,0.14 0.518,0.343 0.72,0.609c0.202,0.266 0.358,0.594 0.468,0.984c0.11,0.39 0.165,0.837 0.165,1.341c0,0.46 -0.062,0.886 -0.186,1.278c-0.124,0.392 -0.301,0.732 -0.531,1.02c-0.23,0.288 -0.508,0.513 -0.834,0.675c-0.326,0.162 -0.691,0.243 -1.095,0.243c-0.348,0 -0.643,-0.053 -0.885,-0.159c-0.242,-0.106 -0.459,-0.253 -0.651,-0.441l0,2.52l-1.482,0Zm2.88,-7.11c-0.308,0 -0.571,0.065 -0.789,0.195c-0.218,0.13 -0.421,0.313 -0.609,0.549l0,2.76c0.168,0.208 0.351,0.353 0.549,0.435c0.198,0.082 0.411,0.123 0.639,0.123c0.224,0 0.427,-0.042 0.609,-0.126c0.182,-0.084 0.336,-0.212 0.462,-0.384c0.126,-0.172 0.223,-0.389 0.291,-0.651c0.068,-0.262 0.102,-0.571 0.102,-0.927c0,-0.36 -0.029,-0.665 -0.087,-0.915c-0.058,-0.25 -0.141,-0.453 -0.249,-0.609c-0.108,-0.156 -0.239,-0.27 -0.393,-0.342c-0.154,-0.072 -0.329,-0.108 -0.525,-0.108Z" style="fill:#333;fill-rule:nonzero;"/><path d="M300.912,207.607c-0.532,0 -0.942,-0.151 -1.23,-0.453c-0.288,-0.302 -0.432,-0.719 -0.432,-1.251l0,-3.438l-0.624,0c-0.08,0 -0.149,-0.026 -0.207,-0.078c-0.058,-0.052 -0.087,-0.13 -0.087,-0.234l0,-0.588l0.99,-0.162l0.312,-1.68c0.016,-0.08 0.053,-0.142 0.111,-0.186c0.058,-0.044 0.131,-0.066 0.219,-0.066l0.768,0l0,1.938l1.62,0l0,1.056l-1.62,0l0,3.336c0,0.192 0.048,0.342 0.144,0.45c0.096,0.108 0.224,0.162 0.384,0.162c0.092,0 0.169,-0.011 0.231,-0.033c0.062,-0.022 0.116,-0.045 0.162,-0.069c0.046,-0.024 0.087,-0.047 0.123,-0.069c0.036,-0.022 0.072,-0.033 0.108,-0.033c0.044,0 0.08,0.011 0.108,0.033c0.028,0.022 0.058,0.055 0.09,0.099l0.444,0.72c-0.216,0.18 -0.464,0.316 -0.744,0.408c-0.28,0.092 -0.57,0.138 -0.87,0.138Z" style="fill:#333;fill-rule:nonzero;"/><rect x="305.946" y="198.595" width="1.482" height="8.916" style="fill:#333;fill-rule:nonzero;"/><path d="M310.68,201.355l0,6.156l-1.482,0l0,-6.156l1.482,0Zm0.222,-1.794c0,0.128 -0.026,0.248 -0.078,0.36c-0.052,0.112 -0.121,0.21 -0.207,0.294c-0.086,0.084 -0.187,0.151 -0.303,0.201c-0.116,0.05 -0.24,0.075 -0.372,0.075c-0.128,0 -0.249,-0.025 -0.363,-0.075c-0.114,-0.05 -0.213,-0.117 -0.297,-0.201c-0.084,-0.084 -0.151,-0.182 -0.201,-0.294c-0.05,-0.112 -0.075,-0.232 -0.075,-0.36c0,-0.132 0.025,-0.256 0.075,-0.372c0.05,-0.116 0.117,-0.216 0.201,-0.3c0.084,-0.084 0.183,-0.151 0.297,-0.201c0.114,-0.05 0.235,-0.075 0.363,-0.075c0.132,0 0.256,0.025 0.372,0.075c0.116,0.05 0.217,0.117 0.303,0.201c0.086,0.084 0.155,0.184 0.207,0.3c0.052,0.116 0.078,0.24 0.078,0.372Z" style="fill:#333;fill-rule:nonzero;"/><path d="M312.372,207.511l0,-8.916l1.482,0l0,3.516c0.244,-0.26 0.52,-0.467 0.828,-0.621c0.308,-0.154 0.668,-0.231 1.08,-0.231c0.336,0 0.643,0.069 0.921,0.207c0.278,0.138 0.518,0.339 0.72,0.603c0.202,0.264 0.358,0.59 0.468,0.978c0.11,0.388 0.165,0.834 0.165,1.338c0,0.46 -0.062,0.886 -0.186,1.278c-0.124,0.392 -0.301,0.732 -0.531,1.02c-0.23,0.288 -0.508,0.513 -0.834,0.675c-0.326,0.162 -0.691,0.243 -1.095,0.243c-0.188,0 -0.36,-0.019 -0.516,-0.057c-0.156,-0.038 -0.298,-0.091 -0.426,-0.159c-0.128,-0.068 -0.247,-0.151 -0.357,-0.249c-0.11,-0.098 -0.215,-0.207 -0.315,-0.327l-0.066,0.414c-0.024,0.104 -0.065,0.178 -0.123,0.222c-0.058,0.044 -0.137,0.066 -0.237,0.066l-0.978,0Zm2.88,-5.1c-0.308,0 -0.571,0.065 -0.789,0.195c-0.218,0.13 -0.421,0.313 -0.609,0.549l0,2.76c0.168,0.208 0.351,0.353 0.549,0.435c0.198,0.082 0.413,0.123 0.645,0.123c0.224,0 0.426,-0.042 0.606,-0.126c0.18,-0.084 0.333,-0.212 0.459,-0.384c0.126,-0.172 0.223,-0.389 0.291,-0.651c0.068,-0.262 0.102,-0.571 0.102,-0.927c0,-0.36 -0.029,-0.665 -0.087,-0.915c-0.058,-0.25 -0.141,-0.453 -0.249,-0.609c-0.108,-0.156 -0.239,-0.27 -0.393,-0.342c-0.154,-0.072 -0.329,-0.108 -0.525,-0.108Z" style="fill:#333;fill-rule:nonzero;"/><path d="M319.194,207.511l0,-6.156l0.87,0c0.152,0 0.258,0.028 0.318,0.084c0.06,0.056 0.1,0.152 0.12,0.288l0.09,0.744c0.22,-0.38 0.478,-0.68 0.774,-0.9c0.296,-0.22 0.628,-0.33 0.996,-0.33c0.304,0 0.556,0.07 0.756,0.21l-0.192,1.11c-0.012,0.072 -0.038,0.123 -0.078,0.153c-0.04,0.03 -0.094,0.045 -0.162,0.045c-0.06,0 -0.142,-0.014 -0.246,-0.042c-0.104,-0.028 -0.242,-0.042 -0.414,-0.042c-0.308,0 -0.572,0.085 -0.792,0.255c-0.22,0.17 -0.406,0.419 -0.558,0.747l0,3.834l-1.482,0Z" style="fill:#333;fill-rule:nonzero;"/><path d="M328.746,207.511l-0.666,0c-0.14,0 -0.25,-0.021 -0.33,-0.063c-0.08,-0.042 -0.14,-0.127 -0.18,-0.255l-0.132,-0.438c-0.156,0.14 -0.309,0.263 -0.459,0.369c-0.15,0.106 -0.305,0.195 -0.465,0.267c-0.16,0.072 -0.33,0.126 -0.51,0.162c-0.18,0.036 -0.38,0.054 -0.6,0.054c-0.26,0 -0.5,-0.035 -0.72,-0.106c-0.22,-0.07 -0.409,-0.175 -0.567,-0.316c-0.158,-0.14 -0.281,-0.315 -0.369,-0.523c-0.088,-0.209 -0.132,-0.452 -0.132,-0.729c0,-0.233 0.061,-0.462 0.183,-0.689c0.122,-0.227 0.325,-0.431 0.609,-0.614c0.284,-0.183 0.662,-0.334 1.134,-0.455c0.472,-0.12 1.058,-0.18 1.758,-0.18l0,-0.363c0,-0.415 -0.087,-0.722 -0.261,-0.922c-0.174,-0.199 -0.427,-0.299 -0.759,-0.299c-0.24,0 -0.44,0.028 -0.6,0.084c-0.16,0.056 -0.299,0.119 -0.417,0.189c-0.118,0.07 -0.227,0.133 -0.327,0.189c-0.1,0.056 -0.21,0.084 -0.33,0.084c-0.1,0 -0.186,-0.026 -0.258,-0.078c-0.072,-0.052 -0.13,-0.116 -0.174,-0.192l-0.27,-0.474c0.708,-0.648 1.562,-0.972 2.562,-0.972c0.36,0 0.681,0.059 0.963,0.177c0.282,0.118 0.521,0.282 0.717,0.492c0.196,0.21 0.345,0.461 0.447,0.753c0.102,0.292 0.153,0.612 0.153,0.96l0,3.888Zm-2.88,-0.924c0.152,0 0.292,-0.014 0.42,-0.042c0.128,-0.027 0.249,-0.068 0.363,-0.124c0.114,-0.055 0.224,-0.123 0.33,-0.203c0.106,-0.081 0.213,-0.177 0.321,-0.287l0,-1.03c-0.432,0 -0.793,0.027 -1.083,0.081c-0.29,0.055 -0.523,0.124 -0.699,0.209c-0.176,0.085 -0.301,0.183 -0.375,0.296c-0.074,0.113 -0.111,0.236 -0.111,0.369c0,0.261 0.077,0.449 0.231,0.562c0.154,0.112 0.355,0.169 0.603,0.169Z" style="fill:#333;fill-rule:nonzero;"/><path d="M330.204,207.511l0,-6.156l0.87,0c0.152,0 0.258,0.028 0.318,0.084c0.06,0.056 0.1,0.152 0.12,0.288l0.09,0.744c0.22,-0.38 0.478,-0.68 0.774,-0.9c0.296,-0.22 0.628,-0.33 0.996,-0.33c0.304,0 0.556,0.07 0.756,0.21l-0.192,1.11c-0.012,0.072 -0.038,0.123 -0.078,0.153c-0.04,0.03 -0.094,0.045 -0.162,0.045c-0.06,0 -0.142,-0.014 -0.246,-0.042c-0.104,-0.028 -0.242,-0.042 -0.414,-0.042c-0.308,0 -0.572,0.085 -0.792,0.255c-0.22,0.17 -0.406,0.419 -0.558,0.747l0,3.834l-1.482,0Z" style="fill:#333;fill-rule:nonzero;"/><path d="M337.29,209.203c-0.044,0.104 -0.101,0.183 -0.171,0.237c-0.07,0.054 -0.177,0.081 -0.321,0.081l-1.104,0l1.152,-2.466l-2.49,-5.7l1.296,0c0.12,0 0.212,0.028 0.276,0.084c0.064,0.056 0.112,0.12 0.144,0.192l1.314,3.192c0.044,0.104 0.082,0.212 0.114,0.324c0.032,0.112 0.06,0.224 0.084,0.336c0.032,-0.116 0.067,-0.228 0.105,-0.336c0.038,-0.108 0.079,-0.218 0.123,-0.33l1.236,-3.186c0.032,-0.08 0.085,-0.146 0.159,-0.198c0.074,-0.052 0.157,-0.078 0.249,-0.078l1.188,0l-3.354,7.848Z" style="fill:#333;fill-rule:nonzero;"/><path d="M345.846,207.607c-0.532,0 -0.942,-0.151 -1.23,-0.453c-0.288,-0.302 -0.432,-0.719 -0.432,-1.251l0,-3.438l-0.624,0c-0.08,0 -0.149,-0.026 -0.207,-0.078c-0.058,-0.052 -0.087,-0.13 -0.087,-0.234l0,-0.588l0.99,-0.162l0.312,-1.68c0.016,-0.08 0.053,-0.142 0.111,-0.186c0.058,-0.044 0.131,-0.066 0.219,-0.066l0.768,0l0,1.938l1.62,0l0,1.056l-1.62,0l0,3.336c0,0.192 0.048,0.342 0.144,0.45c0.096,0.108 0.224,0.162 0.384,0.162c0.092,0 0.169,-0.011 0.231,-0.033c0.062,-0.022 0.116,-0.045 0.162,-0.069c0.046,-0.024 0.087,-0.047 0.123,-0.069c0.036,-0.022 0.072,-0.033 0.108,-0.033c0.044,0 0.08,0.011 0.108,0.033c0.028,0.022 0.058,0.055 0.09,0.099l0.444,0.72c-0.216,0.18 -0.464,0.316 -0.744,0.408c-0.28,0.092 -0.57,0.138 -0.87,0.138Z" style="fill:#333;fill-rule:nonzero;"/><path d="M348.468,207.511l0,-8.916l1.482,0l0,3.426c0.24,-0.228 0.504,-0.412 0.792,-0.552c0.288,-0.14 0.626,-0.21 1.014,-0.21c0.336,0 0.634,0.057 0.894,0.171c0.26,0.114 0.477,0.274 0.651,0.48c0.174,0.206 0.306,0.452 0.396,0.738c0.09,0.286 0.135,0.601 0.135,0.945l0,3.918l-1.482,0l0,-3.918c0,-0.376 -0.087,-0.667 -0.261,-0.873c-0.174,-0.206 -0.435,-0.309 -0.783,-0.309c-0.256,0 -0.496,0.058 -0.72,0.174c-0.224,0.116 -0.436,0.274 -0.636,0.474l0,4.452l-1.482,0Z" style="fill:#333;fill-rule:nonzero;"/><path d="M360.114,207.511l-0.666,0c-0.14,0 -0.25,-0.021 -0.33,-0.063c-0.08,-0.042 -0.14,-0.127 -0.18,-0.255l-0.132,-0.438c-0.156,0.14 -0.309,0.263 -0.459,0.369c-0.15,0.106 -0.305,0.195 -0.465,0.267c-0.16,0.072 -0.33,0.126 -0.51,0.162c-0.18,0.036 -0.38,0.054 -0.6,0.054c-0.26,0 -0.5,-0.035 -0.72,-0.106c-0.22,-0.07 -0.409,-0.175 -0.567,-0.316c-0.158,-0.14 -0.281,-0.315 -0.369,-0.523c-0.088,-0.209 -0.132,-0.452 -0.132,-0.729c0,-0.233 0.061,-0.462 0.183,-0.689c0.122,-0.227 0.325,-0.431 0.609,-0.614c0.284,-0.183 0.662,-0.334 1.134,-0.455c0.472,-0.12 1.058,-0.18 1.758,-0.18l0,-0.363c0,-0.415 -0.087,-0.722 -0.261,-0.922c-0.174,-0.199 -0.427,-0.299 -0.759,-0.299c-0.24,0 -0.44,0.028 -0.6,0.084c-0.16,0.056 -0.299,0.119 -0.417,0.189c-0.118,0.07 -0.227,0.133 -0.327,0.189c-0.1,0.056 -0.21,0.084 -0.33,0.084c-0.1,0 -0.186,-0.026 -0.258,-0.078c-0.072,-0.052 -0.13,-0.116 -0.174,-0.192l-0.27,-0.474c0.708,-0.648 1.562,-0.972 2.562,-0.972c0.36,0 0.681,0.059 0.963,0.177c0.282,0.118 0.521,0.282 0.717,0.492c0.196,0.21 0.345,0.461 0.447,0.753c0.102,0.292 0.153,0.612 0.153,0.96l0,3.888Zm-2.88,-0.924c0.152,0 0.292,-0.014 0.42,-0.042c0.128,-0.027 0.249,-0.068 0.363,-0.124c0.114,-0.055 0.224,-0.123 0.33,-0.203c0.106,-0.081 0.213,-0.177 0.321,-0.287l0,-1.03c-0.432,0 -0.793,0.027 -1.083,0.081c-0.29,0.055 -0.523,0.124 -0.699,0.209c-0.176,0.085 -0.301,0.183 -0.375,0.296c-0.074,0.113 -0.111,0.236 -0.111,0.369c0,0.261 0.077,0.449 0.231,0.562c0.154,0.112 0.355,0.169 0.603,0.169Z" style="fill:#333;fill-rule:nonzero;"/><path d="M363.594,207.607c-0.532,0 -0.942,-0.151 -1.23,-0.453c-0.288,-0.302 -0.432,-0.719 -0.432,-1.251l0,-3.438l-0.624,0c-0.08,0 -0.149,-0.026 -0.207,-0.078c-0.058,-0.052 -0.087,-0.13 -0.087,-0.234l0,-0.588l0.99,-0.162l0.312,-1.68c0.016,-0.08 0.053,-0.142 0.111,-0.186c0.058,-0.044 0.131,-0.066 0.219,-0.066l0.768,0l0,1.938l1.62,0l0,1.056l-1.62,0l0,3.336c0,0.192 0.048,0.342 0.144,0.45c0.096,0.108 0.224,0.162 0.384,0.162c0.092,0 0.169,-0.011 0.231,-0.033c0.062,-0.022 0.116,-0.045 0.162,-0.069c0.046,-0.024 0.087,-0.047 0.123,-0.069c0.036,-0.022 0.072,-0.033 0.108,-0.033c0.044,0 0.08,0.011 0.108,0.033c0.028,0.022 0.058,0.055 0.09,0.099l0.444,0.72c-0.216,0.18 -0.464,0.316 -0.744,0.408c-0.28,0.092 -0.57,0.138 -0.87,0.138Z" style="fill:#333;fill-rule:nonzero;"/><path d="M372.858,202.657c-0.044,0.056 -0.087,0.1 -0.129,0.132c-0.042,0.032 -0.103,0.048 -0.183,0.048c-0.076,0 -0.15,-0.023 -0.222,-0.069c-0.072,-0.046 -0.158,-0.098 -0.258,-0.156c-0.1,-0.058 -0.219,-0.11 -0.357,-0.156c-0.138,-0.046 -0.309,-0.069 -0.513,-0.069c-0.26,0 -0.488,0.047 -0.684,0.141c-0.196,0.094 -0.359,0.229 -0.489,0.405c-0.13,0.176 -0.227,0.389 -0.291,0.639c-0.064,0.25 -0.096,0.533 -0.096,0.849c0,0.328 0.035,0.62 0.105,0.876c0.07,0.256 0.171,0.471 0.303,0.645c0.132,0.174 0.292,0.306 0.48,0.396c0.188,0.09 0.4,0.135 0.636,0.135c0.236,0 0.427,-0.029 0.573,-0.087c0.146,-0.058 0.269,-0.122 0.369,-0.192c0.1,-0.07 0.187,-0.134 0.261,-0.192c0.074,-0.058 0.157,-0.087 0.249,-0.087c0.12,0 0.21,0.046 0.27,0.138l0.426,0.54c-0.164,0.192 -0.342,0.353 -0.534,0.483c-0.192,0.13 -0.391,0.234 -0.597,0.312c-0.206,0.078 -0.419,0.133 -0.639,0.165c-0.22,0.032 -0.438,0.048 -0.654,0.048c-0.38,0 -0.738,-0.071 -1.074,-0.213c-0.336,-0.142 -0.629,-0.349 -0.879,-0.621c-0.25,-0.272 -0.448,-0.605 -0.594,-0.999c-0.146,-0.394 -0.219,-0.843 -0.219,-1.347c0,-0.452 0.065,-0.871 0.195,-1.257c0.13,-0.386 0.321,-0.72 0.573,-1.002c0.252,-0.282 0.564,-0.503 0.936,-0.663c0.372,-0.16 0.8,-0.24 1.284,-0.24c0.46,0 0.863,0.074 1.209,0.222c0.346,0.148 0.657,0.36 0.933,0.636l-0.39,0.54Z" style="fill:#333;fill-rule:nonzero;"/><path d="M376.884,201.259c0.46,0 0.877,0.074 1.251,0.222c0.374,0.148 0.693,0.358 0.957,0.63c0.264,0.272 0.468,0.604 0.612,0.996c0.144,0.392 0.216,0.83 0.216,1.314c0,0.488 -0.072,0.928 -0.216,1.32c-0.144,0.392 -0.348,0.726 -0.612,1.002c-0.264,0.276 -0.583,0.488 -0.957,0.636c-0.374,0.148 -0.791,0.222 -1.251,0.222c-0.46,0 -0.878,-0.074 -1.254,-0.222c-0.376,-0.148 -0.697,-0.36 -0.963,-0.636c-0.266,-0.276 -0.472,-0.61 -0.618,-1.002c-0.146,-0.392 -0.219,-0.832 -0.219,-1.32c0,-0.484 0.073,-0.922 0.219,-1.314c0.146,-0.392 0.352,-0.724 0.618,-0.996c0.266,-0.272 0.587,-0.482 0.963,-0.63c0.376,-0.148 0.794,-0.222 1.254,-0.222Zm0,5.202c0.512,0 0.891,-0.172 1.137,-0.516c0.246,-0.344 0.369,-0.848 0.369,-1.512c0,-0.664 -0.123,-1.17 -0.369,-1.518c-0.246,-0.348 -0.625,-0.522 -1.137,-0.522c-0.52,0 -0.904,0.175 -1.152,0.525c-0.248,0.35 -0.372,0.855 -0.372,1.515c0,0.66 0.124,1.163 0.372,1.509c0.248,0.346 0.632,0.519 1.152,0.519Z" style="fill:#333;fill-rule:nonzero;"/><path d="M381.078,207.511l0,-6.156l0.906,0c0.192,0 0.318,0.09 0.378,0.27l0.102,0.486c0.124,-0.128 0.255,-0.244 0.393,-0.348c0.138,-0.104 0.284,-0.194 0.438,-0.27c0.154,-0.076 0.319,-0.134 0.495,-0.174c0.176,-0.04 0.368,-0.06 0.576,-0.06c0.336,0 0.634,0.057 0.894,0.171c0.26,0.114 0.477,0.274 0.651,0.48c0.174,0.206 0.306,0.452 0.396,0.738c0.09,0.286 0.135,0.601 0.135,0.945l0,3.918l-1.482,0l0,-3.918c0,-0.376 -0.087,-0.667 -0.261,-0.873c-0.174,-0.206 -0.435,-0.309 -0.783,-0.309c-0.256,0 -0.496,0.058 -0.72,0.174c-0.224,0.116 -0.436,0.274 -0.636,0.474l0,4.452l-1.482,0Z" style="fill:#333;fill-rule:nonzero;"/><path d="M390.768,207.511l-1.344,0l-2.448,-6.156l1.23,0c0.108,0 0.199,0.026 0.273,0.078c0.074,0.052 0.125,0.118 0.153,0.198l1.188,3.288c0.068,0.192 0.125,0.38 0.171,0.564c0.046,0.184 0.087,0.368 0.123,0.552c0.036,-0.184 0.077,-0.368 0.123,-0.552c0.046,-0.184 0.105,-0.372 0.177,-0.564l1.218,-3.288c0.028,-0.08 0.078,-0.146 0.15,-0.198c0.072,-0.052 0.158,-0.078 0.258,-0.078l1.17,0l-2.442,6.156Z" style="fill:#333;fill-rule:nonzero;"/><path d="M396.432,201.259c0.388,0 0.745,0.062 1.071,0.186c0.326,0.124 0.607,0.305 0.843,0.543c0.236,0.238 0.42,0.53 0.552,0.876c0.132,0.346 0.198,0.741 0.198,1.185c0,0.112 -0.005,0.205 -0.015,0.279c-0.01,0.074 -0.028,0.132 -0.054,0.174c-0.026,0.042 -0.061,0.072 -0.105,0.09c-0.044,0.018 -0.1,0.027 -0.168,0.027l-3.804,0c0.044,0.632 0.214,1.096 0.51,1.392c0.296,0.296 0.688,0.444 1.176,0.444c0.24,0 0.447,-0.028 0.621,-0.084c0.174,-0.056 0.326,-0.118 0.456,-0.186c0.13,-0.068 0.244,-0.13 0.342,-0.186c0.098,-0.056 0.193,-0.084 0.285,-0.084c0.06,0 0.112,0.012 0.156,0.036c0.044,0.024 0.082,0.058 0.114,0.102l0.432,0.54c-0.164,0.192 -0.348,0.353 -0.552,0.483c-0.204,0.13 -0.417,0.234 -0.639,0.312c-0.222,0.078 -0.448,0.133 -0.678,0.165c-0.23,0.032 -0.453,0.048 -0.669,0.048c-0.428,0 -0.826,-0.071 -1.194,-0.213c-0.368,-0.142 -0.688,-0.352 -0.96,-0.63c-0.272,-0.278 -0.486,-0.622 -0.642,-1.032c-0.156,-0.41 -0.234,-0.885 -0.234,-1.425c0,-0.42 0.068,-0.815 0.204,-1.185c0.136,-0.37 0.331,-0.692 0.585,-0.966c0.254,-0.274 0.564,-0.491 0.93,-0.651c0.366,-0.16 0.779,-0.24 1.239,-0.24Zm0.03,1.062c-0.432,0 -0.77,0.122 -1.014,0.366c-0.244,0.244 -0.4,0.59 -0.468,1.038l2.784,0c0,-0.192 -0.026,-0.373 -0.078,-0.543c-0.052,-0.17 -0.132,-0.319 -0.24,-0.447c-0.108,-0.128 -0.244,-0.229 -0.408,-0.303c-0.164,-0.074 -0.356,-0.111 -0.576,-0.111Z" style="fill:#333;fill-rule:nonzero;"/><path d="M400.302,207.511l0,-6.156l0.87,0c0.152,0 0.258,0.028 0.318,0.084c0.06,0.056 0.1,0.152 0.12,0.288l0.09,0.744c0.22,-0.38 0.478,-0.68 0.774,-0.9c0.296,-0.22 0.628,-0.33 0.996,-0.33c0.304,0 0.556,0.07 0.756,0.21l-0.192,1.11c-0.012,0.072 -0.038,0.123 -0.078,0.153c-0.04,0.03 -0.094,0.045 -0.162,0.045c-0.06,0 -0.142,-0.014 -0.246,-0.042c-0.104,-0.028 -0.242,-0.042 -0.414,-0.042c-0.308,0 -0.572,0.085 -0.792,0.255c-0.22,0.17 -0.406,0.419 -0.558,0.747l0,3.834l-1.482,0Z" style="fill:#333;fill-rule:nonzero;"/><path d="M407.226,207.607c-0.532,0 -0.942,-0.151 -1.23,-0.453c-0.288,-0.302 -0.432,-0.719 -0.432,-1.251l0,-3.438l-0.624,0c-0.08,0 -0.149,-0.026 -0.207,-0.078c-0.058,-0.052 -0.087,-0.13 -0.087,-0.234l0,-0.588l0.99,-0.162l0.312,-1.68c0.016,-0.08 0.053,-0.142 0.111,-0.186c0.058,-0.044 0.131,-0.066 0.219,-0.066l0.768,0l0,1.938l1.62,0l0,1.056l-1.62,0l0,3.336c0,0.192 0.048,0.342 0.144,0.45c0.096,0.108 0.224,0.162 0.384,0.162c0.092,0 0.169,-0.011 0.231,-0.033c0.062,-0.022 0.116,-0.045 0.162,-0.069c0.046,-0.024 0.087,-0.047 0.123,-0.069c0.036,-0.022 0.072,-0.033 0.108,-0.033c0.044,0 0.08,0.011 0.108,0.033c0.028,0.022 0.058,0.055 0.09,0.099l0.444,0.72c-0.216,0.18 -0.464,0.316 -0.744,0.408c-0.28,0.092 -0.57,0.138 -0.87,0.138Z" style="fill:#333;fill-rule:nonzero;"/><path d="M413.502,202.555c-0.04,0.064 -0.082,0.109 -0.126,0.135c-0.044,0.026 -0.1,0.039 -0.168,0.039c-0.072,0 -0.149,-0.02 -0.231,-0.06c-0.082,-0.04 -0.177,-0.085 -0.285,-0.135c-0.108,-0.05 -0.231,-0.095 -0.369,-0.135c-0.138,-0.04 -0.301,-0.06 -0.489,-0.06c-0.292,0 -0.522,0.062 -0.69,0.186c-0.168,0.124 -0.252,0.286 -0.252,0.486c0,0.132 0.043,0.243 0.129,0.333c0.086,0.09 0.2,0.169 0.342,0.237c0.142,0.068 0.303,0.129 0.483,0.183c0.18,0.054 0.364,0.113 0.552,0.177c0.188,0.064 0.372,0.137 0.552,0.219c0.18,0.082 0.341,0.186 0.483,0.312c0.142,0.126 0.256,0.277 0.342,0.453c0.086,0.176 0.129,0.388 0.129,0.636c0,0.296 -0.054,0.569 -0.162,0.819c-0.108,0.25 -0.266,0.466 -0.474,0.648c-0.208,0.182 -0.465,0.324 -0.771,0.426c-0.306,0.102 -0.657,0.153 -1.053,0.153c-0.212,0 -0.419,-0.019 -0.621,-0.057c-0.202,-0.038 -0.396,-0.091 -0.582,-0.159c-0.186,-0.068 -0.358,-0.148 -0.516,-0.24c-0.158,-0.092 -0.297,-0.192 -0.417,-0.3l0.342,-0.564c0.044,-0.068 0.096,-0.12 0.156,-0.156c0.06,-0.036 0.136,-0.054 0.228,-0.054c0.092,0 0.179,0.026 0.261,0.078c0.082,0.052 0.177,0.108 0.285,0.168c0.108,0.06 0.235,0.116 0.381,0.168c0.146,0.052 0.331,0.078 0.555,0.078c0.176,0 0.327,-0.021 0.453,-0.063c0.126,-0.042 0.23,-0.097 0.312,-0.165c0.082,-0.068 0.142,-0.147 0.18,-0.237c0.038,-0.09 0.057,-0.183 0.057,-0.279c0,-0.144 -0.043,-0.262 -0.129,-0.354c-0.086,-0.092 -0.2,-0.172 -0.342,-0.24c-0.142,-0.068 -0.304,-0.129 -0.486,-0.183c-0.182,-0.054 -0.368,-0.113 -0.558,-0.177c-0.19,-0.064 -0.376,-0.139 -0.558,-0.225c-0.182,-0.086 -0.344,-0.195 -0.486,-0.327c-0.142,-0.132 -0.256,-0.294 -0.342,-0.486c-0.086,-0.192 -0.129,-0.424 -0.129,-0.696c0,-0.252 0.05,-0.492 0.15,-0.72c0.1,-0.228 0.247,-0.427 0.441,-0.597c0.194,-0.17 0.436,-0.306 0.726,-0.408c0.29,-0.102 0.625,-0.153 1.005,-0.153c0.424,0 0.81,0.07 1.158,0.21c0.348,0.14 0.638,0.324 0.87,0.552l-0.336,0.534Z" style="fill:#333;fill-rule:nonzero;"/><path d="M417.672,207.511l0,-5.04l-0.534,-0.084c-0.116,-0.02 -0.209,-0.06 -0.279,-0.12c-0.07,-0.06 -0.105,-0.144 -0.105,-0.252l0,-0.606l0.918,0l0,-0.456c0,-0.352 0.053,-0.668 0.159,-0.948c0.106,-0.28 0.258,-0.518 0.456,-0.714c0.198,-0.196 0.439,-0.346 0.723,-0.45c0.284,-0.104 0.604,-0.156 0.96,-0.156c0.284,0 0.548,0.038 0.792,0.114l-0.03,0.744c-0.008,0.116 -0.062,0.188 -0.162,0.216c-0.1,0.028 -0.216,0.042 -0.348,0.042c-0.176,0 -0.333,0.019 -0.471,0.057c-0.138,0.038 -0.255,0.104 -0.351,0.198c-0.096,0.094 -0.169,0.218 -0.219,0.372c-0.05,0.154 -0.075,0.345 -0.075,0.573l0,0.408l1.602,0l0,1.056l-1.554,0l0,5.046l-1.482,0Z" style="fill:#333;fill-rule:nonzero;"/><path d="M424.242,201.259c0.46,0 0.877,0.074 1.251,0.222c0.374,0.148 0.693,0.358 0.957,0.63c0.264,0.272 0.468,0.604 0.612,0.996c0.144,0.392 0.216,0.83 0.216,1.314c0,0.488 -0.072,0.928 -0.216,1.32c-0.144,0.392 -0.348,0.726 -0.612,1.002c-0.264,0.276 -0.583,0.488 -0.957,0.636c-0.374,0.148 -0.791,0.222 -1.251,0.222c-0.46,0 -0.878,-0.074 -1.254,-0.222c-0.376,-0.148 -0.697,-0.36 -0.963,-0.636c-0.266,-0.276 -0.472,-0.61 -0.618,-1.002c-0.146,-0.392 -0.219,-0.832 -0.219,-1.32c0,-0.484 0.073,-0.922 0.219,-1.314c0.146,-0.392 0.352,-0.724 0.618,-0.996c0.266,-0.272 0.587,-0.482 0.963,-0.63c0.376,-0.148 0.794,-0.222 1.254,-0.222Zm0,5.202c0.512,0 0.891,-0.172 1.137,-0.516c0.246,-0.344 0.369,-0.848 0.369,-1.512c0,-0.664 -0.123,-1.17 -0.369,-1.518c-0.246,-0.348 -0.625,-0.522 -1.137,-0.522c-0.52,0 -0.904,0.175 -1.152,0.525c-0.248,0.35 -0.372,0.855 -0.372,1.515c0,0.66 0.124,1.163 0.372,1.509c0.248,0.346 0.632,0.519 1.152,0.519Z" style="fill:#333;fill-rule:nonzero;"/><path d="M428.436,207.511l0,-6.156l0.87,0c0.152,0 0.258,0.028 0.318,0.084c0.06,0.056 0.1,0.152 0.12,0.288l0.09,0.744c0.22,-0.38 0.478,-0.68 0.774,-0.9c0.296,-0.22 0.628,-0.33 0.996,-0.33c0.304,0 0.556,0.07 0.756,0.21l-0.192,1.11c-0.012,0.072 -0.038,0.123 -0.078,0.153c-0.04,0.03 -0.094,0.045 -0.162,0.045c-0.06,0 -0.142,-0.014 -0.246,-0.042c-0.104,-0.028 -0.242,-0.042 -0.414,-0.042c-0.308,0 -0.572,0.085 -0.792,0.255c-0.22,0.17 -0.406,0.419 -0.558,0.747l0,3.834l-1.482,0Z" style="fill:#333;fill-rule:nonzero;"/><path d="M433.338,207.511l0,-6.156l0.906,0c0.192,0 0.318,0.09 0.378,0.27l0.096,0.456c0.108,-0.12 0.221,-0.23 0.339,-0.33c0.118,-0.1 0.244,-0.186 0.378,-0.258c0.134,-0.072 0.278,-0.129 0.432,-0.171c0.154,-0.042 0.323,-0.063 0.507,-0.063c0.388,0 0.707,0.105 0.957,0.315c0.25,0.21 0.437,0.489 0.561,0.837c0.096,-0.204 0.216,-0.379 0.36,-0.525c0.144,-0.146 0.302,-0.265 0.474,-0.357c0.172,-0.092 0.355,-0.16 0.549,-0.204c0.194,-0.044 0.389,-0.066 0.585,-0.066c0.34,0 0.642,0.052 0.906,0.156c0.264,0.104 0.486,0.256 0.666,0.456c0.18,0.2 0.317,0.444 0.411,0.732c0.094,0.288 0.141,0.618 0.141,0.99l0,3.918l-1.482,0l0,-3.918c0,-0.392 -0.086,-0.687 -0.258,-0.885c-0.172,-0.198 -0.424,-0.297 -0.756,-0.297c-0.152,0 -0.293,0.026 -0.423,0.078c-0.13,0.052 -0.244,0.127 -0.342,0.225c-0.098,0.098 -0.175,0.221 -0.231,0.369c-0.056,0.148 -0.084,0.318 -0.084,0.51l0,3.918l-1.488,0l0,-3.918c0,-0.412 -0.083,-0.712 -0.249,-0.9c-0.166,-0.188 -0.411,-0.282 -0.735,-0.282c-0.212,0 -0.411,0.053 -0.597,0.159c-0.186,0.106 -0.359,0.251 -0.519,0.435l0,4.506l-1.482,0Z" style="fill:#333;fill-rule:nonzero;"/><path d="M447.096,202.555c-0.04,0.064 -0.082,0.109 -0.126,0.135c-0.044,0.026 -0.1,0.039 -0.168,0.039c-0.072,0 -0.149,-0.02 -0.231,-0.06c-0.082,-0.04 -0.177,-0.085 -0.285,-0.135c-0.108,-0.05 -0.231,-0.095 -0.369,-0.135c-0.138,-0.04 -0.301,-0.06 -0.489,-0.06c-0.292,0 -0.522,0.062 -0.69,0.186c-0.168,0.124 -0.252,0.286 -0.252,0.486c0,0.132 0.043,0.243 0.129,0.333c0.086,0.09 0.2,0.169 0.342,0.237c0.142,0.068 0.303,0.129 0.483,0.183c0.18,0.054 0.364,0.113 0.552,0.177c0.188,0.064 0.372,0.137 0.552,0.219c0.18,0.082 0.341,0.186 0.483,0.312c0.142,0.126 0.256,0.277 0.342,0.453c0.086,0.176 0.129,0.388 0.129,0.636c0,0.296 -0.054,0.569 -0.162,0.819c-0.108,0.25 -0.266,0.466 -0.474,0.648c-0.208,0.182 -0.465,0.324 -0.771,0.426c-0.306,0.102 -0.657,0.153 -1.053,0.153c-0.212,0 -0.419,-0.019 -0.621,-0.057c-0.202,-0.038 -0.396,-0.091 -0.582,-0.159c-0.186,-0.068 -0.358,-0.148 -0.516,-0.24c-0.158,-0.092 -0.297,-0.192 -0.417,-0.3l0.342,-0.564c0.044,-0.068 0.096,-0.12 0.156,-0.156c0.06,-0.036 0.136,-0.054 0.228,-0.054c0.092,0 0.179,0.026 0.261,0.078c0.082,0.052 0.177,0.108 0.285,0.168c0.108,0.06 0.235,0.116 0.381,0.168c0.146,0.052 0.331,0.078 0.555,0.078c0.176,0 0.327,-0.021 0.453,-0.063c0.126,-0.042 0.23,-0.097 0.312,-0.165c0.082,-0.068 0.142,-0.147 0.18,-0.237c0.038,-0.09 0.057,-0.183 0.057,-0.279c0,-0.144 -0.043,-0.262 -0.129,-0.354c-0.086,-0.092 -0.2,-0.172 -0.342,-0.24c-0.142,-0.068 -0.304,-0.129 -0.486,-0.183c-0.182,-0.054 -0.368,-0.113 -0.558,-0.177c-0.19,-0.064 -0.376,-0.139 -0.558,-0.225c-0.182,-0.086 -0.344,-0.195 -0.486,-0.327c-0.142,-0.132 -0.256,-0.294 -0.342,-0.486c-0.086,-0.192 -0.129,-0.424 -0.129,-0.696c0,-0.252 0.05,-0.492 0.15,-0.72c0.1,-0.228 0.247,-0.427 0.441,-0.597c0.194,-0.17 0.436,-0.306 0.726,-0.408c0.29,-0.102 0.625,-0.153 1.005,-0.153c0.424,0 0.81,0.07 1.158,0.21c0.348,0.14 0.638,0.324 0.87,0.552l-0.336,0.534Z" style="fill:#333;fill-rule:nonzero;"/><path d="M452.58,201.355l0,6.156l-1.482,0l0,-6.156l1.482,0Zm0.222,-1.794c0,0.128 -0.026,0.248 -0.078,0.36c-0.052,0.112 -0.121,0.21 -0.207,0.294c-0.086,0.084 -0.187,0.151 -0.303,0.201c-0.116,0.05 -0.24,0.075 -0.372,0.075c-0.128,0 -0.249,-0.025 -0.363,-0.075c-0.114,-0.05 -0.213,-0.117 -0.297,-0.201c-0.084,-0.084 -0.151,-0.182 -0.201,-0.294c-0.05,-0.112 -0.075,-0.232 -0.075,-0.36c0,-0.132 0.025,-0.256 0.075,-0.372c0.05,-0.116 0.117,-0.216 0.201,-0.3c0.084,-0.084 0.183,-0.151 0.297,-0.201c0.114,-0.05 0.235,-0.075 0.363,-0.075c0.132,0 0.256,0.025 0.372,0.075c0.116,0.05 0.217,0.117 0.303,0.201c0.086,0.084 0.155,0.184 0.207,0.3c0.052,0.116 0.078,0.24 0.078,0.372Z" style="fill:#333;fill-rule:nonzero;"/><path d="M454.254,207.511l0,-6.156l0.906,0c0.192,0 0.318,0.09 0.378,0.27l0.102,0.486c0.124,-0.128 0.255,-0.244 0.393,-0.348c0.138,-0.104 0.284,-0.194 0.438,-0.27c0.154,-0.076 0.319,-0.134 0.495,-0.174c0.176,-0.04 0.368,-0.06 0.576,-0.06c0.336,0 0.634,0.057 0.894,0.171c0.26,0.114 0.477,0.274 0.651,0.48c0.174,0.206 0.306,0.452 0.396,0.738c0.09,0.286 0.135,0.601 0.135,0.945l0,3.918l-1.482,0l0,-3.918c0,-0.376 -0.087,-0.667 -0.261,-0.873c-0.174,-0.206 -0.435,-0.309 -0.783,-0.309c-0.256,0 -0.496,0.058 -0.72,0.174c-0.224,0.116 -0.436,0.274 -0.636,0.474l0,4.452l-1.482,0Z" style="fill:#333;fill-rule:nonzero;"/><path d="M463.098,207.607c-0.532,0 -0.942,-0.151 -1.23,-0.453c-0.288,-0.302 -0.432,-0.719 -0.432,-1.251l0,-3.438l-0.624,0c-0.08,0 -0.149,-0.026 -0.207,-0.078c-0.058,-0.052 -0.087,-0.13 -0.087,-0.234l0,-0.588l0.99,-0.162l0.312,-1.68c0.016,-0.08 0.053,-0.142 0.111,-0.186c0.058,-0.044 0.131,-0.066 0.219,-0.066l0.768,0l0,1.938l1.62,0l0,1.056l-1.62,0l0,3.336c0,0.192 0.048,0.342 0.144,0.45c0.096,0.108 0.224,0.162 0.384,0.162c0.092,0 0.169,-0.011 0.231,-0.033c0.062,-0.022 0.116,-0.045 0.162,-0.069c0.046,-0.024 0.087,-0.047 0.123,-0.069c0.036,-0.022 0.072,-0.033 0.108,-0.033c0.044,0 0.08,0.011 0.108,0.033c0.028,0.022 0.058,0.055 0.09,0.099l0.444,0.72c-0.216,0.18 -0.464,0.316 -0.744,0.408c-0.28,0.092 -0.57,0.138 -0.87,0.138Z" style="fill:#333;fill-rule:nonzero;"/><path d="M468.348,201.259c0.46,0 0.877,0.074 1.251,0.222c0.374,0.148 0.693,0.358 0.957,0.63c0.264,0.272 0.468,0.604 0.612,0.996c0.144,0.392 0.216,0.83 0.216,1.314c0,0.488 -0.072,0.928 -0.216,1.32c-0.144,0.392 -0.348,0.726 -0.612,1.002c-0.264,0.276 -0.583,0.488 -0.957,0.636c-0.374,0.148 -0.791,0.222 -1.251,0.222c-0.46,0 -0.878,-0.074 -1.254,-0.222c-0.376,-0.148 -0.697,-0.36 -0.963,-0.636c-0.266,-0.276 -0.472,-0.61 -0.618,-1.002c-0.146,-0.392 -0.219,-0.832 -0.219,-1.32c0,-0.484 0.073,-0.922 0.219,-1.314c0.146,-0.392 0.352,-0.724 0.618,-0.996c0.266,-0.272 0.587,-0.482 0.963,-0.63c0.376,-0.148 0.794,-0.222 1.254,-0.222Zm0,5.202c0.512,0 0.891,-0.172 1.137,-0.516c0.246,-0.344 0.369,-0.848 0.369,-1.512c0,-0.664 -0.123,-1.17 -0.369,-1.518c-0.246,-0.348 -0.625,-0.522 -1.137,-0.522c-0.52,0 -0.904,0.175 -1.152,0.525c-0.248,0.35 -0.372,0.855 -0.372,1.515c0,0.66 0.124,1.163 0.372,1.509c0.248,0.346 0.632,0.519 1.152,0.519Z" style="fill:#333;fill-rule:nonzero;"/><path d="M479.682,207.511l-0.666,0c-0.14,0 -0.25,-0.021 -0.33,-0.063c-0.08,-0.042 -0.14,-0.127 -0.18,-0.255l-0.132,-0.438c-0.156,0.14 -0.309,0.263 -0.459,0.369c-0.15,0.106 -0.305,0.195 -0.465,0.267c-0.16,0.072 -0.33,0.126 -0.51,0.162c-0.18,0.036 -0.38,0.054 -0.6,0.054c-0.26,0 -0.5,-0.035 -0.72,-0.106c-0.22,-0.07 -0.409,-0.175 -0.567,-0.316c-0.158,-0.14 -0.281,-0.315 -0.369,-0.523c-0.088,-0.209 -0.132,-0.452 -0.132,-0.729c0,-0.233 0.061,-0.462 0.183,-0.689c0.122,-0.227 0.325,-0.431 0.609,-0.614c0.284,-0.183 0.662,-0.334 1.134,-0.455c0.472,-0.12 1.058,-0.18 1.758,-0.18l0,-0.363c0,-0.415 -0.087,-0.722 -0.261,-0.922c-0.174,-0.199 -0.427,-0.299 -0.759,-0.299c-0.24,0 -0.44,0.028 -0.6,0.084c-0.16,0.056 -0.299,0.119 -0.417,0.189c-0.118,0.07 -0.227,0.133 -0.327,0.189c-0.1,0.056 -0.21,0.084 -0.33,0.084c-0.1,0 -0.186,-0.026 -0.258,-0.078c-0.072,-0.052 -0.13,-0.116 -0.174,-0.192l-0.27,-0.474c0.708,-0.648 1.562,-0.972 2.562,-0.972c0.36,0 0.681,0.059 0.963,0.177c0.282,0.118 0.521,0.282 0.717,0.492c0.196,0.21 0.345,0.461 0.447,0.753c0.102,0.292 0.153,0.612 0.153,0.96l0,3.888Zm-2.88,-0.924c0.152,0 0.292,-0.014 0.42,-0.042c0.128,-0.027 0.249,-0.068 0.363,-0.124c0.114,-0.055 0.224,-0.123 0.33,-0.203c0.106,-0.081 0.213,-0.177 0.321,-0.287l0,-1.03c-0.432,0 -0.793,0.027 -1.083,0.081c-0.29,0.055 -0.523,0.124 -0.699,0.209c-0.176,0.085 -0.301,0.183 -0.375,0.296c-0.074,0.113 -0.111,0.236 -0.111,0.369c0,0.261 0.077,0.449 0.231,0.562c0.154,0.112 0.355,0.169 0.603,0.169Z" style="fill:#333;fill-rule:nonzero;"/><path d="M487.11,202.555c-0.04,0.064 -0.082,0.109 -0.126,0.135c-0.044,0.026 -0.1,0.039 -0.168,0.039c-0.072,0 -0.149,-0.02 -0.231,-0.06c-0.082,-0.04 -0.177,-0.085 -0.285,-0.135c-0.108,-0.05 -0.231,-0.095 -0.369,-0.135c-0.138,-0.04 -0.301,-0.06 -0.489,-0.06c-0.292,0 -0.522,0.062 -0.69,0.186c-0.168,0.124 -0.252,0.286 -0.252,0.486c0,0.132 0.043,0.243 0.129,0.333c0.086,0.09 0.2,0.169 0.342,0.237c0.142,0.068 0.303,0.129 0.483,0.183c0.18,0.054 0.364,0.113 0.552,0.177c0.188,0.064 0.372,0.137 0.552,0.219c0.18,0.082 0.341,0.186 0.483,0.312c0.142,0.126 0.256,0.277 0.342,0.453c0.086,0.176 0.129,0.388 0.129,0.636c0,0.296 -0.054,0.569 -0.162,0.819c-0.108,0.25 -0.266,0.466 -0.474,0.648c-0.208,0.182 -0.465,0.324 -0.771,0.426c-0.306,0.102 -0.657,0.153 -1.053,0.153c-0.212,0 -0.419,-0.019 -0.621,-0.057c-0.202,-0.038 -0.396,-0.091 -0.582,-0.159c-0.186,-0.068 -0.358,-0.148 -0.516,-0.24c-0.158,-0.092 -0.297,-0.192 -0.417,-0.3l0.342,-0.564c0.044,-0.068 0.096,-0.12 0.156,-0.156c0.06,-0.036 0.136,-0.054 0.228,-0.054c0.092,0 0.179,0.026 0.261,0.078c0.082,0.052 0.177,0.108 0.285,0.168c0.108,0.06 0.235,0.116 0.381,0.168c0.146,0.052 0.331,0.078 0.555,0.078c0.176,0 0.327,-0.021 0.453,-0.063c0.126,-0.042 0.23,-0.097 0.312,-0.165c0.082,-0.068 0.142,-0.147 0.18,-0.237c0.038,-0.09 0.057,-0.183 0.057,-0.279c0,-0.144 -0.043,-0.262 -0.129,-0.354c-0.086,-0.092 -0.2,-0.172 -0.342,-0.24c-0.142,-0.068 -0.304,-0.129 -0.486,-0.183c-0.182,-0.054 -0.368,-0.113 -0.558,-0.177c-0.19,-0.064 -0.376,-0.139 -0.558,-0.225c-0.182,-0.086 -0.344,-0.195 -0.486,-0.327c-0.142,-0.132 -0.256,-0.294 -0.342,-0.486c-0.086,-0.192 -0.129,-0.424 -0.129,-0.696c0,-0.252 0.05,-0.492 0.15,-0.72c0.1,-0.228 0.247,-0.427 0.441,-0.597c0.194,-0.17 0.436,-0.306 0.726,-0.408c0.29,-0.102 0.625,-0.153 1.005,-0.153c0.424,0 0.81,0.07 1.158,0.21c0.348,0.14 0.638,0.324 0.87,0.552l-0.336,0.534Z" style="fill:#333;fill-rule:nonzero;"/><path d="M490.722,207.607c-0.532,0 -0.942,-0.151 -1.23,-0.453c-0.288,-0.302 -0.432,-0.719 -0.432,-1.251l0,-3.438l-0.624,0c-0.08,0 -0.149,-0.026 -0.207,-0.078c-0.058,-0.052 -0.087,-0.13 -0.087,-0.234l0,-0.588l0.99,-0.162l0.312,-1.68c0.016,-0.08 0.053,-0.142 0.111,-0.186c0.058,-0.044 0.131,-0.066 0.219,-0.066l0.768,0l0,1.938l1.62,0l0,1.056l-1.62,0l0,3.336c0,0.192 0.048,0.342 0.144,0.45c0.096,0.108 0.224,0.162 0.384,0.162c0.092,0 0.169,-0.011 0.231,-0.033c0.062,-0.022 0.116,-0.045 0.162,-0.069c0.046,-0.024 0.087,-0.047 0.123,-0.069c0.036,-0.022 0.072,-0.033 0.108,-0.033c0.044,0 0.08,0.011 0.108,0.033c0.028,0.022 0.058,0.055 0.09,0.099l0.444,0.72c-0.216,0.18 -0.464,0.316 -0.744,0.408c-0.28,0.092 -0.57,0.138 -0.87,0.138Z" style="fill:#333;fill-rule:nonzero;"/><path d="M495.888,201.259c0.388,0 0.745,0.062 1.071,0.186c0.326,0.124 0.607,0.305 0.843,0.543c0.236,0.238 0.42,0.53 0.552,0.876c0.132,0.346 0.198,0.741 0.198,1.185c0,0.112 -0.005,0.205 -0.015,0.279c-0.01,0.074 -0.028,0.132 -0.054,0.174c-0.026,0.042 -0.061,0.072 -0.105,0.09c-0.044,0.018 -0.1,0.027 -0.168,0.027l-3.804,0c0.044,0.632 0.214,1.096 0.51,1.392c0.296,0.296 0.688,0.444 1.176,0.444c0.24,0 0.447,-0.028 0.621,-0.084c0.174,-0.056 0.326,-0.118 0.456,-0.186c0.13,-0.068 0.244,-0.13 0.342,-0.186c0.098,-0.056 0.193,-0.084 0.285,-0.084c0.06,0 0.112,0.012 0.156,0.036c0.044,0.024 0.082,0.058 0.114,0.102l0.432,0.54c-0.164,0.192 -0.348,0.353 -0.552,0.483c-0.204,0.13 -0.417,0.234 -0.639,0.312c-0.222,0.078 -0.448,0.133 -0.678,0.165c-0.23,0.032 -0.453,0.048 -0.669,0.048c-0.428,0 -0.826,-0.071 -1.194,-0.213c-0.368,-0.142 -0.688,-0.352 -0.96,-0.63c-0.272,-0.278 -0.486,-0.622 -0.642,-1.032c-0.156,-0.41 -0.234,-0.885 -0.234,-1.425c0,-0.42 0.068,-0.815 0.204,-1.185c0.136,-0.37 0.331,-0.692 0.585,-0.966c0.254,-0.274 0.564,-0.491 0.93,-0.651c0.366,-0.16 0.779,-0.24 1.239,-0.24Zm0.03,1.062c-0.432,0 -0.77,0.122 -1.014,0.366c-0.244,0.244 -0.4,0.59 -0.468,1.038l2.784,0c0,-0.192 -0.026,-0.373 -0.078,-0.543c-0.052,-0.17 -0.132,-0.319 -0.24,-0.447c-0.108,-0.128 -0.244,-0.229 -0.408,-0.303c-0.164,-0.074 -0.356,-0.111 -0.576,-0.111Z" style="fill:#333;fill-rule:nonzero;"/><path d="M499.758,209.521l0,-8.166l0.906,0c0.096,0 0.178,0.022 0.246,0.066c0.068,0.044 0.112,0.112 0.132,0.204l0.12,0.57c0.248,-0.284 0.533,-0.514 0.855,-0.69c0.322,-0.176 0.699,-0.264 1.131,-0.264c0.336,0 0.643,0.07 0.921,0.21c0.278,0.14 0.518,0.343 0.72,0.609c0.202,0.266 0.358,0.594 0.468,0.984c0.11,0.39 0.165,0.837 0.165,1.341c0,0.46 -0.062,0.886 -0.186,1.278c-0.124,0.392 -0.301,0.732 -0.531,1.02c-0.23,0.288 -0.508,0.513 -0.834,0.675c-0.326,0.162 -0.691,0.243 -1.095,0.243c-0.348,0 -0.643,-0.053 -0.885,-0.159c-0.242,-0.106 -0.459,-0.253 -0.651,-0.441l0,2.52l-1.482,0Zm2.88,-7.11c-0.308,0 -0.571,0.065 -0.789,0.195c-0.218,0.13 -0.421,0.313 -0.609,0.549l0,2.76c0.168,0.208 0.351,0.353 0.549,0.435c0.198,0.082 0.411,0.123 0.639,0.123c0.224,0 0.427,-0.042 0.609,-0.126c0.182,-0.084 0.336,-0.212 0.462,-0.384c0.126,-0.172 0.223,-0.389 0.291,-0.651c0.068,-0.262 0.102,-0.571 0.102,-0.927c0,-0.36 -0.029,-0.665 -0.087,-0.915c-0.058,-0.25 -0.141,-0.453 -0.249,-0.609c-0.108,-0.156 -0.239,-0.27 -0.393,-0.342c-0.154,-0.072 -0.329,-0.108 -0.525,-0.108Z" style="fill:#333;fill-rule:nonzero;"/><rect x="506.352" y="203.269" width="3.108" height="1.236" style="fill:#333;fill-rule:nonzero;"/><path d="M510.87,207.511l0,-8.916l1.482,0l0,3.516c0.244,-0.26 0.52,-0.467 0.828,-0.621c0.308,-0.154 0.668,-0.231 1.08,-0.231c0.336,0 0.643,0.069 0.921,0.207c0.278,0.138 0.518,0.339 0.72,0.603c0.202,0.264 0.358,0.59 0.468,0.978c0.11,0.388 0.165,0.834 0.165,1.338c0,0.46 -0.062,0.886 -0.186,1.278c-0.124,0.392 -0.301,0.732 -0.531,1.02c-0.23,0.288 -0.508,0.513 -0.834,0.675c-0.326,0.162 -0.691,0.243 -1.095,0.243c-0.188,0 -0.36,-0.019 -0.516,-0.057c-0.156,-0.038 -0.298,-0.091 -0.426,-0.159c-0.128,-0.068 -0.247,-0.151 -0.357,-0.249c-0.11,-0.098 -0.215,-0.207 -0.315,-0.327l-0.066,0.414c-0.024,0.104 -0.065,0.178 -0.123,0.222c-0.058,0.044 -0.137,0.066 -0.237,0.066l-0.978,0Zm2.88,-5.1c-0.308,0 -0.571,0.065 -0.789,0.195c-0.218,0.13 -0.421,0.313 -0.609,0.549l0,2.76c0.168,0.208 0.351,0.353 0.549,0.435c0.198,0.082 0.413,0.123 0.645,0.123c0.224,0 0.426,-0.042 0.606,-0.126c0.18,-0.084 0.333,-0.212 0.459,-0.384c0.126,-0.172 0.223,-0.389 0.291,-0.651c0.068,-0.262 0.102,-0.571 0.102,-0.927c0,-0.36 -0.029,-0.665 -0.087,-0.915c-0.058,-0.25 -0.141,-0.453 -0.249,-0.609c-0.108,-0.156 -0.239,-0.27 -0.393,-0.342c-0.154,-0.072 -0.329,-0.108 -0.525,-0.108Z" style="fill:#333;fill-rule:nonzero;"/><path d="M519.678,209.203c-0.044,0.104 -0.101,0.183 -0.171,0.237c-0.07,0.054 -0.177,0.081 -0.321,0.081l-1.104,0l1.152,-2.466l-2.49,-5.7l1.296,0c0.12,0 0.212,0.028 0.276,0.084c0.064,0.056 0.112,0.12 0.144,0.192l1.314,3.192c0.044,0.104 0.082,0.212 0.114,0.324c0.032,0.112 0.06,0.224 0.084,0.336c0.032,-0.116 0.067,-0.228 0.105,-0.336c0.038,-0.108 0.079,-0.218 0.123,-0.33l1.236,-3.186c0.032,-0.08 0.085,-0.146 0.159,-0.198c0.074,-0.052 0.157,-0.078 0.249,-0.078l1.188,0l-3.354,7.848Z" style="fill:#333;fill-rule:nonzero;"/><rect x="523.704" y="203.269" width="3.108" height="1.236" style="fill:#333;fill-rule:nonzero;"/><path d="M531.858,202.555c-0.04,0.064 -0.082,0.109 -0.126,0.135c-0.044,0.026 -0.1,0.039 -0.168,0.039c-0.072,0 -0.149,-0.02 -0.231,-0.06c-0.082,-0.04 -0.177,-0.085 -0.285,-0.135c-0.108,-0.05 -0.231,-0.095 -0.369,-0.135c-0.138,-0.04 -0.301,-0.06 -0.489,-0.06c-0.292,0 -0.522,0.062 -0.69,0.186c-0.168,0.124 -0.252,0.286 -0.252,0.486c0,0.132 0.043,0.243 0.129,0.333c0.086,0.09 0.2,0.169 0.342,0.237c0.142,0.068 0.303,0.129 0.483,0.183c0.18,0.054 0.364,0.113 0.552,0.177c0.188,0.064 0.372,0.137 0.552,0.219c0.18,0.082 0.341,0.186 0.483,0.312c0.142,0.126 0.256,0.277 0.342,0.453c0.086,0.176 0.129,0.388 0.129,0.636c0,0.296 -0.054,0.569 -0.162,0.819c-0.108,0.25 -0.266,0.466 -0.474,0.648c-0.208,0.182 -0.465,0.324 -0.771,0.426c-0.306,0.102 -0.657,0.153 -1.053,0.153c-0.212,0 -0.419,-0.019 -0.621,-0.057c-0.202,-0.038 -0.396,-0.091 -0.582,-0.159c-0.186,-0.068 -0.358,-0.148 -0.516,-0.24c-0.158,-0.092 -0.297,-0.192 -0.417,-0.3l0.342,-0.564c0.044,-0.068 0.096,-0.12 0.156,-0.156c0.06,-0.036 0.136,-0.054 0.228,-0.054c0.092,0 0.179,0.026 0.261,0.078c0.082,0.052 0.177,0.108 0.285,0.168c0.108,0.06 0.235,0.116 0.381,0.168c0.146,0.052 0.331,0.078 0.555,0.078c0.176,0 0.327,-0.021 0.453,-0.063c0.126,-0.042 0.23,-0.097 0.312,-0.165c0.082,-0.068 0.142,-0.147 0.18,-0.237c0.038,-0.09 0.057,-0.183 0.057,-0.279c0,-0.144 -0.043,-0.262 -0.129,-0.354c-0.086,-0.092 -0.2,-0.172 -0.342,-0.24c-0.142,-0.068 -0.304,-0.129 -0.486,-0.183c-0.182,-0.054 -0.368,-0.113 -0.558,-0.177c-0.19,-0.064 -0.376,-0.139 -0.558,-0.225c-0.182,-0.086 -0.344,-0.195 -0.486,-0.327c-0.142,-0.132 -0.256,-0.294 -0.342,-0.486c-0.086,-0.192 -0.129,-0.424 -0.129,-0.696c0,-0.252 0.05,-0.492 0.15,-0.72c0.1,-0.228 0.247,-0.427 0.441,-0.597c0.194,-0.17 0.436,-0.306 0.726,-0.408c0.29,-0.102 0.625,-0.153 1.005,-0.153c0.424,0 0.81,0.07 1.158,0.21c0.348,0.14 0.638,0.324 0.87,0.552l-0.336,0.534Z" style="fill:#333;fill-rule:nonzero;"/><path d="M535.47,207.607c-0.532,0 -0.942,-0.151 -1.23,-0.453c-0.288,-0.302 -0.432,-0.719 -0.432,-1.251l0,-3.438l-0.624,0c-0.08,0 -0.149,-0.026 -0.207,-0.078c-0.058,-0.052 -0.087,-0.13 -0.087,-0.234l0,-0.588l0.99,-0.162l0.312,-1.68c0.016,-0.08 0.053,-0.142 0.111,-0.186c0.058,-0.044 0.131,-0.066 0.219,-0.066l0.768,0l0,1.938l1.62,0l0,1.056l-1.62,0l0,3.336c0,0.192 0.048,0.342 0.144,0.45c0.096,0.108 0.224,0.162 0.384,0.162c0.092,0 0.169,-0.011 0.231,-0.033c0.062,-0.022 0.116,-0.045 0.162,-0.069c0.046,-0.024 0.087,-0.047 0.123,-0.069c0.036,-0.022 0.072,-0.033 0.108,-0.033c0.044,0 0.08,0.011 0.108,0.033c0.028,0.022 0.058,0.055 0.09,0.099l0.444,0.72c-0.216,0.18 -0.464,0.316 -0.744,0.408c-0.28,0.092 -0.57,0.138 -0.87,0.138Z" style="fill:#333;fill-rule:nonzero;"/><path d="M540.636,201.259c0.388,0 0.745,0.062 1.071,0.186c0.326,0.124 0.607,0.305 0.843,0.543c0.236,0.238 0.42,0.53 0.552,0.876c0.132,0.346 0.198,0.741 0.198,1.185c0,0.112 -0.005,0.205 -0.015,0.279c-0.01,0.074 -0.028,0.132 -0.054,0.174c-0.026,0.042 -0.061,0.072 -0.105,0.09c-0.044,0.018 -0.1,0.027 -0.168,0.027l-3.804,0c0.044,0.632 0.214,1.096 0.51,1.392c0.296,0.296 0.688,0.444 1.176,0.444c0.24,0 0.447,-0.028 0.621,-0.084c0.174,-0.056 0.326,-0.118 0.456,-0.186c0.13,-0.068 0.244,-0.13 0.342,-0.186c0.098,-0.056 0.193,-0.084 0.285,-0.084c0.06,0 0.112,0.012 0.156,0.036c0.044,0.024 0.082,0.058 0.114,0.102l0.432,0.54c-0.164,0.192 -0.348,0.353 -0.552,0.483c-0.204,0.13 -0.417,0.234 -0.639,0.312c-0.222,0.078 -0.448,0.133 -0.678,0.165c-0.23,0.032 -0.453,0.048 -0.669,0.048c-0.428,0 -0.826,-0.071 -1.194,-0.213c-0.368,-0.142 -0.688,-0.352 -0.96,-0.63c-0.272,-0.278 -0.486,-0.622 -0.642,-1.032c-0.156,-0.41 -0.234,-0.885 -0.234,-1.425c0,-0.42 0.068,-0.815 0.204,-1.185c0.136,-0.37 0.331,-0.692 0.585,-0.966c0.254,-0.274 0.564,-0.491 0.93,-0.651c0.366,-0.16 0.779,-0.24 1.239,-0.24Zm0.03,1.062c-0.432,0 -0.77,0.122 -1.014,0.366c-0.244,0.244 -0.4,0.59 -0.468,1.038l2.784,0c0,-0.192 -0.026,-0.373 -0.078,-0.543c-0.052,-0.17 -0.132,-0.319 -0.24,-0.447c-0.108,-0.128 -0.244,-0.229 -0.408,-0.303c-0.164,-0.074 -0.356,-0.111 -0.576,-0.111Z" style="fill:#333;fill-rule:nonzero;"/><path d="M544.506,209.521l0,-8.166l0.906,0c0.096,0 0.178,0.022 0.246,0.066c0.068,0.044 0.112,0.112 0.132,0.204l0.12,0.57c0.248,-0.284 0.533,-0.514 0.855,-0.69c0.322,-0.176 0.699,-0.264 1.131,-0.264c0.336,0 0.643,0.07 0.921,0.21c0.278,0.14 0.518,0.343 0.72,0.609c0.202,0.266 0.358,0.594 0.468,0.984c0.11,0.39 0.165,0.837 0.165,1.341c0,0.46 -0.062,0.886 -0.186,1.278c-0.124,0.392 -0.301,0.732 -0.531,1.02c-0.23,0.288 -0.508,0.513 -0.834,0.675c-0.326,0.162 -0.691,0.243 -1.095,0.243c-0.348,0 -0.643,-0.053 -0.885,-0.159c-0.242,-0.106 -0.459,-0.253 -0.651,-0.441l0,2.52l-1.482,0Zm2.88,-7.11c-0.308,0 -0.571,0.065 -0.789,0.195c-0.218,0.13 -0.421,0.313 -0.609,0.549l0,2.76c0.168,0.208 0.351,0.353 0.549,0.435c0.198,0.082 0.411,0.123 0.639,0.123c0.224,0 0.427,-0.042 0.609,-0.126c0.182,-0.084 0.336,-0.212 0.462,-0.384c0.126,-0.172 0.223,-0.389 0.291,-0.651c0.068,-0.262 0.102,-0.571 0.102,-0.927c0,-0.36 -0.029,-0.665 -0.087,-0.915c-0.058,-0.25 -0.141,-0.453 -0.249,-0.609c-0.108,-0.156 -0.239,-0.27 -0.393,-0.342c-0.154,-0.072 -0.329,-0.108 -0.525,-0.108Z" style="fill:#333;fill-rule:nonzero;"/><path d="M278.181,219.511l0,-5.04l-0.534,-0.084c-0.116,-0.02 -0.209,-0.06 -0.279,-0.12c-0.07,-0.06 -0.105,-0.144 -0.105,-0.252l0,-0.606l0.918,0l0,-0.456c0,-0.352 0.053,-0.668 0.159,-0.948c0.106,-0.28 0.258,-0.518 0.456,-0.714c0.198,-0.196 0.439,-0.346 0.723,-0.45c0.284,-0.104 0.604,-0.156 0.96,-0.156c0.284,0 0.548,0.038 0.792,0.114l-0.03,0.744c-0.008,0.116 -0.062,0.188 -0.162,0.216c-0.1,0.028 -0.216,0.042 -0.348,0.042c-0.176,0 -0.333,0.019 -0.471,0.057c-0.138,0.038 -0.255,0.104 -0.351,0.198c-0.096,0.094 -0.169,0.218 -0.219,0.372c-0.05,0.154 -0.075,0.345 -0.075,0.573l0,0.408l1.602,0l0,1.056l-1.554,0l0,5.046l-1.482,0Z" style="fill:#333;fill-rule:nonzero;"/><path d="M284.751,213.259c0.46,0 0.877,0.074 1.251,0.222c0.374,0.148 0.693,0.358 0.957,0.63c0.264,0.272 0.468,0.604 0.612,0.996c0.144,0.392 0.216,0.83 0.216,1.314c0,0.488 -0.072,0.928 -0.216,1.32c-0.144,0.392 -0.348,0.726 -0.612,1.002c-0.264,0.276 -0.583,0.488 -0.957,0.636c-0.374,0.148 -0.791,0.222 -1.251,0.222c-0.46,0 -0.878,-0.074 -1.254,-0.222c-0.376,-0.148 -0.697,-0.36 -0.963,-0.636c-0.266,-0.276 -0.472,-0.61 -0.618,-1.002c-0.146,-0.392 -0.219,-0.832 -0.219,-1.32c0,-0.484 0.073,-0.922 0.219,-1.314c0.146,-0.392 0.352,-0.724 0.618,-0.996c0.266,-0.272 0.587,-0.482 0.963,-0.63c0.376,-0.148 0.794,-0.222 1.254,-0.222Zm0,5.202c0.512,0 0.891,-0.172 1.137,-0.516c0.246,-0.344 0.369,-0.848 0.369,-1.512c0,-0.664 -0.123,-1.17 -0.369,-1.518c-0.246,-0.348 -0.625,-0.522 -1.137,-0.522c-0.52,0 -0.904,0.175 -1.152,0.525c-0.248,0.35 -0.372,0.855 -0.372,1.515c0,0.66 0.124,1.163 0.372,1.509c0.248,0.346 0.632,0.519 1.152,0.519Z" style="fill:#333;fill-rule:nonzero;"/><path d="M288.945,219.511l0,-6.156l0.87,0c0.152,0 0.258,0.028 0.318,0.084c0.06,0.056 0.1,0.152 0.12,0.288l0.09,0.744c0.22,-0.38 0.478,-0.68 0.774,-0.9c0.296,-0.22 0.628,-0.33 0.996,-0.33c0.304,0 0.556,0.07 0.756,0.21l-0.192,1.11c-0.012,0.072 -0.038,0.123 -0.078,0.153c-0.04,0.03 -0.094,0.045 -0.162,0.045c-0.06,0 -0.142,-0.014 -0.246,-0.042c-0.104,-0.028 -0.242,-0.042 -0.414,-0.042c-0.308,0 -0.572,0.085 -0.792,0.255c-0.22,0.17 -0.406,0.419 -0.558,0.747l0,3.834l-1.482,0Z" style="fill:#333;fill-rule:nonzero;"/><path d="M293.847,219.511l0,-6.156l0.906,0c0.192,0 0.318,0.09 0.378,0.27l0.096,0.456c0.108,-0.12 0.221,-0.23 0.339,-0.33c0.118,-0.1 0.244,-0.186 0.378,-0.258c0.134,-0.072 0.278,-0.129 0.432,-0.171c0.154,-0.042 0.323,-0.063 0.507,-0.063c0.388,0 0.707,0.105 0.957,0.315c0.25,0.21 0.437,0.489 0.561,0.837c0.096,-0.204 0.216,-0.379 0.36,-0.525c0.144,-0.146 0.302,-0.265 0.474,-0.357c0.172,-0.092 0.355,-0.16 0.549,-0.204c0.194,-0.044 0.389,-0.066 0.585,-0.066c0.34,0 0.642,0.052 0.906,0.156c0.264,0.104 0.486,0.256 0.666,0.456c0.18,0.2 0.317,0.444 0.411,0.732c0.094,0.288 0.141,0.618 0.141,0.99l0,3.918l-1.482,0l0,-3.918c0,-0.392 -0.086,-0.687 -0.258,-0.885c-0.172,-0.198 -0.424,-0.297 -0.756,-0.297c-0.152,0 -0.293,0.026 -0.423,0.078c-0.13,0.052 -0.244,0.127 -0.342,0.225c-0.098,0.098 -0.175,0.221 -0.231,0.369c-0.056,0.148 -0.084,0.318 -0.084,0.51l0,3.918l-1.488,0l0,-3.918c0,-0.412 -0.083,-0.712 -0.249,-0.9c-0.166,-0.188 -0.411,-0.282 -0.735,-0.282c-0.212,0 -0.411,0.053 -0.597,0.159c-0.186,0.106 -0.359,0.251 -0.519,0.435l0,4.506l-1.482,0Z" style="fill:#333;fill-rule:nonzero;"/><path d="M305.517,213.355l1.176,0c0.112,0 0.206,0.026 0.282,0.078c0.076,0.052 0.124,0.118 0.144,0.198l0.882,3.288c0.048,0.18 0.087,0.356 0.117,0.528c0.03,0.172 0.059,0.344 0.087,0.516c0.044,-0.172 0.091,-0.344 0.141,-0.516c0.05,-0.172 0.103,-0.348 0.159,-0.528l1.02,-3.3c0.024,-0.08 0.072,-0.146 0.144,-0.198c0.072,-0.052 0.156,-0.078 0.252,-0.078l0.654,0c0.108,0 0.198,0.026 0.27,0.078c0.072,0.052 0.12,0.118 0.144,0.198l1.008,3.36c0.052,0.172 0.099,0.339 0.141,0.501c0.042,0.162 0.083,0.325 0.123,0.489c0.028,-0.172 0.059,-0.344 0.093,-0.516c0.034,-0.172 0.077,-0.35 0.129,-0.534l0.912,-3.288c0.02,-0.08 0.068,-0.146 0.144,-0.198c0.076,-0.052 0.164,-0.078 0.264,-0.078l1.122,0l-1.95,6.156l-1.194,0c-0.128,0 -0.22,-0.088 -0.276,-0.264l-1.11,-3.558c-0.036,-0.116 -0.069,-0.233 -0.099,-0.351c-0.03,-0.118 -0.055,-0.235 -0.075,-0.351c-0.024,0.12 -0.05,0.239 -0.078,0.357c-0.028,0.118 -0.06,0.237 -0.096,0.357l-1.122,3.546c-0.056,0.176 -0.164,0.264 -0.324,0.264l-1.134,0l-1.95,-6.156Z" style="fill:#333;fill-rule:nonzero;"/><path d="M317.337,213.355l0,6.156l-1.482,0l0,-6.156l1.482,0Zm0.222,-1.794c0,0.128 -0.026,0.248 -0.078,0.36c-0.052,0.112 -0.121,0.21 -0.207,0.294c-0.086,0.084 -0.187,0.151 -0.303,0.201c-0.116,0.05 -0.24,0.075 -0.372,0.075c-0.128,0 -0.249,-0.025 -0.363,-0.075c-0.114,-0.05 -0.213,-0.117 -0.297,-0.201c-0.084,-0.084 -0.151,-0.182 -0.201,-0.294c-0.05,-0.112 -0.075,-0.232 -0.075,-0.36c0,-0.132 0.025,-0.256 0.075,-0.372c0.05,-0.116 0.117,-0.216 0.201,-0.3c0.084,-0.084 0.183,-0.151 0.297,-0.201c0.114,-0.05 0.235,-0.075 0.363,-0.075c0.132,0 0.256,0.025 0.372,0.075c0.116,0.05 0.217,0.117 0.303,0.201c0.086,0.084 0.155,0.184 0.207,0.3c0.052,0.116 0.078,0.24 0.078,0.372Z" style="fill:#333;fill-rule:nonzero;"/><path d="M323.463,213.967c0,0.104 -0.019,0.205 -0.057,0.303c-0.038,0.098 -0.083,0.181 -0.135,0.249l-2.928,3.852l3.036,0l0,1.14l-4.758,0l0,-0.618c0,-0.068 0.016,-0.149 0.048,-0.243c0.032,-0.094 0.082,-0.183 0.15,-0.267l2.952,-3.894l-2.976,0l0,-1.134l4.668,0l0,0.612Z" style="fill:#333;fill-rule:nonzero;"/><path d="M329.469,219.511l-0.666,0c-0.14,0 -0.25,-0.021 -0.33,-0.063c-0.08,-0.042 -0.14,-0.127 -0.18,-0.255l-0.132,-0.438c-0.156,0.14 -0.309,0.263 -0.459,0.369c-0.15,0.106 -0.305,0.195 -0.465,0.267c-0.16,0.072 -0.33,0.126 -0.51,0.162c-0.18,0.036 -0.38,0.054 -0.6,0.054c-0.26,0 -0.5,-0.035 -0.72,-0.106c-0.22,-0.07 -0.409,-0.175 -0.567,-0.316c-0.158,-0.14 -0.281,-0.315 -0.369,-0.523c-0.088,-0.209 -0.132,-0.452 -0.132,-0.729c0,-0.233 0.061,-0.462 0.183,-0.689c0.122,-0.227 0.325,-0.431 0.609,-0.614c0.284,-0.183 0.662,-0.334 1.134,-0.455c0.472,-0.12 1.058,-0.18 1.758,-0.18l0,-0.363c0,-0.415 -0.087,-0.722 -0.261,-0.922c-0.174,-0.199 -0.427,-0.299 -0.759,-0.299c-0.24,0 -0.44,0.028 -0.6,0.084c-0.16,0.056 -0.299,0.119 -0.417,0.189c-0.118,0.07 -0.227,0.133 -0.327,0.189c-0.1,0.056 -0.21,0.084 -0.33,0.084c-0.1,0 -0.186,-0.026 -0.258,-0.078c-0.072,-0.052 -0.13,-0.116 -0.174,-0.192l-0.27,-0.474c0.708,-0.648 1.562,-0.972 2.562,-0.972c0.36,0 0.681,0.059 0.963,0.177c0.282,0.118 0.521,0.282 0.717,0.492c0.196,0.21 0.345,0.461 0.447,0.753c0.102,0.292 0.153,0.612 0.153,0.96l0,3.888Zm-2.88,-0.924c0.152,0 0.292,-0.014 0.42,-0.042c0.128,-0.027 0.249,-0.068 0.363,-0.124c0.114,-0.055 0.224,-0.123 0.33,-0.203c0.106,-0.081 0.213,-0.177 0.321,-0.287l0,-1.03c-0.432,0 -0.793,0.027 -1.083,0.081c-0.29,0.055 -0.523,0.124 -0.699,0.209c-0.176,0.085 -0.301,0.183 -0.375,0.296c-0.074,0.113 -0.111,0.236 -0.111,0.369c0,0.261 0.077,0.449 0.231,0.562c0.154,0.112 0.355,0.169 0.603,0.169Z" style="fill:#333;fill-rule:nonzero;"/><path d="M330.927,219.511l0,-6.156l0.87,0c0.152,0 0.258,0.028 0.318,0.084c0.06,0.056 0.1,0.152 0.12,0.288l0.09,0.744c0.22,-0.38 0.478,-0.68 0.774,-0.9c0.296,-0.22 0.628,-0.33 0.996,-0.33c0.304,0 0.556,0.07 0.756,0.21l-0.192,1.11c-0.012,0.072 -0.038,0.123 -0.078,0.153c-0.04,0.03 -0.094,0.045 -0.162,0.045c-0.06,0 -0.142,-0.014 -0.246,-0.042c-0.104,-0.028 -0.242,-0.042 -0.414,-0.042c-0.308,0 -0.572,0.085 -0.792,0.255c-0.22,0.17 -0.406,0.419 -0.558,0.747l0,3.834l-1.482,0Z" style="fill:#333;fill-rule:nonzero;"/><path d="M340.161,219.511c-0.192,0 -0.318,-0.09 -0.378,-0.27l-0.12,-0.594c-0.128,0.144 -0.262,0.274 -0.402,0.39c-0.14,0.116 -0.291,0.216 -0.453,0.3c-0.162,0.084 -0.336,0.149 -0.522,0.195c-0.186,0.046 -0.387,0.069 -0.603,0.069c-0.336,0 -0.644,-0.07 -0.924,-0.21c-0.28,-0.14 -0.521,-0.343 -0.723,-0.609c-0.202,-0.266 -0.358,-0.595 -0.468,-0.987c-0.11,-0.392 -0.165,-0.84 -0.165,-1.344c0,-0.456 0.062,-0.88 0.186,-1.272c0.124,-0.392 0.302,-0.732 0.534,-1.02c0.232,-0.288 0.51,-0.513 0.834,-0.675c0.324,-0.162 0.688,-0.243 1.092,-0.243c0.344,0 0.638,0.055 0.882,0.165c0.244,0.11 0.462,0.257 0.654,0.441l0,-3.252l1.482,0l0,8.916l-0.906,0Zm-1.974,-1.086c0.308,0 0.57,-0.064 0.786,-0.192c0.216,-0.128 0.42,-0.31 0.612,-0.546l0,-2.76c-0.168,-0.204 -0.351,-0.348 -0.549,-0.432c-0.198,-0.084 -0.411,-0.126 -0.639,-0.126c-0.224,0 -0.427,0.042 -0.609,0.126c-0.182,0.084 -0.336,0.211 -0.462,0.381c-0.126,0.17 -0.223,0.386 -0.291,0.648c-0.068,0.262 -0.102,0.571 -0.102,0.927c0,0.36 0.029,0.665 0.087,0.915c0.058,0.25 0.141,0.454 0.249,0.612c0.108,0.158 0.24,0.272 0.396,0.342c0.156,0.07 0.33,0.105 0.522,0.105Z" style="fill:#333;fill-rule:nonzero;"/><path d="M344.235,213.355l1.176,0c0.112,0 0.206,0.026 0.282,0.078c0.076,0.052 0.124,0.118 0.144,0.198l0.882,3.288c0.048,0.18 0.087,0.356 0.117,0.528c0.03,0.172 0.059,0.344 0.087,0.516c0.044,-0.172 0.091,-0.344 0.141,-0.516c0.05,-0.172 0.103,-0.348 0.159,-0.528l1.02,-3.3c0.024,-0.08 0.072,-0.146 0.144,-0.198c0.072,-0.052 0.156,-0.078 0.252,-0.078l0.654,0c0.108,0 0.198,0.026 0.27,0.078c0.072,0.052 0.12,0.118 0.144,0.198l1.008,3.36c0.052,0.172 0.099,0.339 0.141,0.501c0.042,0.162 0.083,0.325 0.123,0.489c0.028,-0.172 0.059,-0.344 0.093,-0.516c0.034,-0.172 0.077,-0.35 0.129,-0.534l0.912,-3.288c0.02,-0.08 0.068,-0.146 0.144,-0.198c0.076,-0.052 0.164,-0.078 0.264,-0.078l1.122,0l-1.95,6.156l-1.194,0c-0.128,0 -0.22,-0.088 -0.276,-0.264l-1.11,-3.558c-0.036,-0.116 -0.069,-0.233 -0.099,-0.351c-0.03,-0.118 -0.055,-0.235 -0.075,-0.351c-0.024,0.12 -0.05,0.239 -0.078,0.357c-0.028,0.118 -0.06,0.237 -0.096,0.357l-1.122,3.546c-0.056,0.176 -0.164,0.264 -0.324,0.264l-1.134,0l-1.95,-6.156Z" style="fill:#333;fill-rule:nonzero;"/><path d="M356.055,213.355l0,6.156l-1.482,0l0,-6.156l1.482,0Zm0.222,-1.794c0,0.128 -0.026,0.248 -0.078,0.36c-0.052,0.112 -0.121,0.21 -0.207,0.294c-0.086,0.084 -0.187,0.151 -0.303,0.201c-0.116,0.05 -0.24,0.075 -0.372,0.075c-0.128,0 -0.249,-0.025 -0.363,-0.075c-0.114,-0.05 -0.213,-0.117 -0.297,-0.201c-0.084,-0.084 -0.151,-0.182 -0.201,-0.294c-0.05,-0.112 -0.075,-0.232 -0.075,-0.36c0,-0.132 0.025,-0.256 0.075,-0.372c0.05,-0.116 0.117,-0.216 0.201,-0.3c0.084,-0.084 0.183,-0.151 0.297,-0.201c0.114,-0.05 0.235,-0.075 0.363,-0.075c0.132,0 0.256,0.025 0.372,0.075c0.116,0.05 0.217,0.117 0.303,0.201c0.086,0.084 0.155,0.184 0.207,0.3c0.052,0.116 0.078,0.24 0.078,0.372Z" style="fill:#333;fill-rule:nonzero;"/><path d="M359.751,219.607c-0.532,0 -0.942,-0.151 -1.23,-0.453c-0.288,-0.302 -0.432,-0.719 -0.432,-1.251l0,-3.438l-0.624,0c-0.08,0 -0.149,-0.026 -0.207,-0.078c-0.058,-0.052 -0.087,-0.13 -0.087,-0.234l0,-0.588l0.99,-0.162l0.312,-1.68c0.016,-0.08 0.053,-0.142 0.111,-0.186c0.058,-0.044 0.131,-0.066 0.219,-0.066l0.768,0l0,1.938l1.62,0l0,1.056l-1.62,0l0,3.336c0,0.192 0.048,0.342 0.144,0.45c0.096,0.108 0.224,0.162 0.384,0.162c0.092,0 0.169,-0.011 0.231,-0.033c0.062,-0.022 0.116,-0.045 0.162,-0.069c0.046,-0.024 0.087,-0.047 0.123,-0.069c0.036,-0.022 0.072,-0.033 0.108,-0.033c0.044,0 0.08,0.011 0.108,0.033c0.028,0.022 0.058,0.055 0.09,0.099l0.444,0.72c-0.216,0.18 -0.464,0.316 -0.744,0.408c-0.28,0.092 -0.57,0.138 -0.87,0.138Z" style="fill:#333;fill-rule:nonzero;"/><path d="M362.373,219.511l0,-8.916l1.482,0l0,3.426c0.24,-0.228 0.504,-0.412 0.792,-0.552c0.288,-0.14 0.626,-0.21 1.014,-0.21c0.336,0 0.634,0.057 0.894,0.171c0.26,0.114 0.477,0.274 0.651,0.48c0.174,0.206 0.306,0.452 0.396,0.738c0.09,0.286 0.135,0.601 0.135,0.945l0,3.918l-1.482,0l0,-3.918c0,-0.376 -0.087,-0.667 -0.261,-0.873c-0.174,-0.206 -0.435,-0.309 -0.783,-0.309c-0.256,0 -0.496,0.058 -0.72,0.174c-0.224,0.116 -0.436,0.274 -0.636,0.474l0,4.452l-1.482,0Z" style="fill:#333;fill-rule:nonzero;"/><path d="M374.595,219.511l-1.344,0l-2.448,-6.156l1.23,0c0.108,0 0.199,0.026 0.273,0.078c0.074,0.052 0.125,0.118 0.153,0.198l1.188,3.288c0.068,0.192 0.125,0.38 0.171,0.564c0.046,0.184 0.087,0.368 0.123,0.552c0.036,-0.184 0.077,-0.368 0.123,-0.552c0.046,-0.184 0.105,-0.372 0.177,-0.564l1.218,-3.288c0.028,-0.08 0.078,-0.146 0.15,-0.198c0.072,-0.052 0.158,-0.078 0.258,-0.078l1.17,0l-2.442,6.156Z" style="fill:#333;fill-rule:nonzero;"/><path d="M382.737,219.511l-0.666,0c-0.14,0 -0.25,-0.021 -0.33,-0.063c-0.08,-0.042 -0.14,-0.127 -0.18,-0.255l-0.132,-0.438c-0.156,0.14 -0.309,0.263 -0.459,0.369c-0.15,0.106 -0.305,0.195 -0.465,0.267c-0.16,0.072 -0.33,0.126 -0.51,0.162c-0.18,0.036 -0.38,0.054 -0.6,0.054c-0.26,0 -0.5,-0.035 -0.72,-0.106c-0.22,-0.07 -0.409,-0.175 -0.567,-0.316c-0.158,-0.14 -0.281,-0.315 -0.369,-0.523c-0.088,-0.209 -0.132,-0.452 -0.132,-0.729c0,-0.233 0.061,-0.462 0.183,-0.689c0.122,-0.227 0.325,-0.431 0.609,-0.614c0.284,-0.183 0.662,-0.334 1.134,-0.455c0.472,-0.12 1.058,-0.18 1.758,-0.18l0,-0.363c0,-0.415 -0.087,-0.722 -0.261,-0.922c-0.174,-0.199 -0.427,-0.299 -0.759,-0.299c-0.24,0 -0.44,0.028 -0.6,0.084c-0.16,0.056 -0.299,0.119 -0.417,0.189c-0.118,0.07 -0.227,0.133 -0.327,0.189c-0.1,0.056 -0.21,0.084 -0.33,0.084c-0.1,0 -0.186,-0.026 -0.258,-0.078c-0.072,-0.052 -0.13,-0.116 -0.174,-0.192l-0.27,-0.474c0.708,-0.648 1.562,-0.972 2.562,-0.972c0.36,0 0.681,0.059 0.963,0.177c0.282,0.118 0.521,0.282 0.717,0.492c0.196,0.21 0.345,0.461 0.447,0.753c0.102,0.292 0.153,0.612 0.153,0.96l0,3.888Zm-2.88,-0.924c0.152,0 0.292,-0.014 0.42,-0.042c0.128,-0.027 0.249,-0.068 0.363,-0.124c0.114,-0.055 0.224,-0.123 0.33,-0.203c0.106,-0.081 0.213,-0.177 0.321,-0.287l0,-1.03c-0.432,0 -0.793,0.027 -1.083,0.081c-0.29,0.055 -0.523,0.124 -0.699,0.209c-0.176,0.085 -0.301,0.183 -0.375,0.296c-0.074,0.113 -0.111,0.236 -0.111,0.369c0,0.261 0.077,0.449 0.231,0.562c0.154,0.112 0.355,0.169 0.603,0.169Z" style="fill:#333;fill-rule:nonzero;"/><rect x="384.291" y="210.595" width="1.482" height="8.916" style="fill:#333;fill-rule:nonzero;"/><path d="M389.025,213.355l0,6.156l-1.482,0l0,-6.156l1.482,0Zm0.222,-1.794c0,0.128 -0.026,0.248 -0.078,0.36c-0.052,0.112 -0.121,0.21 -0.207,0.294c-0.086,0.084 -0.187,0.151 -0.303,0.201c-0.116,0.05 -0.24,0.075 -0.372,0.075c-0.128,0 -0.249,-0.025 -0.363,-0.075c-0.114,-0.05 -0.213,-0.117 -0.297,-0.201c-0.084,-0.084 -0.151,-0.182 -0.201,-0.294c-0.05,-0.112 -0.075,-0.232 -0.075,-0.36c0,-0.132 0.025,-0.256 0.075,-0.372c0.05,-0.116 0.117,-0.216 0.201,-0.3c0.084,-0.084 0.183,-0.151 0.297,-0.201c0.114,-0.05 0.235,-0.075 0.363,-0.075c0.132,0 0.256,0.025 0.372,0.075c0.116,0.05 0.217,0.117 0.303,0.201c0.086,0.084 0.155,0.184 0.207,0.3c0.052,0.116 0.078,0.24 0.078,0.372Z" style="fill:#333;fill-rule:nonzero;"/><path d="M395.031,219.511c-0.192,0 -0.318,-0.09 -0.378,-0.27l-0.12,-0.594c-0.128,0.144 -0.262,0.274 -0.402,0.39c-0.14,0.116 -0.291,0.216 -0.453,0.3c-0.162,0.084 -0.336,0.149 -0.522,0.195c-0.186,0.046 -0.387,0.069 -0.603,0.069c-0.336,0 -0.644,-0.07 -0.924,-0.21c-0.28,-0.14 -0.521,-0.343 -0.723,-0.609c-0.202,-0.266 -0.358,-0.595 -0.468,-0.987c-0.11,-0.392 -0.165,-0.84 -0.165,-1.344c0,-0.456 0.062,-0.88 0.186,-1.272c0.124,-0.392 0.302,-0.732 0.534,-1.02c0.232,-0.288 0.51,-0.513 0.834,-0.675c0.324,-0.162 0.688,-0.243 1.092,-0.243c0.344,0 0.638,0.055 0.882,0.165c0.244,0.11 0.462,0.257 0.654,0.441l0,-3.252l1.482,0l0,8.916l-0.906,0Zm-1.974,-1.086c0.308,0 0.57,-0.064 0.786,-0.192c0.216,-0.128 0.42,-0.31 0.612,-0.546l0,-2.76c-0.168,-0.204 -0.351,-0.348 -0.549,-0.432c-0.198,-0.084 -0.411,-0.126 -0.639,-0.126c-0.224,0 -0.427,0.042 -0.609,0.126c-0.182,0.084 -0.336,0.211 -0.462,0.381c-0.126,0.17 -0.223,0.386 -0.291,0.648c-0.068,0.262 -0.102,0.571 -0.102,0.927c0,0.36 0.029,0.665 0.087,0.915c0.058,0.25 0.141,0.454 0.249,0.612c0.108,0.158 0.24,0.272 0.396,0.342c0.156,0.07 0.33,0.105 0.522,0.105Z" style="fill:#333;fill-rule:nonzero;"/><path d="M402.363,219.511l-0.666,0c-0.14,0 -0.25,-0.021 -0.33,-0.063c-0.08,-0.042 -0.14,-0.127 -0.18,-0.255l-0.132,-0.438c-0.156,0.14 -0.309,0.263 -0.459,0.369c-0.15,0.106 -0.305,0.195 -0.465,0.267c-0.16,0.072 -0.33,0.126 -0.51,0.162c-0.18,0.036 -0.38,0.054 -0.6,0.054c-0.26,0 -0.5,-0.035 -0.72,-0.106c-0.22,-0.07 -0.409,-0.175 -0.567,-0.316c-0.158,-0.14 -0.281,-0.315 -0.369,-0.523c-0.088,-0.209 -0.132,-0.452 -0.132,-0.729c0,-0.233 0.061,-0.462 0.183,-0.689c0.122,-0.227 0.325,-0.431 0.609,-0.614c0.284,-0.183 0.662,-0.334 1.134,-0.455c0.472,-0.12 1.058,-0.18 1.758,-0.18l0,-0.363c0,-0.415 -0.087,-0.722 -0.261,-0.922c-0.174,-0.199 -0.427,-0.299 -0.759,-0.299c-0.24,0 -0.44,0.028 -0.6,0.084c-0.16,0.056 -0.299,0.119 -0.417,0.189c-0.118,0.07 -0.227,0.133 -0.327,0.189c-0.1,0.056 -0.21,0.084 -0.33,0.084c-0.1,0 -0.186,-0.026 -0.258,-0.078c-0.072,-0.052 -0.13,-0.116 -0.174,-0.192l-0.27,-0.474c0.708,-0.648 1.562,-0.972 2.562,-0.972c0.36,0 0.681,0.059 0.963,0.177c0.282,0.118 0.521,0.282 0.717,0.492c0.196,0.21 0.345,0.461 0.447,0.753c0.102,0.292 0.153,0.612 0.153,0.96l0,3.888Zm-2.88,-0.924c0.152,0 0.292,-0.014 0.42,-0.042c0.128,-0.027 0.249,-0.068 0.363,-0.124c0.114,-0.055 0.224,-0.123 0.33,-0.203c0.106,-0.081 0.213,-0.177 0.321,-0.287l0,-1.03c-0.432,0 -0.793,0.027 -1.083,0.081c-0.29,0.055 -0.523,0.124 -0.699,0.209c-0.176,0.085 -0.301,0.183 -0.375,0.296c-0.074,0.113 -0.111,0.236 -0.111,0.369c0,0.261 0.077,0.449 0.231,0.562c0.154,0.112 0.355,0.169 0.603,0.169Z" style="fill:#333;fill-rule:nonzero;"/><path d="M405.843,219.607c-0.532,0 -0.942,-0.151 -1.23,-0.453c-0.288,-0.302 -0.432,-0.719 -0.432,-1.251l0,-3.438l-0.624,0c-0.08,0 -0.149,-0.026 -0.207,-0.078c-0.058,-0.052 -0.087,-0.13 -0.087,-0.234l0,-0.588l0.99,-0.162l0.312,-1.68c0.016,-0.08 0.053,-0.142 0.111,-0.186c0.058,-0.044 0.131,-0.066 0.219,-0.066l0.768,0l0,1.938l1.62,0l0,1.056l-1.62,0l0,3.336c0,0.192 0.048,0.342 0.144,0.45c0.096,0.108 0.224,0.162 0.384,0.162c0.092,0 0.169,-0.011 0.231,-0.033c0.062,-0.022 0.116,-0.045 0.162,-0.069c0.046,-0.024 0.087,-0.047 0.123,-0.069c0.036,-0.022 0.072,-0.033 0.108,-0.033c0.044,0 0.08,0.011 0.108,0.033c0.028,0.022 0.058,0.055 0.09,0.099l0.444,0.72c-0.216,0.18 -0.464,0.316 -0.744,0.408c-0.28,0.092 -0.57,0.138 -0.87,0.138Z" style="fill:#333;fill-rule:nonzero;"/><path d="M410.043,213.355l0,6.156l-1.482,0l0,-6.156l1.482,0Zm0.222,-1.794c0,0.128 -0.026,0.248 -0.078,0.36c-0.052,0.112 -0.121,0.21 -0.207,0.294c-0.086,0.084 -0.187,0.151 -0.303,0.201c-0.116,0.05 -0.24,0.075 -0.372,0.075c-0.128,0 -0.249,-0.025 -0.363,-0.075c-0.114,-0.05 -0.213,-0.117 -0.297,-0.201c-0.084,-0.084 -0.151,-0.182 -0.201,-0.294c-0.05,-0.112 -0.075,-0.232 -0.075,-0.36c0,-0.132 0.025,-0.256 0.075,-0.372c0.05,-0.116 0.117,-0.216 0.201,-0.3c0.084,-0.084 0.183,-0.151 0.297,-0.201c0.114,-0.05 0.235,-0.075 0.363,-0.075c0.132,0 0.256,0.025 0.372,0.075c0.116,0.05 0.217,0.117 0.303,0.201c0.086,0.084 0.155,0.184 0.207,0.3c0.052,0.116 0.078,0.24 0.078,0.372Z" style="fill:#333;fill-rule:nonzero;"/><path d="M414.345,213.259c0.46,0 0.877,0.074 1.251,0.222c0.374,0.148 0.693,0.358 0.957,0.63c0.264,0.272 0.468,0.604 0.612,0.996c0.144,0.392 0.216,0.83 0.216,1.314c0,0.488 -0.072,0.928 -0.216,1.32c-0.144,0.392 -0.348,0.726 -0.612,1.002c-0.264,0.276 -0.583,0.488 -0.957,0.636c-0.374,0.148 -0.791,0.222 -1.251,0.222c-0.46,0 -0.878,-0.074 -1.254,-0.222c-0.376,-0.148 -0.697,-0.36 -0.963,-0.636c-0.266,-0.276 -0.472,-0.61 -0.618,-1.002c-0.146,-0.392 -0.219,-0.832 -0.219,-1.32c0,-0.484 0.073,-0.922 0.219,-1.314c0.146,-0.392 0.352,-0.724 0.618,-0.996c0.266,-0.272 0.587,-0.482 0.963,-0.63c0.376,-0.148 0.794,-0.222 1.254,-0.222Zm0,5.202c0.512,0 0.891,-0.172 1.137,-0.516c0.246,-0.344 0.369,-0.848 0.369,-1.512c0,-0.664 -0.123,-1.17 -0.369,-1.518c-0.246,-0.348 -0.625,-0.522 -1.137,-0.522c-0.52,0 -0.904,0.175 -1.152,0.525c-0.248,0.35 -0.372,0.855 -0.372,1.515c0,0.66 0.124,1.163 0.372,1.509c0.248,0.346 0.632,0.519 1.152,0.519Z" style="fill:#333;fill-rule:nonzero;"/><path d="M418.539,219.511l0,-6.156l0.906,0c0.192,0 0.318,0.09 0.378,0.27l0.102,0.486c0.124,-0.128 0.255,-0.244 0.393,-0.348c0.138,-0.104 0.284,-0.194 0.438,-0.27c0.154,-0.076 0.319,-0.134 0.495,-0.174c0.176,-0.04 0.368,-0.06 0.576,-0.06c0.336,0 0.634,0.057 0.894,0.171c0.26,0.114 0.477,0.274 0.651,0.48c0.174,0.206 0.306,0.452 0.396,0.738c0.09,0.286 0.135,0.601 0.135,0.945l0,3.918l-1.482,0l0,-3.918c0,-0.376 -0.087,-0.667 -0.261,-0.873c-0.174,-0.206 -0.435,-0.309 -0.783,-0.309c-0.256,0 -0.496,0.058 -0.72,0.174c-0.224,0.116 -0.436,0.274 -0.636,0.474l0,4.452l-1.482,0Z" style="fill:#333;fill-rule:nonzero;"/><path d="M432.501,219.511l-0.666,0c-0.14,0 -0.25,-0.021 -0.33,-0.063c-0.08,-0.042 -0.14,-0.127 -0.18,-0.255l-0.132,-0.438c-0.156,0.14 -0.309,0.263 -0.459,0.369c-0.15,0.106 -0.305,0.195 -0.465,0.267c-0.16,0.072 -0.33,0.126 -0.51,0.162c-0.18,0.036 -0.38,0.054 -0.6,0.054c-0.26,0 -0.5,-0.035 -0.72,-0.106c-0.22,-0.07 -0.409,-0.175 -0.567,-0.316c-0.158,-0.14 -0.281,-0.315 -0.369,-0.523c-0.088,-0.209 -0.132,-0.452 -0.132,-0.729c0,-0.233 0.061,-0.462 0.183,-0.689c0.122,-0.227 0.325,-0.431 0.609,-0.614c0.284,-0.183 0.662,-0.334 1.134,-0.455c0.472,-0.12 1.058,-0.18 1.758,-0.18l0,-0.363c0,-0.415 -0.087,-0.722 -0.261,-0.922c-0.174,-0.199 -0.427,-0.299 -0.759,-0.299c-0.24,0 -0.44,0.028 -0.6,0.084c-0.16,0.056 -0.299,0.119 -0.417,0.189c-0.118,0.07 -0.227,0.133 -0.327,0.189c-0.1,0.056 -0.21,0.084 -0.33,0.084c-0.1,0 -0.186,-0.026 -0.258,-0.078c-0.072,-0.052 -0.13,-0.116 -0.174,-0.192l-0.27,-0.474c0.708,-0.648 1.562,-0.972 2.562,-0.972c0.36,0 0.681,0.059 0.963,0.177c0.282,0.118 0.521,0.282 0.717,0.492c0.196,0.21 0.345,0.461 0.447,0.753c0.102,0.292 0.153,0.612 0.153,0.96l0,3.888Zm-2.88,-0.924c0.152,0 0.292,-0.014 0.42,-0.042c0.128,-0.027 0.249,-0.068 0.363,-0.124c0.114,-0.055 0.224,-0.123 0.33,-0.203c0.106,-0.081 0.213,-0.177 0.321,-0.287l0,-1.03c-0.432,0 -0.793,0.027 -1.083,0.081c-0.29,0.055 -0.523,0.124 -0.699,0.209c-0.176,0.085 -0.301,0.183 -0.375,0.296c-0.074,0.113 -0.111,0.236 -0.111,0.369c0,0.261 0.077,0.449 0.231,0.562c0.154,0.112 0.355,0.169 0.603,0.169Z" style="fill:#333;fill-rule:nonzero;"/><path d="M433.959,219.511l0,-6.156l0.906,0c0.192,0 0.318,0.09 0.378,0.27l0.102,0.486c0.124,-0.128 0.255,-0.244 0.393,-0.348c0.138,-0.104 0.284,-0.194 0.438,-0.27c0.154,-0.076 0.319,-0.134 0.495,-0.174c0.176,-0.04 0.368,-0.06 0.576,-0.06c0.336,0 0.634,0.057 0.894,0.171c0.26,0.114 0.477,0.274 0.651,0.48c0.174,0.206 0.306,0.452 0.396,0.738c0.09,0.286 0.135,0.601 0.135,0.945l0,3.918l-1.482,0l0,-3.918c0,-0.376 -0.087,-0.667 -0.261,-0.873c-0.174,-0.206 -0.435,-0.309 -0.783,-0.309c-0.256,0 -0.496,0.058 -0.72,0.174c-0.224,0.116 -0.436,0.274 -0.636,0.474l0,4.452l-1.482,0Z" style="fill:#333;fill-rule:nonzero;"/><path d="M445.113,219.511c-0.192,0 -0.318,-0.09 -0.378,-0.27l-0.12,-0.594c-0.128,0.144 -0.262,0.274 -0.402,0.39c-0.14,0.116 -0.291,0.216 -0.453,0.3c-0.162,0.084 -0.336,0.149 -0.522,0.195c-0.186,0.046 -0.387,0.069 -0.603,0.069c-0.336,0 -0.644,-0.07 -0.924,-0.21c-0.28,-0.14 -0.521,-0.343 -0.723,-0.609c-0.202,-0.266 -0.358,-0.595 -0.468,-0.987c-0.11,-0.392 -0.165,-0.84 -0.165,-1.344c0,-0.456 0.062,-0.88 0.186,-1.272c0.124,-0.392 0.302,-0.732 0.534,-1.02c0.232,-0.288 0.51,-0.513 0.834,-0.675c0.324,-0.162 0.688,-0.243 1.092,-0.243c0.344,0 0.638,0.055 0.882,0.165c0.244,0.11 0.462,0.257 0.654,0.441l0,-3.252l1.482,0l0,8.916l-0.906,0Zm-1.974,-1.086c0.308,0 0.57,-0.064 0.786,-0.192c0.216,-0.128 0.42,-0.31 0.612,-0.546l0,-2.76c-0.168,-0.204 -0.351,-0.348 -0.549,-0.432c-0.198,-0.084 -0.411,-0.126 -0.639,-0.126c-0.224,0 -0.427,0.042 -0.609,0.126c-0.182,0.084 -0.336,0.211 -0.462,0.381c-0.126,0.17 -0.223,0.386 -0.291,0.648c-0.068,0.262 -0.102,0.571 -0.102,0.927c0,0.36 0.029,0.665 0.087,0.915c0.058,0.25 0.141,0.454 0.249,0.612c0.108,0.158 0.24,0.272 0.396,0.342c0.156,0.07 0.33,0.105 0.522,0.105Z" style="fill:#333;fill-rule:nonzero;"/><path d="M454.263,214.657c-0.044,0.056 -0.087,0.1 -0.129,0.132c-0.042,0.032 -0.103,0.048 -0.183,0.048c-0.076,0 -0.15,-0.023 -0.222,-0.069c-0.072,-0.046 -0.158,-0.098 -0.258,-0.156c-0.1,-0.058 -0.219,-0.11 -0.357,-0.156c-0.138,-0.046 -0.309,-0.069 -0.513,-0.069c-0.26,0 -0.488,0.047 -0.684,0.141c-0.196,0.094 -0.359,0.229 -0.489,0.405c-0.13,0.176 -0.227,0.389 -0.291,0.639c-0.064,0.25 -0.096,0.533 -0.096,0.849c0,0.328 0.035,0.62 0.105,0.876c0.07,0.256 0.171,0.471 0.303,0.645c0.132,0.174 0.292,0.306 0.48,0.396c0.188,0.09 0.4,0.135 0.636,0.135c0.236,0 0.427,-0.029 0.573,-0.087c0.146,-0.058 0.269,-0.122 0.369,-0.192c0.1,-0.07 0.187,-0.134 0.261,-0.192c0.074,-0.058 0.157,-0.087 0.249,-0.087c0.12,0 0.21,0.046 0.27,0.138l0.426,0.54c-0.164,0.192 -0.342,0.353 -0.534,0.483c-0.192,0.13 -0.391,0.234 -0.597,0.312c-0.206,0.078 -0.419,0.133 -0.639,0.165c-0.22,0.032 -0.438,0.048 -0.654,0.048c-0.38,0 -0.738,-0.071 -1.074,-0.213c-0.336,-0.142 -0.629,-0.349 -0.879,-0.621c-0.25,-0.272 -0.448,-0.605 -0.594,-0.999c-0.146,-0.394 -0.219,-0.843 -0.219,-1.347c0,-0.452 0.065,-0.871 0.195,-1.257c0.13,-0.386 0.321,-0.72 0.573,-1.002c0.252,-0.282 0.564,-0.503 0.936,-0.663c0.372,-0.16 0.8,-0.24 1.284,-0.24c0.46,0 0.863,0.074 1.209,0.222c0.346,0.148 0.657,0.36 0.933,0.636l-0.39,0.54Z" style="fill:#333;fill-rule:nonzero;"/><path d="M457.017,213.355l0,3.912c0,0.376 0.087,0.667 0.261,0.873c0.174,0.206 0.435,0.309 0.783,0.309c0.256,0 0.496,-0.057 0.72,-0.171c0.224,-0.114 0.436,-0.271 0.636,-0.471l0,-4.452l1.482,0l0,6.156l-0.906,0c-0.192,0 -0.318,-0.09 -0.378,-0.27l-0.102,-0.492c-0.128,0.128 -0.26,0.245 -0.396,0.351c-0.136,0.106 -0.281,0.196 -0.435,0.27c-0.154,0.074 -0.32,0.132 -0.498,0.174c-0.178,0.042 -0.369,0.063 -0.573,0.063c-0.336,0 -0.633,-0.057 -0.891,-0.171c-0.258,-0.114 -0.475,-0.275 -0.651,-0.483c-0.176,-0.208 -0.309,-0.455 -0.399,-0.741c-0.09,-0.286 -0.135,-0.601 -0.135,-0.945l0,-3.912l1.482,0Z" style="fill:#333;fill-rule:nonzero;"/><path d="M466.137,214.555c-0.04,0.064 -0.082,0.109 -0.126,0.135c-0.044,0.026 -0.1,0.039 -0.168,0.039c-0.072,0 -0.149,-0.02 -0.231,-0.06c-0.082,-0.04 -0.177,-0.085 -0.285,-0.135c-0.108,-0.05 -0.231,-0.095 -0.369,-0.135c-0.138,-0.04 -0.301,-0.06 -0.489,-0.06c-0.292,0 -0.522,0.062 -0.69,0.186c-0.168,0.124 -0.252,0.286 -0.252,0.486c0,0.132 0.043,0.243 0.129,0.333c0.086,0.09 0.2,0.169 0.342,0.237c0.142,0.068 0.303,0.129 0.483,0.183c0.18,0.054 0.364,0.113 0.552,0.177c0.188,0.064 0.372,0.137 0.552,0.219c0.18,0.082 0.341,0.186 0.483,0.312c0.142,0.126 0.256,0.277 0.342,0.453c0.086,0.176 0.129,0.388 0.129,0.636c0,0.296 -0.054,0.569 -0.162,0.819c-0.108,0.25 -0.266,0.466 -0.474,0.648c-0.208,0.182 -0.465,0.324 -0.771,0.426c-0.306,0.102 -0.657,0.153 -1.053,0.153c-0.212,0 -0.419,-0.019 -0.621,-0.057c-0.202,-0.038 -0.396,-0.091 -0.582,-0.159c-0.186,-0.068 -0.358,-0.148 -0.516,-0.24c-0.158,-0.092 -0.297,-0.192 -0.417,-0.3l0.342,-0.564c0.044,-0.068 0.096,-0.12 0.156,-0.156c0.06,-0.036 0.136,-0.054 0.228,-0.054c0.092,0 0.179,0.026 0.261,0.078c0.082,0.052 0.177,0.108 0.285,0.168c0.108,0.06 0.235,0.116 0.381,0.168c0.146,0.052 0.331,0.078 0.555,0.078c0.176,0 0.327,-0.021 0.453,-0.063c0.126,-0.042 0.23,-0.097 0.312,-0.165c0.082,-0.068 0.142,-0.147 0.18,-0.237c0.038,-0.09 0.057,-0.183 0.057,-0.279c0,-0.144 -0.043,-0.262 -0.129,-0.354c-0.086,-0.092 -0.2,-0.172 -0.342,-0.24c-0.142,-0.068 -0.304,-0.129 -0.486,-0.183c-0.182,-0.054 -0.368,-0.113 -0.558,-0.177c-0.19,-0.064 -0.376,-0.139 -0.558,-0.225c-0.182,-0.086 -0.344,-0.195 -0.486,-0.327c-0.142,-0.132 -0.256,-0.294 -0.342,-0.486c-0.086,-0.192 -0.129,-0.424 -0.129,-0.696c0,-0.252 0.05,-0.492 0.15,-0.72c0.1,-0.228 0.247,-0.427 0.441,-0.597c0.194,-0.17 0.436,-0.306 0.726,-0.408c0.29,-0.102 0.625,-0.153 1.005,-0.153c0.424,0 0.81,0.07 1.158,0.21c0.348,0.14 0.638,0.324 0.87,0.552l-0.336,0.534Z" style="fill:#333;fill-rule:nonzero;"/><path d="M469.749,219.607c-0.532,0 -0.942,-0.151 -1.23,-0.453c-0.288,-0.302 -0.432,-0.719 -0.432,-1.251l0,-3.438l-0.624,0c-0.08,0 -0.149,-0.026 -0.207,-0.078c-0.058,-0.052 -0.087,-0.13 -0.087,-0.234l0,-0.588l0.99,-0.162l0.312,-1.68c0.016,-0.08 0.053,-0.142 0.111,-0.186c0.058,-0.044 0.131,-0.066 0.219,-0.066l0.768,0l0,1.938l1.62,0l0,1.056l-1.62,0l0,3.336c0,0.192 0.048,0.342 0.144,0.45c0.096,0.108 0.224,0.162 0.384,0.162c0.092,0 0.169,-0.011 0.231,-0.033c0.062,-0.022 0.116,-0.045 0.162,-0.069c0.046,-0.024 0.087,-0.047 0.123,-0.069c0.036,-0.022 0.072,-0.033 0.108,-0.033c0.044,0 0.08,0.011 0.108,0.033c0.028,0.022 0.058,0.055 0.09,0.099l0.444,0.72c-0.216,0.18 -0.464,0.316 -0.744,0.408c-0.28,0.092 -0.57,0.138 -0.87,0.138Z" style="fill:#333;fill-rule:nonzero;"/><path d="M474.999,213.259c0.46,0 0.877,0.074 1.251,0.222c0.374,0.148 0.693,0.358 0.957,0.63c0.264,0.272 0.468,0.604 0.612,0.996c0.144,0.392 0.216,0.83 0.216,1.314c0,0.488 -0.072,0.928 -0.216,1.32c-0.144,0.392 -0.348,0.726 -0.612,1.002c-0.264,0.276 -0.583,0.488 -0.957,0.636c-0.374,0.148 -0.791,0.222 -1.251,0.222c-0.46,0 -0.878,-0.074 -1.254,-0.222c-0.376,-0.148 -0.697,-0.36 -0.963,-0.636c-0.266,-0.276 -0.472,-0.61 -0.618,-1.002c-0.146,-0.392 -0.219,-0.832 -0.219,-1.32c0,-0.484 0.073,-0.922 0.219,-1.314c0.146,-0.392 0.352,-0.724 0.618,-0.996c0.266,-0.272 0.587,-0.482 0.963,-0.63c0.376,-0.148 0.794,-0.222 1.254,-0.222Zm0,5.202c0.512,0 0.891,-0.172 1.137,-0.516c0.246,-0.344 0.369,-0.848 0.369,-1.512c0,-0.664 -0.123,-1.17 -0.369,-1.518c-0.246,-0.348 -0.625,-0.522 -1.137,-0.522c-0.52,0 -0.904,0.175 -1.152,0.525c-0.248,0.35 -0.372,0.855 -0.372,1.515c0,0.66 0.124,1.163 0.372,1.509c0.248,0.346 0.632,0.519 1.152,0.519Z" style="fill:#333;fill-rule:nonzero;"/><path d="M479.193,219.511l0,-6.156l0.906,0c0.192,0 0.318,0.09 0.378,0.27l0.096,0.456c0.108,-0.12 0.221,-0.23 0.339,-0.33c0.118,-0.1 0.244,-0.186 0.378,-0.258c0.134,-0.072 0.278,-0.129 0.432,-0.171c0.154,-0.042 0.323,-0.063 0.507,-0.063c0.388,0 0.707,0.105 0.957,0.315c0.25,0.21 0.437,0.489 0.561,0.837c0.096,-0.204 0.216,-0.379 0.36,-0.525c0.144,-0.146 0.302,-0.265 0.474,-0.357c0.172,-0.092 0.355,-0.16 0.549,-0.204c0.194,-0.044 0.389,-0.066 0.585,-0.066c0.34,0 0.642,0.052 0.906,0.156c0.264,0.104 0.486,0.256 0.666,0.456c0.18,0.2 0.317,0.444 0.411,0.732c0.094,0.288 0.141,0.618 0.141,0.99l0,3.918l-1.482,0l0,-3.918c0,-0.392 -0.086,-0.687 -0.258,-0.885c-0.172,-0.198 -0.424,-0.297 -0.756,-0.297c-0.152,0 -0.293,0.026 -0.423,0.078c-0.13,0.052 -0.244,0.127 -0.342,0.225c-0.098,0.098 -0.175,0.221 -0.231,0.369c-0.056,0.148 -0.084,0.318 -0.084,0.51l0,3.918l-1.488,0l0,-3.918c0,-0.412 -0.083,-0.712 -0.249,-0.9c-0.166,-0.188 -0.411,-0.282 -0.735,-0.282c-0.212,0 -0.411,0.053 -0.597,0.159c-0.186,0.106 -0.359,0.251 -0.519,0.435l0,4.506l-1.482,0Z" style="fill:#333;fill-rule:nonzero;"/><path d="M495.939,214.657c-0.044,0.056 -0.087,0.1 -0.129,0.132c-0.042,0.032 -0.103,0.048 -0.183,0.048c-0.076,0 -0.15,-0.023 -0.222,-0.069c-0.072,-0.046 -0.158,-0.098 -0.258,-0.156c-0.1,-0.058 -0.219,-0.11 -0.357,-0.156c-0.138,-0.046 -0.309,-0.069 -0.513,-0.069c-0.26,0 -0.488,0.047 -0.684,0.141c-0.196,0.094 -0.359,0.229 -0.489,0.405c-0.13,0.176 -0.227,0.389 -0.291,0.639c-0.064,0.25 -0.096,0.533 -0.096,0.849c0,0.328 0.035,0.62 0.105,0.876c0.07,0.256 0.171,0.471 0.303,0.645c0.132,0.174 0.292,0.306 0.48,0.396c0.188,0.09 0.4,0.135 0.636,0.135c0.236,0 0.427,-0.029 0.573,-0.087c0.146,-0.058 0.269,-0.122 0.369,-0.192c0.1,-0.07 0.187,-0.134 0.261,-0.192c0.074,-0.058 0.157,-0.087 0.249,-0.087c0.12,0 0.21,0.046 0.27,0.138l0.426,0.54c-0.164,0.192 -0.342,0.353 -0.534,0.483c-0.192,0.13 -0.391,0.234 -0.597,0.312c-0.206,0.078 -0.419,0.133 -0.639,0.165c-0.22,0.032 -0.438,0.048 -0.654,0.048c-0.38,0 -0.738,-0.071 -1.074,-0.213c-0.336,-0.142 -0.629,-0.349 -0.879,-0.621c-0.25,-0.272 -0.448,-0.605 -0.594,-0.999c-0.146,-0.394 -0.219,-0.843 -0.219,-1.347c0,-0.452 0.065,-0.871 0.195,-1.257c0.13,-0.386 0.321,-0.72 0.573,-1.002c0.252,-0.282 0.564,-0.503 0.936,-0.663c0.372,-0.16 0.8,-0.24 1.284,-0.24c0.46,0 0.863,0.074 1.209,0.222c0.346,0.148 0.657,0.36 0.933,0.636l-0.39,0.54Z" style="fill:#333;fill-rule:nonzero;"/><path d="M499.965,213.259c0.46,0 0.877,0.074 1.251,0.222c0.374,0.148 0.693,0.358 0.957,0.63c0.264,0.272 0.468,0.604 0.612,0.996c0.144,0.392 0.216,0.83 0.216,1.314c0,0.488 -0.072,0.928 -0.216,1.32c-0.144,0.392 -0.348,0.726 -0.612,1.002c-0.264,0.276 -0.583,0.488 -0.957,0.636c-0.374,0.148 -0.791,0.222 -1.251,0.222c-0.46,0 -0.878,-0.074 -1.254,-0.222c-0.376,-0.148 -0.697,-0.36 -0.963,-0.636c-0.266,-0.276 -0.472,-0.61 -0.618,-1.002c-0.146,-0.392 -0.219,-0.832 -0.219,-1.32c0,-0.484 0.073,-0.922 0.219,-1.314c0.146,-0.392 0.352,-0.724 0.618,-0.996c0.266,-0.272 0.587,-0.482 0.963,-0.63c0.376,-0.148 0.794,-0.222 1.254,-0.222Zm0,5.202c0.512,0 0.891,-0.172 1.137,-0.516c0.246,-0.344 0.369,-0.848 0.369,-1.512c0,-0.664 -0.123,-1.17 -0.369,-1.518c-0.246,-0.348 -0.625,-0.522 -1.137,-0.522c-0.52,0 -0.904,0.175 -1.152,0.525c-0.248,0.35 -0.372,0.855 -0.372,1.515c0,0.66 0.124,1.163 0.372,1.509c0.248,0.346 0.632,0.519 1.152,0.519Z" style="fill:#333;fill-rule:nonzero;"/><rect x="504.255" y="210.595" width="1.482" height="8.916" style="fill:#333;fill-rule:nonzero;"/><path d="M510.039,213.259c0.46,0 0.877,0.074 1.251,0.222c0.374,0.148 0.693,0.358 0.957,0.63c0.264,0.272 0.468,0.604 0.612,0.996c0.144,0.392 0.216,0.83 0.216,1.314c0,0.488 -0.072,0.928 -0.216,1.32c-0.144,0.392 -0.348,0.726 -0.612,1.002c-0.264,0.276 -0.583,0.488 -0.957,0.636c-0.374,0.148 -0.791,0.222 -1.251,0.222c-0.46,0 -0.878,-0.074 -1.254,-0.222c-0.376,-0.148 -0.697,-0.36 -0.963,-0.636c-0.266,-0.276 -0.472,-0.61 -0.618,-1.002c-0.146,-0.392 -0.219,-0.832 -0.219,-1.32c0,-0.484 0.073,-0.922 0.219,-1.314c0.146,-0.392 0.352,-0.724 0.618,-0.996c0.266,-0.272 0.587,-0.482 0.963,-0.63c0.376,-0.148 0.794,-0.222 1.254,-0.222Zm0,5.202c0.512,0 0.891,-0.172 1.137,-0.516c0.246,-0.344 0.369,-0.848 0.369,-1.512c0,-0.664 -0.123,-1.17 -0.369,-1.518c-0.246,-0.348 -0.625,-0.522 -1.137,-0.522c-0.52,0 -0.904,0.175 -1.152,0.525c-0.248,0.35 -0.372,0.855 -0.372,1.515c0,0.66 0.124,1.163 0.372,1.509c0.248,0.346 0.632,0.519 1.152,0.519Z" style="fill:#333;fill-rule:nonzero;"/><path d="M514.233,219.511l0,-6.156l0.87,0c0.152,0 0.258,0.028 0.318,0.084c0.06,0.056 0.1,0.152 0.12,0.288l0.09,0.744c0.22,-0.38 0.478,-0.68 0.774,-0.9c0.296,-0.22 0.628,-0.33 0.996,-0.33c0.304,0 0.556,0.07 0.756,0.21l-0.192,1.11c-0.012,0.072 -0.038,0.123 -0.078,0.153c-0.04,0.03 -0.094,0.045 -0.162,0.045c-0.06,0 -0.142,-0.014 -0.246,-0.042c-0.104,-0.028 -0.242,-0.042 -0.414,-0.042c-0.308,0 -0.572,0.085 -0.792,0.255c-0.22,0.17 -0.406,0.419 -0.558,0.747l0,3.834l-1.482,0Z" style="fill:#333;fill-rule:nonzero;"/><path d="M522.789,214.555c-0.04,0.064 -0.082,0.109 -0.126,0.135c-0.044,0.026 -0.1,0.039 -0.168,0.039c-0.072,0 -0.149,-0.02 -0.231,-0.06c-0.082,-0.04 -0.177,-0.085 -0.285,-0.135c-0.108,-0.05 -0.231,-0.095 -0.369,-0.135c-0.138,-0.04 -0.301,-0.06 -0.489,-0.06c-0.292,0 -0.522,0.062 -0.69,0.186c-0.168,0.124 -0.252,0.286 -0.252,0.486c0,0.132 0.043,0.243 0.129,0.333c0.086,0.09 0.2,0.169 0.342,0.237c0.142,0.068 0.303,0.129 0.483,0.183c0.18,0.054 0.364,0.113 0.552,0.177c0.188,0.064 0.372,0.137 0.552,0.219c0.18,0.082 0.341,0.186 0.483,0.312c0.142,0.126 0.256,0.277 0.342,0.453c0.086,0.176 0.129,0.388 0.129,0.636c0,0.296 -0.054,0.569 -0.162,0.819c-0.108,0.25 -0.266,0.466 -0.474,0.648c-0.208,0.182 -0.465,0.324 -0.771,0.426c-0.306,0.102 -0.657,0.153 -1.053,0.153c-0.212,0 -0.419,-0.019 -0.621,-0.057c-0.202,-0.038 -0.396,-0.091 -0.582,-0.159c-0.186,-0.068 -0.358,-0.148 -0.516,-0.24c-0.158,-0.092 -0.297,-0.192 -0.417,-0.3l0.342,-0.564c0.044,-0.068 0.096,-0.12 0.156,-0.156c0.06,-0.036 0.136,-0.054 0.228,-0.054c0.092,0 0.179,0.026 0.261,0.078c0.082,0.052 0.177,0.108 0.285,0.168c0.108,0.06 0.235,0.116 0.381,0.168c0.146,0.052 0.331,0.078 0.555,0.078c0.176,0 0.327,-0.021 0.453,-0.063c0.126,-0.042 0.23,-0.097 0.312,-0.165c0.082,-0.068 0.142,-0.147 0.18,-0.237c0.038,-0.09 0.057,-0.183 0.057,-0.279c0,-0.144 -0.043,-0.262 -0.129,-0.354c-0.086,-0.092 -0.2,-0.172 -0.342,-0.24c-0.142,-0.068 -0.304,-0.129 -0.486,-0.183c-0.182,-0.054 -0.368,-0.113 -0.558,-0.177c-0.19,-0.064 -0.376,-0.139 -0.558,-0.225c-0.182,-0.086 -0.344,-0.195 -0.486,-0.327c-0.142,-0.132 -0.256,-0.294 -0.342,-0.486c-0.086,-0.192 -0.129,-0.424 -0.129,-0.696c0,-0.252 0.05,-0.492 0.15,-0.72c0.1,-0.228 0.247,-0.427 0.441,-0.597c0.194,-0.17 0.436,-0.306 0.726,-0.408c0.29,-0.102 0.625,-0.153 1.005,-0.153c0.424,0 0.81,0.07 1.158,0.21c0.348,0.14 0.638,0.324 0.87,0.552l-0.336,0.534Z" style="fill:#333;fill-rule:nonzero;"/><path d="M367.05,231.511l0,-6.156l0.906,0c0.192,0 0.318,0.09 0.378,0.27l0.102,0.486c0.124,-0.128 0.255,-0.244 0.393,-0.348c0.138,-0.104 0.284,-0.194 0.438,-0.27c0.154,-0.076 0.319,-0.134 0.495,-0.174c0.176,-0.04 0.368,-0.06 0.576,-0.06c0.336,0 0.634,0.057 0.894,0.171c0.26,0.114 0.477,0.274 0.651,0.48c0.174,0.206 0.306,0.452 0.396,0.738c0.09,0.286 0.135,0.601 0.135,0.945l0,3.918l-1.482,0l0,-3.918c0,-0.376 -0.087,-0.667 -0.261,-0.873c-0.174,-0.206 -0.435,-0.309 -0.783,-0.309c-0.256,0 -0.496,0.058 -0.72,0.174c-0.224,0.116 -0.436,0.274 -0.636,0.474l0,4.452l-1.482,0Z" style="fill:#333;fill-rule:nonzero;"/><path d="M373.872,233.521l0,-8.166l0.906,0c0.096,0 0.178,0.022 0.246,0.066c0.068,0.044 0.112,0.112 0.132,0.204l0.12,0.57c0.248,-0.284 0.533,-0.514 0.855,-0.69c0.322,-0.176 0.699,-0.264 1.131,-0.264c0.336,0 0.643,0.07 0.921,0.21c0.278,0.14 0.518,0.343 0.72,0.609c0.202,0.266 0.358,0.594 0.468,0.984c0.11,0.39 0.165,0.837 0.165,1.341c0,0.46 -0.062,0.886 -0.186,1.278c-0.124,0.392 -0.301,0.732 -0.531,1.02c-0.23,0.288 -0.508,0.513 -0.834,0.675c-0.326,0.162 -0.691,0.243 -1.095,0.243c-0.348,0 -0.643,-0.053 -0.885,-0.159c-0.242,-0.106 -0.459,-0.253 -0.651,-0.441l0,2.52l-1.482,0Zm2.88,-7.11c-0.308,0 -0.571,0.065 -0.789,0.195c-0.218,0.13 -0.421,0.313 -0.609,0.549l0,2.76c0.168,0.208 0.351,0.353 0.549,0.435c0.198,0.082 0.411,0.123 0.639,0.123c0.224,0 0.427,-0.042 0.609,-0.126c0.182,-0.084 0.336,-0.212 0.462,-0.384c0.126,-0.172 0.223,-0.389 0.291,-0.651c0.068,-0.262 0.102,-0.571 0.102,-0.927c0,-0.36 -0.029,-0.665 -0.087,-0.915c-0.058,-0.25 -0.141,-0.453 -0.249,-0.609c-0.108,-0.156 -0.239,-0.27 -0.393,-0.342c-0.154,-0.072 -0.329,-0.108 -0.525,-0.108Z" style="fill:#333;fill-rule:nonzero;"/><path d="M380.658,231.511l0,-6.156l0.906,0c0.192,0 0.318,0.09 0.378,0.27l0.096,0.456c0.108,-0.12 0.221,-0.23 0.339,-0.33c0.118,-0.1 0.244,-0.186 0.378,-0.258c0.134,-0.072 0.278,-0.129 0.432,-0.171c0.154,-0.042 0.323,-0.063 0.507,-0.063c0.388,0 0.707,0.105 0.957,0.315c0.25,0.21 0.437,0.489 0.561,0.837c0.096,-0.204 0.216,-0.379 0.36,-0.525c0.144,-0.146 0.302,-0.265 0.474,-0.357c0.172,-0.092 0.355,-0.16 0.549,-0.204c0.194,-0.044 0.389,-0.066 0.585,-0.066c0.34,0 0.642,0.052 0.906,0.156c0.264,0.104 0.486,0.256 0.666,0.456c0.18,0.2 0.317,0.444 0.411,0.732c0.094,0.288 0.141,0.618 0.141,0.99l0,3.918l-1.482,0l0,-3.918c0,-0.392 -0.086,-0.687 -0.258,-0.885c-0.172,-0.198 -0.424,-0.297 -0.756,-0.297c-0.152,0 -0.293,0.026 -0.423,0.078c-0.13,0.052 -0.244,0.127 -0.342,0.225c-0.098,0.098 -0.175,0.221 -0.231,0.369c-0.056,0.148 -0.084,0.318 -0.084,0.51l0,3.918l-1.488,0l0,-3.918c0,-0.412 -0.083,-0.712 -0.249,-0.9c-0.166,-0.188 -0.411,-0.282 -0.735,-0.282c-0.212,0 -0.411,0.053 -0.597,0.159c-0.186,0.106 -0.359,0.251 -0.519,0.435l0,4.506l-1.482,0Z" style="fill:#333;fill-rule:nonzero;"/><rect x="392.886" y="227.269" width="3.108" height="1.236" style="fill:#333;fill-rule:nonzero;"/><path d="M402.786,231.511l-1.344,0l-2.448,-6.156l1.23,0c0.108,0 0.199,0.026 0.273,0.078c0.074,0.052 0.125,0.118 0.153,0.198l1.188,3.288c0.068,0.192 0.125,0.38 0.171,0.564c0.046,0.184 0.087,0.368 0.123,0.552c0.036,-0.184 0.077,-0.368 0.123,-0.552c0.046,-0.184 0.105,-0.372 0.177,-0.564l1.218,-3.288c0.028,-0.08 0.078,-0.146 0.15,-0.198c0.072,-0.052 0.158,-0.078 0.258,-0.078l1.17,0l-2.442,6.156Z" style="fill:#333;fill-rule:nonzero;"/><path d="M410.928,231.511l-0.666,0c-0.14,0 -0.25,-0.021 -0.33,-0.063c-0.08,-0.042 -0.14,-0.127 -0.18,-0.255l-0.132,-0.438c-0.156,0.14 -0.309,0.263 -0.459,0.369c-0.15,0.106 -0.305,0.195 -0.465,0.267c-0.16,0.072 -0.33,0.126 -0.51,0.162c-0.18,0.036 -0.38,0.054 -0.6,0.054c-0.26,0 -0.5,-0.035 -0.72,-0.106c-0.22,-0.07 -0.409,-0.175 -0.567,-0.316c-0.158,-0.14 -0.281,-0.315 -0.369,-0.523c-0.088,-0.209 -0.132,-0.452 -0.132,-0.729c0,-0.233 0.061,-0.462 0.183,-0.689c0.122,-0.227 0.325,-0.431 0.609,-0.614c0.284,-0.183 0.662,-0.334 1.134,-0.455c0.472,-0.12 1.058,-0.18 1.758,-0.18l0,-0.363c0,-0.415 -0.087,-0.722 -0.261,-0.922c-0.174,-0.199 -0.427,-0.299 -0.759,-0.299c-0.24,0 -0.44,0.028 -0.6,0.084c-0.16,0.056 -0.299,0.119 -0.417,0.189c-0.118,0.07 -0.227,0.133 -0.327,0.189c-0.1,0.056 -0.21,0.084 -0.33,0.084c-0.1,0 -0.186,-0.026 -0.258,-0.078c-0.072,-0.052 -0.13,-0.116 -0.174,-0.192l-0.27,-0.474c0.708,-0.648 1.562,-0.972 2.562,-0.972c0.36,0 0.681,0.059 0.963,0.177c0.282,0.118 0.521,0.282 0.717,0.492c0.196,0.21 0.345,0.461 0.447,0.753c0.102,0.292 0.153,0.612 0.153,0.96l0,3.888Zm-2.88,-0.924c0.152,0 0.292,-0.014 0.42,-0.042c0.128,-0.027 0.249,-0.068 0.363,-0.124c0.114,-0.055 0.224,-0.123 0.33,-0.203c0.106,-0.081 0.213,-0.177 0.321,-0.287l0,-1.03c-0.432,0 -0.793,0.027 -1.083,0.081c-0.29,0.055 -0.523,0.124 -0.699,0.209c-0.176,0.085 -0.301,0.183 -0.375,0.296c-0.074,0.113 -0.111,0.236 -0.111,0.369c0,0.261 0.077,0.449 0.231,0.562c0.154,0.112 0.355,0.169 0.603,0.169Z" style="fill:#333;fill-rule:nonzero;"/><path d="M412.386,231.511l0,-6.156l0.906,0c0.192,0 0.318,0.09 0.378,0.27l0.102,0.486c0.124,-0.128 0.255,-0.244 0.393,-0.348c0.138,-0.104 0.284,-0.194 0.438,-0.27c0.154,-0.076 0.319,-0.134 0.495,-0.174c0.176,-0.04 0.368,-0.06 0.576,-0.06c0.336,0 0.634,0.057 0.894,0.171c0.26,0.114 0.477,0.274 0.651,0.48c0.174,0.206 0.306,0.452 0.396,0.738c0.09,0.286 0.135,0.601 0.135,0.945l0,3.918l-1.482,0l0,-3.918c0,-0.376 -0.087,-0.667 -0.261,-0.873c-0.174,-0.206 -0.435,-0.309 -0.783,-0.309c-0.256,0 -0.496,0.058 -0.72,0.174c-0.224,0.116 -0.436,0.274 -0.636,0.474l0,4.452l-1.482,0Z" style="fill:#333;fill-rule:nonzero;"/><path d="M420.786,225.355l0,6.156l-1.482,0l0,-6.156l1.482,0Zm0.222,-1.794c0,0.128 -0.026,0.248 -0.078,0.36c-0.052,0.112 -0.121,0.21 -0.207,0.294c-0.086,0.084 -0.187,0.151 -0.303,0.201c-0.116,0.05 -0.24,0.075 -0.372,0.075c-0.128,0 -0.249,-0.025 -0.363,-0.075c-0.114,-0.05 -0.213,-0.117 -0.297,-0.201c-0.084,-0.084 -0.151,-0.182 -0.201,-0.294c-0.05,-0.112 -0.075,-0.232 -0.075,-0.36c0,-0.132 0.025,-0.256 0.075,-0.372c0.05,-0.116 0.117,-0.216 0.201,-0.3c0.084,-0.084 0.183,-0.151 0.297,-0.201c0.114,-0.05 0.235,-0.075 0.363,-0.075c0.132,0 0.256,0.025 0.372,0.075c0.116,0.05 0.217,0.117 0.303,0.201c0.086,0.084 0.155,0.184 0.207,0.3c0.052,0.116 0.078,0.24 0.078,0.372Z" style="fill:#333;fill-rule:nonzero;"/><rect x="422.556" y="222.595" width="1.482" height="8.916" style="fill:#333;fill-rule:nonzero;"/><rect x="425.808" y="222.595" width="1.482" height="8.916" style="fill:#333;fill-rule:nonzero;"/><path d="M433.788,231.511l-0.666,0c-0.14,0 -0.25,-0.021 -0.33,-0.063c-0.08,-0.042 -0.14,-0.127 -0.18,-0.255l-0.132,-0.438c-0.156,0.14 -0.309,0.263 -0.459,0.369c-0.15,0.106 -0.305,0.195 -0.465,0.267c-0.16,0.072 -0.33,0.126 -0.51,0.162c-0.18,0.036 -0.38,0.054 -0.6,0.054c-0.26,0 -0.5,-0.035 -0.72,-0.106c-0.22,-0.07 -0.409,-0.175 -0.567,-0.316c-0.158,-0.14 -0.281,-0.315 -0.369,-0.523c-0.088,-0.209 -0.132,-0.452 -0.132,-0.729c0,-0.233 0.061,-0.462 0.183,-0.689c0.122,-0.227 0.325,-0.431 0.609,-0.614c0.284,-0.183 0.662,-0.334 1.134,-0.455c0.472,-0.12 1.058,-0.18 1.758,-0.18l0,-0.363c0,-0.415 -0.087,-0.722 -0.261,-0.922c-0.174,-0.199 -0.427,-0.299 -0.759,-0.299c-0.24,0 -0.44,0.028 -0.6,0.084c-0.16,0.056 -0.299,0.119 -0.417,0.189c-0.118,0.07 -0.227,0.133 -0.327,0.189c-0.1,0.056 -0.21,0.084 -0.33,0.084c-0.1,0 -0.186,-0.026 -0.258,-0.078c-0.072,-0.052 -0.13,-0.116 -0.174,-0.192l-0.27,-0.474c0.708,-0.648 1.562,-0.972 2.562,-0.972c0.36,0 0.681,0.059 0.963,0.177c0.282,0.118 0.521,0.282 0.717,0.492c0.196,0.21 0.345,0.461 0.447,0.753c0.102,0.292 0.153,0.612 0.153,0.96l0,3.888Zm-2.88,-0.924c0.152,0 0.292,-0.014 0.42,-0.042c0.128,-0.027 0.249,-0.068 0.363,-0.124c0.114,-0.055 0.224,-0.123 0.33,-0.203c0.106,-0.081 0.213,-0.177 0.321,-0.287l0,-1.03c-0.432,0 -0.793,0.027 -1.083,0.081c-0.29,0.055 -0.523,0.124 -0.699,0.209c-0.176,0.085 -0.301,0.183 -0.375,0.296c-0.074,0.113 -0.111,0.236 -0.111,0.369c0,0.261 0.077,0.449 0.231,0.562c0.154,0.112 0.355,0.169 0.603,0.169Z" style="fill:#333;fill-rule:nonzero;"/></g></svg>