<?xml version="1.0" encoding="UTF-8" standalone="no"?>
<!DOCTYPE svg PUBLIC "-//W3C//DTD SVG 1.1//EN" "http://www.w3.org/Graphics/SVG/1.1/DTD/svg11.dtd">
<svg width="100%" height="100%" viewBox="0 0 15 15" version="1.1" xmlns="http://www.w3.org/2000/svg" xmlns:xlink="http://www.w3.org/1999/xlink" xml:space="preserve" style="fill-rule:evenodd;clip-rule:evenodd;stroke-linejoin:round;stroke-miterlimit:1.41421;">
    <g transform="matrix(1,0,0,1,-1432,-177.349)">
        <g id="github" transform="matrix(0.75,0,0,0.722667,1430.5,175.904)">
            <path d="M11.999,2C6.478,2 2,6.477 2,12.001C2,16.418 4.865,20.167 8.839,21.489C9.339,21.581 9.521,21.272 9.521,21.007C9.521,20.77 9.513,20.141 9.508,19.306C6.726,19.911 6.139,17.966 6.139,17.966C5.685,16.811 5.029,16.503 5.029,16.503C4.121,15.882 5.098,15.895 5.098,15.895C6.101,15.966 6.629,16.926 6.629,16.926C7.521,18.454 8.97,18.013 9.54,17.757C9.631,17.11 9.889,16.67 10.175,16.42C7.954,16.167 5.62,15.309 5.62,11.477C5.62,10.386 6.009,9.493 6.649,8.794C6.546,8.541 6.203,7.524 6.747,6.147C6.747,6.147 7.586,5.879 9.497,7.173C10.294,6.951 11.15,6.84 12,6.836C12.85,6.84 13.705,6.951 14.504,7.173C16.413,5.879 17.251,6.147 17.251,6.147C17.797,7.524 17.453,8.541 17.351,8.794C17.992,9.493 18.379,10.386 18.379,11.477C18.379,15.319 16.04,16.164 13.813,16.412C14.172,16.721 14.492,17.331 14.492,18.264C14.492,19.601 14.479,20.679 14.479,21.007C14.479,21.274 14.66,21.586 15.167,21.488C19.137,20.163 22,16.417 22,12.001C22,6.477 17.522,2 11.999,2Z" style="fill:rgb(102,102,102);"/>
        </g>
    </g>
</svg>
