<?xml version="1.0" encoding="UTF-8" standalone="no"?>
<!DOCTYPE svg PUBLIC "-//W3C//DTD SVG 1.1//EN" "http://www.w3.org/Graphics/SVG/1.1/DTD/svg11.dtd">
<svg width="100%" height="100%" viewBox="0 0 22 21" version="1.1" xmlns="http://www.w3.org/2000/svg" xmlns:xlink="http://www.w3.org/1999/xlink" xml:space="preserve" style="fill-rule:evenodd;clip-rule:evenodd;stroke-linejoin:round;stroke-miterlimit:1.41421;">
    <g transform="matrix(1,0,0,1,-219,-158)">
        <g id="medium" transform="matrix(1.07075,0,0,1.17075,216.859,153.876)">
            <path d="M21.929,6.616L15.889,16.472L11.572,9.426L15.009,3.841C15.167,3.584 15.495,3.466 15.779,3.549L21.929,6.616ZM22,19.782C22,20.352 21.504,20.566 20.892,20.26L16.184,17.906L22,8.414L22,19.782ZM8.988,19.937C8.988,20.505 8.573,20.762 8.065,20.508L2.554,17.757C2.249,17.605 2,17.202 2,16.861L2,4.139C2,3.685 2.332,3.48 2.738,3.683L8.705,6.661L8.988,7.124L8.988,19.937ZM15.286,17.457L10,14.814L10,8.814L15.286,17.457Z" style="fill:rgb(190,190,190);fill-rule:nonzero;"/>
        </g>
    </g>
</svg>
