<svg xmlns="http://www.w3.org/2000/svg" fill-rule="evenodd" viewBox="0 0 400 400" clip-rule="evenodd"><path fill="#333" d="M118.42 158c0 2.55-.4 4.9-1.22 7.03-.8 2.14-1.95 3.98-3.43 5.52-1.48 1.54-3.26 2.74-5.33 3.6-2.07.84-4.37 1.27-6.88 1.27-2.5 0-4.8-.43-6.87-1.28-2.07-.85-3.84-2.04-5.32-3.6-1.48-1.53-2.63-3.37-3.44-5.5-.8-2.14-1.2-4.5-1.2-7.05 0-2.57.4-4.92 1.2-7.06.8-2.13 1.96-3.98 3.44-5.53 1.48-1.54 3.25-2.74 5.3-3.6 2.08-.86 4.37-1.3 6.88-1.3 2.5 0 4.8.44 6.88 1.3 2.07.86 3.85 2.06 5.33 3.6 1.48 1.56 2.62 3.4 3.43 5.54.8 2.14 1.22 4.5 1.22 7.05zm-4.75 0c0-2.1-.28-4-.85-5.66-.58-1.67-1.4-3.08-2.44-4.24-1.05-1.15-2.32-2.03-3.8-2.65-1.5-.62-3.18-.93-5.02-.93-1.83 0-3.5.3-4.98.93-1.5.62-2.77 1.5-3.83 2.66-1.06 1.16-1.87 2.57-2.44 4.24-.57 1.67-.85 3.55-.85 5.65 0 2.1.28 3.97.86 5.63.58 1.66 1.4 3.07 2.45 4.22 1.06 1.15 2.33 2.03 3.83 2.64 1.5.6 3.15.9 4.98.9 1.84 0 3.5-.3 5-.9 1.5-.62 2.77-1.5 3.82-2.65 1.05-1.15 1.86-2.56 2.44-4.22.57-1.66.85-3.54.85-5.64zM140.93 152.72c0 .3-.06.6-.17.87-.1.27-.26.52-.43.74l-13.07 17.4h13.2v3.32h-18.2v-1.76c0-.2.05-.45.15-.73.1-.28.26-.55.45-.8L136 154.24h-13v-3.33h17.93v1.82zM155.66 150.53c1.45 0 2.78.24 4 .72 1.23.5 2.3 1.2 3.18 2.1.9.92 1.58 2.04 2.08 3.4.5 1.33.75 2.86.75 4.58 0 .66-.07 1.1-.2 1.33-.15.22-.42.34-.82.34h-16.07c.03 1.52.24 2.85.62 3.98s.9 2.07 1.57 2.82c.67.76 1.46 1.32 2.4 1.7.9.37 1.94.56 3.1.56 1.05 0 1.97-.13 2.74-.37.78-.26 1.44-.53 2-.8.56-.3 1.02-.56 1.4-.8.37-.26.7-.38.96-.38.35 0 .62.13.8.4l1.2 1.55c-.52.64-1.15 1.2-1.88 1.66-.73.47-1.5.86-2.35 1.16-.83.3-1.7.52-2.58.67-.9.15-1.78.22-2.65.22-1.67 0-3.2-.3-4.6-.85-1.42-.57-2.64-1.4-3.66-2.48-1.03-1.1-1.83-2.44-2.4-4.04-.57-1.6-.86-3.45-.86-5.53 0-1.7.26-3.26.78-4.73.5-1.46 1.26-2.73 2.23-3.8.96-1.07 2.14-1.9 3.54-2.53 1.4-.6 2.97-.9 4.72-.9zm.1 3.12c-2.05 0-3.67.6-4.84 1.77-1.18 1.2-1.9 2.83-2.2 4.93h13.14c0-1-.14-1.9-.4-2.7-.28-.83-.67-1.53-1.2-2.13-.52-.6-1.16-1.06-1.92-1.38-.75-.33-1.6-.5-2.58-.5zM171.1 175.06V150.9h2.5c.62 0 1 .3 1.16.9l.33 2.6c1.04-1.15 2.2-2.1 3.5-2.8 1.3-.72 2.8-1.07 4.5-1.07 1.32 0 2.5.2 3.5.65 1 .44 1.85 1.06 2.52 1.86.68.8 1.2 1.77 1.54 2.9.35 1.13.53 2.37.53 3.74v15.38h-4.26v-15.38c0-1.83-.42-3.25-1.25-4.25-.84-1-2.12-1.52-3.84-1.52-1.25 0-2.42.3-3.5.92-1.1.6-2.1 1.42-3.03 2.45v17.8h-4.24zM202.32 150.9v24.16h-4.24V150.9h4.24zm.96-7.57c0 .4-.1.8-.25 1.15-.17.36-.4.68-.67.96-.28.27-.6.5-.97.65-.37.15-.76.23-1.18.23-.4 0-.8-.08-1.15-.24-.36-.17-.68-.4-.96-.66-.27-.28-.48-.6-.64-.96-.16-.36-.24-.74-.24-1.15 0-.42.08-.8.24-1.2.16-.36.37-.68.65-.96.3-.28.6-.5.97-.66.35-.15.74-.23 1.15-.23.42 0 .8.08 1.17.24.36.17.68.4.96.67.27.28.5.6.66.97.17.38.25.77.25 1.2zM224.3 171.17h14.8v3.9h-19.42v-34.18h4.62v30.27zM248.24 150.9v24.16H244V150.9h4.24zm.96-7.57c0 .4-.1.8-.25 1.15-.17.36-.4.68-.67.96-.28.27-.6.5-.97.65-.35.15-.74.23-1.16.23-.4 0-.8-.08-1.15-.24-.37-.17-.7-.4-.97-.66-.27-.28-.5-.6-.65-.96-.16-.36-.24-.74-.24-1.15 0-.42.08-.8.24-1.2.16-.36.38-.68.65-.96.28-.28.6-.5.96-.66.35-.15.73-.23 1.14-.23.42 0 .8.08 1.17.24.38.17.7.4.98.67.28.28.5.6.67.97.16.38.25.77.25 1.2zM255.73 175.06V150.9h2.53c.6 0 .98.3 1.14.9l.3 2.47c.9-1.1 1.9-2 3-2.7 1.1-.7 2.4-1.04 3.86-1.04 1.63 0 2.96.45 3.97 1.35 1 .9 1.73 2.13 2.18 3.68.34-.88.78-1.63 1.33-2.27.55-.64 1.16-1.17 1.85-1.58.68-.42 1.4-.72 2.18-.9.77-.2 1.55-.3 2.35-.3 1.28 0 2.4.2 3.4.6 1 .42 1.84 1 2.53 1.8.7.77 1.22 1.73 1.6 2.86.35 1.14.54 2.44.54 3.9v15.38h-4.25v-15.38c0-1.9-.4-3.33-1.24-4.3-.82-.98-2.02-1.47-3.6-1.47-.7 0-1.36.13-2 .38-.62.25-1.17.6-1.65 1.08-.47.48-.85 1.08-1.13 1.8-.28.73-.42 1.57-.42 2.52v15.38h-4.24v-15.38c0-1.94-.4-3.4-1.17-4.34-.78-.95-1.9-1.43-3.4-1.43-1.06 0-2.03.3-2.93.86-.9.56-1.72 1.33-2.47 2.3v18h-4.24zM312.62 175.06h-1.88c-.42 0-.75-.06-1-.2-.26-.12-.43-.4-.5-.8l-.48-2.24c-.64.57-1.26 1.08-1.86 1.53-.6.46-1.24.84-1.9 1.15-.68.3-1.4.54-2.14.7-.76.16-1.6.24-2.52.24-.94 0-1.82-.13-2.63-.4-.8-.26-1.52-.65-2.13-1.18-.6-.52-1.08-1.2-1.44-2-.36-.8-.54-1.75-.54-2.85 0-.95.26-1.87.78-2.76.52-.88 1.37-1.67 2.54-2.36 1.17-.68 2.7-1.24 4.6-1.68 1.88-.44 4.2-.66 6.93-.66v-1.9c0-1.88-.4-3.3-1.2-4.28-.8-.97-2-1.45-3.57-1.45-1.04 0-1.9.14-2.6.4-.72.27-1.33.56-1.85.9-.52.3-.96.6-1.33.87-.38.26-.75.4-1.1.4-.3 0-.55-.08-.76-.23-.22-.15-.4-.34-.52-.56l-.76-1.36c1.34-1.3 2.78-2.25 4.32-2.9 1.54-.62 3.25-.94 5.12-.94 1.35 0 2.55.22 3.6.67 1.05.44 1.94 1.06 2.65 1.86.72.8 1.26 1.76 1.62 2.9.37 1.12.55 2.36.55 3.7v15.46zm-11.02-2.6c.75 0 1.43-.07 2.05-.23.62-.15 1.2-.36 1.76-.64.56-.3 1.08-.62 1.58-1.02s1-.85 1.47-1.36v-5c-1.96 0-3.62.14-5 .4-1.35.23-2.47.56-3.32.96-.86.4-1.5.87-1.88 1.4-.4.56-.58 1.16-.58 1.84 0 .64.1 1.2.3 1.65.22.46.5.84.84 1.14.36.3.78.52 1.25.66.48.13 1 .2 1.55.2z"/><g fill="#333"><path d="M95.58 198.2c1.44 0 2.78.25 4 .74 1.23.48 2.28 1.18 3.17 2.1.9.9 1.6 2.04 2.1 3.38.5 1.35.74 2.88.74 4.6 0 .66-.08 1.1-.22 1.33-.15.22-.42.33-.8.33H88.47c.03 1.53.23 2.86.6 3.98.4 1.13.92 2.07 1.6 2.83.66.74 1.45 1.3 2.37 1.68.92.38 1.96.56 3.1.56 1.07 0 1.98-.12 2.76-.37.77-.24 1.43-.5 2-.8.54-.28 1-.55 1.38-.8.4-.24.7-.36.98-.36.35 0 .62.14.8.4l1.2 1.56c-.52.64-1.15 1.2-1.88 1.66-.74.47-1.52.85-2.35 1.15-.84.3-1.7.53-2.6.68-.88.15-1.76.23-2.64.23-1.66 0-3.2-.28-4.6-.85-1.4-.56-2.62-1.4-3.65-2.48-1.02-1.08-1.82-2.43-2.4-4.04-.57-1.6-.85-3.44-.85-5.52 0-1.68.26-3.26.77-4.72.52-1.46 1.26-2.73 2.23-3.8.97-1.08 2.16-1.92 3.56-2.53 1.4-.6 2.97-.92 4.72-.92zm.1 3.14c-2.06 0-3.67.6-4.85 1.77-1.18 1.2-1.9 2.84-2.2 4.94h13.14c0-1-.13-1.9-.4-2.7-.27-.83-.67-1.54-1.2-2.13-.52-.6-1.16-1.05-1.9-1.38-.77-.32-1.63-.48-2.6-.48zM124.83 202.57c-.2.35-.48.53-.88.53-.24 0-.5-.1-.8-.26-.3-.18-.68-.37-1.12-.6-.44-.2-.96-.4-1.56-.58-.6-.2-1.32-.28-2.15-.28-.7 0-1.36.1-1.93.28-.58.18-1.07.43-1.48.75-.4.33-.7.7-.92 1.12-.22.42-.33.87-.33 1.37 0 .6.18 1.12.54 1.54.37.4.84.77 1.43 1.07.6.3 1.25.58 2 .8.75.24 1.52.5 2.3.75.8.26 1.55.55 2.3.87.75.32 1.42.7 2 1.2.6.47 1.07 1.05 1.42 1.74.36.7.54 1.53.54 2.5 0 1.1-.2 2.14-.6 3.08-.4.95-1 1.77-1.77 2.46-.78.7-1.73 1.23-2.86 1.63-1.13.4-2.43.6-3.9.6-1.7 0-3.22-.28-4.6-.82-1.36-.54-2.52-1.25-3.47-2.1l1-1.63c.13-.2.28-.36.45-.47.18-.1.4-.17.7-.17.28 0 .58.1.9.33.32.23.7.47 1.16.74.46.27 1 .52 1.65.74.65.22 1.45.34 2.42.34.83 0 1.55-.1 2.17-.33.62-.2 1.14-.5 1.55-.87.4-.36.7-.78.9-1.26.2-.48.3-1 .3-1.53 0-.67-.17-1.23-.53-1.66-.35-.44-.83-.8-1.42-1.12-.58-.3-1.26-.58-2-.82-.77-.23-1.54-.47-2.32-.72-.8-.26-1.56-.55-2.32-.87-.74-.32-1.4-.73-2-1.22-.6-.5-1.06-1.1-1.42-1.82-.36-.73-.54-1.6-.54-2.64 0-.92.2-1.8.58-2.66.38-.85.93-1.6 1.67-2.24.72-.64 1.6-1.16 2.68-1.54 1.06-.38 2.28-.57 3.65-.57 1.6 0 3 .26 4.28.76 1.27.5 2.36 1.2 3.3 2.06l-.97 1.55zM148.17 202.88c-.12.18-.25.3-.38.4-.14.1-.32.15-.56.15-.23 0-.5-.1-.77-.3-.28-.2-.63-.4-1.06-.65-.42-.24-.94-.46-1.55-.66-.62-.2-1.37-.3-2.26-.3-1.18 0-2.22.22-3.13.64-.9.42-1.67 1.03-2.28 1.82-.62.8-1.08 1.76-1.4 2.9-.3 1.1-.46 2.38-.46 3.78 0 1.46.17 2.76.5 3.9.34 1.13.8 2.1 1.4 2.86.62.77 1.35 1.36 2.22 1.76.86.4 1.84.6 2.92.6 1.03 0 1.88-.1 2.55-.36.67-.25 1.22-.52 1.67-.82.44-.3.8-.58 1.1-.83.28-.24.57-.37.85-.37.37 0 .64.14.8.4l1.2 1.56c-1.04 1.3-2.35 2.23-3.93 2.83-1.57.58-3.23.88-4.98.88-1.5 0-2.9-.28-4.2-.84-1.3-.55-2.43-1.36-3.38-2.42-.96-1.05-1.7-2.35-2.26-3.9-.54-1.53-.82-3.3-.82-5.26 0-1.8.25-3.46.75-5 .5-1.5 1.23-2.83 2.2-3.93.96-1.1 2.15-1.97 3.56-2.6 1.4-.6 3.03-.92 4.85-.92 1.7 0 3.18.3 4.5.83 1.3.55 2.44 1.33 3.44 2.33l-1.13 1.52zM153.97 222.75V198.6h2.43c.46 0 .78.08.95.26.18.17.3.47.36.9l.3 3.77c.82-1.7 1.84-3 3.06-3.95 1.22-.94 2.64-1.42 4.28-1.42.67 0 1.27.08 1.8.23.55.14 1.05.35 1.52.62l-.55 3.17c-.1.4-.35.6-.73.6-.23 0-.57-.1-1.03-.24-.46-.15-1.1-.22-1.93-.22-1.47 0-2.7.43-3.7 1.28-1 .86-1.82 2.1-2.5 3.75v15.38h-4.23zM177.9 198.6v24.15h-4.24V198.6h4.25zm.96-7.6c0 .42-.08.8-.25 1.17-.16.36-.38.67-.66.95-.28.28-.6.5-.96.66-.37.16-.76.24-1.17.24-.4 0-.8-.08-1.15-.24-.36-.16-.67-.38-.95-.66-.28-.28-.5-.6-.66-.95-.16-.36-.24-.75-.24-1.16 0-.4.08-.8.24-1.17.16-.37.38-.7.66-.98s.6-.5.95-.65c.36-.16.74-.24 1.16-.24.42 0 .8.08 1.18.24.36.16.68.37.96.65.28.28.5.6.67.98.18.37.26.77.26 1.18zM192.7 223.13c-1.9 0-3.36-.54-4.4-1.6-1-1.07-1.52-2.6-1.52-4.6v-14.78h-2.9c-.27 0-.48-.08-.66-.23-.17-.15-.26-.4-.26-.7v-1.7l3.96-.5.98-7.46c.03-.24.13-.43.3-.6.18-.14.4-.2.67-.2h2.15v8.3h6.9v3.1h-6.9v14.48c0 1.02.25 1.77.74 2.27.5.5 1.13.75 1.9.75.45 0 .84-.06 1.16-.18.33-.12.6-.25.85-.4.24-.14.44-.27.6-.4.17-.1.32-.17.45-.17.22 0 .42.14.6.4l1.23 2.03c-.73.7-1.6 1.22-2.64 1.6-1.02.4-2.1.6-3.2.6zM212.96 198.2c1.76 0 3.35.3 4.78.9 1.42.58 2.63 1.42 3.62 2.5 1 1.08 1.76 2.4 2.3 3.92.52 1.53.8 3.25.8 5.14 0 1.9-.28 3.62-.8 5.15-.54 1.53-1.3 2.84-2.3 3.92-1 1.08-2.2 1.9-3.62 2.5-1.43.57-3.02.86-4.78.86-1.77 0-3.36-.3-4.8-.87-1.4-.57-2.62-1.4-3.62-2.48s-1.77-2.4-2.3-3.9c-.55-1.54-.83-3.25-.83-5.16 0-1.9.3-3.6.83-5.14.54-1.53 1.3-2.84 2.3-3.92 1-1.08 2.22-1.92 3.64-2.5 1.43-.6 3.02-.9 4.8-.9zm0 21.57c2.38 0 4.16-.8 5.34-2.4 1.17-1.6 1.76-3.83 1.76-6.7s-.6-5.1-1.76-6.7c-1.18-1.62-2.96-2.42-5.34-2.42-1.2 0-2.26.2-3.15.62-.88.4-1.63 1-2.22 1.8-.6.77-1.04 1.72-1.34 2.86-.3 1.14-.44 2.42-.44 3.85 0 1.43.15 2.7.44 3.84.3 1.13.74 2.08 1.34 2.85.6.77 1.34 1.36 2.23 1.78.9.4 1.95.62 3.16.62zM229.7 222.75V198.6h2.43c.46 0 .77.08.95.26.17.17.3.47.36.9l.28 3.77c.83-1.7 1.85-3 3.07-3.95 1.2-.94 2.63-1.42 4.27-1.42.66 0 1.27.08 1.8.23.55.14 1.05.35 1.5.62l-.54 3.17c-.1.4-.35.6-.74.6-.23 0-.57-.1-1.03-.24-.46-.15-1.1-.22-1.93-.22-1.48 0-2.72.43-3.7 1.28-1 .86-1.83 2.1-2.5 3.75v15.38h-4.25zM265.74 222.75h-1.88c-.4 0-.75-.07-1-.2-.25-.12-.42-.4-.5-.8l-.48-2.25c-.63.58-1.25 1.1-1.86 1.54-.6.45-1.24.84-1.9 1.15-.67.3-1.38.53-2.14.7-.75.15-1.6.23-2.5.23-.95 0-1.83-.13-2.65-.4-.82-.26-1.53-.65-2.13-1.18-.6-.53-1.1-1.2-1.45-2-.35-.8-.53-1.76-.53-2.86 0-.96.26-1.9.78-2.77.53-.9 1.38-1.67 2.54-2.36 1.17-.68 2.7-1.25 4.6-1.68 1.9-.45 4.2-.67 6.93-.67v-1.9c0-1.9-.4-3.3-1.2-4.28-.8-.97-2-1.45-3.57-1.45-1.03 0-1.9.13-2.6.4-.7.25-1.33.55-1.84.87-.52.33-.96.62-1.34.9-.37.25-.74.38-1.1.38-.3 0-.54-.08-.76-.23-.2-.15-.38-.34-.5-.56l-.77-1.36c1.32-1.28 2.76-2.25 4.3-2.88 1.54-.64 3.25-.96 5.13-.96 1.35 0 2.55.23 3.6.67 1.05.45 1.93 1.07 2.64 1.86.72.8 1.26 1.75 1.63 2.88.36 1.13.54 2.37.54 3.72v15.45zm-11-2.6c.74 0 1.42-.08 2.04-.23.62-.15 1.2-.36 1.75-.64s1.08-.62 1.58-1.02 1-.85 1.47-1.36v-4.98c-1.95 0-3.6.13-4.98.37-1.38.24-2.5.56-3.35.96-.86.4-1.48.88-1.87 1.42-.4.54-.58 1.15-.58 1.82 0 .64.1 1.2.3 1.66.2.46.5.84.84 1.14.35.3.76.5 1.24.64s1 .2 1.55.2zM290.95 198.2c1.44 0 2.78.25 4 .74 1.23.48 2.28 1.18 3.17 2.1.9.9 1.6 2.04 2.1 3.38.5 1.35.74 2.88.74 4.6 0 .66-.07 1.1-.2 1.33-.16.22-.43.33-.83.33h-16.07c.04 1.53.24 2.86.62 3.98.4 1.13.9 2.07 1.58 2.83.67.74 1.46 1.3 2.38 1.68.92.38 1.96.56 3.1.56 1.07 0 1.98-.12 2.76-.37.77-.24 1.43-.5 2-.8.54-.28 1-.55 1.38-.8.38-.24.7-.36.97-.36.35 0 .62.14.8.4l1.2 1.56c-.52.64-1.15 1.2-1.88 1.66-.73.47-1.52.85-2.35 1.15-.84.3-1.7.53-2.6.68-.88.15-1.76.23-2.63.23-1.68 0-3.22-.28-4.63-.85-1.4-.56-2.62-1.4-3.65-2.48-1.02-1.08-1.82-2.43-2.4-4.04-.56-1.6-.85-3.44-.85-5.52 0-1.68.26-3.26.77-4.72.52-1.46 1.26-2.73 2.23-3.8.97-1.08 2.16-1.92 3.55-2.53 1.4-.6 2.98-.92 4.73-.92zm.1 3.14c-2.06 0-3.67.6-4.85 1.77-1.17 1.2-1.9 2.84-2.2 4.94h13.15c0-1-.14-1.9-.4-2.7-.28-.83-.68-1.54-1.2-2.13-.53-.6-1.17-1.05-1.92-1.38-.76-.32-1.62-.48-2.6-.48z"/></g><path fill="#5fa197" d="M86.02 278.6V246.3h2.52c.6 0 1 .3 1.15.88l.34 2.86c1.04-1.25 2.22-2.26 3.54-3.03 1.33-.77 2.86-1.15 4.6-1.15 1.38 0 2.63.27 3.76.8s2.1 1.32 2.9 2.36c.78 1.05 1.4 2.34 1.82 3.88.43 1.55.65 3.32.65 5.32 0 1.78-.23 3.44-.7 4.97-.48 1.54-1.17 2.86-2.06 3.98-.9 1.12-1.98 2-3.28 2.65-1.3.64-2.75.97-4.37.97-1.5 0-2.78-.25-3.84-.74-1.06-.5-2-1.2-2.8-2.1v10.68H86zm10.75-29.32c-1.38 0-2.6.32-3.64.96-1.04.63-2 1.53-2.87 2.7v11.68c.78 1.04 1.63 1.78 2.56 2.2.93.44 1.97.66 3.1.66 2.25 0 3.98-.8 5.2-2.4 1.2-1.62 1.8-3.9 1.8-6.88 0-1.57-.14-2.92-.42-4.05-.28-1.13-.68-2.06-1.2-2.78-.53-.72-1.17-1.25-1.93-1.6-.77-.32-1.63-.5-2.6-.5zM121.9 245.9c1.44 0 2.78.24 4 .72 1.23.5 2.28 1.2 3.18 2.1.9.92 1.58 2.05 2.08 3.4.5 1.33.75 2.86.75 4.58 0 .67-.06 1.1-.2 1.33-.14.23-.4.34-.8.34H114.8c.03 1.52.24 2.85.62 3.98s.9 2.07 1.57 2.82c.68.76 1.47 1.32 2.4 1.7.92.37 1.95.56 3.1.56 1.06 0 1.98-.13 2.75-.37.77-.25 1.43-.5 2-.8.55-.3 1-.55 1.38-.8.38-.24.7-.37.97-.37.35 0 .62.13.8.4l1.2 1.55c-.52.63-1.15 1.2-1.88 1.65-.73.47-1.5.86-2.35 1.16-.83.3-1.7.53-2.6.68-.88.15-1.76.23-2.63.23-1.67 0-3.2-.3-4.62-.85-1.4-.56-2.62-1.4-3.64-2.48-1.03-1.1-1.83-2.44-2.4-4.04-.57-1.6-.86-3.45-.86-5.53 0-1.7.26-3.26.78-4.72.5-1.47 1.26-2.73 2.23-3.8.97-1.08 2.15-1.92 3.55-2.53 1.4-.62 2.97-.92 4.72-.92zm.1 3.12c-2.06 0-3.67.6-4.85 1.78-1.17 1.18-1.9 2.82-2.2 4.92h13.15c0-.98-.14-1.9-.4-2.7-.28-.82-.68-1.53-1.2-2.13-.52-.6-1.16-1.06-1.92-1.4-.75-.32-1.62-.48-2.6-.48zM137.32 270.43v-24.15h2.44c.46 0 .78.1.95.26.2.18.3.48.37.9l.28 3.78c.83-1.7 1.85-3 3.07-3.95 1.2-.95 2.64-1.42 4.28-1.42.67 0 1.27.08 1.8.23.55.15 1.05.36 1.5.63l-.54 3.18c-.1.4-.35.6-.74.6-.22 0-.56-.08-1.02-.23-.46-.15-1.1-.23-1.93-.23-1.48 0-2.72.43-3.7 1.3-1 .85-1.83 2.1-2.5 3.73v15.38h-4.25zM170.37 250.26c-.2.35-.48.53-.88.53-.25 0-.52-.1-.82-.28-.3-.17-.67-.37-1.1-.58-.45-.22-.97-.4-1.57-.6-.6-.18-1.3-.27-2.14-.27-.7 0-1.36.1-1.93.27-.57.2-1.06.44-1.47.75-.4.3-.7.68-.93 1.1-.2.42-.32.88-.32 1.37 0 .62.2 1.14.55 1.55.36.42.83.77 1.42 1.08.6.3 1.25.57 2 .8.75.23 1.52.47 2.3.73.8.27 1.56.56 2.3.88.75.32 1.42.72 2 1.2.6.47 1.07 1.06 1.42 1.75.35.7.53 1.52.53 2.5 0 1.1-.2 2.13-.6 3.08-.4.94-.98 1.76-1.76 2.45-.78.7-1.73 1.24-2.86 1.64-1.12.4-2.42.6-3.9.6-1.7 0-3.2-.28-4.58-.83-1.37-.56-2.53-1.26-3.48-2.12l1-1.62c.13-.2.28-.37.45-.48.17-.1.4-.16.7-.16.27 0 .57.1.9.33.3.22.7.47 1.15.74.45.26 1 .5 1.64.73.64.22 1.44.33 2.4.33.84 0 1.56-.1 2.18-.32.62-.2 1.14-.5 1.55-.87.42-.37.72-.8.92-1.26.2-.47.3-.98.3-1.52 0-.67-.18-1.22-.54-1.66-.34-.43-.82-.8-1.4-1.12-.6-.3-1.27-.58-2.02-.8-.76-.24-1.53-.48-2.3-.74-.8-.25-1.57-.54-2.33-.87-.75-.33-1.42-.74-2-1.23-.6-.5-1.07-1.1-1.43-1.83-.36-.72-.54-1.6-.54-2.63 0-.9.2-1.8.58-2.65.38-.85.93-1.6 1.67-2.24.73-.64 1.62-1.15 2.7-1.53 1.05-.38 2.27-.57 3.64-.57 1.6 0 3 .25 4.28.75 1.26.5 2.35 1.2 3.28 2.06l-.96 1.56zM187 245.9c1.78 0 3.37.3 4.8.88 1.42.6 2.63 1.42 3.62 2.5 1 1.08 1.76 2.4 2.3 3.93.52 1.54.8 3.25.8 5.14 0 1.9-.28 3.63-.8 5.15-.55 1.52-1.3 2.82-2.3 3.9-1 1.1-2.2 1.92-3.62 2.5-1.43.58-3.02.87-4.8.87-1.75 0-3.34-.3-4.77-.87-1.42-.58-2.63-1.4-3.63-2.5-1-1.08-1.77-2.38-2.3-3.9-.56-1.53-.83-3.25-.83-5.16 0-1.9.27-3.6.82-5.13.53-1.53 1.3-2.84 2.3-3.92 1-1.08 2.2-1.9 3.63-2.5 1.43-.6 3.02-.88 4.78-.88zm0 21.55c2.4 0 4.18-.8 5.36-2.4 1.17-1.6 1.76-3.82 1.76-6.68 0-2.88-.6-5.12-1.76-6.73-1.18-1.6-2.96-2.4-5.35-2.4-1.2 0-2.24.2-3.13.62-.9.4-1.64 1-2.23 1.78-.6.78-1.04 1.74-1.34 2.88-.3 1.13-.44 2.42-.44 3.85 0 1.43.15 2.7.44 3.84.3 1.14.74 2.1 1.34 2.86.6.77 1.34 1.36 2.23 1.77.9.42 1.94.62 3.14.62zM203.75 270.43v-24.15h2.53c.6 0 .98.3 1.14.88l.34 2.62c1.05-1.16 2.22-2.1 3.52-2.8 1.3-.72 2.8-1.08 4.5-1.08 1.3 0 2.47.22 3.48.65 1 .44 1.85 1.06 2.53 1.86.66.82 1.18 1.78 1.53 2.9.35 1.14.52 2.4.52 3.75v15.38h-4.24v-15.38c0-1.82-.4-3.24-1.24-4.25-.84-1-2.1-1.52-3.83-1.52-1.26 0-2.43.3-3.52.9-1.08.6-2.08 1.43-3 2.47v17.78h-4.25zM248 270.43h-1.88c-.4 0-.75-.06-1-.2-.25-.12-.42-.4-.5-.8l-.48-2.24c-.63.56-1.25 1.07-1.86 1.53-.6.45-1.24.83-1.9 1.14-.67.3-1.38.55-2.14.7-.75.16-1.6.24-2.5.24-.95 0-1.83-.12-2.65-.38-.83-.26-1.54-.66-2.14-1.2-.6-.5-1.1-1.18-1.44-1.98-.36-.8-.54-1.76-.54-2.86 0-.96.26-1.88.8-2.77.5-.87 1.36-1.66 2.52-2.34 1.17-.7 2.7-1.25 4.6-1.7 1.9-.43 4.2-.65 6.93-.65v-1.88c0-1.9-.4-3.32-1.2-4.3-.8-.95-2-1.44-3.57-1.44-1.03 0-1.9.13-2.6.4-.7.26-1.33.55-1.84.88-.52.32-.96.62-1.34.88-.37.26-.74.4-1.1.4-.3 0-.54-.08-.76-.23-.2-.14-.38-.33-.5-.55l-.77-1.36c1.33-1.3 2.77-2.26 4.3-2.9 1.55-.63 3.26-.95 5.14-.95 1.34 0 2.54.22 3.6.67 1.04.44 1.92 1.06 2.64 1.86.7.8 1.25 1.75 1.62 2.88.36 1.13.54 2.37.54 3.72v15.45zm-11-2.6c.74 0 1.42-.07 2.04-.22.62-.14 1.2-.36 1.75-.64.54-.27 1.06-.6 1.57-1 .5-.4 1-.86 1.46-1.37v-5c-1.95 0-3.6.13-4.98.38-1.37.25-2.48.57-3.34.97-.85.4-1.47.87-1.86 1.42-.4.54-.58 1.15-.58 1.82 0 .63.1 1.18.3 1.64.2.47.5.85.84 1.14.35.3.76.5 1.24.65.48.14 1 .2 1.55.2zM254.92 235.3h4.24v35.13h-4.24zM99.84 297.95c-.2.35-.48.52-.88.52-.24 0-.5-.1-.8-.26-.3-.16-.68-.36-1.12-.57-.44-.22-.96-.42-1.56-.6-.6-.18-1.32-.27-2.15-.27-.7 0-1.35.1-1.93.27-.57.18-1.06.43-1.46.75-.4.32-.72.7-.93 1.1-.2.43-.32.9-.32 1.38 0 .62.18 1.14.54 1.55.36.42.83.78 1.42 1.08.6.3 1.26.57 2 .8.75.23 1.52.48 2.3.74.8.26 1.56.55 2.3.87.75.3 1.42.7 2 1.18.6.48 1.07 1.06 1.43 1.75.35.7.53 1.53.53 2.5 0 1.1-.2 2.14-.6 3.08-.4.96-.98 1.78-1.76 2.47-.78.7-1.73 1.24-2.86 1.63-1.13.4-2.43.6-3.9.6-1.7 0-3.22-.27-4.6-.82-1.35-.55-2.5-1.25-3.47-2.1l1-1.63c.14-.2.3-.37.47-.48.17-.1.4-.17.7-.17.27 0 .58.1.9.34.3.22.7.47 1.15.74.45.27 1 .5 1.65.73.64.24 1.45.35 2.42.35.8 0 1.54-.1 2.16-.32.62-.22 1.13-.5 1.55-.87.42-.37.72-.8.92-1.27.2-.48.3-1 .3-1.53 0-.67-.18-1.22-.53-1.66-.37-.43-.85-.8-1.43-1.1-.6-.32-1.26-.6-2.02-.82-.75-.23-1.52-.47-2.3-.73-.8-.25-1.57-.54-2.32-.87-.76-.33-1.43-.73-2.02-1.23-.58-.5-1.05-1.1-1.4-1.82-.36-.72-.54-1.6-.54-2.64 0-.93.2-1.8.57-2.66.38-.85.94-1.6 1.67-2.25.73-.65 1.63-1.16 2.7-1.54 1.06-.38 2.27-.58 3.64-.58 1.6 0 3.02.25 4.28.76 1.26.5 2.36 1.18 3.28 2.06l-.96 1.55zM106.7 326.3v-32.33h2.54c.6 0 .98.3 1.14.88l.36 2.86c1.03-1.25 2.2-2.26 3.54-3.02 1.33-.76 2.86-1.14 4.6-1.14 1.37 0 2.63.26 3.76.8 1.13.53 2.1 1.3 2.88 2.36.8 1.04 1.4 2.33 1.84 3.87.43 1.54.64 3.3.64 5.32 0 1.77-.24 3.42-.7 4.96-.5 1.53-1.17 2.86-2.06 3.98-.9 1.12-2 2-3.28 2.65-1.3.63-2.76.95-4.38.95-1.5 0-2.77-.24-3.82-.74-1.06-.48-2-1.18-2.8-2.08v10.68h-4.25zm10.76-29.33c-1.38 0-2.6.32-3.63.95-1.04.64-2 1.54-2.87 2.7v11.68c.77 1.05 1.63 1.8 2.56 2.22.93.43 1.97.64 3.1.64 2.25 0 3.98-.8 5.18-2.4 1.2-1.6 1.82-3.9 1.82-6.87 0-1.6-.14-2.94-.42-4.07-.28-1.13-.68-2.05-1.2-2.77-.53-.73-1.17-1.26-1.94-1.6-.76-.32-1.63-.5-2.6-.5zM137.75 293.96v24.16h-4.24v-24.16h4.25zm.96-7.58c0 .42-.07.8-.24 1.16-.17.36-.4.67-.67.95-.3.27-.6.5-.98.65-.36.16-.75.24-1.16.24-.42 0-.8-.1-1.16-.25-.36-.16-.68-.38-.95-.66-.28-.3-.5-.6-.66-.96-.17-.36-.25-.74-.25-1.16 0-.4.08-.8.24-1.18.15-.37.37-.7.65-.98.27-.27.6-.5.95-.65.36-.16.74-.24 1.16-.24.4 0 .8.08 1.16.24.37.16.7.38.97.66.27.27.5.6.66.97.16.38.25.77.25 1.18zM145.24 318.12v-24.16h2.43c.46 0 .78.1.96.27.17.17.3.47.36.9l.27 3.77c.83-1.68 1.85-3 3.06-3.95 1.22-.94 2.65-1.4 4.28-1.4.68 0 1.3.06 1.83.2.54.16 1.04.37 1.5.64l-.55 3.17c-.1.4-.36.6-.74.6-.22 0-.56-.08-1.02-.24-.46-.15-1.1-.22-1.94-.22-1.47 0-2.7.44-3.7 1.3-1 .85-1.83 2.1-2.5 3.74v15.38h-4.24zM169.18 293.96v24.16h-4.24v-24.16h4.24zm.95-7.58c0 .42-.08.8-.25 1.16-.16.36-.4.67-.66.95-.28.27-.6.5-.97.65-.37.16-.76.24-1.17.24-.4 0-.8-.1-1.16-.25-.35-.16-.67-.38-.95-.66-.28-.3-.5-.6-.65-.96-.16-.36-.24-.74-.24-1.16 0-.4.08-.8.24-1.18.15-.37.37-.7.65-.98.28-.27.6-.5.95-.65.36-.16.75-.24 1.16-.24.4 0 .8.08 1.17.24.36.16.7.38.96.66.3.27.52.6.68.97.17.38.25.77.25 1.18zM184 318.5c-1.92 0-3.4-.53-4.4-1.6-1.04-1.06-1.55-2.6-1.55-4.6v-14.78h-2.9c-.26 0-.48-.08-.65-.23-.18-.16-.27-.4-.27-.7v-1.7l3.96-.5.97-7.47c.03-.24.14-.43.3-.58.18-.15.4-.23.68-.23h2.14v8.32h6.9v3.08h-6.9v14.5c0 1 .24 1.77.73 2.26.5.5 1.13.74 1.9.74.45 0 .84-.06 1.17-.18.32-.12.6-.25.84-.4.24-.14.44-.27.6-.4.18-.1.32-.17.45-.17.2 0 .4.14.6.4l1.23 2.04c-.73.7-1.62 1.23-2.65 1.62-1.03.4-2.1.58-3.2.58z"/></svg>