<?xml version="1.0" encoding="UTF-8" standalone="no"?><!DOCTYPE svg PUBLIC "-//W3C//DTD SVG 1.1//EN" "http://www.w3.org/Graphics/SVG/1.1/DTD/svg11.dtd"><svg width="100%" height="100%" viewBox="0 0 400 400" version="1.1" xmlns="http://www.w3.org/2000/svg" xmlns:xlink="http://www.w3.org/1999/xlink" xml:space="preserve" style="fill-rule:evenodd;clip-rule:evenodd;stroke-linejoin:round;stroke-miterlimit:1.41421;"><g><path d="M118.418,157.988c0,2.559 -0.406,4.908 -1.216,7.046c-0.811,2.138 -1.955,3.978 -3.434,5.519c-1.478,1.542 -3.254,2.738 -5.329,3.589c-2.074,0.85 -4.367,1.275 -6.878,1.275c-2.512,0 -4.801,-0.425 -6.867,-1.275c-2.067,-0.851 -3.839,-2.047 -5.317,-3.589c-1.479,-1.541 -2.623,-3.381 -3.434,-5.519c-0.81,-2.138 -1.216,-4.487 -1.216,-7.046c0,-2.559 0.406,-4.908 1.216,-7.045c0.811,-2.138 1.955,-3.982 3.434,-5.532c1.478,-1.55 3.25,-2.754 5.317,-3.612c2.066,-0.859 4.355,-1.288 6.867,-1.288c2.511,0 4.804,0.429 6.878,1.288c2.075,0.858 3.851,2.062 5.329,3.612c1.479,1.55 2.623,3.394 3.434,5.532c0.81,2.137 1.216,4.486 1.216,7.045Zm-4.745,0c0,-2.098 -0.286,-3.982 -0.858,-5.651c-0.573,-1.669 -1.383,-3.079 -2.432,-4.232c-1.05,-1.152 -2.321,-2.038 -3.815,-2.658c-1.495,-0.62 -3.164,-0.93 -5.007,-0.93c-1.828,0 -3.489,0.31 -4.984,0.93c-1.494,0.62 -2.769,1.506 -3.826,2.658c-1.057,1.153 -1.872,2.563 -2.444,4.232c-0.573,1.669 -0.859,3.553 -0.859,5.651c0,2.098 0.286,3.978 0.859,5.639c0.572,1.661 1.387,3.068 2.444,4.22c1.057,1.153 2.332,2.035 3.826,2.647c1.495,0.612 3.156,0.918 4.984,0.918c1.843,0 3.512,-0.306 5.007,-0.918c1.494,-0.612 2.765,-1.494 3.815,-2.647c1.049,-1.152 1.859,-2.559 2.432,-4.22c0.572,-1.661 0.858,-3.541 0.858,-5.639Z" style="fill:#333;fill-rule:nonzero;"/><path d="M140.926,152.719c0,0.302 -0.056,0.592 -0.167,0.87c-0.112,0.278 -0.255,0.529 -0.43,0.751l-13.066,17.406l13.186,0l0,3.314l-18.193,0l0,-1.765c0,-0.206 0.052,-0.449 0.155,-0.727c0.104,-0.278 0.251,-0.544 0.441,-0.799l13.138,-17.524l-12.994,0l0,-3.338l17.93,0l0,1.812Z" style="fill:#333;fill-rule:nonzero;"/><path d="M155.661,150.525c1.446,0 2.781,0.243 4.005,0.728c1.224,0.484 2.281,1.184 3.171,2.098c0.89,0.914 1.586,2.042 2.087,3.385c0.5,1.344 0.751,2.874 0.751,4.59c0,0.668 -0.072,1.113 -0.215,1.335c-0.143,0.223 -0.413,0.334 -0.811,0.334l-16.07,0c0.032,1.526 0.239,2.853 0.62,3.982c0.382,1.129 0.906,2.07 1.574,2.825c0.667,0.755 1.462,1.32 2.384,1.693c0.922,0.374 1.955,0.561 3.1,0.561c1.065,0 1.983,-0.124 2.754,-0.37c0.77,-0.246 1.434,-0.513 1.99,-0.799c0.557,-0.286 1.022,-0.552 1.395,-0.798c0.374,-0.247 0.696,-0.37 0.966,-0.37c0.35,0 0.62,0.135 0.811,0.405l1.192,1.55c-0.525,0.636 -1.153,1.188 -1.884,1.657c-0.731,0.469 -1.514,0.855 -2.348,1.157c-0.835,0.302 -1.697,0.528 -2.587,0.679c-0.891,0.151 -1.773,0.227 -2.647,0.227c-1.669,0 -3.207,-0.283 -4.614,-0.847c-1.406,-0.564 -2.622,-1.391 -3.648,-2.479c-1.025,-1.089 -1.824,-2.436 -2.396,-4.042c-0.572,-1.605 -0.858,-3.449 -0.858,-5.531c0,-1.685 0.258,-3.259 0.775,-4.721c0.516,-1.463 1.259,-2.73 2.229,-3.803c0.97,-1.073 2.154,-1.916 3.553,-2.528c1.398,-0.612 2.972,-0.918 4.721,-0.918Zm0.095,3.124c-2.051,0 -3.664,0.592 -4.84,1.776c-1.176,1.184 -1.908,2.825 -2.194,4.924l13.138,0c0,-0.986 -0.135,-1.888 -0.406,-2.707c-0.27,-0.818 -0.667,-1.526 -1.192,-2.122c-0.524,-0.596 -1.164,-1.057 -1.919,-1.382c-0.755,-0.326 -1.617,-0.489 -2.587,-0.489Z" style="fill:#333;fill-rule:nonzero;"/><path d="M171.087,175.06l0,-24.153l2.527,0c0.604,0 0.986,0.294 1.145,0.882l0.334,2.623c1.049,-1.161 2.221,-2.098 3.517,-2.814c1.295,-0.715 2.793,-1.073 4.494,-1.073c1.319,0 2.484,0.219 3.493,0.656c1.009,0.437 1.852,1.057 2.527,1.86c0.676,0.802 1.189,1.768 1.538,2.897c0.35,1.128 0.525,2.376 0.525,3.743l0,15.379l-4.244,0l0,-15.379c0,-1.828 -0.418,-3.247 -1.252,-4.256c-0.835,-1.009 -2.11,-1.514 -3.827,-1.514c-1.256,0 -2.428,0.302 -3.517,0.906c-1.089,0.604 -2.094,1.423 -3.016,2.456l0,17.787l-4.244,0Z" style="fill:#333;fill-rule:nonzero;"/><path d="M202.322,150.907l0,24.153l-4.245,0l0,-24.153l4.245,0Zm0.953,-7.582c0,0.413 -0.083,0.798 -0.25,1.156c-0.167,0.358 -0.39,0.676 -0.668,0.954c-0.278,0.278 -0.6,0.497 -0.965,0.655c-0.366,0.159 -0.755,0.239 -1.169,0.239c-0.413,0 -0.798,-0.08 -1.156,-0.239c-0.358,-0.158 -0.676,-0.377 -0.954,-0.655c-0.278,-0.278 -0.497,-0.596 -0.655,-0.954c-0.159,-0.358 -0.239,-0.743 -0.239,-1.156c0,-0.414 0.08,-0.807 0.239,-1.181c0.158,-0.373 0.377,-0.699 0.655,-0.977c0.278,-0.278 0.596,-0.497 0.954,-0.656c0.358,-0.159 0.743,-0.238 1.156,-0.238c0.414,0 0.803,0.079 1.169,0.238c0.365,0.159 0.687,0.378 0.965,0.656c0.278,0.278 0.501,0.604 0.668,0.977c0.167,0.374 0.25,0.767 0.25,1.181Z" style="fill:#333;fill-rule:nonzero;"/><path d="M224.305,171.173l14.783,0l0,3.887l-19.409,0l0,-34.167l4.626,0l0,30.28Z" style="fill:#333;fill-rule:nonzero;"/><path d="M248.243,150.907l0,24.153l-4.244,0l0,-24.153l4.244,0Zm0.954,-7.582c0,0.413 -0.083,0.798 -0.25,1.156c-0.167,0.358 -0.39,0.676 -0.668,0.954c-0.278,0.278 -0.6,0.497 -0.966,0.655c-0.365,0.159 -0.755,0.239 -1.168,0.239c-0.413,0 -0.799,-0.08 -1.156,-0.239c-0.358,-0.158 -0.676,-0.377 -0.954,-0.655c-0.278,-0.278 -0.497,-0.596 -0.656,-0.954c-0.159,-0.358 -0.238,-0.743 -0.238,-1.156c0,-0.414 0.079,-0.807 0.238,-1.181c0.159,-0.373 0.378,-0.699 0.656,-0.977c0.278,-0.278 0.596,-0.497 0.954,-0.656c0.357,-0.159 0.743,-0.238 1.156,-0.238c0.413,0 0.803,0.079 1.168,0.238c0.366,0.159 0.688,0.378 0.966,0.656c0.278,0.278 0.501,0.604 0.668,0.977c0.167,0.374 0.25,0.767 0.25,1.181Z" style="fill:#333;fill-rule:nonzero;"/><path d="M255.73,175.06l0,-24.153l2.527,0c0.604,0 0.986,0.294 1.145,0.882l0.31,2.48c0.89,-1.097 1.887,-1.995 2.992,-2.695c1.105,-0.699 2.388,-1.049 3.851,-1.049c1.637,0 2.96,0.453 3.97,1.359c1.009,0.906 1.736,2.13 2.181,3.672c0.334,-0.874 0.775,-1.629 1.324,-2.265c0.548,-0.636 1.164,-1.16 1.847,-1.574c0.684,-0.413 1.411,-0.715 2.182,-0.906c0.771,-0.19 1.554,-0.286 2.349,-0.286c1.271,0 2.404,0.203 3.397,0.608c0.994,0.406 1.836,0.998 2.528,1.777c0.691,0.778 1.22,1.736 1.585,2.873c0.366,1.136 0.549,2.436 0.549,3.898l0,15.379l-4.244,0l0,-15.379c0,-1.892 -0.414,-3.326 -1.24,-4.304c-0.827,-0.977 -2.027,-1.466 -3.601,-1.466c-0.699,0 -1.363,0.123 -1.99,0.37c-0.628,0.246 -1.181,0.608 -1.658,1.084c-0.476,0.477 -0.854,1.077 -1.132,1.801c-0.278,0.723 -0.417,1.561 -0.417,2.515l0,15.379l-4.244,0l0,-15.379c0,-1.939 -0.39,-3.386 -1.169,-4.339c-0.779,-0.954 -1.915,-1.431 -3.409,-1.431c-1.049,0 -2.023,0.282 -2.921,0.846c-0.898,0.565 -1.721,1.332 -2.468,2.301l0,18.002l-4.244,0Z" style="fill:#333;fill-rule:nonzero;"/><path d="M312.62,175.06l-1.884,0c-0.413,0 -0.747,-0.064 -1.001,-0.191c-0.255,-0.127 -0.422,-0.397 -0.501,-0.811l-0.477,-2.241c-0.636,0.572 -1.256,1.085 -1.86,1.538c-0.604,0.453 -1.239,0.835 -1.907,1.145c-0.668,0.309 -1.379,0.544 -2.134,0.703c-0.755,0.159 -1.594,0.238 -2.515,0.238c-0.938,0 -1.817,-0.131 -2.635,-0.394c-0.819,-0.264 -1.53,-0.658 -2.134,-1.185c-0.604,-0.526 -1.085,-1.192 -1.443,-1.998c-0.357,-0.805 -0.536,-1.758 -0.536,-2.858c0,-0.957 0.262,-1.879 0.787,-2.764c0.524,-0.885 1.371,-1.671 2.539,-2.357c1.168,-0.685 2.698,-1.248 4.59,-1.686c1.891,-0.439 4.204,-0.658 6.938,-0.658l0,-1.896c0,-1.887 -0.401,-3.315 -1.204,-4.282c-0.803,-0.968 -1.991,-1.452 -3.564,-1.452c-1.034,0 -1.904,0.131 -2.611,0.393c-0.708,0.263 -1.32,0.557 -1.836,0.883c-0.517,0.325 -0.962,0.62 -1.335,0.882c-0.374,0.262 -0.744,0.393 -1.109,0.393c-0.286,0 -0.537,-0.075 -0.751,-0.226c-0.215,-0.151 -0.386,-0.338 -0.513,-0.561l-0.763,-1.359c1.335,-1.287 2.774,-2.249 4.316,-2.885c1.542,-0.635 3.25,-0.953 5.126,-0.953c1.351,0 2.551,0.222 3.6,0.667c1.049,0.445 1.932,1.065 2.647,1.86c0.715,0.795 1.256,1.756 1.621,2.885c0.366,1.129 0.549,2.368 0.549,3.72l0,15.45Zm-11.016,-2.599c0.747,0 1.431,-0.076 2.051,-0.227c0.62,-0.151 1.204,-0.365 1.752,-0.643c0.549,-0.279 1.073,-0.616 1.574,-1.014c0.501,-0.397 0.989,-0.85 1.466,-1.359l0,-4.983c-1.955,0 -3.616,0.124 -4.983,0.372c-1.367,0.248 -2.48,0.571 -3.338,0.971c-0.858,0.4 -1.482,0.871 -1.872,1.415c-0.389,0.544 -0.584,1.151 -0.584,1.823c0,0.639 0.103,1.191 0.31,1.654c0.207,0.464 0.485,0.844 0.835,1.14c0.349,0.295 0.763,0.511 1.239,0.647c0.477,0.136 0.994,0.204 1.55,0.204Z" style="fill:#333;fill-rule:nonzero;"/><g><path d="M95.576,198.211c1.446,0 2.782,0.243 4.006,0.728c1.224,0.485 2.281,1.184 3.171,2.098c0.89,0.914 1.585,2.042 2.086,3.386c0.501,1.343 0.751,2.873 0.751,4.589c0,0.668 -0.071,1.113 -0.215,1.336c-0.143,0.222 -0.413,0.333 -0.81,0.333l-16.07,0c0.031,1.526 0.238,2.854 0.619,3.982c0.382,1.129 0.907,2.071 1.574,2.826c0.668,0.755 1.463,1.319 2.384,1.692c0.922,0.374 1.956,0.561 3.1,0.561c1.065,0 1.983,-0.123 2.754,-0.37c0.771,-0.246 1.434,-0.512 1.991,-0.799c0.556,-0.286 1.021,-0.552 1.395,-0.798c0.373,-0.247 0.695,-0.37 0.965,-0.37c0.35,0 0.62,0.135 0.811,0.406l1.192,1.549c-0.524,0.636 -1.152,1.189 -1.883,1.657c-0.732,0.469 -1.515,0.855 -2.349,1.157c-0.835,0.302 -1.697,0.528 -2.587,0.679c-0.89,0.151 -1.772,0.227 -2.647,0.227c-1.669,0 -3.207,-0.282 -4.613,-0.847c-1.407,-0.564 -2.623,-1.39 -3.648,-2.479c-1.025,-1.089 -1.824,-2.436 -2.396,-4.042c-0.573,-1.605 -0.859,-3.449 -0.859,-5.531c0,-1.685 0.258,-3.259 0.775,-4.721c0.517,-1.463 1.26,-2.73 2.229,-3.803c0.97,-1.073 2.154,-1.916 3.553,-2.528c1.399,-0.612 2.972,-0.918 4.721,-0.918Zm0.095,3.124c-2.05,0 -3.664,0.592 -4.84,1.776c-1.176,1.184 -1.907,2.826 -2.193,4.924l13.137,0c0,-0.986 -0.135,-1.888 -0.405,-2.706c-0.27,-0.819 -0.668,-1.526 -1.192,-2.122c-0.525,-0.596 -1.165,-1.057 -1.92,-1.383c-0.755,-0.326 -1.617,-0.489 -2.587,-0.489Z" style="fill:#333;fill-rule:nonzero;"/><path d="M124.831,202.575c-0.19,0.349 -0.484,0.524 -0.882,0.524c-0.238,0 -0.508,-0.087 -0.81,-0.262c-0.302,-0.175 -0.672,-0.37 -1.109,-0.584c-0.437,-0.215 -0.958,-0.413 -1.562,-0.596c-0.604,-0.183 -1.319,-0.274 -2.146,-0.274c-0.715,0 -1.359,0.091 -1.931,0.274c-0.572,0.183 -1.061,0.433 -1.466,0.751c-0.406,0.318 -0.716,0.687 -0.93,1.109c-0.215,0.421 -0.322,0.878 -0.322,1.371c0,0.619 0.179,1.136 0.536,1.549c0.358,0.414 0.831,0.771 1.419,1.073c0.588,0.302 1.256,0.569 2.003,0.799c0.747,0.231 1.514,0.477 2.301,0.739c0.787,0.262 1.553,0.553 2.301,0.87c0.747,0.318 1.414,0.716 2.002,1.193c0.589,0.476 1.061,1.061 1.419,1.752c0.358,0.692 0.537,1.522 0.537,2.492c0,1.112 -0.199,2.142 -0.597,3.087c-0.397,0.946 -0.985,1.765 -1.764,2.456c-0.779,0.692 -1.733,1.236 -2.861,1.633c-1.129,0.398 -2.432,0.597 -3.91,0.597c-1.685,0 -3.211,-0.275 -4.578,-0.823c-1.367,-0.548 -2.528,-1.252 -3.481,-2.11l1.001,-1.622c0.127,-0.206 0.278,-0.365 0.453,-0.476c0.175,-0.112 0.405,-0.167 0.692,-0.167c0.286,0 0.588,0.111 0.906,0.334c0.317,0.222 0.703,0.468 1.156,0.739c0.453,0.27 1.001,0.516 1.645,0.739c0.644,0.222 1.451,0.334 2.42,0.334c0.827,0 1.55,-0.108 2.17,-0.322c0.62,-0.215 1.136,-0.505 1.55,-0.871c0.413,-0.365 0.719,-0.786 0.918,-1.263c0.198,-0.477 0.298,-0.986 0.298,-1.526c0,-0.668 -0.179,-1.22 -0.537,-1.657c-0.357,-0.437 -0.83,-0.811 -1.418,-1.121c-0.589,-0.31 -1.26,-0.58 -2.015,-0.811c-0.755,-0.23 -1.526,-0.472 -2.313,-0.727c-0.787,-0.254 -1.558,-0.544 -2.313,-0.87c-0.755,-0.326 -1.426,-0.735 -2.014,-1.228c-0.589,-0.493 -1.061,-1.101 -1.419,-1.824c-0.358,-0.723 -0.537,-1.601 -0.537,-2.635c0,-0.922 0.191,-1.808 0.573,-2.658c0.381,-0.851 0.937,-1.598 1.669,-2.241c0.731,-0.644 1.629,-1.157 2.694,-1.538c1.065,-0.382 2.281,-0.573 3.648,-0.573c1.589,0 3.016,0.251 4.28,0.752c1.263,0.5 2.356,1.188 3.278,2.062l-0.954,1.55Z" style="fill:#333;fill-rule:nonzero;"/><path d="M148.174,202.885c-0.127,0.175 -0.254,0.31 -0.382,0.405c-0.127,0.095 -0.31,0.143 -0.548,0.143c-0.238,0 -0.497,-0.099 -0.775,-0.298c-0.278,-0.199 -0.632,-0.417 -1.061,-0.656c-0.429,-0.238 -0.95,-0.457 -1.562,-0.655c-0.612,-0.199 -1.363,-0.298 -2.253,-0.298c-1.176,0 -2.217,0.21 -3.123,0.632c-0.906,0.421 -1.665,1.029 -2.277,1.824c-0.612,0.794 -1.073,1.756 -1.383,2.885c-0.31,1.128 -0.465,2.392 -0.465,3.791c0,1.462 0.167,2.761 0.501,3.898c0.333,1.136 0.802,2.09 1.406,2.861c0.604,0.771 1.339,1.359 2.206,1.764c0.866,0.406 1.84,0.608 2.921,0.608c1.033,0 1.883,-0.123 2.551,-0.369c0.667,-0.246 1.224,-0.521 1.669,-0.823c0.445,-0.302 0.81,-0.576 1.097,-0.822c0.286,-0.247 0.572,-0.37 0.858,-0.37c0.366,0 0.636,0.135 0.811,0.406l1.192,1.549c-1.049,1.288 -2.361,2.23 -3.934,2.826c-1.574,0.596 -3.235,0.894 -4.984,0.894c-1.51,0 -2.912,-0.278 -4.208,-0.835c-1.295,-0.556 -2.42,-1.363 -3.374,-2.42c-0.953,-1.057 -1.704,-2.356 -2.253,-3.898c-0.548,-1.542 -0.822,-3.298 -0.822,-5.269c0,-1.797 0.25,-3.458 0.751,-4.984c0.5,-1.526 1.232,-2.841 2.193,-3.946c0.962,-1.104 2.15,-1.967 3.565,-2.587c1.414,-0.62 3.036,-0.93 4.864,-0.93c1.685,0 3.179,0.275 4.482,0.823c1.304,0.548 2.456,1.323 3.457,2.325l-1.12,1.526Z" style="fill:#333;fill-rule:nonzero;"/><path d="M153.968,222.746l0,-24.153l2.432,0c0.461,0 0.779,0.087 0.953,0.262c0.175,0.175 0.295,0.477 0.358,0.906l0.286,3.768c0.827,-1.685 1.848,-3.001 3.064,-3.947c1.216,-0.945 2.643,-1.418 4.28,-1.418c0.667,0 1.272,0.075 1.812,0.226c0.54,0.151 1.041,0.362 1.502,0.632l-0.548,3.171c-0.112,0.398 -0.358,0.596 -0.739,0.596c-0.223,0 -0.565,-0.075 -1.026,-0.226c-0.461,-0.151 -1.104,-0.227 -1.931,-0.227c-1.478,0 -2.714,0.43 -3.708,1.288c-0.993,0.858 -1.824,2.106 -2.491,3.743l0,15.379l-4.244,0Z" style="fill:#333;fill-rule:nonzero;"/><path d="M177.906,198.593l0,24.153l-4.244,0l0,-24.153l4.244,0Zm0.954,-7.582c0,0.413 -0.084,0.799 -0.25,1.156c-0.167,0.358 -0.39,0.676 -0.668,0.954c-0.278,0.278 -0.6,0.497 -0.966,0.656c-0.365,0.159 -0.755,0.238 -1.168,0.238c-0.413,0 -0.799,-0.079 -1.156,-0.238c-0.358,-0.159 -0.676,-0.378 -0.954,-0.656c-0.278,-0.278 -0.497,-0.596 -0.656,-0.954c-0.159,-0.357 -0.238,-0.743 -0.238,-1.156c0,-0.413 0.079,-0.807 0.238,-1.18c0.159,-0.374 0.378,-0.7 0.656,-0.978c0.278,-0.278 0.596,-0.497 0.954,-0.656c0.357,-0.159 0.743,-0.238 1.156,-0.238c0.413,0 0.803,0.079 1.168,0.238c0.366,0.159 0.688,0.378 0.966,0.656c0.278,0.278 0.501,0.604 0.668,0.978c0.166,0.373 0.25,0.767 0.25,1.18Z" style="fill:#333;fill-rule:nonzero;"/><path d="M192.713,223.128c-1.908,0 -3.374,-0.533 -4.399,-1.598c-1.026,-1.065 -1.538,-2.599 -1.538,-4.602l0,-14.782l-2.909,0c-0.254,0 -0.469,-0.076 -0.644,-0.227c-0.175,-0.151 -0.262,-0.385 -0.262,-0.703l0,-1.693l3.958,-0.501l0.977,-7.463c0.032,-0.238 0.136,-0.433 0.31,-0.584c0.175,-0.151 0.398,-0.226 0.668,-0.226l2.146,0l0,8.321l6.914,0l0,3.076l-6.914,0l0,14.496c0,1.018 0.246,1.773 0.739,2.265c0.493,0.493 1.129,0.739 1.907,0.739c0.446,0 0.831,-0.059 1.157,-0.178c0.326,-0.12 0.608,-0.251 0.846,-0.394c0.239,-0.143 0.441,-0.274 0.608,-0.393c0.167,-0.119 0.314,-0.179 0.441,-0.179c0.223,0 0.422,0.135 0.596,0.405l1.24,2.027c-0.731,0.683 -1.613,1.22 -2.646,1.609c-1.033,0.39 -2.098,0.585 -3.195,0.585Z" style="fill:#333;fill-rule:nonzero;"/><path d="M212.956,198.211c1.764,0 3.357,0.295 4.78,0.883c1.423,0.588 2.631,1.422 3.624,2.503c0.994,1.081 1.757,2.388 2.289,3.922c0.533,1.534 0.799,3.247 0.799,5.139c0,1.907 -0.266,3.624 -0.799,5.15c-0.532,1.526 -1.295,2.829 -2.289,3.91c-0.993,1.081 -2.201,1.911 -3.624,2.492c-1.423,0.58 -3.016,0.87 -4.78,0.87c-1.765,0 -3.358,-0.29 -4.781,-0.87c-1.423,-0.581 -2.635,-1.411 -3.636,-2.492c-1.001,-1.081 -1.772,-2.384 -2.313,-3.91c-0.54,-1.526 -0.811,-3.243 -0.811,-5.15c0,-1.892 0.271,-3.605 0.811,-5.139c0.541,-1.534 1.312,-2.841 2.313,-3.922c1.001,-1.081 2.213,-1.915 3.636,-2.503c1.423,-0.588 3.016,-0.883 4.781,-0.883Zm0,21.555c2.384,0 4.164,-0.799 5.34,-2.397c1.177,-1.597 1.765,-3.826 1.765,-6.688c0,-2.877 -0.588,-5.118 -1.765,-6.723c-1.176,-1.606 -2.956,-2.408 -5.34,-2.408c-1.209,0 -2.258,0.206 -3.148,0.619c-0.89,0.414 -1.633,1.01 -2.229,1.789c-0.596,0.779 -1.041,1.736 -1.335,2.873c-0.294,1.136 -0.441,2.42 -0.441,3.85c0,1.431 0.147,2.711 0.441,3.839c0.294,1.129 0.739,2.078 1.335,2.849c0.596,0.771 1.339,1.363 2.229,1.777c0.89,0.413 1.939,0.62 3.148,0.62Z" style="fill:#333;fill-rule:nonzero;"/><path d="M229.693,222.746l0,-24.153l2.432,0c0.461,0 0.779,0.087 0.954,0.262c0.175,0.175 0.294,0.477 0.358,0.906l0.286,3.768c0.826,-1.685 1.848,-3.001 3.064,-3.947c1.216,-0.945 2.642,-1.418 4.28,-1.418c0.667,0 1.271,0.075 1.812,0.226c0.54,0.151 1.041,0.362 1.502,0.632l-0.549,3.171c-0.111,0.398 -0.357,0.596 -0.739,0.596c-0.222,0 -0.564,-0.075 -1.025,-0.226c-0.461,-0.151 -1.105,-0.227 -1.931,-0.227c-1.479,0 -2.714,0.43 -3.708,1.288c-0.993,0.858 -1.824,2.106 -2.492,3.743l0,15.379l-4.244,0Z" style="fill:#333;fill-rule:nonzero;"/><path d="M265.744,222.746l-1.883,0c-0.414,0 -0.748,-0.064 -1.002,-0.191c-0.254,-0.127 -0.421,-0.397 -0.501,-0.81l-0.476,-2.242c-0.636,0.573 -1.256,1.085 -1.86,1.538c-0.604,0.453 -1.24,0.835 -1.908,1.145c-0.667,0.31 -1.379,0.544 -2.134,0.703c-0.755,0.159 -1.593,0.239 -2.515,0.239c-0.938,0 -1.816,-0.132 -2.635,-0.395c-0.818,-0.263 -1.53,-0.658 -2.134,-1.185c-0.604,-0.526 -1.085,-1.192 -1.442,-1.997c-0.358,-0.806 -0.537,-1.759 -0.537,-2.859c0,-0.957 0.263,-1.878 0.787,-2.764c0.525,-0.885 1.371,-1.671 2.539,-2.356c1.169,-0.686 2.699,-1.248 4.59,-1.687c1.892,-0.439 4.205,-0.658 6.939,-0.658l0,-1.896c0,-1.887 -0.402,-3.314 -1.204,-4.282c-0.803,-0.968 -1.991,-1.452 -3.565,-1.452c-1.033,0 -1.903,0.131 -2.611,0.394c-0.707,0.262 -1.319,0.556 -1.836,0.882c-0.516,0.326 -0.961,0.62 -1.335,0.882c-0.373,0.262 -0.743,0.393 -1.109,0.393c-0.286,0 -0.536,-0.075 -0.751,-0.226c-0.214,-0.151 -0.385,-0.338 -0.512,-0.56l-0.763,-1.359c1.335,-1.288 2.773,-2.25 4.315,-2.885c1.542,-0.636 3.251,-0.954 5.127,-0.954c1.351,0 2.551,0.222 3.6,0.667c1.049,0.445 1.931,1.065 2.646,1.86c0.716,0.795 1.256,1.757 1.622,2.885c0.365,1.129 0.548,2.369 0.548,3.72l0,15.45Zm-11.015,-2.599c0.747,0 1.43,-0.075 2.05,-0.226c0.62,-0.151 1.204,-0.366 1.753,-0.644c0.548,-0.278 1.073,-0.616 1.573,-1.013c0.501,-0.398 0.99,-0.851 1.467,-1.36l0,-4.983c-1.956,0 -3.617,0.124 -4.984,0.372c-1.367,0.248 -2.479,0.572 -3.338,0.971c-0.858,0.4 -1.482,0.872 -1.871,1.415c-0.39,0.544 -0.584,1.151 -0.584,1.823c0,0.639 0.103,1.191 0.31,1.655c0.206,0.463 0.484,0.843 0.834,1.139c0.35,0.296 0.763,0.512 1.24,0.647c0.477,0.136 0.993,0.204 1.55,0.204Z" style="fill:#333;fill-rule:nonzero;"/><path d="M290.946,198.211c1.447,0 2.782,0.243 4.006,0.728c1.224,0.485 2.281,1.184 3.171,2.098c0.89,0.914 1.586,2.042 2.086,3.386c0.501,1.343 0.751,2.873 0.751,4.589c0,0.668 -0.071,1.113 -0.214,1.336c-0.143,0.222 -0.413,0.333 -0.811,0.333l-16.07,0c0.032,1.526 0.238,2.854 0.62,3.982c0.381,1.129 0.906,2.071 1.573,2.826c0.668,0.755 1.463,1.319 2.385,1.692c0.922,0.374 1.955,0.561 3.099,0.561c1.065,0 1.983,-0.123 2.754,-0.37c0.771,-0.246 1.435,-0.512 1.991,-0.799c0.557,-0.286 1.021,-0.552 1.395,-0.798c0.374,-0.247 0.695,-0.37 0.966,-0.37c0.349,0 0.62,0.135 0.81,0.406l1.192,1.549c-0.524,0.636 -1.152,1.189 -1.883,1.657c-0.731,0.469 -1.514,0.855 -2.349,1.157c-0.834,0.302 -1.697,0.528 -2.587,0.679c-0.89,0.151 -1.772,0.227 -2.646,0.227c-1.669,0 -3.207,-0.282 -4.614,-0.847c-1.407,-0.564 -2.623,-1.39 -3.648,-2.479c-1.025,-1.089 -1.824,-2.436 -2.396,-4.042c-0.572,-1.605 -0.858,-3.449 -0.858,-5.531c0,-1.685 0.258,-3.259 0.774,-4.721c0.517,-1.463 1.26,-2.73 2.23,-3.803c0.969,-1.073 2.154,-1.916 3.552,-2.528c1.399,-0.612 2.973,-0.918 4.721,-0.918Zm0.096,3.124c-2.051,0 -3.664,0.592 -4.84,1.776c-1.177,1.184 -1.908,2.826 -2.194,4.924l13.138,0c0,-0.986 -0.136,-1.888 -0.406,-2.706c-0.27,-0.819 -0.667,-1.526 -1.192,-2.122c-0.525,-0.596 -1.164,-1.057 -1.919,-1.383c-0.755,-0.326 -1.618,-0.489 -2.587,-0.489Z" style="fill:#333;fill-rule:nonzero;"/></g><path d="M86.015,278.61l0,-32.331l2.527,0c0.604,0 0.986,0.294 1.145,0.882l0.357,2.862c1.034,-1.256 2.214,-2.266 3.541,-3.029c1.327,-0.763 2.857,-1.144 4.59,-1.144c1.383,0 2.638,0.266 3.767,0.799c1.129,0.532 2.09,1.319 2.885,2.36c0.795,1.041 1.407,2.333 1.836,3.875c0.429,1.542 0.644,3.314 0.644,5.317c0,1.78 -0.239,3.437 -0.716,4.971c-0.476,1.534 -1.16,2.861 -2.05,3.982c-0.89,1.12 -1.983,2.003 -3.278,2.646c-1.296,0.644 -2.754,0.966 -4.376,0.966c-1.494,0 -2.769,-0.246 -3.826,-0.739c-1.058,-0.493 -1.991,-1.192 -2.802,-2.098l0,10.681l-4.244,0Zm10.753,-29.327c-1.383,0 -2.595,0.318 -3.636,0.954c-1.041,0.636 -1.999,1.534 -2.873,2.694l0,11.684c0.779,1.049 1.633,1.788 2.563,2.217c0.93,0.429 1.967,0.644 3.112,0.644c2.241,0 3.966,-0.803 5.174,-2.408c1.208,-1.606 1.812,-3.895 1.812,-6.867c0,-1.574 -0.139,-2.925 -0.418,-4.054c-0.278,-1.128 -0.679,-2.054 -1.204,-2.777c-0.524,-0.724 -1.168,-1.252 -1.931,-1.586c-0.763,-0.334 -1.629,-0.501 -2.599,-0.501Z" style="fill:#5fa197;fill-rule:nonzero;"/><path d="M121.899,245.898c1.446,0 2.781,0.242 4.005,0.727c1.224,0.485 2.281,1.184 3.172,2.098c0.89,0.914 1.585,2.043 2.086,3.386c0.5,1.343 0.751,2.873 0.751,4.59c0,0.667 -0.072,1.112 -0.215,1.335c-0.143,0.222 -0.413,0.334 -0.81,0.334l-16.071,0c0.032,1.526 0.239,2.853 0.62,3.981c0.382,1.129 0.906,2.071 1.574,2.826c0.668,0.755 1.462,1.319 2.384,1.693c0.922,0.373 1.955,0.56 3.1,0.56c1.065,0 1.983,-0.123 2.754,-0.37c0.771,-0.246 1.434,-0.512 1.991,-0.798c0.556,-0.286 1.021,-0.553 1.394,-0.799c0.374,-0.246 0.696,-0.37 0.966,-0.37c0.35,0 0.62,0.135 0.811,0.406l1.192,1.55c-0.525,0.635 -1.153,1.188 -1.884,1.657c-0.731,0.469 -1.514,0.854 -2.348,1.156c-0.835,0.302 -1.697,0.529 -2.587,0.68c-0.89,0.151 -1.773,0.226 -2.647,0.226c-1.669,0 -3.207,-0.282 -4.613,-0.846c-1.407,-0.565 -2.623,-1.391 -3.648,-2.48c-1.026,-1.089 -1.824,-2.436 -2.397,-4.041c-0.572,-1.606 -0.858,-3.45 -0.858,-5.532c0,-1.685 0.258,-3.259 0.775,-4.721c0.516,-1.462 1.26,-2.73 2.229,-3.803c0.97,-1.073 2.154,-1.915 3.553,-2.527c1.399,-0.612 2.972,-0.918 4.721,-0.918Zm0.095,3.123c-2.05,0 -3.664,0.592 -4.84,1.776c-1.176,1.185 -1.907,2.826 -2.194,4.924l13.138,0c0,-0.985 -0.135,-1.888 -0.405,-2.706c-0.271,-0.819 -0.668,-1.526 -1.193,-2.122c-0.524,-0.596 -1.164,-1.057 -1.919,-1.383c-0.755,-0.326 -1.617,-0.489 -2.587,-0.489Z" style="fill:#5fa197;fill-rule:nonzero;"/><path d="M137.325,270.432l0,-24.153l2.432,0c0.461,0 0.779,0.088 0.954,0.262c0.175,0.175 0.294,0.477 0.358,0.906l0.286,3.768c0.826,-1.685 1.848,-3.001 3.064,-3.946c1.216,-0.946 2.642,-1.419 4.279,-1.419c0.668,0 1.272,0.076 1.812,0.227c0.541,0.151 1.042,0.361 1.503,0.631l-0.549,3.171c-0.111,0.398 -0.357,0.597 -0.739,0.597c-0.222,0 -0.564,-0.076 -1.025,-0.227c-0.461,-0.151 -1.105,-0.226 -1.931,-0.226c-1.479,0 -2.715,0.429 -3.708,1.287c-0.994,0.858 -1.824,2.106 -2.492,3.743l0,15.379l-4.244,0Z" style="fill:#5fa197;fill-rule:nonzero;"/><path d="M170.372,250.261c-0.191,0.35 -0.485,0.525 -0.882,0.525c-0.239,0 -0.509,-0.088 -0.811,-0.263c-0.302,-0.175 -0.672,-0.369 -1.109,-0.584c-0.437,-0.214 -0.957,-0.413 -1.562,-0.596c-0.604,-0.183 -1.319,-0.274 -2.145,-0.274c-0.716,0 -1.359,0.091 -1.932,0.274c-0.572,0.183 -1.061,0.433 -1.466,0.751c-0.405,0.318 -0.715,0.688 -0.93,1.109c-0.215,0.421 -0.322,0.878 -0.322,1.371c0,0.62 0.179,1.136 0.537,1.55c0.357,0.413 0.83,0.77 1.418,1.072c0.588,0.303 1.256,0.569 2.003,0.799c0.747,0.231 1.514,0.477 2.301,0.739c0.787,0.263 1.554,0.553 2.301,0.871c0.747,0.318 1.415,0.715 2.003,1.192c0.588,0.477 1.061,1.061 1.418,1.752c0.358,0.692 0.537,1.522 0.537,2.492c0,1.113 -0.199,2.142 -0.596,3.088c-0.398,0.945 -0.986,1.764 -1.765,2.455c-0.779,0.692 -1.732,1.236 -2.861,1.634c-1.128,0.397 -2.432,0.596 -3.91,0.596c-1.685,0 -3.211,-0.274 -4.578,-0.823c-1.367,-0.548 -2.527,-1.252 -3.481,-2.11l1.001,-1.621c0.128,-0.207 0.279,-0.366 0.453,-0.477c0.175,-0.111 0.406,-0.167 0.692,-0.167c0.286,0 0.588,0.111 0.906,0.334c0.318,0.222 0.703,0.469 1.156,0.739c0.453,0.27 1.002,0.516 1.645,0.739c0.644,0.223 1.451,0.334 2.421,0.334c0.826,0 1.549,-0.107 2.169,-0.322c0.62,-0.215 1.137,-0.505 1.55,-0.87c0.413,-0.366 0.719,-0.787 0.918,-1.264c0.199,-0.477 0.298,-0.986 0.298,-1.526c0,-0.668 -0.179,-1.22 -0.536,-1.657c-0.358,-0.437 -0.831,-0.811 -1.419,-1.121c-0.588,-0.31 -1.26,-0.58 -2.015,-0.81c-0.755,-0.231 -1.526,-0.473 -2.313,-0.728c-0.786,-0.254 -1.557,-0.544 -2.312,-0.87c-0.755,-0.326 -1.427,-0.735 -2.015,-1.228c-0.588,-0.493 -1.061,-1.101 -1.419,-1.824c-0.357,-0.723 -0.536,-1.601 -0.536,-2.634c0,-0.922 0.19,-1.809 0.572,-2.659c0.381,-0.85 0.938,-1.597 1.669,-2.241c0.731,-0.644 1.629,-1.157 2.694,-1.538c1.065,-0.382 2.281,-0.572 3.648,-0.572c1.59,0 3.016,0.25 4.28,0.751c1.264,0.5 2.357,1.188 3.278,2.062l-0.953,1.55Z" style="fill:#5fa197;fill-rule:nonzero;"/><path d="M187.014,245.898c1.765,0 3.358,0.294 4.781,0.882c1.422,0.588 2.63,1.423 3.624,2.503c0.993,1.081 1.756,2.389 2.289,3.923c0.532,1.534 0.799,3.246 0.799,5.138c0,1.907 -0.267,3.624 -0.799,5.15c-0.533,1.526 -1.296,2.829 -2.289,3.91c-0.994,1.081 -2.202,1.912 -3.624,2.492c-1.423,0.58 -3.016,0.87 -4.781,0.87c-1.764,0 -3.358,-0.29 -4.78,-0.87c-1.423,-0.58 -2.635,-1.411 -3.636,-2.492c-1.002,-1.081 -1.773,-2.384 -2.313,-3.91c-0.541,-1.526 -0.811,-3.243 -0.811,-5.15c0,-1.892 0.27,-3.604 0.811,-5.138c0.54,-1.534 1.311,-2.842 2.313,-3.923c1.001,-1.08 2.213,-1.915 3.636,-2.503c1.422,-0.588 3.016,-0.882 4.78,-0.882Zm0,21.554c2.385,0 4.165,-0.799 5.341,-2.396c1.176,-1.598 1.764,-3.827 1.764,-6.688c0,-2.877 -0.588,-5.119 -1.764,-6.724c-1.176,-1.606 -2.956,-2.408 -5.341,-2.408c-1.208,0 -2.257,0.206 -3.147,0.62c-0.89,0.413 -1.633,1.009 -2.229,1.788c-0.596,0.779 -1.042,1.736 -1.336,2.873c-0.294,1.136 -0.441,2.42 -0.441,3.851c0,1.43 0.147,2.71 0.441,3.838c0.294,1.129 0.74,2.079 1.336,2.85c0.596,0.771 1.339,1.363 2.229,1.776c0.89,0.413 1.939,0.62 3.147,0.62Z" style="fill:#5fa197;fill-rule:nonzero;"/><path d="M203.752,270.432l0,-24.153l2.527,0c0.605,0 0.986,0.294 1.145,0.882l0.334,2.623c1.049,-1.16 2.221,-2.098 3.517,-2.813c1.295,-0.716 2.793,-1.073 4.494,-1.073c1.319,0 2.484,0.218 3.493,0.655c1.009,0.437 1.852,1.057 2.527,1.86c0.676,0.803 1.189,1.768 1.538,2.897c0.35,1.129 0.525,2.376 0.525,3.743l0,15.379l-4.244,0l0,-15.379c0,-1.828 -0.417,-3.246 -1.252,-4.256c-0.835,-1.009 -2.11,-1.514 -3.827,-1.514c-1.256,0 -2.428,0.302 -3.517,0.906c-1.089,0.604 -2.094,1.423 -3.016,2.456l0,17.787l-4.244,0Z" style="fill:#5fa197;fill-rule:nonzero;"/><path d="M248.005,270.432l-1.884,0c-0.413,0 -0.747,-0.063 -1.001,-0.191c-0.254,-0.127 -0.421,-0.397 -0.501,-0.81l-0.477,-2.241c-0.635,0.572 -1.255,1.084 -1.859,1.537c-0.604,0.453 -1.24,0.835 -1.908,1.145c-0.667,0.31 -1.379,0.544 -2.134,0.703c-0.755,0.159 -1.593,0.239 -2.515,0.239c-0.938,0 -1.816,-0.132 -2.635,-0.395c-0.819,-0.263 -1.53,-0.658 -2.134,-1.184c-0.604,-0.527 -1.085,-1.193 -1.442,-1.998c-0.358,-0.806 -0.537,-1.759 -0.537,-2.859c0,-0.957 0.262,-1.878 0.787,-2.763c0.524,-0.886 1.371,-1.671 2.539,-2.357c1.169,-0.686 2.698,-1.248 4.59,-1.687c1.892,-0.438 4.204,-0.658 6.938,-0.658l0,-1.895c0,-1.888 -0.401,-3.315 -1.204,-4.283c-0.802,-0.968 -1.991,-1.452 -3.564,-1.452c-1.033,0 -1.904,0.132 -2.611,0.394c-0.707,0.262 -1.319,0.556 -1.836,0.882c-0.517,0.326 -0.962,0.62 -1.335,0.882c-0.374,0.262 -0.743,0.394 -1.109,0.394c-0.286,0 -0.536,-0.076 -0.751,-0.227c-0.215,-0.151 -0.385,-0.338 -0.513,-0.56l-0.763,-1.359c1.336,-1.288 2.774,-2.249 4.316,-2.885c1.542,-0.636 3.251,-0.954 5.126,-0.954c1.351,0 2.551,0.223 3.601,0.668c1.049,0.445 1.931,1.065 2.646,1.859c0.715,0.795 1.256,1.757 1.622,2.885c0.365,1.129 0.548,2.369 0.548,3.72l0,15.45Zm-11.016,-2.599c0.747,0 1.431,-0.075 2.051,-0.226c0.62,-0.151 1.204,-0.366 1.752,-0.644c0.549,-0.278 1.073,-0.616 1.574,-1.013c0.501,-0.398 0.989,-0.851 1.466,-1.359l0,-4.984c-1.955,0 -3.616,0.124 -4.983,0.372c-1.367,0.248 -2.48,0.572 -3.338,0.972c-0.858,0.399 -1.482,0.871 -1.872,1.414c-0.389,0.544 -0.584,1.152 -0.584,1.823c0,0.639 0.104,1.191 0.31,1.655c0.207,0.464 0.485,0.843 0.835,1.139c0.349,0.296 0.763,0.512 1.24,0.648c0.476,0.135 0.993,0.203 1.549,0.203Z" style="fill:#5fa197;fill-rule:nonzero;"/><rect x="254.919" y="235.311" width="4.244" height="35.121" style="fill:#5fa197;fill-rule:nonzero;"/><path d="M99.844,297.947c-0.191,0.35 -0.485,0.525 -0.882,0.525c-0.239,0 -0.509,-0.088 -0.811,-0.263c-0.302,-0.174 -0.672,-0.369 -1.109,-0.584c-0.437,-0.214 -0.957,-0.413 -1.561,-0.596c-0.604,-0.183 -1.32,-0.274 -2.146,-0.274c-0.716,0 -1.359,0.091 -1.932,0.274c-0.572,0.183 -1.061,0.433 -1.466,0.751c-0.405,0.318 -0.715,0.688 -0.93,1.109c-0.214,0.421 -0.322,0.878 -0.322,1.371c0,0.62 0.179,1.136 0.537,1.55c0.357,0.413 0.83,0.771 1.418,1.073c0.589,0.302 1.256,0.568 2.003,0.798c0.747,0.231 1.514,0.477 2.301,0.74c0.787,0.262 1.554,0.552 2.301,0.87c0.747,0.318 1.415,0.715 2.003,1.192c0.588,0.477 1.061,1.061 1.418,1.752c0.358,0.692 0.537,1.522 0.537,2.492c0,1.113 -0.199,2.142 -0.596,3.088c-0.398,0.946 -0.986,1.764 -1.765,2.456c-0.778,0.691 -1.732,1.235 -2.861,1.633c-1.128,0.397 -2.432,0.596 -3.91,0.596c-1.685,0 -3.211,-0.274 -4.578,-0.823c-1.367,-0.548 -2.527,-1.251 -3.481,-2.11l1.001,-1.621c0.128,-0.207 0.279,-0.366 0.453,-0.477c0.175,-0.111 0.406,-0.167 0.692,-0.167c0.286,0 0.588,0.111 0.906,0.334c0.318,0.222 0.703,0.469 1.156,0.739c0.453,0.27 1.002,0.517 1.646,0.739c0.643,0.223 1.45,0.334 2.42,0.334c0.826,0 1.549,-0.107 2.169,-0.322c0.62,-0.214 1.137,-0.505 1.55,-0.87c0.413,-0.366 0.719,-0.787 0.918,-1.264c0.199,-0.477 0.298,-0.985 0.298,-1.526c0,-0.667 -0.179,-1.22 -0.536,-1.657c-0.358,-0.437 -0.831,-0.811 -1.419,-1.121c-0.588,-0.309 -1.26,-0.58 -2.015,-0.81c-0.755,-0.231 -1.526,-0.473 -2.313,-0.727c-0.786,-0.255 -1.557,-0.545 -2.312,-0.871c-0.755,-0.326 -1.427,-0.735 -2.015,-1.228c-0.588,-0.492 -1.061,-1.1 -1.419,-1.824c-0.357,-0.723 -0.536,-1.601 -0.536,-2.634c0,-0.922 0.191,-1.808 0.572,-2.659c0.382,-0.85 0.938,-1.597 1.669,-2.241c0.731,-0.644 1.629,-1.156 2.694,-1.538c1.065,-0.381 2.281,-0.572 3.648,-0.572c1.59,0 3.016,0.25 4.28,0.751c1.264,0.501 2.357,1.188 3.279,2.062l-0.954,1.55Z" style="fill:#5fa197;fill-rule:nonzero;"/><path d="M106.711,326.297l0,-32.332l2.527,0c0.604,0 0.986,0.294 1.145,0.883l0.357,2.861c1.033,-1.256 2.214,-2.265 3.541,-3.028c1.327,-0.763 2.857,-1.145 4.59,-1.145c1.383,0 2.638,0.266 3.767,0.799c1.128,0.532 2.09,1.319 2.885,2.36c0.795,1.042 1.407,2.333 1.836,3.875c0.429,1.542 0.644,3.314 0.644,5.317c0,1.78 -0.239,3.437 -0.716,4.971c-0.477,1.534 -1.16,2.861 -2.05,3.982c-0.89,1.121 -1.983,2.003 -3.279,2.647c-1.295,0.643 -2.754,0.965 -4.375,0.965c-1.494,0 -2.77,-0.246 -3.827,-0.739c-1.057,-0.493 -1.991,-1.192 -2.801,-2.098l0,10.682l-4.244,0Zm10.753,-29.327c-1.383,0 -2.595,0.318 -3.636,0.953c-1.041,0.636 -1.999,1.534 -2.873,2.695l0,11.683c0.779,1.049 1.633,1.788 2.563,2.217c0.93,0.429 1.967,0.644 3.111,0.644c2.242,0 3.966,-0.803 5.174,-2.408c1.208,-1.606 1.812,-3.895 1.812,-6.867c0,-1.574 -0.139,-2.925 -0.417,-4.053c-0.278,-1.129 -0.679,-2.055 -1.204,-2.778c-0.524,-0.723 -1.168,-1.252 -1.931,-1.586c-0.763,-0.333 -1.629,-0.5 -2.599,-0.5Z" style="fill:#5fa197;fill-rule:nonzero;"/><path d="M137.754,293.965l0,24.153l-4.244,0l0,-24.153l4.244,0Zm0.954,-7.582c0,0.414 -0.083,0.799 -0.25,1.157c-0.167,0.357 -0.39,0.675 -0.668,0.953c-0.278,0.279 -0.6,0.497 -0.965,0.656c-0.366,0.159 -0.756,0.239 -1.169,0.239c-0.413,0 -0.799,-0.08 -1.156,-0.239c-0.358,-0.159 -0.676,-0.377 -0.954,-0.656c-0.278,-0.278 -0.497,-0.596 -0.656,-0.953c-0.159,-0.358 -0.238,-0.743 -0.238,-1.157c0,-0.413 0.079,-0.806 0.238,-1.18c0.159,-0.374 0.378,-0.699 0.656,-0.978c0.278,-0.278 0.596,-0.496 0.954,-0.655c0.357,-0.159 0.743,-0.239 1.156,-0.239c0.413,0 0.803,0.08 1.169,0.239c0.365,0.159 0.687,0.377 0.965,0.655c0.278,0.279 0.501,0.604 0.668,0.978c0.167,0.374 0.25,0.767 0.25,1.18Z" style="fill:#5fa197;fill-rule:nonzero;"/><path d="M145.241,318.118l0,-24.153l2.432,0c0.461,0 0.779,0.088 0.954,0.263c0.175,0.175 0.294,0.477 0.358,0.906l0.286,3.767c0.826,-1.685 1.847,-3 3.063,-3.946c1.216,-0.946 2.643,-1.419 4.28,-1.419c0.668,0 1.272,0.076 1.812,0.227c0.541,0.151 1.042,0.361 1.502,0.632l-0.548,3.171c-0.111,0.397 -0.358,0.596 -0.739,0.596c-0.223,0 -0.564,-0.076 -1.025,-0.227c-0.461,-0.151 -1.105,-0.226 -1.932,-0.226c-1.478,0 -2.714,0.429 -3.707,1.287c-0.994,0.859 -1.824,2.106 -2.492,3.744l0,15.378l-4.244,0Z" style="fill:#5fa197;fill-rule:nonzero;"/><path d="M169.18,293.965l0,24.153l-4.244,0l0,-24.153l4.244,0Zm0.953,-7.582c0,0.414 -0.083,0.799 -0.25,1.157c-0.167,0.357 -0.389,0.675 -0.668,0.953c-0.278,0.279 -0.6,0.497 -0.965,0.656c-0.366,0.159 -0.755,0.239 -1.169,0.239c-0.413,0 -0.798,-0.08 -1.156,-0.239c-0.358,-0.159 -0.676,-0.377 -0.954,-0.656c-0.278,-0.278 -0.496,-0.596 -0.655,-0.953c-0.159,-0.358 -0.239,-0.743 -0.239,-1.157c0,-0.413 0.08,-0.806 0.239,-1.18c0.159,-0.374 0.377,-0.699 0.655,-0.978c0.278,-0.278 0.596,-0.496 0.954,-0.655c0.358,-0.159 0.743,-0.239 1.156,-0.239c0.414,0 0.803,0.08 1.169,0.239c0.365,0.159 0.687,0.377 0.965,0.655c0.279,0.279 0.501,0.604 0.668,0.978c0.167,0.374 0.25,0.767 0.25,1.18Z" style="fill:#5fa197;fill-rule:nonzero;"/><path d="M183.986,318.5c-1.907,0 -3.374,-0.533 -4.399,-1.598c-1.025,-1.065 -1.538,-2.598 -1.538,-4.601l0,-14.783l-2.909,0c-0.254,0 -0.469,-0.076 -0.643,-0.227c-0.175,-0.151 -0.263,-0.385 -0.263,-0.703l0,-1.693l3.958,-0.5l0.978,-7.463c0.032,-0.239 0.135,-0.433 0.31,-0.584c0.175,-0.151 0.397,-0.227 0.667,-0.227l2.146,0l0,8.321l6.915,0l0,3.076l-6.915,0l0,14.497c0,1.017 0.247,1.772 0.739,2.265c0.493,0.492 1.129,0.739 1.908,0.739c0.445,0 0.83,-0.06 1.156,-0.179c0.326,-0.119 0.608,-0.25 0.847,-0.393c0.238,-0.143 0.441,-0.275 0.608,-0.394c0.167,-0.119 0.314,-0.179 0.441,-0.179c0.222,0 0.421,0.135 0.596,0.406l1.24,2.026c-0.731,0.684 -1.614,1.22 -2.647,1.61c-1.033,0.389 -2.098,0.584 -3.195,0.584Z" style="fill:#5fa197;fill-rule:nonzero;"/></g></svg>