<svg xmlns="http://www.w3.org/2000/svg" fill-rule="evenodd" viewBox="0 0 647 334" clip-rule="evenodd"><path fill="#fff" d="M0 10.37h647v323.5H0z"/><path fill="#0e294b" d="M448 159.78c0 .35-.02.75-.03 1.16 0 .78-.03 1.66-.1 2.54l-.23 2.9c-1.52-4.5-4.16-7.4-6.7-9.25.02-.34.02-.68.02-1 0-3.04-.1-6.04-.34-9 1.18.8 2.26 1.72 3.23 2.8 1.5 1.7 2.7 3.84 3.62 6.33l.1.28h.05c.17.56.3 1.1.42 1.57l-.04 1.68zm-1 12.65c-.05.34-.1.72-.15 1.13-.1.75-.2 1.6-.35 2.45l-.55 3.07c-.48-2.12-1.18-3.95-2.12-5.55-.98-1.65-2.2-3.12-3.6-4.38.38-3.37.62-6.78.7-10.23 2.72 2.3 5.48 6 6.26 11.97l-.2 1.56zm-2.26 12.35c-.07.3-.15.64-.23 1-.17.8-.37 1.7-.65 2.6l-.8 2.82c-.57-4.73-2.57-8.1-4.7-10.44.7-3.24 1.28-6.54 1.7-9.88.98 1.02 1.86 2.16 2.6 3.4 1.1 1.94 1.87 4.27 2.27 6.93l.05.3.05.02c.05.57.08 1.12.1 1.62l-.38 1.64zm-3.03 10.7l-.56 1.67c-.3.92-.7 2.08-1.17 3.23l-1.14 2.9c-.03-2.04-.35-4-.95-5.88-.63-1.82-1.52-3.5-2.63-5.02 1.05-3.23 1.97-6.53 2.73-9.88 2.2 2.77 4.17 6.97 3.73 12.97m-4.3 10c-.06.6-.14 1.14-.2 1.6l-1.42 3.1-2.25 4.4c.08-1 .07-1.92.04-2.72-.1-1.74-.32-3.13-.7-4.35-.45-1.45-1.07-2.8-1.82-4.1 1.34-3.05 2.57-6.17 3.65-9.36.78 1.2 1.4 2.5 1.87 3.86.72 2.34 1 4.78.8 7.24v.3l.04.03zm-5.38 10c-.15 1-.38 2-.67 3-.25.46-1.4 2.5-2.7 4.44l-1.7 2.66c.95-4.88-.06-8.8-1.28-11.45 1.67-2.94 3.23-5.97 4.66-9.08.46.9.86 1.85 1.17 2.84.43 1.42.66 3 .7 4.8 0 .7-.03 1.75-.18 2.82m-6.87 11.56l-.1.3.06.03c-.17.57-.35 1.1-.52 1.55l-.98 1.37c-.38.52-.87 1.15-1.4 1.8-.28.37-.57.74-.86 1.12-.62.82-1.27 1.6-1.83 2.3.03-.07.05-.15.07-.22.2-.73.38-1.53.52-2.44.2-1.48.27-2.96.17-4.4-.13-1.48-.46-2.95-.96-4.38 1.96-2.73 3.78-5.55 5.48-8.45 1.06 2.72 1.74 6.6.37 11.4m-101.65 43.5c-63.2 0-114.4-51.23-114.4-114.42 0-63.17 51.2-114.4 114.4-114.4s114.4 51.23 114.4 114.4c0 63.2-51.2 114.42-114.4 114.42m93.12-31.65s-.42.5-1.07 1.2l-2.5 2.63c-.6.64-1.42 1.5-2.18 2.22.77-1.84 1.25-3.77 1.42-5.78.17-1.84.02-3.73-.43-5.65 2.26-2.58 4.4-5.25 6.42-8 .94 3.4 1.1 8.04-1.68 13.37m-6.36 3.58c-.3 1.06-.75 2.17-1.47 3.6l-.16.27.04.04c-.28.53-.57 1.02-.83 1.43 0 0-.47.47-1.22 1.1l-2.8 2.44c-.78.7-1.58 1.32-2.3 1.87.5-.85.86-1.66 1.14-2.46.5-1.42.86-2.86 1.04-4.3.2-1.43.17-2.93-.03-4.48 2.45-2.3 4.8-4.68 7.05-7.17.07.4.13.84.18 1.25.08 1 .07 2-.02 3.02-.1 1.12-.3 2.26-.62 3.38m-12.22 13.5L393.8 259c-.7.5-1.43.96-2.07 1.37-.18.1-.35.22-.52.33.43-.6.8-1.22 1.14-1.83.55-1 1-2.13 1.43-3.54.56-1.95.8-3.8.73-5.6 2.72-2.07 5.35-4.25 7.87-6.54.08 1.03.07 2.05-.06 3.06-.2 1.64-.6 3.23-1.2 4.72-.76 1.7-1.8 3.4-3.06 5.02m-9.1 5.43l-.18.23.03.05c-.37.44-.74.88-1.1 1.22l-4.65 2.68-2.64 1.36c.6-.7 1.14-1.43 1.6-2.17.75-1.16 1.36-2.48 1.9-4.02.47-1.43.75-2.9.86-4.4 2.86-1.75 5.64-3.62 8.33-5.6-.12 3.18-1.15 6.9-4.15 10.64m-12.53 7.52c-.36.17-2.55 1.17-4.74 2.13l-2.9 1.14c3.38-3.34 4.88-6.92 5.44-10.1 3.08-1.5 6.1-3.1 9.02-4.83-.14 1-.35 2-.67 3-1.02 3.2-3.1 6.12-6.15 8.65m-10 3.53l-.23.2v.05c-.4.3-.8.6-1.27.9l-.1.06-1.53.52c-.33.1-.7.24-1.1.37-.74.26-1.58.54-2.42.78l-2.82.8c3.72-3 5.53-6.47 6.4-9.48 3.15-1.14 6.24-2.4 9.27-3.8-.34 1.37-.86 2.7-1.53 4-1 1.92-2.52 3.75-4.68 5.6m-13.75 4.8l-1.6.37c-.3.06-.65.14-1 .23-.78.18-1.65.4-2.53.52l-3.05.55c1.78-1.17 3.28-2.48 4.46-3.9 1.2-1.5 2.17-3.15 2.88-4.88 3.33-.83 6.6-1.8 9.8-2.9-.33.95-.73 1.9-1.24 2.8-.44.75-.86 1.4-1.3 1.95-.5.63-1.1 1.27-1.7 1.86-1.62 1.52-3.15 2.6-4.73 3.4m-10.55 1.44l-.27.14v.05c-.52.24-1.03.46-1.47.64 0 0-2.3.3-2.62.33-.84.12-1.77.24-2.73.3l-2.92.22c4.24-2.2 6.73-5.23 8.18-8 3.34-.5 6.62-1.1 9.85-1.85-.6 1.28-1.38 2.5-2.3 3.62-1.46 1.74-3.4 3.26-5.7 4.53m-14.5 1.9l-1.58.05c-.32 0-.7.02-1.08.03-.48 0-1 .03-1.55.03-.32 0-.64 0-.98 0l-3.1-.1c2-.78 3.74-1.76 5.17-2.92 1.5-1.22 2.76-2.63 3.8-4.2 3.44-.14 6.85-.42 10.2-.85-1.82 3.03-5.08 6.3-10.87 7.98m-10.56-.67l-.3.08v.07c-.5.12-1.05.24-1.57.34l-1.67-.12c-.36-.03-.75-.06-1.17-.1-.77-.04-1.65-.1-2.52-.23l-2.9-.36c4.57-1.3 7.6-3.8 9.6-6.23 2.3.13 4.6.2 6.95.2 1 0 2.03 0 3.05-.03-.86 1.14-1.85 2.17-2.97 3.1-1.77 1.38-3.96 2.5-6.5 3.3m-14.58-1.02l-1.56-.28c-.33-.06-.7-.13-1.08-.2-.76-.13-1.63-.28-2.47-.5l-3.04-.7c2.12-.36 4-.97 5.65-1.82 1.7-.9 3.24-2.04 4.57-3.36 3.35.54 6.74.95 10.18 1.2-2.4 2.6-6.25 5.17-12.25 5.66m-10.23-2.8l-.3.03v.05c-.3 0-.6.02-.9.02-.16 0-.66 0-.74 0l-2.37-.68c-.85-.24-1.82-.5-2.78-.86l-2.8-.94c4.77-.32 8.25-2.17 10.68-4.15 3.2.86 6.47 1.58 9.8 2.17-1.1.95-2.27 1.76-3.54 2.43-2.03 1.02-4.4 1.67-7.05 1.92m-14.02-3.92l-1.54-.6c-.82-.32-2.06-.8-3.3-1.4l-2.87-1.3c.25.02.5.03.76.03 1.7 0 3.45-.22 5.17-.66 1.85-.54 3.57-1.35 5.14-2.38 3.2 1.2 6.44 2.3 9.74 3.23-2.4 1.7-5.8 3.23-10.36 3.23-.9 0-1.87-.06-2.73-.16m-9.48-4.84l-.3-.04-.04.06c-.58-.1-1.13-.2-1.6-.3l-1.5-.78c-.92-.44-2.1-1.1-3.23-1.78l-2.56-1.47c.84.1 1.73.17 2.7.17 1.68 0 3.12-.16 4.4-.48 1.46-.37 2.85-.92 4.18-1.6 3 1.5 6.04 2.87 9.17 4.12-1.27.72-2.6 1.28-3.96 1.66-1.6.4-3.2.6-4.8.6-.8 0-1.65-.05-2.47-.16m-13-6.7c-.46-.27-2.42-1.5-4.3-2.9-.38-.28-.76-.55-1.13-.8-.54-.38-1.02-.73-1.46-1.06 1.6.4 3.2.62 4.78.62 2.32 0 4.57-.46 6.7-1.32 2.9 1.83 5.85 3.54 8.9 5.12-.94.43-1.9.78-2.9 1.04-1.36.3-2.75.46-4.12.46-2.17 0-4.35-.4-6.48-1.15m-8.54-6.73l-.03.05c-.57-.22-1.1-.43-1.54-.62l-1.3-1.03-3.03-2.6c-.74-.65-1.45-1.26-2.05-1.8 2.15.76 4.32 1.15 6.48 1.15 1.7 0 3.38-.26 5-.73 2.64 2.07 5.36 4.03 8.16 5.88-1.7.56-3.45.86-5.26.86-2 0-4.08-.36-6.15-1.06l-.28-.1zm-11.1-9l-.3-.32c-.22-.2-.5-.47-.84-.83l-2.5-2.64c-.8-.8-1.54-1.64-2.1-2.3.7.36 1.36.64 2 .86 1.24.4 2.48.7 3.7.87.9.1 1.75.17 2.58.17.26 0 .52 0 .78-.02.77-.05 1.55-.15 2.3-.3 2.46 2.4 5 4.66 7.66 6.82-1 .22-2.03.38-3.04.4-.15 0-.32 0-.47 0-1.45 0-2.93-.17-4.4-.52-1.65-.4-3.43-1.14-5.37-2.22m-7.03-8.34l-.06.03c-.5-.32-.98-.63-1.38-.9l-.3-.33-3.04-3.88c-.57-.7-1.1-1.44-1.56-2.1-.06-.1-.13-.18-.2-.28.83.5 1.62.92 2.4 1.27 1.4.58 2.83 1 4.25 1.25 1 .18 2 .27 3.03.27.48 0 .98-.04 1.47-.08 2.16 2.56 4.42 5.03 6.8 7.4-.62.08-1.25.12-1.88.12-.78 0-1.6-.05-2.4-.17-1.1-.17-2.24-.43-3.34-.8-1.13-.4-2.27-.93-3.52-1.66l-.26-.15zm-9.1-11.1l-2.8-4.37c-.46-.74-.9-1.48-1.27-2.15-.05-.1-.17-.3-.32-.55 3.32 2.47 6.95 3.76 10.83 3.86 1.93 2.82 3.98 5.56 6.15 8.2-.1 0-.2 0-.3 0-.92 0-1.86-.07-2.76-.23-1.73-.3-3.26-.8-4.66-1.47-1.73-.86-3.36-1.97-4.85-3.3m-4.97-9.34l-.23-.2-.06.02c-.4-.35-.8-.75-1.14-1.14l-2.46-4.8-1.22-2.7c.68.63 1.38 1.2 2.1 1.7 1.06.8 2.3 1.46 3.9 2.1 1.43.55 2.9.9 4.35 1.1 1.6 2.94 3.35 5.8 5.2 8.6-3.78-.32-7.3-1.9-10.44-4.68m-6.86-12.85l-.6-1.52c-.12-.32-.26-.67-.4-1.05-.3-.7-.62-1.5-.9-2.32l-1-2.94c1.47 1.66 2.97 2.93 4.55 3.83 1.66.96 3.42 1.67 5.26 2.1 1.32 3.17 2.78 6.26 4.37 9.3-1-.2-2-.5-2.96-.86-1.6-.6-3.04-1.42-4.26-2.38-1.22-.98-2.8-2.34-4.07-4.15m-3.04-10.2l-.18-.25-.05.02c-.3-.43-.58-.87-.87-1.37l-.46-1.6c-.1-.35-.2-.72-.32-1.12-.22-.75-.47-1.6-.65-2.46l-.66-2.87c2.8 3.86 6.18 5.85 9.15 6.87.97 3.2 2.08 6.37 3.3 9.46-1.35-.4-2.67-1-3.9-1.73-1.9-1.12-3.66-2.74-5.37-4.96m-4.37-15.6c-.05-.3-.1-.62-.17-.96-.16-.8-.32-1.7-.42-2.6l-.38-3.08c1.06 1.84 2.3 3.4 3.67 4.67 1.42 1.28 3.02 2.32 4.72 3.1.65 3.4 1.44 6.72 2.38 9.98-3.26-1.34-7-4.06-9.54-9.54l-.28-1.56zm-1.4-10.78l-.1-1.67c-.03-.3-.06-.65-.1-1.02-.06-.8-.13-1.74-.13-2.67l-.07-2.9c1.96 4.3 4.87 6.94 7.57 8.54.3 3.34.75 6.65 1.33 9.92-1.25-.68-2.42-1.5-3.5-2.47-1.66-1.58-3.1-3.57-4.22-5.95l-.14-.27h-.05c-.22-.54-.42-1.06-.58-1.5m-.38-14.36c0-.34 0-.73.02-1.13 0-.76.03-1.62.1-2.48l.24-3.1c.7 2.06 1.57 3.8 2.67 5.3 1.14 1.56 2.5 2.9 4 4 0 .4 0 .77 0 1.16 0 3.06.1 6.1.34 9.1-2.92-2-6.04-5.4-7.42-11.27l.04-1.58zm.98-12.5c.06-.35.1-.74.15-1.15.1-.77.2-1.65.37-2.5l.52-2.9c1.05 4.64 3.38 7.8 5.7 9.9-.35 3.3-.58 6.63-.66 10-1.1-.9-2.07-1.96-2.93-3.12-1.3-1.82-2.3-4.06-2.97-6.67l-.07-.3h-.06c-.1-.5-.2-1.03-.27-1.6l.2-1.66zm2.28-12.5c.07-.28.15-.6.22-.94.18-.8.38-1.68.65-2.56l.85-3c.25 2.1.77 4.03 1.54 5.75.8 1.74 1.87 3.32 3.13 4.73-.7 3.3-1.3 6.68-1.72 10.1-2.47-2.53-4.85-6.5-5.02-12.53l.36-1.55zm2.97-10.46l.63-1.87c.3-.92.7-2.06 1.16-3.2l1.1-2.74c.06 4.76 1.7 8.33 3.58 10.88-1.02 3.16-1.92 6.38-2.68 9.65-.88-1.12-1.64-2.33-2.24-3.64-.93-2.14-1.45-4.54-1.55-7.15l-.02-.3h-.04c0-.6.03-1.16.07-1.64m4.62-11.86l1.37-3.02 2.3-4.5c-.16 1.95-.05 3.93.35 5.95.43 1.85 1.15 3.6 2.1 5.26-1.36 3.1-2.6 6.3-3.7 9.53-.56-.85-1.06-1.75-1.46-2.7-.57-1.3-.94-2.8-1.17-4.72-.1-.9-.14-1.85-.12-2.8.04-.9.16-1.9.35-3m5.3-9.17h.7l-.68-.38c.13-.6.26-1.14.38-1.6l.85-1.47c.36-.67.88-1.48 1.44-2.34l1.25-1.96c.3-.46.58-.92.84-1.33-.16.88-.26 1.78-.3 2.73-.1 1.6 0 3.03.25 4.4.28 1.48.76 2.9 1.38 4.26-1.65 2.9-3.18 5.88-4.58 8.94-.67-1.32-1.17-2.67-1.46-4.03-.5-2.47-.52-4.9-.08-7.23m7.3-12.66l.96-1.32c.38-.5.86-1.13 1.37-1.77.27-.35.56-.7.84-1.08.68-.9 1.38-1.75 1.97-2.45-1.44 4.75-.83 8.74.12 11.5-1.97 2.78-3.82 5.65-5.55 8.6-.38-.96-.68-1.93-.9-2.94-.6-3.58-.2-7.15 1.2-10.52m7.07-7.92l.12-.3-.05-.03c.25-.55.48-1.06.7-1.5l1.1-1.25 3.9-4.1.74-.7c-1.84 4.4-1.74 8.35-1 11.43-2.2 2.52-4.3 5.13-6.3 7.83-.4-1.43-.6-2.85-.58-4.23 0-2.6.44-4.94 1.38-7.15m7.18-5.67c.52-1.7 1.36-3.43 2.5-5.24 0 0 .46-.46 1.2-1.08l2.74-2.38c.82-.73 1.7-1.42 2.4-1.97-.36.66-.7 1.3-.96 1.95-.47 1.2-.82 2.45-1.05 3.66-.37 1.9-.4 3.8-.15 5.66-2.5 2.32-4.9 4.76-7.2 7.3-.17-1.02-.27-2.04-.24-3.06.03-1.58.3-3.2.76-4.83m11-11.58l.2-.26-.05-.05c.32-.47.65-.92 1-1.36.14-.1.62-.46 1.3-.95l3.03-2.16c.7-.5 1.47-1 2.13-1.4.1-.08.23-.15.34-.22-.52.77-1 1.54-1.4 2.33-.63 1.36-1.12 2.77-1.44 4.18-.34 1.45-.47 2.94-.42 4.47-2.66 2.03-5.24 4.17-7.73 6.42-.1-1.37 0-2.8.27-4.28.23-1.14.55-2.26.95-3.3.48-1.14 1.1-2.3 1.83-3.42m11.7-8.78l4.5-2.6 2.78-1.42c-3 3.65-4.15 7.37-4.38 10.6-2.93 1.8-5.77 3.7-8.52 5.73.03-1 .17-2 .4-3.05.4-1.78.96-3.28 1.7-4.58 1-1.77 2.16-3.3 3.53-4.68m9.6-4.5l.2-.2-.03-.08c.4-.4.83-.77 1.22-1.08 0 0 2.44-1.13 4.9-2.2l2.76-1.08c-1.83 1.8-3.2 3.74-4.1 5.8-.62 1.4-1.04 2.84-1.3 4.27-3.03 1.46-6 3.05-8.86 4.75.42-3.16 1.82-6.74 5.2-10.18m13.2-6.2l1.54-.52c.32-.1.68-.22 1.06-.36.73-.24 1.54-.53 2.37-.75l3-.85c-1.72 1.37-3.06 2.8-4.07 4.35-1.06 1.6-1.84 3.33-2.37 5.14-3.23 1.16-6.38 2.46-9.47 3.88.23-.97.53-1.94.96-2.9.66-1.52 1.53-2.9 2.6-4.12 1.03-1.18 2.48-2.7 4.35-3.85m10.36-2.52l.25-.17v-.05c.45-.26.92-.53 1.4-.8l1.65-.37c.32-.07.68-.15 1.05-.24.78-.2 1.66-.4 2.56-.55l2.9-.5c-4 2.58-6.17 5.86-7.33 8.78-3.27.8-6.47 1.75-9.62 2.83.5-1.34 1.13-2.63 1.93-3.83 1.22-1.83 3-3.55 5.23-5.1m14.22-3.37s2.17-.27 2.5-.3c.8-.12 1.73-.24 2.66-.3l3.1-.22c-1.9.97-3.52 2.12-4.85 3.42-1.37 1.37-2.48 2.9-3.36 4.57-3.4.48-6.77 1.1-10.08 1.87 1.52-3.2 4.43-6.8 10.02-9.04m10.6-.37l.27-.13v-.05c.56-.2 1.1-.36 1.54-.5l1.66-.04c.34 0 .7 0 1.1-.03.5 0 1.05-.03 1.6-.03.33 0 .66 0 1 .02l2.9.08c-4.4 1.74-7.17 4.52-8.9 7.14-3.37.14-6.7.4-10 .82.75-1.2 1.63-2.34 2.66-3.36 1.65-1.6 3.72-2.9 6.15-3.93m14.6-.47l1.57.12c.34.03.7.06 1.12.1.76.04 1.62.1 2.47.23l3.1.4c-2.1.57-3.9 1.36-5.45 2.38-1.6 1.07-3 2.35-4.2 3.8-2.34-.13-4.7-.2-7.1-.2-1.04 0-2.1 0-3.14.03 2.13-2.83 5.7-5.78 11.62-6.87m10.45 1.75l.3-.06.02-.05c.52-.08 1.06-.14 1.6-.2l1.66.3c.34.07.7.14 1.1.2.8.14 1.67.3 2.53.5l2.88.67c-4.7.8-7.97 2.98-10.2 5.2-3.27-.52-6.58-.92-9.94-1.16.97-1.04 2.06-1.98 3.26-2.78 1.87-1.2 4.16-2.1 6.8-2.62m13.9 2.47c.16 0 .34 0 .5 0l2.24.64c.85.23 1.8.5 2.76.84l2.97 1c-2.08.15-4.04.55-5.84 1.24-1.8.73-3.42 1.7-4.88 2.9-3.28-.9-6.6-1.64-10-2.24 2.57-2.27 6.5-4.4 12.24-4.4M367 39.9l.02-.06c.6.04 1.15.1 1.62.14l1.57.63c1.27.48 2.4.97 3.4 1.44l2.7 1.2h-.48c-.68 0-1.4.04-2.23.1-1.66.17-3.07.48-4.32.95-1.43.5-2.76 1.18-4 2-3.12-1.18-6.3-2.25-9.54-3.17 1.16-.83 2.42-1.52 3.75-2.06 2.12-.8 4.42-1.2 6.8-1.2l.7.02zm13.26 5.3l1.47.77c.86.4 1.98 1.06 3.15 1.73l2.7 1.55c-.7-.1-1.42-.15-2.18-.17-.22 0-.43 0-.64 0-1.07 0-2.13.07-3.14.23-1.83.32-3.63.95-5.36 1.84-3.04-1.53-6.15-2.93-9.33-4.2.88-.5 1.8-.95 2.77-1.3 1.37-.52 2.88-.8 4.77-.94.42-.03.85-.04 1.3-.04.5 0 1 0 1.52.05.98.12 2 .3 2.96.5m9.23 5.86l.02-.05c.56.16 1.1.32 1.6.5.47.28 2.5 1.57 4.4 2.98.4.28.78.55 1.16.82.45.32.88.62 1.27.9-.08 0-.16-.04-.24-.05-.82-.18-1.64-.3-2.45-.4-.7-.06-1.4-.1-2.08-.1-.78 0-1.55.05-2.32.14-1.5.2-2.94.62-4.33 1.17-2.82-1.8-5.73-3.47-8.7-5.03 2.15-.97 4.48-1.47 6.93-1.47 1.44 0 2.94.17 4.44.52l.3.06zm11.9 7.86l1.3 1 3.17 2.75c.7.6 1.36 1.18 1.9 1.7-1.84-.67-3.8-1.06-5.85-1.14-.26-.02-.52-.03-.78-.03-1.56 0-3.2.26-4.84.73-2.67-2.12-5.45-4.12-8.3-6 .97-.32 1.96-.58 2.98-.73.75-.1 1.5-.14 2.26-.14 2.8 0 5.58.64 8.17 1.86m7.86 7.6l.05-.05c.54.26 1.04.5 1.47.75l.45.42c.2.2.45.44.74.74l2.56 2.7c.63.62 1.28 1.34 2 2.17-2.16-1.03-4.46-1.64-6.87-1.82-.44-.04-.87-.06-1.3-.06-1.03 0-2.1.12-3.2.32-2.4-2.34-4.9-4.56-7.5-6.68 1.17-.26 2.34-.4 3.5-.4.25 0 .5 0 .76 0 2.52.12 4.9.7 7.08 1.76l.3.14zm10.14 10.06l.28.33 2.98 3.8c.56.7 1.08 1.42 1.53 2.06.1.16.2.28.3.43-.63-.4-1.26-.74-1.9-1.05-1.1-.52-2.3-.92-3.6-1.24-1.43-.34-2.87-.5-4.26-.5-.46 0-.93.02-1.4.06-2.2-2.62-4.5-5.13-6.92-7.55.63-.06 1.27-.12 1.9-.12.37 0 .76.02 1.17.06 1.58.1 3.2.44 4.78.98 1.72.65 3.47 1.6 5.12 2.76m5.9 8.84l.26.18.05-.04c.45.33.9.67 1.32 1.06l2.88 4.5c.54.9 1.07 1.8 1.5 2.56-.73-.56-1.5-1.06-2.26-1.5-1.26-.7-2.64-1.26-4.1-1.68-1.24-.34-2.5-.56-3.76-.65-.24 0-.46 0-.7 0-1.9-2.77-3.9-5.45-6-8.04.07 0 .16 0 .24 0 3.7 0 7.26 1.22 10.6 3.62m8.16 12.12l2.36 4.63 1.3 2.85c-3.58-3.27-7.3-4.55-10.38-4.94-1.63-3-3.4-5.92-5.27-8.75 1 .1 2 .25 3 .52 3.27.85 6.3 2.77 8.98 5.7m4.22 10.03l.06-.03c.4.45.75.92 1.02 1.27l.6 1.56c.13.32.27.67.43 1.05.3.74.63 1.56.92 2.4l.95 2.82c-1.73-1.94-3.6-3.42-5.6-4.4-1.37-.68-2.78-1.2-4.2-1.52-1.3-3.1-2.73-6.13-4.28-9.1 2.87.57 6.57 2.05 9.9 5.72l.2.23zm5.74 14.83c.1.34.2.7.3 1.1.22.74.47 1.56.64 2.4l.7 3.03c-1.27-1.76-2.63-3.17-4.13-4.27-1.54-1.14-3.24-2-5-2.63-1-3.28-2.14-6.5-3.4-9.66.96.3 1.9.65 2.84 1.12.7.34 1.37.74 2.02 1.17.67.48 1.33 1.03 1.95 1.62 1.03.98 2.52 2.53 3.62 4.53l.44 1.58zm1.75 9.15c.27.52.52 1.03.72 1.45l.3 1.66c.05.3.1.63.17 1 .14.8.3 1.7.4 2.64l.38 2.92c-2.4-4.12-5.55-6.44-8.4-7.76-.65-3.3-1.43-6.55-2.35-9.75 1.32.56 2.56 1.26 3.74 2.12 1.78 1.35 3.4 3.2 4.8 5.5l.17.24h.05zm2.62 16.67c.07.8.14 1.72.14 2.64l.08 3.1c-.9-1.95-1.95-3.63-3.18-5-1.3-1.43-2.77-2.63-4.4-3.6-.3-3.42-.75-6.8-1.35-10.15 3.12 1.7 6.57 4.78 8.53 10.48 0 0 .16 2.2.2 2.54m1.68 7.46l-.1-3.53c0-1.82-.17-4.06-.36-6.43-.06-.77-.12-1.55-.18-2.36-.1-.8-.2-1.63-.3-2.43-.28-2.32-.55-4.5-.9-6.25l-.63-3.5-.08-.43-.08-.42h-.02l-.8-3.46c-.38-1.85-1.04-4.12-1.74-6.52l-.55-1.97-.36-1.07c-.92-2.7-1.78-5.24-2.6-7.2l-1.06-2.67c-.25-.62-.42-.97-.44-1.02l-1.63-3.6c-.43-1-1-2.1-1.6-3.27l-.2-.43c-.25-.45-.48-.9-.7-1.36-.48-.92-.96-1.87-1.5-2.78l-2.35-4.07-2.64-4.15c-.45-.7-.83-1.3-1.15-1.73l-.38-.53-2.57-3.62-2.5-3.2-1.45-1.83-1.55-1.8c-1.77-2.12-3.7-4.12-5.24-5.74l-.68-.7c-.55-.6-1.08-1.08-1.5-1.5-.22-.18-.4-.37-.58-.53l-.73-.7-.06-.06c-.05-.03-4.65-4.5-9.7-8.3l-1.87-1.47s-2.7-1.93-3.1-2.2c-.76-.55-1.47-1.06-2.13-1.5l-3.36-2.15c-.1-.05-1.4-.92-3.42-2.05-.35-.2-.72-.4-1.1-.63-.76-.44-1.58-.9-2.46-1.4L379 43c-.93-.48-1.9-.92-2.82-1.33-.5-.22-.97-.43-1.43-.64-1.64-.74-2.8-1.24-3.77-1.6l-4.12-1.63c-.55-.2-1.55-.54-3.37-1.14-2.08-.7-5.23-1.7-8.43-2.53-.74-.17-1.46-.34-2.2-.5-2.34-.57-4.56-1.08-6.38-1.36l-3.5-.62v-.02l-.43-.05-.43-.08v.02l-3.52-.46c-1.73-.26-3.88-.42-6.16-.58-.85-.06-1.7-.12-2.6-.2-.86 0-1.72-.03-2.56-.06-1.46-.04-2.87-.08-4.16-.08-.73 0-1.42 0-2.04.04l-3.55.1v-.02l-.4.03h-.47v.03l-3.52.26c-1.84.1-4.1.4-6.5.7-.73.1-1.48.2-2.25.3-.76.12-1.53.26-2.28.4-2.36.4-4.57.8-6.33 1.24l-3.47.8-.4.1-.45.1v.02l-5.27 1.5c-.43.14-.87.3-1.33.44 0 0-1.68.58-2.18.74-.98.33-2 .66-3 1.04l-4.33 1.7c-.93.36-1.8.76-2.58 1.12-.42.2-.8.37-1.2.53l-2.63 1.2-.6.28-.36.2-.4.2-3.15 1.6c-.77.4-1.6.87-2.5 1.4-.35.2-2.1 1.2-2.1 1.2-1 .56-2.02 1.15-3 1.8l-3.96 2.56-3.33 2.35c-1.07.74-1.84 1.3-2.34 1.72l-.52.4-.45.37-.2.16-2.8 2.22c-.52.44-1.08.92-1.68 1.44-1.52 1.3-3.25 2.78-4.86 4.4-1.82 1.66-3.5 3.43-4.97 4.98-.42.44-.8.86-1.2 1.26-1.6 1.78-2.62 3-2.62 3l-.27.33c-1.6 1.66-5.83 7.23-7.53 9.73-.88 1.2-1.67 2.42-2.43 3.6l-.2.3c-.27.45-.54.88-.8 1.3-.5.76-1 1.5-1.36 2.18l-1.76 3.08-.3.52-.13.24-.33.58-1.32 2.57c-.18.35-.38.73-.6 1.13-.4.77-.82 1.6-1.24 2.52l-1.9 4.26c-.44.98-.82 1.96-1.2 2.9-.2.5-.38 1-.57 1.47l-.8 2-2.03 6.03c-.18.57-.46 1.6-.97 3.43-.58 2.1-1.4 5.28-2.1 8.53-.12.78-.26 1.55-.4 2.3-.43 2.35-.83 4.56-1 6.35l-.38 2.88c-.03.27-.06.5-.07.67h-.02l-.03.42-.05.44-.26 3.54c-.17 1.7-.22 3.8-.27 6 0 .92-.04 1.84-.07 2.8.03.9.06 1.84.07 2.74.05 2.22.1 4.3.27 6l.27 3.55h-.02l.05.43.03.42h.02c.02.18.04.4.07.67l.37 2.85c.18 1.8.58 4.02 1 6.36.15.76.28 1.53.42 2.32.68 3.23 1.5 6.42 2.1 8.52.5 1.84.78 2.86.97 3.43l2.04 6.03.8 2c.2.48.37.97.57 1.46.38.95.76 1.94 1.2 2.9l1.9 4.26c.43.9.86 1.74 1.26 2.52.2.4.4.78.6 1.15l1.32 2.58.33.56.44.74 1.77 3.07c.38.7.86 1.43 1.36 2.2.27.42.54.85.83 1.3l.17.3c.77 1.18 1.55 2.4 2.42 3.6 1.7 2.5 5.94 8.07 7.54 9.73l.27.34s1.04 1.23 2.65 3c.37.4.76.82 1.2 1.26 1.46 1.55 3.13 3.32 4.95 4.98 1.62 1.63 3.35 3.1 4.87 4.42.6.5 1.16 1 1.68 1.45l2.8 2.2.4.33.27.2.5.4c.5.4 1.28.98 2.35 1.74l3.34 2.37 3.93 2.53c1 .67 2.03 1.26 3.03 1.83 0 0 1.74 1 2.1 1.2.88.52 1.72 1 2.5 1.38l3.15 1.6v.02l.4.2.38.18.6.3 2.64 1.2c.37.16.76.34 1.18.53.77.36 1.64.76 2.57 1.12l4.35 1.7c1 .37 2 .7 2.97 1.03.5.16 2.17.74 2.17.74.46.16.9.3 1.35.44l5.27 1.5v.03l.43.1.4.1 3.45.8c1.77.45 3.98.84 6.34 1.25.75.13 1.52.27 2.3.4.76.1 1.5.2 2.24.3 2.4.3 4.66.6 6.5.7l3.52.25v.02h.44l.43.04v-.03l3.54.1c.62.03 1.3.04 2.04.04 1.3 0 2.7-.03 4.16-.07.85-.02 1.7-.05 2.58-.07.87-.07 1.73-.13 2.58-.2 2.28-.15 4.43-.3 6.16-.57l3.52-.46v.02l.43-.07.43-.07v-.02l3.48-.6c1.83-.28 4.05-.8 6.4-1.36.73-.17 1.45-.34 2.2-.5 3.2-.85 6.34-1.85 8.4-2.54 1.83-.6 2.83-.93 3.38-1.15l4.1-1.6c1-.38 2.16-.88 3.8-1.63.45-.2.93-.43 1.42-.65.93-.4 1.9-.84 2.82-1.32l4.17-2.14c.87-.46 1.7-.93 2.45-1.37.38-.22.75-.44 1.1-.63 2.03-1.14 3.35-2 3.43-2.06l3.35-2.16c.66-.42 1.37-.93 2.13-1.47.4-.27 3.1-2.2 3.1-2.2l1.88-1.47c5.05-3.8 9.65-8.27 9.7-8.3l.05-.08.73-.7c.17-.16.36-.34.58-.54.42-.4.95-.88 1.5-1.47l.68-.72c1.55-1.6 3.47-3.6 5.24-5.72l1.56-1.82 1.43-1.8 2.52-3.23 2.55-3.6.37-.5c.33-.45.7-1.05 1.16-1.75l2.65-4.15 2.33-4.05c.55-.9 1.03-1.87 1.5-2.8.23-.45.46-.9.7-1.36l.22-.42c.6-1.17 1.16-2.27 1.58-3.25l1.64-3.63c.02-.04.2-.4.44-1.02l1.06-2.67c.82-1.96 1.68-4.5 2.6-7.2l.35-1.1.56-1.95c.7-2.4 1.37-4.67 1.76-6.52l.8-3.46.1-.42.08-.42.6-3.5c.37-1.75.64-3.94.92-6.26.1-.8.2-1.62.3-2.46.06-.78.12-1.56.18-2.33.2-2.36.37-4.6.36-6.4l.1-3.56v-.85z"/><clipPath id="a"><path d="M390.5 139.68h1.57v20.2h-1.58z"/></clipPath><path fill="#2d3853" d="M390.5 140.6c.1 6.43.2 12.84.3 19.26.33 0 .68 0 1.03.02.07-5.7.17-11.4.2-17.1 0-1.07.28-2.28-.7-3.1-.28.3-.56.62-.84.93" clip-path="url(#a)"/><path fill="#2d3853" d="M396.9 178.26c-1.26 2.43-3.44 2.57-5.62 1.8-1.16-.4-2.3-1-3.3-1.77-12.87-9.63-25.7-19.28-38.53-28.94-1.53-1.15-2.96-2.53-2.2-4.86.77-2.36 2.55-3.3 4.54-3.42 1.85.05 3.1 1.08 4.4 2.06 8.96 6.75 17.93 13.5 26.9 20.2 3.98 2.97 8.07 5.8 12 8.85 1.8 1.42 3.1 3.5 1.8 6.06M385.06 182c1.72 1.34 3.43 3.14 2.14 5.9-1.2 2.62-3.4 2.96-5.76 2.6-1.8-.28-3.4-1.16-4.88-2.3-10.57-8.3-21.13-16.6-31.68-24.93-1.87-1.48-3.8-3.2-2.17-6.1 1.54-2.72 3.77-3.03 6.44-1.8 2.1.96 6.9 5.08 8.86 6.2 3.3 2.96 7 5.27 10.47 7.93 5.5 4.2 11.14 8.22 16.6 12.5m-7.66 17.4c-.85 1.76-2.33 2.13-4 2.07-2.14.16-3.86-.94-5.54-2.2-9.5-7.22-19.02-14.42-28.53-21.6-1.33-1-2.73-1.95-2.4-4.05.33-2.15 1.9-2.94 3.53-3.53 2.36-.87 4.4.18 6.3 1.57 8.33 6.05 16.65 12.1 24.9 18.23 1.75 1.3 3.7 2.37 5 4.33 1.05 1.6 1.7 3.24.75 5.16m-10.16 5.7c1.64 1.2 2.87 2.77 2.03 5.22-.54 1.56-1.72 2.77-3.14 3.32-2.63 1.04-4.78-.24-6.8-1.7-5.7-4.13-11.37-8.3-17.06-12.45-2.8-2.06-5.67-3.97-8.4-6.1-1.63-1.3-2.6-3.2-1.85-5.5.75-2.28 2.25-3.64 4.6-3.58 1.1.04 2.16.2 3.15.9 9.15 6.66 18.3 13.27 27.47 19.9m28.48-34.18c-3.58-1.9-4.2-5-3.8-8.85.1-.73-.05-1.48-.1-2.22-.34 0-.7-.02-1.04-.02-.5 2.1.27 4.36-.7 6.84-3.36-2.54-6.42-5.23-9.8-7.27-3.4-2.07-4.77-4.82-4.1-9 .17-.96.1-1.96.2-2.94.32-3.5 2-5.64 5.12-6.37 3.2-.76 6.47-.34 9.7-.56.04-.52.03-.4.07-.9-4.66-1.44-9.17-.63-13.45 1.25-.94-.57-.7-1.4-.7-2.08-.12-5.87-.1-5.87-5.3-5.87-2.45 0-4.9 0-7.37 0l-17-.76c-3.32 0-2.66-8.87-5.7-7.85-.66.07-1.3.03-1.95-.1-1.05-.12-1.68-1.03-1.64-1.96-.04-.25-.07-.47-.07-.76-.03 0-.1-.03-.57-.1V121.3h-.02c-.5 1.45-.3 2.78.42 3.94 1.07.93 2.1-.16 3.05 1.26 1.66 2.42 1.66 2.92 2.47 5.2.52 1.48.3 1.75 1.28 1.82 9.08.65 19.16 1.5 28.67 1.15.97-.03 2.13-.04 2.2 1.57.26 6.12-.54 12.14-.9 18.17-1.53.04-2.15-.75-2.87-1.28-5.48-4.05-10.88-8.25-16.46-12.14-3.22-2.25-7.1-1.2-8.9 1.92-1.7 2.9-.93 5.23 2.9 8.14 7.92 6.03 15.88 12 23.83 17.98.97.73 2.3 1.16 1.84 3.07-1.5 0-2.43-1.13-3.5-1.92-4.12-3.06-8.8-6.72-13-9.73-.95-.67-2.73-2.1-4.5-3.45-1.8-1.34-3.58-2.63-4.55-3.02-3.4-1.36-6.8-.13-8.12 2.93-1.25 2.9-.38 4.97 2.97 7.6 9.77 7.63 19.5 15.3 29.26 22.98.87.68 2.1 1.2 1.05 2.97-.6-.38-1.2-.68-1.74-1.08-8.17-6.05-16.35-12.1-24.5-18.17-1.9-1.4-3.83-2.63-6.18-2.62-2.9 0-5.36 1.13-6.46 4.28-1.14 3.24 1.23 4.7 3.15 6.15 7.94 6.02 15.93 11.95 23.86 17.95 1.2.9 2.7 1.54 3.52 3.18-2.04 1.16-3.46.22-4.9-.8-6.45-4.68-12.95-9.26-19.35-14.02-2.92-2.16-5.8-3.38-9-1-3.02 2.3-2.74 5.6-1.67 8.88-1.53.76-4.83 2.34-6.23 3.05-.52.57-.72 1.58 0 1.92 3.5-2.8 7.9-3.56 13.3.3 4.13 2.93 8.24 5.92 12.34 8.9 2.93 2.16 5.82 4.35 9.18 6.85-.2.1-.37.17-.55.25 0 .04 0 .08.03.1.8.3 1.62.62 2.42.9.75-.1 1.5-.2 2.26-.24 3.16-.13 5.47-1.45 6.5-4.7 1.05-3.28-.63-5.4-3.1-6.93-.35-.24-.75-.53-.54-1.6 3.97.05 8.5 2.8 11.96-1.7.18-.58.37-1.16.56-1.74.6-2.93-1.98-4.67-2.5-7.6 2.66.45 4.96 1.5 7.4 1.2 5.95-3.54 6.17-7.66.6-12.04-2.96-2.33-5.97-4.55-9.1-6.9 1.9-1.8 2.8.17 3.93.57 1.75.6 3.26 1.83 4.63 3.17 4.04 3.97 8.2 6.65 12.76 3.78.5-.9 1.13-2 1.64-2.92.16-3-.8-5.65-3.12-6.86M359.76 215.84c.66-.13 1.3-.26 1.98-.36.04 0 .08-.02.1-.02-.8-.3-1.6-.6-2.4-.9.16.7.1.5.32 1.28M359.43 214.56c-.06-.02-.1-.03-.16-.06-3.1 1.37-6.06 1.98-7.87 4.78.22.27.43.55.66.82 2.9-2.53 6.16-4.05 9.68-4.62-.66.1-1.32.23-1.98.36-.2-.8-.16-.57-.33-1.28M355.68 115.32c0-.02 0-.04-.03-.04-4-.13-8.22-.92-12.67-1.02l-8.44-.3s0 0-.02 0c-2.2-1-4.24-2.92-4.24-6 0-1.55-.34-2.75-1.2-3.48 0 0 0-.03 0-.04.37-1 .8-1.66 1.32-2.03 0 0 0-.02 0-.03-.26-.64-.65-1.15-1.56-5.27 0 0 0-.02 0-.03-.86-.74-1.66-1.66-1.2-3.23v-.02l-.38-2.93c-.24.1-.47.18-.7.28h.05v.73h-.23c0 .1 0 .2 0 .28.1 4.95 1 9.85 1.18 14.78.18-.25.48-.38 1.1-.17.06.5.17 1.1.18 1.68.12 5.4 2.5 7.9 7.45 8.02l1.36.03v-.02h4.47c.88-.24 1.92-.27 3.14 0h-3.13c-.14.05-.3.1-.42.15l11.02.3c1.5.1 1.52.1 3 .05.03 0 .04-.02.04-.04-.08-.6-.08-.64-.06-1.64M350.87 220.05c.2.3.38.6.6.9.2-.3.4-.57.6-.85-.24-.27-.45-.55-.67-.82-.18.26-.36.5-.53.77M350.87 220.05c-1.45 2.06-1.77 4.48-1.8 7-.07 3.46-.3 6.93-.15 10.38.02.26 0 .64 0 .88h1.24c-.1-5.77-.58-11.75 1.3-17.36-.2-.3-.4-.6-.6-.9M342.1 116.5h3.14c-1.22-.27-2.26-.24-3.13 0"/><path fill="#2d3853" d="M337.64 116.53l4.04.12c.13-.05.28-.1.43-.14h-4.46v.03zM337.53 121.3c.2 0 .38.03.56.1v.14s0 0 0-.02c.47-.65 1.78-4.05 3.2-4.7.12-.07.25-.12.38-.17l-4.04-.12c-.04 1.6-.08 3.2-.1 4.78M337.8 121.35c-.08 0-.17-.02-.27-.04v.15c.46.06.54.1.56.1v-.16c-.04.02.03 0-.3-.05M338.1 121.4l-.3-.05c.33.05.26.07.3.04M337.8 121.35l.3.04c-.2-.07-.4-.1-.57-.1.1.03.2.04.27.05"/><path fill="#2d3853" d="M323.2 83.4h11.1v5h-11.12zM326.52 91.2s0 0-.02 0c-.06.14-.1.28-.14.43 0 .1 0 .2 0 .28h.25v-.72h-.06s0 0-.02 0"/><path fill="#2d3853" d="M325.27 91.9h1.1c0-.08 0-.17 0-.27.03-.15.07-.3.13-.42 0 0 .02 0 .02 0s.02-.02.02-.02h-1.27v.73zM315.44 193.47c-2.73 2.14-5.6 4.06-8.4 6.1-5.7 4.14-11.36 8.32-17.05 12.45-2.04 1.46-4.2 2.74-6.82 1.7-1.43-.55-2.6-1.75-3.14-3.32-.85-2.45.4-4.03 2.03-5.2 9.16-6.63 18.33-13.24 27.46-19.88 1-.73 2.06-.88 3.18-.92 2.34-.06 3.84 1.3 4.58 3.58.77 2.3-.2 4.2-1.84 5.5m-33.98 5.86c-1.7 1.27-3.42 2.37-5.56 2.22-1.66.06-3.14-.32-4-2.1-.94-1.9-.3-3.56.75-5.15 1.3-1.95 3.25-3 5-4.32 8.26-6.13 16.58-12.18 24.9-18.23 1.9-1.4 3.93-2.44 6.3-1.57 1.6.58 3.2 1.37 3.53 3.5.33 2.12-1.07 3.06-2.4 4.07-9.52 7.18-19.02 14.38-28.52 21.6m-13.6-8.77c-2.36.36-4.54.02-5.76-2.58-1.3-2.78.4-4.58 2.13-5.93 5.47-4.27 11.1-8.3 16.6-12.5 3.48-2.65 7.2-4.96 10.47-7.9 1.97-1.14 6.78-5.26 8.87-6.22 2.67-1.23 4.9-.92 6.43 1.8 1.62 2.9-.3 4.62-2.17 6.1-10.55 8.33-21.12 16.63-31.68 24.92-1.47 1.16-3.07 2.03-4.88 2.3m-6.53-12.2c-1 .76-2.15 1.37-3.3 1.78-2.2.76-4.36.62-5.62-1.8-1.32-2.57-.03-4.65 1.8-6.07 3.92-3.07 8-5.9 12-8.86 8.97-6.72 17.93-13.45 26.88-20.2 1.3-.98 2.56-2 4.4-2.06 2 .1 3.8 1.06 4.56 3.42.75 2.33-.66 3.7-2.2 4.86-12.83 9.66-25.66 19.3-38.52 28.93m63.8 19.78c-.73-.34-.53-1.35 0-1.92-1.65-.82-5.4-2.07-7.2-2.97 1.08-3.3 1.36-6.6-1.68-8.87-3.18-2.4-6.07-1.18-8.98 1-6.4 4.75-12.9 9.33-19.36 14-1.43 1.03-2.85 1.97-4.9.8.82-1.63 2.32-2.25 3.52-3.16 7.94-6 15.93-11.94 23.86-17.95 1.92-1.46 4.28-2.9 3.15-6.16-1.1-3.14-3.56-4.27-6.46-4.28-2.36 0-4.3 1.22-6.17 2.62-8.18 6.07-16.35 12.12-24.53 18.17-.55.4-1.15.7-1.74 1.08-1.06-1.77.18-2.3 1.04-2.97 9.75-7.67 19.5-15.34 29.26-22.98 3.35-2.62 4.2-4.7 2.96-7.6-1.32-3.04-4.73-4.27-8.1-2.92-1.94.78-7.13 5.13-9.05 6.47-4.2 3-8.88 6.68-13.02 9.73-1.06.8-2 1.92-3.48 1.9-.46-1.9.87-2.33 1.84-3.05 7.96-5.97 15.9-11.95 23.84-17.98 3.84-2.9 4.6-5.23 2.9-8.14-1.82-3.13-5.68-4.17-8.9-1.92-5.57 3.9-10.98 8.1-16.46 12.15-.72.54-1.34 1.32-2.88 1.3-.35-6.04-1.15-12.06-.88-18.18.06-1.6 1.22-1.6 2.2-1.57 9.52.34 19.6-.5 28.67-1.15.96-.07.75-.34 1.27-1.82.8-2.28.8-2.78 2.47-5.2.95-1.42 1.97-.32 3.05-1.26.72-1.16.9-2.57.4-4-.66.07-.54.1-.58.07 0 .36-.02.7-.08.97.04.93-.58 1.84-1.64 1.97-.64.12-1.28.16-1.93.1-3.06-1.03-2.4 7.86-5.72 7.86l-17 .75c-2.45 0-4.9 0-7.36 0-5.2 0-5.2 0-5.3 5.87-.02.7.23 1.5-.72 2.08-4.27-1.88-8.8-2.7-13.44-1.26 0 .04 0 .08 0 .1.26.28.52.57.78.85 3 .12 6-.2 9 .5 3.12.74 4.8 2.88 5.1 6.37.1.98.04 2 .2 2.96.68 4.16-.7 6.9-4.1 8.98-3.38 2.05-6.43 4.74-9.8 7.27-.96-2.47-.18-4.74-.7-6.83-.35 0-.7 0-1.04.02-.04.74-.18 1.5-.1 2.2.4 3.86-.2 6.97-3.8 8.85-2.3 1.23-3.28 3.9-3.1 6.88.5.9 1.13 2.02 1.64 2.92 4.56 2.87 8.72.2 12.76-3.78 1.37-1.34 2.87-2.56 4.62-3.17 1.14-.4 2.03-2.36 3.92-.58-3.1 2.36-6.13 4.58-9.08 6.9-5.58 4.4-5.36 8.5.6 12.06 2.42.27 4.73-.77 7.4-1.23-.53 2.94-3.1 4.68-2.5 7.6.18.6.37 1.18.56 1.76 3.46 4.5 8 1.75 11.94 1.68.23 1.08-.18 1.38-.55 1.6-2.46 1.55-4.14 3.66-3.1 6.94 1.04 3.25 3.35 4.57 6.5 4.7.77.05 1.52.14 2.27.26.8-.3 1.6-.6 2.42-.9 0-.03 0-.07.02-.1-.2-.1-.37-.17-.55-.26 3.34-2.5 6.24-4.7 9.17-6.83 4.1-3 8.2-5.98 12.34-8.93 6-4.28 8.6-4.3 12.9-.3-.02-.1 2.2 0 1.35-.07"/><path fill="#2d3853" d="M323.6 91.19h1.67v.7h-1.65zM323.6 86.33h1.67v4.85h-1.65zM323.6 85.5h1.67v.83h-1.65zM323.6 82.45h1.67v3.05h-1.65zM322.96 91.55c0 .13 0 .25 0 .36h.66v-.72h-.78c.06.12.1.24.12.37"/><path fill="#2d3853" d="M314.28 83.4h11.42v5h-11.42zM322.57 91.18v.73h.38c0-.1 0-.22 0-.35 0-.13-.05-.25-.1-.37h-.28zM322.57 91.18h.27c0-.02 0-.03-.02-.05 0 0 0 0-.02-.02-.25-.1-.5-.2-.74-.3l-.38 2.94c.46 1.6-.34 2.5-1.2 3.25-.4 1.85-.9 3.63-1.56 5.3 0 0 0 .02 0 .03.5.37.95 1.03 1.33 2.03 0 0 0 .03 0 .03-.87.73-1.2 1.93-1.2 3.48 0 3.08-2.04 5-4.24 6l-8.46.3c-4.44.1-8.67.9-12.67 1.02-.02 0-.03.02-.03.04.03 1 .03 1.02-.05 1.63 0 .03 0 .05.02.05 1.5.04 1.5.04 3-.04l11.18-.32c-.18-.06-.37-.13-.56-.18h-3.15c1.22-.3 2.26-.25 3.14 0h4.45v.07l1.34-.04c4.96-.1 7.34-2.6 7.45-8 0-.6.12-1.17.18-1.7.62-.2.92-.07 1.1.18.17-4.93 1.08-9.83 1.16-14.78 0-.06 0-.13 0-.2h-.37v-.72zM307.8 116.56c.08.04.15.07.22.1 1.43.68 2.74 4.08 3.2 4.73.2-.07.38-.1.58-.1-.04-1.6-.07-3.23-.1-4.85l-3.9.1zM311.8 121.3c-.2 0-.4.03-.58.1.04.03-.08 0 .58-.1M307.8 116.56l3.9-.1v-.08h-4.46c.2.05.38.12.56.18M304.08 116.38h3.16c-.88-.25-1.92-.3-3.16 0M300.25 227.13c-.04-2.5-.36-4.93-1.8-7-.2.3-.4.6-.6.9 1.95 5.8 1.36 11.82 1.28 17.8.43.12.86.22 1.3.3-.06-.46-.07-1-.05-1.62.15-3.44-.07-6.9-.13-10.37M297.25 220.18c.2.28.4.56.6.84.2-.3.4-.6.6-.88-.18-.27-.36-.52-.53-.78-.23.28-.45.55-.67.82M290.03 214.6c-.04 0-.1.02-.14.04-.2.7-.14.5-.34 1.28-.7-.13-1.4-.27-2.1-.38 3.57.57 6.87 2.08 9.8 4.64.2-.28.44-.54.66-.82-1.82-2.8-4.8-3.4-7.9-4.77M289.56 215.92c.2-.8.14-.57.33-1.28-.82.3-1.62.6-2.43.9.7.1 1.4.25 2.1.38M258.04 139.85c-.02-.03-.04-.05-.07-.08-.97.8-.7 2.02-.7 3.1.04 5.68.13 11.4.2 17.1.36-.02.7-.02 1.05-.03.1-6.4.2-12.83.3-19.25-.24-.02-.47-.03-.7-.05-.05-.48-.04-.4-.08-.8"/><path fill="#413f3d" d="M258.1 140.65c.25.02.48.03.72.04-.26-.3-.52-.58-.78-.85.04.4.03.32.07.8"/><path fill="#2d3853" d="M349.92 238.1l-.97.16c-.03 0-.03.05-.06.05h-49.23c-.3 0-.53.27-.53.6 0 .32.24.58.53.58h49.97c.3 0 .53-.26.52-.6v-.65l-.24-.12z"/><path fill="none" stroke="#2d3853" stroke-width="2.08" d="M298.5 116.37l7.82 8.3M303.63 121.83l4.38-5.77M348.42 116.37l-6.53 8.8M344.25 121.98l-4.72-4.66M318.87 111.22l-22.9 1.36.05 2.48M311.18 111.7v2.48M305.7 111.84v3.22M302.96 112.04v2.83M300.56 112.44v3.23M297.96 112.58v3.23M329.92 111.45l23.87 1.28v2.45M335.07 114.4l-.2-2.6M338.13 111.96v2.48M343.6 112.1v3.22M346.35 112.3v2.83M348.75 112.4v3.23M351.34 112.57v3.22"/><path fill="#2d3853" stroke="#2d3853" stroke-width="2.08" d="M318.7 93.4h2.74l3.15-2.74h-8.86l2.97 2.75z"/><path fill="none" stroke="#2d3853" stroke-width="2.08" d="M306.46 97.22h4.08"/><path fill="none" stroke="#2d3853" stroke-width="2.08" d="M308.5 93.44c-1 0-1.83.85-1.83 1.9 0 1.03.82 1.88 1.83 1.88 1 0 1.83-.85 1.83-1.9 0-1.03-.82-1.88-1.83-1.88zM308.5 97.22l-.98 16.97M308.5 97.22l1.23 16.84M316.65 90.7l-6.43 5.14M342.92 97.22h-4.08"/><path fill="none" stroke="#2d3853" stroke-width="2.08" d="M340.88 93.44c-1 0-1.83.85-1.83 1.9 0 1.03.82 1.88 1.83 1.88 1 0 1.83-.85 1.83-1.9 0-1.03-.8-1.88-1.82-1.88zM340.88 97.22l1 17.22M340.88 97.62l-1.24 16.83M332.66 90.7l6.5 5.17"/><path fill="#2d3853" d="M318.2 72.32h12.5v18.8h-12.5zM322.36 63.8h4.16v27.32h-4.16z"/><path fill="none" stroke="#2d3853" stroke-width="2.08" d="M317.76 108.93c-.6 0-1.1.5-1.1 1.14 0 .63.5 1.15 1.1 1.15.6 0 1.1-.52 1.1-1.15 0-.63-.5-1.14-1.1-1.14zM331.55 108.93c-.6 0-1.1.5-1.1 1.14 0 .63.5 1.15 1.1 1.15.6 0 1.1-.52 1.1-1.15 0-.63-.5-1.14-1.1-1.14zM317.5 108.93l4.2-15.58M327.56 93.35l4 15.58"/><path fill="#2d3853" stroke="#2d3853" stroke-width="2.08" d="M345.15 132.38l6.2-1.9h-5.94l-.25 1.9z"/><path fill="none" stroke="#2d3853" stroke-width="2.08" d="M344.75 130.48h6.6v2.7M344.1 128.75l6.37.18M350.33 128.9v1.68M348.85 128.9v1.68M347.54 129v1.67M346.35 128.8v1.68"/><path fill="#2d3853" stroke="#2d3853" stroke-width="2.08" d="M298.5 130l6.2 1.9-.26-1.9h-5.94z"/><path fill="none" stroke="#2d3853" stroke-width="2.08" d="M304.27 130h-5.68v2.7M305.78 128.44l-6.73.15M298.87 128.43v1.67M304.27 128.34v1.68M302.96 128.43v1.67M301.6 128.43v1.67M300 128.72v1.67M324.14 90.72l-2.62 2.63"/><path fill="#2d3853" stroke="#2d3853" stroke-width="2.08" d="M327.13 93.4h2.73l2.97-2.74H324l3.13 2.75z"/><path fill="none" stroke="#2d3853" stroke-width="2.08" d="M340.88 112.04v2.15M308.5 111.77v2.67M314.1 111.5v2.56"/><path fill="#2d3853" d="M328.03 210.74l-4.76 19.76h-3.38l-3.56-14.53-3.22 14.53h-3.3l-4.88-19.76h3.4l3.46 14.4 3.2-14.4h3.26l3.56 14.4 3.38-14.4h2.83zM341.75 230.5h-3.4l-2.77-8.12h-4.52v8.12h-3.2v-19.76h7.72c2.15 0 3.73.54 4.74 1.62 1 1.07 1.52 2.46 1.52 4.17 0 2.54-1.07 4.3-3.2 5.24l3.1 8.73zm-10.7-10.97h4c1.17 0 2.03-.27 2.6-.8.56-.55.85-1.3.85-2.24 0-.88-.28-1.58-.84-2.12-.56-.53-1.34-.8-2.34-.8h-4.26v5.95z"/><path fill="#2e3853" d="M235.77 91.33c.4.17 1.02.4 1.88.73.85.33 1.47.56 1.85.7.85.3 1.45.54 1.8.68.26.1.65.26 1.18.46.57.2 1.05.4 1.45.55l.02-.03c-.5-.65-.9-1.2-1.2-1.62-.88-1.25-1.64-2.3-2.3-3.17-.24-.3-.43-.57-.58-.8-.3-.43-.5-.77-.62-1l-.62.9-.53-.4 1.67-2.2.4.32c-.17.28-.26.52-.27.72-.02.2.05.44.2.72.15.26.42.68.82 1.23l1.4 1.94c1.5 2.05 2.64 3.66 3.43 4.83l-.24.32-7.92-2.86 4.94 6.78-.24.3-7.83-2.9-.57-.23c-.73-.27-1.2-.46-1.4-.56l-.44.62-.52-.4 2-2.62.4.3c-.22.3-.32.56-.33.75 0 .18.1.36.3.5.2.16.45.3.78.44.63.27 1.36.56 2.2.85.13.04.3.1.5.18.2.08.44.16.7.26.2.1.43.17.68.26.25.1.43.15.54.2.54.17.96.33 1.27.45l.02-.02c-.44-.56-.86-1.1-1.25-1.65-.73-.96-1.5-2-2.28-3.1-.83-1.13-1.35-1.84-1.56-2.1l.27-.35zM242.97 82.92c.9-.9 1.7-1.42 2.44-1.54.75-.1 1.43.13 2.06.72.5.47.83 1.03.97 1.7.13.64-.05 1.38-.54 2.2.2 0 .4 0 .62.03.2.03.54.1.96.2l1.8.44c.4.1.7.16.93.2.23.03.45.02.66-.04.2-.05.4-.18.6-.38l.36.35-1.18 1.24c-.33 0-.65 0-.94-.05-.3-.06-.66-.13-1.1-.24l-1.8-.45-.34-.08c-.3-.08-.55-.14-.74-.18-.2-.04-.4-.05-.57-.05-.05.05-.14.15-.25.27-.17.18-.3.3-.4.4l2.13 2c.38.36.66.64.83.84l.63-.74.47.46-2.1 2.2-.36-.33c.22-.25.3-.47.3-.67-.02-.2-.1-.38-.23-.53-.14-.16-.4-.4-.76-.76l-4.7-4.47c-.3-.3-.56-.55-.76-.78l-.63.74-.46-.46c.63-.7 1.1-1.2 1.44-1.56.3-.32.53-.55.68-.7zm.37.43c-.22.23-.32.45-.3.64 0 .2.07.36.2.5.13.16.38.4.75.76l2.1 2c.2-.2.33-.33.42-.42 1.27-1.34 1.32-2.56.15-3.67-.55-.53-1.1-.78-1.65-.75-.55.03-1.1.34-1.68.93zM258.9 69.45c-.26.2-.4.43-.38.68 0 .26.16.58.47.96l.2.22 4.53 5.13c.16.16.36.4.6.7l.75-.65.4.52-2.36 1.9-.3-.4c.26-.22.37-.46.34-.7-.04-.25-.2-.56-.5-.92-.1-.14-.2-.26-.27-.33l-4.28-4.78c.02.04.04.1.06.2.03.07.06.16.1.27l2.83 8.44-.3.26-1.77-1c-1.6-.88-2.85-1.6-3.75-2.12-.9-.53-1.84-1.1-2.8-1.72l.4.52c1.77 2.35 3.04 4.02 3.8 5 .1.12.16.2.2.27.2.28.4.54.56.78l.76-.68.4.5-2.02 1.63-.3-.4c.3-.23.4-.48.35-.72-.05-.24-.2-.55-.5-.92l-4.77-6.47-.73.65-.4-.5 1.6-1.3 4.4 2.54c1.6.93 2.84 1.65 3.68 2.13l.04-.02c-.1-.3-.33-.94-.67-1.94-.33-.96-.7-2.04-1.06-3.2-.42-1.38-.82-2.6-1.18-3.64l1.57-1.25.3.4zM270.7 71.07c.24.18.47.38.7.6.23.23.4.43.5.6l.74-.55.36.56-2.6 1.68-.28-.42c.44-.3.54-.64.28-1.04-.1-.16-.27-.33-.5-.52l-1.16-.93-2.92 1.98c.1.42.27.95.47 1.6.1.34.2.7.27 1.07l.86-.63.35.56-2.13 1.37-.27-.42c.2-.12.3-.27.36-.44.06-.17.07-.35.04-.55-.03-.22-.1-.5-.2-.88l-.1-.43-2.2-8.62.26-.17 7.17 5.57zm-6.32-3.5l.44 1.74.62 2.33.2.75 2.64-1.7-2.36-1.9-1.5-1.22-.04.02zM271.15 61.35c1.14-.58 2.08-.8 2.8-.68.75.13 1.32.57 1.73 1.33.33.6.45 1.25.38 1.9-.08.68-.5 1.32-1.22 1.95.2.04.4.1.6.2.2.1.47.28.84.52l1.57 1c.34.2.6.36.8.46.22.1.43.16.64.18.2.02.44-.03.68-.16l.23.44-1.5.8c-.32-.1-.6-.2-.88-.34-.26-.14-.58-.33-.97-.57l-1.55-1-.3-.2c-.26-.16-.48-.3-.65-.4-.18-.1-.35-.18-.53-.23-.06.05-.17.1-.32.2-.22.1-.38.18-.5.23l1.38 2.58c.24.47.42.82.52 1.07l.83-.5.3.57-2.7 1.42-.22-.44c.3-.16.45-.33.5-.53.05-.2.03-.4-.05-.58-.08-.2-.24-.5-.48-.96l-3.04-5.73c-.2-.37-.35-.7-.47-.97l-.84.5-.3-.58c.82-.46 1.44-.8 1.86-1.02.4-.2.68-.35.87-.45zm.22.53c-.28.15-.44.32-.5.5-.05.2-.04.38.04.57.1.18.25.5.48.95l1.36 2.55c.25-.1.43-.2.54-.25 1.63-.86 2.07-2 1.3-3.43-.35-.68-.8-1.1-1.32-1.24-.53-.15-1.16-.03-1.9.35zM279.45 57.9c-.28.14-.46.3-.52.5s-.06.4 0 .58c.08.2.22.53.43 1l2.62 5.82c.22.48.37.85.45 1.1l.86-.46.27.6-2.8 1.26-.2-.45c.3-.14.47-.3.53-.5.06-.2.06-.4 0-.58-.08-.2-.22-.53-.43-1L278 59.86c-.16-.38-.3-.72-.4-1l-.86.45-.28-.6 2.8-1.25.2.45zM289.78 53.95c-.25.1-.42.22-.5.37-.1.14-.12.3-.1.5.03.17.1.4.2.68l.18.5 2.85 7.92-.6.22-8.53-6.22 2.23 6.04c.23.63.4 1.1.48 1.4l.9-.4.22.63-2.33.84-.17-.46c.34-.13.53-.32.56-.57.03-.25 0-.53-.12-.84l-2.8-7.75-.84.38-.23-.62 1.52-.56 8.35 6.08-2.33-6.48c-.14-.4-.25-.74-.33-1.03l-.9.4-.23-.63 2.34-.86.18.47zM298.66 53.78l-.43.12c-.2-.8-.5-1.3-.9-1.5-.38-.22-.85-.24-1.4-.07l-1.13.32c-.3.1-.52.22-.63.38-.1.15-.15.35-.13.57.02.23.1.58.22 1.04l.6 2.33 2.48-.63-.42-1.23.57-.14.8 3.05-.44.13c-.1-.36-.2-.63-.33-.8-.13-.16-.28-.26-.46-.28-.18-.02-.4 0-.7.1l-.4.1-.95.3.87 3.33c.12.5.2.9.25 1.15l2.5-.7c.6-.17 1.03-.47 1.26-.9.25-.4.26-1.03.04-1.85l.45-.12.65 2.86-6.77 1.77-.13-.5c.3-.08.5-.2.6-.4.1-.17.12-.37.1-.57-.05-.2-.13-.55-.26-1.05l-1.65-6.28c-.1-.4-.2-.76-.24-1.06l-.92.3-.17-.63 6.33-1.64.73 2.52zM306.95 49.36c.4-.06.82-.06 1.24 0 .4.05.82.2 1.2.42l-.15-.63.7-.1.45 3.28-.48.07c-.16-.78-.48-1.4-.96-1.9-.5-.48-1.1-.67-1.83-.56-.54.08-.93.3-1.2.68-.25.37-.34.8-.27 1.3.06.4.2.73.45 1 .26.25.55.45.87.6.32.14.77.32 1.35.52.65.22 1.18.43 1.6.62.4.2.75.48 1.07.84.3.37.5.84.6 1.43.07.55.02 1.06-.17 1.52-.18.46-.5.85-.94 1.15-.45.3-1 .5-1.65.6-.42.06-.85.06-1.3 0-.44-.08-.84-.22-1.2-.42l.16.63-.7.1-.52-3.15.52-.07c.17.85.53 1.47 1.08 1.86.55.4 1.2.54 1.94.43.54-.08.98-.3 1.3-.7.33-.38.45-.86.36-1.44-.06-.42-.2-.77-.47-1.05-.24-.27-.54-.5-.87-.64-.34-.16-.8-.34-1.36-.53-.65-.22-1.16-.43-1.55-.62-.4-.2-.73-.46-1.04-.82-.3-.35-.5-.82-.58-1.4-.06-.4-.03-.8.08-1.22.1-.42.34-.8.7-1.14.38-.33.9-.55 1.57-.64zM319.2 51.1l-.44.03c-.05-.82-.25-1.37-.6-1.65-.33-.28-.8-.4-1.36-.34l-1.16.1c-.33.04-.56.12-.7.25-.13.13-.2.3-.23.53-.02.23 0 .6.02 1.07l.15 2.4 2.54-.15-.16-1.28.6-.04.2 3.15-.46.03c-.02-.36-.08-.64-.17-.83-.08-.2-.22-.3-.4-.37-.16-.05-.4-.07-.7-.05l-.4.04-1 .1.22 3.43c.03.52.04.9.03 1.18l2.6-.2c.62-.05 1.1-.26 1.4-.62.3-.37.44-.98.4-1.83l.45-.03.1 2.93-7 .44-.02-.5c.32-.04.54-.13.67-.3.12-.15.2-.33.2-.53s-.02-.57-.05-1.08l-.4-6.5c-.03-.4-.04-.77-.03-1.07l-.97.12-.04-.66 6.5-.42.24 2.62zM324.66 48.45c1.28.05 2.2.3 2.8.77.57.47.86 1.13.84 2 0 .7-.2 1.3-.6 1.85-.38.54-1.05.9-2 1.1.16.14.3.3.42.48s.28.46.5.85l.9 1.62c.18.36.34.63.47.82.1.2.27.34.45.46s.4.18.68.18v.5l-1.72-.03c-.23-.24-.43-.48-.6-.73-.15-.25-.34-.57-.56-.97l-.88-1.62-.17-.32c-.15-.26-.27-.5-.37-.66-.1-.17-.22-.32-.35-.46-.08 0-.2 0-.38 0-.24 0-.42 0-.54 0l-.06 2.9c0 .53-.03.93-.06 1.2l.98-.05-.02.66-3.05-.07v-.5c.33 0 .55-.08.7-.23.13-.14.2-.32.23-.52s.04-.57.05-1.08l.13-6.5c0-.4.03-.77.06-1.07l-.98.04.02-.66c.94 0 1.65 0 2.13.02.42 0 .75.02.96.03zm-.06.57c-.32 0-.55.06-.68.2-.14.14-.22.3-.25.5-.02.2-.03.56-.04 1.07l-.06 2.88c.27.02.47.04.6.04 1.84.04 2.78-.75 2.8-2.36.03-.77-.16-1.34-.55-1.73-.4-.4-1-.6-1.82-.6zM338.93 50.02c-.4-.02-.72.06-.95.25-.23.2-.46.54-.7 1.06l-3.74 8.37-.37-.04-2.24-8.28c-.24-.88-.36-1.58-.37-2.1l-.76-.04.07-.66 3.13.33-.05.5h-.02c-.3 0-.52.05-.67.16-.16.1-.25.3-.27.53-.03.22 0 .5.1.86l.24 1c.07.25.16.64.3 1.17.13.53.25 1 .37 1.45l.27.95c.26.92.43 1.6.53 2.05h.03l.67-1.55.23-.52 1.57-3.56.4-.92c.24-.52.4-.88.5-1.07l-1.03-.05.07-.66 2.74.3-.05.48zM342.94 50.78c-.3-.04-.55 0-.7.12-.17.13-.28.3-.33.5-.04.2-.1.54-.2 1.04l-1.07 6.3c-.1.53-.17.9-.24 1.17l.96.1-.1.66-3.02-.5.08-.5c.3.04.55 0 .7-.12.17-.13.27-.3.33-.5.05-.2.12-.54.2-1.05l1.1-6.4c.07-.42.15-.77.23-1.07l-.98-.1.1-.66 3.02.52-.08.48zM349.43 51.44c.97.24 1.78.75 2.45 1.54l.12-.8.72.17-.83 3.4-.48-.13c.13-.93.02-1.7-.35-2.33-.36-.64-.93-1.05-1.7-1.24-.62-.15-1.23-.1-1.84.17-.6.26-1.15.7-1.62 1.35-.46.63-.8 1.42-1.03 2.36-.22.9-.26 1.73-.1 2.5.13.8.43 1.45.87 1.98.44.52.98.86 1.63 1.02.6.14 1.2.13 1.8-.03.63-.15 1.18-.45 1.66-.9l.27.4c-.7.65-1.42 1.06-2.16 1.22-.74.16-1.43.15-2.1 0-.85-.2-1.57-.63-2.14-1.25-.57-.63-.95-1.38-1.14-2.26-.2-.87-.17-1.8.06-2.76.23-.95.62-1.8 1.17-2.56.54-.75 1.23-1.3 2.04-1.66.82-.35 1.72-.4 2.7-.18zM360.18 57.7l-.43-.13c.27-.78.3-1.36.1-1.75-.22-.4-.6-.66-1.16-.83l-1.12-.36c-.3-.1-.56-.1-.73-.03-.18.08-.32.22-.43.42-.1.2-.24.53-.4 1l-.76 2.27 2.4.82.33-1.26.56.2-1 2.98-.44-.14c.12-.35.17-.63.16-.84 0-.2-.1-.38-.23-.5-.14-.1-.35-.2-.63-.3l-.4-.13-.95-.27-1.1 3.26c-.17.5-.3.86-.42 1.1l2.47.78c.6.2 1.12.18 1.54-.04.43-.22.78-.73 1.05-1.54l.45.15-1.02 2.75-6.63-2.24.16-.47c.3.1.55.1.72 0 .18-.1.3-.25.4-.43.07-.2.2-.53.36-1l2.08-6.17c.14-.4.27-.73.4-1l-.96-.26.22-.63 6.18 2.1-.78 2.5zM369.9 59c1.54.73 2.55 1.7 3.06 2.95.5 1.24.37 2.65-.4 4.22-.4.85-.97 1.55-1.68 2.1-.7.54-1.52.86-2.43.94-.9.1-1.85-.1-2.83-.57l-3.2-1.57.2-.44c.3.13.53.15.72.08.2-.08.34-.2.44-.38.1-.18.27-.5.5-.95l2.84-5.84c.2-.38.36-.7.5-.96l-.9-.37.3-.6 2.88 1.4zm-.37.43c-.3-.14-.52-.18-.7-.1-.2.06-.34.18-.44.35-.12.18-.28.5-.5.96l-2.8 5.76c-.24.46-.42.8-.56 1.03.27.16.7.38 1.3.66.67.33 1.37.44 2.08.33.7-.12 1.36-.43 1.97-.93.6-.5 1.1-1.16 1.5-1.96.63-1.32.8-2.5.52-3.57-.3-1.06-1.1-1.9-2.4-2.54zM380.84 64.7c.88.56 1.5 1.25 1.82 2.1.33.85.42 1.73.3 2.64-.15.9-.45 1.73-.92 2.5-.47.74-1.08 1.38-1.83 1.9-.74.54-1.56.85-2.45.94-.9.1-1.77-.13-2.63-.67-.92-.56-1.55-1.26-1.88-2.1-.34-.83-.43-1.7-.28-2.6.15-.88.47-1.72.96-2.5.47-.77 1.08-1.4 1.83-1.94.75-.52 1.57-.83 2.46-.92.9-.1 1.78.13 2.64.67zm-.35.5c-.6-.38-1.25-.5-1.9-.4-.68.12-1.3.4-1.9.88-.6.46-1.1 1.03-1.5 1.68-.42.67-.73 1.42-.93 2.23-.2.8-.2 1.58-.03 2.3.17.74.58 1.3 1.23 1.7.6.38 1.23.5 1.9.4.65-.12 1.28-.4 1.87-.87.6-.46 1.08-1.02 1.5-1.67.44-.73.76-1.5.94-2.33.18-.82.18-1.6 0-2.3-.2-.7-.6-1.26-1.2-1.63zM392.02 72.93c.83.67 1.33 1.35 1.5 2.04.2.68.02 1.35-.52 2-.34.42-.8.7-1.4.8-.58.1-1.2 0-1.84-.36l-.02.03c.75.6 1.17 1.27 1.26 1.98.1.72-.12 1.4-.62 2-.38.47-.82.8-1.32.96-.5.17-1 .2-1.53.07-.52-.12-1.02-.38-1.5-.77l-3.06-2.5.3-.4c.26.2.5.3.7.25.2-.02.36-.1.5-.26.16-.16.4-.45.75-.87l4-4.88c.34-.43.6-.73.78-.9l-.8-.58.43-.5c1.03.8 1.83 1.45 2.4 1.9zm-.3.46c-.22-.2-.4-.3-.58-.32-.17-.02-.34.03-.5.15-.17.13-.37.34-.62.64l-1.77 2.17.78.6c.56.45 1.1.6 1.63.48.52-.12.97-.42 1.37-.9.47-.6.65-1.1.53-1.6-.12-.46-.4-.88-.83-1.23zM389 77.33c-.4-.3-.77-.6-1.12-.85l-2.15 2.62c-.33.4-.6.7-.78.88.12.13.37.34.74.65l.35.3c.55.44 1.12.64 1.7.6.57-.04 1.1-.34 1.55-.9.54-.67.76-1.27.65-1.82-.1-.55-.42-1.05-.96-1.5zM398.77 78.9c.9.9 1.4 1.72 1.52 2.46.1.74-.15 1.42-.74 2.04-.48.5-1.04.82-1.7.95-.65.14-1.4-.05-2.22-.55.02.2.02.4-.02.63-.03.2-.1.54-.2.96l-.46 1.8c-.1.38-.17.7-.2.9-.04.24-.03.45.02.67.06.2.18.4.38.6l-.35.35-1.22-1.18c0-.34 0-.65.05-.95.05-.3.13-.66.24-1.1l.46-1.8.1-.34c.08-.3.14-.54.18-.74.05-.2.07-.4.07-.57-.07-.05-.16-.13-.28-.25-.2-.17-.32-.3-.4-.4L392 84.5c-.37.4-.65.67-.85.84l.74.63-.46.48-2.18-2.12.34-.36c.23.2.45.3.66.3.2-.02.38-.1.53-.23.16-.13.4-.38.77-.75l4.5-4.7c.3-.3.56-.54.78-.74l-.74-.63.46-.48c.7.64 1.2 1.13 1.55 1.46.32.3.55.54.7.7zm-.44.37c-.23-.22-.44-.33-.63-.32-.2 0-.37.08-.52.2-.16.14-.4.4-.76.76l-2 2.1c.17.2.3.34.4.42 1.33 1.28 2.55 1.34 3.67.18.52-.55.78-1.1.75-1.65-.02-.55-.33-1.1-.92-1.68zM401.65 94.13c-.14.26-.3.5-.5.78-.2.27-.36.46-.52.58l.65.66-.5.43-2.03-2.34.37-.33c.36.4.7.44 1.07.13.13-.12.28-.3.44-.56l.75-1.3-2.4-2.6c-.4.18-.9.4-1.5.7-.32.15-.66.3-1.02.43l.74.76-.5.43-1.66-1.93.37-.32c.15.17.3.27.5.3.16.02.35 0 .55-.05.2-.06.47-.16.83-.3l.4-.2 8.22-3.4.2.24-4.47 7.9zm2.56-6.76l-1.65.7-2.2.93-.72.3 2.06 2.38 1.53-2.6 1-1.7h-.02zM411.33 92.8c.24.33.43.7.6 1.1.14.4.2.8.18 1.26l.5-.43.4.56-2.65 1.95-.3-.4c.62-.5 1.02-1.08 1.22-1.74.2-.64.07-1.27-.37-1.86-.32-.44-.7-.68-1.16-.73-.46-.04-.88.08-1.3.38-.3.24-.53.53-.64.87-.1.34-.15.68-.13 1.04.03.34.1.82.18 1.42.12.68.18 1.25.2 1.7.03.45-.05.9-.22 1.35-.17.45-.5.85-.97 1.2-.45.34-.93.53-1.42.6-.5.04-.98-.05-1.46-.3-.48-.24-.9-.62-1.3-1.16-.26-.33-.46-.7-.6-1.13-.16-.43-.23-.84-.22-1.25l-.48.43-.42-.56 2.53-1.98.3.43c-.66.54-1.04 1.15-1.12 1.82-.1.67.1 1.3.54 1.9.32.46.73.73 1.23.83.5.1.97 0 1.44-.36.34-.25.57-.56.7-.9.1-.36.16-.73.14-1.1-.02-.37-.08-.85-.18-1.44-.1-.68-.16-1.24-.18-1.67-.02-.43.06-.86.23-1.3.18-.44.5-.83.96-1.18.32-.23.7-.4 1.12-.5.42-.1.87-.08 1.34.1.47.15.9.5 1.3 1.05zM415.47 100.15c-.18-.26-.37-.4-.57-.44-.2-.02-.4 0-.58.1-.18.1-.48.3-.9.57l-5.37 3.47c-.45.3-.8.5-1.02.62l.58.78-.55.36-1.66-2.56.4-.27c.2.26.38.4.58.44.2.04.4 0 .57-.1.2-.08.5-.27.92-.55l5.45-3.53c.35-.23.66-.4.93-.56l-.58-.78.55-.36 1.66 2.56-.4.27zM418.04 104.47c-.17-.27-.35-.43-.55-.47-.2-.04-.4-.02-.6.06-.17.1-.5.25-.93.5l-5.62 3.18c-.45.25-.8.43-1.04.54l1.3 2.18c.3.5.68.78 1.17.84.48.06 1.1-.13 1.86-.56l.23.4-2.75 1.46-3.3-5.86.44-.24c.16.27.34.43.54.47.2.05.4.03.58-.06.18-.07.5-.24.95-.5l5.66-3.2c.37-.2.7-.36.96-.48l-.53-.83.57-.33 1.5 2.66-.43.24z"/><path fill="#fff" stroke="#2d3954" stroke-width="1.71" stroke-miterlimit="100" d="M324.24 191.44V85.66" stroke-dasharray="17.13,5.14,1.71,5.14"/><path fill="#2d3954" d="M329.66 148.48c-.1.12-.22.2-.4.27-.15.06-.34.1-.56.1-.22 0-.42-.05-.6-.15-.16-.1-.3-.23-.4-.4-.08-.2-.13-.4-.13-.63v-.22c0-.37.1-.67.3-.88.18-.2.44-.3.8-.3.27 0 .5.06.67.2.17.13.28.32.32.56h-.36c-.07-.33-.28-.5-.64-.5-.24 0-.42.08-.55.24-.1.15-.17.38-.17.67v.2c0 .3.07.52.2.68.15.17.33.25.57.25.13 0 .25 0 .35-.04.1-.03.18-.07.25-.14v-.57h-.63v-.27h1v.92zM319.56 173.14v-2.52h.9c.28 0 .5.06.65.17.16.1.23.27.23.5 0 .1-.03.22-.1.3-.08.1-.17.17-.3.22.15.03.26.1.35.2.1.12.13.25.13.4 0 .22-.07.4-.23.53-.16.12-.38.2-.67.2h-.93zm.36-1.18v.9h.6c.16 0 .3-.03.38-.1.1-.1.15-.2.15-.34 0-.3-.18-.46-.53-.46h-.6zm0-.26h.54c.16 0 .28-.04.38-.1.1-.1.14-.18.14-.3 0-.15-.05-.25-.13-.3-.1-.07-.22-.1-.4-.1h-.53v.8z"/><path fill="#2e3954" d="M177.1 314.82v-6.32l-2 4.45h-1.76l-2-4.45v6.32h-3.3v-12h3.6l2.58 5.65 2.6-5.65h3.6v12h-3.3zM185.58 302.82h3l4.16 12h-3.34l-.73-2.35h-3.2l-.7 2.35h-3.37l4.18-12zm2.56 7.46l-1.06-3.72-1.12 3.72h2.18zM193.74 314.82v-12h5.5c.6 0 1.14.12 1.63.37.5.23.92.54 1.28.93.35.4.63.84.84 1.34.2.5.3 1 .3 1.5 0 .7-.16 1.36-.47 1.96-.3.6-.72 1.1-1.26 1.48l2.53 4.42h-3.72l-2.1-3.68h-1.24v3.68h-3.3zm3.3-6.56h2.07c.22 0 .4-.1.58-.33.18-.23.26-.54.26-.95 0-.42-.1-.73-.3-.95-.2-.22-.4-.33-.6-.33h-2v2.56zM205.15 302.82h3.3v12h-3.3zM213.8 308.93v5.9h-3.3v-12h2.58l4.8 6.1v-6.1h3.3v12h-2.6l-4.78-5.9zM231.8 311.95v2.87h-8.55v-12h8.4v2.88h-5.1v1.7h4.36v2.66h-4.35v1.9h5.25zM244.4 306.74c-.33-.2-.68-.38-1.04-.54-.3-.13-.64-.26-1.02-.38-.38-.1-.75-.17-1.1-.17-.3 0-.53.04-.7.13-.18.1-.27.24-.27.46 0 .16.05.3.15.4.1.1.25.18.44.27.2.1.43.17.7.25.28.08.6.18.94.3.55.16 1.05.34 1.5.55.44.2.82.44 1.14.7.3.3.55.63.72 1.02.17.4.26.87.26 1.44 0 .72-.14 1.32-.4 1.8-.27.5-.6.9-1.05 1.2-.43.28-.92.5-1.47.62-.55.13-1.1.2-1.65.2-.44 0-.9-.04-1.35-.1-.46-.07-.92-.17-1.38-.3-.45-.12-.9-.26-1.3-.43-.44-.17-.83-.36-1.2-.58l1.43-2.9c.4.26.8.48 1.23.67.36.17.77.32 1.23.46.47.13.93.2 1.4.2.36 0 .62-.05.76-.14.14-.1.2-.23.2-.38 0-.17-.06-.32-.2-.43-.14-.12-.34-.23-.6-.32-.23-.1-.52-.18-.84-.27-.32-.1-.66-.2-1.02-.32-.53-.18-1-.37-1.37-.58-.4-.2-.7-.45-.95-.7-.25-.28-.43-.58-.55-.92-.12-.33-.18-.72-.18-1.16 0-.67.13-1.25.37-1.76.24-.5.57-.93 1-1.27.4-.33.88-.6 1.4-.77.55-.17 1.12-.26 1.7-.26.45 0 .88.04 1.3.13.4.08.82.2 1.2.32.4.13.76.27 1.1.42.33.14.64.3.9.42l-1.4 2.72zM252.8 312c.4 0 .72-.08 1-.25.26-.17.48-.4.65-.67.17-.28.3-.6.37-.95.08-.37.12-.74.12-1.14v-6.18h3.3V309c0 .83-.1 1.6-.33 2.33-.2.73-.53 1.36-.98 1.9-.45.52-1.02.93-1.7 1.24-.68.3-1.5.45-2.4.45-.97 0-1.8-.16-2.47-.48-.68-.32-1.24-.75-1.68-1.3-.44-.53-.76-1.16-.96-1.88-.2-.7-.3-1.47-.3-2.27v-6.18h3.3V309c0 .4.04.77.12 1.13.07.37.2.7.37.97.16.27.37.5.64.66.26.16.6.24.97.24zM260.13 314.82v-12h5.5c.6 0 1.13.12 1.63.37.5.23.92.54 1.28.93.35.4.63.84.83 1.34.2.5.3 1 .3 1.5 0 .7-.15 1.36-.45 1.96-.3.6-.73 1.1-1.27 1.48l2.54 4.42h-3.73l-2.1-3.68h-1.25v3.68h-3.3zm3.3-6.56h2.07c.2 0 .4-.1.57-.33.17-.23.26-.54.26-.95 0-.42-.1-.73-.3-.95-.2-.22-.4-.33-.6-.33h-2v2.56zM273.38 302.82l2.35 7.86 2.3-7.86h3.48l-4.4 12h-2.74l-4.46-12h3.48zM287.36 314.93c-.92 0-1.74-.18-2.5-.53-.73-.35-1.37-.8-1.9-1.38-.53-.57-.94-1.22-1.23-1.95-.3-.73-.44-1.5-.44-2.26 0-.78.14-1.54.44-2.27.3-.74.73-1.38 1.28-1.94.55-.57 1.2-1 1.95-1.35.74-.33 1.56-.5 2.45-.5.92 0 1.75.18 2.5.53.73.35 1.37.8 1.9 1.4.53.56.94 1.2 1.22 1.95.3.73.44 1.48.44 2.24 0 .8-.16 1.55-.46 2.28-.3.72-.73 1.37-1.27 1.92-.54.56-1.18 1-1.93 1.35-.75.34-1.57.5-2.46.5zm-2.73-6.1c0 .42.06.8.17 1.2.12.36.3.7.5 1 .24.28.52.52.86.7.35.18.76.27 1.23.27.46 0 .88-.1 1.22-.28.35-.18.64-.43.86-.72.22-.3.38-.64.5-1.03.1-.38.15-.77.15-1.16 0-.4-.06-.8-.17-1.17-.1-.38-.28-.7-.52-1-.23-.28-.5-.5-.86-.7-.34-.16-.74-.25-1.2-.25-.48 0-.9.1-1.23.27-.35.18-.63.42-.86.72-.23.3-.4.64-.5 1-.1.4-.17.78-.17 1.17zM296.53 302.82l2.15 5.2 2.2-5.2h3.58l-4.14 8.03v3.97h-3.28v-4l-4.07-8h3.56zM313.9 311.95v2.87h-8.54v-12h8.4v2.88h-5.1v1.7H313v2.66h-4.35v1.9h5.26zM315.45 314.82v-12h5.5c.6 0 1.13.12 1.63.37.5.23.92.54 1.28.93.35.4.63.84.83 1.34.2.5.3 1 .3 1.5 0 .7-.16 1.36-.46 1.96-.3.6-.73 1.1-1.27 1.48l2.54 4.42h-3.7l-2.12-3.68h-1.24v3.68h-3.3zm3.3-6.56h2.07c.2 0 .4-.1.57-.33.16-.23.25-.54.25-.95 0-.42-.1-.73-.3-.95-.2-.22-.4-.33-.6-.33h-2v2.56zM334.12 306.74c-.34-.2-.7-.38-1.05-.54-.3-.13-.64-.26-1.02-.38-.38-.1-.74-.17-1.1-.17-.3 0-.53.04-.7.13-.18.1-.27.24-.27.46 0 .16.05.3.15.4.1.1.25.18.44.27.2.1.43.17.7.25.28.08.6.18.94.3.56.16 1.06.34 1.5.55.45.2.83.44 1.15.7.3.3.56.63.73 1.02.16.4.25.87.25 1.44 0 .72-.13 1.32-.4 1.8-.26.5-.6.9-1.05 1.2-.43.28-.92.5-1.47.62-.53.13-1.08.2-1.63.2-.44 0-.9-.04-1.36-.1-.45-.07-.9-.17-1.36-.3-.46-.12-.9-.26-1.32-.43-.42-.17-.82-.36-1.18-.58l1.42-2.9c.4.26.8.48 1.24.67.36.17.77.32 1.22.46.46.13.92.2 1.4.2.36 0 .6-.05.75-.14.14-.1.2-.23.2-.38 0-.17-.06-.32-.2-.43-.14-.12-.34-.23-.58-.32-.26-.1-.55-.18-.87-.27-.32-.1-.66-.2-1.02-.32-.52-.18-.98-.37-1.36-.58-.38-.2-.7-.45-.95-.7-.25-.28-.44-.58-.56-.92-.1-.33-.17-.72-.17-1.16 0-.67.12-1.25.36-1.76.24-.5.57-.93 1-1.27.4-.33.88-.6 1.42-.77.53-.17 1.1-.26 1.7-.26.44 0 .86.04 1.28.13.42.08.82.2 1.2.32.4.13.76.27 1.1.42.34.14.64.3.9.42l-1.4 2.72zM348.6 314.82l-.63-.67c-.5.3-1 .5-1.52.64-.52.12-1.05.2-1.58.2-.7 0-1.3-.12-1.83-.35-.53-.22-.96-.5-1.32-.88-.35-.36-.62-.76-.8-1.22-.18-.46-.27-.92-.27-1.38 0-.7.16-1.28.5-1.78.33-.5.73-.95 1.2-1.32-.37-.44-.63-.83-.77-1.18-.15-.34-.22-.72-.22-1.14 0-.48.1-.92.27-1.3.18-.4.42-.72.73-.98.3-.26.68-.46 1.1-.6.44-.14.9-.2 1.4-.2.45 0 .88.04 1.3.15.43.1.8.28 1.14.5.33.24.6.54.8.9.2.37.3.8.3 1.33 0 .6-.14 1.16-.42 1.64-.28.48-.66.93-1.13 1.34l1.4 1.47c.1-.3.2-.65.27-1.02.07-.36.1-.76.1-1.2h2.6c-.02.88-.12 1.66-.3 2.35-.2.7-.46 1.32-.8 1.87l2.7 2.82h-4.2zm-3.4-2.33c.35 0 .68-.08 1-.23l-1.9-2.04c-.4.3-.58.63-.58.94 0 .13.03.26.08.42.05.14.13.28.25.42.12.13.28.24.47.34.2.1.42.13.7.13zm-.94-6.87c0 .14.05.27.13.38.08.12.22.26.42.46.23-.16.4-.3.5-.42.1-.12.14-.27.14-.45 0-.2-.05-.34-.16-.44-.1-.1-.25-.16-.43-.16-.2 0-.34.06-.45.18-.1.12-.16.27-.16.45zM356.9 308.72c0-.73.13-1.45.4-2.16.28-.7.68-1.35 1.2-1.9.54-.58 1.18-1.03 1.94-1.38.75-.35 1.62-.52 2.58-.52 1.16 0 2.17.23 3.02.7.85.5 1.5 1.13 1.9 1.92l-2.52 1.8c-.1-.3-.26-.55-.44-.74-.2-.2-.4-.34-.62-.46-.23-.1-.46-.2-.7-.23-.24-.05-.48-.07-.7-.07-.48 0-.88.1-1.23.28-.34.18-.62.43-.84.72-.23.3-.4.64-.5 1.02-.1.38-.16.75-.16 1.12 0 .42.06.82.18 1.2.12.4.3.72.54 1.02.24.3.53.52.87.7.35.17.73.26 1.16.26.22 0 .45-.03.68-.08.24-.05.47-.13.7-.25.2-.12.4-.27.58-.46.17-.17.3-.4.4-.67l2.7 1.6c-.18.44-.45.84-.82 1.2-.37.34-.78.63-1.25.87-.48.23-.98.4-1.5.54-.55.12-1.07.18-1.58.18-.9 0-1.7-.17-2.44-.53s-1.37-.83-1.9-1.42c-.55-.6-.96-1.25-1.25-2-.3-.74-.44-1.5-.44-2.26zM374.45 314.93c-.9 0-1.74-.18-2.48-.53-.75-.35-1.4-.8-1.9-1.38-.54-.57-.96-1.22-1.25-1.95-.3-.73-.44-1.5-.44-2.26 0-.78.15-1.54.46-2.27.3-.74.73-1.38 1.27-1.94.56-.57 1.2-1 1.96-1.35.75-.33 1.57-.5 2.46-.5.9 0 1.74.18 2.48.53.75.35 1.38.8 1.9 1.4.54.56.95 1.2 1.24 1.95.28.73.43 1.48.43 2.24 0 .8-.15 1.55-.46 2.28-.3.72-.72 1.37-1.26 1.92-.54.56-1.18 1-1.93 1.35-.74.34-1.56.5-2.45.5zm-2.72-6.1c0 .42.05.8.17 1.2.1.36.28.7.5 1 .23.28.5.52.86.7.34.18.75.27 1.22.27.48 0 .9-.1 1.24-.28.35-.18.63-.43.85-.72.22-.3.38-.64.5-1.03.1-.38.15-.77.15-1.16 0-.4-.06-.8-.17-1.17-.1-.38-.28-.7-.5-1-.24-.28-.53-.5-.88-.7-.34-.16-.74-.25-1.2-.25-.48 0-.9.1-1.23.27-.34.18-.63.42-.85.72-.24.3-.4.64-.5 1-.12.4-.17.78-.17 1.17zM385.27 308.93v5.9h-3.3v-12h2.57l4.82 6.1v-6.1h3.3v12h-2.63l-4.76-5.9zM401.98 306.74c-.34-.2-.7-.38-1.05-.54-.3-.13-.64-.26-1.02-.38-.37-.1-.73-.17-1.1-.17-.3 0-.52.04-.7.13-.17.1-.26.24-.26.46 0 .16.05.3.15.4.1.1.24.18.43.27.2.1.43.17.7.25.28.08.6.18.94.3.55.16 1.05.34 1.5.55.44.2.82.44 1.14.7.32.3.57.63.73 1.02.17.4.26.87.26 1.44 0 .72-.14 1.32-.4 1.8-.27.5-.62.9-1.06 1.2-.43.28-.92.5-1.47.62-.54.13-1.1.2-1.65.2-.43 0-.9-.04-1.35-.1-.46-.07-.92-.17-1.37-.3-.46-.12-.9-.26-1.32-.43-.43-.17-.82-.36-1.18-.58l1.42-2.9c.4.26.8.48 1.24.67.36.17.76.32 1.22.46.46.13.92.2 1.4.2.36 0 .6-.05.75-.14.14-.1.2-.23.2-.38 0-.17-.06-.32-.2-.43-.14-.12-.34-.23-.6-.32-.23-.1-.52-.18-.84-.27-.33-.1-.67-.2-1.03-.32-.53-.18-1-.37-1.37-.58-.38-.2-.7-.45-.95-.7-.25-.28-.43-.58-.55-.92-.1-.33-.17-.72-.17-1.16 0-.67.12-1.25.36-1.76.23-.5.56-.93.98-1.27.42-.33.9-.6 1.43-.77.54-.17 1.1-.26 1.7-.26.44 0 .87.04 1.3.13.4.08.8.2 1.2.32.4.13.75.27 1.1.42.33.14.63.3.9.42l-1.42 2.72zM410.38 312c.38 0 .7-.08.98-.25.27-.17.5-.4.66-.67.17-.28.3-.6.37-.95.07-.37.1-.74.1-1.14v-6.18h3.3V309c0 .83-.1 1.6-.3 2.33-.23.73-.56 1.36-1 1.9-.46.52-1.03.93-1.7 1.24-.7.3-1.5.45-2.42.45-.96 0-1.78-.16-2.46-.48-.68-.32-1.24-.75-1.68-1.3-.44-.53-.76-1.16-.96-1.88-.2-.7-.3-1.47-.3-2.27v-6.18h3.3V309c0 .4.03.77.1 1.13.1.37.2.7.38.97.17.27.38.5.65.66.27.16.6.24.98.24zM417.7 314.82v-12h3.3v9.13h5.44v2.87h-8.74zM435.33 305.7h-3.45v9.12h-3.3v-9.12h-3.46v-2.88h10.2v2.88zM438.54 302.82h3l4.16 12h-3.34l-.73-2.35h-3.2l-.7 2.35h-3.37l4.18-12zm2.57 7.46l-1.06-3.72-1.1 3.72h2.17zM450 308.93v5.9h-3.3v-12h2.57l4.82 6.1v-6.1h3.28v12h-2.62l-4.76-5.9zM468.8 305.7h-3.46v9.12h-3.3v-9.12h-3.46v-2.88h10.2v2.88zM477.26 306.74c-.34-.2-.7-.38-1.05-.54-.3-.13-.63-.26-1-.38-.4-.1-.76-.17-1.12-.17-.3 0-.52.04-.7.13-.17.1-.26.24-.26.46 0 .16.05.3.15.4.1.1.25.18.44.27.2.1.44.17.7.25.3.08.6.18.95.3.55.16 1.05.34 1.5.55.44.2.82.44 1.14.7.3.3.54.63.7 1.02.18.4.27.87.27 1.44 0 .72-.14 1.32-.4 1.8-.27.5-.6.9-1.05 1.2-.43.28-.92.5-1.47.62-.55.13-1.1.2-1.65.2-.44 0-.9-.04-1.35-.1-.46-.07-.92-.17-1.38-.3-.45-.12-.9-.26-1.3-.43-.44-.17-.83-.36-1.2-.58l1.43-2.9c.4.26.8.48 1.23.67.36.17.77.32 1.23.46.46.13.92.2 1.4.2.35 0 .6-.05.75-.14.15-.1.22-.23.22-.38 0-.17-.07-.32-.2-.43-.15-.12-.35-.23-.6-.32-.24-.1-.53-.18-.85-.27-.32-.1-.66-.2-1.02-.32-.53-.18-1-.37-1.37-.58-.4-.2-.7-.45-.95-.7-.25-.28-.43-.58-.55-.92-.12-.33-.18-.72-.18-1.16 0-.67.13-1.25.37-1.76.24-.5.57-.93 1-1.27.4-.33.88-.6 1.42-.77.52-.17 1.1-.26 1.68-.26.44 0 .87.04 1.3.13.4.08.8.2 1.2.32.4.13.75.27 1.1.42.32.14.63.3.9.42l-1.42 2.72z"/></svg>