<?xml version="1.0" encoding="UTF-8" standalone="no"?><!DOCTYPE svg PUBLIC "-//W3C//DTD SVG 1.1//EN" "http://www.w3.org/Graphics/SVG/1.1/DTD/svg11.dtd"><svg width="100%" height="100%" viewBox="0 0 647 334" version="1.1" xmlns="http://www.w3.org/2000/svg" xmlns:xlink="http://www.w3.org/1999/xlink" xml:space="preserve" style="fill-rule:evenodd;clip-rule:evenodd;stroke-miterlimit:10;"><rect x="0" y="10.365" width="647" height="323.5" style="fill:#fff;"/><g><g><path d="M448.004,159.785c-0.017,0.35 -0.021,0.741 -0.033,1.158c-0.013,0.777 -0.027,1.657 -0.11,2.538l-0.223,2.909c-1.521,-4.495 -4.154,-7.397 -6.687,-9.261c0.006,-0.338 0.013,-0.679 0.013,-1.013c0,-3.027 -0.115,-6.029 -0.34,-8.997c1.174,0.797 2.258,1.736 3.228,2.805c1.488,1.717 2.707,3.845 3.617,6.339l0.104,0.282l0.051,0c0.162,0.56 0.304,1.099 0.42,1.569l-0.04,1.671Zm-1.007,12.647c-0.05,0.341 -0.097,0.723 -0.143,1.132c-0.09,0.748 -0.195,1.611 -0.359,2.449l-0.548,3.058c-0.477,-2.119 -1.175,-3.953 -2.121,-5.549c-0.981,-1.656 -2.192,-3.117 -3.584,-4.382c0.37,-3.372 0.607,-6.78 0.687,-10.226c2.718,2.274 5.483,5.99 6.265,11.952l-0.197,1.566Zm-2.254,12.348c-0.075,0.303 -0.154,0.643 -0.232,0.995c-0.18,0.8 -0.382,1.704 -0.659,2.598l-0.802,2.829c-0.568,-4.728 -2.57,-8.104 -4.685,-10.438c0.693,-3.247 1.263,-6.546 1.68,-9.882c0.987,1.015 1.866,2.153 2.6,3.399c1.114,1.935 1.876,4.27 2.278,6.932l0.048,0.301l0.045,0.009c0.052,0.567 0.084,1.12 0.105,1.622l-0.378,1.635Zm-3.034,10.695l-0.565,1.674c-0.308,0.926 -0.696,2.083 -1.172,3.228l-1.142,2.898c-0.032,-2.033 -0.349,-4 -0.946,-5.874c-0.633,-1.818 -1.525,-3.497 -2.636,-5.023c1.054,-3.231 1.971,-6.526 2.736,-9.878c2.208,2.771 4.171,6.972 3.725,12.975m-4.3,9.996c-0.072,0.589 -0.144,1.143 -0.222,1.612l-1.406,3.094l-2.247,4.394c0.075,-0.999 0.064,-1.926 0.04,-2.717c-0.097,-1.747 -0.325,-3.131 -0.713,-4.351c-0.443,-1.45 -1.057,-2.81 -1.812,-4.103c1.341,-3.051 2.57,-6.174 3.654,-9.358c0.78,1.202 1.404,2.5 1.869,3.857c0.718,2.339 0.992,4.779 0.805,7.244l-0.018,0.306l0.05,0.022Zm-5.389,10.008c-0.151,0.976 -0.377,1.988 -0.665,2.992c-0.259,0.463 -1.4,2.49 -2.701,4.436l-1.71,2.656c0.957,-4.886 -0.055,-8.796 -1.277,-11.451c1.675,-2.954 3.231,-5.986 4.659,-9.09c0.46,0.908 0.866,1.846 1.172,2.837c0.435,1.424 0.659,2.991 0.688,4.812c0.003,0.692 -0.011,1.739 -0.166,2.808m-6.87,11.563l-0.087,0.302l0.047,0.03c-0.177,0.565 -0.364,1.098 -0.529,1.545l-0.977,1.375c-0.382,0.528 -0.874,1.152 -1.4,1.814c-0.283,0.363 -0.575,0.735 -0.866,1.109c-0.622,0.82 -1.272,1.617 -1.833,2.299c0.021,-0.07 0.047,-0.146 0.064,-0.215c0.209,-0.734 0.378,-1.529 0.518,-2.436c0.224,-1.486 0.284,-2.965 0.18,-4.403c-0.13,-1.483 -0.461,-2.948 -0.953,-4.378c1.941,-2.733 3.764,-5.553 5.468,-8.451c1.054,2.713 1.74,6.602 0.368,11.409m-101.65,43.482c-63.187,0 -114.413,-51.223 -114.413,-114.411c0,-63.187 51.226,-114.411 114.413,-114.411c63.187,0 114.413,51.224 114.413,114.411c0,63.188 -51.226,114.411 -114.413,114.411m93.117,-31.658c-0.003,0 -0.42,0.499 -1.07,1.214l-2.503,2.625c-0.594,0.64 -1.413,1.492 -2.178,2.214c0.769,-1.834 1.25,-3.77 1.427,-5.781c0.18,-1.838 0.028,-3.732 -0.421,-5.645c2.255,-2.576 4.393,-5.24 6.421,-8.007c0.945,3.428 1.104,8.058 -1.676,13.38m-6.356,3.585c-0.291,1.064 -0.751,2.171 -1.476,3.592l-0.142,0.275l0.04,0.042c-0.288,0.527 -0.575,1.017 -0.831,1.435c-0.003,0.006 -0.471,0.476 -1.223,1.108l-2.81,2.434c-0.769,0.691 -1.568,1.319 -2.276,1.877c0.475,-0.866 0.845,-1.672 1.129,-2.474c0.507,-1.417 0.855,-2.863 1.035,-4.29c0.195,-1.439 0.165,-2.944 -0.039,-4.486c2.447,-2.291 4.805,-4.682 7.053,-7.173c0.072,0.42 0.133,0.844 0.177,1.254c0.078,0.992 0.075,2.006 -0.016,3.021c-0.1,1.121 -0.308,2.26 -0.621,3.385m-12.217,13.509l-4.248,3.024c-0.696,0.495 -1.422,0.958 -2.065,1.366c-0.18,0.115 -0.352,0.222 -0.521,0.327c0.416,-0.601 0.795,-1.213 1.129,-1.828c0.553,-1.008 1.01,-2.132 1.43,-3.538c0.565,-1.963 0.791,-3.802 0.731,-5.618c2.718,-2.066 5.349,-4.242 7.873,-6.535c0.072,1.034 0.064,2.056 -0.062,3.058c-0.199,1.64 -0.613,3.237 -1.225,4.729c-0.749,1.698 -1.773,3.384 -3.042,5.015m-9.096,5.433l-0.193,0.234l0.035,0.055c-0.363,0.437 -0.734,0.881 -1.079,1.218l-4.662,2.683l-2.636,1.357c0.586,-0.707 1.123,-1.432 1.597,-2.169c0.74,-1.163 1.354,-2.483 1.876,-4.018c0.486,-1.434 0.763,-2.909 0.874,-4.397c2.863,-1.753 5.641,-3.623 8.334,-5.612c-0.112,3.186 -1.143,6.893 -4.146,10.649m-12.533,7.526c-0.356,0.17 -2.544,1.168 -4.738,2.128l-2.899,1.139c3.38,-3.323 4.883,-6.905 5.44,-10.09c3.086,-1.483 6.091,-3.093 9.025,-4.827c-0.144,1.007 -0.349,2.001 -0.676,2.989c-1.021,3.217 -3.088,6.131 -6.152,8.661m-9.998,3.527l-0.23,0.195l0.022,0.055c-0.399,0.315 -0.824,0.606 -1.281,0.903l-0.088,0.06l-1.541,0.523c-0.333,0.108 -0.707,0.233 -1.102,0.372c-0.734,0.253 -1.573,0.54 -2.414,0.779l-2.819,0.795c3.714,-2.992 5.523,-6.464 6.383,-9.483c3.16,-1.139 6.255,-2.41 9.279,-3.809c-0.341,1.387 -0.853,2.727 -1.528,4.016c-0.989,1.922 -2.523,3.752 -4.681,5.594m-13.745,4.799l-1.601,0.37c-0.311,0.067 -0.653,0.148 -1.016,0.234c-0.766,0.177 -1.637,0.386 -2.514,0.525l-3.056,0.543c1.799,-1.168 3.298,-2.477 4.473,-3.905c1.213,-1.492 2.172,-3.138 2.88,-4.877c3.329,-0.824 6.605,-1.792 9.815,-2.893c-0.341,0.947 -0.744,1.886 -1.255,2.786c-0.436,0.759 -0.859,1.404 -1.288,1.958c-0.52,0.648 -1.096,1.279 -1.717,1.871c-1.611,1.525 -3.139,2.608 -4.721,3.388m-10.552,1.452l-0.27,0.146l0.008,0.049c-0.53,0.246 -1.035,0.466 -1.482,0.652c0,0 -2.283,0.289 -2.621,0.329c-0.831,0.113 -1.769,0.239 -2.721,0.29l-2.922,0.222c4.231,-2.171 6.715,-5.216 8.171,-7.999c3.333,-0.48 6.618,-1.084 9.848,-1.836c-0.609,1.28 -1.378,2.493 -2.291,3.62c-1.471,1.735 -3.399,3.259 -5.72,4.527m-14.485,1.912l-1.583,0.043c-0.326,0 -0.689,0.013 -1.078,0.028c-0.485,0.009 -1.01,0.03 -1.553,0.03c-0.319,0 -0.644,-0.006 -0.977,-0.021l-3.112,-0.08c2.011,-0.791 3.748,-1.766 5.174,-2.927c1.486,-1.22 2.755,-2.636 3.798,-4.204c3.439,-0.139 6.848,-0.416 10.209,-0.847c-1.834,3.025 -5.094,6.312 -10.878,7.978m-10.564,-0.683l-0.29,0.086l0,0.053c-0.519,0.128 -1.057,0.245 -1.583,0.347l-1.672,-0.129c-0.352,-0.033 -0.747,-0.062 -1.164,-0.09c-0.772,-0.056 -1.651,-0.116 -2.52,-0.24l-2.898,-0.364c4.57,-1.294 7.601,-3.781 9.582,-6.216c2.307,0.132 4.627,0.212 6.966,0.212c1.021,0 2.04,-0.012 3.054,-0.043c-0.852,1.137 -1.849,2.169 -2.967,3.086c-1.765,1.394 -3.955,2.501 -6.508,3.298m-14.571,-1.009l-1.56,-0.28c-0.331,-0.058 -0.694,-0.123 -1.082,-0.191c-0.759,-0.132 -1.623,-0.282 -2.467,-0.492l-3.031,-0.706c2.118,-0.366 4.012,-0.977 5.653,-1.826c1.7,-0.902 3.223,-2.037 4.557,-3.36c3.352,0.542 6.745,0.944 10.183,1.198c-2.402,2.6 -6.256,5.174 -12.253,5.657m-10.225,-2.794l-0.301,0.028l-0.015,0.046c-0.292,0.009 -0.579,0.023 -0.881,0.023c-0.166,0 -0.669,-0.004 -0.744,0l-2.373,-0.676c-0.852,-0.24 -1.819,-0.515 -2.779,-0.864l-2.797,-0.943c4.763,-0.321 8.244,-2.163 10.673,-4.144c3.211,0.864 6.472,1.592 9.788,2.181c-1.073,0.941 -2.251,1.751 -3.527,2.426c-2.025,1.021 -4.398,1.668 -7.044,1.923m-14.029,-3.919l-1.538,-0.603c-0.824,-0.317 -2.068,-0.814 -3.319,-1.406l-2.862,-1.292c0.256,0.012 0.508,0.028 0.759,0.028c1.729,0 3.466,-0.224 5.181,-0.664c1.851,-0.537 3.569,-1.346 5.148,-2.376c3.179,1.215 6.425,2.298 9.726,3.24c-2.395,1.713 -5.8,3.231 -10.356,3.231c-0.919,0 -1.879,-0.06 -2.739,-0.158m-9.476,-4.842l-0.309,-0.044l-0.03,0.057c-0.578,-0.097 -1.129,-0.201 -1.596,-0.302l-1.513,-0.773c-0.914,-0.443 -2.085,-1.114 -3.226,-1.778l-2.559,-1.477c0.841,0.111 1.733,0.171 2.714,0.175c1.671,0 3.106,-0.16 4.383,-0.48c1.463,-0.366 2.861,-0.916 4.185,-1.608c2.987,1.499 6.043,2.879 9.168,4.125c-1.259,0.726 -2.586,1.284 -3.944,1.664c-1.596,0.404 -3.204,0.606 -4.789,0.606c-0.827,0 -1.662,-0.055 -2.484,-0.165m-13.009,-6.689c-0.449,-0.283 -2.408,-1.522 -4.296,-2.923c-0.377,-0.269 -0.759,-0.537 -1.128,-0.797c-0.533,-0.375 -1.018,-0.725 -1.457,-1.055c1.607,0.403 3.204,0.619 4.778,0.619c2.323,0 4.574,-0.462 6.717,-1.318c2.875,1.834 5.834,3.545 8.872,5.126c-0.93,0.422 -1.887,0.78 -2.89,1.034c-1.359,0.308 -2.747,0.458 -4.121,0.458c-2.168,0 -4.346,-0.383 -6.475,-1.144m-8.541,-6.728l-0.033,0.042c-0.56,-0.209 -1.093,-0.417 -1.524,-0.602l-1.31,-1.032l-3.019,-2.603c-0.744,-0.645 -1.456,-1.26 -2.05,-1.813c2.143,0.77 4.311,1.164 6.471,1.164c1.701,0 3.38,-0.263 5.013,-0.731c2.628,2.074 5.349,4.033 8.154,5.881c-1.694,0.558 -3.455,0.856 -5.264,0.856c-2.013,0 -4.08,-0.363 -6.144,-1.064l-0.294,-0.098Zm-11.086,-9.011l-0.326,-0.317c-0.205,-0.191 -0.496,-0.468 -0.827,-0.823l-2.505,-2.632c-0.806,-0.814 -1.54,-1.64 -2.097,-2.288c0.694,0.344 1.356,0.622 2.006,0.846c1.23,0.411 2.477,0.702 3.704,0.874c0.876,0.121 1.739,0.18 2.57,0.18c0.262,0 0.518,-0.003 0.777,-0.02c0.776,-0.051 1.549,-0.152 2.308,-0.297c2.452,2.381 5.004,4.652 7.658,6.81c-1.014,0.226 -2.028,0.38 -3.042,0.406c-0.154,0.009 -0.317,0.009 -0.474,0.009c-1.436,0 -2.913,-0.177 -4.387,-0.527c-1.65,-0.394 -3.433,-1.142 -5.365,-2.221m-7.038,-8.347l-0.052,0.041c-0.509,-0.315 -0.988,-0.623 -1.38,-0.89l-0.29,-0.335l-3.056,-3.884c-0.573,-0.697 -1.094,-1.437 -1.554,-2.097c-0.065,-0.092 -0.13,-0.185 -0.191,-0.277c0.813,0.5 1.604,0.917 2.399,1.262c1.394,0.577 2.822,0.994 4.238,1.244c0.983,0.18 1.999,0.268 3.021,0.268c0.481,0 0.974,-0.036 1.466,-0.08c2.161,2.562 4.426,5.036 6.799,7.403c-0.618,0.074 -1.244,0.119 -1.873,0.119c-0.784,0 -1.596,-0.055 -2.401,-0.173c-1.112,-0.155 -2.241,-0.42 -3.345,-0.782c-1.125,-0.397 -2.271,-0.939 -3.519,-1.666l-0.262,-0.153Zm-9.089,-11.073l-2.813,-4.383c-0.459,-0.736 -0.884,-1.483 -1.269,-2.155c-0.045,-0.085 -0.161,-0.293 -0.312,-0.548c3.304,2.473 6.936,3.765 10.814,3.862c1.935,2.832 3.987,5.569 6.152,8.212c-0.093,0 -0.194,0.008 -0.291,0.008c-0.931,0 -1.866,-0.078 -2.771,-0.24c-1.73,-0.305 -3.254,-0.787 -4.66,-1.469c-1.726,-0.865 -3.358,-1.969 -4.85,-3.287m-4.977,-9.357l-0.23,-0.207l-0.057,0.035c-0.391,-0.359 -0.808,-0.757 -1.147,-1.143l-2.452,-4.792l-1.222,-2.708c0.676,0.624 1.374,1.194 2.085,1.71c1.076,0.781 2.319,1.445 3.922,2.083c1.424,0.556 2.877,0.908 4.34,1.098c1.608,2.945 3.347,5.821 5.192,8.608c-3.772,-0.319 -7.277,-1.886 -10.431,-4.684m-6.86,-12.844l-0.603,-1.534c-0.119,-0.317 -0.258,-0.67 -0.41,-1.045c-0.287,-0.712 -0.603,-1.516 -0.884,-2.321l-1,-2.953c1.467,1.657 2.966,2.926 4.548,3.832c1.657,0.973 3.422,1.674 5.256,2.109c1.323,3.168 2.787,6.261 4.376,9.285c-1,-0.194 -1.992,-0.471 -2.963,-0.849c-1.603,-0.609 -3.034,-1.413 -4.249,-2.375c-1.226,-0.979 -2.805,-2.341 -4.071,-4.149m-3.037,-10.222l-0.184,-0.243l-0.049,0.022c-0.299,-0.428 -0.576,-0.871 -0.874,-1.366l-0.461,-1.616c-0.089,-0.34 -0.198,-0.712 -0.312,-1.109c-0.219,-0.747 -0.471,-1.601 -0.655,-2.462l-0.657,-2.862c2.793,3.859 6.176,5.848 9.149,6.867c0.975,3.213 2.085,6.368 3.322,9.458c-1.362,-0.41 -2.678,-0.988 -3.926,-1.729c-1.895,-1.121 -3.645,-2.742 -5.353,-4.96m-4.373,-15.592c-0.049,-0.292 -0.107,-0.615 -0.172,-0.959c-0.144,-0.792 -0.308,-1.689 -0.405,-2.601l-0.385,-3.08c1.063,1.843 2.293,3.407 3.667,4.668c1.427,1.286 3.02,2.32 4.728,3.116c0.654,3.373 1.448,6.706 2.391,9.972c-3.269,-1.354 -7.015,-4.077 -9.547,-9.556l-0.277,-1.56Zm-1.387,-10.777l-0.125,-1.675c-0.022,-0.308 -0.047,-0.649 -0.077,-1.012c-0.067,-0.814 -0.139,-1.743 -0.143,-2.675l-0.072,-2.914c1.96,4.321 4.872,6.954 7.576,8.55c0.305,3.349 0.747,6.658 1.33,9.925c-1.251,-0.677 -2.423,-1.501 -3.499,-2.469c-1.668,-1.578 -3.091,-3.576 -4.228,-5.947l-0.132,-0.272l-0.051,0.003c-0.223,-0.548 -0.421,-1.065 -0.579,-1.514m-0.384,-14.35c0.014,-0.344 0.022,-0.728 0.028,-1.134c0.015,-0.761 0.03,-1.621 0.112,-2.473l0.234,-3.1c0.686,2.056 1.567,3.81 2.67,5.306c1.141,1.549 2.496,2.882 4.006,3.995c-0.003,0.385 -0.015,0.767 -0.015,1.15c0,3.062 0.119,6.096 0.349,9.095c-2.926,-1.985 -6.047,-5.402 -7.424,-11.261l0.04,-1.578Zm0.992,-12.506c0.054,-0.342 0.097,-0.731 0.147,-1.143c0.094,-0.775 0.198,-1.656 0.371,-2.516l0.518,-2.876c1.052,4.632 3.383,7.78 5.716,9.885c-0.36,3.296 -0.59,6.63 -0.672,10.003c-1.09,-0.912 -2.075,-1.96 -2.931,-3.122c-1.301,-1.812 -2.297,-4.057 -2.967,-6.668l-0.075,-0.292l-0.049,-0.007c-0.101,-0.497 -0.187,-1.027 -0.271,-1.599l0.213,-1.665Zm2.283,-12.494c0.068,-0.281 0.143,-0.605 0.219,-0.943c0.177,-0.784 0.378,-1.678 0.651,-2.56l0.849,-2.991c0.251,2.104 0.768,4.025 1.541,5.739c0.81,1.746 1.866,3.325 3.125,4.729c-0.711,3.313 -1.291,6.686 -1.715,10.105c-2.474,-2.534 -4.849,-6.508 -5.025,-12.527l0.355,-1.552Zm2.962,-10.457l0.634,-1.88c0.309,-0.923 0.694,-2.066 1.161,-3.192l1.085,-2.755c0.073,4.771 1.723,8.343 3.591,10.889c-1.02,3.162 -1.919,6.382 -2.674,9.655c-0.884,-1.117 -1.639,-2.334 -2.247,-3.645c-0.924,-2.13 -1.449,-4.531 -1.55,-7.132l-0.014,-0.305l-0.05,-0.014c0.01,-0.583 0.032,-1.149 0.064,-1.621m4.623,-11.875l1.374,-3.02l2.308,-4.504c-0.171,1.951 -0.064,3.939 0.339,5.95c0.43,1.852 1.15,3.612 2.113,5.261c-1.373,3.111 -2.621,6.294 -3.725,9.537c-0.549,-0.858 -1.045,-1.75 -1.448,-2.701c-0.575,-1.315 -0.953,-2.815 -1.179,-4.72c-0.098,-0.907 -0.14,-1.855 -0.123,-2.815c0.036,-0.902 0.155,-1.886 0.341,-2.988m5.315,-9.173l0.686,0l-0.676,-0.375c0.127,-0.581 0.255,-1.128 0.378,-1.585l0.848,-1.472c0.363,-0.67 0.885,-1.481 1.439,-2.343l1.247,-1.947c0.302,-0.466 0.59,-0.926 0.859,-1.333c-0.165,0.871 -0.269,1.77 -0.316,2.714c-0.079,1.598 0.004,3.034 0.26,4.4c0.29,1.486 0.772,2.903 1.393,4.265c-1.649,2.909 -3.181,5.89 -4.584,8.946c-0.672,-1.313 -1.164,-2.662 -1.459,-4.022c-0.492,-2.486 -0.514,-4.924 -0.075,-7.248m7.309,-12.654l0.952,-1.333c0.378,-0.513 0.856,-1.129 1.368,-1.774c0.28,-0.351 0.563,-0.714 0.851,-1.083c0.672,-0.894 1.374,-1.749 1.964,-2.455c-1.443,4.757 -0.835,8.744 0.111,11.512c-1.971,2.773 -3.822,5.642 -5.552,8.589c-0.373,-0.956 -0.679,-1.933 -0.885,-2.942c-0.61,-3.581 -0.197,-7.142 1.191,-10.514m7.068,-7.933l0.122,-0.287l-0.05,-0.047c0.234,-0.55 0.468,-1.06 0.677,-1.482l1.099,-1.259l3.916,-4.107l0.737,-0.707c-1.845,4.416 -1.741,8.361 -1.014,11.441c-2.201,2.52 -4.294,5.131 -6.274,7.833c-0.399,-1.437 -0.605,-2.852 -0.597,-4.238c-0.008,-2.598 0.446,-4.936 1.384,-7.147m7.177,-5.665c0.524,-1.702 1.358,-3.449 2.498,-5.255c0.008,-0.007 0.461,-0.459 1.201,-1.083l2.743,-2.381c0.817,-0.73 1.69,-1.412 2.395,-1.963c-0.356,0.654 -0.68,1.308 -0.95,1.951c-0.471,1.206 -0.823,2.442 -1.053,3.658c-0.367,1.889 -0.406,3.787 -0.155,5.657c-2.498,2.326 -4.897,4.761 -7.183,7.304c-0.18,-1.027 -0.28,-2.046 -0.251,-3.058c0.031,-1.588 0.287,-3.214 0.755,-4.83m11.015,-11.598l0.173,-0.261l-0.04,-0.05c0.328,-0.475 0.654,-0.93 0.992,-1.367c0.152,-0.11 0.637,-0.462 1.316,-0.944l3.027,-2.153c0.712,-0.514 1.467,-0.991 2.129,-1.409c0.115,-0.074 0.227,-0.143 0.338,-0.213c-0.522,0.767 -0.985,1.542 -1.384,2.329c-0.647,1.363 -1.136,2.775 -1.452,4.178c-0.342,1.45 -0.468,2.944 -0.421,4.47c-2.668,2.033 -5.253,4.172 -7.741,6.425c-0.086,-1.373 0,-2.803 0.273,-4.277c0.223,-1.148 0.544,-2.265 0.95,-3.298c0.485,-1.148 1.107,-2.306 1.84,-3.43m11.693,-8.772l4.504,-2.593l2.779,-1.427c-3.023,3.648 -4.16,7.364 -4.389,10.59c-2.93,1.791 -5.771,3.711 -8.522,5.74c0.036,-0.991 0.17,-2.016 0.392,-3.054c0.414,-1.777 0.968,-3.278 1.705,-4.58c1.01,-1.773 2.164,-3.307 3.531,-4.676m9.595,-4.5l0.213,-0.219l-0.03,-0.061c0.41,-0.407 0.824,-0.779 1.212,-1.087c0.004,0 2.449,-1.131 4.908,-2.196l2.757,-1.086c-1.833,1.799 -3.207,3.747 -4.087,5.799c-0.63,1.413 -1.05,2.845 -1.313,4.279c-3.03,1.461 -5.987,3.05 -8.866,4.751c0.427,-3.162 1.829,-6.744 5.206,-10.18m13.184,-6.192l1.553,-0.53c0.323,-0.103 0.68,-0.22 1.06,-0.358c0.727,-0.246 1.546,-0.531 2.374,-0.757l2.994,-0.854c-1.711,1.371 -3.048,2.802 -4.059,4.345c-1.056,1.609 -1.837,3.335 -2.369,5.141c-3.226,1.164 -6.382,2.46 -9.47,3.884c0.241,-0.975 0.546,-1.948 0.971,-2.901c0.662,-1.523 1.535,-2.914 2.591,-4.118c1.044,-1.187 2.493,-2.7 4.355,-3.852m10.354,-2.521l0.252,-0.173l-0.015,-0.044c0.45,-0.273 0.928,-0.543 1.409,-0.8l1.64,-0.382c0.324,-0.068 0.681,-0.152 1.058,-0.241c0.779,-0.187 1.661,-0.399 2.559,-0.537l2.887,-0.519c-3.995,2.594 -6.156,5.874 -7.324,8.791c-3.261,0.81 -6.467,1.756 -9.614,2.835c0.478,-1.338 1.122,-2.627 1.921,-3.836c1.222,-1.83 2.984,-3.543 5.227,-5.094m14.223,-3.371c0,0 2.165,-0.272 2.487,-0.315c0.817,-0.102 1.737,-0.222 2.673,-0.277l3.091,-0.232c-1.892,0.972 -3.516,2.121 -4.842,3.428c-1.357,1.361 -2.473,2.897 -3.355,4.566c-3.409,0.48 -6.77,1.107 -10.081,1.874c1.52,-3.193 4.433,-6.798 10.027,-9.044m10.588,-0.371l0.277,-0.116l0,-0.05c0.561,-0.197 1.093,-0.365 1.538,-0.499l1.675,-0.043c0.336,-0.005 0.713,-0.013 1.112,-0.03c0.5,-0.012 1.042,-0.03 1.596,-0.03c0.32,0 0.65,0.006 0.985,0.018l2.916,0.08c-4.412,1.741 -7.184,4.519 -8.913,7.14c-3.364,0.136 -6.697,0.407 -9.983,0.825c0.739,-1.213 1.621,-2.342 2.642,-3.367c1.657,-1.585 3.725,-2.909 6.155,-3.928m14.59,-0.458l1.579,0.12c0.342,0.031 0.715,0.058 1.116,0.088c0.763,0.052 1.629,0.112 2.479,0.237l3.087,0.389c-2.098,0.588 -3.894,1.377 -5.439,2.399c-1.6,1.065 -2.999,2.348 -4.196,3.8c-2.348,-0.138 -4.709,-0.215 -7.094,-0.215c-1.053,0 -2.102,0.012 -3.148,0.04c2.128,-2.824 5.702,-5.773 11.616,-6.858m10.452,1.746l0.295,-0.06l0.009,-0.05c0.521,-0.074 1.069,-0.137 1.612,-0.187l1.649,0.297c0.339,0.066 0.715,0.128 1.116,0.2c0.772,0.133 1.654,0.282 2.516,0.503l2.866,0.659c-4.692,0.815 -7.961,2.98 -10.182,5.208c-3.28,-0.526 -6.598,-0.926 -9.956,-1.172c0.968,-1.04 2.06,-1.972 3.265,-2.772c1.869,-1.202 4.159,-2.089 6.81,-2.626m13.877,2.474c0.173,0 0.348,0 0.525,0.002l2.229,0.636c0.844,0.241 1.801,0.509 2.754,0.853l2.976,1.01c-2.081,0.137 -4.044,0.539 -5.845,1.229c-1.783,0.724 -3.413,1.701 -4.88,2.887c-3.277,-0.881 -6.611,-1.631 -9.997,-2.228c2.571,-2.27 6.5,-4.389 12.238,-4.389m10.71,3.841l0.022,-0.048c0.585,0.036 1.147,0.088 1.618,0.137l1.575,0.624c1.254,0.477 2.401,0.96 3.393,1.433l2.694,1.215l-0.479,0c-0.682,0 -1.387,0.029 -2.228,0.094c-1.651,0.163 -3.065,0.473 -4.315,0.943c-1.425,0.509 -2.758,1.193 -4.006,2.013c-3.116,-1.184 -6.295,-2.251 -9.531,-3.172c1.159,-0.827 2.416,-1.52 3.753,-2.061c2.13,-0.788 4.423,-1.186 6.814,-1.186l0.69,0.008Zm13.257,5.314l1.477,0.759c0.859,0.418 1.981,1.061 3.15,1.734l2.688,1.549c-0.682,-0.088 -1.406,-0.149 -2.171,-0.17c-0.219,-0.006 -0.431,-0.01 -0.644,-0.01c-1.064,0 -2.121,0.081 -3.135,0.241c-1.832,0.314 -3.628,0.939 -5.357,1.833c-3.042,-1.529 -6.152,-2.931 -9.337,-4.199c0.884,-0.51 1.801,-0.958 2.777,-1.317c1.362,-0.504 2.879,-0.8 4.769,-0.929c0.417,-0.03 0.847,-0.04 1.285,-0.04c0.499,0 1.016,0.015 1.528,0.052c0.995,0.108 2.027,0.29 2.97,0.497m9.233,5.853l0.031,-0.049c0.561,0.151 1.101,0.307 1.614,0.485c0.452,0.287 2.482,1.573 4.396,2.987c0.387,0.277 0.774,0.552 1.151,0.819c0.45,0.315 0.882,0.616 1.27,0.902c-0.082,-0.018 -0.162,-0.04 -0.24,-0.058c-0.832,-0.172 -1.654,-0.304 -2.458,-0.386c-0.696,-0.073 -1.397,-0.106 -2.081,-0.106c-0.779,0 -1.552,0.046 -2.323,0.14c-1.494,0.215 -2.939,0.625 -4.328,1.181c-2.821,-1.801 -5.73,-3.478 -8.706,-5.035c2.159,-0.972 4.482,-1.474 6.934,-1.474c1.441,0 2.938,0.177 4.441,0.524l0.299,0.07Zm11.924,7.857l1.28,1.007l3.182,2.746c0.697,0.601 1.356,1.176 1.899,1.69c-1.844,-0.661 -3.808,-1.046 -5.858,-1.134c-0.258,-0.014 -0.517,-0.024 -0.78,-0.024c-1.559,0 -3.185,0.255 -4.834,0.727c-2.676,-2.121 -5.453,-4.116 -8.306,-5.994c0.974,-0.327 1.963,-0.584 2.98,-0.731c0.752,-0.095 1.514,-0.143 2.269,-0.143c2.797,0 5.573,0.64 8.168,1.856m7.852,7.602l0.047,-0.053c0.529,0.26 1.032,0.515 1.46,0.752l0.446,0.425c0.197,0.188 0.457,0.437 0.74,0.742l2.567,2.691c0.621,0.627 1.277,1.348 1.992,2.173c-2.161,-1.029 -4.462,-1.636 -6.864,-1.822c-0.441,-0.035 -0.876,-0.055 -1.304,-0.055c-1.032,0 -2.1,0.116 -3.186,0.32c-2.406,-2.33 -4.911,-4.556 -7.507,-6.674c1.162,-0.258 2.33,-0.402 3.485,-0.402c0.258,0 0.514,0.007 0.772,0.019c2.506,0.107 4.882,0.695 7.065,1.744l0.287,0.14Zm10.132,10.058l0.285,0.332l2.983,3.797c0.557,0.684 1.074,1.411 1.528,2.059c0.108,0.151 0.205,0.28 0.306,0.427c-0.626,-0.382 -1.259,-0.733 -1.895,-1.045c-1.115,-0.512 -2.293,-0.915 -3.606,-1.234c-1.432,-0.349 -2.863,-0.521 -4.253,-0.521c-0.468,0 -0.932,0.026 -1.395,0.067c-2.201,-2.614 -4.512,-5.132 -6.928,-7.545c0.632,-0.073 1.266,-0.129 1.884,-0.129c0.384,0 0.776,0.017 1.183,0.051c1.592,0.111 3.206,0.449 4.788,0.986c1.726,0.652 3.477,1.605 5.12,2.755m5.914,8.839l0.248,0.181l0.051,-0.037c0.438,0.33 0.88,0.672 1.312,1.064l2.88,4.484c0.54,0.901 1.064,1.806 1.506,2.568c-0.741,-0.558 -1.496,-1.059 -2.27,-1.509c-1.257,-0.69 -2.638,-1.251 -4.1,-1.669c-1.234,-0.338 -2.495,-0.559 -3.762,-0.644c-0.233,-0.011 -0.46,-0.011 -0.69,-0.017c-1.891,-2.761 -3.897,-5.441 -6.012,-8.027c0.08,-0.005 0.167,-0.005 0.245,-0.005c3.699,0 7.262,1.216 10.592,3.611m8.166,12.127l2.361,4.626l1.291,2.854c-3.571,-3.271 -7.299,-4.549 -10.365,-4.943c-1.633,-3.001 -3.399,-5.917 -5.275,-8.752c1.014,0.1 2.025,0.25 3.017,0.519c3.263,0.857 6.285,2.774 8.971,5.696m4.221,10.036l0.064,-0.028c0.399,0.448 0.751,0.92 1.014,1.265l0.614,1.565c0.125,0.318 0.265,0.67 0.417,1.052c0.292,0.735 0.625,1.559 0.913,2.398l0.953,2.815c-1.73,-1.94 -3.602,-3.415 -5.594,-4.391c-1.381,-0.689 -2.79,-1.19 -4.207,-1.522c-1.298,-3.105 -2.732,-6.133 -4.286,-9.092c2.885,0.561 6.58,2.037 9.902,5.705l0.21,0.233Zm5.744,14.834c0.09,0.332 0.195,0.696 0.308,1.093c0.212,0.73 0.457,1.554 0.634,2.4l0.697,3.027c-1.269,-1.762 -2.628,-3.175 -4.13,-4.277c-1.546,-1.132 -3.237,-2.002 -5.016,-2.625c-0.992,-3.283 -2.121,-6.499 -3.39,-9.656c0.964,0.293 1.913,0.645 2.846,1.114c0.699,0.352 1.382,0.754 2.03,1.182c0.667,0.484 1.325,1.031 1.952,1.623c1.024,0.989 2.516,2.538 3.619,4.539l0.45,1.58Zm1.751,9.142c0.277,0.52 0.525,1.024 0.727,1.449l0.298,1.655c0.049,0.299 0.107,0.632 0.175,0.991c0.147,0.807 0.314,1.724 0.414,2.655l0.374,2.914c-2.388,-4.118 -5.555,-6.44 -8.41,-7.762c-0.64,-3.301 -1.42,-6.548 -2.336,-9.743c1.311,0.546 2.56,1.249 3.732,2.106c1.782,1.349 3.408,3.195 4.817,5.486l0.159,0.257l0.05,-0.008Zm2.625,16.665c0.068,0.81 0.14,1.72 0.143,2.643l0.08,3.099c-0.889,-1.952 -1.949,-3.635 -3.183,-5.012c-1.291,-1.422 -2.772,-2.619 -4.386,-3.582c-0.313,-3.432 -0.762,-6.818 -1.365,-10.16c3.116,1.684 6.568,4.77 8.52,10.468c0,0 0.164,2.203 0.191,2.544m1.697,7.463l-0.025,0l-0.083,-3.537c0,-1.812 -0.18,-4.055 -0.364,-6.426c-0.061,-0.769 -0.122,-1.552 -0.182,-2.358c-0.105,-0.815 -0.206,-1.629 -0.303,-2.429c-0.28,-2.323 -0.55,-4.511 -0.907,-6.253l-0.624,-3.504l0.017,-0.003l-0.097,-0.42l-0.078,-0.427l-0.019,0.004l-0.794,-3.455c-0.381,-1.857 -1.043,-4.12 -1.741,-6.522l-0.568,-1.972l-0.36,-1.068c-0.905,-2.7 -1.764,-5.25 -2.587,-7.201l-1.058,-2.678c-0.248,-0.628 -0.417,-0.975 -0.442,-1.024l-1.632,-3.621c-0.427,-0.994 -0.992,-2.095 -1.589,-3.255l-0.223,-0.437c-0.236,-0.444 -0.465,-0.898 -0.698,-1.359c-0.464,-0.917 -0.945,-1.871 -1.499,-2.782l-2.341,-4.068l-2.642,-4.14c-0.442,-0.696 -0.827,-1.296 -1.147,-1.723l-0.381,-0.534l-2.567,-3.61l-2.51,-3.215l-1.44,-1.815l-1.551,-1.793c-1.772,-2.125 -3.692,-4.129 -5.238,-5.745l-0.686,-0.71c-0.548,-0.594 -1.075,-1.084 -1.497,-1.489c-0.218,-0.197 -0.409,-0.379 -0.578,-0.547l-0.734,-0.699l-0.053,-0.054c-0.047,-0.046 -4.646,-4.505 -9.683,-8.316l-1.886,-1.469c0,0 -2.7,-1.925 -3.1,-2.209c-0.756,-0.543 -1.464,-1.047 -2.125,-1.482l-3.358,-2.153c-0.093,-0.055 -1.414,-0.927 -3.42,-2.054c-0.352,-0.193 -0.722,-0.41 -1.102,-0.633c-0.759,-0.434 -1.579,-0.911 -2.456,-1.386l-4.161,-2.131c-0.935,-0.482 -1.894,-0.916 -2.826,-1.326c-0.484,-0.22 -0.967,-0.43 -1.429,-0.649c-1.633,-0.75 -2.798,-1.249 -3.772,-1.612l-4.114,-1.619l0,0.003c-0.557,-0.215 -1.557,-0.55 -3.371,-1.152c-2.076,-0.687 -5.217,-1.681 -8.424,-2.526c-0.734,-0.167 -1.46,-0.336 -2.186,-0.508c-2.352,-0.557 -4.576,-1.073 -6.389,-1.354l-3.5,-0.613l0.005,-0.023l-0.432,-0.056l-0.423,-0.077l-0.005,0.026l-3.516,-0.45c-1.732,-0.268 -3.886,-0.422 -6.165,-0.584c-0.845,-0.06 -1.711,-0.121 -2.595,-0.195c-0.857,-0.015 -1.716,-0.04 -2.557,-0.065c-1.462,-0.04 -2.876,-0.082 -4.163,-0.082c-0.727,0 -1.418,0.014 -2.043,0.044l-3.545,0.094l0,-0.018l-0.414,0.027l-0.455,0.015l0,0.019l-3.527,0.265c-1.839,0.09 -4.1,0.381 -6.49,0.692c-0.74,0.098 -1.489,0.195 -2.261,0.292c-0.767,0.136 -1.532,0.268 -2.287,0.403c-2.355,0.408 -4.569,0.797 -6.327,1.246l-3.463,0.805l-0.003,-0.017l-0.4,0.114l-0.441,0.105l0.006,0.018l-5.285,1.498c-0.431,0.135 -0.874,0.288 -1.333,0.44c0,0 -1.687,0.575 -2.183,0.735c-0.974,0.332 -1.978,0.667 -2.976,1.04l-4.344,1.711c-0.927,0.349 -1.805,0.752 -2.578,1.111c-0.41,0.19 -0.798,0.368 -1.183,0.535l-2.642,1.194l-0.585,0.297l-0.004,0l-0.368,0.188l-0.402,0.2l0,0.007l-3.154,1.61c-0.776,0.38 -1.613,0.863 -2.498,1.377c-0.352,0.203 -2.092,1.204 -2.092,1.204c-1,0.568 -2.039,1.162 -3.028,1.824l-3.943,2.543l-3.323,2.354c-1.071,0.754 -1.84,1.321 -2.336,1.729l-0.519,0.409l0,-0.003l-0.46,0.363l-0.219,0.172l-2.8,2.216c-0.508,0.445 -1.069,0.925 -1.665,1.439c-1.521,1.304 -3.25,2.781 -4.865,4.39c-1.826,1.677 -3.498,3.44 -4.971,4.995c-0.421,0.442 -0.817,0.863 -1.198,1.262c-1.6,1.773 -2.631,2.995 -2.631,2.995l-0.274,0.328l0.011,0.01c-1.607,1.664 -5.845,7.236 -7.546,9.73c-0.881,1.19 -1.662,2.423 -2.424,3.608l-0.194,0.303c-0.277,0.443 -0.553,0.873 -0.823,1.285c-0.496,0.77 -0.971,1.499 -1.349,2.187l-1.768,3.075l-0.296,0.518l-0.136,0.236l-0.334,0.578l-1.327,2.577c-0.18,0.36 -0.377,0.735 -0.582,1.134c-0.403,0.777 -0.838,1.616 -1.252,2.521l-1.926,4.262c-0.428,0.966 -0.809,1.948 -1.18,2.9c-0.193,0.492 -0.381,0.979 -0.575,1.456l-0.795,2.019l-2.034,6.016l0.007,0c-0.191,0.567 -0.471,1.588 -0.979,3.426c-0.577,2.101 -1.412,5.288 -2.087,8.535c-0.138,0.774 -0.277,1.546 -0.418,2.307c-0.424,2.342 -0.823,4.552 -1.007,6.346l-0.363,2.865c-0.033,0.273 -0.061,0.492 -0.079,0.667l-0.017,0l-0.033,0.426l-0.044,0.437l0.012,0l-0.271,3.527c-0.176,1.701 -0.221,3.798 -0.269,6.015c-0.018,0.904 -0.04,1.824 -0.069,2.778c0.029,0.922 0.051,1.846 0.069,2.747c0.048,2.221 0.093,4.313 0.267,6.002l0.273,3.547l-0.012,0l0.044,0.43l0.033,0.429l0.017,0c0.022,0.175 0.046,0.387 0.079,0.666l0.363,2.854c0.184,1.803 0.583,4.013 1.007,6.357c0.141,0.758 0.28,1.53 0.418,2.315c0.675,3.237 1.51,6.424 2.087,8.525c0.508,1.841 0.788,2.858 0.979,3.428l-0.007,0l2.042,6.034l0.791,2.01c0.19,0.469 0.378,0.953 0.571,1.445c0.371,0.952 0.752,1.937 1.183,2.903l1.923,4.261c0.414,0.903 0.849,1.741 1.252,2.52c0.205,0.398 0.402,0.777 0.586,1.146l1.33,2.578l0.327,0.568l0.432,0.75l1.766,3.07c0.38,0.697 0.855,1.418 1.351,2.192c0.27,0.411 0.546,0.843 0.831,1.288l0.186,0.299c0.762,1.187 1.543,2.419 2.416,3.595c1.709,2.511 5.947,8.079 7.554,9.743l-0.011,0.01l0.274,0.329c0,0 1.031,1.225 2.639,3.009c0.373,0.391 0.769,0.808 1.19,1.253c1.473,1.551 3.145,3.316 4.961,4.982c1.625,1.616 3.354,3.093 4.875,4.401c0.596,0.513 1.157,0.995 1.683,1.458l2.782,2.193l0.417,0.333l0.262,0.206l0,-0.006l0.511,0.405c0.504,0.41 1.273,0.979 2.344,1.733l3.341,2.369l3.919,2.523c0.995,0.67 2.034,1.261 3.034,1.834c0,0 1.74,1.002 2.092,1.201c0.885,0.512 1.722,0.995 2.492,1.372l3.16,1.616l0,0.005l0.377,0.19l0.393,0.196l0.004,0l0.599,0.306l2.636,1.189c0.377,0.163 0.765,0.345 1.179,0.535c0.769,0.356 1.647,0.76 2.571,1.112l4.357,1.713c0.988,0.37 1.992,0.701 2.966,1.034c0.496,0.159 2.183,0.735 2.183,0.735c0.459,0.157 0.902,0.305 1.344,0.445l5.274,1.493l-0.006,0.02l0.441,0.105l0.4,0.111l0.003,-0.016l3.455,0.8c1.766,0.454 3.98,0.843 6.335,1.25c0.755,0.136 1.52,0.271 2.311,0.409c0.748,0.092 1.497,0.188 2.234,0.287c2.393,0.31 4.654,0.602 6.482,0.695l3.538,0.265l0,0.017l0.434,0.014l0.435,0.03l0,-0.019l3.535,0.092c0.635,0.032 1.326,0.045 2.053,0.045c1.287,0 2.701,-0.044 4.163,-0.081c0.841,-0.024 1.7,-0.052 2.578,-0.072c0.863,-0.064 1.729,-0.124 2.574,-0.191c2.279,-0.158 4.433,-0.315 6.159,-0.578l3.522,-0.447l0.005,0.018l0.423,-0.075l0.432,-0.055l-0.005,-0.021l3.492,-0.619c1.821,-0.274 4.045,-0.795 6.397,-1.353c0.726,-0.17 1.452,-0.336 2.199,-0.511c3.194,-0.839 6.335,-1.836 8.411,-2.522c1.814,-0.604 2.814,-0.935 3.371,-1.15l0,0.008l4.106,-1.621c0.982,-0.367 2.147,-0.868 3.78,-1.619c0.462,-0.215 0.945,-0.43 1.429,-0.649c0.932,-0.409 1.891,-0.841 2.826,-1.325l4.164,-2.139c0.874,-0.464 1.694,-0.938 2.453,-1.378c0.38,-0.223 0.75,-0.44 1.099,-0.634c2.028,-1.132 3.351,-2.006 3.431,-2.059l3.35,-2.153c0.659,-0.427 1.369,-0.934 2.125,-1.477c0.4,-0.282 3.113,-2.218 3.113,-2.218l1.871,-1.455c5.039,-3.814 9.638,-8.275 9.685,-8.316l0.061,-0.064l0.729,-0.695c0.166,-0.167 0.357,-0.349 0.575,-0.547c0.422,-0.398 0.949,-0.894 1.493,-1.481l0.69,-0.717c1.546,-1.612 3.466,-3.62 5.235,-5.738l1.567,-1.812l1.427,-1.799l2.517,-3.231l2.56,-3.593l0.374,-0.526c0.327,-0.439 0.712,-1.038 1.154,-1.735l2.653,-4.154l2.326,-4.042c0.558,-0.917 1.039,-1.877 1.503,-2.794c0.233,-0.461 0.462,-0.919 0.698,-1.366l0.223,-0.424c0.597,-1.168 1.162,-2.266 1.582,-3.253l1.639,-3.626c0.022,-0.041 0.194,-0.391 0.442,-1.02l1.054,-2.674c0.827,-1.961 1.686,-4.511 2.591,-7.212l0.363,-1.082l0.565,-1.958c0.698,-2.403 1.36,-4.667 1.741,-6.513l0.794,-3.46l0.019,0.005l0.078,-0.431l0.097,-0.421l-0.017,-0.003l0.619,-3.496c0.362,-1.75 0.632,-3.939 0.912,-6.26c0.097,-0.8 0.198,-1.615 0.305,-2.454c0.058,-0.782 0.119,-1.561 0.18,-2.334c0.184,-2.371 0.364,-4.606 0.36,-6.41l0.087,-3.554l0.025,0l-0.012,-0.432l0.012,-0.43Z" style="fill:#0e294b;fill-rule:nonzero;"/><g><clipPath id="_clip1"><rect x="390.489" y="139.684" width="1.585" height="20.195"/></clipPath><g clip-path="url(#_clip1)"><path d="M390.49,140.607c0.1,6.418 0.201,12.837 0.296,19.249c0.349,0.008 0.698,0.014 1.041,0.022c0.074,-5.704 0.168,-11.401 0.208,-17.104c0.007,-1.065 0.276,-2.272 -0.699,-3.091c-0.282,0.306 -0.565,0.618 -0.846,0.924" style="fill:#2d3853;fill-rule:nonzero;"/></g><path d="M396.888,178.256c-1.25,2.435 -3.429,2.577 -5.612,1.81c-1.156,-0.41 -2.299,-1.021 -3.307,-1.781c-12.855,-9.612 -25.692,-19.263 -38.52,-28.922c-1.533,-1.153 -2.958,-2.531 -2.198,-4.862c0.773,-2.361 2.553,-3.314 4.543,-3.418c1.854,0.052 3.111,1.073 4.409,2.055c8.957,6.754 17.923,13.493 26.9,20.202c3.98,2.972 8.065,5.787 11.99,8.854c1.821,1.423 3.111,3.5 1.795,6.062m-11.815,3.731c1.72,1.348 3.427,3.157 2.137,5.927c-1.216,2.606 -3.407,2.949 -5.766,2.584c-1.815,-0.276 -3.414,-1.155 -4.886,-2.309c-10.565,-8.295 -21.128,-16.591 -31.673,-24.923c-1.875,-1.481 -3.79,-3.194 -2.171,-6.083c1.526,-2.734 3.757,-3.046 6.425,-1.818c2.09,0.962 6.895,5.087 8.864,6.219l0,-0.008c3.293,2.956 6.996,5.265 10.47,7.923c5.512,4.2 11.136,8.221 16.6,12.488m-7.661,17.402c-0.867,1.773 -2.346,2.145 -4,2.085c-2.149,0.156 -3.876,-0.945 -5.557,-2.218c-9.502,-7.209 -19.012,-14.41 -28.528,-21.589c-1.33,-1.005 -2.728,-1.95 -2.399,-4.05c0.329,-2.144 1.915,-2.935 3.536,-3.523c2.358,-0.862 4.401,0.187 6.303,1.572c8.32,6.054 16.64,12.1 24.899,18.236c1.746,1.303 3.69,2.368 4.986,4.327c1.062,1.593 1.694,3.239 0.76,5.16m-10.174,5.719c1.639,1.183 2.876,2.763 2.036,5.212c-0.539,1.565 -1.721,2.77 -3.14,3.321c-2.634,1.036 -4.784,-0.246 -6.807,-1.705c-5.705,-4.125 -11.371,-8.31 -17.057,-12.45c-2.796,-2.041 -5.671,-3.954 -8.4,-6.099c-1.633,-1.288 -2.608,-3.179 -1.848,-5.488c0.753,-2.278 2.251,-3.642 4.584,-3.582c1.109,0.038 2.17,0.194 3.164,0.916c9.148,6.643 18.307,13.255 27.468,19.875m28.48,-34.171c-3.582,-1.884 -4.206,-4.998 -3.784,-8.848c0.075,-0.721 -0.067,-1.473 -0.107,-2.211c-0.343,-0.008 -0.692,-0.015 -1.042,-0.022c-0.51,2.1 0.262,4.364 -0.692,6.843c-3.373,-2.539 -6.432,-5.228 -9.798,-7.268c-3.408,-2.069 -4.785,-4.825 -4.1,-8.988c0.155,-0.968 0.095,-1.973 0.188,-2.948c0.317,-3.493 1.983,-5.63 5.115,-6.368c3.212,-0.758 6.471,-0.341 9.704,-0.557c0.04,-0.515 0.027,-0.388 0.067,-0.909c-4.657,-1.43 -9.166,-0.626 -13.447,1.259c-0.941,-0.574 -0.693,-1.393 -0.706,-2.078c-0.114,-5.868 -0.108,-5.868 -5.289,-5.875c-2.46,0 -4.92,0.007 -7.379,0l-16.997,-0.752c-3.318,0 -2.66,-8.884 -5.712,-7.864c-0.644,0.067 -1.29,0.03 -1.935,-0.09c-1.055,-0.134 -1.68,-1.042 -1.64,-1.972c-0.046,-0.239 -0.073,-0.455 -0.073,-0.745c-0.021,0 -0.102,-0.038 -0.564,-0.097l0,-0.052l0,-0.082l-0.015,0c-0.497,1.437 -0.322,2.763 0.404,3.924c1.075,0.938 2.104,-0.156 3.058,1.266c1.659,2.413 1.659,2.919 2.466,5.205c0.518,1.467 0.302,1.742 1.284,1.81c9.073,0.655 19.153,1.489 28.662,1.154c0.981,-0.037 2.144,-0.045 2.211,1.564c0.262,6.121 -0.537,12.145 -0.894,18.176c-1.531,0.03 -2.15,-0.759 -2.876,-1.288c-5.477,-4.058 -10.88,-8.25 -16.458,-12.145c-3.219,-2.249 -7.084,-1.206 -8.911,1.921c-1.701,2.911 -0.921,5.228 2.91,8.139c7.923,6.032 15.88,12.004 23.83,17.983c0.975,0.73 2.305,1.155 1.842,3.068c-1.486,0.007 -2.426,-1.124 -3.489,-1.913c-4.133,-3.053 -8.823,-6.717 -13.003,-9.725c-0.955,-0.67 -2.736,-2.093 -4.517,-3.448c-1.787,-1.348 -3.568,-2.629 -4.536,-3.023c-3.38,-1.356 -6.788,-0.128 -8.111,2.925c-1.25,2.89 -0.384,4.967 2.963,7.589c9.772,7.64 19.51,15.317 29.261,22.987c0.867,0.678 2.097,1.2 1.042,2.965c-0.599,-0.374 -1.197,-0.678 -1.741,-1.073c-8.179,-6.054 -16.358,-12.108 -24.523,-18.178c-1.882,-1.399 -3.817,-2.628 -6.162,-2.613c-2.91,0.008 -5.363,1.132 -6.465,4.274c-1.136,3.247 1.23,4.699 3.152,6.151c7.929,6.009 15.914,11.944 23.85,17.946c1.21,0.909 2.702,1.534 3.515,3.173c-2.036,1.161 -3.461,0.223 -4.886,-0.805c-6.458,-4.669 -12.964,-9.256 -19.361,-14.014c-2.917,-2.167 -5.807,-3.388 -8.986,-0.998c-3.038,2.279 -2.755,5.578 -1.687,8.869c-1.525,0.766 -4.825,2.345 -6.229,3.053c-0.518,0.573 -0.713,1.579 0,1.921c3.488,-2.815 7.89,-3.559 13.3,0.29c4.133,2.942 8.246,5.927 12.345,8.921c2.923,2.145 5.82,4.334 9.173,6.836c-0.188,0.089 -0.369,0.171 -0.55,0.253c0.013,0.038 0.019,0.075 0.033,0.112c0.806,0.298 1.619,0.603 2.426,0.893c0.746,-0.119 1.492,-0.208 2.251,-0.245c3.153,-0.142 5.464,-1.46 6.499,-4.714c1.042,-3.277 -0.631,-5.391 -3.091,-6.932c-0.363,-0.232 -0.767,-0.53 -0.551,-1.608c3.965,0.066 8.487,2.814 11.955,-1.685c0.181,-0.579 0.37,-1.16 0.558,-1.742c0.605,-2.933 -1.976,-4.675 -2.507,-7.609c2.675,0.454 4.974,1.496 7.413,1.22c5.947,-3.551 6.169,-7.669 0.584,-12.055c-2.95,-2.316 -5.96,-4.535 -9.072,-6.896c1.888,-1.779 2.776,0.179 3.918,0.581c1.74,0.603 3.252,1.825 4.617,3.165c4.039,3.977 8.199,6.649 12.762,3.783c0.517,-0.901 1.142,-2.011 1.653,-2.919c0.161,-2.993 -0.799,-5.653 -3.125,-6.865" style="fill:#2d3853;fill-rule:nonzero;"/><path d="M359.757,215.838c0.658,-0.126 1.317,-0.253 1.984,-0.358c0.04,-0.014 0.08,-0.022 0.114,-0.022c-0.808,-0.29 -1.621,-0.595 -2.427,-0.893c0.174,0.7 0.121,0.484 0.329,1.273" style="fill:#2d3853;fill-rule:nonzero;"/><path d="M359.428,214.565c-0.054,-0.023 -0.101,-0.037 -0.155,-0.06c-3.091,1.37 -6.062,1.974 -7.876,4.774c0.221,0.276 0.437,0.551 0.658,0.818c2.891,-2.531 6.163,-4.043 9.685,-4.616c-0.665,0.105 -1.325,0.231 -1.983,0.357c-0.208,-0.788 -0.155,-0.572 -0.329,-1.273" style="fill:#2d3853;fill-rule:nonzero;"/><path d="M355.684,115.318c0,-0.014 -0.013,-0.037 -0.033,-0.037c-3.998,-0.126 -8.225,-0.916 -12.668,-1.02l-8.447,-0.305c-0.007,0 -0.007,0 -0.013,-0.008c-2.205,-0.99 -4.242,-2.903 -4.248,-5.987c0,-1.549 -0.336,-2.748 -1.189,-3.484c-0.014,-0.008 -0.014,-0.023 -0.014,-0.038c0.376,-0.997 0.82,-1.661 1.324,-2.033c0.013,-0.007 0.013,-0.022 0.013,-0.037c-0.265,-0.638 -0.656,-1.145 -1.566,-5.272c0,-0.007 -0.007,-0.015 -0.014,-0.023c-0.853,-0.744 -1.646,-1.66 -1.189,-3.238l0,-0.016l-0.376,-2.933c-0.242,0.104 -0.478,0.193 -0.719,0.297l0.067,0l0,0.73l-0.242,0c0.007,0.09 0.014,0.178 0.014,0.268c0.081,4.945 0.995,9.852 1.169,14.781c0.175,-0.253 0.477,-0.38 1.096,-0.171c0.06,0.522 0.168,1.102 0.18,1.683c0.116,5.413 2.494,7.909 7.454,8.02l1.358,0.037l0,-0.022l4.468,0c0.874,-0.246 1.909,-0.283 3.132,0l-3.132,0c-0.147,0.037 -0.295,0.089 -0.43,0.141l11.022,0.313c1.505,0.075 1.518,0.075 3.003,0.037c0.021,0 0.035,-0.021 0.035,-0.044c-0.081,-0.611 -0.081,-0.641 -0.055,-1.639" style="fill:#2d3853;fill-rule:nonzero;"/><path d="M350.866,220.053c0.195,0.297 0.389,0.589 0.591,0.886c0.202,-0.283 0.404,-0.558 0.599,-0.841c-0.222,-0.268 -0.437,-0.544 -0.659,-0.82c-0.182,0.261 -0.357,0.514 -0.531,0.775" style="fill:#2d3853;fill-rule:nonzero;"/><path d="M350.866,220.053c-1.444,2.062 -1.761,4.482 -1.807,6.992c-0.062,3.463 -0.283,6.934 -0.135,10.381c0.013,0.267 0.007,0.64 0.007,0.885l1.23,0c-0.101,-5.778 -0.585,-11.757 1.296,-17.372c-0.202,-0.297 -0.396,-0.589 -0.591,-0.886" style="fill:#2d3853;fill-rule:nonzero;"/><path d="M342.109,116.51l3.132,0c-1.223,-0.283 -2.258,-0.246 -3.132,0" style="fill:#2d3853;fill-rule:nonzero;"/><path d="M337.64,116.532l4.039,0.119c0.135,-0.052 0.283,-0.103 0.43,-0.142l-4.469,0l0,0.023Z" style="fill:#2d3853;fill-rule:nonzero;"/><path d="M337.526,121.313c0.189,-0.008 0.383,0.015 0.565,0.074l0,0.156c0.006,0 0.006,-0.007 0.013,-0.022c0.464,-0.647 1.775,-4.05 3.199,-4.713c0.121,-0.06 0.249,-0.112 0.376,-0.157l-4.039,-0.119c-0.04,1.594 -0.08,3.187 -0.114,4.781" style="fill:#2d3853;fill-rule:nonzero;"/><path d="M337.795,121.35c-0.074,-0.008 -0.161,-0.022 -0.269,-0.037l0,0.134c0.464,0.059 0.545,0.096 0.565,0.096l0,-0.156c-0.027,0.037 0.04,0.015 -0.296,-0.037" style="fill:#2d3853;fill-rule:nonzero;"/><path d="M338.091,121.387l-0.296,-0.037c0.336,0.053 0.269,0.075 0.296,0.037" style="fill:#2d3853;fill-rule:nonzero;"/><path d="M337.795,121.35l0.296,0.037c-0.182,-0.059 -0.376,-0.082 -0.565,-0.074c0.108,0.015 0.195,0.029 0.269,0.037" style="fill:#2d3853;fill-rule:nonzero;"/><rect x="323.185" y="83.412" width="11.109" height="5.001" style="fill:#2d3853;"/><path d="M326.525,91.192c-0.007,0.007 -0.013,0.007 -0.02,0.023c-0.068,0.126 -0.108,0.267 -0.148,0.417c0.006,0.096 0.014,0.185 0.014,0.282l0.241,0l0,-0.73l-0.067,0c-0.007,0 -0.013,0.008 -0.02,0.008" style="fill:#2d3853;fill-rule:nonzero;"/><path d="M325.268,91.914l1.103,0c0,-0.097 -0.008,-0.186 -0.014,-0.283c0.04,-0.149 0.08,-0.29 0.148,-0.417c0.006,-0.015 0.013,-0.015 0.02,-0.022c0.006,0 0.013,-0.007 0.02,-0.007l-1.277,0l0,0.729Z" style="fill:#2d3853;fill-rule:nonzero;"/><path d="M315.443,193.469c-2.729,2.144 -5.605,4.059 -8.408,6.099c-5.684,4.14 -11.35,8.325 -17.049,12.451c-2.029,1.459 -4.18,2.74 -6.808,1.705c-1.425,-0.552 -2.601,-1.758 -3.139,-3.321c-0.846,-2.451 0.391,-4.029 2.03,-5.213c9.161,-6.621 18.327,-13.233 27.466,-19.875c0.995,-0.722 2.057,-0.879 3.173,-0.916c2.332,-0.059 3.831,1.303 4.576,3.582c0.766,2.308 -0.208,4.2 -1.841,5.488m-33.985,5.868c-1.687,1.273 -3.414,2.376 -5.558,2.22c-1.66,0.059 -3.139,-0.314 -3.999,-2.086c-0.94,-1.92 -0.302,-3.567 0.753,-5.16c1.304,-1.959 3.246,-3.024 4.993,-4.326c8.26,-6.137 16.58,-12.183 24.893,-18.237c1.909,-1.385 3.944,-2.435 6.303,-1.571c1.621,0.588 3.206,1.377 3.542,3.515c0.323,2.106 -1.075,3.053 -2.399,4.058c-9.523,7.178 -19.026,14.379 -28.528,21.587m-13.589,-8.757c-2.365,0.365 -4.55,0.023 -5.766,-2.584c-1.291,-2.771 0.41,-4.579 2.131,-5.927c5.469,-4.267 11.095,-8.288 16.598,-12.496c3.482,-2.65 7.185,-4.959 10.471,-7.915l0,0.007c1.97,-1.131 6.781,-5.257 8.864,-6.217c2.675,-1.229 4.9,-0.916 6.432,1.816c1.62,2.89 -0.296,4.602 -2.17,6.084c-10.545,8.333 -21.116,16.628 -31.681,24.923c-1.472,1.155 -3.071,2.034 -4.879,2.309m-6.526,-12.212c-1.008,0.76 -2.15,1.37 -3.306,1.779c-2.184,0.768 -4.361,0.626 -5.618,-1.809c-1.318,-2.561 -0.027,-4.639 1.801,-6.061c3.925,-3.069 8.004,-5.883 11.989,-8.854c8.979,-6.718 17.943,-13.456 26.895,-20.202c1.304,-0.984 2.561,-2.011 4.409,-2.063c1.996,0.111 3.777,1.065 4.543,3.425c0.759,2.331 -0.659,3.708 -2.19,4.862c-12.837,9.659 -25.666,19.309 -38.523,28.923m63.784,19.785c-0.712,-0.343 -0.517,-1.348 0,-1.921c-1.64,-0.819 -5.383,-2.071 -7.178,-2.971c1.07,-3.292 1.351,-6.59 -1.687,-8.869c-3.177,-2.39 -6.068,-1.169 -8.985,0.997c-6.398,4.759 -12.903,9.346 -19.361,14.008c-1.425,1.034 -2.849,1.973 -4.886,0.811c0.814,-1.639 2.312,-2.263 3.515,-3.172c7.937,-6.001 15.921,-11.936 23.858,-17.946c1.915,-1.452 4.28,-2.904 3.145,-6.151c-1.096,-3.142 -3.556,-4.267 -6.458,-4.282c-2.353,-0.007 -4.288,1.222 -6.163,2.622c-8.172,6.068 -16.351,12.122 -24.529,18.169c-0.545,0.402 -1.143,0.707 -1.741,1.079c-1.055,-1.765 0.181,-2.285 1.041,-2.963c9.752,-7.67 19.496,-15.347 29.261,-22.987c3.347,-2.621 4.214,-4.698 2.964,-7.588c-1.324,-3.053 -4.731,-4.282 -8.105,-2.926c-1.942,0.781 -7.131,5.122 -9.052,6.471c-4.187,3.008 -8.871,6.671 -13.011,9.725c-1.062,0.789 -1.996,1.921 -3.489,1.913c-0.456,-1.913 0.874,-2.338 1.849,-3.067c7.944,-5.98 15.9,-11.96 23.824,-17.984c3.838,-2.912 4.61,-5.228 2.91,-8.139c-1.829,-3.128 -5.685,-4.17 -8.912,-1.921c-5.571,3.887 -10.974,8.086 -16.458,12.145c-0.719,0.529 -1.337,1.318 -2.877,1.289c-0.349,-6.032 -1.154,-12.057 -0.886,-18.177c0.067,-1.609 1.222,-1.602 2.211,-1.565c9.51,0.336 19.59,-0.498 28.663,-1.153c0.973,-0.067 0.758,-0.343 1.276,-1.817c0.807,-2.279 0.807,-2.786 2.474,-5.198c0.954,-1.422 1.975,-0.328 3.051,-1.266c0.725,-1.162 0.9,-2.569 0.409,-4.006c-0.659,0.081 -0.544,0.12 -0.584,0.075c0.006,0.372 -0.02,0.7 -0.075,0.982c0.041,0.931 -0.584,1.84 -1.639,1.966c-0.639,0.127 -1.283,0.164 -1.935,0.097c-3.052,-1.02 -2.393,7.863 -5.713,7.863l-16.989,0.752c-2.46,0.008 -4.92,0 -7.379,0c-5.188,0.008 -5.182,0.008 -5.288,5.875c-0.015,0.686 0.234,1.505 -0.714,2.079c-4.273,-1.884 -8.79,-2.689 -13.447,-1.259c0,0.037 0.007,0.074 0.007,0.105c0.255,0.275 0.518,0.565 0.773,0.84c2.997,0.127 6.015,-0.185 8.992,0.522c3.132,0.729 4.805,2.874 5.121,6.359c0.087,0.983 0.026,1.989 0.187,2.957c0.686,4.162 -0.699,6.917 -4.099,8.98c-3.373,2.048 -6.431,4.736 -9.805,7.267c-0.954,-2.471 -0.174,-4.743 -0.692,-6.835c-0.35,0.007 -0.693,0.015 -1.042,0.022c-0.04,0.737 -0.182,1.489 -0.101,2.212c0.417,3.849 -0.201,6.962 -3.79,8.839c-2.318,1.221 -3.286,3.879 -3.118,6.872c0.511,0.909 1.136,2.019 1.646,2.919c4.563,2.868 8.724,0.195 12.769,-3.782c1.364,-1.341 2.869,-2.562 4.611,-3.165c1.149,-0.402 2.036,-2.361 3.924,-0.58c-3.111,2.36 -6.129,4.579 -9.08,6.895c-5.578,4.386 -5.362,8.503 0.593,12.056c2.432,0.275 4.737,-0.768 7.412,-1.222c-0.531,2.935 -3.119,4.677 -2.507,7.611c0.181,0.581 0.37,1.161 0.558,1.742c3.468,4.498 7.991,1.75 11.948,1.682c0.222,1.081 -0.187,1.379 -0.55,1.609c-2.453,1.542 -4.133,3.657 -3.091,6.933c1.035,3.254 3.346,4.573 6.505,4.714c0.766,0.038 1.512,0.126 2.258,0.245c0.813,-0.304 1.613,-0.602 2.426,-0.9c0.007,-0.031 0.02,-0.068 0.027,-0.105c-0.189,-0.082 -0.37,-0.163 -0.552,-0.252c3.348,-2.503 6.244,-4.692 9.174,-6.836c4.1,-2.994 8.206,-5.98 12.339,-8.922c6.015,-4.282 8.595,-4.304 12.903,-0.298c-0.027,-0.104 2.198,0 1.344,-0.074" style="fill:#2d3853;fill-rule:nonzero;"/><rect x="323.615" y="91.185" width="1.654" height="0.729" style="fill:#2d3853;fill-rule:nonzero;"/><rect x="323.615" y="86.329" width="1.654" height="4.855" style="fill:#2d3853;fill-rule:nonzero;"/><rect x="323.615" y="85.496" width="1.654" height="0.834" style="fill:#2d3853;fill-rule:nonzero;"/><rect x="323.615" y="82.45" width="1.654" height="3.046" style="fill:#2d3853;fill-rule:nonzero;"/><path d="M322.963,91.549c-0.007,0.127 -0.013,0.246 -0.013,0.365l0.665,0l0,-0.73l-0.773,0c0.054,0.112 0.094,0.239 0.121,0.365" style="fill:#2d3853;fill-rule:nonzero;"/><rect x="314.28" y="83.412" width="11.418" height="5.001" style="fill:#2d3853;"/><path d="M322.566,91.184l0,0.73l0.383,0c0,-0.119 0.007,-0.238 0.013,-0.365c-0.026,-0.126 -0.066,-0.253 -0.119,-0.365l-0.277,0Z" style="fill:#2d3853;fill-rule:nonzero;"/><path d="M322.566,91.184l0.277,0c-0.008,-0.021 -0.015,-0.037 -0.021,-0.052c-0.007,-0.007 -0.014,-0.014 -0.02,-0.022c-0.249,-0.104 -0.497,-0.201 -0.739,-0.305l-0.384,2.934c0,0.007 0,0.007 0.007,0.014c0.457,1.579 -0.343,2.495 -1.196,3.24c-0.007,0.007 -0.007,0.014 -0.007,0.022c-0.39,1.831 -0.907,3.612 -1.566,5.272c-0.006,0.015 0,0.03 0.014,0.045c0.498,0.364 0.941,1.027 1.317,2.025c0.007,0.015 0,0.03 -0.006,0.037c-0.861,0.738 -1.197,1.936 -1.197,3.485c0,3.083 -2.037,4.997 -4.24,5.988c-0.007,0.006 -0.014,0.006 -0.014,0.006l-8.447,0.306c-4.442,0.105 -8.67,0.894 -12.676,1.021c-0.013,0 -0.026,0.021 -0.026,0.037c0.026,0.997 0.026,1.027 -0.054,1.638c0,0.022 0.014,0.045 0.034,0.045c1.485,0.037 1.492,0.037 2.997,-0.038l11.176,-0.32c-0.175,-0.067 -0.363,-0.134 -0.551,-0.186l-3.158,0c1.236,-0.291 2.278,-0.246 3.158,0l4.443,0l0,0.075l1.356,-0.038c4.954,-0.112 7.339,-2.606 7.447,-8.02c0.013,-0.58 0.128,-1.162 0.188,-1.683c0.618,-0.208 0.921,-0.082 1.095,0.172c0.176,-4.93 1.09,-9.837 1.169,-14.782c0,-0.06 0,-0.126 0.007,-0.186l-0.383,0l0,-0.73Z" style="fill:#2d3853;fill-rule:nonzero;"/><path d="M307.795,116.562c0.081,0.037 0.154,0.067 0.228,0.104c1.425,0.67 2.736,4.074 3.193,4.721c0.195,-0.059 0.389,-0.082 0.584,-0.074c-0.04,-1.623 -0.073,-3.239 -0.114,-4.863l-3.891,0.112Z" style="fill:#2d3853;fill-rule:nonzero;"/><path d="M311.8,121.313c-0.195,-0.008 -0.389,0.015 -0.584,0.074c0.04,0.045 -0.075,0.008 0.584,-0.074" style="fill:#2d3853;fill-rule:nonzero;"/><path d="M307.795,116.562l3.891,-0.112l0,-0.074l-4.442,0c0.188,0.052 0.377,0.119 0.551,0.186" style="fill:#2d3853;fill-rule:nonzero;"/><path d="M304.085,116.376l3.159,0c-0.88,-0.246 -1.922,-0.29 -3.159,0" style="fill:#2d3853;fill-rule:nonzero;"/><path d="M300.248,227.127c-0.04,-2.509 -0.356,-4.929 -1.808,-6.992c-0.195,0.298 -0.389,0.588 -0.584,0.886c1.948,5.815 1.35,11.832 1.276,17.805c0.424,0.119 0.861,0.223 1.298,0.312c-0.061,-0.468 -0.074,-1.013 -0.048,-1.631c0.148,-3.447 -0.074,-6.917 -0.134,-10.38" style="fill:#2d3853;fill-rule:nonzero;"/><path d="M297.251,220.18c0.202,0.282 0.403,0.559 0.604,0.841c0.195,-0.298 0.391,-0.588 0.585,-0.886c-0.174,-0.261 -0.35,-0.514 -0.524,-0.774c-0.222,0.275 -0.443,0.544 -0.665,0.819" style="fill:#2d3853;fill-rule:nonzero;"/><path d="M290.033,214.588c-0.047,0.014 -0.094,0.037 -0.141,0.051c-0.189,0.707 -0.128,0.492 -0.336,1.281c-0.699,-0.134 -1.391,-0.268 -2.09,-0.379c3.562,0.566 6.861,2.077 9.785,4.639c0.222,-0.276 0.444,-0.544 0.665,-0.819c-1.814,-2.807 -4.792,-3.403 -7.883,-4.773" style="fill:#2d3853;fill-rule:nonzero;"/><path d="M289.556,215.92c0.208,-0.79 0.147,-0.574 0.336,-1.281c-0.813,0.298 -1.613,0.596 -2.426,0.901c0.699,0.112 1.391,0.246 2.09,0.38" style="fill:#2d3853;fill-rule:nonzero;"/><path d="M258.044,139.847c-0.027,-0.029 -0.048,-0.052 -0.074,-0.082c-0.968,0.819 -0.699,2.025 -0.692,3.091c0.033,5.696 0.127,11.4 0.201,17.104c0.35,-0.008 0.693,-0.015 1.042,-0.022c0.101,-6.412 0.202,-12.831 0.296,-19.249c-0.235,-0.008 -0.471,-0.023 -0.706,-0.038c-0.04,-0.484 -0.034,-0.402 -0.067,-0.804" style="fill:#2d3853;fill-rule:nonzero;"/><path d="M258.111,140.651c0.235,0.015 0.47,0.03 0.705,0.037c-0.255,-0.275 -0.517,-0.565 -0.772,-0.84c0.034,0.401 0.027,0.32 0.067,0.803" style="fill:#413f3d;fill-rule:nonzero;"/></g><path d="M349.918,238.112l-0.969,0.15c-0.032,0.003 -0.027,0.046 -0.059,0.049l-49.219,0c-0.291,0 -0.527,0.262 -0.527,0.585c0,0.324 0.236,0.584 0.527,0.584l49.966,0c0.292,0 0.529,-0.262 0.527,-0.587l-0.003,-0.664l-0.243,-0.117Z" style="fill:#2d3853;fill-rule:nonzero;"/><path d="M298.501,116.372l7.822,8.287" style="fill:none;stroke:#2d3853;stroke-width:2.08px;"/><path d="M303.631,121.826l4.378,-5.762" style="fill:none;stroke:#2d3853;stroke-width:2.08px;"/><path d="M348.421,116.372l-6.534,8.789" style="fill:none;stroke:#2d3853;stroke-width:2.08px;"/><path d="M344.248,121.985l-4.713,-4.662" style="fill:none;stroke:#2d3853;stroke-width:2.08px;"/><path d="M318.868,111.215l-22.895,1.365l0.052,2.48" style="fill:none;stroke:#2d3853;stroke-width:2.08px;"/><path d="M311.182,111.697l0,2.482" style="fill:none;stroke:#2d3853;stroke-width:2.08px;"/><path d="M305.713,111.836l0,3.224" style="fill:none;stroke:#2d3853;stroke-width:2.08px;"/><path d="M302.959,112.042l0,2.829" style="fill:none;stroke:#2d3853;stroke-width:2.08px;"/><path d="M300.556,112.44l0,3.225" style="fill:none;stroke:#2d3853;stroke-width:2.08px;"/><path d="M297.965,112.58l0,3.225" style="fill:none;stroke:#2d3853;stroke-width:2.08px;"/><path d="M329.922,111.455l23.865,1.28l0,2.445" style="fill:none;stroke:#2d3853;stroke-width:2.08px;"/><path d="M335.066,114.41l-0.2,-2.603" style="fill:none;stroke:#2d3853;stroke-width:2.08px;"/><path d="M338.127,111.956l0,2.482" style="fill:none;stroke:#2d3853;stroke-width:2.08px;"/><path d="M343.596,112.095l0,3.225" style="fill:none;stroke:#2d3853;stroke-width:2.08px;"/><path d="M346.35,112.302l0,2.828" style="fill:none;stroke:#2d3853;stroke-width:2.08px;"/><path d="M348.753,112.406l0,3.224" style="fill:none;stroke:#2d3853;stroke-width:2.08px;"/><path d="M351.343,112.567l0,3.224" style="fill:none;stroke:#2d3853;stroke-width:2.08px;"/><path d="M318.713,93.405l2.726,0l3.149,-2.746l-8.849,0l2.974,2.746Z" style="fill:#2d3853;fill-rule:nonzero;stroke:#2d3853;stroke-width:2.08px;"/><path d="M306.457,97.22l4.08,0" style="fill:none;stroke:#2d3853;stroke-width:2.08px;"/><path d="M308.497,93.439c-1.011,0 -1.83,0.847 -1.83,1.891c0,1.044 0.819,1.89 1.83,1.89c1.011,0 1.831,-0.846 1.831,-1.89c0,-1.044 -0.82,-1.891 -1.831,-1.891Z" style="fill:none;stroke:#2d3853;stroke-width:2.08px;"/><path d="M308.497,97.22l-0.977,16.972" style="fill:none;stroke:#2d3853;stroke-width:2.08px;"/><path d="M308.497,97.22l1.236,16.837" style="fill:none;stroke:#2d3853;stroke-width:2.08px;"/><path d="M316.652,90.693l-6.434,5.15" style="fill:none;stroke:#2d3853;stroke-width:2.08px;"/><path d="M342.918,97.22l-4.08,0" style="fill:none;stroke:#2d3853;stroke-width:2.08px;"/><path d="M340.879,93.439c-1.011,0 -1.831,0.847 -1.831,1.891c0,1.044 0.82,1.89 1.831,1.89c1.011,0 1.83,-0.846 1.83,-1.89c0,-1.044 -0.819,-1.891 -1.83,-1.891Z" style="fill:none;stroke:#2d3853;stroke-width:2.08px;"/><path d="M340.879,97.22l1.013,17.219" style="fill:none;stroke:#2d3853;stroke-width:2.08px;"/><path d="M340.879,97.616l-1.236,16.836" style="fill:none;stroke:#2d3853;stroke-width:2.08px;"/><path d="M332.657,90.693l6.515,5.173" style="fill:none;stroke:#2d3853;stroke-width:2.08px;"/><rect x="318.191" y="72.324" width="12.5" height="18.796" style="fill:#2d3853;"/><rect x="322.358" y="63.807" width="4.167" height="27.313" style="fill:#2d3853;"/><path d="M317.76,108.926c-0.612,0 -1.108,0.513 -1.108,1.145c0,0.632 0.496,1.144 1.108,1.144c0.612,0 1.108,-0.512 1.108,-1.144c0,-0.632 -0.496,-1.145 -1.108,-1.145Z" style="fill:none;stroke:#2d3853;stroke-width:2.08px;"/><path d="M331.548,108.926c-0.612,0 -1.108,0.513 -1.108,1.145c0,0.632 0.496,1.144 1.108,1.144c0.613,0 1.109,-0.512 1.109,-1.144c0,-0.632 -0.496,-1.145 -1.109,-1.145Z" style="fill:none;stroke:#2d3853;stroke-width:2.08px;"/><path d="M317.511,108.926l4.175,-15.577" style="fill:none;stroke:#2d3853;stroke-width:2.08px;"/><path d="M327.561,93.349l3.987,15.577" style="fill:none;stroke:#2d3853;stroke-width:2.08px;"/><path d="M345.154,132.376l6.189,-1.893l-5.937,0l-0.252,1.893Z" style="fill:#2d3853;fill-rule:nonzero;stroke:#2d3853;stroke-width:2.08px;"/><path d="M344.749,130.483l6.594,0l0,2.699" style="fill:none;stroke:#2d3853;stroke-width:2.08px;"/><path d="M344.111,128.754l6.361,0.173" style="fill:none;stroke:#2d3853;stroke-width:2.08px;"/><path d="M350.329,128.901l0,1.675" style="fill:none;stroke:#2d3853;stroke-width:2.08px;"/><path d="M348.847,128.901l0,1.675" style="fill:none;stroke:#2d3853;stroke-width:2.08px;"/><path d="M347.539,128.994l0,1.675" style="fill:none;stroke:#2d3853;stroke-width:2.08px;"/><path d="M346.35,128.808l0,1.675" style="fill:none;stroke:#2d3853;stroke-width:2.08px;"/><path d="M298.501,130.011l6.189,1.892l-0.251,-1.892l-5.938,0Z" style="fill:#2d3853;fill-rule:nonzero;stroke:#2d3853;stroke-width:2.08px;"/><path d="M304.275,130.011l-5.686,0l0,2.699" style="fill:none;stroke:#2d3853;stroke-width:2.08px;"/><path d="M305.779,128.435l-6.734,0.151" style="fill:none;stroke:#2d3853;stroke-width:2.08px;"/><path d="M298.871,128.428l0,1.676" style="fill:none;stroke:#2d3853;stroke-width:2.08px;"/><path d="M304.275,128.342l0,1.676" style="fill:none;stroke:#2d3853;stroke-width:2.08px;"/><path d="M302.959,128.428l0,1.676" style="fill:none;stroke:#2d3853;stroke-width:2.08px;"/><path d="M301.595,128.428l0,1.676" style="fill:none;stroke:#2d3853;stroke-width:2.08px;"/><path d="M300.009,128.715l0,1.675" style="fill:none;stroke:#2d3853;stroke-width:2.08px;"/><path d="M324.142,90.716l-2.619,2.633" style="fill:none;stroke:#2d3853;stroke-width:2.08px;"/><path d="M327.135,93.405l2.727,0l2.973,-2.746l-8.849,0l3.149,2.746Z" style="fill:#2d3853;fill-rule:nonzero;stroke:#2d3853;stroke-width:2.08px;"/><path d="M340.879,112.042l0,2.151" style="fill:none;stroke:#2d3853;stroke-width:2.08px;"/><path d="M308.497,111.774l0,2.664" style="fill:none;stroke:#2d3853;stroke-width:2.08px;"/><path d="M314.092,111.5l0,2.557" style="fill:none;stroke:#2d3853;stroke-width:2.08px;"/><g transform="matrix(0.952034,0,0,0.952034,182.469,15.4727)"><g transform="matrix(0.902498,0,0,1,12.5172,0)"><path d="M155.584,205.115l-5.55,20.757l-3.924,0l-4.136,-15.268l-3.756,15.268l-3.848,0l-5.672,-20.757l3.969,0l4.015,15.131l3.741,-15.131l3.786,0l4.137,15.131l3.938,-15.131l3.3,0Z" style="fill:#2d3853;fill-rule:nonzero;"/></g><g transform="matrix(0.902498,0,0,1,14.6916,0)"><path d="M169.14,225.872l-3.953,0l-3.224,-8.531l-5.262,0l0,8.531l-3.741,0l0,-20.757l9.003,0c2.504,0 4.344,0.565 5.52,1.695c1.176,1.131 1.764,2.593 1.764,4.387c0,2.667 -1.247,4.502 -3.741,5.505l3.634,9.17Zm-12.439,-11.527l4.653,0c1.349,0 2.352,-0.284 3.011,-0.851c0.659,-0.568 0.989,-1.349 0.989,-2.342c0,-0.913 -0.325,-1.65 -0.973,-2.213c-0.649,-0.563 -1.557,-0.844 -2.722,-0.844l-4.958,0l0,6.25Z" style="fill:#2d3853;fill-rule:nonzero;"/></g></g><path d="M235.774,91.334c0.392,0.163 1.016,0.406 1.873,0.73c0.856,0.324 1.475,0.557 1.857,0.701c0.85,0.308 1.448,0.531 1.795,0.671c0.259,0.107 0.653,0.26 1.182,0.459c0.572,0.209 1.054,0.395 1.447,0.558l0.024,-0.032c-0.489,-0.647 -0.891,-1.187 -1.203,-1.619c-0.876,-1.249 -1.643,-2.308 -2.304,-3.176c-0.235,-0.304 -0.427,-0.565 -0.576,-0.782c-0.302,-0.446 -0.508,-0.78 -0.617,-1l-0.623,0.89l-0.526,-0.401l1.672,-2.189l0.394,0.301c-0.166,0.283 -0.256,0.524 -0.27,0.724c-0.014,0.2 0.053,0.439 0.201,0.716c0.147,0.278 0.419,0.694 0.816,1.247l1.397,1.937c1.496,2.053 2.644,3.663 3.442,4.83l-0.247,0.324l-7.932,-2.865l4.943,6.779l-0.239,0.313l-7.83,-2.923l-0.573,-0.216c-0.729,-0.284 -1.195,-0.474 -1.398,-0.572l-0.437,0.622l-0.526,-0.401l2.001,-2.621l0.394,0.301c-0.209,0.307 -0.314,0.557 -0.316,0.749c-0.002,0.192 0.101,0.367 0.308,0.525c0.191,0.146 0.45,0.287 0.775,0.422c0.633,0.278 1.362,0.561 2.188,0.85c0.147,0.056 0.321,0.121 0.523,0.195c0.202,0.074 0.435,0.161 0.699,0.261c0.2,0.084 0.425,0.17 0.673,0.258c0.249,0.087 0.428,0.15 0.537,0.188c0.54,0.185 0.965,0.338 1.275,0.461l0.017,-0.022c-0.432,-0.557 -0.846,-1.106 -1.24,-1.646c-0.727,-0.964 -1.485,-1.993 -2.277,-3.087c-0.828,-1.145 -1.349,-1.85 -1.563,-2.115l0.264,-0.345Z" style="fill:#2e3853;fill-rule:nonzero;"/><path d="M242.965,82.922c0.893,-0.911 1.708,-1.424 2.447,-1.54c0.739,-0.115 1.421,0.124 2.045,0.718c0.508,0.469 0.831,1.032 0.969,1.687c0.138,0.655 -0.041,1.396 -0.536,2.223c0.2,-0.022 0.409,-0.017 0.627,0.016c0.218,0.032 0.54,0.101 0.966,0.206l1.802,0.439c0.391,0.097 0.699,0.162 0.924,0.195c0.224,0.033 0.442,0.021 0.654,-0.034c0.211,-0.055 0.41,-0.181 0.597,-0.377l0.36,0.341l-1.178,1.24c-0.335,0.018 -0.649,0.003 -0.943,-0.045c-0.293,-0.047 -0.659,-0.124 -1.098,-0.229l-1.793,-0.449l-0.35,-0.09c-0.296,-0.081 -0.543,-0.141 -0.741,-0.18c-0.198,-0.038 -0.388,-0.057 -0.57,-0.055c-0.049,0.066 -0.132,0.162 -0.251,0.286c-0.168,0.177 -0.296,0.305 -0.385,0.383l2.115,2.009c0.385,0.366 0.663,0.648 0.833,0.847l0.629,-0.749l0.48,0.455l-2.103,2.214l-0.359,-0.342c0.21,-0.236 0.308,-0.456 0.292,-0.658c-0.015,-0.201 -0.091,-0.38 -0.228,-0.534c-0.136,-0.155 -0.39,-0.408 -0.76,-0.76l-4.709,-4.473c-0.305,-0.29 -0.557,-0.549 -0.757,-0.775l-0.629,0.749l-0.479,-0.455c0.633,-0.696 1.115,-1.218 1.445,-1.565c0.299,-0.315 0.527,-0.548 0.684,-0.698Zm0.377,0.433c-0.219,0.229 -0.323,0.441 -0.315,0.636c0.008,0.195 0.079,0.368 0.212,0.52c0.132,0.151 0.384,0.402 0.755,0.754l2.092,1.988c0.202,-0.182 0.346,-0.32 0.433,-0.412c1.271,-1.337 1.322,-2.562 0.152,-3.673c-0.552,-0.525 -1.104,-0.774 -1.654,-0.748c-0.55,0.026 -1.109,0.338 -1.675,0.935Z" style="fill:#2e3853;fill-rule:nonzero;"/><path d="M258.897,69.455c-0.261,0.195 -0.387,0.421 -0.379,0.678c0.008,0.256 0.165,0.576 0.472,0.96l0.198,0.227l4.543,5.126c0.158,0.169 0.359,0.406 0.602,0.711l0.746,-0.653l0.413,0.517l-2.375,1.896l-0.31,-0.388c0.27,-0.228 0.387,-0.465 0.351,-0.713c-0.035,-0.247 -0.197,-0.551 -0.484,-0.911c-0.119,-0.149 -0.213,-0.26 -0.283,-0.332l-4.271,-4.786c0.017,0.051 0.038,0.117 0.064,0.2c0.025,0.082 0.058,0.178 0.098,0.286l2.829,8.437l-0.318,0.254l-1.766,-0.994c-1.594,-0.895 -2.844,-1.606 -3.751,-2.133c-0.906,-0.527 -1.839,-1.1 -2.797,-1.72l0.402,0.525c1.769,2.346 3.036,4.014 3.804,5.005c0.094,0.117 0.159,0.206 0.196,0.266c0.212,0.267 0.398,0.522 0.559,0.766l0.757,-0.682l0.413,0.517l-2.025,1.617l-0.31,-0.388c0.291,-0.245 0.41,-0.49 0.358,-0.737c-0.053,-0.247 -0.216,-0.556 -0.489,-0.928l-4.784,-6.472l-0.735,0.645l-0.404,-0.506l1.623,-1.295l4.387,2.539c1.611,0.945 2.839,1.657 3.684,2.137l0.022,-0.017c-0.103,-0.303 -0.326,-0.952 -0.669,-1.948c-0.332,-0.966 -0.684,-2.038 -1.057,-3.215c-0.435,-1.371 -0.832,-2.58 -1.193,-3.626l1.57,-1.253l0.309,0.388Z" style="fill:#2e3853;fill-rule:nonzero;"/><path d="M270.708,71.071c0.23,0.174 0.461,0.374 0.692,0.6c0.232,0.227 0.398,0.427 0.499,0.6l0.743,-0.549l0.358,0.557l-2.614,1.679l-0.269,-0.417c0.444,-0.297 0.539,-0.644 0.284,-1.04c-0.103,-0.16 -0.268,-0.334 -0.496,-0.521l-1.163,-0.933l-2.92,1.983c0.108,0.419 0.265,0.955 0.47,1.61c0.103,0.327 0.195,0.679 0.275,1.056l0.858,-0.623l0.358,0.557l-2.135,1.371l-0.268,-0.418c0.19,-0.122 0.311,-0.268 0.363,-0.438c0.052,-0.171 0.064,-0.357 0.036,-0.559c-0.028,-0.203 -0.092,-0.492 -0.194,-0.867l-0.113,-0.428l-2.207,-8.606l0.274,-0.176l7.169,5.562Zm-6.325,-3.496l0.439,1.738l0.618,2.318l0.204,0.745l2.637,-1.694l-2.362,-1.895l-1.513,-1.226l-0.023,0.014Z" style="fill:#2e3853;fill-rule:nonzero;"/><path d="M271.154,61.354c1.136,-0.58 2.073,-0.807 2.81,-0.681c0.737,0.125 1.307,0.569 1.711,1.33c0.332,0.607 0.459,1.243 0.381,1.908c-0.077,0.665 -0.483,1.311 -1.215,1.937c0.197,0.043 0.393,0.115 0.59,0.215c0.196,0.1 0.479,0.268 0.849,0.502l1.569,0.99c0.34,0.217 0.611,0.376 0.814,0.479c0.203,0.102 0.413,0.161 0.631,0.176c0.218,0.015 0.446,-0.041 0.686,-0.168l0.232,0.438l-1.51,0.8c-0.324,-0.089 -0.617,-0.203 -0.88,-0.341c-0.263,-0.139 -0.586,-0.328 -0.968,-0.568l-1.557,-0.995l-0.304,-0.197c-0.254,-0.171 -0.469,-0.306 -0.645,-0.406c-0.176,-0.1 -0.35,-0.178 -0.523,-0.234c-0.067,0.047 -0.177,0.111 -0.328,0.192c-0.216,0.114 -0.378,0.194 -0.487,0.24l1.366,2.577c0.248,0.47 0.422,0.826 0.52,1.069l0.835,-0.511l0.309,0.585l-2.697,1.429l-0.232,-0.438c0.275,-0.157 0.437,-0.334 0.487,-0.53c0.049,-0.197 0.034,-0.39 -0.046,-0.58c-0.081,-0.19 -0.24,-0.511 -0.48,-0.962l-3.041,-5.739c-0.197,-0.372 -0.354,-0.697 -0.471,-0.975l-0.835,0.51l-0.309,-0.584c0.821,-0.458 1.444,-0.8 1.868,-1.024c0.383,-0.203 0.673,-0.352 0.87,-0.444Zm0.219,0.53c-0.279,0.148 -0.446,0.316 -0.5,0.503c-0.055,0.188 -0.043,0.375 0.035,0.56c0.078,0.186 0.237,0.504 0.476,0.956l1.351,2.55c0.25,-0.109 0.43,-0.193 0.542,-0.253c1.63,-0.864 2.068,-2.008 1.312,-3.434c-0.356,-0.673 -0.8,-1.085 -1.33,-1.235c-0.53,-0.15 -1.158,-0.033 -1.886,0.353Z" style="fill:#2e3853;fill-rule:nonzero;"/><path d="M279.453,57.902c-0.285,0.139 -0.458,0.305 -0.52,0.498c-0.062,0.192 -0.06,0.386 0.008,0.581c0.068,0.195 0.207,0.525 0.417,0.991l2.621,5.827c0.218,0.484 0.368,0.851 0.45,1.1l0.866,-0.456l0.272,0.603l-2.784,1.253l-0.204,-0.453c0.285,-0.139 0.458,-0.305 0.52,-0.497c0.062,-0.193 0.059,-0.387 -0.008,-0.582c-0.068,-0.195 -0.207,-0.525 -0.417,-0.991l-2.664,-5.923c-0.173,-0.384 -0.309,-0.718 -0.407,-1.003l-0.867,0.455l-0.271,-0.603l2.784,-1.253l0.204,0.453Z" style="fill:#2e3853;fill-rule:nonzero;"/><path d="M289.781,53.948c-0.252,0.102 -0.421,0.225 -0.508,0.369c-0.088,0.144 -0.117,0.307 -0.09,0.489c0.028,0.182 0.093,0.414 0.196,0.696l0.18,0.495l2.855,7.92l-0.612,0.223l-8.532,-6.222l-0.012,0.005l2.239,6.032c0.23,0.631 0.391,1.1 0.484,1.408l0.897,-0.391l0.226,0.622l-2.333,0.849l-0.169,-0.466c0.34,-0.124 0.525,-0.314 0.557,-0.571c0.032,-0.257 -0.009,-0.541 -0.122,-0.851l-2.806,-7.746l-0.833,0.367l-0.227,-0.621l1.517,-0.553l8.363,6.075l0.013,-0.005l-2.343,-6.474c-0.144,-0.396 -0.255,-0.739 -0.332,-1.031l-0.897,0.391l-0.227,-0.622l2.346,-0.854l0.17,0.466Z" style="fill:#2e3853;fill-rule:nonzero;"/><path d="M298.659,53.784l-0.433,0.114c-0.208,-0.795 -0.506,-1.298 -0.893,-1.507c-0.386,-0.21 -0.857,-0.231 -1.412,-0.065l-1.121,0.325c-0.313,0.092 -0.523,0.217 -0.631,0.375c-0.109,0.158 -0.152,0.35 -0.13,0.577c0.023,0.228 0.095,0.574 0.216,1.039l0.61,2.327l2.471,-0.631l-0.419,-1.227l0.577,-0.151l0.8,3.054l-0.433,0.113c-0.094,-0.359 -0.205,-0.622 -0.333,-0.791c-0.129,-0.168 -0.282,-0.263 -0.46,-0.283c-0.179,-0.021 -0.412,0.007 -0.701,0.082l-0.403,0.121l-0.947,0.295l0.873,3.33c0.132,0.504 0.218,0.886 0.257,1.145l2.496,-0.7c0.61,-0.17 1.033,-0.465 1.269,-0.884c0.236,-0.42 0.246,-1.041 0.03,-1.865l0.447,-0.117l0.664,2.856l-6.773,1.774l-0.126,-0.48c0.304,-0.09 0.503,-0.225 0.596,-0.404c0.093,-0.18 0.122,-0.372 0.088,-0.575c-0.035,-0.203 -0.117,-0.552 -0.246,-1.047l-1.646,-6.282c-0.107,-0.408 -0.185,-0.76 -0.235,-1.058l-0.93,0.306l-0.167,-0.64l6.313,-1.654l0.732,2.528Z" style="fill:#2e3853;fill-rule:nonzero;"/><path d="M306.951,49.357c0.403,-0.058 0.816,-0.058 1.24,-0.002c0.423,0.056 0.825,0.199 1.205,0.428l-0.145,-0.632l0.685,-0.098l0.466,3.274l-0.483,0.069c-0.157,-0.777 -0.477,-1.407 -0.961,-1.89c-0.485,-0.483 -1.094,-0.672 -1.829,-0.567c-0.537,0.076 -0.934,0.302 -1.191,0.678c-0.257,0.376 -0.351,0.812 -0.28,1.308c0.057,0.397 0.208,0.725 0.455,0.983c0.247,0.258 0.532,0.461 0.854,0.607c0.323,0.147 0.772,0.321 1.349,0.522c0.653,0.221 1.183,0.429 1.59,0.624c0.407,0.195 0.769,0.475 1.085,0.84c0.317,0.365 0.518,0.84 0.601,1.425c0.079,0.556 0.026,1.065 -0.16,1.526c-0.185,0.462 -0.498,0.846 -0.939,1.151c-0.441,0.306 -0.988,0.506 -1.641,0.599c-0.421,0.06 -0.854,0.055 -1.297,-0.013c-0.444,-0.068 -0.845,-0.204 -1.203,-0.406l0.159,0.631l-0.699,0.099l-0.532,-3.159l0.524,-0.074c0.166,0.847 0.524,1.466 1.073,1.859c0.55,0.392 1.196,0.536 1.939,0.43c0.546,-0.078 0.982,-0.309 1.306,-0.695c0.324,-0.385 0.445,-0.865 0.363,-1.441c-0.06,-0.427 -0.217,-0.776 -0.471,-1.049c-0.254,-0.273 -0.549,-0.489 -0.887,-0.648c-0.338,-0.159 -0.79,-0.335 -1.357,-0.528c-0.645,-0.232 -1.161,-0.442 -1.549,-0.63c-0.388,-0.188 -0.735,-0.46 -1.041,-0.816c-0.307,-0.356 -0.501,-0.822 -0.583,-1.397c-0.057,-0.397 -0.03,-0.806 0.079,-1.226c0.109,-0.421 0.348,-0.799 0.715,-1.135c0.368,-0.336 0.888,-0.551 1.56,-0.647Z" style="fill:#2e3853;fill-rule:nonzero;"/><path d="M319.204,51.101l-0.446,0.028c-0.052,-0.82 -0.247,-1.37 -0.586,-1.65c-0.339,-0.28 -0.797,-0.392 -1.374,-0.336l-1.162,0.103c-0.325,0.03 -0.555,0.112 -0.692,0.246c-0.136,0.134 -0.216,0.315 -0.238,0.542c-0.022,0.227 -0.018,0.581 0.012,1.061l0.15,2.401l2.547,-0.144l-0.176,-1.284l0.596,-0.038l0.197,3.151l-0.447,0.028c-0.023,-0.37 -0.081,-0.65 -0.175,-0.84c-0.093,-0.19 -0.225,-0.312 -0.396,-0.367c-0.172,-0.054 -0.406,-0.072 -0.704,-0.054l-0.419,0.041l-0.985,0.107l0.214,3.436c0.033,0.52 0.043,0.911 0.033,1.173l2.583,-0.207c0.631,-0.049 1.103,-0.257 1.416,-0.623c0.312,-0.366 0.442,-0.974 0.389,-1.824l0.46,-0.029l0.102,2.931l-6.988,0.437l-0.03,-0.496c0.315,-0.029 0.536,-0.123 0.662,-0.282c0.126,-0.158 0.191,-0.341 0.197,-0.547c0.005,-0.206 -0.009,-0.564 -0.04,-1.074l-0.405,-6.482c-0.027,-0.42 -0.035,-0.781 -0.027,-1.083l-0.971,0.121l-0.042,-0.66l6.514,-0.407l0.231,2.621Z" style="fill:#2e3853;fill-rule:nonzero;"/><path d="M324.664,48.453c1.275,0.045 2.204,0.301 2.787,0.769c0.584,0.467 0.867,1.132 0.85,1.994c-0.005,0.691 -0.202,1.309 -0.593,1.853c-0.391,0.543 -1.059,0.911 -2.003,1.103c0.151,0.133 0.288,0.291 0.411,0.474c0.123,0.183 0.289,0.467 0.499,0.852l0.891,1.626c0.192,0.355 0.352,0.626 0.479,0.814c0.128,0.188 0.283,0.342 0.466,0.461c0.183,0.119 0.41,0.181 0.682,0.186l-0.01,0.496l-1.709,-0.034c-0.24,-0.235 -0.441,-0.477 -0.604,-0.726c-0.162,-0.249 -0.352,-0.571 -0.571,-0.966l-0.877,-1.626l-0.17,-0.319c-0.139,-0.274 -0.262,-0.497 -0.367,-0.669c-0.105,-0.172 -0.22,-0.325 -0.344,-0.458c-0.081,0.009 -0.208,0.011 -0.38,0.008c-0.244,-0.005 -0.425,-0.014 -0.542,-0.026l-0.058,2.916c-0.01,0.531 -0.031,0.926 -0.064,1.186l0.978,-0.04l-0.013,0.661l-3.052,-0.06l0.01,-0.496c0.316,-0.004 0.544,-0.08 0.683,-0.227c0.138,-0.148 0.219,-0.324 0.241,-0.529c0.022,-0.205 0.038,-0.563 0.048,-1.075l0.128,-6.493c0.008,-0.421 0.029,-0.781 0.062,-1.081l-0.978,0.041l0.013,-0.662c0.941,-0.001 1.651,0.003 2.131,0.012c0.434,0.009 0.759,0.02 0.976,0.035Zm-0.065,0.57c-0.317,-0.007 -0.544,0.059 -0.683,0.197c-0.138,0.137 -0.218,0.306 -0.241,0.506c-0.022,0.2 -0.038,0.556 -0.048,1.067l-0.057,2.886c0.271,0.025 0.47,0.039 0.597,0.042c1.845,0.036 2.783,-0.753 2.815,-2.366c0.015,-0.761 -0.173,-1.336 -0.563,-1.725c-0.391,-0.389 -0.997,-0.591 -1.82,-0.607Z" style="fill:#2e3853;fill-rule:nonzero;"/><path d="M338.927,50.022c-0.398,-0.021 -0.714,0.062 -0.947,0.25c-0.233,0.187 -0.463,0.541 -0.69,1.062l-3.746,8.362l-0.378,-0.039l-2.238,-8.274c-0.236,-0.881 -0.359,-1.579 -0.369,-2.094l-0.759,-0.048l0.069,-0.658l3.131,0.325l-0.052,0.494l-0.015,0.013c-0.299,-0.011 -0.524,0.039 -0.677,0.149c-0.152,0.11 -0.241,0.285 -0.266,0.524c-0.023,0.229 0.01,0.52 0.101,0.872l0.251,0.993c0.064,0.259 0.162,0.652 0.294,1.18c0.132,0.527 0.257,1.009 0.375,1.444l0.256,0.949c0.259,0.923 0.438,1.607 0.538,2.051l0.026,0.002l0.666,-1.548l0.231,-0.52l1.571,-3.57l0.41,-0.925c0.227,-0.52 0.396,-0.875 0.506,-1.066l-1.045,-0.048l0.068,-0.658l2.74,0.285l-0.051,0.493Z" style="fill:#2e3853;fill-rule:nonzero;"/><path d="M342.939,50.779c-0.314,-0.043 -0.551,-0.002 -0.71,0.123c-0.159,0.125 -0.265,0.288 -0.317,0.487c-0.053,0.2 -0.122,0.551 -0.208,1.055l-1.079,6.298c-0.089,0.523 -0.17,0.911 -0.24,1.163l0.973,0.106l-0.112,0.652l-3.009,-0.515l0.084,-0.489c0.314,0.043 0.55,0.002 0.709,-0.123c0.159,-0.125 0.265,-0.288 0.318,-0.487c0.052,-0.2 0.121,-0.551 0.208,-1.055l1.096,-6.401c0.071,-0.415 0.145,-0.768 0.223,-1.06l-0.973,-0.106l0.111,-0.652l3.009,0.515l-0.083,0.489Z" style="fill:#2e3853;fill-rule:nonzero;"/><path d="M349.431,51.443c0.967,0.234 1.783,0.746 2.448,1.536l0.125,-0.805l0.712,0.173l-0.821,3.39l-0.475,-0.115c0.132,-0.928 0.016,-1.706 -0.348,-2.336c-0.364,-0.629 -0.929,-1.037 -1.693,-1.222c-0.625,-0.151 -1.24,-0.097 -1.848,0.163c-0.607,0.261 -1.147,0.71 -1.618,1.349c-0.471,0.638 -0.82,1.425 -1.046,2.36c-0.217,0.896 -0.253,1.736 -0.108,2.519c0.145,0.783 0.438,1.436 0.879,1.961c0.441,0.524 0.986,0.865 1.637,1.023c0.589,0.142 1.191,0.134 1.807,-0.027c0.616,-0.16 1.164,-0.465 1.646,-0.916l0.268,0.39c-0.701,0.666 -1.419,1.077 -2.155,1.234c-0.736,0.157 -1.434,0.155 -2.093,-0.005c-0.862,-0.208 -1.578,-0.624 -2.148,-1.247c-0.57,-0.623 -0.951,-1.375 -1.142,-2.257c-0.192,-0.881 -0.17,-1.804 0.063,-2.769c0.232,-0.954 0.622,-1.808 1.173,-2.562c0.55,-0.753 1.233,-1.307 2.049,-1.661c0.817,-0.354 1.713,-0.413 2.688,-0.176Z" style="fill:#2e3853;fill-rule:nonzero;"/><path d="M360.179,57.713l-0.424,-0.143c0.263,-0.779 0.291,-1.362 0.083,-1.75c-0.208,-0.387 -0.589,-0.664 -1.144,-0.831l-1.115,-0.345c-0.311,-0.095 -0.556,-0.106 -0.733,-0.034c-0.177,0.072 -0.319,0.209 -0.426,0.411c-0.106,0.202 -0.237,0.531 -0.391,0.987l-0.771,2.278l2.412,0.832l0.324,-1.255l0.566,0.191l-1.012,2.991l-0.424,-0.144c0.119,-0.351 0.171,-0.632 0.156,-0.843c-0.014,-0.212 -0.09,-0.375 -0.228,-0.49c-0.137,-0.116 -0.348,-0.221 -0.63,-0.317l-0.404,-0.12l-0.952,-0.275l-1.103,3.261c-0.167,0.494 -0.306,0.86 -0.415,1.098l2.47,0.788c0.602,0.193 1.118,0.18 1.546,-0.041c0.428,-0.22 0.778,-0.734 1.051,-1.541l0.437,0.148l-1.017,2.751l-6.631,-2.243l0.159,-0.47c0.303,0.092 0.543,0.088 0.719,-0.011c0.177,-0.099 0.307,-0.243 0.39,-0.431c0.083,-0.189 0.206,-0.526 0.37,-1.01l2.081,-6.152c0.135,-0.399 0.263,-0.736 0.385,-1.012l-0.944,-0.256l0.212,-0.627l6.182,2.091l-0.779,2.514Z" style="fill:#2e3853;fill-rule:nonzero;"/><path d="M369.902,58.991c1.533,0.736 2.552,1.723 3.056,2.96c0.504,1.238 0.372,2.645 -0.397,4.222c-0.412,0.847 -0.973,1.544 -1.682,2.09c-0.709,0.547 -1.517,0.864 -2.425,0.951c-0.908,0.087 -1.853,-0.109 -2.837,-0.588l-3.208,-1.563l0.217,-0.446c0.289,0.13 0.527,0.157 0.715,0.081c0.188,-0.075 0.335,-0.202 0.441,-0.379c0.106,-0.176 0.271,-0.494 0.495,-0.954l2.844,-5.839c0.185,-0.378 0.355,-0.696 0.511,-0.955l-0.905,-0.374l0.29,-0.594l2.885,1.388Zm-0.377,0.435c-0.285,-0.138 -0.519,-0.174 -0.702,-0.108c-0.184,0.067 -0.329,0.189 -0.435,0.366c-0.106,0.176 -0.271,0.494 -0.495,0.954l-2.805,5.758c-0.228,0.468 -0.411,0.814 -0.55,1.036c0.276,0.157 0.707,0.377 1.292,0.663c0.683,0.332 1.379,0.443 2.088,0.331c0.708,-0.112 1.367,-0.421 1.975,-0.927c0.609,-0.506 1.109,-1.16 1.499,-1.962c0.641,-1.316 0.817,-2.504 0.529,-3.564c-0.288,-1.06 -1.087,-1.909 -2.396,-2.547Z" style="fill:#2e3853;fill-rule:nonzero;"/><path d="M380.837,64.708c0.883,0.549 1.49,1.247 1.82,2.096c0.33,0.848 0.427,1.725 0.29,2.631c-0.137,0.906 -0.441,1.738 -0.912,2.495c-0.466,0.749 -1.074,1.389 -1.824,1.92c-0.751,0.531 -1.572,0.841 -2.463,0.93c-0.891,0.089 -1.767,-0.134 -2.628,-0.669c-0.922,-0.573 -1.55,-1.276 -1.884,-2.109c-0.334,-0.833 -0.426,-1.695 -0.276,-2.588c0.149,-0.892 0.47,-1.734 0.962,-2.525c0.471,-0.758 1.08,-1.4 1.828,-1.927c0.748,-0.526 1.568,-0.834 2.459,-0.923c0.891,-0.089 1.767,0.134 2.628,0.669Zm-0.352,0.489c-0.599,-0.373 -1.232,-0.503 -1.897,-0.392c-0.666,0.112 -1.296,0.402 -1.891,0.87c-0.594,0.468 -1.095,1.03 -1.503,1.686c-0.418,0.672 -0.725,1.416 -0.923,2.231c-0.198,0.815 -0.209,1.587 -0.034,2.316c0.176,0.728 0.586,1.293 1.232,1.694c0.599,0.373 1.229,0.502 1.891,0.388c0.662,-0.114 1.287,-0.401 1.877,-0.86c0.589,-0.46 1.087,-1.018 1.495,-1.673c0.449,-0.724 0.765,-1.498 0.948,-2.323c0.182,-0.824 0.18,-1.592 -0.006,-2.304c-0.186,-0.712 -0.582,-1.256 -1.189,-1.633Z" style="fill:#2e3853;fill-rule:nonzero;"/><path d="M392.019,72.926c0.826,0.675 1.33,1.356 1.511,2.041c0.181,0.686 0.006,1.354 -0.527,2.006c-0.343,0.419 -0.807,0.684 -1.393,0.793c-0.587,0.11 -1.204,-0.01 -1.853,-0.359l-0.019,0.023c0.749,0.613 1.169,1.274 1.261,1.983c0.092,0.709 -0.116,1.374 -0.623,1.995c-0.381,0.466 -0.819,0.784 -1.315,0.954c-0.496,0.171 -1.006,0.194 -1.529,0.071c-0.524,-0.124 -1.024,-0.381 -1.5,-0.77l-3.067,-2.508l0.314,-0.384c0.251,0.192 0.477,0.274 0.677,0.243c0.2,-0.03 0.376,-0.123 0.526,-0.279c0.15,-0.155 0.397,-0.442 0.739,-0.861l3.997,-4.889c0.343,-0.418 0.604,-0.716 0.783,-0.893l-0.794,-0.572l0.419,-0.512c1.035,0.82 1.832,1.46 2.393,1.918Zm-0.291,0.461c-0.224,-0.183 -0.42,-0.285 -0.589,-0.307c-0.169,-0.022 -0.337,0.029 -0.502,0.153c-0.166,0.124 -0.372,0.337 -0.619,0.639l-1.77,2.165l0.786,0.604c0.559,0.444 1.1,0.605 1.621,0.481c0.522,-0.124 0.98,-0.426 1.373,-0.907c0.476,-0.582 0.653,-1.11 0.533,-1.584c-0.121,-0.474 -0.398,-0.889 -0.833,-1.244Zm-2.741,3.954c-0.385,-0.315 -0.755,-0.598 -1.11,-0.85l-2.151,2.63c-0.33,0.404 -0.588,0.698 -0.774,0.882c0.121,0.125 0.366,0.338 0.738,0.642l0.357,0.292c0.553,0.452 1.118,0.658 1.694,0.618c0.576,-0.04 1.096,-0.344 1.559,-0.91c0.539,-0.66 0.756,-1.265 0.652,-1.816c-0.104,-0.551 -0.426,-1.048 -0.965,-1.488Z" style="fill:#2e3853;fill-rule:nonzero;"/><path d="M398.767,78.897c0.904,0.899 1.411,1.719 1.521,2.458c0.111,0.74 -0.133,1.42 -0.732,2.04c-0.473,0.504 -1.038,0.823 -1.694,0.956c-0.656,0.134 -1.396,-0.05 -2.219,-0.552c0.02,0.201 0.013,0.41 -0.021,0.628c-0.034,0.218 -0.105,0.539 -0.213,0.964l-0.452,1.798c-0.1,0.391 -0.167,0.698 -0.201,0.923c-0.035,0.224 -0.025,0.442 0.029,0.654c0.053,0.212 0.178,0.412 0.373,0.6l-0.344,0.357l-1.231,-1.186c-0.016,-0.336 0.001,-0.65 0.051,-0.943c0.05,-0.293 0.129,-0.658 0.238,-1.097l0.461,-1.789l0.092,-0.349c0.084,-0.296 0.146,-0.542 0.186,-0.74c0.04,-0.198 0.06,-0.388 0.059,-0.57c-0.066,-0.049 -0.16,-0.133 -0.284,-0.253c-0.176,-0.169 -0.303,-0.298 -0.38,-0.387l-2.024,2.1c-0.369,0.382 -0.653,0.658 -0.854,0.827l0.745,0.634l-0.459,0.477l-2.198,-2.119l0.345,-0.357c0.234,0.212 0.453,0.312 0.655,0.297c0.202,-0.014 0.381,-0.088 0.536,-0.224c0.156,-0.135 0.411,-0.387 0.766,-0.755l4.507,-4.676c0.292,-0.303 0.552,-0.553 0.78,-0.751l-0.745,-0.634l0.459,-0.477c0.692,0.639 1.21,1.124 1.555,1.457c0.313,0.301 0.544,0.531 0.693,0.689Zm-0.436,0.373c-0.228,-0.219 -0.439,-0.326 -0.634,-0.319c-0.195,0.007 -0.369,0.076 -0.521,0.208c-0.152,0.132 -0.406,0.382 -0.76,0.75l-2.003,2.078c0.181,0.203 0.317,0.348 0.409,0.436c1.328,1.28 2.552,1.34 3.672,0.178c0.529,-0.548 0.782,-1.098 0.76,-1.648c-0.023,-0.551 -0.33,-1.111 -0.923,-1.683Z" style="fill:#2e3853;fill-rule:nonzero;"/><path d="M401.651,94.134c-0.14,0.252 -0.305,0.509 -0.496,0.771c-0.191,0.261 -0.365,0.454 -0.523,0.579l0.65,0.657l-0.5,0.434l-2.035,-2.348l0.375,-0.325c0.357,0.397 0.713,0.441 1.069,0.132c0.144,-0.124 0.293,-0.313 0.445,-0.565l0.757,-1.285l-2.379,-2.606c-0.4,0.167 -0.908,0.399 -1.527,0.695c-0.309,0.149 -0.644,0.29 -1.006,0.424l0.739,0.76l-0.5,0.433l-1.662,-1.917l0.375,-0.325c0.148,0.171 0.31,0.27 0.486,0.297c0.176,0.027 0.362,0.012 0.559,-0.044c0.196,-0.057 0.473,-0.162 0.83,-0.316l0.407,-0.174l8.203,-3.413l0.213,0.246l-4.48,7.89Zm2.555,-6.76l-1.656,0.683l-2.207,0.943l-0.708,0.308l2.054,2.368l1.538,-2.608l0.997,-1.673l-0.018,-0.021Z" style="fill:#2e3853;fill-rule:nonzero;"/><path d="M411.326,92.801c0.241,0.328 0.438,0.692 0.589,1.091c0.151,0.4 0.216,0.822 0.194,1.265l0.488,-0.427l0.411,0.557l-2.663,1.962l-0.289,-0.393c0.61,-0.507 1.013,-1.087 1.209,-1.743c0.195,-0.655 0.073,-1.281 -0.367,-1.878c-0.322,-0.437 -0.709,-0.68 -1.162,-0.728c-0.453,-0.049 -0.881,0.076 -1.284,0.373c-0.323,0.238 -0.54,0.527 -0.65,0.867c-0.111,0.34 -0.154,0.686 -0.13,1.04c0.024,0.353 0.083,0.831 0.179,1.434c0.115,0.68 0.183,1.245 0.204,1.696c0.021,0.451 -0.054,0.902 -0.225,1.354c-0.171,0.452 -0.495,0.853 -0.971,1.204c-0.452,0.333 -0.925,0.527 -1.419,0.583c-0.495,0.055 -0.981,-0.039 -1.459,-0.282c-0.478,-0.243 -0.913,-0.63 -1.305,-1.162c-0.252,-0.342 -0.453,-0.725 -0.603,-1.148c-0.15,-0.423 -0.221,-0.84 -0.212,-1.251l-0.48,0.438l-0.419,-0.568l2.53,-1.965l0.313,0.426c-0.667,0.548 -1.043,1.156 -1.128,1.826c-0.086,0.67 0.094,1.307 0.54,1.911c0.327,0.444 0.737,0.718 1.23,0.821c0.493,0.103 0.974,-0.018 1.442,-0.363c0.347,-0.256 0.58,-0.56 0.7,-0.912c0.12,-0.353 0.17,-0.715 0.15,-1.088c-0.019,-0.374 -0.079,-0.855 -0.177,-1.445c-0.102,-0.678 -0.162,-1.233 -0.18,-1.663c-0.018,-0.43 0.057,-0.865 0.225,-1.304c0.169,-0.438 0.487,-0.83 0.955,-1.175c0.322,-0.238 0.695,-0.408 1.117,-0.511c0.422,-0.104 0.868,-0.073 1.338,0.092c0.47,0.165 0.906,0.52 1.309,1.066Z" style="fill:#2e3853;fill-rule:nonzero;"/><path d="M415.468,100.149c-0.18,-0.261 -0.371,-0.407 -0.571,-0.439c-0.2,-0.032 -0.391,0 -0.573,0.097c-0.182,0.096 -0.488,0.284 -0.917,0.562l-5.361,3.475c-0.446,0.289 -0.786,0.493 -1.019,0.612l0.582,0.787l-0.555,0.36l-1.661,-2.562l0.417,-0.27c0.18,0.26 0.371,0.406 0.57,0.438c0.2,0.033 0.392,0 0.574,-0.096c0.182,-0.097 0.488,-0.284 0.917,-0.562l5.449,-3.533c0.354,-0.229 0.664,-0.413 0.931,-0.554l-0.582,-0.787l0.555,-0.36l1.66,2.562l-0.416,0.27Z" style="fill:#2e3853;fill-rule:nonzero;"/><path d="M418.035,104.471c-0.164,-0.27 -0.345,-0.428 -0.543,-0.472c-0.197,-0.044 -0.39,-0.024 -0.578,0.061c-0.188,0.086 -0.504,0.254 -0.949,0.505l-5.616,3.171c-0.454,0.256 -0.801,0.437 -1.041,0.541l1.286,2.187c0.294,0.5 0.684,0.778 1.171,0.835c0.487,0.058 1.11,-0.128 1.869,-0.557l0.227,0.402l-2.75,1.459l-3.308,-5.86l0.432,-0.244c0.164,0.271 0.345,0.428 0.543,0.473c0.197,0.044 0.39,0.023 0.578,-0.062c0.188,-0.085 0.504,-0.253 0.949,-0.505l5.655,-3.193c0.367,-0.207 0.688,-0.372 0.963,-0.497l-0.533,-0.821l0.576,-0.325l1.501,2.658l-0.432,0.244Z" style="fill:#2e3853;fill-rule:nonzero;"/><path d="M324.242,191.438l0,-105.782" style="fill:#fff;fill-rule:nonzero;stroke:#2d3954;stroke-width:1.71px;stroke-miterlimit:100;stroke-dasharray:17.13,5.14,1.71,5.14;"/><path d="M329.656,148.48c-0.092,0.122 -0.22,0.213 -0.384,0.273c-0.164,0.061 -0.356,0.091 -0.574,0.091c-0.221,0 -0.416,-0.048 -0.587,-0.144c-0.172,-0.096 -0.304,-0.233 -0.397,-0.41c-0.094,-0.178 -0.142,-0.383 -0.145,-0.617l0,-0.22c0,-0.378 0.096,-0.672 0.286,-0.88c0.19,-0.209 0.458,-0.313 0.802,-0.313c0.283,0 0.51,0.067 0.683,0.201c0.172,0.134 0.277,0.325 0.316,0.571l-0.357,0c-0.067,-0.334 -0.28,-0.501 -0.64,-0.501c-0.239,0 -0.42,0.078 -0.544,0.234c-0.123,0.157 -0.185,0.383 -0.187,0.679l0,0.206c0,0.282 0.07,0.506 0.209,0.673c0.138,0.167 0.326,0.25 0.563,0.25c0.134,0 0.251,-0.014 0.351,-0.042c0.101,-0.027 0.184,-0.074 0.25,-0.139l0,-0.564l-0.627,0l0,-0.271l0.982,0l0,0.923Z" style="fill:#2d3954;fill-rule:nonzero;"/><path d="M319.565,173.138l0,-2.515l0.885,0c0.293,0 0.514,0.057 0.663,0.169c0.148,0.113 0.222,0.28 0.222,0.501c0,0.118 -0.036,0.222 -0.108,0.312c-0.072,0.09 -0.17,0.16 -0.294,0.21c0.146,0.038 0.262,0.11 0.347,0.217c0.085,0.106 0.127,0.233 0.127,0.381c0,0.225 -0.078,0.403 -0.236,0.532c-0.157,0.129 -0.38,0.193 -0.667,0.193l-0.939,0Zm0.357,-1.176l0,0.905l0.589,0c0.166,0 0.297,-0.04 0.393,-0.12c0.096,-0.08 0.144,-0.19 0.144,-0.331c0,-0.303 -0.177,-0.454 -0.531,-0.454l-0.595,0Zm0,-0.266l0.539,0c0.156,0 0.281,-0.037 0.374,-0.109c0.094,-0.073 0.141,-0.172 0.141,-0.296c0,-0.139 -0.044,-0.239 -0.13,-0.302c-0.087,-0.063 -0.219,-0.095 -0.396,-0.095l-0.528,0l0,0.802Z" style="fill:#2d3954;fill-rule:nonzero;"/></g></g><path d="M177.109,314.823l0,-6.321l-2.011,4.445l-1.758,0l-2.011,-4.445l0,6.321l-3.296,0l0,-12l3.6,0l2.586,5.645l2.602,-5.645l3.584,0l0,12l-3.296,0Z" style="fill:#2e3954;fill-rule:nonzero;"/><path d="M185.576,302.823l3.009,0l4.158,12l-3.347,0l-0.727,-2.349l-3.194,0l-0.71,2.349l-3.363,0l4.174,-12Zm2.569,7.454l-1.064,-3.719l-1.116,3.719l2.18,0Z" style="fill:#2e3954;fill-rule:nonzero;"/><path d="M193.74,314.823l0,-12l5.51,0c0.586,0 1.126,0.121 1.622,0.364c0.496,0.242 0.921,0.557 1.276,0.946c0.355,0.389 0.634,0.834 0.837,1.335c0.203,0.502 0.304,1.006 0.304,1.513c0,0.699 -0.152,1.349 -0.456,1.952c-0.305,0.603 -0.727,1.096 -1.268,1.479l2.535,4.411l-3.718,0l-2.113,-3.684l-1.233,0l0,3.684l-3.296,0Zm3.296,-6.558l2.078,0c0.203,0 0.392,-0.112 0.567,-0.338c0.174,-0.225 0.262,-0.54 0.262,-0.946c0,-0.417 -0.102,-0.735 -0.305,-0.955c-0.202,-0.22 -0.405,-0.33 -0.608,-0.33l-1.994,0l0,2.569Z" style="fill:#2e3954;fill-rule:nonzero;"/><rect x="205.148" y="302.823" width="3.296" height="12" style="fill:#2e3954;fill-rule:nonzero;"/><path d="M213.802,308.925l0,5.898l-3.296,0l0,-12l2.569,0l4.817,6.102l0,-6.102l3.296,0l0,12l-2.62,0l-4.766,-5.898Z" style="fill:#2e3954;fill-rule:nonzero;"/><path d="M231.802,311.95l0,2.873l-8.552,0l0,-12l8.4,0l0,2.873l-5.105,0l0,1.691l4.361,0l0,2.67l-4.361,0l0,1.893l5.257,0Z" style="fill:#2e3954;fill-rule:nonzero;"/><path d="M244.41,306.744c-0.338,-0.202 -0.687,-0.383 -1.048,-0.54c-0.304,-0.136 -0.645,-0.262 -1.022,-0.381c-0.378,-0.118 -0.747,-0.177 -1.107,-0.177c-0.293,0 -0.527,0.045 -0.702,0.135c-0.174,0.09 -0.262,0.242 -0.262,0.456c0,0.158 0.051,0.288 0.152,0.389c0.102,0.101 0.248,0.194 0.44,0.279c0.191,0.084 0.425,0.166 0.701,0.245c0.276,0.079 0.589,0.175 0.938,0.287c0.552,0.169 1.051,0.355 1.496,0.558c0.445,0.203 0.825,0.442 1.141,0.718c0.315,0.276 0.558,0.612 0.727,1.006c0.169,0.394 0.253,0.873 0.253,1.437c0,0.721 -0.132,1.326 -0.397,1.817c-0.265,0.49 -0.614,0.881 -1.048,1.174c-0.434,0.293 -0.924,0.504 -1.47,0.634c-0.547,0.13 -1.096,0.194 -1.648,0.194c-0.44,0 -0.89,-0.033 -1.352,-0.101c-0.462,-0.068 -0.922,-0.163 -1.378,-0.287c-0.456,-0.124 -0.896,-0.271 -1.318,-0.44c-0.423,-0.169 -0.814,-0.36 -1.175,-0.574l1.42,-2.891c0.394,0.248 0.806,0.468 1.234,0.66c0.36,0.169 0.769,0.321 1.225,0.456c0.456,0.135 0.921,0.203 1.394,0.203c0.361,0 0.612,-0.048 0.753,-0.144c0.14,-0.096 0.211,-0.223 0.211,-0.38c0,-0.169 -0.071,-0.313 -0.211,-0.431c-0.141,-0.119 -0.336,-0.223 -0.584,-0.313c-0.247,-0.09 -0.532,-0.18 -0.853,-0.27c-0.321,-0.09 -0.662,-0.198 -1.023,-0.321c-0.529,-0.181 -0.986,-0.375 -1.369,-0.584c-0.383,-0.208 -0.698,-0.445 -0.946,-0.709c-0.248,-0.265 -0.431,-0.567 -0.549,-0.905c-0.119,-0.338 -0.178,-0.726 -0.178,-1.166c0,-0.665 0.121,-1.251 0.364,-1.758c0.242,-0.507 0.571,-0.929 0.988,-1.267c0.417,-0.338 0.893,-0.595 1.428,-0.769c0.536,-0.175 1.102,-0.262 1.699,-0.262c0.439,0 0.868,0.042 1.284,0.127c0.417,0.084 0.82,0.191 1.209,0.321c0.389,0.129 0.752,0.27 1.09,0.422c0.338,0.152 0.642,0.296 0.913,0.431l-1.42,2.721Z" style="fill:#2e3954;fill-rule:nonzero;"/><path d="M252.81,312.001c0.383,0 0.71,-0.085 0.98,-0.254c0.271,-0.169 0.49,-0.391 0.659,-0.667c0.169,-0.276 0.293,-0.595 0.372,-0.955c0.079,-0.361 0.119,-0.738 0.119,-1.133l0,-6.169l3.295,0l0,6.169c0,0.834 -0.107,1.614 -0.321,2.341c-0.214,0.727 -0.546,1.355 -0.997,1.885c-0.451,0.529 -1.017,0.946 -1.699,1.25c-0.681,0.305 -1.484,0.457 -2.408,0.457c-0.958,0 -1.777,-0.161 -2.459,-0.482c-0.682,-0.321 -1.242,-0.752 -1.682,-1.293c-0.439,-0.541 -0.76,-1.169 -0.963,-1.885c-0.203,-0.715 -0.304,-1.473 -0.304,-2.273l0,-6.169l3.295,0l0,6.169c0,0.395 0.04,0.775 0.119,1.141c0.079,0.366 0.202,0.687 0.371,0.963c0.17,0.277 0.386,0.496 0.651,0.66c0.265,0.163 0.589,0.245 0.972,0.245Z" style="fill:#2e3954;fill-rule:nonzero;"/><path d="M260.128,314.823l0,-12l5.51,0c0.586,0 1.127,0.121 1.623,0.364c0.495,0.242 0.921,0.557 1.276,0.946c0.355,0.389 0.634,0.834 0.836,1.335c0.203,0.502 0.305,1.006 0.305,1.513c0,0.699 -0.153,1.349 -0.457,1.952c-0.304,0.603 -0.727,1.096 -1.267,1.479l2.535,4.411l-3.718,0l-2.113,-3.684l-1.234,0l0,3.684l-3.296,0Zm3.296,-6.558l2.079,0c0.203,0 0.392,-0.112 0.566,-0.338c0.175,-0.225 0.262,-0.54 0.262,-0.946c0,-0.417 -0.101,-0.735 -0.304,-0.955c-0.203,-0.22 -0.406,-0.33 -0.609,-0.33l-1.994,0l0,2.569Z" style="fill:#2e3954;fill-rule:nonzero;"/><path d="M273.379,302.823l2.349,7.859l2.316,-7.859l3.465,0l-4.412,12l-2.738,0l-4.462,-12l3.482,0Z" style="fill:#2e3954;fill-rule:nonzero;"/><path d="M287.356,314.925c-0.912,0 -1.74,-0.175 -2.484,-0.524c-0.744,-0.35 -1.38,-0.809 -1.91,-1.378c-0.53,-0.569 -0.941,-1.219 -1.234,-1.952c-0.293,-0.732 -0.439,-1.487 -0.439,-2.265c0,-0.788 0.152,-1.549 0.456,-2.281c0.304,-0.733 0.73,-1.378 1.276,-1.936c0.547,-0.557 1.195,-1.002 1.944,-1.335c0.749,-0.332 1.569,-0.498 2.459,-0.498c0.913,0 1.741,0.174 2.485,0.524c0.743,0.349 1.38,0.811 1.909,1.385c0.53,0.575 0.938,1.229 1.226,1.961c0.287,0.732 0.431,1.482 0.431,2.248c0,0.789 -0.152,1.546 -0.457,2.273c-0.304,0.727 -0.726,1.369 -1.267,1.927c-0.541,0.558 -1.186,1.006 -1.935,1.344c-0.75,0.338 -1.569,0.507 -2.46,0.507Zm-2.721,-6.085c0,0.406 0.057,0.797 0.169,1.175c0.113,0.377 0.282,0.712 0.507,1.005c0.226,0.293 0.51,0.53 0.854,0.71c0.344,0.181 0.752,0.271 1.225,0.271c0.473,0 0.885,-0.093 1.234,-0.279c0.349,-0.186 0.634,-0.428 0.854,-0.727c0.219,-0.299 0.383,-0.639 0.49,-1.022c0.107,-0.384 0.16,-0.772 0.16,-1.167c0,-0.405 -0.056,-0.797 -0.169,-1.174c-0.112,-0.378 -0.284,-0.71 -0.515,-0.997c-0.231,-0.288 -0.519,-0.519 -0.862,-0.693c-0.344,-0.175 -0.747,-0.262 -1.209,-0.262c-0.473,0 -0.881,0.09 -1.225,0.27c-0.344,0.18 -0.628,0.42 -0.854,0.718c-0.225,0.299 -0.391,0.637 -0.498,1.014c-0.107,0.378 -0.161,0.764 -0.161,1.158Z" style="fill:#2e3954;fill-rule:nonzero;"/><path d="M296.534,302.823l2.146,5.189l2.198,-5.189l3.583,0l-4.141,8.028l0,3.972l-3.279,0l0,-4.005l-4.073,-7.995l3.566,0Z" style="fill:#2e3954;fill-rule:nonzero;"/><path d="M313.908,311.95l0,2.873l-8.552,0l0,-12l8.4,0l0,2.873l-5.104,0l0,1.691l4.361,0l0,2.67l-4.361,0l0,1.893l5.256,0Z" style="fill:#2e3954;fill-rule:nonzero;"/><path d="M315.446,314.823l0,-12l5.51,0c0.586,0 1.127,0.121 1.623,0.364c0.496,0.242 0.921,0.557 1.276,0.946c0.355,0.389 0.634,0.834 0.837,1.335c0.202,0.502 0.304,1.006 0.304,1.513c0,0.699 -0.152,1.349 -0.457,1.952c-0.304,0.603 -0.726,1.096 -1.267,1.479l2.535,4.411l-3.718,0l-2.113,-3.684l-1.234,0l0,3.684l-3.296,0Zm3.296,-6.558l2.079,0c0.203,0 0.392,-0.112 0.566,-0.338c0.175,-0.225 0.262,-0.54 0.262,-0.946c0,-0.417 -0.101,-0.735 -0.304,-0.955c-0.203,-0.22 -0.406,-0.33 -0.608,-0.33l-1.995,0l0,2.569Z" style="fill:#2e3954;fill-rule:nonzero;"/><path d="M334.123,306.744c-0.339,-0.202 -0.688,-0.383 -1.048,-0.54c-0.305,-0.136 -0.645,-0.262 -1.023,-0.381c-0.377,-0.118 -0.746,-0.177 -1.107,-0.177c-0.293,0 -0.527,0.045 -0.701,0.135c-0.175,0.09 -0.262,0.242 -0.262,0.456c0,0.158 0.05,0.288 0.152,0.389c0.101,0.101 0.248,0.194 0.439,0.279c0.192,0.084 0.426,0.166 0.702,0.245c0.276,0.079 0.588,0.175 0.938,0.287c0.552,0.169 1.05,0.355 1.495,0.558c0.445,0.203 0.826,0.442 1.141,0.718c0.316,0.276 0.558,0.612 0.727,1.006c0.169,0.394 0.254,0.873 0.254,1.437c0,0.721 -0.133,1.326 -0.398,1.817c-0.264,0.49 -0.614,0.881 -1.048,1.174c-0.433,0.293 -0.923,0.504 -1.47,0.634c-0.546,0.13 -1.096,0.194 -1.648,0.194c-0.439,0 -0.89,-0.033 -1.352,-0.101c-0.462,-0.068 -0.921,-0.163 -1.377,-0.287c-0.457,-0.124 -0.896,-0.271 -1.319,-0.44c-0.422,-0.169 -0.814,-0.36 -1.174,-0.574l1.419,-2.891c0.395,0.248 0.806,0.468 1.234,0.66c0.361,0.169 0.769,0.321 1.226,0.456c0.456,0.135 0.921,0.203 1.394,0.203c0.36,0 0.611,-0.048 0.752,-0.144c0.141,-0.096 0.211,-0.223 0.211,-0.38c0,-0.169 -0.07,-0.313 -0.211,-0.431c-0.141,-0.119 -0.335,-0.223 -0.583,-0.313c-0.248,-0.09 -0.532,-0.18 -0.854,-0.27c-0.321,-0.09 -0.662,-0.198 -1.022,-0.321c-0.53,-0.181 -0.986,-0.375 -1.369,-0.584c-0.383,-0.208 -0.699,-0.445 -0.947,-0.709c-0.248,-0.265 -0.431,-0.567 -0.549,-0.905c-0.118,-0.338 -0.177,-0.726 -0.177,-1.166c0,-0.665 0.121,-1.251 0.363,-1.758c0.242,-0.507 0.572,-0.929 0.989,-1.267c0.417,-0.338 0.893,-0.595 1.428,-0.769c0.535,-0.175 1.101,-0.262 1.698,-0.262c0.44,0 0.868,0.042 1.285,0.127c0.417,0.084 0.82,0.191 1.208,0.321c0.389,0.129 0.753,0.27 1.091,0.422c0.338,0.152 0.642,0.296 0.912,0.431l-1.419,2.721Z" style="fill:#2e3954;fill-rule:nonzero;"/><path d="M348.607,314.823l-0.642,-0.676c-0.485,0.293 -0.989,0.507 -1.513,0.642c-0.524,0.136 -1.051,0.203 -1.58,0.203c-0.699,0 -1.31,-0.112 -1.834,-0.338c-0.524,-0.225 -0.963,-0.518 -1.318,-0.879c-0.355,-0.36 -0.623,-0.769 -0.803,-1.225c-0.18,-0.456 -0.271,-0.916 -0.271,-1.377c0,-0.688 0.167,-1.282 0.499,-1.784c0.332,-0.501 0.73,-0.938 1.192,-1.309c-0.361,-0.44 -0.615,-0.831 -0.761,-1.175c-0.146,-0.344 -0.22,-0.724 -0.22,-1.141c0,-0.484 0.09,-0.921 0.271,-1.31c0.18,-0.389 0.425,-0.712 0.735,-0.972c0.31,-0.259 0.679,-0.459 1.107,-0.6c0.428,-0.14 0.896,-0.211 1.403,-0.211c0.439,0 0.87,0.054 1.293,0.161c0.422,0.107 0.8,0.276 1.132,0.507c0.333,0.231 0.6,0.529 0.803,0.896c0.203,0.366 0.304,0.808 0.304,1.326c0,0.609 -0.141,1.155 -0.422,1.64c-0.282,0.484 -0.66,0.929 -1.133,1.335l1.386,1.47c0.124,-0.315 0.22,-0.656 0.287,-1.022c0.068,-0.366 0.102,-0.764 0.102,-1.192l2.586,0c-0.011,0.868 -0.113,1.648 -0.304,2.341c-0.192,0.693 -0.451,1.316 -0.778,1.868l2.687,2.822l-4.208,0Zm-3.397,-2.332c0.338,0 0.67,-0.073 0.997,-0.22l-1.91,-2.045c-0.383,0.316 -0.575,0.631 -0.575,0.947c0,0.123 0.026,0.261 0.077,0.414c0.05,0.152 0.135,0.295 0.253,0.431c0.118,0.135 0.273,0.247 0.465,0.338c0.191,0.09 0.422,0.135 0.693,0.135Zm-0.947,-6.862c0,0.146 0.043,0.273 0.127,0.38c0.085,0.107 0.228,0.256 0.431,0.448c0.225,-0.158 0.389,-0.296 0.49,-0.414c0.102,-0.118 0.152,-0.268 0.152,-0.448c0,-0.191 -0.053,-0.338 -0.16,-0.439c-0.107,-0.102 -0.251,-0.152 -0.431,-0.152c-0.192,0 -0.341,0.059 -0.448,0.177c-0.107,0.118 -0.161,0.268 -0.161,0.448Z" style="fill:#2e3954;fill-rule:nonzero;"/><path d="M356.889,308.722c0,-0.733 0.138,-1.454 0.414,-2.164c0.276,-0.709 0.679,-1.346 1.208,-1.909c0.53,-0.564 1.172,-1.02 1.927,-1.369c0.755,-0.35 1.617,-0.524 2.586,-0.524c1.16,0 2.166,0.239 3.017,0.718c0.85,0.479 1.484,1.113 1.901,1.901l-2.518,1.792c-0.113,-0.293 -0.262,-0.535 -0.448,-0.727c-0.186,-0.191 -0.392,-0.344 -0.617,-0.456c-0.225,-0.113 -0.459,-0.192 -0.701,-0.237c-0.243,-0.045 -0.476,-0.067 -0.702,-0.067c-0.473,0 -0.881,0.093 -1.225,0.278c-0.344,0.186 -0.625,0.429 -0.845,0.727c-0.22,0.299 -0.383,0.637 -0.49,1.014c-0.107,0.378 -0.161,0.752 -0.161,1.124c0,0.417 0.062,0.817 0.186,1.2c0.124,0.383 0.304,0.721 0.541,1.014c0.237,0.293 0.527,0.527 0.87,0.702c0.344,0.174 0.73,0.262 1.158,0.262c0.225,0 0.456,-0.026 0.693,-0.076c0.237,-0.051 0.465,-0.136 0.685,-0.254c0.219,-0.118 0.416,-0.27 0.591,-0.456c0.175,-0.186 0.313,-0.414 0.414,-0.685l2.687,1.606c-0.18,0.439 -0.453,0.834 -0.819,1.183c-0.366,0.349 -0.783,0.642 -1.251,0.879c-0.468,0.236 -0.969,0.417 -1.504,0.541c-0.535,0.124 -1.057,0.186 -1.564,0.186c-0.89,0 -1.704,-0.178 -2.442,-0.533c-0.738,-0.355 -1.374,-0.825 -1.91,-1.411c-0.535,-0.586 -0.949,-1.251 -1.242,-1.994c-0.293,-0.744 -0.439,-1.499 -0.439,-2.265Z" style="fill:#2e3954;fill-rule:nonzero;"/><path d="M374.449,314.925c-0.912,0 -1.741,-0.175 -2.484,-0.524c-0.744,-0.35 -1.381,-0.809 -1.91,-1.378c-0.53,-0.569 -0.941,-1.219 -1.234,-1.952c-0.293,-0.732 -0.439,-1.487 -0.439,-2.265c0,-0.788 0.152,-1.549 0.456,-2.281c0.304,-0.733 0.729,-1.378 1.276,-1.936c0.546,-0.557 1.194,-1.002 1.944,-1.335c0.749,-0.332 1.569,-0.498 2.459,-0.498c0.912,0 1.741,0.174 2.484,0.524c0.744,0.349 1.381,0.811 1.91,1.385c0.53,0.575 0.938,1.229 1.225,1.961c0.288,0.732 0.431,1.482 0.431,2.248c0,0.789 -0.152,1.546 -0.456,2.273c-0.304,0.727 -0.727,1.369 -1.267,1.927c-0.541,0.558 -1.186,1.006 -1.936,1.344c-0.749,0.338 -1.569,0.507 -2.459,0.507Zm-2.721,-6.085c0,0.406 0.056,0.797 0.169,1.175c0.113,0.377 0.282,0.712 0.507,1.005c0.225,0.293 0.51,0.53 0.854,0.71c0.343,0.181 0.752,0.271 1.225,0.271c0.473,0 0.884,-0.093 1.234,-0.279c0.349,-0.186 0.634,-0.428 0.853,-0.727c0.22,-0.299 0.383,-0.639 0.49,-1.022c0.107,-0.384 0.161,-0.772 0.161,-1.167c0,-0.405 -0.056,-0.797 -0.169,-1.174c-0.113,-0.378 -0.285,-0.71 -0.516,-0.997c-0.23,-0.288 -0.518,-0.519 -0.861,-0.693c-0.344,-0.175 -0.747,-0.262 -1.209,-0.262c-0.473,0 -0.882,0.09 -1.225,0.27c-0.344,0.18 -0.628,0.42 -0.854,0.718c-0.225,0.299 -0.391,0.637 -0.498,1.014c-0.107,0.378 -0.161,0.764 -0.161,1.158Z" style="fill:#2e3954;fill-rule:nonzero;"/><path d="M385.266,308.925l0,5.898l-3.296,0l0,-12l2.569,0l4.817,6.102l0,-6.102l3.296,0l0,12l-2.62,0l-4.766,-5.898Z" style="fill:#2e3954;fill-rule:nonzero;"/><path d="M401.982,306.744c-0.339,-0.202 -0.688,-0.383 -1.048,-0.54c-0.305,-0.136 -0.645,-0.262 -1.023,-0.381c-0.377,-0.118 -0.746,-0.177 -1.107,-0.177c-0.293,0 -0.527,0.045 -0.701,0.135c-0.175,0.09 -0.262,0.242 -0.262,0.456c0,0.158 0.05,0.288 0.152,0.389c0.101,0.101 0.248,0.194 0.439,0.279c0.192,0.084 0.426,0.166 0.702,0.245c0.276,0.079 0.588,0.175 0.938,0.287c0.552,0.169 1.05,0.355 1.495,0.558c0.445,0.203 0.826,0.442 1.141,0.718c0.316,0.276 0.558,0.612 0.727,1.006c0.169,0.394 0.254,0.873 0.254,1.437c0,0.721 -0.133,1.326 -0.398,1.817c-0.264,0.49 -0.614,0.881 -1.048,1.174c-0.433,0.293 -0.923,0.504 -1.47,0.634c-0.546,0.13 -1.096,0.194 -1.648,0.194c-0.439,0 -0.89,-0.033 -1.352,-0.101c-0.462,-0.068 -0.921,-0.163 -1.377,-0.287c-0.457,-0.124 -0.896,-0.271 -1.319,-0.44c-0.422,-0.169 -0.814,-0.36 -1.174,-0.574l1.419,-2.891c0.395,0.248 0.806,0.468 1.234,0.66c0.361,0.169 0.769,0.321 1.226,0.456c0.456,0.135 0.921,0.203 1.394,0.203c0.36,0 0.611,-0.048 0.752,-0.144c0.141,-0.096 0.211,-0.223 0.211,-0.38c0,-0.169 -0.07,-0.313 -0.211,-0.431c-0.141,-0.119 -0.335,-0.223 -0.583,-0.313c-0.248,-0.09 -0.533,-0.18 -0.854,-0.27c-0.321,-0.09 -0.662,-0.198 -1.022,-0.321c-0.53,-0.181 -0.986,-0.375 -1.369,-0.584c-0.383,-0.208 -0.699,-0.445 -0.947,-0.709c-0.248,-0.265 -0.431,-0.567 -0.549,-0.905c-0.118,-0.338 -0.177,-0.726 -0.177,-1.166c0,-0.665 0.121,-1.251 0.363,-1.758c0.242,-0.507 0.572,-0.929 0.989,-1.267c0.417,-0.338 0.893,-0.595 1.428,-0.769c0.535,-0.175 1.101,-0.262 1.698,-0.262c0.44,0 0.868,0.042 1.285,0.127c0.417,0.084 0.82,0.191 1.208,0.321c0.389,0.129 0.753,0.27 1.091,0.422c0.338,0.152 0.642,0.296 0.912,0.431l-1.419,2.721Z" style="fill:#2e3954;fill-rule:nonzero;"/><path d="M410.381,312.001c0.384,0 0.71,-0.085 0.981,-0.254c0.27,-0.169 0.49,-0.391 0.659,-0.667c0.169,-0.276 0.293,-0.595 0.372,-0.955c0.079,-0.361 0.118,-0.738 0.118,-1.133l0,-6.169l3.296,0l0,6.169c0,0.834 -0.107,1.614 -0.321,2.341c-0.214,0.727 -0.547,1.355 -0.997,1.885c-0.451,0.529 -1.017,0.946 -1.699,1.25c-0.682,0.305 -1.485,0.457 -2.409,0.457c-0.957,0 -1.777,-0.161 -2.459,-0.482c-0.681,-0.321 -1.242,-0.752 -1.681,-1.293c-0.44,-0.541 -0.761,-1.169 -0.964,-1.885c-0.203,-0.715 -0.304,-1.473 -0.304,-2.273l0,-6.169l3.296,0l0,6.169c0,0.395 0.039,0.775 0.118,1.141c0.079,0.366 0.203,0.687 0.372,0.963c0.169,0.277 0.386,0.496 0.651,0.66c0.264,0.163 0.588,0.245 0.971,0.245Z" style="fill:#2e3954;fill-rule:nonzero;"/><path d="M417.7,314.823l0,-12l3.296,0l0,9.127l5.442,0l0,2.873l-8.738,0Z" style="fill:#2e3954;fill-rule:nonzero;"/><path d="M435.328,305.696l-3.448,0l0,9.127l-3.296,0l0,-9.127l-3.465,0l0,-2.873l10.209,0l0,2.873Z" style="fill:#2e3954;fill-rule:nonzero;"/><path d="M438.539,302.823l3.009,0l4.157,12l-3.346,0l-0.727,-2.349l-3.194,0l-0.71,2.349l-3.363,0l4.174,-12Zm2.569,7.454l-1.065,-3.719l-1.115,3.719l2.18,0Z" style="fill:#2e3954;fill-rule:nonzero;"/><path d="M449.998,308.925l0,5.898l-3.295,0l0,-12l2.569,0l4.816,6.102l0,-6.102l3.296,0l0,12l-2.62,0l-4.766,-5.898Z" style="fill:#2e3954;fill-rule:nonzero;"/><path d="M468.793,305.696l-3.448,0l0,9.127l-3.296,0l0,-9.127l-3.465,0l0,-2.873l10.209,0l0,2.873Z" style="fill:#2e3954;fill-rule:nonzero;"/><path d="M477.26,306.744c-0.338,-0.202 -0.687,-0.383 -1.048,-0.54c-0.304,-0.136 -0.645,-0.262 -1.022,-0.381c-0.378,-0.118 -0.747,-0.177 -1.107,-0.177c-0.293,0 -0.527,0.045 -0.702,0.135c-0.174,0.09 -0.262,0.242 -0.262,0.456c0,0.158 0.051,0.288 0.152,0.389c0.102,0.101 0.248,0.194 0.44,0.279c0.191,0.084 0.425,0.166 0.701,0.245c0.276,0.079 0.589,0.175 0.938,0.287c0.552,0.169 1.051,0.355 1.496,0.558c0.445,0.203 0.825,0.442 1.141,0.718c0.315,0.276 0.558,0.612 0.727,1.006c0.169,0.394 0.253,0.873 0.253,1.437c0,0.721 -0.132,1.326 -0.397,1.817c-0.265,0.49 -0.614,0.881 -1.048,1.174c-0.434,0.293 -0.924,0.504 -1.47,0.634c-0.547,0.13 -1.096,0.194 -1.648,0.194c-0.44,0 -0.89,-0.033 -1.352,-0.101c-0.462,-0.068 -0.921,-0.163 -1.378,-0.287c-0.456,-0.124 -0.895,-0.271 -1.318,-0.44c-0.423,-0.169 -0.814,-0.36 -1.175,-0.574l1.42,-2.891c0.394,0.248 0.806,0.468 1.234,0.66c0.36,0.169 0.769,0.321 1.225,0.456c0.457,0.135 0.921,0.203 1.395,0.203c0.36,0 0.611,-0.048 0.752,-0.144c0.141,-0.096 0.211,-0.223 0.211,-0.38c0,-0.169 -0.07,-0.313 -0.211,-0.431c-0.141,-0.119 -0.336,-0.223 -0.583,-0.313c-0.248,-0.09 -0.533,-0.18 -0.854,-0.27c-0.321,-0.09 -0.662,-0.198 -1.022,-0.321c-0.53,-0.181 -0.986,-0.375 -1.369,-0.584c-0.384,-0.208 -0.699,-0.445 -0.947,-0.709c-0.248,-0.265 -0.431,-0.567 -0.549,-0.905c-0.119,-0.338 -0.178,-0.726 -0.178,-1.166c0,-0.665 0.121,-1.251 0.364,-1.758c0.242,-0.507 0.572,-0.929 0.988,-1.267c0.417,-0.338 0.893,-0.595 1.429,-0.769c0.535,-0.175 1.101,-0.262 1.698,-0.262c0.44,0 0.868,0.042 1.285,0.127c0.417,0.084 0.819,0.191 1.208,0.321c0.389,0.129 0.752,0.27 1.09,0.422c0.338,0.152 0.642,0.296 0.913,0.431l-1.42,2.721Z" style="fill:#2e3954;fill-rule:nonzero;"/></svg>