<?xml version="1.0" encoding="UTF-8" standalone="no"?>
<!DOCTYPE svg PUBLIC "-//W3C//DTD SVG 1.1//EN" "http://www.w3.org/Graphics/SVG/1.1/DTD/svg11.dtd">
<svg width="100%" height="100%" viewBox="0 0 400 400" version="1.1" xmlns="http://www.w3.org/2000/svg" xmlns:xlink="http://www.w3.org/1999/xlink" xml:space="preserve" style="fill-rule:evenodd;clip-rule:evenodd;stroke-miterlimit:10;">
    <g transform="matrix(0.313708,0,0,0.313708,2.38258,132.274)">
        <g>
            <g>
                <g transform="matrix(4.16667,0,0,4.16667,0,-415.532)">
                    <path d="M278.913,151.583C278.895,151.951 278.891,152.362 278.879,152.8C278.865,153.616 278.85,154.54 278.763,155.466L278.529,158.521C276.931,153.8 274.166,150.751 271.505,148.794C271.511,148.439 271.519,148.08 271.519,147.729C271.519,144.55 271.398,141.397 271.161,138.279C272.395,139.116 273.533,140.103 274.552,141.226C276.115,143.029 277.396,145.264 278.351,147.884L278.461,148.18L278.514,148.18C278.684,148.768 278.834,149.334 278.955,149.828L278.913,151.583ZM277.856,164.868C277.803,165.226 277.754,165.627 277.705,166.057C277.611,166.842 277.501,167.749 277.328,168.629L276.753,171.841C276.252,169.615 275.518,167.689 274.525,166.012C273.494,164.273 272.222,162.738 270.76,161.41C271.149,157.868 271.398,154.288 271.482,150.669C274.337,153.057 277.241,156.96 278.063,163.223L277.856,164.868ZM275.488,177.838C275.409,178.156 275.326,178.513 275.244,178.883C275.055,179.723 274.843,180.673 274.552,181.612L273.71,184.583C273.113,179.617 271.01,176.071 268.789,173.619C269.517,170.209 270.115,166.744 270.553,163.239C271.59,164.306 272.513,165.501 273.284,166.81C274.454,168.842 275.255,171.295 275.677,174.091L275.727,174.407L275.775,174.417C275.829,175.012 275.863,175.593 275.885,176.12L275.488,177.838ZM272.301,189.072L271.708,190.83C271.384,191.803 270.977,193.018 270.477,194.221L269.277,197.264C269.243,195.129 268.91,193.063 268.283,191.095C267.619,189.185 266.682,187.421 265.515,185.818C266.622,182.425 267.585,178.964 268.388,175.443C270.708,178.353 272.77,182.766 272.301,189.072M267.785,199.571C267.709,200.19 267.633,200.772 267.551,201.264L266.074,204.514L263.714,209.13C263.793,208.08 263.781,207.107 263.756,206.276C263.654,204.441 263.415,202.987 263.007,201.705C262.542,200.182 261.897,198.754 261.104,197.396C262.513,194.191 263.804,190.911 264.942,187.566C265.761,188.829 266.417,190.192 266.905,191.618C267.659,194.074 267.947,196.637 267.751,199.227L267.732,199.548L267.785,199.571ZM262.124,210.083C261.965,211.109 261.728,212.171 261.426,213.226C261.153,213.712 259.955,215.842 258.588,217.886L256.792,220.675C257.797,215.543 256.735,211.436 255.451,208.648C257.21,205.545 258.845,202.36 260.345,199.099C260.828,200.053 261.254,201.038 261.576,202.079C262.033,203.575 262.268,205.221 262.298,207.134C262.301,207.861 262.287,208.96 262.124,210.083M254.908,222.229L254.816,222.546L254.866,222.578C254.68,223.171 254.484,223.731 254.31,224.2L253.284,225.645C252.883,226.199 252.366,226.855 251.813,227.55C251.516,227.931 251.209,228.322 250.904,228.715C250.251,229.576 249.568,230.414 248.978,231.13C249,231.056 249.028,230.977 249.046,230.904C249.265,230.133 249.443,229.298 249.59,228.345C249.825,226.784 249.888,225.231 249.779,223.72C249.642,222.163 249.295,220.624 248.778,219.122C250.817,216.251 252.731,213.289 254.521,210.245C255.628,213.095 256.349,217.18 254.908,222.229M148.137,267.902C81.766,267.902 27.959,214.098 27.959,147.726C27.959,81.356 81.766,27.551 148.137,27.551C214.507,27.551 268.314,81.356 268.314,147.726C268.314,214.098 214.507,267.902 148.137,267.902M245.945,234.649C245.942,234.649 245.504,235.173 244.821,235.924L242.192,238.681C241.568,239.353 240.708,240.248 239.904,241.007C240.712,239.08 241.217,237.047 241.403,234.934C241.592,233.004 241.432,231.014 240.961,229.005C243.329,226.299 245.575,223.501 247.705,220.595C248.698,224.195 248.865,229.059 245.945,234.649M239.269,238.414C238.963,239.532 238.48,240.695 237.718,242.187L237.569,242.476L237.611,242.52C237.309,243.074 237.007,243.588 236.738,244.027C236.735,244.034 236.244,244.528 235.454,245.191L232.502,247.748C231.694,248.474 230.855,249.133 230.111,249.72C230.61,248.81 230.999,247.963 231.297,247.121C231.83,245.633 232.195,244.114 232.384,242.615C232.589,241.103 232.558,239.522 232.344,237.903C234.914,235.496 237.391,232.985 239.752,230.368C239.828,230.81 239.892,231.255 239.938,231.686C240.02,232.727 240.017,233.793 239.921,234.859C239.816,236.036 239.597,237.233 239.269,238.414M226.436,252.604L221.974,255.78C221.243,256.3 220.481,256.787 219.805,257.215C219.616,257.336 219.435,257.448 219.258,257.559C219.695,256.927 220.093,256.284 220.444,255.638C221.025,254.58 221.505,253.399 221.946,251.922C222.539,249.86 222.777,247.929 222.714,246.021C225.569,243.851 228.332,241.565 230.983,239.157C231.059,240.243 231.051,241.316 230.918,242.369C230.709,244.092 230.274,245.769 229.631,247.336C228.845,249.12 227.769,250.891 226.436,252.604M216.882,258.311L216.679,258.556L216.716,258.614C216.335,259.073 215.945,259.54 215.583,259.894L210.686,262.712L207.917,264.137C208.532,263.394 209.096,262.633 209.594,261.859C210.372,260.637 211.017,259.251 211.565,257.638C212.075,256.132 212.366,254.583 212.483,253.02C215.49,251.178 218.408,249.214 221.237,247.125C221.119,250.472 220.036,254.365 216.882,258.311M203.717,266.216C203.344,266.394 201.045,267.443 198.741,268.451L195.696,269.647C199.246,266.157 200.825,262.395 201.41,259.049C204.651,257.491 207.808,255.8 210.889,253.979C210.738,255.037 210.523,256.081 210.179,257.118C209.107,260.498 206.936,263.558 203.717,266.216M193.216,269.921L192.974,270.125L192.997,270.183C192.578,270.514 192.132,270.82 191.652,271.132L191.559,271.195L189.941,271.744C189.591,271.857 189.198,271.989 188.783,272.135C188.012,272.4 187.131,272.702 186.248,272.953L183.287,273.788C187.188,270.645 189.088,266.998 189.991,263.827C193.31,262.631 196.561,261.296 199.738,259.826C199.379,261.283 198.842,262.691 198.133,264.045C197.094,266.063 195.482,267.986 193.216,269.921M178.778,274.961L177.097,275.35C176.77,275.42 176.411,275.505 176.029,275.596C175.225,275.782 174.31,276.001 173.389,276.147L170.179,276.717C172.068,275.491 173.643,274.116 174.877,272.616C176.151,271.049 177.159,269.32 177.902,267.493C181.399,266.628 184.84,265.611 188.212,264.454C187.854,265.449 187.43,266.435 186.894,267.381C186.436,268.178 185.991,268.855 185.541,269.437C184.994,270.118 184.389,270.781 183.737,271.403C182.045,273.004 180.44,274.142 178.778,274.961M167.695,276.486L167.411,276.64L167.419,276.691C166.863,276.95 166.332,277.181 165.863,277.376C165.863,277.376 163.465,277.68 163.11,277.722C162.237,277.84 161.252,277.973 160.252,278.026L157.182,278.259C161.627,275.979 164.236,272.781 165.765,269.857C169.266,269.353 172.717,268.719 176.109,267.929C175.47,269.273 174.662,270.548 173.703,271.731C172.158,273.554 170.133,275.155 167.695,276.486M152.48,278.495L150.817,278.54C150.475,278.54 150.093,278.554 149.685,278.569C149.175,278.579 148.624,278.601 148.054,278.601C147.718,278.601 147.377,278.595 147.027,278.579L143.759,278.495C145.871,277.664 147.695,276.64 149.193,275.42C150.754,274.139 152.087,272.652 153.183,271.004C156.795,270.858 160.376,270.568 163.906,270.115C161.98,273.292 158.555,276.745 152.48,278.495M141.384,277.777L141.079,277.868L141.079,277.923C140.534,278.058 139.969,278.181 139.416,278.288L137.66,278.152C137.29,278.118 136.875,278.087 136.437,278.058C135.626,277.999 134.703,277.936 133.79,277.806L130.746,277.423C135.547,276.064 138.73,273.452 140.811,270.894C143.234,271.033 145.671,271.117 148.128,271.117C149.201,271.117 150.271,271.104 151.336,271.072C150.441,272.266 149.394,273.35 148.219,274.313C146.366,275.777 144.065,276.94 141.384,277.777M126.078,276.717L124.44,276.423C124.092,276.362 123.711,276.294 123.303,276.223C122.506,276.084 121.599,275.927 120.712,275.706L117.528,274.964C119.753,274.58 121.743,273.938 123.466,273.046C125.252,272.099 126.852,270.907 128.253,269.517C131.774,270.086 135.338,270.509 138.949,270.776C136.426,273.507 132.378,276.21 126.078,276.717M115.338,273.783L115.022,273.812L115.006,273.861C114.7,273.87 114.398,273.885 114.081,273.885C113.907,273.885 113.378,273.88 113.299,273.885L110.807,273.175C109.912,272.922 108.896,272.634 107.888,272.267L104.95,271.277C109.953,270.939 113.609,269.005 116.161,266.924C119.534,267.831 122.959,268.596 126.442,269.215C125.315,270.203 124.077,271.054 122.737,271.763C120.61,272.835 118.118,273.515 115.338,273.783M100.602,269.666L98.987,269.033C98.121,268.7 96.815,268.178 95.501,267.556L92.495,266.199C92.763,266.212 93.028,266.228 93.292,266.228C95.108,266.228 96.932,265.993 98.734,265.531C100.678,264.967 102.483,264.117 104.141,263.035C107.48,264.311 110.89,265.449 114.357,266.438C111.842,268.238 108.265,269.832 103.48,269.832C102.514,269.832 101.506,269.769 100.602,269.666M90.649,264.58L90.324,264.534L90.293,264.594C89.686,264.492 89.107,264.383 88.617,264.277L87.027,263.465C86.067,262.999 84.837,262.295 83.639,261.597L80.951,260.046C81.834,260.162 82.771,260.225 83.802,260.23C85.557,260.23 87.064,260.062 88.405,259.726C89.942,259.341 91.411,258.763 92.801,258.036C95.939,259.611 99.149,261.061 102.431,262.369C101.109,263.132 99.715,263.718 98.288,264.117C96.612,264.541 94.923,264.754 93.258,264.754C92.39,264.754 91.513,264.696 90.649,264.58M76.985,257.554C76.513,257.257 74.455,255.956 72.472,254.484C72.076,254.202 71.675,253.92 71.287,253.647C70.728,253.253 70.218,252.885 69.757,252.539C71.445,252.962 73.122,253.189 74.776,253.189C77.216,253.189 79.58,252.704 81.831,251.805C84.851,253.731 87.959,255.528 91.15,257.189C90.173,257.632 89.168,258.008 88.114,258.275C86.687,258.598 85.229,258.756 83.786,258.756C81.509,258.756 79.221,258.354 76.985,257.554M68.013,250.487L67.979,250.532C67.39,250.312 66.831,250.093 66.378,249.899L65.002,248.815L61.831,246.081C61.049,245.404 60.301,244.758 59.678,244.177C61.928,244.985 64.206,245.399 66.475,245.399C68.261,245.399 70.025,245.123 71.74,244.631C74.501,246.81 77.359,248.868 80.305,250.809C78.526,251.395 76.676,251.708 74.776,251.708C72.661,251.708 70.49,251.327 68.322,250.59L68.013,250.487ZM56.369,241.022L56.026,240.689C55.811,240.489 55.505,240.198 55.158,239.825L52.526,237.06C51.68,236.205 50.909,235.338 50.324,234.657C51.053,235.018 51.748,235.31 52.431,235.546C53.723,235.977 55.033,236.283 56.321,236.464C57.242,236.591 58.148,236.653 59.021,236.653C59.296,236.653 59.565,236.65 59.837,236.632C60.652,236.578 61.464,236.472 62.261,236.32C64.837,238.821 67.518,241.206 70.305,243.473C69.24,243.71 68.175,243.872 67.11,243.899C66.948,243.909 66.777,243.909 66.612,243.909C65.104,243.909 63.552,243.723 62.004,243.355C60.271,242.941 58.398,242.156 56.369,241.022M48.976,232.255L48.922,232.298C48.387,231.967 47.884,231.644 47.472,231.363L47.167,231.011L43.957,226.931C43.356,226.199 42.808,225.422 42.325,224.729C42.257,224.632 42.189,224.535 42.125,224.438C42.979,224.963 43.809,225.401 44.644,225.763C46.109,226.37 47.609,226.808 49.096,227.07C50.128,227.259 51.196,227.352 52.269,227.352C52.774,227.352 53.292,227.314 53.809,227.268C56.079,229.959 58.458,232.557 60.951,235.044C60.301,235.121 59.644,235.169 58.983,235.169C58.16,235.169 57.307,235.111 56.461,234.987C55.293,234.824 54.107,234.546 52.948,234.166C51.766,233.748 50.562,233.179 49.251,232.416L48.976,232.255ZM39.429,220.624L36.475,216.02C35.992,215.247 35.546,214.462 35.142,213.757C35.094,213.667 34.973,213.449 34.814,213.181C38.284,215.779 42.099,217.136 46.173,217.238C48.205,220.212 50.361,223.087 52.635,225.863C52.537,225.863 52.431,225.872 52.329,225.872C51.351,225.872 50.369,225.79 49.418,225.62C47.601,225.299 46,224.793 44.524,224.077C42.711,223.168 40.996,222.008 39.429,220.624M34.202,210.796L33.96,210.578L33.9,210.615C33.489,210.238 33.051,209.82 32.695,209.414L30.12,204.381L28.836,201.536C29.546,202.192 30.279,202.791 31.026,203.333C32.156,204.153 33.462,204.85 35.146,205.52C36.642,206.104 38.168,206.474 39.705,206.674C41.393,209.767 43.22,212.788 45.158,215.716C41.196,215.38 37.514,213.735 34.202,210.796M26.996,197.304L26.362,195.693C26.238,195.36 26.091,194.989 25.932,194.595C25.63,193.848 25.298,193.003 25.003,192.158L23.953,189.056C25.494,190.796 27.068,192.129 28.73,193.081C30.471,194.103 32.325,194.839 34.251,195.296C35.641,198.624 37.178,201.872 38.847,205.049C37.797,204.845 36.755,204.554 35.735,204.157C34.051,203.517 32.548,202.673 31.272,201.662C29.984,200.634 28.326,199.203 26.996,197.304M23.806,186.567L23.613,186.312L23.561,186.335C23.247,185.886 22.956,185.42 22.643,184.9L22.159,183.203C22.065,182.846 21.951,182.455 21.831,182.038C21.601,181.253 21.336,180.356 21.143,179.452L20.453,176.446C23.387,180.499 26.94,182.589 30.063,183.659C31.087,187.034 32.253,190.348 33.552,193.593C32.122,193.163 30.739,192.556 29.429,191.777C27.438,190.6 25.6,188.897 23.806,186.567M19.213,170.19C19.161,169.883 19.1,169.544 19.032,169.183C18.881,168.351 18.708,167.408 18.606,166.45L18.202,163.215C19.319,165.151 20.611,166.794 22.054,168.119C23.553,169.469 25.226,170.555 27.02,171.391C27.707,174.934 28.541,178.435 29.531,181.866C26.098,180.444 22.163,177.584 19.504,171.828L19.213,170.19ZM17.756,158.87L17.624,157.11C17.601,156.787 17.575,156.429 17.544,156.047C17.473,155.193 17.397,154.217 17.393,153.238L17.318,150.177C19.376,154.716 22.435,157.481 25.275,159.158C25.596,162.675 26.06,166.151 26.672,169.583C25.358,168.872 24.127,168.006 22.997,166.989C21.245,165.332 19.75,163.233 18.556,160.743L18.417,160.457L18.364,160.46C18.13,159.885 17.922,159.342 17.756,158.87M17.352,143.797C17.367,143.436 17.375,143.032 17.382,142.606C17.397,141.806 17.413,140.903 17.499,140.008L17.745,136.752C18.466,138.912 19.391,140.754 20.55,142.325C21.748,143.952 23.171,145.353 24.758,146.522C24.754,146.926 24.742,147.327 24.742,147.729C24.742,150.946 24.867,154.133 25.108,157.283C22.035,155.198 18.757,151.609 17.31,145.454L17.352,143.797ZM18.394,130.661C18.451,130.302 18.496,129.893 18.549,129.46C18.647,128.646 18.757,127.721 18.938,126.817L19.482,123.797C20.588,128.662 23.036,131.968 25.487,134.18C25.108,137.642 24.867,141.144 24.781,144.687C23.636,143.729 22.601,142.628 21.702,141.407C20.335,139.504 19.289,137.146 18.586,134.403L18.507,134.097L18.455,134.089C18.349,133.567 18.259,133.011 18.171,132.41L18.394,130.661ZM20.792,117.537C20.864,117.242 20.943,116.902 21.022,116.547C21.208,115.723 21.419,114.784 21.706,113.858L22.598,110.716C22.862,112.926 23.405,114.944 24.217,116.744C25.067,118.578 26.177,120.237 27.499,121.712C26.752,125.191 26.143,128.734 25.698,132.326C23.099,129.664 20.604,125.49 20.419,119.168L20.792,117.537ZM23.904,106.553L24.569,104.579C24.894,103.609 25.298,102.409 25.789,101.226L26.929,98.332C27.005,103.343 28.738,107.095 30.701,109.77C29.629,113.091 28.685,116.473 27.892,119.911C26.963,118.738 26.17,117.46 25.532,116.083C24.561,113.845 24.01,111.323 23.904,108.591L23.889,108.271L23.836,108.256C23.847,107.644 23.87,107.049 23.904,106.553M28.76,94.08L30.203,90.908L32.627,86.177C32.447,88.226 32.56,90.315 32.983,92.427C33.435,94.372 34.191,96.221 35.203,97.953C33.76,101.221 32.45,104.564 31.29,107.97C30.713,107.069 30.192,106.132 29.769,105.133C29.165,103.752 28.768,102.176 28.53,100.176C28.428,99.223 28.383,98.227 28.401,97.219C28.439,96.271 28.564,95.238 28.76,94.08M34.342,84.445L35.063,84.445L34.353,84.051C34.486,83.441 34.621,82.866 34.75,82.386L35.641,80.84C36.022,80.136 36.57,79.284 37.152,78.379L38.462,76.334C38.779,75.844 39.082,75.361 39.364,74.934C39.191,75.849 39.082,76.793 39.032,77.785C38.949,79.463 39.036,80.971 39.305,82.406C39.61,83.967 40.116,85.456 40.769,86.886C39.036,89.942 37.427,93.073 35.954,96.283C35.248,94.904 34.731,93.487 34.421,92.058C33.904,89.447 33.881,86.886 34.342,84.445M42.02,71.154L43.02,69.753C43.417,69.215 43.919,68.567 44.456,67.89C44.75,67.521 45.048,67.14 45.35,66.752C46.056,65.813 46.793,64.915 47.413,64.174C45.898,69.17 46.536,73.358 47.53,76.266C45.46,79.178 43.515,82.192 41.698,85.287C41.306,84.283 40.985,83.257 40.769,82.197C40.128,78.436 40.562,74.695 42.02,71.154M49.444,62.821L49.572,62.519L49.519,62.47C49.765,61.892 50.011,61.357 50.23,60.913L51.385,59.591L55.498,55.277L56.272,54.534C54.334,59.173 54.443,63.317 55.207,66.552C52.895,69.199 50.697,71.941 48.617,74.779C48.198,73.27 47.982,71.784 47.99,70.328C47.982,67.599 48.458,65.143 49.444,62.821M56.982,56.87C57.533,55.083 58.409,53.248 59.606,51.351C59.614,51.343 60.09,50.869 60.868,50.213L63.749,47.712C64.607,46.945 65.524,46.229 66.264,45.65C65.89,46.337 65.55,47.024 65.267,47.699C64.772,48.966 64.402,50.265 64.161,51.542C63.775,53.526 63.734,55.52 63.998,57.484C61.374,59.927 58.854,62.485 56.453,65.156C56.264,64.077 56.159,63.007 56.189,61.944C56.222,60.276 56.491,58.568 56.982,56.87M68.552,44.688L68.734,44.414L68.692,44.361C69.036,43.862 69.379,43.384 69.734,42.926C69.893,42.81 70.403,42.44 71.116,41.934L74.296,39.672C75.044,39.133 75.837,38.632 76.532,38.192C76.653,38.115 76.77,38.042 76.887,37.969C76.339,38.774 75.852,39.588 75.433,40.415C74.754,41.847 74.24,43.33 73.908,44.804C73.549,46.327 73.417,47.896 73.466,49.499C70.663,51.634 67.948,53.881 65.335,56.247C65.245,54.805 65.335,53.303 65.622,51.755C65.856,50.549 66.193,49.376 66.619,48.291C67.129,47.085 67.782,45.869 68.552,44.688M80.834,35.474L85.565,32.75L88.484,31.252C85.309,35.083 84.115,38.987 83.874,42.375C80.796,44.256 77.812,46.273 74.923,48.404C74.961,47.363 75.101,46.287 75.335,45.196C75.769,43.33 76.351,41.753 77.125,40.386C78.186,38.523 79.398,36.912 80.834,35.474M90.913,30.747L91.136,30.517L91.105,30.453C91.536,30.026 91.97,29.635 92.378,29.312C92.382,29.312 94.95,28.123 97.533,27.005L100.429,25.864C98.504,27.754 97.061,29.8 96.136,31.955C95.475,33.44 95.033,34.944 94.757,36.45C91.574,37.985 88.469,39.654 85.444,41.44C85.893,38.119 87.366,34.356 90.913,30.747M104.761,24.243L106.392,23.687C106.732,23.579 107.106,23.456 107.506,23.311C108.269,23.052 109.13,22.753 109.999,22.516L113.144,21.618C111.347,23.059 109.942,24.562 108.881,26.182C107.771,27.872 106.951,29.685 106.392,31.582C103.004,32.805 99.689,34.166 96.445,35.662C96.698,34.638 97.019,33.616 97.465,32.615C98.16,31.015 99.077,29.554 100.187,28.289C101.283,27.043 102.805,25.453 104.761,24.243M115.637,21.595L115.901,21.414L115.886,21.367C116.358,21.081 116.86,20.797 117.366,20.527L119.088,20.126C119.428,20.054 119.803,19.966 120.199,19.873C121.018,19.676 121.944,19.454 122.887,19.309L125.92,18.764C121.724,21.488 119.454,24.933 118.227,27.997C114.802,28.848 111.434,29.842 108.129,30.975C108.631,29.57 109.307,28.216 110.146,26.946C111.43,25.024 113.281,23.225 115.637,21.595M130.576,18.055C130.576,18.055 132.85,17.769 133.189,17.724C134.047,17.617 135.013,17.491 135.996,17.433L139.243,17.189C137.256,18.21 135.55,19.417 134.157,20.79C132.732,22.219 131.559,23.833 130.633,25.586C127.052,26.09 123.522,26.749 120.044,27.554C121.641,24.2 124.7,20.414 130.576,18.055M141.698,17.665L141.989,17.543L141.989,17.491C142.578,17.284 143.137,17.107 143.604,16.966L145.364,16.921C145.716,16.916 146.112,16.908 146.532,16.89C147.057,16.877 147.626,16.858 148.208,16.858C148.544,16.858 148.891,16.864 149.243,16.877L152.305,16.961C147.671,18.79 144.76,21.708 142.943,24.461C139.41,24.604 135.909,24.888 132.457,25.327C133.234,24.053 134.16,22.867 135.233,21.791C136.973,20.126 139.145,18.735 141.698,17.665M157.023,17.184L158.681,17.31C159.04,17.342 159.432,17.371 159.854,17.402C160.655,17.457 161.565,17.52 162.457,17.651L165.7,18.06C163.496,18.677 161.61,19.506 159.987,20.58C158.306,21.698 156.837,23.046 155.58,24.571C153.113,24.426 150.633,24.345 148.128,24.345C147.022,24.345 145.92,24.358 144.821,24.387C147.057,21.421 150.811,18.323 157.023,17.184M168.001,19.018L168.311,18.955L168.321,18.902C168.868,18.824 169.444,18.758 170.014,18.706L171.746,19.018C172.102,19.087 172.497,19.152 172.918,19.228C173.729,19.368 174.655,19.524 175.561,19.756L178.571,20.448C173.643,21.304 170.209,23.579 167.876,25.919C164.431,25.366 160.946,24.946 157.419,24.688C158.435,23.595 159.583,22.616 160.848,21.776C162.811,20.513 165.217,19.582 168.001,19.018M182.578,21.616C182.759,21.616 182.943,21.616 183.129,21.618L185.47,22.287C186.357,22.54 187.362,22.821 188.363,23.182L191.489,24.243C189.303,24.387 187.241,24.81 185.349,25.534C183.477,26.295 181.765,27.321 180.224,28.567C176.781,27.641 173.279,26.854 169.723,26.227C172.423,23.842 176.55,21.616 182.578,21.616M193.827,25.651L193.85,25.6C194.465,25.638 195.055,25.693 195.55,25.744L197.204,26.4C198.521,26.901 199.726,27.408 200.768,27.905L203.598,29.181L203.095,29.181C202.378,29.181 201.638,29.212 200.754,29.28C199.02,29.451 197.535,29.777 196.222,30.27C194.725,30.805 193.325,31.524 192.014,32.385C188.741,31.141 185.402,30.02 182.003,29.053C183.22,28.184 184.541,27.457 185.945,26.888C188.182,26.061 190.591,25.642 193.102,25.642L193.827,25.651ZM207.752,31.233L209.303,32.03C210.206,32.469 211.384,33.144 212.612,33.851L215.436,35.478C214.719,35.386 213.959,35.322 213.155,35.3C212.925,35.293 212.702,35.289 212.479,35.289C211.361,35.289 210.251,35.374 209.186,35.542C207.261,35.872 205.375,36.529 203.559,37.468C200.364,35.862 197.097,34.389 193.751,33.057C194.68,32.521 195.643,32.051 196.668,31.674C198.099,31.144 199.692,30.834 201.678,30.698C202.116,30.666 202.567,30.656 203.027,30.656C203.552,30.656 204.095,30.672 204.632,30.711C205.677,30.824 206.761,31.015 207.752,31.233M217.45,37.381L217.483,37.329C218.072,37.488 218.639,37.652 219.178,37.838C219.653,38.14 221.785,39.491 223.796,40.976C224.202,41.267 224.609,41.556 225.005,41.836C225.477,42.167 225.931,42.483 226.338,42.784C226.252,42.765 226.168,42.742 226.086,42.723C225.213,42.542 224.349,42.403 223.505,42.317C222.773,42.241 222.037,42.206 221.319,42.206C220.5,42.206 219.689,42.254 218.879,42.353C217.309,42.579 215.792,43.01 214.333,43.594C211.369,41.702 208.314,39.94 205.188,38.305C207.456,37.284 209.896,36.757 212.471,36.757C213.985,36.757 215.557,36.943 217.136,37.307L217.45,37.381ZM229.975,45.633L231.319,46.691L234.662,49.575C235.394,50.207 236.086,50.811 236.656,51.351C234.719,50.656 232.657,50.252 230.503,50.16C230.232,50.145 229.96,50.134 229.684,50.134C228.046,50.134 226.338,50.402 224.606,50.898C221.796,48.67 218.879,46.575 215.882,44.602C216.905,44.258 217.944,43.988 219.012,43.834C219.802,43.734 220.602,43.684 221.395,43.684C224.333,43.684 227.249,44.356 229.975,45.633M238.223,53.618L238.272,53.563C238.828,53.836 239.356,54.104 239.805,54.353L240.274,54.799C240.481,54.996 240.754,55.258 241.051,55.578L243.748,58.405C244.4,59.064 245.089,59.821 245.84,60.687C243.57,59.607 241.153,58.969 238.63,58.774C238.167,58.737 237.71,58.716 237.26,58.716C236.176,58.716 235.055,58.838 233.914,59.052C231.387,56.605 228.755,54.266 226.029,52.042C227.249,51.771 228.476,51.619 229.689,51.619C229.96,51.619 230.229,51.627 230.5,51.639C233.132,51.752 235.628,52.369 237.921,53.471L238.223,53.618ZM248.865,64.183L249.164,64.532L252.298,68.52C252.883,69.239 253.426,70.002 253.903,70.683C254.016,70.842 254.118,70.977 254.224,71.131C253.567,70.73 252.902,70.362 252.234,70.034C251.062,69.496 249.825,69.073 248.446,68.738C246.942,68.371 245.439,68.19 243.979,68.19C243.487,68.19 243,68.218 242.513,68.261C240.201,65.515 237.774,62.87 235.236,60.336C235.9,60.259 236.566,60.2 237.215,60.2C237.619,60.2 238.03,60.218 238.458,60.254C240.13,60.37 241.825,60.725 243.487,61.289C245.3,61.974 247.139,62.975 248.865,64.183M255.077,73.467L255.337,73.658L255.391,73.619C255.851,73.965 256.315,74.325 256.769,74.736L259.794,79.446C260.361,80.393 260.912,81.343 261.376,82.144C260.598,81.558 259.805,81.031 258.992,80.559C257.671,79.834 256.221,79.245 254.685,78.806C253.389,78.45 252.064,78.218 250.734,78.129C250.489,78.118 250.251,78.118 250.009,78.111C248.023,75.211 245.916,72.396 243.694,69.68C243.778,69.675 243.869,69.675 243.951,69.675C247.837,69.675 251.579,70.952 255.077,73.467M263.654,86.205L266.134,91.065L267.49,94.062C263.739,90.627 259.824,89.284 256.603,88.87C254.888,85.718 253.033,82.655 251.062,79.677C252.127,79.782 253.189,79.94 254.231,80.223C257.659,81.123 260.833,83.136 263.654,86.205M268.088,96.747L268.155,96.718C268.574,97.188 268.944,97.684 269.22,98.046L269.865,99.69C269.997,100.024 270.144,100.394 270.303,100.795C270.61,101.567 270.96,102.433 271.262,103.314L272.263,106.271C270.446,104.233 268.48,102.684 266.388,101.659C264.937,100.935 263.457,100.409 261.969,100.06C260.605,96.799 259.099,93.618 257.467,90.51C260.497,91.099 264.378,92.65 267.868,96.502L268.088,96.747ZM274.121,112.328C274.216,112.677 274.326,113.06 274.445,113.477C274.668,114.243 274.925,115.109 275.111,115.997L275.843,119.177C274.51,117.326 273.083,115.842 271.505,114.684C269.881,113.495 268.105,112.582 266.236,111.927C265.194,108.479 264.008,105.101 262.675,101.785C263.688,102.092 264.685,102.462 265.665,102.955C266.399,103.325 267.116,103.747 267.797,104.196C268.498,104.705 269.189,105.279 269.847,105.901C270.923,106.94 272.49,108.567 273.649,110.669L274.121,112.328ZM275.961,121.931C276.252,122.477 276.512,123.007 276.724,123.453L277.037,125.191C277.089,125.505 277.15,125.855 277.221,126.232C277.376,127.08 277.551,128.043 277.656,129.021L278.049,132.082C275.541,127.757 272.214,125.317 269.215,123.929C268.543,120.462 267.724,117.051 266.761,113.695C268.139,114.269 269.45,115.007 270.681,115.907C272.553,117.324 274.261,119.263 275.741,121.67L275.908,121.939L275.961,121.931ZM278.718,139.436C278.789,140.286 278.865,141.242 278.868,142.212L278.952,145.467C278.018,143.417 276.905,141.649 275.609,140.202C274.253,138.709 272.697,137.452 271.002,136.44C270.673,132.835 270.201,129.279 269.568,125.768C272.841,127.537 276.467,130.778 278.517,136.763C278.517,136.763 278.69,139.077 278.718,139.436M280.5,147.275L280.474,147.275L280.387,143.559C280.387,141.656 280.198,139.3 280.005,136.81C279.941,136.002 279.876,135.18 279.813,134.333C279.703,133.477 279.597,132.622 279.495,131.782C279.201,129.342 278.918,127.043 278.543,125.214L277.887,121.533L277.905,121.53L277.803,121.089L277.721,120.64L277.701,120.644L276.867,117.015C276.467,115.065 275.772,112.688 275.038,110.165L274.442,108.093L274.064,106.972C273.113,104.135 272.211,101.457 271.346,99.408L270.235,96.595C269.975,95.935 269.797,95.571 269.771,95.519L268.057,91.716C267.608,90.672 267.015,89.515 266.388,88.297L266.153,87.838C265.905,87.371 265.665,86.894 265.42,86.41C264.933,85.447 264.428,84.445 263.846,83.488L261.387,79.215L258.611,74.867C258.147,74.136 257.743,73.505 257.407,73.057L257.007,72.496L254.31,68.704L251.674,65.327L250.161,63.421L248.532,61.537C246.671,59.305 244.654,57.2 243.03,55.503L242.31,54.757C241.734,54.133 241.18,53.618 240.737,53.193C240.508,52.986 240.308,52.795 240.13,52.618L239.359,51.884L239.303,51.828C239.254,51.779 234.423,47.095 229.133,43.093L227.151,41.55C227.151,41.55 224.315,39.528 223.895,39.229C223.101,38.659 222.358,38.129 221.663,37.673L218.136,35.411C218.038,35.353 216.651,34.437 214.544,33.254C214.174,33.051 213.785,32.823 213.386,32.589C212.589,32.133 211.728,31.632 210.806,31.133L206.436,28.895C205.454,28.388 204.446,27.932 203.468,27.502C202.959,27.271 202.452,27.05 201.966,26.82C200.251,26.032 199.028,25.508 198.004,25.127L193.683,23.426L193.683,23.429C193.098,23.203 192.048,22.852 190.142,22.219C187.962,21.498 184.662,20.454 181.294,19.566C180.523,19.391 179.76,19.213 178.998,19.032C176.527,18.447 174.191,17.905 172.287,17.61L168.611,16.966L168.616,16.942L168.162,16.883L167.718,16.803L167.713,16.83L164.019,16.357C162.2,16.076 159.938,15.914 157.544,15.744C156.656,15.681 155.747,15.617 154.818,15.539C153.918,15.523 153.016,15.497 152.132,15.471C150.596,15.429 149.111,15.384 147.759,15.384C146.996,15.384 146.27,15.399 145.614,15.431L141.89,15.529L141.89,15.51L141.455,15.539L140.977,15.555L140.977,15.575L137.272,15.853C135.341,15.948 132.966,16.253 130.455,16.58C129.678,16.683 128.891,16.785 128.08,16.887C127.275,17.029 126.471,17.168 125.678,17.31C123.205,17.738 120.879,18.147 119.032,18.619L115.395,19.464L115.392,19.446L114.972,19.566L114.508,19.676L114.515,19.695L108.964,21.269C108.511,21.411 108.046,21.571 107.563,21.731C107.563,21.731 105.791,22.335 105.27,22.503C104.247,22.852 103.193,23.203 102.144,23.595L97.582,25.392C96.608,25.759 95.686,26.182 94.874,26.559C94.443,26.759 94.036,26.946 93.631,27.121L90.856,28.376L90.241,28.688L90.237,28.688L89.851,28.885L89.429,29.095L89.429,29.102L86.116,30.794C85.301,31.193 84.421,31.7 83.492,32.24C83.122,32.453 81.294,33.505 81.294,33.505C80.244,34.101 79.153,34.725 78.114,35.421L73.972,38.092L70.482,40.564C69.357,41.356 68.549,41.952 68.028,42.38L67.483,42.81L67.483,42.807L67,43.188L66.77,43.369L63.829,45.696C63.295,46.164 62.706,46.668 62.08,47.208C60.482,48.578 58.666,50.129 56.97,51.819C55.052,53.581 53.295,55.432 51.748,57.066C51.306,57.53 50.89,57.972 50.49,58.391C48.809,60.254 47.726,61.537 47.726,61.537L47.438,61.882L47.45,61.892C45.762,63.64 41.31,69.493 39.524,72.113C38.598,73.362 37.778,74.658 36.978,75.902L36.774,76.221C36.483,76.686 36.193,77.138 35.909,77.57C35.388,78.379 34.889,79.145 34.493,79.867L32.635,83.097L32.325,83.642L32.182,83.889L31.831,84.497L30.437,87.203C30.248,87.581 30.041,87.975 29.826,88.394C29.402,89.211 28.945,90.092 28.511,91.042L26.487,95.519C26.038,96.534 25.638,97.565 25.248,98.565C25.045,99.082 24.848,99.594 24.644,100.095L23.809,102.215L21.673,108.534L21.68,108.534C21.479,109.13 21.185,110.202 20.652,112.133C20.045,114.34 19.168,117.688 18.459,121.098C18.315,121.911 18.168,122.722 18.02,123.521C17.575,125.981 17.156,128.303 16.963,130.187L16.581,133.196C16.547,133.483 16.517,133.713 16.498,133.897L16.48,133.897L16.446,134.345L16.4,134.803L16.412,134.803L16.128,138.508C15.943,140.295 15.895,142.498 15.845,144.826C15.826,145.776 15.803,146.742 15.773,147.744C15.803,148.713 15.826,149.683 15.845,150.63C15.895,152.963 15.943,155.16 16.125,156.934L16.412,160.66L16.4,160.66L16.446,161.111L16.48,161.562L16.498,161.562C16.522,161.746 16.547,161.969 16.581,162.262L16.963,165.259C17.156,167.153 17.575,169.474 18.02,171.937C18.168,172.733 18.315,173.544 18.459,174.368C19.168,177.768 20.045,181.116 20.652,183.323C21.185,185.256 21.479,186.325 21.68,186.923L21.673,186.923L23.817,193.261L24.648,195.373C24.848,195.865 25.045,196.374 25.248,196.891C25.638,197.891 26.038,198.925 26.491,199.94L28.511,204.415C28.945,205.364 29.402,206.244 29.826,207.062C30.041,207.48 30.248,207.879 30.441,208.266L31.838,210.974L32.182,211.571L32.635,212.358L34.49,215.583C34.889,216.315 35.388,217.073 35.909,217.886C36.193,218.317 36.483,218.771 36.782,219.238L36.978,219.553C37.778,220.799 38.598,222.093 39.515,223.329C41.31,225.966 45.762,231.815 47.45,233.563L47.438,233.573L47.726,233.919C47.726,233.919 48.809,235.205 50.498,237.079C50.89,237.49 51.306,237.928 51.748,238.395C53.295,240.025 55.052,241.878 56.959,243.628C58.666,245.326 60.482,246.877 62.08,248.251C62.706,248.79 63.295,249.296 63.847,249.783L66.77,252.086L67.208,252.436L67.483,252.652L67.483,252.646L68.02,253.071C68.549,253.502 69.357,254.1 70.482,254.892L73.991,257.38L78.107,260.03C79.153,260.734 80.244,261.355 81.294,261.956C81.294,261.956 83.122,263.009 83.492,263.218C84.421,263.756 85.301,264.263 86.109,264.659L89.429,266.357L89.429,266.362L89.825,266.561L90.237,266.767L90.241,266.767L90.871,267.089L93.639,268.338C94.036,268.509 94.443,268.7 94.878,268.9C95.686,269.273 96.608,269.698 97.578,270.068L102.155,271.867C103.193,272.255 104.247,272.603 105.27,272.953C105.791,273.12 107.563,273.725 107.563,273.725C108.046,273.89 108.511,274.045 108.975,274.192L114.515,275.761L114.508,275.782L114.972,275.892L115.392,276.009L115.395,275.992L119.024,276.832C120.879,277.309 123.205,277.717 125.678,278.145C126.471,278.288 127.275,278.43 128.106,278.575C128.891,278.671 129.678,278.772 130.452,278.876C132.966,279.202 135.341,279.508 137.261,279.606L140.977,279.884L140.977,279.902L141.433,279.917L141.89,279.949L141.89,279.929L145.603,280.025C146.27,280.059 146.996,280.072 147.759,280.072C149.111,280.072 150.596,280.026 152.132,279.987C153.016,279.962 153.918,279.933 154.84,279.912C155.747,279.844 156.656,279.781 157.544,279.711C159.938,279.545 162.2,279.38 164.013,279.104L167.713,278.634L167.718,278.653L168.162,278.575L168.616,278.517L168.611,278.495L172.279,277.845C174.191,277.557 176.527,277.01 178.998,276.423C179.76,276.245 180.523,276.071 181.308,275.887C184.662,275.005 187.962,273.958 190.142,273.238C192.048,272.603 193.098,272.255 193.683,272.03L193.683,272.038L197.996,270.335C199.028,269.95 200.251,269.424 201.966,268.635C202.452,268.409 202.959,268.183 203.468,267.953C204.446,267.523 205.454,267.07 206.436,266.561L210.81,264.315C211.728,263.827 212.589,263.329 213.386,262.867C213.785,262.633 214.174,262.405 214.541,262.201C216.671,261.012 218.06,260.094 218.144,260.039L221.663,257.777C222.355,257.328 223.101,256.796 223.895,256.226C224.315,255.929 227.165,253.896 227.165,253.896L229.13,252.368C234.423,248.361 239.254,243.676 239.303,243.633L239.367,243.565L240.133,242.835C240.308,242.66 240.508,242.469 240.737,242.261C241.18,241.843 241.734,241.322 242.305,240.705L243.03,239.952C244.654,238.259 246.671,236.15 248.529,233.925L250.175,232.022L251.674,230.132L254.318,226.738L257.007,222.964L257.399,222.412C257.743,221.951 258.147,221.321 258.611,220.589L261.398,216.226L263.841,211.98C264.428,211.017 264.933,210.009 265.42,209.046C265.665,208.561 265.905,208.08 266.153,207.611L266.388,207.165C267.015,205.939 267.608,204.785 268.049,203.749L269.771,199.94C269.794,199.897 269.975,199.529 270.235,198.868L271.342,196.06C272.211,194 273.113,191.321 274.064,188.484L274.445,187.348L275.038,185.291C275.772,182.767 276.467,180.389 276.867,178.45L277.701,174.816L277.721,174.821L277.803,174.368L277.905,173.926L277.887,173.923L278.537,170.251C278.918,168.413 279.201,166.113 279.495,163.675C279.597,162.835 279.703,161.979 279.816,161.098C279.876,160.276 279.941,159.458 280.005,158.646C280.198,156.156 280.387,153.808 280.383,151.913L280.474,148.18L280.5,148.18L280.488,147.726L280.5,147.275Z" style="fill:rgb(14,41,75);fill-rule:nonzero;"/>
                </g>
                <g transform="matrix(4.16667,0,0,4.16667,0,-415.532)">
                    <clipPath id="_clip1">
                        <rect x="218.501" y="130.469" width="1.665" height="21.212"/>
                    </clipPath>
                    <g clip-path="url(#_clip1)">
                        <path d="M218.501,131.439C218.607,138.181 218.713,144.923 218.812,151.658C219.179,151.666 219.546,151.673 219.906,151.681C219.984,145.69 220.082,139.706 220.124,133.715C220.132,132.597 220.414,131.329 219.39,130.469C219.094,130.79 218.797,131.118 218.501,131.439" style="fill:rgb(45,56,83);fill-rule:nonzero;"/>
                    </g>
                    <path d="M225.222,170.985C223.909,173.543 221.621,173.692 219.327,172.886C218.113,172.456 216.913,171.814 215.854,171.016C202.351,160.919 188.868,150.782 175.393,140.637C173.783,139.425 172.286,137.978 173.084,135.53C173.896,133.05 175.766,132.049 177.856,131.939C179.804,131.994 181.124,133.066 182.487,134.098C191.896,141.192 201.313,148.271 210.743,155.318C214.923,158.439 219.214,161.396 223.337,164.618C225.25,166.112 226.605,168.294 225.222,170.985M212.812,174.904C214.619,176.32 216.412,178.22 215.057,181.13C213.779,183.867 211.478,184.227 209,183.844C207.094,183.554 205.414,182.631 203.868,181.419C192.771,172.706 181.675,163.992 170.599,155.24C168.63,153.684 166.618,151.885 168.319,148.85C169.922,145.979 172.265,145.651 175.068,146.941C177.263,147.951 182.31,152.284 184.378,153.473L184.378,153.465C187.837,156.57 191.727,158.995 195.376,161.787C201.165,166.199 207.073,170.422 212.812,174.904M204.765,193.183C203.854,195.045 202.301,195.436 200.564,195.373C198.306,195.537 196.492,194.38 194.727,193.043C184.746,185.471 174.757,177.907 164.761,170.367C163.364,169.311 161.896,168.318 162.241,166.112C162.587,163.86 164.253,163.03 165.955,162.412C168.432,161.506 170.578,162.608 172.576,164.063C181.315,170.422 190.054,176.773 198.729,183.218C200.564,184.587 202.605,185.705 203.967,187.763C205.082,189.436 205.746,191.165 204.765,193.183M194.078,199.19C195.8,200.433 197.099,202.092 196.217,204.665C195.651,206.308 194.409,207.574 192.919,208.153C190.152,209.241 187.894,207.895 185.769,206.362C179.776,202.029 173.825,197.633 167.853,193.285C164.916,191.141 161.896,189.132 159.029,186.878C157.314,185.526 156.29,183.539 157.088,181.114C157.879,178.721 159.453,177.289 161.903,177.352C163.068,177.391 164.182,177.555 165.227,178.314C174.835,185.291 184.456,192.237 194.078,199.19M223.993,163.297C220.231,161.318 219.575,158.048 220.019,154.004C220.097,153.246 219.948,152.456 219.906,151.681C219.546,151.673 219.179,151.666 218.812,151.658C218.276,153.864 219.087,156.242 218.085,158.846C214.542,156.179 211.329,153.355 207.793,151.212C204.214,149.038 202.767,146.144 203.487,141.771C203.649,140.754 203.586,139.698 203.684,138.674C204.017,135.005 205.767,132.761 209.057,131.986C212.431,131.189 215.854,131.627 219.25,131.4C219.292,130.86 219.278,130.993 219.32,130.446C214.429,128.944 209.692,129.788 205.196,131.768C204.207,131.165 204.468,130.305 204.454,129.585C204.334,123.422 204.341,123.422 198.899,123.414C196.315,123.414 193.731,123.422 191.148,123.414L173.295,122.624C169.809,122.624 170.5,113.293 167.295,114.364C166.618,114.435 165.94,114.396 165.262,114.27C164.154,114.129 163.498,113.175 163.54,112.198C163.491,111.947 163.463,111.72 163.463,111.416C163.441,111.416 163.356,111.376 162.87,111.314L162.87,111.259L162.87,111.173L162.855,111.173C162.333,112.683 162.517,114.075 163.279,115.295C164.408,116.28 165.489,115.131 166.491,116.625C168.234,119.159 168.234,119.691 169.081,122.092C169.625,123.633 169.399,123.922 170.43,123.993C179.96,124.681 190.548,125.557 200.536,125.205C201.567,125.166 202.788,125.158 202.859,126.848C203.134,133.277 202.294,139.605 201.92,145.94C200.311,145.971 199.661,145.143 198.899,144.587C193.146,140.324 187.47,135.921 181.611,131.83C178.23,129.468 174.171,130.563 172.251,133.848C170.465,136.906 171.284,139.339 175.308,142.397C183.63,148.733 191.988,155.006 200.339,161.286C201.363,162.053 202.76,162.499 202.273,164.509C200.713,164.516 199.725,163.328 198.609,162.499C194.268,159.292 189.341,155.444 184.951,152.284C183.947,151.58 182.077,150.086 180.206,148.662C178.329,147.247 176.458,145.901 175.442,145.487C171.891,144.063 168.312,145.353 166.922,148.56C165.609,151.595 166.519,153.777 170.034,156.531C180.298,164.556 190.527,172.62 200.769,180.676C201.68,181.388 202.972,181.936 201.864,183.79C201.235,183.398 200.607,183.078 200.035,182.663C191.444,176.304 182.853,169.945 174.277,163.57C172.3,162.1 170.267,160.809 167.804,160.825C164.748,160.833 162.171,162.014 161.013,165.314C159.82,168.725 162.305,170.25 164.324,171.775C172.653,178.087 181.04,184.321 189.376,190.625C190.647,191.58 192.214,192.237 193.068,193.958C190.929,195.178 189.433,194.192 187.936,193.113C181.152,188.208 174.319,183.39 167.599,178.392C164.535,176.116 161.5,174.834 158.161,177.344C154.97,179.738 155.267,183.203 156.389,186.66C154.787,187.465 151.321,189.123 149.846,189.867C149.302,190.469 149.097,191.525 149.846,191.885C153.509,188.928 158.133,188.146 163.816,192.189C168.157,195.279 172.477,198.415 176.783,201.56C179.853,203.813 182.896,206.112 186.418,208.74C186.221,208.834 186.03,208.92 185.84,209.006C185.854,209.046 185.86,209.085 185.875,209.123C186.722,209.437 187.576,209.757 188.423,210.062C189.207,209.937 189.99,209.843 190.788,209.804C194.099,209.655 196.527,208.271 197.614,204.853C198.708,201.411 196.951,199.19 194.367,197.571C193.986,197.328 193.562,197.015 193.788,195.882C197.953,195.952 202.703,198.838 206.346,194.113C206.536,193.504 206.734,192.894 206.932,192.283C207.567,189.202 204.856,187.372 204.299,184.29C207.108,184.767 209.523,185.862 212.085,185.572C218.332,181.842 218.565,177.516 212.699,172.909C209.6,170.477 206.438,168.146 203.169,165.666C205.153,163.797 206.085,165.854 207.285,166.276C209.113,166.91 210.701,168.193 212.134,169.601C216.377,173.778 220.747,176.585 225.54,173.574C226.083,172.628 226.739,171.462 227.276,170.508C227.445,167.364 226.436,164.571 223.993,163.297" style="fill:rgb(45,56,83);fill-rule:nonzero;"/>
                    <path d="M186.221,210.461C186.912,210.327 187.604,210.195 188.304,210.085C188.346,210.07 188.388,210.062 188.424,210.062C187.576,209.756 186.722,209.437 185.875,209.124C186.058,209.859 186.002,209.631 186.221,210.461" style="fill:rgb(45,56,83);fill-rule:nonzero;"/>
                    <path d="M185.875,209.123C185.818,209.099 185.769,209.084 185.712,209.06C182.465,210.499 179.345,211.133 177.439,214.074C177.672,214.364 177.898,214.653 178.131,214.934C181.167,212.275 184.604,210.687 188.304,210.085C187.605,210.195 186.912,210.328 186.221,210.46C186.002,209.632 186.058,209.859 185.875,209.123" style="fill:rgb(45,56,83);fill-rule:nonzero;"/>
                    <path d="M181.943,104.876C181.943,104.861 181.929,104.837 181.908,104.837C177.708,104.704 173.268,103.875 168.602,103.765L159.729,103.445C159.722,103.445 159.722,103.445 159.715,103.437C157.399,102.397 155.26,100.387 155.253,97.148C155.253,95.521 154.9,94.262 154.004,93.488C153.99,93.48 153.99,93.464 153.99,93.449C154.385,92.401 154.851,91.704 155.38,91.313C155.394,91.306 155.394,91.29 155.394,91.274C155.116,90.604 154.705,90.072 153.749,85.737C153.749,85.729 153.742,85.721 153.735,85.713C152.839,84.931 152.006,83.969 152.486,82.311L152.486,82.295L152.091,79.214C151.836,79.323 151.589,79.417 151.335,79.526L151.406,79.526L151.406,80.293L151.152,80.293C151.159,80.387 151.166,80.48 151.166,80.574C151.251,85.768 152.211,90.922 152.394,96.1C152.578,95.834 152.895,95.701 153.545,95.92C153.608,96.468 153.722,97.078 153.735,97.688C153.856,103.374 156.354,105.995 161.564,106.112L162.99,106.151L162.99,106.128L167.684,106.128C168.602,105.869 169.689,105.83 170.973,106.128L167.684,106.128C167.529,106.167 167.374,106.221 167.232,106.276L178.809,106.605C180.39,106.683 180.404,106.683 181.964,106.644C181.986,106.644 182,106.621 182,106.597C181.915,105.956 181.915,105.924 181.943,104.876" style="fill:rgb(45,56,83);fill-rule:nonzero;"/>
                    <path d="M176.882,214.888C177.087,215.2 177.291,215.506 177.503,215.818C177.715,215.521 177.927,215.232 178.132,214.935C177.899,214.654 177.673,214.364 177.44,214.074C177.249,214.348 177.065,214.614 176.882,214.888" style="fill:rgb(45,56,83);fill-rule:nonzero;"/>
                    <path d="M176.882,214.888C175.365,217.054 175.032,219.596 174.984,222.232C174.919,225.87 174.687,229.515 174.842,233.136C174.856,233.417 174.849,233.808 174.849,234.066L176.141,234.066C176.035,227.997 175.527,221.716 177.503,215.818C177.291,215.506 177.087,215.2 176.882,214.888" style="fill:rgb(45,56,83);fill-rule:nonzero;"/>
                    <path d="M167.683,106.128L170.973,106.128C169.688,105.831 168.601,105.87 167.683,106.128" style="fill:rgb(45,56,83);fill-rule:nonzero;"/>
                    <path d="M162.99,106.151L167.232,106.276C167.374,106.221 167.529,106.167 167.684,106.127L162.99,106.127L162.99,106.151Z" style="fill:rgb(45,56,83);fill-rule:nonzero;"/>
                    <path d="M162.87,111.173C163.068,111.165 163.272,111.189 163.463,111.251L163.463,111.415C163.47,111.415 163.47,111.407 163.477,111.392C163.964,110.712 165.341,107.137 166.837,106.441C166.964,106.378 167.099,106.323 167.232,106.276L162.99,106.151C162.947,107.825 162.905,109.499 162.87,111.173" style="fill:rgb(45,56,83);fill-rule:nonzero;"/>
                    <path d="M163.152,111.212C163.075,111.204 162.983,111.189 162.87,111.173L162.87,111.314C163.357,111.376 163.442,111.415 163.463,111.415L163.463,111.251C163.435,111.29 163.505,111.267 163.152,111.212" style="fill:rgb(45,56,83);fill-rule:nonzero;"/>
                    <path d="M163.463,111.251L163.152,111.212C163.505,111.267 163.435,111.29 163.463,111.251" style="fill:rgb(45,56,83);fill-rule:nonzero;"/>
                    <path d="M163.152,111.212L163.463,111.251C163.272,111.189 163.068,111.165 162.87,111.173C162.983,111.189 163.075,111.204 163.152,111.212" style="fill:rgb(45,56,83);fill-rule:nonzero;"/>
                    <rect x="148.4" y="71.957" width="10.48" height="4.064" style="fill:rgb(45,56,83);"/>
                    <path d="M151.314,79.534C151.307,79.542 151.3,79.542 151.293,79.558C151.222,79.691 151.18,79.839 151.138,79.996C151.144,80.097 151.152,80.191 151.152,80.293L151.406,80.293L151.406,79.526L151.335,79.526C151.328,79.526 151.321,79.534 151.314,79.534" style="fill:rgb(45,56,83);fill-rule:nonzero;"/>
                    <path d="M149.994,80.293L151.152,80.293C151.152,80.191 151.144,80.097 151.138,79.996C151.18,79.839 151.222,79.691 151.293,79.558C151.3,79.542 151.307,79.542 151.314,79.534C151.321,79.534 151.328,79.527 151.335,79.527L149.994,79.527L149.994,80.293Z" style="fill:rgb(45,56,83);fill-rule:nonzero;"/>
                    <path d="M139.673,186.964C136.807,189.216 133.786,191.227 130.842,193.37C124.871,197.719 118.92,202.115 112.934,206.448C110.802,207.981 108.543,209.326 105.783,208.239C104.286,207.66 103.051,206.393 102.486,204.751C101.597,202.177 102.896,200.519 104.618,199.275C114.24,192.321 123.868,185.376 133.468,178.399C134.513,177.641 135.628,177.476 136.8,177.437C139.25,177.375 140.824,178.806 141.607,181.199C142.412,183.624 141.389,185.611 139.673,186.964M103.976,193.127C102.204,194.465 100.39,195.623 98.138,195.459C96.394,195.521 94.841,195.13 93.938,193.268C92.95,191.251 93.62,189.522 94.728,187.848C96.098,185.791 98.138,184.672 99.973,183.304C108.649,176.858 117.388,170.507 126.12,164.148C128.125,162.694 130.263,161.591 132.741,162.498C134.443,163.116 136.108,163.945 136.461,166.19C136.8,168.403 135.332,169.397 133.941,170.453C123.939,177.993 113.957,185.556 103.976,193.127M89.702,183.929C87.218,184.313 84.923,183.953 83.646,181.215C82.29,178.305 84.077,176.405 85.884,174.989C91.629,170.507 97.538,166.284 103.319,161.864C106.976,159.08 110.865,156.655 114.317,153.55L114.317,153.558C116.386,152.369 121.44,148.036 123.628,147.027C126.437,145.736 128.774,146.065 130.384,148.935C132.085,151.97 130.073,153.769 128.104,155.325C117.028,164.078 105.924,172.791 94.827,181.504C93.281,182.717 91.601,183.64 89.702,183.929M82.848,171.102C81.789,171.9 80.589,172.541 79.375,172.971C77.081,173.777 74.794,173.628 73.474,171.071C72.09,168.38 73.446,166.198 75.366,164.704C79.488,161.481 83.773,158.525 87.959,155.404C97.39,148.348 106.806,141.27 116.209,134.184C117.578,133.151 118.899,132.072 120.84,132.017C122.936,132.134 124.807,133.136 125.612,135.615C126.409,138.063 124.92,139.51 123.311,140.722C109.828,150.867 96.352,161.004 82.848,171.102M149.845,191.884C149.097,191.524 149.302,190.468 149.845,189.866C148.123,189.006 144.191,187.691 142.306,186.745C143.429,183.288 143.725,179.823 140.534,177.429C137.196,174.919 134.16,176.202 131.096,178.477C124.376,183.476 117.543,188.294 110.759,193.19C109.263,194.277 107.767,195.263 105.627,194.042C106.482,192.321 108.056,191.665 109.319,190.711C117.656,184.407 126.042,178.173 134.379,171.86C136.391,170.335 138.875,168.81 137.683,165.4C136.532,162.099 133.948,160.918 130.899,160.902C128.428,160.894 126.395,162.185 124.426,163.656C115.842,170.03 107.251,176.389 98.661,182.74C98.089,183.162 97.46,183.483 96.832,183.874C95.724,182.02 97.023,181.473 97.926,180.761C108.169,172.705 118.404,164.641 128.661,156.616C132.177,153.863 133.087,151.681 131.774,148.646C130.384,145.439 126.805,144.148 123.261,145.572C121.221,146.393 115.771,150.953 113.753,152.369C109.355,155.529 104.435,159.377 100.086,162.584C98.971,163.413 97.99,164.602 96.422,164.594C95.943,162.584 97.34,162.138 98.364,161.372C106.708,155.091 115.065,148.81 123.388,142.482C127.419,139.424 128.23,136.991 126.445,133.933C124.524,130.648 120.473,129.553 117.084,131.915C111.232,135.998 105.557,140.409 99.797,144.672C99.041,145.228 98.392,146.057 96.775,146.026C96.408,139.69 95.562,133.362 95.844,126.933C95.914,125.243 97.128,125.251 98.166,125.29C108.155,125.642 118.743,124.766 128.273,124.078C129.296,124.008 129.07,123.718 129.614,122.17C130.461,119.776 130.461,119.244 132.212,116.71C133.214,115.216 134.287,116.366 135.417,115.38C136.179,114.16 136.362,112.682 135.847,111.172C135.155,111.258 135.275,111.298 135.233,111.251C135.24,111.642 135.212,111.986 135.155,112.283C135.198,113.261 134.541,114.215 133.433,114.348C132.762,114.481 132.085,114.52 131.4,114.45C128.195,113.378 128.887,122.709 125.4,122.709L107.555,123.499C104.971,123.507 102.387,123.499 99.804,123.499C94.354,123.507 94.361,123.507 94.249,129.67C94.234,130.39 94.495,131.25 93.5,131.853C89.011,129.874 84.267,129.029 79.375,130.531C79.375,130.57 79.382,130.609 79.382,130.641C79.65,130.93 79.926,131.235 80.194,131.524C83.342,131.657 86.512,131.329 89.639,132.072C92.929,132.838 94.686,135.091 95.018,138.751C95.11,139.784 95.046,140.84 95.215,141.857C95.935,146.229 94.481,149.123 90.909,151.29C87.366,153.441 84.154,156.264 80.61,158.923C79.608,156.327 80.427,153.941 79.883,151.743C79.516,151.751 79.156,151.759 78.789,151.767C78.747,152.541 78.598,153.331 78.683,154.09C79.121,158.133 78.472,161.403 74.702,163.374C72.267,164.657 71.25,167.449 71.427,170.593C71.963,171.547 72.62,172.713 73.156,173.659C77.949,176.671 82.319,173.863 86.568,169.686C88.001,168.278 89.582,166.995 91.411,166.362C92.618,165.939 93.55,163.882 95.533,165.752C92.265,168.231 89.095,170.562 85.996,172.995C80.137,177.602 80.363,181.926 86.618,185.658C89.173,185.947 91.594,184.852 94.404,184.375C93.846,187.457 91.128,189.287 91.771,192.369C91.961,192.979 92.159,193.589 92.357,194.199C95.999,198.923 100.75,196.037 104.907,195.966C105.14,197.101 104.71,197.414 104.329,197.656C101.752,199.275 99.988,201.497 101.082,204.938C102.169,208.356 104.597,209.741 107.915,209.889C108.72,209.929 109.503,210.022 110.287,210.147C111.141,209.827 111.981,209.514 112.835,209.201C112.842,209.169 112.856,209.13 112.863,209.091C112.665,209.005 112.475,208.92 112.284,208.826C115.8,206.197 118.842,203.898 121.92,201.646C126.226,198.501 130.539,195.365 134.88,192.275C141.198,187.777 143.908,187.754 148.433,191.962C148.405,191.852 150.742,191.962 149.845,191.884" style="fill:rgb(45,56,83);fill-rule:nonzero;"/>
                    <rect x="148.257" y="79.527" width="1.737" height="0.766" style="fill:rgb(45,56,83);fill-rule:nonzero;"/>
                    <rect x="148.257" y="74.426" width="1.737" height="5.1" style="fill:rgb(45,56,83);fill-rule:nonzero;"/>
                    <rect x="148.257" y="73.551" width="1.737" height="0.876" style="fill:rgb(45,56,83);fill-rule:nonzero;"/>
                    <rect x="148.257" y="70.352" width="1.737" height="3.199" style="fill:rgb(45,56,83);fill-rule:nonzero;"/>
                    <path d="M147.573,79.909C147.565,80.042 147.558,80.167 147.558,80.292L148.258,80.292L148.258,79.526L147.445,79.526C147.503,79.643 147.545,79.776 147.573,79.909" style="fill:rgb(45,56,83);fill-rule:nonzero;"/>
                    <rect x="139.047" y="71.957" width="10.805" height="4.064" style="fill:rgb(45,56,83);"/>
                    <path d="M147.156,79.526L147.156,80.292L147.558,80.292C147.558,80.167 147.565,80.042 147.572,79.909C147.544,79.776 147.502,79.643 147.446,79.526L147.156,79.526Z" style="fill:rgb(45,56,83);fill-rule:nonzero;"/>
                    <path d="M147.156,79.526L147.446,79.526C147.438,79.503 147.431,79.487 147.424,79.471C147.417,79.463 147.41,79.456 147.403,79.448C147.142,79.338 146.881,79.237 146.627,79.127L146.224,82.209C146.224,82.217 146.224,82.217 146.231,82.224C146.711,83.882 145.871,84.845 144.975,85.627C144.968,85.635 144.968,85.642 144.968,85.65C144.558,87.574 144.015,89.444 143.323,91.188C143.316,91.204 143.323,91.219 143.337,91.235C143.86,91.618 144.326,92.314 144.721,93.362C144.728,93.378 144.721,93.394 144.714,93.401C143.81,94.176 143.457,95.435 143.457,97.062C143.457,100.3 141.318,102.31 139.003,103.351C138.996,103.358 138.989,103.358 138.989,103.358L130.116,103.679C125.45,103.789 121.009,104.618 116.802,104.751C116.788,104.751 116.774,104.774 116.774,104.79C116.802,105.838 116.802,105.869 116.718,106.511C116.718,106.534 116.732,106.558 116.753,106.558C118.313,106.597 118.32,106.597 119.901,106.518L131.64,106.182C131.457,106.112 131.259,106.041 131.062,105.987L127.744,105.987C129.043,105.681 130.137,105.728 131.062,105.987L135.728,105.987L135.728,106.065L137.153,106.026C142.356,105.908 144.862,103.288 144.975,97.602C144.989,96.992 145.109,96.381 145.172,95.834C145.822,95.615 146.14,95.748 146.323,96.014C146.507,90.836 147.467,85.682 147.551,80.488C147.551,80.425 147.551,80.355 147.558,80.292L147.156,80.292L147.156,79.526Z" style="fill:rgb(45,56,83);fill-rule:nonzero;"/>
                    <path d="M131.64,106.183C131.725,106.222 131.802,106.253 131.88,106.292C133.376,106.996 134.753,110.571 135.233,111.251C135.438,111.189 135.642,111.165 135.847,111.173C135.805,109.468 135.77,107.771 135.727,106.065L131.64,106.183Z" style="fill:rgb(45,56,83);fill-rule:nonzero;"/>
                    <path d="M135.848,111.173C135.642,111.165 135.439,111.189 135.234,111.251C135.276,111.298 135.156,111.259 135.848,111.173" style="fill:rgb(45,56,83);fill-rule:nonzero;"/>
                    <path d="M131.64,106.183L135.727,106.065L135.727,105.988L131.061,105.988C131.259,106.042 131.457,106.112 131.64,106.183" style="fill:rgb(45,56,83);fill-rule:nonzero;"/>
                    <path d="M127.744,105.987L131.062,105.987C130.137,105.729 129.043,105.682 127.744,105.987" style="fill:rgb(45,56,83);fill-rule:nonzero;"/>
                    <path d="M123.713,222.318C123.671,219.682 123.339,217.14 121.814,214.973C121.609,215.286 121.405,215.591 121.2,215.904C123.247,222.012 122.619,228.332 122.541,234.606C122.986,234.731 123.445,234.84 123.904,234.934C123.84,234.442 123.826,233.87 123.854,233.221C124.009,229.6 123.776,225.955 123.713,222.318" style="fill:rgb(45,56,83);fill-rule:nonzero;"/>
                    <path d="M120.565,215.021C120.777,215.318 120.989,215.608 121.2,215.905C121.405,215.592 121.61,215.287 121.814,214.974C121.631,214.7 121.447,214.434 121.264,214.161C121.031,214.45 120.798,214.732 120.565,215.021" style="fill:rgb(45,56,83);fill-rule:nonzero;"/>
                    <path d="M112.983,209.147C112.934,209.162 112.884,209.186 112.835,209.201C112.637,209.944 112.701,209.718 112.482,210.547C111.748,210.406 111.021,210.265 110.287,210.148C114.028,210.743 117.494,212.33 120.565,215.021C120.798,214.731 121.031,214.45 121.263,214.161C119.358,211.212 116.23,210.586 112.983,209.147" style="fill:rgb(45,56,83);fill-rule:nonzero;"/>
                    <path d="M112.482,210.547C112.701,209.717 112.637,209.944 112.835,209.201C111.981,209.514 111.141,209.827 110.287,210.147C111.021,210.265 111.748,210.406 112.482,210.547" style="fill:rgb(45,56,83);fill-rule:nonzero;"/>
                    <path d="M79.383,130.641C79.355,130.61 79.333,130.586 79.305,130.555C78.289,131.415 78.571,132.682 78.578,133.801C78.613,139.784 78.712,145.776 78.79,151.767C79.157,151.759 79.517,151.751 79.884,151.744C79.99,145.009 80.096,138.267 80.195,131.525C79.948,131.517 79.7,131.501 79.453,131.485C79.411,130.977 79.418,131.063 79.383,130.641" style="fill:rgb(45,56,83);fill-rule:nonzero;"/>
                    <path d="M79.453,131.485C79.7,131.501 79.947,131.516 80.194,131.524C79.926,131.235 79.651,130.93 79.383,130.641C79.418,131.063 79.411,130.977 79.453,131.485" style="fill:rgb(65,63,61);fill-rule:nonzero;"/>
                </g>
                <g transform="matrix(4.16667,0,0,4.16667,0,-415.532)">
                    <path d="M175.885,233.857L174.868,234.014C174.834,234.017 174.839,234.063 174.805,234.066L123.107,234.066C122.801,234.066 122.553,234.341 122.553,234.68C122.553,235.02 122.801,235.294 123.107,235.294L175.59,235.294C175.897,235.294 176.146,235.018 176.144,234.677L176.141,233.98L175.885,233.857Z" style="fill:rgb(45,56,83);fill-rule:nonzero;"/>
                </g>
                <g transform="matrix(4.16667,0,0,4.16667,0,-415.532)">
                    <path d="M121.878,105.982L130.094,114.687" style="fill:none;stroke:rgb(45,56,83);stroke-width:1.59px;"/>
                </g>
                <g transform="matrix(4.16667,0,0,4.16667,0,-415.532)">
                    <path d="M127.267,111.712L131.866,105.66" style="fill:none;stroke:rgb(45,56,83);stroke-width:1.59px;"/>
                </g>
                <g transform="matrix(4.16667,0,0,4.16667,0,-415.532)">
                    <path d="M174.314,105.982L167.451,115.214" style="fill:none;stroke:rgb(45,56,83);stroke-width:1.59px;"/>
                </g>
                <g transform="matrix(4.16667,0,0,4.16667,0,-415.532)">
                    <path d="M169.93,111.879L164.98,106.982" style="fill:none;stroke:rgb(45,56,83);stroke-width:1.59px;"/>
                </g>
                <g transform="matrix(4.16667,0,0,4.16667,0,-415.532)">
                    <path d="M143.272,100.566L119.223,102L119.278,104.605" style="fill:none;stroke:rgb(45,56,83);stroke-width:1.59px;"/>
                </g>
                <g transform="matrix(4.16667,0,0,4.16667,0,-415.532)">
                    <path d="M135.198,101.072L135.198,103.679" style="fill:none;stroke:rgb(45,56,83);stroke-width:1.59px;"/>
                </g>
                <g transform="matrix(4.16667,0,0,4.16667,0,-415.532)">
                    <path d="M129.453,101.218L129.453,104.605" style="fill:none;stroke:rgb(45,56,83);stroke-width:1.59px;"/>
                </g>
                <g transform="matrix(4.16667,0,0,4.16667,0,-415.532)">
                    <path d="M126.561,101.435L126.561,104.406" style="fill:none;stroke:rgb(45,56,83);stroke-width:1.59px;"/>
                </g>
                <g transform="matrix(4.16667,0,0,4.16667,0,-415.532)">
                    <path d="M124.037,101.853L124.037,105.24" style="fill:none;stroke:rgb(45,56,83);stroke-width:1.59px;"/>
                </g>
                <g transform="matrix(4.16667,0,0,4.16667,0,-415.532)">
                    <path d="M121.316,102L121.316,105.387" style="fill:none;stroke:rgb(45,56,83);stroke-width:1.59px;"/>
                </g>
                <g transform="matrix(4.16667,0,0,4.16667,0,-415.532)">
                    <path d="M154.883,100.818L179.95,102.163L179.95,104.731" style="fill:none;stroke:rgb(45,56,83);stroke-width:1.59px;"/>
                </g>
                <g transform="matrix(4.16667,0,0,4.16667,0,-415.532)">
                    <path d="M160.285,103.922L160.075,101.187" style="fill:none;stroke:rgb(45,56,83);stroke-width:1.59px;"/>
                </g>
                <g transform="matrix(4.16667,0,0,4.16667,0,-415.532)">
                    <path d="M163.5,101.344L163.5,103.951" style="fill:none;stroke:rgb(45,56,83);stroke-width:1.59px;"/>
                </g>
                <g transform="matrix(4.16667,0,0,4.16667,0,-415.532)">
                    <path d="M169.245,101.49L169.245,104.877" style="fill:none;stroke:rgb(45,56,83);stroke-width:1.59px;"/>
                </g>
                <g transform="matrix(4.16667,0,0,4.16667,0,-415.532)">
                    <path d="M172.138,101.707L172.138,104.678" style="fill:none;stroke:rgb(45,56,83);stroke-width:1.59px;"/>
                </g>
                <g transform="matrix(4.16667,0,0,4.16667,0,-415.532)">
                    <path d="M174.662,101.817L174.662,105.204" style="fill:none;stroke:rgb(45,56,83);stroke-width:1.59px;"/>
                </g>
                <g transform="matrix(4.16667,0,0,4.16667,0,-415.532)">
                    <path d="M177.383,101.986L177.383,105.373" style="fill:none;stroke:rgb(45,56,83);stroke-width:1.59px;"/>
                </g>
                <g transform="matrix(4.16667,0,0,4.16667,0,-415.532)">
                    <path d="M143.108,81.859L145.972,81.859L149.28,78.974L139.985,78.974L143.108,81.859Z" style="fill:rgb(45,56,83);fill-rule:nonzero;stroke:rgb(45,56,83);stroke-width:1.59px;"/>
                </g>
                <g transform="matrix(4.16667,0,0,4.16667,0,-415.532)">
                    <path d="M130.235,85.866L134.521,85.866" style="fill:none;stroke:rgb(45,56,83);stroke-width:1.59px;"/>
                </g>
                <g transform="matrix(4.16667,0,0,4.16667,0,-415.532)">
                    <path d="M132.378,81.895C131.316,81.895 130.455,82.784 130.455,83.881C130.455,84.977 131.316,85.866 132.378,85.866C133.44,85.866 134.301,84.977 134.301,83.881C134.301,82.784 133.44,81.895 132.378,81.895Z" style="fill:none;stroke:rgb(45,56,83);stroke-width:1.59px;"/>
                </g>
                <g transform="matrix(4.16667,0,0,4.16667,0,-415.532)">
                    <path d="M132.378,85.866L131.352,103.693" style="fill:none;stroke:rgb(45,56,83);stroke-width:1.59px;"/>
                </g>
                <g transform="matrix(4.16667,0,0,4.16667,0,-415.532)">
                    <path d="M132.378,85.866L133.676,103.551" style="fill:none;stroke:rgb(45,56,83);stroke-width:1.59px;"/>
                </g>
                <g transform="matrix(4.16667,0,0,4.16667,0,-415.532)">
                    <path d="M140.944,79.01L134.186,84.419" style="fill:none;stroke:rgb(45,56,83);stroke-width:1.59px;"/>
                </g>
                <g transform="matrix(4.16667,0,0,4.16667,0,-415.532)">
                    <path d="M168.533,85.866L164.247,85.866" style="fill:none;stroke:rgb(45,56,83);stroke-width:1.59px;"/>
                </g>
                <g transform="matrix(4.16667,0,0,4.16667,0,-415.532)">
                    <path d="M166.391,81.895C165.329,81.895 164.468,82.784 164.468,83.881C164.468,84.977 165.329,85.866 166.391,85.866C167.453,85.866 168.314,84.977 168.314,83.881C168.314,82.784 167.453,81.895 166.391,81.895Z" style="fill:none;stroke:rgb(45,56,83);stroke-width:1.59px;"/>
                </g>
                <g transform="matrix(4.16667,0,0,4.16667,0,-415.532)">
                    <path d="M166.391,85.866L167.455,103.952" style="fill:none;stroke:rgb(45,56,83);stroke-width:1.59px;"/>
                </g>
                <g transform="matrix(4.16667,0,0,4.16667,0,-415.532)">
                    <path d="M166.391,86.282L165.093,103.967" style="fill:none;stroke:rgb(45,56,83);stroke-width:1.59px;"/>
                </g>
                <g transform="matrix(4.16667,0,0,4.16667,0,-415.532)">
                    <path d="M157.755,79.01L164.599,84.443" style="fill:none;stroke:rgb(45,56,83);stroke-width:1.59px;"/>
                </g>
                <g transform="matrix(4.16667,0,0,4.16667,0,-415.532)">
                    <rect x="144.344" y="59.716" width="9.563" height="19.743" style="fill:rgb(45,56,83);"/>
                </g>
                <g transform="matrix(4.16667,0,0,4.16667,0,-415.532)">
                    <rect x="147.531" y="50.77" width="3.188" height="28.689" style="fill:rgb(45,56,83);"/>
                </g>
                <g transform="matrix(4.16667,0,0,4.16667,0,-415.532)">
                    <path d="M142.108,98.162C141.465,98.162 140.944,98.701 140.944,99.364C140.944,100.028 141.465,100.566 142.108,100.566C142.751,100.566 143.272,100.028 143.272,99.364C143.272,98.701 142.751,98.162 142.108,98.162Z" style="fill:none;stroke:rgb(45,56,83);stroke-width:1.59px;"/>
                </g>
                <g transform="matrix(4.16667,0,0,4.16667,0,-415.532)">
                    <path d="M156.591,98.162C155.948,98.162 155.427,98.701 155.427,99.364C155.427,100.028 155.948,100.566 156.591,100.566C157.234,100.566 157.755,100.028 157.755,99.364C157.755,98.701 157.234,98.162 156.591,98.162Z" style="fill:none;stroke:rgb(45,56,83);stroke-width:1.59px;"/>
                </g>
                <g transform="matrix(4.16667,0,0,4.16667,0,-415.532)">
                    <path d="M141.846,98.162L146.232,81.8" style="fill:none;stroke:rgb(45,56,83);stroke-width:1.59px;"/>
                </g>
                <g transform="matrix(4.16667,0,0,4.16667,0,-415.532)">
                    <path d="M152.403,81.8L156.591,98.162" style="fill:none;stroke:rgb(45,56,83);stroke-width:1.59px;"/>
                </g>
                <g transform="matrix(4.16667,0,0,4.16667,0,-415.532)">
                    <path d="M170.882,122.793L177.383,120.805L171.146,120.805L170.882,122.793Z" style="fill:rgb(45,56,83);fill-rule:nonzero;stroke:rgb(45,56,83);stroke-width:1.59px;"/>
                </g>
                <g transform="matrix(4.16667,0,0,4.16667,0,-415.532)">
                    <path d="M170.456,120.805L177.383,120.805L177.383,123.64" style="fill:none;stroke:rgb(45,56,83);stroke-width:1.59px;"/>
                </g>
                <g transform="matrix(4.16667,0,0,4.16667,0,-415.532)">
                    <path d="M169.787,118.989L176.468,119.17" style="fill:none;stroke:rgb(45,56,83);stroke-width:1.59px;"/>
                </g>
                <g transform="matrix(4.16667,0,0,4.16667,0,-415.532)">
                    <path d="M176.317,119.143L176.317,120.903" style="fill:none;stroke:rgb(45,56,83);stroke-width:1.59px;"/>
                </g>
                <g transform="matrix(4.16667,0,0,4.16667,0,-415.532)">
                    <path d="M174.76,119.143L174.76,120.903" style="fill:none;stroke:rgb(45,56,83);stroke-width:1.59px;"/>
                </g>
                <g transform="matrix(4.16667,0,0,4.16667,0,-415.532)">
                    <path d="M173.386,119.241L173.386,121.001" style="fill:none;stroke:rgb(45,56,83);stroke-width:1.59px;"/>
                </g>
                <g transform="matrix(4.16667,0,0,4.16667,0,-415.532)">
                    <path d="M172.138,119.045L172.138,120.805" style="fill:none;stroke:rgb(45,56,83);stroke-width:1.59px;"/>
                </g>
                <g transform="matrix(4.16667,0,0,4.16667,0,-415.532)">
                    <path d="M121.878,120.309L128.379,122.297L128.115,120.309L121.878,120.309Z" style="fill:rgb(45,56,83);fill-rule:nonzero;stroke:rgb(45,56,83);stroke-width:1.59px;"/>
                </g>
                <g transform="matrix(4.16667,0,0,4.16667,0,-415.532)">
                    <path d="M127.943,120.309L121.97,120.309L121.97,123.144" style="fill:none;stroke:rgb(45,56,83);stroke-width:1.59px;"/>
                </g>
                <g transform="matrix(4.16667,0,0,4.16667,0,-415.532)">
                    <path d="M129.523,118.654L122.45,118.812" style="fill:none;stroke:rgb(45,56,83);stroke-width:1.59px;"/>
                </g>
                <g transform="matrix(4.16667,0,0,4.16667,0,-415.532)">
                    <path d="M122.267,118.647L122.267,120.407" style="fill:none;stroke:rgb(45,56,83);stroke-width:1.59px;"/>
                </g>
                <g transform="matrix(4.16667,0,0,4.16667,0,-415.532)">
                    <path d="M127.943,118.556L127.943,120.316" style="fill:none;stroke:rgb(45,56,83);stroke-width:1.59px;"/>
                </g>
                <g transform="matrix(4.16667,0,0,4.16667,0,-415.532)">
                    <path d="M126.561,118.647L126.561,120.407" style="fill:none;stroke:rgb(45,56,83);stroke-width:1.59px;"/>
                </g>
                <g transform="matrix(4.16667,0,0,4.16667,0,-415.532)">
                    <path d="M125.128,118.647L125.128,120.407" style="fill:none;stroke:rgb(45,56,83);stroke-width:1.59px;"/>
                </g>
                <g transform="matrix(4.16667,0,0,4.16667,0,-415.532)">
                    <path d="M123.463,118.947L123.463,120.707" style="fill:none;stroke:rgb(45,56,83);stroke-width:1.59px;"/>
                </g>
                <g transform="matrix(4.16667,0,0,4.16667,0,-415.532)">
                    <path d="M148.811,79.034L146.06,81.8" style="fill:none;stroke:rgb(45,56,83);stroke-width:1.59px;"/>
                </g>
                <g transform="matrix(4.16667,0,0,4.16667,0,-415.532)">
                    <path d="M151.955,81.859L154.819,81.859L157.942,78.974L148.647,78.974L151.955,81.859Z" style="fill:rgb(45,56,83);fill-rule:nonzero;stroke:rgb(45,56,83);stroke-width:1.59px;"/>
                </g>
                <g transform="matrix(4.16667,0,0,4.16667,0,-415.532)">
                    <path d="M166.391,101.435L166.391,103.694" style="fill:none;stroke:rgb(45,56,83);stroke-width:1.59px;"/>
                </g>
                <g transform="matrix(4.16667,0,0,4.16667,0,-415.532)">
                    <path d="M132.378,101.154L132.378,103.952" style="fill:none;stroke:rgb(45,56,83);stroke-width:1.59px;"/>
                </g>
                <g transform="matrix(4.16667,0,0,4.16667,0,-415.532)">
                    <path d="M138.254,100.865L138.254,103.551" style="fill:none;stroke:rgb(45,56,83);stroke-width:1.59px;"/>
                </g>
                <g transform="matrix(4.16667,0,0,4.16667,0,-415.532)">
                    <g transform="matrix(0.902498,0,0,1,12.5172,0)">
                        <text x="128.379px" y="225.872px" style="font-family:'FranklinGothic-Medium', 'Franklin Gothic Medium', sans-serif;font-size:31.144px;fill:rgb(45,56,83);">W</text>
                    </g>
                    <g transform="matrix(0.902498,0,0,1,14.6916,0)">
                        <text x="150.679px" y="225.872px" style="font-family:'FranklinGothic-Medium', 'Franklin Gothic Medium', sans-serif;font-size:31.144px;fill:rgb(45,56,83);">R</text>
                    </g>
                </g>
                <g transform="matrix(2.28209,-2.98878,3.31167,2.52862,-9.08765,-403.63)">
                    <text x="-36.864px" y="103.944px" style="font-family:'Lora-Regular', 'Lora';font-size:15.791px;fill:rgb(46,56,83);">W</text>
                </g>
                <g transform="matrix(2.58998,-2.72631,3.02084,2.86978,-3.25859,-412.102)">
                    <text x="-11.646px" y="105.935px" style="font-family:'Lora-Regular', 'Lora';font-size:15.791px;fill:rgb(46,56,83);">R</text>
                </g>
                <g transform="matrix(2.93898,-2.34586,2.59931,3.25649,4.83566,-419.392)">
                    <text x="15.228px" y="104.929px" style="font-family:'Lora-Regular', 'Lora';font-size:15.791px;fill:rgb(46,56,83);">M</text>
                </g>
                <g transform="matrix(3.16395,-2.03226,2.25183,3.50577,13.2187,-424.023)">
                    <text x="38.67px" y="101.595px" style="font-family:'Lora-Regular', 'Lora';font-size:15.791px;fill:rgb(46,56,83);">A</text>
                </g>
                <g transform="matrix(3.3227,-1.7608,1.95102,3.68166,19.993,-426.127)">
                    <text x="55.697px" y="97.271px" style="font-family:'Lora-Regular', 'Lora';font-size:15.791px;fill:rgb(46,56,83);">R</text>
                </g>
                <g transform="matrix(3.42931,-1.54293,1.70962,3.79978,26.1639,-427.304)">
                    <text x="70.624px" y="92.973px" style="font-family:'Lora-Regular', 'Lora';font-size:15.791px;fill:rgb(46,56,83);">I</text>
                </g>
                <g transform="matrix(3.53353,-1.28643,1.4254,3.91527,31.2434,-426.907)">
                    <text x="81.846px" y="87.069px" style="font-family:'Lora-Regular', 'Lora';font-size:15.791px;fill:rgb(46,56,83);">N</text>
                </g>
                <g transform="matrix(3.63771,-0.952847,1.05578,4.03069,39.3583,-425.841)">
                    <text x="100.155px" y="78.143px" style="font-family:'Lora-Regular', 'Lora';font-size:15.791px;fill:rgb(46,56,83);">E</text>
                </g>
                <g transform="matrix(3.72285,-0.530238,0.587523,4.12504,48.5358,-422.445)">
                    <text x="120.68px" y="64.979px" style="font-family:'Lora-Regular', 'Lora';font-size:15.791px;fill:rgb(46,56,83);">S</text>
                </g>
                <g transform="matrix(3.75308,-0.234444,0.259775,4.15856,54.0515,-418.909)">
                    <text x="133.302px" y="54.595px" style="font-family:'Lora-Regular', 'Lora';font-size:15.791px;fill:rgb(46,56,83);">E</text>
                </g>
                <g transform="matrix(3.75969,0.0740935,-0.082115,4.16586,59.2861,-414.364)">
                    <text x="145.966px" y="42.761px" style="font-family:'Lora-Regular', 'Lora';font-size:15.791px;fill:rgb(46,56,83);">R</text>
                </g>
                <g transform="matrix(3.7403,0.38841,-0.430365,4.14438,63.7029,-408.917)">
                    <text x="157.647px" y="29.654px" style="font-family:'Lora-Regular', 'Lora';font-size:15.791px;fill:rgb(46,56,83);">V</text>
                </g>
                <g transform="matrix(3.70647,0.634728,-0.703307,4.10688,67.4323,-403.984)">
                    <text x="168.406px" y="18.635px" style="font-family:'Lora-Regular', 'Lora';font-size:15.791px;fill:rgb(46,56,83);">I</text>
                </g>
                <g transform="matrix(3.65466,0.885477,-0.981128,4.04951,68.5999,-398.911)">
                    <text x="173.739px" y="6.73px" style="font-family:'Lora-Regular', 'Lora';font-size:15.791px;fill:rgb(46,56,83);">C</text>
                </g>
                <g transform="matrix(3.56213,1.20497,-1.33516,3.94696,70.5497,-391.667)">
                    <text x="183.328px" y="-9.494px" style="font-family:'Lora-Regular', 'Lora';font-size:15.791px;fill:rgb(46,56,83);">E</text>
                </g>
                <g transform="matrix(3.38063,1.64678,-1.8247,3.74587,70.4431,-381.218)">
                    <text x="192.865px" y="-34.053px" style="font-family:'Lora-Regular', 'Lora';font-size:15.791px;fill:rgb(46,56,83);">D</text>
                </g>
                <g transform="matrix(3.19386,1.98496,-2.1994,3.53889,68.5425,-372.933)">
                    <text x="198.652px" y="-54.755px" style="font-family:'Lora-Regular', 'Lora';font-size:15.791px;fill:rgb(46,56,83);">O</text>
                </g>
                <g transform="matrix(2.91124,2.38023,-2.63737,3.22574,64.3458,-362.923)">
                    <text x="204.596px" y="-81.516px" style="font-family:'Lora-Regular', 'Lora';font-size:15.791px;fill:rgb(46,56,83);">B</text>
                </g>
                <g transform="matrix(2.70744,2.60971,-2.89162,2.99994,60.1814,-357.523)">
                    <text x="205.764px" y="-98.638px" style="font-family:'Lora-Regular', 'Lora';font-size:15.791px;fill:rgb(46,56,83);">R</text>
                </g>
                <g transform="matrix(2.4635,2.84112,-3.14805,2.72964,54.6894,-352.46)">
                    <text x="205.496px" y="-117.445px" style="font-family:'Lora-Regular', 'Lora';font-size:15.791px;fill:rgb(46,56,83);">A</text>
                </g>
                <g transform="matrix(2.23093,3.02714,-3.35417,2.47197,49.2287,-348.734)">
                    <text x="204.254px" y="-134.019px" style="font-family:'Lora-Regular', 'Lora';font-size:15.791px;fill:rgb(46,56,83);">S</text>
                </g>
                <g transform="matrix(2.04535,3.15551,-3.49642,2.26631,45.026,-346.067)">
                    <text x="203.761px" y="-146.46px" style="font-family:'Lora-Regular', 'Lora';font-size:15.791px;fill:rgb(46,56,83);">I</text>
                </g>
                <g transform="matrix(1.84888,3.27449,-3.62826,2.04863,39.7633,-345.109)">
                    <text x="199.069px" y="-158.967px" style="font-family:'Lora-Regular', 'Lora';font-size:15.791px;fill:rgb(46,56,83);">L</text>
                </g>
                <g transform="matrix(4.16667,0,0,4.16667,0,-447.409)">
                    <path d="M148.916,189.852L148.916,76.111" style="fill:none;stroke:rgb(45,57,84);stroke-width:1.31px;stroke-miterlimit:100;stroke-dasharray:13.11,3.93,1.31,3.93;"/>
                </g>
                <g transform="matrix(4.16667,0,0,4.16667,0,-367.717)">
                    <path d="M148.915,106.985C148.225,106.985 147.665,107.505 147.665,108.146C147.665,108.787 148.225,109.307 148.915,109.307C149.605,109.307 150.165,108.787 150.165,108.146C150.165,107.505 149.605,106.985 148.915,106.985" style="fill:rgb(47,56,83);fill-rule:nonzero;"/>
                </g>
                <g transform="matrix(4.48535,0,0,4.16667,-39.0085,-370.905)">
                    <text x="142.41px" y="109.78px" style="font-family:'Roboto-Regular', 'Roboto';font-size:3.716px;fill:rgb(45,57,84);">M</text>
                </g>
                <g transform="matrix(4.48535,0,0,4.16667,-48.2158,-415.532)">
                    <text x="151.296px" y="143.561px" style="font-family:'Roboto-Regular', 'Roboto';font-size:3.716px;fill:rgb(45,57,84);">G</text>
                </g>
                <g transform="matrix(4.48535,0,0,4.16667,-45.7863,-466.535)">
                    <text x="143.673px" y="177.85px" style="font-family:'Roboto-Regular', 'Roboto';font-size:3.716px;fill:rgb(45,57,84);">B</text>
                </g>
                <g transform="matrix(4.16667,0,0,4.16667,0,-415.532)">
                    <path d="M148.915,141.239C148.225,141.239 147.665,141.759 147.665,142.4C147.665,143.041 148.225,143.561 148.915,143.561C149.605,143.561 150.165,143.041 150.165,142.4C150.165,141.759 149.605,141.239 148.915,141.239" style="fill:rgb(47,56,83);fill-rule:nonzero;"/>
                </g>
                <g transform="matrix(4.16667,0,0,4.16667,0,-466.535)">
                    <path d="M148.915,175.528C148.225,175.528 147.665,176.048 147.665,176.689C147.665,177.33 148.225,177.85 148.915,177.85C149.605,177.85 150.165,177.33 150.165,176.689C150.165,176.048 149.605,175.528 148.915,175.528" style="fill:rgb(47,56,83);fill-rule:nonzero;"/>
                </g>
            </g>
        </g>
    </g>
</svg>
