<?xml version="1.0" encoding="UTF-8" standalone="no"?><!DOCTYPE svg PUBLIC "-//W3C//DTD SVG 1.1//EN" "http://www.w3.org/Graphics/SVG/1.1/DTD/svg11.dtd"><svg width="100%" height="100%" viewBox="0 0 400 400" version="1.1" xmlns="http://www.w3.org/2000/svg" xmlns:xlink="http://www.w3.org/1999/xlink" xml:space="preserve" style="fill-rule:evenodd;clip-rule:evenodd;stroke-miterlimit:10;"><g><path d="M366.955,200.055c-0.024,0.481 -0.029,1.018 -0.045,1.591c-0.018,1.066 -0.038,2.274 -0.151,3.485l-0.306,3.993c-2.089,-6.171 -5.703,-10.156 -9.181,-12.714c0.007,-0.464 0.018,-0.934 0.018,-1.393c0,-4.155 -0.158,-8.276 -0.468,-12.352c1.613,1.094 3.1,2.384 4.432,3.852c2.043,2.357 3.718,5.278 4.966,8.703l0.144,0.387l0.069,0c0.222,0.769 0.418,1.508 0.577,2.154l-0.055,2.294Zm-1.382,17.365c-0.069,0.468 -0.133,0.992 -0.197,1.554c-0.123,1.026 -0.267,2.212 -0.493,3.362l-0.752,4.199c-0.655,-2.91 -1.614,-5.427 -2.912,-7.619c-1.348,-2.274 -3.01,-4.28 -4.921,-6.016c0.508,-4.63 0.834,-9.309 0.944,-14.04c3.731,3.122 7.527,8.223 8.602,16.41l-0.271,2.15Zm-3.095,16.953c-0.103,0.416 -0.212,0.883 -0.319,1.366c-0.247,1.098 -0.524,2.34 -0.905,3.568l-1.1,3.883c-0.781,-6.491 -3.529,-11.126 -6.433,-14.331c0.952,-4.458 1.734,-8.987 2.306,-13.568c1.356,1.395 2.562,2.957 3.57,4.668c1.529,2.656 2.576,5.862 3.128,9.517l0.065,0.413l0.063,0.013c0.071,0.778 0.115,1.537 0.144,2.226l-0.519,2.245Zm-4.166,14.685l-0.775,2.298c-0.424,1.271 -0.956,2.86 -1.609,4.432l-1.569,3.978c-0.044,-2.791 -0.479,-5.492 -1.299,-8.064c-0.868,-2.497 -2.093,-4.802 -3.618,-6.898c1.447,-4.435 2.706,-8.959 3.755,-13.561c3.033,3.804 5.728,9.572 5.115,17.815m-5.903,13.723c-0.099,0.809 -0.199,1.57 -0.306,2.213l-1.93,4.248l-3.085,6.034c0.103,-1.373 0.087,-2.644 0.055,-3.731c-0.134,-2.398 -0.446,-4.299 -0.979,-5.975c-0.608,-1.99 -1.451,-3.857 -2.488,-5.632c1.842,-4.189 3.529,-8.477 5.017,-12.849c1.07,1.651 1.928,3.433 2.566,5.297c0.985,3.21 1.362,6.56 1.106,9.945l-0.025,0.42l0.069,0.03Zm-7.399,13.74c-0.208,1.342 -0.518,2.73 -0.913,4.109c-0.357,0.635 -1.923,3.419 -3.709,6.091l-2.348,3.645c1.314,-6.708 -0.075,-12.076 -1.753,-15.72c2.299,-4.056 4.436,-8.219 6.397,-12.482c0.631,1.247 1.188,2.535 1.609,3.895c0.598,1.956 0.905,4.107 0.944,6.608c0.004,0.95 -0.014,2.387 -0.227,3.854m-9.433,15.877l-0.12,0.414l0.065,0.042c-0.243,0.775 -0.499,1.507 -0.726,2.12l-1.341,1.889c-0.525,0.724 -1.2,1.581 -1.923,2.49c-0.388,0.498 -0.79,1.009 -1.188,1.523c-0.854,1.125 -1.747,2.221 -2.518,3.156c0.029,-0.096 0.065,-0.2 0.089,-0.295c0.286,-1.008 0.519,-2.099 0.711,-3.345c0.307,-2.04 0.39,-4.07 0.247,-6.045c-0.179,-2.036 -0.633,-4.047 -1.308,-6.01c2.665,-3.753 5.167,-7.625 7.506,-11.604c1.447,3.726 2.39,9.065 0.506,15.665m-139.562,59.7c-86.755,0 -157.087,-70.328 -157.087,-157.084c0,-86.754 70.332,-157.083 157.087,-157.083c86.753,0 157.086,70.329 157.086,157.083c0,86.756 -70.333,157.084 -157.086,157.084m127.847,-43.466c-0.004,0 -0.577,0.685 -1.47,1.667l-3.436,3.603c-0.816,0.879 -1.94,2.049 -2.991,3.041c1.056,-2.519 1.717,-5.176 1.96,-7.938c0.247,-2.523 0.038,-5.124 -0.578,-7.75c3.095,-3.537 6.031,-7.195 8.815,-10.993c1.298,4.706 1.516,11.063 -2.3,18.37m-8.727,4.921c-0.4,1.462 -1.031,2.982 -2.027,4.932l-0.195,0.378l0.055,0.057c-0.395,0.725 -0.789,1.396 -1.141,1.97c-0.004,0.009 -0.646,0.655 -1.678,1.522l-3.859,3.342c-1.056,0.949 -2.153,1.81 -3.125,2.578c0.652,-1.19 1.16,-2.297 1.55,-3.397c0.697,-1.945 1.174,-3.931 1.421,-5.89c0.268,-1.977 0.227,-4.043 -0.052,-6.159c3.359,-3.147 6.597,-6.429 9.683,-9.85c0.099,0.578 0.183,1.16 0.243,1.723c0.107,1.361 0.103,2.754 -0.022,4.148c-0.138,1.538 -0.424,3.103 -0.853,4.646m-16.774,18.548l-5.832,4.152c-0.956,0.68 -1.952,1.316 -2.835,1.876c-0.247,0.158 -0.484,0.304 -0.715,0.449c0.571,-0.826 1.091,-1.666 1.55,-2.511c0.759,-1.383 1.387,-2.926 1.963,-4.857c0.775,-2.695 1.086,-5.219 1.004,-7.713c3.732,-2.837 7.343,-5.825 10.809,-8.972c0.099,1.419 0.088,2.822 -0.085,4.198c-0.274,2.252 -0.842,4.444 -1.683,6.493c-1.027,2.331 -2.434,4.646 -4.176,6.885m-12.488,7.46l-0.265,0.32l0.048,0.076c-0.498,0.6 -1.008,1.211 -1.481,1.673l-6.401,3.684l-3.619,1.862c0.803,-0.971 1.541,-1.965 2.192,-2.977c1.017,-1.597 1.86,-3.409 2.576,-5.518c0.667,-1.968 1.047,-3.993 1.2,-6.036c3.93,-2.407 7.745,-4.975 11.442,-7.705c-0.154,4.375 -1.569,9.463 -5.692,14.621m-17.208,10.333c-0.488,0.233 -3.493,1.604 -6.505,2.921l-3.98,1.564c4.641,-4.562 6.704,-9.48 7.469,-13.853c4.237,-2.037 8.363,-4.247 12.39,-6.627c-0.197,1.383 -0.478,2.747 -0.928,4.103c-1.401,4.418 -4.239,8.418 -8.446,11.892m-13.726,4.843l-0.317,0.266l0.03,0.076c-0.547,0.433 -1.13,0.833 -1.758,1.241l-0.121,0.082l-2.115,0.718c-0.458,0.147 -0.971,0.32 -1.514,0.511c-1.008,0.346 -2.159,0.741 -3.313,1.069l-3.871,1.091c5.099,-4.108 7.583,-8.875 8.763,-13.02c4.339,-1.563 8.588,-3.308 12.741,-5.23c-0.47,1.905 -1.172,3.745 -2.098,5.515c-1.358,2.638 -3.465,5.152 -6.427,7.681m-18.873,6.588l-2.197,0.508c-0.427,0.092 -0.896,0.203 -1.396,0.322c-1.051,0.243 -2.247,0.529 -3.451,0.72l-4.195,0.745c2.469,-1.603 4.527,-3.4 6.14,-5.361c1.666,-2.048 2.983,-4.308 3.954,-6.696c4.571,-1.131 9.069,-2.46 13.477,-3.972c-0.468,1.3 -1.022,2.589 -1.723,3.826c-0.599,1.042 -1.18,1.926 -1.768,2.687c-0.715,0.89 -1.506,1.757 -2.359,2.57c-2.211,2.093 -4.309,3.58 -6.482,4.651m-14.486,1.993l-0.372,0.201l0.011,0.067c-0.727,0.339 -1.421,0.64 -2.034,0.895c0,0 -3.134,0.398 -3.598,0.453c-1.142,0.154 -2.429,0.328 -3.736,0.397l-4.013,0.305c5.81,-2.981 9.22,-7.161 11.219,-10.983c4.576,-0.659 9.087,-1.487 13.521,-2.52c-0.835,1.757 -1.892,3.423 -3.145,4.97c-2.02,2.383 -4.667,4.475 -7.853,6.215m-19.888,2.626l-2.174,0.059c-0.447,0 -0.946,0.018 -1.48,0.038c-0.666,0.013 -1.386,0.042 -2.131,0.042c-0.44,0 -0.885,-0.008 -1.343,-0.029l-4.271,-0.11c2.76,-1.086 5.144,-2.425 7.102,-4.019c2.041,-1.675 3.783,-3.618 5.216,-5.773c4.721,-0.19 9.402,-0.569 14.016,-1.162c-2.517,4.153 -6.994,8.667 -14.935,10.954m-14.504,-0.938l-0.399,0.118l0,0.072c-0.712,0.177 -1.45,0.338 -2.173,0.477l-2.296,-0.177c-0.483,-0.045 -1.026,-0.085 -1.598,-0.123c-1.06,-0.077 -2.267,-0.16 -3.46,-0.33l-3.979,-0.5c6.275,-1.777 10.436,-5.191 13.156,-8.534c3.167,0.181 6.353,0.291 9.564,0.291c1.403,0 2.801,-0.017 4.194,-0.059c-1.17,1.561 -2.539,2.978 -4.075,4.237c-2.422,1.913 -5.43,3.433 -8.934,4.528m-20.007,-1.386l-2.141,-0.384c-0.455,-0.08 -0.953,-0.169 -1.486,-0.262c-1.042,-0.181 -2.227,-0.387 -3.387,-0.676l-4.161,-0.969c2.908,-0.502 5.509,-1.342 7.761,-2.507c2.335,-1.238 4.426,-2.796 6.257,-4.613c4.603,0.743 9.261,1.296 13.981,1.645c-3.298,3.57 -8.589,7.103 -16.824,7.766m-14.038,-3.835l-0.413,0.038l-0.021,0.064c-0.4,0.012 -0.795,0.031 -1.209,0.031c-0.228,0 -0.919,-0.006 -1.022,0l-3.258,-0.928c-1.169,-0.331 -2.498,-0.707 -3.815,-1.187l-3.84,-1.294c6.539,-0.442 11.318,-2.97 14.654,-5.69c4.409,1.186 8.885,2.186 13.438,2.995c-1.473,1.291 -3.091,2.404 -4.843,3.331c-2.78,1.401 -6.037,2.29 -9.671,2.64m-19.262,-5.382l-2.111,-0.827c-1.132,-0.435 -2.839,-1.117 -4.556,-1.931l-3.93,-1.773c0.351,0.017 0.697,0.038 1.042,0.038c2.374,0 4.758,-0.308 7.114,-0.911c2.541,-0.738 4.9,-1.849 7.067,-3.263c4.365,1.668 8.822,3.155 13.354,4.448c-3.288,2.353 -7.963,4.436 -14.218,4.436c-1.263,0 -2.58,-0.082 -3.762,-0.217m-13.01,-6.648l-0.424,-0.06l-0.041,0.079c-0.793,-0.134 -1.55,-0.276 -2.191,-0.415l-2.078,-1.061c-1.255,-0.609 -2.862,-1.529 -4.428,-2.442l-3.514,-2.027c1.154,0.152 2.379,0.234 3.727,0.241c2.294,0 4.263,-0.22 6.016,-0.659c2.009,-0.503 3.93,-1.259 5.746,-2.209c4.102,2.058 8.298,3.954 12.588,5.663c-1.728,0.998 -3.55,1.764 -5.415,2.285c-2.191,0.555 -4.399,0.833 -6.575,0.833c-1.135,0 -2.281,-0.076 -3.411,-0.228m-17.86,-9.183c-0.617,-0.389 -3.307,-2.089 -5.899,-4.013c-0.518,-0.369 -1.042,-0.737 -1.549,-1.094c-0.731,-0.515 -1.397,-0.996 -2,-1.449c2.207,0.553 4.399,0.85 6.561,0.85c3.189,0 6.279,-0.634 9.221,-1.809c3.948,2.518 8.01,4.866 12.181,7.038c-1.277,0.579 -2.59,1.07 -3.968,1.419c-1.865,0.422 -3.771,0.629 -5.657,0.629c-2.977,0 -5.967,-0.526 -8.89,-1.571m-11.727,-9.238l-0.045,0.059c-0.77,-0.287 -1.5,-0.574 -2.093,-0.827l-1.798,-1.417l-4.145,-3.574c-1.022,-0.885 -2,-1.729 -2.814,-2.489c2.941,1.057 5.918,1.598 8.884,1.598c2.335,0 4.64,-0.361 6.882,-1.004c3.609,2.848 7.345,5.538 11.196,8.075c-2.326,0.766 -4.744,1.175 -7.227,1.175c-2.765,0 -5.603,-0.498 -8.437,-1.461l-0.403,-0.135Zm-15.221,-12.372l-0.448,-0.435c-0.281,-0.261 -0.681,-0.642 -1.134,-1.129l-3.441,-3.614c-1.106,-1.118 -2.113,-2.251 -2.878,-3.141c0.953,0.471 1.861,0.853 2.754,1.162c1.689,0.563 3.401,0.963 5.085,1.2c1.204,0.166 2.388,0.247 3.529,0.247c0.359,0 0.711,-0.004 1.067,-0.028c1.065,-0.07 2.126,-0.209 3.168,-0.408c3.367,3.269 6.872,6.387 10.514,9.35c-1.392,0.31 -2.784,0.522 -4.176,0.557c-0.212,0.013 -0.435,0.013 -0.651,0.013c-1.971,0 -3.999,-0.243 -6.023,-0.724c-2.265,-0.541 -4.713,-1.567 -7.366,-3.05m-9.663,-11.459l-0.071,0.056c-0.699,-0.433 -1.356,-0.855 -1.895,-1.222l-0.399,-0.46l-4.195,-5.333c-0.786,-0.957 -1.502,-1.973 -2.134,-2.878c-0.089,-0.127 -0.177,-0.254 -0.261,-0.381c1.116,0.686 2.201,1.259 3.293,1.732c1.914,0.794 3.875,1.366 5.819,1.709c1.349,0.247 2.745,0.368 4.147,0.368c0.66,0 1.337,-0.05 2.013,-0.11c2.967,3.518 6.077,6.914 9.336,10.164c-0.85,0.101 -1.709,0.164 -2.573,0.164c-1.075,0 -2.19,-0.076 -3.296,-0.238c-1.527,-0.213 -3.077,-0.576 -4.592,-1.073c-1.545,-0.547 -3.119,-1.29 -4.833,-2.288l-0.359,-0.21Zm-12.479,-15.203l-3.861,-6.018c-0.632,-1.011 -1.215,-2.037 -1.743,-2.958c-0.062,-0.118 -0.221,-0.403 -0.428,-0.753c4.535,3.396 9.522,5.17 14.847,5.303c2.656,3.887 5.474,7.645 8.447,11.274c-0.128,0 -0.267,0.012 -0.4,0.012c-1.279,0 -2.562,-0.108 -3.805,-0.33c-2.375,-0.419 -4.468,-1.081 -6.397,-2.017c-2.37,-1.188 -4.612,-2.704 -6.66,-4.513m-6.832,-12.847l-0.317,-0.284l-0.078,0.048c-0.537,-0.493 -1.11,-1.039 -1.575,-1.57l-3.366,-6.579l-1.678,-3.718c0.928,0.857 1.886,1.64 2.862,2.348c1.477,1.072 3.184,1.983 5.386,2.859c1.955,0.763 3.95,1.247 5.959,1.509c2.206,4.042 4.594,7.991 7.127,11.818c-5.178,-0.439 -9.991,-2.589 -14.32,-6.431m-9.419,-17.635l-0.829,-2.106c-0.162,-0.435 -0.354,-0.92 -0.562,-1.435c-0.395,-0.977 -0.829,-2.081 -1.215,-3.186l-1.372,-4.054c2.014,2.274 4.072,4.017 6.244,5.261c2.276,1.336 4.699,2.298 7.217,2.895c1.817,4.35 3.826,8.596 6.007,12.748c-1.372,-0.266 -2.734,-0.647 -4.068,-1.165c-2.201,-0.837 -4.165,-1.94 -5.833,-3.262c-1.684,-1.343 -3.851,-3.214 -5.589,-5.696m-4.17,-14.035l-0.252,-0.333l-0.068,0.03c-0.411,-0.587 -0.791,-1.196 -1.2,-1.876l-0.633,-2.218c-0.123,-0.466 -0.272,-0.978 -0.429,-1.523c-0.3,-1.026 -0.647,-2.198 -0.899,-3.38l-0.902,-3.929c3.835,5.298 8.479,8.03 12.561,9.428c1.339,4.412 2.863,8.744 4.561,12.985c-1.869,-0.562 -3.677,-1.355 -5.389,-2.374c-2.603,-1.538 -5.005,-3.764 -7.35,-6.81m-6.004,-21.406c-0.068,-0.402 -0.147,-0.845 -0.236,-1.317c-0.198,-1.087 -0.424,-2.32 -0.557,-3.572l-0.528,-4.228c1.46,2.53 3.149,4.678 5.035,6.41c1.959,1.764 4.146,3.184 6.491,4.276c0.898,4.632 1.988,9.208 3.282,13.693c-4.487,-1.859 -9.631,-5.598 -13.106,-13.121l-0.381,-2.141Zm-1.904,-14.797l-0.173,-2.3c-0.03,-0.423 -0.064,-0.891 -0.104,-1.39c-0.093,-1.116 -0.192,-2.392 -0.198,-3.672l-0.098,-4.001c2.69,5.933 6.689,9.547 10.401,11.74c0.42,4.597 1.026,9.14 1.826,13.626c-1.718,-0.929 -3.327,-2.061 -4.804,-3.39c-2.29,-2.166 -4.244,-4.91 -5.805,-8.165l-0.181,-0.374l-0.07,0.004c-0.305,-0.751 -0.577,-1.461 -0.794,-2.078m-0.528,-19.702c0.019,-0.472 0.03,-1 0.039,-1.557c0.02,-1.046 0.04,-2.226 0.153,-3.396l0.321,-4.256c0.943,2.824 2.152,5.231 3.667,7.285c1.566,2.126 3.426,3.958 5.5,5.486c-0.005,0.528 -0.021,1.052 -0.021,1.577c0,4.205 0.164,8.371 0.479,12.489c-4.017,-2.726 -8.302,-7.417 -10.193,-15.462l0.055,-2.166Zm1.362,-17.17c0.074,-0.47 0.133,-1.004 0.202,-1.57c0.128,-1.064 0.272,-2.273 0.509,-3.455l0.711,-3.947c1.446,6.359 4.645,10.68 7.849,13.571c-0.495,4.526 -0.81,9.103 -0.923,13.734c-1.496,-1.252 -2.849,-2.691 -4.024,-4.287c-1.787,-2.488 -3.154,-5.57 -4.073,-9.155l-0.104,-0.4l-0.068,-0.011c-0.138,-0.682 -0.256,-1.409 -0.371,-2.194l0.292,-2.286Zm3.134,-17.155c0.094,-0.386 0.198,-0.83 0.301,-1.294c0.243,-1.077 0.519,-2.305 0.894,-3.515l1.166,-4.107c0.345,2.889 1.055,5.527 2.116,7.879c1.111,2.398 2.562,4.566 4.29,6.494c-0.976,4.548 -1.772,9.179 -2.354,13.874c-3.397,-3.48 -6.659,-8.936 -6.9,-17.199l0.487,-2.132Zm4.068,-14.357l0.869,-2.581c0.425,-1.268 0.953,-2.836 1.595,-4.382l1.49,-3.783c0.099,6.55 2.365,11.454 4.93,14.951c-1.401,4.341 -2.635,8.761 -3.671,13.255c-1.215,-1.533 -2.251,-3.204 -3.085,-5.004c-1.269,-2.925 -1.99,-6.221 -2.128,-9.792l-0.02,-0.419l-0.069,-0.019c0.014,-0.8 0.044,-1.578 0.089,-2.226m6.347,-16.304l1.886,-4.146l3.169,-6.184c-0.235,2.678 -0.088,5.409 0.465,8.169c0.591,2.543 1.579,4.959 2.902,7.223c-1.886,4.272 -3.598,8.642 -5.115,13.094c-0.754,-1.178 -1.435,-2.403 -1.988,-3.709c-0.789,-1.805 -1.308,-3.865 -1.619,-6.479c-0.134,-1.246 -0.192,-2.547 -0.169,-3.865c0.05,-1.239 0.213,-2.589 0.469,-4.103m7.297,-12.594l0.942,0l-0.928,-0.515c0.174,-0.798 0.35,-1.549 0.519,-2.177l1.165,-2.02c0.498,-0.921 1.214,-2.034 1.975,-3.217l1.712,-2.673c0.414,-0.641 0.81,-1.272 1.179,-1.83c-0.226,1.196 -0.369,2.43 -0.434,3.726c-0.108,2.194 0.005,4.165 0.357,6.041c0.399,2.04 1.06,3.986 1.913,5.856c-2.265,3.994 -4.368,8.087 -6.293,12.283c-0.923,-1.803 -1.599,-3.655 -2.004,-5.523c-0.676,-3.413 -0.706,-6.76 -0.103,-9.951m10.036,-17.373l1.307,-1.831c0.519,-0.704 1.175,-1.551 1.877,-2.435c0.384,-0.483 0.774,-0.981 1.168,-1.488c0.923,-1.227 1.887,-2.401 2.697,-3.37c-1.98,6.531 -1.146,12.005 0.153,15.806c-2.706,3.806 -5.248,7.746 -7.623,11.791c-0.513,-1.312 -0.932,-2.653 -1.215,-4.039c-0.837,-4.916 -0.27,-9.806 1.636,-14.434m9.704,-10.892l0.167,-0.395l-0.069,-0.064c0.321,-0.756 0.643,-1.455 0.929,-2.035l1.51,-1.728l5.376,-5.639l1.012,-0.971c-2.533,6.063 -2.391,11.48 -1.392,15.709c-3.022,3.46 -5.895,7.044 -8.614,10.753c-0.548,-1.972 -0.83,-3.915 -0.82,-5.818c-0.01,-3.567 0.612,-6.777 1.901,-9.812m9.853,-7.779c0.72,-2.336 1.865,-4.734 3.43,-7.214c0.01,-0.01 0.632,-0.63 1.649,-1.487l3.766,-3.27c1.122,-1.002 2.32,-1.938 3.287,-2.695c-0.488,0.898 -0.933,1.796 -1.303,2.678c-0.647,1.657 -1.13,3.355 -1.445,5.024c-0.505,2.593 -0.559,5.199 -0.214,7.767c-3.429,3.193 -6.723,6.537 -9.862,10.028c-0.247,-1.411 -0.384,-2.809 -0.345,-4.199c0.043,-2.18 0.395,-4.412 1.037,-6.632m15.123,-15.923l0.238,-0.358l-0.055,-0.07c0.45,-0.652 0.898,-1.277 1.362,-1.875c0.208,-0.152 0.875,-0.636 1.807,-1.297l4.156,-2.957c0.978,-0.704 2.014,-1.359 2.923,-1.934c0.158,-0.101 0.311,-0.196 0.464,-0.292c-0.716,1.052 -1.353,2.116 -1.901,3.197c-0.887,1.872 -1.559,3.811 -1.993,5.737c-0.469,1.991 -0.642,4.042 -0.578,6.137c-3.664,2.791 -7.212,5.728 -10.628,8.821c-0.118,-1.885 0,-3.848 0.375,-5.872c0.306,-1.576 0.747,-3.109 1.303,-4.528c0.667,-1.576 1.521,-3.166 2.527,-4.709m16.054,-12.044l6.184,-3.561l3.816,-1.958c-4.151,5.008 -5.711,10.111 -6.026,14.539c-4.024,2.459 -7.924,5.096 -11.7,7.881c0.049,-1.361 0.232,-2.767 0.538,-4.193c0.568,-2.439 1.328,-4.501 2.34,-6.287c1.387,-2.436 2.971,-4.541 4.848,-6.421m13.175,-6.179l0.291,-0.3l-0.04,-0.084c0.563,-0.558 1.13,-1.069 1.664,-1.491c0.005,0 3.361,-1.555 6.738,-3.016l3.785,-1.491c-2.516,2.47 -4.402,5.144 -5.611,7.961c-0.864,1.941 -1.442,3.907 -1.803,5.876c-4.16,2.006 -8.219,4.188 -12.173,6.522c0.587,-4.341 2.512,-9.259 7.149,-13.977m18.101,-8.501l2.131,-0.727c0.445,-0.141 0.934,-0.302 1.457,-0.491c0.997,-0.339 2.122,-0.73 3.258,-1.04l4.111,-1.173c-2.349,1.883 -4.185,3.848 -5.572,5.965c-1.451,2.209 -2.523,4.579 -3.254,7.059c-4.428,1.598 -8.761,3.377 -13.001,5.333c0.33,-1.339 0.75,-2.675 1.333,-3.983c0.908,-2.091 2.107,-4.001 3.558,-5.655c1.432,-1.628 3.422,-3.707 5.979,-5.288m14.216,-3.462l0.345,-0.236l-0.02,-0.062c0.617,-0.373 1.273,-0.745 1.935,-1.098l2.251,-0.524c0.444,-0.094 0.934,-0.209 1.452,-0.33c1.07,-0.258 2.281,-0.548 3.513,-0.738l3.965,-0.712c-5.485,3.561 -8.452,8.064 -10.056,12.069c-4.477,1.112 -8.879,2.411 -13.199,3.892c0.656,-1.836 1.54,-3.606 2.636,-5.266c1.679,-2.512 4.098,-4.864 7.178,-6.995m19.527,-4.627c0,0 2.972,-0.374 3.415,-0.432c1.122,-0.14 2.384,-0.305 3.669,-0.381l4.245,-0.319c-2.598,1.335 -4.828,2.913 -6.648,4.707c-1.863,1.868 -3.396,3.978 -4.607,6.269c-4.681,0.659 -9.295,1.52 -13.841,2.573c2.088,-4.384 6.086,-9.333 13.767,-12.417m14.538,-0.509l0.38,-0.16l0,-0.068c0.77,-0.27 1.5,-0.502 2.111,-0.686l2.3,-0.059c0.461,-0.007 0.978,-0.017 1.527,-0.04c0.686,-0.017 1.43,-0.042 2.191,-0.042c0.439,0 0.893,0.008 1.353,0.025l4.002,0.109c-6.057,2.391 -9.862,6.205 -12.237,9.804c-4.618,0.187 -9.194,0.558 -13.707,1.132c1.016,-1.666 2.226,-3.216 3.629,-4.622c2.274,-2.177 5.113,-3.995 8.451,-5.393m20.031,-0.629l2.167,0.164c0.47,0.042 0.982,0.08 1.534,0.121c1.047,0.072 2.236,0.154 3.402,0.325l4.239,0.535c-2.881,0.806 -5.346,1.89 -7.468,3.294c-2.197,1.461 -4.117,3.223 -5.76,5.216c-3.225,-0.189 -6.466,-0.295 -9.741,-0.295c-1.445,0 -2.886,0.017 -4.322,0.055c2.922,-3.877 7.829,-7.926 15.949,-9.415m14.35,2.397l0.405,-0.082l0.013,-0.07c0.715,-0.102 1.468,-0.188 2.213,-0.256l2.264,0.408c0.465,0.09 0.981,0.175 1.532,0.275c1.06,0.183 2.27,0.386 3.454,0.69l3.935,0.904c-6.442,1.119 -10.93,4.093 -13.98,7.151c-4.503,-0.722 -9.058,-1.271 -13.668,-1.609c1.328,-1.428 2.828,-2.708 4.482,-3.806c2.566,-1.651 5.711,-2.868 9.35,-3.605m19.054,3.396c0.236,0 0.477,0 0.72,0.003l3.06,0.874c1.159,0.331 2.473,0.698 3.781,1.17l4.086,1.387c-2.857,0.188 -5.552,0.741 -8.025,1.687c-2.447,0.995 -4.685,2.336 -6.699,3.965c-4.501,-1.211 -9.078,-2.239 -13.726,-3.059c3.529,-3.117 8.923,-6.027 16.803,-6.027m14.703,5.274l0.03,-0.066c0.804,0.049 1.575,0.121 2.222,0.188l2.162,0.857c1.722,0.655 3.297,1.318 4.659,1.967l3.699,1.668l-0.657,0c-0.938,0 -1.905,0.041 -3.06,0.13c-2.267,0.223 -4.208,0.649 -5.924,1.294c-1.957,0.699 -3.787,1.639 -5.501,2.764c-4.278,-1.626 -8.642,-3.091 -13.085,-4.355c1.591,-1.136 3.317,-2.086 5.153,-2.83c2.924,-1.081 6.072,-1.629 9.355,-1.629l0.947,0.012Zm18.202,7.296l2.027,1.042c1.181,0.574 2.72,1.456 4.325,2.381l3.692,2.126c-0.937,-0.12 -1.931,-0.204 -2.982,-0.232c-0.3,-0.01 -0.592,-0.015 -0.883,-0.015c-1.462,0 -2.913,0.111 -4.305,0.331c-2.516,0.431 -4.981,1.29 -7.355,2.517c-4.176,-2.099 -8.446,-4.024 -12.82,-5.765c1.214,-0.701 2.473,-1.315 3.813,-1.808c1.87,-0.693 3.953,-1.098 6.548,-1.276c0.573,-0.042 1.162,-0.055 1.764,-0.055c0.686,0 1.396,0.021 2.098,0.072c1.366,0.148 2.783,0.398 4.078,0.682m12.676,8.037l0.043,-0.068c0.77,0.208 1.511,0.422 2.216,0.665c0.621,0.395 3.408,2.161 6.036,4.102c0.531,0.38 1.063,0.758 1.581,1.124c0.617,0.433 1.21,0.846 1.742,1.239c-0.112,-0.025 -0.222,-0.055 -0.329,-0.08c-1.142,-0.236 -2.271,-0.418 -3.374,-0.53c-0.957,-0.1 -1.919,-0.146 -2.857,-0.146c-1.071,0 -2.131,0.063 -3.19,0.193c-2.052,0.295 -4.035,0.858 -5.942,1.622c-3.874,-2.473 -7.868,-4.776 -11.954,-6.914c2.965,-1.334 6.154,-2.023 9.52,-2.023c1.979,0 4.034,0.243 6.098,0.719l0.41,0.097Zm16.372,10.786l1.757,1.383l4.369,3.77c0.957,0.826 1.862,1.615 2.607,2.321c-2.532,-0.908 -5.227,-1.436 -8.043,-1.557c-0.354,-0.019 -0.71,-0.034 -1.07,-0.034c-2.141,0 -4.374,0.351 -6.638,0.999c-3.673,-2.912 -7.486,-5.651 -11.403,-8.23c1.337,-0.449 2.695,-0.802 4.091,-1.004c1.033,-0.13 2.078,-0.196 3.115,-0.196c3.84,0 7.652,0.879 11.215,2.548m10.781,10.437l0.064,-0.072c0.727,0.357 1.417,0.708 2.004,1.033l0.613,0.583c0.271,0.258 0.627,0.6 1.016,1.018l3.525,3.695c0.852,0.862 1.753,1.851 2.734,2.983c-2.967,-1.411 -6.126,-2.245 -9.424,-2.5c-0.605,-0.049 -1.202,-0.076 -1.791,-0.076c-1.417,0 -2.882,0.159 -4.373,0.439c-3.303,-3.198 -6.744,-6.256 -10.307,-9.163c1.595,-0.354 3.199,-0.553 4.784,-0.553c0.354,0 0.706,0.011 1.06,0.027c3.441,0.147 6.703,0.954 9.7,2.394l0.395,0.192Zm13.91,13.81l0.391,0.456l4.097,5.213c0.764,0.94 1.474,1.937 2.098,2.827c0.147,0.208 0.281,0.385 0.419,0.586c-0.859,-0.524 -1.728,-1.005 -2.601,-1.434c-1.532,-0.703 -3.149,-1.256 -4.951,-1.694c-1.966,-0.48 -3.931,-0.716 -5.839,-0.716c-0.643,0 -1.28,0.036 -1.916,0.092c-3.022,-3.589 -6.195,-7.046 -9.512,-10.358c0.868,-0.101 1.738,-0.178 2.587,-0.178c0.528,0 1.065,0.023 1.624,0.07c2.186,0.152 4.401,0.616 6.574,1.353c2.37,0.896 4.773,2.204 7.029,3.783m8.12,12.135l0.34,0.25l0.071,-0.051c0.601,0.452 1.207,0.923 1.801,1.46l3.954,6.157c0.741,1.237 1.461,2.479 2.068,3.526c-1.017,-0.766 -2.054,-1.455 -3.116,-2.072c-1.727,-0.947 -3.622,-1.717 -5.63,-2.291c-1.694,-0.465 -3.426,-0.769 -5.165,-0.885c-0.32,-0.014 -0.631,-0.014 -0.947,-0.023c-2.596,-3.791 -5.35,-7.471 -8.255,-11.021c0.11,-0.006 0.229,-0.006 0.336,-0.006c5.08,0 9.971,1.669 14.543,4.956m11.211,16.65l3.242,6.353l1.772,3.917c-4.903,-4.49 -10.02,-6.245 -14.23,-6.786c-2.242,-4.12 -4.667,-8.124 -7.243,-12.016c1.392,0.137 2.78,0.343 4.142,0.713c4.481,1.177 8.63,3.808 12.317,7.819m5.796,13.78l0.088,-0.038c0.547,0.614 1.031,1.263 1.392,1.736l0.843,2.149c0.172,0.436 0.365,0.92 0.572,1.444c0.402,1.009 0.859,2.141 1.254,3.293l1.308,3.865c-2.375,-2.664 -4.944,-4.689 -7.679,-6.028c-1.897,-0.947 -3.831,-1.634 -5.776,-2.091c-1.783,-4.262 -3.752,-8.42 -5.885,-12.482c3.961,0.769 9.034,2.797 13.596,7.832l0.287,0.32Zm7.886,20.366c0.124,0.456 0.268,0.957 0.424,1.502c0.291,1.001 0.627,2.133 0.87,3.294l0.957,4.157c-1.743,-2.42 -3.608,-4.36 -5.67,-5.873c-2.123,-1.554 -4.445,-2.748 -6.888,-3.604c-1.362,-4.507 -2.912,-8.922 -4.654,-13.257c1.324,0.402 2.627,0.885 3.908,1.53c0.959,0.483 1.897,1.035 2.787,1.622c0.916,0.665 1.819,1.415 2.679,2.228c1.407,1.358 3.455,3.485 4.97,6.233l0.617,2.168Zm2.405,12.552c0.38,0.714 0.72,1.407 0.997,1.99l0.41,2.272c0.068,0.41 0.147,0.868 0.24,1.36c0.203,1.109 0.431,2.368 0.569,3.646l0.513,4.001c-3.278,-5.653 -7.627,-8.843 -11.547,-10.657c-0.878,-4.532 -1.949,-8.99 -3.207,-13.377c1.801,0.75 3.514,1.715 5.124,2.891c2.446,1.853 4.679,4.387 6.614,7.533l0.218,0.352l0.069,-0.011Zm3.604,22.882c0.093,1.111 0.192,2.36 0.196,3.628l0.11,4.255c-1.221,-2.68 -2.676,-4.991 -4.37,-6.882c-1.772,-1.952 -3.806,-3.595 -6.022,-4.918c-0.43,-4.712 -1.047,-9.36 -1.874,-13.949c4.278,2.312 9.017,6.549 11.697,14.372c0,0 0.226,3.024 0.263,3.494m2.329,10.246l-0.034,0l-0.114,-4.857c0,-2.488 -0.247,-5.567 -0.499,-8.822c-0.084,-1.056 -0.169,-2.131 -0.251,-3.238c-0.144,-1.119 -0.282,-2.236 -0.416,-3.334c-0.384,-3.189 -0.754,-6.195 -1.244,-8.585l-0.857,-4.812l0.023,-0.004l-0.133,-0.576l-0.107,-0.587l-0.027,0.005l-1.09,-4.743c-0.523,-2.549 -1.431,-5.656 -2.39,-8.954l-0.779,-2.708l-0.495,-1.466c-1.243,-3.708 -2.422,-7.208 -3.552,-9.887l-1.452,-3.677c-0.34,-0.862 -0.573,-1.338 -0.607,-1.406l-2.24,-4.971c-0.587,-1.365 -1.362,-2.877 -2.182,-4.469l-0.307,-0.6c-0.324,-0.611 -0.638,-1.234 -0.958,-1.867c-0.637,-1.258 -1.297,-2.568 -2.058,-3.819l-3.214,-5.585l-3.628,-5.684c-0.607,-0.955 -1.135,-1.78 -1.574,-2.366l-0.523,-0.733l-3.525,-4.956l-3.446,-4.415l-1.978,-2.491l-2.129,-2.463c-2.432,-2.917 -5.069,-5.669 -7.192,-7.887l-0.941,-0.975c-0.753,-0.816 -1.477,-1.489 -2.056,-2.044c-0.299,-0.271 -0.561,-0.52 -0.793,-0.752l-1.008,-0.959l-0.073,-0.073c-0.064,-0.064 -6.379,-6.187 -13.294,-11.418l-2.59,-2.017c0,0 -3.707,-2.643 -4.256,-3.034c-1.038,-0.745 -2.009,-1.438 -2.918,-2.034l-4.61,-2.956c-0.128,-0.076 -1.941,-1.273 -4.695,-2.82c-0.484,-0.265 -0.992,-0.563 -1.514,-0.869c-1.042,-0.596 -2.167,-1.251 -3.372,-1.903l-5.712,-2.926c-1.284,-0.662 -2.601,-1.258 -3.88,-1.82c-0.665,-0.302 -1.328,-0.591 -1.963,-0.892c-2.242,-1.03 -3.84,-1.715 -5.179,-2.213l-5.648,-2.223l0,0.004c-0.765,-0.296 -2.137,-0.754 -4.628,-1.582c-2.85,-0.942 -7.163,-2.307 -11.566,-3.468c-1.008,-0.228 -2.005,-0.461 -3.001,-0.698c-3.23,-0.764 -6.283,-1.473 -8.772,-1.858l-4.805,-0.842l0.007,-0.032l-0.594,-0.077l-0.58,-0.104l-0.007,0.035l-4.828,-0.618c-2.378,-0.367 -5.335,-0.579 -8.464,-0.801c-1.161,-0.083 -2.349,-0.166 -3.563,-0.268c-1.176,-0.021 -2.355,-0.055 -3.511,-0.089c-2.008,-0.055 -3.949,-0.114 -5.716,-0.114c-0.997,0 -1.946,0.02 -2.804,0.061l-4.867,0.129l0,-0.025l-0.569,0.038l-0.625,0.021l0,0.026l-4.843,0.363c-2.524,0.124 -5.628,0.523 -8.91,0.95c-1.016,0.135 -2.045,0.268 -3.105,0.402c-1.052,0.185 -2.103,0.367 -3.139,0.552c-3.233,0.56 -6.273,1.095 -8.688,1.712l-4.754,1.104l-0.003,-0.024l-0.549,0.157l-0.607,0.144l0.009,0.025l-7.256,2.057c-0.592,0.186 -1.2,0.395 -1.831,0.604c0,0 -2.316,0.79 -2.997,1.009c-1.337,0.457 -2.715,0.915 -4.086,1.428l-5.963,2.349c-1.273,0.479 -2.479,1.032 -3.54,1.525c-0.563,0.261 -1.095,0.506 -1.625,0.735l-3.627,1.64l-0.804,0.408l-0.005,0l-0.505,0.257l-0.551,0.275l0,0.009l-4.331,2.212c-1.065,0.521 -2.215,1.184 -3.43,1.89c-0.483,0.278 -2.873,1.653 -2.873,1.653c-1.372,0.779 -2.798,1.595 -4.156,2.505l-5.414,3.491l-4.562,3.231c-1.471,1.035 -2.527,1.814 -3.208,2.374l-0.712,0.562l0,-0.004l-0.632,0.498l-0.3,0.237l-3.844,3.041c-0.698,0.612 -1.468,1.271 -2.287,1.977c-2.088,1.79 -4.462,3.818 -6.679,6.027c-2.507,2.303 -4.804,4.722 -6.826,6.858c-0.577,0.607 -1.121,1.185 -1.644,1.732c-2.197,2.435 -3.613,4.112 -3.613,4.112l-0.376,0.451l0.015,0.013c-2.206,2.285 -8.025,9.936 -10.36,13.36c-1.21,1.633 -2.282,3.327 -3.328,4.953l-0.266,0.417c-0.381,0.608 -0.76,1.199 -1.131,1.763c-0.681,1.058 -1.333,2.059 -1.851,3.003l-2.429,4.222l-0.405,0.712l-0.187,0.323l-0.459,0.795l-1.822,3.537c-0.247,0.494 -0.517,1.009 -0.798,1.557c-0.555,1.068 -1.152,2.219 -1.719,3.461l-2.646,5.852c-0.587,1.327 -1.11,2.674 -1.619,3.981c-0.266,0.676 -0.523,1.345 -0.79,2l-1.091,2.771l-2.792,8.26l0.009,0c-0.263,0.779 -0.647,2.18 -1.344,4.704c-0.793,2.885 -1.94,7.261 -2.866,11.719c-0.189,1.062 -0.381,2.122 -0.574,3.167c-0.582,3.215 -1.13,6.25 -1.382,8.713l-0.499,3.933c-0.045,0.375 -0.084,0.676 -0.109,0.916l-0.023,0l-0.045,0.586l-0.06,0.599l0.016,0l-0.371,4.843c-0.242,2.335 -0.305,5.215 -0.37,8.258c-0.025,1.242 -0.055,2.504 -0.094,3.814c0.039,1.267 0.069,2.535 0.094,3.772c0.065,3.05 0.128,5.922 0.366,8.24l0.375,4.871l-0.016,0l0.06,0.589l0.045,0.59l0.023,0c0.032,0.24 0.064,0.532 0.109,0.915l0.499,3.917c0.252,2.476 0.8,5.51 1.382,8.729c0.193,1.041 0.385,2.101 0.574,3.178c0.926,4.444 2.073,8.82 2.866,11.705c0.697,2.527 1.081,3.924 1.344,4.706l-0.009,0l2.802,8.284l1.086,2.761c0.262,0.643 0.519,1.308 0.785,1.984c0.509,1.307 1.032,2.659 1.624,3.985l2.641,5.85c0.567,1.24 1.164,2.39 1.719,3.46c0.281,0.546 0.551,1.068 0.804,1.573l1.826,3.54l0.449,0.78l0.592,1.029l2.425,4.216c0.522,0.956 1.174,1.947 1.855,3.01c0.371,0.563 0.75,1.157 1.141,1.767l0.256,0.412c1.046,1.629 2.118,3.32 3.316,4.936c2.347,3.446 8.166,11.092 10.372,13.377l-0.015,0.013l0.376,0.452c0,0 1.416,1.681 3.623,4.13c0.513,0.538 1.057,1.11 1.634,1.721c2.022,2.13 4.319,4.552 6.812,6.84c2.231,2.219 4.605,4.247 6.693,6.043c0.819,0.704 1.589,1.366 2.31,2.002l3.821,3.01l0.572,0.458l0.36,0.282l0,-0.008l0.702,0.556c0.691,0.563 1.747,1.345 3.218,2.38l4.587,3.252l5.38,3.464c1.367,0.92 2.793,1.732 4.165,2.518c0,0 2.39,1.376 2.873,1.649c1.215,0.703 2.365,1.366 3.421,1.884l4.34,2.219l0,0.007l0.517,0.26l0.539,0.269l0.005,0l0.824,0.421l3.618,1.633c0.519,0.223 1.051,0.473 1.619,0.734c1.056,0.488 2.262,1.043 3.53,1.527l5.982,2.351c1.357,0.508 2.735,0.962 4.072,1.42c0.681,0.218 2.997,1.009 2.997,1.009c0.631,0.216 1.239,0.418 1.846,0.611l7.241,2.05l-0.009,0.028l0.607,0.144l0.549,0.153l0.003,-0.023l4.744,1.098c2.425,0.624 5.465,1.157 8.698,1.717c1.036,0.186 2.087,0.372 3.173,0.562c1.026,0.125 2.055,0.257 3.067,0.393c3.286,0.426 6.39,0.826 8.9,0.954l4.857,0.364l0,0.023l0.596,0.02l0.598,0.042l0,-0.027l4.853,0.126c0.872,0.044 1.821,0.061 2.818,0.061c1.767,0 3.708,-0.06 5.716,-0.111c1.156,-0.032 2.335,-0.07 3.54,-0.098c1.185,-0.089 2.373,-0.171 3.534,-0.263c3.129,-0.216 6.086,-0.432 8.456,-0.793l4.836,-0.614l0.007,0.025l0.58,-0.102l0.594,-0.076l-0.007,-0.029l4.795,-0.85c2.499,-0.376 5.552,-1.091 8.782,-1.858c0.996,-0.233 1.993,-0.46 3.019,-0.701c4.385,-1.153 8.698,-2.521 11.548,-3.462c2.491,-0.831 3.863,-1.285 4.628,-1.579l0,0.01l5.638,-2.226c1.349,-0.503 2.947,-1.191 5.189,-2.222c0.635,-0.296 1.298,-0.591 1.963,-0.892c1.279,-0.562 2.596,-1.154 3.88,-1.819l5.717,-2.936c1.2,-0.638 2.325,-1.289 3.367,-1.893c0.522,-0.305 1.03,-0.603 1.51,-0.87c2.784,-1.554 4.6,-2.754 4.709,-2.826l4.6,-2.957c0.905,-0.587 1.88,-1.282 2.918,-2.027c0.549,-0.388 4.274,-3.046 4.274,-3.046l2.568,-1.997c6.919,-5.238 13.234,-11.361 13.298,-11.418l0.083,-0.089l1.002,-0.954c0.228,-0.229 0.49,-0.478 0.789,-0.75c0.579,-0.546 1.303,-1.227 2.05,-2.034l0.947,-0.984c2.123,-2.213 4.76,-4.97 7.188,-7.878l2.152,-2.488l1.959,-2.47l3.456,-4.436l3.515,-4.934l0.512,-0.721c0.45,-0.603 0.978,-1.426 1.585,-2.383l3.643,-5.703l3.193,-5.55c0.767,-1.259 1.427,-2.576 2.064,-3.835c0.32,-0.634 0.634,-1.263 0.958,-1.876l0.307,-0.583c0.82,-1.602 1.595,-3.111 2.171,-4.465l2.251,-4.979c0.03,-0.056 0.267,-0.537 0.607,-1.401l1.447,-3.67c1.135,-2.693 2.314,-6.195 3.557,-9.903l0.499,-1.485l0.775,-2.689c0.959,-3.299 1.867,-6.407 2.39,-8.942l1.09,-4.75l0.027,0.007l0.107,-0.592l0.133,-0.578l-0.023,-0.004l0.849,-4.8c0.498,-2.402 0.868,-5.408 1.252,-8.595c0.134,-1.098 0.272,-2.217 0.42,-3.369c0.078,-1.074 0.163,-2.143 0.247,-3.205c0.252,-3.254 0.499,-6.324 0.494,-8.801l0.119,-4.879l0.034,0l-0.016,-0.593l0.016,-0.59Z" style="fill:#0e294b;fill-rule:nonzero;"/><g><path d="M287.989,173.725c0.139,8.812 0.277,17.625 0.407,26.428c0.479,0.011 0.959,0.02 1.43,0.03c0.102,-7.831 0.23,-15.653 0.285,-23.483c0.01,-1.462 0.379,-3.119 -0.96,-4.243c-0.387,0.419 -0.775,0.848 -1.162,1.268" style="fill:#2d3853;fill-rule:nonzero;"/><path d="M296.774,225.416c-1.716,3.343 -4.707,3.538 -7.705,2.485c-1.587,-0.562 -3.156,-1.402 -4.54,-2.445c-17.65,-13.198 -35.274,-26.448 -52.887,-39.709c-2.105,-1.584 -4.061,-3.475 -3.018,-6.675c1.061,-3.242 3.505,-4.55 6.237,-4.694c2.547,0.072 4.272,1.473 6.054,2.822c12.298,9.273 24.607,18.526 36.933,27.737c5.464,4.08 11.073,7.945 16.462,12.156c2.501,1.953 4.272,4.805 2.464,8.323m-16.221,5.122c2.362,1.851 4.706,4.335 2.934,8.139c-1.67,3.577 -4.678,4.048 -7.917,3.547c-2.491,-0.379 -4.687,-1.585 -6.708,-3.17c-14.505,-11.389 -29.009,-22.779 -43.486,-34.219c-2.574,-2.034 -5.204,-4.385 -2.981,-8.352c2.096,-3.753 5.158,-4.182 8.822,-2.496c2.869,1.321 9.466,6.984 12.169,8.539l0,-0.011c4.522,4.059 9.606,7.228 14.376,10.878c7.567,5.767 15.289,11.287 22.791,17.145m-10.518,23.893c-1.191,2.434 -3.221,2.945 -5.492,2.863c-2.951,0.214 -5.322,-1.298 -7.629,-3.046c-13.047,-9.897 -26.103,-19.784 -39.169,-29.64c-1.826,-1.38 -3.745,-2.678 -3.294,-5.562c0.452,-2.943 2.63,-4.028 4.854,-4.836c3.238,-1.184 6.043,0.256 8.655,2.158c11.423,8.312 22.846,16.613 34.185,25.038c2.398,1.789 5.066,3.251 6.846,5.941c1.458,2.186 2.326,4.446 1.044,7.084m-13.97,7.852c2.251,1.625 3.949,3.793 2.796,7.157c-0.74,2.147 -2.363,3.802 -4.311,4.559c-3.616,1.422 -6.568,-0.337 -9.345,-2.341c-7.834,-5.664 -15.613,-11.41 -23.419,-17.093c-3.839,-2.803 -7.786,-5.429 -11.534,-8.375c-2.242,-1.767 -3.58,-4.365 -2.537,-7.534c1.034,-3.128 3.091,-5 6.294,-4.918c1.523,0.051 2.979,0.266 4.345,1.258c12.559,9.119 25.134,18.199 37.711,27.287m39.103,-46.916c-4.918,-2.587 -5.775,-6.861 -5.195,-12.147c0.102,-0.991 -0.092,-2.024 -0.147,-3.037c-0.471,-0.01 -0.951,-0.019 -1.43,-0.03c-0.701,2.884 0.359,5.992 -0.951,9.396c-4.631,-3.486 -8.831,-7.178 -13.453,-9.979c-4.678,-2.842 -6.569,-6.624 -5.628,-12.34c0.212,-1.33 0.129,-2.71 0.258,-4.048c0.435,-4.796 2.722,-7.729 7.023,-8.742c4.41,-1.042 8.884,-0.47 13.323,-0.766c0.055,-0.706 0.037,-0.532 0.092,-1.247c-6.393,-1.964 -12.585,-0.861 -18.462,1.728c-1.293,-0.789 -0.952,-1.913 -0.97,-2.854c-0.157,-8.056 -0.148,-8.056 -7.261,-8.066c-3.378,0 -6.755,0.01 -10.131,0l-23.336,-1.033c-4.557,0 -3.654,-12.196 -7.843,-10.797c-0.885,0.093 -1.771,0.042 -2.658,-0.122c-1.448,-0.185 -2.305,-1.432 -2.25,-2.709c-0.064,-0.328 -0.101,-0.625 -0.101,-1.022c-0.029,0 -0.14,-0.052 -0.775,-0.133l0,-0.072l0,-0.113l-0.02,0c-0.682,1.974 -0.442,3.794 0.554,5.388c1.476,1.288 2.889,-0.214 4.199,1.739c2.278,3.312 2.278,4.008 3.385,7.146c0.711,2.014 0.416,2.392 1.764,2.485c12.456,0.899 26.296,2.044 39.352,1.584c1.347,-0.051 2.943,-0.061 3.036,2.148c0.36,8.403 -0.738,16.674 -1.227,24.955c-2.103,0.041 -2.953,-1.042 -3.949,-1.768c-7.52,-5.573 -14.939,-11.328 -22.597,-16.675c-4.42,-3.088 -9.725,-1.657 -12.235,2.637c-2.335,3.998 -1.264,7.178 3.996,11.175c10.878,8.282 21.802,16.481 32.718,24.69c1.339,1.003 3.165,1.586 2.528,4.213c-2.039,0.009 -3.33,-1.544 -4.789,-2.627c-5.674,-4.192 -12.114,-9.222 -17.853,-13.353c-1.312,-0.92 -3.756,-2.873 -6.202,-4.734c-2.453,-1.85 -4.899,-3.609 -6.227,-4.15c-4.642,-1.861 -9.32,-0.175 -11.137,4.017c-1.716,3.967 -0.526,6.819 4.068,10.419c13.416,10.489 26.787,21.03 40.174,31.56c1.191,0.931 2.88,1.647 1.432,4.07c-0.823,-0.512 -1.643,-0.93 -2.391,-1.473c-11.23,-8.312 -22.459,-16.624 -33.669,-24.956c-2.584,-1.922 -5.241,-3.609 -8.461,-3.589c-3.994,0.011 -7.363,1.555 -8.876,5.868c-1.56,4.459 1.688,6.452 4.327,8.445c10.887,8.251 21.85,16.4 32.746,24.64c1.662,1.248 3.71,2.107 4.826,4.356c-2.796,1.595 -4.751,0.306 -6.708,-1.104c-8.867,-6.412 -17.799,-12.709 -26.583,-19.242c-4.005,-2.975 -7.972,-4.651 -12.336,-1.37c-4.171,3.129 -3.783,7.658 -2.317,12.177c-2.094,1.052 -6.624,3.219 -8.552,4.192c-0.711,0.787 -0.979,2.167 0,2.638c4.788,-3.866 10.832,-4.888 18.26,0.397c5.675,4.039 11.321,8.138 16.95,12.249c4.013,2.945 7.99,5.95 12.594,9.385c-0.258,0.123 -0.507,0.235 -0.756,0.348c0.019,0.052 0.026,0.103 0.046,0.153c1.107,0.41 2.223,0.828 3.331,1.227c1.024,-0.163 2.048,-0.286 3.091,-0.337c4.328,-0.195 7.502,-2.004 8.922,-6.472c1.43,-4.499 -0.866,-7.402 -4.244,-9.518c-0.498,-0.318 -1.052,-0.727 -0.757,-2.208c5.444,0.092 11.653,3.864 16.415,-2.312c0.248,-0.796 0.507,-1.594 0.766,-2.392c0.83,-4.027 -2.714,-6.419 -3.442,-10.448c3.672,0.624 6.829,2.055 10.178,1.676c8.165,-4.876 8.47,-10.53 0.802,-16.552c-4.051,-3.179 -8.184,-6.226 -12.457,-9.468c2.594,-2.443 3.812,0.246 5.38,0.798c2.39,0.828 4.466,2.505 6.339,4.346c5.546,5.46 11.258,9.129 17.523,5.193c0.71,-1.237 1.567,-2.761 2.269,-4.008c0.221,-4.109 -1.098,-7.76 -4.291,-9.425" style="fill:#2d3853;fill-rule:nonzero;"/><path d="M245.795,277.016c0.904,-0.176 1.808,-0.348 2.723,-0.492c0.055,-0.019 0.11,-0.03 0.157,-0.03c-1.109,-0.4 -2.225,-0.817 -3.332,-1.226c0.239,0.961 0.166,0.663 0.452,1.748" style="fill:#2d3853;fill-rule:nonzero;"/><path d="M245.343,275.267c-0.074,-0.032 -0.138,-0.051 -0.213,-0.083c-4.244,1.881 -8.322,2.71 -10.814,6.554c0.305,0.379 0.6,0.757 0.905,1.124c3.968,-3.475 8.461,-5.551 13.297,-6.338c-0.914,0.144 -1.819,0.318 -2.723,0.49c-0.286,-1.082 -0.213,-0.785 -0.452,-1.747" style="fill:#2d3853;fill-rule:nonzero;"/><path d="M240.203,139.004c0,-0.02 -0.018,-0.051 -0.045,-0.051c-5.49,-0.174 -11.294,-1.258 -17.393,-1.402l-11.598,-0.418c-0.009,0 -0.009,0 -0.018,-0.01c-3.027,-1.36 -5.823,-3.987 -5.832,-8.221c0,-2.127 -0.462,-3.772 -1.633,-4.784c-0.018,-0.01 -0.018,-0.031 -0.018,-0.051c0.516,-1.37 1.125,-2.281 1.817,-2.792c0.018,-0.009 0.018,-0.03 0.018,-0.051c-0.364,-0.876 -0.901,-1.571 -2.15,-7.237c0,-0.011 -0.01,-0.021 -0.019,-0.032c-1.171,-1.022 -2.26,-2.279 -1.632,-4.447l0,-0.02l-0.517,-4.028c-0.333,0.143 -0.656,0.266 -0.988,0.408l0.093,0l0,1.003l-0.332,0c0.009,0.123 0.018,0.244 0.018,0.367c0.111,6.789 1.366,13.526 1.605,20.294c0.241,-0.347 0.655,-0.521 1.505,-0.235c0.082,0.716 0.231,1.514 0.248,2.311c0.158,7.432 3.424,10.858 10.234,11.011l1.864,0.051l0,-0.03l6.135,0c1.2,-0.338 2.621,-0.389 4.299,0l-4.299,0c-0.202,0.051 -0.405,0.122 -0.591,0.194l15.133,0.43c2.067,0.102 2.085,0.102 4.124,0.051c0.029,0 0.047,-0.031 0.047,-0.062c-0.111,-0.838 -0.111,-0.88 -0.075,-2.249" style="fill:#2d3853;fill-rule:nonzero;"/><path d="M233.588,282.802c0.268,0.408 0.535,0.808 0.812,1.216c0.277,-0.388 0.554,-0.766 0.822,-1.154c-0.304,-0.368 -0.6,-0.747 -0.904,-1.126c-0.25,0.358 -0.491,0.706 -0.73,1.064" style="fill:#2d3853;fill-rule:nonzero;"/><path d="M233.588,282.802c-1.983,2.831 -2.418,6.154 -2.481,9.6c-0.085,4.755 -0.388,9.519 -0.185,14.252c0.018,0.368 0.009,0.879 0.009,1.216l1.689,0c-0.139,-7.933 -0.803,-16.143 1.78,-23.852c-0.277,-0.408 -0.544,-0.808 -0.812,-1.216" style="fill:#2d3853;fill-rule:nonzero;"/><path d="M221.564,140.64l4.3,0c-1.679,-0.388 -3.1,-0.337 -4.3,0" style="fill:#2d3853;fill-rule:nonzero;"/><path d="M215.43,140.67l5.544,0.164c0.186,-0.072 0.389,-0.143 0.591,-0.195l-6.135,0l0,0.031Z" style="fill:#2d3853;fill-rule:nonzero;"/><path d="M215.273,147.234c0.259,-0.01 0.525,0.021 0.775,0.102l0,0.215c0.009,0 0.009,-0.011 0.018,-0.03c0.637,-0.889 2.437,-5.562 4.392,-6.472c0.166,-0.082 0.343,-0.154 0.516,-0.215l-5.544,-0.164c-0.057,2.188 -0.111,4.376 -0.157,6.564" style="fill:#2d3853;fill-rule:nonzero;"/><path d="M215.641,147.285c-0.1,-0.01 -0.22,-0.03 -0.368,-0.051l0,0.185c0.636,0.081 0.748,0.132 0.775,0.132l0,-0.215c-0.037,0.051 0.055,0.021 -0.407,-0.051" style="fill:#2d3853;fill-rule:nonzero;"/><path d="M216.048,147.336l-0.407,-0.051c0.462,0.072 0.37,0.102 0.407,0.051" style="fill:#2d3853;fill-rule:nonzero;"/><path d="M215.641,147.285l0.407,0.051c-0.25,-0.081 -0.516,-0.112 -0.775,-0.102c0.148,0.021 0.268,0.041 0.368,0.051" style="fill:#2d3853;fill-rule:nonzero;"/><rect x="196.359" y="95.975" width="13.699" height="5.312" style="fill:#2d3853;"/><path d="M200.168,105.879c-0.009,0.01 -0.019,0.01 -0.028,0.031c-0.092,0.174 -0.147,0.367 -0.202,0.572c0.008,0.132 0.018,0.255 0.018,0.389l0.332,0l0,-1.003l-0.093,0c-0.009,0 -0.018,0.011 -0.027,0.011" style="fill:#2d3853;fill-rule:nonzero;"/><path d="M198.442,106.871l1.514,0c0,-0.134 -0.01,-0.257 -0.018,-0.389c0.055,-0.205 0.11,-0.398 0.202,-0.572c0.009,-0.021 0.019,-0.021 0.028,-0.031c0.009,0 0.018,-0.01 0.027,-0.01l-1.753,0l0,1.002Z" style="fill:#2d3853;fill-rule:nonzero;"/><path d="M184.952,246.302c-3.747,2.944 -7.695,5.572 -11.544,8.374c-7.804,5.684 -15.583,11.43 -23.407,17.094c-2.787,2.004 -5.74,3.762 -9.348,2.341c-1.956,-0.757 -3.571,-2.413 -4.309,-4.559c-1.162,-3.365 0.536,-5.532 2.787,-7.158c12.577,-9.09 25.162,-18.167 37.71,-27.287c1.366,-0.991 2.823,-1.207 4.355,-1.258c3.203,-0.081 5.26,1.79 6.284,4.918c1.052,3.169 -0.285,5.767 -2.528,7.535m-46.661,8.056c-2.316,1.749 -4.687,3.263 -7.631,3.048c-2.279,0.081 -4.309,-0.43 -5.489,-2.864c-1.292,-2.636 -0.416,-4.896 1.032,-7.084c1.791,-2.689 4.457,-4.152 6.856,-5.94c11.341,-8.425 22.764,-16.727 34.177,-25.039c2.621,-1.901 5.416,-3.342 8.655,-2.157c2.224,0.808 4.401,1.892 4.862,4.826c0.443,2.893 -1.476,4.192 -3.294,5.572c-13.074,9.856 -26.121,19.742 -39.168,29.638m-18.657,-12.023c-3.247,0.502 -6.247,0.032 -7.916,-3.547c-1.773,-3.804 0.563,-6.288 2.925,-8.138c7.509,-5.859 15.233,-11.379 22.79,-17.156c4.78,-3.639 9.863,-6.809 14.375,-10.868l0,0.011c2.705,-1.554 9.311,-7.218 12.171,-8.537c3.672,-1.688 6.726,-1.258 8.831,2.494c2.223,3.967 -0.407,6.318 -2.98,8.352c-14.478,11.442 -28.992,22.83 -43.497,34.219c-2.021,1.586 -4.217,2.792 -6.699,3.17m-8.959,-16.766c-1.385,1.043 -2.953,1.881 -4.54,2.443c-2.998,1.053 -5.988,0.859 -7.713,-2.484c-1.809,-3.517 -0.037,-6.369 2.473,-8.322c5.388,-4.213 10.989,-8.077 16.46,-12.156c12.328,-9.223 24.636,-18.475 36.926,-27.737c1.79,-1.351 3.517,-2.761 6.054,-2.833c2.739,0.153 5.185,1.463 6.237,4.703c1.042,3.2 -0.904,5.091 -3.007,6.676c-17.624,13.26 -35.239,26.51 -52.89,39.71m87.573,27.164c-0.978,-0.47 -0.71,-1.851 0,-2.638c-2.251,-1.124 -7.391,-2.842 -9.855,-4.079c1.468,-4.519 1.855,-9.048 -2.316,-12.177c-4.363,-3.281 -8.332,-1.604 -12.337,1.37c-8.783,6.534 -17.715,12.832 -26.582,19.231c-1.956,1.421 -3.911,2.71 -6.708,1.114c1.117,-2.25 3.174,-3.107 4.825,-4.354c10.898,-8.24 21.859,-16.389 32.757,-24.64c2.63,-1.994 5.877,-3.987 4.318,-8.444c-1.504,-4.315 -4.882,-5.859 -8.867,-5.88c-3.23,-0.01 -5.887,1.677 -8.461,3.6c-11.22,8.332 -22.45,16.643 -33.678,24.945c-0.748,0.552 -1.57,0.971 -2.391,1.482c-1.448,-2.423 0.25,-3.138 1.43,-4.069c13.389,-10.53 26.768,-21.071 40.175,-31.56c4.595,-3.599 5.785,-6.451 4.069,-10.418c-1.817,-4.192 -6.495,-5.879 -11.128,-4.018c-2.666,1.073 -9.79,7.034 -12.428,8.885c-5.749,4.13 -12.18,9.16 -17.864,13.352c-1.458,1.083 -2.74,2.637 -4.79,2.627c-0.626,-2.627 1.2,-3.21 2.539,-4.212c10.906,-8.21 21.83,-16.42 32.709,-24.691c5.269,-3.997 6.329,-7.177 3.996,-11.175c-2.511,-4.293 -7.806,-5.725 -12.236,-2.637c-7.649,5.337 -15.067,11.102 -22.596,16.675c-0.988,0.726 -1.836,1.81 -3.95,1.769c-0.48,-8.281 -1.586,-16.553 -1.217,-24.956c0.091,-2.209 1.678,-2.199 3.035,-2.148c13.057,0.46 26.897,-0.685 39.353,-1.584c1.338,-0.092 1.042,-0.471 1.753,-2.494c1.107,-3.129 1.107,-3.825 3.396,-7.137c1.31,-1.953 2.712,-0.45 4.19,-1.738c0.996,-1.595 1.235,-3.527 0.562,-5.501c-0.905,0.113 -0.748,0.165 -0.803,0.103c0.009,0.512 -0.027,0.961 -0.102,1.349c0.056,1.279 -0.802,2.526 -2.251,2.7c-0.877,0.173 -1.762,0.224 -2.657,0.133c-4.189,-1.401 -3.285,10.795 -7.843,10.795l-23.325,1.033c-3.378,0.01 -6.756,0 -10.132,0c-7.124,0.01 -7.114,0.01 -7.261,8.066c-0.019,0.941 0.322,2.065 -0.979,2.854c-5.868,-2.587 -12.069,-3.692 -18.463,-1.728c0,0.051 0.009,0.102 0.009,0.143c0.351,0.378 0.711,0.777 1.062,1.155c4.114,0.173 8.258,-0.255 12.345,0.716c4.301,1.001 6.597,3.946 7.031,8.73c0.121,1.35 0.037,2.731 0.258,4.06c0.941,5.715 -0.96,9.498 -5.629,12.33c-4.631,2.812 -8.829,6.502 -13.462,9.977c-1.309,-3.393 -0.239,-6.512 -0.95,-9.385c-0.48,0.011 -0.95,0.021 -1.43,0.032c-0.055,1.011 -0.25,2.044 -0.138,3.036c0.572,5.285 -0.276,9.559 -5.204,12.135c-3.183,1.677 -4.512,5.327 -4.281,9.436c0.701,1.247 1.559,2.772 2.26,4.008c6.265,3.937 11.977,0.267 17.531,-5.193c1.873,-1.841 3.94,-3.518 6.331,-4.345c1.577,-0.553 2.795,-3.242 5.387,-0.797c-4.271,3.24 -8.415,6.287 -12.466,9.467c-7.658,6.022 -7.363,11.674 0.814,16.552c3.339,0.378 6.504,-1.053 10.177,-1.677c-0.73,4.029 -4.282,6.421 -3.442,10.449c0.248,0.798 0.507,1.595 0.766,2.392c4.761,6.175 10.971,2.403 16.404,2.31c0.305,1.483 -0.257,1.893 -0.755,2.209c-3.369,2.116 -5.674,5.021 -4.244,9.518c1.42,4.468 4.594,6.278 8.931,6.472c1.052,0.052 2.076,0.174 3.101,0.337c1.116,-0.418 2.214,-0.827 3.33,-1.236c0.009,-0.042 0.028,-0.093 0.037,-0.144c-0.259,-0.113 -0.507,-0.224 -0.757,-0.347c4.596,-3.436 8.572,-6.441 12.595,-9.385c5.629,-4.111 11.266,-8.21 16.941,-12.249c8.258,-5.879 11.8,-5.909 17.715,-0.409c-0.037,-0.144 3.018,0 1.846,-0.102" style="fill:#2d3853;fill-rule:nonzero;"/><rect x="196.172" y="105.869" width="2.27" height="1.001" style="fill:#2d3853;"/><rect x="196.172" y="99.202" width="2.27" height="6.666" style="fill:#2d3853;"/><rect x="196.172" y="98.058" width="2.27" height="1.145" style="fill:#2d3853;"/><rect x="196.172" y="93.877" width="2.27" height="4.181" style="fill:#2d3853;"/><path d="M195.278,106.369c-0.011,0.174 -0.02,0.337 -0.02,0.5l0.915,0l0,-1.001l-1.062,0c0.075,0.153 0.13,0.327 0.167,0.501" style="fill:#2d3853;fill-rule:nonzero;"/><rect x="184.133" y="95.975" width="14.123" height="5.312" style="fill:#2d3853;"/><path d="M194.733,105.868l0,1.001l0.525,0c0,-0.163 0.009,-0.326 0.019,-0.5c-0.037,-0.174 -0.092,-0.348 -0.165,-0.501l-0.379,0Z" style="fill:#2d3853;fill-rule:nonzero;"/><path d="M194.733,105.868l0.379,0c-0.011,-0.03 -0.02,-0.051 -0.029,-0.072c-0.009,-0.01 -0.018,-0.019 -0.027,-0.03c-0.342,-0.144 -0.683,-0.276 -1.015,-0.419l-0.526,4.028c0,0.011 0,0.011 0.009,0.02c0.627,2.167 -0.471,3.426 -1.642,4.448c-0.009,0.01 -0.009,0.019 -0.009,0.03c-0.536,2.515 -1.246,4.959 -2.15,7.239c-0.01,0.021 0,0.04 0.018,0.061c0.684,0.501 1.293,1.411 1.809,2.78c0.009,0.021 0,0.042 -0.009,0.051c-1.182,1.013 -1.643,2.659 -1.643,4.786c0,4.232 -2.796,6.86 -5.822,8.22c-0.009,0.009 -0.018,0.009 -0.018,0.009l-11.598,0.42c-6.1,0.144 -11.904,1.227 -17.403,1.401c-0.019,0 -0.037,0.03 -0.037,0.051c0.037,1.37 0.037,1.411 -0.073,2.25c0,0.03 0.018,0.061 0.045,0.061c2.04,0.051 2.049,0.051 4.115,-0.052l15.345,-0.439c-0.24,-0.092 -0.498,-0.185 -0.756,-0.255l-4.337,0c1.698,-0.4 3.128,-0.339 4.337,0l6.099,0l0,0.102l1.863,-0.051c6.801,-0.154 10.076,-3.579 10.224,-11.011c0.018,-0.798 0.175,-1.596 0.257,-2.311c0.85,-0.287 1.266,-0.113 1.505,0.235c0.24,-6.768 1.495,-13.505 1.605,-20.294c0,-0.083 0,-0.174 0.009,-0.257l-0.525,0l0,-1.001Z" style="fill:#2d3853;fill-rule:nonzero;"/><path d="M174.452,140.712c0.111,0.051 0.211,0.091 0.313,0.142c1.956,0.921 3.756,5.594 4.383,6.482c0.268,-0.081 0.535,-0.112 0.803,-0.102c-0.055,-2.228 -0.101,-4.446 -0.157,-6.676l-5.342,0.154Z" style="fill:#2d3853;fill-rule:nonzero;"/><path d="M179.952,147.234c-0.269,-0.01 -0.535,0.021 -0.803,0.102c0.055,0.062 -0.102,0.011 0.803,-0.102" style="fill:#2d3853;fill-rule:nonzero;"/><path d="M174.452,140.712l5.342,-0.154l0,-0.101l-6.099,0c0.259,0.071 0.517,0.162 0.757,0.255" style="fill:#2d3853;fill-rule:nonzero;"/><path d="M169.359,140.456l4.337,0c-1.209,-0.337 -2.639,-0.399 -4.337,0" style="fill:#2d3853;fill-rule:nonzero;"/><path d="M164.09,292.514c-0.055,-3.445 -0.489,-6.768 -2.482,-9.601c-0.268,0.409 -0.535,0.808 -0.803,1.217c2.676,7.984 1.855,16.245 1.753,24.446c0.582,0.163 1.182,0.306 1.782,0.429c-0.084,-0.643 -0.102,-1.391 -0.066,-2.239c0.203,-4.733 -0.102,-9.498 -0.184,-14.252" style="fill:#2d3853;fill-rule:nonzero;"/><path d="M159.975,282.976c0.277,0.388 0.554,0.767 0.83,1.156c0.268,-0.41 0.536,-0.808 0.803,-1.217c-0.239,-0.359 -0.48,-0.706 -0.719,-1.063c-0.305,0.378 -0.609,0.746 -0.914,1.124" style="fill:#2d3853;fill-rule:nonzero;"/><path d="M150.065,275.298c-0.064,0.02 -0.13,0.051 -0.194,0.071c-0.259,0.971 -0.175,0.675 -0.461,1.759c-0.96,-0.184 -1.91,-0.369 -2.869,-0.522c4.89,0.778 9.42,2.853 13.434,6.37c0.305,-0.379 0.609,-0.746 0.913,-1.124c-2.49,-3.855 -6.579,-4.673 -10.823,-6.554" style="fill:#2d3853;fill-rule:nonzero;"/><path d="M149.41,277.128c0.286,-1.085 0.202,-0.788 0.461,-1.759c-1.116,0.409 -2.214,0.818 -3.33,1.236c0.959,0.154 1.909,0.339 2.869,0.523" style="fill:#2d3853;fill-rule:nonzero;"/><path d="M106.146,172.681c-0.037,-0.04 -0.066,-0.071 -0.102,-0.112c-1.328,1.124 -0.96,2.78 -0.951,4.243c0.046,7.82 0.175,15.653 0.277,23.484c0.48,-0.011 0.951,-0.021 1.43,-0.03c0.139,-8.804 0.277,-17.616 0.407,-26.429c-0.323,-0.011 -0.647,-0.031 -0.97,-0.052c-0.055,-0.664 -0.046,-0.552 -0.091,-1.104" style="fill:#2d3853;fill-rule:nonzero;"/><path d="M106.237,173.785c0.323,0.021 0.646,0.04 0.969,0.051c-0.351,-0.378 -0.71,-0.777 -1.06,-1.155c0.045,0.552 0.036,0.44 0.091,1.104" style="fill:#413f3d;fill-rule:nonzero;"/></g><path d="M232.285,307.597l-1.329,0.205c-0.045,0.004 -0.038,0.064 -0.083,0.068l-67.575,0c-0.4,0 -0.724,0.36 -0.724,0.803c0,0.444 0.324,0.802 0.724,0.802l68.601,0c0.402,0 0.727,-0.361 0.725,-0.806l-0.004,-0.911l-0.335,-0.161Z" style="fill:#2d3853;fill-rule:nonzero;"/><path d="M161.691,140.449l10.74,11.379" style="fill:none;stroke:#2d3853;stroke-width:2.08px;"/><path d="M168.736,147.939l6.011,-7.911" style="fill:none;stroke:#2d3853;stroke-width:2.08px;"/><path d="M230.231,140.449l-8.97,12.068" style="fill:none;stroke:#2d3853;stroke-width:2.08px;"/><path d="M224.501,148.157l-6.47,-6.401" style="fill:none;stroke:#2d3853;stroke-width:2.08px;"/><path d="M189.656,133.37l-31.435,1.874l0.072,3.405" style="fill:none;stroke:#2d3853;stroke-width:2.08px;"/><path d="M179.102,134.031l0,3.408" style="fill:none;stroke:#2d3853;stroke-width:2.08px;"/><path d="M171.593,134.222l0,4.427" style="fill:none;stroke:#2d3853;stroke-width:2.08px;"/><path d="M167.813,134.506l0,3.883" style="fill:none;stroke:#2d3853;stroke-width:2.08px;"/><path d="M164.514,135.052l0,4.427" style="fill:none;stroke:#2d3853;stroke-width:2.08px;"/><path d="M160.957,135.244l0,4.428" style="fill:none;stroke:#2d3853;stroke-width:2.08px;"/><path d="M204.833,133.699l32.765,1.758l0,3.357" style="fill:none;stroke:#2d3853;stroke-width:2.08px;"/><path d="M211.894,137.757l-0.275,-3.575" style="fill:none;stroke:#2d3853;stroke-width:2.08px;"/><path d="M216.096,134.387l0,3.407" style="fill:none;stroke:#2d3853;stroke-width:2.08px;"/><path d="M223.606,134.578l0,4.427" style="fill:none;stroke:#2d3853;stroke-width:2.08px;"/><path d="M227.387,134.861l0,3.884" style="fill:none;stroke:#2d3853;stroke-width:2.08px;"/><path d="M230.686,135.005l0,4.427" style="fill:none;stroke:#2d3853;stroke-width:2.08px;"/><path d="M234.243,135.226l0,4.427" style="fill:none;stroke:#2d3853;stroke-width:2.08px;"/><path d="M189.442,108.918l3.743,0l4.324,-3.771l-12.15,0l4.083,3.771Z" style="fill:#2d3853;fill-rule:nonzero;stroke:#2d3853;stroke-width:2.08px;"/><path d="M172.615,114.155l5.602,0" style="fill:none;stroke:#2d3853;stroke-width:2.08px;"/><path d="M175.416,108.965c-1.388,0 -2.513,1.162 -2.513,2.596c0,1.432 1.125,2.594 2.513,2.594c1.388,0 2.514,-1.162 2.514,-2.594c0,-1.434 -1.126,-2.596 -2.514,-2.596Z" style="fill:none;stroke:#2d3853;stroke-width:2.08px;"/><path d="M175.416,114.155l-1.341,23.302" style="fill:none;stroke:#2d3853;stroke-width:2.08px;"/><path d="M175.416,114.155l1.697,23.117" style="fill:none;stroke:#2d3853;stroke-width:2.08px;"/><path d="M186.613,105.194l-8.834,7.07" style="fill:none;stroke:#2d3853;stroke-width:2.08px;"/><path d="M222.675,114.155l-5.602,0" style="fill:none;stroke:#2d3853;stroke-width:2.08px;"/><path d="M219.875,108.965c-1.388,0 -2.513,1.162 -2.513,2.596c0,1.432 1.125,2.594 2.513,2.594c1.388,0 2.514,-1.162 2.514,-2.594c0,-1.434 -1.126,-2.596 -2.514,-2.596Z" style="fill:none;stroke:#2d3853;stroke-width:2.08px;"/><path d="M219.875,114.155l1.391,23.641" style="fill:none;stroke:#2d3853;stroke-width:2.08px;"/><path d="M219.875,114.699l-1.696,23.116" style="fill:none;stroke:#2d3853;stroke-width:2.08px;"/><path d="M208.587,105.194l8.946,7.101" style="fill:none;stroke:#2d3853;stroke-width:2.08px;"/><rect x="191.057" y="79.974" width="12.5" height="25.806" style="fill:#2d3853;"/><rect x="195.223" y="68.281" width="4.167" height="37.5" style="fill:#2d3853;"/><path d="M188.134,130.228c-0.84,0 -1.521,0.704 -1.521,1.571c0,0.868 0.681,1.571 1.521,1.571c0.841,0 1.522,-0.703 1.522,-1.571c0,-0.867 -0.681,-1.571 -1.522,-1.571Z" style="fill:none;stroke:#2d3853;stroke-width:2.08px;"/><path d="M207.065,130.228c-0.84,0 -1.521,0.704 -1.521,1.571c0,0.868 0.681,1.571 1.521,1.571c0.841,0 1.522,-0.703 1.522,-1.571c0,-0.867 -0.681,-1.571 -1.522,-1.571Z" style="fill:none;stroke:#2d3853;stroke-width:2.08px;"/><path d="M187.792,130.228l5.733,-21.387" style="fill:none;stroke:#2d3853;stroke-width:2.08px;"/><path d="M201.591,108.841l5.474,21.387" style="fill:none;stroke:#2d3853;stroke-width:2.08px;"/><path d="M225.745,162.423l8.498,-2.598l-8.152,0l-0.346,2.598Z" style="fill:#2d3853;fill-rule:nonzero;stroke:#2d3853;stroke-width:2.08px;"/><path d="M225.189,159.825l9.054,0l0,3.705" style="fill:none;stroke:#2d3853;stroke-width:2.08px;"/><path d="M224.314,157.451l8.733,0.237" style="fill:none;stroke:#2d3853;stroke-width:2.08px;"/><path d="M232.85,157.652l0,2.301" style="fill:none;stroke:#2d3853;stroke-width:2.08px;"/><path d="M230.814,157.652l0,2.301" style="fill:none;stroke:#2d3853;stroke-width:2.08px;"/><path d="M229.018,157.78l0,2.301" style="fill:none;stroke:#2d3853;stroke-width:2.08px;"/><path d="M227.387,157.524l0,2.301" style="fill:none;stroke:#2d3853;stroke-width:2.08px;"/><path d="M161.691,159.176l8.498,2.599l-0.345,-2.599l-8.153,0Z" style="fill:#2d3853;fill-rule:nonzero;stroke:#2d3853;stroke-width:2.08px;"/><path d="M169.619,159.176l-7.807,0l0,3.706" style="fill:none;stroke:#2d3853;stroke-width:2.08px;"/><path d="M171.684,157.013l-9.245,0.207" style="fill:none;stroke:#2d3853;stroke-width:2.08px;"/><path d="M162.2,157.004l0,2.3" style="fill:none;stroke:#2d3853;stroke-width:2.08px;"/><path d="M169.619,156.885l0,2.3" style="fill:none;stroke:#2d3853;stroke-width:2.08px;"/><path d="M167.813,157.004l0,2.3" style="fill:none;stroke:#2d3853;stroke-width:2.08px;"/><path d="M165.94,157.004l0,2.3" style="fill:none;stroke:#2d3853;stroke-width:2.08px;"/><path d="M163.763,157.396l0,2.301" style="fill:none;stroke:#2d3853;stroke-width:2.08px;"/><path d="M196.896,105.225l-3.596,3.616" style="fill:none;stroke:#2d3853;stroke-width:2.08px;"/><path d="M201.006,108.918l3.743,0l4.082,-3.771l-12.149,0l4.324,3.771Z" style="fill:#2d3853;fill-rule:nonzero;stroke:#2d3853;stroke-width:2.08px;"/><path d="M219.875,134.506l0,2.953" style="fill:none;stroke:#2d3853;stroke-width:2.08px;"/><path d="M175.416,134.138l0,3.658" style="fill:none;stroke:#2d3853;stroke-width:2.08px;"/><path d="M183.097,133.761l0,3.511" style="fill:none;stroke:#2d3853;stroke-width:2.08px;"/><g><path d="M202.282,270.028l-6.547,27.132l-4.629,0l-4.879,-19.957l-4.431,19.957l-4.54,0l-6.691,-27.132l4.682,0l4.737,19.778l4.413,-19.778l4.466,0l4.881,19.778l4.645,-19.778l3.893,0Z" style="fill:#2d3853;fill-rule:nonzero;"/><path d="M221.116,297.16l-4.663,0l-3.804,-11.151l-6.207,0l0,11.151l-4.413,0l0,-27.132l10.62,0c2.954,0 5.125,0.738 6.512,2.215c1.387,1.479 2.081,3.39 2.081,5.735c0,3.486 -1.471,5.884 -4.413,7.195l4.287,11.987Zm-14.674,-15.068l5.489,0c1.591,0 2.774,-0.371 3.552,-1.112c0.777,-0.742 1.167,-1.763 1.167,-3.061c0,-1.194 -0.384,-2.157 -1.148,-2.893c-0.766,-0.736 -1.837,-1.103 -3.211,-1.103l-5.849,0l0,8.169Z" style="fill:#2d3853;fill-rule:nonzero;"/></g><path d="M75.569,106.073c0.538,0.224 1.396,0.559 2.571,1.003c1.175,0.445 2.026,0.765 2.55,0.963c1.167,0.422 1.989,0.729 2.465,0.921c0.356,0.146 0.896,0.356 1.623,0.63c0.786,0.287 1.447,0.543 1.986,0.765l0.033,-0.044c-0.671,-0.888 -1.222,-1.629 -1.653,-2.222c-1.2,-1.714 -2.255,-3.168 -3.162,-4.36c-0.322,-0.418 -0.585,-0.776 -0.791,-1.074c-0.414,-0.613 -0.697,-1.071 -0.847,-1.372l-0.856,1.221l-0.722,-0.551l2.296,-3.006l0.541,0.413c-0.227,0.39 -0.351,0.721 -0.37,0.995c-0.019,0.275 0.073,0.602 0.275,0.984c0.202,0.381 0.576,0.952 1.121,1.711l1.917,2.66c2.055,2.819 3.63,5.029 4.727,6.632l-0.339,0.444l-10.891,-3.933l6.787,9.307l-0.327,0.429l-10.752,-4.013l-0.787,-0.296c-1.001,-0.389 -1.641,-0.651 -1.918,-0.785l-0.602,0.854l-0.722,-0.551l2.748,-3.599l0.541,0.413c-0.287,0.422 -0.431,0.765 -0.433,1.029c-0.003,0.264 0.138,0.504 0.422,0.722c0.262,0.2 0.618,0.393 1.065,0.578c0.868,0.381 1.87,0.772 3.003,1.168c0.202,0.076 0.441,0.165 0.719,0.267c0.276,0.103 0.597,0.221 0.959,0.358c0.276,0.116 0.583,0.235 0.924,0.354c0.341,0.12 0.587,0.207 0.739,0.258c0.74,0.254 1.324,0.465 1.749,0.634l0.023,-0.03c-0.593,-0.765 -1.161,-1.519 -1.703,-2.26c-0.997,-1.324 -2.038,-2.737 -3.125,-4.239c-1.139,-1.571 -1.853,-2.54 -2.146,-2.903l0.362,-0.475Z" style="fill:#2e3853;fill-rule:nonzero;"/><path d="M85.441,94.524c1.227,-1.251 2.347,-1.956 3.36,-2.114c1.015,-0.159 1.951,0.169 2.81,0.985c0.696,0.645 1.139,1.418 1.329,2.317c0.189,0.899 -0.056,1.916 -0.736,3.052c0.275,-0.03 0.562,-0.023 0.861,0.022c0.3,0.044 0.742,0.139 1.326,0.283l2.473,0.602c0.538,0.134 0.961,0.223 1.269,0.268c0.309,0.045 0.608,0.03 0.898,-0.046c0.291,-0.076 0.565,-0.248 0.821,-0.519l0.494,0.469l-1.617,1.702c-0.46,0.025 -0.893,0.005 -1.295,-0.06c-0.402,-0.066 -0.905,-0.172 -1.508,-0.316l-2.461,-0.617l-0.481,-0.121c-0.406,-0.113 -0.746,-0.195 -1.018,-0.248c-0.272,-0.054 -0.533,-0.079 -0.782,-0.076c-0.067,0.091 -0.182,0.222 -0.345,0.393c-0.23,0.243 -0.406,0.418 -0.528,0.525l2.904,2.759c0.528,0.501 0.909,0.889 1.143,1.163l0.864,-1.029l0.659,0.626l-2.887,3.039l-0.494,-0.469c0.289,-0.326 0.424,-0.626 0.402,-0.904c-0.021,-0.277 -0.126,-0.522 -0.314,-0.734c-0.187,-0.212 -0.535,-0.56 -1.044,-1.044l-6.464,-6.141c-0.419,-0.398 -0.766,-0.753 -1.039,-1.063l-0.864,1.029l-0.659,-0.626c0.87,-0.955 1.532,-1.672 1.985,-2.15c0.41,-0.432 0.724,-0.75 0.938,-0.957Zm0.518,0.594c-0.299,0.315 -0.443,0.606 -0.432,0.874c0.012,0.268 0.108,0.506 0.29,0.713c0.183,0.208 0.529,0.554 1.037,1.036l2.874,2.73c0.276,-0.252 0.474,-0.439 0.595,-0.566c1.744,-1.836 1.813,-3.518 0.208,-5.043c-0.759,-0.721 -1.516,-1.063 -2.272,-1.027c-0.755,0.036 -1.522,0.464 -2.3,1.283Z" style="fill:#2e3853;fill-rule:nonzero;"/><path d="M107.317,76.035c-0.358,0.267 -0.531,0.578 -0.52,0.93c0.01,0.352 0.226,0.792 0.646,1.319l0.273,0.311l6.238,7.038c0.216,0.231 0.491,0.557 0.826,0.977l1.024,-0.898l0.567,0.71l-3.261,2.603l-0.425,-0.532c0.37,-0.312 0.53,-0.639 0.482,-0.979c-0.049,-0.34 -0.27,-0.757 -0.665,-1.251c-0.163,-0.205 -0.293,-0.356 -0.388,-0.456l-5.865,-6.57c0.024,0.069 0.053,0.16 0.088,0.273c0.036,0.114 0.08,0.245 0.135,0.394l3.884,11.584l-0.437,0.349l-2.425,-1.366c-2.188,-1.229 -3.905,-2.205 -5.149,-2.928c-1.244,-0.723 -2.525,-1.511 -3.84,-2.362l0.552,0.722c2.427,3.22 4.169,5.509 5.222,6.87c0.128,0.161 0.218,0.284 0.269,0.367c0.292,0.365 0.548,0.715 0.768,1.051l1.04,-0.937l0.567,0.71l-2.781,2.219l-0.425,-0.532c0.399,-0.335 0.563,-0.673 0.49,-1.012c-0.071,-0.339 -0.295,-0.763 -0.671,-1.274l-6.568,-8.886l-1.009,0.886l-0.553,-0.694l2.227,-1.778l6.023,3.485c2.212,1.298 3.897,2.276 5.059,2.935l0.029,-0.024c-0.141,-0.416 -0.447,-1.307 -0.919,-2.673c-0.455,-1.328 -0.939,-2.8 -1.45,-4.415c-0.597,-1.883 -1.143,-3.543 -1.637,-4.979l2.155,-1.72l0.424,0.533Z" style="fill:#2e3853;fill-rule:nonzero;"/><path d="M123.533,78.252c0.316,0.24 0.633,0.515 0.95,0.825c0.318,0.312 0.546,0.586 0.684,0.824l1.021,-0.754l0.491,0.764l-3.589,2.306l-0.368,-0.573c0.608,-0.408 0.739,-0.884 0.389,-1.428c-0.141,-0.22 -0.368,-0.458 -0.681,-0.715l-1.597,-1.281l-4.009,2.722c0.15,0.575 0.364,1.313 0.646,2.211c0.14,0.449 0.267,0.932 0.377,1.449l1.179,-0.854l0.491,0.764l-2.931,1.883l-0.368,-0.573c0.261,-0.168 0.427,-0.37 0.497,-0.603c0.072,-0.234 0.088,-0.49 0.05,-0.767c-0.038,-0.278 -0.126,-0.675 -0.266,-1.191l-0.155,-0.587l-3.031,-11.816l0.377,-0.242l9.843,7.636Zm-8.684,-4.798l0.601,2.385l0.85,3.183l0.28,1.022l3.621,-2.325l-3.244,-2.603l-2.077,-1.682l-0.031,0.02Z" style="fill:#2e3853;fill-rule:nonzero;"/><path d="M124.144,64.911c1.561,-0.795 2.847,-1.106 3.859,-0.934c1.012,0.172 1.795,0.781 2.349,1.826c0.455,0.833 0.63,1.707 0.523,2.62c-0.106,0.913 -0.663,1.799 -1.668,2.659c0.27,0.059 0.54,0.157 0.81,0.296c0.27,0.136 0.659,0.366 1.166,0.689l2.154,1.359c0.467,0.297 0.84,0.516 1.117,0.656c0.279,0.141 0.567,0.222 0.866,0.242c0.3,0.021 0.614,-0.056 0.943,-0.23l0.319,0.602l-2.074,1.099c-0.444,-0.123 -0.847,-0.279 -1.208,-0.469c-0.36,-0.191 -0.803,-0.45 -1.33,-0.779l-2.137,-1.368l-0.417,-0.269c-0.349,-0.235 -0.645,-0.421 -0.886,-0.558c-0.241,-0.137 -0.48,-0.244 -0.718,-0.321c-0.092,0.065 -0.243,0.152 -0.451,0.263c-0.296,0.157 -0.518,0.267 -0.668,0.33l1.876,3.539c0.341,0.644 0.579,1.134 0.713,1.467l1.146,-0.701l0.426,0.802l-3.704,1.963l-0.319,-0.602c0.378,-0.216 0.601,-0.459 0.669,-0.728c0.068,-0.27 0.046,-0.535 -0.063,-0.795c-0.111,-0.261 -0.33,-0.703 -0.659,-1.323l-4.174,-7.878c-0.271,-0.51 -0.486,-0.957 -0.647,-1.339l-1.147,0.701l-0.425,-0.803c1.128,-0.629 1.984,-1.097 2.565,-1.405c0.527,-0.28 0.925,-0.483 1.194,-0.611Zm0.302,0.729c-0.383,0.203 -0.613,0.433 -0.687,0.691c-0.075,0.257 -0.059,0.514 0.048,0.768c0.107,0.255 0.325,0.693 0.654,1.313l1.855,3.501c0.343,-0.15 0.59,-0.266 0.743,-0.347c2.239,-1.186 2.84,-2.758 1.803,-4.716c-0.49,-0.924 -1.099,-1.488 -1.826,-1.695c-0.728,-0.206 -1.591,-0.044 -2.59,0.485Z" style="fill:#2e3853;fill-rule:nonzero;"/><path d="M135.539,60.173c-0.391,0.19 -0.63,0.418 -0.714,0.682c-0.085,0.265 -0.082,0.531 0.012,0.799c0.093,0.268 0.284,0.721 0.572,1.361l3.599,7.999c0.299,0.666 0.505,1.169 0.617,1.51l1.19,-0.625l0.372,0.828l-3.822,1.72l-0.279,-0.621c0.391,-0.192 0.629,-0.419 0.714,-0.684c0.085,-0.265 0.081,-0.53 -0.012,-0.797c-0.093,-0.268 -0.283,-0.722 -0.571,-1.362l-3.659,-8.132c-0.237,-0.526 -0.424,-0.986 -0.559,-1.378l-1.19,0.626l-0.372,-0.829l3.822,-1.719l0.28,0.622Z" style="fill:#2e3853;fill-rule:nonzero;"/><path d="M149.718,54.744c-0.344,0.14 -0.577,0.309 -0.696,0.506c-0.121,0.197 -0.161,0.421 -0.123,0.671c0.037,0.25 0.127,0.569 0.268,0.957l0.247,0.679l3.92,10.873l-0.84,0.306l-11.713,-8.542l-0.018,0.006l3.074,8.283c0.316,0.866 0.537,1.51 0.665,1.933l1.232,-0.537l0.311,0.854l-3.204,1.166l-0.233,-0.64c0.467,-0.17 0.722,-0.431 0.765,-0.785c0.044,-0.352 -0.012,-0.741 -0.168,-1.168l-3.851,-10.635l-1.145,0.505l-0.311,-0.854l2.083,-0.758l11.482,8.341l0.018,-0.007l-3.218,-8.889c-0.197,-0.543 -0.349,-1.015 -0.455,-1.416l-1.232,0.537l-0.311,-0.854l3.22,-1.172l0.233,0.64Z" style="fill:#2e3853;fill-rule:nonzero;"/><path d="M161.908,54.519l-0.594,0.156c-0.286,-1.091 -0.695,-1.781 -1.225,-2.069c-0.532,-0.287 -1.179,-0.317 -1.94,-0.09l-1.539,0.447c-0.429,0.126 -0.718,0.297 -0.867,0.515c-0.148,0.217 -0.207,0.481 -0.177,0.793c0.03,0.313 0.129,0.788 0.296,1.427l0.837,3.194l3.393,-0.868l-0.575,-1.684l0.792,-0.207l1.098,4.193l-0.594,0.155c-0.129,-0.491 -0.282,-0.854 -0.458,-1.085c-0.176,-0.231 -0.386,-0.361 -0.631,-0.389c-0.245,-0.029 -0.566,0.009 -0.962,0.113l-0.554,0.167l-1.3,0.404l1.198,4.572c0.181,0.693 0.3,1.216 0.354,1.572l3.426,-0.962c0.838,-0.233 1.418,-0.638 1.743,-1.214c0.324,-0.575 0.338,-1.428 0.042,-2.56l0.612,-0.161l0.912,3.922l-9.299,2.436l-0.172,-0.659c0.418,-0.123 0.69,-0.309 0.818,-0.556c0.128,-0.247 0.167,-0.509 0.12,-0.788c-0.048,-0.28 -0.16,-0.759 -0.338,-1.438l-2.259,-8.626c-0.146,-0.559 -0.255,-1.042 -0.323,-1.451l-1.277,0.419l-0.229,-0.877l8.667,-2.271l1.005,3.47Z" style="fill:#2e3853;fill-rule:nonzero;"/><path d="M173.292,48.441c0.554,-0.079 1.122,-0.081 1.704,-0.004c0.581,0.077 1.132,0.273 1.654,0.589l-0.199,-0.869l0.94,-0.134l0.641,4.496l-0.664,0.094c-0.215,-1.067 -0.655,-1.932 -1.32,-2.595c-0.666,-0.663 -1.502,-0.923 -2.51,-0.779c-0.738,0.105 -1.282,0.416 -1.636,0.931c-0.353,0.517 -0.481,1.115 -0.384,1.797c0.078,0.544 0.286,0.994 0.625,1.348c0.339,0.356 0.73,0.633 1.172,0.834c0.443,0.201 1.06,0.441 1.853,0.716c0.896,0.304 1.623,0.59 2.182,0.858c0.559,0.267 1.056,0.652 1.49,1.153c0.435,0.5 0.71,1.153 0.825,1.956c0.109,0.764 0.035,1.462 -0.219,2.097c-0.255,0.633 -0.684,1.16 -1.289,1.58c-0.605,0.419 -1.357,0.692 -2.255,0.82c-0.578,0.083 -1.171,0.077 -1.78,-0.017c-0.609,-0.094 -1.16,-0.28 -1.651,-0.557l0.217,0.866l-0.958,0.136l-0.731,-4.336l0.719,-0.102c0.229,1.162 0.719,2.012 1.474,2.552c0.754,0.539 1.641,0.735 2.662,0.59c0.75,-0.107 1.348,-0.425 1.793,-0.954c0.446,-0.528 0.611,-1.188 0.499,-1.979c-0.084,-0.585 -0.3,-1.065 -0.647,-1.439c-0.348,-0.375 -0.755,-0.672 -1.219,-0.891c-0.463,-0.218 -1.084,-0.459 -1.862,-0.725c-0.886,-0.317 -1.595,-0.606 -2.127,-0.864c-0.533,-0.258 -1.009,-0.632 -1.43,-1.121c-0.421,-0.488 -0.687,-1.128 -0.8,-1.918c-0.077,-0.545 -0.042,-1.106 0.108,-1.683c0.15,-0.578 0.478,-1.098 0.983,-1.558c0.505,-0.461 1.219,-0.757 2.14,-0.888Z" style="fill:#2e3853;fill-rule:nonzero;"/><path d="M190.117,50.835l-0.614,0.038c-0.07,-1.126 -0.338,-1.882 -0.804,-2.265c-0.465,-0.385 -1.094,-0.539 -1.886,-0.462l-1.596,0.141c-0.446,0.042 -0.761,0.155 -0.95,0.338c-0.187,0.185 -0.296,0.433 -0.327,0.745c-0.03,0.312 -0.024,0.798 0.017,1.457l0.206,3.296l3.497,-0.198l-0.242,-1.764l0.819,-0.051l0.27,4.327l-0.613,0.039c-0.032,-0.509 -0.112,-0.893 -0.24,-1.155c-0.129,-0.26 -0.311,-0.428 -0.545,-0.503c-0.235,-0.075 -0.557,-0.1 -0.967,-0.074l-0.574,0.057l-1.354,0.146l0.295,4.717c0.045,0.715 0.059,1.251 0.045,1.611l3.547,-0.283c0.867,-0.069 1.515,-0.354 1.943,-0.857c0.43,-0.502 0.608,-1.337 0.535,-2.504l0.632,-0.04l0.139,4.024l-9.593,0.599l-0.042,-0.679c0.432,-0.041 0.735,-0.17 0.908,-0.387c0.173,-0.218 0.264,-0.469 0.271,-0.752c0.007,-0.283 -0.012,-0.774 -0.055,-1.475l-0.556,-8.9c-0.036,-0.576 -0.048,-1.072 -0.036,-1.487l-1.334,0.167l-0.057,-0.906l8.943,-0.559l0.318,3.599Z" style="fill:#2e3853;fill-rule:nonzero;"/><path d="M197.613,47.199c1.75,0.062 3.026,0.414 3.826,1.056c0.802,0.642 1.191,1.554 1.167,2.737c-0.007,0.95 -0.278,1.799 -0.814,2.545c-0.537,0.746 -1.453,1.251 -2.75,1.515c0.208,0.182 0.396,0.4 0.564,0.65c0.17,0.252 0.398,0.641 0.685,1.169l1.223,2.234c0.264,0.486 0.484,0.859 0.658,1.118c0.175,0.258 0.388,0.469 0.64,0.632c0.252,0.163 0.564,0.248 0.936,0.255l-0.013,0.681l-2.347,-0.046c-0.329,-0.323 -0.605,-0.656 -0.829,-0.997c-0.222,-0.342 -0.483,-0.784 -0.783,-1.327l-1.204,-2.232l-0.235,-0.439c-0.191,-0.375 -0.359,-0.681 -0.503,-0.918c-0.144,-0.237 -0.302,-0.445 -0.472,-0.628c-0.112,0.011 -0.287,0.015 -0.523,0.011c-0.335,-0.007 -0.582,-0.02 -0.743,-0.036l-0.079,4.003c-0.015,0.729 -0.044,1.273 -0.089,1.63l1.343,-0.057l-0.018,0.908l-4.191,-0.083l0.014,-0.68c0.435,-0.005 0.747,-0.11 0.938,-0.311c0.19,-0.203 0.3,-0.446 0.33,-0.727c0.031,-0.282 0.053,-0.773 0.067,-1.475l0.176,-8.915c0.011,-0.578 0.04,-1.073 0.085,-1.485l-1.343,0.056l0.018,-0.907c1.292,-0.002 2.268,0.003 2.926,0.016c0.595,0.011 1.042,0.027 1.34,0.047Zm-0.091,0.782c-0.434,-0.008 -0.746,0.083 -0.936,0.271c-0.19,0.188 -0.301,0.42 -0.331,0.696c-0.03,0.273 -0.052,0.762 -0.065,1.464l-0.078,3.962c0.372,0.035 0.644,0.053 0.818,0.057c2.533,0.05 3.821,-1.032 3.865,-3.247c0.021,-1.046 -0.238,-1.835 -0.773,-2.369c-0.536,-0.533 -1.37,-0.811 -2.5,-0.834Z" style="fill:#2e3853;fill-rule:nonzero;"/><path d="M217.195,49.354c-0.546,-0.029 -0.979,0.085 -1.3,0.342c-0.319,0.258 -0.636,0.744 -0.947,1.458l-5.144,11.481l-0.519,-0.054l-3.072,-11.359c-0.323,-1.21 -0.492,-2.167 -0.507,-2.874l-1.041,-0.067l0.093,-0.903l4.3,0.447l-0.071,0.677l-0.02,0.018c-0.412,-0.015 -0.721,0.054 -0.93,0.204c-0.209,0.152 -0.331,0.391 -0.366,0.72c-0.032,0.315 0.014,0.714 0.138,1.197l0.346,1.364c0.088,0.356 0.223,0.895 0.404,1.62c0.179,0.723 0.352,1.385 0.514,1.982l0.352,1.302c0.356,1.269 0.601,2.208 0.738,2.817l0.036,0.004l0.914,-2.126l0.318,-0.714l2.157,-4.902l0.562,-1.269c0.311,-0.715 0.543,-1.203 0.695,-1.464l-1.435,-0.066l0.094,-0.903l3.761,0.391l-0.07,0.677Z" style="fill:#2e3853;fill-rule:nonzero;"/><path d="M222.703,50.394c-0.43,-0.061 -0.756,-0.004 -0.974,0.167c-0.217,0.172 -0.363,0.395 -0.435,0.67c-0.072,0.274 -0.168,0.756 -0.287,1.448l-1.48,8.646c-0.123,0.719 -0.233,1.252 -0.33,1.598l1.336,0.146l-0.153,0.894l-4.132,-0.708l0.115,-0.671c0.432,0.061 0.756,0.004 0.974,-0.167c0.219,-0.172 0.364,-0.396 0.436,-0.67c0.072,-0.274 0.168,-0.756 0.286,-1.448l1.505,-8.789c0.098,-0.57 0.199,-1.055 0.306,-1.456l-1.336,-0.145l0.153,-0.894l4.131,0.708l-0.115,0.671Z" style="fill:#2e3853;fill-rule:nonzero;"/><path d="M231.618,51.305c1.327,0.321 2.447,1.024 3.361,2.109l0.171,-1.105l0.978,0.236l-1.127,4.655l-0.653,-0.158c0.181,-1.273 0.022,-2.342 -0.478,-3.207c-0.499,-0.864 -1.275,-1.423 -2.324,-1.678c-0.858,-0.207 -1.704,-0.133 -2.537,0.225c-0.834,0.357 -1.575,0.974 -2.222,1.85c-0.647,0.878 -1.126,1.957 -1.437,3.242c-0.298,1.229 -0.346,2.382 -0.147,3.457c0.2,1.076 0.602,1.972 1.206,2.693c0.605,0.719 1.355,1.187 2.248,1.404c0.808,0.196 1.635,0.184 2.481,-0.035c0.846,-0.22 1.599,-0.64 2.26,-1.259l0.368,0.536c-0.962,0.914 -1.948,1.478 -2.959,1.693c-1.01,0.215 -1.968,0.213 -2.874,-0.006c-1.182,-0.287 -2.165,-0.857 -2.949,-1.713c-0.783,-0.854 -1.306,-1.887 -1.569,-3.098c-0.261,-1.211 -0.232,-2.477 0.089,-3.801c0.317,-1.311 0.853,-2.483 1.608,-3.519c0.756,-1.034 1.694,-1.794 2.816,-2.28c1.12,-0.486 2.349,-0.566 3.69,-0.241Z" style="fill:#2e3853;fill-rule:nonzero;"/><path d="M246.373,59.914l-0.582,-0.197c0.362,-1.07 0.4,-1.87 0.114,-2.403c-0.284,-0.532 -0.808,-0.912 -1.57,-1.141l-1.531,-0.475c-0.428,-0.129 -0.764,-0.145 -1.007,-0.045c-0.242,0.099 -0.438,0.286 -0.584,0.564c-0.146,0.278 -0.325,0.729 -0.537,1.356l-1.058,3.127l3.311,1.142l0.445,-1.723l0.776,0.263l-1.389,4.105l-0.582,-0.196c0.163,-0.483 0.235,-0.869 0.215,-1.159c-0.02,-0.289 -0.125,-0.514 -0.313,-0.673c-0.189,-0.157 -0.478,-0.302 -0.867,-0.434l-0.552,-0.166l-1.309,-0.376l-1.515,4.477c-0.229,0.677 -0.419,1.18 -0.568,1.508l3.39,1.08c0.828,0.267 1.536,0.248 2.122,-0.055c0.589,-0.303 1.07,-1.008 1.444,-2.115l0.599,0.203l-1.394,3.777l-9.105,-3.08l0.218,-0.645c0.416,0.125 0.745,0.12 0.987,-0.016c0.243,-0.135 0.422,-0.333 0.536,-0.591c0.113,-0.26 0.283,-0.723 0.507,-1.388l2.857,-8.445c0.186,-0.548 0.362,-1.011 0.53,-1.39l-1.297,-0.352l0.292,-0.86l8.487,2.871l-1.07,3.452Z" style="fill:#2e3853;fill-rule:nonzero;"/><path d="M259.724,61.668c2.105,1.011 3.502,2.365 4.194,4.064c0.692,1.7 0.511,3.631 -0.544,5.797c-0.566,1.162 -1.336,2.119 -2.31,2.869c-0.973,0.75 -2.082,1.185 -3.329,1.306c-1.247,0.12 -2.545,-0.149 -3.896,-0.807l-4.404,-2.146l0.298,-0.612c0.397,0.177 0.725,0.215 0.982,0.11c0.258,-0.104 0.46,-0.277 0.606,-0.52c0.146,-0.243 0.372,-0.679 0.679,-1.31l3.905,-8.016c0.253,-0.52 0.487,-0.958 0.701,-1.311l-1.242,-0.514l0.398,-0.816l3.962,1.906Zm-0.519,0.597c-0.391,-0.191 -0.712,-0.24 -0.964,-0.149c-0.252,0.093 -0.45,0.259 -0.596,0.502c-0.146,0.243 -0.373,0.679 -0.681,1.31l-3.85,7.905c-0.314,0.644 -0.566,1.118 -0.755,1.424c0.378,0.215 0.97,0.519 1.774,0.911c0.937,0.456 1.892,0.607 2.865,0.453c0.973,-0.152 1.877,-0.577 2.713,-1.272c0.836,-0.695 1.523,-1.594 2.059,-2.695c0.88,-1.806 1.121,-3.436 0.725,-4.892c-0.396,-1.455 -1.492,-2.622 -3.29,-3.497Z" style="fill:#2e3853;fill-rule:nonzero;"/><path d="M274.736,69.517c1.214,0.754 2.047,1.714 2.5,2.877c0.453,1.165 0.586,2.369 0.398,3.613c-0.189,1.245 -0.607,2.386 -1.253,3.426c-0.64,1.029 -1.474,1.908 -2.504,2.636c-1.031,0.729 -2.157,1.154 -3.382,1.276c-1.224,0.123 -2.427,-0.183 -3.608,-0.917c-1.265,-0.786 -2.128,-1.752 -2.586,-2.896c-0.459,-1.143 -0.585,-2.328 -0.379,-3.553c0.205,-1.225 0.646,-2.381 1.321,-3.468c0.647,-1.04 1.483,-1.921 2.51,-2.645c1.026,-0.722 2.151,-1.145 3.376,-1.267c1.223,-0.122 2.426,0.184 3.607,0.918Zm-0.482,0.671c-0.824,-0.512 -1.692,-0.69 -2.605,-0.537c-0.914,0.152 -1.78,0.55 -2.596,1.194c-0.816,0.642 -1.504,1.414 -2.064,2.314c-0.574,0.924 -0.996,1.945 -1.268,3.064c-0.272,1.119 -0.286,2.179 -0.045,3.179c0.241,1.001 0.805,1.776 1.69,2.327c0.823,0.511 1.689,0.689 2.598,0.532c0.908,-0.156 1.766,-0.55 2.576,-1.182c0.808,-0.63 1.492,-1.396 2.052,-2.296c0.617,-0.994 1.051,-2.056 1.302,-3.188c0.251,-1.132 0.248,-2.188 -0.008,-3.164c-0.255,-0.977 -0.8,-1.725 -1.632,-2.243Z" style="fill:#2e3853;fill-rule:nonzero;"/><path d="M290.089,80.8c1.134,0.927 1.826,1.861 2.075,2.803c0.249,0.941 0.009,1.859 -0.724,2.754c-0.47,0.575 -1.108,0.938 -1.913,1.088c-0.805,0.151 -1.653,-0.014 -2.543,-0.494l-0.027,0.033c1.029,0.841 1.606,1.748 1.732,2.723c0.126,0.974 -0.159,1.887 -0.856,2.739c-0.522,0.639 -1.124,1.075 -1.805,1.31c-0.68,0.234 -1.38,0.266 -2.1,0.097c-0.719,-0.171 -1.405,-0.523 -2.059,-1.058l-4.211,-3.443l0.431,-0.527c0.345,0.264 0.656,0.376 0.931,0.334c0.274,-0.043 0.515,-0.17 0.721,-0.383c0.207,-0.214 0.545,-0.607 1.016,-1.183l5.487,-6.711c0.47,-0.575 0.828,-0.985 1.075,-1.227l-1.091,-0.785l0.575,-0.704c1.422,1.127 2.517,2.005 3.286,2.634Zm-0.398,0.634c-0.308,-0.252 -0.578,-0.393 -0.81,-0.423c-0.233,-0.03 -0.463,0.041 -0.689,0.21c-0.228,0.17 -0.511,0.462 -0.851,0.878l-2.43,2.972l1.08,0.829c0.768,0.611 1.51,0.831 2.227,0.66c0.715,-0.169 1.344,-0.584 1.884,-1.244c0.653,-0.799 0.897,-1.524 0.731,-2.175c-0.166,-0.651 -0.547,-1.221 -1.142,-1.707Zm-3.764,5.427c-0.529,-0.433 -1.037,-0.821 -1.526,-1.167l-2.952,3.611c-0.453,0.555 -0.806,0.958 -1.062,1.212c0.165,0.17 0.502,0.464 1.012,0.881l0.491,0.401c0.758,0.621 1.534,0.904 2.326,0.849c0.791,-0.056 1.504,-0.472 2.14,-1.251c0.74,-0.904 1.039,-1.736 0.896,-2.492c-0.143,-0.757 -0.585,-1.439 -1.325,-2.044Z" style="fill:#2e3853;fill-rule:nonzero;"/><path d="M299.353,88.998c1.242,1.235 1.939,2.36 2.089,3.375c0.152,1.016 -0.184,1.949 -1.005,2.8c-0.65,0.694 -1.425,1.13 -2.325,1.313c-0.901,0.183 -1.918,-0.069 -3.047,-0.756c0.028,0.274 0.018,0.562 -0.029,0.86c-0.047,0.299 -0.144,0.74 -0.292,1.323l-0.621,2.47c-0.137,0.536 -0.229,0.959 -0.277,1.267c-0.047,0.309 -0.033,0.607 0.04,0.899c0.073,0.29 0.245,0.565 0.512,0.823l-0.472,0.49l-1.69,-1.629c-0.021,-0.46 0.002,-0.892 0.07,-1.294c0.069,-0.402 0.178,-0.903 0.326,-1.506l0.634,-2.456l0.127,-0.48c0.115,-0.405 0.2,-0.745 0.255,-1.016c0.055,-0.272 0.081,-0.532 0.08,-0.782c-0.089,-0.067 -0.219,-0.184 -0.389,-0.348c-0.241,-0.232 -0.416,-0.41 -0.522,-0.53l-2.779,2.882c-0.506,0.525 -0.897,0.904 -1.173,1.135l1.024,0.871l-0.63,0.654l-3.018,-2.909l0.472,-0.49c0.323,0.293 0.623,0.428 0.901,0.409c0.277,-0.019 0.522,-0.122 0.736,-0.308c0.213,-0.186 0.564,-0.531 1.051,-1.036l6.188,-6.42c0.401,-0.416 0.759,-0.76 1.072,-1.032l-1.023,-0.872l0.629,-0.653c0.949,0.877 1.661,1.543 2.135,2c0.43,0.414 0.747,0.729 0.951,0.946Zm-0.598,0.513c-0.312,-0.302 -0.603,-0.447 -0.87,-0.438c-0.268,0.009 -0.507,0.104 -0.716,0.285c-0.208,0.18 -0.556,0.524 -1.043,1.03l-2.751,2.853c0.249,0.278 0.437,0.477 0.562,0.597c1.824,1.759 3.505,1.841 5.042,0.246c0.726,-0.753 1.073,-1.508 1.043,-2.263c-0.031,-0.756 -0.453,-1.526 -1.267,-2.31Z" style="fill:#2e3853;fill-rule:nonzero;"/><path d="M303.313,109.918c-0.19,0.346 -0.417,0.699 -0.68,1.058c-0.263,0.359 -0.502,0.624 -0.718,0.794l0.892,0.904l-0.686,0.595l-2.795,-3.223l0.515,-0.446c0.491,0.544 0.98,0.605 1.469,0.181c0.197,-0.171 0.401,-0.43 0.61,-0.776l1.039,-1.764l-3.267,-3.579c-0.547,0.23 -1.246,0.548 -2.095,0.956c-0.425,0.202 -0.884,0.396 -1.381,0.58l1.014,1.044l-0.686,0.595l-2.282,-2.632l0.515,-0.446c0.203,0.235 0.426,0.37 0.667,0.407c0.242,0.037 0.497,0.017 0.767,-0.061c0.269,-0.077 0.65,-0.222 1.14,-0.433l0.558,-0.239l11.263,-4.686l0.293,0.338l-6.152,10.833Zm3.509,-9.28l-2.275,0.935l-3.029,1.296l-0.972,0.423l2.819,3.252l2.113,-3.582l1.368,-2.297l-0.024,-0.027Z" style="fill:#2e3853;fill-rule:nonzero;"/><path d="M316.597,108.088c0.331,0.45 0.601,0.95 0.809,1.499c0.208,0.548 0.296,1.126 0.267,1.734l0.67,-0.586l0.564,0.765l-3.655,2.694l-0.399,-0.54c0.838,-0.695 1.392,-1.492 1.661,-2.392c0.267,-0.899 0.099,-1.759 -0.505,-2.579c-0.441,-0.599 -0.973,-0.933 -1.595,-0.999c-0.621,-0.067 -1.209,0.104 -1.763,0.512c-0.443,0.327 -0.741,0.724 -0.893,1.19c-0.151,0.466 -0.211,0.943 -0.178,1.428c0.033,0.485 0.115,1.141 0.247,1.97c0.158,0.933 0.251,1.708 0.28,2.327c0.028,0.62 -0.075,1.239 -0.31,1.86c-0.235,0.621 -0.679,1.171 -1.333,1.653c-0.62,0.457 -1.269,0.724 -1.948,0.8c-0.679,0.077 -1.346,-0.053 -2.003,-0.387c-0.657,-0.333 -1.253,-0.865 -1.792,-1.596c-0.345,-0.469 -0.622,-0.994 -0.828,-1.575c-0.206,-0.581 -0.303,-1.154 -0.291,-1.717l-0.66,0.6l-0.575,-0.779l3.474,-2.698l0.431,0.584c-0.917,0.753 -1.432,1.589 -1.55,2.508c-0.117,0.919 0.13,1.794 0.741,2.623c0.45,0.611 1.013,0.986 1.69,1.127c0.677,0.142 1.336,-0.024 1.979,-0.498c0.476,-0.351 0.797,-0.768 0.962,-1.253c0.165,-0.483 0.233,-0.981 0.206,-1.494c-0.027,-0.512 -0.108,-1.173 -0.244,-1.983c-0.139,-0.931 -0.221,-1.693 -0.247,-2.283c-0.025,-0.591 0.078,-1.187 0.309,-1.79c0.232,-0.602 0.668,-1.14 1.311,-1.614c0.443,-0.327 0.955,-0.56 1.534,-0.702c0.579,-0.142 1.192,-0.099 1.837,0.127c0.645,0.227 1.244,0.714 1.797,1.464Z" style="fill:#2e3853;fill-rule:nonzero;"/><path d="M322.285,118.176c-0.249,-0.357 -0.509,-0.558 -0.784,-0.602c-0.275,-0.044 -0.538,0 -0.788,0.133c-0.249,0.132 -0.669,0.39 -1.258,0.772l-7.361,4.771c-0.612,0.397 -1.079,0.677 -1.399,0.839l0.799,1.081l-0.763,0.494l-2.279,-3.517l0.571,-0.371c0.249,0.358 0.51,0.559 0.785,0.603c0.274,0.044 0.536,-0.001 0.786,-0.133c0.25,-0.133 0.671,-0.39 1.259,-0.771l7.482,-4.85c0.485,-0.315 0.911,-0.568 1.278,-0.762l-0.799,-1.081l0.762,-0.494l2.28,3.517l-0.571,0.371Z" style="fill:#2e3853;fill-rule:nonzero;"/><path d="M325.809,124.11c-0.225,-0.371 -0.474,-0.587 -0.746,-0.648c-0.27,-0.061 -0.535,-0.033 -0.793,0.084c-0.258,0.117 -0.692,0.348 -1.303,0.694l-7.711,4.353c-0.623,0.352 -1.099,0.599 -1.43,0.742l1.767,3.004c0.403,0.685 0.938,1.067 1.607,1.146c0.669,0.078 1.524,-0.176 2.566,-0.765l0.312,0.552l-3.775,2.003l-4.543,-8.046l0.593,-0.335c0.226,0.373 0.474,0.589 0.745,0.65c0.272,0.06 0.536,0.032 0.794,-0.086c0.258,-0.117 0.693,-0.347 1.304,-0.692l7.765,-4.385c0.503,-0.284 0.944,-0.511 1.321,-0.682l-0.732,-1.127l0.791,-0.446l2.061,3.649l-0.593,0.335Z" style="fill:#2e3853;fill-rule:nonzero;"/><path d="M197.033,240.077l0,-148.673" style="fill:none;stroke:#2d3954;stroke-width:1.71px;stroke-miterlimit:100;stroke-dasharray:17.14,5.14,1.71,5.14;"/><path d="M197.032,156.76c-0.902,0 -1.634,0.68 -1.634,1.518c0,0.838 0.732,1.517 1.634,1.517c0.902,0 1.634,-0.679 1.634,-1.517c0,-0.838 -0.732,-1.518 -1.634,-1.518" style="fill:#2f3853;fill-rule:nonzero;"/><path d="M190.594,155.961l1.214,2.817l1.216,-2.817l0.636,0l0,3.453l-0.491,0l0,-1.344l0.047,-1.452l-1.22,2.796l-0.376,0l-1.217,-2.789l0.048,1.445l0,1.344l-0.49,0l0,-3.453l0.633,0Z" style="fill:#2d3954;fill-rule:nonzero;"/><path d="M203.32,189.116c-0.125,0.167 -0.301,0.293 -0.526,0.376c-0.226,0.083 -0.489,0.124 -0.788,0.124c-0.303,0 -0.572,-0.066 -0.807,-0.198c-0.235,-0.132 -0.416,-0.319 -0.546,-0.564c-0.128,-0.243 -0.194,-0.525 -0.197,-0.845l0,-0.302c0,-0.52 0.131,-0.923 0.392,-1.209c0.261,-0.287 0.629,-0.429 1.101,-0.429c0.389,0 0.701,0.091 0.937,0.276c0.237,0.184 0.382,0.445 0.434,0.784l-0.49,0c-0.091,-0.459 -0.384,-0.689 -0.878,-0.689c-0.328,0 -0.577,0.107 -0.747,0.322c-0.169,0.214 -0.255,0.525 -0.256,0.932l0,0.282c0,0.388 0.096,0.697 0.286,0.925c0.191,0.228 0.448,0.343 0.773,0.343c0.185,0 0.345,-0.02 0.483,-0.058c0.138,-0.036 0.252,-0.1 0.342,-0.19l0,-0.774l-0.861,0l0,-0.373l1.348,0l0,1.267Z" style="fill:#2d3954;fill-rule:nonzero;"/><path d="M190.612,218.389l0,-3.453l1.214,0c0.404,0 0.707,0.077 0.911,0.232c0.204,0.155 0.305,0.385 0.305,0.688c0,0.161 -0.049,0.303 -0.148,0.427c-0.1,0.125 -0.233,0.221 -0.404,0.289c0.202,0.053 0.359,0.152 0.476,0.298c0.117,0.145 0.176,0.32 0.176,0.523c0,0.31 -0.109,0.553 -0.325,0.729c-0.215,0.178 -0.522,0.267 -0.916,0.267l-1.289,0Zm0.49,-1.615l0,1.243l0.809,0c0.228,0 0.408,-0.055 0.54,-0.165c0.132,-0.11 0.197,-0.262 0.197,-0.455c0,-0.416 -0.243,-0.623 -0.73,-0.623l-0.816,0Zm0,-0.365l0.74,0c0.214,0 0.385,-0.051 0.515,-0.15c0.128,-0.1 0.192,-0.236 0.192,-0.407c0,-0.19 -0.06,-0.328 -0.178,-0.414c-0.12,-0.087 -0.301,-0.13 -0.545,-0.13l-0.724,0l0,1.101Z" style="fill:#2d3954;fill-rule:nonzero;"/><path d="M197.032,186.534c-0.902,0 -1.634,0.68 -1.634,1.518c0,0.838 0.732,1.517 1.634,1.517c0.902,0 1.634,-0.679 1.634,-1.517c0,-0.838 -0.732,-1.518 -1.634,-1.518" style="fill:#2f3853;fill-rule:nonzero;"/><path d="M197.032,215.354c-0.902,0 -1.634,0.68 -1.634,1.518c0,0.837 0.732,1.517 1.634,1.517c0.902,0 1.634,-0.68 1.634,-1.517c0,-0.838 -0.732,-1.518 -1.634,-1.518" style="fill:#2f3853;fill-rule:nonzero;"/></g></svg>