<?xml version="1.0" encoding="UTF-8" standalone="no"?><!DOCTYPE svg PUBLIC "-//W3C//DTD SVG 1.1//EN" "http://www.w3.org/Graphics/SVG/1.1/DTD/svg11.dtd"><svg width="100%" height="100%" viewBox="0 0 55 55" version="1.1" xmlns="http://www.w3.org/2000/svg" xmlns:xlink="http://www.w3.org/1999/xlink" xml:space="preserve" style="fill-rule:evenodd;clip-rule:evenodd;stroke-linejoin:round;stroke-miterlimit:1.41421;"><path d="M27.276,0c-15.064,0 -27.276,12.212 -27.276,27.276c0,15.064 12.212,27.276 27.276,27.276c15.064,0 27.276,-12.212 27.276,-27.276c0,-15.064 -12.212,-27.276 -27.276,-27.276Zm-10.708,18.752l21.365,0c1.133,0 0.55,1.454 -0.067,1.827c-0.616,0.372 -9.152,5.532 -9.47,5.724c-0.319,0.191 -0.73,0.283 -1.145,0.283c-0.414,0 -0.826,-0.092 -1.144,-0.283c-0.318,-0.192 -8.854,-5.352 -9.471,-5.724c-0.617,-0.373 -1.2,-1.827 -0.068,-1.827Zm22.073,15.627c0,0.597 -0.715,1.421 -1.263,1.421l-20.204,0c-0.548,0 -1.263,-0.824 -1.263,-1.421c0,0 0,-10.099 0,-10.361c0,-0.261 -0.005,-0.601 0.488,-0.311c0.701,0.411 9.279,5.47 9.708,5.722c0.429,0.253 0.73,0.283 1.144,0.283c0.415,0 0.715,-0.03 1.145,-0.283c0.429,-0.252 9.056,-5.31 9.757,-5.72c0.493,-0.29 0.488,0.049 0.488,0.31c0,0.262 0,10.36 0,10.36Z" style="fill:#023e62;fill-rule:nonzero;"/></svg>