<svg viewBox="0 0 221 190" xmlns="http://www.w3.org/2000/svg" fill-rule="evenodd" clip-rule="evenodd" stroke-linejoin="round" stroke-miterlimit="1.414"><path d="M129.348 49.91c2.16-.4 1.2-1.72.72-2.85-2.52-4.42-11.64-7.33-13.58-1.57-1.17 3.46 1 8.8 4.7 9.4 5 .83 4.57-4.17 8.16-4.98m81.46 61.57c5.27-7.56 9.74-14.94 8.35-26.12-1.55-12.33-9.1-14.98-16.2-21.4-1.9-1.74-3-4.5-4.7-5.75-4.3-3.14-14.58-4.52-18.8-2.1-.53.1-.82.4-1 .82-.62 1.34-1.76 2.34-3.12 2.92-5.66 2.45-7.88 10.46-15.2 12.46-7 1.92-17.24-1.6-26.63-.53-3.4.4-7.56 2.32-10.45 2.1-7.8-.63-13-6-19.84-5.75-4.52.16-8.13 3.05-12.53 3.13-4.77.1-8.66-3-13.06-3.13-8.68-.25-17.04 4.45-19.3 10.97-5-1.52-2.58-4.53-3.12-8.5-1.2-8.87-9.13-12.55-19.94-12.88-.64-.03-1.28.1-1.88.33-5.1 2.02-10.3 2.8-14.24 6.4-4.74 4.36-11.15 14.5-13.58 21.43-5.28 15.08.4 34.07 12.54 40.73 5.83 3.2 12.84 2.3 21.84 3.42.9.12 1.84-.14 2.52-.75 1.8-1.6 4.54-2.23 6.45-3.72 1.55-1.17-1-3.44 1.03-3.66.8.5 1.48.78 2.06.97 2.5.8 3.03 4.12.92 5.7-1.22.9-2.4 1.77-2.46 3.77-.18 5.7 8.5 8.56 13.02 4.98 1.25-1 2.86-1.45 4.42-1.13 11.1 2.2 21.8-2.34 31.13-.73 6.15 1.06 14.1-2.2 20.9-.52 1.14.3 1.9 1.43 3.12 1.57 3.63.4 7.6-.46 10.92-2.05.75-.36 1.6-.4 2.36-.06 4.26 1.83 10.37 5.58 16.5 4.73 2.35-.33 4.56-3.12 7.3-3.66 4.74-.92 9.84 1.04 13.58-1.57 1.68-1.16 1.96-2.8 2.58-4.37a2.676 2.676 0 0 1 2.76-1.7c17.24 1.66 24.77-6.4 31.75-16.4m9.08-23.15c.73 2.03.66 4.25 0 6.27-1.8 14.05-6.7 22.64-16.72 29.77-3.88 2.76-10.17 5.52-15.14 6.27-1.47.2-3.57-.47-5.22 0-1.74.47-2.08 1.83-3.66 2.6-1.06.52-2.2 0-3.65.52-2.45.87-4.6 3.3-6.28 3.66-3.36.7-7.3-.58-10.45 0-4.62.84-7.9 3.76-12.54 3.65-4.4-.1-7.43-1.53-11.4-3.4-.96-.46-2.08-.48-3.07-.06-5.27 2.28-10.62.47-16.86-.2-5.77-.6-12.5 2.13-20.36 2.62-7.44.45-21.5-3.1-30.3-1.58-3.6.63-6.54 3.25-9.92 2.6-4.9-.9-7.7-7.74-6.27-12-20.14 10.08-43.22-3.9-46.48-20.37-.36-1.85.23-4.1 0-6.26-.27-2.58-1.5-5.05-1.56-7.33-.2-6.65 3.17-14.5 6.8-20.37 2.78-4.5 6.08-10.14 9.4-13.04 8.82-7.72 28.3-7.66 36.93 1.22.77.8 1.3 1.8 1.53 2.88.4 1.8.74 3.6 1.23 5.3 4.9-1.4 10.93-5.15 18.8-4.2-.62-7.6 2.83-14.63 10.96-15.13-1.4-3.75-6.72-7.35-7.32-12-2.72-21.23 14.4-38.3 33.43-39.7h8.35c9.5.6 16.1 4.1 18.3 12 19.25-10.74 43.3-2.8 43.33 19.33 0 5.14-1.12 15.5-4.7 19.85-3.2 3.9-10.55 6.87-16.7 8.9-.44 1.35 1.15 4.56.5 7.8 5.1-2.94 8.86-6.25 13.07-10.42 2.3-2.3 3.07-4.6 6.8-5.23 21.14-3.58 42.06 18.44 39.16 36.03m-82.3-34.66c.08-.18.25-.33.42-.4.08-.04.16-.05.24-.05.43.2.67.25.45.1 2.03.66 2.94 2.6 5.1 3.05.28.07 2.13.5 2.43.48 3.7-.2 2.97-4.07 2.55-8.34-.02-.23-.12-.45-.3-.58-3.1-2.33-10.18-.45-12.8 1.8-1.18 1.37 1.3 2.9 2.5 3.47a.34.34 0 0 0-.18.07c-.2.06-.36.2-.42.4m-.02 0c-.12.27-.1.6.22.87 1.75 1.54-5.18-2.05-8.64-2.2-.15 0-.3.02-.45.1-3.08 1.64-3.28 4.5-7.1 4.6-7.82.13-10.5-15.84-2.1-17.77 7-1.6 7.07 3.83 10.97 5.74 5.94 2.9 12.08-1.72 16.7-1.04 5.2.76 5.37 6.32 4.82 12.03-.06.54.38 1 .92.94 9.97-.95 21.27-5.15 24.03-13.5 3.04-9.17-.96-24.63-7.3-30.3-3-2.65-7.86-3.96-11.5-4.17-9.3-.53-13.74 6.75-22.2 7.62-.7.08-1.27-.07-1.3-.72-.3-9.06-6.7-13.04-14.62-13.16-8.26-.13-23.4 2.94-29.77 9.4-3.17 3.2-6 9.36-6.8 15.14-1.93 14.16 2.57 19.28 8.54 26.04.8.9.1 2.3-1.1 2.2-3.77-.25-8.34-1.15-10.92 1.37-.1.12-.2.26-.28.4-.6 1.12-.8 2.6-.9 4-.03.67.14 1.35.53 1.9 4.48 6.5 11.67 1.93 22.42 2.76 8.65.66 16.6 6.23 22.98 6.26 2.58.02 5.84-1.54 9.4-2.1 11.86-1.8 20.62 2.8 22.24-6.94.14-.83-.46-1.6-1.3-1.66-1.65-.14-2.73-1.76-4.9-2.7-.2-.1-.46-.1-.67 0-3.28 1.55-9.76-2.5-11.72-4.23a.783.783 0 0 1-.22-.87" fill="#333"/><path d="M30.258 89.33c.44.15.8-.36.5-.7-5.86-6.6-13.35 9.1-6.55 12.78 1.82 1 3.4-1.83 1.6-2.87-.84-.47-1.92-.7-2.87-1.08-2.04-4.67 2.92-9.5 7.3-8.12m40.28 5.25c1.83 0 2.27-1.4 2.13-3.4a.828.828 0 0 0-.2-.46c-2.82-3.23-6.33 3.32-1.92 3.85m42.9 16.83c.2-4.1-1.54-4.96-3.18-7.15-.4-.55-1.03-.87-1.7-.92-5.25-.42-4.54 1.94-7.75 3.33-.45.2-.8.56-.97 1-.4.98-1.13 2.22-.5 3.56.26.52.76.87 1.32 1.06 1.6.54 1.75 4.96 4.38 5.26.17.02.28.2.2.36-1.05 1.55 1.37 4.17-.22 5.4-1.24-.72-2.4-1.52-3.27-2.6-.1-.17-.37-.07-.35.14.57 6.58 12.54 4.14 11.52-.3-.7 1.74-3.45 1.1-4.76 2.23-.72-1.38-1.57-2.66-1.64-4.7-.03-.93.4-1.82 1.17-2.33 1.63-1.1 3.2-1.84 4.92-2.9.5-.3.83-.85.85-1.44m11.92-27.28c-8.82 1.17-11.05-4.27-14.63-8.35-.4-.52-1.06-.52-1.56.52-1.3 2.67 3.9 5.74 3.65 7.3-7.74-.4-12.44-4.06-16.43-8.07-.2-.2-.45-.34-.72-.34-.23 0-.43.04-.63.13-.48.22-.74.76-.7 1.3v.05c1.58 8.76 21.48 10.44 31.03 7.46m28.68 9.08c.4-.75.56-1.4.22-2.37-.1-.3-.33-.54-.6-.68-1.72-.82-4.17.03-3.85 2.4.03.3.2.55.43.73.58.44 1.2.82 2.16.86.67.05 1.32-.32 1.63-.92m36.36 7.16c6.25-5.36-6.68-21.5-10.2-11 3.65-3.7 9.43.87 9.38 5.73-.6.56-1.44 1.13-2.16 1.78-2.2 2 .73 5.4 2.97 3.5m28.75-15.02c1.4 11.18-3.08 18.56-8.36 26.1-7 10-14.52 18.05-31.76 16.4-1.2-.12-2.32.57-2.76 1.7-.62 1.56-.9 3.2-2.57 4.37-3.72 2.6-8.83.65-13.57 1.57-2.74.54-4.95 3.33-7.3 3.66-6.13.85-12.24-2.9-16.5-4.72-.76-.32-1.6-.3-2.36.07-3.3 1.6-7.28 2.44-10.92 2.05-1.2-.13-1.98-1.28-3.13-1.57-6.78-1.68-14.74 1.58-20.9.52-9.3-1.6-20.03 2.92-31.12.72-1.56-.33-3.17.13-4.42 1.12-4.53 3.58-13.2.72-13.02-4.98.06-2 1.24-2.86 2.46-3.77 2.1-1.58 1.58-4.9-.93-5.7-.6-.2-1.25-.47-2.06-.98-2.05.2.5 2.48-1.05 3.65-1.92 1.5-4.67 2.12-6.45 3.72-.7.6-1.62.87-2.53.75-9-1.1-16-.23-21.84-3.43-12.15-6.67-17.82-25.66-12.54-40.74 2.43-6.95 8.84-17.07 13.58-21.42 3.94-3.6 9.13-4.4 14.24-6.4.6-.24 1.24-.37 1.88-.35 10.8.32 18.74 4 19.95 12.88.52 3.96-1.9 6.97 3.1 8.5 2.26-6.53 10.62-11.23 19.3-10.98 4.4.13 8.3 3.23 13.07 3.13 4.4-.08 8-2.97 12.54-3.13 6.85-.25 12.06 5.12 19.85 5.74 2.9.23 7.06-1.7 10.45-2.1 9.4-1.06 19.62 2.46 26.63.54 7.32-2 9.54-10 15.2-12.46 1.36-.58 2.5-1.58 3.1-2.92.2-.4.5-.73 1.03-.8 4.2-2.44 14.5-1.06 18.8 2.08 1.7 1.25 2.78 4 4.7 5.74 7.08 6.43 14.64 9.08 16.2 21.4" fill="#eff4f4"/><path d="M180.218 89.36c3.52-10.5 16.44 5.65 10.2 11-2.25 1.93-5.17-1.5-3-3.48.74-.65 1.57-1.22 2.18-1.78.05-4.86-5.73-9.44-9.4-5.74" fill="#333"/><path d="M169.658 13.13c6.35 5.68 10.35 21.14 7.3 30.3-2.75 8.35-14.05 12.55-24.02 13.5-.54.05-.98-.4-.93-.94.55-5.7.36-11.27-4.82-12.03-4.63-.7-10.77 3.95-16.7 1.04-3.9-1.9-3.97-7.35-10.98-5.74-8.4 1.93-5.72 17.9 2.1 17.76 3.82-.1 4.02-2.96 7.1-4.6.13-.08.3-.1.45-.1 3.45.15 10.38 3.74 8.63 2.2 1.96 1.7 8.44 5.77 11.72 4.2.2-.1.47-.08.68 0 2.16.96 3.24 2.58 4.9 2.72.83.07 1.43.83 1.3 1.66-1.63 9.73-10.4 5.13-22.25 6.95-3.56.55-6.82 2.1-9.4 2.1-6.37-.04-14.33-5.6-22.98-6.27-10.75-.83-17.94 3.75-22.42-2.75-.38-.55-.56-1.23-.52-1.9.1-1.4.3-2.87.9-4 .07-.15.17-.28.28-.4 2.58-2.5 7.15-1.6 10.93-1.35 1.2.1 1.9-1.32 1.1-2.2-5.97-6.77-10.48-11.9-8.53-26.03.8-5.8 3.62-11.94 6.8-15.15 6.35-6.46 21.5-9.53 29.76-9.4 7.9.12 14.33 4.1 14.63 13.16.02.65.6.8 1.28.72 8.47-.87 12.92-8.15 22.2-7.62 3.66.2 8.5 1.52 11.5 4.18" fill="#f8d5e0"/><path d="M154.268 90.83c.34.98.17 1.63-.22 2.4-.3.6-.96.95-1.64.9-.96-.03-1.6-.4-2.17-.85-.23-.17-.4-.44-.43-.73-.32-2.37 2.13-3.22 3.84-2.4.28.14.5.4.6.7" fill="#333"/><path d="M148.798 48.49c.42 4.27 1.14 8.14-2.55 8.35-.3.02-2.15-.4-2.44-.48-2.16-.46-3.07-2.4-5.1-3.05-.03-.02-.06-.04-.1-.06a.606.606 0 0 0-.42-.05c-1.2-.55-3.67-2.1-2.48-3.47 2.6-2.25 9.67-4.13 12.78-1.8.18.13.28.35.3.58m-10.07 4.79c.2.15-.03.1-.46-.1.08 0 .16.02.24.04.08.03.14.05.2.07m.02-.01c-.08-.02-.14-.04-.22-.06-.08 0-.16-.02-.24-.02-.02-.02-.04-.03-.06-.03.15-.03.3-.02.4.06.06.03.1.05.1.07m-.5-.14c.02 0 .04 0 .06.02-.08 0-.16.02-.24.05a.45.45 0 0 1 .18-.07m-.18.07c-.17.07-.34.22-.42.4.06-.2.2-.34.42-.4m-.43.41c-.1.28-.06.63.2.86-.3-.3-.33-.6-.2-.87m-7.52-6.59c.47 1.12 1.43 2.46-.72 2.85-3.6.8-3.16 5.8-8.16 5-3.7-.62-5.87-5.96-4.7-9.4 1.94-5.78 11.06-2.87 13.58 1.55" fill="#f8d5e0"/><path d="M110.738 75.78c3.58 4.08 5.8 9.52 14.63 8.36-9.55 3-29.45 1.3-31.02-7.45v-.05c-.05-.54.2-1.07.7-1.3.2-.1.4-.15.62-.14.27 0 .53.14.72.34 3.98 4 8.7 7.66 16.44 8.08.27-1.57-4.95-4.64-3.64-7.3.5-1.05 1.16-1.05 1.56-.53m-.51 28.47c1.64 2.18 3.37 3.06 3.18 7.15-.02.6-.35 1.13-.85 1.44-1.7 1.06-3.3 1.8-4.92 2.9-.77.5-1.2 1.4-1.17 2.32.07 2.05.9 3.33 1.65 4.7 1.32-1.1 4.06-.48 4.77-2.22 1.02 4.44-10.95 6.88-11.52.3-.02-.2.24-.3.36-.15.88 1.1 2.03 1.9 3.28 2.6 1.6-1.22-.83-3.84.2-5.4.1-.14 0-.33-.18-.35-2.63-.3-2.77-4.72-4.38-5.27-.56-.18-1.06-.53-1.32-1.06-.63-1.35.1-2.6.5-3.57.18-.44.52-.8.97-1 3.2-1.4 2.5-3.75 7.75-3.32.67.06 1.3.38 1.7.93m-37.61-13.07c.14 2-.3 3.38-2.12 3.4-4.4-.55-.9-7.1 1.93-3.87.12.12.18.3.2.46m-41.91-2.55c.3.34-.05.84-.5.7-4.38-1.4-9.34 3.45-7.3 8.12.95.37 2.03.6 2.87 1.1 1.8 1.03.22 3.85-1.6 2.86-6.8-3.68.68-19.4 6.53-12.8" fill="#333"/><path d="M78.598 108.81c0 2-1.8 3.62-3.98 3.62-2.2 0-4-1.62-4-3.62s1.8-3.63 4-3.63 3.98 1.62 3.98 3.63m71.22 0c0 2-1.8 3.62-3.98 3.62-2.2 0-4-1.62-4-3.62s1.8-3.63 4-3.63 3.98 1.62 3.98 3.63" fill="#f8d5e0"/><path d="M52.655 180.241a7.89 7.89 0 0 0-1.638.991c-.529.41-1.063.86-1.604 1.348-.54.488-1.1 1.003-1.681 1.545a16.742 16.742 0 0 1-1.879 1.512c-.672.466-1.405.911-2.198 1.336-.793.424-1.67.796-2.629 1.116-.96.319-2.018.573-3.173.762-1.155.188-2.434.283-3.836.283-1.552 0-2.951-.309-4.198-.927a9.866 9.866 0 0 1-3.199-2.501c-.885-1.049-1.566-2.268-2.043-3.657a13.39 13.39 0 0 1-.715-4.38c0-1.064.115-2.207.344-3.428.23-1.221.561-2.465.992-3.733a31.838 31.838 0 0 1 1.577-3.793 29.928 29.928 0 0 1 2.113-3.629 25.248 25.248 0 0 1 2.594-3.22 19.159 19.159 0 0 1 3.018-2.587 14.332 14.332 0 0 1 3.379-1.727 11.027 11.027 0 0 1 3.69-.625c.827 0 1.666.146 2.517.439.85.293 1.615.745 2.293 1.354.678.609 1.233 1.379 1.664 2.31.431.931.646 2.029.646 3.293 0 .851-.135 1.71-.405 2.578-.27.868-.641 1.701-1.112 2.5a13.594 13.594 0 0 1-1.664 2.25 12.225 12.225 0 0 1-2.06 1.819c-.736.511-1.5.916-2.293 1.215a6.703 6.703 0 0 1-2.379.449c-1.046 0-1.828-.141-2.345-.423-.518-.281-.776-.687-.776-1.215 0-.092-.003-.201-.009-.328a8.404 8.404 0 0 1-.008-.396c0-.207.011-.423.034-.647.023-.224.069-.428.138-.612s.17-.333.302-.448c.132-.115.313-.173.543-.173a.98.98 0 0 1 .362.061c.103.04.218.083.345.129a3.183 3.183 0 0 0 1.138.19c.735 0 1.48-.161 2.232-.483a6.669 6.669 0 0 0 2.035-1.362 7.214 7.214 0 0 0 1.483-2.095c.385-.81.577-1.704.577-2.681 0-.517-.069-1.009-.207-1.474a3.184 3.184 0 0 0-.672-1.224 3.35 3.35 0 0 0-1.198-.845c-.489-.213-1.084-.319-1.785-.319-.827 0-1.635.182-2.422.548a9.734 9.734 0 0 0-2.268 1.486 14.498 14.498 0 0 0-2.06 2.226 24.544 24.544 0 0 0-1.802 2.756c-.551.98-1.048 2-1.491 3.061a30.937 30.937 0 0 0-1.129 3.174 26.348 26.348 0 0 0-.716 3.069c-.166.991-.25 1.904-.25 2.739 0 1.226.147 2.295.44 3.205.293.911.71 1.67 1.25 2.277a4.977 4.977 0 0 0 1.983 1.357c.781.298 1.661.447 2.638.447 1.218 0 2.353-.158 3.405-.474a16.15 16.15 0 0 0 3.008-1.241 24.626 24.626 0 0 0 2.768-1.732c.89-.643 1.781-1.289 2.672-1.937a52.726 52.726 0 0 1 2.724-1.857 16.912 16.912 0 0 1 2.94-1.492v3.84z" fill="#333" fill-rule="nonzero"/><path d="M61.017 172.53c.333.667.583 1.371.75 2.112.167.742.25 1.578.25 2.509a9.7 9.7 0 0 1-.224 2.052c-.15.689-.365 1.356-.647 2a9.687 9.687 0 0 1-1.034 1.81 7.349 7.349 0 0 1-1.397 1.465 6.605 6.605 0 0 1-1.715.983 5.412 5.412 0 0 1-1.983.362c-1.012 0-1.877-.221-2.595-.663a5.548 5.548 0 0 1-1.767-1.733 7.688 7.688 0 0 1-1.009-2.414 11.805 11.805 0 0 1-.319-2.724c0-1.517.19-2.825.569-3.923.38-1.097.923-2.051 1.63-2.862a7.52 7.52 0 0 1 2.594-1.913c1.023-.466 2.173-.699 3.449-.699a9.1 9.1 0 0 1 3.069.509c.954.339 1.847.793 2.681 1.362a11.433 11.433 0 0 1 2.327 2.146c.719.863 1.388 1.684 2.009 2.466l-.328 2.431c-.31-.414-.73-.862-1.258-1.345a57.82 57.82 0 0 1-1.681-1.603 14.24 14.24 0 0 0-1.75-1.492 60.173 60.173 0 0 0-1.483-1.025l-.138.189zm-5.328 9.983c.391 0 .77-.198 1.138-.595.368-.396.69-.896.966-1.5.276-.603.497-1.333.664-2.19.166-.856.25-1.617.25-2.284 0-.529-.041-1.02-.121-1.474a4.55 4.55 0 0 0-.362-1.181 2.165 2.165 0 0 0-.621-.793 1.446 1.446 0 0 0-.914-.293c-.471 0-.919.201-1.344.603-.426.402-.799.917-1.121 1.543a9.353 9.353 0 0 0-.759 2.078c-.184.758-.276 1.615-.276 2.569 0 .482.046.936.138 1.362.092.425.236.796.431 1.112.196.316.454.569.776.758.322.19.707.285 1.155.285z" fill="#333" fill-rule="nonzero"/><path d="M83.395 181.551c-.265.372-.618.808-1.061 1.307-.442.5-.939.977-1.491 1.43a9.352 9.352 0 0 1-1.776 1.151c-.632.314-1.264.471-1.896.471-.764 0-1.401-.242-1.91-.726-.51-.483-.951-1.186-1.321-2.107-.279.318-.62.642-1.026.972a9.11 9.11 0 0 1-1.329.896 8.621 8.621 0 0 1-1.504.657 5.02 5.02 0 0 1-1.564.256 4.025 4.025 0 0 1-1.612-.339 4.196 4.196 0 0 1-1.388-.974 4.8 4.8 0 0 1-.966-1.548c-.241-.609-.362-1.296-.362-2.062 0-.859.122-1.741.365-2.645.242-.905.618-1.885 1.127-2.938.509-1.054 1.055-1.965 1.639-2.732a12.005 12.005 0 0 1 1.917-2.01 9.332 9.332 0 0 1 2.194-1.366 5.787 5.787 0 0 1 2.35-.507c.266 0 .474.052.624.157.151.104.275.223.373.357.098.134.194.264.286.392a.808.808 0 0 0 .347.279c.139.058.28.096.425.113.145.017.292.026.442.026a8.7 8.7 0 0 0 .391-.009c.133-.005.263-.008.39-.008.173 0 .335.017.485.052a.81.81 0 0 1 .399.226c.115.117.204.279.268.488.063.209.095.494.095.854a10.9 10.9 0 0 1-.173 1.829 53.87 53.87 0 0 1-.395 2.058l-.507 2.404c-.19.899-.285 1.657-.285 2.274 0 .526.049.938.147 1.235.098.297.307.446.629.446.242 0 .495-.06.759-.18s.532-.276.802-.47c.27-.194.54-.413.81-.658.27-.245.526-.499.767-.761a26.27 26.27 0 0 0 1.707-2.085l.828 3.795zM68.603 180.2c0 .297.02.584.061.863.04.278.112.527.216.747.103.219.241.397.414.533s.391.204.656.204c.426 0 .812-.185 1.157-.555.346-.37.645-.816.899-1.337.253-.52.457-1.058.613-1.614a9.888 9.888 0 0 0 .302-1.389l1.286-5.605a2.95 2.95 0 0 0-1.38.351c-.448.233-.87.55-1.267.948a8.573 8.573 0 0 0-1.095 1.368c-.333.512-.661 1.145-.982 1.897-.322.752-.549 1.413-.682 1.983a7.126 7.126 0 0 0-.198 1.606z" fill="#333" fill-rule="nonzero"/><path d="M85.845 185.823c-.618 0-1.193-.268-1.726-.806-.532-.537-.996-1.259-1.391-2.164-.395-.905-.704-1.954-.928-3.148a20.43 20.43 0 0 1-.335-3.759c0-1.128.166-2.633.498-4.517l.497-2.824.753-2.822c.502-1.881 1.006-3.39 1.511-4.526a29.42 29.42 0 0 1 1.645-3.185 17.251 17.251 0 0 1 1.864-2.581c.65-.733 1.329-1.309 2.037-1.729.708-.419 1.428-.628 2.16-.628.532 0 .971.101 1.318.304.346.203.619.472.817.805.198.333.337.711.418 1.133.08.422.12.851.12 1.289 0 1.086-.128 2.193-.385 3.32a25.091 25.091 0 0 1-1.04 3.398 37.65 37.65 0 0 1-1.515 3.424 97.13 97.13 0 0 1-1.792 3.407 225.996 225.996 0 0 1-1.873 3.329 70.47 70.47 0 0 0-1.737 3.203 3.71 3.71 0 0 0-.182.452c-.063.186-.124.386-.182.6-.057.215-.115.444-.173.687a9.013 9.013 0 0 0-.138.713v.243c0 .302.032.594.095.878.064.284.141.539.234.765.092.226.19.406.294.539.103.134.201.2.294.2.223 0 .479-.046.768-.139.288-.093.594-.217.918-.374.323-.156.656-.336.997-.539.341-.202.671-.408.989-.617a34.473 34.473 0 0 0 2.33-1.686l1.523 3.634a37.582 37.582 0 0 1-3.125 1.869c-.45.229-.915.456-1.394.68-.479.224-.962.424-1.447.599-.485.174-.959.314-1.42.418a5.978 5.978 0 0 1-1.297.155zm.017-13.667a79.862 79.862 0 0 0 1.652-3.13 60.218 60.218 0 0 0 1.652-3.581 40.146 40.146 0 0 0 1.349-3.678c.38-1.223.622-2.362.726-3.416 0-.337-.008-.623-.024-.861-.017-.238-.068-.356-.155-.356-.316 0-.657.218-1.022.654-.364.437-.729 1.028-1.094 1.773-.365.745-.801 1.958-1.307 3.636l-.761 2.519-.463 2.337c-.31 1.558-.494 2.925-.553 4.103z" fill="#333" fill-rule="nonzero"/><path d="M109.395 181.551c-.265.372-.618.808-1.061 1.307-.442.5-.939.977-1.491 1.43a9.352 9.352 0 0 1-1.776 1.151c-.632.314-1.264.471-1.896.471-.764 0-1.4-.242-1.91-.726-.51-.483-.951-1.186-1.321-2.107-.278.318-.62.642-1.026.972a9.11 9.11 0 0 1-1.329.896 8.621 8.621 0 0 1-1.504.657 5.02 5.02 0 0 1-1.564.256 4.025 4.025 0 0 1-1.612-.339 4.196 4.196 0 0 1-1.388-.974 4.78 4.78 0 0 1-.965-1.548c-.242-.609-.363-1.296-.363-2.062 0-.859.122-1.741.365-2.645.243-.905.618-1.885 1.127-2.938.509-1.054 1.055-1.965 1.639-2.732a12.005 12.005 0 0 1 1.917-2.01 9.332 9.332 0 0 1 2.194-1.366 5.787 5.787 0 0 1 2.35-.507c.266 0 .474.052.624.157.151.104.275.223.373.357.098.134.194.264.286.392a.808.808 0 0 0 .347.279c.139.058.28.096.425.113.145.017.292.026.442.026.128 0 .258-.003.391-.009.133-.005.263-.008.39-.008.173 0 .335.017.486.052.15.035.283.11.398.226.115.117.205.279.268.488.063.209.095.494.095.854a10.9 10.9 0 0 1-.173 1.829 53.87 53.87 0 0 1-.395 2.058l-.507 2.404c-.19.899-.284 1.657-.284 2.274 0 .526.048.938.146 1.235.098.297.308.446.629.446.242 0 .495-.06.759-.18s.532-.276.802-.47c.27-.194.54-.413.81-.658.27-.245.526-.499.767-.761a25.837 25.837 0 0 0 1.707-2.085l.828 3.795zM94.603 180.2c0 .297.02.584.061.863.04.278.112.527.216.747.103.219.241.397.414.533s.392.204.656.204c.426 0 .812-.185 1.157-.555.346-.37.645-.816.899-1.337.253-.52.457-1.058.613-1.614a9.888 9.888 0 0 0 .302-1.389l1.286-5.605a2.95 2.95 0 0 0-1.38.351c-.448.233-.87.55-1.267.948a8.573 8.573 0 0 0-1.095 1.368c-.333.512-.661 1.145-.982 1.897-.322.752-.549 1.413-.681 1.983a7.074 7.074 0 0 0-.199 1.606zm30.004-24.308c1.88 0 3.552.155 5.016.464 1.465.309 2.748.739 3.849 1.288 1.101.55 2.032 1.205 2.793 1.967a10.272 10.272 0 0 1 1.851 2.491c.473.898.816 1.852 1.029 2.859a14.85 14.85 0 0 1 .32 3.092c0 1.452-.161 3.024-.484 4.718-.323 1.694-.79 3.238-1.401 4.632a20.655 20.655 0 0 1-2.257 3.923 16.326 16.326 0 0 1-3.07 3.197 14.248 14.248 0 0 1-3.805 2.152c-1.384.524-2.877.786-4.48.786-.534 0-1.081-.041-1.638-.123a14.108 14.108 0 0 1-1.622-.335 15.597 15.597 0 0 1-1.485-.475 10.528 10.528 0 0 1-1.23-.546 1.19 1.19 0 0 1-.35-.167.687.687 0 0 1-.196-.229.879.879 0 0 1-.085-.326 5.555 5.555 0 0 1-.017-.493c0-1.906.048-3.859.144-5.857a67.66 67.66 0 0 1 .588-6.159c.296-2.107.723-3.968 1.28-5.582a19.185 19.185 0 0 1 2.219-4.47c.228-.333.962-.5 2.202-.5.979 0 1.681.356 2.107 1.068-.53.711-.973 1.503-1.33 2.376-.356.872-.656 1.73-.897 2.574a23.696 23.696 0 0 0-.605 2.763c-.31 1.928-.46 2.904-.449 2.927.035.023-.097 1.125-.397 3.306a51.674 51.674 0 0 0-.267 1.98c-.064.562-.11 1.055-.138 1.48-.029.425-.043.838-.043 1.24 0 .424.014.78.043 1.067.028.287.097.517.207.689a.907.907 0 0 0 .5.37c.225.075.527.112.907.112a8.098 8.098 0 0 0 3.28-.68 11.15 11.15 0 0 0 2.866-1.825c.874-.764 1.66-1.65 2.356-2.66.696-1.01 1.289-2.178 1.778-3.504a30.256 30.256 0 0 0 1.131-3.736c.265-1.165.397-2.287.397-3.366 0-1.331-.219-2.522-.656-3.572a7.497 7.497 0 0 0-1.839-2.669c-.788-.729-1.735-1.286-2.839-1.67-1.105-.385-2.319-.577-3.643-.577-.967 0-1.924.058-2.872.173-.949.116-1.828.295-2.639.537a9.107 9.107 0 0 0-2.137.927c-.615.376-1.078.824-1.388 1.343-.84 1.305-1.529 2.313-2.069 3.024-.541.71-.995 1.065-1.362 1.065-.506 0-.759-.58-.759-1.741 0-1.127.146-2.138.44-3.035a8.164 8.164 0 0 1 1.224-2.388 7.792 7.792 0 0 1 1.862-1.775 10.854 10.854 0 0 1 2.362-1.207 14.135 14.135 0 0 1 2.733-.699 19.41 19.41 0 0 1 2.965-.224zm27.548 16.638a9.18 9.18 0 0 1 .75 2.112c.167.742.25 1.578.25 2.509a9.7 9.7 0 0 1-.224 2.052 10.586 10.586 0 0 1-.646 2 9.747 9.747 0 0 1-1.035 1.81 7.349 7.349 0 0 1-1.397 1.465 6.588 6.588 0 0 1-1.715.983 5.412 5.412 0 0 1-1.983.362c-1.011 0-1.876-.221-2.595-.663a5.548 5.548 0 0 1-1.767-1.733 7.688 7.688 0 0 1-1.009-2.414 11.805 11.805 0 0 1-.319-2.724c0-1.517.19-2.825.569-3.923.38-1.097.923-2.051 1.63-2.862a7.534 7.534 0 0 1 2.595-1.913c1.023-.466 2.172-.699 3.448-.699a9.1 9.1 0 0 1 3.069.509c.954.339 1.848.793 2.681 1.362a11.463 11.463 0 0 1 2.328 2.146c.718.863 1.387 1.684 2.008 2.466l-.327 2.431c-.311-.414-.73-.862-1.259-1.345a57.82 57.82 0 0 1-1.681-1.603 14.167 14.167 0 0 0-1.75-1.492 60.173 60.173 0 0 0-1.483-1.025l-.138.189zm-5.327 9.983c.39 0 .77-.198 1.138-.595.367-.396.689-.896.965-1.5.276-.603.497-1.333.664-2.19.167-.856.25-1.617.25-2.284a8.4 8.4 0 0 0-.121-1.474 4.512 4.512 0 0 0-.362-1.181 2.165 2.165 0 0 0-.621-.793 1.443 1.443 0 0 0-.913-.293c-.472 0-.92.201-1.345.603-.426.402-.799.917-1.121 1.543a9.353 9.353 0 0 0-.759 2.078c-.183.758-.275 1.615-.275 2.569 0 .482.046.936.138 1.362.091.425.235.796.431 1.112.195.316.454.569.775.758.322.19.707.285 1.156.285z" fill="#333" fill-rule="nonzero"/><path d="M161.801 185.823c-1.064 0-1.999-.195-2.803-.586a6.002 6.002 0 0 1-2.022-1.569 6.794 6.794 0 0 1-1.232-2.276 8.704 8.704 0 0 1-.416-2.689c0-.667.115-1.466.346-2.397.231-.931.483-1.744.754-2.44.272-.695.607-1.359 1.005-1.991a7.984 7.984 0 0 1 1.387-1.664 6.42 6.42 0 0 1 1.759-1.138 5.296 5.296 0 0 1 2.132-.422c.697 0 1.342.1 1.935.302a4.62 4.62 0 0 1 1.523.836c.422.356.752.779.991 1.267.238.489.357 1.014.357 1.578 0 .39-.056.775-.168 1.155-.112.379-.329.825-.653 1.336-.323.512-.637.859-.942 1.043-.304.184-.65.276-1.035.276-.582 0-.957-.144-1.127-.431-.278-.448-.366-.845-.263-1.19.034-.184.137-.609.309-1.276.023-.092.029-.298.017-.62 0-.276-.028-.506-.086-.69-.057-.184-.183-.276-.377-.276-.469 0-.87.112-1.202.336a3.055 3.055 0 0 0-.85.88c-.234.362-.466.873-.695 1.534a14.906 14.906 0 0 0-.489 1.664 8.28 8.28 0 0 0-.18 1.284c-.023.409-.035.751-.035 1.026 0 .414.038.845.112 1.293.074.449.223.86.446 1.233.223.374.512.684.867.931s.813.371 1.373.371c.552 0 1.161-.17 1.828-.509a12.927 12.927 0 0 0 2.009-1.284 18.44 18.44 0 0 0 1.922-1.707 22.42 22.42 0 0 0 1.569-1.759l1.19 2a22.508 22.508 0 0 1-2.793 3.293c-.426.414-.888.817-1.388 1.207-.5.391-1.023.739-1.569 1.043a9.35 9.35 0 0 1-1.707.742 5.885 5.885 0 0 1-1.799.284z" fill="#333" fill-rule="nonzero"/><path d="M175.216 185.823c-1.074 0-2.013-.199-2.818-.596a5.843 5.843 0 0 1-2.012-1.606 6.942 6.942 0 0 1-1.208-2.334 9.535 9.535 0 0 1-.402-2.782c0-.635.12-1.392.36-2.272.24-.879.489-1.659.746-2.339.257-.681.58-1.331.969-1.949a7.754 7.754 0 0 1 1.363-1.633 6.314 6.314 0 0 1 1.75-1.124c.646-.277 1.363-.416 2.152-.416a5.1 5.1 0 0 1 1.795.309 4.401 4.401 0 0 1 1.441.87c.409.373.728.824.958 1.352.23.528.345 1.119.345 1.774 0 .696-.233 1.477-.699 2.343a9.409 9.409 0 0 1-1.633 2.225 10.263 10.263 0 0 1-2.221 1.652c-.858.484-1.788.86-2.79 1.13.173.304.343.556.511.759.167.202.337.359.51.472.173.112.355.191.545.236.19.045.395.067.615.067.689 0 1.416-.135 2.181-.404a14.38 14.38 0 0 0 2.232-1.012 19.05 19.05 0 0 0 2.052-1.323c.644-.478 1.19-.93 1.638-1.357l2.224 2.259a22.915 22.915 0 0 1-3.224 2.858c-.494.355-1.026.705-1.595 1.048-.569.343-1.166.648-1.793.914-.626.267-1.276.48-1.948.64a8.859 8.859 0 0 1-2.044.239zm-2.302-8.211c.415 0 .868-.104 1.358-.312a6.154 6.154 0 0 0 1.368-.801c.421-.326.833-.764 1.237-1.315.404-.551.606-1.006.606-1.366 0-.505-.095-.921-.286-1.247-.19-.326-.424-.489-.701-.489-.496 0-.92.09-1.272.27a2.75 2.75 0 0 0-.882.699 3.595 3.595 0 0 0-.571.978c-.145.365-.312.818-.502 1.357-.191.54-.297.984-.321 1.332-.023.348-.034.646-.034.894z" fill="#333" fill-rule="nonzero"/><path d="M181.935 179.316a71.287 71.287 0 0 0 1.569-1.394 12.82 12.82 0 0 0 1.207-1.298c.402-.494.721-.898.956-1.212l.837-1.115c.321-.43.712-.956 1.172-1.577a93.411 93.411 0 0 1 1.793-2.327c.15-.209.316-.413.5-.61.184-.198.388-.375.612-.532.224-.156.472-.284.742-.383.27-.099.571-.148.905-.148.552 0 .978.061 1.276.183.299.122.518.27.656.444s.218.357.241.549c.023.192.035.357.035.497 0 .279-.11.587-.328.924-.218.336-.46.662-.724.976-.265.313-.515.601-.75.862-.236.262-.371.456-.406.584 0 .36.026.688.079.985.053.296.123.586.211.871.088.285.179.587.273.906.093.32.183.689.27 1.107.086.418.097.993.034 1.726a25.785 25.785 0 0 0-.095 2.213c.414-.279.859-.532 1.336-.758.477-.227.975-.462 1.492-.706a32.09 32.09 0 0 0 1.595-.81 13.117 13.117 0 0 0 1.646-1.072l.017 3.904a16.12 16.12 0 0 1-2.474 1.496c-.937.466-1.922.876-2.955 1.23a23.397 23.397 0 0 1-3.127.84 15.66 15.66 0 0 1-2.992.307c-.678 0-1.31-.06-1.896-.181a5.086 5.086 0 0 1-1.544-.569 3.21 3.21 0 0 1-1.077-1.014c-.276-.418-.443-.923-.5-1.517a3.501 3.501 0 0 1-.474.07 6.475 6.475 0 0 1-.457.017c-.184 0-.356-.006-.517-.017a.852.852 0 0 1-.414-.131.764.764 0 0 1-.276-.366c-.069-.168-.104-.409-.104-.723 0-.279.069-.538.207-.776.138-.238.299-.45.483-.636s.368-.348.552-.488a7.53 7.53 0 0 0 .414-.331zm2.151 2.231c.138 0 .291.087.457.261.167.174.359.366.578.575.218.209.471.401.758.575.288.175.615.262.983.262.448 0 .819-.076 1.112-.227.293-.151.526-.351.699-.601.172-.25.293-.54.362-.871.069-.331.103-.677.103-1.037 0-.314-.02-.633-.06-.959-.041-.325-.035-.729.017-1.211.052-.482.04-.854-.035-1.116-.074-.261-.14-.485-.198-.671l-4.776 5.02z" fill="#333" fill-rule="nonzero"/></svg>