<svg viewBox="0 0 647 324" xmlns="http://www.w3.org/2000/svg" fill-rule="evenodd" clip-rule="evenodd" stroke-linejoin="round" stroke-miterlimit="1.414"><path fill="#fff" d="M0 0h647v324H0z"/><g fill-rule="nonzero"><path d="M251.832 100.022c0 2.296-.364 4.403-1.091 6.32-.727 1.918-1.754 3.569-3.08 4.952s-2.92 2.456-4.78 3.219c-1.86.762-3.917 1.144-6.17 1.144s-4.306-.382-6.16-1.144c-1.853-.763-3.443-1.836-4.77-3.22-1.325-1.382-2.352-3.033-3.08-4.95-.726-1.918-1.09-4.025-1.09-6.32 0-2.296.364-4.403 1.09-6.32.728-1.918 1.755-3.572 3.08-4.963 1.327-1.39 2.917-2.47 4.77-3.24 1.854-.77 3.907-1.155 6.16-1.155s4.31.385 6.17 1.155c1.86.77 3.454 1.85 4.78 3.24 1.326 1.39 2.353 3.045 3.08 4.962.727 1.918 1.09 4.025 1.09 6.32zm-4.256 0c0-1.882-.257-3.571-.77-5.068-.514-1.498-1.24-2.763-2.182-3.797a9.466 9.466 0 0 0-3.422-2.384c-1.34-.557-2.837-.835-4.491-.835-1.64 0-3.13.278-4.47.835a9.568 9.568 0 0 0-3.433 2.384c-.948 1.034-1.679 2.3-2.192 3.797-.513 1.497-.77 3.186-.77 5.068 0 1.883.257 3.569.77 5.059.513 1.49 1.244 2.751 2.192 3.785a9.455 9.455 0 0 0 3.433 2.374c1.34.55 2.83.824 4.47.824 1.654 0 3.15-.275 4.491-.824a9.355 9.355 0 0 0 3.422-2.374c.941-1.034 1.668-2.295 2.182-3.785.513-1.49.77-3.176.77-5.059zm24.446-4.726c0 .27-.05.53-.15.78-.1.25-.228.475-.385.674l-11.72 15.613h11.827v2.973h-16.319v-1.583c0-.185.047-.403.14-.652a2.83 2.83 0 0 1 .395-.717l11.784-15.72h-11.656V93.67h16.084v1.626zm13.218-1.968c1.297 0 2.494.218 3.592.652a8.065 8.065 0 0 1 2.845 1.883c.798.82 1.422 1.832 1.871 3.037.45 1.204.674 2.577.674 4.117 0 .599-.064.998-.192 1.197-.129.2-.371.3-.728.3h-14.415c.029 1.369.214 2.56.556 3.572.342 1.012.813 1.857 1.412 2.534a5.656 5.656 0 0 0 2.139 1.518c.827.336 1.753.503 2.78.503.955 0 1.779-.11 2.47-.331.692-.221 1.287-.46 1.786-.717.5-.257.916-.495 1.251-.716.335-.221.624-.332.866-.332.314 0 .557.121.728.364l1.069 1.39a7.231 7.231 0 0 1-1.69 1.486 10.52 10.52 0 0 1-2.106 1.038 13.38 13.38 0 0 1-2.32.61c-.8.135-1.59.202-2.375.202-1.497 0-2.877-.253-4.138-.759a9.083 9.083 0 0 1-3.273-2.224c-.92-.977-1.636-2.185-2.15-3.625-.512-1.44-.77-3.094-.77-4.962 0-1.512.233-2.923.696-4.235.463-1.312 1.13-2.449 2-3.411.87-.963 1.932-1.719 3.186-2.267 1.255-.55 2.667-.824 4.235-.824zm.085 2.802c-1.84 0-3.287.531-4.342 1.593-1.055 1.063-1.71 2.535-1.968 4.417H290.8c0-.884-.121-1.693-.364-2.428a5.41 5.41 0 0 0-1.069-1.903 4.786 4.786 0 0 0-1.722-1.24c-.677-.293-1.45-.44-2.32-.44zm13.752 19.206V93.67h2.267c.542 0 .884.264 1.027.792l.3 2.352a12.177 12.177 0 0 1 3.154-2.523c1.162-.642 2.506-.963 4.031-.963 1.184 0 2.228.196 3.134.588a6.062 6.062 0 0 1 2.267 1.668c.606.72 1.066 1.587 1.38 2.6.313 1.011.47 2.13.47 3.357v13.795H313.3V101.54c0-1.64-.375-2.912-1.123-3.818-.749-.905-1.893-1.358-3.433-1.358a6.4 6.4 0 0 0-3.154.813c-.977.542-1.879 1.276-2.706 2.203v15.955h-3.807zm28.018-21.666v21.666h-3.807V93.67h3.807zm.855-6.801c0 .37-.075.717-.224 1.037-.15.321-.35.606-.6.856-.249.25-.537.445-.865.588a2.6 2.6 0 0 1-1.048.214c-.371 0-.717-.071-1.038-.214a2.82 2.82 0 0 1-.855-.588 2.82 2.82 0 0 1-.588-.856 2.525 2.525 0 0 1-.214-1.037 2.749 2.749 0 0 1 .802-1.936c.25-.25.535-.445.855-.588a2.537 2.537 0 0 1 1.038-.214c.37 0 .72.072 1.048.214.328.143.616.339.866.588.25.25.449.542.599.877.15.335.224.688.224 1.059zm18.864 24.981h13.26v3.486h-17.41V84.688h4.15v27.162zm21.473-18.18v21.666h-3.807V93.67h3.807zm.856-6.801c0 .37-.075.717-.225 1.037a3.01 3.01 0 0 1-.599.856c-.25.25-.538.445-.866.588a2.6 2.6 0 0 1-1.048.214 2.52 2.52 0 0 1-1.037-.214 2.82 2.82 0 0 1-.856-.588 2.82 2.82 0 0 1-.588-.856 2.525 2.525 0 0 1-.214-1.037 2.749 2.749 0 0 1 .802-1.936c.25-.25.535-.445.856-.588a2.53 2.53 0 0 1 1.037-.214c.37 0 .72.072 1.048.214.328.143.617.339.866.588.25.25.45.542.6.877.149.335.224.688.224 1.059zm5.86 28.467V93.67h2.267c.542 0 .884.264 1.027.792l.278 2.224a11.115 11.115 0 0 1 2.684-2.417c.99-.627 2.142-.94 3.454-.94 1.469 0 2.656.405 3.561 1.218.905.813 1.558 1.91 1.957 3.294a6.78 6.78 0 0 1 1.187-2.032 6.895 6.895 0 0 1 3.614-2.224 8.74 8.74 0 0 1 2.107-.257c1.14 0 2.157.182 3.048.545a6.034 6.034 0 0 1 2.267 1.594c.62.699 1.094 1.558 1.422 2.577.328 1.02.492 2.185.492 3.497v13.795h-3.807V101.54c0-1.697-.37-2.984-1.112-3.86-.741-.877-1.818-1.316-3.23-1.316-.627 0-1.222.11-1.785.332a4.303 4.303 0 0 0-1.487.973c-.428.428-.766.966-1.016 1.615-.25.648-.374 1.4-.374 2.256v13.795h-3.807V101.54c0-1.74-.35-3.037-1.048-3.893-.699-.855-1.718-1.283-3.058-1.283-.941 0-1.815.253-2.62.76-.806.506-1.544 1.194-2.214 2.063v16.148h-3.807zm51.031 0h-1.69c-.37 0-.67-.057-.898-.171-.228-.114-.378-.357-.45-.727l-.427-2.01a24.44 24.44 0 0 1-1.668 1.379 9.547 9.547 0 0 1-1.711 1.026 8.866 8.866 0 0 1-1.914.631 10.96 10.96 0 0 1-2.257.214 7.703 7.703 0 0 1-2.363-.353 5.395 5.395 0 0 1-1.914-1.062 5.069 5.069 0 0 1-1.294-1.793c-.321-.724-.481-1.58-.481-2.563 0-.859.235-1.686.705-2.48.47-.796 1.23-1.498 2.278-2.115 1.048-.616 2.42-1.119 4.117-1.511 1.697-.396 3.772-.592 6.224-.592v-1.7c0-1.693-.36-2.973-1.08-3.843-.72-.866-1.786-1.3-3.198-1.3-.926 0-1.707.117-2.341.352a8.864 8.864 0 0 0-1.647.791 28.99 28.99 0 0 0-1.198.792c-.335.235-.667.353-.995.353a1.14 1.14 0 0 1-.673-.204 1.548 1.548 0 0 1-.46-.502l-.685-1.22c1.198-1.154 2.489-2.017 3.872-2.587 1.383-.57 2.915-.856 4.598-.856 1.212 0 2.288.2 3.23.6.94.398 1.732.954 2.374 1.667.641.713 1.126 1.576 1.454 2.588.328 1.013.492 2.125.492 3.337v13.859zm-9.881-2.331c.67 0 1.283-.068 1.84-.203a7.26 7.26 0 0 0 1.571-.578 8.33 8.33 0 0 0 1.412-.909c.449-.356.887-.763 1.315-1.219v-4.47c-1.754 0-3.244.11-4.47.335-1.226.221-2.224.51-2.994.87s-1.33.78-1.68 1.269a2.746 2.746 0 0 0-.523 1.636c0 .574.092 1.066.278 1.483.185.417.435.756.748 1.023.314.264.685.46 1.113.58.427.122.89.183 1.39.183zm-184.811 23.098c1.298 0 2.496.218 3.594.653a8.065 8.065 0 0 1 2.844 1.882c.799.82 1.422 1.832 1.872 3.037.449 1.205.673 2.577.673 4.117 0 .599-.064.998-.192 1.198-.129.2-.37.299-.727.299H224.99c.029 1.369.214 2.56.556 3.572.343 1.012.813 1.857 1.412 2.534a5.656 5.656 0 0 0 2.139 1.519c.827.335 1.754.502 2.78.502.955 0 1.779-.11 2.47-.331.692-.221 1.287-.46 1.786-.717.5-.256.916-.495 1.251-.716.336-.221.624-.332.867-.332a.84.84 0 0 1 .727.364l1.07 1.39a7.231 7.231 0 0 1-1.69 1.487 10.52 10.52 0 0 1-2.107 1.037 13.38 13.38 0 0 1-2.32.61c-.8.135-1.59.203-2.375.203-1.497 0-2.876-.254-4.138-.76a9.083 9.083 0 0 1-3.272-2.224c-.92-.977-1.637-2.185-2.15-3.625-.513-1.44-.77-3.094-.77-4.962 0-1.512.232-2.923.695-4.235.464-1.312 1.13-2.449 2-3.411.87-.963 1.932-1.718 3.187-2.267 1.254-.55 2.666-.824 4.234-.824zm.086 2.802c-1.84 0-3.287.531-4.342 1.593-1.055 1.063-1.71 2.535-1.967 4.417h11.784c0-.884-.12-1.693-.363-2.427a5.41 5.41 0 0 0-1.07-1.904 4.786 4.786 0 0 0-1.721-1.24c-.678-.293-1.451-.439-2.321-.439zm26.157 1.112a.844.844 0 0 1-.791.47c-.214 0-.457-.078-.727-.235a17.126 17.126 0 0 0-.995-.523 9.34 9.34 0 0 0-1.4-.535c-.543-.164-1.184-.246-1.926-.246a5.68 5.68 0 0 0-1.732.246 4.16 4.16 0 0 0-1.315.674 2.98 2.98 0 0 0-.835.994 2.67 2.67 0 0 0-.288 1.23c0 .556.16 1.02.48 1.39.322.37.746.692 1.273.962.528.271 1.127.51 1.797.717.67.207 1.358.428 2.064.663.706.235 1.394.495 2.064.78a7.49 7.49 0 0 1 1.796 1.07c.528.428.952.952 1.273 1.572.32.62.481 1.365.481 2.235 0 .998-.178 1.921-.535 2.77a6.044 6.044 0 0 1-1.582 2.203c-.699.62-1.554 1.108-2.567 1.465-1.012.356-2.181.534-3.507.534-1.512 0-2.88-.246-4.107-.738-1.226-.491-2.267-1.122-3.122-1.892l.898-1.455c.114-.185.25-.328.406-.427.157-.1.364-.15.62-.15.257 0 .528.1.813.3.285.199.631.42 1.038.662.406.243.898.464 1.475.663.578.2 1.301.3 2.171.3.742 0 1.39-.097 1.946-.289.557-.192 1.02-.453 1.39-.78.371-.329.646-.706.824-1.134.178-.428.267-.884.267-1.369 0-.599-.16-1.094-.48-1.486-.322-.393-.746-.728-1.273-1.006a10.37 10.37 0 0 0-1.808-.727c-.677-.207-1.368-.424-2.074-.652a23.378 23.378 0 0 1-2.075-.78 7.293 7.293 0 0 1-1.807-1.102 4.99 4.99 0 0 1-1.273-1.636c-.32-.65-.48-1.437-.48-2.364 0-.827.17-1.622.512-2.384a5.848 5.848 0 0 1 1.498-2.01c.655-.578 1.461-1.038 2.416-1.38.956-.343 2.046-.514 3.273-.514 1.426 0 2.705.225 3.839.674a9.085 9.085 0 0 1 2.94 1.85l-.855 1.39zm20.939.278a1.7 1.7 0 0 1-.343.364c-.114.085-.278.128-.492.128-.213 0-.445-.089-.695-.267-.25-.178-.566-.374-.951-.588a7.968 7.968 0 0 0-1.401-.588c-.55-.179-1.223-.268-2.021-.268-1.056 0-1.99.19-2.802.567a5.434 5.434 0 0 0-2.043 1.636c-.549.713-.962 1.576-1.24 2.588s-.417 2.146-.417 3.4c0 1.312.15 2.478.449 3.498.3 1.019.72 1.874 1.262 2.566a5.384 5.384 0 0 0 1.978 1.583c.777.363 1.65.545 2.62.545.927 0 1.69-.11 2.289-.331.598-.221 1.097-.467 1.497-.738.399-.271.727-.517.983-.738.257-.221.514-.332.77-.332.328 0 .57.122.728.364l1.069 1.39a8.231 8.231 0 0 1-3.529 2.535 12.512 12.512 0 0 1-4.47.802c-1.354 0-2.613-.25-3.775-.749a8.607 8.607 0 0 1-3.026-2.17c-.856-.949-1.53-2.115-2.021-3.498-.492-1.383-.738-2.958-.738-4.726 0-1.612.224-3.102.674-4.47.449-1.37 1.105-2.55 1.967-3.54.863-.991 1.929-1.765 3.198-2.32 1.269-.557 2.723-.835 4.363-.835 1.511 0 2.851.246 4.02.738a9.624 9.624 0 0 1 3.102 2.085l-1.005 1.37zm5.196 17.816v-21.665h2.182c.414 0 .699.078.856.235.157.157.264.428.32.812l.257 3.38c.742-1.512 1.658-2.692 2.749-3.54 1.09-.848 2.37-1.272 3.839-1.272.598 0 1.14.067 1.625.203.485.135.934.324 1.347.566l-.491 2.845c-.1.356-.321.535-.663.535-.2 0-.507-.068-.92-.203-.414-.136-.991-.204-1.733-.204-1.326 0-2.434.385-3.325 1.155s-1.636 1.89-2.235 3.358v13.795h-3.807zm21.474-21.665v21.665h-3.807v-21.665h3.807zm.855-6.802c0 .371-.074.717-.224 1.038-.15.32-.35.606-.6.855-.249.25-.537.446-.865.588a2.6 2.6 0 0 1-1.048.214c-.371 0-.717-.071-1.038-.214a2.82 2.82 0 0 1-.855-.588 2.82 2.82 0 0 1-.588-.855 2.525 2.525 0 0 1-.214-1.038 2.749 2.749 0 0 1 .802-1.936c.25-.249.535-.445.855-.587a2.521 2.521 0 0 1 1.038-.214c.37 0 .72.07 1.048.214.328.142.616.338.866.588.25.25.45.541.599.877.15.335.224.688.224 1.058zm12.427 28.809c-1.711 0-3.027-.477-3.946-1.433-.92-.955-1.38-2.33-1.38-4.127v-13.26h-2.61a.853.853 0 0 1-.577-.204c-.157-.135-.235-.346-.235-.63v-1.52l3.55-.449.877-6.694a.81.81 0 0 1 .278-.524.883.883 0 0 1 .6-.203h1.924v7.464h6.202v2.76h-6.202v13.003c0 .912.221 1.59.663 2.032.442.442 1.012.663 1.711.663.4 0 .745-.054 1.037-.16.293-.108.546-.225.76-.354.214-.128.395-.246.545-.352.15-.107.282-.16.396-.16.2 0 .378.12.534.363l1.113 1.818c-.656.613-1.448 1.094-2.374 1.443a8.061 8.061 0 0 1-2.866.524zm18.158-22.35c1.582 0 3.012.264 4.288.792 1.276.527 2.36 1.276 3.25 2.245.892.97 1.576 2.143 2.054 3.519.478 1.376.716 2.912.716 4.609 0 1.71-.238 3.25-.716 4.62-.478 1.368-1.162 2.537-2.053 3.507a8.929 8.929 0 0 1-3.251 2.235c-1.276.52-2.706.78-4.288.78-1.583 0-3.012-.26-4.289-.78a9.03 9.03 0 0 1-3.261-2.235c-.898-.97-1.59-2.139-2.075-3.508-.485-1.368-.727-2.908-.727-4.62 0-1.696.242-3.232.727-4.608.485-1.376 1.177-2.55 2.075-3.519a9.145 9.145 0 0 1 3.261-2.245c1.277-.528 2.706-.792 4.289-.792zm0 19.335c2.138 0 3.735-.717 4.79-2.15 1.056-1.433 1.583-3.432 1.583-5.999 0-2.58-.527-4.591-1.583-6.031-1.055-1.44-2.652-2.16-4.79-2.16-1.084 0-2.025.185-2.824.556a5.284 5.284 0 0 0-2 1.604c-.534.698-.933 1.557-1.197 2.577s-.396 2.17-.396 3.454c0 1.283.132 2.431.396 3.443.264 1.013.663 1.865 1.198 2.556a5.326 5.326 0 0 0 2 1.594c.798.37 1.739.556 2.823.556zm15.014 2.673v-21.665h2.181c.414 0 .699.078.856.235.157.157.264.428.32.812l.257 3.38c.742-1.512 1.658-2.692 2.749-3.54 1.09-.848 2.37-1.272 3.839-1.272.598 0 1.14.067 1.625.203.485.135.934.324 1.347.566l-.491 2.845c-.1.356-.321.535-.663.535-.2 0-.507-.068-.92-.203-.414-.136-.991-.204-1.732-.204-1.327 0-2.435.385-3.326 1.155s-1.636 1.89-2.235 3.358v13.795h-3.807zm32.338 0h-1.69c-.37 0-.67-.057-.898-.171-.228-.114-.378-.356-.45-.727l-.427-2.01c-.57.513-1.126.973-1.668 1.379a9.547 9.547 0 0 1-1.711 1.027 8.866 8.866 0 0 1-1.914.63 10.96 10.96 0 0 1-2.257.214 7.703 7.703 0 0 1-2.363-.353 5.395 5.395 0 0 1-1.914-1.062 5.069 5.069 0 0 1-1.294-1.793c-.321-.723-.482-1.579-.482-2.563 0-.859.236-1.686.706-2.48.47-.796 1.23-1.498 2.278-2.115 1.048-.616 2.42-1.119 4.117-1.51 1.697-.397 3.772-.593 6.224-.593v-1.7c0-1.693-.36-2.973-1.08-3.843-.72-.866-1.786-1.3-3.198-1.3-.926 0-1.707.117-2.342.352a8.864 8.864 0 0 0-1.646.792c-.464.292-.863.556-1.198.79-.335.236-.667.354-.995.354a1.14 1.14 0 0 1-.673-.203 1.548 1.548 0 0 1-.46-.503l-.685-1.22c1.198-1.154 2.489-2.017 3.872-2.587 1.383-.57 2.915-.855 4.598-.855 1.212 0 2.288.2 3.23.598.94.4 1.732.956 2.374 1.669.641.713 1.126 1.575 1.454 2.588.328 1.012.492 2.124.492 3.336v13.86zm-9.881-2.331c.67 0 1.283-.068 1.839-.203a7.26 7.26 0 0 0 1.572-.578 8.33 8.33 0 0 0 1.412-.909c.449-.356.887-.763 1.315-1.219v-4.47c-1.754 0-3.244.11-4.47.335-1.226.221-2.224.51-2.994.87s-1.33.78-1.68 1.269a2.746 2.746 0 0 0-.523 1.636c0 .574.092 1.066.278 1.483.185.417.435.756.748 1.023.314.264.685.46 1.113.581.427.121.89.182 1.39.182zm32.487-19.677c1.298 0 2.496.218 3.594.653a8.065 8.065 0 0 1 2.844 1.882c.799.82 1.422 1.832 1.872 3.037.449 1.205.673 2.577.673 4.117 0 .599-.064.998-.192 1.198-.129.2-.37.299-.727.299H400.24c.029 1.369.214 2.56.556 3.572.343 1.012.813 1.857 1.412 2.534a5.656 5.656 0 0 0 2.139 1.519c.827.335 1.754.502 2.78.502.955 0 1.779-.11 2.47-.331.692-.221 1.287-.46 1.786-.717.5-.256.916-.495 1.251-.716.336-.221.624-.332.867-.332a.84.84 0 0 1 .727.364l1.07 1.39a7.231 7.231 0 0 1-1.69 1.487 10.52 10.52 0 0 1-2.107 1.037 13.38 13.38 0 0 1-2.32.61c-.8.135-1.59.203-2.375.203-1.497 0-2.876-.254-4.138-.76a9.083 9.083 0 0 1-3.272-2.224c-.92-.977-1.637-2.185-2.15-3.625-.513-1.44-.77-3.094-.77-4.962 0-1.512.232-2.923.695-4.235.464-1.312 1.13-2.449 2-3.411.87-.963 1.932-1.718 3.187-2.267 1.254-.55 2.666-.824 4.234-.824zm.086 2.802c-1.84 0-3.287.531-4.342 1.593-1.055 1.063-1.71 2.535-1.967 4.417h11.784c0-.884-.12-1.693-.363-2.427a5.41 5.41 0 0 0-1.07-1.904 4.786 4.786 0 0 0-1.721-1.24c-.678-.293-1.451-.439-2.321-.439z" fill="#333"/><path d="M222.766 208.222v-29.001h2.267c.542 0 .884.263 1.027.791l.32 2.567a11.57 11.57 0 0 1 3.177-2.717c1.19-.684 2.563-1.026 4.117-1.026 1.24 0 2.367.239 3.379.716a6.967 6.967 0 0 1 2.588 2.118c.713.934 1.262 2.092 1.647 3.475s.577 2.973.577 4.77c0 1.596-.214 3.083-.641 4.459-.428 1.376-1.041 2.566-1.84 3.572a8.59 8.59 0 0 1-2.94 2.374c-1.163.577-2.47.866-3.925.866-1.34 0-2.485-.221-3.433-.663a7.735 7.735 0 0 1-2.513-1.882v9.581h-3.807zm9.646-26.306c-1.24 0-2.328.285-3.262.855-.934.57-1.793 1.376-2.577 2.417v10.48c.699.94 1.465 1.604 2.3 1.989.833.385 1.764.577 2.79.577 2.01 0 3.558-.72 4.641-2.16 1.084-1.44 1.626-3.493 1.626-6.16 0-1.411-.125-2.623-.374-3.635-.25-1.013-.61-1.843-1.08-2.492-.471-.649-1.048-1.123-1.733-1.422-.684-.3-1.461-.45-2.331-.45zm22.542-3.037c1.298 0 2.496.217 3.594.652a8.065 8.065 0 0 1 2.844 1.882c.799.82 1.422 1.832 1.871 3.037.45 1.205.674 2.577.674 4.117 0 .599-.064.998-.192 1.198-.129.2-.371.3-.727.3h-14.416c.029 1.368.214 2.559.556 3.57.343 1.013.813 1.858 1.412 2.535a5.656 5.656 0 0 0 2.139 1.519c.827.335 1.753.503 2.78.503.955 0 1.779-.111 2.47-.332.692-.221 1.287-.46 1.786-.716.5-.257.916-.496 1.251-.717.335-.221.624-.331.867-.331.313 0 .556.12.727.363l1.07 1.39a7.231 7.231 0 0 1-1.69 1.487 10.52 10.52 0 0 1-2.107 1.037 13.38 13.38 0 0 1-2.32.61c-.8.135-1.59.203-2.375.203-1.497 0-2.876-.253-4.138-.76a9.083 9.083 0 0 1-3.273-2.224c-.92-.977-1.636-2.185-2.149-3.625-.513-1.44-.77-3.094-.77-4.962 0-1.511.232-2.923.695-4.235.464-1.311 1.13-2.449 2-3.411.87-.962 1.932-1.718 3.187-2.267 1.254-.549 2.666-.823 4.234-.823zm.086 2.801c-1.84 0-3.287.531-4.342 1.594-1.055 1.062-1.71 2.534-1.967 4.416h11.784c0-.884-.121-1.693-.363-2.427a5.41 5.41 0 0 0-1.07-1.904 4.786 4.786 0 0 0-1.722-1.24c-.677-.293-1.45-.439-2.32-.439zm13.752 19.206v-21.665h2.182c.413 0 .698.078.855.235.157.157.264.428.321.813l.257 3.379c.741-1.511 1.657-2.691 2.748-3.54 1.09-.848 2.37-1.272 3.84-1.272.598 0 1.14.067 1.625.203.484.135.933.324 1.347.567l-.492 2.844c-.1.357-.32.535-.663.535-.2 0-.506-.068-.92-.203-.413-.136-.99-.203-1.732-.203-1.326 0-2.435.385-3.326 1.154-.891.77-1.636 1.89-2.235 3.358v13.795h-3.807zm29.643-18.094a.844.844 0 0 1-.791.471c-.214 0-.456-.078-.727-.235a16.48 16.48 0 0 0-.995-.524 9.34 9.34 0 0 0-1.4-.535c-.542-.164-1.184-.246-1.925-.246a5.68 5.68 0 0 0-1.733.246 4.16 4.16 0 0 0-1.315.674 2.98 2.98 0 0 0-.834.994 2.67 2.67 0 0 0-.289 1.23c0 .556.16 1.02.481 1.39.321.37.745.692 1.273.963.527.27 1.126.51 1.796.716.67.207 1.358.428 2.064.663.706.235 1.394.496 2.064.78a7.49 7.49 0 0 1 1.797 1.07c.527.428.951.952 1.272 1.572.321.62.481 1.365.481 2.235 0 .998-.178 1.922-.534 2.77a6.044 6.044 0 0 1-1.583 2.203c-.699.62-1.554 1.108-2.566 1.465-1.013.356-2.182.535-3.508.535-1.511 0-2.88-.246-4.106-.738-1.227-.492-2.267-1.123-3.123-1.893l.898-1.454a1.3 1.3 0 0 1 .407-.428c.157-.1.363-.15.62-.15s.527.1.813.3c.285.2.63.42 1.037.662.406.243.898.464 1.476.664.577.2 1.3.299 2.17.299.742 0 1.39-.096 1.947-.289.556-.192 1.02-.453 1.39-.78.37-.328.645-.706.823-1.134a3.51 3.51 0 0 0 .268-1.369c0-.599-.16-1.094-.481-1.486-.321-.392-.745-.727-1.273-1.005a10.37 10.37 0 0 0-1.807-.728 122.28 122.28 0 0 1-2.075-.652 23.378 23.378 0 0 1-2.074-.78 7.293 7.293 0 0 1-1.808-1.102 4.99 4.99 0 0 1-1.272-1.636c-.321-.649-.482-1.437-.482-2.364 0-.827.172-1.621.514-2.384a5.848 5.848 0 0 1 1.497-2.01c.656-.578 1.461-1.038 2.417-1.38.955-.342 2.046-.513 3.272-.513 1.426 0 2.706.224 3.84.673a9.085 9.085 0 0 1 2.94 1.85l-.856 1.39zm14.929-3.913c1.583 0 3.012.263 4.288.79 1.276.528 2.36 1.277 3.251 2.247s1.576 2.142 2.053 3.518c.478 1.376.717 2.912.717 4.609 0 1.71-.24 3.25-.717 4.62-.477 1.368-1.162 2.538-2.053 3.507a8.929 8.929 0 0 1-3.25 2.235c-1.277.52-2.706.78-4.29.78-1.582 0-3.011-.26-4.287-.78a9.03 9.03 0 0 1-3.262-2.235c-.898-.97-1.59-2.139-2.074-3.507-.485-1.37-.728-2.91-.728-4.62 0-1.697.243-3.233.728-4.61.484-1.375 1.176-2.548 2.074-3.517a9.145 9.145 0 0 1 3.262-2.246c1.276-.528 2.705-.791 4.288-.791zm0 19.334c2.139 0 3.736-.717 4.79-2.15 1.056-1.433 1.583-3.432 1.583-5.999 0-2.58-.527-4.591-1.582-6.031-1.055-1.44-2.652-2.16-4.791-2.16-1.084 0-2.025.185-2.823.556a5.284 5.284 0 0 0-2 1.604c-.535.699-.934 1.558-1.198 2.577-.263 1.02-.395 2.171-.395 3.454 0 1.283.132 2.431.395 3.444.264 1.012.663 1.864 1.198 2.555a5.326 5.326 0 0 0 2 1.594c.798.37 1.74.556 2.823.556zm15.014 2.673v-21.665h2.267c.542 0 .884.263 1.027.791l.3 2.353a12.177 12.177 0 0 1 3.154-2.524c1.162-.642 2.506-.962 4.031-.962 1.184 0 2.228.196 3.134.588a6.062 6.062 0 0 1 2.267 1.668c.606.72 1.066 1.586 1.38 2.598.313 1.013.47 2.132.47 3.358v13.795H342.6v-13.795c0-1.64-.375-2.912-1.123-3.817-.749-.906-1.893-1.358-3.433-1.358a6.4 6.4 0 0 0-3.154.812c-.977.542-1.879 1.276-2.706 2.203v15.955h-3.807zm39.695 0h-1.69c-.37 0-.67-.057-.897-.17-.229-.115-.378-.357-.45-.728l-.427-2.01c-.57.513-1.127.973-1.669 1.38a9.547 9.547 0 0 1-1.71 1.026 8.866 8.866 0 0 1-1.915.63c-.677.143-1.43.215-2.256.215a7.703 7.703 0 0 1-2.364-.353 5.395 5.395 0 0 1-1.914-1.063 5.069 5.069 0 0 1-1.294-1.793c-.32-.723-.48-1.579-.48-2.563 0-.859.234-1.686.705-2.48.47-.795 1.23-1.498 2.278-2.114 1.048-.617 2.42-1.12 4.117-1.512 1.697-.395 3.771-.591 6.224-.591v-1.7c0-1.694-.36-2.974-1.08-3.843-.72-.867-1.786-1.301-3.198-1.301-.927 0-1.707.117-2.342.352a8.864 8.864 0 0 0-1.647.792c-.463.292-.862.556-1.197.791-.336.235-.667.353-.995.353a1.14 1.14 0 0 1-.674-.203 1.548 1.548 0 0 1-.46-.503l-.684-1.219c1.198-1.155 2.488-2.017 3.871-2.588 1.383-.57 2.916-.855 4.599-.855 1.212 0 2.288.2 3.23.599.94.399 1.732.955 2.373 1.668.642.713 1.127 1.575 1.454 2.588.328 1.012.492 2.124.492 3.336v13.86zm-9.88-2.33c.67 0 1.283-.069 1.839-.204a7.26 7.26 0 0 0 1.572-.578 8.33 8.33 0 0 0 1.411-.909c.45-.356.888-.762 1.316-1.219v-4.47c-1.754 0-3.244.11-4.47.335-1.227.221-2.225.51-2.995.87s-1.33.78-1.679 1.27a2.746 2.746 0 0 0-.524 1.635c0 .574.093 1.066.278 1.483.186.417.435.756.749 1.023.314.264.684.46 1.112.581a5.09 5.09 0 0 0 1.39.182zm16.083-29.174h3.807v31.504h-3.807zM235.17 225.568a.844.844 0 0 1-.79.47c-.214 0-.457-.078-.728-.235-.27-.157-.602-.332-.994-.524a9.34 9.34 0 0 0-1.401-.535c-.542-.164-1.184-.246-1.925-.246a5.68 5.68 0 0 0-1.732.246 4.16 4.16 0 0 0-1.316.674 2.98 2.98 0 0 0-.834.994 2.67 2.67 0 0 0-.289 1.23c0 .556.16 1.02.482 1.39.32.371.745.692 1.272.963.528.27 1.127.51 1.797.716.67.207 1.358.428 2.064.663.706.236 1.393.496 2.064.781a7.49 7.49 0 0 1 1.796 1.07 4.88 4.88 0 0 1 1.273 1.571c.32.62.481 1.366.481 2.235 0 .998-.178 1.922-.535 2.77a6.044 6.044 0 0 1-1.582 2.203c-.7.62-1.555 1.109-2.567 1.465-1.012.357-2.181.535-3.507.535-1.512 0-2.88-.246-4.107-.738-1.226-.492-2.267-1.123-3.123-1.893l.899-1.454c.114-.186.25-.328.406-.428.157-.1.364-.15.62-.15.257 0 .528.1.813.3.285.2.631.42 1.037.663a8.07 8.07 0 0 0 1.476.663c.578.2 1.301.3 2.171.3.741 0 1.39-.097 1.946-.29.556-.192 1.02-.452 1.39-.78.371-.328.646-.706.824-1.134.178-.428.267-.884.267-1.369 0-.598-.16-1.094-.481-1.486-.32-.392-.745-.727-1.273-1.005a10.37 10.37 0 0 0-1.807-.727c-.677-.207-1.369-.425-2.074-.653a23.378 23.378 0 0 1-2.075-.78 7.293 7.293 0 0 1-1.807-1.102 4.99 4.99 0 0 1-1.273-1.636c-.32-.649-.481-1.437-.481-2.363 0-.827.171-1.622.513-2.385a5.848 5.848 0 0 1 1.497-2.01c.656-.578 1.462-1.038 2.417-1.38.956-.342 2.046-.513 3.272-.513 1.426 0 2.706.224 3.84.673a9.085 9.085 0 0 1 2.94 1.85l-.855 1.39zm6.16 25.429v-29.001h2.268c.541 0 .884.264 1.026.791l.321 2.567c.927-1.127 1.985-2.032 3.176-2.716 1.19-.685 2.563-1.027 4.117-1.027 1.24 0 2.367.239 3.38.716a6.967 6.967 0 0 1 2.587 2.118c.713.934 1.262 2.092 1.647 3.475s.578 2.973.578 4.77c0 1.597-.214 3.083-.642 4.459-.428 1.376-1.04 2.567-1.84 3.572a8.59 8.59 0 0 1-2.94 2.374c-1.162.577-2.47.866-3.925.866-1.34 0-2.484-.221-3.432-.663a7.735 7.735 0 0 1-2.514-1.882v9.581h-3.807zm9.646-26.306c-1.24 0-2.327.285-3.261.855-.934.57-1.793 1.376-2.578 2.417v10.48c.7.941 1.466 1.604 2.3 1.989.834.385 1.764.577 2.79.577 2.011 0 3.558-.72 4.642-2.16 1.083-1.44 1.625-3.493 1.625-6.16 0-1.41-.124-2.623-.374-3.635-.25-1.013-.61-1.843-1.08-2.492-.47-.649-1.048-1.123-1.732-1.422-.685-.3-1.462-.45-2.332-.45zm18.201-2.695v21.666h-3.807v-21.666h3.807zm.856-6.801c0 .37-.075.716-.225 1.037-.15.32-.35.606-.599.855-.25.25-.538.446-.866.589a2.6 2.6 0 0 1-1.048.213c-.37 0-.716-.07-1.037-.213a2.82 2.82 0 0 1-.856-.589 2.82 2.82 0 0 1-.588-.855 2.525 2.525 0 0 1-.214-1.037 2.749 2.749 0 0 1 .802-1.936c.25-.25.535-.446.856-.588.32-.143.666-.214 1.037-.214.37 0 .72.071 1.048.214.328.142.617.339.866.588.25.25.45.542.6.877.149.335.224.688.224 1.059zm5.86 28.467v-21.666h2.181c.414 0 .7.078.856.235.157.157.264.428.32.813l.257 3.38c.742-1.512 1.658-2.692 2.749-3.54 1.09-.849 2.37-1.273 3.839-1.273.599 0 1.14.068 1.625.203.485.136.934.324 1.348.567l-.492 2.844c-.1.357-.321.535-.663.535-.2 0-.506-.068-.92-.203-.413-.136-.99-.203-1.732-.203-1.326 0-2.435.385-3.326 1.155s-1.636 1.889-2.235 3.358v13.795h-3.807zm21.473-21.666v21.666h-3.807v-21.666h3.807zm.856-6.801c0 .37-.075.716-.225 1.037-.15.32-.35.606-.599.855-.25.25-.538.446-.866.589a2.6 2.6 0 0 1-1.048.213c-.37 0-.717-.07-1.037-.213a2.82 2.82 0 0 1-.856-.589 2.82 2.82 0 0 1-.588-.855 2.525 2.525 0 0 1-.214-1.037 2.749 2.749 0 0 1 .802-1.936c.25-.25.535-.446.856-.588.32-.143.666-.214 1.037-.214.37 0 .72.071 1.048.214.328.142.617.339.866.588.25.25.45.542.599.877.15.335.225.688.225 1.059zm12.426 28.809c-1.711 0-3.027-.478-3.946-1.433-.92-.956-1.38-2.331-1.38-4.128v-13.26h-2.61a.853.853 0 0 1-.577-.204c-.156-.135-.235-.345-.235-.63v-1.519l3.55-.45.877-6.693a.81.81 0 0 1 .278-.524.883.883 0 0 1 .6-.204h1.924v7.465h6.203v2.759h-6.203v13.003c0 .913.221 1.59.663 2.032.442.442 1.013.663 1.711.663.4 0 .745-.053 1.038-.16.292-.107.545-.225.759-.353.214-.128.395-.246.545-.353.15-.107.282-.16.396-.16.2 0 .378.12.535.363l1.112 1.818c-.656.613-1.448 1.094-2.374 1.444a8.061 8.061 0 0 1-2.866.524z" fill="#5fa197"/></g></svg>