<svg viewBox="0 0 286 300" xmlns="http://www.w3.org/2000/svg" fill-rule="evenodd" clip-rule="evenodd" stroke-linecap="round" stroke-linejoin="round" stroke-miterlimit="1.5"><g transform="translate(-55.737 -68.981)"><path d="M27.667 33.736c-.933 1.875-2.469 3.245-4.451 4.236-.959.48-1.97.851-3.025 1.126a.402.402 0 0 1-.221.055c.05-.066.122-.073.183-.097a2.47 2.47 0 0 0 1.323-1.483c.488-1.416.426-2.811-.299-4.159-.369-.686-.813-1.339-1.124-2.051-.324-.741-.645-1.482-.768-2.277-.028-.183-.009-.366-.008-.566-.118.037-.16.118-.212.185-.568.737-.812 1.568-.87 2.449a6.728 6.728 0 0 0 .149 1.859c.01.045.018.091.022.137.002.017-.011.036-.023.071a.906.906 0 0 1-.318-.245c-.643-.669-.895-1.466-.94-2.328-.045-.857.108-1.693.398-2.506.428-1.197.342-2.38-.081-3.554-.378-1.046-1.088-1.887-2.051-2.561-.041-.028-.084-.054-.127-.08-.011-.007-.027-.006-.044-.01-.053.051-.005.099.012.143.922 2.509.122 5.232-2.22 6.67-.963.592-1.342.804-1.576.925-.022.011-.157.075-.336.171 0 0-.111.059-.214.119a5.048 5.048 0 0 0-.678.48 4.946 4.946 0 0 0-1.749 3.048 6.955 6.955 0 0 0 .073 2.644c.176.755.48 1.3.649 1.567.564.893 1.411 1.59 2.519 2.106.027.009.072.029.056.048-.041.049-.091.005-.137-.007-3.044-.673-5.808-1.816-7.991-3.896-1.63-1.553-2.476-3.413-2.577-5.546-.094-2.002.458-3.886 1.274-5.724.391-.882.895-1.716 1.352-2.57.682-1.274 1.169-2.605 1.349-4.016.159-1.249.04-2.461-.645-3.59-.024-.039-.072-.086-.034-.126.045-.047.112-.013.166.003a4.475 4.475 0 0 1 1.554.824c.942.757 1.522 1.716 1.902 2.779.537 1.502.664 3.049.601 4.615-.018.437-.055.873-.082 1.309-.003.049-.035.114.039.14.056.019.094-.028.131-.059.187-.155.326-.343.443-.543.362-.621.517-1.295.608-1.982.173-1.304.112-2.608-.068-3.905-.083-.603-.319-1.183-.439-1.784-.522-2.61-.599-5.216.11-7.81.614-2.248 1.802-4.208 3.698-5.802A13.392 13.392 0 0 1 15.582.463a.978.978 0 0 1 .12-.05c.011-.004.027.005.042.008.026.066-.028.112-.056.163-.905 1.632-1.372 3.368-1.492 5.179-.248 3.72 1.019 7.051 3.265 10.127a24.81 24.81 0 0 0 2.576 2.959c.067.066.122.149.249.191-.106-2.324.739-4.338 2.425-6.076.834-.86 1.818-1.561 2.903-2.148.053.06.024.097.01.133-.875 2.339-.898 4.709-.314 7.098.257 1.052.664 2.06 1.165 3.039 1.169 2.285 1.925 4.671 2.128 7.184.152 1.884-.069 3.722-.936 5.466z" fill="url(#_Linear1)" fill-rule="nonzero" transform="translate(135.628 67.23) scale(4.24963)" id="XMLID_13_"/><path d="M94.897 368.837c1.769 0 3.027-.785 3.809-2.03l-1.498-1.015c-.5.785-1.15 1.353-2.34 1.353-1.67 0-2.812-1.313-2.842-3.032-.03-1.719 1.067-3.005 2.736-3.005 1.056 0 1.804.501 2.25 1.205l1.435-1.029c-.853-1.286-2.054-1.881-3.715-1.881-2.644 0-4.703 1.99-4.655 4.71.047 2.721 2.176 4.724 4.82 4.724zm9.565 0c2.653 0 4.73-2.003 4.682-4.724-.047-2.72-2.194-4.724-4.847-4.724-2.653 0-4.73 2.004-4.682 4.724.048 2.721 2.194 4.724 4.847 4.724zm-.03-1.692c-1.678 0-2.838-1.313-2.868-3.032-.03-1.719 1.084-3.032 2.763-3.032 1.678 0 2.838 1.313 2.868 3.032.03 1.72-1.084 3.032-2.762 3.032zm6.408 1.57h6.064l-.03-1.664h-4.168l-.132-7.54h-1.895l.16 9.204zm7.589 0h6.28l-.029-1.664h-4.385l-.023-1.327h3.7l-.029-1.624h-3.7l-.05-2.924h4.195l-.029-1.665h-6.09l.16 9.204zm10.143 0h1.895l-.132-7.539h2.626l-.029-1.665h-7.147l.03 1.665h2.625l.132 7.54zm5.795-9.204h1.895l.16 9.204h-1.895zm7.525 9.286h.19l3.871-9.286h-1.84l-1.482 3.546c-.338.8-.667 2.085-.667 2.085s-.393-1.3-.758-2.085l-1.641-3.546h-2.03l4.357 9.286zm9.106.04c2.653 0 4.73-2.003 4.682-4.724-.047-2.72-2.194-4.724-4.847-4.724-2.653 0-4.73 2.004-4.682 4.724.048 2.721 2.194 4.724 4.847 4.724zm-.03-1.692c-1.678 0-2.838-1.313-2.868-3.032-.03-1.719 1.084-3.032 2.763-3.032 1.678 0 2.838 1.313 2.868 3.032.03 1.72-1.084 3.032-2.762 3.032zm9.395 1.57h2.833c2.843 0 4.813-1.881 4.766-4.602-.048-2.72-2.102-4.602-4.926-4.602h-2.834l.16 9.204zm1.866-1.664l-.103-5.875h.84c2.048 0 2.998 1.218 3.028 2.937.03 1.72-.878 2.938-2.926 2.938h-.84zm7.411 1.664h6.28l-.03-1.664h-4.385l-.023-1.327h3.69l-.028-1.624h-3.69l-.051-2.924h4.196l-.03-1.665h-6.09l.16 9.204zm11.026 0h2.834c2.842 0 4.813-1.881 4.765-4.602-.047-2.72-2.101-4.602-4.926-4.602h-2.833l.16 9.204zm1.866-1.664l-.102-5.875h.839c2.048 0 3 1.218 3.03 2.937.03 1.72-.88 2.938-2.927 2.938h-.84zm7.411 1.664h6.28l-.029-1.664h-4.385l-.023-1.327h3.69l-.028-1.624h-3.69l-.052-2.924h4.196l-.029-1.665h-6.09l.16 9.204zm10.758.122c1.805 0 3.124-.934 3.095-2.64-.028-1.583-.943-2.287-2.57-2.977l-.473-.203c-.818-.352-1.174-.582-1.184-1.15-.008-.46.338-.813.888-.813.542 0 .898.23 1.233.812l1.463-.947c-.642-1.097-1.515-1.516-2.725-1.516-1.687 0-2.751 1.083-2.726 2.504.027 1.543.942 2.274 2.324 2.856l.472.203c.873.379 1.392.61 1.403 1.259.01.541-.48.934-1.265.934-.938 0-1.47-.487-1.888-1.15l-1.527.893c.57 1.096 1.72 1.935 3.48 1.935zm4.619-.122h6.28l-.029-1.664h-4.386l-.023-1.327h3.691l-.028-1.624h-3.691l-.051-2.924h4.196l-.03-1.665h-6.09l.16 9.204zm15.414.082h.19l-.163-9.286h-1.769l.068 3.858c.01.636.146 1.678.146 1.678s-.646-.839-1.105-1.259l-4.714-4.358h-.19l.163 9.285h1.768l-.067-3.857c-.012-.664-.165-1.679-.165-1.679s.656.826 1.123 1.26l4.715 4.358zm5.631 0h.189l3.872-9.286h-1.841l-1.481 3.546c-.338.8-.668 2.085-.668 2.085s-.384-1.3-.75-2.085l-1.65-3.546h-2.03l4.359 9.286zm9.115.04c2.652 0 4.729-2.003 4.681-4.724-.047-2.72-2.194-4.724-4.847-4.724-2.653 0-4.73 2.004-4.682 4.724.048 2.721 2.194 4.724 4.847 4.724zm-.03-1.692c-1.679 0-2.839-1.313-2.869-3.032-.03-1.719 1.084-3.032 2.763-3.032 1.678 0 2.838 1.313 2.868 3.032.03 1.72-1.084 3.032-2.762 3.032zm6.398 1.57h6.064l-.029-1.664h-4.17l-.13-7.54h-1.896l.161 9.204zm9.558.082h.19l3.87-9.286h-1.84l-1.481 3.546c-.338.8-.668 2.085-.668 2.085s-.383-1.3-.749-2.085l-1.65-3.546h-2.03l4.358 9.286zm5.467-.082h6.28l-.029-1.664h-4.385l-.024-1.327h3.7l-.028-1.624h-3.7l-.05-2.924h4.195l-.029-1.665h-6.091l.16 9.204zm8.04 0h2.833c2.843 0 4.813-1.881 4.766-4.602-.048-2.72-2.102-4.602-4.926-4.602h-2.834l.16 9.204zm1.866-1.664l-.103-5.875h.84c2.048 0 2.999 1.218 3.029 2.937.03 1.72-.878 2.938-2.927 2.938h-.84zm11.861 1.786c2.653 0 4.73-2.003 4.682-4.724-.047-2.72-2.194-4.724-4.847-4.724-2.653 0-4.73 2.004-4.682 4.724.048 2.721 2.194 4.724 4.847 4.724zm-.03-1.692c-1.678 0-2.838-1.313-2.868-3.032-.03-1.719 1.085-3.032 2.763-3.032s2.838 1.313 2.868 3.032c.03 1.72-1.084 3.032-2.762 3.032zm11.24-1.299c1.128-.515 1.753-1.421 1.728-2.856-.04-2.247-1.604-3.479-4.176-3.479h-2.545l.161 9.204h1.895l-.04-2.287h.65c.171 0 .36-.014.54-.04l1.557 2.327h2.193l-1.963-2.87zm-3.006-1.07l-.063-3.6h.596c1.516 0 2.229.514 2.252 1.814.022 1.3-.646 1.787-2.19 1.787h-.595zm6.485 3.939h6.28l-.028-1.664h-4.386l-.023-1.327h3.69l-.028-1.624h-3.69l-.052-2.924h4.196l-.029-1.665h-6.09l.16 9.204zm10.759.122c1.804 0 3.124-.934 3.094-2.64-.028-1.583-.943-2.287-2.57-2.977l-.473-.203c-.818-.352-1.174-.582-1.184-1.15-.008-.46.338-.813.888-.813.542 0 .898.23 1.233.812l1.463-.947c-.642-1.097-1.515-1.516-2.724-1.516-1.688 0-2.752 1.083-2.727 2.504.027 1.543.942 2.274 2.324 2.856l.473.203c.873.379 1.39.61 1.402 1.259.01.541-.48.934-1.265.934-.938 0-1.47-.487-1.888-1.15l-1.527.893c.57 1.096 1.72 1.935 3.48 1.935z" fill="none"/><path d="M94.897 368.837c1.769 0 3.027-.785 3.809-2.03l-1.498-1.015c-.5.785-1.15 1.353-2.34 1.353-1.67 0-2.812-1.313-2.842-3.032-.03-1.719 1.067-3.005 2.736-3.005 1.056 0 1.804.501 2.25 1.205l1.435-1.029c-.853-1.286-2.054-1.881-3.715-1.881-2.644 0-4.703 1.99-4.655 4.71.047 2.721 2.176 4.724 4.82 4.724zm9.565 0c2.653 0 4.73-2.003 4.682-4.724-.047-2.72-2.194-4.724-4.847-4.724-2.653 0-4.73 2.004-4.682 4.724.048 2.721 2.194 4.724 4.847 4.724zm-.03-1.692c-1.678 0-2.838-1.313-2.868-3.032-.03-1.719 1.084-3.032 2.763-3.032 1.678 0 2.838 1.313 2.868 3.032.03 1.72-1.084 3.032-2.762 3.032zm6.408 1.57h6.064l-.03-1.664h-4.168l-.132-7.54h-1.895l.16 9.204zm7.589 0h6.28l-.029-1.664h-4.385l-.023-1.327h3.7l-.029-1.624h-3.7l-.05-2.924h4.195l-.029-1.665h-6.09l.16 9.204zm10.143 0h1.895l-.132-7.539h2.626l-.029-1.665h-7.147l.03 1.665h2.625l.132 7.54zm5.795-9.204h1.895l.16 9.204h-1.895zm7.525 9.286h.19l3.871-9.286h-1.84l-1.482 3.546c-.338.8-.667 2.085-.667 2.085s-.393-1.3-.758-2.085l-1.641-3.546h-2.03l4.357 9.286zm9.106.04c2.653 0 4.73-2.003 4.682-4.724-.047-2.72-2.194-4.724-4.847-4.724-2.653 0-4.73 2.004-4.682 4.724.048 2.721 2.194 4.724 4.847 4.724zm-.03-1.692c-1.678 0-2.838-1.313-2.868-3.032-.03-1.719 1.084-3.032 2.763-3.032 1.678 0 2.838 1.313 2.868 3.032.03 1.72-1.084 3.032-2.762 3.032zm9.395 1.57h2.833c2.843 0 4.813-1.881 4.766-4.602-.048-2.72-2.102-4.602-4.926-4.602h-2.834l.16 9.204zm1.866-1.664l-.103-5.875h.84c2.048 0 2.998 1.218 3.028 2.937.03 1.72-.878 2.938-2.926 2.938h-.84zm7.411 1.664h6.28l-.03-1.664h-4.385l-.023-1.327h3.69l-.028-1.624h-3.69l-.051-2.924h4.196l-.03-1.665h-6.09l.16 9.204zm11.026 0h2.834c2.842 0 4.813-1.881 4.765-4.602-.047-2.72-2.101-4.602-4.926-4.602h-2.833l.16 9.204zm1.866-1.664l-.102-5.875h.839c2.048 0 3 1.218 3.03 2.937.03 1.72-.88 2.938-2.927 2.938h-.84zm7.411 1.664h6.28l-.029-1.664h-4.385l-.023-1.327h3.69l-.028-1.624h-3.69l-.052-2.924h4.196l-.029-1.665h-6.09l.16 9.204zm10.758.122c1.805 0 3.124-.934 3.095-2.64-.028-1.583-.943-2.287-2.57-2.977l-.473-.203c-.818-.352-1.174-.582-1.184-1.15-.008-.46.338-.813.888-.813.542 0 .898.23 1.233.812l1.463-.947c-.642-1.097-1.515-1.516-2.725-1.516-1.687 0-2.751 1.083-2.726 2.504.027 1.543.942 2.274 2.324 2.856l.472.203c.873.379 1.392.61 1.403 1.259.01.541-.48.934-1.265.934-.938 0-1.47-.487-1.888-1.15l-1.527.893c.57 1.096 1.72 1.935 3.48 1.935zm4.619-.122h6.28l-.029-1.664h-4.386l-.023-1.327h3.691l-.028-1.624h-3.691l-.051-2.924h4.196l-.03-1.665h-6.09l.16 9.204zm15.414.082h.19l-.163-9.286h-1.769l.068 3.858c.01.636.146 1.678.146 1.678s-.646-.839-1.105-1.259l-4.714-4.358h-.19l.163 9.285h1.768l-.067-3.857c-.012-.664-.165-1.679-.165-1.679s.656.826 1.123 1.26l4.715 4.358zm5.631 0h.189l3.872-9.286h-1.841l-1.481 3.546c-.338.8-.668 2.085-.668 2.085s-.384-1.3-.75-2.085l-1.65-3.546h-2.03l4.359 9.286zm9.115.04c2.652 0 4.729-2.003 4.681-4.724-.047-2.72-2.194-4.724-4.847-4.724-2.653 0-4.73 2.004-4.682 4.724.048 2.721 2.194 4.724 4.847 4.724zm-.03-1.692c-1.679 0-2.839-1.313-2.869-3.032-.03-1.719 1.084-3.032 2.763-3.032 1.678 0 2.838 1.313 2.868 3.032.03 1.72-1.084 3.032-2.762 3.032zm6.398 1.57h6.064l-.029-1.664h-4.17l-.13-7.54h-1.896l.161 9.204zm9.558.082h.19l3.87-9.286h-1.84l-1.481 3.546c-.338.8-.668 2.085-.668 2.085s-.383-1.3-.749-2.085l-1.65-3.546h-2.03l4.358 9.286zm5.467-.082h6.28l-.029-1.664h-4.385l-.024-1.327h3.7l-.028-1.624h-3.7l-.05-2.924h4.195l-.029-1.665h-6.091l.16 9.204zm8.04 0h2.833c2.843 0 4.813-1.881 4.766-4.602-.048-2.72-2.102-4.602-4.926-4.602h-2.834l.16 9.204zm1.866-1.664l-.103-5.875h.84c2.048 0 2.999 1.218 3.029 2.937.03 1.72-.878 2.938-2.927 2.938h-.84zm11.861 1.786c2.653 0 4.73-2.003 4.682-4.724-.047-2.72-2.194-4.724-4.847-4.724-2.653 0-4.73 2.004-4.682 4.724.048 2.721 2.194 4.724 4.847 4.724zm-.03-1.692c-1.678 0-2.838-1.313-2.868-3.032-.03-1.719 1.085-3.032 2.763-3.032s2.838 1.313 2.868 3.032c.03 1.72-1.084 3.032-2.762 3.032zm11.24-1.299c1.128-.515 1.753-1.421 1.728-2.856-.04-2.247-1.604-3.479-4.176-3.479h-2.545l.161 9.204h1.895l-.04-2.287h.65c.171 0 .36-.014.54-.04l1.557 2.327h2.193l-1.963-2.87zm-3.006-1.07l-.063-3.6h.596c1.516 0 2.229.514 2.252 1.814.022 1.3-.646 1.787-2.19 1.787h-.595zm6.485 3.939h6.28l-.028-1.664h-4.386l-.023-1.327h3.69l-.028-1.624h-3.69l-.052-2.924h4.196l-.029-1.665h-6.09l.16 9.204zm10.759.122c1.804 0 3.124-.934 3.094-2.64-.028-1.583-.943-2.287-2.57-2.977l-.473-.203c-.818-.352-1.174-.582-1.184-1.15-.008-.46.338-.813.888-.813.542 0 .898.23 1.233.812l1.463-.947c-.642-1.097-1.515-1.516-2.724-1.516-1.688 0-2.752 1.083-2.727 2.504.027 1.543.942 2.274 2.324 2.856l.473.203c.873.379 1.39.61 1.402 1.259.01.541-.48.934-1.265.934-.938 0-1.47-.487-1.888-1.15l-1.527.893c.57 1.096 1.72 1.935 3.48 1.935z" fill="#fff" fill-rule="nonzero"/><path d="M1469 944h7" fill="none" stroke="url(#_Linear2)" stroke-width=".03" transform="matrix(31.8977 0 0 1.05323 -46770.7 -640.42)"/><path d="M100.063 313.339H93.53c-.735 0-1.338-.182-1.81-.547a3.124 3.124 0 0 1-1.017-1.37l-3.393-9.267H68.492l-3.393 9.268c-.17.483-.496.923-.992 1.319-.49.402-1.094.597-1.804.597h-6.565l17.843-45.425h8.639l17.843 45.425zM70.66 296.187h14.48l-5.528-15.11a74.175 74.175 0 0 1-.836-2.369 62.63 62.63 0 0 1-.892-2.972 107.174 107.174 0 0 1-.867 2.985c-.283.923-.56 1.727-.83 2.418l-5.528 15.048zm33.644 27.676v-42.755h4.744c.502 0 .93.12 1.288.346.358.232.584.59.69 1.068l.629 2.984a16.433 16.433 0 0 1 4.473-3.613c1.69-.917 3.663-1.382 5.925-1.382 1.76 0 3.368.37 4.819 1.1 1.458.735 2.714 1.797 3.77 3.191 1.061 1.389 1.878 3.11 2.45 5.152.578 2.042.867 4.38.867 7.018 0 2.413-.327 4.643-.974 6.691-.647 2.055-1.577 3.833-2.783 5.34a12.794 12.794 0 0 1-4.367 3.538c-1.702.848-3.612 1.27-5.73 1.27-1.822 0-3.367-.277-4.636-.83a11.43 11.43 0 0 1-3.406-2.312v13.194h-7.759zm15.079-37.226c-1.615 0-2.99.34-4.134 1.024-1.137.679-2.2 1.64-3.186 2.871v14.45c.88 1.094 1.835 1.848 2.872 2.281a8.71 8.71 0 0 0 3.348.641c1.175 0 2.237-.22 3.186-.66.955-.44 1.759-1.105 2.419-2.01.66-.898 1.168-2.036 1.526-3.405.358-1.376.534-2.99.534-4.857 0-1.885-.15-3.48-.458-4.787-.302-1.313-.735-2.375-1.3-3.192-.566-.817-1.251-1.414-2.062-1.79-.804-.378-1.721-.566-2.745-.566zm34.21-6.032c2.406 0 4.593.39 6.547 1.163 1.96.779 3.631 1.878 5.013 3.298 1.382 1.426 2.45 3.167 3.204 5.215.754 2.054 1.131 4.348 1.131 6.88 0 2.557-.377 4.863-1.13 6.91-.755 2.055-1.823 3.802-3.205 5.247-1.382 1.445-3.053 2.557-5.013 3.33-1.954.779-4.14 1.162-6.547 1.162s-4.6-.383-6.566-1.162c-1.966-.773-3.65-1.885-5.045-3.33-1.388-1.445-2.469-3.192-3.235-5.246-.76-2.048-1.144-4.354-1.144-6.911 0-2.532.383-4.826 1.144-6.88.766-2.048 1.847-3.789 3.235-5.215 1.395-1.42 3.079-2.52 5.045-3.298 1.967-.773 4.16-1.163 6.566-1.163zm0 27.236c2.683 0 4.662-.898 5.95-2.701 1.288-1.797 1.935-4.436 1.935-7.917 0-3.474-.647-6.125-1.935-7.947s-3.267-2.733-5.95-2.733c-2.72 0-4.731.917-6.032 2.752-1.3 1.828-1.947 4.473-1.947 7.928 0 3.456.647 6.089 1.947 7.904 1.3 1.81 3.311 2.714 6.032 2.714zm22.461-41.183h7.76v46.68h-7.76zm17.026 0h7.76v46.68h-7.76zm30.284 13.947c2.406 0 4.592.39 6.546 1.163 1.96.779 3.632 1.878 5.014 3.298 1.382 1.426 2.45 3.167 3.204 5.215.754 2.054 1.131 4.348 1.131 6.88 0 2.557-.377 4.863-1.13 6.91-.755 2.055-1.823 3.802-3.205 5.247-1.382 1.445-3.054 2.557-5.014 3.33-1.954.779-4.14 1.162-6.546 1.162-2.407 0-4.6-.383-6.566-1.162-1.967-.773-3.65-1.885-5.045-3.33-1.389-1.445-2.47-3.192-3.236-5.246-.76-2.048-1.143-4.354-1.143-6.911 0-2.532.383-4.826 1.143-6.88.767-2.048 1.847-3.789 3.236-5.215 1.395-1.42 3.078-2.52 5.045-3.298 1.967-.773 4.16-1.163 6.566-1.163zm0 27.236c2.682 0 4.661-.898 5.95-2.701 1.287-1.797 1.934-4.436 1.934-7.917 0-3.474-.647-6.125-1.935-7.947s-3.267-2.733-5.95-2.733c-2.72 0-4.73.917-6.031 2.752-1.3 1.828-1.948 4.473-1.948 7.928 0 3.456.647 6.089 1.948 7.904 1.3 1.81 3.311 2.714 6.032 2.714zm52.806-1.319c1.634 0 3.092-.27 4.38-.817 1.288-.54 2.38-1.307 3.267-2.293.892-.98 1.57-2.174 2.042-3.581.47-1.401.71-2.972.71-4.712v-27.205h8.45v27.205c0 2.701-.433 5.202-1.307 7.495-.867 2.293-2.117 4.272-3.75 5.937-1.634 1.665-3.613 2.96-5.938 3.896-2.324.93-4.944 1.395-7.853 1.395-2.91 0-5.53-.465-7.854-1.395-2.325-.936-4.297-2.23-5.925-3.896-1.62-1.665-2.865-3.644-3.738-5.937-.867-2.293-1.3-4.794-1.3-7.495v-27.205h8.45v27.173c0 1.74.232 3.311.704 4.712.47 1.408 1.15 2.602 2.029 3.6a8.85 8.85 0 0 0 3.248 2.306c1.288.547 2.752.817 4.386.817zm38.357-16.555l-14.482-22.053h8.42c.584 0 1.01.082 1.268.239.264.157.503.415.71.766L320.78 285.6c.106-.27.22-.54.345-.798.126-.264.27-.527.44-.804l9.456-14.922c.458-.772 1.055-1.162 1.79-1.162h8.105l-14.639 21.707 15.047 23.718h-8.45c-.565 0-1.024-.145-1.37-.44a4.106 4.106 0 0 1-.86-1.005L320.12 294.49a5.57 5.57 0 0 1-.283.71c-.107.22-.207.421-.314.61l-10.084 16.084a5.23 5.23 0 0 1-.848.993c-.333.301-.754.452-1.257.452h-7.916l15.11-23.372z" fill="none"/><path d="M100.063 313.339H93.53c-.735 0-1.338-.182-1.81-.547a3.124 3.124 0 0 1-1.017-1.37l-3.393-9.267H68.492l-3.393 9.268c-.17.483-.496.923-.992 1.319-.49.402-1.094.597-1.804.597h-6.565l17.843-45.425h8.639l17.843 45.425zM70.66 296.187h14.48l-5.528-15.11a74.175 74.175 0 0 1-.836-2.369 62.63 62.63 0 0 1-.892-2.972 107.174 107.174 0 0 1-.867 2.985c-.283.923-.56 1.727-.83 2.418l-5.528 15.048zm33.644 27.676v-42.755h4.744c.502 0 .93.12 1.288.346.358.232.584.59.69 1.068l.629 2.984a16.433 16.433 0 0 1 4.473-3.613c1.69-.917 3.663-1.382 5.925-1.382 1.76 0 3.368.37 4.819 1.1 1.458.735 2.714 1.797 3.77 3.191 1.061 1.389 1.878 3.11 2.45 5.152.578 2.042.867 4.38.867 7.018 0 2.413-.327 4.643-.974 6.691-.647 2.055-1.577 3.833-2.783 5.34a12.794 12.794 0 0 1-4.367 3.538c-1.702.848-3.612 1.27-5.73 1.27-1.822 0-3.367-.277-4.636-.83a11.43 11.43 0 0 1-3.406-2.312v13.194h-7.759zm15.079-37.226c-1.615 0-2.99.34-4.134 1.024-1.137.679-2.2 1.64-3.186 2.871v14.45c.88 1.094 1.835 1.848 2.872 2.281a8.71 8.71 0 0 0 3.348.641c1.175 0 2.237-.22 3.186-.66.955-.44 1.759-1.105 2.419-2.01.66-.898 1.168-2.036 1.526-3.405.358-1.376.534-2.99.534-4.857 0-1.885-.15-3.48-.458-4.787-.302-1.313-.735-2.375-1.3-3.192-.566-.817-1.251-1.414-2.062-1.79-.804-.378-1.721-.566-2.745-.566zm34.21-6.032c2.406 0 4.593.39 6.547 1.163 1.96.779 3.631 1.878 5.013 3.298 1.382 1.426 2.45 3.167 3.204 5.215.754 2.054 1.131 4.348 1.131 6.88 0 2.557-.377 4.863-1.13 6.91-.755 2.055-1.823 3.802-3.205 5.247-1.382 1.445-3.053 2.557-5.013 3.33-1.954.779-4.14 1.162-6.547 1.162s-4.6-.383-6.566-1.162c-1.966-.773-3.65-1.885-5.045-3.33-1.388-1.445-2.469-3.192-3.235-5.246-.76-2.048-1.144-4.354-1.144-6.911 0-2.532.383-4.826 1.144-6.88.766-2.048 1.847-3.789 3.235-5.215 1.395-1.42 3.079-2.52 5.045-3.298 1.967-.773 4.16-1.163 6.566-1.163zm0 27.236c2.683 0 4.662-.898 5.95-2.701 1.288-1.797 1.935-4.436 1.935-7.917 0-3.474-.647-6.125-1.935-7.947s-3.267-2.733-5.95-2.733c-2.72 0-4.731.917-6.032 2.752-1.3 1.828-1.947 4.473-1.947 7.928 0 3.456.647 6.089 1.947 7.904 1.3 1.81 3.311 2.714 6.032 2.714zm22.461-41.183h7.76v46.68h-7.76zm17.026 0h7.76v46.68h-7.76zm30.284 13.947c2.406 0 4.592.39 6.546 1.163 1.96.779 3.632 1.878 5.014 3.298 1.382 1.426 2.45 3.167 3.204 5.215.754 2.054 1.131 4.348 1.131 6.88 0 2.557-.377 4.863-1.13 6.91-.755 2.055-1.823 3.802-3.205 5.247-1.382 1.445-3.054 2.557-5.014 3.33-1.954.779-4.14 1.162-6.546 1.162-2.407 0-4.6-.383-6.566-1.162-1.967-.773-3.65-1.885-5.045-3.33-1.389-1.445-2.47-3.192-3.236-5.246-.76-2.048-1.143-4.354-1.143-6.911 0-2.532.383-4.826 1.143-6.88.767-2.048 1.847-3.789 3.236-5.215 1.395-1.42 3.078-2.52 5.045-3.298 1.967-.773 4.16-1.163 6.566-1.163zm0 27.236c2.682 0 4.661-.898 5.95-2.701 1.287-1.797 1.934-4.436 1.934-7.917 0-3.474-.647-6.125-1.935-7.947s-3.267-2.733-5.95-2.733c-2.72 0-4.73.917-6.031 2.752-1.3 1.828-1.948 4.473-1.948 7.928 0 3.456.647 6.089 1.948 7.904 1.3 1.81 3.311 2.714 6.032 2.714zm52.806-1.319c1.634 0 3.092-.27 4.38-.817 1.288-.54 2.38-1.307 3.267-2.293.892-.98 1.57-2.174 2.042-3.581.47-1.401.71-2.972.71-4.712v-27.205h8.45v27.205c0 2.701-.433 5.202-1.307 7.495-.867 2.293-2.117 4.272-3.75 5.937-1.634 1.665-3.613 2.96-5.938 3.896-2.324.93-4.944 1.395-7.853 1.395-2.91 0-5.53-.465-7.854-1.395-2.325-.936-4.297-2.23-5.925-3.896-1.62-1.665-2.865-3.644-3.738-5.937-.867-2.293-1.3-4.794-1.3-7.495v-27.205h8.45v27.173c0 1.74.232 3.311.704 4.712.47 1.408 1.15 2.602 2.029 3.6a8.85 8.85 0 0 0 3.248 2.306c1.288.547 2.752.817 4.386.817zm38.357-16.555l-14.482-22.053h8.42c.584 0 1.01.082 1.268.239.264.157.503.415.71.766L320.78 285.6c.106-.27.22-.54.345-.798.126-.264.27-.527.44-.804l9.456-14.922c.458-.772 1.055-1.162 1.79-1.162h8.105l-14.639 21.707 15.047 23.718h-8.45c-.565 0-1.024-.145-1.37-.44a4.106 4.106 0 0 1-.86-1.005L320.12 294.49a5.57 5.57 0 0 1-.283.71c-.107.22-.207.421-.314.61l-10.084 16.084a5.23 5.23 0 0 1-.848.993c-.333.301-.754.452-1.257.452h-7.916l15.11-23.372z" fill="#fff" fill-rule="nonzero"/></g><defs><linearGradient id="_Linear1" x2="1" gradientUnits="userSpaceOnUse" gradientTransform="rotate(51.242 -8.59 16.678) scale(22.7836)"><stop offset="0" stop-color="#ffad73"/><stop offset="1" stop-color="#ff714c"/></linearGradient><linearGradient id="_Linear2" x2="1" gradientUnits="userSpaceOnUse" gradientTransform="matrix(7 0 0 0 1469 944)"><stop offset="0" stop-color="#ff5f6d"/><stop offset=".5" stop-color="#ff8a74"/><stop offset="1" stop-color="#feb47b"/></linearGradient></defs></svg>