<svg viewBox="0 0 200 200" xmlns="http://www.w3.org/2000/svg" fill-rule="evenodd" clip-rule="evenodd" stroke-linejoin="round" stroke-miterlimit="1.414"><path d="M41.687 101.117h6.9V90.914h13.354v-6.157h-13.35V73.665h14.68v-6.06h-21.58v33.512h-.004zm37.059.444c6.559 0 11.436-3.401 11.436-9.613 0-5.761-3.304-8.33-9.17-10.839l-1.724-.739c-2.961-1.284-4.242-2.117-4.242-4.189 0-1.676 1.284-2.957 3.304-2.957 1.972 0 3.252.84 4.436 2.957l5.369-3.45c-2.266-3.991-5.421-5.518-9.805-5.518-6.16 0-10.099 3.947-10.099 9.121 0 5.622 3.297 8.277 8.274 10.398l1.725.739c3.158 1.381 5.032 2.221 5.032 4.581 0 1.978-1.825 3.401-4.685 3.401-3.401 0-5.32-1.77-6.802-4.189l-5.616 3.256c2.02 3.991 6.16 7.045 12.563 7.045l.004-.004zm19.713-.145c2.221 0 4.14-1.725 4.14-4.189 0-2.419-1.922-4.144-4.14-4.144-2.267 0-4.189 1.725-4.189 4.14 0 2.464 1.922 4.186 4.189 4.186v.007z" fill="#333"/><path d="M116.547 101.561c6.109 0 10.298-3.252 10.298-10.397V67.605h-6.9v23.461c0 3.45-1.423 4.339-3.696 4.339-2.367 0-3.353-1.631-4.442-3.551l-5.612 3.401c1.624 3.454 4.824 6.31 10.349 6.31l.003-.004zm26.613 0c6.552 0 11.432-3.401 11.432-9.613 0-5.761-3.297-8.33-9.163-10.839l-1.728-.739c-2.96-1.284-4.241-2.117-4.241-4.189 0-1.676 1.284-2.957 3.297-2.957 1.978 0 3.256.84 4.443 2.957l5.369-3.45c-2.267-3.991-5.422-5.518-9.809-5.518-6.163 0-10.106 3.947-10.106 9.121 0 5.622 3.298 8.277 8.281 10.398l1.725.739c3.158 1.381 5.032 2.221 5.032 4.581 0 1.978-1.825 3.401-4.685 3.401-3.401 0-5.324-1.77-6.802-4.189l-5.616 3.256c2.02 3.991 6.16 7.045 12.564 7.045l.007-.004z" fill="#f8d473"/><path fill="#333" d="M41.687 106.94h111.325v.476H41.687z"/><path d="M7.354 114.475v3.885c0 .164-.022.318-.064.462a.95.95 0 0 1-.575.635 1.468 1.468 0 0 1-.559.094c-.085 0-.165-.006-.238-.017a1.333 1.333 0 0 1-.223-.053l.029-.487c.007-.049.027-.08.058-.093a.53.53 0 0 1 .184-.021c.09 0 .166-.009.228-.027a.328.328 0 0 0 .151-.088.351.351 0 0 0 .08-.159c.016-.066.024-.148.024-.246v-3.885h.905zm.135-1.096a.523.523 0 0 1-.047.22.605.605 0 0 1-.312.302.558.558 0 0 1-.448 0 .588.588 0 0 1-.304-.302.562.562 0 0 1 0-.447.592.592 0 0 1 .122-.183.588.588 0 0 1 .403-.168.59.59 0 0 1 .539.351.563.563 0 0 1 .047.227zm3.816 4.853h-.406a.448.448 0 0 1-.202-.038c-.048-.026-.085-.078-.109-.156l-.081-.267c-.095.085-.189.16-.28.225a1.69 1.69 0 0 1-.284.163 1.448 1.448 0 0 1-.311.099c-.11.022-.232.033-.367.033-.158 0-.305-.022-.439-.065a.943.943 0 0 1-.346-.193.855.855 0 0 1-.225-.319 1.136 1.136 0 0 1-.081-.445c0-.142.037-.282.112-.421.074-.138.198-.263.371-.374.174-.112.405-.204.693-.278.288-.073.645-.11 1.073-.11v-.222c0-.253-.053-.44-.16-.562-.106-.122-.26-.183-.463-.183a1.129 1.129 0 0 0-.621.167c-.072.042-.138.081-.199.115a.407.407 0 0 1-.202.051.258.258 0 0 1-.157-.047.37.37 0 0 1-.106-.117l-.165-.29a2.236 2.236 0 0 1 1.564-.593c.219 0 .415.036.588.108a1.244 1.244 0 0 1 .71.76c.062.178.093.374.093.586v2.373zm-1.758-.564c.093 0 .179-.008.257-.025a.962.962 0 0 0 .221-.076c.07-.034.137-.075.202-.124s.13-.108.196-.175v-.629c-.264 0-.484.017-.661.049-.177.034-.32.076-.427.128a.553.553 0 0 0-.229.181.404.404 0 0 0-.068.225c0 .159.047.274.141.343a.614.614 0 0 0 .368.103zm4.399.564h-.82l-1.495-3.757h.751c.066 0 .122.015.167.047a.244.244 0 0 1 .093.121l.725 2.007c.042.117.077.232.105.344.028.113.053.225.075.337.022-.112.047-.224.075-.337.028-.112.064-.227.108-.344l.743-2.007a.254.254 0 0 1 .25-.168h.714l-1.491 3.757zm4.97 0h-.406a.448.448 0 0 1-.202-.038c-.049-.026-.085-.078-.11-.156l-.08-.267c-.096.085-.189.16-.281.225a1.681 1.681 0 0 1-.283.163 1.456 1.456 0 0 1-.312.099c-.11.022-.232.033-.366.033-.159 0-.305-.022-.439-.065a.879.879 0 0 1-.572-.512 1.137 1.137 0 0 1-.08-.445c0-.142.037-.282.111-.421a1.06 1.06 0 0 1 .372-.374c.173-.112.404-.204.692-.278.288-.073.646-.11 1.073-.11v-.222c0-.253-.053-.44-.159-.562-.106-.122-.261-.183-.463-.183a1.12 1.12 0 0 0-.621.167l-.2.115a.406.406 0 0 1-.201.051.261.261 0 0 1-.158-.047.382.382 0 0 1-.106-.117l-.165-.29a2.239 2.239 0 0 1 1.564-.593c.22 0 .416.036.588.108.172.072.318.172.438.3.119.128.21.282.273.46.062.178.093.374.093.586v2.373zm-1.758-.564c.093 0 .178-.008.256-.025a.97.97 0 0 0 .222-.076c.07-.034.137-.075.201-.124.065-.049.13-.108.196-.175v-.629a3.8 3.8 0 0 0-.661.049 1.752 1.752 0 0 0-.426.128.547.547 0 0 0-.229.181.404.404 0 0 0-.068.225c0 .159.047.274.141.343a.614.614 0 0 0 .368.103zm4.878-2.461a.235.235 0 0 1-.076.082.199.199 0 0 1-.103.024.327.327 0 0 1-.141-.036c-.05-.025-.108-.052-.174-.083a1.619 1.619 0 0 0-.225-.082 1.058 1.058 0 0 0-.299-.037c-.178 0-.318.038-.421.114a.352.352 0 0 0-.154.296c0 .081.027.149.079.204a.7.7 0 0 0 .209.144c.086.042.185.079.295.112.11.033.222.069.337.108.114.039.227.084.337.134.109.05.208.113.294.19a.87.87 0 0 1 .209.277.869.869 0 0 1 .079.388c0 .181-.033.347-.099.5a1.101 1.101 0 0 1-.289.395 1.353 1.353 0 0 1-.471.26 2.01 2.01 0 0 1-.643.094c-.129 0-.256-.012-.379-.035a2.26 2.26 0 0 1-.355-.097 1.903 1.903 0 0 1-.315-.147 1.57 1.57 0 0 1-.255-.183l.209-.344a.307.307 0 0 1 .095-.095.269.269 0 0 1 .14-.033c.056 0 .109.016.159.047.05.032.108.066.174.103a1.049 1.049 0 0 0 .571.15.9.9 0 0 0 .277-.038.579.579 0 0 0 .19-.101.374.374 0 0 0 .11-.145.435.435 0 0 0 .035-.17.301.301 0 0 0-.079-.216.692.692 0 0 0-.209-.147 2.046 2.046 0 0 0-.296-.111 10.128 10.128 0 0 1-.341-.108 3.118 3.118 0 0 1-.341-.138 1.147 1.147 0 0 1-.296-.199.915.915 0 0 1-.209-.297 1.043 1.043 0 0 1-.079-.425c0-.154.031-.3.092-.439a1.04 1.04 0 0 1 .269-.365c.118-.103.266-.186.443-.249.177-.062.382-.093.614-.093.258 0 .494.043.707.128.212.086.389.198.531.337l-.206.326zm3.612.062a.47.47 0 0 1-.079.081.187.187 0 0 1-.112.029.249.249 0 0 1-.135-.042 4.082 4.082 0 0 0-.158-.095.997.997 0 0 0-.531-.138.941.941 0 0 0-.417.087.786.786 0 0 0-.299.247 1.111 1.111 0 0 0-.177.39c-.04.152-.059.325-.059.518 0 .2.021.378.064.535.043.156.104.287.185.393a.791.791 0 0 0 .293.242.887.887 0 0 0 .388.083.973.973 0 0 0 .35-.053 1.12 1.12 0 0 0 .225-.118c.061-.042.114-.081.16-.117a.24.24 0 0 1 .152-.053c.073 0 .128.028.164.084l.26.33a1.638 1.638 0 0 1-.69.485 1.864 1.864 0 0 1-.39.101 2.84 2.84 0 0 1-.399.029c-.232 0-.451-.043-.656-.13a1.528 1.528 0 0 1-.536-.379 1.815 1.815 0 0 1-.363-.61 2.354 2.354 0 0 1-.134-.822c0-.276.04-.532.119-.767.08-.236.196-.44.35-.612.154-.172.344-.307.571-.405.228-.097.489-.146.784-.146.281 0 .527.045.738.135.211.091.401.22.57.389l-.238.329zm.853 2.963v-3.757h.531c.093 0 .158.017.194.051.037.034.061.093.073.176l.055.454c.135-.232.292-.415.473-.55a.996.996 0 0 1 .608-.201c.185 0 .339.043.461.128l-.117.678c-.007.044-.023.075-.048.093a.16.16 0 0 1-.098.028.632.632 0 0 1-.151-.026.998.998 0 0 0-.252-.026.769.769 0 0 0-.484.156 1.196 1.196 0 0 0-.34.456v2.34h-.905zm3.956-3.757v3.757h-.905v-3.757h.905zm.135-1.096a.51.51 0 0 1-.048.22.585.585 0 0 1-.311.302.558.558 0 0 1-.449 0 .583.583 0 0 1-.304-.302.578.578 0 0 1 .304-.752.558.558 0 0 1 .449 0 .59.59 0 0 1 .311.305.547.547 0 0 1 .048.227zm.886 6.08v-4.984h.553c.059 0 .109.013.151.04a.188.188 0 0 1 .08.124l.073.348c.152-.173.326-.313.522-.421.197-.107.427-.161.691-.161.205 0 .392.043.562.128.17.086.316.209.439.372.124.162.219.362.286.601.067.238.101.51.101.818 0 .281-.038.541-.114.78a1.93 1.93 0 0 1-.324.623c-.14.176-.31.313-.509.412a1.48 1.48 0 0 1-.668.148c-.213 0-.393-.032-.541-.097a1.328 1.328 0 0 1-.397-.269v1.538h-.905zm1.758-4.34a.925.925 0 0 0-.481.119 1.393 1.393 0 0 0-.372.335v1.685a.873.873 0 0 0 .335.266c.121.05.251.075.39.075a.88.88 0 0 0 .372-.077.73.73 0 0 0 .282-.235c.077-.105.136-.237.178-.397a2.3 2.3 0 0 0 .062-.566c0-.22-.018-.406-.053-.558a1.086 1.086 0 0 0-.152-.372.604.604 0 0 0-.24-.209.749.749 0 0 0-.321-.066zm3.619 3.172c-.325 0-.575-.092-.751-.277-.176-.184-.264-.439-.264-.763v-2.099h-.381a.182.182 0 0 1-.126-.048c-.035-.031-.053-.079-.053-.142v-.359l.604-.099.191-1.026a.179.179 0 0 1 .068-.113.21.21 0 0 1 .133-.041h.469v1.183h.989v.645h-.989v2.036c0 .118.029.209.088.275a.297.297 0 0 0 .234.099.439.439 0 0 0 .141-.02.984.984 0 0 0 .174-.084.122.122 0 0 1 .066-.021.1.1 0 0 1 .066.021.275.275 0 0 1 .055.06l.271.44a1.4 1.4 0 0 1-.454.249 1.695 1.695 0 0 1-.531.084z" fill="#333" fill-rule="nonzero"/><path fill="#333" d="M39.928 112.79h.905v5.442h-.905z"/><path d="M42.817 114.475v3.757h-.904v-3.757h.904zm.136-1.096a.51.51 0 0 1-.048.22.602.602 0 0 1-.311.302.562.562 0 0 1-.449 0 .583.583 0 0 1-.304-.302.578.578 0 0 1 .304-.752.562.562 0 0 1 .449 0c.071.03.132.071.185.122a.603.603 0 0 1 .126.183.547.547 0 0 1 .048.227zm.897 4.853v-5.442h.905v2.146c.149-.159.317-.285.505-.379.188-.094.408-.141.659-.141.206 0 .393.042.563.126.169.085.316.207.439.368.123.162.219.36.286.597.067.237.101.509.101.817 0 .281-.038.541-.114.78a1.93 1.93 0 0 1-.324.623c-.14.176-.31.313-.509.412a1.481 1.481 0 0 1-.669.148c-.114 0-.219-.011-.315-.035a1.101 1.101 0 0 1-.478-.249 1.912 1.912 0 0 1-.192-.199l-.04.252c-.015.064-.04.109-.075.136a.235.235 0 0 1-.145.04h-.597zm1.758-3.113a.925.925 0 0 0-.481.119 1.378 1.378 0 0 0-.372.335v1.685a.866.866 0 0 0 .335.266c.121.05.252.075.394.075.136 0 .26-.026.37-.077a.74.74 0 0 0 .28-.235c.077-.105.136-.237.177-.397.042-.16.063-.349.063-.566 0-.22-.018-.406-.053-.558a1.106 1.106 0 0 0-.152-.372.604.604 0 0 0-.24-.209.749.749 0 0 0-.321-.066zm2.406 3.113v-3.757h.531c.093 0 .158.017.195.051.036.034.061.093.073.176l.055.454a1.8 1.8 0 0 1 .472-.55.998.998 0 0 1 .608-.201.79.79 0 0 1 .462.128l-.118.678c-.007.044-.023.075-.047.093a.166.166 0 0 1-.099.028.618.618 0 0 1-.15-.026 1.012 1.012 0 0 0-.253-.026.764.764 0 0 0-.483.156 1.198 1.198 0 0 0-.341.456v2.34h-.905zm5.831 0h-.406a.448.448 0 0 1-.202-.038c-.049-.026-.085-.078-.11-.156l-.08-.267c-.096.085-.189.16-.281.225a1.681 1.681 0 0 1-.283.163 1.456 1.456 0 0 1-.312.099c-.11.022-.232.033-.366.033-.159 0-.305-.022-.439-.065a.879.879 0 0 1-.572-.512 1.155 1.155 0 0 1-.08-.445c0-.142.037-.282.111-.421a1.06 1.06 0 0 1 .372-.374c.173-.112.404-.204.692-.278.288-.073.646-.11 1.073-.11v-.222c0-.253-.053-.44-.159-.562-.106-.122-.261-.183-.463-.183a1.12 1.12 0 0 0-.621.167l-.2.115a.406.406 0 0 1-.201.051.261.261 0 0 1-.158-.047.395.395 0 0 1-.106-.117l-.165-.29a2.239 2.239 0 0 1 1.564-.593c.22 0 .416.036.588.108.172.072.318.172.438.3.119.128.21.282.273.46.062.178.093.374.093.586v2.373zm-1.758-.564c.093 0 .178-.008.256-.025a.97.97 0 0 0 .222-.076c.07-.034.137-.075.201-.124.065-.049.131-.108.196-.175v-.629a3.8 3.8 0 0 0-.661.049 1.752 1.752 0 0 0-.426.128.547.547 0 0 0-.229.181.404.404 0 0 0-.068.225c0 .159.047.274.141.343a.614.614 0 0 0 .368.103zm2.648.564v-3.757h.531c.093 0 .158.017.194.051.037.034.061.093.073.176l.055.454c.135-.232.292-.415.473-.55a.996.996 0 0 1 .608-.201c.185 0 .339.043.461.128l-.117.678c-.007.044-.023.075-.047.093a.166.166 0 0 1-.099.028.632.632 0 0 1-.151-.026.998.998 0 0 0-.252-.026.769.769 0 0 0-.484.156 1.196 1.196 0 0 0-.34.456v2.34h-.905zm4.325 1.033a.338.338 0 0 1-.104.145c-.043.033-.108.049-.196.049h-.674l.703-1.505-1.52-3.479h.792c.073 0 .129.017.168.051a.34.34 0 0 1 .088.117l.802 1.948c.027.064.05.13.07.198.019.069.036.137.051.205.019-.071.041-.139.064-.205.023-.066.048-.133.075-.201l.755-1.945a.259.259 0 0 1 .097-.121.254.254 0 0 1 .152-.047h.725l-2.048 4.79zm5.223-.974c-.325 0-.575-.092-.751-.277-.175-.184-.263-.439-.263-.763v-2.099h-.381a.184.184 0 0 1-.127-.048c-.035-.031-.053-.079-.053-.142v-.359l.605-.099.19-1.026a.179.179 0 0 1 .068-.113.213.213 0 0 1 .133-.041h.469v1.183h.989v.645h-.989v2.036c0 .118.03.209.088.275a.3.3 0 0 0 .235.099.439.439 0 0 0 .141-.02 1.066 1.066 0 0 0 .174-.084.119.119 0 0 1 .065-.021.1.1 0 0 1 .066.021.275.275 0 0 1 .055.06l.271.44a1.4 1.4 0 0 1-.454.249 1.695 1.695 0 0 1-.531.084zm1.601-.059v-5.442h.904v2.091c.147-.139.308-.251.484-.337.176-.085.382-.128.619-.128.205 0 .387.035.545.104.159.07.292.168.398.293.106.126.187.276.241.451.055.174.083.367.083.577v2.391h-.905v-2.391c0-.23-.053-.408-.159-.533-.106-.126-.266-.189-.478-.189a.955.955 0 0 0-.44.106 1.597 1.597 0 0 0-.388.29v2.717h-.904zm7.109 0h-.407a.444.444 0 0 1-.201-.038c-.049-.026-.086-.078-.11-.156l-.081-.267c-.095.085-.189.16-.28.225a1.69 1.69 0 0 1-.284.163 1.448 1.448 0 0 1-.311.099c-.11.022-.232.033-.366.033-.159 0-.306-.022-.44-.065a.943.943 0 0 1-.346-.193.855.855 0 0 1-.225-.319 1.136 1.136 0 0 1-.081-.445c0-.142.037-.282.112-.421.074-.138.198-.263.372-.374.173-.112.404-.204.692-.278.288-.073.646-.11 1.073-.11v-.222c0-.253-.053-.44-.159-.562-.107-.122-.261-.183-.464-.183a1.129 1.129 0 0 0-.621.167c-.072.042-.138.081-.199.115a.407.407 0 0 1-.202.051.258.258 0 0 1-.157-.047.382.382 0 0 1-.106-.117l-.165-.29a2.236 2.236 0 0 1 1.564-.593c.22 0 .415.036.588.108a1.244 1.244 0 0 1 .71.76c.062.178.094.374.094.586v2.373zm-1.758-.564c.092 0 .178-.008.256-.025a.962.962 0 0 0 .221-.076c.07-.034.137-.075.202-.124s.13-.108.196-.175v-.629c-.264 0-.484.017-.661.049a1.776 1.776 0 0 0-.427.128.553.553 0 0 0-.229.181.404.404 0 0 0-.068.225c0 .159.047.274.141.343a.615.615 0 0 0 .369.103zm3.882.623c-.325 0-.575-.092-.751-.277-.176-.184-.264-.439-.264-.763v-2.099h-.381a.182.182 0 0 1-.126-.048c-.035-.031-.053-.079-.053-.142v-.359l.604-.099.191-1.026a.177.177 0 0 1 .067-.113.216.216 0 0 1 .134-.041h.469v1.183h.989v.645h-.989v2.036c0 .118.029.209.088.275a.297.297 0 0 0 .234.099.439.439 0 0 0 .141-.02.984.984 0 0 0 .174-.084.122.122 0 0 1 .066-.021.1.1 0 0 1 .066.021.302.302 0 0 1 .055.06l.271.44a1.4 1.4 0 0 1-.454.249 1.695 1.695 0 0 1-.531.084zm5.655-3.022a.47.47 0 0 1-.079.081.187.187 0 0 1-.112.029.249.249 0 0 1-.135-.042 4.082 4.082 0 0 0-.158-.095.997.997 0 0 0-.531-.138.941.941 0 0 0-.417.087.779.779 0 0 0-.299.247 1.13 1.13 0 0 0-.178.39 2.093 2.093 0 0 0-.058.518c0 .2.021.378.064.535.043.156.104.287.185.393.08.107.178.187.293.242a.887.887 0 0 0 .388.083.973.973 0 0 0 .35-.053 1.12 1.12 0 0 0 .225-.118c.061-.042.114-.081.159-.117a.244.244 0 0 1 .152-.053c.074 0 .129.028.165.084l.26.33a1.638 1.638 0 0 1-.69.485 1.864 1.864 0 0 1-.39.101 2.84 2.84 0 0 1-.399.029c-.232 0-.451-.043-.656-.13a1.528 1.528 0 0 1-.536-.379 1.815 1.815 0 0 1-.363-.61 2.354 2.354 0 0 1-.134-.822c0-.276.04-.532.119-.767.08-.236.196-.44.35-.612.154-.172.344-.307.571-.405.227-.097.489-.146.784-.146.281 0 .527.045.738.135.211.091.401.22.57.389l-.238.329zm2.457-.853c.281 0 .535.045.764.135.228.091.423.219.584.385.161.166.286.369.373.608.088.239.132.507.132.802 0 .298-.044.567-.132.806a1.723 1.723 0 0 1-.373.611 1.627 1.627 0 0 1-.584.389 2.07 2.07 0 0 1-.764.135c-.281 0-.536-.045-.765-.135a1.634 1.634 0 0 1-.588-.389 1.732 1.732 0 0 1-.377-.611 2.275 2.275 0 0 1-.134-.806c0-.295.044-.563.134-.802.089-.239.214-.442.377-.608.162-.166.358-.294.588-.385.229-.09.484-.135.765-.135zm0 3.175c.313 0 .544-.105.694-.315.15-.21.225-.517.225-.923 0-.405-.075-.714-.225-.926-.15-.213-.381-.319-.694-.319-.317 0-.552.107-.703.321-.151.213-.227.521-.227.924s.076.71.227.921c.151.212.386.317.703.317zm2.56.641v-3.757h.553c.117 0 .194.054.231.164l.062.297a2.07 2.07 0 0 1 .24-.212 1.6 1.6 0 0 1 .267-.165 1.31 1.31 0 0 1 .303-.106c.107-.025.224-.037.351-.037.205 0 .387.035.546.104.159.07.291.168.397.293.107.126.187.276.242.451.055.174.082.367.082.577v2.391h-.904v-2.391c0-.23-.053-.408-.159-.533-.107-.126-.266-.189-.478-.189a.952.952 0 0 0-.44.106 1.578 1.578 0 0 0-.388.29v2.717h-.905zm5.915 0h-.82l-1.495-3.757h.751c.066 0 .122.015.167.047a.244.244 0 0 1 .093.121l.725 2.007c.042.117.077.232.105.344.028.113.053.225.075.337.022-.112.047-.224.075-.337.028-.112.064-.227.108-.344l.744-2.007a.246.246 0 0 1 .091-.121.261.261 0 0 1 .158-.047h.714l-1.491 3.757zm3.457-3.816c.237 0 .455.038.654.113a1.442 1.442 0 0 1 .852.867 2.03 2.03 0 0 1 .111.893.283.283 0 0 1-.032.106.134.134 0 0 1-.065.055.268.268 0 0 1-.102.017h-2.322c.027.386.13.669.311.85.181.18.42.271.718.271.147 0 .273-.017.379-.052a1.8 1.8 0 0 0 .278-.113c.08-.042.149-.08.209-.114a.353.353 0 0 1 .174-.051c.037 0 .069.007.095.022.027.015.05.035.07.062l.264.33a1.54 1.54 0 0 1-.337.295 1.899 1.899 0 0 1-.39.19 2.156 2.156 0 0 1-.414.101 3.062 3.062 0 0 1-.409.029c-.261 0-.504-.043-.728-.13a1.64 1.64 0 0 1-.586-.384 1.807 1.807 0 0 1-.392-.63 2.427 2.427 0 0 1-.143-.87c0-.257.041-.498.124-.724.083-.225.202-.422.357-.589.156-.167.345-.3.568-.398.224-.097.476-.146.756-.146zm.019.648c-.264 0-.47.075-.619.224-.149.149-.244.36-.286.633h1.7c0-.117-.016-.227-.048-.331a.766.766 0 0 0-.147-.273.677.677 0 0 0-.249-.185.849.849 0 0 0-.351-.068zm2.344 3.168v-3.757h.531c.093 0 .157.017.194.051.037.034.061.093.073.176l.055.454c.134-.232.292-.415.473-.55a.994.994 0 0 1 .608-.201c.185 0 .339.043.461.128l-.117.678c-.007.044-.023.075-.048.093a.162.162 0 0 1-.099.028.633.633 0 0 1-.15-.026 1.007 1.007 0 0 0-.253-.026.764.764 0 0 0-.483.156 1.208 1.208 0 0 0-.341.456v2.34h-.904zm4.226.059c-.324 0-.575-.092-.751-.277-.175-.184-.263-.439-.263-.763v-2.099h-.381a.18.18 0 0 1-.126-.048c-.036-.031-.054-.079-.054-.142v-.359l.605-.099.19-1.026a.183.183 0 0 1 .068-.113.214.214 0 0 1 .134-.041h.468v1.183h.989v.645h-.989v2.036c0 .118.03.209.088.275a.3.3 0 0 0 .235.099.439.439 0 0 0 .141-.02.984.984 0 0 0 .174-.084.122.122 0 0 1 .066-.021c.026 0 .048.007.066.021a.274.274 0 0 1 .054.06l.271.44a1.39 1.39 0 0 1-.454.249 1.695 1.695 0 0 1-.531.084zm3.831-3.084a.228.228 0 0 1-.077.082.197.197 0 0 1-.102.024.327.327 0 0 1-.141-.036c-.05-.025-.108-.052-.174-.083a1.619 1.619 0 0 0-.225-.082 1.063 1.063 0 0 0-.299-.037c-.178 0-.319.038-.421.114a.35.35 0 0 0-.154.296c0 .081.026.149.079.204a.687.687 0 0 0 .209.144c.086.042.185.079.294.112.11.033.223.069.337.108.115.039.227.084.337.134.11.05.208.113.295.19a.885.885 0 0 1 .209.277.883.883 0 0 1 .079.388c0 .181-.033.347-.099.5a1.104 1.104 0 0 1-.29.395 1.348 1.348 0 0 1-.47.26 2.01 2.01 0 0 1-.643.094c-.129 0-.256-.012-.379-.035a2.26 2.26 0 0 1-.355-.097 1.903 1.903 0 0 1-.315-.147 1.487 1.487 0 0 1-.255-.183l.209-.344a.307.307 0 0 1 .095-.095.3.3 0 0 1 .299.014c.05.032.108.066.174.103a1.044 1.044 0 0 0 .571.15c.107 0 .2-.013.276-.038a.585.585 0 0 0 .191-.101.374.374 0 0 0 .11-.145.435.435 0 0 0 .035-.17.306.306 0 0 0-.079-.216.705.705 0 0 0-.209-.147 2.06 2.06 0 0 0-.297-.111 10.088 10.088 0 0 1-.34-.108 3.04 3.04 0 0 1-.341-.138 1.147 1.147 0 0 1-.296-.199.9.9 0 0 1-.209-.297 1.027 1.027 0 0 1-.079-.425c0-.154.031-.3.092-.439s.15-.261.269-.365c.118-.103.266-.186.443-.249a1.85 1.85 0 0 1 .613-.093c.259 0 .495.043.707.128.213.086.39.198.531.337l-.205.326zm2.546 3.025v-3.076l-.326-.052a.344.344 0 0 1-.171-.073.193.193 0 0 1-.064-.154v-.37h.561v-.278c0-.215.032-.408.097-.579a1.19 1.19 0 0 1 .278-.435 1.2 1.2 0 0 1 .441-.275c.174-.064.369-.095.586-.095.174 0 .335.023.484.069l-.018.454c-.005.071-.038.115-.099.132a.796.796 0 0 1-.213.026 1.09 1.09 0 0 0-.287.035.477.477 0 0 0-.215.121.545.545 0 0 0-.133.227c-.031.094-.046.21-.046.349v.249h.978v.645h-.949v3.08h-.904zm4.01-3.816c.281 0 .535.045.764.135.228.091.423.219.584.385.161.166.286.369.373.608.088.239.132.507.132.802 0 .298-.044.567-.132.806a1.723 1.723 0 0 1-.373.611 1.627 1.627 0 0 1-.584.389 2.07 2.07 0 0 1-.764.135c-.281 0-.536-.045-.765-.135a1.634 1.634 0 0 1-.588-.389 1.732 1.732 0 0 1-.377-.611 2.275 2.275 0 0 1-.134-.806c0-.295.044-.563.134-.802.089-.239.214-.442.377-.608.162-.166.358-.294.588-.385.229-.09.484-.135.765-.135zm0 3.175c.313 0 .544-.105.694-.315.15-.21.225-.517.225-.923 0-.405-.075-.714-.225-.926-.15-.213-.381-.319-.694-.319-.317 0-.552.107-.703.321-.152.213-.227.521-.227.924s.075.71.227.921c.151.212.386.317.703.317zm2.56.641v-3.757h.531c.093 0 .158.017.194.051.037.034.061.093.074.176l.054.454c.135-.232.292-.415.473-.55a.996.996 0 0 1 .608-.201c.185 0 .339.043.461.128l-.117.678c-.007.044-.023.075-.047.093a.166.166 0 0 1-.099.028.618.618 0 0 1-.15-.026 1.012 1.012 0 0 0-.253-.026.769.769 0 0 0-.484.156 1.206 1.206 0 0 0-.34.456v2.34h-.905zm2.992 0v-3.757h.553c.118 0 .195.054.231.164l.059.279c.066-.074.135-.141.207-.202a1.275 1.275 0 0 1 .494-.262c.094-.025.197-.038.31-.038a.88.88 0 0 1 .584.192c.152.128.267.299.342.511a1.157 1.157 0 0 1 .509-.538 1.35 1.35 0 0 1 .335-.125c.119-.027.238-.04.357-.04.208 0 .392.032.554.095.161.064.296.156.406.278.11.123.194.272.251.447.057.176.086.378.086.605v2.391h-.905v-2.391c0-.24-.052-.42-.157-.541-.105-.12-.259-.181-.462-.181a.688.688 0 0 0-.258.048.607.607 0 0 0-.35.362.884.884 0 0 0-.051.312v2.391h-.908v-2.391c0-.252-.051-.435-.152-.55-.101-.115-.251-.172-.449-.172a.72.72 0 0 0-.364.097 1.22 1.22 0 0 0-.317.266v2.75h-.905zm8.398-3.025a.235.235 0 0 1-.076.082.201.201 0 0 1-.103.024.327.327 0 0 1-.141-.036c-.05-.025-.108-.052-.174-.083a1.619 1.619 0 0 0-.225-.082 1.058 1.058 0 0 0-.299-.037c-.178 0-.318.038-.421.114a.352.352 0 0 0-.154.296c0 .081.027.149.079.204a.687.687 0 0 0 .209.144c.086.042.185.079.295.112.109.033.222.069.337.108.114.039.227.084.336.134.11.05.209.113.295.19a.87.87 0 0 1 .209.277.869.869 0 0 1 .079.388c0 .181-.033.347-.099.5a1.101 1.101 0 0 1-.289.395 1.353 1.353 0 0 1-.471.26 2.01 2.01 0 0 1-.643.094c-.129 0-.256-.012-.379-.035a2.26 2.26 0 0 1-.355-.097 1.903 1.903 0 0 1-.315-.147 1.528 1.528 0 0 1-.255-.183l.209-.344a.307.307 0 0 1 .095-.095.269.269 0 0 1 .14-.033c.056 0 .109.016.159.047.05.032.108.066.174.103a1.044 1.044 0 0 0 .571.15.9.9 0 0 0 .277-.038.579.579 0 0 0 .19-.101.374.374 0 0 0 .11-.145.435.435 0 0 0 .035-.17.301.301 0 0 0-.079-.216.692.692 0 0 0-.209-.147 2.046 2.046 0 0 0-.296-.111 10.128 10.128 0 0 1-.341-.108 3.04 3.04 0 0 1-.341-.138 1.147 1.147 0 0 1-.296-.199.9.9 0 0 1-.209-.297 1.027 1.027 0 0 1-.079-.425c0-.154.031-.3.092-.439a1.04 1.04 0 0 1 .269-.365c.118-.103.266-.186.443-.249.177-.062.382-.093.614-.093.258 0 .494.043.706.128.213.086.39.198.532.337l-.206.326zm3.348-.732v3.757h-.905v-3.757h.905zm.135-1.096a.508.508 0 0 1-.047.22.605.605 0 0 1-.311.302.563.563 0 0 1-.449 0 .572.572 0 0 1 .221-1.1.597.597 0 0 1 .539.351.546.546 0 0 1 .047.227zm.887 4.853v-3.757h.553c.117 0 .194.054.231.164l.062.297a1.917 1.917 0 0 1 .507-.377c.094-.047.195-.082.302-.106.108-.025.225-.037.352-.037.205 0 .387.035.546.104.158.07.291.168.397.293.106.126.187.276.242.451.055.174.082.367.082.577v2.391h-.905v-2.391c0-.23-.053-.408-.159-.533-.106-.126-.265-.189-.478-.189a.948.948 0 0 0-.439.106 1.582 1.582 0 0 0-.389.29v2.717h-.904zm5.398.059c-.324 0-.575-.092-.751-.277-.175-.184-.263-.439-.263-.763v-2.099h-.381a.18.18 0 0 1-.126-.048c-.036-.031-.054-.079-.054-.142v-.359l.605-.099.19-1.026a.183.183 0 0 1 .068-.113.214.214 0 0 1 .134-.041h.468v1.183h.989v.645h-.989v2.036c0 .118.03.209.088.275a.3.3 0 0 0 .235.099.439.439 0 0 0 .141-.02 1.094 1.094 0 0 0 .174-.084.122.122 0 0 1 .066-.021c.026 0 .048.007.066.021a.274.274 0 0 1 .054.06l.271.44a1.39 1.39 0 0 1-.454.249 1.695 1.695 0 0 1-.531.084zm3.205-3.875c.281 0 .535.045.764.135.228.091.423.219.584.385.161.166.285.369.373.608.088.239.132.507.132.802 0 .298-.044.567-.132.806a1.738 1.738 0 0 1-.373.611 1.627 1.627 0 0 1-.584.389 2.07 2.07 0 0 1-.764.135c-.281 0-.536-.045-.766-.135a1.639 1.639 0 0 1-.587-.389 1.748 1.748 0 0 1-.378-.611 2.298 2.298 0 0 1-.133-.806c0-.295.044-.563.133-.802.09-.239.215-.442.378-.608a1.67 1.67 0 0 1 .587-.385c.23-.09.485-.135.766-.135zm0 3.175c.312 0 .544-.105.694-.315.15-.21.225-.517.225-.923 0-.405-.075-.714-.225-.926-.15-.213-.382-.319-.694-.319-.317 0-.552.107-.703.321-.152.213-.227.521-.227.924s.075.71.227.921c.151.212.386.317.703.317zm6.918.641h-.406a.448.448 0 0 1-.202-.038c-.048-.026-.085-.078-.11-.156l-.08-.267c-.095.085-.189.16-.28.225a1.69 1.69 0 0 1-.284.163 1.466 1.466 0 0 1-.311.099c-.11.022-.232.033-.367.033-.158 0-.305-.022-.439-.065a.943.943 0 0 1-.346-.193.855.855 0 0 1-.225-.319 1.136 1.136 0 0 1-.081-.445c0-.142.037-.282.112-.421.074-.138.198-.263.371-.374.174-.112.404-.204.693-.278.288-.073.645-.11 1.073-.11v-.222c0-.253-.053-.44-.16-.562-.106-.122-.26-.183-.463-.183a1.124 1.124 0 0 0-.621.167c-.072.042-.138.081-.199.115a.41.41 0 0 1-.202.051.258.258 0 0 1-.157-.047.37.37 0 0 1-.106-.117l-.165-.29a2.236 2.236 0 0 1 1.564-.593c.219 0 .415.036.587.108.173.072.318.172.438.3s.211.282.273.46c.062.178.093.374.093.586v2.373zm-1.758-.564c.093 0 .179-.008.257-.025a.962.962 0 0 0 .221-.076c.07-.034.137-.075.202-.124.064-.049.13-.108.196-.175v-.629c-.264 0-.484.017-.661.049-.177.034-.32.076-.427.128a.553.553 0 0 0-.229.181.404.404 0 0 0-.068.225c0 .159.047.274.141.343a.614.614 0 0 0 .368.103zm6.292-2.461a.235.235 0 0 1-.076.082.199.199 0 0 1-.103.024.327.327 0 0 1-.141-.036c-.05-.025-.108-.052-.174-.083a1.619 1.619 0 0 0-.225-.082 1.058 1.058 0 0 0-.299-.037c-.178 0-.318.038-.421.114a.352.352 0 0 0-.154.296c0 .081.027.149.079.204a.7.7 0 0 0 .209.144c.086.042.185.079.295.112.11.033.222.069.337.108.114.039.227.084.337.134.109.05.208.113.294.19a.87.87 0 0 1 .209.277.869.869 0 0 1 .079.388c0 .181-.033.347-.099.5a1.101 1.101 0 0 1-.289.395 1.353 1.353 0 0 1-.471.26 2.01 2.01 0 0 1-.643.094c-.129 0-.256-.012-.379-.035a2.26 2.26 0 0 1-.355-.097 1.903 1.903 0 0 1-.315-.147 1.57 1.57 0 0 1-.255-.183l.209-.344a.307.307 0 0 1 .095-.095.269.269 0 0 1 .14-.033c.056 0 .109.016.159.047.05.032.108.066.174.103a1.049 1.049 0 0 0 .571.15.9.9 0 0 0 .277-.038.579.579 0 0 0 .19-.101.374.374 0 0 0 .11-.145.435.435 0 0 0 .035-.17.301.301 0 0 0-.079-.216.692.692 0 0 0-.209-.147 2.046 2.046 0 0 0-.296-.111 10.128 10.128 0 0 1-.341-.108 3.118 3.118 0 0 1-.341-.138 1.147 1.147 0 0 1-.296-.199.915.915 0 0 1-.209-.297 1.043 1.043 0 0 1-.079-.425c0-.154.031-.3.092-.439a1.04 1.04 0 0 1 .269-.365c.118-.103.266-.186.443-.249.177-.062.382-.093.614-.093.258 0 .494.043.707.128.212.086.389.198.531.337l-.206.326zm2.205 3.084c-.324 0-.575-.092-.751-.277-.175-.184-.263-.439-.263-.763v-2.099h-.381a.18.18 0 0 1-.126-.048c-.036-.031-.054-.079-.054-.142v-.359l.605-.099.19-1.026a.183.183 0 0 1 .068-.113.214.214 0 0 1 .134-.041h.468v1.183h.989v.645h-.989v2.036c0 .118.03.209.088.275a.3.3 0 0 0 .235.099.439.439 0 0 0 .141-.02.984.984 0 0 0 .174-.084.122.122 0 0 1 .066-.021c.026 0 .048.007.066.021a.274.274 0 0 1 .054.06l.272.44a1.406 1.406 0 0 1-.455.249 1.695 1.695 0 0 1-.531.084zm3.154-3.875c.237 0 .454.038.653.113a1.442 1.442 0 0 1 .852.867 2.007 2.007 0 0 1 .112.893.265.265 0 0 1-.033.106.136.136 0 0 1-.064.055.273.273 0 0 1-.103.017h-2.322c.027.386.131.669.311.85.181.18.42.271.718.271.147 0 .273-.017.379-.052.106-.034.199-.072.279-.113.079-.042.149-.08.208-.114a.353.353 0 0 1 .174-.051c.037 0 .069.007.096.022.026.015.05.035.069.062l.264.33a1.54 1.54 0 0 1-.337.295 1.899 1.899 0 0 1-.39.19 2.156 2.156 0 0 1-.414.101c-.14.019-.277.029-.408.029-.262 0-.505-.043-.729-.13a1.64 1.64 0 0 1-.586-.384 1.807 1.807 0 0 1-.392-.63 2.449 2.449 0 0 1-.143-.87c0-.257.042-.498.125-.724.083-.225.202-.422.357-.589.155-.167.344-.3.567-.398.224-.097.476-.146.757-.146zm.018.648c-.264 0-.47.075-.619.224-.149.149-.244.36-.286.633h1.7c0-.117-.016-.227-.048-.331a.764.764 0 0 0-.146-.273.694.694 0 0 0-.249-.185.857.857 0 0 0-.352-.068zm2.344 4.395v-4.984h.553c.059 0 .109.013.15.04a.186.186 0 0 1 .081.124l.073.348c.151-.173.325-.313.522-.421.196-.107.427-.161.69-.161.205 0 .393.043.562.128.17.086.317.209.44.372.123.162.219.362.286.601.067.238.1.51.1.818 0 .281-.037.541-.113.78a1.93 1.93 0 0 1-.324.623c-.141.176-.31.313-.509.412a1.481 1.481 0 0 1-.669.148 1.34 1.34 0 0 1-.54-.097 1.315 1.315 0 0 1-.397-.269v1.538h-.905zm1.758-4.34a.929.929 0 0 0-.482.119 1.375 1.375 0 0 0-.371.335v1.685a.866.866 0 0 0 .335.266c.121.05.251.075.39.075.137 0 .26-.026.372-.077a.73.73 0 0 0 .282-.235c.076-.105.136-.237.177-.397.042-.16.062-.349.062-.566 0-.22-.017-.406-.053-.558a1.066 1.066 0 0 0-.152-.372.604.604 0 0 0-.24-.209.744.744 0 0 0-.32-.066z" fill="#333" fill-rule="nonzero"/><path fill="#333" d="M162.258 115.643h1.897v.754h-1.897z"/><path d="M165.016 118.232v-5.442h.905v2.146c.148-.159.317-.285.505-.379.188-.094.408-.141.659-.141.205 0 .393.042.562.126.17.085.317.207.44.368.123.162.218.36.286.597.067.237.1.509.1.817 0 .281-.038.541-.113.78a1.93 1.93 0 0 1-.324.623c-.141.176-.31.313-.509.412a1.481 1.481 0 0 1-.669.148c-.115 0-.22-.011-.315-.035a1.085 1.085 0 0 1-.478-.249 1.912 1.912 0 0 1-.192-.199l-.04.252c-.015.064-.04.109-.075.136a.235.235 0 0 1-.145.04h-.597zm1.758-3.113a.929.929 0 0 0-.482.119 1.375 1.375 0 0 0-.371.335v1.685a.866.866 0 0 0 .335.266c.121.05.252.075.393.075.137 0 .26-.026.37-.077a.725.725 0 0 0 .28-.235c.077-.105.137-.237.178-.397.042-.16.062-.349.062-.566 0-.22-.017-.406-.053-.558a1.066 1.066 0 0 0-.152-.372.604.604 0 0 0-.24-.209.744.744 0 0 0-.32-.066zm3.618 4.146a.338.338 0 0 1-.104.145c-.043.033-.108.049-.196.049h-.674l.703-1.505-1.52-3.479h.792c.073 0 .129.017.168.051a.34.34 0 0 1 .088.117l.802 1.948c.027.064.05.13.07.198.019.069.036.137.051.205.019-.071.041-.139.064-.205.023-.066.048-.133.075-.201l.755-1.945a.259.259 0 0 1 .097-.121.254.254 0 0 1 .152-.047h.725l-2.048 4.79z" fill="#333" fill-rule="nonzero"/><path fill="#333" d="M172.85 115.643h1.897v.754h-1.897z"/><path d="M177.827 115.207a.228.228 0 0 1-.077.082.197.197 0 0 1-.102.024.327.327 0 0 1-.141-.036c-.05-.025-.108-.052-.174-.083a1.619 1.619 0 0 0-.225-.082 1.063 1.063 0 0 0-.299-.037c-.178 0-.319.038-.421.114a.35.35 0 0 0-.154.296c0 .081.026.149.079.204a.687.687 0 0 0 .209.144c.086.042.185.079.294.112.11.033.223.069.337.108.115.039.227.084.337.134.11.05.208.113.295.19a.885.885 0 0 1 .209.277.883.883 0 0 1 .079.388c0 .181-.033.347-.099.5a1.104 1.104 0 0 1-.29.395 1.348 1.348 0 0 1-.47.26 2.01 2.01 0 0 1-.643.094c-.129 0-.256-.012-.379-.035a2.26 2.26 0 0 1-.355-.097 1.903 1.903 0 0 1-.315-.147 1.487 1.487 0 0 1-.255-.183l.209-.344a.307.307 0 0 1 .095-.095.3.3 0 0 1 .299.014c.05.032.108.066.174.103a1.044 1.044 0 0 0 .571.15c.107 0 .2-.013.276-.038a.585.585 0 0 0 .191-.101.374.374 0 0 0 .11-.145.435.435 0 0 0 .035-.17.306.306 0 0 0-.079-.216.705.705 0 0 0-.209-.147 2.06 2.06 0 0 0-.297-.111 10.088 10.088 0 0 1-.34-.108 3.04 3.04 0 0 1-.341-.138 1.147 1.147 0 0 1-.296-.199.9.9 0 0 1-.209-.297 1.027 1.027 0 0 1-.079-.425c0-.154.031-.3.092-.439s.15-.261.269-.365c.118-.103.266-.186.443-.249a1.85 1.85 0 0 1 .613-.093c.259 0 .495.043.707.128.213.086.39.198.531.337l-.205.326zm2.205 3.084c-.325 0-.575-.092-.751-.277-.176-.184-.263-.439-.263-.763v-2.099h-.381a.184.184 0 0 1-.127-.048c-.035-.031-.053-.079-.053-.142v-.359l.604-.099.191-1.026a.179.179 0 0 1 .068-.113.213.213 0 0 1 .133-.041h.469v1.183h.989v.645h-.989v2.036c0 .118.029.209.088.275a.299.299 0 0 0 .234.099.43.43 0 0 0 .141-.02.984.984 0 0 0 .174-.084.122.122 0 0 1 .066-.021.1.1 0 0 1 .066.021.275.275 0 0 1 .055.06l.271.44a1.4 1.4 0 0 1-.454.249 1.695 1.695 0 0 1-.531.084zm3.153-3.875c.237 0 .455.038.654.113a1.442 1.442 0 0 1 .852.867 2.03 2.03 0 0 1 .111.893.265.265 0 0 1-.033.106.127.127 0 0 1-.064.055.268.268 0 0 1-.102.017h-2.322c.027.386.13.669.311.85.181.18.42.271.718.271.146 0 .273-.017.379-.052a1.8 1.8 0 0 0 .278-.113c.08-.042.149-.08.209-.114a.353.353 0 0 1 .174-.051.19.19 0 0 1 .165.084l.264.33a1.54 1.54 0 0 1-.337.295 1.899 1.899 0 0 1-.39.19 2.156 2.156 0 0 1-.414.101 3.062 3.062 0 0 1-.409.029c-.261 0-.504-.043-.728-.13a1.64 1.64 0 0 1-.586-.384 1.807 1.807 0 0 1-.392-.63 2.427 2.427 0 0 1-.143-.87c0-.257.041-.498.124-.724.083-.225.202-.422.357-.589.156-.167.345-.3.568-.398.224-.097.476-.146.756-.146zm.019.648c-.264 0-.47.075-.619.224-.149.149-.244.36-.286.633h1.7c0-.117-.016-.227-.048-.331a.766.766 0 0 0-.147-.273.694.694 0 0 0-.249-.185.849.849 0 0 0-.351-.068zm2.344 4.395v-4.984h.553c.058 0 .108.013.15.04a.193.193 0 0 1 .081.124l.073.348c.151-.173.325-.313.522-.421.196-.107.426-.161.69-.161.205 0 .393.043.562.128.17.086.316.209.44.372.123.162.218.362.285.601.068.238.101.51.101.818 0 .281-.038.541-.113.78a1.912 1.912 0 0 1-.325.623c-.14.176-.31.313-.509.412a1.477 1.477 0 0 1-.668.148c-.212 0-.393-.032-.54-.097a1.332 1.332 0 0 1-.398-.269v1.538h-.904zm1.758-4.34a.929.929 0 0 0-.482.119 1.393 1.393 0 0 0-.372.335v1.685a.88.88 0 0 0 .335.266c.121.05.251.075.391.075a.88.88 0 0 0 .371-.077.73.73 0 0 0 .282-.235c.077-.105.136-.237.178-.397a2.3 2.3 0 0 0 .062-.566c0-.22-.018-.406-.053-.558a1.066 1.066 0 0 0-.152-.372.604.604 0 0 0-.24-.209.747.747 0 0 0-.32-.066zM22.98 125.557v-3.076l-.326-.052a.344.344 0 0 1-.171-.073.193.193 0 0 1-.064-.154v-.37h.561v-.278c0-.215.032-.408.097-.579a1.182 1.182 0 0 1 .719-.71c.174-.064.369-.095.586-.095.174 0 .335.023.484.069l-.019.454c-.004.071-.037.115-.098.132a.801.801 0 0 1-.213.026 1.05 1.05 0 0 0-.287.035.477.477 0 0 0-.215.121.545.545 0 0 0-.133.227c-.031.094-.046.21-.046.349v.249h.978v.645h-.949v3.08h-.904zm4.01-3.816c.281 0 .535.045.764.135.228.091.423.219.584.385.161.166.285.369.373.608.088.239.132.507.132.802 0 .298-.044.566-.132.806a1.738 1.738 0 0 1-.373.611 1.627 1.627 0 0 1-.584.389 2.07 2.07 0 0 1-.764.135c-.281 0-.536-.045-.765-.135a1.634 1.634 0 0 1-.588-.389 1.748 1.748 0 0 1-.378-.611 2.302 2.302 0 0 1-.133-.806c0-.295.044-.563.133-.802.09-.239.215-.442.378-.608.162-.166.358-.294.588-.385.229-.09.484-.135.765-.135zm0 3.175c.313 0 .544-.105.694-.315.15-.21.225-.517.225-.923 0-.405-.075-.714-.225-.926-.15-.213-.381-.319-.694-.319-.317 0-.552.107-.703.321-.152.213-.227.521-.227.924s.075.71.227.921c.151.212.386.317.703.317zm2.56.641v-3.758h.531c.093 0 .158.018.194.052.037.034.061.093.073.176l.055.454c.135-.232.292-.415.473-.55a.996.996 0 0 1 .608-.201c.185 0 .339.043.461.128l-.117.678c-.007.044-.023.075-.048.093a.16.16 0 0 1-.098.027.621.621 0 0 1-.151-.025.998.998 0 0 0-.252-.026.769.769 0 0 0-.484.156 1.196 1.196 0 0 0-.34.456v2.34h-.905zm2.992 0v-3.758h.553c.118 0 .194.055.231.165l.059.279c.066-.074.135-.141.207-.202a1.275 1.275 0 0 1 .494-.262c.094-.025.197-.038.31-.038a.88.88 0 0 1 .584.192c.152.128.266.299.342.511a1.157 1.157 0 0 1 .509-.538 1.35 1.35 0 0 1 .335-.125c.119-.027.238-.04.357-.04.208 0 .392.032.553.095.162.064.297.156.407.278.11.123.193.271.251.447.057.176.086.378.086.605v2.391h-.905v-2.391c0-.24-.052-.42-.157-.541-.105-.121-.259-.181-.462-.181a.684.684 0 0 0-.258.048.607.607 0 0 0-.35.362.884.884 0 0 0-.051.312v2.391h-.908v-2.391c0-.252-.051-.435-.152-.55-.102-.115-.251-.172-.449-.172a.72.72 0 0 0-.364.097 1.22 1.22 0 0 0-.317.266v2.75h-.905zm7.124-3.758h.718c.068 0 .125.016.172.048a.21.21 0 0 1 .088.121l.538 2.007c.029.11.053.217.071.322l.054.315a15.785 15.785 0 0 1 .183-.637l.622-2.014a.226.226 0 0 1 .088-.121.254.254 0 0 1 .154-.048h.399c.066 0 .121.016.165.048a.226.226 0 0 1 .088.121l.615 2.051a14.51 14.51 0 0 1 .161.604c.018-.105.036-.21.057-.315.021-.105.047-.214.079-.326l.557-2.007a.202.202 0 0 1 .088-.121.276.276 0 0 1 .161-.048h.685l-1.191 3.758h-.729c-.078 0-.134-.054-.168-.161l-.678-2.172a3.996 3.996 0 0 1-.106-.428 5.274 5.274 0 0 1-.106.435l-.685 2.165c-.034.107-.1.161-.198.161h-.692l-1.19-3.758zm7.215 0v3.758h-.905v-3.758h.905zm.135-1.095a.508.508 0 0 1-.047.22.605.605 0 0 1-.312.302.555.555 0 0 1-.448 0 .572.572 0 0 1 0-1.055.571.571 0 0 1 .633.123.594.594 0 0 1 .127.183.546.546 0 0 1 .047.227zm3.604 1.469a.605.605 0 0 1-.117.337l-1.787 2.351h1.853v.696h-2.904v-.377c0-.042.009-.091.029-.148a.502.502 0 0 1 .092-.163l1.801-2.377h-1.816v-.693h2.849v.374zm3.666 3.384h-.406a.448.448 0 0 1-.202-.038c-.048-.026-.085-.078-.109-.156l-.081-.267c-.095.085-.189.16-.28.225a1.69 1.69 0 0 1-.284.163 1.448 1.448 0 0 1-.311.099c-.11.022-.232.033-.367.033-.158 0-.305-.022-.439-.065a.943.943 0 0 1-.346-.193.855.855 0 0 1-.225-.319 1.136 1.136 0 0 1-.081-.445c0-.142.037-.282.112-.421.074-.138.198-.263.371-.374.174-.112.405-.204.693-.278.288-.073.645-.11 1.073-.11v-.222c0-.253-.053-.44-.16-.562-.106-.122-.26-.183-.463-.183a1.129 1.129 0 0 0-.621.167c-.072.042-.138.081-.199.115a.407.407 0 0 1-.202.051.265.265 0 0 1-.157-.047.37.37 0 0 1-.106-.117l-.165-.29a2.236 2.236 0 0 1 1.564-.593c.219 0 .415.036.587.108a1.239 1.239 0 0 1 .711.76c.062.178.093.373.093.586v2.373zm-1.758-.564c.093 0 .179-.008.257-.025a.962.962 0 0 0 .221-.076c.07-.034.137-.075.202-.124.065-.05.13-.108.196-.175v-.629c-.264 0-.484.016-.661.049-.177.034-.32.076-.427.128a.553.553 0 0 0-.229.181.404.404 0 0 0-.068.225c0 .159.047.274.141.343a.614.614 0 0 0 .368.103zm2.648.564v-3.758h.531c.093 0 .158.018.195.052.036.034.061.093.073.176l.055.454a1.8 1.8 0 0 1 .472-.55.998.998 0 0 1 .608-.201.79.79 0 0 1 .462.128l-.118.678c-.007.044-.023.075-.047.093a.166.166 0 0 1-.099.027.607.607 0 0 1-.15-.025 1.012 1.012 0 0 0-.253-.026.764.764 0 0 0-.483.156 1.198 1.198 0 0 0-.341.456v2.34h-.905zm5.637 0c-.117 0-.194-.055-.231-.165l-.073-.362a2.28 2.28 0 0 1-.245.238 1.447 1.447 0 0 1-.964.344 1.25 1.25 0 0 1-.564-.128 1.252 1.252 0 0 1-.441-.372 1.782 1.782 0 0 1-.286-.602c-.067-.24-.1-.513-.1-.821 0-.278.037-.537.113-.776.076-.239.184-.447.326-.623.142-.176.311-.313.509-.412a1.47 1.47 0 0 1 .667-.148c.21 0 .389.033.538.101.149.067.282.156.399.269v-1.985h.905v5.442h-.553zm-1.205-.663a.928.928 0 0 0 .48-.117c.132-.078.256-.189.373-.333v-1.685a.898.898 0 0 0-.335-.264.994.994 0 0 0-.762 0 .734.734 0 0 0-.282.233 1.153 1.153 0 0 0-.177.395c-.042.16-.062.349-.062.566 0 .22.017.406.053.559.035.152.086.277.152.373a.578.578 0 0 0 .241.209.77.77 0 0 0 .319.064zm3.692-3.095h.718c.068 0 .125.016.172.048a.21.21 0 0 1 .088.121l.538 2.007c.029.11.053.217.071.322l.054.315a11.267 11.267 0 0 1 .183-.637l.622-2.014a.226.226 0 0 1 .088-.121.254.254 0 0 1 .154-.048h.399c.066 0 .121.016.165.048a.226.226 0 0 1 .088.121l.615 2.051a14.51 14.51 0 0 1 .161.604c.017-.105.036-.21.057-.315.021-.105.047-.214.079-.326l.557-2.007a.204.204 0 0 1 .087-.121.281.281 0 0 1 .162-.048h.685l-1.191 3.758h-.729c-.078 0-.134-.054-.168-.161l-.678-2.172a3.996 3.996 0 0 1-.106-.428c-.015.073-.03.146-.047.218a4.686 4.686 0 0 1-.059.217l-.685 2.165c-.034.107-.1.161-.198.161h-.692l-1.19-3.758zm7.215 0v3.758h-.905v-3.758h.905zm.135-1.095a.523.523 0 0 1-.047.22.605.605 0 0 1-.312.302.555.555 0 0 1-.448 0 .588.588 0 0 1-.304-.302.562.562 0 0 1 0-.447.58.58 0 0 1 .304-.306.571.571 0 0 1 .633.123.563.563 0 0 1 .174.41zm2.121 4.912c-.325 0-.575-.092-.751-.277-.176-.184-.264-.439-.264-.763v-2.099h-.38a.184.184 0 0 1-.127-.048c-.035-.031-.053-.079-.053-.142v-.359l.604-.099.191-1.026a.179.179 0 0 1 .068-.113.213.213 0 0 1 .133-.041h.469v1.183h.989v.645h-.989v2.036c0 .118.029.209.088.275a.299.299 0 0 0 .234.099.43.43 0 0 0 .141-.02.984.984 0 0 0 .174-.084.122.122 0 0 1 .066-.021.1.1 0 0 1 .066.021.275.275 0 0 1 .055.06l.271.439c-.132.11-.283.193-.454.25a1.695 1.695 0 0 1-.531.084zm1.6-.059v-5.442h.905v2.091c.147-.139.308-.251.484-.337.175-.085.382-.128.618-.128.206 0 .387.035.546.104.159.07.291.168.398.293.106.126.186.276.241.451.055.174.083.367.083.577v2.391h-.905v-2.391c0-.23-.053-.408-.159-.533-.106-.126-.266-.189-.478-.189a.943.943 0 0 0-.44.106 1.597 1.597 0 0 0-.388.29v2.717h-.905zm7.461 0h-.82l-1.495-3.758h.751c.066 0 .121.016.167.048a.244.244 0 0 1 .093.121l.725 2.007c.042.117.077.232.105.344.028.113.053.225.075.337.022-.112.047-.224.075-.337.028-.112.064-.227.108-.344l.743-2.007a.259.259 0 0 1 .249-.169h.715l-1.491 3.758zm4.97 0h-.407a.447.447 0 0 1-.201-.038c-.049-.026-.086-.078-.11-.156l-.081-.267c-.095.085-.188.16-.28.225a1.651 1.651 0 0 1-.284.163 1.43 1.43 0 0 1-.311.099c-.11.022-.232.033-.366.033a1.44 1.44 0 0 1-.44-.065.879.879 0 0 1-.571-.512 1.136 1.136 0 0 1-.081-.445c0-.142.038-.282.112-.421a1.06 1.06 0 0 1 .372-.374c.173-.112.404-.204.692-.278.288-.073.646-.11 1.073-.11v-.222c0-.253-.053-.44-.159-.562-.106-.122-.261-.183-.463-.183a1.13 1.13 0 0 0-.621.167l-.2.115a.406.406 0 0 1-.201.051.268.268 0 0 1-.158-.047.382.382 0 0 1-.106-.117l-.165-.29a2.237 2.237 0 0 1 1.564-.593c.22 0 .416.036.588.108.172.072.318.172.438.3.119.128.21.282.272.46.063.178.094.373.094.586v2.373zm-1.758-.564c.093 0 .178-.008.256-.025a.986.986 0 0 0 .222-.076 1.21 1.21 0 0 0 .201-.124c.065-.05.13-.108.196-.175v-.629c-.263 0-.484.016-.661.049a1.776 1.776 0 0 0-.427.128.55.55 0 0 0-.228.181.397.397 0 0 0-.068.225c0 .159.047.274.141.343a.614.614 0 0 0 .368.103z" fill="#333" fill-rule="nonzero"/><path fill="#333" d="M87.75 120.115h.905v5.442h-.905z"/><path d="M90.64 121.799v3.758h-.904v-3.758h.904zm.136-1.095a.51.51 0 0 1-.048.22.602.602 0 0 1-.538.348.583.583 0 0 1-.526-.348.58.58 0 0 1 .526-.798.578.578 0 0 1 .412.168.609.609 0 0 1 .126.183.547.547 0 0 1 .048.227zm3.53 4.853c-.117 0-.194-.055-.23-.165l-.074-.362a2.28 2.28 0 0 1-.245.238 1.545 1.545 0 0 1-.277.183 1.439 1.439 0 0 1-.686.161 1.25 1.25 0 0 1-.564-.128 1.264 1.264 0 0 1-.442-.372 1.78 1.78 0 0 1-.285-.602 3.054 3.054 0 0 1-.101-.821c0-.278.038-.537.113-.776.076-.239.185-.447.326-.623a1.462 1.462 0 0 1 1.176-.56c.21 0 .39.033.538.101.149.067.282.156.4.269v-1.985h.904v5.442h-.553zm-1.205-.663a.928.928 0 0 0 .48-.117c.132-.078.256-.189.374-.333v-1.685a.914.914 0 0 0-.335-.264.994.994 0 0 0-.762 0 .734.734 0 0 0-.282.233 1.154 1.154 0 0 0-.178.395 2.3 2.3 0 0 0-.062.566c0 .22.018.406.053.559.035.152.086.277.152.373a.574.574 0 0 0 .242.209.762.762 0 0 0 .318.064zm5.681.663h-.407a.447.447 0 0 1-.201-.038c-.049-.026-.086-.078-.11-.156l-.081-.267c-.095.085-.188.16-.28.225a1.651 1.651 0 0 1-.284.163 1.43 1.43 0 0 1-.311.099c-.11.022-.232.033-.366.033a1.44 1.44 0 0 1-.44-.065.879.879 0 0 1-.571-.512 1.136 1.136 0 0 1-.081-.445c0-.142.038-.282.112-.421a1.06 1.06 0 0 1 .372-.374c.173-.112.404-.204.692-.278.288-.073.646-.11 1.073-.11v-.222c0-.253-.053-.44-.159-.562-.106-.122-.261-.183-.463-.183a1.13 1.13 0 0 0-.621.167l-.2.115a.406.406 0 0 1-.201.051.268.268 0 0 1-.158-.047.382.382 0 0 1-.106-.117l-.165-.29a2.237 2.237 0 0 1 1.564-.593c.22 0 .416.036.588.108.172.072.318.172.438.3.119.128.21.282.272.46.063.178.094.373.094.586v2.373zm-1.758-.564c.093 0 .178-.008.256-.025a.986.986 0 0 0 .222-.076 1.21 1.21 0 0 0 .201-.124c.065-.05.13-.108.196-.175v-.629c-.264 0-.484.016-.661.049a1.776 1.776 0 0 0-.427.128.55.55 0 0 0-.228.181.397.397 0 0 0-.068.225c0 .159.047.274.141.343a.612.612 0 0 0 .368.103zm3.882.623c-.325 0-.575-.092-.751-.277-.176-.184-.263-.439-.263-.763v-2.099h-.381a.184.184 0 0 1-.127-.048c-.035-.031-.053-.079-.053-.142v-.359l.605-.099.19-1.026a.179.179 0 0 1 .068-.113.213.213 0 0 1 .133-.041h.469v1.183h.989v.645h-.989v2.036c0 .118.03.209.088.275a.3.3 0 0 0 .235.099.439.439 0 0 0 .141-.02 1.066 1.066 0 0 0 .173-.084.122.122 0 0 1 .066-.021.1.1 0 0 1 .066.021.275.275 0 0 1 .055.06l.271.439c-.132.11-.283.193-.454.25a1.695 1.695 0 0 1-.531.084zm2.564-3.817v3.758h-.905v-3.758h.905zm.135-1.095a.523.523 0 0 1-.047.22.605.605 0 0 1-.312.302.555.555 0 0 1-.448 0 .588.588 0 0 1-.304-.302.562.562 0 0 1 0-.447.58.58 0 0 1 .304-.306.571.571 0 0 1 .633.123.563.563 0 0 1 .174.41zm2.491 1.037c.281 0 .535.045.763.135.229.091.423.219.585.385.161.166.285.369.373.608.088.239.132.507.132.802 0 .298-.044.566-.132.806a1.631 1.631 0 0 1-.958 1c-.228.09-.482.135-.763.135s-.536-.045-.766-.135a1.639 1.639 0 0 1-.587-.389 1.734 1.734 0 0 1-.378-.611 2.302 2.302 0 0 1-.133-.806c0-.295.044-.563.133-.802.089-.239.215-.442.378-.608a1.67 1.67 0 0 1 .587-.385c.23-.09.485-.135.766-.135zm0 3.175c.312 0 .544-.105.694-.315.15-.21.225-.517.225-.923 0-.405-.075-.714-.225-.926-.15-.213-.382-.319-.694-.319-.318 0-.552.107-.703.321-.152.213-.227.521-.227.924s.075.71.227.921c.151.212.385.317.703.317zm2.56.641v-3.758h.553c.117 0 .194.055.231.165l.062.297a2.07 2.07 0 0 1 .24-.212 1.6 1.6 0 0 1 .267-.165c.094-.047.195-.082.302-.107a1.62 1.62 0 0 1 .352-.036c.205 0 .387.035.546.104.158.07.291.168.397.293.106.126.187.276.242.451.055.174.082.367.082.577v2.391h-.905v-2.391c0-.23-.053-.408-.159-.533-.106-.126-.265-.189-.478-.189a.936.936 0 0 0-.439.106 1.578 1.578 0 0 0-.388.29v2.717h-.905zm8.522 0h-.406a.448.448 0 0 1-.202-.038c-.048-.026-.085-.078-.109-.156l-.081-.267c-.095.085-.189.16-.28.225a1.69 1.69 0 0 1-.284.163 1.448 1.448 0 0 1-.311.099c-.11.022-.232.033-.367.033-.158 0-.305-.022-.439-.065a.943.943 0 0 1-.346-.193.855.855 0 0 1-.225-.319 1.136 1.136 0 0 1-.081-.445c0-.142.037-.282.112-.421.074-.138.198-.263.371-.374.174-.112.405-.204.693-.278.288-.073.646-.11 1.073-.11v-.222c0-.253-.053-.44-.16-.562-.106-.122-.26-.183-.463-.183a1.129 1.129 0 0 0-.621.167c-.072.042-.138.081-.199.115a.407.407 0 0 1-.202.051.265.265 0 0 1-.157-.047.382.382 0 0 1-.106-.117l-.165-.29a2.236 2.236 0 0 1 1.564-.593c.219 0 .415.036.588.108a1.244 1.244 0 0 1 .71.76c.062.178.093.373.093.586v2.373zm-1.758-.564c.093 0 .179-.008.257-.025a.962.962 0 0 0 .221-.076c.07-.034.137-.075.202-.124.065-.05.13-.108.196-.175v-.629c-.264 0-.484.016-.661.049-.177.034-.32.076-.427.128a.553.553 0 0 0-.229.181.404.404 0 0 0-.068.225c0 .159.047.274.141.343a.614.614 0 0 0 .368.103zm2.648.564v-3.758h.553c.118 0 .195.055.231.165l.062.297a2.07 2.07 0 0 1 .24-.212 1.65 1.65 0 0 1 .268-.165c.094-.047.194-.082.302-.107a1.61 1.61 0 0 1 .351-.036c.206 0 .387.035.546.104.159.07.291.168.398.293.106.126.186.276.241.451.055.174.083.367.083.577v2.391h-.905v-2.391c0-.23-.053-.408-.159-.533-.106-.126-.266-.189-.478-.189a.943.943 0 0 0-.44.106 1.597 1.597 0 0 0-.388.29v2.717h-.905zm6.809 0c-.117 0-.194-.055-.231-.165l-.073-.362a2.28 2.28 0 0 1-.245.238 1.447 1.447 0 0 1-.964.344 1.25 1.25 0 0 1-.564-.128 1.252 1.252 0 0 1-.441-.372 1.8 1.8 0 0 1-.286-.602c-.067-.24-.1-.513-.1-.821 0-.278.037-.537.113-.776.076-.239.185-.447.326-.623.142-.176.311-.313.509-.412a1.47 1.47 0 0 1 .667-.148c.21 0 .389.033.538.101.149.067.282.156.399.269v-1.985h.905v5.442h-.553zm-1.205-.663a.928.928 0 0 0 .48-.117c.132-.078.256-.189.373-.333v-1.685a.898.898 0 0 0-.335-.264.994.994 0 0 0-.762 0 .734.734 0 0 0-.282.233 1.153 1.153 0 0 0-.177.395c-.042.16-.062.349-.062.566 0 .22.017.406.053.559.035.152.086.277.152.373a.578.578 0 0 0 .241.209.77.77 0 0 0 .319.064zm6.79-2.3a.508.508 0 0 1-.078.081.187.187 0 0 1-.112.029.25.25 0 0 1-.136-.042 3.97 3.97 0 0 0-.157-.095 1.14 1.14 0 0 0-.218-.095.973.973 0 0 0-.313-.043.963.963 0 0 0-.418.086.795.795 0 0 0-.298.248c-.08.107-.139.237-.178.39a2.093 2.093 0 0 0-.058.518c0 .2.021.378.064.535.042.156.104.287.185.393.08.107.178.187.293.242a.884.884 0 0 0 .388.083.953.953 0 0 0 .575-.171c.061-.042.114-.082.159-.117a.242.242 0 0 1 .152-.053c.073 0 .128.028.165.084l.26.33a1.665 1.665 0 0 1-.69.485 1.864 1.864 0 0 1-.39.101 2.865 2.865 0 0 1-.4.029c-.232 0-.45-.043-.655-.13a1.541 1.541 0 0 1-.537-.379 1.83 1.83 0 0 1-.362-.61 2.331 2.331 0 0 1-.134-.822c0-.276.04-.532.119-.767.079-.236.196-.44.35-.612.154-.172.344-.307.571-.405.227-.097.488-.146.784-.146.281 0 .527.045.738.135.211.091.401.22.569.389l-.238.329zm1.681-.795v2.388c0 .23.053.408.16.533.106.126.265.189.478.189a.962.962 0 0 0 .439-.104c.137-.07.266-.166.388-.288v-2.718h.905v3.758h-.553c-.117 0-.194-.055-.231-.165l-.062-.3c-.078.078-.159.15-.242.214a1.43 1.43 0 0 1-.569.271 1.507 1.507 0 0 1-.35.039 1.33 1.33 0 0 1-.544-.105 1.08 1.08 0 0 1-.397-.294 1.283 1.283 0 0 1-.244-.453 1.911 1.911 0 0 1-.082-.577v-2.388h.904zm5.567.733a.228.228 0 0 1-.077.082.195.195 0 0 1-.102.024.327.327 0 0 1-.141-.036c-.05-.025-.108-.052-.174-.083a1.619 1.619 0 0 0-.225-.082 1.063 1.063 0 0 0-.299-.037c-.178 0-.318.038-.421.114a.35.35 0 0 0-.154.296c0 .081.026.149.079.204a.687.687 0 0 0 .209.144c.086.042.185.079.294.112.11.033.223.069.337.108.115.039.227.084.337.134.11.05.209.113.295.19a.885.885 0 0 1 .209.277.88.88 0 0 1 .079.388c0 .181-.033.347-.099.5a1.104 1.104 0 0 1-.29.395 1.34 1.34 0 0 1-.47.26 2.01 2.01 0 0 1-.643.094c-.129 0-.256-.012-.379-.035a2.26 2.26 0 0 1-.355-.097 1.903 1.903 0 0 1-.315-.147 1.487 1.487 0 0 1-.255-.183l.209-.344a.307.307 0 0 1 .095-.095.267.267 0 0 1 .139-.033c.057 0 .11.016.16.047.05.032.108.066.174.103a1.044 1.044 0 0 0 .571.15c.107 0 .2-.013.277-.038a.61.61 0 0 0 .19-.101.381.381 0 0 0 .11-.145.435.435 0 0 0 .035-.17.306.306 0 0 0-.079-.216.705.705 0 0 0-.209-.147 2.06 2.06 0 0 0-.297-.111 10.088 10.088 0 0 1-.34-.108 3.04 3.04 0 0 1-.341-.138 1.147 1.147 0 0 1-.296-.199.9.9 0 0 1-.209-.297 1.027 1.027 0 0 1-.079-.425c0-.154.031-.3.092-.439s.15-.261.269-.365c.118-.103.266-.186.443-.249.177-.062.382-.093.613-.093.259 0 .495.043.707.128.213.086.39.198.531.337l-.205.326zm2.205 3.084c-.325 0-.575-.092-.751-.277-.175-.184-.263-.439-.263-.763v-2.099h-.381a.184.184 0 0 1-.127-.048c-.035-.031-.053-.079-.053-.142v-.359l.605-.099.19-1.026a.179.179 0 0 1 .068-.113.213.213 0 0 1 .133-.041h.469v1.183h.989v.645h-.989v2.036c0 .118.03.209.088.275a.3.3 0 0 0 .235.099.439.439 0 0 0 .141-.02 1.066 1.066 0 0 0 .174-.084.117.117 0 0 1 .065-.021.1.1 0 0 1 .066.021.275.275 0 0 1 .055.06l.271.439c-.132.11-.283.193-.454.25a1.695 1.695 0 0 1-.531.084zm3.205-3.875c.281 0 .535.045.763.135.229.091.423.219.585.385.161.166.285.369.373.608.088.239.132.507.132.802 0 .298-.044.566-.132.806a1.631 1.631 0 0 1-.958 1c-.228.09-.482.135-.763.135s-.536-.045-.766-.135a1.652 1.652 0 0 1-.965-1 2.302 2.302 0 0 1-.133-.806c0-.295.044-.563.133-.802.089-.239.215-.442.377-.608.163-.166.359-.294.588-.385.23-.09.485-.135.766-.135zm0 3.175c.312 0 .544-.105.694-.315.15-.21.225-.517.225-.923 0-.405-.075-.714-.225-.926-.15-.213-.382-.319-.694-.319-.318 0-.552.107-.703.321-.152.213-.227.521-.227.924s.075.71.227.921c.151.212.385.317.703.317zm2.56.641v-3.758h.553c.117 0 .194.055.231.165l.058.279c.066-.074.135-.141.207-.202a1.325 1.325 0 0 1 .495-.262 1.2 1.2 0 0 1 .309-.038c.237 0 .432.064.584.192.153.128.267.299.343.511a1.154 1.154 0 0 1 .509-.538c.105-.056.216-.098.335-.125.118-.027.237-.04.357-.04.208 0 .392.032.553.095.161.064.297.156.407.278.109.123.193.271.25.447.058.176.086.378.086.605v2.391h-.904v-2.391c0-.24-.053-.42-.158-.541-.105-.121-.258-.181-.461-.181a.68.68 0 0 0-.258.048.598.598 0 0 0-.35.362.884.884 0 0 0-.051.312v2.391h-.909v-2.391c0-.252-.05-.435-.152-.55-.101-.115-.251-.172-.448-.172a.723.723 0 0 0-.365.097 1.237 1.237 0 0 0-.317.266v2.75h-.904zm10.222-2.963a.47.47 0 0 1-.079.081.187.187 0 0 1-.112.029.249.249 0 0 1-.135-.042 4.082 4.082 0 0 0-.158-.095 1.113 1.113 0 0 0-.218-.095.969.969 0 0 0-.313-.043.959.959 0 0 0-.417.086.798.798 0 0 0-.299.248 1.111 1.111 0 0 0-.177.39 2.09 2.09 0 0 0-.059.518c0 .2.021.378.064.535.043.156.105.287.185.393a.791.791 0 0 0 .293.242.887.887 0 0 0 .388.083.95.95 0 0 0 .575-.171c.061-.042.115-.082.16-.117a.242.242 0 0 1 .152-.053c.073 0 .128.028.164.084l.261.33a1.694 1.694 0 0 1-.691.485 1.864 1.864 0 0 1-.39.101 2.84 2.84 0 0 1-.399.029c-.232 0-.451-.043-.656-.13a1.528 1.528 0 0 1-.536-.379 1.815 1.815 0 0 1-.363-.61 2.354 2.354 0 0 1-.134-.822c0-.276.04-.532.119-.767a1.615 1.615 0 0 1 .922-1.017c.227-.097.488-.146.783-.146.281 0 .527.045.738.135.212.091.401.22.57.389l-.238.329zm2.457-.853c.281 0 .536.045.764.135.228.091.423.219.584.385.161.166.286.369.374.608.088.239.132.507.132.802 0 .298-.044.566-.132.806a1.74 1.74 0 0 1-.374.611 1.627 1.627 0 0 1-.584.389c-.228.09-.483.135-.764.135a2.08 2.08 0 0 1-.765-.135 1.634 1.634 0 0 1-.588-.389 1.746 1.746 0 0 1-.377-.611 2.302 2.302 0 0 1-.134-.806c0-.295.045-.563.134-.802.089-.239.215-.442.377-.608.162-.166.358-.294.588-.385a2.08 2.08 0 0 1 .765-.135zm0 3.175c.313 0 .544-.105.694-.315.151-.21.226-.517.226-.923 0-.405-.075-.714-.226-.926-.15-.213-.381-.319-.694-.319-.317 0-.551.107-.703.321-.151.213-.227.521-.227.924s.076.71.227.921c.152.212.386.317.703.317z" fill="#333" fill-rule="nonzero"/><path fill="#333" d="M160.978 120.115h.905v5.442h-.905z"/><path d="M164.509 121.741c.28 0 .535.045.763.135.229.091.423.219.584.385.162.166.286.369.374.608.088.239.132.507.132.802 0 .298-.044.566-.132.806a1.725 1.725 0 0 1-.374.611 1.618 1.618 0 0 1-.584.389c-.228.09-.483.135-.763.135-.281 0-.536-.045-.766-.135a1.652 1.652 0 0 1-.965-1 2.302 2.302 0 0 1-.134-.806c0-.295.045-.563.134-.802.089-.239.215-.442.377-.608.163-.166.359-.294.588-.385.23-.09.485-.135.766-.135zm0 3.175c.312 0 .544-.105.694-.315.15-.21.225-.517.225-.923 0-.405-.075-.714-.225-.926-.15-.213-.382-.319-.694-.319-.318 0-.552.107-.704.321-.151.213-.227.521-.227.924s.076.71.227.921c.152.212.386.317.704.317zm2.56.641v-3.758h.531c.093 0 .157.018.194.052.037.034.061.093.073.176l.055.454c.134-.232.292-.415.473-.55a.994.994 0 0 1 .608-.201c.185 0 .339.043.461.128l-.117.678c-.008.044-.023.075-.048.093a.162.162 0 0 1-.099.027.622.622 0 0 1-.15-.025 1.007 1.007 0 0 0-.253-.026.764.764 0 0 0-.483.156 1.208 1.208 0 0 0-.341.456v2.34h-.904zm5.222-3.025a.228.228 0 0 1-.077.082.195.195 0 0 1-.102.024.327.327 0 0 1-.141-.036c-.05-.025-.108-.052-.174-.083a1.619 1.619 0 0 0-.225-.082 1.063 1.063 0 0 0-.299-.037c-.178 0-.318.038-.421.114a.352.352 0 0 0-.154.296c0 .081.026.149.079.204a.687.687 0 0 0 .209.144c.086.042.185.079.295.112.109.033.222.069.337.108.114.039.227.084.336.134.11.05.209.113.295.19a.87.87 0 0 1 .209.277.866.866 0 0 1 .079.388c0 .181-.033.347-.099.5a1.101 1.101 0 0 1-.289.395 1.353 1.353 0 0 1-.471.26 2.01 2.01 0 0 1-.643.094c-.129 0-.256-.012-.379-.035a2.26 2.26 0 0 1-.355-.097 1.903 1.903 0 0 1-.315-.147 1.528 1.528 0 0 1-.255-.183l.209-.344a.307.307 0 0 1 .095-.095.267.267 0 0 1 .139-.033c.057 0 .11.016.16.047.05.032.108.066.174.103a1.044 1.044 0 0 0 .571.15.9.9 0 0 0 .277-.038.598.598 0 0 0 .19-.101.381.381 0 0 0 .11-.145.435.435 0 0 0 .035-.17.301.301 0 0 0-.079-.216.692.692 0 0 0-.209-.147 2.046 2.046 0 0 0-.296-.111 10.128 10.128 0 0 1-.341-.108 3.04 3.04 0 0 1-.341-.138 1.147 1.147 0 0 1-.296-.199.9.9 0 0 1-.209-.297 1.027 1.027 0 0 1-.079-.425c0-.154.031-.3.092-.439a1.04 1.04 0 0 1 .269-.365c.118-.103.266-.186.443-.249.177-.062.382-.093.614-.093.258 0 .494.043.706.128.213.086.39.198.532.337l-.206.326zm-95.065 10.35v-3.758h.553c.118 0 .194.055.231.165l.062.297c.076-.078.156-.149.24-.213.084-.063.174-.118.268-.164.094-.047.194-.082.302-.107.107-.024.224-.036.351-.036.205 0 .387.035.546.104.159.07.291.167.397.293.107.126.187.276.242.451.055.174.083.367.083.577v2.391h-.905v-2.391c0-.23-.053-.408-.159-.533-.107-.126-.266-.189-.478-.189a.94.94 0 0 0-.44.106 1.553 1.553 0 0 0-.388.29v2.717h-.905zm4.165 1.227v-4.985h.553c.058 0 .108.014.15.041a.188.188 0 0 1 .08.124l.074.348c.151-.173.325-.314.521-.421.197-.107.427-.161.691-.161.205 0 .392.043.562.128.17.085.316.209.44.372.123.162.218.362.285.6.067.238.101.511.101.819 0 .281-.038.541-.114.78a1.89 1.89 0 0 1-.324.623c-.14.176-.31.313-.509.412a1.48 1.48 0 0 1-.668.148c-.213 0-.393-.032-.54-.097a1.32 1.32 0 0 1-.398-.269v1.538h-.904zm1.758-4.34a.929.929 0 0 0-.482.119 1.393 1.393 0 0 0-.372.335v1.685a.86.86 0 0 0 .335.265c.121.05.251.076.39.076a.88.88 0 0 0 .372-.077.73.73 0 0 0 .282-.235c.077-.105.136-.237.178-.397a2.3 2.3 0 0 0 .062-.566c0-.22-.018-.406-.053-.559a1.069 1.069 0 0 0-.152-.371.596.596 0 0 0-.24-.209.747.747 0 0 0-.32-.066zm2.384 3.113v-3.758h.553c.117 0 .194.055.231.165l.058.279c.066-.074.135-.141.207-.202a1.325 1.325 0 0 1 .495-.262 1.2 1.2 0 0 1 .309-.038c.237 0 .432.064.584.192.153.128.267.299.343.511a1.14 1.14 0 0 1 .509-.538c.105-.057.216-.098.335-.125.118-.027.237-.04.357-.04.207 0 .392.032.553.095.161.064.297.156.407.278.109.122.193.271.25.447.058.176.086.377.086.605v2.391h-.904v-2.391c0-.24-.053-.42-.158-.541-.105-.121-.258-.181-.461-.181a.68.68 0 0 0-.258.048.598.598 0 0 0-.35.362.884.884 0 0 0-.051.312v2.391h-.909v-2.391c0-.252-.05-.435-.152-.55-.101-.115-.251-.172-.448-.172a.723.723 0 0 0-.365.097 1.237 1.237 0 0 0-.317.266v2.75h-.904z" fill="#333" fill-rule="nonzero"/><path fill="#333" d="M92.997 130.293h1.897v.754h-1.897z"/><path d="M99.04 132.882h-.82l-1.495-3.758h.751c.066 0 .122.016.167.048a.244.244 0 0 1 .093.121l.725 2.007c.042.117.077.232.105.344.028.113.053.225.075.337.022-.112.047-.224.075-.337.028-.112.064-.227.108-.344l.743-2.007a.254.254 0 0 1 .249-.169h.715l-1.491 3.758zm4.97 0h-.407a.447.447 0 0 1-.201-.038c-.049-.026-.085-.078-.11-.156l-.08-.267c-.096.085-.189.16-.281.225a1.681 1.681 0 0 1-.283.163 1.456 1.456 0 0 1-.312.099c-.11.022-.232.033-.366.033-.159 0-.305-.022-.439-.065a.879.879 0 0 1-.572-.512 1.137 1.137 0 0 1-.08-.445c0-.142.037-.282.111-.421a1.06 1.06 0 0 1 .372-.374c.173-.112.404-.204.692-.278.288-.073.646-.11 1.073-.11v-.222c0-.253-.053-.44-.159-.562-.106-.122-.261-.183-.463-.183a1.12 1.12 0 0 0-.621.167l-.2.115a.406.406 0 0 1-.201.051.268.268 0 0 1-.158-.047.374.374 0 0 1-.106-.118l-.165-.289a2.239 2.239 0 0 1 1.564-.593c.22 0 .416.036.588.108.172.072.318.172.438.3.119.128.21.282.273.46.062.178.093.373.093.586v2.373zm-1.758-.564a1.138 1.138 0 0 0 .478-.101c.07-.034.137-.075.201-.124.065-.05.13-.108.196-.175v-.629c-.263 0-.484.016-.661.049a1.752 1.752 0 0 0-.426.128.547.547 0 0 0-.229.181.404.404 0 0 0-.068.225c0 .159.047.274.141.343a.614.614 0 0 0 .368.103zm2.648.564v-3.758h.553c.117 0 .194.055.231.165l.062.297c.076-.078.156-.149.24-.213.084-.063.173-.118.267-.164.094-.047.195-.082.302-.107a1.62 1.62 0 0 1 .352-.036c.205 0 .387.035.546.104.158.07.291.167.397.293.106.126.187.276.242.451.055.174.082.367.082.577v2.391h-.904v-2.391c0-.23-.053-.408-.16-.533-.106-.126-.265-.189-.478-.189a.939.939 0 0 0-.439.106 1.553 1.553 0 0 0-.388.29v2.717h-.905zm5.127-3.758v3.758h-.904v-3.758h.904zm.136-1.095a.512.512 0 0 1-.048.22.597.597 0 0 1-.538.348.583.583 0 0 1-.526-.348.578.578 0 0 1 .304-.753.575.575 0 0 1 .634.123.564.564 0 0 1 .174.41z" fill="#333" fill-rule="nonzero"/><path fill="#333" d="M111.108 127.44h.905v5.442h-.905zm1.985 0h.905v5.442h-.905z"/><path d="M117.964 132.882h-.406a.448.448 0 0 1-.202-.038c-.049-.026-.085-.078-.11-.156l-.08-.267c-.096.085-.189.16-.281.225a1.681 1.681 0 0 1-.283.163 1.456 1.456 0 0 1-.312.099c-.11.022-.232.033-.366.033-.159 0-.305-.022-.439-.065a.879.879 0 0 1-.572-.512 1.155 1.155 0 0 1-.08-.445c0-.142.037-.282.111-.421a1.06 1.06 0 0 1 .372-.374c.173-.112.404-.204.692-.278.288-.073.646-.11 1.073-.11v-.222c0-.253-.053-.44-.159-.562-.106-.122-.261-.183-.463-.183a1.12 1.12 0 0 0-.621.167l-.2.115a.406.406 0 0 1-.201.051.268.268 0 0 1-.158-.047.387.387 0 0 1-.106-.118l-.165-.289a2.239 2.239 0 0 1 1.564-.593c.22 0 .416.036.588.108.172.072.318.172.438.3.119.128.21.282.273.46.062.178.093.373.093.586v2.373zm-1.758-.564a1.138 1.138 0 0 0 .478-.101c.07-.034.137-.075.201-.124.065-.05.13-.108.196-.175v-.629c-.263 0-.484.016-.661.049a1.752 1.752 0 0 0-.426.128.547.547 0 0 0-.229.181.404.404 0 0 0-.068.225c0 .159.047.274.141.343a.614.614 0 0 0 .368.103z" fill="#333" fill-rule="nonzero"/></svg>