<svg viewBox="0 0 200 200" xmlns="http://www.w3.org/2000/svg" fill-rule="evenodd" clip-rule="evenodd" stroke-linejoin="round" stroke-miterlimit="1.41"><path d="M41.7 101.12h6.9v-10.2h13.34v-6.16H48.6v-11.1h14.67V67.6H41.7v33.53zm37.05.44c6.55 0 11.43-3.4 11.43-9.6 0-5.77-3.3-8.34-9.17-10.85l-1.7-.7c-2.9-1.3-4.2-2.1-4.2-4.2 0-1.6 1.3-2.9 3.3-2.9 2 0 3.3.9 4.5 3l5.4-3.4c-2.2-4-5.4-5.5-9.8-5.5-6.1 0-10.1 4-10.1 9.2 0 5.7 3.3 8.3 8.3 10.4l1.8.8c3.2 1.4 5 2.2 5 4.6 0 2-1.8 3.4-4.7 3.4-3.4 0-5.3-1.8-6.8-4.2l-5.6 3.3c2 4 6.2 7.1 12.6 7.1zm19.7-.14c2.23 0 4.15-1.73 4.15-4.2 0-2.4-1.92-4.14-4.14-4.14-2.27 0-4.2 1.73-4.2 4.14 0 2.47 1.93 4.2 4.2 4.2z" fill="#333"/><path d="M116.55 101.56c6.1 0 10.3-3.25 10.3-10.4V67.6h-6.9v23.47c0 3.45-1.43 4.34-3.7 4.34-2.37 0-3.35-1.6-4.44-3.5l-5.6 3.4c1.7 3.5 4.9 6.3 10.4 6.3zm26.6 0c6.56 0 11.44-3.4 11.44-9.6 0-5.77-3.3-8.34-9.2-10.85l-1.8-.7c-3-1.3-4.3-2.1-4.3-4.2 0-1.6 1.3-2.9 3.3-2.9 1.9 0 3.2.9 4.4 3l5.3-3.4c-2.3-4-5.4-5.5-9.8-5.5-6.2 0-10.1 4-10.1 9.2 0 5.7 3.3 8.3 8.3 10.4l1.7.8c3.2 1.4 5 2.2 5 4.6 0 2-1.9 3.4-4.7 3.4-3.4 0-5.3-1.8-6.8-4.2l-5.6 3.3c2 4 6.1 7.1 12.5 7.1z" fill="#f8d473"/><path fill="#333" d="M41.7 106.94H153v.48H41.7z"/><path d="M7.35 114.47v3.9c0 .15-.02.3-.06.45-.1.15-.2.27-.3.38-.1.1-.2.2-.4.26s-.4.1-.6.1l-.3-.03c-.1 0-.2-.02-.3-.05v-.58l.2-.02c.1 0 .1 0 .2-.03.1 0 .1-.04.2-.08l.1-.16v-4.1H7zm.14-1.1c0 .1-.1.16-.1.23s-.1.13-.2.18c-.1.05-.1.1-.2.12-.1.03-.2.05-.3.05-.1 0-.2-.02-.3-.05-.1-.03-.2-.07-.2-.12-.1-.05-.1-.1-.2-.18-.1-.07-.1-.14-.1-.22v-.23l.1-.18c.1-.05.1-.1.2-.12l.2-.05s.2.02.2.05c.1.03.1.07.2.12 0 .05.1.1.1.18v.23zm3.8 4.86h-.4c-.1 0-.2 0-.2-.04-.1-.1-.1-.1-.1-.2l-.1-.3c-.1.1-.2.1-.3.2l-.3.1c-.1 0-.2.1-.3.1h-.4c-.2 0-.3-.1-.5-.1-.2-.1-.3-.1-.4-.2l-.3-.3c-.1-.1-.1-.3-.1-.5s0-.3.1-.4c0-.2.2-.3.3-.4.2-.1.4-.2.7-.3.3-.1.6-.1 1.1-.1v-.3c0-.3-.1-.4-.2-.6-.1-.2-.3-.2-.5-.2H9c-.1 0-.2 0-.24.1l-.2.1h-.2c-.03 0-.1 0-.13-.1l-.1-.1-.16-.3c.4-.4.92-.6 1.53-.6.2 0 .4 0 .6.1l.4.3c.1.1.2.3.26.5s.1.4.1.6v2.4zm-1.8-.56c.1 0 .2 0 .2-.03l.2-.07c.1-.04.1-.08.2-.13s.1-.1.2-.17v-.63c-.3 0-.5.02-.7.05-.2 0-.3 0-.4.1-.1 0-.2.1-.3.2-.1 0-.1.1-.1.2s0 .3.1.3.2.1.3.1zm4.4.56h-.8l-1.5-3.76h.7s.1.02.1.05l.1.12.7 2 .1.35v.3l.1-.4.1-.4.7-2c0-.1 0-.1.1-.2 0-.1.1-.1.1-.1h.7l-1.4 3.8zm4.9 0h-.4c-.1 0-.2 0-.2-.04-.1-.1-.1-.1-.1-.2l-.1-.3c-.1.1-.2.1-.3.2l-.3.1c-.1 0-.2.1-.3.1h-.4c-.2 0-.3-.1-.5-.1-.2-.1-.3-.1-.4-.2l-.3-.3c-.1-.1-.1-.3-.1-.5-.1-.2 0-.3.1-.4 0-.2.2-.3.3-.4.1-.1.4-.2.7-.3.2-.1.6-.1 1-.1v-.3c0-.3-.1-.4-.2-.6-.1-.2-.3-.2-.5-.2h-.4l-.3.1-.2.1h-.2c-.1 0-.1 0-.2-.1l-.1-.1-.2-.3c.4-.4 1-.6 1.6-.6.2 0 .4 0 .6.1.2.1.3.2.4.3.1.1.2.3.2.5s.1.4.1.6v2.4zm-1.8-.56c.1 0 .2 0 .2-.03.1 0 .1-.04.2-.07l.2-.13.2-.17v-.63c-.3 0-.5.02-.7.05-.2 0-.4 0-.5.1-.1 0-.2.1-.2.2-.1 0-.1.1-.1.2s0 .3.1.3c0 0 .2.1.3.1zm4.9-2.47l-.1.1h-.1l-.2-.02-.2-.1-.2-.07H21c-.17 0-.3.1-.4.1-.1.1-.17.2-.17.3 0 .1.03.2.08.2l.2.2.3.1.4.1.4.2c.1.1.2.1.3.2.1.1.2.2.2.3.1.1.1.3.1.4 0 .2 0 .4-.1.5 0 .2-.1.3-.3.4-.1.1-.2.2-.4.3-.1.1-.4.1-.6.1h-.3l-.4-.1c-.1 0-.2-.1-.3-.1s-.2-.1-.2-.1l.2-.3.1-.1h.2c.1 0 .1 0 .2.1l.2.1c.1.1.2.1.3.1.1.1.2.1.4.1h.3l.2-.1.1-.1.1-.1c0-.1 0-.1-.1-.2l-.2-.1-.3-.1-.3-.1-.3-.1-.3-.2c-.1-.1-.1-.2-.2-.3 0-.1-.1-.2-.1-.4s.1-.3.1-.4.2-.2.3-.3c.1-.1.3-.2.5-.2h.6c.2 0 .5 0 .7.1.2.1.4.2.5.3l-.2.4zm3.6.07l-.1.08-.1.03c-.1 0-.1 0-.2-.04l-.2-.1-.2-.1c-.1-.02-.2-.04-.3-.04s-.3.03-.4.1c-.1.05-.2.13-.3.24-.1.1-.1.24-.2.4v1.04c0 .16.1.3.2.4 0 .1.1.18.2.24.1.05.3.08.4.08s.3-.02.3-.05l.2-.12.2-.12h.1l.1.1.3.4-.3.3-.4.2-.4.1H24c-.2 0-.46 0-.66-.1s-.4-.2-.5-.3c-.18-.2-.3-.4-.4-.6-.1-.2-.15-.5-.15-.8 0-.2 0-.5.1-.7.1-.2.2-.4.4-.6.1-.2.3-.3.5-.4.2-.1.5-.1.8-.1.3 0 .5.1.7.2.2.1.4.2.5.4l-.3.3zm.8 2.96v-3.76h.5c.1 0 .1.02.2.06v.63c.1-.24.3-.42.5-.55.2-.1.4-.2.6-.2.2 0 .3.1.4.2l-.1.7c0 .1-.1.1-.1.1l-.1.1H28c-.2 0-.34.1-.47.2-.15.1-.26.3-.35.5v2.4h-.9zm3.9-3.76v3.76h-.9v-3.76h.9zm.1-1.1c0 .1-.1.16-.1.23l-.1.18c-.1.05-.1.1-.2.12l-.2.05c-.1 0-.2-.02-.3-.05l-.2-.12c-.1-.05-.1-.1-.1-.18v-.45l.1-.18c0-.05.1-.1.1-.12.1-.03.1-.05.2-.05s.1.02.2.05l.2.12c0 .05.1.1.1.18v.23zm.8 6.1v-5h.6c.1 0 .1 0 .2.05l.1.12.1.35c.1-.2.3-.4.5-.5.2-.1.4-.2.7-.2.2 0 .4 0 .5.1.2.1.3.2.4.3s.2.4.3.6c0 .2.1.5.1.8 0 .3-.1.5-.1.8l-.3.6c-.2.1-.3.3-.5.4-.2.1-.5.1-.7.1-.2 0-.4 0-.6-.1-.2-.1-.3-.2-.4-.3v1.5h-.9zm1.8-4.35c-.2 0-.4.04-.5.12-.2.08-.3.2-.4.33v1.7c.1.1.2.2.3.25.1.05.2.08.4.08.1 0 .2-.03.3-.08.1-.05.2-.13.3-.23l.2-.4c0-.2.1-.4.1-.6 0-.2 0-.4-.1-.6-.1-.2-.1-.3-.2-.4 0-.1-.1-.2-.2-.2-.1-.1-.2-.1-.3-.1zm3.6 3.18c-.3 0-.6-.1-.8-.3-.2-.17-.3-.43-.3-.75v-2.1H35c-.04 0-.1 0-.1-.05-.04-.03-.06-.08-.06-.14v-.36l.6-.1.2-1.02c0-.05.02-.1.05-.12 0-.02.1-.04.1-.04h.5v1.2h1v.63h-1v2.04c0 .1 0 .2.1.2s.1.1.2.1h.2l.1-.1s0-.1.1-.1h.2l.2.4c-.2.1-.3.2-.5.2-.1 0-.3.1-.5.1z" fill="#333" fill-rule="nonzero"/><path fill="#333" d="M39.93 112.8h.9v5.43h-.9z"/><path d="M42.82 114.47v3.76h-.9v-3.76h.9zm.13-1.1c0 .1 0 .16-.04.23 0 .07 0 .13-.1.18 0 .05-.1.1-.2.12 0 .03-.1.05-.2.05s-.1-.02-.2-.05l-.2-.12c0-.05-.1-.1-.1-.18v-.22c0-.08 0-.16.1-.23l.1-.18c.1-.05.1-.1.2-.12l.2-.05c.1 0 .2.02.3.05.1.03.2.07.2.12.1.05.1.1.2.18.1.07.1.15.1.23zm.9 4.86v-5.44h.9v2.1c.15-.2.32-.3.5-.4.2-.1.42-.2.67-.2.2 0 .4 0 .56.1.17.1.32.2.44.3.12.1.22.3.3.6.05.2.1.5.1.8 0 .3-.05.5-.13.8s-.2.4-.4.6c-.2.1-.3.3-.5.4-.2.1-.5.1-.7.1-.1 0-.3-.1-.3-.1-.1 0-.2 0-.3-.1-.1 0-.2-.1-.3-.1l-.2-.2-.1.2-.1.1h-.8zm1.76-3.1c-.1 0-.3.03-.4.1l-.4.34v1.7c.1.1.2.2.4.25.1.05.3.08.4.08s.3-.03.4-.08c.1-.05.2-.13.3-.23l.2-.4c.1-.2.1-.4.1-.6v-.6c0-.2-.1-.3-.1-.4-.1-.1-.1-.2-.2-.2-.1-.1-.2-.1-.3-.1zm2.4 3.1v-3.76h.6c.1 0 .2.02.2.06.1.03.1.1.1.17l.1.46c.2-.24.3-.42.5-.55.2-.1.4-.2.6-.2.2 0 .4.1.5.2l-.1.7v.1l-.1.1H50c-.17 0-.34.1-.47.2-.15.1-.27.3-.36.5v2.4h-.9zm5.9 0h-.4c-.1 0-.1 0-.2-.04 0-.1-.1-.1-.1-.2l-.1-.3c-.1.1-.2.1-.2.2l-.3.1c-.1 0-.2.1-.3.1H52c-.14 0-.3-.1-.42-.1-.1-.1-.22-.1-.32-.2s-.16-.2-.22-.3c-.04-.1-.1-.3-.1-.5s.07-.3.15-.4c0-.2.2-.3.3-.4.1-.1.4-.2.7-.3.3-.1.6-.1 1-.1v-.3c0-.3-.1-.4-.2-.6-.1-.2-.3-.2-.5-.2H52l-.3.1-.2.1h-.2c-.1 0-.2 0-.2-.1l-.1-.1-.2-.3c.4-.4.95-.6 1.56-.6.2 0 .4 0 .6.1.15.1.3.2.4.3.1.1.2.3.3.5 0 .2.1.4.1.6v2.4zm-1.7-.56c.1 0 .2 0 .3-.03.1 0 .2-.04.2-.07l.2-.13.2-.17v-.63c-.2 0-.5.02-.6.05-.2 0-.3 0-.4.1-.1 0-.2.1-.2.2v.2s0 .3.1.3.3.1.4.1zm2.7.56v-3.76h.6c.1 0 .2.02.2.06.1.03.1.1.1.17l.1.46c.1-.24.3-.42.5-.55.2-.1.4-.2.6-.2.2 0 .3.1.4.2l-.1.7v.1s0 .1-.1.1h-.4c-.2 0-.3.1-.5.2-.1.1-.2.3-.3.5v2.4h-1zm4.4 1.04l-.1.14c0 .1-.1.1-.2.1h-.6l.7-1.5-1.5-3.5h.8c.1 0 .2 0 .2.1l.1.1.8 2 .1.2c0 .1.1.2.1.2l.1-.2.1-.2.8-1.9.1-.1h.9l-2 4.8zm5.2-.97c-.3 0-.5-.1-.7-.3-.1-.17-.2-.43-.2-.75v-2.1H63c-.1 0-.1 0-.17-.05a.259.259 0 0 1-.04-.14v-.36l.6-.1.2-1.02v-.12l.1-.04h.4v1.2h1v.63h-1v2.04c0 .1 0 .2.1.2 0 0 .1.1.2.1h.1l.1-.1v-.1h.3l.3.4c-.2.1-.3.2-.5.2s-.3.1-.5.1zm1.6-.07v-5.44h.9v2c.2-.2.3-.3.5-.4.2-.1.4-.1.6-.1.2 0 .4 0 .6.1.2 0 .3.1.4.3.1.1.2.2.2.4.1.2.1.3.1.6v2.4h-.9v-2.4c0-.3 0-.4-.1-.6-.1-.2-.3-.2-.5-.2-.1 0-.3 0-.4.1-.1.1-.3.1-.4.3v2.7h-1zm7.1 0h-.4c-.1 0-.1 0-.2-.04 0-.1-.1-.1-.1-.2l-.1-.3c-.1.1-.2.1-.3.2l-.3.1c-.1 0-.2.1-.3.1h-.3c-.1 0-.3-.1-.4-.1-.1-.1-.2-.1-.3-.2-.1-.1-.2-.2-.2-.3v-.5l.1-.4c.1-.2.2-.3.4-.4.2-.1.4-.2.7-.3.3-.1.6-.1 1.1-.1v-.3c0-.3 0-.4-.1-.6-.1-.2-.3-.2-.5-.2h-.4c-.1 0-.2 0-.2.1l-.2.1H71s-.15 0-.2-.1l-.1-.1-.16-.3c.4-.4.94-.6 1.55-.6.2 0 .4 0 .6.1l.4.3c.1.1.2.3.3.5 0 .2.1.4.1.6v2.4zm-1.7-.56c.1 0 .2 0 .3-.03.1 0 .2-.04.2-.07l.2-.13.2-.17v-.63c-.2 0-.5.02-.6.05-.2 0-.3 0-.4.1-.1 0-.1.1-.2.2 0 0-.1.1-.1.2s.1.3.2.3.2.1.4.1zm3.9.63c-.3 0-.6-.1-.7-.3-.2-.17-.3-.43-.3-.75v-2.1H74c-.04 0-.1 0-.1-.05-.04-.03-.06-.08-.06-.14v-.36l.6-.1.2-1.02c0-.05 0-.1.03-.12.08-.02.1-.04.18-.04h.4v1.2h1v.63h-1v2.04c0 .1.04.2.1.2.05 0 .1.1.2.1h.2c.05 0 .1-.1.1-.1s.06-.1.1-.1h.23l.25.4c-.1.1-.25.2-.42.2-.2 0-.4.1-.6.1zm5.7-3.03l-.1.08-.1.03s-.1 0-.1-.04l-.1-.1-.2-.1c-.1-.02-.2-.04-.3-.04-.2 0-.3.03-.5.1-.1.05-.2.13-.3.24 0 .1-.1.24-.1.4v.5s0 .38.1.54c0 .16.1.3.2.4 0 .1.1.18.3.24.1.05.2.08.3.08s.3-.02.4-.05l.3-.12.2-.12h.1c.1 0 .2.1.2.1l.2.4-.3.3c-.1.1-.2.2-.3.2l-.4.1H80c-.2 0-.47 0-.68-.1-.2-.1-.4-.2-.52-.3-.2-.2-.3-.4-.4-.6-.1-.2-.1-.5-.1-.8 0-.2 0-.5.1-.7l.3-.6c.1-.2.3-.3.55-.4.2-.1.5-.1.8-.1s.5.1.7.2c.2.1.4.2.53.4l-.2.3zm2.4-.85c.3 0 .6.04.8.13.2.1.4.22.6.4.2.15.3.36.4.6.1.23.2.5.2.8 0 .3 0 .56-.1.8s-.2.45-.4.6c-.1.18-.3.3-.6.4-.2.1-.4.14-.7.14s-.5-.1-.7-.2-.4-.2-.6-.4c-.2-.2-.3-.4-.4-.6-.1-.3-.1-.5-.1-.8 0-.3.1-.6.2-.8.1-.3.2-.5.4-.6.2-.2.4-.3.6-.4.3-.1.5-.2.8-.2zm0 3.17c.3 0 .6-.1.7-.4.2-.2.3-.5.3-1 0-.4-.1-.7-.2-.9-.1-.2-.4-.3-.7-.3-.3 0-.5.1-.7.3-.1.2-.2.5-.2.9s.1.7.3.9c.1.2.4.3.7.3zm2.6.6v-3.8h.6c.2 0 .2 0 .3.1l.1.3.2-.2.3-.2.3-.1c.1-.1.3-.1.4-.1.2 0 .4 0 .6.1.2.1.3.2.4.3.1.1.2.3.2.4.1.2.1.3.1.6v2.4h-.9v-2.4c0-.3 0-.4-.1-.6-.1-.1-.2-.1-.4-.1s-.3 0-.4.1l-.4.3v2.7H86zm5.9 0h-1l-1.5-3.8h1c.1 0 .1 0 .1.1l.8 2c0 .1.1.2.1.3l.1.3v-.4l.1-.4.7-2c0-.1 0-.1.1-.1 0-.1.1-.1.1-.1h.7l-1.4 3.9zm3.5-3.8c.2 0 .5 0 .7.1s.4.2.5.3c.2.1.3.3.4.5.1.2.1.4.1.7v.3h-2.6c0 .4.2.7.3.8.2.2.5.3.8.3.1 0 .3-.1.4-.1l.3-.1.2-.1c.1-.1.2-.1.2-.1h.2l.3.3-.3.3-.4.2-.4.1h-.4c-.2 0-.5-.1-.7-.2-.2-.1-.4-.2-.6-.4-.1-.2-.3-.4-.4-.6-.1-.3-.1-.6-.1-.9 0-.3.1-.5.2-.7.1-.2.2-.4.4-.6.2-.2.4-.3.6-.4.3-.1.5-.1.8-.1zm0 .6c-.2 0-.5.1-.6.2s-.2.3-.2.6H96c0-.1-.03-.2-.06-.3-.04-.1-.08-.2-.15-.3l-.3-.2c-.1-.1-.2-.1-.4-.1zm2.4 3.1v-3.8h.8l.1.2.1.4c.1-.2.3-.4.5-.6.2-.2.4-.2.6-.2.2 0 .4 0 .5.1l-.1.6v.1h-.4c-.2 0-.3 0-.5.1s-.3.2-.4.4v2.3h-1zm4.3 0c-.3 0-.6-.1-.7-.3-.1-.2-.2-.5-.2-.8v-2h-.4c-.1 0-.1 0-.1-.1-.1-.1-.1-.1-.1-.2v-.3l.6-.1.2-1s0-.1.1-.1h.6v1.2h1v.6h-1v2c0 .1.1.2.1.2.1 0 .2.1.3.1.1 0 .1 0 .1-.1.1 0 .1 0 .1-.1h.3c.1 0 .1 0 .1.1l.3.4c-.1.1-.3.2-.4.3-.2 0-.3.1-.5.1zm3.8-3.1l-.1.1h-.1s-.1 0-.1-.1l-.1-.1-.3-.1h-.3c-.2 0-.3 0-.4.1-.1.1-.1.2-.1.3 0 .1 0 .1.1.2.1 0 .1.1.2.1l.3.1.3.1.3.1c.1 0 .2.1.3.2.1 0 .2.1.2.2.1.1.1.2.1.4 0 .1 0 .3-.1.5 0 .1-.1.3-.3.4-.1.1-.3.2-.4.2-.2 0-.4.1-.6.1-.1 0-.2 0-.4-.1l-.3-.1c-.1-.1-.2-.1-.3-.2-.1-.1-.2-.1-.2-.2l.2-.4.1-.1.2-.1h.2c0 .1.1.1.2.1.1.1.2.1.2.1.1.1.2.1.4.1h.3l.2-.1c0-.1.1-.1.1-.2v-.2s0-.2-.1-.2c0-.1-.1-.1-.2-.2l-.3-.1-.3-.1-.3-.1-.3-.2c-.1-.1-.1-.2-.2-.3 0-.1-.1-.3-.1-.4 0-.2.1-.3.1-.5l.3-.4c.1-.1.3-.2.4-.2h.7c.2 0 .5 0 .7.1.2.1.4.2.5.3l-.2.3zm2.6 3v-3l-.3-.1-.1-.1v-.6h.5v-.2c0-.2.1-.4.1-.6.1-.2.2-.3.3-.4.1-.2.3-.3.5-.3.1-.1.3-.1.6-.1h.4v.4s0 .1-.1.1h-.5c-.1 0-.1 0-.2.1s-.1.1-.1.2v.6h1v.7h-1v3.1h-.9zm4-3.8c.3 0 .6 0 .8.1s.5.2.6.4c.2.1.3.3.4.6.1.2.1.5.1.8 0 .3 0 .5-.1.8l-.3.6c-.2.2-.3.3-.6.4-.2.1-.5.1-.7.1s-.5-.1-.7-.2-.4-.3-.6-.4c-.1-.2-.3-.4-.3-.6-.1-.3-.1-.5-.1-.8 0-.3 0-.6.1-.8.1-.3.2-.5.4-.6.2-.2.4-.3.6-.4.2-.1.5-.2.8-.2zm0 3.1c.3 0 .6-.1.7-.4.2-.2.2-.6.2-1s0-.7-.2-.9c-.1-.2-.4-.3-.7-.3-.3 0-.5.1-.7.3-.1.2-.2.5-.2.9s.1.7.3.9c.1.2.4.3.7.3zm2.6.6v-3.8h.8c.1 0 .1.1.1.2l.1.4c.2-.3.3-.4.5-.6.2-.1.4-.2.6-.2.2 0 .4 0 .5.1l-.1.7v.1h-.1s-.1 0-.1-.1l-.2-.1c-.2 0-.4.1-.5.2-.1.1-.2.2-.3.4v2.3h-.9zm3 0v-3.8h.6c.1 0 .2 0 .3.1v.3l.2-.2.3-.2.2-.1h.3c.3 0 .4 0 .6.2.2.1.3.3.3.5l.2-.4.3-.3c.1-.1.2-.1.4-.1.1-.1.2-.1.3-.1.2 0 .4 0 .6.1.2 0 .3.1.4.2.1.1.2.2.3.4.1.1.1.3.1.6v2.4h-1v-2.4c0-.3 0-.5-.1-.6-.1-.2-.3-.2-.5-.2h-.2l-.2.1s-.1.1-.1.2v2.7h-.9V115c0-.2 0-.4-.1-.5s-.3-.2-.5-.2c-.1 0-.2.04-.3.1-.1.07-.2.16-.3.27v2.8h-.9zm8.4-3l-.1.1h-.2l-.2-.1-.2-.1h-.3c-.2 0-.3 0-.4.1-.1 0-.1.1-.1.3 0 .1 0 .1.1.2l.2.1.3.1.3.1.3.1c.1 0 .2.1.3.1.1.1.2.2.2.3.1.1.1.2.1.4s0 .3-.1.5c0 .1-.1.3-.3.4-.1.1-.2.2-.4.3-.1 0-.4.1-.6.1-.1 0-.2-.1-.4-.1l-.3-.1c-.1 0-.2-.1-.3-.2l-.3-.2.2-.4.1-.1.2-.1h.2l.2.1s.1.1.2.1h.3c.1 0 .2 0 .3-.1l.2-.1c.1 0 .1-.1.1-.1.1-.1.1-.1.1-.2s-.1-.2-.1-.2l-.2-.2-.3-.1-.4-.1-.3-.2-.3-.2-.2-.3v-.5c0-.1 0-.3.1-.4 0-.1.1-.3.2-.4.1-.1.3-.2.5-.3.2-.1.4-.1.6-.1s.5 0 .7.1c.2.1.4.2.5.4l-.2.3zm3.4-.8v3.8h-.9v-3.8h.9zm.2-1.1c0 .1 0 .1-.1.2l-.1.2s-.1.1-.2.1h-.2c-.1 0-.1 0-.2-.1l-.2-.1c-.1-.1-.1-.1-.1-.2v-.2c0-.1.1-.2.1-.3l.1-.2.2-.2h.4c.1 0 .2.1.2.1.1 0 .1.1.2.1.1.1.1.2.1.3zm.9 4.8V114h.5c.2 0 .2.04.3.15v.3l.3-.2.3-.17.3-.1.3-.1c.2 0 .4 0 .6.1.1.07.3.17.4.3.1.1.2.27.2.4l.1.6v2.4h-.9v-2.4c0-.2-.1-.4-.2-.5-.1-.1-.2-.2-.5-.2-.2 0-.3.05-.4.1l-.4.3v2.7h-.9zm5.4 0c-.3 0-.5-.1-.7-.3-.1-.2-.2-.5-.2-.8v-2h-.4s-.1 0-.1-.1v-.5l.6-.1.2-1c0-.1 0-.1.1-.1s.1-.1.2-.1h.5v1.2h1v.6h-1v2.1c0 .1 0 .2.1.2 0 0 .1.1.2.1h.1c.1 0 .1-.1.1-.1s.1 0 .1-.1h.2l.3.4c-.1.1-.3.2-.4.2-.2 0-.3.1-.5.1zm3.2-3.9c.3 0 .6 0 .8.1s.5.2.6.4c.2.1.3.3.4.6.1.2.1.5.1.8 0 .3 0 .5-.1.8s-.2.4-.4.6c-.1.2-.3.3-.5.4-.3.1-.5.1-.8.1s-.6-.1-.8-.2c-.2-.1-.4-.2-.6-.4-.2-.1-.3-.4-.4-.6-.1-.2-.1-.5-.1-.8 0-.3.1-.6.2-.8.1-.2.2-.4.4-.6.2-.2.4-.3.6-.4.3-.1.5-.1.8-.1zm0 3.2c.3 0 .6-.1.7-.4.2-.2.3-.6.3-1s-.1-.7-.3-.9c-.1-.3-.4-.4-.7-.4-.3 0-.5.1-.7.3-.1.2-.2.6-.2 1s.1.7.2.9c.2.2.4.3.7.3zm7 .6h-.4c-.1 0-.2 0-.2-.1l-.1-.2-.1-.3c-.1.1-.2.2-.3.2l-.3.1-.3.1h-.3c-.1 0-.3-.1-.4-.1s-.2-.1-.3-.2-.2-.2-.2-.3c-.1-.1-.1-.3-.1-.4 0-.1 0-.3.1-.4.1-.1.2-.3.4-.4.2-.1.4-.2.7-.3.3-.1.7-.1 1.1-.1v-.3c0-.3-.1-.5-.2-.6-.1-.1-.2-.2-.5-.2-.1 0-.3.1-.3.1-.1 0-.1 0-.2.1l-.2.1h-.2c-.1 0-.1 0-.2-.1-.1 0-.1-.1-.1-.1l-.2-.3c.4-.4 1-.6 1.6-.6.2 0 .4 0 .6.1.15.1.3.2.4.3.1.1.2.3.3.5 0 .1.06.3.06.6v2.4zm-1.8-.6h.3c.1 0 .1 0 .2-.1l.2-.2.2-.2v-.6c-.3 0-.5 0-.7.1-.1 0-.3 0-.4.1-.1 0-.1.1-.2.2v.2c0 .1.1.3.2.3s.2.1.4.1zm6.3-2.5v.1h-.3l-.2-.1-.2-.1h-.3c-.2 0-.3 0-.4.1-.1 0-.1.1-.1.3 0 .1 0 .1.1.2.1 0 .1.1.2.1l.3.1.4.1.4.1c.1 0 .2.1.3.2l.2.2v.4c0 .2 0 .4-.1.5 0 .2-.1.3-.3.4-.1.1-.2.2-.4.3-.2 0-.4.1-.6.1-.1 0-.2 0-.4-.1l-.4-.1-.3-.2c-.1-.1-.2-.1-.3-.2l.2-.4.1-.1h.3l.2.1c.1 0 .2.1.3.1.1 0 .2.1.4.1h.3l.2-.1.1-.2v-.2c0-.1 0-.2-.1-.2-.05-.1-.1-.1-.2-.2l-.3-.1-.34-.1c-.2-.1-.3-.1-.4-.2l-.3-.2c-.1-.1-.2-.2-.2-.3-.1-.1-.1-.3-.1-.5s0-.3.1-.5c.06-.2.15-.3.26-.4.1-.1.3-.2.47-.2l.6-.1c.3 0 .5 0 .8.1.2.1.4.2.5.3l-.2.3zm2.3 3.1c-.3 0-.6-.1-.7-.3-.2-.2-.3-.5-.3-.8v-2h-.4s-.1 0-.1-.1v-.5l.6-.1.2-1c0-.1 0-.1.1-.1.1-.1.1-.1.2-.1h.5v1.2h1v.6h-1v2.1c0 .1.1.2.1.2.1.1.2.1.3.1h.2c.1 0 .1-.1.1-.1h.1l.1.1.3.4c-.1.1-.3.2-.4.2-.2 0-.4.1-.6.1zm3.2-3.9c.3 0 .5 0 .7.1.2.1.4.2.5.3.2.1.3.3.4.5s.1.4.1.7v.2H155c.03.4.14.7.3.8.2.2.44.3.74.3.13 0 .26 0 .36-.1l.28-.1.2-.1h.4l.24.3-.32.3-.4.2-.4.1h-.4c-.3 0-.54-.1-.76-.1-.23-.1-.42-.2-.6-.4-.16-.2-.3-.4-.4-.6-.1-.3-.12-.6-.12-.9 0-.3.06-.5.14-.7.08-.2.2-.4.36-.6.14-.2.33-.3.55-.4.25-.1.5-.1.78-.1zm0 .6c-.3 0-.5 0-.6.2s-.2.3-.3.6h1.7v-.3l-.1-.3c-.1-.1-.2-.1-.3-.2l-.3-.1zm2.4 4.4v-5h.7c.1 0 .1.1.1.1l.1.4c.1-.2.3-.4.5-.5.2-.1.4-.2.7-.2.2 0 .4 0 .6.1.2.1.3.2.4.4l.3.6c.1.3.1.5.1.8 0 .3 0 .5-.1.7s-.2.5-.3.6c-.1.1-.3.3-.5.4-.2.1-.4.1-.7.1-.2 0-.4 0-.5-.1l-.4-.3v1.5h-.9zm1.7-4.2c-.2 0-.4 0-.5.1-.1.1-.3.2-.4.3v1.7c.1.1.2.2.4.2h.4l.4-.1c.2-.1.2-.2.3-.3.1-.2.2-.3.2-.4.1-.2.1-.4.1-.6v-.6c0-.2-.1-.3-.2-.4 0-.1-.1-.2-.2-.3l-.3-.1z" fill="#333" fill-rule="nonzero"/><path fill="#333" d="M162.26 115.64h1.9v.75h-1.9z"/><path d="M165.02 118.23v-5.44h.9v2.1c.15-.2.32-.3.5-.4.2-.1.4-.2.67-.2.2 0 .3 0 .5.1.1.1.3.2.4.3.1.1.2.3.2.6 0 .2.1.5.1.8 0 .3-.1.5-.1.8-.1.2-.2.4-.4.6-.2.1-.3.3-.5.4-.2.1-.5.1-.7.1-.2 0-.3-.1-.4-.1-.1 0-.2 0-.3-.1-.1 0-.2-.1-.3-.1l-.2-.2-.1.2s0 .1-.1.1h-.8zm1.75-3.1a1.03 1.03 0 0 0-.88.44v1.7c.1.1.2.2.3.25.1.05.2.08.4.08s.2-.03.3-.08c.1-.05.2-.13.3-.23l.1-.4v-.6c0-.2-.1-.4-.1-.6-.1-.2-.1-.3-.2-.4-.1-.1-.1-.2-.2-.2-.1-.1-.2-.1-.4-.1zm3.63 4.14c-.03.06-.07.1-.1.14-.06.1-.12.1-.2.1h-.68l.7-1.5-1.52-3.5h.8c.07 0 .12 0 .16.1l.1.1.8 2 .06.2.05.2.07-.2.07-.2.8-1.9.1-.1h1l-2 4.8z" fill="#333" fill-rule="nonzero"/><path fill="#333" d="M172.85 115.64h1.9v.75h-1.9z"/><path d="M177.83 115.2l-.08.1h-.1c-.05 0-.1 0-.14-.02l-.1-.1-.2-.07h-.3c-.1 0-.3.1-.4.1-.1.1-.1.2-.1.3 0 .1.1.2.1.2l.3.2.3.1.3.1.4.2c.1.1.2.1.3.2l.2.3c.1.1.1.3.1.4 0 .2 0 .4-.1.5 0 .2-.1.3-.3.4-.1.1-.2.2-.4.3-.1.1-.4.1-.6.1h-.3l-.3-.1c-.1 0-.2-.1-.3-.1-.1 0-.2-.1-.2-.1l.2-.3.1-.1h.1c.1 0 .1 0 .2.1l.2.1c.1.1.2.1.3.1.1.1.2.1.4.1h.3l.2-.1c.1 0 .1-.1.1-.1.1 0 .1-.1.1-.1 0-.1 0-.1-.1-.2l-.2-.1-.3-.1-.4-.1-.3-.1-.3-.2c-.1-.1-.2-.2-.2-.3-.1-.1-.1-.2-.1-.4s0-.3.1-.4c.1-.1.1-.2.3-.3.1-.1.3-.2.4-.2h.6c.3 0 .5 0 .7.1l.6.3-.2.4zm2.2 3.1c-.32 0-.57-.1-.75-.3-.17-.17-.26-.43-.26-.75v-2.1h-.38c-.05 0-.1 0-.13-.05v-.5l.6-.1.2-1.02c0-.05 0-.1.1-.12.1-.02.1-.04.2-.04h.5v1.2h1v.63h-1v2.04c0 .1.1.2.1.2.1 0 .2.1.2.1h.2l.1-.1.1-.1h.2l.3.4c-.1.1-.3.2-.4.2-.2 0-.4.1-.5.1zm3.17-3.88c.22 0 .44.03.64.1.2.1.37.2.5.34.16.15.27.32.35.54 0 .2.1.45.1.72v.17l-.1.1h-2.5c0 .4.1.6.3.8.2.2.4.2.7.2.1 0 .3-.1.4-.1l.2-.1.2-.1c.1-.1.1-.1.2-.1h.1l.2.3c-.1.1-.2.2-.4.3-.1.1-.3.1-.4.2l-.4.1h-.4c-.3 0-.5-.1-.8-.2-.2-.1-.4-.3-.6-.4-.2-.2-.3-.4-.4-.7-.1-.3-.2-.6-.2-.9 0-.2 0-.5.1-.7.1-.2.2-.4.4-.6.1-.1.3-.3.5-.4.2-.1.5-.1.7-.1zm0 .64c-.26 0-.47.08-.6.23-.16.1-.26.3-.3.6h1.7c0-.1-.02-.3-.05-.4-.03-.1-.08-.2-.15-.3-.06-.1-.15-.2-.25-.2-.1-.1-.2-.1-.35-.1zm2.35 4.4v-4.98h.55c.06 0 .1 0 .15.04.04.02.07.06.08.12l.07.35c.16-.2.33-.4.53-.5.2-.1.42-.2.7-.2.2 0 .38 0 .55.1.17.1.3.2.44.3.12.2.22.4.28.6.07.2.1.5.1.8 0 .3-.03.5-.1.8-.08.2-.2.4-.33.6-.14.1-.3.3-.5.4-.2.1-.43.1-.68.1-.3 0-.4 0-.6-.1-.2-.1-.3-.2-.4-.3v1.5h-.9zm1.76-4.34c-.1 0-.3.04-.4.12-.1.08-.2.2-.3.33v1.7c.1.1.2.2.4.25.1.05.3.08.4.08.1 0 .3-.03.4-.08.1-.05.2-.13.3-.23l.2-.4c.1-.2.1-.4.1-.6v-.6c0-.2-.1-.3-.1-.4-.1-.1-.1-.2-.2-.2-.1-.1-.2-.1-.3-.1zM23 125.56v-3.08l-.33-.05c-.07 0-.12-.04-.17-.07a.227.227 0 0 1-.06-.16v-.37H23v-.28c0-.2.03-.4.1-.57.06-.18.15-.32.28-.44.12-.12.26-.2.44-.28.17-.06.36-.1.58-.1.18 0 .34.03.5.08l-.03.45s-.04.1-.1.1h-.5c-.1 0-.16 0-.22.1-.05 0-.1.1-.13.2s-.04.2-.04.3v.2h.97v.6h-.95v3H23zm4.02-3.82c.27 0 .52.05.75.14.23.1.43.22.6.38a2.146 2.146 0 0 1 .51 1.4c0 .3-.04.58-.13.82-.08.24-.2.44-.36.6-.2.18-.4.3-.6.4-.3.1-.5.13-.8.13-.3 0-.6 0-.8-.1-.3-.1-.4-.2-.6-.4-.2-.1-.3-.3-.4-.6-.1-.2-.1-.5-.1-.8 0-.3 0-.5.1-.8.1-.2.2-.4.4-.6.1-.1.3-.3.5-.4.2-.1.5-.1.7-.1zm0 3.18c.3 0 .53-.1.68-.32.15-.2.23-.52.23-.92s-.06-.72-.2-.93c-.16-.2-.4-.32-.7-.32-.3 0-.55.1-.7.32-.16.22-.23.52-.23.93 0 .4.07.7.23.92.14.2.37.32.7.32zm2.55.64v-3.76h.53c.1 0 .16.02.2.05.03.04.06.1.07.18l.05.45c.14-.23.3-.4.48-.55.18-.13.38-.2.6-.2.2 0 .34.04.46.13l-.1.68-.06.1-.1.02c-.04 0-.1 0-.15-.03-.06-.02-.15-.02-.25-.02-.2 0-.35.1-.5.2-.12.1-.23.3-.32.5v2.4h-.9zm3 0v-3.76h.55c.1 0 .2.05.23.16l.06.28c.1-.07.1-.14.2-.2l.2-.16.3-.1c.1-.03.2-.04.3-.04.3 0 .5.07.6.2.2.12.3.3.4.5l.3-.32c.1-.1.2-.16.3-.2.1-.07.2-.1.4-.14.1-.03.3-.04.4-.04.2 0 .4.03.6.1.2.06.3.15.4.27.1.2.2.3.3.5s.1.4.1.6v2.4h-1v-2.4c0-.2 0-.4-.1-.5s-.2-.2-.4-.2c-.1 0-.2.1-.3.1-.1.1-.2.1-.2.2-.1.1-.1.2-.2.2 0 .1-.1.2-.1.3v2.4H35v-2.4c0-.2-.05-.4-.15-.5s-.24-.1-.44-.1c-.1 0-.2 0-.3.1l-.3.3v2.8h-.9zm7.12-3.76h.7l.2.05v.12l.5 2v.63l.1-.3.1-.32.6-2.02c0-.05 0-.1.1-.12 0-.03.1-.05.1-.05h.5l.1.1.6 2 .1.3v.3-.3l.1-.4.5-2v-.2c0-.1.1-.1.1-.1h.7l-1.2 3.7H43c-.1 0-.1-.1-.15-.2l-.7-2.2-.05-.2c0-.1-.03-.1-.04-.2l-.04.2-.1.2-.7 2.1c-.04.1-.1.1-.2.1h-.7l-1.18-3.8zm7.2 0v3.76H46v-3.76h.9zm.1-1.1c0 .08 0 .16-.1.22l-.2.18c-.1.06-.1.1-.2.13s-.2.04-.3.04c-.1 0-.2 0-.2-.04l-.2-.13c-.1-.05-.1-.1-.2-.18v-.44l.1-.2c0-.04.1-.08.2-.1.1-.04.1-.05.2-.05s.1 0 .2.04l.2.12.1.1s.1.1.1.2zm3.6 1.47c0 .07 0 .13-.1.2l-.1.14-1.8 2.4h1.8v.7h-2.9v-.5s0-.1.1-.1l1.8-2.4h-1.8v-.7h2.8v.4zm3.7 3.4h-.4c-.1 0-.2-.03-.2-.05-.1-.03-.1-.08-.1-.16l-.1-.26-.3.22c-.1.07-.2.12-.3.16-.1.05-.2.08-.3.1-.1.03-.3.04-.4.04-.2 0-.3-.03-.5-.07-.2-.04-.3-.1-.4-.2-.1-.08-.2-.18-.2-.3-.1-.14-.1-.3-.1-.46 0-.2 0-.3.1-.5s.2-.3.4-.4c.1-.1.4-.2.7-.3.2-.1.6-.1 1-.1v-.2c0-.3-.1-.5-.2-.6-.1-.1-.3-.2-.5-.2h-.4l-.3.1-.2.1h-.2c-.1 0-.1 0-.2-.1s-.1-.1-.1-.2l-.2-.3c.4-.4.9-.6 1.6-.6.2 0 .4 0 .5.1.2.1.3.2.4.3.1.1.2.3.3.5s.1.3.1.6v2.3zm-1.8-.57c.1 0 .1 0 .2-.1l.2-.07c.1-.04.1-.08.2-.13.1-.04.1-.1.2-.17v-.64h-.7l-.4.1c-.1 0-.2.1-.3.2-.1 0-.1.1-.1.2s0 .3.1.3.2.1.3.1zm2.6.5v-3.75h.5c.1 0 .2 0 .2.04 0 0 .1.1.1.2v.4c.1-.3.3-.4.4-.6.2-.2.4-.2.6-.2.2 0 .3 0 .4.1l-.1.7-.1.1H57c-.04 0-.1 0-.15-.1-.04-.1-.1-.1-.2-.1-.2 0-.36 0-.5.1-.16.1-.28.2-.37.4v2.3H55zm5.6 0c-.1 0-.2-.05-.2-.16l-.1-.38c-.1.1-.2.16-.2.23l-.3.2c-.1 0-.2.1-.4.1h-.4c-.2 0-.4-.1-.6-.1-.2-.1-.4-.2-.5-.4l-.3-.6c-.1-.3-.1-.5-.1-.8 0-.3 0-.6.1-.8.1-.3.2-.5.3-.6.1-.2.3-.3.5-.4.2-.1.4-.2.6-.2.2 0 .4 0 .5.1.1 0 .3.1.4.2V120h.9v5.48h-.6zm-1.2-.66c.2 0 .3-.06.5-.13.1 0 .2-.2.3-.3v-1.7c-.1-.1-.2-.2-.4-.2-.1 0-.3-.1-.4-.1-.1 0-.3 0-.4.1-.1.1-.2.1-.3.3-.1.1-.2.2-.2.4-.1.2-.1.4-.1.6v.6c0 .2.1.3.1.4 0 .1.1.2.2.2.1.1.2.1.3.1zm3.7-3.1h.8s.1.02.1.05v.1l.5 2 .1.3v.3l.1-.3.1-.3.7-2v-.1c0-.1.1-.1.2-.1h.5l.1.1.6 2 .1.3v.3-.4l.1-.3.5-2c0-.1 0-.1.1-.1 0-.1.1-.1.1-.1h.6l-1.2 3.7H67c-.05 0-.1-.1-.14-.2l-.66-2.1-.1-.2-.08-.3c0 .1-.03.1-.05.2v.2l-.7 2.1c0 .1-.1.2-.2.2h-.7l-1.2-3.7zm7.2 0v3.76h-.9v-3.75h.9zm.1-1.1c0 .08-.1.16-.1.22s-.1.12-.1.17l-.2.13c-.1.04-.2.05-.3.05h-.2c-.1 0-.2 0-.2-.1-.1 0-.1-.1-.1-.2-.1 0-.1-.1-.1-.2v-.2l.1-.2s.1-.1.2-.1h.2c.1 0 .1 0 .2.1l.1.1c.1 0 .1.1.1.2v.3zm2.1 4.92c-.3 0-.6-.1-.8-.3-.2-.2-.3-.43-.3-.75v-2.1H71c-.04 0-.05 0-.05-.1v-.4l.6-.1.2-1s0-.1.04-.1h.5v1.2h1v.7h-1v2.1c0 .2 0 .3.1.3 0 .1.1.1.2.1h.4v-.1.1l.2.5c-.2.1-.3.2-.5.3s-.4.1-.6.1zm1.6-.07V120l.9.02v2.1c.1-.15.3-.26.5-.35.1-.1.3-.13.6-.13.2 0 .4.03.5.1.1.06.3.16.4.3.1.1.2.26.2.44 0 .16.1.36.1.57v2.4h-1v-2.4c0-.2-.1-.4-.2-.52-.1-.13-.3-.2-.5-.2s-.3.04-.5.1c-.1.08-.3.18-.4.3v2.7H74zm7.4 0H81l-1.48-3.8h.92l.1.1.7 2c.06.1.1.2.12.3l.07.3.08-.4c.1-.1.1-.3.2-.4l.8-2c0-.1.1-.1.1-.1.1-.1.1-.1.2-.1h.7l-1.5 3.8zm4.9 0h-.4c-.1 0-.2 0-.2-.1l-.2-.2-.1-.3c-.1.1-.2.1-.3.2l-.3.1c-.1 0-.2.1-.3.1h-.4c-.2 0-.3-.1-.4-.1-.1-.1-.3-.1-.3-.2l-.3-.3c-.1-.2-.1-.3-.1-.5s0-.3.1-.5l.3-.4c.1-.1.4-.2.7-.3.2 0 .6-.1 1-.1v-.2c0-.2-.1-.4-.2-.6-.1-.1-.3-.2-.5-.2h-.4l-.2.1-.2.1c-.1 0-.2.1-.2.1s-.1 0-.2-.1l-.1-.1-.2-.3c.4-.4.9-.6 1.5-.6.3 0 .5.1.6.1.2.1.4.2.5.3l.3.5s.1.3.1.5v2.4zm-1.8-.6c.1 0 .1 0 .2-.1l.2-.1.2-.1.2-.2v-.7h-.7l-.4.1c-.1 0-.2.1-.3.1l-.1.2c0 .1 0 .2.1.3.1.1.2.1.3.1z" fill="#333" fill-rule="nonzero"/><path fill="#333" d="M87.75 120.1h.9v5.45h-.9z"/><path d="M90.64 121.8v3.76h-.9v-3.76h.9zm.14-1.1c0 .08-.02.16-.05.22-.03.07-.08.13-.13.18a.4.4 0 0 1-.18.13c-.07.03-.15.04-.23.04-.1 0-.2 0-.3-.04-.1-.03-.2-.07-.2-.13-.1-.05-.1-.1-.2-.18-.1-.06-.1-.14-.1-.22v-.22l.1-.2c0-.04.1-.08.1-.1.1-.04.1-.05.2-.05s.1 0 .2.04l.1.12c.1 0 .1.1.1.1v.2zm3.52 4.86c-.1 0-.2-.06-.22-.17L94 125c-.08.1-.16.17-.24.24-.1.07-.18.13-.28.18-.1.05-.2.1-.32.12-.1.03-.23.04-.37.04-.2 0-.4-.03-.6-.12-.2-.08-.3-.2-.5-.37-.2-.2-.3-.4-.3-.6-.1-.3-.1-.5-.1-.8 0-.3 0-.6.1-.8 0-.3.1-.5.3-.6.1-.2.3-.3.5-.4.2-.1.4-.2.7-.2.2 0 .4 0 .5.1s.3.1.4.2v-2h.9v5.4h-.6zm-1.2-.67c.2 0 .35-.1.48-.2s.26-.2.38-.4v-1.7c-.1-.2-.22-.2-.34-.3-.12-.1-.25-.1-.4-.1-.13 0-.25 0-.36.1-.1 0-.2.1-.28.2-.08.1-.14.2-.18.4-.04.1-.06.3-.06.5s0 .4.05.5c0 .1 0 .2.1.3 0 .1.1.1.2.2h.3zm5.68.6h-.4c-.1 0-.16 0-.2-.1-.06-.1-.1-.1-.12-.2l-.08-.3-.28.2-.28.1c-.1 0-.2.1-.3.1h-.38c-.16 0-.3-.1-.44-.1-.13-.1-.25-.1-.34-.2-.1-.1-.18-.2-.23-.3-.05-.2-.08-.3-.08-.5s.04-.3.1-.5c.1-.2.2-.3.38-.4.18-.1.4-.2.7-.3.28-.1.64-.1 1.07-.1v-.2c0-.3-.05-.5-.16-.6-.1-.1-.26-.2-.46-.2h-.37c-.1 0-.1.1-.2.1l-.2.1h-.2s-.1 0-.1-.1l-.1-.1-.1-.3c.5-.4 1-.6 1.6-.6.2 0 .4 0 .6.1.2.1.4.2.5.3.1.1.2.3.3.5.1.1.1.3.1.5v2.4zm-1.76-.6c.1 0 .18 0 .26-.1.08 0 .15-.1.22-.1l.2-.2c.07-.1.13-.1.2-.2v-.7h-.66l-.43.1c-.1 0-.1.1-.2.2v.2c0 .2.1.3.2.3s.2.1.4.1zm3.88.6c-.32 0-.57-.1-.74-.3-.18-.2-.27-.5-.27-.8v-2.1h-.4c-.1 0-.1 0-.2-.1-.1 0-.1-.1-.1-.2v-.4l.6-.1.2-1.1v-.1c0-.1 0-.1.1-.1h.4v1.2h1v.6h-1v2c0 .1 0 .2.1.3.1 0 .2.1.3.1h.2v-.1h.1l.1.1.2.4c-.2.1-.3.2-.5.2s-.4.1-.6.1zm2.57-3.9v3.7h-.9v-3.8h.9zm.14-1.1v.2l-.1.1s-.1.1-.2.1h-.2s-.1 0-.2-.1l-.1-.1c0-.1-.1-.1-.1-.2v-.2c0-.1 0-.2.1-.3 0-.1.1-.1.1-.2l.2-.1.2-.1h.3l.2.1c.1 0 .1.1.2.2s.1.1.1.2zm2.5 1c.3 0 .6 0 .8.1.3.1.4.2.6.4.2.1.3.3.4.6.1.2.2.5.2.8 0 .3 0 .5-.1.8s-.2.4-.4.6c-.1.2-.3.3-.6.4-.2.1-.5.1-.7.1s-.5-.1-.7-.1c-.2-.1-.4-.3-.6-.4-.1-.2-.3-.4-.4-.6-.1-.3-.1-.5-.1-.8 0-.3.1-.6.2-.8.1-.3.2-.5.4-.7.2-.2.4-.3.6-.4.2-.1.5-.2.8-.2zm0 3.2c.3 0 .6-.1.7-.4.2-.2.3-.5.3-.9s-.1-.7-.2-.9c-.1-.2-.4-.3-.7-.3-.3 0-.5.1-.7.3-.1.2-.2.5-.2.9s.1.7.2.9c.2.2.4.3.7.3zm2.6.6v-3.8h.6c.2 0 .2 0 .3.1l.1.3c.1-.1.2-.2.3-.2l.3-.2.3-.1.4-.1c.2 0 .4 0 .6.1.2 0 .3.1.4.3.1.1.2.2.3.4.1.1.1.3.1.5v2.4h-.9v-2c0-.3 0-.4-.1-.6-.1-.1-.2-.2-.5-.2-.1 0-.3 0-.4.1l-.4.3v2.7h-.9zm8.5 0h-.4c-.1 0-.1-.1-.2-.1 0-.1-.1-.1-.1-.2l-.1-.3-.3.2-.2.1c-.1 0-.2.1-.3.1h-.3c-.1 0-.3 0-.4-.1-.1-.1-.2-.1-.3-.2s-.1-.2-.2-.3v-.5c0-.1 0-.3.1-.4.1-.1.2-.3.4-.4.2-.1.4-.2.7-.3.3-.1.7-.1 1.1-.1v-.2c0-.3 0-.5-.1-.6-.1-.1-.3-.2-.5-.2h-.3l-.2.1-.2.1h-.2s-.1 0-.1-.1l-.1-.1-.2-.3c.5-.4 1-.6 1.6-.6.2 0 .4 0 .6.1.2.1.4.2.5.3.2.1.3.3.3.4.1.1.1.3.1.5v2.4zm-1.7-.6c.1 0 .2 0 .3-.1.1 0 .2-.1.2-.1l.2-.2c.1-.1.2-.1.2-.2v-.7h-.6l-.4.1c-.1 0-.1.1-.2.1v.2c0 .1.1.2.2.3.1.1.2.1.4.1zm2.7.5v-3.8h.6c.1 0 .2 0 .3.1l.1.3.3-.2.3-.2.3-.1c.1-.1.2-.1.4-.1s.4 0 .6.1c.2 0 .3.1.4.3.1.1.2.2.3.4.1.1.1.3.1.5v2.4h-.9v-2c0-.2-.1-.4-.2-.6s-.2-.2-.5-.2c-.1 0-.3 0-.4.1-.1 0-.2.1-.4.3v2.7h-.9zm6.8 0c-.1 0-.2-.1-.2-.2v-.4l-.2.2-.3.2c-.1 0-.2.1-.3.1h-.4s-.4 0-.5-.1-.3-.2-.4-.4l-.3-.6c0-.3-.1-.5-.1-.8 0-.3.1-.6.2-.8l.3-.6c.2-.2.3-.3.5-.4.2-.1.5-.2.7-.2.2 0 .4 0 .5.1.2 0 .3.1.4.2V120h.9v5.47h-.6zm-1.2-.7c.2 0 .4-.1.5-.1s.3-.2.4-.4v-1.7l-.3-.3c-.1-.1-.2-.1-.4-.1s-.2 0-.3.1c-.1 0-.2.1-.3.2 0 .1-.1.2-.1.4v.6c0 .2.1.4.1.5.1.1.1.2.2.3.1.1.2.1.3.2h.3zm6.8-2.3l-.1.1h-.1s-.1 0-.1-.1l-.1-.1-.2-.1-.3-.1h-.4c-.1.1-.2.1-.3.3 0 .1-.1.2-.1.4v.5l.1.5c.1.1.1.3.2.4.1.1.2.2.3.2h.8l.2-.1.2-.1c.1-.1.1-.1.2-.1s.2 0 .2.1l.3.3-.3.3-.3.2-.4.1h-.4c-.2 0-.4-.1-.7-.2-.2-.1-.4-.2-.5-.4l-.3-.6c-.1-.3-.1-.6-.1-.9 0-.3 0-.6.1-.8s.2-.5.3-.6c.2-.2.4-.3.6-.4.2-.1.5-.2.8-.2.3 0 .5 0 .7.1.2.1.4.2.6.4l-.2.3zm1.7-.8v2.4c0 .2.1.4.2.5s.3.2.5.2.3-.1.5-.1l.4-.3v-2.8h.9v3.8h-.6c-.1 0-.2-.1-.2-.2l-.1-.3-.2.2-.2.1c-.1 0-.2.1-.3.1h-.3c-.2 0-.4 0-.5-.1-.1-.1-.3-.2-.4-.3-.1-.1-.2-.3-.2-.5 0-.1-.1-.3-.1-.5v-2.4h.9zm5.6.7h-.1s-.1 0-.1-.1l-.2-.1-.2-.1c-.1-.1-.2-.1-.3-.1-.2 0-.3 0-.4.1-.1.1-.1.2-.1.3 0 .1.1.2.1.2l.2.2.3.1.4.1.3.1.3.2c.1.1.2.2.2.3.1.1.1.2.1.4s0 .3-.1.5l-.3.4c-.1.1-.3.2-.5.2-.2.1-.4.1-.6.1-.1 0-.2 0-.3-.1-.1 0-.2 0-.4-.1l-.3-.1-.2-.2.2-.4.1-.1.1-.1c.1 0 .1 0 .2.1l.2.1.3.1h.3c.1 0 .2 0 .3-.1l.2-.1.1-.1v-.1c0-.1 0-.2-.1-.3 0 0-.1-.1-.2-.1l-.3-.1-.3-.1-.4-.1c-.1-.1-.2-.1-.3-.2l-.2-.3v-.4c0-.2.1-.3.1-.5l.3-.3c.1-.1.3-.2.5-.2.2-.1.4-.1.7-.1s.5 0 .7.1l.6.3-.2.3zm2.2 3.1c-.3 0-.5-.1-.7-.3-.1-.2-.2-.5-.2-.8V122h-.3s-.1 0-.1-.04c0 0-.1-.1-.1-.13v-.4l.6-.1.2-1.06c0-.05.1-.1.1-.1 0-.04.1-.05.1-.05h.5v1.2h1v.64h-1V124c0 .1 0 .2.1.3.1 0 .1.1.2.1s.1-.07.2-.08l.1-.05.1-.03h.2l.1.06.3.46c-.1.1-.2.2-.4.3-.1.04-.3.1-.5.1zm3.3-3.9c.3 0 .5 0 .8.1.3.1.5.2.6.4.2.1.3.3.4.6.1.2.1.5.1.8 0 .3 0 .5-.1.8s-.2.4-.4.6c-.1.2-.3.3-.6.4-.2.1-.4.1-.7.1s-.5 0-.8-.1c-.2-.1-.4-.3-.6-.4-.2-.2-.3-.4-.4-.6-.1-.3-.1-.5-.1-.8 0-.3.1-.6.2-.8.1-.3.2-.5.4-.7.2-.1.4-.3.6-.4.3-.1.5-.2.8-.2zm0 3.2c.3 0 .5-.1.7-.4.1-.2.2-.5.2-.9s-.1-.7-.2-1c-.1-.2-.4-.3-.7-.3-.3 0-.5.1-.7.3-.1.2-.2.5-.2.9s.1.7.2.9c.2.2.4.3.7.3zm2.6.6v-3.8h.6c.1 0 .2 0 .3.1l.1.2.2-.2.3-.2.3-.1.3-.1c.3 0 .4.1.6.2.2.1.3.3.3.5.1-.1.1-.2.2-.3.1-.1.2-.2.3-.2.1-.1.2-.1.3-.1l.4-.1c.2 0 .4 0 .6.1.2.1.3.2.5.3l.3.4c.1.2.1.4.1.6v2.4h-.9v-2c0-.3 0-.4-.1-.6-.1-.1-.3-.2-.5-.2h-.2c-.1 0-.1 0-.2.1s-.1.1-.1.2-.1.2-.1.4v2.4h-.9V123c0-.25 0-.43-.1-.54-.1-.1-.2-.2-.4-.2-.1 0-.2.05-.4.1-.1.1-.2.16-.3.3v2.76h-.9zm10.2-3h-.1s-.1 0-.1-.1l-.1-.1-.3-.1h-.7l-.3.3c-.1.1-.1.2-.2.4v1c0 .2.1.3.2.4l.3.2h.4c.1 0 .3 0 .4-.1l.2-.2.2-.1h.2c.1 0 .2 0 .2.1l.3.3-.3.3-.3.2c-.1 0-.3.1-.4.1h-.4c-.2 0-.4 0-.7-.1-.2-.1-.4-.2-.5-.3-.2-.2-.3-.4-.4-.6-.1-.3-.1-.5-.1-.8 0-.3.1-.6.2-.8.1-.2.2-.5.4-.6.1-.2.3-.3.5-.4.2-.1.5-.2.8-.2s.5 0 .7.1c.2.1.4.2.6.4l-.2.3zm2.5-.9c.3 0 .5 0 .8.1.2.1.4.2.6.4.2.1.3.3.4.6.1.2.1.5.1.8 0 .3 0 .5-.1.8s-.2.4-.3.6c-.1.2-.3.3-.6.4-.2.1-.5.1-.7.1s-.5 0-.8-.1c-.2-.1-.4-.3-.6-.4-.1-.2-.3-.4-.3-.6-.1-.3-.1-.5-.1-.8 0-.3 0-.6.1-.8.1-.3.2-.5.4-.7.2-.2.4-.3.6-.4.2-.1.5-.2.8-.2zm0 3.2c.3 0 .6-.1.7-.3.2-.2.2-.5.2-.9s-.1-.7-.2-.9c-.1-.2-.3-.3-.7-.3-.3 0-.5.1-.7.3-.1.2-.2.5-.2.9s.1.7.3.9c.2.2.4.3.7.3z" fill="#333" fill-rule="nonzero"/><path fill="#333" d="M160.98 120.1h.9v5.45h-.9z"/><path d="M164.5 121.74c.3 0 .54.05.77.14.23.1.42.22.6.38.15.17.27.37.36.6.1.25.13.52.13.8 0 .3-.04.58-.13.82-.1.24-.2.44-.37.6-.17.18-.36.3-.6.4-.22.1-.47.13-.75.13-.2 0-.5 0-.7-.1-.2-.1-.4-.2-.6-.4-.1-.1-.2-.3-.3-.6-.1-.2-.1-.5-.1-.8 0-.3.1-.5.2-.8.1-.2.2-.4.4-.6.2-.1.4-.3.6-.4.2-.1.5-.1.8-.1zm0 3.18c.32 0 .55-.1.7-.32.15-.2.23-.52.23-.92s-.08-.72-.23-.93c-.15-.2-.38-.32-.7-.32-.3 0-.54.1-.7.32-.15.22-.22.52-.22.93 0 .4.07.7.22.92.16.2.4.32.7.32zm2.57.64v-3.76h.53c.1 0 .16.02.2.05.03.04.05.1.07.18l.05.45c.14-.23.3-.4.48-.55.18-.13.38-.2.6-.2.2 0 .34.04.46.13l-.1.68-.06.1-.1.02c-.04 0-.1 0-.15-.03-.06-.02-.15-.02-.25-.02-.2 0-.35.1-.5.2-.12.1-.23.3-.33.5v2.4h-.9zm5.23-3.03c-.03.04-.06.07-.1.08 0 .1-.05.1-.1.1h-.3l-.23-.1h-.3c-.18 0-.32.1-.42.1-.1.1-.15.2-.15.3 0 .1.02.2.08.2.05.1.12.2.2.2.1.1.2.1.3.1l.34.2.33.1.3.2c.1.1.16.2.2.3.06.1.1.2.1.4s-.05.3-.1.5c-.08.1-.17.3-.3.4-.13.1-.28.2-.47.3-.2.1-.4.1-.64.1h-.38c-.13 0-.25 0-.36-.1l-.3-.1-.27-.2.2-.3.1-.1h.14c.06 0 .1 0 .16.1l.18.1.3.1c.1.1.2.1.4.1.1 0 .2 0 .3-.1.1 0 .2 0 .2-.1l.1-.1c.1 0 .1-.1.1-.1 0-.1 0-.1-.1-.2 0 0-.1-.1-.2-.1l-.3-.1-.3-.1-.3-.1c-.1 0-.2-.1-.3-.2-.1-.1-.1-.2-.2-.3 0-.1-.1-.2-.1-.4s.1-.3.1-.4c.1-.2.2-.3.3-.4l.5-.3c.2 0 .4-.1.6-.1.3 0 .5.1.7.2l.6.3-.2.4zm-95.07 10.35v-3.76h.55c.12 0 .2.06.23.17l.1.3.3-.3.3-.2.3-.1c.1-.1.3-.1.4-.1.2 0 .4 0 .6.1.2 0 .3.1.4.3.1.1.2.2.3.4.1.2.1.4.1.6v2.4h-.9v-2.4c0-.3 0-.4-.1-.6s-.3-.2-.5-.2c-.1 0-.3 0-.4.1-.1 0-.2.1-.4.3v2.7h-.9zm4.17 1.22v-4.98h.54c.06 0 .1.02.15.04v.13l.1.3c.1-.2.3-.3.5-.4.2-.1.4-.2.7-.2.2 0 .4 0 .5.1.1.1.3.2.4.3.1.1.2.3.3.6 0 .2.1.5.1.8 0 .2-.1.5-.2.7l-.3.6c-.2.1-.3.3-.5.4-.2.1-.5.1-.7.1-.2 0-.4 0-.6-.1-.2-.1-.3-.1-.4-.3v1.6h-.9zm1.75-4.33c-.2 0-.35.04-.48.12-.14 0-.26.1-.38.3v1.7c.1.1.2.2.3.2.1 0 .2.1.4.1s.2-.1.3-.1c.1-.1.2-.2.2-.3.1-.1.1-.3.2-.4v-.6c0-.2 0-.4-.1-.6 0-.2-.1-.3-.2-.4-.1-.1-.2-.2-.3-.2l-.3-.1zm2.38 3.1v-3.75h.56c.1 0 .1.06.2.17v.2l.2-.2.2-.2.2-.1.3-.1c.2 0 .4 0 .6.2.1.1.2.3.3.5.1-.2.1-.3.2-.3.1-.1.2-.2.3-.2.1-.1.2-.1.3-.2h.3c.2 0 .4 0 .5.1.1 0 .3.1.4.2.1.1.2.3.2.4 0 .1.1.3.1.6v2.4h-.9v-2.4c0-.3-.1-.4-.2-.6-.1-.1-.3-.2-.5-.2h-.3c-.1 0-.1 0-.2.1l-.1.2c-.1.1-.1.2-.1.3v2.4h-.9V130c0-.26-.1-.4-.2-.56-.1-.1-.3-.15-.5-.15-.1 0-.3 0-.4.1-.1 0-.2.1-.3.2v2.7H85z" fill="#333" fill-rule="nonzero"/><path fill="#333" d="M93 130.3h1.9v.74H93z"/><path d="M99.04 132.88h-.82l-1.5-3.76h.76c.06 0 .12.02.16.05.05.03.08.07.1.12l.72 2c.04.1.08.2.1.3l.08.3.08-.4.1-.4.75-2c.02-.1.05-.1.1-.2.03-.1.1-.1.15-.1h.7l-1.48 3.8zm4.96 0h-.4c-.08 0-.15 0-.2-.04-.05-.02-.08-.07-.1-.15l-.1-.3c-.08.1-.18.1-.27.2l-.28.1c-.1 0-.2.1-.3.1h-.38c-.16 0-.3 0-.44-.1-.13-.1-.25-.1-.35-.2-.1-.1-.17-.2-.22-.3-.05-.2-.08-.3-.08-.5s.04-.3.1-.4c.1-.2.2-.3.38-.4.18-.1.4-.2.7-.3.28-.1.64-.1 1.07-.1v-.3c0-.3-.06-.5-.16-.6-.1-.1-.26-.2-.46-.2h-.3c-.1 0-.2 0-.2.1l-.2.1h-.3l-.1-.1-.2-.3c.5-.4 1-.6 1.6-.6.3 0 .4 0 .6.1.2.1.3.2.5.3.1.1.2.3.3.4.1.2.1.4.1.6v2.3zm-1.75-.56c.1 0 .18 0 .26-.03l.3-.1.2-.2.2-.2v-.7h-.6c-.2 0-.3.1-.4.1-.1 0-.2.1-.2.2v.2c0 .1.1.3.2.3s.3.1.4.1zm2.65.56v-3.76h.55c.12 0 .2.06.23.17l.07.3.24-.3c0-.1.1-.1.2-.2l.3-.1.3-.1c.2 0 .4 0 .5.1.1 0 .3.1.4.3.1.1.2.2.2.4v3h-.9v-2.4c0-.3-.1-.4-.2-.6-.1-.2-.3-.2-.5-.2s-.3 0-.5.1c-.2 0-.3.1-.4.3v2.7h-.9zm5.13-3.76v3.76h-.9v-3.76h.9zm.13-1.1c0 .1 0 .16-.04.23s-.08.13-.13.18l-.2.12c-.1.03-.2.05-.3.05-.1 0-.2-.02-.3-.05-.1-.03-.2-.07-.2-.12-.1-.05-.1-.1-.2-.18v-.45s0-.13.1-.18c0-.05.1-.1.1-.12.1-.03.1-.05.2-.05l.2.05.2.12.1.18v.23z" fill="#333" fill-rule="nonzero"/><path fill="#333" d="M111.1 127.44h.92v5.44h-.9zm2 0h.9v5.44h-.9z"/><path d="M117.96 132.88h-.4c-.1 0-.16 0-.2-.04a.158.158 0 0 1-.1-.15l-.1-.3-.27.2-.3.1c-.1 0-.2.1-.3.1h-.4c-.2 0-.3 0-.5-.1s-.3-.1-.4-.2l-.3-.3c-.1-.2-.1-.3-.1-.5s0-.3.1-.4c.1-.2.2-.3.4-.4.1-.1.4-.2.6-.3.3-.1.6-.1 1.1-.1v-.3c0-.3-.1-.5-.2-.6-.1-.1-.3-.2-.5-.2h-.4l-.3.1-.2.1h-.4l-.1-.1-.2-.3c.4-.4.9-.6 1.6-.6.2 0 .4 0 .6.1l.4.3c.1.1.2.3.3.4 0 .2.1.4.1.6v2.3zm-1.75-.56c.1 0 .2 0 .3-.03l.2-.1.2-.2.2-.2v-.7h-.6c-.2 0-.3.1-.4.1-.1 0-.2.1-.2.2v.2c0 .1.1.3.2.3s.2.1.4.1z" fill="#333" fill-rule="nonzero"/></svg>