<?xml version="1.0" encoding="UTF-8" standalone="no"?>
<!DOCTYPE svg PUBLIC "-//W3C//DTD SVG 1.1//EN" "http://www.w3.org/Graphics/SVG/1.1/DTD/svg11.dtd">
<svg width="100%" height="100%" viewBox="0 0 411 17" version="1.1" xmlns="http://www.w3.org/2000/svg" xmlns:xlink="http://www.w3.org/1999/xlink" xml:space="preserve" style="fill-rule:evenodd;clip-rule:evenodd;stroke-linejoin:round;stroke-miterlimit:1.41421;">
    <g transform="matrix(1,0,0,1,-11.761,-0.610063)">
        <g transform="matrix(1.29127,0,0,1.29127,0.4501,2.31307)">
            <path d="M18.014,5.529C18.014,6.576 17.833,7.495 17.471,8.287C17.109,9.079 16.592,9.688 15.92,10.115C15.248,10.542 14.472,10.756 13.592,10.756C12.264,10.756 11.191,10.281 10.373,9.33C9.556,8.38 9.147,7.097 9.147,5.482L9.147,4.311C9.147,3.274 9.33,2.356 9.698,1.557C10.065,0.757 10.584,0.143 11.256,-0.287C11.928,-0.717 12.701,-0.932 13.576,-0.932C14.451,-0.932 15.224,-0.721 15.893,-0.299C16.562,0.123 17.079,0.719 17.444,1.49C17.808,2.261 17.998,3.154 18.014,4.17L18.014,5.529ZM17.053,4.295C17.053,2.925 16.743,1.852 16.123,1.076C15.504,0.3 14.655,-0.088 13.576,-0.088C12.519,-0.088 11.677,0.301 11.049,1.08C10.421,1.859 10.108,2.946 10.108,4.342L10.108,5.529C10.108,6.878 10.42,7.947 11.045,8.736C11.67,9.525 12.519,9.92 13.592,9.92C14.681,9.92 15.53,9.531 16.139,8.752C16.748,7.973 17.053,6.889 17.053,5.498L17.053,4.295Z" style="fill:none;"/>
            <path d="M34.137,9.248C33.804,9.722 33.282,10.092 32.571,10.357C31.86,10.623 31.064,10.756 30.184,10.756C29.294,10.756 28.502,10.542 27.809,10.115C27.117,9.688 26.58,9.084 26.2,8.303C25.82,7.521 25.627,6.626 25.622,5.615L25.622,4.178C25.622,2.6 26.02,1.354 26.817,0.439C27.614,-0.475 28.684,-0.932 30.028,-0.932C31.2,-0.932 32.143,-0.633 32.856,-0.037C33.57,0.559 33.994,1.381 34.13,2.428L33.169,2.428C33.028,1.592 32.688,0.958 32.149,0.527C31.61,0.096 30.906,-0.119 30.036,-0.119C28.973,-0.119 28.132,0.259 27.512,1.015C26.893,1.77 26.583,2.836 26.583,4.212L26.583,5.557C26.583,6.422 26.73,7.187 27.024,7.852C27.318,8.516 27.74,9.031 28.29,9.396C28.839,9.761 29.471,9.943 30.184,9.943C31.012,9.943 31.723,9.813 32.317,9.553C32.702,9.381 32.989,9.18 33.176,8.951L33.176,6.014L30.122,6.014L30.122,5.201L34.137,5.201L34.137,9.248Z" style="fill:none;"/>
            <path d="M43.805,7.404L38.64,7.404L37.469,10.6L36.461,10.6L40.765,-0.775L41.68,-0.775L45.984,10.6L44.984,10.6L43.805,7.404ZM38.937,6.592L43.5,6.592L41.219,0.396L38.937,6.592Z" style="fill:none;"/>
            <path d="M55.167,0.037L51.269,0.037L51.269,10.6L50.308,10.6L50.308,0.037L46.417,0.037L46.417,-0.775L55.167,-0.775L55.167,0.037Z" style="fill:none;"/>
            <path d="M65.99,5.529C65.99,6.576 65.81,7.495 65.448,8.287C65.086,9.079 64.569,9.688 63.897,10.115C63.225,10.542 62.449,10.756 61.569,10.756C60.24,10.756 59.168,10.281 58.35,9.33C57.532,8.38 57.123,7.097 57.123,5.482L57.123,4.311C57.123,3.274 57.307,2.356 57.674,1.557C58.041,0.757 58.561,0.143 59.233,-0.287C59.905,-0.717 60.678,-0.932 61.553,-0.932C62.428,-0.932 63.2,-0.721 63.869,-0.299C64.539,0.123 65.056,0.719 65.42,1.49C65.785,2.261 65.975,3.154 65.99,4.17L65.99,5.529ZM65.03,4.295C65.03,2.925 64.72,1.852 64.1,1.076C63.48,0.3 62.631,-0.088 61.553,-0.088C60.496,-0.088 59.653,0.301 59.026,1.08C58.398,1.859 58.084,2.946 58.084,4.342L58.084,5.529C58.084,6.878 58.397,7.947 59.022,8.736C59.647,9.525 60.496,9.92 61.569,9.92C62.657,9.92 63.506,9.531 64.115,8.752C64.725,7.973 65.03,6.889 65.03,5.498L65.03,4.295Z" style="fill:none;"/>
            <path d="M78.153,5.857L74.848,5.857L74.848,10.6L73.88,10.6L73.88,-0.775L77.575,-0.775C78.788,-0.775 79.736,-0.481 80.419,0.106C81.101,0.694 81.442,1.516 81.442,2.572C81.442,3.301 81.229,3.943 80.801,4.5C80.374,5.056 79.801,5.441 79.083,5.655L81.926,10.498L81.926,10.6L80.903,10.6L78.153,5.857ZM74.848,5.045L77.794,5.045C78.601,5.045 79.249,4.815 79.739,4.356C80.229,3.897 80.473,3.303 80.473,2.572C80.473,1.769 80.218,1.146 79.708,0.702C79.197,0.259 78.481,0.037 77.559,0.037L74.848,0.037L74.848,5.045Z" style="fill:none;"/>
            <path d="M93.265,5.529C93.265,6.576 93.085,7.495 92.723,8.287C92.361,9.079 91.844,9.688 91.172,10.115C90.5,10.542 89.724,10.756 88.844,10.756C87.515,10.756 86.443,10.281 85.625,9.33C84.807,8.38 84.398,7.097 84.398,5.482L84.398,4.311C84.398,3.274 84.582,2.356 84.949,1.557C85.316,0.757 85.836,0.143 86.508,-0.287C87.18,-0.717 87.953,-0.932 88.828,-0.932C89.703,-0.932 90.475,-0.721 91.144,-0.299C91.814,0.123 92.331,0.719 92.695,1.49C93.06,2.261 93.25,3.154 93.265,4.17L93.265,5.529ZM92.305,4.295C92.305,2.925 91.995,1.852 91.375,1.076C90.755,0.3 89.906,-0.088 88.828,-0.088C87.771,-0.088 86.928,0.301 86.301,1.08C85.673,1.859 85.359,2.946 85.359,4.342L85.359,5.529C85.359,6.878 85.672,7.947 86.297,8.736C86.922,9.525 87.771,9.92 88.844,9.92C89.932,9.92 90.781,9.531 91.39,8.752C92,7.973 92.305,6.889 92.305,5.498L92.305,4.295Z" style="fill:none;"/>
            <path d="M102.769,5.146L97.448,5.146L97.448,9.787L103.565,9.787L103.565,10.6L96.487,10.6L96.487,-0.775L103.526,-0.775L103.526,0.037L97.448,0.037L97.448,4.334L102.769,4.334L102.769,5.146Z" style="fill:none;"/>
            <path d="M114.225,-0.775L114.225,6.99C114.22,7.756 114.05,8.423 113.717,8.99C113.384,9.558 112.914,9.994 112.307,10.299C111.7,10.604 111.004,10.756 110.217,10.756C109.019,10.756 108.06,10.429 107.338,9.775C106.617,9.122 106.243,8.217 106.217,7.061L106.217,-0.775L107.17,-0.775L107.17,6.92C107.17,7.878 107.444,8.622 107.99,9.15C108.537,9.679 109.28,9.943 110.217,9.943C111.155,9.943 111.895,9.678 112.44,9.146C112.984,8.615 113.256,7.876 113.256,6.928L113.256,-0.775L114.225,-0.775Z" style="fill:none;"/>
            <path d="M128.536,7.404L123.372,7.404L122.2,10.6L121.192,10.6L125.497,-0.775L126.411,-0.775L130.715,10.6L129.715,10.6L128.536,7.404ZM123.669,6.592L128.231,6.592L125.95,0.396L123.669,6.592Z" style="fill:none;"/>
            <path d="M142.128,5.857L138.823,5.857L138.823,10.6L137.855,10.6L137.855,-0.775L141.55,-0.775C142.763,-0.775 143.711,-0.481 144.394,0.106C145.076,0.694 145.417,1.516 145.417,2.572C145.417,3.301 145.204,3.943 144.776,4.5C144.349,5.056 143.776,5.441 143.058,5.655L145.901,10.498L145.901,10.6L144.878,10.6L142.128,5.857ZM138.823,5.045L141.769,5.045C142.576,5.045 143.224,4.815 143.714,4.356C144.204,3.897 144.448,3.303 144.448,2.572C144.448,1.769 144.193,1.146 143.683,0.702C143.172,0.259 142.456,0.037 141.534,0.037L138.823,0.037L138.823,5.045Z" style="fill:none;"/>
            <path d="M157.24,5.529C157.24,6.576 157.06,7.495 156.698,8.287C156.336,9.079 155.819,9.688 155.147,10.115C154.475,10.542 153.699,10.756 152.819,10.756C151.49,10.756 150.418,10.281 149.6,9.33C148.782,8.38 148.373,7.097 148.373,5.482L148.373,4.311C148.373,3.274 148.557,2.356 148.924,1.557C149.291,0.757 149.811,0.143 150.483,-0.287C151.155,-0.717 151.928,-0.932 152.803,-0.932C153.678,-0.932 154.45,-0.721 155.119,-0.299C155.789,0.123 156.306,0.719 156.67,1.49C157.035,2.261 157.225,3.154 157.24,4.17L157.24,5.529ZM156.28,4.295C156.28,2.925 155.97,1.852 155.35,1.076C154.73,0.3 153.881,-0.088 152.803,-0.088C151.746,-0.088 150.903,0.301 150.276,1.08C149.648,1.859 149.334,2.946 149.334,4.342L149.334,5.529C149.334,6.878 149.647,7.947 150.272,8.736C150.897,9.525 151.746,9.92 152.819,9.92C153.907,9.92 154.756,9.531 155.365,8.752C155.975,7.973 156.28,6.889 156.28,5.498L156.28,4.295Z" style="fill:none;"/>
            <path d="M168.298,-0.775L168.298,6.99C168.293,7.756 168.124,8.423 167.79,8.99C167.457,9.558 166.987,9.994 166.38,10.299C165.774,10.604 165.077,10.756 164.29,10.756C163.093,10.756 162.133,10.429 161.412,9.775C160.69,9.122 160.317,8.217 160.29,7.061L160.29,-0.775L161.244,-0.775L161.244,6.92C161.244,7.878 161.517,8.622 162.064,9.15C162.611,9.679 163.353,9.943 164.29,9.943C165.228,9.943 165.969,9.678 166.513,9.146C167.057,8.615 167.33,7.876 167.33,6.928L167.33,-0.775L168.298,-0.775Z" style="fill:none;"/>
            <path d="M172.739,5.967L172.739,10.6L171.778,10.6L171.778,-0.775L175.653,-0.775C176.835,-0.775 177.769,-0.473 178.454,0.131C179.139,0.735 179.481,1.566 179.481,2.623C179.481,3.691 179.152,4.515 178.493,5.096C177.834,5.676 176.88,5.967 175.63,5.967L172.739,5.967ZM172.739,5.154L175.653,5.154C176.585,5.154 177.296,4.933 177.786,4.489C178.275,4.046 178.52,3.428 178.52,2.635C178.52,1.847 178.277,1.22 177.79,0.753C177.303,0.286 176.611,0.048 175.715,0.037L172.739,0.037L172.739,5.154Z" style="fill:none;"/>
            <path d="M187.492,7.404L182.328,7.404L181.156,10.6L180.148,10.6L184.453,-0.775L185.367,-0.775L189.672,10.6L188.672,10.6L187.492,7.404ZM182.625,6.592L187.187,6.592L184.906,0.396L182.625,6.592Z" style="fill:none;"/>
            <path d="M196.834,10.6L196.834,-0.775L200.014,-0.775C200.946,-0.775 201.782,-0.563 202.522,-0.139C203.261,0.286 203.838,0.894 204.252,1.686C204.666,2.477 204.873,3.378 204.873,4.389L204.873,5.436C204.873,6.451 204.668,7.352 204.256,8.139C203.845,8.925 203.265,9.532 202.518,9.959C201.77,10.386 200.912,10.6 199.944,10.6L196.834,10.6ZM197.795,0.037L197.795,9.787L199.951,9.787C201.149,9.787 202.11,9.39 202.834,8.595C203.558,7.8 203.92,6.725 203.92,5.37L203.92,4.369C203.92,3.06 203.563,2.013 202.85,1.226C202.136,0.438 201.196,0.042 200.03,0.037L197.795,0.037Z" style="fill:none;"/>
            <path d="M216.517,5.529C216.517,6.576 216.336,7.495 215.974,8.287C215.612,9.079 215.095,9.688 214.423,10.115C213.751,10.542 212.975,10.756 212.095,10.756C210.767,10.756 209.694,10.281 208.876,9.33C208.059,8.38 207.65,7.097 207.65,5.482L207.65,4.311C207.65,3.274 207.833,2.356 208.201,1.557C208.568,0.757 209.087,0.143 209.759,-0.287C210.431,-0.717 211.205,-0.932 212.08,-0.932C212.955,-0.932 213.727,-0.721 214.396,-0.299C215.065,0.123 215.582,0.719 215.947,1.49C216.311,2.261 216.501,3.154 216.517,4.17L216.517,5.529ZM215.556,4.295C215.556,2.925 215.246,1.852 214.626,1.076C214.007,0.3 213.158,-0.088 212.08,-0.088C211.022,-0.088 210.18,0.301 209.552,1.08C208.925,1.859 208.611,2.946 208.611,4.342L208.611,5.529C208.611,6.878 208.923,7.947 209.548,8.736C210.173,9.525 211.022,9.92 212.095,9.92C213.184,9.92 214.033,9.531 214.642,8.752C215.251,7.973 215.556,6.889 215.556,5.498L215.556,4.295Z" style="fill:none;"/>
            <path d="M228.68,5.857L225.375,5.857L225.375,10.6L224.406,10.6L224.406,-0.775L228.101,-0.775C229.315,-0.775 230.263,-0.481 230.945,0.106C231.627,0.694 231.969,1.516 231.969,2.572C231.969,3.301 231.755,3.943 231.328,4.5C230.901,5.056 230.328,5.441 229.609,5.655L232.453,10.498L232.453,10.6L231.43,10.6L228.68,5.857ZM225.375,5.045L228.32,5.045C229.127,5.045 229.776,4.815 230.265,4.356C230.755,3.897 231,3.303 231,2.572C231,1.769 230.745,1.146 230.234,0.702C229.724,0.259 229.008,0.037 228.086,0.037L225.375,0.037L225.375,5.045Z" style="fill:none;"/>
            <path d="M241.667,5.146L236.347,5.146L236.347,9.787L242.464,9.787L242.464,10.6L235.386,10.6L235.386,-0.775L242.425,-0.775L242.425,0.037L236.347,0.037L236.347,4.334L241.667,4.334L241.667,5.146Z" style="fill:none;"/>
            <rect x="245.498" y="-0.775" width="0.961" height="11.375" style="fill:none;"/>
            <path d="M255.036,10.6L255.036,-0.775L258.215,-0.775C259.148,-0.775 259.984,-0.563 260.723,-0.139C261.463,0.286 262.04,0.894 262.454,1.686C262.868,2.477 263.075,3.378 263.075,4.389L263.075,5.436C263.075,6.451 262.869,7.352 262.458,8.139C262.046,8.925 261.467,9.532 260.719,9.959C259.972,10.386 259.114,10.6 258.145,10.6L255.036,10.6ZM255.997,0.037L255.997,9.787L258.153,9.787C259.351,9.787 260.312,9.39 261.036,8.595C261.76,7.8 262.122,6.725 262.122,5.37L262.122,4.369C262.122,3.06 261.765,2.013 261.051,1.226C260.338,0.438 259.398,0.042 258.231,0.037L255.997,0.037Z" style="fill:none;"/>
            <path d="M272.594,5.146L267.273,5.146L267.273,9.787L273.39,9.787L273.39,10.6L266.312,10.6L266.312,-0.775L273.351,-0.775L273.351,0.037L267.273,0.037L267.273,4.334L272.594,4.334L272.594,5.146Z" style="fill:none;"/>
            <path d="M285.155,5.857L281.85,5.857L281.85,10.6L280.881,10.6L280.881,-0.775L284.576,-0.775C285.79,-0.775 286.738,-0.481 287.42,0.106C288.102,0.694 288.444,1.516 288.444,2.572C288.444,3.301 288.23,3.943 287.803,4.5C287.376,5.056 286.803,5.441 286.084,5.655L288.928,10.498L288.928,10.6L287.905,10.6L285.155,5.857ZM281.85,5.045L284.795,5.045C285.602,5.045 286.251,4.815 286.74,4.356C287.23,3.897 287.475,3.303 287.475,2.572C287.475,1.769 287.22,1.146 286.709,0.702C286.199,0.259 285.483,0.037 284.561,0.037L281.85,0.037L281.85,5.045Z" style="fill:none;"/>
            <path d="M300.267,5.529C300.267,6.576 300.086,7.495 299.724,8.287C299.362,9.079 298.845,9.688 298.173,10.115C297.501,10.542 296.725,10.756 295.845,10.756C294.517,10.756 293.444,10.281 292.626,9.33C291.809,8.38 291.4,7.097 291.4,5.482L291.4,4.311C291.4,3.274 291.583,2.356 291.951,1.557C292.318,0.757 292.837,0.143 293.509,-0.287C294.181,-0.717 294.955,-0.932 295.83,-0.932C296.705,-0.932 297.477,-0.721 298.146,-0.299C298.815,0.123 299.332,0.719 299.697,1.49C300.061,2.261 300.251,3.154 300.267,4.17L300.267,5.529ZM299.306,4.295C299.306,2.925 298.996,1.852 298.376,1.076C297.757,0.3 296.908,-0.088 295.83,-0.088C294.772,-0.088 293.93,0.301 293.302,1.08C292.675,1.859 292.361,2.946 292.361,4.342L292.361,5.529C292.361,6.878 292.673,7.947 293.298,8.736C293.923,9.525 294.772,9.92 295.845,9.92C296.934,9.92 297.783,9.531 298.392,8.752C299.001,7.973 299.306,6.889 299.306,5.498L299.306,4.295Z" style="fill:none;"/>
            <path d="M304.762,-0.775L308.958,9.264L313.169,-0.775L314.45,-0.775L314.45,10.6L313.489,10.6L313.489,5.646L313.567,0.568L309.333,10.6L308.59,10.6L304.372,0.607L304.45,5.615L304.45,10.6L303.489,10.6L303.489,-0.775L304.762,-0.775Z" style="fill:none;"/>
            <path d="M324.414,7.404L319.25,7.404L318.078,10.6L317.07,10.6L321.375,-0.775L322.289,-0.775L326.594,10.6L325.594,10.6L324.414,7.404ZM319.547,6.592L324.109,6.592L321.828,0.396L319.547,6.592Z" style="fill:none;"/>
            <path d="M18.014,5.529C18.014,6.576 17.833,7.495 17.471,8.287C17.109,9.079 16.592,9.688 15.92,10.115C15.248,10.542 14.472,10.756 13.592,10.756C12.264,10.756 11.191,10.281 10.373,9.33C9.556,8.38 9.147,7.097 9.147,5.482L9.147,4.311C9.147,3.274 9.33,2.356 9.698,1.557C10.065,0.757 10.584,0.143 11.256,-0.287C11.928,-0.717 12.701,-0.932 13.576,-0.932C14.451,-0.932 15.224,-0.721 15.893,-0.299C16.562,0.123 17.079,0.719 17.444,1.49C17.808,2.261 17.998,3.154 18.014,4.17L18.014,5.529ZM17.053,4.295C17.053,2.925 16.743,1.852 16.123,1.076C15.504,0.3 14.655,-0.088 13.576,-0.088C12.519,-0.088 11.677,0.301 11.049,1.08C10.421,1.859 10.108,2.946 10.108,4.342L10.108,5.529C10.108,6.878 10.42,7.947 11.045,8.736C11.67,9.525 12.519,9.92 13.592,9.92C14.681,9.92 15.53,9.531 16.139,8.752C16.748,7.973 17.053,6.889 17.053,5.498L17.053,4.295Z" style="fill:none;stroke:rgb(85,85,85);stroke-width:0.77px;"/>
            <path d="M34.137,9.248C33.804,9.722 33.282,10.092 32.571,10.357C31.86,10.623 31.064,10.756 30.184,10.756C29.294,10.756 28.502,10.542 27.809,10.115C27.117,9.688 26.58,9.084 26.2,8.303C25.82,7.521 25.627,6.626 25.622,5.615L25.622,4.178C25.622,2.6 26.02,1.354 26.817,0.439C27.614,-0.475 28.684,-0.932 30.028,-0.932C31.2,-0.932 32.143,-0.633 32.856,-0.037C33.57,0.559 33.994,1.381 34.13,2.428L33.169,2.428C33.028,1.592 32.688,0.958 32.149,0.527C31.61,0.096 30.906,-0.119 30.036,-0.119C28.973,-0.119 28.132,0.259 27.512,1.015C26.893,1.77 26.583,2.836 26.583,4.212L26.583,5.557C26.583,6.422 26.73,7.187 27.024,7.852C27.318,8.516 27.74,9.031 28.29,9.396C28.839,9.761 29.471,9.943 30.184,9.943C31.012,9.943 31.723,9.813 32.317,9.553C32.702,9.381 32.989,9.18 33.176,8.951L33.176,6.014L30.122,6.014L30.122,5.201L34.137,5.201L34.137,9.248Z" style="fill:none;stroke:rgb(85,85,85);stroke-width:0.77px;"/>
            <path d="M43.805,7.404L38.64,7.404L37.469,10.6L36.461,10.6L40.765,-0.775L41.68,-0.775L45.984,10.6L44.984,10.6L43.805,7.404ZM38.937,6.592L43.5,6.592L41.219,0.396L38.937,6.592Z" style="fill:none;stroke:rgb(85,85,85);stroke-width:0.77px;"/>
            <path d="M55.167,0.037L51.269,0.037L51.269,10.6L50.308,10.6L50.308,0.037L46.417,0.037L46.417,-0.775L55.167,-0.775L55.167,0.037Z" style="fill:none;stroke:rgb(85,85,85);stroke-width:0.77px;"/>
            <path d="M65.99,5.529C65.99,6.576 65.81,7.495 65.448,8.287C65.086,9.079 64.569,9.688 63.897,10.115C63.225,10.542 62.449,10.756 61.569,10.756C60.24,10.756 59.168,10.281 58.35,9.33C57.532,8.38 57.123,7.097 57.123,5.482L57.123,4.311C57.123,3.274 57.307,2.356 57.674,1.557C58.041,0.757 58.561,0.143 59.233,-0.287C59.905,-0.717 60.678,-0.932 61.553,-0.932C62.428,-0.932 63.2,-0.721 63.869,-0.299C64.539,0.123 65.056,0.719 65.42,1.49C65.785,2.261 65.975,3.154 65.99,4.17L65.99,5.529ZM65.03,4.295C65.03,2.925 64.72,1.852 64.1,1.076C63.48,0.3 62.631,-0.088 61.553,-0.088C60.496,-0.088 59.653,0.301 59.026,1.08C58.398,1.859 58.084,2.946 58.084,4.342L58.084,5.529C58.084,6.878 58.397,7.947 59.022,8.736C59.647,9.525 60.496,9.92 61.569,9.92C62.657,9.92 63.506,9.531 64.115,8.752C64.725,7.973 65.03,6.889 65.03,5.498L65.03,4.295Z" style="fill:none;stroke:rgb(85,85,85);stroke-width:0.77px;"/>
            <path d="M78.153,5.857L74.848,5.857L74.848,10.6L73.88,10.6L73.88,-0.775L77.575,-0.775C78.788,-0.775 79.736,-0.481 80.419,0.106C81.101,0.694 81.442,1.516 81.442,2.572C81.442,3.301 81.229,3.943 80.801,4.5C80.374,5.056 79.801,5.441 79.083,5.655L81.926,10.498L81.926,10.6L80.903,10.6L78.153,5.857ZM74.848,5.045L77.794,5.045C78.601,5.045 79.249,4.815 79.739,4.356C80.229,3.897 80.473,3.303 80.473,2.572C80.473,1.769 80.218,1.146 79.708,0.702C79.197,0.259 78.481,0.037 77.559,0.037L74.848,0.037L74.848,5.045Z" style="fill:none;stroke:rgb(85,85,85);stroke-width:0.77px;"/>
            <path d="M93.265,5.529C93.265,6.576 93.085,7.495 92.723,8.287C92.361,9.079 91.844,9.688 91.172,10.115C90.5,10.542 89.724,10.756 88.844,10.756C87.515,10.756 86.443,10.281 85.625,9.33C84.807,8.38 84.398,7.097 84.398,5.482L84.398,4.311C84.398,3.274 84.582,2.356 84.949,1.557C85.316,0.757 85.836,0.143 86.508,-0.287C87.18,-0.717 87.953,-0.932 88.828,-0.932C89.703,-0.932 90.475,-0.721 91.144,-0.299C91.814,0.123 92.331,0.719 92.695,1.49C93.06,2.261 93.25,3.154 93.265,4.17L93.265,5.529ZM92.305,4.295C92.305,2.925 91.995,1.852 91.375,1.076C90.755,0.3 89.906,-0.088 88.828,-0.088C87.771,-0.088 86.928,0.301 86.301,1.08C85.673,1.859 85.359,2.946 85.359,4.342L85.359,5.529C85.359,6.878 85.672,7.947 86.297,8.736C86.922,9.525 87.771,9.92 88.844,9.92C89.932,9.92 90.781,9.531 91.39,8.752C92,7.973 92.305,6.889 92.305,5.498L92.305,4.295Z" style="fill:none;stroke:rgb(85,85,85);stroke-width:0.77px;"/>
            <path d="M102.769,5.146L97.448,5.146L97.448,9.787L103.565,9.787L103.565,10.6L96.487,10.6L96.487,-0.775L103.526,-0.775L103.526,0.037L97.448,0.037L97.448,4.334L102.769,4.334L102.769,5.146Z" style="fill:none;stroke:rgb(85,85,85);stroke-width:0.77px;"/>
            <path d="M114.225,-0.775L114.225,6.99C114.22,7.756 114.05,8.423 113.717,8.99C113.384,9.558 112.914,9.994 112.307,10.299C111.7,10.604 111.004,10.756 110.217,10.756C109.019,10.756 108.06,10.429 107.338,9.775C106.617,9.122 106.243,8.217 106.217,7.061L106.217,-0.775L107.17,-0.775L107.17,6.92C107.17,7.878 107.444,8.622 107.99,9.15C108.537,9.679 109.28,9.943 110.217,9.943C111.155,9.943 111.895,9.678 112.44,9.146C112.984,8.615 113.256,7.876 113.256,6.928L113.256,-0.775L114.225,-0.775Z" style="fill:none;stroke:rgb(85,85,85);stroke-width:0.77px;"/>
            <path d="M128.536,7.404L123.372,7.404L122.2,10.6L121.192,10.6L125.497,-0.775L126.411,-0.775L130.715,10.6L129.715,10.6L128.536,7.404ZM123.669,6.592L128.231,6.592L125.95,0.396L123.669,6.592Z" style="fill:none;stroke:rgb(85,85,85);stroke-width:0.77px;"/>
            <path d="M142.128,5.857L138.823,5.857L138.823,10.6L137.855,10.6L137.855,-0.775L141.55,-0.775C142.763,-0.775 143.711,-0.481 144.394,0.106C145.076,0.694 145.417,1.516 145.417,2.572C145.417,3.301 145.204,3.943 144.776,4.5C144.349,5.056 143.776,5.441 143.058,5.655L145.901,10.498L145.901,10.6L144.878,10.6L142.128,5.857ZM138.823,5.045L141.769,5.045C142.576,5.045 143.224,4.815 143.714,4.356C144.204,3.897 144.448,3.303 144.448,2.572C144.448,1.769 144.193,1.146 143.683,0.702C143.172,0.259 142.456,0.037 141.534,0.037L138.823,0.037L138.823,5.045Z" style="fill:none;stroke:rgb(85,85,85);stroke-width:0.77px;"/>
            <path d="M157.24,5.529C157.24,6.576 157.06,7.495 156.698,8.287C156.336,9.079 155.819,9.688 155.147,10.115C154.475,10.542 153.699,10.756 152.819,10.756C151.49,10.756 150.418,10.281 149.6,9.33C148.782,8.38 148.373,7.097 148.373,5.482L148.373,4.311C148.373,3.274 148.557,2.356 148.924,1.557C149.291,0.757 149.811,0.143 150.483,-0.287C151.155,-0.717 151.928,-0.932 152.803,-0.932C153.678,-0.932 154.45,-0.721 155.119,-0.299C155.789,0.123 156.306,0.719 156.67,1.49C157.035,2.261 157.225,3.154 157.24,4.17L157.24,5.529ZM156.28,4.295C156.28,2.925 155.97,1.852 155.35,1.076C154.73,0.3 153.881,-0.088 152.803,-0.088C151.746,-0.088 150.903,0.301 150.276,1.08C149.648,1.859 149.334,2.946 149.334,4.342L149.334,5.529C149.334,6.878 149.647,7.947 150.272,8.736C150.897,9.525 151.746,9.92 152.819,9.92C153.907,9.92 154.756,9.531 155.365,8.752C155.975,7.973 156.28,6.889 156.28,5.498L156.28,4.295Z" style="fill:none;stroke:rgb(85,85,85);stroke-width:0.77px;"/>
            <path d="M168.298,-0.775L168.298,6.99C168.293,7.756 168.124,8.423 167.79,8.99C167.457,9.558 166.987,9.994 166.38,10.299C165.774,10.604 165.077,10.756 164.29,10.756C163.093,10.756 162.133,10.429 161.412,9.775C160.69,9.122 160.317,8.217 160.29,7.061L160.29,-0.775L161.244,-0.775L161.244,6.92C161.244,7.878 161.517,8.622 162.064,9.15C162.611,9.679 163.353,9.943 164.29,9.943C165.228,9.943 165.969,9.678 166.513,9.146C167.057,8.615 167.33,7.876 167.33,6.928L167.33,-0.775L168.298,-0.775Z" style="fill:none;stroke:rgb(85,85,85);stroke-width:0.77px;"/>
            <path d="M172.739,5.967L172.739,10.6L171.778,10.6L171.778,-0.775L175.653,-0.775C176.835,-0.775 177.769,-0.473 178.454,0.131C179.139,0.735 179.481,1.566 179.481,2.623C179.481,3.691 179.152,4.515 178.493,5.096C177.834,5.676 176.88,5.967 175.63,5.967L172.739,5.967ZM172.739,5.154L175.653,5.154C176.585,5.154 177.296,4.933 177.786,4.489C178.275,4.046 178.52,3.428 178.52,2.635C178.52,1.847 178.277,1.22 177.79,0.753C177.303,0.286 176.611,0.048 175.715,0.037L172.739,0.037L172.739,5.154Z" style="fill:none;stroke:rgb(85,85,85);stroke-width:0.77px;"/>
            <path d="M187.492,7.404L182.328,7.404L181.156,10.6L180.148,10.6L184.453,-0.775L185.367,-0.775L189.672,10.6L188.672,10.6L187.492,7.404ZM182.625,6.592L187.187,6.592L184.906,0.396L182.625,6.592Z" style="fill:none;stroke:rgb(85,85,85);stroke-width:0.77px;"/>
            <path d="M196.834,10.6L196.834,-0.775L200.014,-0.775C200.946,-0.775 201.782,-0.563 202.522,-0.139C203.261,0.286 203.838,0.894 204.252,1.686C204.666,2.477 204.873,3.378 204.873,4.389L204.873,5.436C204.873,6.451 204.668,7.352 204.256,8.139C203.845,8.925 203.265,9.532 202.518,9.959C201.77,10.386 200.912,10.6 199.944,10.6L196.834,10.6ZM197.795,0.037L197.795,9.787L199.951,9.787C201.149,9.787 202.11,9.39 202.834,8.595C203.558,7.8 203.92,6.725 203.92,5.37L203.92,4.369C203.92,3.06 203.563,2.013 202.85,1.226C202.136,0.438 201.196,0.042 200.03,0.037L197.795,0.037Z" style="fill:none;stroke:rgb(85,85,85);stroke-width:0.77px;"/>
            <path d="M216.517,5.529C216.517,6.576 216.336,7.495 215.974,8.287C215.612,9.079 215.095,9.688 214.423,10.115C213.751,10.542 212.975,10.756 212.095,10.756C210.767,10.756 209.694,10.281 208.876,9.33C208.059,8.38 207.65,7.097 207.65,5.482L207.65,4.311C207.65,3.274 207.833,2.356 208.201,1.557C208.568,0.757 209.087,0.143 209.759,-0.287C210.431,-0.717 211.205,-0.932 212.08,-0.932C212.955,-0.932 213.727,-0.721 214.396,-0.299C215.065,0.123 215.582,0.719 215.947,1.49C216.311,2.261 216.501,3.154 216.517,4.17L216.517,5.529ZM215.556,4.295C215.556,2.925 215.246,1.852 214.626,1.076C214.007,0.3 213.158,-0.088 212.08,-0.088C211.022,-0.088 210.18,0.301 209.552,1.08C208.925,1.859 208.611,2.946 208.611,4.342L208.611,5.529C208.611,6.878 208.923,7.947 209.548,8.736C210.173,9.525 211.022,9.92 212.095,9.92C213.184,9.92 214.033,9.531 214.642,8.752C215.251,7.973 215.556,6.889 215.556,5.498L215.556,4.295Z" style="fill:none;stroke:rgb(85,85,85);stroke-width:0.77px;"/>
            <path d="M228.68,5.857L225.375,5.857L225.375,10.6L224.406,10.6L224.406,-0.775L228.101,-0.775C229.315,-0.775 230.263,-0.481 230.945,0.106C231.627,0.694 231.969,1.516 231.969,2.572C231.969,3.301 231.755,3.943 231.328,4.5C230.901,5.056 230.328,5.441 229.609,5.655L232.453,10.498L232.453,10.6L231.43,10.6L228.68,5.857ZM225.375,5.045L228.32,5.045C229.127,5.045 229.776,4.815 230.265,4.356C230.755,3.897 231,3.303 231,2.572C231,1.769 230.745,1.146 230.234,0.702C229.724,0.259 229.008,0.037 228.086,0.037L225.375,0.037L225.375,5.045Z" style="fill:none;stroke:rgb(85,85,85);stroke-width:0.77px;"/>
            <path d="M241.667,5.146L236.347,5.146L236.347,9.787L242.464,9.787L242.464,10.6L235.386,10.6L235.386,-0.775L242.425,-0.775L242.425,0.037L236.347,0.037L236.347,4.334L241.667,4.334L241.667,5.146Z" style="fill:none;stroke:rgb(85,85,85);stroke-width:0.77px;"/>
            <rect x="245.498" y="-0.775" width="0.961" height="11.375" style="fill:none;stroke:rgb(85,85,85);stroke-width:0.77px;"/>
            <path d="M255.036,10.6L255.036,-0.775L258.215,-0.775C259.148,-0.775 259.984,-0.563 260.723,-0.139C261.463,0.286 262.04,0.894 262.454,1.686C262.868,2.477 263.075,3.378 263.075,4.389L263.075,5.436C263.075,6.451 262.869,7.352 262.458,8.139C262.046,8.925 261.467,9.532 260.719,9.959C259.972,10.386 259.114,10.6 258.145,10.6L255.036,10.6ZM255.997,0.037L255.997,9.787L258.153,9.787C259.351,9.787 260.312,9.39 261.036,8.595C261.76,7.8 262.122,6.725 262.122,5.37L262.122,4.369C262.122,3.06 261.765,2.013 261.051,1.226C260.338,0.438 259.398,0.042 258.231,0.037L255.997,0.037Z" style="fill:none;stroke:rgb(85,85,85);stroke-width:0.77px;"/>
            <path d="M272.594,5.146L267.273,5.146L267.273,9.787L273.39,9.787L273.39,10.6L266.312,10.6L266.312,-0.775L273.351,-0.775L273.351,0.037L267.273,0.037L267.273,4.334L272.594,4.334L272.594,5.146Z" style="fill:none;stroke:rgb(85,85,85);stroke-width:0.77px;"/>
            <path d="M285.155,5.857L281.85,5.857L281.85,10.6L280.881,10.6L280.881,-0.775L284.576,-0.775C285.79,-0.775 286.738,-0.481 287.42,0.106C288.102,0.694 288.444,1.516 288.444,2.572C288.444,3.301 288.23,3.943 287.803,4.5C287.376,5.056 286.803,5.441 286.084,5.655L288.928,10.498L288.928,10.6L287.905,10.6L285.155,5.857ZM281.85,5.045L284.795,5.045C285.602,5.045 286.251,4.815 286.74,4.356C287.23,3.897 287.475,3.303 287.475,2.572C287.475,1.769 287.22,1.146 286.709,0.702C286.199,0.259 285.483,0.037 284.561,0.037L281.85,0.037L281.85,5.045Z" style="fill:none;stroke:rgb(85,85,85);stroke-width:0.77px;"/>
            <path d="M300.267,5.529C300.267,6.576 300.086,7.495 299.724,8.287C299.362,9.079 298.845,9.688 298.173,10.115C297.501,10.542 296.725,10.756 295.845,10.756C294.517,10.756 293.444,10.281 292.626,9.33C291.809,8.38 291.4,7.097 291.4,5.482L291.4,4.311C291.4,3.274 291.583,2.356 291.951,1.557C292.318,0.757 292.837,0.143 293.509,-0.287C294.181,-0.717 294.955,-0.932 295.83,-0.932C296.705,-0.932 297.477,-0.721 298.146,-0.299C298.815,0.123 299.332,0.719 299.697,1.49C300.061,2.261 300.251,3.154 300.267,4.17L300.267,5.529ZM299.306,4.295C299.306,2.925 298.996,1.852 298.376,1.076C297.757,0.3 296.908,-0.088 295.83,-0.088C294.772,-0.088 293.93,0.301 293.302,1.08C292.675,1.859 292.361,2.946 292.361,4.342L292.361,5.529C292.361,6.878 292.673,7.947 293.298,8.736C293.923,9.525 294.772,9.92 295.845,9.92C296.934,9.92 297.783,9.531 298.392,8.752C299.001,7.973 299.306,6.889 299.306,5.498L299.306,4.295Z" style="fill:none;stroke:rgb(85,85,85);stroke-width:0.77px;"/>
            <path d="M304.762,-0.775L308.958,9.264L313.169,-0.775L314.45,-0.775L314.45,10.6L313.489,10.6L313.489,5.646L313.567,0.568L309.333,10.6L308.59,10.6L304.372,0.607L304.45,5.615L304.45,10.6L303.489,10.6L303.489,-0.775L304.762,-0.775Z" style="fill:none;stroke:rgb(85,85,85);stroke-width:0.77px;"/>
            <path d="M324.414,7.404L319.25,7.404L318.078,10.6L317.07,10.6L321.375,-0.775L322.289,-0.775L326.594,10.6L325.594,10.6L324.414,7.404ZM319.547,6.592L324.109,6.592L321.828,0.396L319.547,6.592Z" style="fill:none;stroke:rgb(85,85,85);stroke-width:0.77px;"/>
        </g>
    </g>
</svg>
