<svg viewBox="0 0 373 21" xmlns="http://www.w3.org/2000/svg" fill-rule="evenodd" clip-rule="evenodd" stroke-linejoin="round" stroke-miterlimit="1.41"><g fill="none"><path d="M14.34 8.56c0 1.42-.3 2.7-.9 3.82-.58 1.13-1.4 2-2.44 2.66-1.05.64-2.24.96-3.58.96-1.33 0-2.53-.32-3.57-.96a6.718 6.718 0 0 1-2.46-2.66c-.6-1.13-.9-2.4-.9-3.82 0-1.44.3-2.72.9-3.84.5-1.12 1.4-2.02 2.4-2.65 1-.63 2.2-.95 3.5-.95 1.3 0 2.5.32 3.6.95 1.1.63 1.9 1.53 2.5 2.65.6 1.12.9 2.4.9 3.84zm-1.32 0c0-1.2-.24-2.27-.7-3.2-.5-.96-1.15-1.7-2-2.2-.84-.54-1.8-.8-2.9-.8-1.1 0-2.05.26-2.9.8-.85.5-1.5 1.24-2 2.2-.46.93-.7 2-.7 3.2 0 1.2.24 2.27.7 3.2.5.95 1.15 1.7 2 2.2.85.53 1.8.8 2.9.8 1.1 0 2.06-.27 2.9-.8.85-.5 1.5-1.25 2-2.2.46-.93.7-2 .7-3.2zM33.6 5.23c.18 0 .33.06.44.18.12.2.18.3.18.5v9c0 1.1-.23 2-.67 2.8-.45.8-1.06 1.4-1.84 1.8-.7.4-1.6.6-2.6.6-.5 0-1 0-1.5-.2s-.9-.3-1.3-.5-.6-.4-.6-.6c-.1-.1-.1-.2-.1-.3 0-.1.1-.2.2-.3h.2c.1 0 .2.1.5.2l.4.2c.9.3 1.7.5 2.4.5 1.2 0 2.2-.3 2.9-1 .7-.7 1.1-1.6 1.1-2.8V14c-.3.7-.9 1.3-1.6 1.72-.7.4-1.5.6-2.3.6-.9 0-1.8-.23-2.5-.7-.8-.5-1.4-1.14-1.8-2-.4-.85-.7-1.8-.7-2.84s.3-1.96.7-2.8c.4-.84 1-1.5 1.8-1.97.8-.5 1.6-.7 2.6-.7.9 0 1.7.2 2.4.7.77.4 1.3 1 1.6 1.6V5.9c0-.2.1-.34.2-.46.1-.1.3-.2.48-.2zm-4.5 9.6c.77 0 1.45-.17 2.05-.54.6-.4 1.07-.9 1.4-1.6.34-.7.5-1.4.5-2.3 0-.9-.16-1.6-.5-2.3-.33-.7-.8-1.2-1.4-1.6-.6-.4-1.28-.6-2.04-.6-.7 0-1.4.2-2 .6-.6.4-1 .9-1.4 1.5a5.09 5.09 0 0 0 0 4.4c.4.6.8 1.2 1.4 1.5.6.4 1.3.5 2 .5zM47 5.23c.16 0 .3.06.43.2.12.1.18.26.18.44v9.3c0 .18 0 .33-.1.44-.1.2-.2.2-.4.2s-.3 0-.4-.2c-.1-.1-.1-.2-.1-.4v-1.4c-.3.6-.8 1.2-1.5 1.6-.7.4-1.4.7-2.2.7-.9 0-1.8-.2-2.5-.7-.7-.4-1.3-1.1-1.7-1.9-.4-.8-.6-1.8-.6-2.8s.3-2 .7-2.8c.5-.8 1-1.5 1.8-1.9.8-.5 1.6-.7 2.5-.7.8 0 1.6.2 2.3.6.7.4 1.2.9 1.5 1.6V5.9c0-.18.1-.33.2-.45.2-.1.3-.2.5-.2zm-4.3 9.6c.7 0 1.35-.18 1.92-.56.57-.38 1.02-.9 1.34-1.57.33-.67.5-1.4.5-2.24 0-.8-.17-1.53-.5-2.2-.32-.65-.77-1.17-1.34-1.55-.57-.3-1.22-.5-1.93-.5-.8 0-1.4.2-2 .6-.6.4-1 .9-1.4 1.6-.3.7-.5 1.4-.5 2.2 0 .9.1 1.6.4 2.3.3.7.7 1.2 1.3 1.6.5.4 1.2.6 1.9.6zm11.25-8.4v6.92c0 .52.1.88.3 1.07.18.18.44.27.75.27.08 0 .2-.1.3-.1l.3-.1c.12 0 .23 0 .32.1.1.1.14.2.14.3 0 .2-.1.3-.34.5-.2.1-.48.2-.78.2-.37 0-.7-.1-1-.1-.28-.1-.56-.3-.83-.7-.2-.4-.4-.9-.4-1.7V6.4h-1.5c-.1 0-.3-.05-.4-.16-.1-.1-.2-.24-.2-.4 0-.17.1-.3.2-.42.1-.1.3-.17.4-.17h1.5v-2.3c0-.17.1-.32.2-.43.1-.12.3-.18.5-.18s.4.06.5.18c.1.1.2.26.2.44v2.3h2c.2 0 .3 0 .5.12.1.12.2.26.2.4 0 .18-.1.3-.2.42-.1.1-.2.14-.4.14H54zm15.62 4.07c0 1.03-.23 1.97-.68 2.8-.5.85-1.1 1.5-1.9 1.98-.8.48-1.7.72-2.7.72-1 0-1.9-.24-2.7-.72-.8-.47-1.4-1.13-1.9-1.97-.5-.8-.7-1.7-.7-2.8 0-1 .2-1.9.7-2.8.4-.8 1.1-1.5 1.8-2 .8-.4 1.7-.7 2.6-.7 1 0 1.8.3 2.6.8s1.4 1.2 1.9 2c.4.9.6 1.8.6 2.8zm-1.24 0c0-.83-.17-1.57-.52-2.23-.3-.66-.8-1.18-1.4-1.56-.6-.3-1.3-.5-2-.5s-1.4.2-2 .6c-.6.4-1.1.9-1.4 1.6-.3.7-.5 1.4-.5 2.3 0 .8.2 1.6.6 2.2.4.7.8 1.2 1.4 1.6.6.4 1.3.6 2 .6s1.4-.2 2.1-.5c.6-.4 1.1-.9 1.5-1.6.4-.6.6-1.4.6-2.2zm16.42-5.52c.28 0 .53.06.75.17.22.1.33.27.33.5 0 .2-.06.34-.17.46-.1.2-.24.2-.4.2-.06 0-.2 0-.4-.1s-.38-.1-.56-.1c-.5 0-1.02.2-1.52.6-.5.4-.92.9-1.24 1.5-.32.7-.5 1.3-.5 1.9v5.1c0 .2-.04.3-.16.5s-.27.2-.45.2c-.17 0-.32 0-.44-.2-.2-.1-.2-.2-.2-.4V5.9c0-.17 0-.3.2-.43.1-.12.2-.18.4-.18s.3 0 .4.1.1.2.1.4v1.9c.3-.8.8-1.5 1.4-2 .6-.5 1.4-.8 2.2-.8zM98.1 10.5c0 1.03-.23 1.97-.68 2.8a5.05 5.05 0 0 1-1.88 1.98c-.8.48-1.7.72-2.67.72-.98 0-1.86-.24-2.66-.72-.8-.47-1.4-1.13-1.8-1.97-.4-.8-.7-1.7-.7-2.8 0-1 .2-1.9.7-2.8.5-.8 1.1-1.5 1.9-2 .7-.4 1.6-.7 2.6-.7s1.9.3 2.7.8c.8.5 1.4 1.2 1.9 2 .5.9.7 1.8.7 2.8zm-1.24 0c0-.83-.17-1.57-.52-2.23C96 7.6 95.52 7.1 94.9 6.7a3.8 3.8 0 0 0-2.03-.56c-.74 0-1.42.2-2.02.57-.6.4-1.1.9-1.44 1.6-.3.7-.5 1.4-.5 2.3 0 .8.2 1.6.6 2.2.4.7.9 1.2 1.5 1.6.6.4 1.3.6 2 .6s1.5-.2 2.1-.5c.6-.3 1.1-.9 1.5-1.5.4-.6.5-1.4.5-2.2zm13.74-.6c0 .17-.06.3-.2.42-.1.12-.26.18-.42.18h-7.8c0 .83.16 1.57.5 2.22.33.65.82 1.17 1.44 1.55.63.38 1.37.57 2.22.57.66 0 1.26-.14 1.78-.4.52-.3.94-.64 1.26-1.07.15-.12.3-.18.43-.18.2 0 .3 0 .4.1.1.1.2.2.2.3 0 .1 0 .3-.2.4-.4.5-1 .9-1.6 1.3-.6.3-1.3.5-2.1.5-1 0-2-.3-2.8-.7-.8-.5-1.4-1.1-1.9-1.9-.4-.9-.7-1.8-.7-2.9 0-1.2.3-2.2.7-3 .5-.9 1.1-1.5 1.8-2s1.5-.7 2.4-.7c.9 0 1.6.2 2.4.6.7.4 1.3.9 1.8 1.7.5.7.7 1.6.7 2.6zm-4.8-3.72c-.8 0-1.53.28-2.22.83-.68.6-1.1 1.4-1.3 2.4h7.04v-.1c-.07-.6-.28-1.1-.62-1.6-.35-.4-.78-.8-1.3-1-.5-.2-1.04-.3-1.6-.3zm16.3-.88c.17 0 .3.05.43.17.12.12.18.26.18.44v5.9c0 1.4-.3 2.4-1.1 3.1-.7.8-1.8 1.1-3.1 1.1s-2.3-.3-3.1-1.1c-.7-.7-1.1-1.7-1.1-3.1V5.9c0-.17.1-.3.2-.43.2-.12.3-.18.5-.18s.4 0 .5.1.2.2.2.4v5.8c0 1 .3 1.7.8 2.2.5.5 1.3.7 2.2.7 1 0 1.7-.3 2.3-.8.6-.5.8-1.3.8-2.3V5.9c0-.17.1-.3.2-.43.1-.12.3-.18.5-.18zm20.13-.07c.18 0 .33.06.44.2.12.1.18.26.18.44v9.3c0 .18-.06.33-.18.44-.1.2-.26.2-.44.2s-.33 0-.44-.2c-.2-.1-.2-.2-.2-.4v-1.4c-.4.6-.9 1.2-1.6 1.6-.7.4-1.5.7-2.3.7-.9 0-1.8-.2-2.5-.7s-1.3-1.1-1.8-1.9c-.4-.8-.7-1.8-.7-2.8s.2-2 .6-2.8c.4-.8 1-1.5 1.7-1.9.7-.5 1.5-.7 2.4-.7.8 0 1.5.2 2.2.6.7.4 1.2.9 1.5 1.6V5.9c0-.18 0-.33.2-.45.1-.1.2-.2.4-.2zm-4.3 9.6c.72 0 1.36-.18 1.93-.56.58-.38 1.02-.9 1.35-1.57.4-.67.5-1.4.5-2.24 0-.8-.1-1.53-.5-2.2-.3-.65-.7-1.17-1.3-1.55-.5-.3-1.2-.5-1.9-.5s-1.3.2-1.9.6c-.5.4-1 .9-1.3 1.6-.3.7-.5 1.4-.5 2.2 0 .9.2 1.6.5 2.3.3.7.8 1.2 1.3 1.6.6.4 1.2.6 2 .6zm20.8-9.85c.28 0 .53.06.75.17.22.1.33.27.33.5 0 .2 0 .34-.1.46-.1.2-.2.2-.4.2 0 0-.2 0-.4-.1s-.4-.1-.5-.1c-.5 0-1 .2-1.5.6-.5.4-.9.9-1.2 1.5-.3.7-.5 1.3-.5 1.9v5.1c0 .2 0 .3-.2.5-.1.2-.2.2-.4.2s-.3 0-.4-.2c-.1-.1-.1-.2-.1-.4V5.9c0-.17.1-.3.2-.43.1-.12.3-.18.5-.18s.4 0 .5.1c.2.1.2.2.2.4v1.9c.3-.8.8-1.5 1.5-2s1.4-.8 2.3-.8zm13.35 5.52c0 1.03-.22 1.97-.68 2.8-.45.85-1.08 1.5-1.88 1.98-.8.48-1.68.72-2.66.72-.98 0-1.87-.24-2.67-.72-.8-.47-1.5-1.13-1.9-1.97-.5-.8-.7-1.7-.7-2.8 0-1 .2-1.9.7-2.8.4-.8 1.1-1.5 1.9-2 .8-.4 1.6-.7 2.6-.7s1.8.3 2.6.8 1.4 1.2 1.9 2c.4.9.6 1.8.6 2.8zm-1.24 0c0-.83-.17-1.57-.5-2.23-.36-.66-.83-1.18-1.45-1.56-.7-.3-1.3-.5-2.1-.5s-1.4.2-2.1.6c-.6.4-1.1.9-1.5 1.6-.4.7-.6 1.4-.6 2.3 0 .8.1 1.6.5 2.2.3.7.8 1.2 1.4 1.6.6.4 1.2.6 2 .6.7 0 1.4-.2 2-.5.6-.4 1-.9 1.4-1.6.3-.6.5-1.4.5-2.2zm12.7-5.2c.2 0 .34.05.45.17.1.12.1.26.1.44v5.9c0 1.4-.4 2.4-1.2 3.1-.8.8-1.8 1.1-3.2 1.1-1.4 0-2.4-.3-3.1-1.1-.8-.7-1.1-1.7-1.1-3.1V5.9c0-.17 0-.3.1-.43.1-.12.2-.18.4-.18s.3 0 .4.1c.1.1.2.2.2.4v5.8c0 1 .2 1.7.7 2.2.5.5 1.3.7 2.2.7 1 0 1.7-.3 2.3-.8.5-.5.8-1.3.8-2.3V5.9c0-.17.1-.3.2-.43.1-.12.2-.18.4-.18zm9.93-.15c.9 0 1.73.23 2.48.7.74.45 1.32 1.1 1.74 1.9.4.83.6 1.75.6 2.77 0 1.03-.2 1.96-.7 2.78-.5.82-1 1.46-1.8 1.93s-1.6.7-2.5.7c-.8 0-1.6-.2-2.2-.56-.7-.38-1.2-.9-1.6-1.52v5.45c0 .18-.1.33-.2.45-.1.1-.3.17-.5.17s-.3-.06-.5-.17c-.1-.12-.2-.27-.2-.45V5.83c0-.18 0-.33.1-.45.1-.13.2-.2.4-.2s.3.07.4.2c.1.12.2.27.2.45v1.4c.3-.64.8-1.15 1.5-1.52.6-.3 1.4-.5 2.2-.5zm-.1 9.63c.7 0 1.35-.2 1.93-.55.57-.37 1.02-.87 1.34-1.52.32-.6.48-1.3.48-2.1s-.16-1.5-.48-2.1c-.32-.6-.77-1.1-1.34-1.5-.58-.3-1.22-.5-1.94-.5-.73 0-1.38.2-1.96.6-.58.4-1.02.9-1.34 1.5-.32.7-.48 1.4-.48 2.2 0 .8.16 1.6.48 2.2.32.7.76 1.2 1.34 1.5.58.4 1.23.6 1.96.6zm17.13-9.55c.17 0 .32.06.44.2.1.1.17.26.17.44v9.3c0 .18 0 .33-.1.44-.1.2-.2.2-.4.2s-.3 0-.4-.2c-.1-.1-.2-.2-.2-.4v-1.4c-.3.6-.8 1.2-1.5 1.6-.7.4-1.4.7-2.2.7-.9 0-1.7-.2-2.5-.7-.7-.4-1.3-1.1-1.7-1.9-.4-.8-.6-1.8-.6-2.8s.3-2 .7-2.8c.4-.8 1-1.5 1.8-1.9.8-.5 1.6-.7 2.5-.7.8 0 1.6.2 2.3.6.7.4 1.2.9 1.6 1.6V5.9c0-.18.1-.33.2-.45.1-.1.3-.2.48-.2zm-4.3 9.6c.7 0 1.35-.18 1.93-.56.57-.38 1.02-.9 1.34-1.57.32-.67.48-1.4.48-2.24 0-.8-.16-1.53-.48-2.2-.32-.65-.77-1.17-1.34-1.55-.58-.3-1.22-.5-1.94-.5s-1.4.2-2 .6c-.6.4-1 .9-1.4 1.6-.3.7-.5 1.4-.5 2.2 0 .9.1 1.6.5 2.3.3.7.7 1.2 1.3 1.6.5.4 1.2.6 1.9.6zM230.64.5c.17 0 .32.06.44.18.12.1.17.26.17.44v14.05c0 .18-.05.33-.17.44-.12.2-.27.2-.44.2-.18 0-.33 0-.45-.2-.2-.1-.2-.2-.2-.4v-1.4c-.4.7-.9 1.2-1.6 1.6-.7.5-1.5.7-2.3.7-.9 0-1.8-.2-2.5-.7-.8-.5-1.3-1.1-1.8-2-.5-.8-.7-1.7-.7-2.8 0-1 .2-1.9.6-2.8.4-.8 1-1.5 1.7-2s1.6-.7 2.5-.7c.8 0 1.5.2 2.2.6.7.5 1.2 1 1.5 1.6V1.1c0-.18.1-.33.2-.44.1-.12.2-.18.4-.18zm-4.3 14.34c.7 0 1.36-.2 1.93-.56.57-.37 1.02-.9 1.34-1.56.4-.67.5-1.4.5-2.24 0-.8-.1-1.55-.5-2.2-.3-.67-.7-1.2-1.3-1.57-.5-.3-1.2-.5-1.9-.5s-1.3.2-1.9.6c-.5.4-1 .9-1.3 1.6-.3.7-.5 1.4-.5 2.2 0 .9.2 1.6.5 2.3.4.7.8 1.2 1.4 1.6.6.4 1.2.6 2 .6zm18.94-4.34c0 1.03-.22 1.97-.68 2.8-.45.85-1.08 1.5-1.88 1.98-.8.48-1.7.72-2.66.72-.98 0-1.87-.24-2.67-.72-.8-.47-1.5-1.13-1.9-1.97-.5-.8-.7-1.7-.7-2.8 0-1 .2-1.9.7-2.8.4-.8 1.1-1.5 1.9-2 .8-.4 1.6-.7 2.6-.7.9 0 1.8.3 2.6.8s1.4 1.2 1.9 2c.4.9.6 1.8.6 2.8zm-1.24 0c0-.83-.17-1.57-.5-2.23-.36-.66-.84-1.18-1.45-1.56-.7-.3-1.3-.5-2.1-.5s-1.4.2-2.1.6c-.6.4-1.1.9-1.5 1.6-.4.7-.6 1.4-.6 2.3 0 .8.1 1.6.5 2.2.3.7.8 1.2 1.4 1.6.6.4 1.2.6 2 .6.7 0 1.4-.2 2-.5.6-.4 1-.9 1.4-1.6.3-.6.5-1.4.5-2.2zm16.43-5.52c.27 0 .52.06.74.17.3.1.4.27.4.5 0 .2 0 .34-.1.46-.1.2-.2.2-.4.2 0 0-.2 0-.4-.1s-.4-.1-.5-.1c-.5 0-1 .2-1.5.6-.5.4-.9.9-1.2 1.5-.3.7-.5 1.3-.5 1.9v5.1c0 .2 0 .3-.1.5s-.2.2-.4.2-.3 0-.4-.2c-.1-.1-.2-.2-.2-.4V5.9c0-.17.1-.3.2-.43.1-.12.3-.18.5-.18s.4 0 .5.1c.1.1.2.2.2.4v1.9c.3-.8.8-1.5 1.48-2 .67-.5 1.4-.8 2.3-.8zM273 9.9c0 .17-.07.3-.2.42-.12.12-.27.18-.43.18h-7.8c0 .83.16 1.57.5 2.22.33.65.82 1.17 1.44 1.55.7.38 1.4.57 2.3.57.7 0 1.3-.14 1.8-.4.6-.3 1-.64 1.3-1.07.2-.12.3-.18.5-.18s.3 0 .4.1c.1.1.2.2.2.3 0 .1 0 .3-.2.4-.4.5-1 .9-1.6 1.3-.7.3-1.4.5-2.1.5-1 0-2-.3-2.8-.7-.8-.5-1.4-1.1-1.9-1.9-.4-.9-.7-1.8-.7-2.9 0-1.2.3-2.2.7-3 .5-.9 1.1-1.5 1.8-2 .8-.5 1.6-.7 2.4-.7.9 0 1.6.2 2.4.6.8.4 1.3.9 1.8 1.7.5.7.7 1.6.7 2.6zm-4.8-3.72c-.8 0-1.54.28-2.23.83-.68.6-1.1 1.4-1.3 2.4h7.04v-.1c0-.6-.2-1.1-.6-1.6-.3-.4-.8-.8-1.3-1s-1-.3-1.6-.3zm9.58 9c0 .17-.06.32-.17.43-.1.2-.2.2-.4.2s-.3 0-.4-.2c-.1-.1-.2-.2-.2-.4V5.7c0-.2.1-.34.2-.46s.3-.17.5-.17.4.05.5.17c.1.12.2.27.2.45v9.5zm-.62-11.5c-.27 0-.5-.08-.64-.2a.768.768 0 0 1-.23-.58v-.2c0-.26 0-.45.2-.58.1-.13.4-.2.6-.2.5 0 .8.26.8.77v.2c0 .2-.1.4-.2.5-.2.1-.4.2-.7.2zM297.3.5c.16 0 .3.06.43.18.12.1.18.26.18.44v14.05c0 .18 0 .33-.1.44-.1.2-.2.2-.4.2s-.3 0-.4-.2c-.1-.1-.1-.2-.1-.4v-1.4c-.3.7-.8 1.2-1.5 1.6-.7.5-1.4.7-2.3.7-.9 0-1.7-.2-2.4-.7-.7-.5-1.3-1.1-1.7-2-.4-.8-.6-1.7-.6-2.8 0-1 .3-1.9.7-2.8.5-.8 1-1.5 1.8-2 .7-.4 1.6-.7 2.5-.7.8 0 1.6.2 2.25.6.7.4 1.2 1 1.6 1.6V1.1c0-.18.07-.33.2-.44.1-.12.3-.18.47-.18zM293 14.84c.7 0 1.35-.2 1.92-.56.57-.37 1.02-.9 1.34-1.56.33-.67.5-1.4.5-2.24 0-.8-.17-1.55-.5-2.2-.32-.67-.77-1.2-1.34-1.57-.57-.3-1.22-.5-1.93-.5-.8 0-1.4.2-2 .6-.6.4-1 .9-1.4 1.6-.3.7-.5 1.4-.5 2.2 0 .9.1 1.6.4 2.3.3.7.8 1.2 1.3 1.6.5.4 1.2.6 1.9.6zm18.1-4.94c0 .17-.05.3-.18.42-.12.12-.27.18-.43.18h-7.9c0 .83.1 1.57.5 2.22.3.65.8 1.17 1.4 1.55.6.38 1.3.57 2.2.57.6 0 1.2-.14 1.7-.4.5-.3.9-.64 1.3-1.07.1-.12.3-.18.4-.18s.2 0 .3.1c.1.1.1.2.1.3 0 .1-.1.3-.2.4-.5.5-1 .9-1.7 1.3-.7.3-1.4.5-2.2.5-1.1 0-2-.3-2.8-.7-.9-.5-1.5-1.1-1.9-1.9-.5-.9-.7-1.8-.7-2.9 0-1.2.2-2.2.6-3 .4-.9 1-1.5 1.8-2 .7-.5 1.5-.7 2.3-.7.8 0 1.6.2 2.3.6.72.4 1.3.9 1.8 1.7.42.7.7 1.6.7 2.6zm-4.8-3.72c-.78 0-1.53.28-2.2.83-.7.6-1.13 1.4-1.32 2.4h7.05v-.1c-.07-.6-.28-1.1-.62-1.6-.3-.4-.7-.8-1.2-1s-1-.3-1.6-.3zm20-1.2c.3 0 .54.06.76.17.22.1.33.27.33.5 0 .2-.1.34-.2.46-.1.2-.3.2-.4.2-.1 0-.2 0-.4-.1s-.4-.1-.6-.1c-.5 0-1 .2-1.5.6-.5.4-.9.9-1.3 1.5-.4.7-.5 1.3-.5 1.9v5.1c0 .2-.1.3-.2.5s-.3.2-.5.2-.4 0-.5-.2c-.1-.1-.2-.2-.2-.4V5.9c0-.17 0-.3.2-.43.1-.12.3-.18.4-.18s.3 0 .4.1c.1.1.2.2.2.4v1.9c.3-.8.8-1.5 1.4-2 .6-.5 1.4-.8 2.2-.8zm13.36 5.52c0 1.03-.23 1.97-.68 2.8a5.05 5.05 0 0 1-1.88 1.98c-.8.48-1.7.72-2.67.72s-1.86-.24-2.66-.72c-.8-.47-1.43-1.13-1.88-1.97-.5-.8-.7-1.7-.7-2.8 0-1 .2-1.9.7-2.8.4-.8 1-1.5 1.8-2 .8-.4 1.7-.7 2.6-.7 1 0 1.8.3 2.6.8s1.4 1.2 1.8 2c.4.9.7 1.8.7 2.8zm-1.24 0c0-.83-.17-1.57-.52-2.23-.34-.66-.82-1.18-1.43-1.56-.6-.3-1.3-.5-2.04-.5s-1.42.2-2.02.6c-.6.4-1 .9-1.4 1.6-.3.7-.5 1.4-.5 2.3 0 .8.2 1.6.5 2.2.4.7.9 1.2 1.5 1.6.6.4 1.3.6 2.1.6s1.5-.2 2.1-.5c.6-.4 1.1-.9 1.5-1.6.4-.6.5-1.4.5-2.2zm16.8-5.35c1.24 0 2.15.38 2.73 1.15.6.76.88 1.77.88 3.02v5.85c0 .18-.06.33-.17.44-.12.2-.27.2-.45.2-.1 0-.3 0-.4-.2-.1-.1-.2-.2-.2-.4V9.4c0-.9-.2-1.65-.6-2.2-.4-.6-1.1-.87-2-.87-.6 0-1.1.14-1.6.42-.5.27-.9.65-1.2 1.13-.3.47-.5.98-.5 1.53v5.8c0 .2 0 .4-.2.5-.1.2-.2.2-.4.2s-.3 0-.4-.2c-.1-.1-.2-.2-.2-.4V9.4c0-.9-.2-1.6-.6-2.18-.4-.56-1.1-.83-1.9-.83-.5 0-1.1.1-1.6.4-.5.2-.9.6-1.2 1.1-.3.4-.4.9-.4 1.5v5.8c0 .2 0 .3-.2.4-.1.1-.2.2-.4.2-.1 0-.3-.1-.4-.2-.1-.1-.1-.3-.1-.5V5.9c0-.17.1-.3.2-.43.2-.12.3-.18.5-.18s.3 0 .5.1.2.2.2.4V7c.4-.55.9-1.02 1.5-1.4.65-.36 1.3-.55 2-.55.8 0 1.5.2 2.1.6.6.36 1 .93 1.23 1.7.28-.64.8-1.16 1.58-1.6.8-.47 1.6-.7 2.4-.7zm16.46.08c.18 0 .33.06.45.2.1.1.17.26.17.44v9.3c0 .18-.06.33-.17.44-.12.2-.27.2-.45.2s-.32 0-.44-.2c-.12-.1-.18-.2-.18-.4v-1.4c-.34.6-.86 1.2-1.55 1.6-.6.4-1.4.7-2.2.7-.9 0-1.7-.2-2.5-.7-.7-.4-1.3-1.1-1.7-1.9-.4-.8-.6-1.8-.6-2.8s.2-2 .7-2.8c.4-.8 1-1.5 1.8-1.9.8-.5 1.6-.7 2.5-.7.9 0 1.6.2 2.3.6.7.4 1.2.9 1.6 1.6V5.9c0-.18.1-.33.2-.45.1-.1.3-.2.5-.2zm-4.3 9.6c.72 0 1.37-.18 1.94-.56.57-.38 1.02-.9 1.34-1.57.32-.67.5-1.4.5-2.24 0-.8-.18-1.53-.5-2.2-.32-.65-.77-1.17-1.34-1.55-.57-.3-1.22-.5-1.93-.5-.8 0-1.4.2-2 .6-.6.4-1 .9-1.4 1.6-.3.7-.5 1.4-.5 2.2 0 .9.1 1.6.4 2.3.3.7.7 1.2 1.3 1.6.5.4 1.2.6 1.9.6z"/><path d="M14.34 8.56c0 1.42-.3 2.7-.9 3.82-.58 1.13-1.4 2-2.44 2.66-1.05.64-2.24.96-3.58.96-1.33 0-2.53-.32-3.57-.96a6.718 6.718 0 0 1-2.46-2.66c-.6-1.13-.9-2.4-.9-3.82 0-1.44.3-2.72.9-3.84.5-1.12 1.4-2.02 2.4-2.65 1-.63 2.2-.95 3.5-.95 1.3 0 2.5.32 3.6.95 1.1.63 1.9 1.53 2.5 2.65.6 1.12.9 2.4.9 3.84zm-1.32 0c0-1.2-.24-2.27-.7-3.2-.5-.96-1.15-1.7-2-2.2-.84-.54-1.8-.8-2.9-.8-1.1 0-2.05.26-2.9.8-.85.5-1.5 1.24-2 2.2-.46.93-.7 2-.7 3.2 0 1.2.24 2.27.7 3.2.5.95 1.15 1.7 2 2.2.85.53 1.8.8 2.9.8 1.1 0 2.06-.27 2.9-.8.85-.5 1.5-1.25 2-2.2.46-.93.7-2 .7-3.2zM33.6 5.23c.18 0 .33.06.44.18.12.2.18.3.18.5v9c0 1.1-.23 2-.67 2.8-.45.8-1.06 1.4-1.84 1.8-.7.4-1.6.6-2.6.6-.5 0-1 0-1.5-.2s-.9-.3-1.3-.5-.6-.4-.6-.6c-.1-.1-.1-.2-.1-.3 0-.1.1-.2.2-.3h.2c.1 0 .2.1.5.2l.4.2c.9.3 1.7.5 2.4.5 1.2 0 2.2-.3 2.9-1 .7-.7 1.1-1.6 1.1-2.8V14c-.3.7-.9 1.3-1.6 1.72-.7.4-1.5.6-2.3.6-.9 0-1.8-.23-2.5-.7-.8-.5-1.4-1.14-1.8-2-.4-.85-.7-1.8-.7-2.84s.3-1.96.7-2.8c.4-.84 1-1.5 1.8-1.97.8-.5 1.6-.7 2.6-.7.9 0 1.7.2 2.4.7.77.4 1.3 1 1.6 1.6V5.9c0-.2.1-.34.2-.46.1-.1.3-.2.48-.2zm-4.5 9.6c.77 0 1.45-.17 2.05-.54.6-.4 1.07-.9 1.4-1.6.34-.7.5-1.4.5-2.3 0-.9-.16-1.6-.5-2.3-.33-.7-.8-1.2-1.4-1.6-.6-.4-1.28-.6-2.04-.6-.7 0-1.4.2-2 .6-.6.4-1 .9-1.4 1.5a5.09 5.09 0 0 0 0 4.4c.4.6.8 1.2 1.4 1.5.6.4 1.3.5 2 .5zM47 5.23c.16 0 .3.06.43.2.12.1.18.26.18.44v9.3c0 .18 0 .33-.1.44-.1.2-.2.2-.4.2s-.3 0-.4-.2c-.1-.1-.1-.2-.1-.4v-1.4c-.3.6-.8 1.2-1.5 1.6-.7.4-1.4.7-2.2.7-.9 0-1.8-.2-2.5-.7-.7-.4-1.3-1.1-1.7-1.9-.4-.8-.6-1.8-.6-2.8s.3-2 .7-2.8c.5-.8 1-1.5 1.8-1.9.8-.5 1.6-.7 2.5-.7.8 0 1.6.2 2.3.6.7.4 1.2.9 1.5 1.6V5.9c0-.18.1-.33.2-.45.2-.1.3-.2.5-.2zm-4.3 9.6c.7 0 1.35-.18 1.92-.56.57-.38 1.02-.9 1.34-1.57.33-.67.5-1.4.5-2.24 0-.8-.17-1.53-.5-2.2-.32-.65-.77-1.17-1.34-1.55-.57-.3-1.22-.5-1.93-.5-.8 0-1.4.2-2 .6-.6.4-1 .9-1.4 1.6-.3.7-.5 1.4-.5 2.2 0 .9.1 1.6.4 2.3.3.7.7 1.2 1.3 1.6.5.4 1.2.6 1.9.6zm11.25-8.4v6.92c0 .52.1.88.3 1.07.18.18.44.27.75.27.08 0 .2-.1.3-.1l.3-.1c.12 0 .23 0 .32.1.1.1.14.2.14.3 0 .2-.1.3-.34.5-.2.1-.48.2-.78.2-.37 0-.7-.1-1-.1-.28-.1-.56-.3-.83-.7-.2-.4-.4-.9-.4-1.7V6.4h-1.5c-.1 0-.3-.05-.4-.16-.1-.1-.2-.24-.2-.4 0-.17.1-.3.2-.42.1-.1.3-.17.4-.17h1.5v-2.3c0-.17.1-.32.2-.43.1-.12.3-.18.5-.18s.4.06.5.18c.1.1.2.26.2.44v2.3h2c.2 0 .3 0 .5.12.1.12.2.26.2.4 0 .18-.1.3-.2.42-.1.1-.2.14-.4.14H54zm15.62 4.07c0 1.03-.23 1.97-.68 2.8-.5.85-1.1 1.5-1.9 1.98-.8.48-1.7.72-2.7.72-1 0-1.9-.24-2.7-.72-.8-.47-1.4-1.13-1.9-1.97-.5-.8-.7-1.7-.7-2.8 0-1 .2-1.9.7-2.8.4-.8 1.1-1.5 1.8-2 .8-.4 1.7-.7 2.6-.7 1 0 1.8.3 2.6.8s1.4 1.2 1.9 2c.4.9.6 1.8.6 2.8zm-1.24 0c0-.83-.17-1.57-.52-2.23-.3-.66-.8-1.18-1.4-1.56-.6-.3-1.3-.5-2-.5s-1.4.2-2 .6c-.6.4-1.1.9-1.4 1.6-.3.7-.5 1.4-.5 2.3 0 .8.2 1.6.6 2.2.4.7.8 1.2 1.4 1.6.6.4 1.3.6 2 .6s1.4-.2 2.1-.5c.6-.4 1.1-.9 1.5-1.6.4-.6.6-1.4.6-2.2zm16.42-5.52c.28 0 .53.06.75.17.22.1.33.27.33.5 0 .2-.06.34-.17.46-.1.2-.24.2-.4.2-.06 0-.2 0-.4-.1s-.38-.1-.56-.1c-.5 0-1.02.2-1.52.6-.5.4-.92.9-1.24 1.5-.32.7-.5 1.3-.5 1.9v5.1c0 .2-.04.3-.16.5s-.27.2-.45.2c-.17 0-.32 0-.44-.2-.2-.1-.2-.2-.2-.4V5.9c0-.17 0-.3.2-.43.1-.12.2-.18.4-.18s.3 0 .4.1.1.2.1.4v1.9c.3-.8.8-1.5 1.4-2 .6-.5 1.4-.8 2.2-.8zM98.1 10.5c0 1.03-.23 1.97-.68 2.8a5.05 5.05 0 0 1-1.88 1.98c-.8.48-1.7.72-2.67.72-.98 0-1.86-.24-2.66-.72-.8-.47-1.4-1.13-1.8-1.97-.4-.8-.7-1.7-.7-2.8 0-1 .2-1.9.7-2.8.5-.8 1.1-1.5 1.9-2 .7-.4 1.6-.7 2.6-.7s1.9.3 2.7.8c.8.5 1.4 1.2 1.9 2 .5.9.7 1.8.7 2.8zm-1.24 0c0-.83-.17-1.57-.52-2.23C96 7.6 95.52 7.1 94.9 6.7a3.8 3.8 0 0 0-2.03-.56c-.74 0-1.42.2-2.02.57-.6.4-1.1.9-1.44 1.6-.3.7-.5 1.4-.5 2.3 0 .8.2 1.6.6 2.2.4.7.9 1.2 1.5 1.6.6.4 1.3.6 2 .6s1.5-.2 2.1-.5c.6-.3 1.1-.9 1.5-1.5.4-.6.5-1.4.5-2.2zm13.74-.6c0 .17-.06.3-.2.42-.1.12-.26.18-.42.18h-7.8c0 .83.16 1.57.5 2.22.33.65.82 1.17 1.44 1.55.63.38 1.37.57 2.22.57.66 0 1.26-.14 1.78-.4.52-.3.94-.64 1.26-1.07.15-.12.3-.18.43-.18.2 0 .3 0 .4.1.1.1.2.2.2.3 0 .1 0 .3-.2.4-.4.5-1 .9-1.6 1.3-.6.3-1.3.5-2.1.5-1 0-2-.3-2.8-.7-.8-.5-1.4-1.1-1.9-1.9-.4-.9-.7-1.8-.7-2.9 0-1.2.3-2.2.7-3 .5-.9 1.1-1.5 1.8-2s1.5-.7 2.4-.7c.9 0 1.6.2 2.4.6.7.4 1.3.9 1.8 1.7.5.7.7 1.6.7 2.6zm-4.8-3.72c-.8 0-1.53.28-2.22.83-.68.6-1.1 1.4-1.3 2.4h7.04v-.1c-.07-.6-.28-1.1-.62-1.6-.35-.4-.78-.8-1.3-1-.5-.2-1.04-.3-1.6-.3zm16.3-.88c.17 0 .3.05.43.17.12.12.18.26.18.44v5.9c0 1.4-.3 2.4-1.1 3.1-.7.8-1.8 1.1-3.1 1.1s-2.3-.3-3.1-1.1c-.7-.7-1.1-1.7-1.1-3.1V5.9c0-.17.1-.3.2-.43.2-.12.3-.18.5-.18s.4 0 .5.1.2.2.2.4v5.8c0 1 .3 1.7.8 2.2.5.5 1.3.7 2.2.7 1 0 1.7-.3 2.3-.8.6-.5.8-1.3.8-2.3V5.9c0-.17.1-.3.2-.43.1-.12.3-.18.5-.18zm20.13-.07c.18 0 .33.06.44.2.12.1.18.26.18.44v9.3c0 .18-.06.33-.18.44-.1.2-.26.2-.44.2s-.33 0-.44-.2c-.2-.1-.2-.2-.2-.4v-1.4c-.4.6-.9 1.2-1.6 1.6-.7.4-1.5.7-2.3.7-.9 0-1.8-.2-2.5-.7s-1.3-1.1-1.8-1.9c-.4-.8-.7-1.8-.7-2.8s.2-2 .6-2.8c.4-.8 1-1.5 1.7-1.9.7-.5 1.5-.7 2.4-.7.8 0 1.5.2 2.2.6.7.4 1.2.9 1.5 1.6V5.9c0-.18 0-.33.2-.45.1-.1.2-.2.4-.2zm-4.3 9.6c.72 0 1.36-.18 1.93-.56.58-.38 1.02-.9 1.35-1.57.4-.67.5-1.4.5-2.24 0-.8-.1-1.53-.5-2.2-.3-.65-.7-1.17-1.3-1.55-.5-.3-1.2-.5-1.9-.5s-1.3.2-1.9.6c-.5.4-1 .9-1.3 1.6-.3.7-.5 1.4-.5 2.2 0 .9.2 1.6.5 2.3.3.7.8 1.2 1.3 1.6.6.4 1.2.6 2 .6zm20.8-9.85c.28 0 .53.06.75.17.22.1.33.27.33.5 0 .2 0 .34-.1.46-.1.2-.2.2-.4.2 0 0-.2 0-.4-.1s-.4-.1-.5-.1c-.5 0-1 .2-1.5.6-.5.4-.9.9-1.2 1.5-.3.7-.5 1.3-.5 1.9v5.1c0 .2 0 .3-.2.5-.1.2-.2.2-.4.2s-.3 0-.4-.2c-.1-.1-.1-.2-.1-.4V5.9c0-.17.1-.3.2-.43.1-.12.3-.18.5-.18s.4 0 .5.1c.2.1.2.2.2.4v1.9c.3-.8.8-1.5 1.5-2s1.4-.8 2.3-.8zm13.35 5.52c0 1.03-.22 1.97-.68 2.8-.45.85-1.08 1.5-1.88 1.98-.8.48-1.68.72-2.66.72-.98 0-1.87-.24-2.67-.72-.8-.47-1.5-1.13-1.9-1.97-.5-.8-.7-1.7-.7-2.8 0-1 .2-1.9.7-2.8.4-.8 1.1-1.5 1.9-2 .8-.4 1.6-.7 2.6-.7s1.8.3 2.6.8 1.4 1.2 1.9 2c.4.9.6 1.8.6 2.8zm-1.24 0c0-.83-.17-1.57-.5-2.23-.36-.66-.83-1.18-1.45-1.56-.7-.3-1.3-.5-2.1-.5s-1.4.2-2.1.6c-.6.4-1.1.9-1.5 1.6-.4.7-.6 1.4-.6 2.3 0 .8.1 1.6.5 2.2.3.7.8 1.2 1.4 1.6.6.4 1.2.6 2 .6.7 0 1.4-.2 2-.5.6-.4 1-.9 1.4-1.6.3-.6.5-1.4.5-2.2zm12.7-5.2c.2 0 .34.05.45.17.1.12.1.26.1.44v5.9c0 1.4-.4 2.4-1.2 3.1-.8.8-1.8 1.1-3.2 1.1-1.4 0-2.4-.3-3.1-1.1-.8-.7-1.1-1.7-1.1-3.1V5.9c0-.17 0-.3.1-.43.1-.12.2-.18.4-.18s.3 0 .4.1c.1.1.2.2.2.4v5.8c0 1 .2 1.7.7 2.2.5.5 1.3.7 2.2.7 1 0 1.7-.3 2.3-.8.5-.5.8-1.3.8-2.3V5.9c0-.17.1-.3.2-.43.1-.12.2-.18.4-.18zm9.93-.15c.9 0 1.73.23 2.48.7.74.45 1.32 1.1 1.74 1.9.4.83.6 1.75.6 2.77 0 1.03-.2 1.96-.7 2.78-.5.82-1 1.46-1.8 1.93s-1.6.7-2.5.7c-.8 0-1.6-.2-2.2-.56-.7-.38-1.2-.9-1.6-1.52v5.45c0 .18-.1.33-.2.45-.1.1-.3.17-.5.17s-.3-.06-.5-.17c-.1-.12-.2-.27-.2-.45V5.83c0-.18 0-.33.1-.45.1-.13.2-.2.4-.2s.3.07.4.2c.1.12.2.27.2.45v1.4c.3-.64.8-1.15 1.5-1.52.6-.3 1.4-.5 2.2-.5zm-.1 9.63c.7 0 1.35-.2 1.93-.55.57-.37 1.02-.87 1.34-1.52.32-.6.48-1.3.48-2.1s-.16-1.5-.48-2.1c-.32-.6-.77-1.1-1.34-1.5-.58-.3-1.22-.5-1.94-.5-.73 0-1.38.2-1.96.6-.58.4-1.02.9-1.34 1.5-.32.7-.48 1.4-.48 2.2 0 .8.16 1.6.48 2.2.32.7.76 1.2 1.34 1.5.58.4 1.23.6 1.96.6zm17.13-9.55c.17 0 .32.06.44.2.1.1.17.26.17.44v9.3c0 .18 0 .33-.1.44-.1.2-.2.2-.4.2s-.3 0-.4-.2c-.1-.1-.2-.2-.2-.4v-1.4c-.3.6-.8 1.2-1.5 1.6-.7.4-1.4.7-2.2.7-.9 0-1.7-.2-2.5-.7-.7-.4-1.3-1.1-1.7-1.9-.4-.8-.6-1.8-.6-2.8s.3-2 .7-2.8c.4-.8 1-1.5 1.8-1.9.8-.5 1.6-.7 2.5-.7.8 0 1.6.2 2.3.6.7.4 1.2.9 1.6 1.6V5.9c0-.18.1-.33.2-.45.1-.1.3-.2.48-.2zm-4.3 9.6c.7 0 1.35-.18 1.93-.56.57-.38 1.02-.9 1.34-1.57.32-.67.48-1.4.48-2.24 0-.8-.16-1.53-.48-2.2-.32-.65-.77-1.17-1.34-1.55-.58-.3-1.22-.5-1.94-.5s-1.4.2-2 .6c-.6.4-1 .9-1.4 1.6-.3.7-.5 1.4-.5 2.2 0 .9.1 1.6.5 2.3.3.7.7 1.2 1.3 1.6.5.4 1.2.6 1.9.6zM230.64.5c.17 0 .32.06.44.18.12.1.17.26.17.44v14.05c0 .18-.05.33-.17.44-.12.2-.27.2-.44.2-.18 0-.33 0-.45-.2-.2-.1-.2-.2-.2-.4v-1.4c-.4.7-.9 1.2-1.6 1.6-.7.5-1.5.7-2.3.7-.9 0-1.8-.2-2.5-.7-.8-.5-1.3-1.1-1.8-2-.5-.8-.7-1.7-.7-2.8 0-1 .2-1.9.6-2.8.4-.8 1-1.5 1.7-2s1.6-.7 2.5-.7c.8 0 1.5.2 2.2.6.7.5 1.2 1 1.5 1.6V1.1c0-.18.1-.33.2-.44.1-.12.2-.18.4-.18zm-4.3 14.34c.7 0 1.36-.2 1.93-.56.57-.37 1.02-.9 1.34-1.56.4-.67.5-1.4.5-2.24 0-.8-.1-1.55-.5-2.2-.3-.67-.7-1.2-1.3-1.57-.5-.3-1.2-.5-1.9-.5s-1.3.2-1.9.6c-.5.4-1 .9-1.3 1.6-.3.7-.5 1.4-.5 2.2 0 .9.2 1.6.5 2.3.4.7.8 1.2 1.4 1.6.6.4 1.2.6 2 .6zm18.94-4.34c0 1.03-.22 1.97-.68 2.8-.45.85-1.08 1.5-1.88 1.98-.8.48-1.7.72-2.66.72-.98 0-1.87-.24-2.67-.72-.8-.47-1.5-1.13-1.9-1.97-.5-.8-.7-1.7-.7-2.8 0-1 .2-1.9.7-2.8.4-.8 1.1-1.5 1.9-2 .8-.4 1.6-.7 2.6-.7.9 0 1.8.3 2.6.8s1.4 1.2 1.9 2c.4.9.6 1.8.6 2.8zm-1.24 0c0-.83-.17-1.57-.5-2.23-.36-.66-.84-1.18-1.45-1.56-.7-.3-1.3-.5-2.1-.5s-1.4.2-2.1.6c-.6.4-1.1.9-1.5 1.6-.4.7-.6 1.4-.6 2.3 0 .8.1 1.6.5 2.2.3.7.8 1.2 1.4 1.6.6.4 1.2.6 2 .6.7 0 1.4-.2 2-.5.6-.4 1-.9 1.4-1.6.3-.6.5-1.4.5-2.2zm16.43-5.52c.27 0 .52.06.74.17.3.1.4.27.4.5 0 .2 0 .34-.1.46-.1.2-.2.2-.4.2 0 0-.2 0-.4-.1s-.4-.1-.5-.1c-.5 0-1 .2-1.5.6-.5.4-.9.9-1.2 1.5-.3.7-.5 1.3-.5 1.9v5.1c0 .2 0 .3-.1.5s-.2.2-.4.2-.3 0-.4-.2c-.1-.1-.2-.2-.2-.4V5.9c0-.17.1-.3.2-.43.1-.12.3-.18.5-.18s.4 0 .5.1c.1.1.2.2.2.4v1.9c.3-.8.8-1.5 1.48-2 .67-.5 1.4-.8 2.3-.8zM273 9.9c0 .17-.07.3-.2.42-.12.12-.27.18-.43.18h-7.8c0 .83.16 1.57.5 2.22.33.65.82 1.17 1.44 1.55.7.38 1.4.57 2.3.57.7 0 1.3-.14 1.8-.4.6-.3 1-.64 1.3-1.07.2-.12.3-.18.5-.18s.3 0 .4.1c.1.1.2.2.2.3 0 .1 0 .3-.2.4-.4.5-1 .9-1.6 1.3-.7.3-1.4.5-2.1.5-1 0-2-.3-2.8-.7-.8-.5-1.4-1.1-1.9-1.9-.4-.9-.7-1.8-.7-2.9 0-1.2.3-2.2.7-3 .5-.9 1.1-1.5 1.8-2 .8-.5 1.6-.7 2.4-.7.9 0 1.6.2 2.4.6.8.4 1.3.9 1.8 1.7.5.7.7 1.6.7 2.6zm-4.8-3.72c-.8 0-1.54.28-2.23.83-.68.6-1.1 1.4-1.3 2.4h7.04v-.1c0-.6-.2-1.1-.6-1.6-.3-.4-.8-.8-1.3-1s-1-.3-1.6-.3zm9.58 9c0 .17-.06.32-.17.43-.1.2-.2.2-.4.2s-.3 0-.4-.2c-.1-.1-.2-.2-.2-.4V5.7c0-.2.1-.34.2-.46s.3-.17.5-.17.4.05.5.17c.1.12.2.27.2.45v9.5zm-.62-11.5c-.27 0-.5-.08-.64-.2a.768.768 0 0 1-.23-.58v-.2c0-.26 0-.45.2-.58.1-.13.4-.2.6-.2.5 0 .8.26.8.77v.2c0 .2-.1.4-.2.5-.2.1-.4.2-.7.2zM297.3.5c.16 0 .3.06.43.18.12.1.18.26.18.44v14.05c0 .18 0 .33-.1.44-.1.2-.2.2-.4.2s-.3 0-.4-.2c-.1-.1-.1-.2-.1-.4v-1.4c-.3.7-.8 1.2-1.5 1.6-.7.5-1.4.7-2.3.7-.9 0-1.7-.2-2.4-.7-.7-.5-1.3-1.1-1.7-2-.4-.8-.6-1.7-.6-2.8 0-1 .3-1.9.7-2.8.5-.8 1-1.5 1.8-2 .7-.4 1.6-.7 2.5-.7.8 0 1.6.2 2.25.6.7.4 1.2 1 1.6 1.6V1.1c0-.18.07-.33.2-.44.1-.12.3-.18.47-.18zM293 14.84c.7 0 1.35-.2 1.92-.56.57-.37 1.02-.9 1.34-1.56.33-.67.5-1.4.5-2.24 0-.8-.17-1.55-.5-2.2-.32-.67-.77-1.2-1.34-1.57-.57-.3-1.22-.5-1.93-.5-.8 0-1.4.2-2 .6-.6.4-1 .9-1.4 1.6-.3.7-.5 1.4-.5 2.2 0 .9.1 1.6.4 2.3.3.7.8 1.2 1.3 1.6.5.4 1.2.6 1.9.6zm18.1-4.94c0 .17-.05.3-.18.42-.12.12-.27.18-.43.18h-7.9c0 .83.1 1.57.5 2.22.3.65.8 1.17 1.4 1.55.6.38 1.3.57 2.2.57.6 0 1.2-.14 1.7-.4.5-.3.9-.64 1.3-1.07.1-.12.3-.18.4-.18s.2 0 .3.1c.1.1.1.2.1.3 0 .1-.1.3-.2.4-.5.5-1 .9-1.7 1.3-.7.3-1.4.5-2.2.5-1.1 0-2-.3-2.8-.7-.9-.5-1.5-1.1-1.9-1.9-.5-.9-.7-1.8-.7-2.9 0-1.2.2-2.2.6-3 .4-.9 1-1.5 1.8-2 .7-.5 1.5-.7 2.3-.7.8 0 1.6.2 2.3.6.72.4 1.3.9 1.8 1.7.42.7.7 1.6.7 2.6zm-4.8-3.72c-.78 0-1.53.28-2.2.83-.7.6-1.13 1.4-1.32 2.4h7.05v-.1c-.07-.6-.28-1.1-.62-1.6-.3-.4-.7-.8-1.2-1s-1-.3-1.6-.3zm20-1.2c.3 0 .54.06.76.17.22.1.33.27.33.5 0 .2-.1.34-.2.46-.1.2-.3.2-.4.2-.1 0-.2 0-.4-.1s-.4-.1-.6-.1c-.5 0-1 .2-1.5.6-.5.4-.9.9-1.3 1.5-.4.7-.5 1.3-.5 1.9v5.1c0 .2-.1.3-.2.5s-.3.2-.5.2-.4 0-.5-.2c-.1-.1-.2-.2-.2-.4V5.9c0-.17 0-.3.2-.43.1-.12.3-.18.4-.18s.3 0 .4.1c.1.1.2.2.2.4v1.9c.3-.8.8-1.5 1.4-2 .6-.5 1.4-.8 2.2-.8zm13.36 5.52c0 1.03-.23 1.97-.68 2.8a5.05 5.05 0 0 1-1.88 1.98c-.8.48-1.7.72-2.67.72s-1.86-.24-2.66-.72c-.8-.47-1.43-1.13-1.88-1.97-.5-.8-.7-1.7-.7-2.8 0-1 .2-1.9.7-2.8.4-.8 1-1.5 1.8-2 .8-.4 1.7-.7 2.6-.7 1 0 1.8.3 2.6.8s1.4 1.2 1.8 2c.4.9.7 1.8.7 2.8zm-1.24 0c0-.83-.17-1.57-.52-2.23-.34-.66-.82-1.18-1.43-1.56-.6-.3-1.3-.5-2.04-.5s-1.42.2-2.02.6c-.6.4-1 .9-1.4 1.6-.3.7-.5 1.4-.5 2.3 0 .8.2 1.6.5 2.2.4.7.9 1.2 1.5 1.6.6.4 1.3.6 2.1.6s1.5-.2 2.1-.5c.6-.4 1.1-.9 1.5-1.6.4-.6.5-1.4.5-2.2zm16.8-5.35c1.24 0 2.15.38 2.73 1.15.6.76.88 1.77.88 3.02v5.85c0 .18-.06.33-.17.44-.12.2-.27.2-.45.2-.1 0-.3 0-.4-.2-.1-.1-.2-.2-.2-.4V9.4c0-.9-.2-1.65-.6-2.2-.4-.6-1.1-.87-2-.87-.6 0-1.1.14-1.6.42-.5.27-.9.65-1.2 1.13-.3.47-.5.98-.5 1.53v5.8c0 .2 0 .4-.2.5-.1.2-.2.2-.4.2s-.3 0-.4-.2c-.1-.1-.2-.2-.2-.4V9.4c0-.9-.2-1.6-.6-2.18-.4-.56-1.1-.83-1.9-.83-.5 0-1.1.1-1.6.4-.5.2-.9.6-1.2 1.1-.3.4-.4.9-.4 1.5v5.8c0 .2 0 .3-.2.4-.1.1-.2.2-.4.2-.1 0-.3-.1-.4-.2-.1-.1-.1-.3-.1-.5V5.9c0-.17.1-.3.2-.43.2-.12.3-.18.5-.18s.3 0 .5.1.2.2.2.4V7c.4-.55.9-1.02 1.5-1.4.65-.36 1.3-.55 2-.55.8 0 1.5.2 2.1.6.6.36 1 .93 1.23 1.7.28-.64.8-1.16 1.58-1.6.8-.47 1.6-.7 2.4-.7zm16.46.08c.18 0 .33.06.45.2.1.1.17.26.17.44v9.3c0 .18-.06.33-.17.44-.12.2-.27.2-.45.2s-.32 0-.44-.2c-.12-.1-.18-.2-.18-.4v-1.4c-.34.6-.86 1.2-1.55 1.6-.6.4-1.4.7-2.2.7-.9 0-1.7-.2-2.5-.7-.7-.4-1.3-1.1-1.7-1.9-.4-.8-.6-1.8-.6-2.8s.2-2 .7-2.8c.4-.8 1-1.5 1.8-1.9.8-.5 1.6-.7 2.5-.7.9 0 1.6.2 2.3.6.7.4 1.2.9 1.6 1.6V5.9c0-.18.1-.33.2-.45.1-.1.3-.2.5-.2zm-4.3 9.6c.72 0 1.37-.18 1.94-.56.57-.38 1.02-.9 1.34-1.57.32-.67.5-1.4.5-2.24 0-.8-.18-1.53-.5-2.2-.32-.65-.77-1.17-1.34-1.55-.57-.3-1.22-.5-1.93-.5-.8 0-1.4.2-2 .6-.6.4-1 .9-1.4 1.6-.3.7-.5 1.4-.5 2.2 0 .9.1 1.6.4 2.3.3.7.7 1.2 1.3 1.6.5.4 1.2.6 1.9.6z" stroke="#555" stroke-width=".99"/></g></svg>