<svg viewBox="0 0 432 17" xmlns="http://www.w3.org/2000/svg" fill-rule="evenodd" clip-rule="evenodd" stroke-linejoin="round" stroke-miterlimit="1.41">
  <g fill="none">
    <path d="M14.07 8.1c0 2.35-.6 4.2-1.8 5.56-1.2 1.35-2.85 2.02-4.97 2.02-2.17 0-3.85-.66-5.03-2C1.1 12.38.5 10.5.5 8.1s.6-4.28 1.78-5.6c1.18-1.34 2.86-2 5.04-2 2.12 0 3.77.67 4.96 2.02 1.2 1.34 1.8 3.2 1.8 5.57zm-11.75 0c0 1.98.42 3.5 1.27 4.53.8 1.03 2 1.55 3.7 1.55 1.6 0 2.8-.52 3.7-1.54.8-1.03 1.2-2.55 1.2-4.55s-.4-3.5-1.3-4.6c-.8-1-2-1.5-3.7-1.5s-2.9.5-3.7 1.5C2.6 4.5 2.2 6 2.2 8zm28.96-.35h5v7.18c-.77.25-1.56.43-2.37.56-.8.1-1.7.1-2.8.1-2.2 0-3.9-.7-5.2-2C24.7 12.3 24 10.4 24 8c0-1.53.3-2.87 1-4 .6-1.18 1.5-2.06 2.68-2.67C28.8.8 30.18.5 31.7.5c1.56 0 3.03.3 4.4.87l-.68 1.5c-1.35-.56-2.6-.85-3.86-.85-1.8 0-3.2.54-4.2 1.6-1.02 1.08-1.52 2.56-1.52 4.46 0 2 .48 3.5 1.46 4.55.96 1.02 2.4 1.54 4.27 1.54 1.02 0 2.02-.13 3-.36V9.3h-3.3V7.74zm18.86 7.73l-1.84-4.7h-5.9l-1.83 4.7h-1.73L44.67.68h1.44l5.8 14.8h-1.7zm-2.38-6.23l-1.7-4.57c-.23-.58-.46-1.3-.7-2.13-.14.64-.36 1.35-.63 2.13L43 9.25h4.76zm10.3 6.23h-1.7V2.25h-4.68V.73h11.06v1.52h-4.67v13.23zM78.4 8.1c0 2.35-.6 4.2-1.8 5.56-1.18 1.35-2.84 2.02-4.97 2.02-2.15 0-3.83-.66-5-2-1.2-1.32-1.78-3.2-1.78-5.6 0-2.4.6-4.28 1.8-5.6C67.8 1.16 69.47.5 71.65.5c2.12 0 3.77.67 4.96 2.02 1.2 1.34 1.8 3.2 1.8 5.57zm-11.75 0c0 1.98.42 3.5 1.27 4.53.85 1.03 2.1 1.55 3.7 1.55 1.65 0 2.88-.52 3.7-1.54.85-1.03 1.26-2.55 1.26-4.55s-.4-3.5-1.24-4.6c-.84-1-2.06-1.6-3.7-1.6-1.62 0-2.87.5-3.72 1.5-.85 1-1.27 2.5-1.27 4.5zm24.2 1.25v6.13H89.1V.73h4.05c1.8 0 3.14.35 4 1.04.87.7 1.3 1.74 1.3 3.13 0 1.95-1 3.27-2.96 3.95l4 6.63h-2.1l-3.5-6.13h-3.1zm0-1.48h2.34c1.2 0 2.1-.24 2.6-.72s.8-1.2.8-2.16c0-1-.3-1.7-.9-2.2-.6-.5-1.5-.7-2.8-.7h-2.2v5.7zm24.87.23c0 2.35-.6 4.2-1.78 5.56-1.2 1.35-2.86 2.02-4.98 2.02-2.17 0-3.85-.66-5.03-2-1.16-1.32-1.75-3.2-1.75-5.6 0-2.4.6-4.28 1.77-5.6C105.1 1.16 106.8.5 108.97.5c2.12 0 3.77.67 4.96 2.02 1.2 1.34 1.8 3.2 1.8 5.57zm-11.75 0c0 1.98.43 3.5 1.28 4.53.85 1.03 2.1 1.55 3.7 1.55 1.64 0 2.88-.52 3.7-1.54.84-1.03 1.26-2.55 1.26-4.55s-.4-3.5-1.2-4.6c-.8-1-2.1-1.5-3.7-1.5s-2.9.5-3.7 1.5c-.8 1-1.3 2.5-1.3 4.5zm24.3 7.38h-8.22V.73h8.22v1.52h-6.5V7h6.1v1.52h-6.1v5.43h6.5v1.53zM143.7.73v9.54c0 1.7-.52 3-1.53 3.97-1.02.96-2.42 1.44-4.2 1.44-1.77 0-3.14-.48-4.1-1.45-.98-.97-1.47-2.3-1.47-4V.73h1.72v9.63c0 1.23.33 2.17 1 2.83.68.6 1.67.9 2.97.9 1.2 0 2.2-.4 2.8-1 .6-.7 1-1.6 1-2.9V.7h1.7zm20.6 14.75l-1.84-4.7h-5.9l-1.83 4.7H153l5.83-14.8h1.44l5.8 14.8h-1.77zm-2.37-6.23l-1.72-4.57c-.2-.58-.4-1.3-.6-2.13-.1.64-.3 1.35-.6 2.13l-1.7 4.57h4.7zm15.32.1v6.13h-1.72V.73h4.05c1.8 0 3.14.35 4 1.04.87.7 1.3 1.74 1.3 3.13 0 1.95-.98 3.27-2.96 3.95l4 6.63h-2.02l-3.57-6.13h-3.08zm0-1.48h2.35c1.2 0 2.1-.24 2.66-.72.57-.48.85-1.2.85-2.16 0-1-.2-1.7-.8-2.2-.6-.5-1.5-.7-2.7-.7h-2.2v5.7zm24.9.23c0 2.35-.6 4.2-1.8 5.56-1.2 1.35-2.85 2.02-4.98 2.02-2.17 0-3.85-.66-5.03-2-1.18-1.32-1.77-3.2-1.77-5.6 0-2.4.6-4.28 1.78-5.6C191.53 1.16 193.2.5 195.4.5c2.1 0 3.76.67 4.95 2.02 1.2 1.34 1.8 3.2 1.8 5.57zm-11.76 0c0 1.98.4 3.5 1.2 4.53.8 1.03 2.1 1.55 3.7 1.55s2.9-.52 3.7-1.54c.8-1.03 1.2-2.55 1.2-4.55s-.4-3.5-1.3-4.6c-.8-1-2.1-1.6-3.7-1.6s-2.9.5-3.7 1.5c-.9 1-1.3 2.5-1.3 4.5zM217.6.73v9.54c0 1.7-.5 3-1.52 3.97-1.02.96-2.42 1.44-4.2 1.44-1.77 0-3.14-.48-4.1-1.45-.98-.97-1.47-2.3-1.47-4V.73h1.8v9.63c0 1.23.4 2.17 1 2.83.7.6 1.7.9 3 .9s2.2-.4 2.9-1c.7-.7 1-1.6 1-2.9V.7h1.8zm14.3 4.3c0 1.5-.52 2.64-1.54 3.44-1.02.8-2.48 1.2-4.37 1.2h-1.8v5.8h-1.7V.74h3.8c3.7 0 5.5 1.43 5.5 4.3zm-7.65 3.18h1.54c1.5 0 2.6-.2 3.3-.7.6-.5 1-1.3 1-2.3 0-.9-.3-1.7-1-2.1-.7-.5-1.7-.7-3-.7h-1.9v6zm20 7.3l-1.84-4.7h-5.9l-1.8 4.7H233L238.8.7h1.43l5.8 14.8h-1.77zm-2.37-6.2l-1.72-4.5c-.22-.6-.45-1.3-.68-2.1-.15.7-.36 1.4-.64 2.2l-1.74 4.5h4.8zM267.26 8c0 2.44-.66 4.3-1.98 5.6-1.33 1.3-3.23 1.92-5.7 1.92h-4.1V.72H260c2.3 0 4.08.65 5.35 1.9 1.27 1.3 1.9 3.07 1.9 5.34zm-1.82.07c0-1.93-.48-3.38-1.45-4.35-1-1-2.4-1.47-4.3-1.47h-2.5V14h2.1c2 0 3.5-.5 4.6-1.5 1-1.02 1.5-2.5 1.5-4.47zm18.94.07c0 2.36-.6 4.2-1.8 5.57-1.18 1.4-2.84 2-4.97 2s-3.8-.6-5-2c-1.2-1.3-1.7-3.2-1.7-5.6 0-2.4.6-4.3 1.8-5.6 1.2-1.3 2.9-2 5-2s3.8.7 5 2.1c1.2 1.4 1.8 3.2 1.8 5.6zm-11.75 0c0 2 .42 3.5 1.27 4.54.86 1.03 2.1 1.55 3.7 1.55 1.65 0 2.88-.52 3.72-1.54.83-1.1 1.25-2.6 1.25-4.6s-.42-3.5-1.25-4.6c-.83-1-2.06-1.6-3.7-1.6-1.62 0-2.86.5-3.72 1.5-.85 1-1.27 2.5-1.27 4.5zm24.2 1.26v6.12h-1.73V.72h4.05c1.8 0 3.14.36 4 1.05.87.7 1.3 1.74 1.3 3.13 0 1.94-.98 3.26-2.96 3.94l4 6.63h-2.1l-3.6-6.13h-3.1zm0-1.5h2.34c1.2 0 2.1-.23 2.66-.7.57-.5.85-1.2.85-2.17 0-1-.3-1.7-.86-2.13-.58-.44-1.5-.65-2.77-.65h-2.23v5.63zm20.3 7.6h-8.22V.75h8.3v1.52h-6.5V7h6.1v1.52h-6.1v5.43h6.5v1.53zm4.3-14.73h1.7V15.5h-1.7zM346.4 8c0 2.43-.66 4.3-2 5.6-1.3 1.27-3.2 1.9-5.7 1.9h-4.08V.73h4.52c2.3 0 4.08.64 5.35 1.9 1.2 1.28 1.9 3.06 1.9 5.33zm-1.82.06c0-1.93-.48-3.38-1.45-4.35-.96-1-2.4-1.4-4.3-1.4h-2.5V14h2.1c2.04 0 3.58-.5 4.6-1.5 1.04-1.02 1.55-2.5 1.55-4.47zm14.36 7.45h-8.22V.8h8.22v1.5h-6.5V7h6.1v1.52h-6.1v5.43h6.5v1.53zm12.42-6.1v6.2h-1.72V.8h4.05c1.8 0 3.1.3 4 1 .8.7 1.3 1.73 1.3 3.12 0 1.92-1 3.24-3 3.92l4 6.63h-2l-3.6-6.13h-3.1zm0-1.5h2.35c1.3 0 2.1-.2 2.7-.7.6-.5.9-1.2.9-2.1 0-1-.3-1.7-.8-2.1-.6-.4-1.5-.6-2.7-.6h-2.2V8zm24.9.3c0 2.4-.6 4.2-1.8 5.6-1.2 1.4-2.86 2-4.98 2-2.17 0-3.85-.6-5.03-2-1.18-1.3-1.77-3.2-1.77-5.6 0-2.4.6-4.3 1.78-5.6 1.18-1.3 2.86-2 5.04-2 2.12 0 3.77.7 4.96 2.1 1.2 1.4 1.8 3.2 1.8 5.6zm-11.76 0c0 2 .42 3.5 1.27 4.6.85 1.1 2.1 1.6 3.7 1.6 1.64 0 2.88-.5 3.7-1.5.84-1 1.26-2.5 1.26-4.5s-.4-3.5-1.24-4.5c-.9-1-2.1-1.5-3.7-1.5-1.7 0-2.9.5-3.8 1.55-.9 1.07-1.3 2.58-1.3 4.5zm22.6 7.4l-5-13.1h-.1c.1 1.1.15 2.3.15 3.7v9.4h-1.58V.7h2.58l4.67 12.17h.08L412.6.7h2.58v14.75h-1.72v-9.5c0-1.1.05-2.28.14-3.55h-.08l-5.04 13.05h-1.38zm22.43 0l-1.84-4.7h-6l-1.8 4.7h-1.8L424 .7h1.46l5.8 14.8h-1.8zm-2.37-6.2l-1.72-4.5c-.22-.6-.45-1.3-.7-2.1-.13.7-.35 1.4-.62 2.2l-1.74 4.6h4.78z"/>
    <path d="M14.07 8.1c0 2.35-.6 4.2-1.8 5.56-1.2 1.35-2.85 2.02-4.97 2.02-2.17 0-3.85-.66-5.03-2C1.1 12.38.5 10.5.5 8.1s.6-4.28 1.78-5.6c1.18-1.34 2.86-2 5.04-2 2.12 0 3.77.67 4.96 2.02 1.2 1.34 1.8 3.2 1.8 5.57zm-11.75 0c0 1.98.42 3.5 1.27 4.53.8 1.03 2 1.55 3.7 1.55 1.6 0 2.8-.52 3.7-1.54.8-1.03 1.2-2.55 1.2-4.55s-.4-3.5-1.3-4.6c-.8-1-2-1.5-3.7-1.5s-2.9.5-3.7 1.5C2.6 4.5 2.2 6 2.2 8zm28.96-.35h5v7.18c-.77.25-1.56.43-2.37.56-.8.1-1.7.1-2.8.1-2.2 0-3.9-.7-5.2-2C24.7 12.3 24 10.4 24 8c0-1.53.3-2.87 1-4 .6-1.18 1.5-2.06 2.68-2.67C28.8.8 30.18.5 31.7.5c1.56 0 3.03.3 4.4.87l-.68 1.5c-1.35-.56-2.6-.85-3.86-.85-1.8 0-3.2.54-4.2 1.6-1.02 1.08-1.52 2.56-1.52 4.46 0 2 .48 3.5 1.46 4.55.96 1.02 2.4 1.54 4.27 1.54 1.02 0 2.02-.13 3-.36V9.3h-3.3V7.74zm18.86 7.73l-1.84-4.7h-5.9l-1.83 4.7h-1.73L44.67.68h1.44l5.8 14.8h-1.7zm-2.38-6.23l-1.7-4.57c-.23-.58-.46-1.3-.7-2.13-.14.64-.36 1.35-.63 2.13L43 9.25h4.76zm10.3 6.23h-1.7V2.25h-4.68V.73h11.06v1.52h-4.67v13.23zM78.4 8.1c0 2.35-.6 4.2-1.8 5.56-1.18 1.35-2.84 2.02-4.97 2.02-2.15 0-3.83-.66-5-2-1.2-1.32-1.78-3.2-1.78-5.6 0-2.4.6-4.28 1.8-5.6C67.8 1.16 69.47.5 71.65.5c2.12 0 3.77.67 4.96 2.02 1.2 1.34 1.8 3.2 1.8 5.57zm-11.75 0c0 1.98.42 3.5 1.27 4.53.85 1.03 2.1 1.55 3.7 1.55 1.65 0 2.88-.52 3.7-1.54.85-1.03 1.26-2.55 1.26-4.55s-.4-3.5-1.24-4.6c-.84-1-2.06-1.6-3.7-1.6-1.62 0-2.87.5-3.72 1.5-.85 1-1.27 2.5-1.27 4.5zm24.2 1.25v6.13H89.1V.73h4.05c1.8 0 3.14.35 4 1.04.87.7 1.3 1.74 1.3 3.13 0 1.95-1 3.27-2.96 3.95l4 6.63h-2.1l-3.5-6.13h-3.1zm0-1.48h2.34c1.2 0 2.1-.24 2.6-.72s.8-1.2.8-2.16c0-1-.3-1.7-.9-2.2-.6-.5-1.5-.7-2.8-.7h-2.2v5.7zm24.87.23c0 2.35-.6 4.2-1.78 5.56-1.2 1.35-2.86 2.02-4.98 2.02-2.17 0-3.85-.66-5.03-2-1.16-1.32-1.75-3.2-1.75-5.6 0-2.4.6-4.28 1.77-5.6C105.1 1.16 106.8.5 108.97.5c2.12 0 3.77.67 4.96 2.02 1.2 1.34 1.8 3.2 1.8 5.57zm-11.75 0c0 1.98.43 3.5 1.28 4.53.85 1.03 2.1 1.55 3.7 1.55 1.64 0 2.88-.52 3.7-1.54.84-1.03 1.26-2.55 1.26-4.55s-.4-3.5-1.2-4.6c-.8-1-2.1-1.5-3.7-1.5s-2.9.5-3.7 1.5c-.8 1-1.3 2.5-1.3 4.5zm24.3 7.38h-8.22V.73h8.22v1.52h-6.5V7h6.1v1.52h-6.1v5.43h6.5v1.53zM143.7.73v9.54c0 1.7-.52 3-1.53 3.97-1.02.96-2.42 1.44-4.2 1.44-1.77 0-3.14-.48-4.1-1.45-.98-.97-1.47-2.3-1.47-4V.73h1.72v9.63c0 1.23.33 2.17 1 2.83.68.6 1.67.9 2.97.9 1.2 0 2.2-.4 2.8-1 .6-.7 1-1.6 1-2.9V.7h1.7zm20.6 14.75l-1.84-4.7h-5.9l-1.83 4.7H153l5.83-14.8h1.44l5.8 14.8h-1.77zm-2.37-6.23l-1.72-4.57c-.2-.58-.4-1.3-.6-2.13-.1.64-.3 1.35-.6 2.13l-1.7 4.57h4.7zm15.32.1v6.13h-1.72V.73h4.05c1.8 0 3.14.35 4 1.04.87.7 1.3 1.74 1.3 3.13 0 1.95-.98 3.27-2.96 3.95l4 6.63h-2.02l-3.57-6.13h-3.08zm0-1.48h2.35c1.2 0 2.1-.24 2.66-.72.57-.48.85-1.2.85-2.16 0-1-.2-1.7-.8-2.2-.6-.5-1.5-.7-2.7-.7h-2.2v5.7zm24.9.23c0 2.35-.6 4.2-1.8 5.56-1.2 1.35-2.85 2.02-4.98 2.02-2.17 0-3.85-.66-5.03-2-1.18-1.32-1.77-3.2-1.77-5.6 0-2.4.6-4.28 1.78-5.6C191.53 1.16 193.2.5 195.4.5c2.1 0 3.76.67 4.95 2.02 1.2 1.34 1.8 3.2 1.8 5.57zm-11.76 0c0 1.98.4 3.5 1.2 4.53.8 1.03 2.1 1.55 3.7 1.55s2.9-.52 3.7-1.54c.8-1.03 1.2-2.55 1.2-4.55s-.4-3.5-1.3-4.6c-.8-1-2.1-1.6-3.7-1.6s-2.9.5-3.7 1.5c-.9 1-1.3 2.5-1.3 4.5zM217.6.73v9.54c0 1.7-.5 3-1.52 3.97-1.02.96-2.42 1.44-4.2 1.44-1.77 0-3.14-.48-4.1-1.45-.98-.97-1.47-2.3-1.47-4V.73h1.8v9.63c0 1.23.4 2.17 1 2.83.7.6 1.7.9 3 .9s2.2-.4 2.9-1c.7-.7 1-1.6 1-2.9V.7h1.8zm14.3 4.3c0 1.5-.52 2.64-1.54 3.44-1.02.8-2.48 1.2-4.37 1.2h-1.8v5.8h-1.7V.74h3.8c3.7 0 5.5 1.43 5.5 4.3zm-7.65 3.18h1.54c1.5 0 2.6-.2 3.3-.7.6-.5 1-1.3 1-2.3 0-.9-.3-1.7-1-2.1-.7-.5-1.7-.7-3-.7h-1.9v6zm20 7.3l-1.84-4.7h-5.9l-1.8 4.7H233L238.8.7h1.43l5.8 14.8h-1.77zm-2.37-6.2l-1.72-4.5c-.22-.6-.45-1.3-.68-2.1-.15.7-.36 1.4-.64 2.2l-1.74 4.5h4.8zM267.26 8c0 2.44-.66 4.3-1.98 5.6-1.33 1.3-3.23 1.92-5.7 1.92h-4.1V.72H260c2.3 0 4.08.65 5.35 1.9 1.27 1.3 1.9 3.07 1.9 5.34zm-1.82.07c0-1.93-.48-3.38-1.45-4.35-1-1-2.4-1.47-4.3-1.47h-2.5V14h2.1c2 0 3.5-.5 4.6-1.5 1-1.02 1.5-2.5 1.5-4.47zm18.94.07c0 2.36-.6 4.2-1.8 5.57-1.18 1.4-2.84 2-4.97 2s-3.8-.6-5-2c-1.2-1.3-1.7-3.2-1.7-5.6 0-2.4.6-4.3 1.8-5.6 1.2-1.3 2.9-2 5-2s3.8.7 5 2.1c1.2 1.4 1.8 3.2 1.8 5.6zm-11.75 0c0 2 .42 3.5 1.27 4.54.86 1.03 2.1 1.55 3.7 1.55 1.65 0 2.88-.52 3.72-1.54.83-1.1 1.25-2.6 1.25-4.6s-.42-3.5-1.25-4.6c-.83-1-2.06-1.6-3.7-1.6-1.62 0-2.86.5-3.72 1.5-.85 1-1.27 2.5-1.27 4.5zm24.2 1.26v6.12h-1.73V.72h4.05c1.8 0 3.14.36 4 1.05.87.7 1.3 1.74 1.3 3.13 0 1.94-.98 3.26-2.96 3.94l4 6.63h-2.1l-3.6-6.13h-3.1zm0-1.5h2.34c1.2 0 2.1-.23 2.66-.7.57-.5.85-1.2.85-2.17 0-1-.3-1.7-.86-2.13-.58-.44-1.5-.65-2.77-.65h-2.23v5.63zm20.3 7.6h-8.22V.75h8.3v1.52h-6.5V7h6.1v1.52h-6.1v5.43h6.5v1.53zm4.3-14.73h1.7V15.5h-1.7zM346.4 8c0 2.43-.66 4.3-2 5.6-1.3 1.27-3.2 1.9-5.7 1.9h-4.08V.73h4.52c2.3 0 4.08.64 5.35 1.9 1.2 1.28 1.9 3.06 1.9 5.33zm-1.82.06c0-1.93-.48-3.38-1.45-4.35-.96-1-2.4-1.4-4.3-1.4h-2.5V14h2.1c2.04 0 3.58-.5 4.6-1.5 1.04-1.02 1.55-2.5 1.55-4.47zm14.36 7.45h-8.22V.8h8.22v1.5h-6.5V7h6.1v1.52h-6.1v5.43h6.5v1.53zm12.42-6.1v6.2h-1.72V.8h4.05c1.8 0 3.1.3 4 1 .8.7 1.3 1.73 1.3 3.12 0 1.92-1 3.24-3 3.92l4 6.63h-2l-3.6-6.13h-3.1zm0-1.5h2.35c1.3 0 2.1-.2 2.7-.7.6-.5.9-1.2.9-2.1 0-1-.3-1.7-.8-2.1-.6-.4-1.5-.6-2.7-.6h-2.2V8zm24.9.3c0 2.4-.6 4.2-1.8 5.6-1.2 1.4-2.86 2-4.98 2-2.17 0-3.85-.6-5.03-2-1.18-1.3-1.77-3.2-1.77-5.6 0-2.4.6-4.3 1.78-5.6 1.18-1.3 2.86-2 5.04-2 2.12 0 3.77.7 4.96 2.1 1.2 1.4 1.8 3.2 1.8 5.6zm-11.76 0c0 2 .42 3.5 1.27 4.6.85 1.1 2.1 1.6 3.7 1.6 1.64 0 2.88-.5 3.7-1.5.84-1 1.26-2.5 1.26-4.5s-.4-3.5-1.24-4.5c-.9-1-2.1-1.5-3.7-1.5-1.7 0-2.9.5-3.8 1.55-.9 1.07-1.3 2.58-1.3 4.5zm22.6 7.4l-5-13.1h-.1c.1 1.1.15 2.3.15 3.7v9.4h-1.58V.7h2.58l4.67 12.17h.08L412.6.7h2.58v14.75h-1.72v-9.5c0-1.1.05-2.28.14-3.55h-.08l-5.04 13.05h-1.38zm22.43 0l-1.84-4.7h-6l-1.8 4.7h-1.8L424 .7h1.46l5.8 14.8h-1.8zm-2.37-6.2l-1.72-4.5c-.22-.6-.45-1.3-.7-2.1-.13.7-.35 1.4-.62 2.2l-1.74 4.6h4.78z" stroke="#fff" stroke-width=".99"/>
  </g>
</svg>
