<svg viewBox="0 0 436 16" xmlns="http://www.w3.org/2000/svg" fill-rule="evenodd" clip-rule="evenodd" stroke-linejoin="round" stroke-miterlimit="1.41"><g fill="none"><path d="M14.34 7.94c0 1.42-.3 2.7-.9 3.82-.58 1.13-1.4 2-2.44 2.66-1.05.64-2.24.96-3.58.96-1.33 0-2.53-.32-3.57-.96a6.718 6.718 0 0 1-2.46-2.66c-.6-1.13-.9-2.4-.9-3.82 0-1.44.3-2.72.9-3.84.5-1.13 1.4-2.02 2.4-2.65C4.9.82 6.1.5 7.4.5s2.53.32 3.58.95c1.05.63 1.87 1.52 2.46 2.65.6 1.12.9 2.4.9 3.84zm-1.32 0c0-1.2-.24-2.27-.7-3.2-.5-.96-1.15-1.7-2-2.2-.84-.54-1.8-.8-2.9-.8-1.1 0-2.05.26-2.9.8-.85.5-1.5 1.24-2 2.2-.46.93-.7 2-.7 3.2 0 1.2.24 2.27.7 3.2.5.95 1.15 1.7 2 2.2.85.53 1.8.8 2.9.8 1.1 0 2.06-.27 2.9-.8.85-.5 1.5-1.25 2-2.2.46-.93.7-2 .7-3.2zm22.52-.06c.18 0 .33.05.44.17.12.12.18.27.18.45v4.98c0 .23-.1.4-.3.55a7.844 7.844 0 0 1-4.38 1.35c-1.42 0-2.68-.33-3.8-.98A6.988 6.988 0 0 1 25 11.74c-.64-1.13-.97-2.4-.97-3.8s.33-2.67.97-3.8a7.129 7.129 0 0 1 2.67-2.67C28.8.82 30.07.5 31.47.5c.73 0 1.44.1 2.12.27.6.18 1.2.43 1.8.76.2.13.3.3.3.52 0 .18-.1.33-.2.45-.1.13-.3.2-.4.2-.2 0-.3-.04-.4-.1-1.1-.58-2.1-.86-3.3-.86s-2.2.27-3.2.8a5.2 5.2 0 0 0-2.2 2.23c-.6.94-.8 2-.8 3.17s.2 2.23.8 3.17c.5 1 1.2 1.7 2.1 2.3.9.6 2 .8 3.1.8.6 0 1.2-.1 1.8-.2.6-.1 1.1-.4 1.6-.7V9.2h-3.2c-.2 0-.4-.06-.5-.18s-.2-.27-.2-.44c0-.16 0-.3.2-.43.1-.13.2-.2.4-.2h3.9zm15.62 6.46c.03.1.04.2.04.25 0 .1-.06.3-.2.4-.1.1-.25.1-.42.1-.14 0-.26-.1-.36-.1-.1-.1-.18-.2-.24-.3L48.43 11h-6.7l-1.54 3.78c-.2.27-.3.4-.6.4-.2 0-.4-.04-.5-.13-.1-.1-.2-.23-.2-.4v-.26L44.4 1c.17-.28.37-.4.68-.4.15 0 .27.02.38.1.1.07.14.17.2.3l5.43 13.3zM42.2 9.78h5.74l-2.9-7.07-2.84 7.1zM62.96.7c.18 0 .32.06.44.17.12.1.18.26.18.44s-.06.4-.18.5c-.12.1-.26.2-.44.2h-4.28v12.6c0 .2-.06.4-.2.5-.1.1-.26.2-.44.2-.2 0-.35 0-.47-.1-.1-.1-.17-.3-.17-.4V1.9h-4.28c-.18 0-.33-.05-.44-.16-.12-.1-.18-.2-.18-.4s.06-.4.18-.5c.1-.1.26-.14.44-.14h9.84zm16.77 7.24c0 1.42-.3 2.7-.9 3.82-.58 1.13-1.4 2-2.44 2.66-1.1.64-2.3.96-3.6.96-1.4 0-2.6-.32-3.6-.96-1.1-.65-1.9-1.53-2.5-2.66-.6-1.13-.9-2.4-.9-3.82 0-1.44.3-2.72.9-3.84.6-1.13 1.4-2.02 2.4-2.65C70.3.82 71.5.5 72.8.5c1.35 0 2.54.32 3.6.95 1.03.63 1.85 1.52 2.44 2.65.6 1.12.9 2.4.9 3.84zm-1.32 0c0-1.2-.2-2.27-.7-3.2-.4-.96-1.1-1.7-2-2.2-.8-.54-1.8-.8-2.9-.8-1 0-2 .26-2.9.8-.8.5-1.5 1.24-1.9 2.2-.4.93-.7 2-.7 3.2 0 1.2.3 2.27.7 3.2.5.95 1.2 1.7 2 2.2.9.53 1.8.8 2.9.8 1.1 0 2.1-.27 2.9-.8.9-.5 1.5-1.25 2-2.2.5-.93.7-2 .7-3.2zm22.6 6.1c.2.15.3.3.3.53v.27c0 .1-.1.17-.2.23-.1.05-.2.08-.3.08-.1 0-.2-.03-.3-.08-.4-.22-.7-.58-.9-1.08-.2-.5-.3-1.3-.3-2.4 0-1-.3-1.7-.8-2.1-.5-.4-1.2-.6-1.9-.6H92v5.5c0 .2-.03.3-.14.4-.1.1-.27.1-.45.1-.2 0-.3-.1-.5-.2s-.2-.3-.2-.5v-13c0-.2.1-.4.2-.5.1-.1.3-.2.4-.2h5.6c.8 0 1.5.2 2.1.5.7.4 1.1.8 1.5 1.4.4.6.6 1.3.6 2 0 .9-.2 1.7-.7 2.3-.4.6-1 1.1-1.8 1.3.6.2 1.1.6 1.5 1.2.4.5.6 1.2.6 2s.1 1.4.2 1.8c.1.3.3.6.5.7zm-4.3-6.2c.5-.03 1-.2 1.4-.46.4-.28.8-.65 1-1.12.3-.46.4-1 .4-1.6 0-.8-.2-1.44-.8-1.96s-1.2-.77-2-.77h-4.8v5.93h5zm21.3.1c0 1.42-.3 2.7-.9 3.82-.6 1.13-1.4 2-2.4 2.66-1 .64-2.2.96-3.6.96-1.3 0-2.5-.32-3.5-.96-1-.65-1.8-1.53-2.4-2.66-.6-1.13-.9-2.4-.9-3.82 0-1.44.3-2.72.9-3.84.6-1.13 1.4-2.02 2.5-2.65 1-.63 2.2-.95 3.6-.95s2.5.32 3.6.95c1 .63 1.9 1.52 2.4 2.65.6 1.12.9 2.4.9 3.84zm-1.3 0c0-1.2-.2-2.27-.7-3.2-.4-.96-1.1-1.7-2-2.2-.8-.54-1.8-.8-2.9-.8-1 0-2 .26-2.9.8-.8.5-1.5 1.24-1.9 2.2-.5.93-.7 2-.7 3.2 0 1.2.3 2.27.8 3.2.5.95 1.2 1.7 2 2.2.9.53 1.9.8 2.9.8 1.1 0 2.1-.27 2.9-.8.9-.5 1.6-1.25 2-2.2.5-.93.7-2 .7-3.2zm13.5 6c.2 0 .4.07.5.2.1.1.2.26.2.43 0 .18 0 .32-.1.43-.1.1-.3.17-.4.17h-7.6c-.1 0-.3-.06-.4-.18-.1-.2-.1-.3-.1-.5V1.3c0-.2.1-.32.2-.44.1-.1.3-.18.5-.18h7.6c.2 0 .3.1.4.2.1.1.2.3.2.47s0 .3-.1.42c-.1.1-.3.15-.4.15h-6.9V7.1h6c.13 0 .3.07.4.2.1.1.2.25.2.43s-.07.32-.2.44c-.1.1-.25.16-.4.16h-6v5.62h6.9zM144.9.7c.17 0 .32.07.44.18.12.12.17.27.17.45v8.55c0 1-.2 1.93-.7 2.77-.5.84-1.1 1.5-1.9 1.98-.8.48-1.7.73-2.7.73-1 0-1.9-.25-2.7-.73-.8-.48-1.5-1.14-1.9-1.98-.5-.84-.7-1.77-.7-2.77V1.33c0-.18.1-.33.2-.45.2-.1.3-.17.5-.17s.3.1.5.2.2.3.2.5v8.5c0 .8.2 1.5.5 2.2.4.7.9 1.2 1.6 1.6.7.4 1.4.6 2.1.6.8 0 1.5-.2 2.1-.5.7-.4 1.2-.9 1.6-1.5.4-.6.6-1.3.6-2.1V1.4c0-.18.1-.33.2-.45.1-.1.3-.17.5-.17zm23 13.64l.03.25c0 .1-.06.3-.18.4-.13.1-.27.1-.44.1-.1 0-.2-.1-.3-.1-.1-.1-.2-.2-.2-.3l-1.6-3.7h-6.7l-1.5 3.7c-.1.2-.3.4-.5.4s-.3-.1-.4-.2c-.1-.1-.1-.3-.1-.4v-.3L161.2 1c.1-.28.3-.4.62-.4.14 0 .26.02.36.1.1.07.2.17.25.3l5.43 13.28zm-8.98-4.56h5.75l-2.9-7.07-2.85 7.1zm29.82 4.27c.2.14.3.3.3.52 0 .07-.02.16-.08.27-.05.1-.13.17-.22.23-.1.05-.2.08-.3.08a.81.81 0 0 1-.37-.08c-.38-.22-.7-.58-.92-1.08-.24-.5-.36-1.3-.36-2.4 0-1-.3-1.7-.8-2.1-.6-.4-1.2-.6-2-.6h-4.6v5.5c0 .2-.1.3-.2.4-.1.1-.3.1-.5.1s-.4-.1-.5-.2c-.2-.2-.2-.3-.2-.5v-13c0-.2 0-.4.1-.5.1-.1.2-.2.4-.2h5.5c.7 0 1.4.2 2.1.5.6.4 1.1.8 1.4 1.4.3.6.5 1.3.5 2 0 .9-.2 1.7-.7 2.3-.5.6-1.1 1.1-1.8 1.3.6.2 1.1.6 1.5 1.2.4.5.6 1.2.6 2s.1 1.4.2 1.8c.1.3.2.6.5.7zm-4.3-6.2c.48-.04.93-.2 1.34-.47.4-.28.75-.65 1-1.12.24-.46.37-1 .37-1.6 0-.8-.27-1.44-.8-1.96s-1.22-.77-2.08-.77h-4.8v5.93h4.97zm21.3.1c0 1.4-.3 2.7-.9 3.8-.58 1.14-1.4 2-2.45 2.67-1.1.64-2.3.96-3.6.96-1.4 0-2.6-.32-3.6-.96-1.1-.65-1.9-1.53-2.5-2.66-.6-1.13-.9-2.4-.9-3.82 0-1.44.3-2.72.9-3.84.6-1.13 1.4-2.02 2.4-2.65 1-.63 2.2-.95 3.6-.95 1.3 0 2.5.32 3.5.95 1 .63 1.8 1.52 2.4 2.65.6 1.12.9 2.4.9 3.84zm-1.32 0c0-1.2-.24-2.28-.72-3.2-.47-.97-1.13-1.7-1.98-2.2-.85-.55-1.8-.8-2.9-.8-1.1 0-2.06.25-2.9.8-.85.5-1.5 1.23-2 2.2-.46.92-.7 2-.7 3.2 0 1.2.24 2.26.7 3.2.5.94 1.15 1.7 2 2.2.84.52 1.8.8 2.9.8 1.1 0 2.05-.28 2.9-.8.85-.5 1.5-1.26 1.98-2.2.48-.94.72-2 .72-3.2zM219.92.7c.2 0 .34.07.46.18.1.12.17.27.17.45v8.55c0 1-.24 1.93-.72 2.77a5.365 5.365 0 0 1-4.69 2.71c-1 0-1.92-.25-2.75-.73-.9-.48-1.5-1.14-2-1.98-.5-.84-.7-1.77-.7-2.77V1.33c0-.18 0-.33.1-.45.1-.1.3-.17.5-.17.1 0 .3.1.4.2s.2.3.2.5v8.5c0 .8.1 1.5.5 2.2.4.7.9 1.2 1.5 1.6.6.4 1.3.6 2 .6.8 0 1.5-.2 2.1-.5.6-.4 1.1-.9 1.5-1.5.3-.6.5-1.3.5-2.1V1.4c0-.18.1-.33.2-.45.1-.1.2-.17.4-.17zM231 .7c.74 0 1.43.18 2.03.53.6.36 1.08.84 1.42 1.47.34.63.5 1.33.5 2.12 0 .78-.16 1.5-.5 2.15-.34.64-.8 1.15-1.42 1.53-.6.37-1.3.55-2.04.55h-4.3v5.5c0 .18-.1.33-.2.44-.1.1-.3.1-.5.1s-.4-.1-.5-.2c-.1-.1-.2-.3-.2-.5V1.3c0-.17 0-.32.1-.44.1-.1.3-.2.4-.2h4.9zm0 7.16c.8 0 1.43-.3 1.93-.87.5-.6.74-1.3.74-2.2 0-.9-.25-1.6-.74-2.1-.5-.6-1.14-.8-1.94-.8h-4.3v5.9h4.3zm17.77 6.48l.05.25c0 .1-.07.3-.2.4-.1.1-.26.1-.42.1-.14 0-.26-.1-.37-.1-.1-.1-.18-.2-.23-.3l-1.55-3.7h-6.72l-1.53 3.7c-.1.2-.3.4-.55.4-.2 0-.34-.1-.44-.2 0-.1-.1-.3-.1-.4v-.3L242.2 1c.1-.28.32-.4.62-.4.13 0 .25.02.35.1.1.07.2.17.25.3l5.42 13.28zm-8.96-4.56h5.8l-2.9-7.07-2.8 7.1zM265 .7c1.32 0 2.44.33 3.34 1 .9.64 1.57 1.52 2 2.6.46 1.1.68 2.32.68 3.64 0 1.36-.22 2.6-.67 3.68a5.701 5.701 0 0 1-2 2.6c-.9.63-2.02.95-3.34.95h-5.2c-.2 0-.3-.06-.4-.18s-.2-.3-.2-.5V1.3c0-.2.1-.32.2-.44.1-.1.3-.18.5-.18h5.2zm-.2 13.25c1.65 0 2.88-.55 3.7-1.66.8-1.2 1.2-2.6 1.2-4.4 0-1.1-.16-2.2-.5-3.1-.35-.9-.9-1.6-1.63-2.2-.73-.6-1.66-.8-2.77-.8h-4.38v12h4.37zm23.1-6c0 1.4-.3 2.7-.9 3.8-.6 1.14-1.4 2-2.45 2.67-1.04.64-2.23.96-3.57.96-1.33 0-2.52-.32-3.57-.96-1-.65-1.8-1.53-2.4-2.66-.6-1.13-.9-2.4-.9-3.82 0-1.44.3-2.72.9-3.84.6-1.13 1.4-2.02 2.5-2.65 1-.63 2.2-.95 3.6-.95s2.6.32 3.6.95c1.1.63 1.9 1.52 2.5 2.65.6 1.12.9 2.4.9 3.84zm-1.33 0c0-1.2-.24-2.28-.7-3.2-.5-.97-1.15-1.7-2-2.2-.84-.55-1.8-.8-2.9-.8-1.08 0-2.05.25-2.9.8-.85.5-1.5 1.23-1.98 2.2-.5.92-.8 2-.8 3.2 0 1.2.2 2.26.7 3.2.4.94 1.1 1.7 1.9 2.2.8.52 1.8.8 2.9.8 1.1 0 2-.28 2.9-.8.8-.5 1.5-1.26 2-2.2.4-.94.7-2 .7-3.2zm22.52 6.1c.2.14.3.3.3.52 0 .07-.1.16-.1.27-.1.1-.2.17-.3.23-.1.05-.2.08-.3.08a.8.8 0 0 1-.4-.08c-.4-.22-.7-.58-1-1.08-.3-.5-.4-1.3-.4-2.4 0-1-.3-1.7-.8-2.1-.5-.4-1.2-.6-1.9-.6h-4.6v5.5c0 .2-.1.3-.2.4-.1.1-.2.1-.4.1s-.4-.1-.5-.2-.2-.3-.2-.5v-13c0-.2 0-.4.2-.5.1-.1.2-.2.4-.2h5.6c.8 0 1.5.2 2.1.5.6.4 1.1.8 1.4 1.4.3.6.5 1.3.5 2 0 .9-.3 1.7-.7 2.3-.5.6-1.1 1.1-1.8 1.3.6.2 1.1.6 1.5 1.2.3.5.5 1.2.6 2 0 .8 0 1.4.1 1.8.1.3.3.6.5.7zm-4.3-6.2c.5-.04.9-.2 1.3-.47.4-.28.7-.65 1-1.12.2-.46.3-1 .3-1.6 0-.8-.3-1.44-.8-1.96s-1.3-.77-2.1-.77h-4.8v5.93h4.9zm16.8 6.1c.1 0 .3.06.4.2.1.1.2.25.2.42 0 .18-.1.32-.2.43-.1.1-.3.17-.5.17H314a.61.61 0 0 1-.45-.18c-.1-.2-.17-.3-.17-.5V1.3c0-.2.06-.32.17-.44.12-.1.27-.18.45-.18h7.58c.18 0 .33.1.45.2s.18.3.18.47 0 .3-.1.42c-.1.1-.2.15-.4.15h-6.9V7.1h6c.2 0 .4.07.5.2.1.1.2.25.2.43s0 .32-.2.44c-.1.1-.2.16-.4.16h-6v5.62h6.9zm5.8.58c0 .18-.1.33-.2.45-.2.13-.3.2-.5.2s-.4-.07-.5-.2c-.1-.1-.2-.26-.2-.45V1.35c0-.2 0-.35.2-.47.1-.1.3-.17.5-.17s.3.1.4.2c.1.2.2.3.2.5v13.2zM344.9.7c1.3 0 2.42.33 3.32 1 .9.64 1.58 1.52 2.03 2.6.45 1.1.67 2.32.67 3.64 0 1.36-.22 2.6-.67 3.68-.45 1.08-1.12 1.95-2.03 2.6-.9.63-2 .95-3.33.95h-5.3c-.2 0-.4-.06-.5-.18-.1-.2-.2-.3-.2-.5V1.3c0-.2 0-.32.1-.44.1-.1.2-.18.4-.18h5.2zm-.22 13.25c1.65 0 2.9-.55 3.7-1.66.8-1.2 1.22-2.6 1.22-4.4 0-1.1-.17-2.2-.52-3.1-.34-.9-.88-1.6-1.62-2.2-.74-.6-1.66-.8-2.78-.8h-4.38v12h4.38zm18.42 0c.17 0 .32.06.43.2.12.1.18.25.18.42 0 .18 0 .32-.1.43-.1.1-.2.17-.4.17h-7.6c-.1 0-.3-.06-.4-.18-.1-.2-.1-.3-.1-.5V1.3c0-.2.1-.32.2-.44.2-.1.3-.18.5-.18h7.6c.2 0 .3.1.5.2.1.1.2.3.2.47s0 .3-.1.42c-.1.1-.2.15-.4.15h-6.9V7.1h6c.2 0 .4.07.5.2.2.1.2.25.2.43s0 .32-.2.44c-.1.1-.2.16-.4.16h-5.9v5.62h6.9zm21.8.1c.2.14.3.3.3.52 0 .07-.03.16-.1.27a.56.56 0 0 1-.2.23c-.1.05-.2.08-.32.08-.14 0-.26-.03-.36-.08-.38-.22-.7-.58-.93-1.08-.3-.5-.4-1.3-.4-2.4 0-1-.3-1.7-.8-2.1-.6-.4-1.2-.6-1.9-.6h-4.6v5.5c0 .2-.1.3-.2.4-.1.1-.3.1-.5.1s-.4-.1-.5-.2c-.2-.2-.2-.3-.2-.5v-13c0-.2 0-.4.1-.5.1-.1.2-.2.4-.2h5.6c.8 0 1.5.2 2.1.5.6.4 1.1.8 1.4 1.4.3.6.5 1.3.5 2 0 .9-.3 1.7-.7 2.3-.5.6-1.1 1.1-1.8 1.3.6.2 1.1.6 1.4 1.2.4.5.6 1.2.6 2s.1 1.4.2 1.8c.1.3.2.6.5.7zm-4.3-6.2c.47-.04.92-.2 1.33-.47.4-.28.74-.65 1-1.12.24-.46.36-1 .36-1.6 0-.8-.3-1.44-.8-1.96s-1.3-.77-2.1-.77h-4.8v5.93h4.9zm21.3.1c0 1.4-.3 2.7-.9 3.8-.6 1.14-1.4 2-2.46 2.67-1.04.64-2.24.96-3.57.96-1.34 0-2.53-.32-3.58-.96-1.1-.65-1.9-1.53-2.5-2.66-.6-1.13-.9-2.4-.9-3.82 0-1.44.3-2.72.9-3.84.6-1.13 1.4-2.02 2.4-2.65 1-.63 2.2-.95 3.6-.95 1.3 0 2.5.32 3.5.95 1.1.63 1.9 1.52 2.5 2.65.6 1.12.9 2.4.9 3.84zm-1.33 0c0-1.2-.24-2.28-.72-3.2-.47-.97-1.13-1.7-1.98-2.2-.85-.55-1.8-.8-2.9-.8-1.1 0-2.06.25-2.9.8-.85.5-1.5 1.23-2 2.2-.46.92-.7 2-.7 3.2 0 1.2.24 2.26.7 3.2.5.94 1.15 1.7 2 2.2.84.52 1.8.8 2.9.8 1.1 0 2.05-.28 2.9-.8.85-.5 1.5-1.26 1.98-2.2.48-.94.72-2 .72-3.2zM418.47.7c.15 0 .3.07.4.18.13.12.2.27.2.45v13.22c0 .18-.07.33-.2.44-.1.1-.27.1-.45.1-.2 0-.35-.1-.48-.2-.12-.1-.18-.3-.18-.5V3.2l-4.86 7.34c-.14.18-.3.26-.47.25h-.05c-.16 0-.3-.1-.45-.3l-4.86-7.4v11.4c0 .2-.05.3-.17.4-.12.1-.27.1-.45.1-.17 0-.32-.1-.43-.2-.1-.2-.16-.3-.16-.5v-13c0-.2.05-.3.17-.5.12-.2.27-.2.45-.2h.3c.12 0 .2.1.25.2l5.42 8.1 5.45-8c.15-.2.34-.3.56-.3zm16.3 13.64l.03.25c0 .1-.06.3-.2.4-.1.1-.25.1-.42.1-.14 0-.26-.1-.36-.1-.1-.1-.18-.2-.24-.3l-1.55-3.7h-6.7l-1.54 3.7c-.2.2-.3.4-.6.4-.2 0-.4-.1-.5-.2-.1-.1-.2-.3-.2-.4v-.3L428 .9c.1-.3.3-.4.63-.4.14 0 .26 0 .37.1.1.1.17.2.23.3l5.4 13.3zm-8.98-4.56h5.7l-2.9-7.07-2.9 7.1z"/><path d="M14.34 7.94c0 1.42-.3 2.7-.9 3.82-.58 1.13-1.4 2-2.44 2.66-1.05.64-2.24.96-3.58.96-1.33 0-2.53-.32-3.57-.96a6.718 6.718 0 0 1-2.46-2.66c-.6-1.13-.9-2.4-.9-3.82 0-1.44.3-2.72.9-3.84.5-1.13 1.4-2.02 2.4-2.65C4.9.82 6.1.5 7.4.5s2.53.32 3.58.95c1.05.63 1.87 1.52 2.46 2.65.6 1.12.9 2.4.9 3.84zm-1.32 0c0-1.2-.24-2.27-.7-3.2-.5-.96-1.15-1.7-2-2.2-.84-.54-1.8-.8-2.9-.8-1.1 0-2.05.26-2.9.8-.85.5-1.5 1.24-2 2.2-.46.93-.7 2-.7 3.2 0 1.2.24 2.27.7 3.2.5.95 1.15 1.7 2 2.2.85.53 1.8.8 2.9.8 1.1 0 2.06-.27 2.9-.8.85-.5 1.5-1.25 2-2.2.46-.93.7-2 .7-3.2zm22.52-.06c.18 0 .33.05.44.17.12.12.18.27.18.45v4.98c0 .23-.1.4-.3.55a7.844 7.844 0 0 1-4.38 1.35c-1.42 0-2.68-.33-3.8-.98A6.988 6.988 0 0 1 25 11.74c-.64-1.13-.97-2.4-.97-3.8s.33-2.67.97-3.8a7.129 7.129 0 0 1 2.67-2.67C28.8.82 30.07.5 31.47.5c.73 0 1.44.1 2.12.27.6.18 1.2.43 1.8.76.2.13.3.3.3.52 0 .18-.1.33-.2.45-.1.13-.3.2-.4.2-.2 0-.3-.04-.4-.1-1.1-.58-2.1-.86-3.3-.86s-2.2.27-3.2.8a5.2 5.2 0 0 0-2.2 2.23c-.6.94-.8 2-.8 3.17s.2 2.23.8 3.17c.5 1 1.2 1.7 2.1 2.3.9.6 2 .8 3.1.8.6 0 1.2-.1 1.8-.2.6-.1 1.1-.4 1.6-.7V9.2h-3.2c-.2 0-.4-.06-.5-.18s-.2-.27-.2-.44c0-.16 0-.3.2-.43.1-.13.2-.2.4-.2h3.9zm15.62 6.46c.03.1.04.2.04.25 0 .1-.06.3-.2.4-.1.1-.25.1-.42.1-.14 0-.26-.1-.36-.1-.1-.1-.18-.2-.24-.3L48.43 11h-6.7l-1.54 3.78c-.2.27-.3.4-.6.4-.2 0-.4-.04-.5-.13-.1-.1-.2-.23-.2-.4v-.26L44.4 1c.17-.28.37-.4.68-.4.15 0 .27.02.38.1.1.07.14.17.2.3l5.43 13.3zM42.2 9.78h5.74l-2.9-7.07-2.84 7.1zM62.96.7c.18 0 .32.06.44.17.12.1.18.26.18.44s-.06.4-.18.5c-.12.1-.26.2-.44.2h-4.28v12.6c0 .2-.06.4-.2.5-.1.1-.26.2-.44.2-.2 0-.35 0-.47-.1-.1-.1-.17-.3-.17-.4V1.9h-4.28c-.18 0-.33-.05-.44-.16-.12-.1-.18-.2-.18-.4s.06-.4.18-.5c.1-.1.26-.14.44-.14h9.84zm16.77 7.24c0 1.42-.3 2.7-.9 3.82-.58 1.13-1.4 2-2.44 2.66-1.1.64-2.3.96-3.6.96-1.4 0-2.6-.32-3.6-.96-1.1-.65-1.9-1.53-2.5-2.66-.6-1.13-.9-2.4-.9-3.82 0-1.44.3-2.72.9-3.84.6-1.13 1.4-2.02 2.4-2.65C70.3.82 71.5.5 72.8.5c1.35 0 2.54.32 3.6.95 1.03.63 1.85 1.52 2.44 2.65.6 1.12.9 2.4.9 3.84zm-1.32 0c0-1.2-.2-2.27-.7-3.2-.4-.96-1.1-1.7-2-2.2-.8-.54-1.8-.8-2.9-.8-1 0-2 .26-2.9.8-.8.5-1.5 1.24-1.9 2.2-.4.93-.7 2-.7 3.2 0 1.2.3 2.27.7 3.2.5.95 1.2 1.7 2 2.2.9.53 1.8.8 2.9.8 1.1 0 2.1-.27 2.9-.8.9-.5 1.5-1.25 2-2.2.5-.93.7-2 .7-3.2zm22.6 6.1c.2.15.3.3.3.53v.27c0 .1-.1.17-.2.23-.1.05-.2.08-.3.08-.1 0-.2-.03-.3-.08-.4-.22-.7-.58-.9-1.08-.2-.5-.3-1.3-.3-2.4 0-1-.3-1.7-.8-2.1-.5-.4-1.2-.6-1.9-.6H92v5.5c0 .2-.03.3-.14.4-.1.1-.27.1-.45.1-.2 0-.3-.1-.5-.2s-.2-.3-.2-.5v-13c0-.2.1-.4.2-.5.1-.1.3-.2.4-.2h5.6c.8 0 1.5.2 2.1.5.7.4 1.1.8 1.5 1.4.4.6.6 1.3.6 2 0 .9-.2 1.7-.7 2.3-.4.6-1 1.1-1.8 1.3.6.2 1.1.6 1.5 1.2.4.5.6 1.2.6 2s.1 1.4.2 1.8c.1.3.3.6.5.7zm-4.3-6.2c.5-.03 1-.2 1.4-.46.4-.28.8-.65 1-1.12.3-.46.4-1 .4-1.6 0-.8-.2-1.44-.8-1.96s-1.2-.77-2-.77h-4.8v5.93h5zm21.3.1c0 1.42-.3 2.7-.9 3.82-.6 1.13-1.4 2-2.4 2.66-1 .64-2.2.96-3.6.96-1.3 0-2.5-.32-3.5-.96-1-.65-1.8-1.53-2.4-2.66-.6-1.13-.9-2.4-.9-3.82 0-1.44.3-2.72.9-3.84.6-1.13 1.4-2.02 2.5-2.65 1-.63 2.2-.95 3.6-.95s2.5.32 3.6.95c1 .63 1.9 1.52 2.4 2.65.6 1.12.9 2.4.9 3.84zm-1.3 0c0-1.2-.2-2.27-.7-3.2-.4-.96-1.1-1.7-2-2.2-.8-.54-1.8-.8-2.9-.8-1 0-2 .26-2.9.8-.8.5-1.5 1.24-1.9 2.2-.5.93-.7 2-.7 3.2 0 1.2.3 2.27.8 3.2.5.95 1.2 1.7 2 2.2.9.53 1.9.8 2.9.8 1.1 0 2.1-.27 2.9-.8.9-.5 1.6-1.25 2-2.2.5-.93.7-2 .7-3.2zm13.5 6c.2 0 .4.07.5.2.1.1.2.26.2.43 0 .18 0 .32-.1.43-.1.1-.3.17-.4.17h-7.6c-.1 0-.3-.06-.4-.18-.1-.2-.1-.3-.1-.5V1.3c0-.2.1-.32.2-.44.1-.1.3-.18.5-.18h7.6c.2 0 .3.1.4.2.1.1.2.3.2.47s0 .3-.1.42c-.1.1-.3.15-.4.15h-6.9V7.1h6c.13 0 .3.07.4.2.1.1.2.25.2.43s-.07.32-.2.44c-.1.1-.25.16-.4.16h-6v5.62h6.9zM144.9.7c.17 0 .32.07.44.18.12.12.17.27.17.45v8.55c0 1-.2 1.93-.7 2.77-.5.84-1.1 1.5-1.9 1.98-.8.48-1.7.73-2.7.73-1 0-1.9-.25-2.7-.73-.8-.48-1.5-1.14-1.9-1.98-.5-.84-.7-1.77-.7-2.77V1.33c0-.18.1-.33.2-.45.2-.1.3-.17.5-.17s.3.1.5.2.2.3.2.5v8.5c0 .8.2 1.5.5 2.2.4.7.9 1.2 1.6 1.6.7.4 1.4.6 2.1.6.8 0 1.5-.2 2.1-.5.7-.4 1.2-.9 1.6-1.5.4-.6.6-1.3.6-2.1V1.4c0-.18.1-.33.2-.45.1-.1.3-.17.5-.17zm23 13.64l.03.25c0 .1-.06.3-.18.4-.13.1-.27.1-.44.1-.1 0-.2-.1-.3-.1-.1-.1-.2-.2-.2-.3l-1.6-3.7h-6.7l-1.5 3.7c-.1.2-.3.4-.5.4s-.3-.1-.4-.2c-.1-.1-.1-.3-.1-.4v-.3L161.2 1c.1-.28.3-.4.62-.4.14 0 .26.02.36.1.1.07.2.17.25.3l5.43 13.28zm-8.98-4.56h5.75l-2.9-7.07-2.85 7.1zm29.82 4.27c.2.14.3.3.3.52 0 .07-.02.16-.08.27-.05.1-.13.17-.22.23-.1.05-.2.08-.3.08a.81.81 0 0 1-.37-.08c-.38-.22-.7-.58-.92-1.08-.24-.5-.36-1.3-.36-2.4 0-1-.3-1.7-.8-2.1-.6-.4-1.2-.6-2-.6h-4.6v5.5c0 .2-.1.3-.2.4-.1.1-.3.1-.5.1s-.4-.1-.5-.2c-.2-.2-.2-.3-.2-.5v-13c0-.2 0-.4.1-.5.1-.1.2-.2.4-.2h5.5c.7 0 1.4.2 2.1.5.6.4 1.1.8 1.4 1.4.3.6.5 1.3.5 2 0 .9-.2 1.7-.7 2.3-.5.6-1.1 1.1-1.8 1.3.6.2 1.1.6 1.5 1.2.4.5.6 1.2.6 2s.1 1.4.2 1.8c.1.3.2.6.5.7zm-4.3-6.2c.48-.04.93-.2 1.34-.47.4-.28.75-.65 1-1.12.24-.46.37-1 .37-1.6 0-.8-.27-1.44-.8-1.96s-1.22-.77-2.08-.77h-4.8v5.93h4.97zm21.3.1c0 1.4-.3 2.7-.9 3.8-.58 1.14-1.4 2-2.45 2.67-1.1.64-2.3.96-3.6.96-1.4 0-2.6-.32-3.6-.96-1.1-.65-1.9-1.53-2.5-2.66-.6-1.13-.9-2.4-.9-3.82 0-1.44.3-2.72.9-3.84.6-1.13 1.4-2.02 2.4-2.65 1-.63 2.2-.95 3.6-.95 1.3 0 2.5.32 3.5.95 1 .63 1.8 1.52 2.4 2.65.6 1.12.9 2.4.9 3.84zm-1.32 0c0-1.2-.24-2.28-.72-3.2-.47-.97-1.13-1.7-1.98-2.2-.85-.55-1.8-.8-2.9-.8-1.1 0-2.06.25-2.9.8-.85.5-1.5 1.23-2 2.2-.46.92-.7 2-.7 3.2 0 1.2.24 2.26.7 3.2.5.94 1.15 1.7 2 2.2.84.52 1.8.8 2.9.8 1.1 0 2.05-.28 2.9-.8.85-.5 1.5-1.26 1.98-2.2.48-.94.72-2 .72-3.2zM219.92.7c.2 0 .34.07.46.18.1.12.17.27.17.45v8.55c0 1-.24 1.93-.72 2.77a5.365 5.365 0 0 1-4.69 2.71c-1 0-1.92-.25-2.75-.73-.9-.48-1.5-1.14-2-1.98-.5-.84-.7-1.77-.7-2.77V1.33c0-.18 0-.33.1-.45.1-.1.3-.17.5-.17.1 0 .3.1.4.2s.2.3.2.5v8.5c0 .8.1 1.5.5 2.2.4.7.9 1.2 1.5 1.6.6.4 1.3.6 2 .6.8 0 1.5-.2 2.1-.5.6-.4 1.1-.9 1.5-1.5.3-.6.5-1.3.5-2.1V1.4c0-.18.1-.33.2-.45.1-.1.2-.17.4-.17zM231 .7c.74 0 1.43.18 2.03.53.6.36 1.08.84 1.42 1.47.34.63.5 1.33.5 2.12 0 .78-.16 1.5-.5 2.15-.34.64-.8 1.15-1.42 1.53-.6.37-1.3.55-2.04.55h-4.3v5.5c0 .18-.1.33-.2.44-.1.1-.3.1-.5.1s-.4-.1-.5-.2c-.1-.1-.2-.3-.2-.5V1.3c0-.17 0-.32.1-.44.1-.1.3-.2.4-.2h4.9zm0 7.16c.8 0 1.43-.3 1.93-.87.5-.6.74-1.3.74-2.2 0-.9-.25-1.6-.74-2.1-.5-.6-1.14-.8-1.94-.8h-4.3v5.9h4.3zm17.77 6.48l.05.25c0 .1-.07.3-.2.4-.1.1-.26.1-.42.1-.14 0-.26-.1-.37-.1-.1-.1-.18-.2-.23-.3l-1.55-3.7h-6.72l-1.53 3.7c-.1.2-.3.4-.55.4-.2 0-.34-.1-.44-.2 0-.1-.1-.3-.1-.4v-.3L242.2 1c.1-.28.32-.4.62-.4.13 0 .25.02.35.1.1.07.2.17.25.3l5.42 13.28zm-8.96-4.56h5.8l-2.9-7.07-2.8 7.1zM265 .7c1.32 0 2.44.33 3.34 1 .9.64 1.57 1.52 2 2.6.46 1.1.68 2.32.68 3.64 0 1.36-.22 2.6-.67 3.68a5.701 5.701 0 0 1-2 2.6c-.9.63-2.02.95-3.34.95h-5.2c-.2 0-.3-.06-.4-.18s-.2-.3-.2-.5V1.3c0-.2.1-.32.2-.44.1-.1.3-.18.5-.18h5.2zm-.2 13.25c1.65 0 2.88-.55 3.7-1.66.8-1.2 1.2-2.6 1.2-4.4 0-1.1-.16-2.2-.5-3.1-.35-.9-.9-1.6-1.63-2.2-.73-.6-1.66-.8-2.77-.8h-4.38v12h4.37zm23.1-6c0 1.4-.3 2.7-.9 3.8-.6 1.14-1.4 2-2.45 2.67-1.04.64-2.23.96-3.57.96-1.33 0-2.52-.32-3.57-.96-1-.65-1.8-1.53-2.4-2.66-.6-1.13-.9-2.4-.9-3.82 0-1.44.3-2.72.9-3.84.6-1.13 1.4-2.02 2.5-2.65 1-.63 2.2-.95 3.6-.95s2.6.32 3.6.95c1.1.63 1.9 1.52 2.5 2.65.6 1.12.9 2.4.9 3.84zm-1.33 0c0-1.2-.24-2.28-.7-3.2-.5-.97-1.15-1.7-2-2.2-.84-.55-1.8-.8-2.9-.8-1.08 0-2.05.25-2.9.8-.85.5-1.5 1.23-1.98 2.2-.5.92-.8 2-.8 3.2 0 1.2.2 2.26.7 3.2.4.94 1.1 1.7 1.9 2.2.8.52 1.8.8 2.9.8 1.1 0 2-.28 2.9-.8.8-.5 1.5-1.26 2-2.2.4-.94.7-2 .7-3.2zm22.52 6.1c.2.14.3.3.3.52 0 .07-.1.16-.1.27-.1.1-.2.17-.3.23-.1.05-.2.08-.3.08a.8.8 0 0 1-.4-.08c-.4-.22-.7-.58-1-1.08-.3-.5-.4-1.3-.4-2.4 0-1-.3-1.7-.8-2.1-.5-.4-1.2-.6-1.9-.6h-4.6v5.5c0 .2-.1.3-.2.4-.1.1-.2.1-.4.1s-.4-.1-.5-.2-.2-.3-.2-.5v-13c0-.2 0-.4.2-.5.1-.1.2-.2.4-.2h5.6c.8 0 1.5.2 2.1.5.6.4 1.1.8 1.4 1.4.3.6.5 1.3.5 2 0 .9-.3 1.7-.7 2.3-.5.6-1.1 1.1-1.8 1.3.6.2 1.1.6 1.5 1.2.3.5.5 1.2.6 2 0 .8 0 1.4.1 1.8.1.3.3.6.5.7zm-4.3-6.2c.5-.04.9-.2 1.3-.47.4-.28.7-.65 1-1.12.2-.46.3-1 .3-1.6 0-.8-.3-1.44-.8-1.96s-1.3-.77-2.1-.77h-4.8v5.93h4.9zm16.8 6.1c.1 0 .3.06.4.2.1.1.2.25.2.42 0 .18-.1.32-.2.43-.1.1-.3.17-.5.17H314a.61.61 0 0 1-.45-.18c-.1-.2-.17-.3-.17-.5V1.3c0-.2.06-.32.17-.44.12-.1.27-.18.45-.18h7.58c.18 0 .33.1.45.2s.18.3.18.47 0 .3-.1.42c-.1.1-.2.15-.4.15h-6.9V7.1h6c.2 0 .4.07.5.2.1.1.2.25.2.43s0 .32-.2.44c-.1.1-.2.16-.4.16h-6v5.62h6.9zm5.8.58c0 .18-.1.33-.2.45-.2.13-.3.2-.5.2s-.4-.07-.5-.2c-.1-.1-.2-.26-.2-.45V1.35c0-.2 0-.35.2-.47.1-.1.3-.17.5-.17s.3.1.4.2c.1.2.2.3.2.5v13.2zM344.9.7c1.3 0 2.42.33 3.32 1 .9.64 1.58 1.52 2.03 2.6.45 1.1.67 2.32.67 3.64 0 1.36-.22 2.6-.67 3.68-.45 1.08-1.12 1.95-2.03 2.6-.9.63-2 .95-3.33.95h-5.3c-.2 0-.4-.06-.5-.18-.1-.2-.2-.3-.2-.5V1.3c0-.2 0-.32.1-.44.1-.1.2-.18.4-.18h5.2zm-.22 13.25c1.65 0 2.9-.55 3.7-1.66.8-1.2 1.22-2.6 1.22-4.4 0-1.1-.17-2.2-.52-3.1-.34-.9-.88-1.6-1.62-2.2-.74-.6-1.66-.8-2.78-.8h-4.38v12h4.38zm18.42 0c.17 0 .32.06.43.2.12.1.18.25.18.42 0 .18 0 .32-.1.43-.1.1-.2.17-.4.17h-7.6c-.1 0-.3-.06-.4-.18-.1-.2-.1-.3-.1-.5V1.3c0-.2.1-.32.2-.44.2-.1.3-.18.5-.18h7.6c.2 0 .3.1.5.2.1.1.2.3.2.47s0 .3-.1.42c-.1.1-.2.15-.4.15h-6.9V7.1h6c.2 0 .4.07.5.2.2.1.2.25.2.43s0 .32-.2.44c-.1.1-.2.16-.4.16h-5.9v5.62h6.9zm21.8.1c.2.14.3.3.3.52 0 .07-.03.16-.1.27a.56.56 0 0 1-.2.23c-.1.05-.2.08-.32.08-.14 0-.26-.03-.36-.08-.38-.22-.7-.58-.93-1.08-.3-.5-.4-1.3-.4-2.4 0-1-.3-1.7-.8-2.1-.6-.4-1.2-.6-1.9-.6h-4.6v5.5c0 .2-.1.3-.2.4-.1.1-.3.1-.5.1s-.4-.1-.5-.2c-.2-.2-.2-.3-.2-.5v-13c0-.2 0-.4.1-.5.1-.1.2-.2.4-.2h5.6c.8 0 1.5.2 2.1.5.6.4 1.1.8 1.4 1.4.3.6.5 1.3.5 2 0 .9-.3 1.7-.7 2.3-.5.6-1.1 1.1-1.8 1.3.6.2 1.1.6 1.4 1.2.4.5.6 1.2.6 2s.1 1.4.2 1.8c.1.3.2.6.5.7zm-4.3-6.2c.47-.04.92-.2 1.33-.47.4-.28.74-.65 1-1.12.24-.46.36-1 .36-1.6 0-.8-.3-1.44-.8-1.96s-1.3-.77-2.1-.77h-4.8v5.93h4.9zm21.3.1c0 1.4-.3 2.7-.9 3.8-.6 1.14-1.4 2-2.46 2.67-1.04.64-2.24.96-3.57.96-1.34 0-2.53-.32-3.58-.96-1.1-.65-1.9-1.53-2.5-2.66-.6-1.13-.9-2.4-.9-3.82 0-1.44.3-2.72.9-3.84.6-1.13 1.4-2.02 2.4-2.65 1-.63 2.2-.95 3.6-.95 1.3 0 2.5.32 3.5.95 1.1.63 1.9 1.52 2.5 2.65.6 1.12.9 2.4.9 3.84zm-1.33 0c0-1.2-.24-2.28-.72-3.2-.47-.97-1.13-1.7-1.98-2.2-.85-.55-1.8-.8-2.9-.8-1.1 0-2.06.25-2.9.8-.85.5-1.5 1.23-2 2.2-.46.92-.7 2-.7 3.2 0 1.2.24 2.26.7 3.2.5.94 1.15 1.7 2 2.2.84.52 1.8.8 2.9.8 1.1 0 2.05-.28 2.9-.8.85-.5 1.5-1.26 1.98-2.2.48-.94.72-2 .72-3.2zM418.47.7c.15 0 .3.07.4.18.13.12.2.27.2.45v13.22c0 .18-.07.33-.2.44-.1.1-.27.1-.45.1-.2 0-.35-.1-.48-.2-.12-.1-.18-.3-.18-.5V3.2l-4.86 7.34c-.14.18-.3.26-.47.25h-.05c-.16 0-.3-.1-.45-.3l-4.86-7.4v11.4c0 .2-.05.3-.17.4-.12.1-.27.1-.45.1-.17 0-.32-.1-.43-.2-.1-.2-.16-.3-.16-.5v-13c0-.2.05-.3.17-.5.12-.2.27-.2.45-.2h.3c.12 0 .2.1.25.2l5.42 8.1 5.45-8c.15-.2.34-.3.56-.3zm16.3 13.64l.03.25c0 .1-.06.3-.2.4-.1.1-.25.1-.42.1-.14 0-.26-.1-.36-.1-.1-.1-.18-.2-.24-.3l-1.55-3.7h-6.7l-1.54 3.7c-.2.2-.3.4-.6.4-.2 0-.4-.1-.5-.2-.1-.1-.2-.3-.2-.4v-.3L428 .9c.1-.3.3-.4.63-.4.14 0 .26 0 .37.1.1.1.17.2.23.3l5.4 13.3zm-8.98-4.56h5.7l-2.9-7.07-2.9 7.1z" stroke="#fff" stroke-width=".99"/></g></svg>