<svg viewBox="0 0 411 17" xmlns="http://www.w3.org/2000/svg" fill-rule="evenodd" clip-rule="evenodd" stroke-linejoin="round" stroke-miterlimit="1.41"><g fill="none"><path d="M11.95 8.84c0 1.35-.23 2.54-.7 3.56-.47 1.03-1.14 1.8-2 2.36-.87.56-1.87.83-3 .83-1.72 0-3.1-.7-4.17-1.9C1.03 12.5.5 10.8.5 8.8V7.3c0-1.35.24-2.53.7-3.57.5-1 1.16-1.8 2.02-2.33.88-.63 1.88-.9 3-.9s2.13.27 3 .82c.86.54 1.52 1.3 2 2.3.46 1 .7 2.16.73 3.47v1.7zm-1.24-1.6c0-1.76-.4-3.15-1.2-4.15-.8-1-1.9-1.5-3.2-1.5S3.8 2.1 3 3.1c-.8 1-1.23 2.4-1.23 4.2v1.5c0 1.74.4 3.12 1.2 4.14.82 1.02 1.9 1.53 3.3 1.53s2.5-.5 3.3-1.5c.78-1 1.17-2.4 1.17-4.2V7.24zm22.1 6.4c-.4.62-1.1 1.1-2 1.44-.9.34-1.9.5-3.1.5-1.1 0-2.1-.26-3-.82-.9-.55-1.6-1.33-2-2.34-.5-1-.7-2.16-.7-3.47V7.1c0-2.04.57-3.65 1.6-4.83.9-1.17 2.27-1.77 4-1.77 1.53 0 2.74.4 3.67 1.16.9.76 1.46 1.83 1.64 3.18h-1.3c-.2-1.08-.62-1.9-1.32-2.46-.7-.55-1.6-.83-2.72-.83-1.3 0-2.4.5-3.2 1.46-.7 1-1.2 2.4-1.2 4.2v1.7c0 1.1.2 2.1.6 3 .4.9 1 1.5 1.7 2s1.5.7 2.45.7c1.08 0 2-.1 2.77-.5.5-.2.85-.5 1.1-.8V9.5h-4V8.42H33v5.22zm12.5-2.38h-6.7l-1.5 4.13h-1.3L41.3.7h1.18l5.57 14.7h-1.3l-1.52-4.14zM39 10.22h5.9l-2.97-8-2.92 8zm20.94-8.47H54.9V15.4h-1.25V1.74h-5.02V.7h11.3v1.05zm13.98 7.1c0 1.34-.22 2.53-.7 3.55-.46 1.03-1.12 1.8-2 2.36-.86.56-1.86.83-3 .83-1.7 0-3.1-.7-4.16-1.9-1.05-1.3-1.58-2.9-1.58-5V7.2c0-1.34.24-2.52.7-3.56.5-1.03 1.16-1.8 2.02-2.38.87-.56 1.87-.84 3-.84s2.13.26 3 .8c.86.55 1.52 1.3 2 2.3.47 1 .7 2.17.73 3.48v1.8zm-1.23-1.6c0-1.77-.4-3.16-1.2-4.16-.8-1-1.9-1.5-3.3-1.5s-2.5.5-3.3 1.5c-.8 1-1.2 2.4-1.2 4.2v1.5c0 1.7.4 3.1 1.2 4.1.8 1 1.9 1.5 3.3 1.5s2.5-.5 3.3-1.5c.8-1 1.1-2.4 1.1-4.2V7.2zm16.9 2h-4.3v6.13h-1.2V.7h4.7c1.5 0 2.8.38 3.6 1.14.9.76 1.3 1.82 1.3 3.18 0 .95-.3 1.77-.87 2.5-.54.7-1.3 1.2-2.2 1.5l3.7 6.24v.13h-1.3l-3.6-6.2zM85.3 8.2h3.8c1.04 0 1.88-.3 2.5-.9.65-.56.96-1.33.96-2.3 0-1-.33-1.82-1-2.4-.65-.56-1.57-.85-2.76-.85h-3.5V8.2zm23.78.64c0 1.35-.22 2.54-.7 3.56s-1.13 1.8-2 2.35c-.86.56-1.86.83-3 .83-1.72 0-3.1-.63-4.16-1.86-1.05-1.23-1.58-2.88-1.58-4.97v-1.5c0-1.35.2-2.53.7-3.57.5-1.02 1.13-1.8 2-2.37.83-.5 1.83-.8 3-.8 1.1 0 2.1.3 2.95.8.9.6 1.5 1.3 2 2.3.5 1 .7 2.2.7 3.5v1.7zm-1.23-1.6c0-1.76-.4-3.15-1.2-4.15-.8-1-1.9-1.5-3.3-1.5-1.35 0-2.44.5-3.25 1.5-.8 1-1.22 2.4-1.22 4.2v1.5c0 1.7.4 3.1 1.25 4.1.8 1 1.9 1.5 3.3 1.5s2.5-.5 3.28-1.5c.8-1 1.2-2.4 1.2-4.2V7.2zm13.52 1.1h-6.9v6h7.9v1.05h-9.14V.7h9.1v1.05h-7.84V7.3h6.8v1.05zM136.17.7v10.03c0 1-.23 1.85-.66 2.58-.4.8-1 1.3-1.8 1.7-.7.4-1.6.6-2.7.6-1.5 0-2.7-.4-3.7-1.2-.9-.8-1.4-2-1.4-3.5V.7h1.3v9.94c0 1.24.4 2.2 1.1 2.88.7.68 1.7 1.02 2.9 1.02s2.2-.34 2.9-1.03c.7-.6 1.1-1.6 1.1-2.8V.7h1.26zm18.47 10.56H148l-1.52 4.13h-1.3L150.74.7h1.18l5.56 14.7h-1.3l-1.52-4.14zm-6.28-1.04h5.9l-2.96-8-2.93 8zm23.82-.95h-4.26v6.12h-1.25V.7h4.76c1.56 0 2.8.38 3.67 1.14.88.76 1.32 1.82 1.32 3.18 0 .95-.27 1.77-.83 2.5-.6.7-1.3 1.2-2.2 1.5l3.6 6.24v.13h-1.4L172 9.2zm-4.26-1.05h3.8c1.04 0 1.88-.3 2.5-.9.65-.58.96-1.35.96-2.3 0-1.03-.3-1.84-.9-2.4-.65-.58-1.6-.87-2.76-.87H168v6.47zm23.78.62c0 1.35-.23 2.54-.7 3.56-.47 1.03-1.14 1.8-2 2.36-.87.56-1.87.83-3 .83-1.73 0-3.1-.7-4.17-1.9-1.05-1.3-1.58-2.9-1.58-5V7.2c0-1.34.24-2.52.7-3.56.48-1.03 1.16-1.8 2.02-2.38.86-.56 1.86-.84 3-.84s2.12.26 3 .8c.84.55 1.5 1.3 2 2.3.45 1 .7 2.17.72 3.48v1.8zm-1.24-1.6c0-1.76-.4-3.15-1.2-4.15-.8-1-1.9-1.5-3.3-1.5s-2.5.5-3.3 1.5c-.8 1-1.2 2.4-1.2 4.2v1.5c0 1.7.4 3.1 1.2 4.1.8 1 1.9 1.5 3.3 1.5s2.5-.5 3.3-1.5c.7-1 1.1-2.4 1.1-4.2V7.2zM206 .7v10.03c0 1-.22 1.85-.65 2.58-.43.8-1.04 1.3-1.82 1.7-.78.4-1.68.6-2.7.6-1.54 0-2.78-.4-3.7-1.2-.95-.8-1.43-2-1.46-3.5V.7h1.23v9.94c0 1.24.35 2.2 1.06 2.88.7.68 1.66 1.02 2.87 1.02 1.2 0 2.17-.34 2.87-1.03.7-.6 1.06-1.6 1.06-2.8V.7H206zm5.74 8.7v6h-1.24V.7h5c1.53 0 2.74.4 3.62 1.17.9.78 1.33 1.86 1.33 3.22s-.43 2.4-1.28 3.1c-.85.7-2.08 1.1-3.7 1.1h-3.73zm0-1.04h3.76c1.2 0 2.13-.3 2.76-.86.63-.57.95-1.37.95-2.4 0-1-.3-1.82-.9-2.42-.6-.6-1.5-.92-2.7-.93h-3.8v6.6zm19.06 2.9h-6.68l-1.5 4.13h-1.3L226.86.7h1.18l5.56 14.7h-1.28l-1.53-4.14zm-6.3-1.04h5.9l-2.95-8-2.94 8zm18.35 5.18V.7h4.1c1.2 0 2.3.28 3.25.82.95.55 1.7 1.34 2.23 2.36.54 1.02.8 2.18.8 3.5V8.7c0 1.3-.26 2.48-.8 3.5-.52 1-1.27 1.8-2.24 2.34-1 .55-2.1.83-3.4.83h-4zm1.25-13.65v12.6h2.78c1.55 0 2.8-.52 3.72-1.55.94-1.03 1.4-2.4 1.4-4.16v-1.3c0-1.7-.46-3.04-1.38-4.05-.92-1.1-2.13-1.6-3.64-1.6h-2.88zm24.17 7.1c0 1.34-.23 2.53-.7 3.55-.47 1.03-1.14 1.8-2 2.36-.87.56-1.87.83-3 .83-1.72 0-3.1-.7-4.17-1.9-1.05-1.3-1.58-2.9-1.58-5V7.2c0-1.34.24-2.52.7-3.56.5-1.03 1.16-1.8 2.02-2.38.87-.56 1.87-.84 3-.84s2.13.26 3 .8c.86.55 1.52 1.3 2 2.3.47 1 .7 2.17.73 3.48v1.8zm-1.24-1.6c0-1.77-.4-3.16-1.2-4.16-.8-1-1.9-1.5-3.3-1.5-1.35 0-2.44.5-3.25 1.5-.8 1-1.22 2.4-1.22 4.2v1.5c0 1.7.4 3.1 1.2 4.1.82 1 1.92 1.5 3.3 1.5 1.4 0 2.5-.5 3.3-1.5.78-1 1.17-2.4 1.17-4.2V7.2zm16.95 2.02h-4.27v6.12h-1.2V.7h4.8c1.6 0 2.8.38 3.7 1.14.9.76 1.4 1.82 1.4 3.18 0 .95-.2 1.77-.8 2.5-.5.7-1.3 1.2-2.2 1.5l3.7 6.24v.13h-1.3L284 9.2zm-4.27-1.05h3.8c1.1 0 1.9-.3 2.6-.9.7-.58 1-1.35 1-2.3 0-1.03-.3-1.84-1-2.4-.6-.58-1.5-.87-2.7-.87h-3.5v6.47zm21.1.13H294v6h7.9v1.04h-9.14V.7h9.1v1.05H294V7.3h6.85v1.05zM305.7.7h1.24v14.7h-1.24zM318 15.4V.7h4.1c1.22 0 2.3.28 3.25.82.96.55 1.7 1.34 2.24 2.36.5 1.02.8 2.18.8 3.5V8.7c0 1.3-.3 2.48-.8 3.5-.6 1-1.3 1.8-2.3 2.34-1 .55-2.1.83-3.4.83h-4zm1.25-13.65v12.6h2.78c1.55 0 2.8-.52 3.73-1.55.93-1.03 1.4-2.4 1.4-4.16v-1.3c0-1.7-.46-3.04-1.38-4.05-.92-1.1-2.14-1.6-3.64-1.6h-2.9zm21.43 6.6h-6.87v6h7.9v1.04h-9.1V.7h9.1v1.05h-7.8V7.3h6.9v1.05zm16.22.92h-4.27v6.12h-1.25V.7h4.77c1.57 0 2.8.38 3.68 1.14.88.76 1.32 1.82 1.32 3.18 0 .95-.28 1.77-.83 2.5-.55.7-1.3 1.2-2.22 1.5l3.67 6.24v.13h-1.32l-3.55-6.2zm-4.27-1.05h3.8c1.05 0 1.9-.3 2.52-.9.63-.58.95-1.35.95-2.3 0-1.03-.33-1.84-1-2.4-.65-.58-1.58-.87-2.77-.87h-3.5v6.47zm23.77.62c0 1.35-.22 2.54-.7 3.56-.45 1.03-1.12 1.8-2 2.36-.86.56-1.86.83-3 .83-1.7 0-3.1-.7-4.15-1.9-1.06-1.3-1.58-2.9-1.58-5V7.2c0-1.34.23-2.52.7-3.56.48-1.03 1.15-1.8 2.02-2.38.8-.56 1.8-.84 3-.84 1.1 0 2.1.26 2.9.8.8.55 1.5 1.3 2 2.3.4 1 .7 2.17.7 3.48v1.8zm-1.23-1.6c0-1.76-.4-3.15-1.2-4.15-.8-1-1.9-1.5-3.28-1.5s-2.5.5-3.3 1.5c-.8 1-1.2 2.4-1.2 4.2v1.5c0 1.7.4 3.1 1.2 4.1.8 1 1.9 1.5 3.3 1.5s2.5-.5 3.3-1.5c.7-1 1.1-2.4 1.1-4.2V7.2zM382.22.7l5.42 12.97L393.07.7h1.66v14.7h-1.24V9l.1-6.56-5.5 12.95h-1l-5.4-12.9.1 6.4v6.4h-1.3V.7h1.6zm25.38 10.56h-6.67l-1.52 4.13h-1.3L403.7.7h1.18l5.56 14.7h-1.28l-1.52-4.14zm-6.3-1.04h5.9l-2.94-8-2.95 8z"/><path d="M11.95 8.84c0 1.35-.23 2.54-.7 3.56-.47 1.03-1.14 1.8-2 2.36-.87.56-1.87.83-3 .83-1.72 0-3.1-.7-4.17-1.9C1.03 12.5.5 10.8.5 8.8V7.3c0-1.35.24-2.53.7-3.57.5-1 1.16-1.8 2.02-2.33.88-.63 1.88-.9 3-.9s2.13.27 3 .82c.86.54 1.52 1.3 2 2.3.46 1 .7 2.16.73 3.47v1.7zm-1.24-1.6c0-1.76-.4-3.15-1.2-4.15-.8-1-1.9-1.5-3.2-1.5S3.8 2.1 3 3.1c-.8 1-1.23 2.4-1.23 4.2v1.5c0 1.74.4 3.12 1.2 4.14.82 1.02 1.9 1.53 3.3 1.53s2.5-.5 3.3-1.5c.78-1 1.17-2.4 1.17-4.2V7.24zm22.1 6.4c-.4.62-1.1 1.1-2 1.44-.9.34-1.9.5-3.1.5-1.1 0-2.1-.26-3-.82-.9-.55-1.6-1.33-2-2.34-.5-1-.7-2.16-.7-3.47V7.1c0-2.04.57-3.65 1.6-4.83.9-1.17 2.27-1.77 4-1.77 1.53 0 2.74.4 3.67 1.16.9.76 1.46 1.83 1.64 3.18h-1.3c-.2-1.08-.62-1.9-1.32-2.46-.7-.55-1.6-.83-2.72-.83-1.3 0-2.4.5-3.2 1.46-.7 1-1.2 2.4-1.2 4.2v1.7c0 1.1.2 2.1.6 3 .4.9 1 1.5 1.7 2s1.5.7 2.45.7c1.08 0 2-.1 2.77-.5.5-.2.85-.5 1.1-.8V9.5h-4V8.42H33v5.22zm12.5-2.38h-6.7l-1.5 4.13h-1.3L41.3.7h1.18l5.57 14.7h-1.3l-1.52-4.14zM39 10.22h5.9l-2.97-8-2.92 8zm20.94-8.47H54.9V15.4h-1.25V1.74h-5.02V.7h11.3v1.05zm13.98 7.1c0 1.34-.22 2.53-.7 3.55-.46 1.03-1.12 1.8-2 2.36-.86.56-1.86.83-3 .83-1.7 0-3.1-.7-4.16-1.9-1.05-1.3-1.58-2.9-1.58-5V7.2c0-1.34.24-2.52.7-3.56.5-1.03 1.16-1.8 2.02-2.38.87-.56 1.87-.84 3-.84s2.13.26 3 .8c.86.55 1.52 1.3 2 2.3.47 1 .7 2.17.73 3.48v1.8zm-1.23-1.6c0-1.77-.4-3.16-1.2-4.16-.8-1-1.9-1.5-3.3-1.5s-2.5.5-3.3 1.5c-.8 1-1.2 2.4-1.2 4.2v1.5c0 1.7.4 3.1 1.2 4.1.8 1 1.9 1.5 3.3 1.5s2.5-.5 3.3-1.5c.8-1 1.1-2.4 1.1-4.2V7.2zm16.9 2h-4.3v6.13h-1.2V.7h4.7c1.5 0 2.8.38 3.6 1.14.9.76 1.3 1.82 1.3 3.18 0 .95-.3 1.77-.87 2.5-.54.7-1.3 1.2-2.2 1.5l3.7 6.24v.13h-1.3l-3.6-6.2zM85.3 8.2h3.8c1.04 0 1.88-.3 2.5-.9.65-.56.96-1.33.96-2.3 0-1-.33-1.82-1-2.4-.65-.56-1.57-.85-2.76-.85h-3.5V8.2zm23.78.64c0 1.35-.22 2.54-.7 3.56s-1.13 1.8-2 2.35c-.86.56-1.86.83-3 .83-1.72 0-3.1-.63-4.16-1.86-1.05-1.23-1.58-2.88-1.58-4.97v-1.5c0-1.35.2-2.53.7-3.57.5-1.02 1.13-1.8 2-2.37.83-.5 1.83-.8 3-.8 1.1 0 2.1.3 2.95.8.9.6 1.5 1.3 2 2.3.5 1 .7 2.2.7 3.5v1.7zm-1.23-1.6c0-1.76-.4-3.15-1.2-4.15-.8-1-1.9-1.5-3.3-1.5-1.35 0-2.44.5-3.25 1.5-.8 1-1.22 2.4-1.22 4.2v1.5c0 1.7.4 3.1 1.25 4.1.8 1 1.9 1.5 3.3 1.5s2.5-.5 3.28-1.5c.8-1 1.2-2.4 1.2-4.2V7.2zm13.52 1.1h-6.9v6h7.9v1.05h-9.14V.7h9.1v1.05h-7.84V7.3h6.8v1.05zM136.17.7v10.03c0 1-.23 1.85-.66 2.58-.4.8-1 1.3-1.8 1.7-.7.4-1.6.6-2.7.6-1.5 0-2.7-.4-3.7-1.2-.9-.8-1.4-2-1.4-3.5V.7h1.3v9.94c0 1.24.4 2.2 1.1 2.88.7.68 1.7 1.02 2.9 1.02s2.2-.34 2.9-1.03c.7-.6 1.1-1.6 1.1-2.8V.7h1.26zm18.47 10.56H148l-1.52 4.13h-1.3L150.74.7h1.18l5.56 14.7h-1.3l-1.52-4.14zm-6.28-1.04h5.9l-2.96-8-2.93 8zm23.82-.95h-4.26v6.12h-1.25V.7h4.76c1.56 0 2.8.38 3.67 1.14.88.76 1.32 1.82 1.32 3.18 0 .95-.27 1.77-.83 2.5-.6.7-1.3 1.2-2.2 1.5l3.6 6.24v.13h-1.4L172 9.2zm-4.26-1.05h3.8c1.04 0 1.88-.3 2.5-.9.65-.58.96-1.35.96-2.3 0-1.03-.3-1.84-.9-2.4-.65-.58-1.6-.87-2.76-.87H168v6.47zm23.78.62c0 1.35-.23 2.54-.7 3.56-.47 1.03-1.14 1.8-2 2.36-.87.56-1.87.83-3 .83-1.73 0-3.1-.7-4.17-1.9-1.05-1.3-1.58-2.9-1.58-5V7.2c0-1.34.24-2.52.7-3.56.48-1.03 1.16-1.8 2.02-2.38.86-.56 1.86-.84 3-.84s2.12.26 3 .8c.84.55 1.5 1.3 2 2.3.45 1 .7 2.17.72 3.48v1.8zm-1.24-1.6c0-1.76-.4-3.15-1.2-4.15-.8-1-1.9-1.5-3.3-1.5s-2.5.5-3.3 1.5c-.8 1-1.2 2.4-1.2 4.2v1.5c0 1.7.4 3.1 1.2 4.1.8 1 1.9 1.5 3.3 1.5s2.5-.5 3.3-1.5c.7-1 1.1-2.4 1.1-4.2V7.2zM206 .7v10.03c0 1-.22 1.85-.65 2.58-.43.8-1.04 1.3-1.82 1.7-.78.4-1.68.6-2.7.6-1.54 0-2.78-.4-3.7-1.2-.95-.8-1.43-2-1.46-3.5V.7h1.23v9.94c0 1.24.35 2.2 1.06 2.88.7.68 1.66 1.02 2.87 1.02 1.2 0 2.17-.34 2.87-1.03.7-.6 1.06-1.6 1.06-2.8V.7H206zm5.74 8.7v6h-1.24V.7h5c1.53 0 2.74.4 3.62 1.17.9.78 1.33 1.86 1.33 3.22s-.43 2.4-1.28 3.1c-.85.7-2.08 1.1-3.7 1.1h-3.73zm0-1.04h3.76c1.2 0 2.13-.3 2.76-.86.63-.57.95-1.37.95-2.4 0-1-.3-1.82-.9-2.42-.6-.6-1.5-.92-2.7-.93h-3.8v6.6zm19.06 2.9h-6.68l-1.5 4.13h-1.3L226.86.7h1.18l5.56 14.7h-1.28l-1.53-4.14zm-6.3-1.04h5.9l-2.95-8-2.94 8zm18.35 5.18V.7h4.1c1.2 0 2.3.28 3.25.82.95.55 1.7 1.34 2.23 2.36.54 1.02.8 2.18.8 3.5V8.7c0 1.3-.26 2.48-.8 3.5-.52 1-1.27 1.8-2.24 2.34-1 .55-2.1.83-3.4.83h-4zm1.25-13.65v12.6h2.78c1.55 0 2.8-.52 3.72-1.55.94-1.03 1.4-2.4 1.4-4.16v-1.3c0-1.7-.46-3.04-1.38-4.05-.92-1.1-2.13-1.6-3.64-1.6h-2.88zm24.17 7.1c0 1.34-.23 2.53-.7 3.55-.47 1.03-1.14 1.8-2 2.36-.87.56-1.87.83-3 .83-1.72 0-3.1-.7-4.17-1.9-1.05-1.3-1.58-2.9-1.58-5V7.2c0-1.34.24-2.52.7-3.56.5-1.03 1.16-1.8 2.02-2.38.87-.56 1.87-.84 3-.84s2.13.26 3 .8c.86.55 1.52 1.3 2 2.3.47 1 .7 2.17.73 3.48v1.8zm-1.24-1.6c0-1.77-.4-3.16-1.2-4.16-.8-1-1.9-1.5-3.3-1.5-1.35 0-2.44.5-3.25 1.5-.8 1-1.22 2.4-1.22 4.2v1.5c0 1.7.4 3.1 1.2 4.1.82 1 1.92 1.5 3.3 1.5 1.4 0 2.5-.5 3.3-1.5.78-1 1.17-2.4 1.17-4.2V7.2zm16.95 2.02h-4.27v6.12h-1.2V.7h4.8c1.6 0 2.8.38 3.7 1.14.9.76 1.4 1.82 1.4 3.18 0 .95-.2 1.77-.8 2.5-.5.7-1.3 1.2-2.2 1.5l3.7 6.24v.13h-1.3L284 9.2zm-4.27-1.05h3.8c1.1 0 1.9-.3 2.6-.9.7-.58 1-1.35 1-2.3 0-1.03-.3-1.84-1-2.4-.6-.58-1.5-.87-2.7-.87h-3.5v6.47zm21.1.13H294v6h7.9v1.04h-9.14V.7h9.1v1.05H294V7.3h6.85v1.05zM305.7.7h1.24v14.7h-1.24zM318 15.4V.7h4.1c1.22 0 2.3.28 3.25.82.96.55 1.7 1.34 2.24 2.36.5 1.02.8 2.18.8 3.5V8.7c0 1.3-.3 2.48-.8 3.5-.6 1-1.3 1.8-2.3 2.34-1 .55-2.1.83-3.4.83h-4zm1.25-13.65v12.6h2.78c1.55 0 2.8-.52 3.73-1.55.93-1.03 1.4-2.4 1.4-4.16v-1.3c0-1.7-.46-3.04-1.38-4.05-.92-1.1-2.14-1.6-3.64-1.6h-2.9zm21.43 6.6h-6.87v6h7.9v1.04h-9.1V.7h9.1v1.05h-7.8V7.3h6.9v1.05zm16.22.92h-4.27v6.12h-1.25V.7h4.77c1.57 0 2.8.38 3.68 1.14.88.76 1.32 1.82 1.32 3.18 0 .95-.28 1.77-.83 2.5-.55.7-1.3 1.2-2.22 1.5l3.67 6.24v.13h-1.32l-3.55-6.2zm-4.27-1.05h3.8c1.05 0 1.9-.3 2.52-.9.63-.58.95-1.35.95-2.3 0-1.03-.33-1.84-1-2.4-.65-.58-1.58-.87-2.77-.87h-3.5v6.47zm23.77.62c0 1.35-.22 2.54-.7 3.56-.45 1.03-1.12 1.8-2 2.36-.86.56-1.86.83-3 .83-1.7 0-3.1-.7-4.15-1.9-1.06-1.3-1.58-2.9-1.58-5V7.2c0-1.34.23-2.52.7-3.56.48-1.03 1.15-1.8 2.02-2.38.8-.56 1.8-.84 3-.84 1.1 0 2.1.26 2.9.8.8.55 1.5 1.3 2 2.3.4 1 .7 2.17.7 3.48v1.8zm-1.23-1.6c0-1.76-.4-3.15-1.2-4.15-.8-1-1.9-1.5-3.28-1.5s-2.5.5-3.3 1.5c-.8 1-1.2 2.4-1.2 4.2v1.5c0 1.7.4 3.1 1.2 4.1.8 1 1.9 1.5 3.3 1.5s2.5-.5 3.3-1.5c.7-1 1.1-2.4 1.1-4.2V7.2zM382.22.7l5.42 12.97L393.07.7h1.66v14.7h-1.24V9l.1-6.56-5.5 12.95h-1l-5.4-12.9.1 6.4v6.4h-1.3V.7h1.6zm25.38 10.56h-6.67l-1.52 4.13h-1.3L403.7.7h1.18l5.56 14.7h-1.28l-1.52-4.14zm-6.3-1.04h5.9l-2.94-8-2.95 8z" stroke="#fff" stroke-width=".99"/></g></svg>