<svg viewBox="0 0 437 16" xmlns="http://www.w3.org/2000/svg" fill-rule="evenodd" clip-rule="evenodd" stroke-linejoin="round" stroke-miterlimit="1.41"><g fill="none"><path d="M7.38 15.38c-1.02 0-1.95-.2-2.8-.63-.85-.43-1.57-.98-2.18-1.68-.6-.7-1.07-1.5-1.4-2.38A8.26 8.26 0 0 1 .5 7.9c0-.98.18-1.92.53-2.8.35-.9.83-1.7 1.45-2.4.62-.68 1.35-1.22 2.2-1.63C5.5.7 6.4.5 7.4.5c1.02 0 1.95.22 2.8.65.85.44 1.57 1 2.17 1.7.6.7 1.06 1.5 1.4 2.4.32.88.5 1.8.5 2.7 0 1-.2 1.92-.54 2.82-.35.9-.83 1.68-1.44 2.36-.7.7-1.4 1.23-2.2 1.64-.9.4-1.8.6-2.8.6zM1.95 7.94c0 .8.13 1.56.4 2.3.25.74.62 1.4 1.1 1.96.5.58 1.06 1.03 1.72 1.37.66.34 1.4.5 2.2.5.84 0 1.6-.18 2.26-.53.68-.36 1.25-.83 1.72-1.4.47-.6.83-1.24 1.08-1.97.26-.73.38-1.48.38-2.23 0-.8-.1-1.57-.4-2.3-.2-.74-.6-1.4-1.1-1.96-.5-.56-1-1-1.7-1.35-.6-.34-1.4-.5-2.2-.5-.8 0-1.6.17-2.2.52-.7.35-1.2.82-1.7 1.4-.5.57-.8 1.23-1.1 1.95C2.1 6.5 2 7.2 2 8zm32.97 5.18c-1.36 1.5-2.93 2.26-4.7 2.26-1 0-1.9-.22-2.75-.64-.83-.43-1.55-1-2.17-1.7-.6-.7-1.1-1.5-1.43-2.38-.35-.9-.52-1.8-.52-2.74 0-.98.17-1.92.5-2.8.34-.9.82-1.7 1.42-2.38.6-.68 1.32-1.22 2.15-1.63.83-.4 1.73-.6 2.7-.6.72 0 1.38.1 1.97.3.5.2 1.1.4 1.5.7.4.3.8.7 1.2 1 .3.4.6.9.8 1.3l-1.1.8c-.5-.9-1.1-1.6-1.9-2-.8-.4-1.7-.6-2.6-.6-.8 0-1.6.2-2.2.6-.7.4-1.2.8-1.7 1.4-.5.6-.8 1.3-1.1 2s-.4 1.5-.4 2.3c0 .9.1 1.6.4 2.4.2.7.6 1.4 1.1 2 .5.57 1.1 1 1.7 1.3.64.3 1.4.5 2.2.5.82 0 1.7-.2 2.4-.6.73-.4 1.5-1 2.2-1.9V9.2h-3.2V8.06H36v7.2h-1.2v-2.14zM44.7.6h1.2L52 15.27h-1.5l-1.9-4.58H42l-1.87 4.5H38.6L44.7.6zm3.55 8.95L45.3 2.3l-3 7.25h5.95zM64.1 1.88h-5.2v13.4h-1.46V1.88H52.2V.6h11.9v1.28zm8.46 13.5c-1.02 0-1.95-.2-2.8-.63-.84-.43-1.57-.98-2.18-1.68-.6-.7-1.07-1.5-1.4-2.38-.33-.9-.5-1.9-.5-2.8 0-1 .18-1.9.53-2.8.4-.9.9-1.7 1.5-2.4s1.4-1.2 2.2-1.7c.9-.4 1.8-.6 2.7-.6 1.1 0 2 .2 2.8.6.9.4 1.6 1 2.2 1.7.6.7 1.1 1.5 1.4 2.4.4.9.5 1.8.5 2.7 0 1-.2 1.9-.5 2.8-.3.9-.8 1.6-1.4 2.3-.6.7-1.3 1.2-2.2 1.6-.8.4-1.7.6-2.7.6zm-5.43-7.44c0 .8.13 1.56.4 2.3.25.74.63 1.4 1.1 1.96.5.58 1.06 1.03 1.72 1.37.66.34 1.4.5 2.2.5.84 0 1.6-.18 2.26-.53.7-.36 1.3-.83 1.8-1.4.5-.6.9-1.24 1.1-1.97.3-.73.4-1.48.4-2.23 0-.8-.1-1.57-.4-2.3-.2-.74-.6-1.4-1.1-1.96-.5-.56-1-1-1.7-1.35-.6-.34-1.4-.5-2.2-.5-.8 0-1.5.17-2.2.52-.6.35-1.2.82-1.7 1.4-.4.57-.8 1.23-1.1 1.96-.2.8-.3 1.5-.3 2.3zm22.37 7.33V.6h6.2c.64 0 1.22.14 1.75.4.53.28 1 .63 1.37 1.06.4.43.7.93.9 1.48.22.55.32 1.1.32 1.67 0 .6-.08 1.1-.24 1.6-.15.5-.37 1-.66 1.3-.28.4-.62.8-1.02 1-.4.3-.85.5-1.34.6l3.6 5.7h-1.64L95.3 9.9h-4.36v5.4H89.5zm1.45-6.7h4.8c.42 0 .8-.08 1.16-.27.4-.2.7-.44.9-.75.3-.32.5-.68.6-1.08.2-.4.2-.82.2-1.26 0-.4 0-.8-.2-1.2-.1-.4-.3-.7-.6-1-.2-.3-.6-.5-.9-.7-.3-.2-.7-.2-1.1-.2H91v6.7zm19 6.8c-1.03 0-1.96-.2-2.8-.62-.86-.43-1.58-.98-2.2-1.68-.6-.7-1.07-1.5-1.4-2.38-.33-.9-.5-1.9-.5-2.8 0-1 .18-1.9.53-2.8.36-.9.84-1.7 1.46-2.4s1.35-1.2 2.2-1.7c.83-.4 1.74-.6 2.72-.6 1.02 0 1.95.2 2.8.6.84.4 1.57 1 2.17 1.7.6.7 1.06 1.5 1.4 2.4.32.9.5 1.8.5 2.7 0 1-.2 1.9-.54 2.8-.4.9-.9 1.6-1.5 2.3-.6.7-1.4 1.2-2.2 1.6-.9.4-1.8.6-2.7.6zm-5.45-7.43c0 .8.14 1.56.4 2.3.26.74.63 1.4 1.1 1.96a5.7 5.7 0 0 0 1.73 1.37c.66.34 1.4.5 2.2.5.83 0 1.6-.18 2.26-.53.6-.36 1.2-.83 1.7-1.4.4-.6.8-1.24 1.1-1.97.2-.73.3-1.48.3-2.23 0-.8-.2-1.57-.4-2.3-.3-.74-.7-1.4-1.2-1.96s-1.1-1-1.7-1.35c-.7-.34-1.4-.5-2.2-.5-.9 0-1.6.17-2.3.52-.7.35-1.3.82-1.8 1.4-.5.57-.9 1.23-1.1 1.96-.3.8-.4 1.5-.4 2.3zM130.43 14v1.27h-9.85V.6h9.67v1.28h-8.23v5.3h7.17v1.2H122V14h8.4zm9.7.07c.94 0 1.7-.17 2.3-.52.63-.35 1.1-.82 1.48-1.4.4-.56.7-1.2.8-1.94.2-.7.2-1.4.2-2.2V.6h1.5V8c0 1-.1 1.93-.3 2.82-.2.9-.5 1.67-1 2.35-.5.67-1.1 1.2-1.9 1.6-.8.4-1.7.6-2.9.6s-2.1-.2-2.9-.62c-.8-.43-1.4-.98-1.9-1.67-.4-.7-.8-1.47-1-2.35-.2-.88-.3-1.8-.3-2.73V.6h1.4V8c0 .77.1 1.52.3 2.25s.4 1.38.8 1.94c.4.5.9 1 1.5 1.3.6.3 1.4.5 2.3.5zM161.03.6h1.23l6.1 14.67h-1.53l-1.9-4.58h-6.6l-1.88 4.5h-1.55L161 .6zm3.56 8.95l-3-7.25-3 7.25h5.9zm12.5 5.72V.6h6.2c.6 0 1.2.14 1.7.4.5.28.9.63 1.3 1.06.4.43.7.93.9 1.48.2.55.3 1.1.3 1.67 0 .6-.1 1.1-.3 1.6s-.4 1-.7 1.3c-.3.4-.7.8-1.1 1-.4.3-.8.5-1.3.6l3.6 5.7H186l-3.4-5.4h-4.33v5.4H177zm1.4-6.7h4.7c.4 0 .8-.08 1.1-.27.3-.2.6-.44.9-.75.2-.32.4-.68.6-1.08.1-.4.2-.82.2-1.26 0-.4-.1-.8-.3-1.2-.2-.4-.4-.7-.7-1-.3-.3-.6-.5-.9-.7-.4-.2-.8-.2-1.2-.2h-4.7v6.7zm18.9 6.8c-1 0-2-.2-2.8-.62-.9-.43-1.6-.98-2.2-1.68-.6-.7-1.1-1.5-1.4-2.38-.4-.9-.5-1.9-.5-2.8 0-1 .1-1.9.5-2.8.3-.9.8-1.7 1.4-2.4s1.3-1.2 2.2-1.7c.8-.4 1.7-.6 2.7-.6 1 0 1.9.2 2.8.6.8.4 1.5 1 2.1 1.7.6.7 1 1.5 1.4 2.4.3.9.5 1.8.5 2.7 0 1-.2 1.9-.6 2.8-.4.9-.8 1.6-1.4 2.3-.7.7-1.4 1.2-2.2 1.6-.9.4-1.8.6-2.8.6zM192 7.94c0 .8.15 1.56.4 2.3.27.74.64 1.4 1.1 1.96.5.58 1.08 1.03 1.74 1.37.66.34 1.4.5 2.2.5.84 0 1.6-.18 2.26-.53a5.3 5.3 0 0 0 1.7-1.4c.48-.6.85-1.24 1.1-1.97.26-.73.38-1.48.38-2.23 0-.8-.1-1.57-.4-2.3-.25-.74-.6-1.4-1.1-1.96-.5-.56-1.06-1-1.7-1.35-.68-.34-1.4-.5-2.2-.5-.84 0-1.6.17-2.26.52-.7.35-1.28.82-1.75 1.4-.45.57-.8 1.23-1.06 1.96-.2.8-.4 1.5-.4 2.3zm22.04 6.13c.92 0 1.7-.17 2.3-.52.62-.35 1.1-.82 1.47-1.4.4-.56.7-1.2.8-1.94.2-.7.2-1.4.2-2.2V.6h1.5V8c0 1-.1 1.93-.3 2.82-.2.9-.6 1.67-1.1 2.35-.5.67-1.1 1.2-1.9 1.6-.8.4-1.7.6-2.9.6s-2.2-.2-2.9-.62c-.8-.43-1.4-.98-1.9-1.67-.4-.7-.8-1.47-1-2.35-.2-.88-.3-1.8-.3-2.73V.6h1.5V8c0 .77.1 1.52.2 2.25.2.73.5 1.38.8 1.94.4.5.9 1 1.5 1.3.6.3 1.3.5 2.3.5zm10.7 1.2V.6h6.06c.64 0 1.2.14 1.75.4.56.28 1 .63 1.4 1.06.4.43.7.93.9 1.48.23.55.34 1.1.34 1.67 0 .7-.1 1.2-.3 1.8-.2.6-.5 1.1-.9 1.5-.4.5-.8.8-1.3 1.1s-1.1.4-1.8.4h-4.8v5.4h-1.5zm1.44-6.7h4.7c.4 0 .8-.08 1.14-.27.34-.2.64-.43.9-.74.24-.3.43-.67.6-1.08.1-.4.2-.83.2-1.27 0-.4-.1-.8-.26-1.2-.2-.4-.4-.7-.67-1-.3-.3-.6-.5-1-.7-.4-.1-.8-.2-1.2-.2H226v6.7zM242.34.6h1.2l6.1 14.67h-1.52l-1.9-4.58h-6.6l-1.87 4.5h-1.55L242.4.6zm3.55 8.95l-3-7.25-3 7.25h5.9zm12.5 5.72V.6h5c1.1 0 2.2.2 3 .58.9.4 1.6.9 2.2 1.57.6.66 1 1.44 1.3 2.33.3.9.4 1.83.4 2.84 0 1.1-.2 2.12-.5 3.02-.4.9-.8 1.68-1.4 2.32-.7.64-1.4 1.13-2.3 1.5-.9.34-1.9.5-2.9.5h-5zM269 7.92c0-.88-.1-1.7-.36-2.43-.25-.8-.6-1.4-1.08-2-.48-.6-1.06-1-1.75-1.3-.7-.3-1.4-.5-2.3-.5H260v12.1h3.58c.9 0 1.73-.2 2.4-.5.7-.3 1.3-.7 1.77-1.3s.83-1.2 1.07-2c.23-.7.35-1.5.35-2.4zm11.17 7.46c-1.02 0-1.95-.2-2.8-.63-.85-.43-1.57-.98-2.18-1.68-.6-.7-1.1-1.5-1.4-2.38-.4-.9-.5-1.9-.5-2.8 0-1 .1-1.9.5-2.8.3-.9.8-1.7 1.4-2.4s1.3-1.2 2.2-1.7c.8-.4 1.7-.6 2.7-.6 1 0 1.9.2 2.8.6.8.4 1.5 1 2.1 1.7.6.7 1 1.5 1.4 2.4.3.9.5 1.8.5 2.7 0 1-.2 1.9-.6 2.8-.4.9-.9 1.6-1.5 2.3-.7.7-1.4 1.2-2.2 1.6-.9.4-1.8.6-2.8.6zm-5.44-7.44c0 .8.14 1.56.4 2.3.26.74.63 1.4 1.1 1.96a5.7 5.7 0 0 0 1.73 1.37c.66.34 1.4.5 2.2.5.83 0 1.6-.18 2.26-.53.68-.36 1.25-.83 1.72-1.4.46-.6.83-1.24 1.08-1.97.26-.73.38-1.48.38-2.23 0-.8-.1-1.57-.4-2.3-.23-.74-.6-1.4-1.1-1.96a6 6 0 0 0-1.7-1.35c-.66-.34-1.4-.5-2.2-.5-.82 0-1.6.17-2.24.52-.68.35-1.25.82-1.72 1.4-.46.57-.82 1.23-1.07 1.96-.26.8-.4 1.5-.4 2.3zm22.38 7.33V.6h6.2c.7 0 1.2.14 1.8.4.6.28 1 .63 1.4 1.06.4.43.7.93.9 1.48.2.55.3 1.1.3 1.67 0 .6-.1 1.1-.2 1.6s-.3 1-.6 1.3c-.3.4-.6.8-1 1-.4.3-.8.5-1.3.6l3.6 5.7h-1.6L303 10h-4.32v5.4h-1.44zm1.5-6.7h4.8c.4 0 .8-.08 1.2-.27.4-.2.7-.44.9-.75.3-.32.5-.68.6-1.08.2-.4.2-.82.2-1.26 0-.4 0-.8-.2-1.2-.1-.4-.3-.7-.6-1-.2-.3-.6-.5-.9-.7-.3-.2-.7-.2-1.1-.2h-4.6v6.7zM321.5 14v1.27h-9.86V.6h9.67v1.28h-8.2v5.3h7.2v1.2h-7.1V14h8.4zM325.26.6h1.45v14.67h-1.4zm12.46 14.67V.6h4.98c1.17 0 2.2.2 3.06.58.88.4 1.6.9 2.2 1.57.58.66 1.02 1.44 1.32 2.33.3.9.44 1.83.44 2.84 0 1.1-.16 2.12-.5 3.02-.33.9-.8 1.68-1.4 2.32-.62.64-1.36 1.13-2.22 1.5-.86.34-1.83.5-2.9.5h-4.98zm10.55-7.35c0-.88-.12-1.7-.37-2.43-.24-.8-.6-1.4-1.08-2-.48-.6-1.06-1-1.75-1.3-.7-.3-1.48-.5-2.37-.5h-3.54v12.1h3.54c.9 0 1.7-.2 2.4-.5s1.28-.7 1.75-1.3.82-1.2 1.06-2c.3-.7.4-1.5.4-2.4zm15.1 6.08v1.27h-9.85V.6h9.67v1.28h-8.3v5.3h7.1v1.2h-7.2V14h8.4zm10.07 1.27V.6h6.2c.63 0 1.2.14 1.74.4.53.28 1 .63 1.38 1.06.38.43.68.93.9 1.48.2.55.32 1.1.32 1.67 0 .6-.08 1.1-.24 1.6-.16.5-.38 1-.66 1.3-.28.4-.63.8-1.03 1-.4.3-.84.5-1.34.6l3.6 5.7h-1.6l-3.4-5.4H375v5.4h-1.45zm1.45-6.7h4.7c.4 0 .8-.08 1.1-.27.3-.2.6-.44.9-.75.2-.32.4-.68.5-1.08s.2-.82.2-1.26c0-.4-.1-.8-.3-1.2-.2-.4-.4-.7-.7-1-.3-.3-.6-.5-1-.7-.4-.2-.8-.2-1.2-.2h-4.7v6.7zm18.9 6.8c-1 0-2-.2-2.8-.62-.9-.43-1.6-.98-2.2-1.68-.6-.7-1.1-1.5-1.4-2.38-.4-.9-.5-1.9-.5-2.8 0-1 .1-1.9.5-2.8.3-.9.8-1.7 1.4-2.4s1.3-1.2 2.2-1.7c.8-.4 1.7-.6 2.7-.6 1 0 1.9.2 2.8.6.8.4 1.6 1 2.2 1.7.6.7 1 1.5 1.4 2.4.3.9.5 1.8.5 2.7 0 1-.2 1.9-.6 2.8-.4.9-.9 1.6-1.5 2.3-.6.7-1.3 1.2-2.2 1.6-.9.4-1.8.6-2.8.6zm-5.5-7.43c0 .8.1 1.56.4 2.3.2.74.6 1.4 1.1 1.96.5.58 1 1.03 1.7 1.37.6.34 1.4.5 2.2.5.8 0 1.6-.18 2.2-.53.7-.36 1.2-.83 1.7-1.4.5-.6.8-1.24 1.1-1.97.2-.73.4-1.48.4-2.23 0-.8-.2-1.57-.4-2.3-.3-.74-.7-1.4-1.2-1.96s-1.1-1-1.8-1.35c-.7-.34-1.4-.5-2.2-.5-.8 0-1.6.17-2.3.52-.66.35-1.24.82-1.7 1.4a6.71 6.71 0 0 0-1.1 1.96c-.24.8-.37 1.5-.37 2.3zm29 7.33V3.23l-5.3 9.32h-.9l-5.3-9.32v12.04h-1.5V.6h1.5l5.7 10.04 6-10.04h1.4v14.67h-1.5zM428.2.6h1.23l6.1 14.67H434l-1.9-4.58h-6.6l-1.9 4.5h-1.54L428.2.6zm3.56 8.95L428.8 2.3l-3 7.25h5.96z"/><path d="M7.38 15.38c-1.02 0-1.95-.2-2.8-.63-.85-.43-1.57-.98-2.18-1.68-.6-.7-1.07-1.5-1.4-2.38A8.26 8.26 0 0 1 .5 7.9c0-.98.18-1.92.53-2.8.35-.9.83-1.7 1.45-2.4.62-.68 1.35-1.22 2.2-1.63C5.5.7 6.4.5 7.4.5c1.02 0 1.95.22 2.8.65.85.44 1.57 1 2.17 1.7.6.7 1.06 1.5 1.4 2.4.32.88.5 1.8.5 2.7 0 1-.2 1.92-.54 2.82-.35.9-.83 1.68-1.44 2.36-.7.7-1.4 1.23-2.2 1.64-.9.4-1.8.6-2.8.6zM1.95 7.94c0 .8.13 1.56.4 2.3.25.74.62 1.4 1.1 1.96.5.58 1.06 1.03 1.72 1.37.66.34 1.4.5 2.2.5.84 0 1.6-.18 2.26-.53.68-.36 1.25-.83 1.72-1.4.47-.6.83-1.24 1.08-1.97.26-.73.38-1.48.38-2.23 0-.8-.1-1.57-.4-2.3-.2-.74-.6-1.4-1.1-1.96-.5-.56-1-1-1.7-1.35-.6-.34-1.4-.5-2.2-.5-.8 0-1.6.17-2.2.52-.7.35-1.2.82-1.7 1.4-.5.57-.8 1.23-1.1 1.95C2.1 6.5 2 7.2 2 8zm32.97 5.18c-1.36 1.5-2.93 2.26-4.7 2.26-1 0-1.9-.22-2.75-.64-.83-.43-1.55-1-2.17-1.7-.6-.7-1.1-1.5-1.43-2.38-.35-.9-.52-1.8-.52-2.74 0-.98.17-1.92.5-2.8.34-.9.82-1.7 1.42-2.38.6-.68 1.32-1.22 2.15-1.63.83-.4 1.73-.6 2.7-.6.72 0 1.38.1 1.97.3.5.2 1.1.4 1.5.7.4.3.8.7 1.2 1 .3.4.6.9.8 1.3l-1.1.8c-.5-.9-1.1-1.6-1.9-2-.8-.4-1.7-.6-2.6-.6-.8 0-1.6.2-2.2.6-.7.4-1.2.8-1.7 1.4-.5.6-.8 1.3-1.1 2s-.4 1.5-.4 2.3c0 .9.1 1.6.4 2.4.2.7.6 1.4 1.1 2 .5.57 1.1 1 1.7 1.3.64.3 1.4.5 2.2.5.82 0 1.7-.2 2.4-.6.73-.4 1.5-1 2.2-1.9V9.2h-3.2V8.06H36v7.2h-1.2v-2.14zM44.7.6h1.2L52 15.27h-1.5l-1.9-4.58H42l-1.87 4.5H38.6L44.7.6zm3.55 8.95L45.3 2.3l-3 7.25h5.95zM64.1 1.88h-5.2v13.4h-1.46V1.88H52.2V.6h11.9v1.28zm8.46 13.5c-1.02 0-1.95-.2-2.8-.63-.84-.43-1.57-.98-2.18-1.68-.6-.7-1.07-1.5-1.4-2.38-.33-.9-.5-1.9-.5-2.8 0-1 .18-1.9.53-2.8.4-.9.9-1.7 1.5-2.4s1.4-1.2 2.2-1.7c.9-.4 1.8-.6 2.7-.6 1.1 0 2 .2 2.8.6.9.4 1.6 1 2.2 1.7.6.7 1.1 1.5 1.4 2.4.4.9.5 1.8.5 2.7 0 1-.2 1.9-.5 2.8-.3.9-.8 1.6-1.4 2.3-.6.7-1.3 1.2-2.2 1.6-.8.4-1.7.6-2.7.6zm-5.43-7.44c0 .8.13 1.56.4 2.3.25.74.63 1.4 1.1 1.96.5.58 1.06 1.03 1.72 1.37.66.34 1.4.5 2.2.5.84 0 1.6-.18 2.26-.53.7-.36 1.3-.83 1.8-1.4.5-.6.9-1.24 1.1-1.97.3-.73.4-1.48.4-2.23 0-.8-.1-1.57-.4-2.3-.2-.74-.6-1.4-1.1-1.96-.5-.56-1-1-1.7-1.35-.6-.34-1.4-.5-2.2-.5-.8 0-1.5.17-2.2.52-.6.35-1.2.82-1.7 1.4-.4.57-.8 1.23-1.1 1.96-.2.8-.3 1.5-.3 2.3zm22.37 7.33V.6h6.2c.64 0 1.22.14 1.75.4.53.28 1 .63 1.37 1.06.4.43.7.93.9 1.48.22.55.32 1.1.32 1.67 0 .6-.08 1.1-.24 1.6-.15.5-.37 1-.66 1.3-.28.4-.62.8-1.02 1-.4.3-.85.5-1.34.6l3.6 5.7h-1.64L95.3 9.9h-4.36v5.4H89.5zm1.45-6.7h4.8c.42 0 .8-.08 1.16-.27.4-.2.7-.44.9-.75.3-.32.5-.68.6-1.08.2-.4.2-.82.2-1.26 0-.4 0-.8-.2-1.2-.1-.4-.3-.7-.6-1-.2-.3-.6-.5-.9-.7-.3-.2-.7-.2-1.1-.2H91v6.7zm19 6.8c-1.03 0-1.96-.2-2.8-.62-.86-.43-1.58-.98-2.2-1.68-.6-.7-1.07-1.5-1.4-2.38-.33-.9-.5-1.9-.5-2.8 0-1 .18-1.9.53-2.8.36-.9.84-1.7 1.46-2.4s1.35-1.2 2.2-1.7c.83-.4 1.74-.6 2.72-.6 1.02 0 1.95.2 2.8.6.84.4 1.57 1 2.17 1.7.6.7 1.06 1.5 1.4 2.4.32.9.5 1.8.5 2.7 0 1-.2 1.9-.54 2.8-.4.9-.9 1.6-1.5 2.3-.6.7-1.4 1.2-2.2 1.6-.9.4-1.8.6-2.7.6zm-5.45-7.43c0 .8.14 1.56.4 2.3.26.74.63 1.4 1.1 1.96a5.7 5.7 0 0 0 1.73 1.37c.66.34 1.4.5 2.2.5.83 0 1.6-.18 2.26-.53.6-.36 1.2-.83 1.7-1.4.4-.6.8-1.24 1.1-1.97.2-.73.3-1.48.3-2.23 0-.8-.2-1.57-.4-2.3-.3-.74-.7-1.4-1.2-1.96s-1.1-1-1.7-1.35c-.7-.34-1.4-.5-2.2-.5-.9 0-1.6.17-2.3.52-.7.35-1.3.82-1.8 1.4-.5.57-.9 1.23-1.1 1.96-.3.8-.4 1.5-.4 2.3zM130.43 14v1.27h-9.85V.6h9.67v1.28h-8.23v5.3h7.17v1.2H122V14h8.4zm9.7.07c.94 0 1.7-.17 2.3-.52.63-.35 1.1-.82 1.48-1.4.4-.56.7-1.2.8-1.94.2-.7.2-1.4.2-2.2V.6h1.5V8c0 1-.1 1.93-.3 2.82-.2.9-.5 1.67-1 2.35-.5.67-1.1 1.2-1.9 1.6-.8.4-1.7.6-2.9.6s-2.1-.2-2.9-.62c-.8-.43-1.4-.98-1.9-1.67-.4-.7-.8-1.47-1-2.35-.2-.88-.3-1.8-.3-2.73V.6h1.4V8c0 .77.1 1.52.3 2.25s.4 1.38.8 1.94c.4.5.9 1 1.5 1.3.6.3 1.4.5 2.3.5zM161.03.6h1.23l6.1 14.67h-1.53l-1.9-4.58h-6.6l-1.88 4.5h-1.55L161 .6zm3.56 8.95l-3-7.25-3 7.25h5.9zm12.5 5.72V.6h6.2c.6 0 1.2.14 1.7.4.5.28.9.63 1.3 1.06.4.43.7.93.9 1.48.2.55.3 1.1.3 1.67 0 .6-.1 1.1-.3 1.6s-.4 1-.7 1.3c-.3.4-.7.8-1.1 1-.4.3-.8.5-1.3.6l3.6 5.7H186l-3.4-5.4h-4.33v5.4H177zm1.4-6.7h4.7c.4 0 .8-.08 1.1-.27.3-.2.6-.44.9-.75.2-.32.4-.68.6-1.08.1-.4.2-.82.2-1.26 0-.4-.1-.8-.3-1.2-.2-.4-.4-.7-.7-1-.3-.3-.6-.5-.9-.7-.4-.2-.8-.2-1.2-.2h-4.7v6.7zm18.9 6.8c-1 0-2-.2-2.8-.62-.9-.43-1.6-.98-2.2-1.68-.6-.7-1.1-1.5-1.4-2.38-.4-.9-.5-1.9-.5-2.8 0-1 .1-1.9.5-2.8.3-.9.8-1.7 1.4-2.4s1.3-1.2 2.2-1.7c.8-.4 1.7-.6 2.7-.6 1 0 1.9.2 2.8.6.8.4 1.5 1 2.1 1.7.6.7 1 1.5 1.4 2.4.3.9.5 1.8.5 2.7 0 1-.2 1.9-.6 2.8-.4.9-.8 1.6-1.4 2.3-.7.7-1.4 1.2-2.2 1.6-.9.4-1.8.6-2.8.6zM192 7.94c0 .8.15 1.56.4 2.3.27.74.64 1.4 1.1 1.96.5.58 1.08 1.03 1.74 1.37.66.34 1.4.5 2.2.5.84 0 1.6-.18 2.26-.53a5.3 5.3 0 0 0 1.7-1.4c.48-.6.85-1.24 1.1-1.97.26-.73.38-1.48.38-2.23 0-.8-.1-1.57-.4-2.3-.25-.74-.6-1.4-1.1-1.96-.5-.56-1.06-1-1.7-1.35-.68-.34-1.4-.5-2.2-.5-.84 0-1.6.17-2.26.52-.7.35-1.28.82-1.75 1.4-.45.57-.8 1.23-1.06 1.96-.2.8-.4 1.5-.4 2.3zm22.04 6.13c.92 0 1.7-.17 2.3-.52.62-.35 1.1-.82 1.47-1.4.4-.56.7-1.2.8-1.94.2-.7.2-1.4.2-2.2V.6h1.5V8c0 1-.1 1.93-.3 2.82-.2.9-.6 1.67-1.1 2.35-.5.67-1.1 1.2-1.9 1.6-.8.4-1.7.6-2.9.6s-2.2-.2-2.9-.62c-.8-.43-1.4-.98-1.9-1.67-.4-.7-.8-1.47-1-2.35-.2-.88-.3-1.8-.3-2.73V.6h1.5V8c0 .77.1 1.52.2 2.25.2.73.5 1.38.8 1.94.4.5.9 1 1.5 1.3.6.3 1.3.5 2.3.5zm10.7 1.2V.6h6.06c.64 0 1.2.14 1.75.4.56.28 1 .63 1.4 1.06.4.43.7.93.9 1.48.23.55.34 1.1.34 1.67 0 .7-.1 1.2-.3 1.8-.2.6-.5 1.1-.9 1.5-.4.5-.8.8-1.3 1.1s-1.1.4-1.8.4h-4.8v5.4h-1.5zm1.44-6.7h4.7c.4 0 .8-.08 1.14-.27.34-.2.64-.43.9-.74.24-.3.43-.67.6-1.08.1-.4.2-.83.2-1.27 0-.4-.1-.8-.26-1.2-.2-.4-.4-.7-.67-1-.3-.3-.6-.5-1-.7-.4-.1-.8-.2-1.2-.2H226v6.7zM242.34.6h1.2l6.1 14.67h-1.52l-1.9-4.58h-6.6l-1.87 4.5h-1.55L242.4.6zm3.55 8.95l-3-7.25-3 7.25h5.9zm12.5 5.72V.6h5c1.1 0 2.2.2 3 .58.9.4 1.6.9 2.2 1.57.6.66 1 1.44 1.3 2.33.3.9.4 1.83.4 2.84 0 1.1-.2 2.12-.5 3.02-.4.9-.8 1.68-1.4 2.32-.7.64-1.4 1.13-2.3 1.5-.9.34-1.9.5-2.9.5h-5zM269 7.92c0-.88-.1-1.7-.36-2.43-.25-.8-.6-1.4-1.08-2-.48-.6-1.06-1-1.75-1.3-.7-.3-1.4-.5-2.3-.5H260v12.1h3.58c.9 0 1.73-.2 2.4-.5.7-.3 1.3-.7 1.77-1.3s.83-1.2 1.07-2c.23-.7.35-1.5.35-2.4zm11.17 7.46c-1.02 0-1.95-.2-2.8-.63-.85-.43-1.57-.98-2.18-1.68-.6-.7-1.1-1.5-1.4-2.38-.4-.9-.5-1.9-.5-2.8 0-1 .1-1.9.5-2.8.3-.9.8-1.7 1.4-2.4s1.3-1.2 2.2-1.7c.8-.4 1.7-.6 2.7-.6 1 0 1.9.2 2.8.6.8.4 1.5 1 2.1 1.7.6.7 1 1.5 1.4 2.4.3.9.5 1.8.5 2.7 0 1-.2 1.9-.6 2.8-.4.9-.9 1.6-1.5 2.3-.7.7-1.4 1.2-2.2 1.6-.9.4-1.8.6-2.8.6zm-5.44-7.44c0 .8.14 1.56.4 2.3.26.74.63 1.4 1.1 1.96a5.7 5.7 0 0 0 1.73 1.37c.66.34 1.4.5 2.2.5.83 0 1.6-.18 2.26-.53.68-.36 1.25-.83 1.72-1.4.46-.6.83-1.24 1.08-1.97.26-.73.38-1.48.38-2.23 0-.8-.1-1.57-.4-2.3-.23-.74-.6-1.4-1.1-1.96a6 6 0 0 0-1.7-1.35c-.66-.34-1.4-.5-2.2-.5-.82 0-1.6.17-2.24.52-.68.35-1.25.82-1.72 1.4-.46.57-.82 1.23-1.07 1.96-.26.8-.4 1.5-.4 2.3zm22.38 7.33V.6h6.2c.7 0 1.2.14 1.8.4.6.28 1 .63 1.4 1.06.4.43.7.93.9 1.48.2.55.3 1.1.3 1.67 0 .6-.1 1.1-.2 1.6s-.3 1-.6 1.3c-.3.4-.6.8-1 1-.4.3-.8.5-1.3.6l3.6 5.7h-1.6L303 10h-4.32v5.4h-1.44zm1.5-6.7h4.8c.4 0 .8-.08 1.2-.27.4-.2.7-.44.9-.75.3-.32.5-.68.6-1.08.2-.4.2-.82.2-1.26 0-.4 0-.8-.2-1.2-.1-.4-.3-.7-.6-1-.2-.3-.6-.5-.9-.7-.3-.2-.7-.2-1.1-.2h-4.6v6.7zM321.5 14v1.27h-9.86V.6h9.67v1.28h-8.2v5.3h7.2v1.2h-7.1V14h8.4zM325.26.6h1.45v14.67h-1.4zm12.46 14.67V.6h4.98c1.17 0 2.2.2 3.06.58.88.4 1.6.9 2.2 1.57.58.66 1.02 1.44 1.32 2.33.3.9.44 1.83.44 2.84 0 1.1-.16 2.12-.5 3.02-.33.9-.8 1.68-1.4 2.32-.62.64-1.36 1.13-2.22 1.5-.86.34-1.83.5-2.9.5h-4.98zm10.55-7.35c0-.88-.12-1.7-.37-2.43-.24-.8-.6-1.4-1.08-2-.48-.6-1.06-1-1.75-1.3-.7-.3-1.48-.5-2.37-.5h-3.54v12.1h3.54c.9 0 1.7-.2 2.4-.5s1.28-.7 1.75-1.3.82-1.2 1.06-2c.3-.7.4-1.5.4-2.4zm15.1 6.08v1.27h-9.85V.6h9.67v1.28h-8.3v5.3h7.1v1.2h-7.2V14h8.4zm10.07 1.27V.6h6.2c.63 0 1.2.14 1.74.4.53.28 1 .63 1.38 1.06.38.43.68.93.9 1.48.2.55.32 1.1.32 1.67 0 .6-.08 1.1-.24 1.6-.16.5-.38 1-.66 1.3-.28.4-.63.8-1.03 1-.4.3-.84.5-1.34.6l3.6 5.7h-1.6l-3.4-5.4H375v5.4h-1.45zm1.45-6.7h4.7c.4 0 .8-.08 1.1-.27.3-.2.6-.44.9-.75.2-.32.4-.68.5-1.08s.2-.82.2-1.26c0-.4-.1-.8-.3-1.2-.2-.4-.4-.7-.7-1-.3-.3-.6-.5-1-.7-.4-.2-.8-.2-1.2-.2h-4.7v6.7zm18.9 6.8c-1 0-2-.2-2.8-.62-.9-.43-1.6-.98-2.2-1.68-.6-.7-1.1-1.5-1.4-2.38-.4-.9-.5-1.9-.5-2.8 0-1 .1-1.9.5-2.8.3-.9.8-1.7 1.4-2.4s1.3-1.2 2.2-1.7c.8-.4 1.7-.6 2.7-.6 1 0 1.9.2 2.8.6.8.4 1.6 1 2.2 1.7.6.7 1 1.5 1.4 2.4.3.9.5 1.8.5 2.7 0 1-.2 1.9-.6 2.8-.4.9-.9 1.6-1.5 2.3-.6.7-1.3 1.2-2.2 1.6-.9.4-1.8.6-2.8.6zm-5.5-7.43c0 .8.1 1.56.4 2.3.2.74.6 1.4 1.1 1.96.5.58 1 1.03 1.7 1.37.6.34 1.4.5 2.2.5.8 0 1.6-.18 2.2-.53.7-.36 1.2-.83 1.7-1.4.5-.6.8-1.24 1.1-1.97.2-.73.4-1.48.4-2.23 0-.8-.2-1.57-.4-2.3-.3-.74-.7-1.4-1.2-1.96s-1.1-1-1.8-1.35c-.7-.34-1.4-.5-2.2-.5-.8 0-1.6.17-2.3.52-.66.35-1.24.82-1.7 1.4a6.71 6.71 0 0 0-1.1 1.96c-.24.8-.37 1.5-.37 2.3zm29 7.33V3.23l-5.3 9.32h-.9l-5.3-9.32v12.04h-1.5V.6h1.5l5.7 10.04 6-10.04h1.4v14.67h-1.5zM428.2.6h1.23l6.1 14.67H434l-1.9-4.58h-6.6l-1.9 4.5h-1.54L428.2.6zm3.56 8.95L428.8 2.3l-3 7.25h5.96z" stroke="#fff" stroke-width=".99"/></g></svg>