<svg viewBox="0 0 351 21" xmlns="http://www.w3.org/2000/svg" fill-rule="evenodd" clip-rule="evenodd" stroke-linejoin="round" stroke-miterlimit="1.41"><g fill="none"><path d="M12.3 9.12c0 1.44-.23 2.7-.7 3.77-.5 1-1.18 1.8-2.07 2.4-.9.5-1.92.8-3.1.8-1.17 0-2.2-.3-3.1-.9-.88-.6-1.57-1.4-2.07-2.5-.5-1-.76-2.3-.76-3.6v-1c0-1.4.25-2.7.74-3.8.5-1.1 1.18-1.9 2.08-2.5.9-.5 1.93-.8 3.08-.8 1.18 0 2.22.3 3.1.8.9.6 1.6 1.4 2.1 2.5.47 1 .7 2.3.7 3.7v1zm-1.9-.94c0-1.74-.36-3.08-1.06-4-.7-.94-1.68-1.4-2.94-1.4-1.22 0-2.2.46-2.9 1.4-.7.92-1.05 2.2-1.07 3.87v1.07c0 1.7.35 3.02 1.06 3.98.7.97 1.6 1.45 2.9 1.45 1.2 0 2.2-.45 2.9-1.36.7-1 1-2.3 1-4V8.1zm11.26 2.27c0-1.7.4-3.06 1.18-4.06.8-1.1 1.83-1.6 3.13-1.6 1.33 0 2.37.4 3.12 1.4V5h1.7v10.7c0 1.4-.4 2.54-1.3 3.35-.9.82-2 1.22-3.4 1.22-.8 0-1.6-.17-2.3-.5-.8-.35-1.4-.8-1.8-1.4l.9-1.1c.8.97 1.7 1.47 2.9 1.47.9 0 1.6-.26 2.1-.77.5-.5.7-1.23.7-2.16v-.9c-.8.9-1.8 1.3-3.1 1.3s-2.3-.5-3.1-1.5c-.8-1-1.2-2.4-1.2-4.2zm1.88.2c0 1.24.25 2.2.76 2.9.5.7 1.2 1.06 2.1 1.06 1.2 0 2.06-.5 2.6-1.6V8.1c-.56-1.1-1.42-1.6-2.57-1.6-.9 0-1.6.34-2.12 1.05-.5.7-.7 1.75-.7 3.14zM41.47 16c-.1-.22-.2-.6-.26-1.15-.8.9-1.9 1.35-3.1 1.35-1 0-1.9-.3-2.6-.92-.7-.6-1-1.38-1-2.3 0-1.15.5-2.03 1.3-2.66.9-.63 2.1-.94 3.7-.94h1.8v-.86c0-.65-.2-1.17-.6-1.56-.4-.4-.9-.58-1.7-.58-.7 0-1.2.17-1.7.5-.4.34-.6.75-.6 1.23h-1.9c0-.5.2-1 .6-1.5.4-.5.9-.9 1.6-1.2.7-.3 1.4-.4 2.2-.4 1.3 0 2.3.3 3 1 .7.7 1.1 1.5 1.1 2.6v5c0 1 .1 1.8.4 2.4v.1h-2zm-3.1-1.43c.6 0 1.14-.15 1.67-.45.52-.3.9-.7 1.14-1.18V10.7H39.7c-2.27 0-3.42.67-3.42 2 0 .6.2 1.05.6 1.38.38.33.88.5 1.5.5zM49.53 2.44v2.64h2.04v1.44h-2.04v6.78c0 .44.1.77.28.98.2.22.5.33 1 .33.2 0 .5 0 .9-.1V16c-.5.13-1 .2-1.4.2-.8 0-1.4-.25-1.9-.76-.4-.5-.6-1.22-.6-2.15V6.5h-2V5.08h2V2.44h1.9zm4.57 8c0-1.07.2-2.03.62-2.9.42-.84 1-1.5 1.75-1.97.75-.46 1.6-.7 2.57-.7 1.5 0 2.7.52 3.6 1.55.93 1.03 1.38 2.4 1.38 4.1v.14c0 1.06-.2 2-.6 2.86-.4.84-1 1.5-1.75 1.97-.76.4-1.63.7-2.6.7-1.5 0-2.7-.6-3.6-1.6-.92-1.1-1.38-2.4-1.38-4.1v-.2zm1.86.22c0 1.2.3 2.18.85 2.9.6.75 1.4 1.1 2.3 1.1 1 0 1.7-.36 2.3-1.1.6-.74.9-1.8.9-3.12 0-1.2-.3-2.17-.8-2.9-.5-.76-1.3-1.14-2.2-1.14-.9 0-1.6.4-2.2 1.1-.5.8-.8 1.8-.8 3.2zm22.86-3.9c-.28-.05-.6-.08-.92-.08-1.22 0-2.05.52-2.5 1.57V16h-1.85V5.08h1.8l.04 1.26c.6-.97 1.4-1.46 2.6-1.46.3 0 .6.05.8.14v1.73zm2.05 3.68c0-1.07.2-2.03.63-2.9.42-.84 1-1.5 1.76-1.97.75-.46 1.6-.7 2.57-.7 1.48 0 2.7.52 3.6 1.55.92 1.03 1.38 2.4 1.38 4.1v.14c0 1.06-.2 2-.6 2.86-.4.84-1 1.5-1.7 1.97-.7.4-1.6.7-2.6.7-1.5 0-2.7-.6-3.6-1.6-.9-1.1-1.4-2.4-1.4-4.1v-.2zm1.88.22c0 1.2.28 2.18.84 2.9.5.75 1.3 1.1 2.2 1.1s1.7-.36 2.2-1.1c.5-.74.8-1.8.8-3.12 0-1.2-.3-2.17-.9-2.9-.6-.76-1.4-1.13-2.3-1.13-1 0-1.7.4-2.3 1.1-.6.8-.9 1.8-.9 3.2zM98.7 16.2c-1.47 0-2.67-.5-3.6-1.46-.93-.97-1.4-2.27-1.4-3.9v-.34c0-1.1.22-2.05.63-2.9.4-.85 1-1.52 1.74-2s1.54-.72 2.4-.72c1.43 0 2.53.47 3.32 1.4.7.94 1.1 2.27 1.1 4.02v.77h-7.4c0 1.08.3 1.95.9 2.6.6.67 1.3 1 2.3 1 .6 0 1.2-.13 1.6-.4.4-.27.8-.63 1.2-1.07l1.1.9c-.9 1.4-2.3 2.1-4.1 2.1zm-.22-9.8c-.75 0-1.38.3-1.9.83-.5.55-.82 1.32-.94 2.3h5.46V9.4c-.05-.95-.3-1.7-.76-2.2-.46-.53-1.08-.8-1.86-.8zm14.42 8.52c-.73.85-1.8 1.28-3.2 1.28-1.16 0-2.05-.34-2.65-1.02-.6-.67-.92-1.67-.93-3v-7.1H108v7.05c0 1.66.66 2.48 2 2.48 1.43 0 2.38-.5 2.85-1.5v-8h1.87V16h-1.78l-.04-1.08zM131.47 16c-.1-.22-.2-.6-.26-1.15-.8.9-1.9 1.35-3.1 1.35-1 0-1.9-.3-2.6-.92-.7-.6-1-1.38-1-2.3 0-1.15.5-2.03 1.3-2.66.9-.63 2.1-.94 3.7-.94h1.8v-.86c0-.65-.2-1.17-.6-1.56-.4-.4-.9-.58-1.7-.58-.7 0-1.2.17-1.7.5-.4.34-.6.75-.6 1.23h-1.9c0-.5.2-1 .6-1.5.4-.5.9-.9 1.6-1.2.7-.3 1.4-.4 2.2-.4 1.3 0 2.3.3 3 1 .7.7 1.1 1.5 1.1 2.6v5c0 1 .2 1.8.4 2.4v.1h-1.9zm-3.1-1.43c.6 0 1.14-.15 1.67-.45.52-.3.9-.7 1.14-1.18V10.7h-1.46c-2.3 0-3.43.67-3.43 2 0 .6.1 1.05.5 1.38.4.33.9.5 1.5.5zm20.06-7.82c-.28-.04-.6-.07-.92-.07-1.2 0-2 .52-2.4 1.57V16h-1.8V5.08h1.8l.1 1.26c.6-.97 1.5-1.46 2.6-1.46.4 0 .7.05.9.14v1.73zm2.05 3.7c0-1.08.2-2.04.63-2.9.5-.85 1-1.5 1.8-1.98.8-.46 1.6-.7 2.6-.7 1.5 0 2.7.52 3.6 1.55 1 1.03 1.4 2.4 1.4 4.1v.14c0 1.06-.2 2-.6 2.86-.4.84-1 1.5-1.7 1.97-.7.4-1.6.7-2.6.7-1.5 0-2.7-.6-3.6-1.6-.9-1.1-1.4-2.4-1.4-4.1v-.2zm1.88.2c0 1.2.28 2.2.84 2.9.56.76 1.3 1.1 2.25 1.1s1.7-.35 2.26-1.1c.6-.73.9-1.8.9-3.1 0-1.2-.3-2.18-.8-2.9-.5-.77-1.3-1.14-2.2-1.14-.9 0-1.6.4-2.2 1.1-.5.8-.8 1.8-.8 3.2zm18.17 4.27c-.73.85-1.8 1.28-3.2 1.28-1.16 0-2.05-.34-2.66-1.02-.6-.67-.9-1.67-.92-3v-7.1h1.86v7.05c0 1.66.7 2.48 2.1 2.48 1.5 0 2.4-.5 2.9-1.5v-8h1.9V16h-1.7v-1.08zm14.9-4.26c0 1.66-.38 3-1.14 4-.8 1.03-1.8 1.54-3.1 1.54-1.4 0-2.4-.42-3.2-1.26v5.25h-1.9V5h1.7l.1 1.2c.7-.93 1.8-1.4 3.1-1.4s2.3.5 3.1 1.48c.7 1 1.1 2.37 1.1 4.14v.16zm-1.86-.2c0-1.24-.27-2.22-.8-2.93-.52-.7-1.24-1.07-2.15-1.07-1.13 0-1.98.5-2.54 1.5v5.22c.56 1 1.4 1.5 2.56 1.5.9 0 1.6-.36 2.13-1.07.53-.7.8-1.7.8-3.1zm12 5.54c-.1-.22-.2-.6-.26-1.15-.8.9-1.9 1.35-3.1 1.35-1 0-1.9-.3-2.6-.92-.7-.6-1-1.38-1-2.3 0-1.15.5-2.03 1.3-2.66.9-.63 2.1-.94 3.7-.94h1.8v-.86c0-.65-.2-1.17-.5-1.56-.4-.4-.9-.58-1.7-.58-.6 0-1.2.17-1.6.5-.4.34-.6.75-.6 1.23h-2c0-.5.2-1 .6-1.5.4-.5.9-.9 1.6-1.2.7-.3 1.4-.4 2.2-.4 1.28 0 2.27.3 2.98 1 .7.7 1 1.5 1.1 2.6v5c0 1 .1 1.8.4 2.4v.1h-2zm-3.1-1.43c.6 0 1.15-.15 1.67-.45.53-.3.9-.7 1.14-1.18V10.7h-1.46c-2.3 0-3.43.67-3.43 2 0 .6.1 1.05.5 1.38.4.33.9.5 1.5.5zm14.33-4.12c0-1.68.4-3.02 1.2-4.04.78-1 1.82-1.5 3.1-1.5 1.3 0 2.3.5 3.04 1.3V.5H216V16h-1.7l-.1-1.18c-.74.92-1.78 1.38-3.1 1.38-1.28 0-2.3-.52-3.1-1.56-.8-1.03-1.2-2.38-1.2-4.05v-.2zm1.87.2c0 1.25.25 2.2.76 2.9.52.7 1.22 1.06 2.12 1.06 1.2 0 2.05-.5 2.6-1.5v-5c-.56-1-1.42-1.5-2.58-1.5-.9 0-1.62.4-2.14 1.1-.5.7-.76 1.8-.76 3.2zm10.78-.2c0-1.08.2-2.04.63-2.9.42-.85 1-1.5 1.75-1.98.75-.46 1.6-.7 2.57-.7 1.48 0 2.7.52 3.6 1.55.92 1.03 1.38 2.4 1.38 4.1v.14c0 1.06-.2 2-.6 2.86-.42.84-1 1.5-1.75 1.97-.76.4-1.63.7-2.6.7-1.5 0-2.7-.6-3.6-1.6-.93-1.1-1.38-2.4-1.38-4.1v-.2zm1.87.2c0 1.2.28 2.2.84 2.9.56.76 1.32 1.1 2.26 1.1.95 0 1.7-.35 2.26-1.1.56-.73.84-1.8.84-3.1 0-1.2-.3-2.18-.86-2.9-.56-.77-1.32-1.14-2.26-1.14-.92 0-1.67.4-2.23 1.1-.57.8-.85 1.8-.85 3.2zm22.86-3.9c-.28-.04-.6-.07-.92-.07-1.22 0-2.05.52-2.5 1.57V16h-1.86V5.08h1.82l.03 1.26c.6-.97 1.48-1.46 2.6-1.46.36 0 .64.05.83.14v1.73zm7.08 9.45c-1.48 0-2.68-.5-3.6-1.46-.94-.97-1.4-2.27-1.4-3.9v-.34c0-1.1.2-2.05.62-2.9.42-.85 1-1.52 1.74-2s1.54-.72 2.4-.72c1.43 0 2.53.47 3.32 1.4.8.94 1.18 2.27 1.18 4.02v.77h-7.4c.03 1.08.35 1.95.95 2.6.6.67 1.37 1 2.3 1 .66 0 1.2-.13 1.67-.4.46-.27.86-.63 1.2-1.07l1.14.9c-.9 1.4-2.3 2.1-4.12 2.1zm-.23-9.8c-.75 0-1.38.3-1.9.83-.5.55-.82 1.32-.94 2.3h5.4V9.4c-.1-.95-.3-1.7-.8-2.2-.5-.53-1.1-.8-1.9-.8zm9.7 9.6h-1.85V5.08h1.86V16zm-2-13.82c0-.3.1-.55.27-.76.2-.2.46-.32.82-.32.37 0 .64.1.83.32.2.2.28.46.28.76s-.1.56-.28.76c-.2.2-.46.3-.83.3-.36 0-.63-.1-.82-.3-.18-.2-.28-.45-.28-.76zm11.72 8.27c0-1.68.4-3.02 1.2-4.04.8-1 1.83-1.5 3.1-1.5 1.3 0 2.3.5 3.05 1.3V.5h1.86V16h-1.7l-.1-1.18c-.75.92-1.8 1.38-3.12 1.38-1.26 0-2.3-.52-3.1-1.56-.8-1.03-1.2-2.38-1.2-4.05v-.2zm1.87.2c0 1.25.26 2.2.77 2.9.5.7 1.2 1.06 2.1 1.06 1.2 0 2-.5 2.6-1.5v-5c-.6-1-1.5-1.5-2.6-1.5-.9 0-1.7.4-2.2 1.1-.5.7-.8 1.8-.8 3.2zm15.8 5.55c-1.48 0-2.68-.5-3.6-1.46-.94-.97-1.4-2.27-1.4-3.9v-.34c0-1.1.2-2.05.62-2.9.4-.85 1-1.52 1.73-2 .75-.48 1.55-.72 2.42-.72 1.4 0 2.5.47 3.3 1.4.8.94 1.1 2.27 1.1 4.02v.77h-7.4c0 1.08.3 1.95.9 2.6.6.67 1.3 1 2.3 1 .6 0 1.2-.13 1.6-.4.4-.27.8-.63 1.2-1.07l1.1.9c-.9 1.4-2.3 2.1-4.1 2.1zm-.23-9.8c-.8 0-1.4.3-1.9.83-.6.55-.9 1.32-1 2.3h5.4V9.4c-.1-.95-.3-1.7-.8-2.2-.5-.53-1.1-.8-1.9-.8zm19.1.35c-.3-.04-.6-.07-1-.07-1.3 0-2.1.52-2.5 1.57V16h-1.9V5.08h1.8v1.26c.6-.97 1.5-1.46 2.6-1.46.4 0 .6.05.8.14v1.73zm2 3.7c0-1.08.2-2.04.6-2.9.4-.85 1-1.5 1.7-1.98.7-.46 1.6-.7 2.5-.7 1.5 0 2.7.52 3.6 1.55.9 1.03 1.3 2.4 1.3 4.1v.14c0 1.06-.2 2-.6 2.86-.4.84-1 1.5-1.8 1.97-.8.4-1.7.7-2.6.7-1.5 0-2.7-.6-3.6-1.6-1-1.1-1.4-2.4-1.4-4.1v-.2zm1.8.2c0 1.2.3 2.2.8 2.9.5.76 1.3 1.1 2.2 1.1s1.7-.35 2.3-1.1c.5-.73.8-1.8.8-3.1 0-1.2-.3-2.18-.9-2.9-.6-.77-1.3-1.14-2.3-1.14-.9 0-1.7.4-2.2 1.1-.6.8-.9 1.8-.9 3.2zM324 5.1l.06 1.2c.8-.93 1.9-1.4 3.24-1.4 1.53 0 2.57.58 3.1 1.75.38-.52.85-.95 1.44-1.27.57-.32 1.25-.48 2.05-.48 2.4 0 3.6 1.27 3.6 3.8V16h-1.9V8.8c0-.8-.2-1.37-.6-1.76-.4-.38-1-.58-1.8-.58-.7 0-1.3.2-1.8.62s-.7.97-.8 1.67V16H329V8.84c0-1.58-.77-2.38-2.32-2.38-1.23 0-2.07.52-2.52 1.57V16h-1.82V5.08h1.76zM348.2 16c-.1-.22-.2-.6-.27-1.15-.86.9-1.9 1.35-3.1 1.35-1.08 0-1.96-.3-2.65-.92-.7-.6-1-1.38-1-2.3 0-1.15.4-2.03 1.25-2.66.87-.63 2.08-.94 3.65-.94h1.8v-.86c0-.65-.2-1.17-.56-1.56-.4-.4-.96-.58-1.72-.58-.63 0-1.2.17-1.64.5-.45.34-.68.75-.68 1.23h-1.87c0-.5.2-1 .6-1.5.4-.5.9-.9 1.6-1.2.7-.3 1.4-.4 2.2-.4 1.2 0 2.2.3 2.9 1 .7.7 1.1 1.5 1.1 2.6v5c0 1 .1 1.8.4 2.4v.1h-2zm-3.1-1.43c.58 0 1.14-.15 1.66-.45.5-.3.9-.7 1.1-1.18V10.7h-1.47c-2.3 0-3.5.67-3.5 2 0 .6.2 1.05.6 1.38.4.33.9.5 1.5.5z"/><path d="M12.3 9.12c0 1.44-.23 2.7-.7 3.77-.5 1-1.18 1.8-2.07 2.4-.9.5-1.92.8-3.1.8-1.17 0-2.2-.3-3.1-.9-.88-.6-1.57-1.4-2.07-2.5-.5-1-.76-2.3-.76-3.6v-1c0-1.4.25-2.7.74-3.8.5-1.1 1.18-1.9 2.08-2.5.9-.5 1.93-.8 3.08-.8 1.18 0 2.22.3 3.1.8.9.6 1.6 1.4 2.1 2.5.47 1 .7 2.3.7 3.7v1zm-1.9-.94c0-1.74-.36-3.08-1.06-4-.7-.94-1.68-1.4-2.94-1.4-1.22 0-2.2.46-2.9 1.4-.7.92-1.05 2.2-1.07 3.87v1.07c0 1.7.35 3.02 1.06 3.98.7.97 1.6 1.45 2.9 1.45 1.2 0 2.2-.45 2.9-1.36.7-1 1-2.3 1-4V8.1zm11.26 2.27c0-1.7.4-3.06 1.18-4.06.8-1.1 1.83-1.6 3.13-1.6 1.33 0 2.37.4 3.12 1.4V5h1.7v10.7c0 1.4-.4 2.54-1.3 3.35-.9.82-2 1.22-3.4 1.22-.8 0-1.6-.17-2.3-.5-.8-.35-1.4-.8-1.8-1.4l.9-1.1c.8.97 1.7 1.47 2.9 1.47.9 0 1.6-.26 2.1-.77.5-.5.7-1.23.7-2.16v-.9c-.8.9-1.8 1.3-3.1 1.3s-2.3-.5-3.1-1.5c-.8-1-1.2-2.4-1.2-4.2zm1.88.2c0 1.24.25 2.2.76 2.9.5.7 1.2 1.06 2.1 1.06 1.2 0 2.06-.5 2.6-1.6V8.1c-.56-1.1-1.42-1.6-2.57-1.6-.9 0-1.6.34-2.12 1.05-.5.7-.7 1.75-.7 3.14zM41.47 16c-.1-.22-.2-.6-.26-1.15-.8.9-1.9 1.35-3.1 1.35-1 0-1.9-.3-2.6-.92-.7-.6-1-1.38-1-2.3 0-1.15.5-2.03 1.3-2.66.9-.63 2.1-.94 3.7-.94h1.8v-.86c0-.65-.2-1.17-.6-1.56-.4-.4-.9-.58-1.7-.58-.7 0-1.2.17-1.7.5-.4.34-.6.75-.6 1.23h-1.9c0-.5.2-1 .6-1.5.4-.5.9-.9 1.6-1.2.7-.3 1.4-.4 2.2-.4 1.3 0 2.3.3 3 1 .7.7 1.1 1.5 1.1 2.6v5c0 1 .1 1.8.4 2.4v.1h-2zm-3.1-1.43c.6 0 1.14-.15 1.67-.45.52-.3.9-.7 1.14-1.18V10.7H39.7c-2.27 0-3.42.67-3.42 2 0 .6.2 1.05.6 1.38.38.33.88.5 1.5.5zM49.53 2.44v2.64h2.04v1.44h-2.04v6.78c0 .44.1.77.28.98.2.22.5.33 1 .33.2 0 .5 0 .9-.1V16c-.5.13-1 .2-1.4.2-.8 0-1.4-.25-1.9-.76-.4-.5-.6-1.22-.6-2.15V6.5h-2V5.08h2V2.44h1.9zm4.57 8c0-1.07.2-2.03.62-2.9.42-.84 1-1.5 1.75-1.97.75-.46 1.6-.7 2.57-.7 1.5 0 2.7.52 3.6 1.55.93 1.03 1.38 2.4 1.38 4.1v.14c0 1.06-.2 2-.6 2.86-.4.84-1 1.5-1.75 1.97-.76.4-1.63.7-2.6.7-1.5 0-2.7-.6-3.6-1.6-.92-1.1-1.38-2.4-1.38-4.1v-.2zm1.86.22c0 1.2.3 2.18.85 2.9.6.75 1.4 1.1 2.3 1.1 1 0 1.7-.36 2.3-1.1.6-.74.9-1.8.9-3.12 0-1.2-.3-2.17-.8-2.9-.5-.76-1.3-1.14-2.2-1.14-.9 0-1.6.4-2.2 1.1-.5.8-.8 1.8-.8 3.2zm22.86-3.9c-.28-.05-.6-.08-.92-.08-1.22 0-2.05.52-2.5 1.57V16h-1.85V5.08h1.8l.04 1.26c.6-.97 1.4-1.46 2.6-1.46.3 0 .6.05.8.14v1.73zm2.05 3.68c0-1.07.2-2.03.63-2.9.42-.84 1-1.5 1.76-1.97.75-.46 1.6-.7 2.57-.7 1.48 0 2.7.52 3.6 1.55.92 1.03 1.38 2.4 1.38 4.1v.14c0 1.06-.2 2-.6 2.86-.4.84-1 1.5-1.7 1.97-.7.4-1.6.7-2.6.7-1.5 0-2.7-.6-3.6-1.6-.9-1.1-1.4-2.4-1.4-4.1v-.2zm1.88.22c0 1.2.28 2.18.84 2.9.5.75 1.3 1.1 2.2 1.1s1.7-.36 2.2-1.1c.5-.74.8-1.8.8-3.12 0-1.2-.3-2.17-.9-2.9-.6-.76-1.4-1.13-2.3-1.13-1 0-1.7.4-2.3 1.1-.6.8-.9 1.8-.9 3.2zM98.7 16.2c-1.47 0-2.67-.5-3.6-1.46-.93-.97-1.4-2.27-1.4-3.9v-.34c0-1.1.22-2.05.63-2.9.4-.85 1-1.52 1.74-2s1.54-.72 2.4-.72c1.43 0 2.53.47 3.32 1.4.7.94 1.1 2.27 1.1 4.02v.77h-7.4c0 1.08.3 1.95.9 2.6.6.67 1.3 1 2.3 1 .6 0 1.2-.13 1.6-.4.4-.27.8-.63 1.2-1.07l1.1.9c-.9 1.4-2.3 2.1-4.1 2.1zm-.22-9.8c-.75 0-1.38.3-1.9.83-.5.55-.82 1.32-.94 2.3h5.46V9.4c-.05-.95-.3-1.7-.76-2.2-.46-.53-1.08-.8-1.86-.8zm14.42 8.52c-.73.85-1.8 1.28-3.2 1.28-1.16 0-2.05-.34-2.65-1.02-.6-.67-.92-1.67-.93-3v-7.1H108v7.05c0 1.66.66 2.48 2 2.48 1.43 0 2.38-.5 2.85-1.5v-8h1.87V16h-1.78l-.04-1.08zM131.47 16c-.1-.22-.2-.6-.26-1.15-.8.9-1.9 1.35-3.1 1.35-1 0-1.9-.3-2.6-.92-.7-.6-1-1.38-1-2.3 0-1.15.5-2.03 1.3-2.66.9-.63 2.1-.94 3.7-.94h1.8v-.86c0-.65-.2-1.17-.6-1.56-.4-.4-.9-.58-1.7-.58-.7 0-1.2.17-1.7.5-.4.34-.6.75-.6 1.23h-1.9c0-.5.2-1 .6-1.5.4-.5.9-.9 1.6-1.2.7-.3 1.4-.4 2.2-.4 1.3 0 2.3.3 3 1 .7.7 1.1 1.5 1.1 2.6v5c0 1 .2 1.8.4 2.4v.1h-1.9zm-3.1-1.43c.6 0 1.14-.15 1.67-.45.52-.3.9-.7 1.14-1.18V10.7h-1.46c-2.3 0-3.43.67-3.43 2 0 .6.1 1.05.5 1.38.4.33.9.5 1.5.5zm20.06-7.82c-.28-.04-.6-.07-.92-.07-1.2 0-2 .52-2.4 1.57V16h-1.8V5.08h1.8l.1 1.26c.6-.97 1.5-1.46 2.6-1.46.4 0 .7.05.9.14v1.73zm2.05 3.7c0-1.08.2-2.04.63-2.9.5-.85 1-1.5 1.8-1.98.8-.46 1.6-.7 2.6-.7 1.5 0 2.7.52 3.6 1.55 1 1.03 1.4 2.4 1.4 4.1v.14c0 1.06-.2 2-.6 2.86-.4.84-1 1.5-1.7 1.97-.7.4-1.6.7-2.6.7-1.5 0-2.7-.6-3.6-1.6-.9-1.1-1.4-2.4-1.4-4.1v-.2zm1.88.2c0 1.2.28 2.2.84 2.9.56.76 1.3 1.1 2.25 1.1s1.7-.35 2.26-1.1c.6-.73.9-1.8.9-3.1 0-1.2-.3-2.18-.8-2.9-.5-.77-1.3-1.14-2.2-1.14-.9 0-1.6.4-2.2 1.1-.5.8-.8 1.8-.8 3.2zm18.17 4.27c-.73.85-1.8 1.28-3.2 1.28-1.16 0-2.05-.34-2.66-1.02-.6-.67-.9-1.67-.92-3v-7.1h1.86v7.05c0 1.66.7 2.48 2.1 2.48 1.5 0 2.4-.5 2.9-1.5v-8h1.9V16h-1.7v-1.08zm14.9-4.26c0 1.66-.38 3-1.14 4-.8 1.03-1.8 1.54-3.1 1.54-1.4 0-2.4-.42-3.2-1.26v5.25h-1.9V5h1.7l.1 1.2c.7-.93 1.8-1.4 3.1-1.4s2.3.5 3.1 1.48c.7 1 1.1 2.37 1.1 4.14v.16zm-1.86-.2c0-1.24-.27-2.22-.8-2.93-.52-.7-1.24-1.07-2.15-1.07-1.13 0-1.98.5-2.54 1.5v5.22c.56 1 1.4 1.5 2.56 1.5.9 0 1.6-.36 2.13-1.07.53-.7.8-1.7.8-3.1zm12 5.54c-.1-.22-.2-.6-.26-1.15-.8.9-1.9 1.35-3.1 1.35-1 0-1.9-.3-2.6-.92-.7-.6-1-1.38-1-2.3 0-1.15.5-2.03 1.3-2.66.9-.63 2.1-.94 3.7-.94h1.8v-.86c0-.65-.2-1.17-.5-1.56-.4-.4-.9-.58-1.7-.58-.6 0-1.2.17-1.6.5-.4.34-.6.75-.6 1.23h-2c0-.5.2-1 .6-1.5.4-.5.9-.9 1.6-1.2.7-.3 1.4-.4 2.2-.4 1.28 0 2.27.3 2.98 1 .7.7 1 1.5 1.1 2.6v5c0 1 .1 1.8.4 2.4v.1h-2zm-3.1-1.43c.6 0 1.15-.15 1.67-.45.53-.3.9-.7 1.14-1.18V10.7h-1.46c-2.3 0-3.43.67-3.43 2 0 .6.1 1.05.5 1.38.4.33.9.5 1.5.5zm14.33-4.12c0-1.68.4-3.02 1.2-4.04.78-1 1.82-1.5 3.1-1.5 1.3 0 2.3.5 3.04 1.3V.5H216V16h-1.7l-.1-1.18c-.74.92-1.78 1.38-3.1 1.38-1.28 0-2.3-.52-3.1-1.56-.8-1.03-1.2-2.38-1.2-4.05v-.2zm1.87.2c0 1.25.25 2.2.76 2.9.52.7 1.22 1.06 2.12 1.06 1.2 0 2.05-.5 2.6-1.5v-5c-.56-1-1.42-1.5-2.58-1.5-.9 0-1.62.4-2.14 1.1-.5.7-.76 1.8-.76 3.2zm10.78-.2c0-1.08.2-2.04.63-2.9.42-.85 1-1.5 1.75-1.98.75-.46 1.6-.7 2.57-.7 1.48 0 2.7.52 3.6 1.55.92 1.03 1.38 2.4 1.38 4.1v.14c0 1.06-.2 2-.6 2.86-.42.84-1 1.5-1.75 1.97-.76.4-1.63.7-2.6.7-1.5 0-2.7-.6-3.6-1.6-.93-1.1-1.38-2.4-1.38-4.1v-.2zm1.87.2c0 1.2.28 2.2.84 2.9.56.76 1.32 1.1 2.26 1.1.95 0 1.7-.35 2.26-1.1.56-.73.84-1.8.84-3.1 0-1.2-.3-2.18-.86-2.9-.56-.77-1.32-1.14-2.26-1.14-.92 0-1.67.4-2.23 1.1-.57.8-.85 1.8-.85 3.2zm22.86-3.9c-.28-.04-.6-.07-.92-.07-1.22 0-2.05.52-2.5 1.57V16h-1.86V5.08h1.82l.03 1.26c.6-.97 1.48-1.46 2.6-1.46.36 0 .64.05.83.14v1.73zm7.08 9.45c-1.48 0-2.68-.5-3.6-1.46-.94-.97-1.4-2.27-1.4-3.9v-.34c0-1.1.2-2.05.62-2.9.42-.85 1-1.52 1.74-2s1.54-.72 2.4-.72c1.43 0 2.53.47 3.32 1.4.8.94 1.18 2.27 1.18 4.02v.77h-7.4c.03 1.08.35 1.95.95 2.6.6.67 1.37 1 2.3 1 .66 0 1.2-.13 1.67-.4.46-.27.86-.63 1.2-1.07l1.14.9c-.9 1.4-2.3 2.1-4.12 2.1zm-.23-9.8c-.75 0-1.38.3-1.9.83-.5.55-.82 1.32-.94 2.3h5.4V9.4c-.1-.95-.3-1.7-.8-2.2-.5-.53-1.1-.8-1.9-.8zm9.7 9.6h-1.85V5.08h1.86V16zm-2-13.82c0-.3.1-.55.27-.76.2-.2.46-.32.82-.32.37 0 .64.1.83.32.2.2.28.46.28.76s-.1.56-.28.76c-.2.2-.46.3-.83.3-.36 0-.63-.1-.82-.3-.18-.2-.28-.45-.28-.76zm11.72 8.27c0-1.68.4-3.02 1.2-4.04.8-1 1.83-1.5 3.1-1.5 1.3 0 2.3.5 3.05 1.3V.5h1.86V16h-1.7l-.1-1.18c-.75.92-1.8 1.38-3.12 1.38-1.26 0-2.3-.52-3.1-1.56-.8-1.03-1.2-2.38-1.2-4.05v-.2zm1.87.2c0 1.25.26 2.2.77 2.9.5.7 1.2 1.06 2.1 1.06 1.2 0 2-.5 2.6-1.5v-5c-.6-1-1.5-1.5-2.6-1.5-.9 0-1.7.4-2.2 1.1-.5.7-.8 1.8-.8 3.2zm15.8 5.55c-1.48 0-2.68-.5-3.6-1.46-.94-.97-1.4-2.27-1.4-3.9v-.34c0-1.1.2-2.05.62-2.9.4-.85 1-1.52 1.73-2 .75-.48 1.55-.72 2.42-.72 1.4 0 2.5.47 3.3 1.4.8.94 1.1 2.27 1.1 4.02v.77h-7.4c0 1.08.3 1.95.9 2.6.6.67 1.3 1 2.3 1 .6 0 1.2-.13 1.6-.4.4-.27.8-.63 1.2-1.07l1.1.9c-.9 1.4-2.3 2.1-4.1 2.1zm-.23-9.8c-.8 0-1.4.3-1.9.83-.6.55-.9 1.32-1 2.3h5.4V9.4c-.1-.95-.3-1.7-.8-2.2-.5-.53-1.1-.8-1.9-.8zm19.1.35c-.3-.04-.6-.07-1-.07-1.3 0-2.1.52-2.5 1.57V16h-1.9V5.08h1.8v1.26c.6-.97 1.5-1.46 2.6-1.46.4 0 .6.05.8.14v1.73zm2 3.7c0-1.08.2-2.04.6-2.9.4-.85 1-1.5 1.7-1.98.7-.46 1.6-.7 2.5-.7 1.5 0 2.7.52 3.6 1.55.9 1.03 1.3 2.4 1.3 4.1v.14c0 1.06-.2 2-.6 2.86-.4.84-1 1.5-1.8 1.97-.8.4-1.7.7-2.6.7-1.5 0-2.7-.6-3.6-1.6-1-1.1-1.4-2.4-1.4-4.1v-.2zm1.8.2c0 1.2.3 2.2.8 2.9.5.76 1.3 1.1 2.2 1.1s1.7-.35 2.3-1.1c.5-.73.8-1.8.8-3.1 0-1.2-.3-2.18-.9-2.9-.6-.77-1.3-1.14-2.3-1.14-.9 0-1.7.4-2.2 1.1-.6.8-.9 1.8-.9 3.2zM324 5.1l.06 1.2c.8-.93 1.9-1.4 3.24-1.4 1.53 0 2.57.58 3.1 1.75.38-.52.85-.95 1.44-1.27.57-.32 1.25-.48 2.05-.48 2.4 0 3.6 1.27 3.6 3.8V16h-1.9V8.8c0-.8-.2-1.37-.6-1.76-.4-.38-1-.58-1.8-.58-.7 0-1.3.2-1.8.62s-.7.97-.8 1.67V16H329V8.84c0-1.58-.77-2.38-2.32-2.38-1.23 0-2.07.52-2.52 1.57V16h-1.82V5.08h1.76zM348.2 16c-.1-.22-.2-.6-.27-1.15-.86.9-1.9 1.35-3.1 1.35-1.08 0-1.96-.3-2.65-.92-.7-.6-1-1.38-1-2.3 0-1.15.4-2.03 1.25-2.66.87-.63 2.08-.94 3.65-.94h1.8v-.86c0-.65-.2-1.17-.56-1.56-.4-.4-.96-.58-1.72-.58-.63 0-1.2.17-1.64.5-.45.34-.68.75-.68 1.23h-1.87c0-.5.2-1 .6-1.5.4-.5.9-.9 1.6-1.2.7-.3 1.4-.4 2.2-.4 1.2 0 2.2.3 2.9 1 .7.7 1.1 1.5 1.1 2.6v5c0 1 .1 1.8.4 2.4v.1h-2zm-3.1-1.43c.58 0 1.14-.15 1.66-.45.5-.3.9-.7 1.1-1.18V10.7h-1.47c-2.3 0-3.5.67-3.5 2 0 .6.2 1.05.6 1.38.4.33.9.5 1.5.5z" stroke="#fff" stroke-width=".99"/></g></svg>