<svg viewBox="0 0 411 17" xmlns="http://www.w3.org/2000/svg" fill-rule="evenodd" clip-rule="evenodd" stroke-linejoin="round" stroke-miterlimit="1.414"><g fill="none"><path d="M11.95 8.842c0 1.352-.234 2.54-.701 3.562-.468 1.022-1.135 1.809-2.003 2.36-.868.552-1.87.828-3.006.828-1.715 0-3.1-.613-4.157-1.841C1.028 12.524.5 10.867.5 8.78V7.27c0-1.34.237-2.525.712-3.556.474-1.034 1.144-1.826 2.012-2.382C4.09.777 5.09.5 6.219.5c1.13 0 2.128.272 2.992.817.864.545 1.532 1.314 2.003 2.31.47.996.715 2.149.736 3.46v1.755zM10.71 7.25c0-1.769-.401-3.155-1.202-4.157C8.71 2.09 7.613 1.59 6.22 1.59c-1.364 0-2.452.503-3.263 1.509-.81 1.005-1.215 2.41-1.215 4.212v1.532c0 1.742.403 3.123 1.21 4.142.807 1.018 1.904 1.528 3.289 1.528 1.406 0 2.503-.502 3.289-1.508s1.18-2.405 1.18-4.202V7.25zm22.06 6.395c-.43.612-1.105 1.09-2.023 1.432-.918.343-1.946.515-3.082.515-1.15 0-2.172-.276-3.067-.828-.894-.551-1.587-1.331-2.078-2.34-.49-1.01-.74-2.165-.746-3.47V7.097c0-2.038.514-3.647 1.543-4.828C24.347 1.09 25.727.5 27.463.5c1.514 0 2.731.386 3.652 1.155.922.77 1.47 1.831 1.645 3.183h-1.24c-.183-1.08-.622-1.898-1.318-2.454-.696-.557-1.605-.835-2.728-.835-1.373 0-2.459.488-3.26 1.465-.799.975-1.2 2.351-1.2 4.128v1.737c0 1.117.19 2.104.57 2.963.38.857.925 1.522 1.635 1.994.709.471 1.525.706 2.446.706 1.069 0 1.987-.168 2.754-.503.497-.223.868-.482 1.11-.778V9.47h-3.944V8.42h5.184v5.226zm12.483-2.381h-6.67l-1.511 4.126H35.77L41.328.702h1.181l5.558 14.688h-1.291l-1.523-4.126zm-6.286-1.049h5.892l-2.945-8-2.947 8zM59.925 1.75H54.89v13.64h-1.24V1.75h-5.025V.703h11.299v1.049zM73.9 8.842c0 1.352-.232 2.54-.7 3.562-.467 1.022-1.135 1.809-2.003 2.36-.867.552-1.87.828-3.006.828-1.716 0-3.1-.613-4.156-1.841-1.057-1.227-1.585-2.884-1.585-4.97V7.27c0-1.34.238-2.525.712-3.556.474-1.034 1.145-1.826 2.013-2.382C66.043.777 67.04.5 68.17.5s2.126.272 2.99.817c.865.545 1.533 1.314 2.003 2.31.471.996.717 2.149.736 3.46v1.755zM72.66 7.25c0-1.769-.4-3.155-1.2-4.157-.801-1.002-1.897-1.503-3.29-1.503-1.364 0-2.453.503-3.262 1.509-.811 1.005-1.217 2.41-1.217 4.212v1.532c0 1.742.404 3.123 1.211 4.142.807 1.018 1.904 1.528 3.29 1.528 1.404 0 2.5-.502 3.287-1.508.788-1.006 1.181-2.405 1.181-4.202V7.25zm16.946 2.016h-4.268v6.124h-1.25V.702h4.771c1.567 0 2.79.38 3.673 1.138.88.76 1.32 1.82 1.32 3.184 0 .941-.274 1.77-.827 2.49-.551.718-1.291 1.215-2.218 1.491l3.67 6.254v.131h-1.32l-3.551-6.124zm-4.268-1.049h3.804c1.042 0 1.879-.297 2.512-.89.632-.592.947-1.359.947-2.303 0-1.037-.329-1.841-.987-2.415-.66-.572-1.585-.858-2.775-.858h-3.5v6.466zm23.782.625c0 1.352-.233 2.54-.7 3.562-.468 1.022-1.135 1.809-2.003 2.36-.868.552-1.87.828-3.006.828-1.716 0-3.1-.613-4.157-1.841-1.056-1.227-1.584-2.884-1.584-4.97V7.27c0-1.34.237-2.525.711-3.556.474-1.034 1.146-1.826 2.013-2.382C101.262.777 102.26.5 103.39.5s2.127.272 2.99.817c.866.545 1.533 1.314 2.003 2.31.472.996.717 2.149.736 3.46v1.755zm-1.24-1.593c0-1.769-.4-3.155-1.201-4.157-.8-1.002-1.897-1.503-3.289-1.503-1.365 0-2.453.503-3.263 1.509-.81 1.005-1.216 2.41-1.216 4.212v1.532c0 1.742.404 3.123 1.21 4.142.808 1.018 1.904 1.528 3.29 1.528 1.405 0 2.5-.502 3.287-1.508.788-1.006 1.182-2.405 1.182-4.202V7.25zm13.512 1.099h-6.871v5.993h7.898v1.05h-9.14V.701h9.09V1.75h-7.848v5.548h6.87v1.049zM136.184.702V10.73c-.006.99-.226 1.85-.656 2.583a4.293 4.293 0 0 1-1.82 1.69c-.784.394-1.683.59-2.699.59-1.547 0-2.785-.422-3.718-1.267-.93-.843-1.414-2.012-1.447-3.504V.702h1.23v9.937c0 1.237.354 2.197 1.06 2.88.706.682 1.665 1.023 2.875 1.023 1.211 0 2.167-.342 2.87-1.029.703-.686 1.054-1.64 1.054-2.864V.702h1.251zm18.48 10.562h-6.668l-1.514 4.126h-1.301L150.74.702h1.18l5.557 14.688h-1.29l-1.523-4.126zm-6.285-1.049h5.89l-2.944-8-2.946 8zm23.836-.949h-4.268v6.124h-1.25V.702h4.771c1.567 0 2.79.38 3.673 1.138.88.76 1.32 1.82 1.32 3.184 0 .941-.274 1.77-.827 2.49-.551.718-1.291 1.215-2.218 1.491l3.67 6.254v.131h-1.32l-3.551-6.124zm-4.268-1.049h3.804c1.042 0 1.879-.297 2.512-.89.632-.592.947-1.359.947-2.303 0-1.037-.329-1.841-.987-2.415-.66-.572-1.585-.858-2.775-.858h-3.5v6.466zm23.781.625c0 1.352-.232 2.54-.7 3.562-.467 1.022-1.134 1.809-2.002 2.36-.868.552-1.87.828-3.006.828-1.716 0-3.1-.613-4.157-1.841-1.056-1.227-1.584-2.884-1.584-4.97V7.27c0-1.34.237-2.525.711-3.556.474-1.034 1.146-1.826 2.013-2.382C183.871.777 184.87.5 186 .5s2.127.272 2.99.817c.866.545 1.533 1.314 2.003 2.31.472.996.717 2.149.736 3.46v1.755zm-1.24-1.593c0-1.769-.4-3.155-1.2-4.157-.8-1.002-1.897-1.503-3.289-1.503-1.365 0-2.453.503-3.263 1.509-.81 1.005-1.216 2.41-1.216 4.212v1.532c0 1.742.404 3.123 1.21 4.142.808 1.018 1.904 1.528 3.29 1.528 1.405 0 2.5-.502 3.287-1.508.788-1.006 1.182-2.405 1.182-4.202V7.25zM206.007.702V10.73c-.006.99-.224 1.85-.656 2.583a4.293 4.293 0 0 1-1.82 1.69c-.783.394-1.683.59-2.7.59-1.545 0-2.784-.422-3.715-1.267-.933-.843-1.414-2.012-1.45-3.504V.702h1.233v9.937c0 1.237.352 2.197 1.058 2.88.707.682 1.665 1.023 2.875 1.023 1.211 0 2.168-.342 2.87-1.029.703-.686 1.055-1.64 1.055-2.864V.702h1.25zm5.735 8.706v5.982H210.5V.702h5.004c1.526 0 2.732.39 3.616 1.17.885.78 1.327 1.853 1.327 3.218 0 1.38-.425 2.443-1.276 3.193s-2.083 1.125-3.697 1.125h-3.733zm0-1.05h3.763c1.203 0 2.121-.285 2.754-.858.631-.573.948-1.37.948-2.394 0-1.018-.314-1.828-.943-2.43-.629-.604-1.522-.911-2.68-.925h-3.842v6.607zm19.05 2.906h-6.668l-1.514 4.126h-1.301L226.868.702h1.18l5.559 14.688h-1.291l-1.524-4.126zm-6.285-1.049h5.891l-2.945-8-2.946 8zm18.348 5.175V.702h4.106c1.204 0 2.283.274 3.239.822.954.548 1.699 1.333 2.234 2.356.534 1.021.801 2.185.801 3.49v1.352c0 1.311-.264 2.474-.796 3.49a5.671 5.671 0 0 1-2.244 2.35c-.966.552-2.074.828-3.324.828h-4.016zm1.24-13.64v12.59h2.785c1.547 0 2.788-.512 3.723-1.539.934-1.026 1.402-2.414 1.402-4.164V7.345c0-1.69-.461-3.043-1.382-4.059-.922-1.017-2.136-1.529-3.641-1.535h-2.886zm24.176 7.092c0 1.352-.234 2.54-.701 3.562-.468 1.022-1.135 1.809-2.003 2.36-.868.552-1.87.828-3.006.828-1.715 0-3.1-.613-4.157-1.841-1.055-1.227-1.583-2.884-1.583-4.97V7.27c0-1.34.237-2.525.712-3.556.474-1.034 1.144-1.826 2.012-2.382.867-.555 1.867-.832 2.997-.832s2.126.272 2.99.817c.864.545 1.532 1.314 2.003 2.31.47.996.715 2.149.736 3.46v1.755zm-1.24-1.593c0-1.769-.401-3.155-1.202-4.157-.8-1.002-1.895-1.503-3.287-1.503-1.367 0-2.454.503-3.265 1.509-.81 1.005-1.215 2.41-1.215 4.212v1.532c0 1.742.403 3.123 1.21 4.142.807 1.018 1.903 1.528 3.289 1.528 1.406 0 2.502-.502 3.289-1.508.786-1.006 1.18-2.405 1.18-4.202V7.25zm16.946 2.017h-4.268v6.124h-1.251V.702h4.771c1.568 0 2.792.38 3.672 1.138.881.76 1.323 1.82 1.323 3.184 0 .941-.277 1.77-.828 2.49-.551.718-1.291 1.215-2.22 1.491l3.673 6.254v.131h-1.321l-3.551-6.124zm-4.268-1.049h3.803c1.042 0 1.88-.297 2.511-.89.633-.592.95-1.359.95-2.303 0-1.037-.33-1.841-.99-2.415-.658-.572-1.583-.858-2.773-.858h-3.5v6.466zm21.037.131h-6.87v5.993h7.9v1.05h-9.14V.701h9.09V1.75h-7.85v5.548h6.87v1.049zm4.947-7.646h1.241V15.39h-1.24zM318.01 15.39V.702h4.104c1.205 0 2.285.274 3.239.822.955.548 1.7 1.333 2.235 2.356.535 1.021.802 2.185.802 3.49v1.352c0 1.311-.266 2.474-.797 3.49a5.674 5.674 0 0 1-2.245 2.35c-.965.552-2.073.828-3.324.828h-4.015zm1.24-13.64v12.59h2.784c1.547 0 2.788-.512 3.723-1.539.935-1.026 1.402-2.414 1.402-4.164V7.345c0-1.69-.46-3.043-1.383-4.059-.92-1.017-2.134-1.529-3.641-1.535h-2.885zm21.432 6.598h-6.871v5.993h7.898v1.05h-9.14V.701h9.09V1.75h-7.848v5.548h6.87v1.049zm16.219.918h-4.267v6.124h-1.252V.702h4.772c1.567 0 2.791.38 3.672 1.138.88.76 1.322 1.82 1.322 3.184 0 .941-.276 1.77-.828 2.49-.55.718-1.29 1.215-2.22 1.491l3.673 6.254v.131h-1.32L356.9 9.266zm-4.267-1.049h3.802c1.042 0 1.88-.297 2.512-.89.633-.592.949-1.359.949-2.303 0-1.037-.33-1.841-.99-2.415-.658-.572-1.582-.858-2.773-.858h-3.5v6.466zm23.781.625c0 1.352-.234 2.54-.701 3.562-.468 1.022-1.135 1.809-2.003 2.36-.868.552-1.87.828-3.006.828-1.715 0-3.1-.613-4.157-1.841-1.055-1.227-1.583-2.884-1.583-4.97V7.27c0-1.34.236-2.525.712-3.556.474-1.034 1.144-1.826 2.011-2.382.868-.555 1.868-.832 2.998-.832 1.13 0 2.126.272 2.99.817.864.545 1.532 1.314 2.003 2.31.47.996.715 2.149.736 3.46v1.755zm-1.241-1.593c0-1.769-.4-3.155-1.2-4.157-.8-1.002-1.897-1.503-3.288-1.503-1.367 0-2.454.503-3.265 1.509-.81 1.005-1.215 2.41-1.215 4.212v1.532c0 1.742.403 3.123 1.21 4.142.807 1.018 1.903 1.528 3.289 1.528 1.406 0 2.502-.502 3.289-1.508.786-1.006 1.18-2.405 1.18-4.202V7.25zM382.22.702l5.417 12.963L393.075.702h1.654V15.39h-1.241V8.994l.1-6.558-5.466 12.954h-.96l-5.446-12.903.1 6.466v6.437h-1.24V.702h1.643zm25.375 10.562h-6.668l-1.513 4.126h-1.302L403.671.702h1.18l5.56 14.688h-1.292l-1.524-4.126zm-6.284-1.049h5.89l-2.945-8-2.945 8z"/><path d="M11.95 8.842c0 1.352-.234 2.54-.701 3.562-.468 1.022-1.135 1.809-2.003 2.36-.868.552-1.87.828-3.006.828-1.715 0-3.1-.613-4.157-1.841C1.028 12.524.5 10.867.5 8.78V7.27c0-1.34.237-2.525.712-3.556.474-1.034 1.144-1.826 2.012-2.382C4.09.777 5.09.5 6.219.5c1.13 0 2.128.272 2.992.817.864.545 1.532 1.314 2.003 2.31.47.996.715 2.149.736 3.46v1.755zM10.71 7.25c0-1.769-.401-3.155-1.202-4.157C8.71 2.09 7.613 1.59 6.22 1.59c-1.364 0-2.452.503-3.263 1.509-.81 1.005-1.215 2.41-1.215 4.212v1.532c0 1.742.403 3.123 1.21 4.142.807 1.018 1.904 1.528 3.289 1.528 1.406 0 2.503-.502 3.289-1.508s1.18-2.405 1.18-4.202V7.25zm22.06 6.395c-.43.612-1.105 1.09-2.023 1.432-.918.343-1.946.515-3.082.515-1.15 0-2.172-.276-3.067-.828-.894-.551-1.587-1.331-2.078-2.34-.49-1.01-.74-2.165-.746-3.47V7.097c0-2.038.514-3.647 1.543-4.828C24.347 1.09 25.727.5 27.463.5c1.514 0 2.731.386 3.652 1.155.922.77 1.47 1.831 1.645 3.183h-1.24c-.183-1.08-.622-1.898-1.318-2.454-.696-.557-1.605-.835-2.728-.835-1.373 0-2.459.488-3.26 1.465-.799.975-1.2 2.351-1.2 4.128v1.737c0 1.117.19 2.104.57 2.963.38.857.925 1.522 1.635 1.994.709.471 1.525.706 2.446.706 1.069 0 1.987-.168 2.754-.503.497-.223.868-.482 1.11-.778V9.47h-3.944V8.42h5.184v5.226zm12.483-2.381h-6.67l-1.511 4.126H35.77L41.328.702h1.181l5.558 14.688h-1.291l-1.523-4.126zm-6.286-1.049h5.892l-2.945-8-2.947 8zM59.925 1.75H54.89v13.64h-1.24V1.75h-5.025V.703h11.299v1.049zM73.9 8.842c0 1.352-.232 2.54-.7 3.562-.467 1.022-1.135 1.809-2.003 2.36-.867.552-1.87.828-3.006.828-1.716 0-3.1-.613-4.156-1.841-1.057-1.227-1.585-2.884-1.585-4.97V7.27c0-1.34.238-2.525.712-3.556.474-1.034 1.145-1.826 2.013-2.382C66.043.777 67.04.5 68.17.5s2.126.272 2.99.817c.865.545 1.533 1.314 2.003 2.31.471.996.717 2.149.736 3.46v1.755zM72.66 7.25c0-1.769-.4-3.155-1.2-4.157-.801-1.002-1.897-1.503-3.29-1.503-1.364 0-2.453.503-3.262 1.509-.811 1.005-1.217 2.41-1.217 4.212v1.532c0 1.742.404 3.123 1.211 4.142.807 1.018 1.904 1.528 3.29 1.528 1.404 0 2.5-.502 3.287-1.508.788-1.006 1.181-2.405 1.181-4.202V7.25zm16.946 2.016h-4.268v6.124h-1.25V.702h4.771c1.567 0 2.79.38 3.673 1.138.88.76 1.32 1.82 1.32 3.184 0 .941-.274 1.77-.827 2.49-.551.718-1.291 1.215-2.218 1.491l3.67 6.254v.131h-1.32l-3.551-6.124zm-4.268-1.049h3.804c1.042 0 1.879-.297 2.512-.89.632-.592.947-1.359.947-2.303 0-1.037-.329-1.841-.987-2.415-.66-.572-1.585-.858-2.775-.858h-3.5v6.466zm23.782.625c0 1.352-.233 2.54-.7 3.562-.468 1.022-1.135 1.809-2.003 2.36-.868.552-1.87.828-3.006.828-1.716 0-3.1-.613-4.157-1.841-1.056-1.227-1.584-2.884-1.584-4.97V7.27c0-1.34.237-2.525.711-3.556.474-1.034 1.146-1.826 2.013-2.382C101.262.777 102.26.5 103.39.5s2.127.272 2.99.817c.866.545 1.533 1.314 2.003 2.31.472.996.717 2.149.736 3.46v1.755zm-1.24-1.593c0-1.769-.4-3.155-1.201-4.157-.8-1.002-1.897-1.503-3.289-1.503-1.365 0-2.453.503-3.263 1.509-.81 1.005-1.216 2.41-1.216 4.212v1.532c0 1.742.404 3.123 1.21 4.142.808 1.018 1.904 1.528 3.29 1.528 1.405 0 2.5-.502 3.287-1.508.788-1.006 1.182-2.405 1.182-4.202V7.25zm13.512 1.099h-6.871v5.993h7.898v1.05h-9.14V.701h9.09V1.75h-7.848v5.548h6.87v1.049zM136.184.702V10.73c-.006.99-.226 1.85-.656 2.583a4.293 4.293 0 0 1-1.82 1.69c-.784.394-1.683.59-2.699.59-1.547 0-2.785-.422-3.718-1.267-.93-.843-1.414-2.012-1.447-3.504V.702h1.23v9.937c0 1.237.354 2.197 1.06 2.88.706.682 1.665 1.023 2.875 1.023 1.211 0 2.167-.342 2.87-1.029.703-.686 1.054-1.64 1.054-2.864V.702h1.251zm18.48 10.562h-6.668l-1.514 4.126h-1.301L150.74.702h1.18l5.557 14.688h-1.29l-1.523-4.126zm-6.285-1.049h5.89l-2.944-8-2.946 8zm23.836-.949h-4.268v6.124h-1.25V.702h4.771c1.567 0 2.79.38 3.673 1.138.88.76 1.32 1.82 1.32 3.184 0 .941-.274 1.77-.827 2.49-.551.718-1.291 1.215-2.218 1.491l3.67 6.254v.131h-1.32l-3.551-6.124zm-4.268-1.049h3.804c1.042 0 1.879-.297 2.512-.89.632-.592.947-1.359.947-2.303 0-1.037-.329-1.841-.987-2.415-.66-.572-1.585-.858-2.775-.858h-3.5v6.466zm23.781.625c0 1.352-.232 2.54-.7 3.562-.467 1.022-1.134 1.809-2.002 2.36-.868.552-1.87.828-3.006.828-1.716 0-3.1-.613-4.157-1.841-1.056-1.227-1.584-2.884-1.584-4.97V7.27c0-1.34.237-2.525.711-3.556.474-1.034 1.146-1.826 2.013-2.382C183.871.777 184.87.5 186 .5s2.127.272 2.99.817c.866.545 1.533 1.314 2.003 2.31.472.996.717 2.149.736 3.46v1.755zm-1.24-1.593c0-1.769-.4-3.155-1.2-4.157-.8-1.002-1.897-1.503-3.289-1.503-1.365 0-2.453.503-3.263 1.509-.81 1.005-1.216 2.41-1.216 4.212v1.532c0 1.742.404 3.123 1.21 4.142.808 1.018 1.904 1.528 3.29 1.528 1.405 0 2.5-.502 3.287-1.508.788-1.006 1.182-2.405 1.182-4.202V7.25zM206.007.702V10.73c-.006.99-.224 1.85-.656 2.583a4.293 4.293 0 0 1-1.82 1.69c-.783.394-1.683.59-2.7.59-1.545 0-2.784-.422-3.715-1.267-.933-.843-1.414-2.012-1.45-3.504V.702h1.233v9.937c0 1.237.352 2.197 1.058 2.88.707.682 1.665 1.023 2.875 1.023 1.211 0 2.168-.342 2.87-1.029.703-.686 1.055-1.64 1.055-2.864V.702h1.25zm5.735 8.706v5.982H210.5V.702h5.004c1.526 0 2.732.39 3.616 1.17.885.78 1.327 1.853 1.327 3.218 0 1.38-.425 2.443-1.276 3.193s-2.083 1.125-3.697 1.125h-3.733zm0-1.05h3.763c1.203 0 2.121-.285 2.754-.858.631-.573.948-1.37.948-2.394 0-1.018-.314-1.828-.943-2.43-.629-.604-1.522-.911-2.68-.925h-3.842v6.607zm19.05 2.906h-6.668l-1.514 4.126h-1.301L226.868.702h1.18l5.559 14.688h-1.291l-1.524-4.126zm-6.285-1.049h5.891l-2.945-8-2.946 8zm18.348 5.175V.702h4.106c1.204 0 2.283.274 3.239.822.954.548 1.699 1.333 2.234 2.356.534 1.021.801 2.185.801 3.49v1.352c0 1.311-.264 2.474-.796 3.49a5.671 5.671 0 0 1-2.244 2.35c-.966.552-2.074.828-3.324.828h-4.016zm1.24-13.64v12.59h2.785c1.547 0 2.788-.512 3.723-1.539.934-1.026 1.402-2.414 1.402-4.164V7.345c0-1.69-.461-3.043-1.382-4.059-.922-1.017-2.136-1.529-3.641-1.535h-2.886zm24.176 7.092c0 1.352-.234 2.54-.701 3.562-.468 1.022-1.135 1.809-2.003 2.36-.868.552-1.87.828-3.006.828-1.715 0-3.1-.613-4.157-1.841-1.055-1.227-1.583-2.884-1.583-4.97V7.27c0-1.34.237-2.525.712-3.556.474-1.034 1.144-1.826 2.012-2.382.867-.555 1.867-.832 2.997-.832s2.126.272 2.99.817c.864.545 1.532 1.314 2.003 2.31.47.996.715 2.149.736 3.46v1.755zm-1.24-1.593c0-1.769-.401-3.155-1.202-4.157-.8-1.002-1.895-1.503-3.287-1.503-1.367 0-2.454.503-3.265 1.509-.81 1.005-1.215 2.41-1.215 4.212v1.532c0 1.742.403 3.123 1.21 4.142.807 1.018 1.903 1.528 3.289 1.528 1.406 0 2.502-.502 3.289-1.508.786-1.006 1.18-2.405 1.18-4.202V7.25zm16.946 2.017h-4.268v6.124h-1.251V.702h4.771c1.568 0 2.792.38 3.672 1.138.881.76 1.323 1.82 1.323 3.184 0 .941-.277 1.77-.828 2.49-.551.718-1.291 1.215-2.22 1.491l3.673 6.254v.131h-1.321l-3.551-6.124zm-4.268-1.049h3.803c1.042 0 1.88-.297 2.511-.89.633-.592.95-1.359.95-2.303 0-1.037-.33-1.841-.99-2.415-.658-.572-1.583-.858-2.773-.858h-3.5v6.466zm21.037.131h-6.87v5.993h7.9v1.05h-9.14V.701h9.09V1.75h-7.85v5.548h6.87v1.049zm4.947-7.646h1.241V15.39h-1.24zM318.01 15.39V.702h4.104c1.205 0 2.285.274 3.239.822.955.548 1.7 1.333 2.235 2.356.535 1.021.802 2.185.802 3.49v1.352c0 1.311-.266 2.474-.797 3.49a5.674 5.674 0 0 1-2.245 2.35c-.965.552-2.073.828-3.324.828h-4.015zm1.24-13.64v12.59h2.784c1.547 0 2.788-.512 3.723-1.539.935-1.026 1.402-2.414 1.402-4.164V7.345c0-1.69-.46-3.043-1.383-4.059-.92-1.017-2.134-1.529-3.641-1.535h-2.885zm21.432 6.598h-6.871v5.993h7.898v1.05h-9.14V.701h9.09V1.75h-7.848v5.548h6.87v1.049zm16.219.918h-4.267v6.124h-1.252V.702h4.772c1.567 0 2.791.38 3.672 1.138.88.76 1.322 1.82 1.322 3.184 0 .941-.276 1.77-.828 2.49-.55.718-1.29 1.215-2.22 1.491l3.673 6.254v.131h-1.32L356.9 9.266zm-4.267-1.049h3.802c1.042 0 1.88-.297 2.512-.89.633-.592.949-1.359.949-2.303 0-1.037-.33-1.841-.99-2.415-.658-.572-1.582-.858-2.773-.858h-3.5v6.466zm23.781.625c0 1.352-.234 2.54-.701 3.562-.468 1.022-1.135 1.809-2.003 2.36-.868.552-1.87.828-3.006.828-1.715 0-3.1-.613-4.157-1.841-1.055-1.227-1.583-2.884-1.583-4.97V7.27c0-1.34.236-2.525.712-3.556.474-1.034 1.144-1.826 2.011-2.382.868-.555 1.868-.832 2.998-.832 1.13 0 2.126.272 2.99.817.864.545 1.532 1.314 2.003 2.31.47.996.715 2.149.736 3.46v1.755zm-1.241-1.593c0-1.769-.4-3.155-1.2-4.157-.8-1.002-1.897-1.503-3.288-1.503-1.367 0-2.454.503-3.265 1.509-.81 1.005-1.215 2.41-1.215 4.212v1.532c0 1.742.403 3.123 1.21 4.142.807 1.018 1.903 1.528 3.289 1.528 1.406 0 2.502-.502 3.289-1.508.786-1.006 1.18-2.405 1.18-4.202V7.25zM382.22.702l5.417 12.963L393.075.702h1.654V15.39h-1.241V8.994l.1-6.558-5.466 12.954h-.96l-5.446-12.903.1 6.466v6.437h-1.24V.702h1.643zm25.375 10.562h-6.668l-1.513 4.126h-1.302L403.671.702h1.18l5.56 14.688h-1.292l-1.524-4.126zm-6.284-1.049h5.89l-2.945-8-2.945 8z" stroke="#555" stroke-width=".994"/></g></svg>