<svg viewBox="0 0 436 16" xmlns="http://www.w3.org/2000/svg" fill-rule="evenodd" clip-rule="evenodd" stroke-linejoin="round" stroke-miterlimit="1.41">
  <g fill="none">
    <path d="M7.92 15.4c-1.12 0-2.13-.22-3.04-.64-.9-.43-1.7-1-2.33-1.7-.65-.68-1.15-1.48-1.5-2.37C.67 9.8.5 8.8.5 7.9c0-.97.2-1.9.56-2.8.37-.9.9-1.68 1.56-2.36.68-.66 1.46-1.2 2.38-1.6.9-.4 1.9-.6 3-.6 1.12 0 2.13.2 3.04.62.9.43 1.68 1 2.33 1.7.65.7 1.15 1.5 1.5 2.4.35.9.53 1.8.53 2.74 0 .96-.2 1.9-.56 2.78-.37.9-.9 1.67-1.55 2.35-.7.7-1.5 1.23-2.4 1.65-.9.4-1.9.62-3 .62zM4.6 7.96c0 .5.06.97.2 1.43.14.4.34.8.62 1.2.27.3.62.6 1.04.8.42.2.92.3 1.5.3s1.08-.1 1.5-.4c.43-.3.78-.5 1.05-.9.3-.4.5-.8.6-1.3.2-.5.2-1 .2-1.4 0-.5 0-1-.2-1.5-.1-.5-.3-.9-.6-1.2s-.6-.7-1-.9c-.4-.2-.9-.3-1.4-.3-.6 0-1.1.1-1.5.3-.4.2-.7.5-1 .9S5 6 4.9 6.5c-.13.46-.2.94-.2 1.42zm29.18 6.1c-1.04.87-2.25 1.32-3.6 1.32-.96 0-1.87-.17-2.74-.5-.87-.35-1.62-.84-2.27-1.5-.65-.64-1.17-1.43-1.55-2.36-.4-.94-.58-2-.58-3.2 0-1.04.2-2 .58-2.9.38-.88.92-1.65 1.6-2.3.66-.66 1.46-1.17 2.38-1.55C28.5.7 29.5.5 30.56.5c.66 0 1.3.07 1.9.22.6.14 1.17.36 1.7.64.5.28.97.62 1.38 1 .4.4.75.85 1 1.34L33.57 6c-.3-.58-.73-1.05-1.3-1.4-.58-.35-1.2-.53-1.84-.53-.5 0-.93.1-1.33.3-.4.2-.75.45-1.04.8-.3.34-.52.75-.68 1.23-.17.47-.25 1-.25 1.56 0 .58.08 1.1.25 1.57.16.47.4.87.7 1.2.3.34.64.6 1.06.8.4.18.87.27 1.38.27 1.17 0 2.2-.48 3.1-1.44h-2.54v-2.9h6.03v7.8h-3.3v-1.2zM43.93.6h3.68l5.1 14.67h-4.1l-.9-2.87h-3.9l-.8 2.87h-4.1L44 .6zm3.14 9.12l-1.3-4.55-1.37 4.55h2.67zm17.95-5.6h-4.2v11.15h-4.04V4.12h-4.24V.6h12.48v3.52zM73.9 15.4c-1.1 0-2.12-.22-3.03-.64-.9-.43-1.7-1-2.34-1.7-.64-.68-1.14-1.48-1.5-2.37-.36-.9-.54-1.9-.54-2.8 0-1 .1-1.9.5-2.8.3-.9.9-1.7 1.5-2.4.7-.7 1.5-1.2 2.4-1.7.9-.4 1.9-.6 3-.6s2.1.2 3 .6c.9.4 1.6 1 2.3 1.7.6.7 1.1 1.5 1.5 2.4.3.9.5 1.8.5 2.7s-.2 1.9-.6 2.7c-.4.9-.9 1.6-1.6 2.3-.7.7-1.5 1.2-2.4 1.6-.9.4-1.9.6-3 .6zm-3.3-7.44c0 .5.07.97.2 1.43.14.4.35.8.63 1.2.28.3.63.6 1.05.8.42.2.92.3 1.5.3s1.08-.1 1.5-.4c.43-.3.78-.5 1.05-.9s.47-.8.6-1.3.2-1 .2-1.4c0-.5-.07-1-.2-1.5-.15-.5-.36-.9-.64-1.2s-.7-.7-1.1-.9c-.4-.2-.9-.3-1.5-.3s-1.1.1-1.5.3c-.4.2-.8.5-1.1.9-.3.3-.5.8-.6 1.2-.2.4-.2.9-.2 1.4zm19.2 7.3V.6h6.75c.72 0 1.38.15 1.98.45.6.3 1.13.68 1.56 1.15.4.48.7 1.02 1 1.64.2.6.3 1.23.3 1.85 0 .8-.2 1.6-.6 2.3-.4.7-.9 1.3-1.6 1.8l3.1 5.4h-4.5l-2.6-4.5h-1.5v4.5h-4zm4.04-8h2.54c.25 0 .48-.14.7-.42.2-.27.32-.66.32-1.15 0-.6-.13-.9-.38-1.2-.24-.3-.5-.4-.74-.4h-2.44v3.1zm17.38 8.14c-1.12 0-2.13-.22-3.04-.64-.9-.43-1.7-1-2.33-1.7-.65-.68-1.15-1.48-1.5-2.37-.37-.9-.55-1.9-.55-2.8 0-1 .2-1.9.56-2.8.37-.9.9-1.7 1.56-2.4.67-.7 1.46-1.2 2.38-1.7.9-.4 1.9-.6 3-.6 1.12 0 2.13.2 3.04.6.9.4 1.7 1 2.33 1.7.65.7 1.15 1.5 1.5 2.4.35.9.53 1.8.53 2.7s-.2 1.9-.56 2.7c-.37.9-.9 1.6-1.55 2.3-.7.7-1.5 1.2-2.4 1.6-.9.4-1.9.6-3 .6zm-3.33-7.44c0 .5 0 .97.2 1.43.1.4.3.8.6 1.2.2.3.6.6 1 .8.4.2.9.3 1.5.3s1.1-.1 1.5-.4c.4-.3.8-.5 1-.9.2-.4.4-.8.6-1.3s.2-1 .2-1.4c0-.5-.1-1-.2-1.5-.2-.5-.4-.9-.7-1.2s-.7-.7-1.1-.9c-.4-.2-.9-.3-1.5-.3s-1.1.1-1.5.3c-.5.2-.8.5-1.1.9-.3.3-.5.8-.6 1.2-.2.4-.2.9-.2 1.4zm24 3.8v3.5h-10.5V.6h10.2v3.52h-6.3v2.06h5.3v3.27h-5.3v2.3h6.4zm9.3.06c.4 0 .8-.1 1.2-.3.3-.2.6-.5.8-.82.2-.34.3-.73.4-1.17.1-.44.1-.9.1-1.4V.6h4v7.54c0 1.02-.2 1.98-.4 2.87-.3.9-.7 1.7-1.2 2.3-.6.7-1.3 1.2-2.1 1.6-.8.4-1.8.6-3 .6s-2.2-.2-3-.6c-.8-.3-1.5-.9-2.1-1.5s-1-1.4-1.2-2.3c-.3-.9-.4-1.8-.4-2.8V.6h4v7.54c0 .5 0 .95.1 1.4.1.45.2.84.4 1.18.2.33.5.6.8.8.3.2.7.3 1.2.3zM160 .6h3.68l5.1 14.67h-4.1l-.88-2.87h-3.9l-.87 2.87h-4.1L160.05.6zm3.14 9.12l-1.3-4.55-1.37 4.55h2.67zm12.93 5.55V.6h6.74c.8 0 1.4.15 2 .45.6.3 1.2.68 1.6 1.15.5.48.8 1.02 1.1 1.64.3.6.4 1.23.4 1.85 0 .8-.1 1.6-.5 2.3-.4.7-.9 1.3-1.5 1.8l3.1 5.4h-4.5l-2.6-4.5h-1.5v4.5h-4zm4.03-8h2.54c.27 0 .5-.15.7-.43.2-.27.34-.66.34-1.15 0-.6-.12-.9-.37-1.2-.2-.3-.5-.4-.7-.4h-2.4v3.1zm17.38 8.13c-1.1 0-2.12-.22-3.03-.64-.9-.43-1.7-1-2.3-1.7-.66-.68-1.16-1.48-1.5-2.37-.38-.9-.56-1.9-.56-2.8 0-1 .2-1.9.5-2.8.3-.9.9-1.7 1.5-2.4s1.4-1.2 2.3-1.7c.9-.4 1.9-.6 3-.6s2.1.2 3 .6c.9.4 1.7 1 2.3 1.7.6.7 1.1 1.5 1.5 2.4.3.9.5 1.8.5 2.7s-.2 1.9-.6 2.7c-.4.9-.9 1.6-1.6 2.3-.7.7-1.5 1.2-2.4 1.6-.9.4-1.9.6-3 .6zm-3.32-7.44c0 .5.1.97.23 1.43.1.4.3.8.6 1.2.2.3.6.6 1 .8.4.2.9.3 1.5.3s1-.1 1.5-.4c.4-.3.7-.5 1-.9.2-.4.4-.8.6-1.3s.2-1 .2-1.4c0-.5-.1-1-.2-1.5-.2-.5-.4-.9-.7-1.2-.3-.4-.6-.7-1.1-.9-.5-.2-1-.3-1.5-.3s-1.1.1-1.5.3c-.4.2-.8.5-1.1.9-.3.3-.5.8-.6 1.2-.1.4-.2.9-.2 1.4zm20 3.86c.44 0 .84-.1 1.2-.3.3-.2.6-.5.8-.82.2-.34.33-.73.43-1.17.1-.44.1-.9.1-1.4V.6h4v7.54c0 1.02-.2 1.98-.4 2.87-.3.9-.7 1.7-1.2 2.3-.6.7-1.3 1.2-2.1 1.6-.8.4-1.8.6-3 .6s-2.2-.2-3-.6c-.8-.3-1.5-.9-2.1-1.5-.6-.6-.9-1.4-1.2-2.3-.3-.9-.4-1.8-.4-2.8V.6h4v7.54c0 .5 0 .95.1 1.4.1.45.2.84.4 1.18.2.33.4.6.8.8.3.2.7.3 1.2.3zm9.95 3.45V.6h6.4c.7 0 1.4.15 2 .45.6.3 1.2.68 1.6 1.15.5.48.8 1.02 1.1 1.64.2.6.4 1.23.4 1.85 0 .6-.1 1.2-.3 1.8-.2.6-.5 1.1-.9 1.6-.4.4-.9.8-1.5 1.1-.6.3-1.23.4-2 .4h-2.4v4.5h-4zm4.1-8h2.1c.3 0 .5-.13.7-.35.2-.23.4-.64.4-1.23 0-.7-.1-1.1-.3-1.3-.2-.2-.5-.4-.7-.4h-2v3.2zM240.8.6h3.68l5.08 14.67h-4.1l-.88-2.87h-3.9l-.87 2.87h-4.1L240.8.6zm3.14 9.12l-1.3-4.55-1.36 4.55h2.67zm12.94 5.55V.6h5.64c1.2 0 2.25.2 3.2.58.9.4 1.7.9 2.3 1.57.6.66 1.1 1.44 1.4 2.33.3.9.5 1.83.5 2.84 0 1.1-.2 2.12-.56 3.02-.35.9-.85 1.68-1.5 2.32-.64.64-1.42 1.13-2.33 1.5-.9.34-1.9.5-3.03.5h-5.65zm8.95-7.35c0-.57-.1-1.08-.23-1.55-.15-.47-.37-.87-.65-1.2-.27-.33-.62-.6-1.03-.78-.43-.2-.9-.3-1.4-.3h-1.6v7.6h1.6c.53 0 1-.1 1.4-.3.4-.2.76-.5 1.04-.8.28-.4.5-.8.64-1.2.15-.5.22-1 .22-1.6zm13.5 7.48c-1.13 0-2.14-.22-3.05-.64-.9-.43-1.68-1-2.33-1.7-.64-.68-1.14-1.48-1.5-2.37-.36-.9-.54-1.9-.54-2.8 0-1 .2-1.9.6-2.8.4-.9.9-1.7 1.6-2.4.7-.7 1.5-1.2 2.4-1.7.9-.4 1.9-.6 3-.6s2.2.2 3.1.6c.9.4 1.7 1 2.3 1.7.7.7 1.2 1.5 1.5 2.4.4.9.6 1.8.6 2.7s-.2 1.9-.5 2.7c-.3.9-.8 1.6-1.5 2.3-.6.7-1.4 1.2-2.3 1.6-.9.4-1.9.6-3 .6zM276 7.96c0 .5.06.97.2 1.43.14.4.35.8.62 1.2.24.3.6.6 1 .8.42.2.92.3 1.5.3s1.1-.1 1.5-.4c.44-.3.8-.5 1.05-.9.27-.4.47-.8.6-1.3s.2-1 .2-1.4c0-.5-.07-1-.2-1.5-.15-.5-.36-.9-.64-1.2s-.62-.7-1.04-.9c-.5-.2-1-.3-1.5-.3-.6 0-1.1.1-1.5.3-.4.2-.8.5-1.1.9s-.5.8-.6 1.2c-.2.4-.2.9-.2 1.4zm19.23 7.3V.6h6.72c.72 0 1.38.15 2 .45.6.3 1.1.68 1.55 1.15.43.48.77 1.02 1.02 1.64.23.6.35 1.23.35 1.85 0 .8-.18 1.6-.56 2.3-.3.7-.8 1.3-1.5 1.8l3.1 5.4h-4.5l-2.6-4.5h-1.5v4.5h-4zm4.02-8h2.54c.2 0 .4-.14.7-.42.2-.27.3-.66.3-1.15 0-.6-.1-.9-.4-1.2-.2-.3-.5-.4-.7-.4h-2.5v3.1zm21.4 4.5v3.5H310.2V.6h10.27v3.52h-6.24v2.06h5.36v3.27h-5.4v2.3h6.4zM323.55.6h4.03v14.67h-4.03zm13.25 14.67V.6h5.65c1.2 0 2.28.2 3.2.58.92.4 1.7.9 2.32 1.57.6.66 1.08 1.44 1.4 2.33.32.9.48 1.83.48 2.84 0 1.1-.18 2.12-.53 3.02-.35.9-.85 1.68-1.5 2.32-.65.64-1.43 1.13-2.33 1.5-1 .34-2 .5-3.1.5h-5.7zm8.95-7.35c0-.57-.07-1.08-.22-1.55s-.37-.87-.65-1.2c-.3-.33-.63-.6-1.05-.78-.4-.2-.87-.3-1.38-.3h-1.6v7.6h1.6c.52 0 1-.1 1.4-.3.42-.2.77-.5 1.05-.8.28-.4.5-.8.64-1.2.14-.5.2-1 .2-1.6zm17.35 3.84v3.5h-10.47V.6h10.27v3.52h-6.24v2.06H362v3.27h-5.34v2.3h6.43zm8.58 3.5V.6h6.74c.72 0 1.38.15 1.98.45.6.3 1.13.68 1.56 1.15.44.48.78 1.02 1.02 1.64.25.6.38 1.23.38 1.85 0 .8-.2 1.6-.56 2.3-.37.7-.9 1.3-1.55 1.8l3.1 5.4h-4.55l-2.58-4.5h-1.5v4.5h-4.04zm4.03-8h2.6c.3 0 .5-.14.7-.42.2-.27.3-.66.3-1.15 0-.6-.1-.9-.4-1.2-.2-.3-.5-.4-.7-.4h-2.4v3.1zm17.4 8.14c-1.1 0-2.1-.22-3-.64-.9-.43-1.7-1-2.3-1.7-.6-.68-1.1-1.48-1.5-2.37-.3-.9-.5-1.9-.5-2.8 0-1 .2-1.9.6-2.8.4-.9.9-1.7 1.6-2.4s1.5-1.2 2.4-1.7c.9-.4 1.9-.6 3-.6 1.2 0 2.2.2 3.1.6 1 .4 1.7 1 2.4 1.7s1.2 1.5 1.5 2.4c.4.9.5 1.8.5 2.7s-.2 1.9-.5 2.7c-.3.9-.8 1.6-1.5 2.3-.6.7-1.4 1.2-2.3 1.6-.9.4-1.9.6-3 .6zm-3.3-7.44c0 .5.1.97.2 1.43.2.4.4.8.7 1.2.3.3.6.6 1.1.8.4.2.9.3 1.5.3s1.1-.1 1.5-.4c.5-.3.8-.5 1.1-.9s.5-.8.6-1.3.2-1 .2-1.4c0-.5 0-1-.2-1.5-.1-.5-.3-.9-.6-1.2s-.6-.7-1-.9c-.4-.2-.9-.3-1.5-.3s-1 .1-1.5.3c-.4.2-.7.5-1 .9-.3.3-.5.8-.6 1.2-.1.4-.2.9-.2 1.4zm24.7 7.3v-7.7l-2.5 5.42h-2.1l-2.4-5.43v7.72h-4.1V.6h4.4l3.2 6.9 3.2-6.9h4.4v14.67h-4zM425.8.6h3.67l5.08 14.67h-4.1l-.88-2.87h-3.9l-.87 2.87h-4.1L425.8.6zm3.13 9.12l-1.3-4.55-1.36 4.55h2.66z"/>
    <path d="M7.92 15.4c-1.12 0-2.13-.22-3.04-.64-.9-.43-1.7-1-2.33-1.7-.65-.68-1.15-1.48-1.5-2.37C.67 9.8.5 8.8.5 7.9c0-.97.2-1.9.56-2.8.37-.9.9-1.68 1.56-2.36.68-.66 1.46-1.2 2.38-1.6.9-.4 1.9-.6 3-.6 1.12 0 2.13.2 3.04.62.9.43 1.68 1 2.33 1.7.65.7 1.15 1.5 1.5 2.4.35.9.53 1.8.53 2.74 0 .96-.2 1.9-.56 2.78-.37.9-.9 1.67-1.55 2.35-.7.7-1.5 1.23-2.4 1.65-.9.4-1.9.62-3 .62zM4.6 7.96c0 .5.06.97.2 1.43.14.4.34.8.62 1.2.27.3.62.6 1.04.8.42.2.92.3 1.5.3s1.08-.1 1.5-.4c.43-.3.78-.5 1.05-.9.3-.4.5-.8.6-1.3.2-.5.2-1 .2-1.4 0-.5 0-1-.2-1.5-.1-.5-.3-.9-.6-1.2s-.6-.7-1-.9c-.4-.2-.9-.3-1.4-.3-.6 0-1.1.1-1.5.3-.4.2-.7.5-1 .9S5 6 4.9 6.5c-.13.46-.2.94-.2 1.42zm29.18 6.1c-1.04.87-2.25 1.32-3.6 1.32-.96 0-1.87-.17-2.74-.5-.87-.35-1.62-.84-2.27-1.5-.65-.64-1.17-1.43-1.55-2.36-.4-.94-.58-2-.58-3.2 0-1.04.2-2 .58-2.9.38-.88.92-1.65 1.6-2.3.66-.66 1.46-1.17 2.38-1.55C28.5.7 29.5.5 30.56.5c.66 0 1.3.07 1.9.22.6.14 1.17.36 1.7.64.5.28.97.62 1.38 1 .4.4.75.85 1 1.34L33.57 6c-.3-.58-.73-1.05-1.3-1.4-.58-.35-1.2-.53-1.84-.53-.5 0-.93.1-1.33.3-.4.2-.75.45-1.04.8-.3.34-.52.75-.68 1.23-.17.47-.25 1-.25 1.56 0 .58.08 1.1.25 1.57.16.47.4.87.7 1.2.3.34.64.6 1.06.8.4.18.87.27 1.38.27 1.17 0 2.2-.48 3.1-1.44h-2.54v-2.9h6.03v7.8h-3.3v-1.2zM43.93.6h3.68l5.1 14.67h-4.1l-.9-2.87h-3.9l-.8 2.87h-4.1L44 .6zm3.14 9.12l-1.3-4.55-1.37 4.55h2.67zm17.95-5.6h-4.2v11.15h-4.04V4.12h-4.24V.6h12.48v3.52zM73.9 15.4c-1.1 0-2.12-.22-3.03-.64-.9-.43-1.7-1-2.34-1.7-.64-.68-1.14-1.48-1.5-2.37-.36-.9-.54-1.9-.54-2.8 0-1 .1-1.9.5-2.8.3-.9.9-1.7 1.5-2.4.7-.7 1.5-1.2 2.4-1.7.9-.4 1.9-.6 3-.6s2.1.2 3 .6c.9.4 1.6 1 2.3 1.7.6.7 1.1 1.5 1.5 2.4.3.9.5 1.8.5 2.7s-.2 1.9-.6 2.7c-.4.9-.9 1.6-1.6 2.3-.7.7-1.5 1.2-2.4 1.6-.9.4-1.9.6-3 .6zm-3.3-7.44c0 .5.07.97.2 1.43.14.4.35.8.63 1.2.28.3.63.6 1.05.8.42.2.92.3 1.5.3s1.08-.1 1.5-.4c.43-.3.78-.5 1.05-.9s.47-.8.6-1.3.2-1 .2-1.4c0-.5-.07-1-.2-1.5-.15-.5-.36-.9-.64-1.2s-.7-.7-1.1-.9c-.4-.2-.9-.3-1.5-.3s-1.1.1-1.5.3c-.4.2-.8.5-1.1.9-.3.3-.5.8-.6 1.2-.2.4-.2.9-.2 1.4zm19.2 7.3V.6h6.75c.72 0 1.38.15 1.98.45.6.3 1.13.68 1.56 1.15.4.48.7 1.02 1 1.64.2.6.3 1.23.3 1.85 0 .8-.2 1.6-.6 2.3-.4.7-.9 1.3-1.6 1.8l3.1 5.4h-4.5l-2.6-4.5h-1.5v4.5h-4zm4.04-8h2.54c.25 0 .48-.14.7-.42.2-.27.32-.66.32-1.15 0-.6-.13-.9-.38-1.2-.24-.3-.5-.4-.74-.4h-2.44v3.1zm17.38 8.14c-1.12 0-2.13-.22-3.04-.64-.9-.43-1.7-1-2.33-1.7-.65-.68-1.15-1.48-1.5-2.37-.37-.9-.55-1.9-.55-2.8 0-1 .2-1.9.56-2.8.37-.9.9-1.7 1.56-2.4.67-.7 1.46-1.2 2.38-1.7.9-.4 1.9-.6 3-.6 1.12 0 2.13.2 3.04.6.9.4 1.7 1 2.33 1.7.65.7 1.15 1.5 1.5 2.4.35.9.53 1.8.53 2.7s-.2 1.9-.56 2.7c-.37.9-.9 1.6-1.55 2.3-.7.7-1.5 1.2-2.4 1.6-.9.4-1.9.6-3 .6zm-3.33-7.44c0 .5 0 .97.2 1.43.1.4.3.8.6 1.2.2.3.6.6 1 .8.4.2.9.3 1.5.3s1.1-.1 1.5-.4c.4-.3.8-.5 1-.9.2-.4.4-.8.6-1.3s.2-1 .2-1.4c0-.5-.1-1-.2-1.5-.2-.5-.4-.9-.7-1.2s-.7-.7-1.1-.9c-.4-.2-.9-.3-1.5-.3s-1.1.1-1.5.3c-.5.2-.8.5-1.1.9-.3.3-.5.8-.6 1.2-.2.4-.2.9-.2 1.4zm24 3.8v3.5h-10.5V.6h10.2v3.52h-6.3v2.06h5.3v3.27h-5.3v2.3h6.4zm9.3.06c.4 0 .8-.1 1.2-.3.3-.2.6-.5.8-.82.2-.34.3-.73.4-1.17.1-.44.1-.9.1-1.4V.6h4v7.54c0 1.02-.2 1.98-.4 2.87-.3.9-.7 1.7-1.2 2.3-.6.7-1.3 1.2-2.1 1.6-.8.4-1.8.6-3 .6s-2.2-.2-3-.6c-.8-.3-1.5-.9-2.1-1.5s-1-1.4-1.2-2.3c-.3-.9-.4-1.8-.4-2.8V.6h4v7.54c0 .5 0 .95.1 1.4.1.45.2.84.4 1.18.2.33.5.6.8.8.3.2.7.3 1.2.3zM160 .6h3.68l5.1 14.67h-4.1l-.88-2.87h-3.9l-.87 2.87h-4.1L160.05.6zm3.14 9.12l-1.3-4.55-1.37 4.55h2.67zm12.93 5.55V.6h6.74c.8 0 1.4.15 2 .45.6.3 1.2.68 1.6 1.15.5.48.8 1.02 1.1 1.64.3.6.4 1.23.4 1.85 0 .8-.1 1.6-.5 2.3-.4.7-.9 1.3-1.5 1.8l3.1 5.4h-4.5l-2.6-4.5h-1.5v4.5h-4zm4.03-8h2.54c.27 0 .5-.15.7-.43.2-.27.34-.66.34-1.15 0-.6-.12-.9-.37-1.2-.2-.3-.5-.4-.7-.4h-2.4v3.1zm17.38 8.13c-1.1 0-2.12-.22-3.03-.64-.9-.43-1.7-1-2.3-1.7-.66-.68-1.16-1.48-1.5-2.37-.38-.9-.56-1.9-.56-2.8 0-1 .2-1.9.5-2.8.3-.9.9-1.7 1.5-2.4s1.4-1.2 2.3-1.7c.9-.4 1.9-.6 3-.6s2.1.2 3 .6c.9.4 1.7 1 2.3 1.7.6.7 1.1 1.5 1.5 2.4.3.9.5 1.8.5 2.7s-.2 1.9-.6 2.7c-.4.9-.9 1.6-1.6 2.3-.7.7-1.5 1.2-2.4 1.6-.9.4-1.9.6-3 .6zm-3.32-7.44c0 .5.1.97.23 1.43.1.4.3.8.6 1.2.2.3.6.6 1 .8.4.2.9.3 1.5.3s1-.1 1.5-.4c.4-.3.7-.5 1-.9.2-.4.4-.8.6-1.3s.2-1 .2-1.4c0-.5-.1-1-.2-1.5-.2-.5-.4-.9-.7-1.2-.3-.4-.6-.7-1.1-.9-.5-.2-1-.3-1.5-.3s-1.1.1-1.5.3c-.4.2-.8.5-1.1.9-.3.3-.5.8-.6 1.2-.1.4-.2.9-.2 1.4zm20 3.86c.44 0 .84-.1 1.2-.3.3-.2.6-.5.8-.82.2-.34.33-.73.43-1.17.1-.44.1-.9.1-1.4V.6h4v7.54c0 1.02-.2 1.98-.4 2.87-.3.9-.7 1.7-1.2 2.3-.6.7-1.3 1.2-2.1 1.6-.8.4-1.8.6-3 .6s-2.2-.2-3-.6c-.8-.3-1.5-.9-2.1-1.5-.6-.6-.9-1.4-1.2-2.3-.3-.9-.4-1.8-.4-2.8V.6h4v7.54c0 .5 0 .95.1 1.4.1.45.2.84.4 1.18.2.33.4.6.8.8.3.2.7.3 1.2.3zm9.95 3.45V.6h6.4c.7 0 1.4.15 2 .45.6.3 1.2.68 1.6 1.15.5.48.8 1.02 1.1 1.64.2.6.4 1.23.4 1.85 0 .6-.1 1.2-.3 1.8-.2.6-.5 1.1-.9 1.6-.4.4-.9.8-1.5 1.1-.6.3-1.23.4-2 .4h-2.4v4.5h-4zm4.1-8h2.1c.3 0 .5-.13.7-.35.2-.23.4-.64.4-1.23 0-.7-.1-1.1-.3-1.3-.2-.2-.5-.4-.7-.4h-2v3.2zM240.8.6h3.68l5.08 14.67h-4.1l-.88-2.87h-3.9l-.87 2.87h-4.1L240.8.6zm3.14 9.12l-1.3-4.55-1.36 4.55h2.67zm12.94 5.55V.6h5.64c1.2 0 2.25.2 3.2.58.9.4 1.7.9 2.3 1.57.6.66 1.1 1.44 1.4 2.33.3.9.5 1.83.5 2.84 0 1.1-.2 2.12-.56 3.02-.35.9-.85 1.68-1.5 2.32-.64.64-1.42 1.13-2.33 1.5-.9.34-1.9.5-3.03.5h-5.65zm8.95-7.35c0-.57-.1-1.08-.23-1.55-.15-.47-.37-.87-.65-1.2-.27-.33-.62-.6-1.03-.78-.43-.2-.9-.3-1.4-.3h-1.6v7.6h1.6c.53 0 1-.1 1.4-.3.4-.2.76-.5 1.04-.8.28-.4.5-.8.64-1.2.15-.5.22-1 .22-1.6zm13.5 7.48c-1.13 0-2.14-.22-3.05-.64-.9-.43-1.68-1-2.33-1.7-.64-.68-1.14-1.48-1.5-2.37-.36-.9-.54-1.9-.54-2.8 0-1 .2-1.9.6-2.8.4-.9.9-1.7 1.6-2.4.7-.7 1.5-1.2 2.4-1.7.9-.4 1.9-.6 3-.6s2.2.2 3.1.6c.9.4 1.7 1 2.3 1.7.7.7 1.2 1.5 1.5 2.4.4.9.6 1.8.6 2.7s-.2 1.9-.5 2.7c-.3.9-.8 1.6-1.5 2.3-.6.7-1.4 1.2-2.3 1.6-.9.4-1.9.6-3 .6zM276 7.96c0 .5.06.97.2 1.43.14.4.35.8.62 1.2.24.3.6.6 1 .8.42.2.92.3 1.5.3s1.1-.1 1.5-.4c.44-.3.8-.5 1.05-.9.27-.4.47-.8.6-1.3s.2-1 .2-1.4c0-.5-.07-1-.2-1.5-.15-.5-.36-.9-.64-1.2s-.62-.7-1.04-.9c-.5-.2-1-.3-1.5-.3-.6 0-1.1.1-1.5.3-.4.2-.8.5-1.1.9s-.5.8-.6 1.2c-.2.4-.2.9-.2 1.4zm19.23 7.3V.6h6.72c.72 0 1.38.15 2 .45.6.3 1.1.68 1.55 1.15.43.48.77 1.02 1.02 1.64.23.6.35 1.23.35 1.85 0 .8-.18 1.6-.56 2.3-.3.7-.8 1.3-1.5 1.8l3.1 5.4h-4.5l-2.6-4.5h-1.5v4.5h-4zm4.02-8h2.54c.2 0 .4-.14.7-.42.2-.27.3-.66.3-1.15 0-.6-.1-.9-.4-1.2-.2-.3-.5-.4-.7-.4h-2.5v3.1zm21.4 4.5v3.5H310.2V.6h10.27v3.52h-6.24v2.06h5.36v3.27h-5.4v2.3h6.4zM323.55.6h4.03v14.67h-4.03zm13.25 14.67V.6h5.65c1.2 0 2.28.2 3.2.58.92.4 1.7.9 2.32 1.57.6.66 1.08 1.44 1.4 2.33.32.9.48 1.83.48 2.84 0 1.1-.18 2.12-.53 3.02-.35.9-.85 1.68-1.5 2.32-.65.64-1.43 1.13-2.33 1.5-1 .34-2 .5-3.1.5h-5.7zm8.95-7.35c0-.57-.07-1.08-.22-1.55s-.37-.87-.65-1.2c-.3-.33-.63-.6-1.05-.78-.4-.2-.87-.3-1.38-.3h-1.6v7.6h1.6c.52 0 1-.1 1.4-.3.42-.2.77-.5 1.05-.8.28-.4.5-.8.64-1.2.14-.5.2-1 .2-1.6zm17.35 3.84v3.5h-10.47V.6h10.27v3.52h-6.24v2.06H362v3.27h-5.34v2.3h6.43zm8.58 3.5V.6h6.74c.72 0 1.38.15 1.98.45.6.3 1.13.68 1.56 1.15.44.48.78 1.02 1.02 1.64.25.6.38 1.23.38 1.85 0 .8-.2 1.6-.56 2.3-.37.7-.9 1.3-1.55 1.8l3.1 5.4h-4.55l-2.58-4.5h-1.5v4.5h-4.04zm4.03-8h2.6c.3 0 .5-.14.7-.42.2-.27.3-.66.3-1.15 0-.6-.1-.9-.4-1.2-.2-.3-.5-.4-.7-.4h-2.4v3.1zm17.4 8.14c-1.1 0-2.1-.22-3-.64-.9-.43-1.7-1-2.3-1.7-.6-.68-1.1-1.48-1.5-2.37-.3-.9-.5-1.9-.5-2.8 0-1 .2-1.9.6-2.8.4-.9.9-1.7 1.6-2.4s1.5-1.2 2.4-1.7c.9-.4 1.9-.6 3-.6 1.2 0 2.2.2 3.1.6 1 .4 1.7 1 2.4 1.7s1.2 1.5 1.5 2.4c.4.9.5 1.8.5 2.7s-.2 1.9-.5 2.7c-.3.9-.8 1.6-1.5 2.3-.6.7-1.4 1.2-2.3 1.6-.9.4-1.9.6-3 .6zm-3.3-7.44c0 .5.1.97.2 1.43.2.4.4.8.7 1.2.3.3.6.6 1.1.8.4.2.9.3 1.5.3s1.1-.1 1.5-.4c.5-.3.8-.5 1.1-.9s.5-.8.6-1.3.2-1 .2-1.4c0-.5 0-1-.2-1.5-.1-.5-.3-.9-.6-1.2s-.6-.7-1-.9c-.4-.2-.9-.3-1.5-.3s-1 .1-1.5.3c-.4.2-.7.5-1 .9-.3.3-.5.8-.6 1.2-.1.4-.2.9-.2 1.4zm24.7 7.3v-7.7l-2.5 5.42h-2.1l-2.4-5.43v7.72h-4.1V.6h4.4l3.2 6.9 3.2-6.9h4.4v14.67h-4zM425.8.6h3.67l5.08 14.67h-4.1l-.88-2.87h-3.9l-.87 2.87h-4.1L425.8.6zm3.13 9.12l-1.3-4.55-1.36 4.55h2.66z" stroke="#fff" stroke-width=".99"/>
  </g>
</svg>
