<svg viewBox="0 0 432 17" xmlns="http://www.w3.org/2000/svg" fill-rule="evenodd" clip-rule="evenodd" stroke-linejoin="round" stroke-miterlimit="1.41"><g fill="none"><path d="M15.1 8.07c0 1.1-.18 2.13-.53 3.06-.35.92-.85 1.72-1.5 2.4a6.74 6.74 0 0 1-2.3 1.54c-.9.37-1.9.55-2.98.55-1.1 0-2.1-.18-3-.55-.9-.37-1.7-.9-2.3-1.55-.7-.67-1.2-1.47-1.5-2.4C.7 10.2.5 9.2.5 8.08c0-1.1.18-2.12.53-3.05.35-.93.84-1.73 1.48-2.4.7-.67 1.5-1.2 2.4-1.56C5.8.7 6.8.5 7.8.5c1.08 0 2.07.2 2.97.56.9.37 1.67.9 2.3 1.56a6.88 6.88 0 0 1 1.5 2.4c.35.93.53 1.94.53 3.05zm-2.06 0c0-.9-.12-1.72-.37-2.45-.25-.72-.6-1.33-1.05-1.83-.46-.5-1-.9-1.66-1.2-.64-.3-1.37-.4-2.17-.4-.8 0-1.6.1-2.2.4-.7.2-1.2.6-1.7 1.1-.5.5-.8 1.1-1.1 1.8-.2.8-.3 1.6-.3 2.5 0 .9.1 1.7.3 2.4.2.7.6 1.3 1.1 1.8.4.5 1 .9 1.6 1.1.7.2 1.4.4 2.2.4.8 0 1.5-.2 2.1-.4.6-.3 1.2-.7 1.6-1.2.4-.5.8-1.1 1-1.8S13 8.9 13 8zM30.5 14c.4 0 .76 0 1.1-.04.32-.04.64-.1.93-.17l.84-.3c.26-.1.52-.3.8-.4V9.9h-2.3c-.14 0-.24-.04-.32-.1-.08-.1-.12-.18-.12-.3V8.36h4.54v5.68c-.37.27-.76.5-1.16.7-.4.2-.8.37-1.2.5-.4.14-.9.24-1.4.3-.5.07-1.1.1-1.7.1-1.1 0-2-.18-2.9-.55-.9-.4-1.6-.9-2.3-1.6-.6-.7-1.1-1.5-1.5-2.4-.3-.9-.5-2-.5-3.1 0-1.2.2-2.2.6-3.1.4-.9.9-1.7 1.5-2.4s1.5-1.2 2.4-1.6c.9-.4 2-.5 3.1-.5.6 0 1.1 0 1.6.1s1 .2 1.4.4c.5.1.9.3 1.2.6.4.2.7.4 1.1.7l-.6.9c-.1.2-.3.3-.4.3-.1 0-.2-.1-.3-.2l-.6-.3c-.2-.2-.5-.3-.8-.4-.3-.2-.6-.3-1.1-.4-.4-.1-.9-.1-1.5-.1-.8 0-1.6.1-2.3.4-.7.3-1.2.6-1.7 1.1-.5.5-.8 1.1-1.1 1.8-.2.7-.4 1.5-.4 2.4 0 .9.2 1.7.4 2.5.3.7.7 1.3 1.1 1.8.5.5 1.1.9 1.7 1.2.7.3 1.4.4 2.2.4zm21.76 1.47H50.7c-.16 0-.3-.05-.42-.14-.1-.1-.2-.2-.25-.34l-1.38-3.6H42L40.63 15a.76.76 0 0 1-.25.32c-.1.1-.26.15-.43.15H38.4L44.3.67h2.05l5.9 14.8zm-9.7-5.5h5.53l-2.4-6.02c-.2-.37-.3-.84-.5-1.4-.1.3-.2.55-.2.8l-.2.6-2.4 6.02zM63.9.67v1.68h-4.8v13.12h-2V2.35h-4.8V.67h11.6zm15.86 7.4c0 1.1-.17 2.13-.52 3.06-.35.92-.85 1.72-1.5 2.4a6.74 6.74 0 0 1-2.3 1.54c-.9.37-1.9.55-2.98.55-1.1 0-2.08-.18-2.98-.55-.9-.37-1.66-.9-2.3-1.55a7.183 7.183 0 0 1-1.5-2.4c-.34-.92-.5-1.94-.5-3.05 0-1.1.16-2.12.5-3.05.36-.93.86-1.73 1.5-2.4.64-.67 1.4-1.2 2.3-1.56.9-.37 1.9-.56 2.98-.56 1.1 0 2.08.2 2.98.56.9.37 1.67.9 2.3 1.56a6.88 6.88 0 0 1 1.5 2.4c.35.93.52 1.94.52 3.05zm-2.05 0c0-.9-.1-1.72-.3-2.45-.2-.72-.6-1.33-1-1.83s-1-.9-1.6-1.2c-.6-.3-1.3-.4-2.1-.4s-1.5.1-2.1.4c-.6.2-1.2.6-1.6 1.1-.4.5-.8 1.1-1 1.8s-.4 1.5-.4 2.4c0 .9.2 1.7.4 2.4.3.7.6 1.3 1.1 1.8.5.5 1 .9 1.7 1.1.7.2 1.4.4 2.2.4.8 0 1.6-.2 2.2-.4.7-.3 1.2-.7 1.7-1.2s.8-1.1 1.1-1.8.3-1.5.3-2.4zM90.8 9.3v6.17h-2V.67H93c.93 0 1.74.1 2.42.28.67.2 1.24.46 1.7.82.43.36.75.8.97 1.3.2.5.3 1.07.3 1.7 0 .52-.1 1-.3 1.46-.2.46-.4.87-.7 1.23-.3.36-.7.67-1.1.92-.5.26-1 .45-1.6.58.2.15.4.35.6.63l4.3 5.8h-1.7c-.4 0-.7-.2-.8-.4l-3.8-5.3c-.1-.2-.3-.3-.4-.4-.2-.1-.4-.1-.7-.1h-1.5zm0-1.47h2.1c.6 0 1.1-.07 1.55-.2.45-.15.8-.35 1.1-.6.3-.26.55-.57.7-.93.15-.36.23-.75.23-1.2 0-.87-.3-1.54-.88-1.98-.58-.45-1.45-.67-2.6-.67h-2.2v5.58zm25.42.24c0 1.1-.2 2.13-.54 3.06-.35.92-.85 1.72-1.5 2.4a6.74 6.74 0 0 1-2.3 1.54c-.9.37-1.9.55-2.98.55s-2.08-.18-2.97-.55c-.9-.37-1.7-.9-2.3-1.55-.65-.67-1.14-1.47-1.5-2.4-.36-.92-.54-1.94-.54-3.05 0-1.1.1-2.12.5-3.05.3-.93.8-1.73 1.4-2.4.6-.67 1.4-1.2 2.3-1.56.9-.37 1.9-.56 3-.56s2.1.2 3 .56c.9.37 1.7.9 2.3 1.56.6.67 1.1 1.47 1.5 2.4.3.93.5 1.94.5 3.05zm-2.07 0c0-.9-.1-1.72-.35-2.45-.25-.72-.6-1.33-1.05-1.83-.47-.5-1.02-.9-1.67-1.2-.64-.3-1.37-.4-2.17-.4-.8 0-1.5.1-2.1.4-.6.2-1.2.6-1.6 1.1-.4.5-.8 1.1-1 1.8s-.4 1.5-.4 2.4c0 .9.2 1.7.4 2.4.3.7.6 1.3 1.1 1.8.5.5 1 .9 1.7 1.1.7.2 1.4.4 2.2.4.8 0 1.5-.2 2.2-.4.7-.3 1.2-.7 1.7-1.2s.8-1.1 1.1-1.8.38-1.6.38-2.5zM129.1.67V2.3H122v4.92h5.74V8.8H122v5.04h7.1v1.63H120V.67h9.1zm9.66 13.2c.6 0 1.16-.1 1.64-.3.47-.2.9-.5 1.2-.87.33-.37.58-.82.76-1.33.17-.52.26-1.1.26-1.7v-9h2v9c0 .85-.13 1.64-.4 2.37-.27.73-.66 1.36-1.17 1.9-.5.53-1.12.95-1.85 1.25-.74.3-1.56.4-2.47.4-.9 0-1.72-.2-2.45-.5-.73-.3-1.35-.8-1.86-1.3-.5-.6-.9-1.2-1.17-1.9-.27-.7-.4-1.5-.4-2.4v-9h1.98v9c0 .6.1 1.2.28 1.7.2.5.5.9.8 1.3.4.3.8.6 1.3.8.5.2 1.1.3 1.7.3zm27.57 1.6h-1.56c-.18 0-.32-.05-.43-.14-.1-.1-.2-.2-.23-.34l-1.4-3.6h-6.6l-1.4 3.6c0 .1-.1.2-.2.3-.1.1-.2.1-.4.1h-1.5L158.4.6h2.04l5.93 14.8zm-9.7-5.5h5.52l-2.33-6.02c-.16-.37-.3-.84-.45-1.4l-.23.8-.2.6-2.32 6.02zm19.8-.67v6.17h-1.98V.67h4.18c.94 0 1.75.1 2.43.28.68.2 1.24.46 1.7.82.43.36.76.8.98 1.3.23.5.34 1.07.34 1.7 0 .52-.1 1-.25 1.46-.18.46-.4.87-.73 1.23-.3.36-.7.67-1.16.92-.44.26-.95.45-1.52.58.25.15.47.35.66.63l4.32 5.8h-1.78c-.36 0-.63-.2-.8-.4l-3.85-5.3c-.1-.2-.24-.3-.38-.4-.2-.1-.4-.1-.7-.1h-1.5zm0-1.47h2.1c.6 0 1.1-.07 1.55-.2.45-.15.82-.35 1.12-.6.3-.26.5-.57.67-.93.15-.36.22-.75.22-1.2 0-.87-.3-1.54-.9-1.98-.6-.45-1.5-.67-2.6-.67h-2.2v5.58zm25.42.24c0 1.1-.17 2.13-.52 3.06-.35.92-.85 1.72-1.5 2.4a6.74 6.74 0 0 1-2.3 1.54c-.9.37-1.9.55-2.98.55-1.1 0-2.08-.18-2.97-.55-.9-.37-1.67-.9-2.3-1.55-.65-.67-1.14-1.47-1.5-2.4-.35-.92-.52-1.94-.52-3.05 0-1.1.17-2.12.52-3.05.36-.93.85-1.73 1.5-2.4.63-.67 1.4-1.2 2.3-1.56.9-.37 1.88-.56 2.97-.56 1.1 0 2.08.2 2.98.56.9.37 1.67.9 2.3 1.56a6.88 6.88 0 0 1 1.5 2.4c.35.93.52 1.94.52 3.05zm-2.05 0c0-.9-.14-1.72-.38-2.45-.25-.72-.6-1.33-1.06-1.83-.45-.5-1-.9-1.65-1.2-.6-.3-1.4-.4-2.2-.4-.8 0-1.5.1-2.1.4-.6.2-1.2.6-1.6 1.1-.4.5-.8 1.1-1 1.8s-.3 1.5-.3 2.4c0 .9.2 1.7.4 2.4.3.7.6 1.3 1.1 1.8.5.5 1 .9 1.7 1.1.7.2 1.4.4 2.2.4.8 0 1.5-.2 2.2-.4.7-.3 1.2-.7 1.7-1.2s.8-1.1 1.1-1.8c.3-.7.4-1.6.4-2.5zm11.57 5.8c.6 0 1.16-.1 1.64-.3.5-.2.9-.5 1.2-.87.4-.37.6-.82.8-1.33.2-.52.3-1.1.3-1.7v-9h2v9c0 .85-.1 1.64-.4 2.37-.3.73-.6 1.36-1.2 1.9-.5.53-1.1.95-1.8 1.25-.7.3-1.5.4-2.4.4-.9 0-1.7-.2-2.4-.5s-1.3-.8-1.9-1.3c-.5-.6-.9-1.2-1.1-1.9-.2-.7-.4-1.5-.4-2.4v-9h2v9c0 .6.1 1.2.3 1.7.2.5.5.9.8 1.3.4.3.8.6 1.3.8.5.2 1.1.3 1.7.3zm12.55-3.94v5.54h-1.98V.67h4.37c.9 0 1.8.1 2.5.32.7.2 1.3.5 1.7.9.5.4.8.9 1 1.4.2.5.4 1.2.4 1.9s-.1 1.3-.3 1.9c-.2.5-.6 1-1 1.5-.4.4-1 .7-1.7.9-.7.2-1.5.3-2.3.3H224zm0-1.6h2.4c.56 0 1.06-.07 1.5-.22.44-.1.8-.3 1.1-.6.3-.2.52-.6.67-1 .1-.3.2-.8.2-1.2 0-.9-.3-1.7-.9-2.2-.6-.5-1.5-.8-2.7-.8h-2.4v6.1zm22.22 7.14h-1.55c-.2 0-.4-.05-.5-.14-.1-.1-.2-.2-.3-.34l-1.4-3.6h-6.7l-1.3 3.6-.3.3c-.1.1-.3.1-.5.1h-1.5l6-14.8h2l5.9 14.8zm-9.7-5.5h5.53l-2.33-6.02c-.15-.37-.3-.84-.44-1.4l-.22.8-.22.6-2.32 6.02zm30.45-1.9c0 1.1-.2 2.12-.6 3.03-.4.9-.9 1.7-1.5 2.33-.7.65-1.4 1.15-2.3 1.5-.9.36-1.9.54-3 .54H254V.67h5.55c1.1 0 2.07.17 2.97.53.9.35 1.66.86 2.3 1.5a7.06 7.06 0 0 1 1.5 2.35c.34.9.5 1.9.5 3.02zm-2.1 0c0-.9-.2-1.72-.4-2.44-.3-.7-.6-1.32-1.1-1.8-.5-.5-1-.9-1.7-1.15-.7-.26-1.4-.4-2.2-.4H256v11.57h3.52c.8 0 1.5-.13 2.16-.4.67-.26 1.2-.63 1.67-1.13.43-.5.8-1.1 1.03-1.8.24-.73.37-1.54.37-2.45zm19.5 0c0 1.1-.2 2.13-.6 3.06-.4.92-.9 1.72-1.5 2.4-.7.65-1.4 1.17-2.3 1.54-.9.37-1.9.55-3 .55s-2.1-.18-3-.55c-.9-.37-1.7-.9-2.3-1.55-.7-.67-1.2-1.47-1.5-2.4-.4-.92-.5-1.94-.5-3.05 0-1.1.1-2.12.5-3.05.3-.93.8-1.73 1.5-2.4.6-.67 1.4-1.2 2.3-1.56.9-.37 1.9-.56 3-.56s2 .2 2.9.56c.9.37 1.6.9 2.3 1.56.6.67 1.1 1.47 1.5 2.4.3.93.5 1.94.5 3.05zm-2.1 0c0-.9-.2-1.72-.4-2.45-.3-.72-.6-1.33-1.1-1.83-.5-.5-1-.9-1.7-1.2-.7-.3-1.4-.4-2.2-.4-.8 0-1.5.1-2.2.4-.7.2-1.2.6-1.7 1.1-.5.5-.8 1.1-1.1 1.8-.3.7-.4 1.5-.4 2.4 0 .9.1 1.7.4 2.4.2.7.6 1.3 1 1.8s1 .9 1.6 1.1c.7.2 1.4.4 2.2.4.8 0 1.5-.2 2.1-.4.6-.3 1.2-.7 1.6-1.2.5-.5.8-1.1 1.1-1.8.2-.7.32-1.6.32-2.5zm13.1 1.23v6.17h-2V.67h4.2c.9 0 1.7.1 2.4.28.6.2 1.2.46 1.6.82.4.36.7.8 1 1.3.2.5.3 1.07.3 1.7 0 .52-.1 1-.3 1.46-.2.46-.4.87-.7 1.23-.3.36-.7.67-1.2.92-.5.26-1 .45-1.6.58.2.15.4.35.6.63l4.3 5.8h-1.7c-.4 0-.7-.2-.8-.4l-3.9-5.3c-.1-.2-.3-.3-.4-.4-.1-.1-.4-.1-.6-.1H295zm0-1.47h2.1c.6 0 1.1-.07 1.5-.2.4-.15.8-.35 1.1-.6.3-.26.5-.57.7-.93.1-.36.2-.75.2-1.2 0-.87-.3-1.54-.9-1.98-.6-.45-1.5-.67-2.6-.67h-2.2v5.58zM316.6.67V2.3h-7.1v4.92h5.75V8.8h-5.75v5.04h7.1v1.63h-9.12V.67h9.15zm4.3 0h2v14.8h-2zm24.85 7.4c0 1.1-.18 2.12-.53 3.03-.35.9-.85 1.7-1.5 2.33-.63.65-1.4 1.15-2.3 1.5-.9.36-1.88.54-2.97.54h-5.54V.67h5.6c1.1 0 2.1.17 3 .53.9.35 1.7.86 2.3 1.5.7.66 1.2 1.44 1.5 2.35.4.9.5 1.9.5 3.02zm-2.06 0c0-.9-.1-1.72-.4-2.44-.3-.7-.6-1.32-1.1-1.8-.5-.5-1-.9-1.7-1.15-.7-.26-1.4-.4-2.2-.4h-3.5v11.57h3.5c.8 0 1.5-.13 2.1-.4.6-.26 1.2-.63 1.6-1.13.4-.5.8-1.1 1-1.8.2-.73.4-1.54.4-2.45zm15-7.4V2.3h-7.1v4.92h5.7V8.8h-5.8v5.04h7.1v1.63h-9.1V.67h9.1zm11.1 8.63v6.17h-2V.67h4.1c.9 0 1.7.1 2.4.28.7.2 1.3.46 1.7.82.5.36.8.8 1 1.3.2.5.3 1.07.3 1.7 0 .52 0 1-.2 1.46-.2.46-.4.87-.7 1.23-.3.36-.7.67-1.2.92-.5.26-1 .45-1.6.58.2.15.4.35.6.63l4.3 5.8H377c-.37 0-.64-.2-.8-.4l-3.86-5.3c-.1-.2-.22-.3-.36-.4-.14-.1-.34-.1-.62-.1h-1.5zm0-1.47h2.1c.5 0 1.1-.07 1.5-.2.4-.15.8-.35 1.1-.6.3-.26.5-.57.7-.93.1-.36.2-.75.2-1.2 0-.87-.3-1.54-.9-1.98-.6-.45-1.5-.67-2.6-.67h-2.2v5.58zm25.4.24c0 1.1-.2 2.13-.6 3.06-.4.92-.9 1.72-1.5 2.4-.7.65-1.4 1.17-2.3 1.54-.9.37-1.9.55-3 .55s-2.1-.18-3-.55c-.9-.37-1.7-.9-2.3-1.55-.7-.67-1.2-1.47-1.5-2.4-.4-.92-.6-1.94-.6-3.05 0-1.1.2-2.12.6-3.05.3-.93.8-1.73 1.5-2.4.6-.67 1.4-1.2 2.3-1.56.9-.37 1.9-.56 2.9-.56 1.1 0 2.1.2 3 .56.9.37 1.6.9 2.3 1.56.6.67 1.1 1.47 1.5 2.4.3.93.5 1.94.5 3.05zm-2.1 0c0-.9-.1-1.72-.4-2.45-.3-.72-.6-1.33-1.1-1.83-.5-.5-1-.9-1.7-1.2-.7-.3-1.4-.4-2.2-.4s-1.5.1-2.2.4c-.7.2-1.2.6-1.7 1.1-.5.5-.8 1.1-1.1 1.8s-.4 1.5-.4 2.4c0 .9.1 1.7.3 2.4s.6 1.3 1 1.8c.5.5 1 .9 1.7 1.1.6.2 1.3.4 2.1.4s1.5-.2 2.2-.4c.6-.3 1.2-.7 1.6-1.2.42-.5.8-1.1 1.02-1.8s.4-1.6.4-2.5zm13.1 2.05c.1.16.2.34.2.52l.3.55.2-.6.2-.6 5-9.1c.1-.2.2-.3.3-.3.1-.1.2-.1.4-.1h1.5v14.8h-1.8V3.6l-5.1 9.26c-.2.3-.4.43-.8.43h-.3c-.3 0-.6-.2-.7-.5l-5.2-9.3v11.8H399V.6h1.47c.18 0 .32 0 .42.06.1.02.2.12.2.3l5.1 9.1zm24.9 5.35h-1.6c-.2 0-.4-.05-.5-.14-.1-.1-.1-.2-.2-.34l-1.4-3.6H421l-1.4 3.5c-.03.1-.12.2-.23.3-.1.1-.26.1-.43.1h-1.56l5.9-14.8h2.04l5.9 14.8zm-9.7-5.5h5.5l-2.3-6.02c-.2-.37-.3-.84-.5-1.4-.1.3-.2.55-.2.8l-.2.6-2.4 6.02z"/><path d="M15.1 8.07c0 1.1-.18 2.13-.53 3.06-.35.92-.85 1.72-1.5 2.4a6.74 6.74 0 0 1-2.3 1.54c-.9.37-1.9.55-2.98.55-1.1 0-2.1-.18-3-.55-.9-.37-1.7-.9-2.3-1.55-.7-.67-1.2-1.47-1.5-2.4C.7 10.2.5 9.2.5 8.08c0-1.1.18-2.12.53-3.05.35-.93.84-1.73 1.48-2.4.7-.67 1.5-1.2 2.4-1.56C5.8.7 6.8.5 7.8.5c1.08 0 2.07.2 2.97.56.9.37 1.67.9 2.3 1.56a6.88 6.88 0 0 1 1.5 2.4c.35.93.53 1.94.53 3.05zm-2.06 0c0-.9-.12-1.72-.37-2.45-.25-.72-.6-1.33-1.05-1.83-.46-.5-1-.9-1.66-1.2-.64-.3-1.37-.4-2.17-.4-.8 0-1.6.1-2.2.4-.7.2-1.2.6-1.7 1.1-.5.5-.8 1.1-1.1 1.8-.2.8-.3 1.6-.3 2.5 0 .9.1 1.7.3 2.4.2.7.6 1.3 1.1 1.8.4.5 1 .9 1.6 1.1.7.2 1.4.4 2.2.4.8 0 1.5-.2 2.1-.4.6-.3 1.2-.7 1.6-1.2.4-.5.8-1.1 1-1.8S13 8.9 13 8zM30.5 14c.4 0 .76 0 1.1-.04.32-.04.64-.1.93-.17l.84-.3c.26-.1.52-.3.8-.4V9.9h-2.3c-.14 0-.24-.04-.32-.1-.08-.1-.12-.18-.12-.3V8.36h4.54v5.68c-.37.27-.76.5-1.16.7-.4.2-.8.37-1.2.5-.4.14-.9.24-1.4.3-.5.07-1.1.1-1.7.1-1.1 0-2-.18-2.9-.55-.9-.4-1.6-.9-2.3-1.6-.6-.7-1.1-1.5-1.5-2.4-.3-.9-.5-2-.5-3.1 0-1.2.2-2.2.6-3.1.4-.9.9-1.7 1.5-2.4s1.5-1.2 2.4-1.6c.9-.4 2-.5 3.1-.5.6 0 1.1 0 1.6.1s1 .2 1.4.4c.5.1.9.3 1.2.6.4.2.7.4 1.1.7l-.6.9c-.1.2-.3.3-.4.3-.1 0-.2-.1-.3-.2l-.6-.3c-.2-.2-.5-.3-.8-.4-.3-.2-.6-.3-1.1-.4-.4-.1-.9-.1-1.5-.1-.8 0-1.6.1-2.3.4-.7.3-1.2.6-1.7 1.1-.5.5-.8 1.1-1.1 1.8-.2.7-.4 1.5-.4 2.4 0 .9.2 1.7.4 2.5.3.7.7 1.3 1.1 1.8.5.5 1.1.9 1.7 1.2.7.3 1.4.4 2.2.4zm21.76 1.47H50.7c-.16 0-.3-.05-.42-.14-.1-.1-.2-.2-.25-.34l-1.38-3.6H42L40.63 15a.76.76 0 0 1-.25.32c-.1.1-.26.15-.43.15H38.4L44.3.67h2.05l5.9 14.8zm-9.7-5.5h5.53l-2.4-6.02c-.2-.37-.3-.84-.5-1.4-.1.3-.2.55-.2.8l-.2.6-2.4 6.02zM63.9.67v1.68h-4.8v13.12h-2V2.35h-4.8V.67h11.6zm15.86 7.4c0 1.1-.17 2.13-.52 3.06-.35.92-.85 1.72-1.5 2.4a6.74 6.74 0 0 1-2.3 1.54c-.9.37-1.9.55-2.98.55-1.1 0-2.08-.18-2.98-.55-.9-.37-1.66-.9-2.3-1.55a7.183 7.183 0 0 1-1.5-2.4c-.34-.92-.5-1.94-.5-3.05 0-1.1.16-2.12.5-3.05.36-.93.86-1.73 1.5-2.4.64-.67 1.4-1.2 2.3-1.56.9-.37 1.9-.56 2.98-.56 1.1 0 2.08.2 2.98.56.9.37 1.67.9 2.3 1.56a6.88 6.88 0 0 1 1.5 2.4c.35.93.52 1.94.52 3.05zm-2.05 0c0-.9-.1-1.72-.3-2.45-.2-.72-.6-1.33-1-1.83s-1-.9-1.6-1.2c-.6-.3-1.3-.4-2.1-.4s-1.5.1-2.1.4c-.6.2-1.2.6-1.6 1.1-.4.5-.8 1.1-1 1.8s-.4 1.5-.4 2.4c0 .9.2 1.7.4 2.4.3.7.6 1.3 1.1 1.8.5.5 1 .9 1.7 1.1.7.2 1.4.4 2.2.4.8 0 1.6-.2 2.2-.4.7-.3 1.2-.7 1.7-1.2s.8-1.1 1.1-1.8.3-1.5.3-2.4zM90.8 9.3v6.17h-2V.67H93c.93 0 1.74.1 2.42.28.67.2 1.24.46 1.7.82.43.36.75.8.97 1.3.2.5.3 1.07.3 1.7 0 .52-.1 1-.3 1.46-.2.46-.4.87-.7 1.23-.3.36-.7.67-1.1.92-.5.26-1 .45-1.6.58.2.15.4.35.6.63l4.3 5.8h-1.7c-.4 0-.7-.2-.8-.4l-3.8-5.3c-.1-.2-.3-.3-.4-.4-.2-.1-.4-.1-.7-.1h-1.5zm0-1.47h2.1c.6 0 1.1-.07 1.55-.2.45-.15.8-.35 1.1-.6.3-.26.55-.57.7-.93.15-.36.23-.75.23-1.2 0-.87-.3-1.54-.88-1.98-.58-.45-1.45-.67-2.6-.67h-2.2v5.58zm25.42.24c0 1.1-.2 2.13-.54 3.06-.35.92-.85 1.72-1.5 2.4a6.74 6.74 0 0 1-2.3 1.54c-.9.37-1.9.55-2.98.55s-2.08-.18-2.97-.55c-.9-.37-1.7-.9-2.3-1.55-.65-.67-1.14-1.47-1.5-2.4-.36-.92-.54-1.94-.54-3.05 0-1.1.1-2.12.5-3.05.3-.93.8-1.73 1.4-2.4.6-.67 1.4-1.2 2.3-1.56.9-.37 1.9-.56 3-.56s2.1.2 3 .56c.9.37 1.7.9 2.3 1.56.6.67 1.1 1.47 1.5 2.4.3.93.5 1.94.5 3.05zm-2.07 0c0-.9-.1-1.72-.35-2.45-.25-.72-.6-1.33-1.05-1.83-.47-.5-1.02-.9-1.67-1.2-.64-.3-1.37-.4-2.17-.4-.8 0-1.5.1-2.1.4-.6.2-1.2.6-1.6 1.1-.4.5-.8 1.1-1 1.8s-.4 1.5-.4 2.4c0 .9.2 1.7.4 2.4.3.7.6 1.3 1.1 1.8.5.5 1 .9 1.7 1.1.7.2 1.4.4 2.2.4.8 0 1.5-.2 2.2-.4.7-.3 1.2-.7 1.7-1.2s.8-1.1 1.1-1.8.38-1.6.38-2.5zM129.1.67V2.3H122v4.92h5.74V8.8H122v5.04h7.1v1.63H120V.67h9.1zm9.66 13.2c.6 0 1.16-.1 1.64-.3.47-.2.9-.5 1.2-.87.33-.37.58-.82.76-1.33.17-.52.26-1.1.26-1.7v-9h2v9c0 .85-.13 1.64-.4 2.37-.27.73-.66 1.36-1.17 1.9-.5.53-1.12.95-1.85 1.25-.74.3-1.56.4-2.47.4-.9 0-1.72-.2-2.45-.5-.73-.3-1.35-.8-1.86-1.3-.5-.6-.9-1.2-1.17-1.9-.27-.7-.4-1.5-.4-2.4v-9h1.98v9c0 .6.1 1.2.28 1.7.2.5.5.9.8 1.3.4.3.8.6 1.3.8.5.2 1.1.3 1.7.3zm27.57 1.6h-1.56c-.18 0-.32-.05-.43-.14-.1-.1-.2-.2-.23-.34l-1.4-3.6h-6.6l-1.4 3.6c0 .1-.1.2-.2.3-.1.1-.2.1-.4.1h-1.5L158.4.6h2.04l5.93 14.8zm-9.7-5.5h5.52l-2.33-6.02c-.16-.37-.3-.84-.45-1.4l-.23.8-.2.6-2.32 6.02zm19.8-.67v6.17h-1.98V.67h4.18c.94 0 1.75.1 2.43.28.68.2 1.24.46 1.7.82.43.36.76.8.98 1.3.23.5.34 1.07.34 1.7 0 .52-.1 1-.25 1.46-.18.46-.4.87-.73 1.23-.3.36-.7.67-1.16.92-.44.26-.95.45-1.52.58.25.15.47.35.66.63l4.32 5.8h-1.78c-.36 0-.63-.2-.8-.4l-3.85-5.3c-.1-.2-.24-.3-.38-.4-.2-.1-.4-.1-.7-.1h-1.5zm0-1.47h2.1c.6 0 1.1-.07 1.55-.2.45-.15.82-.35 1.12-.6.3-.26.5-.57.67-.93.15-.36.22-.75.22-1.2 0-.87-.3-1.54-.9-1.98-.6-.45-1.5-.67-2.6-.67h-2.2v5.58zm25.42.24c0 1.1-.17 2.13-.52 3.06-.35.92-.85 1.72-1.5 2.4a6.74 6.74 0 0 1-2.3 1.54c-.9.37-1.9.55-2.98.55-1.1 0-2.08-.18-2.97-.55-.9-.37-1.67-.9-2.3-1.55-.65-.67-1.14-1.47-1.5-2.4-.35-.92-.52-1.94-.52-3.05 0-1.1.17-2.12.52-3.05.36-.93.85-1.73 1.5-2.4.63-.67 1.4-1.2 2.3-1.56.9-.37 1.88-.56 2.97-.56 1.1 0 2.08.2 2.98.56.9.37 1.67.9 2.3 1.56a6.88 6.88 0 0 1 1.5 2.4c.35.93.52 1.94.52 3.05zm-2.05 0c0-.9-.14-1.72-.38-2.45-.25-.72-.6-1.33-1.06-1.83-.45-.5-1-.9-1.65-1.2-.6-.3-1.4-.4-2.2-.4-.8 0-1.5.1-2.1.4-.6.2-1.2.6-1.6 1.1-.4.5-.8 1.1-1 1.8s-.3 1.5-.3 2.4c0 .9.2 1.7.4 2.4.3.7.6 1.3 1.1 1.8.5.5 1 .9 1.7 1.1.7.2 1.4.4 2.2.4.8 0 1.5-.2 2.2-.4.7-.3 1.2-.7 1.7-1.2s.8-1.1 1.1-1.8c.3-.7.4-1.6.4-2.5zm11.57 5.8c.6 0 1.16-.1 1.64-.3.5-.2.9-.5 1.2-.87.4-.37.6-.82.8-1.33.2-.52.3-1.1.3-1.7v-9h2v9c0 .85-.1 1.64-.4 2.37-.3.73-.6 1.36-1.2 1.9-.5.53-1.1.95-1.8 1.25-.7.3-1.5.4-2.4.4-.9 0-1.7-.2-2.4-.5s-1.3-.8-1.9-1.3c-.5-.6-.9-1.2-1.1-1.9-.2-.7-.4-1.5-.4-2.4v-9h2v9c0 .6.1 1.2.3 1.7.2.5.5.9.8 1.3.4.3.8.6 1.3.8.5.2 1.1.3 1.7.3zm12.55-3.94v5.54h-1.98V.67h4.37c.9 0 1.8.1 2.5.32.7.2 1.3.5 1.7.9.5.4.8.9 1 1.4.2.5.4 1.2.4 1.9s-.1 1.3-.3 1.9c-.2.5-.6 1-1 1.5-.4.4-1 .7-1.7.9-.7.2-1.5.3-2.3.3H224zm0-1.6h2.4c.56 0 1.06-.07 1.5-.22.44-.1.8-.3 1.1-.6.3-.2.52-.6.67-1 .1-.3.2-.8.2-1.2 0-.9-.3-1.7-.9-2.2-.6-.5-1.5-.8-2.7-.8h-2.4v6.1zm22.22 7.14h-1.55c-.2 0-.4-.05-.5-.14-.1-.1-.2-.2-.3-.34l-1.4-3.6h-6.7l-1.3 3.6-.3.3c-.1.1-.3.1-.5.1h-1.5l6-14.8h2l5.9 14.8zm-9.7-5.5h5.53l-2.33-6.02c-.15-.37-.3-.84-.44-1.4l-.22.8-.22.6-2.32 6.02zm30.45-1.9c0 1.1-.2 2.12-.6 3.03-.4.9-.9 1.7-1.5 2.33-.7.65-1.4 1.15-2.3 1.5-.9.36-1.9.54-3 .54H254V.67h5.55c1.1 0 2.07.17 2.97.53.9.35 1.66.86 2.3 1.5a7.06 7.06 0 0 1 1.5 2.35c.34.9.5 1.9.5 3.02zm-2.1 0c0-.9-.2-1.72-.4-2.44-.3-.7-.6-1.32-1.1-1.8-.5-.5-1-.9-1.7-1.15-.7-.26-1.4-.4-2.2-.4H256v11.57h3.52c.8 0 1.5-.13 2.16-.4.67-.26 1.2-.63 1.67-1.13.43-.5.8-1.1 1.03-1.8.24-.73.37-1.54.37-2.45zm19.5 0c0 1.1-.2 2.13-.6 3.06-.4.92-.9 1.72-1.5 2.4-.7.65-1.4 1.17-2.3 1.54-.9.37-1.9.55-3 .55s-2.1-.18-3-.55c-.9-.37-1.7-.9-2.3-1.55-.7-.67-1.2-1.47-1.5-2.4-.4-.92-.5-1.94-.5-3.05 0-1.1.1-2.12.5-3.05.3-.93.8-1.73 1.5-2.4.6-.67 1.4-1.2 2.3-1.56.9-.37 1.9-.56 3-.56s2 .2 2.9.56c.9.37 1.6.9 2.3 1.56.6.67 1.1 1.47 1.5 2.4.3.93.5 1.94.5 3.05zm-2.1 0c0-.9-.2-1.72-.4-2.45-.3-.72-.6-1.33-1.1-1.83-.5-.5-1-.9-1.7-1.2-.7-.3-1.4-.4-2.2-.4-.8 0-1.5.1-2.2.4-.7.2-1.2.6-1.7 1.1-.5.5-.8 1.1-1.1 1.8-.3.7-.4 1.5-.4 2.4 0 .9.1 1.7.4 2.4.2.7.6 1.3 1 1.8s1 .9 1.6 1.1c.7.2 1.4.4 2.2.4.8 0 1.5-.2 2.1-.4.6-.3 1.2-.7 1.6-1.2.5-.5.8-1.1 1.1-1.8.2-.7.32-1.6.32-2.5zm13.1 1.23v6.17h-2V.67h4.2c.9 0 1.7.1 2.4.28.6.2 1.2.46 1.6.82.4.36.7.8 1 1.3.2.5.3 1.07.3 1.7 0 .52-.1 1-.3 1.46-.2.46-.4.87-.7 1.23-.3.36-.7.67-1.2.92-.5.26-1 .45-1.6.58.2.15.4.35.6.63l4.3 5.8h-1.7c-.4 0-.7-.2-.8-.4l-3.9-5.3c-.1-.2-.3-.3-.4-.4-.1-.1-.4-.1-.6-.1H295zm0-1.47h2.1c.6 0 1.1-.07 1.5-.2.4-.15.8-.35 1.1-.6.3-.26.5-.57.7-.93.1-.36.2-.75.2-1.2 0-.87-.3-1.54-.9-1.98-.6-.45-1.5-.67-2.6-.67h-2.2v5.58zM316.6.67V2.3h-7.1v4.92h5.75V8.8h-5.75v5.04h7.1v1.63h-9.12V.67h9.15zm4.3 0h2v14.8h-2zm24.85 7.4c0 1.1-.18 2.12-.53 3.03-.35.9-.85 1.7-1.5 2.33-.63.65-1.4 1.15-2.3 1.5-.9.36-1.88.54-2.97.54h-5.54V.67h5.6c1.1 0 2.1.17 3 .53.9.35 1.7.86 2.3 1.5.7.66 1.2 1.44 1.5 2.35.4.9.5 1.9.5 3.02zm-2.06 0c0-.9-.1-1.72-.4-2.44-.3-.7-.6-1.32-1.1-1.8-.5-.5-1-.9-1.7-1.15-.7-.26-1.4-.4-2.2-.4h-3.5v11.57h3.5c.8 0 1.5-.13 2.1-.4.6-.26 1.2-.63 1.6-1.13.4-.5.8-1.1 1-1.8.2-.73.4-1.54.4-2.45zm15-7.4V2.3h-7.1v4.92h5.7V8.8h-5.8v5.04h7.1v1.63h-9.1V.67h9.1zm11.1 8.63v6.17h-2V.67h4.1c.9 0 1.7.1 2.4.28.7.2 1.3.46 1.7.82.5.36.8.8 1 1.3.2.5.3 1.07.3 1.7 0 .52 0 1-.2 1.46-.2.46-.4.87-.7 1.23-.3.36-.7.67-1.2.92-.5.26-1 .45-1.6.58.2.15.4.35.6.63l4.3 5.8H377c-.37 0-.64-.2-.8-.4l-3.86-5.3c-.1-.2-.22-.3-.36-.4-.14-.1-.34-.1-.62-.1h-1.5zm0-1.47h2.1c.5 0 1.1-.07 1.5-.2.4-.15.8-.35 1.1-.6.3-.26.5-.57.7-.93.1-.36.2-.75.2-1.2 0-.87-.3-1.54-.9-1.98-.6-.45-1.5-.67-2.6-.67h-2.2v5.58zm25.4.24c0 1.1-.2 2.13-.6 3.06-.4.92-.9 1.72-1.5 2.4-.7.65-1.4 1.17-2.3 1.54-.9.37-1.9.55-3 .55s-2.1-.18-3-.55c-.9-.37-1.7-.9-2.3-1.55-.7-.67-1.2-1.47-1.5-2.4-.4-.92-.6-1.94-.6-3.05 0-1.1.2-2.12.6-3.05.3-.93.8-1.73 1.5-2.4.6-.67 1.4-1.2 2.3-1.56.9-.37 1.9-.56 2.9-.56 1.1 0 2.1.2 3 .56.9.37 1.6.9 2.3 1.56.6.67 1.1 1.47 1.5 2.4.3.93.5 1.94.5 3.05zm-2.1 0c0-.9-.1-1.72-.4-2.45-.3-.72-.6-1.33-1.1-1.83-.5-.5-1-.9-1.7-1.2-.7-.3-1.4-.4-2.2-.4s-1.5.1-2.2.4c-.7.2-1.2.6-1.7 1.1-.5.5-.8 1.1-1.1 1.8s-.4 1.5-.4 2.4c0 .9.1 1.7.3 2.4s.6 1.3 1 1.8c.5.5 1 .9 1.7 1.1.6.2 1.3.4 2.1.4s1.5-.2 2.2-.4c.6-.3 1.2-.7 1.6-1.2.42-.5.8-1.1 1.02-1.8s.4-1.6.4-2.5zm13.1 2.05c.1.16.2.34.2.52l.3.55.2-.6.2-.6 5-9.1c.1-.2.2-.3.3-.3.1-.1.2-.1.4-.1h1.5v14.8h-1.8V3.6l-5.1 9.26c-.2.3-.4.43-.8.43h-.3c-.3 0-.6-.2-.7-.5l-5.2-9.3v11.8H399V.6h1.47c.18 0 .32 0 .42.06.1.02.2.12.2.3l5.1 9.1zm24.9 5.35h-1.6c-.2 0-.4-.05-.5-.14-.1-.1-.1-.2-.2-.34l-1.4-3.6H421l-1.4 3.5c-.03.1-.12.2-.23.3-.1.1-.26.1-.43.1h-1.56l5.9-14.8h2.04l5.9 14.8zm-9.7-5.5h5.5l-2.3-6.02c-.2-.37-.3-.84-.5-1.4-.1.3-.2.55-.2.8l-.2.6-2.4 6.02z" stroke="#fff" stroke-width=".99"/></g></svg>