<?xml version="1.0" encoding="UTF-8" standalone="no"?>
<!DOCTYPE svg PUBLIC "-//W3C//DTD SVG 1.1//EN" "http://www.w3.org/Graphics/SVG/1.1/DTD/svg11.dtd">
<svg width="100%" height="100%" viewBox="0 0 221 190" version="1.1" xmlns="http://www.w3.org/2000/svg" xmlns:xlink="http://www.w3.org/1999/xlink" xml:space="preserve" style="fill-rule:evenodd;clip-rule:evenodd;stroke-linejoin:round;stroke-miterlimit:1.41421;">
    <g transform="matrix(1,0,0,1,-213.282,-59.87)">
        <path d="M342.63,109.78C344.79,109.38 343.83,108.06 343.35,106.93C340.83,102.51 331.71,99.6 329.77,105.36C328.6,108.82 330.77,114.16 334.47,114.76C339.47,115.59 339.04,110.59 342.63,109.78M424.09,171.35C429.36,163.79 433.83,156.41 432.44,145.23C430.89,132.9 423.34,130.25 416.24,123.83C414.34,122.09 413.24,119.33 411.54,118.08C407.24,114.94 396.96,113.56 392.74,115.98C392.21,116.08 391.92,116.38 391.74,116.8C391.12,118.14 389.98,119.14 388.62,119.72C382.96,122.17 380.74,130.18 373.42,132.18C366.42,134.1 356.18,130.58 346.79,131.65C343.39,132.05 339.23,133.97 336.34,133.75C328.54,133.12 323.34,127.75 316.5,128C311.98,128.16 308.37,131.05 303.97,131.13C299.2,131.23 295.31,128.13 290.91,128C282.23,127.75 273.87,132.45 271.61,138.97C266.61,137.45 269.03,134.44 268.49,130.47C267.29,121.6 259.36,117.92 248.55,117.59C247.91,117.56 247.27,117.69 246.67,117.92C241.57,119.94 236.37,120.72 232.43,124.32C227.69,128.68 221.28,138.82 218.85,145.75C213.57,160.83 219.25,179.82 231.39,186.48C237.22,189.68 244.23,188.78 253.23,189.9C254.13,190.02 255.07,189.76 255.75,189.15C257.55,187.55 260.29,186.92 262.2,185.43C263.75,184.26 261.2,181.99 263.23,181.77C264.03,182.27 264.71,182.55 265.29,182.74C267.79,183.54 268.32,186.86 266.21,188.44C264.99,189.34 263.81,190.21 263.75,192.21C263.57,197.91 272.25,200.77 276.77,197.19C278.02,196.19 279.63,195.74 281.19,196.06C292.29,198.26 302.99,193.72 312.32,195.33C318.47,196.39 326.42,193.13 333.22,194.81C334.36,195.11 335.12,196.24 336.34,196.38C339.97,196.78 343.94,195.92 347.26,194.33C348.01,193.97 348.86,193.93 349.62,194.27C353.88,196.1 359.99,199.85 366.12,199C368.47,198.67 370.68,195.88 373.42,195.34C378.16,194.42 383.26,196.38 387,193.77C388.68,192.61 388.96,190.97 389.58,189.4C390.02,188.27 391.15,187.58 392.34,187.7C409.58,189.36 417.11,181.3 424.09,171.3M433.17,148.15C433.9,150.18 433.83,152.4 433.17,154.42C431.37,168.47 426.47,177.06 416.45,184.19C412.57,186.95 406.28,189.71 401.31,190.46C399.84,190.66 397.74,189.99 396.09,190.46C394.35,190.93 394.01,192.29 392.43,193.06C391.37,193.58 390.23,193.06 388.78,193.58C386.33,194.45 384.18,196.88 382.5,197.24C379.14,197.94 375.2,196.66 372.05,197.24C367.43,198.08 364.15,201 359.51,200.89C355.11,200.79 352.08,199.36 348.11,197.49C347.15,197.03 346.03,197.01 345.04,197.43C339.77,199.71 334.42,197.9 328.18,197.23C322.41,196.63 315.68,199.36 307.82,199.85C300.38,200.3 286.32,196.75 277.52,198.27C273.92,198.9 270.98,201.52 267.6,200.87C262.7,199.97 259.9,193.13 261.33,188.87C241.19,198.95 218.11,184.97 214.85,168.5C214.49,166.65 215.08,164.4 214.85,162.24C214.58,159.66 213.35,157.19 213.29,154.91C213.09,148.26 216.46,140.41 220.09,134.54C222.87,130.04 226.17,124.4 229.49,121.5C238.31,113.78 257.79,113.84 266.42,122.72C267.19,123.52 267.72,124.52 267.95,125.6C268.35,127.4 268.69,129.2 269.18,130.9C274.08,129.5 280.11,125.75 287.98,126.7C287.36,119.1 290.81,112.07 298.94,111.57C297.54,107.82 292.22,104.22 291.62,99.57C288.9,78.34 306.02,61.27 325.05,59.87L333.4,59.87C342.9,60.47 349.5,63.97 351.7,71.87C370.95,61.13 395,69.07 395.03,91.2C395.03,96.34 393.91,106.7 390.33,111.05C387.13,114.95 379.78,117.92 373.63,119.95C373.19,121.3 374.78,124.51 374.13,127.75C379.23,124.81 382.99,121.5 387.2,117.33C389.5,115.03 390.27,112.73 394,112.1C415.14,108.52 436.06,130.54 433.16,148.13M350.86,113.47C350.94,113.29 351.11,113.14 351.28,113.07C351.36,113.03 351.44,113.02 351.52,113.02C351.95,113.22 352.19,113.27 351.97,113.12C354,113.78 354.91,115.72 357.07,116.17C357.35,116.24 359.2,116.67 359.5,116.65C363.2,116.45 362.47,112.58 362.05,108.31C362.03,108.08 361.93,107.86 361.75,107.73C358.65,105.4 351.57,107.28 348.95,109.53C347.77,110.9 350.25,112.43 351.45,113C351.39,113 351.33,113.03 351.27,113.07C351.07,113.13 350.91,113.27 350.85,113.47M350.83,113.47C350.71,113.74 350.73,114.07 351.05,114.34C352.8,115.88 345.87,112.29 342.41,112.14C342.26,112.14 342.11,112.16 341.96,112.24C338.88,113.88 338.68,116.74 334.86,116.84C327.04,116.97 324.36,101 332.76,99.07C339.76,97.47 339.83,102.9 343.73,104.81C349.67,107.71 355.81,103.09 360.43,103.77C365.63,104.53 365.8,110.09 365.25,115.8C365.19,116.34 365.63,116.8 366.17,116.74C376.14,115.79 387.44,111.59 390.2,103.24C393.24,94.07 389.24,78.61 382.9,72.94C379.9,70.29 375.04,68.98 371.4,68.77C362.1,68.24 357.66,75.52 349.2,76.39C348.5,76.47 347.93,76.32 347.9,75.67C347.6,66.61 341.2,62.63 333.28,62.51C325.02,62.38 309.88,65.45 303.51,71.91C300.34,75.11 297.51,81.27 296.71,87.05C294.78,101.21 299.28,106.33 305.25,113.09C306.05,113.99 305.35,115.39 304.15,115.29C300.38,115.04 295.81,114.14 293.23,116.66C293.13,116.78 293.03,116.92 292.95,117.06C292.35,118.18 292.15,119.66 292.05,121.06C292.02,121.73 292.19,122.41 292.58,122.96C297.06,129.46 304.25,124.89 315,125.72C323.65,126.38 331.6,131.95 337.98,131.98C340.56,132 343.82,130.44 347.38,129.88C359.24,128.08 368,132.68 369.62,122.94C369.76,122.11 369.16,121.34 368.32,121.28C366.67,121.14 365.59,119.52 363.42,118.58C363.22,118.48 362.96,118.48 362.75,118.58C359.47,120.13 352.99,116.08 351.03,114.35C350.76,114.11 350.7,113.75 350.81,113.48" style="fill:rgb(51,51,51);"/>
        <path d="M243.54,149.2C243.98,149.35 244.34,148.84 244.04,148.5C238.18,141.9 230.69,157.6 237.49,161.28C239.31,162.28 240.89,159.45 239.09,158.41C238.25,157.94 237.17,157.71 236.22,157.33C234.18,152.66 239.14,147.83 243.52,149.21M283.8,154.46C285.63,154.46 286.07,153.06 285.93,151.06C285.91,150.9 285.85,150.73 285.73,150.6C282.91,147.37 279.4,153.92 283.81,154.45M326.71,171.28C326.91,167.18 325.17,166.32 323.53,164.13C323.13,163.58 322.5,163.26 321.83,163.21C316.58,162.79 317.29,165.15 314.08,166.54C313.63,166.74 313.28,167.1 313.11,167.54C312.71,168.52 311.98,169.76 312.61,171.1C312.87,171.62 313.37,171.97 313.93,172.16C315.53,172.7 315.68,177.12 318.31,177.42C318.48,177.44 318.59,177.62 318.51,177.78C317.46,179.33 319.88,181.95 318.29,183.18C317.05,182.46 315.89,181.66 315.02,180.58C314.92,180.41 314.65,180.51 314.67,180.72C315.24,187.3 327.21,184.86 326.19,180.42C325.49,182.16 322.74,181.52 321.43,182.65C320.71,181.27 319.86,179.99 319.79,177.95C319.76,177.02 320.19,176.13 320.96,175.62C322.59,174.52 324.16,173.78 325.88,172.72C326.38,172.42 326.71,171.87 326.73,171.28M338.65,144C329.83,145.17 327.6,139.73 324.02,135.65C323.62,135.13 322.96,135.13 322.46,136.17C321.16,138.84 326.36,141.91 326.11,143.47C318.37,143.07 313.67,139.41 309.68,135.4C309.48,135.2 309.23,135.06 308.96,135.06C308.73,135.06 308.53,135.1 308.33,135.19C307.85,135.41 307.59,135.95 307.63,136.49C307.63,136.51 307.63,136.53 307.63,136.54C309.21,145.3 329.11,146.98 338.66,144M367.34,153.08C367.74,152.33 367.9,151.68 367.56,150.71C367.46,150.41 367.23,150.17 366.96,150.03C365.24,149.21 362.79,150.06 363.11,152.43C363.14,152.73 363.31,152.98 363.54,153.16C364.12,153.6 364.74,153.98 365.7,154.02C366.37,154.07 367.02,153.7 367.33,153.1M403.69,160.26C409.94,154.9 397.01,138.76 393.49,149.26C397.14,145.56 402.92,150.13 402.87,154.99C402.27,155.55 401.43,156.12 400.71,156.77C398.51,158.77 401.44,162.17 403.68,160.27M432.43,145.25C433.83,156.43 429.35,163.81 424.07,171.35C417.07,181.35 409.55,189.4 392.31,187.75C391.11,187.63 389.99,188.32 389.55,189.45C388.93,191.01 388.65,192.65 386.98,193.82C383.26,196.42 378.15,194.47 373.41,195.39C370.67,195.93 368.46,198.72 366.11,199.05C359.98,199.9 353.87,196.15 349.61,194.33C348.85,194.01 348.01,194.03 347.25,194.4C343.95,196 339.97,196.84 336.33,196.45C335.13,196.32 334.35,195.17 333.2,194.88C326.42,193.2 318.46,196.46 312.3,195.4C303,193.8 292.27,198.32 281.18,196.12C279.62,195.79 278.01,196.25 276.76,197.24C272.23,200.82 263.56,197.96 263.74,192.26C263.8,190.26 264.98,189.4 266.2,188.49C268.3,186.91 267.78,183.59 265.27,182.79C264.67,182.59 264.02,182.32 263.21,181.81C261.16,182.01 263.71,184.29 262.16,185.46C260.24,186.96 257.49,187.58 255.71,189.18C255.01,189.78 254.09,190.05 253.18,189.93C244.18,188.83 237.18,189.7 231.34,186.5C219.19,179.83 213.52,160.84 218.8,145.76C221.23,138.81 227.64,128.69 232.38,124.34C236.32,120.74 241.51,119.94 246.62,117.94C247.22,117.7 247.86,117.57 248.5,117.59C259.3,117.91 267.24,121.59 268.45,130.47C268.97,134.43 266.55,137.44 271.55,138.97C273.81,132.44 282.17,127.74 290.85,127.99C295.25,128.12 299.15,131.22 303.92,131.12C308.32,131.04 311.92,128.15 316.46,127.99C323.31,127.74 328.52,133.11 336.31,133.73C339.21,133.96 343.37,132.03 346.76,131.63C356.16,130.57 366.38,134.09 373.39,132.17C380.71,130.17 382.93,122.17 388.59,119.71C389.95,119.13 391.09,118.13 391.69,116.79C391.89,116.39 392.19,116.06 392.72,115.99C396.92,113.55 407.22,114.93 411.52,118.07C413.22,119.32 414.3,122.07 416.22,123.81C423.3,130.24 430.86,132.89 432.42,145.21" style="fill:rgb(239,244,244);"/>
        <path d="M393.5,149.23C397.02,138.73 409.94,154.88 403.7,160.23C401.45,162.16 398.53,158.73 400.7,156.75C401.44,156.1 402.27,155.53 402.88,154.97C402.93,150.11 397.15,145.53 393.48,149.23" style="fill:rgb(51,51,51);"/>
        <path d="M382.94,73C389.29,78.68 393.29,94.14 390.24,103.3C387.49,111.65 376.19,115.85 366.22,116.8C365.68,116.85 365.24,116.4 365.29,115.86C365.84,110.16 365.65,104.59 360.47,103.83C355.84,103.13 349.7,107.78 343.77,104.87C339.87,102.97 339.8,97.52 332.79,99.13C324.39,101.06 327.07,117.03 334.89,116.89C338.71,116.79 338.91,113.93 341.99,112.29C342.12,112.21 342.29,112.19 342.44,112.19C345.89,112.34 352.82,115.93 351.07,114.39C353.03,116.09 359.51,120.16 362.79,118.59C362.99,118.49 363.26,118.51 363.47,118.59C365.63,119.55 366.71,121.17 368.37,121.31C369.2,121.38 369.8,122.14 369.67,122.97C368.04,132.7 359.27,128.1 347.42,129.92C343.86,130.47 340.6,132.02 338.02,132.02C331.65,131.98 323.69,126.42 315.04,125.75C304.29,124.92 297.1,129.5 292.62,123C292.24,122.45 292.06,121.77 292.1,121.1C292.2,119.7 292.4,118.23 293,117.1C293.07,116.95 293.17,116.82 293.28,116.7C295.86,114.2 300.43,115.1 304.21,115.35C305.41,115.45 306.11,114.03 305.31,113.15C299.34,106.38 294.83,101.25 296.78,87.12C297.58,81.32 300.4,75.18 303.58,71.97C309.93,65.51 325.08,62.44 333.34,62.57C341.24,62.69 347.67,66.67 347.97,75.73C347.99,76.38 348.57,76.53 349.25,76.45C357.72,75.58 362.17,68.3 371.45,68.83C375.11,69.03 379.95,70.35 382.95,73.01" style="fill:rgb(248,213,224);"/>
        <path d="M367.55,150.7C367.89,151.68 367.72,152.33 367.33,153.1C367.03,153.7 366.37,154.05 365.69,154C364.73,153.97 364.09,153.6 363.52,153.15C363.29,152.98 363.12,152.71 363.09,152.42C362.77,150.05 365.22,149.2 366.93,150.02C367.21,150.16 367.43,150.42 367.53,150.72" style="fill:rgb(51,51,51);"/>
        <path d="M362.08,108.36C362.5,112.63 363.22,116.5 359.53,116.71C359.23,116.73 357.38,116.31 357.09,116.23C354.93,115.77 354.02,113.83 351.99,113.18C351.96,113.16 351.93,113.14 351.89,113.12C351.76,113.05 351.62,113.04 351.47,113.07C350.27,112.52 347.8,110.97 348.99,109.6C351.59,107.35 358.66,105.47 361.77,107.8C361.95,107.93 362.05,108.15 362.07,108.38M352,113.17C352.2,113.32 351.97,113.27 351.54,113.07C351.62,113.07 351.7,113.09 351.78,113.11C351.86,113.14 351.92,113.16 351.98,113.18M352,113.17C351.92,113.15 351.86,113.13 351.78,113.11C351.7,113.11 351.62,113.09 351.54,113.09C351.52,113.07 351.5,113.06 351.48,113.06C351.63,113.03 351.78,113.04 351.88,113.12C351.94,113.15 351.98,113.17 351.98,113.19M351.48,113.05C351.5,113.05 351.52,113.05 351.54,113.07C351.46,113.07 351.38,113.09 351.3,113.12C351.36,113.08 351.42,113.06 351.48,113.05M351.3,113.12C351.13,113.19 350.96,113.34 350.88,113.52C350.94,113.32 351.08,113.18 351.3,113.12M350.87,113.53C350.77,113.81 350.81,114.16 351.07,114.39C350.77,114.09 350.74,113.79 350.87,113.52M343.35,106.93C343.82,108.05 344.78,109.39 342.63,109.78C339.03,110.58 339.47,115.58 334.47,114.78C330.77,114.16 328.6,108.82 329.77,105.38C331.71,99.6 340.83,102.51 343.35,106.93" style="fill:rgb(248,213,224);"/>
        <path d="M324.02,135.65C327.6,139.73 329.82,145.17 338.65,144.01C329.1,147.01 309.2,145.31 307.63,136.56C307.63,136.56 307.63,136.53 307.63,136.51C307.58,135.97 307.83,135.44 308.33,135.21C308.53,135.11 308.73,135.06 308.95,135.07C309.22,135.07 309.48,135.21 309.67,135.41C313.65,139.41 318.37,143.07 326.11,143.49C326.38,141.92 321.16,138.85 322.47,136.19C322.97,135.14 323.63,135.14 324.03,135.66M323.52,164.13C325.16,166.31 326.89,167.19 326.7,171.28C326.68,171.88 326.35,172.41 325.85,172.72C324.15,173.78 322.55,174.52 320.93,175.62C320.16,176.12 319.73,177.02 319.76,177.94C319.83,179.99 320.66,181.27 321.41,182.64C322.73,181.54 325.47,182.16 326.18,180.42C327.2,184.86 315.23,187.3 314.66,180.72C314.64,180.52 314.9,180.42 315.02,180.57C315.9,181.67 317.05,182.47 318.3,183.17C319.9,181.95 317.47,179.33 318.5,177.77C318.6,177.63 318.5,177.44 318.32,177.42C315.69,177.12 315.55,172.7 313.94,172.15C313.38,171.97 312.88,171.62 312.62,171.09C311.99,169.74 312.72,168.49 313.12,167.52C313.3,167.08 313.64,166.72 314.09,166.52C317.29,165.12 316.59,162.77 321.84,163.2C322.51,163.26 323.14,163.58 323.54,164.13M285.93,151.06C286.07,153.06 285.63,154.44 283.81,154.46C279.41,153.91 282.91,147.36 285.74,150.59C285.86,150.71 285.92,150.89 285.94,151.05M244.03,148.5C244.33,148.84 243.98,149.34 243.53,149.2C239.15,147.8 234.19,152.65 236.23,157.32C237.18,157.69 238.26,157.92 239.1,158.42C240.9,159.45 239.32,162.27 237.5,161.28C230.7,157.6 238.18,141.88 244.03,148.48" style="fill:rgb(51,51,51);"/>
        <path d="M291.88,168.68C291.88,170.68 290.08,172.3 287.9,172.3C285.7,172.3 283.9,170.68 283.9,168.68C283.9,166.68 285.7,165.05 287.9,165.05C290.1,165.05 291.88,166.67 291.88,168.68M363.1,168.68C363.1,170.68 361.3,172.3 359.12,172.3C356.92,172.3 355.12,170.68 355.12,168.68C355.12,166.68 356.92,165.05 359.12,165.05C361.32,165.05 363.1,166.67 363.1,168.68" style="fill:rgb(248,213,224);"/>
        <path d="M265.937,240.111C265.374,240.361 264.828,240.691 264.299,241.102C263.77,241.512 263.236,241.962 262.695,242.45C262.155,242.938 261.595,243.453 261.014,243.995C260.434,244.536 259.808,245.04 259.135,245.507C258.463,245.973 257.73,246.418 256.937,246.843C256.144,247.267 255.267,247.639 254.308,247.959C253.348,248.278 252.29,248.532 251.135,248.721C249.98,248.909 248.701,249.004 247.299,249.004C245.747,249.004 244.348,248.695 243.101,248.077C241.853,247.459 240.787,246.625 239.902,245.576C239.017,244.527 238.336,243.308 237.859,241.919C237.382,240.53 237.144,239.07 237.144,237.539C237.144,236.475 237.259,235.332 237.488,234.111C237.718,232.89 238.049,231.646 238.48,230.378C238.911,229.111 239.437,227.846 240.057,226.585C240.678,225.323 241.382,224.114 242.17,222.956C242.957,221.799 243.822,220.725 244.764,219.736C245.707,218.746 246.713,217.884 247.782,217.149C248.851,216.414 249.977,215.838 251.161,215.422C252.345,215.005 253.575,214.797 254.851,214.797C255.678,214.797 256.517,214.943 257.368,215.236C258.218,215.529 258.983,215.981 259.661,216.59C260.339,217.199 260.894,217.969 261.325,218.9C261.756,219.831 261.971,220.929 261.971,222.193C261.971,223.044 261.836,223.903 261.566,224.771C261.296,225.639 260.925,226.472 260.454,227.271C259.983,228.07 259.428,228.82 258.79,229.521C258.152,230.222 257.466,230.828 256.73,231.34C255.994,231.851 255.23,232.256 254.437,232.555C253.644,232.854 252.851,233.004 252.058,233.004C251.012,233.004 250.23,232.863 249.713,232.581C249.195,232.3 248.937,231.894 248.937,231.366C248.937,231.274 248.934,231.165 248.928,231.038C248.922,230.912 248.92,230.779 248.92,230.642C248.92,230.435 248.931,230.219 248.954,229.995C248.977,229.771 249.023,229.567 249.092,229.383C249.161,229.199 249.262,229.05 249.394,228.935C249.526,228.82 249.707,228.762 249.937,228.762C250.075,228.762 250.195,228.782 250.299,228.823C250.402,228.863 250.517,228.906 250.644,228.952C250.77,228.998 250.922,229.041 251.101,229.081C251.279,229.121 251.506,229.142 251.782,229.142C252.517,229.142 253.262,228.981 254.014,228.659C254.767,228.337 255.445,227.883 256.049,227.297C256.652,226.71 257.147,226.012 257.532,225.202C257.917,224.392 258.109,223.498 258.109,222.521C258.109,222.004 258.04,221.512 257.902,221.047C257.764,220.581 257.54,220.173 257.23,219.823C256.92,219.472 256.52,219.19 256.032,218.978C255.543,218.765 254.948,218.659 254.247,218.659C253.42,218.659 252.612,218.841 251.825,219.207C251.037,219.572 250.282,220.067 249.557,220.693C248.833,221.319 248.147,222.061 247.497,222.919C246.848,223.777 246.247,224.696 245.695,225.675C245.144,226.655 244.647,227.675 244.204,228.736C243.762,229.797 243.385,230.855 243.075,231.91C242.764,232.965 242.526,233.988 242.359,234.979C242.193,235.97 242.109,236.883 242.109,237.718C242.109,238.944 242.256,240.013 242.549,240.923C242.842,241.834 243.259,242.593 243.799,243.2C244.339,243.807 245,244.26 245.782,244.557C246.563,244.855 247.443,245.004 248.42,245.004C249.638,245.004 250.773,244.846 251.825,244.53C252.876,244.215 253.879,243.801 254.833,243.289C255.787,242.777 256.71,242.2 257.601,241.557C258.491,240.914 259.382,240.268 260.273,239.62C261.164,238.971 262.072,238.352 262.997,237.763C263.922,237.173 264.902,236.676 265.937,236.271L265.937,240.111Z" style="fill:rgb(51,51,51);fill-rule:nonzero;"/>
        <path d="M274.299,232.4C274.632,233.067 274.882,233.771 275.049,234.512C275.216,235.254 275.299,236.09 275.299,237.021C275.299,237.699 275.224,238.383 275.075,239.073C274.925,239.762 274.71,240.429 274.428,241.073C274.147,241.716 273.802,242.32 273.394,242.883C272.986,243.446 272.52,243.935 271.997,244.348C271.474,244.762 270.902,245.09 270.282,245.331C269.661,245.573 269,245.693 268.299,245.693C267.287,245.693 266.422,245.472 265.704,245.03C264.986,244.587 264.397,244.009 263.937,243.297C263.477,242.584 263.141,241.78 262.928,240.883C262.716,239.986 262.609,239.078 262.609,238.159C262.609,236.642 262.799,235.334 263.178,234.236C263.558,233.139 264.101,232.185 264.808,231.374C265.514,230.564 266.379,229.926 267.402,229.461C268.425,228.995 269.575,228.762 270.851,228.762C271.943,228.762 272.966,228.932 273.92,229.271C274.874,229.61 275.767,230.064 276.601,230.633C277.434,231.202 278.21,231.917 278.928,232.779C279.647,233.642 280.316,234.463 280.937,235.245L280.609,237.676C280.299,237.262 279.879,236.814 279.351,236.331C278.822,235.848 278.262,235.314 277.67,234.728C277.078,234.142 276.494,233.644 275.92,233.236C275.345,232.828 274.851,232.486 274.437,232.211L274.299,232.4L274.299,232.4ZM268.971,242.383C269.362,242.383 269.741,242.185 270.109,241.788C270.477,241.392 270.799,240.892 271.075,240.288C271.351,239.685 271.572,238.955 271.739,238.098C271.905,237.242 271.989,236.481 271.989,235.814C271.989,235.285 271.948,234.794 271.868,234.34C271.787,233.886 271.667,233.492 271.506,233.159C271.345,232.825 271.138,232.561 270.885,232.366C270.632,232.17 270.328,232.073 269.971,232.073C269.5,232.073 269.052,232.274 268.627,232.676C268.201,233.078 267.828,233.593 267.506,234.219C267.184,234.846 266.931,235.538 266.747,236.297C266.563,237.055 266.471,237.912 266.471,238.866C266.471,239.348 266.517,239.802 266.609,240.228C266.701,240.653 266.845,241.024 267.04,241.34C267.236,241.656 267.494,241.909 267.816,242.098C268.138,242.288 268.523,242.383 268.971,242.383L268.971,242.383Z" style="fill:rgb(51,51,51);fill-rule:nonzero;"/>
        <path d="M296.677,241.421C296.412,241.793 296.059,242.229 295.616,242.728C295.174,243.228 294.677,243.705 294.125,244.158C293.573,244.611 292.981,244.995 292.349,245.309C291.717,245.623 291.085,245.78 290.453,245.78C289.689,245.78 289.052,245.538 288.543,245.054C288.033,244.571 287.592,243.868 287.222,242.947C286.943,243.265 286.602,243.589 286.196,243.919C285.791,244.249 285.347,244.548 284.867,244.815C284.386,245.082 283.885,245.301 283.363,245.472C282.842,245.642 282.32,245.728 281.799,245.728C281.247,245.728 280.71,245.615 280.187,245.389C279.664,245.163 279.201,244.838 278.799,244.415C278.397,243.991 278.075,243.475 277.833,242.867C277.592,242.258 277.471,241.571 277.471,240.805C277.471,239.946 277.593,239.064 277.836,238.16C278.078,237.255 278.454,236.275 278.963,235.222C279.472,234.168 280.018,233.257 280.602,232.49C281.186,231.722 281.825,231.052 282.519,230.48C283.212,229.907 283.944,229.452 284.713,229.114C285.482,228.776 286.265,228.607 287.063,228.607C287.329,228.607 287.537,228.659 287.687,228.764C287.838,228.868 287.962,228.987 288.06,229.121C288.158,229.255 288.254,229.385 288.346,229.513C288.439,229.641 288.554,229.734 288.693,229.792C288.832,229.85 288.973,229.888 289.118,229.905C289.263,229.922 289.41,229.931 289.56,229.931C289.687,229.931 289.818,229.928 289.951,229.922C290.084,229.917 290.214,229.914 290.341,229.914C290.514,229.914 290.676,229.931 290.826,229.966C290.977,230.001 291.11,230.076 291.225,230.192C291.34,230.309 291.429,230.471 291.493,230.68C291.556,230.889 291.588,231.174 291.588,231.534C291.588,232.083 291.53,232.693 291.415,233.363C291.3,234.032 291.169,234.719 291.02,235.421C290.872,236.124 290.703,236.925 290.513,237.825C290.323,238.724 290.228,239.482 290.228,240.099C290.228,240.625 290.277,241.037 290.375,241.334C290.473,241.631 290.682,241.78 291.004,241.78C291.246,241.78 291.499,241.72 291.763,241.6C292.027,241.48 292.295,241.324 292.565,241.13C292.835,240.936 293.105,240.717 293.375,240.472C293.645,240.227 293.901,239.973 294.142,239.711C294.705,239.096 295.274,238.401 295.849,237.626L296.677,241.421ZM281.885,240.07C281.885,240.367 281.905,240.654 281.946,240.933C281.986,241.211 282.058,241.46 282.162,241.68C282.265,241.899 282.403,242.077 282.576,242.213C282.749,242.349 282.967,242.417 283.232,242.417C283.658,242.417 284.044,242.232 284.389,241.862C284.735,241.492 285.034,241.046 285.288,240.525C285.541,240.005 285.745,239.467 285.901,238.911C286.056,238.356 286.157,237.893 286.203,237.522L287.489,231.917C287.017,231.917 286.558,232.034 286.109,232.268C285.661,232.501 285.239,232.818 284.842,233.216C284.446,233.615 284.081,234.071 283.747,234.584C283.414,235.096 283.086,235.729 282.765,236.481C282.443,237.233 282.216,237.894 282.083,238.464C281.951,239.033 281.885,239.569 281.885,240.07L281.885,240.07Z" style="fill:rgb(51,51,51);fill-rule:nonzero;"/>
        <path d="M299.127,245.693C298.509,245.693 297.934,245.425 297.401,244.887C296.869,244.35 296.405,243.628 296.01,242.723C295.615,241.818 295.306,240.769 295.082,239.575C294.859,238.382 294.747,237.129 294.747,235.816C294.747,234.688 294.913,233.183 295.245,231.299C295.576,229.416 295.742,228.474 295.742,228.475C295.742,228.475 295.993,227.534 296.495,225.653C296.997,223.772 297.501,222.263 298.006,221.127C298.511,219.991 299.059,218.929 299.651,217.942C300.243,216.955 300.864,216.095 301.515,215.361C302.165,214.628 302.844,214.052 303.552,213.632C304.26,213.213 304.98,213.004 305.712,213.004C306.244,213.004 306.683,213.105 307.03,213.308C307.376,213.511 307.649,213.78 307.847,214.113C308.045,214.446 308.184,214.824 308.265,215.246C308.345,215.668 308.385,216.097 308.385,216.535C308.385,217.621 308.257,218.728 308,219.855C307.743,220.982 307.396,222.115 306.96,223.253C306.524,224.392 306.019,225.533 305.445,226.677C304.872,227.822 304.274,228.957 303.653,230.084C303.031,231.211 302.407,232.321 301.78,233.413C301.152,234.505 300.573,235.573 300.043,236.616C299.985,236.732 299.924,236.883 299.861,237.068C299.798,237.254 299.737,237.454 299.679,237.668C299.622,237.883 299.564,238.112 299.506,238.355C299.449,238.598 299.403,238.836 299.368,239.068L299.368,239.311C299.368,239.613 299.4,239.905 299.463,240.189C299.527,240.473 299.604,240.728 299.697,240.954C299.789,241.18 299.887,241.36 299.991,241.493C300.094,241.627 300.192,241.693 300.285,241.693C300.508,241.693 300.764,241.647 301.053,241.554C301.341,241.461 301.647,241.337 301.971,241.18C302.294,241.024 302.627,240.844 302.968,240.641C303.309,240.439 303.639,240.233 303.957,240.024C304.698,239.537 305.475,238.975 306.287,238.338L307.81,241.972C306.756,242.671 305.714,243.294 304.685,243.841C304.235,244.07 303.77,244.297 303.291,244.521C302.812,244.745 302.329,244.945 301.844,245.12C301.359,245.294 300.885,245.434 300.424,245.538C299.962,245.641 299.53,245.693 299.127,245.693L299.127,245.693ZM299.144,232.026C299.663,231.099 300.213,230.056 300.796,228.896C301.378,227.737 301.929,226.543 302.448,225.315C302.967,224.086 303.416,222.86 303.797,221.637C304.177,220.414 304.419,219.275 304.523,218.221C304.523,217.884 304.515,217.598 304.499,217.36C304.482,217.122 304.431,217.004 304.344,217.004C304.028,217.004 303.687,217.222 303.322,217.658C302.958,218.095 302.593,218.686 302.228,219.431C301.863,220.176 301.427,221.389 300.921,223.067C300.414,224.746 300.161,225.586 300.16,225.586C300.16,225.587 300.006,226.366 299.697,227.923C299.387,229.481 299.203,230.848 299.144,232.026L299.144,232.026Z" style="fill:rgb(51,51,51);fill-rule:nonzero;"/>
        <path d="M322.677,241.421C322.412,241.793 322.059,242.229 321.616,242.728C321.174,243.228 320.677,243.705 320.125,244.158C319.573,244.611 318.981,244.995 318.349,245.309C317.717,245.623 317.085,245.78 316.453,245.78C315.689,245.78 315.053,245.538 314.543,245.054C314.033,244.571 313.592,243.868 313.222,242.947C312.944,243.265 312.602,243.589 312.196,243.919C311.791,244.249 311.347,244.548 310.867,244.815C310.386,245.082 309.885,245.301 309.363,245.472C308.842,245.642 308.32,245.728 307.799,245.728C307.247,245.728 306.71,245.615 306.187,245.389C305.664,245.163 305.201,244.838 304.799,244.415C304.397,243.991 304.075,243.475 303.834,242.867C303.592,242.258 303.471,241.571 303.471,240.805C303.471,239.946 303.593,239.064 303.836,238.16C304.079,237.255 304.454,236.275 304.963,235.222C305.472,234.168 306.018,233.257 306.602,232.49C307.186,231.722 307.825,231.052 308.519,230.48C309.212,229.907 309.944,229.452 310.713,229.114C311.482,228.776 312.265,228.607 313.063,228.607C313.329,228.607 313.537,228.659 313.687,228.764C313.838,228.868 313.962,228.987 314.06,229.121C314.158,229.255 314.254,229.385 314.346,229.513C314.439,229.641 314.554,229.734 314.693,229.792C314.832,229.85 314.973,229.888 315.118,229.905C315.263,229.922 315.41,229.931 315.56,229.931C315.688,229.931 315.818,229.928 315.951,229.922C316.084,229.917 316.214,229.914 316.341,229.914C316.514,229.914 316.676,229.931 316.827,229.966C316.977,230.001 317.11,230.076 317.225,230.192C317.34,230.309 317.43,230.471 317.493,230.68C317.556,230.889 317.588,231.174 317.588,231.534C317.588,232.083 317.53,232.693 317.415,233.363C317.3,234.032 317.169,234.719 317.02,235.421C316.872,236.124 316.703,236.925 316.513,237.825C316.323,238.724 316.229,239.482 316.229,240.099C316.229,240.625 316.277,241.037 316.375,241.334C316.473,241.631 316.683,241.78 317.004,241.78C317.246,241.78 317.499,241.72 317.763,241.6C318.027,241.48 318.295,241.324 318.565,241.13C318.835,240.936 319.105,240.717 319.375,240.472C319.645,240.227 319.901,239.973 320.142,239.711C320.706,239.096 321.275,238.401 321.849,237.626L322.677,241.421ZM307.885,240.07C307.885,240.367 307.905,240.654 307.946,240.933C307.986,241.211 308.058,241.46 308.162,241.68C308.265,241.899 308.403,242.077 308.576,242.213C308.749,242.349 308.968,242.417 309.232,242.417C309.658,242.417 310.044,242.232 310.389,241.862C310.735,241.492 311.034,241.046 311.288,240.525C311.541,240.005 311.745,239.467 311.901,238.911C312.056,238.356 312.157,237.893 312.203,237.522L313.489,231.917C313.017,231.917 312.558,232.034 312.109,232.268C311.661,232.501 311.239,232.818 310.842,233.216C310.446,233.615 310.081,234.071 309.747,234.584C309.414,235.096 309.086,235.729 308.765,236.481C308.443,237.233 308.216,237.894 308.084,238.464C307.951,239.033 307.885,239.569 307.885,240.07L307.885,240.07Z" style="fill:rgb(51,51,51);fill-rule:nonzero;"/>
        <path d="M337.889,215.762C339.769,215.762 341.441,215.917 342.905,216.226C344.37,216.535 345.653,216.965 346.754,217.514C347.855,218.064 348.786,218.719 349.547,219.481C350.309,220.242 350.925,221.073 351.398,221.972C351.871,222.87 352.214,223.824 352.427,224.831C352.641,225.839 352.747,226.87 352.747,227.923C352.747,229.375 352.586,230.947 352.263,232.641C351.94,234.335 351.473,235.879 350.862,237.273C350.251,238.667 349.499,239.975 348.605,241.196C347.712,242.417 346.688,243.483 345.535,244.393C344.382,245.303 343.114,246.021 341.73,246.545C340.346,247.069 338.853,247.331 337.25,247.331C336.716,247.331 336.169,247.29 335.612,247.208C335.054,247.126 334.513,247.014 333.99,246.873C333.466,246.733 332.971,246.574 332.505,246.398C332.038,246.222 331.628,246.04 331.275,245.852C331.127,245.805 331.011,245.749 330.925,245.685C330.84,245.62 330.775,245.544 330.729,245.456C330.684,245.368 330.655,245.259 330.644,245.13C330.632,245.001 330.627,244.837 330.627,244.637C330.627,242.731 330.675,240.778 330.771,238.78C330.867,236.782 331.063,234.729 331.359,232.621C331.655,230.514 332.082,228.653 332.639,227.039C333.197,225.426 333.937,223.936 334.858,222.569C335.086,222.236 335.82,222.069 337.06,222.069C338.039,222.069 338.741,222.425 339.167,223.137C338.637,223.848 338.194,224.64 337.837,225.513C337.481,226.385 337.181,227.243 336.94,228.087C336.698,228.93 336.496,229.851 336.335,230.85C336.025,232.778 335.875,233.754 335.886,233.777C335.921,233.8 335.789,234.902 335.489,237.083C335.374,237.84 335.285,238.5 335.222,239.063C335.158,239.625 335.112,240.118 335.084,240.543C335.055,240.968 335.041,241.381 335.041,241.783C335.041,242.207 335.055,242.563 335.084,242.85C335.112,243.137 335.181,243.367 335.291,243.539C335.4,243.711 335.567,243.834 335.791,243.909C336.016,243.984 336.318,244.021 336.698,244.021C337.849,244.021 338.942,243.794 339.978,243.341C341.014,242.887 341.969,242.279 342.844,241.516C343.718,240.752 344.504,239.866 345.2,238.856C345.896,237.846 346.489,236.678 346.978,235.352C347.467,234.026 347.844,232.781 348.109,231.616C348.374,230.451 348.506,229.329 348.506,228.25C348.506,226.919 348.287,225.728 347.85,224.678C347.413,223.627 346.8,222.738 346.011,222.009C345.223,221.28 344.276,220.723 343.172,220.339C342.067,219.954 340.853,219.762 339.529,219.762C338.562,219.762 337.605,219.82 336.657,219.935C335.708,220.051 334.829,220.23 334.018,220.472C333.208,220.715 332.495,221.024 331.881,221.399C331.266,221.775 330.803,222.223 330.493,222.742C329.653,224.047 328.964,225.055 328.424,225.766C327.883,226.476 327.429,226.831 327.062,226.831C326.556,226.831 326.303,226.251 326.303,225.09C326.303,223.963 326.449,222.952 326.743,222.055C327.036,221.159 327.444,220.363 327.967,219.667C328.49,218.972 329.11,218.38 329.829,217.892C330.547,217.403 331.335,217.001 332.191,216.685C333.047,216.369 333.958,216.136 334.924,215.986C335.889,215.837 336.878,215.762 337.889,215.762L337.889,215.762Z" style="fill:rgb(51,51,51);fill-rule:nonzero;"/>
        <path d="M365.437,232.4C365.771,233.067 366.021,233.771 366.187,234.512C366.354,235.254 366.437,236.09 366.437,237.021C366.437,237.699 366.362,238.383 366.213,239.073C366.064,239.762 365.848,240.429 365.567,241.073C365.285,241.716 364.94,242.32 364.532,242.883C364.124,243.446 363.658,243.935 363.135,244.348C362.612,244.762 362.041,245.09 361.42,245.331C360.799,245.573 360.138,245.693 359.437,245.693C358.426,245.693 357.561,245.472 356.842,245.03C356.124,244.587 355.535,244.009 355.075,243.297C354.615,242.584 354.279,241.78 354.066,240.883C353.854,239.986 353.747,239.078 353.747,238.159C353.747,236.642 353.937,235.334 354.316,234.236C354.696,233.139 355.239,232.185 355.946,231.374C356.653,230.564 357.518,229.926 358.541,229.461C359.564,228.995 360.713,228.762 361.989,228.762C363.081,228.762 364.104,228.932 365.058,229.271C366.012,229.61 366.906,230.064 367.739,230.633C368.572,231.202 369.348,231.917 370.067,232.779C370.785,233.642 371.454,234.463 372.075,235.245L371.748,237.676C371.437,237.262 371.018,236.814 370.489,236.331C369.96,235.848 369.4,235.314 368.808,234.728C368.216,234.142 367.633,233.644 367.058,233.236C366.483,232.828 365.989,232.486 365.575,232.211L365.437,232.4L365.437,232.4ZM360.11,242.383C360.5,242.383 360.88,242.185 361.248,241.788C361.615,241.392 361.937,240.892 362.213,240.288C362.489,239.685 362.71,238.955 362.877,238.098C363.044,237.242 363.127,236.481 363.127,235.814C363.127,235.285 363.087,234.794 363.006,234.34C362.926,233.886 362.805,233.492 362.644,233.159C362.483,232.825 362.276,232.561 362.023,232.366C361.771,232.17 361.466,232.073 361.11,232.073C360.638,232.073 360.19,232.274 359.765,232.676C359.339,233.078 358.966,233.593 358.644,234.219C358.322,234.846 358.069,235.538 357.885,236.297C357.702,237.055 357.61,237.912 357.61,238.866C357.61,239.348 357.656,239.802 357.748,240.228C357.839,240.653 357.983,241.024 358.179,241.34C358.374,241.656 358.633,241.909 358.954,242.098C359.276,242.288 359.661,242.383 360.11,242.383L360.11,242.383Z" style="fill:rgb(51,51,51);fill-rule:nonzero;"/>
        <path d="M375.083,245.693C374.019,245.693 373.084,245.498 372.28,245.107C371.476,244.716 370.802,244.193 370.258,243.538C369.715,242.883 369.304,242.124 369.026,241.262C368.748,240.4 368.61,239.504 368.61,238.573C368.61,237.906 368.725,237.107 368.956,236.176C369.187,235.245 369.439,234.432 369.71,233.736C369.982,233.041 370.317,232.377 370.715,231.745C371.114,231.113 371.576,230.558 372.102,230.081C372.628,229.604 373.214,229.225 373.861,228.943C374.508,228.662 375.219,228.521 375.993,228.521C376.69,228.521 377.335,228.621 377.928,228.823C378.522,229.024 379.029,229.302 379.451,229.659C379.873,230.015 380.203,230.438 380.442,230.926C380.68,231.415 380.799,231.94 380.799,232.504C380.799,232.894 380.743,233.279 380.631,233.659C380.519,234.038 380.302,234.484 379.978,234.995C379.655,235.507 379.341,235.854 379.036,236.038C378.732,236.222 378.386,236.314 378.001,236.314C377.419,236.314 377.044,236.17 376.874,235.883C376.596,235.435 376.508,235.038 376.611,234.693C376.645,234.509 376.748,234.084 376.92,233.417C376.943,233.325 376.949,233.119 376.937,232.797C376.937,232.521 376.909,232.291 376.851,232.107C376.794,231.923 376.668,231.831 376.474,231.831C376.005,231.831 375.604,231.943 375.272,232.167C374.94,232.392 374.657,232.685 374.422,233.047C374.188,233.409 373.956,233.92 373.727,234.581C373.498,235.242 373.335,235.797 373.238,236.245C373.141,236.693 373.081,237.121 373.058,237.529C373.035,237.938 373.023,238.28 373.023,238.555C373.023,238.969 373.061,239.4 373.135,239.848C373.209,240.297 373.358,240.708 373.581,241.081C373.804,241.455 374.093,241.765 374.448,242.012C374.803,242.259 375.261,242.383 375.821,242.383C376.373,242.383 376.982,242.213 377.649,241.874C378.316,241.535 378.985,241.107 379.658,240.59C380.33,240.073 380.971,239.504 381.58,238.883C382.189,238.262 382.712,237.676 383.149,237.124L384.339,239.124C383.477,240.354 382.546,241.452 381.546,242.417C381.12,242.831 380.658,243.234 380.158,243.624C379.658,244.015 379.135,244.363 378.589,244.667C378.043,244.972 377.474,245.219 376.882,245.409C376.29,245.598 375.69,245.693 375.083,245.693L375.083,245.693Z" style="fill:rgb(51,51,51);fill-rule:nonzero;"/>
        <path d="M388.498,245.693C387.424,245.693 386.485,245.494 385.68,245.097C384.875,244.699 384.204,244.164 383.668,243.491C383.131,242.818 382.729,242.04 382.46,241.157C382.192,240.273 382.058,239.346 382.058,238.375C382.058,237.74 382.178,236.983 382.418,236.103C382.658,235.224 382.907,234.444 383.164,233.764C383.421,233.083 383.744,232.433 384.133,231.815C384.522,231.197 384.976,230.652 385.496,230.182C386.017,229.711 386.6,229.336 387.246,229.058C387.892,228.781 388.609,228.642 389.398,228.642C390.042,228.642 390.64,228.745 391.193,228.951C391.745,229.158 392.226,229.448 392.634,229.821C393.043,230.194 393.362,230.645 393.592,231.173C393.822,231.701 393.937,232.292 393.937,232.947C393.937,233.643 393.704,234.424 393.238,235.29C392.771,236.155 392.227,236.897 391.605,237.515C390.983,238.133 390.243,238.684 389.384,239.167C388.526,239.651 387.596,240.027 386.594,240.297C386.767,240.601 386.937,240.853 387.105,241.056C387.272,241.258 387.442,241.415 387.615,241.528C387.788,241.64 387.97,241.719 388.16,241.764C388.35,241.809 388.555,241.831 388.775,241.831C389.464,241.831 390.191,241.696 390.956,241.427C391.72,241.157 392.464,240.82 393.188,240.415C393.913,240.01 394.596,239.569 395.24,239.092C395.884,238.614 396.43,238.162 396.878,237.735L399.102,239.994C398.091,241.071 397.016,242.024 395.878,242.852C395.384,243.207 394.852,243.557 394.283,243.9C393.714,244.243 393.117,244.548 392.49,244.814C391.864,245.081 391.214,245.294 390.542,245.454C389.869,245.613 389.188,245.693 388.498,245.693L388.498,245.693ZM386.196,237.482C386.611,237.482 387.064,237.378 387.554,237.17C388.045,236.962 388.5,236.695 388.922,236.369C389.343,236.043 389.755,235.605 390.159,235.054C390.563,234.503 390.765,234.048 390.765,233.688C390.765,233.183 390.67,232.767 390.479,232.441C390.289,232.115 390.055,231.952 389.778,231.952C389.282,231.952 388.858,232.042 388.506,232.222C388.154,232.402 387.86,232.635 387.624,232.921C387.387,233.208 387.197,233.534 387.053,233.899C386.908,234.264 386.741,234.717 386.551,235.256C386.36,235.796 386.254,236.24 386.23,236.588C386.207,236.936 386.196,237.234 386.196,237.482L386.196,237.482Z" style="fill:rgb(51,51,51);fill-rule:nonzero;"/>
        <path d="M395.217,239.186C395.86,238.628 396.383,238.164 396.786,237.792C397.188,237.42 397.59,236.987 397.993,236.494C398.395,236 398.714,235.596 398.949,235.282C399.185,234.968 399.464,234.597 399.786,234.167C400.107,233.737 400.498,233.211 400.958,232.59C401.418,231.968 402.016,231.192 402.751,230.263C402.901,230.054 403.067,229.85 403.251,229.653C403.435,229.455 403.639,229.278 403.863,229.121C404.087,228.965 404.335,228.837 404.605,228.738C404.875,228.639 405.176,228.59 405.51,228.59C406.062,228.59 406.488,228.651 406.786,228.773C407.085,228.895 407.304,229.043 407.442,229.217C407.58,229.391 407.66,229.574 407.683,229.766C407.706,229.958 407.718,230.123 407.718,230.263C407.718,230.542 407.608,230.85 407.39,231.187C407.172,231.523 406.93,231.849 406.666,232.163C406.401,232.476 406.151,232.764 405.916,233.025C405.68,233.287 405.545,233.481 405.51,233.609C405.51,233.969 405.536,234.297 405.589,234.594C405.642,234.89 405.712,235.18 405.8,235.465C405.888,235.75 405.979,236.052 406.073,236.371C406.166,236.691 406.256,237.06 406.343,237.478C406.429,237.896 406.44,238.471 406.377,239.204C406.314,239.936 406.282,240.673 406.282,241.417C406.696,241.138 407.141,240.885 407.618,240.659C408.095,240.432 408.593,240.197 409.11,239.953C409.627,239.709 410.159,239.439 410.705,239.143C411.251,238.846 411.799,238.489 412.351,238.071L412.368,241.975C411.656,242.507 410.831,243.005 409.894,243.471C408.957,243.937 407.972,244.347 406.939,244.701C405.906,245.056 404.863,245.336 403.812,245.541C402.76,245.746 401.763,245.848 400.82,245.848C400.142,245.848 399.51,245.788 398.924,245.667C398.337,245.546 397.823,245.356 397.38,245.098C396.938,244.84 396.579,244.502 396.303,244.084C396.027,243.666 395.86,243.161 395.803,242.567C395.642,242.602 395.484,242.625 395.329,242.637C395.174,242.648 395.021,242.654 394.872,242.654C394.688,242.654 394.516,242.648 394.355,242.637C394.194,242.625 394.056,242.582 393.941,242.506C393.826,242.431 393.734,242.309 393.665,242.14C393.596,241.972 393.561,241.731 393.561,241.417C393.561,241.138 393.63,240.879 393.768,240.641C393.906,240.403 394.067,240.191 394.251,240.005C394.435,239.819 394.619,239.657 394.803,239.517C394.987,239.378 395.125,239.267 395.217,239.186L395.217,239.186ZM397.368,241.417C397.506,241.417 397.659,241.504 397.825,241.678C397.992,241.852 398.184,242.044 398.403,242.253C398.621,242.462 398.874,242.654 399.161,242.828C399.449,243.003 399.776,243.09 400.144,243.09C400.592,243.09 400.963,243.014 401.256,242.863C401.549,242.712 401.782,242.512 401.955,242.262C402.127,242.012 402.248,241.722 402.317,241.391C402.386,241.06 402.42,240.714 402.42,240.354C402.42,240.04 402.4,239.721 402.36,239.395C402.319,239.07 402.325,238.666 402.377,238.184C402.429,237.702 402.417,237.33 402.342,237.068C402.268,236.807 402.202,236.583 402.144,236.397L397.368,241.417L397.368,241.417Z" style="fill:rgb(51,51,51);fill-rule:nonzero;"/>
    </g>
</svg>
