<?xml version="1.0" encoding="UTF-8" standalone="no"?><!DOCTYPE svg PUBLIC "-//W3C//DTD SVG 1.1//EN" "http://www.w3.org/Graphics/SVG/1.1/DTD/svg11.dtd"><svg width="100%" height="100%" viewBox="0 0 647 324" version="1.1" xmlns="http://www.w3.org/2000/svg" xmlns:xlink="http://www.w3.org/1999/xlink" xml:space="preserve" style="fill-rule:evenodd;clip-rule:evenodd;stroke-linejoin:round;stroke-miterlimit:1.41421;"><g><g></g></g><rect x="0" y="0" width="647" height="324" style="fill:#fff;"/><g transform="matrix(3.5646,0,0,3.5646,-74.5501,-284.63)"><path d="M91.562,107.909c0,0.644 -0.102,1.235 -0.306,1.773c-0.204,0.538 -0.492,1.001 -0.864,1.389c-0.372,0.388 -0.819,0.689 -1.341,0.903c-0.522,0.214 -1.099,0.321 -1.731,0.321c-0.632,0 -1.208,-0.107 -1.728,-0.321c-0.52,-0.214 -0.966,-0.515 -1.338,-0.903c-0.372,-0.388 -0.66,-0.851 -0.864,-1.389c-0.204,-0.538 -0.306,-1.129 -0.306,-1.773c0,-0.644 0.102,-1.235 0.306,-1.773c0.204,-0.538 0.492,-1.002 0.864,-1.392c0.372,-0.39 0.818,-0.693 1.338,-0.909c0.52,-0.216 1.096,-0.324 1.728,-0.324c0.632,0 1.209,0.108 1.731,0.324c0.522,0.216 0.969,0.519 1.341,0.909c0.372,0.39 0.66,0.854 0.864,1.392c0.204,0.538 0.306,1.129 0.306,1.773Zm-1.194,0c0,-0.528 -0.072,-1.002 -0.216,-1.422c-0.144,-0.42 -0.348,-0.775 -0.612,-1.065c-0.264,-0.29 -0.584,-0.513 -0.96,-0.669c-0.376,-0.156 -0.796,-0.234 -1.26,-0.234c-0.46,0 -0.878,0.078 -1.254,0.234c-0.376,0.156 -0.697,0.379 -0.963,0.669c-0.266,0.29 -0.471,0.645 -0.615,1.065c-0.144,0.42 -0.216,0.894 -0.216,1.422c0,0.528 0.072,1.001 0.216,1.419c0.144,0.418 0.349,0.772 0.615,1.062c0.266,0.29 0.587,0.512 0.963,0.666c0.376,0.154 0.794,0.231 1.254,0.231c0.464,0 0.884,-0.077 1.26,-0.231c0.376,-0.154 0.696,-0.376 0.96,-0.666c0.264,-0.29 0.468,-0.644 0.612,-1.062c0.144,-0.418 0.216,-0.891 0.216,-1.419Z" style="fill:#333;fill-rule:nonzero;"/><path d="M97.226,106.583c0,0.076 -0.014,0.149 -0.042,0.219c-0.028,0.07 -0.064,0.133 -0.108,0.189l-3.288,4.38l3.318,0l0,0.834l-4.578,0l0,-0.444c0,-0.052 0.013,-0.113 0.039,-0.183c0.026,-0.07 0.063,-0.137 0.111,-0.201l3.306,-4.41l-3.27,0l0,-0.84l4.512,0l0,0.456Z" style="fill:#333;fill-rule:nonzero;"/><path d="M100.934,106.031c0.364,0 0.7,0.061 1.008,0.183c0.308,0.122 0.574,0.298 0.798,0.528c0.224,0.23 0.399,0.514 0.525,0.852c0.126,0.338 0.189,0.723 0.189,1.155c0,0.168 -0.018,0.28 -0.054,0.336c-0.036,0.056 -0.104,0.084 -0.204,0.084l-4.044,0c0.008,0.384 0.06,0.718 0.156,1.002c0.096,0.284 0.228,0.521 0.396,0.711c0.168,0.19 0.368,0.332 0.6,0.426c0.232,0.094 0.492,0.141 0.78,0.141c0.268,0 0.499,-0.031 0.693,-0.093c0.194,-0.062 0.361,-0.129 0.501,-0.201c0.14,-0.072 0.257,-0.139 0.351,-0.201c0.094,-0.062 0.175,-0.093 0.243,-0.093c0.088,0 0.156,0.034 0.204,0.102l0.3,0.39c-0.132,0.16 -0.29,0.299 -0.474,0.417c-0.184,0.118 -0.381,0.215 -0.591,0.291c-0.21,0.076 -0.427,0.133 -0.651,0.171c-0.224,0.038 -0.446,0.057 -0.666,0.057c-0.42,0 -0.807,-0.071 -1.161,-0.213c-0.354,-0.142 -0.66,-0.35 -0.918,-0.624c-0.258,-0.274 -0.459,-0.613 -0.603,-1.017c-0.144,-0.404 -0.216,-0.868 -0.216,-1.392c0,-0.424 0.065,-0.82 0.195,-1.188c0.13,-0.368 0.317,-0.687 0.561,-0.957c0.244,-0.27 0.542,-0.482 0.894,-0.636c0.352,-0.154 0.748,-0.231 1.188,-0.231Zm0.024,0.786c-0.516,0 -0.922,0.149 -1.218,0.447c-0.296,0.298 -0.48,0.711 -0.552,1.239l3.306,0c0,-0.248 -0.034,-0.475 -0.102,-0.681c-0.068,-0.206 -0.168,-0.384 -0.3,-0.534c-0.132,-0.15 -0.293,-0.266 -0.483,-0.348c-0.19,-0.082 -0.407,-0.123 -0.651,-0.123Z" style="fill:#333;fill-rule:nonzero;"/><path d="M104.816,112.205l0,-6.078l0.636,0c0.152,0 0.248,0.074 0.288,0.222l0.084,0.66c0.264,-0.292 0.559,-0.528 0.885,-0.708c0.326,-0.18 0.703,-0.27 1.131,-0.27c0.332,0 0.625,0.055 0.879,0.165c0.254,0.11 0.466,0.266 0.636,0.468c0.17,0.202 0.299,0.445 0.387,0.729c0.088,0.284 0.132,0.598 0.132,0.942l0,3.87l-1.068,0l0,-3.87c0,-0.46 -0.105,-0.817 -0.315,-1.071c-0.21,-0.254 -0.531,-0.381 -0.963,-0.381c-0.316,0 -0.611,0.076 -0.885,0.228c-0.274,0.152 -0.527,0.358 -0.759,0.618l0,4.476l-1.068,0Z" style="fill:#333;fill-rule:nonzero;"/><path d="M112.676,106.127l0,6.078l-1.068,0l0,-6.078l1.068,0Zm0.24,-1.908c0,0.104 -0.021,0.201 -0.063,0.291c-0.042,0.09 -0.098,0.17 -0.168,0.24c-0.07,0.07 -0.151,0.125 -0.243,0.165c-0.092,0.04 -0.19,0.06 -0.294,0.06c-0.104,0 -0.201,-0.02 -0.291,-0.06c-0.09,-0.04 -0.17,-0.095 -0.24,-0.165c-0.07,-0.07 -0.125,-0.15 -0.165,-0.24c-0.04,-0.09 -0.06,-0.187 -0.06,-0.291c0,-0.104 0.02,-0.203 0.06,-0.297c0.04,-0.094 0.095,-0.176 0.165,-0.246c0.07,-0.07 0.15,-0.125 0.24,-0.165c0.09,-0.04 0.187,-0.06 0.291,-0.06c0.104,0 0.202,0.02 0.294,0.06c0.092,0.04 0.173,0.095 0.243,0.165c0.07,0.07 0.126,0.152 0.168,0.246c0.042,0.094 0.063,0.193 0.063,0.297Z" style="fill:#333;fill-rule:nonzero;"/><path d="M118.208,111.227l3.72,0l0,0.978l-4.884,0l0,-8.598l1.164,0l0,7.62Z" style="fill:#333;fill-rule:nonzero;"/><path d="M124.232,106.127l0,6.078l-1.068,0l0,-6.078l1.068,0Zm0.24,-1.908c0,0.104 -0.021,0.201 -0.063,0.291c-0.042,0.09 -0.098,0.17 -0.168,0.24c-0.07,0.07 -0.151,0.125 -0.243,0.165c-0.092,0.04 -0.19,0.06 -0.294,0.06c-0.104,0 -0.201,-0.02 -0.291,-0.06c-0.09,-0.04 -0.17,-0.095 -0.24,-0.165c-0.07,-0.07 -0.125,-0.15 -0.165,-0.24c-0.04,-0.09 -0.06,-0.187 -0.06,-0.291c0,-0.104 0.02,-0.203 0.06,-0.297c0.04,-0.094 0.095,-0.176 0.165,-0.246c0.07,-0.07 0.15,-0.125 0.24,-0.165c0.09,-0.04 0.187,-0.06 0.291,-0.06c0.104,0 0.202,0.02 0.294,0.06c0.092,0.04 0.173,0.095 0.243,0.165c0.07,0.07 0.126,0.152 0.168,0.246c0.042,0.094 0.063,0.193 0.063,0.297Z" style="fill:#333;fill-rule:nonzero;"/><path d="M126.116,112.205l0,-6.078l0.636,0c0.152,0 0.248,0.074 0.288,0.222l0.078,0.624c0.224,-0.276 0.475,-0.502 0.753,-0.678c0.278,-0.176 0.601,-0.264 0.969,-0.264c0.412,0 0.745,0.114 0.999,0.342c0.254,0.228 0.437,0.536 0.549,0.924c0.084,-0.22 0.195,-0.41 0.333,-0.57c0.138,-0.16 0.293,-0.292 0.465,-0.396c0.172,-0.104 0.355,-0.18 0.549,-0.228c0.194,-0.048 0.391,-0.072 0.591,-0.072c0.32,0 0.605,0.051 0.855,0.153c0.25,0.102 0.462,0.251 0.636,0.447c0.174,0.196 0.307,0.437 0.399,0.723c0.092,0.286 0.138,0.613 0.138,0.981l0,3.87l-1.068,0l0,-3.87c0,-0.476 -0.104,-0.837 -0.312,-1.083c-0.208,-0.246 -0.51,-0.369 -0.906,-0.369c-0.176,0 -0.343,0.031 -0.501,0.093c-0.158,0.062 -0.297,0.153 -0.417,0.273c-0.12,0.12 -0.215,0.271 -0.285,0.453c-0.07,0.182 -0.105,0.393 -0.105,0.633l0,3.87l-1.068,0l0,-3.87c0,-0.488 -0.098,-0.852 -0.294,-1.092c-0.196,-0.24 -0.482,-0.36 -0.858,-0.36c-0.264,0 -0.509,0.071 -0.735,0.213c-0.226,0.142 -0.433,0.335 -0.621,0.579l0,4.53l-1.068,0Z" style="fill:#333;fill-rule:nonzero;"/><path d="M140.432,112.205l-0.474,0c-0.104,0 -0.188,-0.016 -0.252,-0.048c-0.064,-0.032 -0.106,-0.1 -0.126,-0.204l-0.12,-0.564c-0.16,0.144 -0.316,0.273 -0.468,0.387c-0.152,0.114 -0.312,0.21 -0.48,0.288c-0.168,0.078 -0.347,0.137 -0.537,0.177c-0.19,0.04 -0.401,0.06 -0.633,0.06c-0.236,0 -0.457,-0.033 -0.663,-0.099c-0.206,-0.066 -0.385,-0.166 -0.537,-0.298c-0.152,-0.133 -0.273,-0.3 -0.363,-0.503c-0.09,-0.203 -0.135,-0.443 -0.135,-0.719c0,-0.241 0.066,-0.473 0.198,-0.696c0.132,-0.223 0.345,-0.42 0.639,-0.593c0.294,-0.173 0.679,-0.314 1.155,-0.424c0.476,-0.111 1.058,-0.166 1.746,-0.166l0,-0.477c0,-0.475 -0.101,-0.834 -0.303,-1.078c-0.202,-0.243 -0.501,-0.365 -0.897,-0.365c-0.26,0 -0.479,0.033 -0.657,0.099c-0.178,0.066 -0.332,0.14 -0.462,0.222c-0.13,0.082 -0.242,0.156 -0.336,0.222c-0.094,0.066 -0.187,0.099 -0.279,0.099c-0.072,0 -0.135,-0.019 -0.189,-0.057c-0.054,-0.038 -0.097,-0.085 -0.129,-0.141l-0.192,-0.342c0.336,-0.324 0.698,-0.566 1.086,-0.726c0.388,-0.16 0.818,-0.24 1.29,-0.24c0.34,0 0.642,0.056 0.906,0.168c0.264,0.112 0.486,0.268 0.666,0.468c0.18,0.2 0.316,0.442 0.408,0.726c0.092,0.284 0.138,0.596 0.138,0.936l0,3.888Zm-2.772,-0.654c0.188,0 0.36,-0.019 0.516,-0.057c0.156,-0.038 0.303,-0.092 0.441,-0.162c0.138,-0.07 0.27,-0.155 0.396,-0.255c0.126,-0.1 0.249,-0.214 0.369,-0.342l0,-1.254c-0.492,0 -0.91,0.031 -1.254,0.094c-0.344,0.062 -0.624,0.143 -0.84,0.244c-0.216,0.101 -0.373,0.219 -0.471,0.356c-0.098,0.137 -0.147,0.29 -0.147,0.459c0,0.161 0.026,0.299 0.078,0.416c0.052,0.117 0.122,0.212 0.21,0.287c0.088,0.074 0.192,0.129 0.312,0.163c0.12,0.034 0.25,0.051 0.39,0.051Z" style="fill:#333;fill-rule:nonzero;"/><path d="M85.814,118.031c0.364,0 0.7,0.061 1.008,0.183c0.308,0.122 0.574,0.298 0.798,0.528c0.224,0.23 0.399,0.514 0.525,0.852c0.126,0.338 0.189,0.723 0.189,1.155c0,0.168 -0.018,0.28 -0.054,0.336c-0.036,0.056 -0.104,0.084 -0.204,0.084l-4.044,0c0.008,0.384 0.06,0.718 0.156,1.002c0.096,0.284 0.228,0.521 0.396,0.711c0.168,0.19 0.368,0.332 0.6,0.426c0.232,0.094 0.492,0.141 0.78,0.141c0.268,0 0.499,-0.031 0.693,-0.093c0.194,-0.062 0.361,-0.129 0.501,-0.201c0.14,-0.072 0.257,-0.139 0.351,-0.201c0.094,-0.062 0.175,-0.093 0.243,-0.093c0.088,0 0.156,0.034 0.204,0.102l0.3,0.39c-0.132,0.16 -0.29,0.299 -0.474,0.417c-0.184,0.118 -0.381,0.215 -0.591,0.291c-0.21,0.076 -0.427,0.133 -0.651,0.171c-0.224,0.038 -0.446,0.057 -0.666,0.057c-0.42,0 -0.807,-0.071 -1.161,-0.213c-0.354,-0.142 -0.66,-0.35 -0.918,-0.624c-0.258,-0.274 -0.459,-0.613 -0.603,-1.017c-0.144,-0.404 -0.216,-0.868 -0.216,-1.392c0,-0.424 0.065,-0.82 0.195,-1.188c0.13,-0.368 0.317,-0.687 0.561,-0.957c0.244,-0.27 0.542,-0.482 0.894,-0.636c0.352,-0.154 0.748,-0.231 1.188,-0.231Zm0.024,0.786c-0.516,0 -0.922,0.149 -1.218,0.447c-0.296,0.298 -0.48,0.711 -0.552,1.239l3.306,0c0,-0.248 -0.034,-0.475 -0.102,-0.681c-0.068,-0.206 -0.168,-0.384 -0.3,-0.534c-0.132,-0.15 -0.293,-0.266 -0.483,-0.348c-0.19,-0.082 -0.407,-0.123 -0.651,-0.123Z" style="fill:#333;fill-rule:nonzero;"/><path d="M93.176,119.129c-0.048,0.088 -0.122,0.132 -0.222,0.132c-0.06,0 -0.128,-0.022 -0.204,-0.066c-0.076,-0.044 -0.169,-0.093 -0.279,-0.147c-0.11,-0.054 -0.241,-0.104 -0.393,-0.15c-0.152,-0.046 -0.332,-0.069 -0.54,-0.069c-0.18,0 -0.342,0.023 -0.486,0.069c-0.144,0.046 -0.267,0.109 -0.369,0.189c-0.102,0.08 -0.18,0.173 -0.234,0.279c-0.054,0.106 -0.081,0.221 -0.081,0.345c0,0.156 0.045,0.286 0.135,0.39c0.09,0.104 0.209,0.194 0.357,0.27c0.148,0.076 0.316,0.143 0.504,0.201c0.188,0.058 0.381,0.12 0.579,0.186c0.198,0.066 0.391,0.139 0.579,0.219c0.188,0.08 0.356,0.18 0.504,0.3c0.148,0.12 0.267,0.267 0.357,0.441c0.09,0.174 0.135,0.383 0.135,0.627c0,0.28 -0.05,0.539 -0.15,0.777c-0.1,0.238 -0.248,0.444 -0.444,0.618c-0.196,0.174 -0.436,0.311 -0.72,0.411c-0.284,0.1 -0.612,0.15 -0.984,0.15c-0.424,0 -0.808,-0.069 -1.152,-0.207c-0.344,-0.138 -0.636,-0.315 -0.876,-0.531l0.252,-0.408c0.032,-0.052 0.07,-0.092 0.114,-0.12c0.044,-0.028 0.102,-0.042 0.174,-0.042c0.072,0 0.148,0.028 0.228,0.084c0.08,0.056 0.177,0.118 0.291,0.186c0.114,0.068 0.252,0.13 0.414,0.186c0.162,0.056 0.365,0.084 0.609,0.084c0.208,0 0.39,-0.027 0.546,-0.081c0.156,-0.054 0.286,-0.127 0.39,-0.219c0.104,-0.092 0.181,-0.198 0.231,-0.318c0.05,-0.12 0.075,-0.248 0.075,-0.384c0,-0.168 -0.045,-0.307 -0.135,-0.417c-0.09,-0.11 -0.209,-0.204 -0.357,-0.282c-0.148,-0.078 -0.317,-0.146 -0.507,-0.204c-0.19,-0.058 -0.384,-0.119 -0.582,-0.183c-0.198,-0.064 -0.392,-0.137 -0.582,-0.219c-0.19,-0.082 -0.359,-0.185 -0.507,-0.309c-0.148,-0.124 -0.267,-0.277 -0.357,-0.459c-0.09,-0.182 -0.135,-0.403 -0.135,-0.663c0,-0.232 0.048,-0.455 0.144,-0.669c0.096,-0.214 0.236,-0.402 0.42,-0.564c0.184,-0.162 0.41,-0.291 0.678,-0.387c0.268,-0.096 0.574,-0.144 0.918,-0.144c0.4,0 0.759,0.063 1.077,0.189c0.318,0.126 0.593,0.299 0.825,0.519l-0.24,0.39Z" style="fill:#333;fill-rule:nonzero;"/><path d="M99.05,119.207c-0.032,0.044 -0.064,0.078 -0.096,0.102c-0.032,0.024 -0.078,0.036 -0.138,0.036c-0.06,0 -0.125,-0.025 -0.195,-0.075c-0.07,-0.05 -0.159,-0.105 -0.267,-0.165c-0.108,-0.06 -0.239,-0.115 -0.393,-0.165c-0.154,-0.05 -0.343,-0.075 -0.567,-0.075c-0.296,0 -0.558,0.053 -0.786,0.159c-0.228,0.106 -0.419,0.259 -0.573,0.459c-0.154,0.2 -0.27,0.442 -0.348,0.726c-0.078,0.284 -0.117,0.602 -0.117,0.954c0,0.368 0.042,0.695 0.126,0.981c0.084,0.286 0.202,0.526 0.354,0.72c0.152,0.194 0.337,0.342 0.555,0.444c0.218,0.102 0.463,0.153 0.735,0.153c0.26,0 0.474,-0.031 0.642,-0.093c0.168,-0.062 0.308,-0.131 0.42,-0.207c0.112,-0.076 0.204,-0.145 0.276,-0.207c0.072,-0.062 0.144,-0.093 0.216,-0.093c0.092,0 0.16,0.034 0.204,0.102l0.3,0.39c-0.264,0.324 -0.594,0.561 -0.99,0.711c-0.396,0.15 -0.814,0.225 -1.254,0.225c-0.38,0 -0.733,-0.07 -1.059,-0.21c-0.326,-0.14 -0.609,-0.343 -0.849,-0.609c-0.24,-0.266 -0.429,-0.593 -0.567,-0.981c-0.138,-0.388 -0.207,-0.83 -0.207,-1.326c0,-0.452 0.063,-0.87 0.189,-1.254c0.126,-0.384 0.31,-0.715 0.552,-0.993c0.242,-0.278 0.541,-0.495 0.897,-0.651c0.356,-0.156 0.764,-0.234 1.224,-0.234c0.424,0 0.8,0.069 1.128,0.207c0.328,0.138 0.618,0.333 0.87,0.585l-0.282,0.384Z" style="fill:#333;fill-rule:nonzero;"/><path d="M100.508,124.205l0,-6.078l0.612,0c0.116,0 0.196,0.022 0.24,0.066c0.044,0.044 0.074,0.12 0.09,0.228l0.072,0.948c0.208,-0.424 0.465,-0.755 0.771,-0.993c0.306,-0.238 0.665,-0.357 1.077,-0.357c0.168,0 0.32,0.019 0.456,0.057c0.136,0.038 0.262,0.091 0.378,0.159l-0.138,0.798c-0.028,0.1 -0.09,0.15 -0.186,0.15c-0.056,0 -0.142,-0.019 -0.258,-0.057c-0.116,-0.038 -0.278,-0.057 -0.486,-0.057c-0.372,0 -0.683,0.108 -0.933,0.324c-0.25,0.216 -0.459,0.53 -0.627,0.942l0,3.87l-1.068,0Z" style="fill:#333;fill-rule:nonzero;"/><path d="M106.532,118.127l0,6.078l-1.068,0l0,-6.078l1.068,0Zm0.24,-1.908c0,0.104 -0.021,0.201 -0.063,0.291c-0.042,0.09 -0.098,0.17 -0.168,0.24c-0.07,0.07 -0.151,0.125 -0.243,0.165c-0.092,0.04 -0.19,0.06 -0.294,0.06c-0.104,0 -0.201,-0.02 -0.291,-0.06c-0.09,-0.04 -0.17,-0.095 -0.24,-0.165c-0.07,-0.07 -0.125,-0.15 -0.165,-0.24c-0.04,-0.09 -0.06,-0.187 -0.06,-0.291c0,-0.104 0.02,-0.203 0.06,-0.297c0.04,-0.094 0.095,-0.176 0.165,-0.246c0.07,-0.07 0.15,-0.125 0.24,-0.165c0.09,-0.04 0.187,-0.06 0.291,-0.06c0.104,0 0.202,0.02 0.294,0.06c0.092,0.04 0.173,0.095 0.243,0.165c0.07,0.07 0.126,0.152 0.168,0.246c0.042,0.094 0.063,0.193 0.063,0.297Z" style="fill:#333;fill-rule:nonzero;"/><path d="M110.258,124.301c-0.48,0 -0.849,-0.134 -1.107,-0.402c-0.258,-0.268 -0.387,-0.654 -0.387,-1.158l0,-3.72l-0.732,0c-0.064,0 -0.118,-0.019 -0.162,-0.057c-0.044,-0.038 -0.066,-0.097 -0.066,-0.177l0,-0.426l0.996,-0.126l0.246,-1.878c0.008,-0.06 0.034,-0.109 0.078,-0.147c0.044,-0.038 0.1,-0.057 0.168,-0.057l0.54,0l0,2.094l1.74,0l0,0.774l-1.74,0l0,3.648c0,0.256 0.062,0.446 0.186,0.57c0.124,0.124 0.284,0.186 0.48,0.186c0.112,0 0.209,-0.015 0.291,-0.045c0.082,-0.03 0.153,-0.063 0.213,-0.099c0.06,-0.036 0.111,-0.069 0.153,-0.099c0.042,-0.03 0.079,-0.045 0.111,-0.045c0.056,0 0.106,0.034 0.15,0.102l0.312,0.51c-0.184,0.172 -0.406,0.307 -0.666,0.405c-0.26,0.098 -0.528,0.147 -0.804,0.147Z" style="fill:#333;fill-rule:nonzero;"/><path d="M115.352,118.031c0.444,0 0.845,0.074 1.203,0.222c0.358,0.148 0.662,0.358 0.912,0.63c0.25,0.272 0.442,0.601 0.576,0.987c0.134,0.386 0.201,0.817 0.201,1.293c0,0.48 -0.067,0.912 -0.201,1.296c-0.134,0.384 -0.326,0.712 -0.576,0.984c-0.25,0.272 -0.554,0.481 -0.912,0.627c-0.358,0.146 -0.759,0.219 -1.203,0.219c-0.444,0 -0.845,-0.073 -1.203,-0.219c-0.358,-0.146 -0.663,-0.355 -0.915,-0.627c-0.252,-0.272 -0.446,-0.6 -0.582,-0.984c-0.136,-0.384 -0.204,-0.816 -0.204,-1.296c0,-0.476 0.068,-0.907 0.204,-1.293c0.136,-0.386 0.33,-0.715 0.582,-0.987c0.252,-0.272 0.557,-0.482 0.915,-0.63c0.358,-0.148 0.759,-0.222 1.203,-0.222Zm0,5.424c0.6,0 1.048,-0.201 1.344,-0.603c0.296,-0.402 0.444,-0.963 0.444,-1.683c0,-0.724 -0.148,-1.288 -0.444,-1.692c-0.296,-0.404 -0.744,-0.606 -1.344,-0.606c-0.304,0 -0.568,0.052 -0.792,0.156c-0.224,0.104 -0.411,0.254 -0.561,0.45c-0.15,0.196 -0.262,0.437 -0.336,0.723c-0.074,0.286 -0.111,0.609 -0.111,0.969c0,0.36 0.037,0.682 0.111,0.966c0.074,0.284 0.186,0.523 0.336,0.717c0.15,0.194 0.337,0.343 0.561,0.447c0.224,0.104 0.488,0.156 0.792,0.156Z" style="fill:#333;fill-rule:nonzero;"/><path d="M119.564,124.205l0,-6.078l0.612,0c0.116,0 0.196,0.022 0.24,0.066c0.044,0.044 0.074,0.12 0.09,0.228l0.072,0.948c0.208,-0.424 0.465,-0.755 0.771,-0.993c0.306,-0.238 0.665,-0.357 1.077,-0.357c0.168,0 0.32,0.019 0.456,0.057c0.136,0.038 0.262,0.091 0.378,0.159l-0.138,0.798c-0.028,0.1 -0.09,0.15 -0.186,0.15c-0.056,0 -0.142,-0.019 -0.258,-0.057c-0.116,-0.038 -0.278,-0.057 -0.486,-0.057c-0.372,0 -0.683,0.108 -0.933,0.324c-0.25,0.216 -0.459,0.53 -0.627,0.942l0,3.87l-1.068,0Z" style="fill:#333;fill-rule:nonzero;"/><path d="M128.636,124.205l-0.474,0c-0.104,0 -0.188,-0.016 -0.252,-0.048c-0.064,-0.032 -0.106,-0.1 -0.126,-0.204l-0.12,-0.564c-0.16,0.144 -0.316,0.273 -0.468,0.387c-0.152,0.114 -0.312,0.21 -0.48,0.288c-0.168,0.078 -0.347,0.137 -0.537,0.177c-0.19,0.04 -0.401,0.06 -0.633,0.06c-0.236,0 -0.457,-0.033 -0.663,-0.099c-0.206,-0.066 -0.385,-0.166 -0.537,-0.298c-0.152,-0.133 -0.273,-0.3 -0.363,-0.503c-0.09,-0.203 -0.135,-0.443 -0.135,-0.719c0,-0.241 0.066,-0.473 0.198,-0.696c0.132,-0.223 0.345,-0.42 0.639,-0.593c0.294,-0.173 0.679,-0.314 1.155,-0.424c0.476,-0.111 1.058,-0.166 1.746,-0.166l0,-0.477c0,-0.475 -0.101,-0.834 -0.303,-1.078c-0.202,-0.243 -0.501,-0.365 -0.897,-0.365c-0.26,0 -0.479,0.033 -0.657,0.099c-0.178,0.066 -0.332,0.14 -0.462,0.222c-0.13,0.082 -0.242,0.156 -0.336,0.222c-0.094,0.066 -0.187,0.099 -0.279,0.099c-0.072,0 -0.135,-0.019 -0.189,-0.057c-0.054,-0.038 -0.097,-0.085 -0.129,-0.141l-0.192,-0.342c0.336,-0.324 0.698,-0.566 1.086,-0.726c0.388,-0.16 0.818,-0.24 1.29,-0.24c0.34,0 0.642,0.056 0.906,0.168c0.264,0.112 0.486,0.268 0.666,0.468c0.18,0.2 0.316,0.442 0.408,0.726c0.092,0.284 0.138,0.596 0.138,0.936l0,3.888Zm-2.772,-0.654c0.188,0 0.36,-0.019 0.516,-0.057c0.156,-0.038 0.303,-0.092 0.441,-0.162c0.138,-0.07 0.27,-0.155 0.396,-0.255c0.126,-0.1 0.249,-0.214 0.369,-0.342l0,-1.254c-0.492,0 -0.91,0.031 -1.254,0.094c-0.344,0.062 -0.624,0.143 -0.84,0.244c-0.216,0.101 -0.373,0.219 -0.471,0.356c-0.098,0.137 -0.147,0.29 -0.147,0.459c0,0.161 0.026,0.299 0.078,0.416c0.052,0.117 0.122,0.212 0.21,0.287c0.088,0.074 0.192,0.129 0.312,0.163c0.12,0.034 0.25,0.051 0.39,0.051Z" style="fill:#333;fill-rule:nonzero;"/><path d="M134.978,118.031c0.364,0 0.7,0.061 1.008,0.183c0.308,0.122 0.574,0.298 0.798,0.528c0.224,0.23 0.399,0.514 0.525,0.852c0.126,0.338 0.189,0.723 0.189,1.155c0,0.168 -0.018,0.28 -0.054,0.336c-0.036,0.056 -0.104,0.084 -0.204,0.084l-4.044,0c0.008,0.384 0.06,0.718 0.156,1.002c0.096,0.284 0.228,0.521 0.396,0.711c0.168,0.19 0.368,0.332 0.6,0.426c0.232,0.094 0.492,0.141 0.78,0.141c0.268,0 0.499,-0.031 0.693,-0.093c0.194,-0.062 0.361,-0.129 0.501,-0.201c0.14,-0.072 0.257,-0.139 0.351,-0.201c0.094,-0.062 0.175,-0.093 0.243,-0.093c0.088,0 0.156,0.034 0.204,0.102l0.3,0.39c-0.132,0.16 -0.29,0.299 -0.474,0.417c-0.184,0.118 -0.381,0.215 -0.591,0.291c-0.21,0.076 -0.427,0.133 -0.651,0.171c-0.224,0.038 -0.446,0.057 -0.666,0.057c-0.42,0 -0.807,-0.071 -1.161,-0.213c-0.354,-0.142 -0.66,-0.35 -0.918,-0.624c-0.258,-0.274 -0.459,-0.613 -0.603,-1.017c-0.144,-0.404 -0.216,-0.868 -0.216,-1.392c0,-0.424 0.065,-0.82 0.195,-1.188c0.13,-0.368 0.317,-0.687 0.561,-0.957c0.244,-0.27 0.542,-0.482 0.894,-0.636c0.352,-0.154 0.748,-0.231 1.188,-0.231Zm0.024,0.786c-0.516,0 -0.922,0.149 -1.218,0.447c-0.296,0.298 -0.48,0.711 -0.552,1.239l3.306,0c0,-0.248 -0.034,-0.475 -0.102,-0.681c-0.068,-0.206 -0.168,-0.384 -0.3,-0.534c-0.132,-0.15 -0.293,-0.266 -0.483,-0.348c-0.19,-0.082 -0.407,-0.123 -0.651,-0.123Z" style="fill:#333;fill-rule:nonzero;"/><path d="M83.408,138.263l0,-8.136l0.636,0c0.152,0 0.248,0.074 0.288,0.222l0.09,0.72c0.26,-0.316 0.557,-0.57 0.891,-0.762c0.334,-0.192 0.719,-0.288 1.155,-0.288c0.348,0 0.664,0.067 0.948,0.201c0.284,0.134 0.526,0.332 0.726,0.594c0.2,0.262 0.354,0.587 0.462,0.975c0.108,0.388 0.162,0.834 0.162,1.338c0,0.448 -0.06,0.865 -0.18,1.251c-0.12,0.386 -0.292,0.72 -0.516,1.002c-0.224,0.282 -0.499,0.504 -0.825,0.666c-0.326,0.162 -0.693,0.243 -1.101,0.243c-0.376,0 -0.697,-0.062 -0.963,-0.186c-0.266,-0.124 -0.501,-0.3 -0.705,-0.528l0,2.688l-1.068,0Zm2.706,-7.38c-0.348,0 -0.653,0.08 -0.915,0.24c-0.262,0.16 -0.503,0.386 -0.723,0.678l0,2.94c0.196,0.264 0.411,0.45 0.645,0.558c0.234,0.108 0.495,0.162 0.783,0.162c0.564,0 0.998,-0.202 1.302,-0.606c0.304,-0.404 0.456,-0.98 0.456,-1.728c0,-0.396 -0.035,-0.736 -0.105,-1.02c-0.07,-0.284 -0.171,-0.517 -0.303,-0.699c-0.132,-0.182 -0.294,-0.315 -0.486,-0.399c-0.192,-0.084 -0.41,-0.126 -0.654,-0.126Z" style="fill:#5fa197;fill-rule:nonzero;"/><path d="M92.438,130.031c0.364,0 0.7,0.061 1.008,0.183c0.308,0.122 0.574,0.298 0.798,0.528c0.224,0.23 0.399,0.514 0.525,0.852c0.126,0.338 0.189,0.723 0.189,1.155c0,0.168 -0.018,0.28 -0.054,0.336c-0.036,0.056 -0.104,0.084 -0.204,0.084l-4.044,0c0.008,0.384 0.06,0.718 0.156,1.002c0.096,0.284 0.228,0.521 0.396,0.711c0.168,0.19 0.368,0.332 0.6,0.426c0.232,0.094 0.492,0.141 0.78,0.141c0.268,0 0.499,-0.031 0.693,-0.093c0.194,-0.062 0.361,-0.129 0.501,-0.201c0.14,-0.072 0.257,-0.139 0.351,-0.201c0.094,-0.062 0.175,-0.093 0.243,-0.093c0.088,0 0.156,0.034 0.204,0.102l0.3,0.39c-0.132,0.16 -0.29,0.299 -0.474,0.417c-0.184,0.118 -0.381,0.215 -0.591,0.291c-0.21,0.076 -0.427,0.133 -0.651,0.171c-0.224,0.038 -0.446,0.057 -0.666,0.057c-0.42,0 -0.807,-0.071 -1.161,-0.213c-0.354,-0.142 -0.66,-0.35 -0.918,-0.624c-0.258,-0.274 -0.459,-0.613 -0.603,-1.017c-0.144,-0.404 -0.216,-0.868 -0.216,-1.392c0,-0.424 0.065,-0.82 0.195,-1.188c0.13,-0.368 0.317,-0.687 0.561,-0.957c0.244,-0.27 0.542,-0.482 0.894,-0.636c0.352,-0.154 0.748,-0.231 1.188,-0.231Zm0.024,0.786c-0.516,0 -0.922,0.149 -1.218,0.447c-0.296,0.298 -0.48,0.711 -0.552,1.239l3.306,0c0,-0.248 -0.034,-0.475 -0.102,-0.681c-0.068,-0.206 -0.168,-0.384 -0.3,-0.534c-0.132,-0.15 -0.293,-0.266 -0.483,-0.348c-0.19,-0.082 -0.407,-0.123 -0.651,-0.123Z" style="fill:#5fa197;fill-rule:nonzero;"/><path d="M96.32,136.205l0,-6.078l0.612,0c0.116,0 0.196,0.022 0.24,0.066c0.044,0.044 0.074,0.12 0.09,0.228l0.072,0.948c0.208,-0.424 0.465,-0.755 0.771,-0.993c0.306,-0.238 0.665,-0.357 1.077,-0.357c0.168,0 0.32,0.019 0.456,0.057c0.136,0.038 0.262,0.091 0.378,0.159l-0.138,0.798c-0.028,0.1 -0.09,0.15 -0.186,0.15c-0.056,0 -0.142,-0.019 -0.258,-0.057c-0.116,-0.038 -0.278,-0.057 -0.486,-0.057c-0.372,0 -0.683,0.108 -0.933,0.324c-0.25,0.216 -0.459,0.53 -0.627,0.942l0,3.87l-1.068,0Z" style="fill:#5fa197;fill-rule:nonzero;"/><path d="M104.636,131.129c-0.048,0.088 -0.122,0.132 -0.222,0.132c-0.06,0 -0.128,-0.022 -0.204,-0.066c-0.076,-0.044 -0.169,-0.093 -0.279,-0.147c-0.11,-0.054 -0.241,-0.104 -0.393,-0.15c-0.152,-0.046 -0.332,-0.069 -0.54,-0.069c-0.18,0 -0.342,0.023 -0.486,0.069c-0.144,0.046 -0.267,0.109 -0.369,0.189c-0.102,0.08 -0.18,0.173 -0.234,0.279c-0.054,0.106 -0.081,0.221 -0.081,0.345c0,0.156 0.045,0.286 0.135,0.39c0.09,0.104 0.209,0.194 0.357,0.27c0.148,0.076 0.316,0.143 0.504,0.201c0.188,0.058 0.381,0.12 0.579,0.186c0.198,0.066 0.391,0.139 0.579,0.219c0.188,0.08 0.356,0.18 0.504,0.3c0.148,0.12 0.267,0.267 0.357,0.441c0.09,0.174 0.135,0.383 0.135,0.627c0,0.28 -0.05,0.539 -0.15,0.777c-0.1,0.238 -0.248,0.444 -0.444,0.618c-0.196,0.174 -0.436,0.311 -0.72,0.411c-0.284,0.1 -0.612,0.15 -0.984,0.15c-0.424,0 -0.808,-0.069 -1.152,-0.207c-0.344,-0.138 -0.636,-0.315 -0.876,-0.531l0.252,-0.408c0.032,-0.052 0.07,-0.092 0.114,-0.12c0.044,-0.028 0.102,-0.042 0.174,-0.042c0.072,0 0.148,0.028 0.228,0.084c0.08,0.056 0.177,0.118 0.291,0.186c0.114,0.068 0.252,0.13 0.414,0.186c0.162,0.056 0.365,0.084 0.609,0.084c0.208,0 0.39,-0.027 0.546,-0.081c0.156,-0.054 0.286,-0.127 0.39,-0.219c0.104,-0.092 0.181,-0.198 0.231,-0.318c0.05,-0.12 0.075,-0.248 0.075,-0.384c0,-0.168 -0.045,-0.307 -0.135,-0.417c-0.09,-0.11 -0.209,-0.204 -0.357,-0.282c-0.148,-0.078 -0.317,-0.146 -0.507,-0.204c-0.19,-0.058 -0.384,-0.119 -0.582,-0.183c-0.198,-0.064 -0.392,-0.137 -0.582,-0.219c-0.19,-0.082 -0.359,-0.185 -0.507,-0.309c-0.148,-0.124 -0.267,-0.277 -0.357,-0.459c-0.09,-0.182 -0.135,-0.403 -0.135,-0.663c0,-0.232 0.048,-0.455 0.144,-0.669c0.096,-0.214 0.236,-0.402 0.42,-0.564c0.184,-0.162 0.41,-0.291 0.678,-0.387c0.268,-0.096 0.574,-0.144 0.918,-0.144c0.4,0 0.759,0.063 1.077,0.189c0.318,0.126 0.593,0.299 0.825,0.519l-0.24,0.39Z" style="fill:#5fa197;fill-rule:nonzero;"/><path d="M108.824,130.031c0.444,0 0.845,0.074 1.203,0.222c0.358,0.148 0.662,0.358 0.912,0.63c0.25,0.272 0.442,0.601 0.576,0.987c0.134,0.386 0.201,0.817 0.201,1.293c0,0.48 -0.067,0.912 -0.201,1.296c-0.134,0.384 -0.326,0.712 -0.576,0.984c-0.25,0.272 -0.554,0.481 -0.912,0.627c-0.358,0.146 -0.759,0.219 -1.203,0.219c-0.444,0 -0.845,-0.073 -1.203,-0.219c-0.358,-0.146 -0.663,-0.355 -0.915,-0.627c-0.252,-0.272 -0.446,-0.6 -0.582,-0.984c-0.136,-0.384 -0.204,-0.816 -0.204,-1.296c0,-0.476 0.068,-0.907 0.204,-1.293c0.136,-0.386 0.33,-0.715 0.582,-0.987c0.252,-0.272 0.557,-0.482 0.915,-0.63c0.358,-0.148 0.759,-0.222 1.203,-0.222Zm0,5.424c0.6,0 1.048,-0.201 1.344,-0.603c0.296,-0.402 0.444,-0.963 0.444,-1.683c0,-0.724 -0.148,-1.288 -0.444,-1.692c-0.296,-0.404 -0.744,-0.606 -1.344,-0.606c-0.304,0 -0.568,0.052 -0.792,0.156c-0.224,0.104 -0.411,0.254 -0.561,0.45c-0.15,0.196 -0.262,0.437 -0.336,0.723c-0.074,0.286 -0.111,0.609 -0.111,0.969c0,0.36 0.037,0.682 0.111,0.966c0.074,0.284 0.186,0.523 0.336,0.717c0.15,0.194 0.337,0.343 0.561,0.447c0.224,0.104 0.488,0.156 0.792,0.156Z" style="fill:#5fa197;fill-rule:nonzero;"/><path d="M113.036,136.205l0,-6.078l0.636,0c0.152,0 0.248,0.074 0.288,0.222l0.084,0.66c0.264,-0.292 0.559,-0.528 0.885,-0.708c0.326,-0.18 0.703,-0.27 1.131,-0.27c0.332,0 0.625,0.055 0.879,0.165c0.254,0.11 0.466,0.266 0.636,0.468c0.17,0.202 0.299,0.445 0.387,0.729c0.088,0.284 0.132,0.598 0.132,0.942l0,3.87l-1.068,0l0,-3.87c0,-0.46 -0.105,-0.817 -0.315,-1.071c-0.21,-0.254 -0.531,-0.381 -0.963,-0.381c-0.316,0 -0.611,0.076 -0.885,0.228c-0.274,0.152 -0.527,0.358 -0.759,0.618l0,4.476l-1.068,0Z" style="fill:#5fa197;fill-rule:nonzero;"/><path d="M124.172,136.205l-0.474,0c-0.104,0 -0.188,-0.016 -0.252,-0.048c-0.064,-0.032 -0.106,-0.1 -0.126,-0.204l-0.12,-0.564c-0.16,0.144 -0.316,0.273 -0.468,0.387c-0.152,0.114 -0.312,0.21 -0.48,0.288c-0.168,0.078 -0.347,0.137 -0.537,0.177c-0.19,0.04 -0.401,0.06 -0.633,0.06c-0.236,0 -0.457,-0.033 -0.663,-0.099c-0.206,-0.066 -0.385,-0.166 -0.537,-0.298c-0.152,-0.133 -0.273,-0.3 -0.363,-0.503c-0.09,-0.203 -0.135,-0.443 -0.135,-0.719c0,-0.241 0.066,-0.473 0.198,-0.696c0.132,-0.223 0.345,-0.42 0.639,-0.593c0.294,-0.173 0.679,-0.314 1.155,-0.424c0.476,-0.111 1.058,-0.166 1.746,-0.166l0,-0.477c0,-0.475 -0.101,-0.834 -0.303,-1.078c-0.202,-0.243 -0.501,-0.365 -0.897,-0.365c-0.26,0 -0.479,0.033 -0.657,0.099c-0.178,0.066 -0.332,0.14 -0.462,0.222c-0.13,0.082 -0.242,0.156 -0.336,0.222c-0.094,0.066 -0.187,0.099 -0.279,0.099c-0.072,0 -0.135,-0.019 -0.189,-0.057c-0.054,-0.038 -0.097,-0.085 -0.129,-0.141l-0.192,-0.342c0.336,-0.324 0.698,-0.566 1.086,-0.726c0.388,-0.16 0.818,-0.24 1.29,-0.24c0.34,0 0.642,0.056 0.906,0.168c0.264,0.112 0.486,0.268 0.666,0.468c0.18,0.2 0.316,0.442 0.408,0.726c0.092,0.284 0.138,0.596 0.138,0.936l0,3.888Zm-2.772,-0.654c0.188,0 0.36,-0.019 0.516,-0.057c0.156,-0.038 0.303,-0.092 0.441,-0.162c0.138,-0.07 0.27,-0.155 0.396,-0.255c0.126,-0.1 0.249,-0.214 0.369,-0.342l0,-1.254c-0.492,0 -0.91,0.031 -1.254,0.094c-0.344,0.062 -0.624,0.143 -0.84,0.244c-0.216,0.101 -0.373,0.219 -0.471,0.356c-0.098,0.137 -0.147,0.29 -0.147,0.459c0,0.161 0.026,0.299 0.078,0.416c0.052,0.117 0.122,0.212 0.21,0.287c0.088,0.074 0.192,0.129 0.312,0.163c0.12,0.034 0.25,0.051 0.39,0.051Z" style="fill:#5fa197;fill-rule:nonzero;"/><rect x="125.912" y="127.367" width="1.068" height="8.838" style="fill:#5fa197;fill-rule:nonzero;"/><path d="M86.888,143.129c-0.048,0.088 -0.122,0.132 -0.222,0.132c-0.06,0 -0.128,-0.022 -0.204,-0.066c-0.076,-0.044 -0.169,-0.093 -0.279,-0.147c-0.11,-0.054 -0.241,-0.104 -0.393,-0.15c-0.152,-0.046 -0.332,-0.069 -0.54,-0.069c-0.18,0 -0.342,0.023 -0.486,0.069c-0.144,0.046 -0.267,0.109 -0.369,0.189c-0.102,0.08 -0.18,0.173 -0.234,0.279c-0.054,0.106 -0.081,0.221 -0.081,0.345c0,0.156 0.045,0.286 0.135,0.39c0.09,0.104 0.209,0.194 0.357,0.27c0.148,0.076 0.316,0.143 0.504,0.201c0.188,0.058 0.381,0.12 0.579,0.186c0.198,0.066 0.391,0.139 0.579,0.219c0.188,0.08 0.356,0.18 0.504,0.3c0.148,0.12 0.267,0.267 0.357,0.441c0.09,0.174 0.135,0.383 0.135,0.627c0,0.28 -0.05,0.539 -0.15,0.777c-0.1,0.238 -0.248,0.444 -0.444,0.618c-0.196,0.174 -0.436,0.311 -0.72,0.411c-0.284,0.1 -0.612,0.15 -0.984,0.15c-0.424,0 -0.808,-0.069 -1.152,-0.207c-0.344,-0.138 -0.636,-0.315 -0.876,-0.531l0.252,-0.408c0.032,-0.052 0.07,-0.092 0.114,-0.12c0.044,-0.028 0.102,-0.042 0.174,-0.042c0.072,0 0.148,0.028 0.228,0.084c0.08,0.056 0.177,0.118 0.291,0.186c0.114,0.068 0.252,0.13 0.414,0.186c0.162,0.056 0.365,0.084 0.609,0.084c0.208,0 0.39,-0.027 0.546,-0.081c0.156,-0.054 0.286,-0.127 0.39,-0.219c0.104,-0.092 0.181,-0.198 0.231,-0.318c0.05,-0.12 0.075,-0.248 0.075,-0.384c0,-0.168 -0.045,-0.307 -0.135,-0.417c-0.09,-0.11 -0.209,-0.204 -0.357,-0.282c-0.148,-0.078 -0.317,-0.146 -0.507,-0.204c-0.19,-0.058 -0.384,-0.119 -0.582,-0.183c-0.198,-0.064 -0.392,-0.137 -0.582,-0.219c-0.19,-0.082 -0.359,-0.185 -0.507,-0.309c-0.148,-0.124 -0.267,-0.277 -0.357,-0.459c-0.09,-0.182 -0.135,-0.403 -0.135,-0.663c0,-0.232 0.048,-0.455 0.144,-0.669c0.096,-0.214 0.236,-0.402 0.42,-0.564c0.184,-0.162 0.41,-0.291 0.678,-0.387c0.268,-0.096 0.574,-0.144 0.918,-0.144c0.4,0 0.759,0.063 1.077,0.189c0.318,0.126 0.593,0.299 0.825,0.519l-0.24,0.39Z" style="fill:#5fa197;fill-rule:nonzero;"/><path d="M88.616,150.263l0,-8.136l0.636,0c0.152,0 0.248,0.074 0.288,0.222l0.09,0.72c0.26,-0.316 0.557,-0.57 0.891,-0.762c0.334,-0.192 0.719,-0.288 1.155,-0.288c0.348,0 0.664,0.067 0.948,0.201c0.284,0.134 0.526,0.332 0.726,0.594c0.2,0.262 0.354,0.587 0.462,0.975c0.108,0.388 0.162,0.834 0.162,1.338c0,0.448 -0.06,0.865 -0.18,1.251c-0.12,0.386 -0.292,0.72 -0.516,1.002c-0.224,0.282 -0.499,0.504 -0.825,0.666c-0.326,0.162 -0.693,0.243 -1.101,0.243c-0.376,0 -0.697,-0.062 -0.963,-0.186c-0.266,-0.124 -0.501,-0.3 -0.705,-0.528l0,2.688l-1.068,0Zm2.706,-7.38c-0.348,0 -0.653,0.08 -0.915,0.24c-0.262,0.16 -0.503,0.386 -0.723,0.678l0,2.94c0.196,0.264 0.411,0.45 0.645,0.558c0.234,0.108 0.495,0.162 0.783,0.162c0.564,0 0.998,-0.202 1.302,-0.606c0.304,-0.404 0.456,-0.98 0.456,-1.728c0,-0.396 -0.035,-0.736 -0.105,-1.02c-0.07,-0.284 -0.171,-0.517 -0.303,-0.699c-0.132,-0.182 -0.294,-0.315 -0.486,-0.399c-0.192,-0.084 -0.41,-0.126 -0.654,-0.126Z" style="fill:#5fa197;fill-rule:nonzero;"/><path d="M96.428,142.127l0,6.078l-1.068,0l0,-6.078l1.068,0Zm0.24,-1.908c0,0.104 -0.021,0.201 -0.063,0.291c-0.042,0.09 -0.098,0.17 -0.168,0.24c-0.07,0.07 -0.151,0.125 -0.243,0.165c-0.092,0.04 -0.19,0.06 -0.294,0.06c-0.104,0 -0.201,-0.02 -0.291,-0.06c-0.09,-0.04 -0.17,-0.095 -0.24,-0.165c-0.07,-0.07 -0.125,-0.15 -0.165,-0.24c-0.04,-0.09 -0.06,-0.187 -0.06,-0.291c0,-0.104 0.02,-0.203 0.06,-0.297c0.04,-0.094 0.095,-0.176 0.165,-0.246c0.07,-0.07 0.15,-0.125 0.24,-0.165c0.09,-0.04 0.187,-0.06 0.291,-0.06c0.104,0 0.202,0.02 0.294,0.06c0.092,0.04 0.173,0.095 0.243,0.165c0.07,0.07 0.126,0.152 0.168,0.246c0.042,0.094 0.063,0.193 0.063,0.297Z" style="fill:#5fa197;fill-rule:nonzero;"/><path d="M98.312,148.205l0,-6.078l0.612,0c0.116,0 0.196,0.022 0.24,0.066c0.044,0.044 0.074,0.12 0.09,0.228l0.072,0.948c0.208,-0.424 0.465,-0.755 0.771,-0.993c0.306,-0.238 0.665,-0.357 1.077,-0.357c0.168,0 0.32,0.019 0.456,0.057c0.136,0.038 0.262,0.091 0.378,0.159l-0.138,0.798c-0.028,0.1 -0.09,0.15 -0.186,0.15c-0.056,0 -0.142,-0.019 -0.258,-0.057c-0.116,-0.038 -0.278,-0.057 -0.486,-0.057c-0.372,0 -0.683,0.108 -0.933,0.324c-0.25,0.216 -0.459,0.53 -0.627,0.942l0,3.87l-1.068,0Z" style="fill:#5fa197;fill-rule:nonzero;"/><path d="M104.336,142.127l0,6.078l-1.068,0l0,-6.078l1.068,0Zm0.24,-1.908c0,0.104 -0.021,0.201 -0.063,0.291c-0.042,0.09 -0.098,0.17 -0.168,0.24c-0.07,0.07 -0.151,0.125 -0.243,0.165c-0.092,0.04 -0.19,0.06 -0.294,0.06c-0.104,0 -0.201,-0.02 -0.291,-0.06c-0.09,-0.04 -0.17,-0.095 -0.24,-0.165c-0.07,-0.07 -0.125,-0.15 -0.165,-0.24c-0.04,-0.09 -0.06,-0.187 -0.06,-0.291c0,-0.104 0.02,-0.203 0.06,-0.297c0.04,-0.094 0.095,-0.176 0.165,-0.246c0.07,-0.07 0.15,-0.125 0.24,-0.165c0.09,-0.04 0.187,-0.06 0.291,-0.06c0.104,0 0.202,0.02 0.294,0.06c0.092,0.04 0.173,0.095 0.243,0.165c0.07,0.07 0.126,0.152 0.168,0.246c0.042,0.094 0.063,0.193 0.063,0.297Z" style="fill:#5fa197;fill-rule:nonzero;"/><path d="M108.062,148.301c-0.48,0 -0.849,-0.134 -1.107,-0.402c-0.258,-0.268 -0.387,-0.654 -0.387,-1.158l0,-3.72l-0.732,0c-0.064,0 -0.118,-0.019 -0.162,-0.057c-0.044,-0.038 -0.066,-0.097 -0.066,-0.177l0,-0.426l0.996,-0.126l0.246,-1.878c0.008,-0.06 0.034,-0.109 0.078,-0.147c0.044,-0.038 0.1,-0.057 0.168,-0.057l0.54,0l0,2.094l1.74,0l0,0.774l-1.74,0l0,3.648c0,0.256 0.062,0.446 0.186,0.57c0.124,0.124 0.284,0.186 0.48,0.186c0.112,0 0.209,-0.015 0.291,-0.045c0.082,-0.03 0.153,-0.063 0.213,-0.099c0.06,-0.036 0.111,-0.069 0.153,-0.099c0.042,-0.03 0.079,-0.045 0.111,-0.045c0.056,0 0.106,0.034 0.15,0.102l0.312,0.51c-0.184,0.172 -0.406,0.307 -0.666,0.405c-0.26,0.098 -0.528,0.147 -0.804,0.147Z" style="fill:#5fa197;fill-rule:nonzero;"/></g></svg>