<?xml version="1.0" encoding="UTF-8" standalone="no"?><!DOCTYPE svg PUBLIC "-//W3C//DTD SVG 1.1//EN" "http://www.w3.org/Graphics/SVG/1.1/DTD/svg11.dtd"><svg width="100%" height="100%" viewBox="0 0 200 200" version="1.1" xmlns="http://www.w3.org/2000/svg" xmlns:xlink="http://www.w3.org/1999/xlink" xml:space="preserve" style="fill-rule:evenodd;clip-rule:evenodd;stroke-linejoin:round;stroke-miterlimit:1.41421;"><path d="M41.687,101.117l6.9,0l0,-10.203l13.354,0l0,-6.157l-13.35,0l0,-11.092l14.68,0l0,-6.06l-21.58,0l0,33.512l-0.004,0l0,0Zm37.059,0.444c6.559,0 11.436,-3.401 11.436,-9.613c0,-5.761 -3.304,-8.33 -9.17,-10.839l-1.724,-0.739c-2.961,-1.284 -4.242,-2.117 -4.242,-4.189c0,-1.676 1.284,-2.957 3.304,-2.957c1.972,0 3.252,0.84 4.436,2.957l5.369,-3.45c-2.266,-3.991 -5.421,-5.518 -9.805,-5.518c-6.16,0 -10.099,3.947 -10.099,9.121c0,5.622 3.297,8.277 8.274,10.398l1.725,0.739c3.158,1.381 5.032,2.221 5.032,4.581c0,1.978 -1.825,3.401 -4.685,3.401c-3.401,0 -5.32,-1.77 -6.802,-4.189l-5.616,3.256c2.02,3.991 6.16,7.045 12.563,7.045l0.004,-0.004l0,0Zm19.713,-0.145c2.221,0 4.14,-1.725 4.14,-4.189c0,-2.419 -1.922,-4.144 -4.14,-4.144c-2.267,0 -4.189,1.725 -4.189,4.14c0,2.464 1.922,4.186 4.189,4.186l0,0.007Z" style="fill:#333;"/><path d="M116.547,101.561c6.109,0 10.298,-3.252 10.298,-10.397l0,-23.559l-6.9,0l0,23.461c0,3.45 -1.423,4.339 -3.696,4.339c-2.367,0 -3.353,-1.631 -4.442,-3.551l-5.612,3.401c1.624,3.454 4.824,6.31 10.349,6.31l0.003,-0.004Zm26.613,0c6.552,0 11.432,-3.401 11.432,-9.613c0,-5.761 -3.297,-8.33 -9.163,-10.839l-1.728,-0.739c-2.96,-1.284 -4.241,-2.117 -4.241,-4.189c0,-1.676 1.284,-2.957 3.297,-2.957c1.978,0 3.256,0.84 4.443,2.957l5.369,-3.45c-2.267,-3.991 -5.422,-5.518 -9.809,-5.518c-6.163,0 -10.106,3.947 -10.106,9.121c0,5.622 3.298,8.277 8.281,10.398l1.725,0.739c3.158,1.381 5.032,2.221 5.032,4.581c0,1.978 -1.825,3.401 -4.685,3.401c-3.401,0 -5.324,-1.77 -6.802,-4.189l-5.616,3.256c2.02,3.991 6.16,7.045 12.564,7.045l0.007,-0.004l0,0Z" style="fill:#f8d473;"/><rect x="41.687" y="106.94" width="111.325" height="0.476" style="fill:#333;"/><path d="M7.354,114.475l0,3.885c0,0.164 -0.022,0.318 -0.064,0.462c-0.043,0.144 -0.112,0.27 -0.206,0.379c-0.094,0.109 -0.217,0.194 -0.369,0.256c-0.153,0.063 -0.339,0.094 -0.559,0.094c-0.085,0 -0.165,-0.006 -0.238,-0.017c-0.073,-0.011 -0.148,-0.028 -0.223,-0.053l0.029,-0.487c0.007,-0.049 0.027,-0.08 0.058,-0.093c0.032,-0.014 0.093,-0.021 0.184,-0.021c0.09,0 0.166,-0.009 0.228,-0.027c0.063,-0.018 0.113,-0.048 0.151,-0.088c0.037,-0.04 0.064,-0.093 0.08,-0.159c0.016,-0.066 0.024,-0.148 0.024,-0.246l0,-3.885l0.905,0Zm0.135,-1.096c0,0.079 -0.016,0.152 -0.047,0.22c-0.032,0.069 -0.074,0.128 -0.127,0.18c-0.052,0.051 -0.114,0.092 -0.185,0.122c-0.071,0.031 -0.146,0.046 -0.227,0.046c-0.078,0 -0.152,-0.015 -0.221,-0.046c-0.07,-0.03 -0.13,-0.071 -0.182,-0.122c-0.051,-0.052 -0.092,-0.111 -0.122,-0.18c-0.031,-0.068 -0.046,-0.141 -0.046,-0.22c0,-0.08 0.015,-0.156 0.046,-0.227c0.03,-0.07 0.071,-0.131 0.122,-0.183c0.052,-0.051 0.112,-0.092 0.182,-0.122c0.069,-0.031 0.143,-0.046 0.221,-0.046c0.081,0 0.156,0.015 0.227,0.046c0.071,0.03 0.133,0.071 0.185,0.122c0.053,0.052 0.095,0.113 0.127,0.183c0.031,0.071 0.047,0.147 0.047,0.227Z" style="fill:#333;fill-rule:nonzero;"/><path d="M11.305,118.232l-0.406,0c-0.086,0 -0.153,-0.013 -0.202,-0.038c-0.048,-0.026 -0.085,-0.078 -0.109,-0.156l-0.081,-0.267c-0.095,0.085 -0.189,0.16 -0.28,0.225c-0.092,0.065 -0.186,0.119 -0.284,0.163c-0.098,0.044 -0.201,0.077 -0.311,0.099c-0.11,0.022 -0.232,0.033 -0.367,0.033c-0.158,0 -0.305,-0.022 -0.439,-0.065c-0.134,-0.043 -0.25,-0.107 -0.346,-0.193c-0.097,-0.085 -0.172,-0.192 -0.225,-0.319c-0.054,-0.128 -0.081,-0.276 -0.081,-0.445c0,-0.142 0.037,-0.282 0.112,-0.421c0.074,-0.138 0.198,-0.263 0.371,-0.374c0.174,-0.112 0.405,-0.204 0.693,-0.278c0.288,-0.073 0.645,-0.11 1.073,-0.11l0,-0.222c0,-0.253 -0.053,-0.44 -0.16,-0.562c-0.106,-0.122 -0.26,-0.183 -0.463,-0.183c-0.146,0 -0.268,0.017 -0.366,0.051c-0.098,0.035 -0.183,0.073 -0.255,0.116c-0.072,0.042 -0.138,0.081 -0.199,0.115c-0.061,0.034 -0.128,0.051 -0.202,0.051c-0.061,0 -0.113,-0.015 -0.157,-0.047c-0.044,-0.032 -0.08,-0.071 -0.106,-0.117l-0.165,-0.29c0.432,-0.395 0.953,-0.593 1.564,-0.593c0.219,0 0.415,0.036 0.588,0.108c0.172,0.072 0.318,0.172 0.437,0.3c0.12,0.128 0.211,0.282 0.273,0.46c0.062,0.178 0.093,0.374 0.093,0.586l0,2.373Zm-1.758,-0.564c0.093,0 0.179,-0.008 0.257,-0.025c0.078,-0.017 0.152,-0.042 0.221,-0.076c0.07,-0.034 0.137,-0.075 0.202,-0.124c0.065,-0.049 0.13,-0.108 0.196,-0.175l0,-0.629c-0.264,0 -0.484,0.017 -0.661,0.049c-0.177,0.034 -0.32,0.076 -0.427,0.128c-0.107,0.052 -0.184,0.112 -0.229,0.181c-0.045,0.069 -0.068,0.144 -0.068,0.225c0,0.159 0.047,0.274 0.141,0.343c0.094,0.068 0.217,0.103 0.368,0.103Z" style="fill:#333;fill-rule:nonzero;"/><path d="M13.946,118.232l-0.82,0l-1.495,-3.757l0.751,0c0.066,0 0.122,0.015 0.167,0.047c0.045,0.032 0.076,0.072 0.093,0.121l0.725,2.007c0.042,0.117 0.077,0.232 0.105,0.344c0.028,0.113 0.053,0.225 0.075,0.337c0.022,-0.112 0.047,-0.224 0.075,-0.337c0.028,-0.112 0.064,-0.227 0.108,-0.344l0.743,-2.007c0.018,-0.049 0.048,-0.089 0.092,-0.121c0.044,-0.032 0.096,-0.047 0.158,-0.047l0.714,0l-1.491,3.757l0,0Z" style="fill:#333;fill-rule:nonzero;"/><path d="M18.916,118.232l-0.406,0c-0.086,0 -0.153,-0.013 -0.202,-0.038c-0.049,-0.026 -0.085,-0.078 -0.11,-0.156l-0.08,-0.267c-0.096,0.085 -0.189,0.16 -0.281,0.225c-0.091,0.065 -0.186,0.119 -0.283,0.163c-0.098,0.044 -0.202,0.077 -0.312,0.099c-0.11,0.022 -0.232,0.033 -0.366,0.033c-0.159,0 -0.305,-0.022 -0.439,-0.065c-0.135,-0.043 -0.25,-0.107 -0.347,-0.193c-0.096,-0.085 -0.171,-0.192 -0.225,-0.319c-0.054,-0.128 -0.08,-0.276 -0.08,-0.445c0,-0.142 0.037,-0.282 0.111,-0.421c0.075,-0.138 0.199,-0.263 0.372,-0.374c0.173,-0.112 0.404,-0.204 0.692,-0.278c0.288,-0.073 0.646,-0.11 1.073,-0.11l0,-0.222c0,-0.253 -0.053,-0.44 -0.159,-0.562c-0.106,-0.122 -0.261,-0.183 -0.463,-0.183c-0.147,0 -0.269,0.017 -0.366,0.051c-0.098,0.035 -0.183,0.073 -0.255,0.116c-0.072,0.042 -0.139,0.081 -0.2,0.115c-0.061,0.034 -0.128,0.051 -0.201,0.051c-0.061,0 -0.114,-0.015 -0.158,-0.047c-0.044,-0.032 -0.079,-0.071 -0.106,-0.117l-0.165,-0.29c0.433,-0.395 0.954,-0.593 1.564,-0.593c0.22,0 0.416,0.036 0.588,0.108c0.172,0.072 0.318,0.172 0.438,0.3c0.119,0.128 0.21,0.282 0.273,0.46c0.062,0.178 0.093,0.374 0.093,0.586l0,2.373Zm-1.758,-0.564c0.093,0 0.178,-0.008 0.256,-0.025c0.079,-0.017 0.152,-0.042 0.222,-0.076c0.07,-0.034 0.137,-0.075 0.201,-0.124c0.065,-0.049 0.13,-0.108 0.196,-0.175l0,-0.629c-0.263,0 -0.484,0.017 -0.661,0.049c-0.177,0.034 -0.319,0.076 -0.426,0.128c-0.108,0.052 -0.184,0.112 -0.229,0.181c-0.045,0.069 -0.068,0.144 -0.068,0.225c0,0.159 0.047,0.274 0.141,0.343c0.094,0.068 0.217,0.103 0.368,0.103Z" style="fill:#333;fill-rule:nonzero;"/><path d="M22.036,115.207c-0.024,0.039 -0.05,0.067 -0.076,0.082c-0.027,0.016 -0.061,0.024 -0.103,0.024c-0.044,0 -0.091,-0.012 -0.141,-0.036c-0.05,-0.025 -0.108,-0.052 -0.174,-0.083c-0.066,-0.03 -0.141,-0.058 -0.225,-0.082c-0.084,-0.025 -0.184,-0.037 -0.299,-0.037c-0.178,0 -0.318,0.038 -0.421,0.114c-0.102,0.075 -0.154,0.174 -0.154,0.296c0,0.081 0.027,0.149 0.079,0.204c0.053,0.055 0.122,0.103 0.209,0.144c0.086,0.042 0.185,0.079 0.295,0.112c0.11,0.033 0.222,0.069 0.337,0.108c0.114,0.039 0.227,0.084 0.337,0.134c0.109,0.05 0.208,0.113 0.294,0.19c0.087,0.077 0.157,0.169 0.209,0.277c0.053,0.107 0.079,0.237 0.079,0.388c0,0.181 -0.033,0.347 -0.099,0.5c-0.066,0.152 -0.162,0.284 -0.289,0.395c-0.127,0.111 -0.284,0.198 -0.471,0.26c-0.187,0.063 -0.401,0.094 -0.643,0.094c-0.129,0 -0.256,-0.012 -0.379,-0.035c-0.123,-0.023 -0.242,-0.056 -0.355,-0.097c-0.114,-0.042 -0.219,-0.09 -0.315,-0.147c-0.096,-0.056 -0.181,-0.117 -0.255,-0.183l0.209,-0.344c0.027,-0.041 0.059,-0.073 0.095,-0.095c0.037,-0.022 0.083,-0.033 0.14,-0.033c0.056,0 0.109,0.016 0.159,0.047c0.05,0.032 0.108,0.066 0.174,0.103c0.066,0.037 0.143,0.071 0.232,0.103c0.09,0.031 0.202,0.047 0.339,0.047c0.108,0 0.2,-0.013 0.277,-0.038c0.077,-0.026 0.14,-0.059 0.19,-0.101c0.05,-0.041 0.087,-0.09 0.11,-0.145c0.023,-0.055 0.035,-0.111 0.035,-0.17c0,-0.088 -0.026,-0.16 -0.079,-0.216c-0.052,-0.056 -0.122,-0.105 -0.209,-0.147c-0.086,-0.041 -0.185,-0.078 -0.296,-0.111c-0.111,-0.033 -0.225,-0.069 -0.341,-0.108c-0.116,-0.039 -0.229,-0.085 -0.341,-0.138c-0.111,-0.052 -0.21,-0.119 -0.296,-0.199c-0.087,-0.081 -0.156,-0.18 -0.209,-0.297c-0.052,-0.117 -0.079,-0.259 -0.079,-0.425c0,-0.154 0.031,-0.3 0.092,-0.439c0.061,-0.139 0.151,-0.261 0.269,-0.365c0.118,-0.103 0.266,-0.186 0.443,-0.249c0.177,-0.062 0.382,-0.093 0.614,-0.093c0.258,0 0.494,0.043 0.707,0.128c0.212,0.086 0.389,0.198 0.531,0.337l-0.206,0.326l0,0Z" style="fill:#333;fill-rule:nonzero;"/><path d="M25.648,115.269c-0.027,0.034 -0.053,0.061 -0.079,0.081c-0.026,0.019 -0.063,0.029 -0.112,0.029c-0.046,0 -0.091,-0.014 -0.135,-0.042c-0.044,-0.028 -0.097,-0.06 -0.158,-0.095c-0.061,-0.036 -0.133,-0.067 -0.218,-0.095c-0.084,-0.028 -0.188,-0.043 -0.313,-0.043c-0.159,0 -0.298,0.029 -0.417,0.087c-0.12,0.057 -0.219,0.139 -0.299,0.247c-0.079,0.107 -0.138,0.237 -0.177,0.39c-0.04,0.152 -0.059,0.325 -0.059,0.518c0,0.2 0.021,0.378 0.064,0.535c0.043,0.156 0.104,0.287 0.185,0.393c0.081,0.107 0.178,0.187 0.293,0.242c0.115,0.055 0.244,0.083 0.388,0.083c0.144,0 0.261,-0.018 0.35,-0.053c0.089,-0.036 0.164,-0.075 0.225,-0.118c0.061,-0.042 0.114,-0.081 0.16,-0.117c0.045,-0.035 0.095,-0.053 0.152,-0.053c0.073,0 0.128,0.028 0.164,0.084l0.26,0.33c-0.1,0.117 -0.208,0.215 -0.326,0.295c-0.117,0.079 -0.238,0.143 -0.364,0.19c-0.126,0.048 -0.256,0.081 -0.39,0.101c-0.134,0.019 -0.267,0.029 -0.399,0.029c-0.232,0 -0.451,-0.043 -0.656,-0.13c-0.205,-0.087 -0.384,-0.213 -0.536,-0.379c-0.153,-0.166 -0.274,-0.369 -0.363,-0.61c-0.089,-0.24 -0.134,-0.514 -0.134,-0.822c0,-0.276 0.04,-0.532 0.119,-0.767c0.08,-0.236 0.196,-0.44 0.35,-0.612c0.154,-0.172 0.344,-0.307 0.571,-0.405c0.228,-0.097 0.489,-0.146 0.784,-0.146c0.281,0 0.527,0.045 0.738,0.135c0.211,0.091 0.401,0.22 0.57,0.389l-0.238,0.329l0,0Z" style="fill:#333;fill-rule:nonzero;"/><path d="M26.501,118.232l0,-3.757l0.531,0c0.093,0 0.158,0.017 0.194,0.051c0.037,0.034 0.061,0.093 0.073,0.176l0.055,0.454c0.135,-0.232 0.292,-0.415 0.473,-0.55c0.181,-0.134 0.383,-0.201 0.608,-0.201c0.185,0 0.339,0.043 0.461,0.128l-0.117,0.678c-0.007,0.044 -0.023,0.075 -0.048,0.093c-0.024,0.018 -0.057,0.028 -0.098,0.028c-0.037,0 -0.087,-0.009 -0.151,-0.026c-0.063,-0.017 -0.147,-0.026 -0.252,-0.026c-0.188,0 -0.349,0.052 -0.484,0.156c-0.134,0.104 -0.248,0.256 -0.34,0.456l0,2.34l-0.905,0Z" style="fill:#333;fill-rule:nonzero;"/><path d="M30.457,114.475l0,3.757l-0.905,0l0,-3.757l0.905,0Zm0.135,-1.096c0,0.079 -0.016,0.152 -0.048,0.22c-0.031,0.069 -0.073,0.128 -0.126,0.18c-0.052,0.051 -0.114,0.092 -0.185,0.122c-0.071,0.031 -0.146,0.046 -0.227,0.046c-0.078,0 -0.152,-0.015 -0.222,-0.046c-0.069,-0.03 -0.13,-0.071 -0.181,-0.122c-0.051,-0.052 -0.092,-0.111 -0.123,-0.18c-0.03,-0.068 -0.045,-0.141 -0.045,-0.22c0,-0.08 0.015,-0.156 0.045,-0.227c0.031,-0.07 0.072,-0.131 0.123,-0.183c0.051,-0.051 0.112,-0.092 0.181,-0.122c0.07,-0.031 0.144,-0.046 0.222,-0.046c0.081,0 0.156,0.015 0.227,0.046c0.071,0.03 0.133,0.071 0.185,0.122c0.053,0.052 0.095,0.113 0.126,0.183c0.032,0.071 0.048,0.147 0.048,0.227Z" style="fill:#333;fill-rule:nonzero;"/><path d="M31.478,119.459l0,-4.984l0.553,0c0.059,0 0.109,0.013 0.151,0.04c0.041,0.027 0.068,0.068 0.08,0.124l0.073,0.348c0.152,-0.173 0.326,-0.313 0.522,-0.421c0.197,-0.107 0.427,-0.161 0.691,-0.161c0.205,0 0.392,0.043 0.562,0.128c0.17,0.086 0.316,0.209 0.439,0.372c0.124,0.162 0.219,0.362 0.286,0.601c0.067,0.238 0.101,0.51 0.101,0.818c0,0.281 -0.038,0.541 -0.114,0.78c-0.076,0.239 -0.184,0.447 -0.324,0.623c-0.14,0.176 -0.31,0.313 -0.509,0.412c-0.199,0.099 -0.422,0.148 -0.668,0.148c-0.213,0 -0.393,-0.032 -0.541,-0.097c-0.147,-0.065 -0.28,-0.154 -0.397,-0.269l0,1.538l-0.905,0l0,0Zm1.758,-4.34c-0.188,0 -0.348,0.04 -0.481,0.119c-0.133,0.079 -0.257,0.191 -0.372,0.335l0,1.685c0.103,0.127 0.214,0.215 0.335,0.266c0.121,0.05 0.251,0.075 0.39,0.075c0.137,0 0.261,-0.026 0.372,-0.077c0.111,-0.052 0.205,-0.13 0.282,-0.235c0.077,-0.105 0.136,-0.237 0.178,-0.397c0.041,-0.16 0.062,-0.349 0.062,-0.566c0,-0.22 -0.018,-0.406 -0.053,-0.558c-0.036,-0.153 -0.086,-0.277 -0.152,-0.372c-0.066,-0.095 -0.146,-0.165 -0.24,-0.209c-0.094,-0.044 -0.201,-0.066 -0.321,-0.066l0,0Z" style="fill:#333;fill-rule:nonzero;"/><path d="M36.855,118.291c-0.325,0 -0.575,-0.092 -0.751,-0.277c-0.176,-0.184 -0.264,-0.439 -0.264,-0.763l0,-2.099l-0.381,0c-0.048,0 -0.091,-0.016 -0.126,-0.048c-0.035,-0.031 -0.053,-0.079 -0.053,-0.142l0,-0.359l0.604,-0.099l0.191,-1.026c0.01,-0.049 0.032,-0.086 0.068,-0.113c0.035,-0.027 0.079,-0.041 0.133,-0.041l0.469,0l0,1.183l0.989,0l0,0.645l-0.989,0l0,2.036c0,0.118 0.029,0.209 0.088,0.275c0.058,0.066 0.137,0.099 0.234,0.099c0.056,0 0.103,-0.007 0.141,-0.02c0.038,-0.014 0.071,-0.028 0.099,-0.042c0.028,-0.015 0.053,-0.029 0.075,-0.042c0.022,-0.014 0.044,-0.021 0.066,-0.021c0.027,0 0.049,0.007 0.066,0.021c0.017,0.013 0.036,0.033 0.055,0.06l0.271,0.44c-0.132,0.109 -0.283,0.192 -0.454,0.249c-0.171,0.056 -0.348,0.084 -0.531,0.084l0,0Z" style="fill:#333;fill-rule:nonzero;"/><rect x="39.928" y="112.79" width="0.905" height="5.442" style="fill:#333;"/><path d="M42.817,114.475l0,3.757l-0.904,0l0,-3.757l0.904,0Zm0.136,-1.096c0,0.079 -0.016,0.152 -0.048,0.22c-0.031,0.069 -0.074,0.128 -0.126,0.18c-0.053,0.051 -0.114,0.092 -0.185,0.122c-0.071,0.031 -0.147,0.046 -0.227,0.046c-0.078,0 -0.152,-0.015 -0.222,-0.046c-0.069,-0.03 -0.13,-0.071 -0.181,-0.122c-0.051,-0.052 -0.092,-0.111 -0.123,-0.18c-0.03,-0.068 -0.045,-0.141 -0.045,-0.22c0,-0.08 0.015,-0.156 0.045,-0.227c0.031,-0.07 0.072,-0.131 0.123,-0.183c0.051,-0.051 0.112,-0.092 0.181,-0.122c0.07,-0.031 0.144,-0.046 0.222,-0.046c0.08,0 0.156,0.015 0.227,0.046c0.071,0.03 0.132,0.071 0.185,0.122c0.052,0.052 0.095,0.113 0.126,0.183c0.032,0.071 0.048,0.147 0.048,0.227Z" style="fill:#333;fill-rule:nonzero;"/><path d="M43.85,118.232l0,-5.442l0.905,0l0,2.146c0.149,-0.159 0.317,-0.285 0.505,-0.379c0.188,-0.094 0.408,-0.141 0.659,-0.141c0.206,0 0.393,0.042 0.563,0.126c0.169,0.085 0.316,0.207 0.439,0.368c0.123,0.162 0.219,0.36 0.286,0.597c0.067,0.237 0.101,0.509 0.101,0.817c0,0.281 -0.038,0.541 -0.114,0.78c-0.076,0.239 -0.184,0.447 -0.324,0.623c-0.14,0.176 -0.31,0.313 -0.509,0.412c-0.199,0.099 -0.422,0.148 -0.669,0.148c-0.114,0 -0.219,-0.011 -0.315,-0.035c-0.095,-0.023 -0.181,-0.055 -0.26,-0.097c-0.078,-0.041 -0.15,-0.092 -0.218,-0.152c-0.067,-0.06 -0.131,-0.126 -0.192,-0.199l-0.04,0.252c-0.015,0.064 -0.04,0.109 -0.075,0.136c-0.036,0.027 -0.084,0.04 -0.145,0.04l-0.597,0l0,0Zm1.758,-3.113c-0.188,0 -0.348,0.04 -0.481,0.119c-0.134,0.079 -0.257,0.191 -0.372,0.335l0,1.685c0.102,0.127 0.214,0.215 0.335,0.266c0.121,0.05 0.252,0.075 0.394,0.075c0.136,0 0.26,-0.026 0.37,-0.077c0.109,-0.052 0.203,-0.13 0.28,-0.235c0.077,-0.105 0.136,-0.237 0.177,-0.397c0.042,-0.16 0.063,-0.349 0.063,-0.566c0,-0.22 -0.018,-0.406 -0.053,-0.558c-0.036,-0.153 -0.087,-0.277 -0.152,-0.372c-0.066,-0.095 -0.146,-0.165 -0.24,-0.209c-0.094,-0.044 -0.201,-0.066 -0.321,-0.066l0,0Z" style="fill:#333;fill-rule:nonzero;"/><path d="M48.014,118.232l0,-3.757l0.531,0c0.093,0 0.158,0.017 0.195,0.051c0.036,0.034 0.061,0.093 0.073,0.176l0.055,0.454c0.134,-0.232 0.292,-0.415 0.472,-0.55c0.181,-0.134 0.384,-0.201 0.608,-0.201c0.186,0 0.34,0.043 0.462,0.128l-0.118,0.678c-0.007,0.044 -0.023,0.075 -0.047,0.093c-0.025,0.018 -0.058,0.028 -0.099,0.028c-0.037,0 -0.087,-0.009 -0.15,-0.026c-0.064,-0.017 -0.148,-0.026 -0.253,-0.026c-0.188,0 -0.349,0.052 -0.483,0.156c-0.135,0.104 -0.248,0.256 -0.341,0.456l0,2.34l-0.905,0Z" style="fill:#333;fill-rule:nonzero;"/><path d="M53.845,118.232l-0.406,0c-0.086,0 -0.153,-0.013 -0.202,-0.038c-0.049,-0.026 -0.085,-0.078 -0.11,-0.156l-0.08,-0.267c-0.096,0.085 -0.189,0.16 -0.281,0.225c-0.091,0.065 -0.186,0.119 -0.283,0.163c-0.098,0.044 -0.202,0.077 -0.312,0.099c-0.11,0.022 -0.232,0.033 -0.366,0.033c-0.159,0 -0.305,-0.022 -0.439,-0.065c-0.135,-0.043 -0.25,-0.107 -0.347,-0.193c-0.096,-0.085 -0.171,-0.192 -0.225,-0.319c-0.053,-0.128 -0.08,-0.276 -0.08,-0.445c0,-0.142 0.037,-0.282 0.111,-0.421c0.075,-0.138 0.199,-0.263 0.372,-0.374c0.173,-0.112 0.404,-0.204 0.692,-0.278c0.288,-0.073 0.646,-0.11 1.073,-0.11l0,-0.222c0,-0.253 -0.053,-0.44 -0.159,-0.562c-0.106,-0.122 -0.261,-0.183 -0.463,-0.183c-0.147,0 -0.269,0.017 -0.366,0.051c-0.098,0.035 -0.183,0.073 -0.255,0.116c-0.072,0.042 -0.139,0.081 -0.2,0.115c-0.061,0.034 -0.128,0.051 -0.201,0.051c-0.061,0 -0.114,-0.015 -0.158,-0.047c-0.043,-0.032 -0.079,-0.071 -0.106,-0.117l-0.165,-0.29c0.433,-0.395 0.954,-0.593 1.564,-0.593c0.22,0 0.416,0.036 0.588,0.108c0.172,0.072 0.318,0.172 0.438,0.3c0.119,0.128 0.21,0.282 0.273,0.46c0.062,0.178 0.093,0.374 0.093,0.586l0,2.373Zm-1.758,-0.564c0.093,0 0.178,-0.008 0.256,-0.025c0.079,-0.017 0.152,-0.042 0.222,-0.076c0.07,-0.034 0.137,-0.075 0.201,-0.124c0.065,-0.049 0.131,-0.108 0.196,-0.175l0,-0.629c-0.263,0 -0.484,0.017 -0.661,0.049c-0.177,0.034 -0.319,0.076 -0.426,0.128c-0.108,0.052 -0.184,0.112 -0.229,0.181c-0.045,0.069 -0.068,0.144 -0.068,0.225c0,0.159 0.047,0.274 0.141,0.343c0.094,0.068 0.217,0.103 0.368,0.103Z" style="fill:#333;fill-rule:nonzero;"/><path d="M54.735,118.232l0,-3.757l0.531,0c0.093,0 0.158,0.017 0.194,0.051c0.037,0.034 0.061,0.093 0.073,0.176l0.055,0.454c0.135,-0.232 0.292,-0.415 0.473,-0.55c0.181,-0.134 0.383,-0.201 0.608,-0.201c0.185,0 0.339,0.043 0.461,0.128l-0.117,0.678c-0.007,0.044 -0.023,0.075 -0.047,0.093c-0.025,0.018 -0.058,0.028 -0.099,0.028c-0.037,0 -0.087,-0.009 -0.151,-0.026c-0.063,-0.017 -0.147,-0.026 -0.252,-0.026c-0.188,0 -0.349,0.052 -0.484,0.156c-0.134,0.104 -0.248,0.256 -0.34,0.456l0,2.34l-0.905,0Z" style="fill:#333;fill-rule:nonzero;"/><path d="M59.06,119.265c-0.026,0.064 -0.061,0.112 -0.104,0.145c-0.043,0.033 -0.108,0.049 -0.196,0.049l-0.674,0l0.703,-1.505l-1.52,-3.479l0.792,0c0.073,0 0.129,0.017 0.168,0.051c0.039,0.034 0.068,0.073 0.088,0.117l0.802,1.948c0.027,0.064 0.05,0.13 0.07,0.198c0.019,0.069 0.036,0.137 0.051,0.205c0.019,-0.071 0.041,-0.139 0.064,-0.205c0.023,-0.066 0.048,-0.133 0.075,-0.201l0.755,-1.945c0.019,-0.049 0.051,-0.089 0.097,-0.121c0.045,-0.032 0.095,-0.047 0.152,-0.047l0.725,0l-2.048,4.79Z" style="fill:#333;fill-rule:nonzero;"/><path d="M64.283,118.291c-0.325,0 -0.575,-0.092 -0.751,-0.277c-0.175,-0.184 -0.263,-0.439 -0.263,-0.763l0,-2.099l-0.381,0c-0.049,0 -0.091,-0.016 -0.127,-0.048c-0.035,-0.031 -0.053,-0.079 -0.053,-0.142l0,-0.359l0.605,-0.099l0.19,-1.026c0.01,-0.049 0.032,-0.086 0.068,-0.113c0.035,-0.027 0.08,-0.041 0.133,-0.041l0.469,0l0,1.183l0.989,0l0,0.645l-0.989,0l0,2.036c0,0.118 0.03,0.209 0.088,0.275c0.059,0.066 0.137,0.099 0.235,0.099c0.056,0 0.103,-0.007 0.141,-0.02c0.037,-0.014 0.07,-0.028 0.098,-0.042c0.029,-0.015 0.054,-0.029 0.076,-0.042c0.022,-0.014 0.043,-0.021 0.065,-0.021c0.027,0 0.049,0.007 0.066,0.021c0.017,0.013 0.036,0.033 0.055,0.06l0.271,0.44c-0.132,0.109 -0.283,0.192 -0.454,0.249c-0.171,0.056 -0.348,0.084 -0.531,0.084l0,0Z" style="fill:#333;fill-rule:nonzero;"/><path d="M65.884,118.232l0,-5.442l0.904,0l0,2.091c0.147,-0.139 0.308,-0.251 0.484,-0.337c0.176,-0.085 0.382,-0.128 0.619,-0.128c0.205,0 0.387,0.035 0.545,0.104c0.159,0.07 0.292,0.168 0.398,0.293c0.106,0.126 0.187,0.276 0.241,0.451c0.055,0.174 0.083,0.367 0.083,0.577l0,2.391l-0.905,0l0,-2.391c0,-0.23 -0.053,-0.408 -0.159,-0.533c-0.106,-0.126 -0.266,-0.189 -0.478,-0.189c-0.156,0 -0.303,0.036 -0.44,0.106c-0.136,0.071 -0.266,0.168 -0.388,0.29l0,2.717l-0.904,0l0,0Z" style="fill:#333;fill-rule:nonzero;"/><path d="M72.993,118.232l-0.407,0c-0.085,0 -0.153,-0.013 -0.201,-0.038c-0.049,-0.026 -0.086,-0.078 -0.11,-0.156l-0.081,-0.267c-0.095,0.085 -0.189,0.16 -0.28,0.225c-0.092,0.065 -0.186,0.119 -0.284,0.163c-0.098,0.044 -0.201,0.077 -0.311,0.099c-0.11,0.022 -0.232,0.033 -0.366,0.033c-0.159,0 -0.306,-0.022 -0.44,-0.065c-0.134,-0.043 -0.25,-0.107 -0.346,-0.193c-0.097,-0.085 -0.172,-0.192 -0.225,-0.319c-0.054,-0.128 -0.081,-0.276 -0.081,-0.445c0,-0.142 0.037,-0.282 0.112,-0.421c0.074,-0.138 0.198,-0.263 0.372,-0.374c0.173,-0.112 0.404,-0.204 0.692,-0.278c0.288,-0.073 0.646,-0.11 1.073,-0.11l0,-0.222c0,-0.253 -0.053,-0.44 -0.159,-0.562c-0.107,-0.122 -0.261,-0.183 -0.464,-0.183c-0.146,0 -0.268,0.017 -0.366,0.051c-0.098,0.035 -0.183,0.073 -0.255,0.116c-0.072,0.042 -0.138,0.081 -0.199,0.115c-0.061,0.034 -0.128,0.051 -0.202,0.051c-0.061,0 -0.113,-0.015 -0.157,-0.047c-0.044,-0.032 -0.079,-0.071 -0.106,-0.117l-0.165,-0.29c0.432,-0.395 0.953,-0.593 1.564,-0.593c0.22,0 0.415,0.036 0.588,0.108c0.172,0.072 0.318,0.172 0.437,0.3c0.12,0.128 0.211,0.282 0.273,0.46c0.062,0.178 0.094,0.374 0.094,0.586l0,2.373Zm-1.758,-0.564c0.092,0 0.178,-0.008 0.256,-0.025c0.078,-0.017 0.152,-0.042 0.221,-0.076c0.07,-0.034 0.137,-0.075 0.202,-0.124c0.065,-0.049 0.13,-0.108 0.196,-0.175l0,-0.629c-0.264,0 -0.484,0.017 -0.661,0.049c-0.177,0.034 -0.319,0.076 -0.427,0.128c-0.107,0.052 -0.184,0.112 -0.229,0.181c-0.045,0.069 -0.068,0.144 -0.068,0.225c0,0.159 0.047,0.274 0.141,0.343c0.094,0.068 0.217,0.103 0.369,0.103Z" style="fill:#333;fill-rule:nonzero;"/><path d="M75.117,118.291c-0.325,0 -0.575,-0.092 -0.751,-0.277c-0.176,-0.184 -0.264,-0.439 -0.264,-0.763l0,-2.099l-0.381,0c-0.048,0 -0.091,-0.016 -0.126,-0.048c-0.035,-0.031 -0.053,-0.079 -0.053,-0.142l0,-0.359l0.604,-0.099l0.191,-1.026c0.009,-0.049 0.032,-0.086 0.067,-0.113c0.036,-0.027 0.08,-0.041 0.134,-0.041l0.469,0l0,1.183l0.989,0l0,0.645l-0.989,0l0,2.036c0,0.118 0.029,0.209 0.088,0.275c0.058,0.066 0.137,0.099 0.234,0.099c0.056,0 0.103,-0.007 0.141,-0.02c0.038,-0.014 0.071,-0.028 0.099,-0.042c0.028,-0.015 0.053,-0.029 0.075,-0.042c0.022,-0.014 0.044,-0.021 0.066,-0.021c0.027,0 0.049,0.007 0.066,0.021c0.017,0.013 0.035,0.033 0.055,0.06l0.271,0.44c-0.132,0.109 -0.283,0.192 -0.454,0.249c-0.171,0.056 -0.348,0.084 -0.531,0.084l0,0Z" style="fill:#333;fill-rule:nonzero;"/><path d="M80.772,115.269c-0.027,0.034 -0.053,0.061 -0.079,0.081c-0.026,0.019 -0.063,0.029 -0.112,0.029c-0.046,0 -0.091,-0.014 -0.135,-0.042c-0.044,-0.028 -0.097,-0.06 -0.158,-0.095c-0.061,-0.036 -0.134,-0.067 -0.218,-0.095c-0.084,-0.028 -0.188,-0.043 -0.313,-0.043c-0.159,0 -0.298,0.029 -0.417,0.087c-0.12,0.057 -0.22,0.139 -0.299,0.247c-0.079,0.107 -0.138,0.237 -0.178,0.39c-0.039,0.152 -0.058,0.325 -0.058,0.518c0,0.2 0.021,0.378 0.064,0.535c0.043,0.156 0.104,0.287 0.185,0.393c0.08,0.107 0.178,0.187 0.293,0.242c0.115,0.055 0.244,0.083 0.388,0.083c0.144,0 0.261,-0.018 0.35,-0.053c0.089,-0.036 0.164,-0.075 0.225,-0.118c0.061,-0.042 0.114,-0.081 0.159,-0.117c0.046,-0.035 0.096,-0.053 0.152,-0.053c0.074,0 0.129,0.028 0.165,0.084l0.26,0.33c-0.1,0.117 -0.208,0.215 -0.326,0.295c-0.117,0.079 -0.238,0.143 -0.364,0.19c-0.126,0.048 -0.256,0.081 -0.39,0.101c-0.134,0.019 -0.267,0.029 -0.399,0.029c-0.232,0 -0.451,-0.043 -0.656,-0.13c-0.205,-0.087 -0.384,-0.213 -0.536,-0.379c-0.153,-0.166 -0.274,-0.369 -0.363,-0.61c-0.089,-0.24 -0.134,-0.514 -0.134,-0.822c0,-0.276 0.04,-0.532 0.119,-0.767c0.08,-0.236 0.196,-0.44 0.35,-0.612c0.154,-0.172 0.344,-0.307 0.571,-0.405c0.227,-0.097 0.489,-0.146 0.784,-0.146c0.281,0 0.527,0.045 0.738,0.135c0.211,0.091 0.401,0.22 0.57,0.389l-0.238,0.329l0,0Z" style="fill:#333;fill-rule:nonzero;"/><path d="M83.229,114.416c0.281,0 0.535,0.045 0.764,0.135c0.228,0.091 0.423,0.219 0.584,0.385c0.161,0.166 0.286,0.369 0.373,0.608c0.088,0.239 0.132,0.507 0.132,0.802c0,0.298 -0.044,0.567 -0.132,0.806c-0.087,0.239 -0.212,0.443 -0.373,0.611c-0.161,0.169 -0.356,0.298 -0.584,0.389c-0.229,0.09 -0.483,0.135 -0.764,0.135c-0.281,0 -0.536,-0.045 -0.765,-0.135c-0.23,-0.091 -0.426,-0.22 -0.588,-0.389c-0.163,-0.168 -0.288,-0.372 -0.377,-0.611c-0.09,-0.239 -0.134,-0.508 -0.134,-0.806c0,-0.295 0.044,-0.563 0.134,-0.802c0.089,-0.239 0.214,-0.442 0.377,-0.608c0.162,-0.166 0.358,-0.294 0.588,-0.385c0.229,-0.09 0.484,-0.135 0.765,-0.135Zm0,3.175c0.313,0 0.544,-0.105 0.694,-0.315c0.15,-0.21 0.225,-0.517 0.225,-0.923c0,-0.405 -0.075,-0.714 -0.225,-0.926c-0.15,-0.213 -0.381,-0.319 -0.694,-0.319c-0.317,0 -0.552,0.107 -0.703,0.321c-0.151,0.213 -0.227,0.521 -0.227,0.924c0,0.403 0.076,0.71 0.227,0.921c0.151,0.212 0.386,0.317 0.703,0.317Z" style="fill:#333;fill-rule:nonzero;"/><path d="M85.789,118.232l0,-3.757l0.553,0c0.117,0 0.194,0.054 0.231,0.164l0.062,0.297c0.076,-0.078 0.156,-0.149 0.24,-0.212c0.084,-0.064 0.173,-0.119 0.267,-0.165c0.094,-0.047 0.195,-0.082 0.303,-0.106c0.107,-0.025 0.224,-0.037 0.351,-0.037c0.205,0 0.387,0.035 0.546,0.104c0.159,0.07 0.291,0.168 0.397,0.293c0.107,0.126 0.187,0.276 0.242,0.451c0.055,0.174 0.082,0.367 0.082,0.577l0,2.391l-0.904,0l0,-2.391c0,-0.23 -0.053,-0.408 -0.159,-0.533c-0.107,-0.126 -0.266,-0.189 -0.478,-0.189c-0.157,0 -0.303,0.036 -0.44,0.106c-0.137,0.071 -0.266,0.168 -0.388,0.29l0,2.717l-0.905,0l0,0Z" style="fill:#333;fill-rule:nonzero;"/><path d="M91.704,118.232l-0.82,0l-1.495,-3.757l0.751,0c0.066,0 0.122,0.015 0.167,0.047c0.045,0.032 0.076,0.072 0.093,0.121l0.725,2.007c0.042,0.117 0.077,0.232 0.105,0.344c0.028,0.113 0.053,0.225 0.075,0.337c0.022,-0.112 0.047,-0.224 0.075,-0.337c0.028,-0.112 0.064,-0.227 0.108,-0.344l0.744,-2.007c0.017,-0.049 0.047,-0.089 0.091,-0.121c0.044,-0.032 0.097,-0.047 0.158,-0.047l0.714,0l-1.491,3.757l0,0Z" style="fill:#333;fill-rule:nonzero;"/><path d="M95.161,114.416c0.237,0 0.455,0.038 0.654,0.113c0.199,0.076 0.371,0.187 0.515,0.332c0.144,0.145 0.256,0.323 0.337,0.535c0.08,0.211 0.121,0.452 0.121,0.723c0,0.068 -0.003,0.125 -0.01,0.17c-0.006,0.045 -0.017,0.081 -0.032,0.106c-0.016,0.026 -0.038,0.044 -0.065,0.055c-0.026,0.011 -0.061,0.017 -0.102,0.017l-2.322,0c0.027,0.386 0.13,0.669 0.311,0.85c0.181,0.18 0.42,0.271 0.718,0.271c0.147,0 0.273,-0.017 0.379,-0.052c0.106,-0.034 0.199,-0.072 0.278,-0.113c0.08,-0.042 0.149,-0.08 0.209,-0.114c0.06,-0.034 0.118,-0.051 0.174,-0.051c0.037,0 0.069,0.007 0.095,0.022c0.027,0.015 0.05,0.035 0.07,0.062l0.264,0.33c-0.1,0.117 -0.213,0.215 -0.337,0.295c-0.125,0.079 -0.255,0.143 -0.39,0.19c-0.136,0.048 -0.274,0.081 -0.414,0.101c-0.141,0.019 -0.277,0.029 -0.409,0.029c-0.261,0 -0.504,-0.043 -0.728,-0.13c-0.225,-0.087 -0.42,-0.215 -0.586,-0.384c-0.166,-0.17 -0.297,-0.38 -0.392,-0.63c-0.096,-0.251 -0.143,-0.541 -0.143,-0.87c0,-0.257 0.041,-0.498 0.124,-0.724c0.083,-0.225 0.202,-0.422 0.357,-0.589c0.156,-0.167 0.345,-0.3 0.568,-0.398c0.224,-0.097 0.476,-0.146 0.756,-0.146l0,0Zm0.019,0.648c-0.264,0 -0.47,0.075 -0.619,0.224c-0.149,0.149 -0.244,0.36 -0.286,0.633l1.7,0c0,-0.117 -0.016,-0.227 -0.048,-0.331c-0.032,-0.104 -0.081,-0.195 -0.147,-0.273c-0.065,-0.078 -0.148,-0.14 -0.249,-0.185c-0.1,-0.045 -0.217,-0.068 -0.351,-0.068l0,0Z" style="fill:#333;fill-rule:nonzero;"/><path d="M97.524,118.232l0,-3.757l0.531,0c0.093,0 0.157,0.017 0.194,0.051c0.037,0.034 0.061,0.093 0.073,0.176l0.055,0.454c0.134,-0.232 0.292,-0.415 0.473,-0.55c0.18,-0.134 0.383,-0.201 0.608,-0.201c0.185,0 0.339,0.043 0.461,0.128l-0.117,0.678c-0.007,0.044 -0.023,0.075 -0.048,0.093c-0.024,0.018 -0.057,0.028 -0.099,0.028c-0.036,0 -0.086,-0.009 -0.15,-0.026c-0.063,-0.017 -0.148,-0.026 -0.253,-0.026c-0.188,0 -0.349,0.052 -0.483,0.156c-0.134,0.104 -0.248,0.256 -0.341,0.456l0,2.34l-0.904,0Z" style="fill:#333;fill-rule:nonzero;"/><path d="M101.75,118.291c-0.324,0 -0.575,-0.092 -0.751,-0.277c-0.175,-0.184 -0.263,-0.439 -0.263,-0.763l0,-2.099l-0.381,0c-0.049,0 -0.091,-0.016 -0.126,-0.048c-0.036,-0.031 -0.054,-0.079 -0.054,-0.142l0,-0.359l0.605,-0.099l0.19,-1.026c0.01,-0.049 0.033,-0.086 0.068,-0.113c0.035,-0.027 0.08,-0.041 0.134,-0.041l0.468,0l0,1.183l0.989,0l0,0.645l-0.989,0l0,2.036c0,0.118 0.03,0.209 0.088,0.275c0.059,0.066 0.137,0.099 0.235,0.099c0.056,0 0.103,-0.007 0.141,-0.02c0.038,-0.014 0.071,-0.028 0.099,-0.042c0.028,-0.015 0.053,-0.029 0.075,-0.042c0.022,-0.014 0.044,-0.021 0.066,-0.021c0.026,0 0.048,0.007 0.066,0.021c0.017,0.013 0.035,0.033 0.054,0.06l0.271,0.44c-0.131,0.109 -0.283,0.192 -0.454,0.249c-0.171,0.056 -0.348,0.084 -0.531,0.084l0,0Z" style="fill:#333;fill-rule:nonzero;"/><path d="M105.581,115.207c-0.024,0.039 -0.05,0.067 -0.077,0.082c-0.027,0.016 -0.061,0.024 -0.102,0.024c-0.044,0 -0.091,-0.012 -0.141,-0.036c-0.05,-0.025 -0.108,-0.052 -0.174,-0.083c-0.066,-0.03 -0.141,-0.058 -0.225,-0.082c-0.085,-0.025 -0.184,-0.037 -0.299,-0.037c-0.178,0 -0.319,0.038 -0.421,0.114c-0.103,0.075 -0.154,0.174 -0.154,0.296c0,0.081 0.026,0.149 0.079,0.204c0.052,0.055 0.122,0.103 0.209,0.144c0.086,0.042 0.185,0.079 0.294,0.112c0.11,0.033 0.223,0.069 0.337,0.108c0.115,0.039 0.227,0.084 0.337,0.134c0.11,0.05 0.208,0.113 0.295,0.19c0.087,0.077 0.156,0.169 0.209,0.277c0.052,0.107 0.079,0.237 0.079,0.388c0,0.181 -0.033,0.347 -0.099,0.5c-0.066,0.152 -0.163,0.284 -0.29,0.395c-0.127,0.111 -0.283,0.198 -0.47,0.26c-0.187,0.063 -0.401,0.094 -0.643,0.094c-0.129,0 -0.256,-0.012 -0.379,-0.035c-0.123,-0.023 -0.242,-0.056 -0.355,-0.097c-0.114,-0.042 -0.219,-0.09 -0.315,-0.147c-0.097,-0.056 -0.182,-0.117 -0.255,-0.183l0.209,-0.344c0.027,-0.041 0.059,-0.073 0.095,-0.095c0.037,-0.022 0.083,-0.033 0.139,-0.033c0.056,0 0.11,0.016 0.16,0.047c0.05,0.032 0.108,0.066 0.174,0.103c0.066,0.037 0.143,0.071 0.232,0.103c0.089,0.031 0.202,0.047 0.339,0.047c0.107,0 0.2,-0.013 0.276,-0.038c0.077,-0.026 0.141,-0.059 0.191,-0.101c0.05,-0.041 0.087,-0.09 0.11,-0.145c0.023,-0.055 0.035,-0.111 0.035,-0.17c0,-0.088 -0.027,-0.16 -0.079,-0.216c-0.053,-0.056 -0.122,-0.105 -0.209,-0.147c-0.087,-0.041 -0.185,-0.078 -0.297,-0.111c-0.111,-0.033 -0.224,-0.069 -0.34,-0.108c-0.116,-0.039 -0.23,-0.085 -0.341,-0.138c-0.111,-0.052 -0.21,-0.119 -0.296,-0.199c-0.087,-0.081 -0.157,-0.18 -0.209,-0.297c-0.053,-0.117 -0.079,-0.259 -0.079,-0.425c0,-0.154 0.031,-0.3 0.092,-0.439c0.061,-0.139 0.15,-0.261 0.269,-0.365c0.118,-0.103 0.266,-0.186 0.443,-0.249c0.177,-0.062 0.381,-0.093 0.613,-0.093c0.259,0 0.495,0.043 0.707,0.128c0.213,0.086 0.39,0.198 0.531,0.337l-0.205,0.326l0,0Z" style="fill:#333;fill-rule:nonzero;"/><path d="M108.127,118.232l0,-3.076l-0.326,-0.052c-0.071,-0.012 -0.128,-0.036 -0.171,-0.073c-0.042,-0.036 -0.064,-0.088 -0.064,-0.154l0,-0.37l0.561,0l0,-0.278c0,-0.215 0.032,-0.408 0.097,-0.579c0.064,-0.17 0.157,-0.316 0.278,-0.435c0.121,-0.12 0.268,-0.212 0.441,-0.275c0.174,-0.064 0.369,-0.095 0.586,-0.095c0.174,0 0.335,0.023 0.484,0.069l-0.018,0.454c-0.005,0.071 -0.038,0.115 -0.099,0.132c-0.061,0.017 -0.132,0.026 -0.213,0.026c-0.107,0 -0.203,0.012 -0.287,0.035c-0.085,0.023 -0.156,0.063 -0.215,0.121c-0.058,0.057 -0.103,0.133 -0.133,0.227c-0.031,0.094 -0.046,0.21 -0.046,0.349l0,0.249l0.978,0l0,0.645l-0.949,0l0,3.08l-0.904,0l0,0Z" style="fill:#333;fill-rule:nonzero;"/><path d="M112.137,114.416c0.281,0 0.535,0.045 0.764,0.135c0.228,0.091 0.423,0.219 0.584,0.385c0.161,0.166 0.286,0.369 0.373,0.608c0.088,0.239 0.132,0.507 0.132,0.802c0,0.298 -0.044,0.567 -0.132,0.806c-0.087,0.239 -0.212,0.443 -0.373,0.611c-0.161,0.169 -0.356,0.298 -0.584,0.389c-0.229,0.09 -0.483,0.135 -0.764,0.135c-0.281,0 -0.536,-0.045 -0.765,-0.135c-0.23,-0.091 -0.426,-0.22 -0.588,-0.389c-0.163,-0.168 -0.288,-0.372 -0.377,-0.611c-0.09,-0.239 -0.134,-0.508 -0.134,-0.806c0,-0.295 0.044,-0.563 0.134,-0.802c0.089,-0.239 0.214,-0.442 0.377,-0.608c0.162,-0.166 0.358,-0.294 0.588,-0.385c0.229,-0.09 0.484,-0.135 0.765,-0.135Zm0,3.175c0.313,0 0.544,-0.105 0.694,-0.315c0.15,-0.21 0.225,-0.517 0.225,-0.923c0,-0.405 -0.075,-0.714 -0.225,-0.926c-0.15,-0.213 -0.381,-0.319 -0.694,-0.319c-0.317,0 -0.552,0.107 -0.703,0.321c-0.152,0.213 -0.227,0.521 -0.227,0.924c0,0.403 0.075,0.71 0.227,0.921c0.151,0.212 0.386,0.317 0.703,0.317Z" style="fill:#333;fill-rule:nonzero;"/><path d="M114.697,118.232l0,-3.757l0.531,0c0.093,0 0.158,0.017 0.194,0.051c0.037,0.034 0.061,0.093 0.074,0.176l0.054,0.454c0.135,-0.232 0.292,-0.415 0.473,-0.55c0.181,-0.134 0.383,-0.201 0.608,-0.201c0.185,0 0.339,0.043 0.461,0.128l-0.117,0.678c-0.007,0.044 -0.023,0.075 -0.047,0.093c-0.025,0.018 -0.058,0.028 -0.099,0.028c-0.037,0 -0.087,-0.009 -0.15,-0.026c-0.064,-0.017 -0.148,-0.026 -0.253,-0.026c-0.188,0 -0.349,0.052 -0.484,0.156c-0.134,0.104 -0.247,0.256 -0.34,0.456l0,2.34l-0.905,0Z" style="fill:#333;fill-rule:nonzero;"/><path d="M117.689,118.232l0,-3.757l0.553,0c0.118,0 0.195,0.054 0.231,0.164l0.059,0.279c0.066,-0.074 0.135,-0.141 0.207,-0.202c0.072,-0.061 0.149,-0.113 0.23,-0.157c0.082,-0.044 0.17,-0.079 0.264,-0.105c0.094,-0.025 0.197,-0.038 0.31,-0.038c0.236,0 0.431,0.064 0.584,0.192c0.152,0.128 0.267,0.299 0.342,0.511c0.059,-0.124 0.132,-0.231 0.22,-0.32c0.088,-0.089 0.184,-0.162 0.289,-0.218c0.105,-0.056 0.217,-0.098 0.335,-0.125c0.119,-0.027 0.238,-0.04 0.357,-0.04c0.208,0 0.392,0.032 0.554,0.095c0.161,0.064 0.296,0.156 0.406,0.278c0.11,0.123 0.194,0.272 0.251,0.447c0.057,0.176 0.086,0.378 0.086,0.605l0,2.391l-0.905,0l0,-2.391c0,-0.24 -0.052,-0.42 -0.157,-0.541c-0.105,-0.12 -0.259,-0.181 -0.462,-0.181c-0.092,0 -0.178,0.016 -0.258,0.048c-0.079,0.031 -0.149,0.077 -0.209,0.137c-0.059,0.06 -0.106,0.135 -0.141,0.225c-0.034,0.091 -0.051,0.194 -0.051,0.312l0,2.391l-0.908,0l0,-2.391c0,-0.252 -0.051,-0.435 -0.152,-0.55c-0.101,-0.115 -0.251,-0.172 -0.449,-0.172c-0.129,0 -0.251,0.032 -0.364,0.097c-0.114,0.065 -0.219,0.153 -0.317,0.266l0,2.75l-0.905,0l0,0Z" style="fill:#333;fill-rule:nonzero;"/><path d="M126.087,115.207c-0.024,0.039 -0.05,0.067 -0.076,0.082c-0.027,0.016 -0.062,0.024 -0.103,0.024c-0.044,0 -0.091,-0.012 -0.141,-0.036c-0.05,-0.025 -0.108,-0.052 -0.174,-0.083c-0.066,-0.03 -0.141,-0.058 -0.225,-0.082c-0.084,-0.025 -0.184,-0.037 -0.299,-0.037c-0.178,0 -0.318,0.038 -0.421,0.114c-0.102,0.075 -0.154,0.174 -0.154,0.296c0,0.081 0.027,0.149 0.079,0.204c0.052,0.055 0.122,0.103 0.209,0.144c0.086,0.042 0.185,0.079 0.295,0.112c0.109,0.033 0.222,0.069 0.337,0.108c0.114,0.039 0.227,0.084 0.336,0.134c0.11,0.05 0.209,0.113 0.295,0.19c0.087,0.077 0.157,0.169 0.209,0.277c0.053,0.107 0.079,0.237 0.079,0.388c0,0.181 -0.033,0.347 -0.099,0.5c-0.066,0.152 -0.162,0.284 -0.289,0.395c-0.127,0.111 -0.284,0.198 -0.471,0.26c-0.187,0.063 -0.401,0.094 -0.643,0.094c-0.129,0 -0.256,-0.012 -0.379,-0.035c-0.123,-0.023 -0.242,-0.056 -0.355,-0.097c-0.114,-0.042 -0.219,-0.09 -0.315,-0.147c-0.097,-0.056 -0.181,-0.117 -0.255,-0.183l0.209,-0.344c0.027,-0.041 0.059,-0.073 0.095,-0.095c0.037,-0.022 0.083,-0.033 0.14,-0.033c0.056,0 0.109,0.016 0.159,0.047c0.05,0.032 0.108,0.066 0.174,0.103c0.066,0.037 0.143,0.071 0.232,0.103c0.089,0.031 0.202,0.047 0.339,0.047c0.108,0 0.2,-0.013 0.277,-0.038c0.077,-0.026 0.14,-0.059 0.19,-0.101c0.05,-0.041 0.087,-0.09 0.11,-0.145c0.023,-0.055 0.035,-0.111 0.035,-0.17c0,-0.088 -0.026,-0.16 -0.079,-0.216c-0.052,-0.056 -0.122,-0.105 -0.209,-0.147c-0.086,-0.041 -0.185,-0.078 -0.296,-0.111c-0.111,-0.033 -0.225,-0.069 -0.341,-0.108c-0.116,-0.039 -0.23,-0.085 -0.341,-0.138c-0.111,-0.052 -0.21,-0.119 -0.296,-0.199c-0.087,-0.081 -0.157,-0.18 -0.209,-0.297c-0.053,-0.117 -0.079,-0.259 -0.079,-0.425c0,-0.154 0.031,-0.3 0.092,-0.439c0.061,-0.139 0.151,-0.261 0.269,-0.365c0.118,-0.103 0.266,-0.186 0.443,-0.249c0.177,-0.062 0.382,-0.093 0.614,-0.093c0.258,0 0.494,0.043 0.706,0.128c0.213,0.086 0.39,0.198 0.532,0.337l-0.206,0.326l0,0Z" style="fill:#333;fill-rule:nonzero;"/><path d="M129.435,114.475l0,3.757l-0.905,0l0,-3.757l0.905,0Zm0.135,-1.096c0,0.079 -0.015,0.152 -0.047,0.22c-0.032,0.069 -0.074,0.128 -0.127,0.18c-0.052,0.051 -0.114,0.092 -0.184,0.122c-0.071,0.031 -0.147,0.046 -0.228,0.046c-0.078,0 -0.152,-0.015 -0.221,-0.046c-0.07,-0.03 -0.13,-0.071 -0.181,-0.122c-0.052,-0.052 -0.093,-0.111 -0.123,-0.18c-0.031,-0.068 -0.046,-0.141 -0.046,-0.22c0,-0.08 0.015,-0.156 0.046,-0.227c0.03,-0.07 0.071,-0.131 0.123,-0.183c0.051,-0.051 0.111,-0.092 0.181,-0.122c0.069,-0.031 0.143,-0.046 0.221,-0.046c0.081,0 0.157,0.015 0.228,0.046c0.07,0.03 0.132,0.071 0.184,0.122c0.053,0.052 0.095,0.113 0.127,0.183c0.032,0.071 0.047,0.147 0.047,0.227Z" style="fill:#333;fill-rule:nonzero;"/><path d="M130.457,118.232l0,-3.757l0.553,0c0.117,0 0.194,0.054 0.231,0.164l0.062,0.297c0.075,-0.078 0.155,-0.149 0.24,-0.212c0.084,-0.064 0.173,-0.119 0.267,-0.165c0.094,-0.047 0.195,-0.082 0.302,-0.106c0.108,-0.025 0.225,-0.037 0.352,-0.037c0.205,0 0.387,0.035 0.546,0.104c0.158,0.07 0.291,0.168 0.397,0.293c0.106,0.126 0.187,0.276 0.242,0.451c0.055,0.174 0.082,0.367 0.082,0.577l0,2.391l-0.905,0l0,-2.391c0,-0.23 -0.053,-0.408 -0.159,-0.533c-0.106,-0.126 -0.265,-0.189 -0.478,-0.189c-0.156,0 -0.303,0.036 -0.439,0.106c-0.137,0.071 -0.267,0.168 -0.389,0.29l0,2.717l-0.904,0l0,0Z" style="fill:#333;fill-rule:nonzero;"/><path d="M135.855,118.291c-0.324,0 -0.575,-0.092 -0.751,-0.277c-0.175,-0.184 -0.263,-0.439 -0.263,-0.763l0,-2.099l-0.381,0c-0.049,0 -0.091,-0.016 -0.126,-0.048c-0.036,-0.031 -0.054,-0.079 -0.054,-0.142l0,-0.359l0.605,-0.099l0.19,-1.026c0.01,-0.049 0.033,-0.086 0.068,-0.113c0.035,-0.027 0.08,-0.041 0.134,-0.041l0.468,0l0,1.183l0.989,0l0,0.645l-0.989,0l0,2.036c0,0.118 0.03,0.209 0.088,0.275c0.059,0.066 0.137,0.099 0.235,0.099c0.056,0 0.103,-0.007 0.141,-0.02c0.038,-0.014 0.07,-0.028 0.099,-0.042c0.028,-0.015 0.053,-0.029 0.075,-0.042c0.022,-0.014 0.044,-0.021 0.066,-0.021c0.026,0 0.048,0.007 0.066,0.021c0.017,0.013 0.035,0.033 0.054,0.06l0.271,0.44c-0.131,0.109 -0.283,0.192 -0.454,0.249c-0.171,0.056 -0.348,0.084 -0.531,0.084l0,0Z" style="fill:#333;fill-rule:nonzero;"/><path d="M139.06,114.416c0.281,0 0.535,0.045 0.764,0.135c0.228,0.091 0.423,0.219 0.584,0.385c0.161,0.166 0.285,0.369 0.373,0.608c0.088,0.239 0.132,0.507 0.132,0.802c0,0.298 -0.044,0.567 -0.132,0.806c-0.088,0.239 -0.212,0.443 -0.373,0.611c-0.161,0.169 -0.356,0.298 -0.584,0.389c-0.229,0.09 -0.483,0.135 -0.764,0.135c-0.281,0 -0.536,-0.045 -0.766,-0.135c-0.229,-0.091 -0.425,-0.22 -0.587,-0.389c-0.163,-0.168 -0.288,-0.372 -0.378,-0.611c-0.089,-0.239 -0.133,-0.508 -0.133,-0.806c0,-0.295 0.044,-0.563 0.133,-0.802c0.09,-0.239 0.215,-0.442 0.378,-0.608c0.162,-0.166 0.358,-0.294 0.587,-0.385c0.23,-0.09 0.485,-0.135 0.766,-0.135Zm0,3.175c0.312,0 0.544,-0.105 0.694,-0.315c0.15,-0.21 0.225,-0.517 0.225,-0.923c0,-0.405 -0.075,-0.714 -0.225,-0.926c-0.15,-0.213 -0.382,-0.319 -0.694,-0.319c-0.317,0 -0.552,0.107 -0.703,0.321c-0.152,0.213 -0.227,0.521 -0.227,0.924c0,0.403 0.075,0.71 0.227,0.921c0.151,0.212 0.386,0.317 0.703,0.317Z" style="fill:#333;fill-rule:nonzero;"/><path d="M145.978,118.232l-0.406,0c-0.086,0 -0.153,-0.013 -0.202,-0.038c-0.048,-0.026 -0.085,-0.078 -0.11,-0.156l-0.08,-0.267c-0.095,0.085 -0.189,0.16 -0.28,0.225c-0.092,0.065 -0.186,0.119 -0.284,0.163c-0.098,0.044 -0.202,0.077 -0.311,0.099c-0.11,0.022 -0.232,0.033 -0.367,0.033c-0.158,0 -0.305,-0.022 -0.439,-0.065c-0.134,-0.043 -0.25,-0.107 -0.346,-0.193c-0.097,-0.085 -0.172,-0.192 -0.225,-0.319c-0.054,-0.128 -0.081,-0.276 -0.081,-0.445c0,-0.142 0.037,-0.282 0.112,-0.421c0.074,-0.138 0.198,-0.263 0.371,-0.374c0.174,-0.112 0.404,-0.204 0.693,-0.278c0.288,-0.073 0.645,-0.11 1.073,-0.11l0,-0.222c0,-0.253 -0.053,-0.44 -0.16,-0.562c-0.106,-0.122 -0.26,-0.183 -0.463,-0.183c-0.146,0 -0.269,0.017 -0.366,0.051c-0.098,0.035 -0.183,0.073 -0.255,0.116c-0.072,0.042 -0.138,0.081 -0.199,0.115c-0.061,0.034 -0.129,0.051 -0.202,0.051c-0.061,0 -0.113,-0.015 -0.157,-0.047c-0.044,-0.032 -0.08,-0.071 -0.106,-0.117l-0.165,-0.29c0.432,-0.395 0.953,-0.593 1.564,-0.593c0.219,0 0.415,0.036 0.587,0.108c0.173,0.072 0.318,0.172 0.438,0.3c0.12,0.128 0.211,0.282 0.273,0.46c0.062,0.178 0.093,0.374 0.093,0.586l0,2.373Zm-1.758,-0.564c0.093,0 0.179,-0.008 0.257,-0.025c0.078,-0.017 0.152,-0.042 0.221,-0.076c0.07,-0.034 0.137,-0.075 0.202,-0.124c0.064,-0.049 0.13,-0.108 0.196,-0.175l0,-0.629c-0.264,0 -0.484,0.017 -0.661,0.049c-0.177,0.034 -0.32,0.076 -0.427,0.128c-0.107,0.052 -0.184,0.112 -0.229,0.181c-0.045,0.069 -0.068,0.144 -0.068,0.225c0,0.159 0.047,0.274 0.141,0.343c0.094,0.068 0.217,0.103 0.368,0.103Z" style="fill:#333;fill-rule:nonzero;"/><path d="M150.512,115.207c-0.024,0.039 -0.05,0.067 -0.076,0.082c-0.027,0.016 -0.061,0.024 -0.103,0.024c-0.044,0 -0.091,-0.012 -0.141,-0.036c-0.05,-0.025 -0.108,-0.052 -0.174,-0.083c-0.066,-0.03 -0.141,-0.058 -0.225,-0.082c-0.084,-0.025 -0.184,-0.037 -0.299,-0.037c-0.178,0 -0.318,0.038 -0.421,0.114c-0.102,0.075 -0.154,0.174 -0.154,0.296c0,0.081 0.027,0.149 0.079,0.204c0.053,0.055 0.122,0.103 0.209,0.144c0.086,0.042 0.185,0.079 0.295,0.112c0.11,0.033 0.222,0.069 0.337,0.108c0.114,0.039 0.227,0.084 0.337,0.134c0.109,0.05 0.208,0.113 0.294,0.19c0.087,0.077 0.157,0.169 0.209,0.277c0.053,0.107 0.079,0.237 0.079,0.388c0,0.181 -0.033,0.347 -0.099,0.5c-0.066,0.152 -0.162,0.284 -0.289,0.395c-0.127,0.111 -0.284,0.198 -0.471,0.26c-0.187,0.063 -0.401,0.094 -0.643,0.094c-0.129,0 -0.256,-0.012 -0.379,-0.035c-0.123,-0.023 -0.242,-0.056 -0.355,-0.097c-0.114,-0.042 -0.219,-0.09 -0.315,-0.147c-0.096,-0.056 -0.181,-0.117 -0.255,-0.183l0.209,-0.344c0.027,-0.041 0.059,-0.073 0.095,-0.095c0.037,-0.022 0.083,-0.033 0.14,-0.033c0.056,0 0.109,0.016 0.159,0.047c0.05,0.032 0.108,0.066 0.174,0.103c0.066,0.037 0.143,0.071 0.232,0.103c0.09,0.031 0.202,0.047 0.339,0.047c0.108,0 0.2,-0.013 0.277,-0.038c0.077,-0.026 0.14,-0.059 0.19,-0.101c0.05,-0.041 0.087,-0.09 0.11,-0.145c0.023,-0.055 0.035,-0.111 0.035,-0.17c0,-0.088 -0.026,-0.16 -0.079,-0.216c-0.052,-0.056 -0.122,-0.105 -0.209,-0.147c-0.086,-0.041 -0.185,-0.078 -0.296,-0.111c-0.111,-0.033 -0.225,-0.069 -0.341,-0.108c-0.116,-0.039 -0.229,-0.085 -0.341,-0.138c-0.111,-0.052 -0.21,-0.119 -0.296,-0.199c-0.087,-0.081 -0.156,-0.18 -0.209,-0.297c-0.052,-0.117 -0.079,-0.259 -0.079,-0.425c0,-0.154 0.031,-0.3 0.092,-0.439c0.061,-0.139 0.151,-0.261 0.269,-0.365c0.118,-0.103 0.266,-0.186 0.443,-0.249c0.177,-0.062 0.382,-0.093 0.614,-0.093c0.258,0 0.494,0.043 0.707,0.128c0.212,0.086 0.389,0.198 0.531,0.337l-0.206,0.326l0,0Z" style="fill:#333;fill-rule:nonzero;"/><path d="M152.717,118.291c-0.324,0 -0.575,-0.092 -0.751,-0.277c-0.175,-0.184 -0.263,-0.439 -0.263,-0.763l0,-2.099l-0.381,0c-0.049,0 -0.091,-0.016 -0.126,-0.048c-0.036,-0.031 -0.054,-0.079 -0.054,-0.142l0,-0.359l0.605,-0.099l0.19,-1.026c0.01,-0.049 0.033,-0.086 0.068,-0.113c0.035,-0.027 0.08,-0.041 0.134,-0.041l0.468,0l0,1.183l0.989,0l0,0.645l-0.989,0l0,2.036c0,0.118 0.03,0.209 0.088,0.275c0.059,0.066 0.137,0.099 0.235,0.099c0.056,0 0.103,-0.007 0.141,-0.02c0.038,-0.014 0.071,-0.028 0.099,-0.042c0.028,-0.015 0.053,-0.029 0.075,-0.042c0.022,-0.014 0.044,-0.021 0.066,-0.021c0.026,0 0.048,0.007 0.066,0.021c0.017,0.013 0.035,0.033 0.054,0.06l0.272,0.44c-0.132,0.109 -0.284,0.192 -0.455,0.249c-0.171,0.056 -0.348,0.084 -0.531,0.084l0,0Z" style="fill:#333;fill-rule:nonzero;"/><path d="M155.871,114.416c0.237,0 0.454,0.038 0.653,0.113c0.199,0.076 0.371,0.187 0.515,0.332c0.144,0.145 0.256,0.323 0.337,0.535c0.081,0.211 0.121,0.452 0.121,0.723c0,0.068 -0.003,0.125 -0.009,0.17c-0.006,0.045 -0.017,0.081 -0.033,0.106c-0.016,0.026 -0.038,0.044 -0.064,0.055c-0.027,0.011 -0.061,0.017 -0.103,0.017l-2.322,0c0.027,0.386 0.131,0.669 0.311,0.85c0.181,0.18 0.42,0.271 0.718,0.271c0.147,0 0.273,-0.017 0.379,-0.052c0.106,-0.034 0.199,-0.072 0.279,-0.113c0.079,-0.042 0.149,-0.08 0.208,-0.114c0.06,-0.034 0.118,-0.051 0.174,-0.051c0.037,0 0.069,0.007 0.096,0.022c0.026,0.015 0.05,0.035 0.069,0.062l0.264,0.33c-0.1,0.117 -0.213,0.215 -0.337,0.295c-0.125,0.079 -0.255,0.143 -0.39,0.19c-0.136,0.048 -0.274,0.081 -0.414,0.101c-0.14,0.019 -0.277,0.029 -0.408,0.029c-0.262,0 -0.505,-0.043 -0.729,-0.13c-0.225,-0.087 -0.42,-0.215 -0.586,-0.384c-0.166,-0.17 -0.297,-0.38 -0.392,-0.63c-0.095,-0.251 -0.143,-0.541 -0.143,-0.87c0,-0.257 0.042,-0.498 0.125,-0.724c0.083,-0.225 0.202,-0.422 0.357,-0.589c0.155,-0.167 0.344,-0.3 0.567,-0.398c0.224,-0.097 0.476,-0.146 0.757,-0.146l0,0Zm0.018,0.648c-0.264,0 -0.47,0.075 -0.619,0.224c-0.149,0.149 -0.244,0.36 -0.286,0.633l1.7,0c0,-0.117 -0.016,-0.227 -0.048,-0.331c-0.032,-0.104 -0.08,-0.195 -0.146,-0.273c-0.066,-0.078 -0.149,-0.14 -0.249,-0.185c-0.101,-0.045 -0.218,-0.068 -0.352,-0.068l0,0Z" style="fill:#333;fill-rule:nonzero;"/><path d="M158.233,119.459l0,-4.984l0.553,0c0.059,0 0.109,0.013 0.15,0.04c0.042,0.027 0.069,0.068 0.081,0.124l0.073,0.348c0.151,-0.173 0.325,-0.313 0.522,-0.421c0.196,-0.107 0.427,-0.161 0.69,-0.161c0.205,0 0.393,0.043 0.562,0.128c0.17,0.086 0.317,0.209 0.44,0.372c0.123,0.162 0.219,0.362 0.286,0.601c0.067,0.238 0.1,0.51 0.1,0.818c0,0.281 -0.037,0.541 -0.113,0.78c-0.076,0.239 -0.184,0.447 -0.324,0.623c-0.141,0.176 -0.31,0.313 -0.509,0.412c-0.199,0.099 -0.422,0.148 -0.669,0.148c-0.212,0 -0.392,-0.032 -0.54,-0.097c-0.148,-0.065 -0.28,-0.154 -0.397,-0.269l0,1.538l-0.905,0l0,0Zm1.758,-4.34c-0.188,0 -0.349,0.04 -0.482,0.119c-0.133,0.079 -0.257,0.191 -0.371,0.335l0,1.685c0.102,0.127 0.214,0.215 0.335,0.266c0.121,0.05 0.251,0.075 0.39,0.075c0.137,0 0.26,-0.026 0.372,-0.077c0.111,-0.052 0.205,-0.13 0.282,-0.235c0.076,-0.105 0.136,-0.237 0.177,-0.397c0.042,-0.16 0.062,-0.349 0.062,-0.566c0,-0.22 -0.017,-0.406 -0.053,-0.558c-0.035,-0.153 -0.086,-0.277 -0.152,-0.372c-0.066,-0.095 -0.146,-0.165 -0.24,-0.209c-0.094,-0.044 -0.2,-0.066 -0.32,-0.066l0,0Z" style="fill:#333;fill-rule:nonzero;"/><rect x="162.258" y="115.643" width="1.897" height="0.754" style="fill:#333;"/><path d="M165.016,118.232l0,-5.442l0.905,0l0,2.146c0.148,-0.159 0.317,-0.285 0.505,-0.379c0.188,-0.094 0.408,-0.141 0.659,-0.141c0.205,0 0.393,0.042 0.562,0.126c0.17,0.085 0.317,0.207 0.44,0.368c0.123,0.162 0.218,0.36 0.286,0.597c0.067,0.237 0.1,0.509 0.1,0.817c0,0.281 -0.038,0.541 -0.113,0.78c-0.076,0.239 -0.184,0.447 -0.324,0.623c-0.141,0.176 -0.31,0.313 -0.509,0.412c-0.199,0.099 -0.422,0.148 -0.669,0.148c-0.115,0 -0.22,-0.011 -0.315,-0.035c-0.095,-0.023 -0.182,-0.055 -0.26,-0.097c-0.078,-0.041 -0.151,-0.092 -0.218,-0.152c-0.067,-0.06 -0.131,-0.126 -0.192,-0.199l-0.04,0.252c-0.015,0.064 -0.04,0.109 -0.075,0.136c-0.036,0.027 -0.084,0.04 -0.145,0.04l-0.597,0l0,0Zm1.758,-3.113c-0.188,0 -0.349,0.04 -0.482,0.119c-0.133,0.079 -0.257,0.191 -0.371,0.335l0,1.685c0.102,0.127 0.214,0.215 0.335,0.266c0.121,0.05 0.252,0.075 0.393,0.075c0.137,0 0.26,-0.026 0.37,-0.077c0.11,-0.052 0.204,-0.13 0.28,-0.235c0.077,-0.105 0.137,-0.237 0.178,-0.397c0.042,-0.16 0.062,-0.349 0.062,-0.566c0,-0.22 -0.017,-0.406 -0.053,-0.558c-0.035,-0.153 -0.086,-0.277 -0.152,-0.372c-0.066,-0.095 -0.146,-0.165 -0.24,-0.209c-0.094,-0.044 -0.2,-0.066 -0.32,-0.066l0,0Z" style="fill:#333;fill-rule:nonzero;"/><path d="M170.392,119.265c-0.026,0.064 -0.061,0.112 -0.104,0.145c-0.043,0.033 -0.108,0.049 -0.196,0.049l-0.674,0l0.703,-1.505l-1.52,-3.479l0.792,0c0.073,0 0.129,0.017 0.168,0.051c0.039,0.034 0.068,0.073 0.088,0.117l0.802,1.948c0.027,0.064 0.05,0.13 0.07,0.198c0.019,0.069 0.036,0.137 0.051,0.205c0.019,-0.071 0.041,-0.139 0.064,-0.205c0.023,-0.066 0.048,-0.133 0.075,-0.201l0.755,-1.945c0.019,-0.049 0.051,-0.089 0.097,-0.121c0.045,-0.032 0.095,-0.047 0.152,-0.047l0.725,0l-2.048,4.79l0,0Z" style="fill:#333;fill-rule:nonzero;"/><rect x="172.85" y="115.643" width="1.897" height="0.754" style="fill:#333;"/><path d="M177.827,115.207c-0.024,0.039 -0.05,0.067 -0.077,0.082c-0.027,0.016 -0.061,0.024 -0.102,0.024c-0.044,0 -0.091,-0.012 -0.141,-0.036c-0.05,-0.025 -0.108,-0.052 -0.174,-0.083c-0.066,-0.03 -0.141,-0.058 -0.225,-0.082c-0.085,-0.025 -0.184,-0.037 -0.299,-0.037c-0.178,0 -0.319,0.038 -0.421,0.114c-0.103,0.075 -0.154,0.174 -0.154,0.296c0,0.081 0.026,0.149 0.079,0.204c0.052,0.055 0.122,0.103 0.209,0.144c0.086,0.042 0.185,0.079 0.294,0.112c0.11,0.033 0.223,0.069 0.337,0.108c0.115,0.039 0.227,0.084 0.337,0.134c0.11,0.05 0.208,0.113 0.295,0.19c0.087,0.077 0.156,0.169 0.209,0.277c0.052,0.107 0.079,0.237 0.079,0.388c0,0.181 -0.033,0.347 -0.099,0.5c-0.066,0.152 -0.163,0.284 -0.29,0.395c-0.127,0.111 -0.283,0.198 -0.47,0.26c-0.187,0.063 -0.401,0.094 -0.643,0.094c-0.129,0 -0.256,-0.012 -0.379,-0.035c-0.123,-0.023 -0.242,-0.056 -0.355,-0.097c-0.114,-0.042 -0.219,-0.09 -0.315,-0.147c-0.097,-0.056 -0.182,-0.117 -0.255,-0.183l0.209,-0.344c0.027,-0.041 0.059,-0.073 0.095,-0.095c0.037,-0.022 0.083,-0.033 0.139,-0.033c0.056,0 0.11,0.016 0.16,0.047c0.05,0.032 0.108,0.066 0.174,0.103c0.066,0.037 0.143,0.071 0.232,0.103c0.089,0.031 0.202,0.047 0.339,0.047c0.107,0 0.2,-0.013 0.276,-0.038c0.077,-0.026 0.141,-0.059 0.191,-0.101c0.05,-0.041 0.087,-0.09 0.11,-0.145c0.023,-0.055 0.035,-0.111 0.035,-0.17c0,-0.088 -0.027,-0.16 -0.079,-0.216c-0.053,-0.056 -0.122,-0.105 -0.209,-0.147c-0.087,-0.041 -0.185,-0.078 -0.297,-0.111c-0.111,-0.033 -0.224,-0.069 -0.34,-0.108c-0.116,-0.039 -0.23,-0.085 -0.341,-0.138c-0.111,-0.052 -0.21,-0.119 -0.296,-0.199c-0.087,-0.081 -0.157,-0.18 -0.209,-0.297c-0.053,-0.117 -0.079,-0.259 -0.079,-0.425c0,-0.154 0.031,-0.3 0.092,-0.439c0.061,-0.139 0.15,-0.261 0.269,-0.365c0.118,-0.103 0.266,-0.186 0.443,-0.249c0.177,-0.062 0.381,-0.093 0.613,-0.093c0.259,0 0.495,0.043 0.707,0.128c0.213,0.086 0.39,0.198 0.531,0.337l-0.205,0.326l0,0Z" style="fill:#333;fill-rule:nonzero;"/><path d="M180.032,118.291c-0.325,0 -0.575,-0.092 -0.751,-0.277c-0.176,-0.184 -0.263,-0.439 -0.263,-0.763l0,-2.099l-0.381,0c-0.049,0 -0.091,-0.016 -0.127,-0.048c-0.035,-0.031 -0.053,-0.079 -0.053,-0.142l0,-0.359l0.604,-0.099l0.191,-1.026c0.01,-0.049 0.032,-0.086 0.068,-0.113c0.035,-0.027 0.08,-0.041 0.133,-0.041l0.469,0l0,1.183l0.989,0l0,0.645l-0.989,0l0,2.036c0,0.118 0.029,0.209 0.088,0.275c0.059,0.066 0.137,0.099 0.234,0.099c0.057,0 0.104,-0.007 0.141,-0.02c0.038,-0.014 0.071,-0.028 0.099,-0.042c0.028,-0.015 0.053,-0.029 0.075,-0.042c0.022,-0.014 0.044,-0.021 0.066,-0.021c0.027,0 0.049,0.007 0.066,0.021c0.017,0.013 0.036,0.033 0.055,0.06l0.271,0.44c-0.132,0.109 -0.283,0.192 -0.454,0.249c-0.171,0.056 -0.348,0.084 -0.531,0.084Z" style="fill:#333;fill-rule:nonzero;"/><path d="M183.185,114.416c0.237,0 0.455,0.038 0.654,0.113c0.199,0.076 0.371,0.187 0.515,0.332c0.144,0.145 0.256,0.323 0.337,0.535c0.08,0.211 0.121,0.452 0.121,0.723c0,0.068 -0.003,0.125 -0.01,0.17c-0.006,0.045 -0.017,0.081 -0.033,0.106c-0.015,0.026 -0.037,0.044 -0.064,0.055c-0.026,0.011 -0.061,0.017 -0.102,0.017l-2.322,0c0.027,0.386 0.13,0.669 0.311,0.85c0.181,0.18 0.42,0.271 0.718,0.271c0.146,0 0.273,-0.017 0.379,-0.052c0.106,-0.034 0.199,-0.072 0.278,-0.113c0.08,-0.042 0.149,-0.08 0.209,-0.114c0.06,-0.034 0.118,-0.051 0.174,-0.051c0.037,0 0.068,0.007 0.095,0.022c0.027,0.015 0.05,0.035 0.07,0.062l0.264,0.33c-0.1,0.117 -0.213,0.215 -0.337,0.295c-0.125,0.079 -0.255,0.143 -0.39,0.19c-0.136,0.048 -0.274,0.081 -0.414,0.101c-0.141,0.019 -0.277,0.029 -0.409,0.029c-0.261,0 -0.504,-0.043 -0.728,-0.13c-0.225,-0.087 -0.42,-0.215 -0.586,-0.384c-0.166,-0.17 -0.297,-0.38 -0.392,-0.63c-0.096,-0.251 -0.143,-0.541 -0.143,-0.87c0,-0.257 0.041,-0.498 0.124,-0.724c0.083,-0.225 0.202,-0.422 0.357,-0.589c0.156,-0.167 0.345,-0.3 0.568,-0.398c0.224,-0.097 0.476,-0.146 0.756,-0.146l0,0Zm0.019,0.648c-0.264,0 -0.47,0.075 -0.619,0.224c-0.149,0.149 -0.244,0.36 -0.286,0.633l1.7,0c0,-0.117 -0.016,-0.227 -0.048,-0.331c-0.032,-0.104 -0.081,-0.195 -0.147,-0.273c-0.066,-0.078 -0.149,-0.14 -0.249,-0.185c-0.1,-0.045 -0.217,-0.068 -0.351,-0.068l0,0Z" style="fill:#333;fill-rule:nonzero;"/><path d="M185.548,119.459l0,-4.984l0.553,0c0.058,0 0.108,0.013 0.15,0.04c0.041,0.027 0.068,0.068 0.081,0.124l0.073,0.348c0.151,-0.173 0.325,-0.313 0.522,-0.421c0.196,-0.107 0.426,-0.161 0.69,-0.161c0.205,0 0.393,0.043 0.562,0.128c0.17,0.086 0.316,0.209 0.44,0.372c0.123,0.162 0.218,0.362 0.285,0.601c0.068,0.238 0.101,0.51 0.101,0.818c0,0.281 -0.038,0.541 -0.113,0.78c-0.076,0.239 -0.184,0.447 -0.325,0.623c-0.14,0.176 -0.31,0.313 -0.509,0.412c-0.199,0.099 -0.421,0.148 -0.668,0.148c-0.212,0 -0.393,-0.032 -0.54,-0.097c-0.148,-0.065 -0.28,-0.154 -0.398,-0.269l0,1.538l-0.904,0l0,0Zm1.758,-4.34c-0.188,0 -0.349,0.04 -0.482,0.119c-0.133,0.079 -0.257,0.191 -0.372,0.335l0,1.685c0.103,0.127 0.215,0.215 0.335,0.266c0.121,0.05 0.251,0.075 0.391,0.075c0.136,0 0.26,-0.026 0.371,-0.077c0.111,-0.052 0.205,-0.13 0.282,-0.235c0.077,-0.105 0.136,-0.237 0.178,-0.397c0.041,-0.16 0.062,-0.349 0.062,-0.566c0,-0.22 -0.018,-0.406 -0.053,-0.558c-0.035,-0.153 -0.086,-0.277 -0.152,-0.372c-0.066,-0.095 -0.146,-0.165 -0.24,-0.209c-0.094,-0.044 -0.201,-0.066 -0.32,-0.066l0,0Z" style="fill:#333;fill-rule:nonzero;"/><path d="M22.98,125.557l0,-3.076l-0.326,-0.052c-0.071,-0.012 -0.128,-0.036 -0.171,-0.073c-0.042,-0.036 -0.064,-0.088 -0.064,-0.154l0,-0.37l0.561,0l0,-0.278c0,-0.215 0.032,-0.408 0.097,-0.579c0.064,-0.171 0.157,-0.316 0.278,-0.435c0.121,-0.12 0.268,-0.212 0.441,-0.275c0.174,-0.064 0.369,-0.095 0.586,-0.095c0.174,0 0.335,0.023 0.484,0.069l-0.019,0.454c-0.004,0.071 -0.037,0.115 -0.098,0.132c-0.062,0.017 -0.132,0.026 -0.213,0.026c-0.107,0 -0.203,0.011 -0.287,0.035c-0.085,0.023 -0.156,0.063 -0.215,0.121c-0.058,0.057 -0.103,0.133 -0.133,0.227c-0.031,0.094 -0.046,0.21 -0.046,0.349l0,0.249l0.978,0l0,0.645l-0.949,0l0,3.08l-0.904,0l0,0Z" style="fill:#333;fill-rule:nonzero;"/><path d="M26.99,121.741c0.281,0 0.535,0.045 0.764,0.135c0.228,0.091 0.423,0.219 0.584,0.385c0.161,0.166 0.285,0.369 0.373,0.608c0.088,0.239 0.132,0.507 0.132,0.802c0,0.298 -0.044,0.566 -0.132,0.806c-0.088,0.239 -0.212,0.443 -0.373,0.611c-0.161,0.169 -0.356,0.298 -0.584,0.389c-0.229,0.09 -0.483,0.135 -0.764,0.135c-0.281,0 -0.536,-0.045 -0.765,-0.135c-0.23,-0.091 -0.426,-0.22 -0.588,-0.389c-0.163,-0.168 -0.288,-0.372 -0.378,-0.611c-0.089,-0.24 -0.133,-0.508 -0.133,-0.806c0,-0.295 0.044,-0.563 0.133,-0.802c0.09,-0.239 0.215,-0.442 0.378,-0.608c0.162,-0.166 0.358,-0.294 0.588,-0.385c0.229,-0.09 0.484,-0.135 0.765,-0.135Zm0,3.175c0.313,0 0.544,-0.105 0.694,-0.315c0.15,-0.21 0.225,-0.517 0.225,-0.923c0,-0.405 -0.075,-0.714 -0.225,-0.926c-0.15,-0.213 -0.381,-0.319 -0.694,-0.319c-0.317,0 -0.552,0.107 -0.703,0.321c-0.152,0.213 -0.227,0.521 -0.227,0.924c0,0.403 0.075,0.71 0.227,0.921c0.151,0.212 0.386,0.317 0.703,0.317Z" style="fill:#333;fill-rule:nonzero;"/><path d="M29.55,125.557l0,-3.758l0.531,0c0.093,0 0.158,0.018 0.194,0.052c0.037,0.034 0.061,0.093 0.073,0.176l0.055,0.454c0.135,-0.232 0.292,-0.415 0.473,-0.55c0.181,-0.134 0.383,-0.201 0.608,-0.201c0.185,0 0.339,0.043 0.461,0.128l-0.117,0.678c-0.007,0.044 -0.023,0.075 -0.048,0.093c-0.024,0.018 -0.057,0.027 -0.098,0.027c-0.037,0 -0.087,-0.008 -0.151,-0.025c-0.063,-0.017 -0.147,-0.026 -0.252,-0.026c-0.188,0 -0.349,0.052 -0.484,0.156c-0.134,0.104 -0.248,0.256 -0.34,0.456l0,2.34l-0.905,0Z" style="fill:#333;fill-rule:nonzero;"/><path d="M32.542,125.557l0,-3.758l0.553,0c0.118,0 0.194,0.055 0.231,0.165l0.059,0.279c0.066,-0.074 0.135,-0.141 0.207,-0.202c0.072,-0.061 0.149,-0.113 0.23,-0.157c0.082,-0.044 0.17,-0.079 0.264,-0.105c0.094,-0.025 0.197,-0.038 0.31,-0.038c0.236,0 0.431,0.064 0.584,0.192c0.152,0.128 0.266,0.299 0.342,0.511c0.059,-0.124 0.132,-0.231 0.22,-0.32c0.088,-0.09 0.184,-0.162 0.289,-0.218c0.105,-0.056 0.217,-0.098 0.335,-0.125c0.119,-0.027 0.238,-0.04 0.357,-0.04c0.208,0 0.392,0.032 0.553,0.095c0.162,0.064 0.297,0.156 0.407,0.278c0.11,0.123 0.193,0.271 0.251,0.447c0.057,0.176 0.086,0.378 0.086,0.605l0,2.391l-0.905,0l0,-2.391c0,-0.24 -0.052,-0.42 -0.157,-0.541c-0.105,-0.121 -0.259,-0.181 -0.462,-0.181c-0.092,0 -0.179,0.016 -0.258,0.048c-0.079,0.031 -0.149,0.077 -0.209,0.137c-0.059,0.06 -0.106,0.135 -0.141,0.225c-0.034,0.091 -0.051,0.194 -0.051,0.312l0,2.391l-0.908,0l0,-2.391c0,-0.252 -0.051,-0.435 -0.152,-0.55c-0.102,-0.115 -0.251,-0.172 -0.449,-0.172c-0.129,0 -0.251,0.032 -0.364,0.097c-0.114,0.065 -0.219,0.153 -0.317,0.266l0,2.75l-0.905,0l0,0Z" style="fill:#333;fill-rule:nonzero;"/><path d="M39.666,121.799l0.718,0c0.068,0 0.125,0.016 0.172,0.048c0.046,0.032 0.075,0.072 0.088,0.121l0.538,2.007c0.029,0.11 0.053,0.217 0.071,0.322c0.019,0.105 0.037,0.21 0.054,0.315c0.026,-0.105 0.055,-0.21 0.086,-0.315c0.03,-0.105 0.063,-0.212 0.097,-0.322l0.622,-2.014c0.015,-0.049 0.044,-0.09 0.088,-0.121c0.044,-0.032 0.095,-0.048 0.154,-0.048l0.399,0c0.066,0 0.121,0.016 0.165,0.048c0.044,0.031 0.073,0.072 0.088,0.121l0.615,2.051c0.032,0.105 0.061,0.207 0.086,0.305c0.026,0.099 0.051,0.199 0.075,0.299c0.018,-0.105 0.036,-0.21 0.057,-0.315c0.021,-0.105 0.047,-0.214 0.079,-0.326l0.557,-2.007c0.012,-0.049 0.041,-0.089 0.088,-0.121c0.046,-0.032 0.1,-0.048 0.161,-0.048l0.685,0l-1.191,3.758l-0.729,0c-0.078,0 -0.134,-0.054 -0.168,-0.161l-0.678,-2.172c-0.022,-0.071 -0.042,-0.142 -0.06,-0.214c-0.018,-0.072 -0.034,-0.144 -0.046,-0.214c-0.014,0.073 -0.03,0.146 -0.047,0.218c-0.018,0.072 -0.037,0.144 -0.059,0.217l-0.685,2.165c-0.034,0.107 -0.1,0.161 -0.198,0.161l-0.692,0l-1.19,-3.758l0,0Z" style="fill:#333;fill-rule:nonzero;"/><path d="M46.881,121.799l0,3.758l-0.905,0l0,-3.758l0.905,0Zm0.135,-1.095c0,0.079 -0.015,0.152 -0.047,0.22c-0.032,0.069 -0.074,0.128 -0.127,0.18c-0.052,0.051 -0.114,0.092 -0.185,0.122c-0.07,0.031 -0.146,0.046 -0.227,0.046c-0.078,0 -0.152,-0.015 -0.221,-0.046c-0.07,-0.03 -0.13,-0.071 -0.181,-0.122c-0.052,-0.052 -0.093,-0.111 -0.123,-0.18c-0.031,-0.068 -0.046,-0.141 -0.046,-0.22c0,-0.08 0.015,-0.156 0.046,-0.227c0.03,-0.07 0.071,-0.132 0.123,-0.183c0.051,-0.051 0.111,-0.092 0.181,-0.123c0.069,-0.03 0.143,-0.045 0.221,-0.045c0.081,0 0.157,0.015 0.227,0.045c0.071,0.031 0.133,0.072 0.185,0.123c0.053,0.051 0.095,0.113 0.127,0.183c0.032,0.071 0.047,0.147 0.047,0.227Z" style="fill:#333;fill-rule:nonzero;"/><path d="M50.62,122.173c0,0.064 -0.011,0.125 -0.035,0.185c-0.023,0.06 -0.05,0.11 -0.082,0.152l-1.787,2.351l1.853,0l0,0.696l-2.904,0l0,-0.377c0,-0.042 0.009,-0.091 0.029,-0.148c0.019,-0.058 0.05,-0.112 0.092,-0.163l1.801,-2.377l-1.816,0l0,-0.693l2.849,0l0,0.374Z" style="fill:#333;fill-rule:nonzero;"/><path d="M54.286,125.557l-0.406,0c-0.086,0 -0.153,-0.013 -0.202,-0.038c-0.048,-0.026 -0.085,-0.078 -0.109,-0.156l-0.081,-0.267c-0.095,0.085 -0.189,0.16 -0.28,0.225c-0.092,0.065 -0.186,0.119 -0.284,0.163c-0.098,0.044 -0.201,0.077 -0.311,0.099c-0.11,0.022 -0.232,0.033 -0.367,0.033c-0.158,0 -0.305,-0.022 -0.439,-0.065c-0.134,-0.043 -0.25,-0.107 -0.346,-0.193c-0.097,-0.085 -0.172,-0.192 -0.225,-0.319c-0.054,-0.128 -0.081,-0.276 -0.081,-0.445c0,-0.142 0.037,-0.282 0.112,-0.421c0.074,-0.138 0.198,-0.263 0.371,-0.374c0.174,-0.112 0.405,-0.204 0.693,-0.278c0.288,-0.073 0.645,-0.11 1.073,-0.11l0,-0.222c0,-0.253 -0.053,-0.44 -0.16,-0.562c-0.106,-0.122 -0.26,-0.183 -0.463,-0.183c-0.146,0 -0.268,0.017 -0.366,0.051c-0.098,0.035 -0.183,0.073 -0.255,0.116c-0.072,0.042 -0.138,0.081 -0.199,0.115c-0.061,0.034 -0.128,0.051 -0.202,0.051c-0.061,0 -0.113,-0.016 -0.157,-0.047c-0.044,-0.032 -0.08,-0.071 -0.106,-0.117l-0.165,-0.29c0.432,-0.395 0.953,-0.593 1.564,-0.593c0.219,0 0.415,0.036 0.587,0.108c0.173,0.072 0.319,0.172 0.438,0.3c0.12,0.128 0.211,0.282 0.273,0.46c0.062,0.178 0.093,0.373 0.093,0.586l0,2.373Zm-1.758,-0.564c0.093,0 0.179,-0.008 0.257,-0.025c0.078,-0.017 0.152,-0.042 0.221,-0.076c0.07,-0.034 0.137,-0.075 0.202,-0.124c0.065,-0.05 0.13,-0.108 0.196,-0.175l0,-0.629c-0.264,0 -0.484,0.016 -0.661,0.049c-0.177,0.034 -0.32,0.076 -0.427,0.128c-0.107,0.052 -0.184,0.112 -0.229,0.181c-0.045,0.069 -0.068,0.144 -0.068,0.225c0,0.159 0.047,0.274 0.141,0.343c0.094,0.068 0.217,0.103 0.368,0.103Z" style="fill:#333;fill-rule:nonzero;"/><path d="M55.176,125.557l0,-3.758l0.531,0c0.093,0 0.158,0.018 0.195,0.052c0.036,0.034 0.061,0.093 0.073,0.176l0.055,0.454c0.134,-0.232 0.292,-0.415 0.472,-0.55c0.181,-0.134 0.384,-0.201 0.608,-0.201c0.186,0 0.34,0.043 0.462,0.128l-0.118,0.678c-0.007,0.044 -0.023,0.075 -0.047,0.093c-0.025,0.018 -0.058,0.027 -0.099,0.027c-0.037,0 -0.087,-0.008 -0.15,-0.025c-0.064,-0.017 -0.148,-0.026 -0.253,-0.026c-0.188,0 -0.349,0.052 -0.483,0.156c-0.135,0.104 -0.248,0.256 -0.341,0.456l0,2.34l-0.905,0Z" style="fill:#333;fill-rule:nonzero;"/><path d="M60.813,125.557c-0.117,0 -0.194,-0.055 -0.231,-0.165l-0.073,-0.362c-0.078,0.088 -0.16,0.167 -0.245,0.238c-0.086,0.071 -0.178,0.132 -0.277,0.183c-0.099,0.051 -0.205,0.091 -0.319,0.119c-0.113,0.028 -0.236,0.042 -0.368,0.042c-0.205,0 -0.393,-0.043 -0.564,-0.128c-0.171,-0.086 -0.318,-0.209 -0.441,-0.372c-0.123,-0.162 -0.219,-0.363 -0.286,-0.602c-0.067,-0.24 -0.1,-0.513 -0.1,-0.821c0,-0.278 0.037,-0.537 0.113,-0.776c0.076,-0.239 0.184,-0.447 0.326,-0.623c0.142,-0.176 0.311,-0.313 0.509,-0.412c0.198,-0.099 0.42,-0.148 0.667,-0.148c0.21,0 0.389,0.033 0.538,0.101c0.149,0.067 0.282,0.156 0.399,0.269l0,-1.985l0.905,0l0,5.442l-0.553,0l0,0Zm-1.205,-0.663c0.188,0 0.348,-0.039 0.48,-0.117c0.132,-0.078 0.256,-0.189 0.373,-0.333l0,-1.685c-0.102,-0.124 -0.214,-0.212 -0.335,-0.264c-0.121,-0.051 -0.251,-0.077 -0.39,-0.077c-0.137,0 -0.26,0.026 -0.372,0.077c-0.111,0.052 -0.205,0.129 -0.282,0.233c-0.076,0.104 -0.136,0.236 -0.177,0.395c-0.042,0.16 -0.062,0.349 -0.062,0.566c0,0.22 0.017,0.406 0.053,0.559c0.035,0.152 0.086,0.277 0.152,0.373c0.066,0.097 0.146,0.166 0.241,0.209c0.096,0.043 0.202,0.064 0.319,0.064l0,0Z" style="fill:#333;fill-rule:nonzero;"/><path d="M63.3,121.799l0.718,0c0.068,0 0.125,0.016 0.172,0.048c0.046,0.032 0.075,0.072 0.088,0.121l0.538,2.007c0.029,0.11 0.053,0.217 0.071,0.322c0.019,0.105 0.036,0.21 0.054,0.315c0.026,-0.105 0.055,-0.21 0.086,-0.315c0.03,-0.105 0.062,-0.212 0.097,-0.322l0.622,-2.014c0.015,-0.049 0.044,-0.09 0.088,-0.121c0.044,-0.032 0.095,-0.048 0.154,-0.048l0.399,0c0.066,0 0.121,0.016 0.165,0.048c0.044,0.031 0.073,0.072 0.088,0.121l0.615,2.051c0.032,0.105 0.061,0.207 0.086,0.305c0.026,0.099 0.051,0.199 0.075,0.299c0.017,-0.105 0.036,-0.21 0.057,-0.315c0.021,-0.105 0.047,-0.214 0.079,-0.326l0.557,-2.007c0.012,-0.049 0.041,-0.089 0.087,-0.121c0.047,-0.032 0.101,-0.048 0.162,-0.048l0.685,0l-1.191,3.758l-0.729,0c-0.078,0 -0.134,-0.054 -0.168,-0.161l-0.678,-2.172c-0.022,-0.071 -0.042,-0.142 -0.06,-0.214c-0.018,-0.072 -0.034,-0.144 -0.046,-0.214c-0.015,0.073 -0.03,0.146 -0.047,0.218c-0.018,0.072 -0.037,0.144 -0.059,0.217l-0.685,2.165c-0.034,0.107 -0.1,0.161 -0.198,0.161l-0.692,0l-1.19,-3.758l0,0Z" style="fill:#333;fill-rule:nonzero;"/><path d="M70.515,121.799l0,3.758l-0.905,0l0,-3.758l0.905,0Zm0.135,-1.095c0,0.079 -0.016,0.152 -0.047,0.22c-0.032,0.069 -0.074,0.128 -0.127,0.18c-0.052,0.051 -0.114,0.092 -0.185,0.122c-0.07,0.031 -0.146,0.046 -0.227,0.046c-0.078,0 -0.152,-0.015 -0.221,-0.046c-0.07,-0.03 -0.13,-0.071 -0.182,-0.122c-0.051,-0.052 -0.092,-0.111 -0.122,-0.18c-0.031,-0.068 -0.046,-0.141 -0.046,-0.22c0,-0.08 0.015,-0.156 0.046,-0.227c0.03,-0.07 0.071,-0.132 0.122,-0.183c0.052,-0.051 0.112,-0.092 0.182,-0.123c0.069,-0.03 0.143,-0.045 0.221,-0.045c0.081,0 0.157,0.015 0.227,0.045c0.071,0.031 0.133,0.072 0.185,0.123c0.053,0.051 0.095,0.113 0.127,0.183c0.031,0.071 0.047,0.147 0.047,0.227Z" style="fill:#333;fill-rule:nonzero;"/><path d="M72.771,125.616c-0.325,0 -0.575,-0.092 -0.751,-0.277c-0.176,-0.184 -0.264,-0.439 -0.264,-0.763l0,-2.099l-0.38,0c-0.049,0 -0.091,-0.016 -0.127,-0.048c-0.035,-0.031 -0.053,-0.079 -0.053,-0.142l0,-0.359l0.604,-0.099l0.191,-1.026c0.01,-0.049 0.032,-0.086 0.068,-0.113c0.035,-0.027 0.08,-0.041 0.133,-0.041l0.469,0l0,1.183l0.989,0l0,0.645l-0.989,0l0,2.036c0,0.118 0.029,0.209 0.088,0.275c0.059,0.066 0.137,0.099 0.234,0.099c0.057,0 0.104,-0.007 0.141,-0.02c0.038,-0.014 0.071,-0.028 0.099,-0.042c0.028,-0.015 0.053,-0.029 0.075,-0.042c0.022,-0.014 0.044,-0.021 0.066,-0.021c0.027,0 0.049,0.007 0.066,0.021c0.017,0.013 0.036,0.033 0.055,0.06l0.271,0.439c-0.132,0.11 -0.283,0.193 -0.454,0.25c-0.171,0.056 -0.348,0.084 -0.531,0.084l0,0Z" style="fill:#333;fill-rule:nonzero;"/><path d="M74.371,125.557l0,-5.442l0.905,0l0,2.091c0.147,-0.139 0.308,-0.251 0.484,-0.337c0.175,-0.085 0.382,-0.128 0.618,-0.128c0.206,0 0.387,0.035 0.546,0.104c0.159,0.07 0.291,0.168 0.398,0.293c0.106,0.126 0.186,0.276 0.241,0.451c0.055,0.174 0.083,0.367 0.083,0.577l0,2.391l-0.905,0l0,-2.391c0,-0.23 -0.053,-0.408 -0.159,-0.533c-0.106,-0.126 -0.266,-0.189 -0.478,-0.189c-0.156,0 -0.303,0.035 -0.44,0.106c-0.136,0.071 -0.266,0.168 -0.388,0.29l0,2.717l-0.905,0l0,0Z" style="fill:#333;fill-rule:nonzero;"/><path d="M81.832,125.557l-0.82,0l-1.495,-3.758l0.751,0c0.066,0 0.121,0.016 0.167,0.048c0.045,0.032 0.076,0.072 0.093,0.121l0.725,2.007c0.042,0.117 0.077,0.232 0.105,0.344c0.028,0.113 0.053,0.225 0.075,0.337c0.022,-0.112 0.047,-0.224 0.075,-0.337c0.028,-0.112 0.064,-0.227 0.108,-0.344l0.743,-2.007c0.017,-0.049 0.048,-0.089 0.092,-0.121c0.044,-0.032 0.096,-0.048 0.157,-0.048l0.715,0l-1.491,3.758l0,0Z" style="fill:#333;fill-rule:nonzero;"/><path d="M86.802,125.557l-0.407,0c-0.085,0 -0.152,-0.013 -0.201,-0.038c-0.049,-0.026 -0.086,-0.078 -0.11,-0.156l-0.081,-0.267c-0.095,0.085 -0.188,0.16 -0.28,0.225c-0.091,0.065 -0.186,0.119 -0.284,0.163c-0.097,0.044 -0.201,0.077 -0.311,0.099c-0.11,0.022 -0.232,0.033 -0.366,0.033c-0.159,0 -0.305,-0.022 -0.44,-0.065c-0.134,-0.043 -0.249,-0.107 -0.346,-0.193c-0.096,-0.085 -0.171,-0.192 -0.225,-0.319c-0.054,-0.128 -0.081,-0.276 -0.081,-0.445c0,-0.142 0.038,-0.282 0.112,-0.421c0.075,-0.138 0.199,-0.263 0.372,-0.374c0.173,-0.112 0.404,-0.204 0.692,-0.278c0.288,-0.073 0.646,-0.11 1.073,-0.11l0,-0.222c0,-0.253 -0.053,-0.44 -0.159,-0.562c-0.106,-0.122 -0.261,-0.183 -0.463,-0.183c-0.147,0 -0.269,0.017 -0.367,0.051c-0.097,0.035 -0.182,0.073 -0.254,0.116c-0.072,0.042 -0.139,0.081 -0.2,0.115c-0.061,0.034 -0.128,0.051 -0.201,0.051c-0.061,0 -0.114,-0.016 -0.158,-0.047c-0.044,-0.032 -0.079,-0.071 -0.106,-0.117l-0.165,-0.29c0.432,-0.395 0.954,-0.593 1.564,-0.593c0.22,0 0.416,0.036 0.588,0.108c0.172,0.072 0.318,0.172 0.438,0.3c0.119,0.128 0.21,0.282 0.272,0.46c0.063,0.178 0.094,0.373 0.094,0.586l0,2.373Zm-1.758,-0.564c0.093,0 0.178,-0.008 0.256,-0.025c0.078,-0.017 0.152,-0.042 0.222,-0.076c0.069,-0.034 0.137,-0.075 0.201,-0.124c0.065,-0.05 0.13,-0.108 0.196,-0.175l0,-0.629c-0.263,0 -0.484,0.016 -0.661,0.049c-0.177,0.034 -0.319,0.076 -0.427,0.128c-0.107,0.052 -0.183,0.112 -0.228,0.181c-0.046,0.069 -0.068,0.144 -0.068,0.225c0,0.159 0.047,0.274 0.141,0.343c0.094,0.068 0.217,0.103 0.368,0.103Z" style="fill:#333;fill-rule:nonzero;"/><rect x="87.75" y="120.115" width="0.905" height="5.442" style="fill:#333;"/><path d="M90.64,121.799l0,3.758l-0.904,0l0,-3.758l0.904,0Zm0.136,-1.095c0,0.079 -0.016,0.152 -0.048,0.22c-0.032,0.069 -0.074,0.128 -0.126,0.18c-0.053,0.051 -0.114,0.092 -0.185,0.122c-0.071,0.031 -0.147,0.046 -0.227,0.046c-0.078,0 -0.152,-0.015 -0.222,-0.046c-0.069,-0.03 -0.13,-0.071 -0.181,-0.122c-0.051,-0.052 -0.092,-0.111 -0.123,-0.18c-0.03,-0.068 -0.046,-0.141 -0.046,-0.22c0,-0.08 0.016,-0.156 0.046,-0.227c0.031,-0.07 0.072,-0.132 0.123,-0.183c0.051,-0.051 0.112,-0.092 0.181,-0.123c0.07,-0.03 0.144,-0.045 0.222,-0.045c0.08,0 0.156,0.015 0.227,0.045c0.071,0.031 0.132,0.072 0.185,0.123c0.052,0.051 0.094,0.113 0.126,0.183c0.032,0.071 0.048,0.147 0.048,0.227Z" style="fill:#333;fill-rule:nonzero;"/><path d="M94.306,125.557c-0.117,0 -0.194,-0.055 -0.23,-0.165l-0.074,-0.362c-0.078,0.088 -0.16,0.167 -0.245,0.238c-0.086,0.071 -0.178,0.132 -0.277,0.183c-0.098,0.051 -0.205,0.091 -0.318,0.119c-0.114,0.028 -0.236,0.042 -0.368,0.042c-0.205,0 -0.393,-0.043 -0.564,-0.128c-0.171,-0.086 -0.318,-0.209 -0.442,-0.372c-0.123,-0.162 -0.218,-0.363 -0.285,-0.602c-0.067,-0.24 -0.101,-0.513 -0.101,-0.821c0,-0.278 0.038,-0.537 0.113,-0.776c0.076,-0.239 0.185,-0.447 0.326,-0.623c0.142,-0.176 0.312,-0.313 0.51,-0.412c0.197,-0.099 0.419,-0.148 0.666,-0.148c0.21,0 0.39,0.033 0.538,0.101c0.149,0.067 0.282,0.156 0.4,0.269l0,-1.985l0.904,0l0,5.442l-0.553,0l0,0Zm-1.205,-0.663c0.188,0 0.348,-0.039 0.48,-0.117c0.132,-0.078 0.256,-0.189 0.374,-0.333l0,-1.685c-0.103,-0.124 -0.215,-0.212 -0.335,-0.264c-0.121,-0.051 -0.251,-0.077 -0.39,-0.077c-0.137,0 -0.261,0.026 -0.372,0.077c-0.111,0.052 -0.205,0.129 -0.282,0.233c-0.077,0.104 -0.136,0.236 -0.178,0.395c-0.041,0.16 -0.062,0.349 -0.062,0.566c0,0.22 0.018,0.406 0.053,0.559c0.035,0.152 0.086,0.277 0.152,0.373c0.066,0.097 0.146,0.166 0.242,0.209c0.095,0.043 0.201,0.064 0.318,0.064l0,0Z" style="fill:#333;fill-rule:nonzero;"/><path d="M98.782,125.557l-0.407,0c-0.085,0 -0.152,-0.013 -0.201,-0.038c-0.049,-0.026 -0.086,-0.078 -0.11,-0.156l-0.081,-0.267c-0.095,0.085 -0.188,0.16 -0.28,0.225c-0.091,0.065 -0.186,0.119 -0.284,0.163c-0.097,0.044 -0.201,0.077 -0.311,0.099c-0.11,0.022 -0.232,0.033 -0.366,0.033c-0.159,0 -0.305,-0.022 -0.44,-0.065c-0.134,-0.043 -0.249,-0.107 -0.346,-0.193c-0.096,-0.085 -0.171,-0.192 -0.225,-0.319c-0.054,-0.128 -0.081,-0.276 -0.081,-0.445c0,-0.142 0.038,-0.282 0.112,-0.421c0.075,-0.138 0.199,-0.263 0.372,-0.374c0.173,-0.112 0.404,-0.204 0.692,-0.278c0.288,-0.073 0.646,-0.11 1.073,-0.11l0,-0.222c0,-0.253 -0.053,-0.44 -0.159,-0.562c-0.106,-0.122 -0.261,-0.183 -0.463,-0.183c-0.147,0 -0.269,0.017 -0.367,0.051c-0.097,0.035 -0.182,0.073 -0.254,0.116c-0.072,0.042 -0.139,0.081 -0.2,0.115c-0.061,0.034 -0.128,0.051 -0.201,0.051c-0.061,0 -0.114,-0.016 -0.158,-0.047c-0.044,-0.032 -0.079,-0.071 -0.106,-0.117l-0.165,-0.29c0.432,-0.395 0.954,-0.593 1.564,-0.593c0.22,0 0.416,0.036 0.588,0.108c0.172,0.072 0.318,0.172 0.438,0.3c0.119,0.128 0.21,0.282 0.272,0.46c0.063,0.178 0.094,0.373 0.094,0.586l0,2.373Zm-1.758,-0.564c0.093,0 0.178,-0.008 0.256,-0.025c0.078,-0.017 0.152,-0.042 0.222,-0.076c0.069,-0.034 0.137,-0.075 0.201,-0.124c0.065,-0.05 0.13,-0.108 0.196,-0.175l0,-0.629c-0.264,0 -0.484,0.016 -0.661,0.049c-0.177,0.034 -0.319,0.076 -0.427,0.128c-0.107,0.052 -0.183,0.112 -0.228,0.181c-0.046,0.069 -0.068,0.144 -0.068,0.225c0,0.159 0.047,0.274 0.141,0.343c0.094,0.068 0.216,0.103 0.368,0.103Z" style="fill:#333;fill-rule:nonzero;"/><path d="M100.906,125.616c-0.325,0 -0.575,-0.092 -0.751,-0.277c-0.176,-0.184 -0.263,-0.439 -0.263,-0.763l0,-2.099l-0.381,0c-0.049,0 -0.091,-0.016 -0.127,-0.048c-0.035,-0.031 -0.053,-0.079 -0.053,-0.142l0,-0.359l0.605,-0.099l0.19,-1.026c0.01,-0.049 0.032,-0.086 0.068,-0.113c0.035,-0.027 0.08,-0.041 0.133,-0.041l0.469,0l0,1.183l0.989,0l0,0.645l-0.989,0l0,2.036c0,0.118 0.03,0.209 0.088,0.275c0.059,0.066 0.137,0.099 0.235,0.099c0.056,0 0.103,-0.007 0.141,-0.02c0.037,-0.014 0.07,-0.028 0.098,-0.042c0.028,-0.015 0.053,-0.029 0.075,-0.042c0.022,-0.014 0.044,-0.021 0.066,-0.021c0.027,0 0.049,0.007 0.066,0.021c0.017,0.013 0.036,0.033 0.055,0.06l0.271,0.439c-0.132,0.11 -0.283,0.193 -0.454,0.25c-0.171,0.056 -0.348,0.084 -0.531,0.084l0,0Z" style="fill:#333;fill-rule:nonzero;"/><path d="M103.47,121.799l0,3.758l-0.905,0l0,-3.758l0.905,0Zm0.135,-1.095c0,0.079 -0.016,0.152 -0.047,0.22c-0.032,0.069 -0.074,0.128 -0.127,0.18c-0.052,0.051 -0.114,0.092 -0.185,0.122c-0.07,0.031 -0.146,0.046 -0.227,0.046c-0.078,0 -0.152,-0.015 -0.221,-0.046c-0.07,-0.03 -0.13,-0.071 -0.182,-0.122c-0.051,-0.052 -0.092,-0.111 -0.122,-0.18c-0.031,-0.068 -0.046,-0.141 -0.046,-0.22c0,-0.08 0.015,-0.156 0.046,-0.227c0.03,-0.07 0.071,-0.132 0.122,-0.183c0.052,-0.051 0.112,-0.092 0.182,-0.123c0.069,-0.03 0.143,-0.045 0.221,-0.045c0.081,0 0.157,0.015 0.227,0.045c0.071,0.031 0.133,0.072 0.185,0.123c0.053,0.051 0.095,0.113 0.127,0.183c0.031,0.071 0.047,0.147 0.047,0.227Z" style="fill:#333;fill-rule:nonzero;"/><path d="M106.096,121.741c0.281,0 0.535,0.045 0.763,0.135c0.229,0.091 0.423,0.219 0.585,0.385c0.161,0.166 0.285,0.369 0.373,0.608c0.088,0.239 0.132,0.507 0.132,0.802c0,0.298 -0.044,0.566 -0.132,0.806c-0.088,0.239 -0.212,0.443 -0.373,0.611c-0.162,0.169 -0.356,0.298 -0.585,0.389c-0.228,0.09 -0.482,0.135 -0.763,0.135c-0.281,0 -0.536,-0.045 -0.766,-0.135c-0.229,-0.091 -0.425,-0.22 -0.587,-0.389c-0.163,-0.168 -0.289,-0.372 -0.378,-0.611c-0.089,-0.24 -0.133,-0.508 -0.133,-0.806c0,-0.295 0.044,-0.563 0.133,-0.802c0.089,-0.239 0.215,-0.442 0.378,-0.608c0.162,-0.166 0.358,-0.294 0.587,-0.385c0.23,-0.09 0.485,-0.135 0.766,-0.135Zm0,3.175c0.312,0 0.544,-0.105 0.694,-0.315c0.15,-0.21 0.225,-0.517 0.225,-0.923c0,-0.405 -0.075,-0.714 -0.225,-0.926c-0.15,-0.213 -0.382,-0.319 -0.694,-0.319c-0.318,0 -0.552,0.107 -0.703,0.321c-0.152,0.213 -0.227,0.521 -0.227,0.924c0,0.403 0.075,0.71 0.227,0.921c0.151,0.212 0.385,0.317 0.703,0.317Z" style="fill:#333;fill-rule:nonzero;"/><path d="M108.656,125.557l0,-3.758l0.553,0c0.117,0 0.194,0.055 0.231,0.165l0.062,0.297c0.076,-0.078 0.156,-0.149 0.24,-0.212c0.084,-0.064 0.173,-0.119 0.267,-0.165c0.094,-0.047 0.195,-0.082 0.302,-0.107c0.108,-0.024 0.225,-0.036 0.352,-0.036c0.205,0 0.387,0.035 0.546,0.104c0.158,0.07 0.291,0.168 0.397,0.293c0.106,0.126 0.187,0.276 0.242,0.451c0.055,0.174 0.082,0.367 0.082,0.577l0,2.391l-0.905,0l0,-2.391c0,-0.23 -0.053,-0.408 -0.159,-0.533c-0.106,-0.126 -0.265,-0.189 -0.478,-0.189c-0.156,0 -0.303,0.035 -0.439,0.106c-0.137,0.071 -0.266,0.168 -0.388,0.29l0,2.717l-0.905,0l0,0Z" style="fill:#333;fill-rule:nonzero;"/><path d="M117.178,125.557l-0.406,0c-0.086,0 -0.153,-0.013 -0.202,-0.038c-0.048,-0.026 -0.085,-0.078 -0.109,-0.156l-0.081,-0.267c-0.095,0.085 -0.189,0.16 -0.28,0.225c-0.092,0.065 -0.186,0.119 -0.284,0.163c-0.098,0.044 -0.201,0.077 -0.311,0.099c-0.11,0.022 -0.232,0.033 -0.367,0.033c-0.158,0 -0.305,-0.022 -0.439,-0.065c-0.134,-0.043 -0.25,-0.107 -0.346,-0.193c-0.097,-0.085 -0.172,-0.192 -0.225,-0.319c-0.054,-0.128 -0.081,-0.276 -0.081,-0.445c0,-0.142 0.037,-0.282 0.112,-0.421c0.074,-0.138 0.198,-0.263 0.371,-0.374c0.174,-0.112 0.405,-0.204 0.693,-0.278c0.288,-0.073 0.646,-0.11 1.073,-0.11l0,-0.222c0,-0.253 -0.053,-0.44 -0.16,-0.562c-0.106,-0.122 -0.26,-0.183 -0.463,-0.183c-0.146,0 -0.268,0.017 -0.366,0.051c-0.098,0.035 -0.183,0.073 -0.255,0.116c-0.072,0.042 -0.138,0.081 -0.199,0.115c-0.061,0.034 -0.128,0.051 -0.202,0.051c-0.061,0 -0.113,-0.016 -0.157,-0.047c-0.044,-0.032 -0.079,-0.071 -0.106,-0.117l-0.165,-0.29c0.432,-0.395 0.953,-0.593 1.564,-0.593c0.219,0 0.415,0.036 0.588,0.108c0.172,0.072 0.318,0.172 0.437,0.3c0.12,0.128 0.211,0.282 0.273,0.46c0.062,0.178 0.093,0.373 0.093,0.586l0,2.373Zm-1.758,-0.564c0.093,0 0.179,-0.008 0.257,-0.025c0.078,-0.017 0.152,-0.042 0.221,-0.076c0.07,-0.034 0.137,-0.075 0.202,-0.124c0.065,-0.05 0.13,-0.108 0.196,-0.175l0,-0.629c-0.264,0 -0.484,0.016 -0.661,0.049c-0.177,0.034 -0.32,0.076 -0.427,0.128c-0.107,0.052 -0.184,0.112 -0.229,0.181c-0.045,0.069 -0.068,0.144 -0.068,0.225c0,0.159 0.047,0.274 0.141,0.343c0.094,0.068 0.217,0.103 0.368,0.103Z" style="fill:#333;fill-rule:nonzero;"/><path d="M118.068,125.557l0,-3.758l0.553,0c0.118,0 0.195,0.055 0.231,0.165l0.062,0.297c0.076,-0.078 0.156,-0.149 0.24,-0.212c0.085,-0.064 0.174,-0.119 0.268,-0.165c0.094,-0.047 0.194,-0.082 0.302,-0.107c0.107,-0.024 0.225,-0.036 0.351,-0.036c0.206,0 0.387,0.035 0.546,0.104c0.159,0.07 0.291,0.168 0.398,0.293c0.106,0.126 0.186,0.276 0.241,0.451c0.055,0.174 0.083,0.367 0.083,0.577l0,2.391l-0.905,0l0,-2.391c0,-0.23 -0.053,-0.408 -0.159,-0.533c-0.106,-0.126 -0.266,-0.189 -0.478,-0.189c-0.156,0 -0.303,0.035 -0.44,0.106c-0.136,0.071 -0.266,0.168 -0.388,0.29l0,2.717l-0.905,0l0,0Z" style="fill:#333;fill-rule:nonzero;"/><path d="M124.877,125.557c-0.117,0 -0.194,-0.055 -0.231,-0.165l-0.073,-0.362c-0.078,0.088 -0.16,0.167 -0.245,0.238c-0.086,0.071 -0.178,0.132 -0.277,0.183c-0.099,0.051 -0.205,0.091 -0.319,0.119c-0.113,0.028 -0.236,0.042 -0.368,0.042c-0.205,0 -0.393,-0.043 -0.564,-0.128c-0.171,-0.086 -0.318,-0.209 -0.441,-0.372c-0.123,-0.162 -0.218,-0.363 -0.286,-0.602c-0.067,-0.24 -0.1,-0.513 -0.1,-0.821c0,-0.278 0.037,-0.537 0.113,-0.776c0.076,-0.239 0.185,-0.447 0.326,-0.623c0.142,-0.176 0.311,-0.313 0.509,-0.412c0.198,-0.099 0.42,-0.148 0.667,-0.148c0.21,0 0.389,0.033 0.538,0.101c0.149,0.067 0.282,0.156 0.399,0.269l0,-1.985l0.905,0l0,5.442l-0.553,0l0,0Zm-1.205,-0.663c0.188,0 0.348,-0.039 0.48,-0.117c0.132,-0.078 0.256,-0.189 0.373,-0.333l0,-1.685c-0.102,-0.124 -0.214,-0.212 -0.335,-0.264c-0.121,-0.051 -0.251,-0.077 -0.39,-0.077c-0.137,0 -0.26,0.026 -0.372,0.077c-0.111,0.052 -0.205,0.129 -0.282,0.233c-0.076,0.104 -0.136,0.236 -0.177,0.395c-0.042,0.16 -0.062,0.349 -0.062,0.566c0,0.22 0.017,0.406 0.053,0.559c0.035,0.152 0.086,0.277 0.152,0.373c0.066,0.097 0.146,0.166 0.241,0.209c0.096,0.043 0.202,0.064 0.319,0.064l0,0Z" style="fill:#333;fill-rule:nonzero;"/><path d="M130.462,122.594c-0.027,0.034 -0.053,0.061 -0.078,0.081c-0.026,0.019 -0.063,0.029 -0.112,0.029c-0.047,0 -0.092,-0.014 -0.136,-0.042c-0.044,-0.028 -0.096,-0.06 -0.157,-0.095c-0.061,-0.036 -0.134,-0.067 -0.218,-0.095c-0.084,-0.029 -0.189,-0.043 -0.313,-0.043c-0.159,0 -0.298,0.029 -0.418,0.086c-0.119,0.058 -0.219,0.14 -0.298,0.248c-0.08,0.107 -0.139,0.237 -0.178,0.39c-0.039,0.152 -0.058,0.325 -0.058,0.518c0,0.2 0.021,0.378 0.064,0.535c0.042,0.156 0.104,0.287 0.185,0.393c0.08,0.107 0.178,0.187 0.293,0.242c0.114,0.055 0.244,0.083 0.388,0.083c0.144,0 0.26,-0.018 0.35,-0.054c0.089,-0.035 0.164,-0.074 0.225,-0.117c0.061,-0.042 0.114,-0.082 0.159,-0.117c0.045,-0.035 0.096,-0.053 0.152,-0.053c0.073,0 0.128,0.028 0.165,0.084l0.26,0.33c-0.1,0.117 -0.209,0.215 -0.326,0.295c-0.117,0.079 -0.239,0.142 -0.364,0.19c-0.126,0.048 -0.256,0.081 -0.39,0.101c-0.135,0.019 -0.268,0.029 -0.4,0.029c-0.232,0 -0.45,-0.043 -0.655,-0.13c-0.205,-0.087 -0.384,-0.213 -0.537,-0.379c-0.152,-0.166 -0.273,-0.369 -0.362,-0.61c-0.09,-0.24 -0.134,-0.514 -0.134,-0.822c0,-0.276 0.04,-0.532 0.119,-0.767c0.079,-0.236 0.196,-0.44 0.35,-0.612c0.154,-0.172 0.344,-0.307 0.571,-0.405c0.227,-0.097 0.488,-0.146 0.784,-0.146c0.281,0 0.527,0.045 0.738,0.135c0.211,0.091 0.401,0.22 0.569,0.389l-0.238,0.329l0,0Z" style="fill:#333;fill-rule:nonzero;"/><path d="M132.143,121.799l0,2.388c0,0.23 0.053,0.408 0.16,0.533c0.106,0.126 0.265,0.189 0.478,0.189c0.156,0 0.302,-0.035 0.439,-0.104c0.137,-0.07 0.266,-0.166 0.388,-0.288l0,-2.718l0.905,0l0,3.758l-0.553,0c-0.117,0 -0.194,-0.055 -0.231,-0.165l-0.062,-0.3c-0.078,0.078 -0.159,0.15 -0.242,0.214c-0.083,0.065 -0.171,0.12 -0.265,0.165c-0.094,0.045 -0.196,0.081 -0.304,0.106c-0.109,0.026 -0.226,0.039 -0.35,0.039c-0.205,0 -0.386,-0.035 -0.544,-0.105c-0.157,-0.069 -0.29,-0.167 -0.397,-0.294c-0.108,-0.127 -0.189,-0.278 -0.244,-0.453c-0.055,-0.174 -0.082,-0.367 -0.082,-0.577l0,-2.388l0.904,0Z" style="fill:#333;fill-rule:nonzero;"/><path d="M137.71,122.532c-0.024,0.039 -0.05,0.067 -0.077,0.082c-0.026,0.016 -0.061,0.024 -0.102,0.024c-0.044,0 -0.091,-0.012 -0.141,-0.036c-0.05,-0.025 -0.108,-0.052 -0.174,-0.083c-0.066,-0.03 -0.141,-0.058 -0.225,-0.082c-0.085,-0.025 -0.184,-0.037 -0.299,-0.037c-0.178,0 -0.318,0.038 -0.421,0.114c-0.103,0.075 -0.154,0.174 -0.154,0.296c0,0.081 0.026,0.149 0.079,0.204c0.052,0.055 0.122,0.103 0.209,0.144c0.086,0.042 0.185,0.079 0.294,0.112c0.11,0.033 0.223,0.069 0.337,0.108c0.115,0.039 0.227,0.084 0.337,0.134c0.11,0.05 0.209,0.113 0.295,0.19c0.087,0.077 0.156,0.169 0.209,0.277c0.052,0.107 0.079,0.236 0.079,0.388c0,0.181 -0.033,0.347 -0.099,0.5c-0.066,0.152 -0.163,0.284 -0.29,0.395c-0.126,0.111 -0.283,0.198 -0.47,0.26c-0.187,0.063 -0.401,0.094 -0.643,0.094c-0.129,0 -0.256,-0.012 -0.379,-0.035c-0.123,-0.023 -0.242,-0.056 -0.355,-0.097c-0.114,-0.042 -0.219,-0.09 -0.315,-0.147c-0.097,-0.056 -0.182,-0.117 -0.255,-0.183l0.209,-0.344c0.027,-0.041 0.059,-0.073 0.095,-0.095c0.037,-0.022 0.083,-0.033 0.139,-0.033c0.057,0 0.11,0.016 0.16,0.047c0.05,0.032 0.108,0.066 0.174,0.103c0.066,0.037 0.143,0.071 0.232,0.103c0.089,0.031 0.202,0.047 0.339,0.047c0.107,0 0.2,-0.013 0.277,-0.038c0.076,-0.026 0.14,-0.06 0.19,-0.101c0.05,-0.042 0.087,-0.09 0.11,-0.145c0.023,-0.055 0.035,-0.111 0.035,-0.17c0,-0.088 -0.027,-0.16 -0.079,-0.216c-0.053,-0.056 -0.122,-0.105 -0.209,-0.147c-0.087,-0.041 -0.185,-0.078 -0.297,-0.111c-0.111,-0.033 -0.224,-0.069 -0.34,-0.108c-0.116,-0.039 -0.23,-0.085 -0.341,-0.138c-0.111,-0.052 -0.21,-0.119 -0.296,-0.199c-0.087,-0.081 -0.157,-0.18 -0.209,-0.297c-0.053,-0.117 -0.079,-0.259 -0.079,-0.425c0,-0.154 0.031,-0.3 0.092,-0.439c0.061,-0.139 0.15,-0.261 0.269,-0.365c0.118,-0.103 0.266,-0.186 0.443,-0.249c0.177,-0.062 0.382,-0.093 0.613,-0.093c0.259,0 0.495,0.043 0.707,0.128c0.213,0.086 0.39,0.198 0.531,0.337l-0.205,0.326l0,0Z" style="fill:#333;fill-rule:nonzero;"/><path d="M139.915,125.616c-0.325,0 -0.575,-0.092 -0.751,-0.277c-0.175,-0.184 -0.263,-0.439 -0.263,-0.763l0,-2.099l-0.381,0c-0.049,0 -0.091,-0.016 -0.127,-0.048c-0.035,-0.031 -0.053,-0.079 -0.053,-0.142l0,-0.359l0.605,-0.099l0.19,-1.026c0.01,-0.049 0.032,-0.086 0.068,-0.113c0.035,-0.027 0.08,-0.041 0.133,-0.041l0.469,0l0,1.183l0.989,0l0,0.645l-0.989,0l0,2.036c0,0.118 0.03,0.209 0.088,0.275c0.059,0.066 0.137,0.099 0.235,0.099c0.056,0 0.103,-0.007 0.141,-0.02c0.037,-0.014 0.07,-0.028 0.098,-0.042c0.029,-0.015 0.054,-0.029 0.076,-0.042c0.021,-0.014 0.043,-0.021 0.065,-0.021c0.027,0 0.049,0.007 0.066,0.021c0.017,0.013 0.036,0.033 0.055,0.06l0.271,0.439c-0.132,0.11 -0.283,0.193 -0.454,0.25c-0.171,0.056 -0.348,0.084 -0.531,0.084l0,0Z" style="fill:#333;fill-rule:nonzero;"/><path d="M143.12,121.741c0.281,0 0.535,0.045 0.763,0.135c0.229,0.091 0.423,0.219 0.585,0.385c0.161,0.166 0.285,0.369 0.373,0.608c0.088,0.239 0.132,0.507 0.132,0.802c0,0.298 -0.044,0.566 -0.132,0.806c-0.088,0.239 -0.212,0.443 -0.373,0.611c-0.162,0.169 -0.356,0.298 -0.585,0.389c-0.228,0.09 -0.482,0.135 -0.763,0.135c-0.281,0 -0.536,-0.045 -0.766,-0.135c-0.229,-0.091 -0.425,-0.22 -0.588,-0.389c-0.162,-0.168 -0.288,-0.372 -0.377,-0.611c-0.089,-0.24 -0.133,-0.508 -0.133,-0.806c0,-0.295 0.044,-0.563 0.133,-0.802c0.089,-0.239 0.215,-0.442 0.377,-0.608c0.163,-0.166 0.359,-0.294 0.588,-0.385c0.23,-0.09 0.485,-0.135 0.766,-0.135Zm0,3.175c0.312,0 0.544,-0.105 0.694,-0.315c0.15,-0.21 0.225,-0.517 0.225,-0.923c0,-0.405 -0.075,-0.714 -0.225,-0.926c-0.15,-0.213 -0.382,-0.319 -0.694,-0.319c-0.318,0 -0.552,0.107 -0.703,0.321c-0.152,0.213 -0.227,0.521 -0.227,0.924c0,0.403 0.075,0.71 0.227,0.921c0.151,0.212 0.385,0.317 0.703,0.317Z" style="fill:#333;fill-rule:nonzero;"/><path d="M145.68,125.557l0,-3.758l0.553,0c0.117,0 0.194,0.055 0.231,0.165l0.058,0.279c0.066,-0.074 0.135,-0.141 0.207,-0.202c0.072,-0.061 0.149,-0.113 0.231,-0.157c0.082,-0.044 0.17,-0.079 0.264,-0.105c0.094,-0.025 0.197,-0.038 0.309,-0.038c0.237,0 0.432,0.064 0.584,0.192c0.153,0.128 0.267,0.299 0.343,0.511c0.058,-0.124 0.132,-0.231 0.219,-0.32c0.088,-0.09 0.185,-0.162 0.29,-0.218c0.105,-0.056 0.216,-0.098 0.335,-0.125c0.118,-0.027 0.237,-0.04 0.357,-0.04c0.208,0 0.392,0.032 0.553,0.095c0.161,0.064 0.297,0.156 0.407,0.278c0.109,0.123 0.193,0.271 0.25,0.447c0.058,0.176 0.086,0.378 0.086,0.605l0,2.391l-0.904,0l0,-2.391c0,-0.24 -0.053,-0.42 -0.158,-0.541c-0.105,-0.121 -0.258,-0.181 -0.461,-0.181c-0.093,0 -0.179,0.016 -0.258,0.048c-0.08,0.031 -0.149,0.077 -0.209,0.137c-0.06,0.06 -0.107,0.135 -0.141,0.225c-0.034,0.091 -0.051,0.194 -0.051,0.312l0,2.391l-0.909,0l0,-2.391c0,-0.252 -0.05,-0.435 -0.152,-0.55c-0.101,-0.115 -0.251,-0.172 -0.448,-0.172c-0.13,0 -0.251,0.032 -0.365,0.097c-0.113,0.065 -0.219,0.153 -0.317,0.266l0,2.75l-0.904,0l0,0Z" style="fill:#333;fill-rule:nonzero;"/><path d="M155.902,122.594c-0.027,0.034 -0.053,0.061 -0.079,0.081c-0.026,0.019 -0.063,0.029 -0.112,0.029c-0.046,0 -0.091,-0.014 -0.135,-0.042c-0.044,-0.028 -0.097,-0.06 -0.158,-0.095c-0.061,-0.036 -0.133,-0.067 -0.218,-0.095c-0.084,-0.029 -0.188,-0.043 -0.313,-0.043c-0.158,0 -0.298,0.029 -0.417,0.086c-0.12,0.058 -0.219,0.14 -0.299,0.248c-0.079,0.107 -0.138,0.237 -0.177,0.39c-0.039,0.152 -0.059,0.325 -0.059,0.518c0,0.2 0.021,0.378 0.064,0.535c0.043,0.156 0.105,0.287 0.185,0.393c0.081,0.107 0.178,0.187 0.293,0.242c0.115,0.055 0.244,0.083 0.388,0.083c0.144,0 0.261,-0.018 0.35,-0.054c0.089,-0.035 0.164,-0.074 0.225,-0.117c0.061,-0.042 0.115,-0.082 0.16,-0.117c0.045,-0.035 0.096,-0.053 0.152,-0.053c0.073,0 0.128,0.028 0.164,0.084l0.261,0.33c-0.101,0.117 -0.209,0.215 -0.326,0.295c-0.118,0.079 -0.239,0.142 -0.365,0.19c-0.126,0.048 -0.256,0.081 -0.39,0.101c-0.134,0.019 -0.267,0.029 -0.399,0.029c-0.232,0 -0.451,-0.043 -0.656,-0.13c-0.205,-0.087 -0.384,-0.213 -0.536,-0.379c-0.153,-0.166 -0.274,-0.369 -0.363,-0.61c-0.089,-0.24 -0.134,-0.514 -0.134,-0.822c0,-0.276 0.04,-0.532 0.119,-0.767c0.08,-0.236 0.196,-0.44 0.35,-0.612c0.154,-0.172 0.345,-0.307 0.572,-0.405c0.227,-0.097 0.488,-0.146 0.783,-0.146c0.281,0 0.527,0.045 0.738,0.135c0.212,0.091 0.401,0.22 0.57,0.389l-0.238,0.329l0,0Z" style="fill:#333;fill-rule:nonzero;"/><path d="M158.359,121.741c0.281,0 0.536,0.045 0.764,0.135c0.228,0.091 0.423,0.219 0.584,0.385c0.161,0.166 0.286,0.369 0.374,0.608c0.088,0.239 0.132,0.507 0.132,0.802c0,0.298 -0.044,0.566 -0.132,0.806c-0.088,0.239 -0.213,0.443 -0.374,0.611c-0.161,0.169 -0.356,0.298 -0.584,0.389c-0.228,0.09 -0.483,0.135 -0.764,0.135c-0.28,0 -0.536,-0.045 -0.765,-0.135c-0.23,-0.091 -0.426,-0.22 -0.588,-0.389c-0.162,-0.168 -0.288,-0.372 -0.377,-0.611c-0.089,-0.24 -0.134,-0.508 -0.134,-0.806c0,-0.295 0.045,-0.563 0.134,-0.802c0.089,-0.239 0.215,-0.442 0.377,-0.608c0.162,-0.166 0.358,-0.294 0.588,-0.385c0.229,-0.09 0.485,-0.135 0.765,-0.135Zm0,3.175c0.313,0 0.544,-0.105 0.694,-0.315c0.151,-0.21 0.226,-0.517 0.226,-0.923c0,-0.405 -0.075,-0.714 -0.226,-0.926c-0.15,-0.213 -0.381,-0.319 -0.694,-0.319c-0.317,0 -0.551,0.107 -0.703,0.321c-0.151,0.213 -0.227,0.521 -0.227,0.924c0,0.403 0.076,0.71 0.227,0.921c0.152,0.212 0.386,0.317 0.703,0.317Z" style="fill:#333;fill-rule:nonzero;"/><rect x="160.978" y="120.115" width="0.905" height="5.442" style="fill:#333;"/><path d="M164.509,121.741c0.28,0 0.535,0.045 0.763,0.135c0.229,0.091 0.423,0.219 0.584,0.385c0.162,0.166 0.286,0.369 0.374,0.608c0.088,0.239 0.132,0.507 0.132,0.802c0,0.298 -0.044,0.566 -0.132,0.806c-0.088,0.239 -0.212,0.443 -0.374,0.611c-0.161,0.169 -0.355,0.298 -0.584,0.389c-0.228,0.09 -0.483,0.135 -0.763,0.135c-0.281,0 -0.536,-0.045 -0.766,-0.135c-0.229,-0.091 -0.425,-0.22 -0.588,-0.389c-0.162,-0.168 -0.288,-0.372 -0.377,-0.611c-0.089,-0.24 -0.134,-0.508 -0.134,-0.806c0,-0.295 0.045,-0.563 0.134,-0.802c0.089,-0.239 0.215,-0.442 0.377,-0.608c0.163,-0.166 0.359,-0.294 0.588,-0.385c0.23,-0.09 0.485,-0.135 0.766,-0.135Zm0,3.175c0.312,0 0.544,-0.105 0.694,-0.315c0.15,-0.21 0.225,-0.517 0.225,-0.923c0,-0.405 -0.075,-0.714 -0.225,-0.926c-0.15,-0.213 -0.382,-0.319 -0.694,-0.319c-0.318,0 -0.552,0.107 -0.704,0.321c-0.151,0.213 -0.227,0.521 -0.227,0.924c0,0.403 0.076,0.71 0.227,0.921c0.152,0.212 0.386,0.317 0.704,0.317Z" style="fill:#333;fill-rule:nonzero;"/><path d="M167.069,125.557l0,-3.758l0.531,0c0.093,0 0.157,0.018 0.194,0.052c0.037,0.034 0.061,0.093 0.073,0.176l0.055,0.454c0.134,-0.232 0.292,-0.415 0.473,-0.55c0.18,-0.134 0.383,-0.201 0.608,-0.201c0.185,0 0.339,0.043 0.461,0.128l-0.117,0.678c-0.008,0.044 -0.023,0.075 -0.048,0.093c-0.024,0.018 -0.057,0.027 -0.099,0.027c-0.036,0 -0.086,-0.008 -0.15,-0.025c-0.063,-0.017 -0.148,-0.026 -0.253,-0.026c-0.188,0 -0.349,0.052 -0.483,0.156c-0.134,0.104 -0.248,0.256 -0.341,0.456l0,2.34l-0.904,0Z" style="fill:#333;fill-rule:nonzero;"/><path d="M172.291,122.532c-0.024,0.039 -0.05,0.067 -0.077,0.082c-0.026,0.016 -0.061,0.024 -0.102,0.024c-0.044,0 -0.091,-0.012 -0.141,-0.036c-0.05,-0.025 -0.108,-0.052 -0.174,-0.083c-0.066,-0.03 -0.141,-0.058 -0.225,-0.082c-0.085,-0.025 -0.184,-0.037 -0.299,-0.037c-0.178,0 -0.318,0.038 -0.421,0.114c-0.102,0.075 -0.154,0.174 -0.154,0.296c0,0.081 0.026,0.149 0.079,0.204c0.052,0.055 0.122,0.103 0.209,0.144c0.086,0.042 0.185,0.079 0.295,0.112c0.109,0.033 0.222,0.069 0.337,0.108c0.114,0.039 0.227,0.084 0.336,0.134c0.11,0.05 0.209,0.113 0.295,0.19c0.087,0.077 0.157,0.169 0.209,0.277c0.053,0.107 0.079,0.236 0.079,0.388c0,0.181 -0.033,0.347 -0.099,0.5c-0.066,0.152 -0.162,0.284 -0.289,0.395c-0.127,0.111 -0.284,0.198 -0.471,0.26c-0.187,0.063 -0.401,0.094 -0.643,0.094c-0.129,0 -0.256,-0.012 -0.379,-0.035c-0.123,-0.023 -0.242,-0.056 -0.355,-0.097c-0.114,-0.042 -0.219,-0.09 -0.315,-0.147c-0.097,-0.056 -0.181,-0.117 -0.255,-0.183l0.209,-0.344c0.027,-0.041 0.059,-0.073 0.095,-0.095c0.037,-0.022 0.083,-0.033 0.139,-0.033c0.057,0 0.11,0.016 0.16,0.047c0.05,0.032 0.108,0.066 0.174,0.103c0.066,0.037 0.143,0.071 0.232,0.103c0.089,0.031 0.202,0.047 0.339,0.047c0.108,0 0.2,-0.013 0.277,-0.038c0.077,-0.026 0.14,-0.06 0.19,-0.101c0.05,-0.042 0.087,-0.09 0.11,-0.145c0.023,-0.055 0.035,-0.111 0.035,-0.17c0,-0.088 -0.026,-0.16 -0.079,-0.216c-0.052,-0.056 -0.122,-0.105 -0.209,-0.147c-0.086,-0.041 -0.185,-0.078 -0.296,-0.111c-0.111,-0.033 -0.225,-0.069 -0.341,-0.108c-0.116,-0.039 -0.23,-0.085 -0.341,-0.138c-0.111,-0.052 -0.21,-0.119 -0.296,-0.199c-0.087,-0.081 -0.157,-0.18 -0.209,-0.297c-0.053,-0.117 -0.079,-0.259 -0.079,-0.425c0,-0.154 0.031,-0.3 0.092,-0.439c0.061,-0.139 0.151,-0.261 0.269,-0.365c0.118,-0.103 0.266,-0.186 0.443,-0.249c0.177,-0.062 0.382,-0.093 0.614,-0.093c0.258,0 0.494,0.043 0.706,0.128c0.213,0.086 0.39,0.198 0.532,0.337l-0.206,0.326l0,0Z" style="fill:#333;fill-rule:nonzero;"/><path d="M77.226,132.882l0,-3.758l0.553,0c0.118,0 0.194,0.055 0.231,0.165l0.062,0.297c0.076,-0.078 0.156,-0.149 0.24,-0.213c0.084,-0.063 0.174,-0.118 0.268,-0.164c0.094,-0.047 0.194,-0.082 0.302,-0.107c0.107,-0.024 0.224,-0.036 0.351,-0.036c0.205,0 0.387,0.035 0.546,0.104c0.159,0.07 0.291,0.167 0.397,0.293c0.107,0.126 0.187,0.276 0.242,0.451c0.055,0.174 0.083,0.367 0.083,0.577l0,2.391l-0.905,0l0,-2.391c0,-0.23 -0.053,-0.408 -0.159,-0.533c-0.107,-0.126 -0.266,-0.189 -0.478,-0.189c-0.157,0 -0.303,0.035 -0.44,0.106c-0.137,0.071 -0.266,0.167 -0.388,0.29l0,2.717l-0.905,0l0,0Z" style="fill:#333;fill-rule:nonzero;"/><path d="M81.391,134.109l0,-4.985l0.553,0c0.058,0 0.108,0.014 0.15,0.041c0.041,0.027 0.068,0.068 0.08,0.124l0.074,0.348c0.151,-0.173 0.325,-0.314 0.521,-0.421c0.197,-0.107 0.427,-0.161 0.691,-0.161c0.205,0 0.392,0.043 0.562,0.128c0.17,0.085 0.316,0.209 0.44,0.372c0.123,0.162 0.218,0.362 0.285,0.6c0.067,0.238 0.101,0.511 0.101,0.819c0,0.281 -0.038,0.541 -0.114,0.78c-0.075,0.239 -0.183,0.447 -0.324,0.623c-0.14,0.176 -0.31,0.313 -0.509,0.412c-0.199,0.099 -0.422,0.148 -0.668,0.148c-0.213,0 -0.393,-0.032 -0.54,-0.097c-0.148,-0.065 -0.281,-0.154 -0.398,-0.269l0,1.538l-0.904,0l0,0Zm1.758,-4.34c-0.188,0 -0.349,0.04 -0.482,0.119c-0.133,0.079 -0.257,0.191 -0.372,0.335l0,1.685c0.103,0.127 0.214,0.215 0.335,0.265c0.121,0.05 0.251,0.076 0.39,0.076c0.137,0 0.261,-0.026 0.372,-0.077c0.111,-0.052 0.205,-0.13 0.282,-0.235c0.077,-0.105 0.136,-0.237 0.178,-0.397c0.041,-0.16 0.062,-0.349 0.062,-0.566c0,-0.22 -0.018,-0.406 -0.053,-0.559c-0.035,-0.152 -0.086,-0.276 -0.152,-0.371c-0.066,-0.096 -0.146,-0.165 -0.24,-0.209c-0.094,-0.044 -0.201,-0.066 -0.32,-0.066l0,0Z" style="fill:#333;fill-rule:nonzero;"/><path d="M85.533,132.882l0,-3.758l0.553,0c0.117,0 0.194,0.055 0.231,0.165l0.058,0.279c0.066,-0.074 0.135,-0.141 0.207,-0.202c0.072,-0.061 0.149,-0.113 0.231,-0.157c0.082,-0.044 0.17,-0.079 0.264,-0.105c0.094,-0.025 0.197,-0.038 0.309,-0.038c0.237,0 0.432,0.064 0.584,0.192c0.153,0.128 0.267,0.299 0.343,0.511c0.058,-0.125 0.132,-0.231 0.219,-0.32c0.088,-0.09 0.185,-0.162 0.29,-0.218c0.105,-0.057 0.216,-0.098 0.335,-0.125c0.118,-0.027 0.237,-0.04 0.357,-0.04c0.207,0 0.392,0.032 0.553,0.095c0.161,0.064 0.297,0.156 0.407,0.278c0.109,0.122 0.193,0.271 0.25,0.447c0.058,0.176 0.086,0.377 0.086,0.605l0,2.391l-0.904,0l0,-2.391c0,-0.24 -0.053,-0.42 -0.158,-0.541c-0.105,-0.121 -0.258,-0.181 -0.461,-0.181c-0.093,0 -0.179,0.016 -0.258,0.048c-0.08,0.031 -0.149,0.077 -0.209,0.137c-0.06,0.06 -0.107,0.135 -0.141,0.225c-0.034,0.091 -0.051,0.194 -0.051,0.312l0,2.391l-0.909,0l0,-2.391c0,-0.252 -0.05,-0.435 -0.152,-0.55c-0.101,-0.115 -0.251,-0.172 -0.448,-0.172c-0.13,0 -0.251,0.032 -0.365,0.097c-0.113,0.065 -0.219,0.153 -0.317,0.266l0,2.75l-0.904,0l0,0Z" style="fill:#333;fill-rule:nonzero;"/><rect x="92.997" y="130.293" width="1.897" height="0.754" style="fill:#333;"/><path d="M99.04,132.882l-0.82,0l-1.495,-3.758l0.751,0c0.066,0 0.122,0.016 0.167,0.048c0.045,0.032 0.076,0.072 0.093,0.121l0.725,2.007c0.042,0.117 0.077,0.232 0.105,0.344c0.028,0.113 0.053,0.225 0.075,0.337c0.022,-0.112 0.047,-0.224 0.075,-0.337c0.028,-0.112 0.064,-0.227 0.108,-0.344l0.743,-2.007c0.018,-0.049 0.048,-0.089 0.092,-0.121c0.044,-0.032 0.096,-0.048 0.157,-0.048l0.715,0l-1.491,3.758l0,0Z" style="fill:#333;fill-rule:nonzero;"/><path d="M104.01,132.882l-0.407,0c-0.085,0 -0.152,-0.013 -0.201,-0.038c-0.049,-0.026 -0.085,-0.078 -0.11,-0.156l-0.08,-0.267c-0.096,0.085 -0.189,0.16 -0.281,0.225c-0.091,0.065 -0.186,0.119 -0.283,0.163c-0.098,0.044 -0.202,0.077 -0.312,0.099c-0.11,0.022 -0.232,0.033 -0.366,0.033c-0.159,0 -0.305,-0.022 -0.439,-0.065c-0.135,-0.043 -0.25,-0.107 -0.347,-0.193c-0.096,-0.085 -0.171,-0.192 -0.225,-0.319c-0.054,-0.128 -0.08,-0.276 -0.08,-0.445c0,-0.142 0.037,-0.282 0.111,-0.421c0.075,-0.138 0.199,-0.263 0.372,-0.374c0.173,-0.112 0.404,-0.204 0.692,-0.278c0.288,-0.073 0.646,-0.11 1.073,-0.11l0,-0.222c0,-0.253 -0.053,-0.44 -0.159,-0.562c-0.106,-0.122 -0.261,-0.183 -0.463,-0.183c-0.147,0 -0.269,0.017 -0.366,0.051c-0.098,0.034 -0.183,0.073 -0.255,0.116c-0.072,0.042 -0.139,0.081 -0.2,0.115c-0.061,0.034 -0.128,0.051 -0.201,0.051c-0.061,0 -0.114,-0.016 -0.158,-0.047c-0.044,-0.032 -0.079,-0.071 -0.106,-0.118l-0.165,-0.289c0.433,-0.395 0.954,-0.593 1.564,-0.593c0.22,0 0.416,0.036 0.588,0.108c0.172,0.072 0.318,0.172 0.438,0.3c0.119,0.128 0.21,0.282 0.273,0.46c0.062,0.178 0.093,0.373 0.093,0.586l0,2.373Zm-1.758,-0.564c0.093,0 0.178,-0.008 0.256,-0.026c0.079,-0.016 0.152,-0.041 0.222,-0.075c0.07,-0.034 0.137,-0.075 0.201,-0.124c0.065,-0.05 0.13,-0.108 0.196,-0.175l0,-0.629c-0.263,0 -0.484,0.016 -0.661,0.049c-0.177,0.034 -0.319,0.076 -0.426,0.128c-0.108,0.052 -0.184,0.112 -0.229,0.181c-0.045,0.069 -0.068,0.144 -0.068,0.225c0,0.159 0.047,0.274 0.141,0.343c0.094,0.068 0.217,0.103 0.368,0.103Z" style="fill:#333;fill-rule:nonzero;"/><path d="M104.9,132.882l0,-3.758l0.553,0c0.117,0 0.194,0.055 0.231,0.165l0.062,0.297c0.076,-0.078 0.156,-0.149 0.24,-0.213c0.084,-0.063 0.173,-0.118 0.267,-0.164c0.094,-0.047 0.195,-0.082 0.302,-0.107c0.108,-0.024 0.225,-0.036 0.352,-0.036c0.205,0 0.387,0.035 0.546,0.104c0.158,0.07 0.291,0.167 0.397,0.293c0.106,0.126 0.187,0.276 0.242,0.451c0.055,0.174 0.082,0.367 0.082,0.577l0,2.391l-0.904,0l0,-2.391c0,-0.23 -0.053,-0.408 -0.16,-0.533c-0.106,-0.126 -0.265,-0.189 -0.478,-0.189c-0.156,0 -0.302,0.035 -0.439,0.106c-0.137,0.071 -0.266,0.167 -0.388,0.29l0,2.717l-0.905,0l0,0Z" style="fill:#333;fill-rule:nonzero;"/><path d="M110.027,129.124l0,3.758l-0.904,0l0,-3.758l0.904,0Zm0.136,-1.095c0,0.078 -0.016,0.152 -0.048,0.22c-0.031,0.068 -0.073,0.128 -0.126,0.18c-0.052,0.051 -0.114,0.092 -0.185,0.122c-0.071,0.031 -0.146,0.046 -0.227,0.046c-0.078,0 -0.152,-0.015 -0.222,-0.046c-0.069,-0.03 -0.13,-0.071 -0.181,-0.122c-0.051,-0.052 -0.092,-0.112 -0.123,-0.18c-0.03,-0.068 -0.045,-0.142 -0.045,-0.22c0,-0.08 0.015,-0.156 0.045,-0.227c0.031,-0.071 0.072,-0.132 0.123,-0.183c0.051,-0.051 0.112,-0.092 0.181,-0.123c0.07,-0.03 0.144,-0.045 0.222,-0.045c0.081,0 0.156,0.015 0.227,0.045c0.071,0.031 0.133,0.072 0.185,0.123c0.053,0.051 0.095,0.112 0.126,0.183c0.032,0.071 0.048,0.147 0.048,0.227Z" style="fill:#333;fill-rule:nonzero;"/><rect x="111.108" y="127.44" width="0.905" height="5.442" style="fill:#333;"/><rect x="113.093" y="127.44" width="0.905" height="5.442" style="fill:#333;"/><path d="M117.964,132.882l-0.406,0c-0.086,0 -0.153,-0.013 -0.202,-0.038c-0.049,-0.026 -0.085,-0.078 -0.11,-0.156l-0.08,-0.267c-0.096,0.085 -0.189,0.16 -0.281,0.225c-0.091,0.065 -0.186,0.119 -0.283,0.163c-0.098,0.044 -0.202,0.077 -0.312,0.099c-0.11,0.022 -0.232,0.033 -0.366,0.033c-0.159,0 -0.305,-0.022 -0.439,-0.065c-0.135,-0.043 -0.25,-0.107 -0.347,-0.193c-0.096,-0.085 -0.171,-0.192 -0.225,-0.319c-0.053,-0.128 -0.08,-0.276 -0.08,-0.445c0,-0.142 0.037,-0.282 0.111,-0.421c0.075,-0.138 0.199,-0.263 0.372,-0.374c0.173,-0.112 0.404,-0.204 0.692,-0.278c0.288,-0.073 0.646,-0.11 1.073,-0.11l0,-0.222c0,-0.253 -0.053,-0.44 -0.159,-0.562c-0.106,-0.122 -0.261,-0.183 -0.463,-0.183c-0.147,0 -0.269,0.017 -0.366,0.051c-0.098,0.034 -0.183,0.073 -0.255,0.116c-0.072,0.042 -0.139,0.081 -0.2,0.115c-0.061,0.034 -0.128,0.051 -0.201,0.051c-0.061,0 -0.114,-0.016 -0.158,-0.047c-0.043,-0.032 -0.079,-0.071 -0.106,-0.118l-0.165,-0.289c0.433,-0.395 0.954,-0.593 1.564,-0.593c0.22,0 0.416,0.036 0.588,0.108c0.172,0.072 0.318,0.172 0.438,0.3c0.119,0.128 0.21,0.282 0.273,0.46c0.062,0.178 0.093,0.373 0.093,0.586l0,2.373Zm-1.758,-0.564c0.093,0 0.178,-0.008 0.256,-0.026c0.079,-0.016 0.152,-0.041 0.222,-0.075c0.07,-0.034 0.137,-0.075 0.201,-0.124c0.065,-0.05 0.13,-0.108 0.196,-0.175l0,-0.629c-0.263,0 -0.484,0.016 -0.661,0.049c-0.177,0.034 -0.319,0.076 -0.426,0.128c-0.108,0.052 -0.184,0.112 -0.229,0.181c-0.045,0.069 -0.068,0.144 -0.068,0.225c0,0.159 0.047,0.274 0.141,0.343c0.094,0.068 0.217,0.103 0.368,0.103Z" style="fill:#333;fill-rule:nonzero;"/></svg>