<?xml version="1.0" encoding="UTF-8" standalone="no"?><!DOCTYPE svg PUBLIC "-//W3C//DTD SVG 1.1//EN" "http://www.w3.org/Graphics/SVG/1.1/DTD/svg11.dtd"><svg width="100%" height="100%" viewBox="0 0 450 482" version="1.1" xmlns="http://www.w3.org/2000/svg" xmlns:xlink="http://www.w3.org/1999/xlink" xml:space="preserve" style="fill-rule:evenodd;clip-rule:evenodd;stroke-linecap:round;stroke-linejoin:round;stroke-miterlimit:10;"><g><g><path d="M43.371,264.108l0,-38.35" style="fill:none;stroke:#272829;stroke-width:4.57px;"/><path d="M155.68,405.406l-44.741,-25.566" style="fill:none;stroke:#272829;stroke-width:4.57px;"/><path d="M323.001,386.232l-33.556,19.174" style="fill:none;stroke:#272829;stroke-width:4.57px;"/><path d="M401.754,225.758l0,38.35" style="fill:none;stroke:#272829;stroke-width:4.57px;"/><path d="M289.445,71.677l33.556,19.174" style="fill:none;stroke:#272829;stroke-width:4.57px;"/><path d="M99.754,103.634l55.926,-31.957" style="fill:none;stroke:#272829;stroke-width:4.57px;"/><g id="Duotone"><path d="M264.792,442.842l0,-54.784l-82.177,0l0,54.784l-9.13,27.393l6.848,9.13l86.742,0l6.848,-9.13l-9.131,-27.393Z" style="fill:#fff;fill-rule:nonzero;stroke:#272829;stroke-width:1px;stroke-linecap:butt;stroke-miterlimit:1.41421;"/><path d="M264.792,388.058l0,54.784l-82.177,0l82.177,-54.784Z" style="fill:#ccefff;fill-rule:nonzero;stroke:#272829;stroke-width:1px;stroke-linecap:butt;stroke-miterlimit:1.41421;"/><path d="M173.485,470.235l6.848,9.13l86.742,0l6.848,-9.13l-100.438,0Z" style="fill:#ccefff;fill-rule:nonzero;stroke:#272829;stroke-width:1px;stroke-linecap:butt;stroke-miterlimit:1.41421;"/><rect x="182.615" y="388.058" width="82.177" height="54.785" style="fill:none;stroke:#272829;stroke-width:4.57px;stroke-miterlimit:4;"/><path d="M264.792,442.842l9.131,27.393l-100.438,0l9.13,-27.393" style="fill:none;stroke:#272829;stroke-width:4.57px;stroke-miterlimit:4;"/><path d="M173.485,470.235l6.848,9.13l86.742,0l6.848,-9.13l-100.438,0Z" style="fill:none;stroke:#272829;stroke-width:4.57px;stroke-miterlimit:4;"/><path d="M210.008,470.235l4.565,-9.131l18.262,0l4.565,9.131" style="fill:none;stroke:#272829;stroke-width:4.57px;stroke-miterlimit:4;"/></g><g><path d="M438.277,203.16l-86.742,0l9.13,-18.262l68.481,0l9.131,18.262Z" style="fill:#fff;fill-rule:nonzero;stroke:#272829;stroke-width:1px;stroke-linecap:butt;stroke-miterlimit:1.41421;"/><path d="M447.408,162.071l0,-63.915l-100.439,0l0,63.915l41.089,0l0,6.848l-9.131,6.848l36.523,0l-9.131,-6.848l0,-6.848l41.089,0Z" style="fill:#fff;fill-rule:nonzero;stroke:#272829;stroke-width:1px;stroke-linecap:butt;stroke-miterlimit:1.41421;"/><path d="M447.408,98.156l-100.439,50.219l100.439,0l0,-50.219Z" style="fill:#ccefff;fill-rule:nonzero;stroke:#272829;stroke-width:1px;stroke-linecap:butt;stroke-miterlimit:1.41421;"/><rect x="346.969" y="98.156" width="100.438" height="63.915" style="fill:none;stroke:#272829;stroke-width:4.57px;"/><path d="M346.969,148.375l100.439,0" style="fill:none;stroke:#272829;stroke-width:4.57px;"/><path d="M406.319,162.071l0,6.848l9.131,6.848l-36.523,0l9.131,-6.848l0,-6.848" style="fill:none;stroke:#272829;stroke-width:4.57px;"/><path d="M438.277,203.16l-86.742,0l9.13,-18.262l68.481,0l9.131,18.262Z" style="fill:none;stroke:#272829;stroke-width:4.57px;"/><path d="M365.231,194.029l4.565,0" style="fill:none;stroke:#272829;stroke-width:4.57px;"/><path d="M378.927,194.029l4.565,0" style="fill:none;stroke:#272829;stroke-width:4.57px;"/><path d="M392.623,194.029l4.565,0" style="fill:none;stroke:#272829;stroke-width:4.57px;"/><path d="M406.319,194.029l4.566,0" style="fill:none;stroke:#272829;stroke-width:4.57px;"/><path d="M420.015,194.029l4.566,0" style="fill:none;stroke:#272829;stroke-width:4.57px;"/></g><g id="Duotone_2_"><rect x="2.283" y="283.054" width="82.177" height="105.004" style="fill:#fff;stroke:#272829;stroke-width:1px;stroke-linecap:butt;stroke-miterlimit:1.41421;"/><path d="M2.283,369.796l82.177,0l0,-86.742l-82.177,86.742Zm45.654,-27.392l-9.131,0l0,-9.131l9.131,0l0,9.131Zm18.261,-18.262l-9.131,0l0,-9.13l9.131,0l0,9.13Z" style="fill:#ccefff;fill-rule:nonzero;stroke:#272829;stroke-width:1px;stroke-linecap:butt;stroke-miterlimit:1.41421;"/><rect x="20.544" y="296.75" width="9.131" height="9.131" style="fill:none;stroke:#272829;stroke-width:4.57px;"/><rect x="38.806" y="296.75" width="9.131" height="9.131" style="fill:none;stroke:#272829;stroke-width:4.57px;"/><rect x="20.544" y="315.012" width="9.131" height="9.131" style="fill:none;stroke:#272829;stroke-width:4.57px;"/><rect x="38.806" y="315.012" width="9.131" height="9.131" style="fill:none;stroke:#272829;stroke-width:4.57px;"/><rect x="20.544" y="333.273" width="9.131" height="9.131" style="fill:none;stroke:#272829;stroke-width:4.57px;"/><rect x="57.067" y="296.75" width="9.131" height="9.131" style="fill:none;stroke:#272829;stroke-width:4.57px;"/><rect x="57.067" y="315.012" width="9.131" height="9.131" style="fill:none;stroke:#272829;stroke-width:4.57px;"/><rect x="38.806" y="333.273" width="9.131" height="9.131" style="fill:none;stroke:#272829;stroke-width:4.57px;"/><rect x="2.283" y="283.054" width="82.177" height="105.004" style="fill:none;stroke:#272829;stroke-width:4.57px;"/><path d="M84.46,369.796l-82.177,0" style="fill:none;stroke:#272829;stroke-width:4.57px;"/><path d="M38.806,378.927l9.131,0" style="fill:none;stroke:#272829;stroke-width:4.57px;"/></g><g id="Duotone_1_"><rect x="340.121" y="289.902" width="105.004" height="82.177" style="fill:#fff;stroke:#272829;stroke-width:1px;stroke-linecap:butt;stroke-miterlimit:1.41421;"/><path d="M430.059,317.294l1.37,0l0,9.131l-16.207,0l-15.066,9.131l31.273,0l0,9.131l-36.523,0l0,-5.935l-9.131,5.478l0,18.718l-30.588,0l-15.066,9.131l105.004,0l0,-63.916l-15.066,9.131Zm1.37,45.654l-36.523,0l0,-9.131l36.523,0l0,9.131Z" style="fill:#ccefff;fill-rule:nonzero;stroke:#272829;stroke-width:1px;stroke-linecap:butt;stroke-miterlimit:1.41421;"/><g><path d="M353.881,296.751l0.064,0.003l0.064,0.004l0.064,0.007l0.063,0.008l0.064,0.009l0.063,0.012l0.062,0.013l0.062,0.016l0.062,0.016l0.062,0.019l0.06,0.02l0.06,0.022l0.06,0.024l0.059,0.025l0.058,0.027l0.057,0.029l0.057,0.03l0.055,0.032l0.055,0.033l0.054,0.035l0.052,0.036l0.052,0.038l0.051,0.039l0.049,0.041l0.048,0.042l0.048,0.043l0.045,0.045l0.045,0.046l0.043,0.047l0.042,0.048l0.041,0.05l0.039,0.05l0.038,0.052l0.036,0.053l0.035,0.053l0.033,0.055l0.032,0.056l0.03,0.056l0.029,0.057l0.027,0.059l0.025,0.058l0.024,0.06l0.022,0.06l0.02,0.061l0.019,0.061l0.017,0.062l0.015,0.062l0.013,0.063l0.012,0.063l0.01,0.063l0.008,0.063l0.006,0.064l0.004,0.064l0.003,0.064l0.001,0.064l-0.001,0.064l-0.003,0.064l-0.004,0.064l-0.006,0.063l-0.008,0.064l-0.01,0.063l-0.012,0.063l-0.013,0.063l-0.015,0.062l-0.017,0.062l-0.019,0.061l-0.02,0.061l-0.022,0.06l-0.024,0.059l-0.025,0.059l-0.027,0.058l-0.029,0.058l-0.03,0.056l-0.032,0.056l-0.033,0.054l-0.035,0.054l-0.036,0.053l-0.038,0.052l-0.039,0.05l-0.041,0.05l-0.042,0.048l-0.043,0.047l-0.045,0.046l-0.045,0.045l-0.048,0.043l-0.048,0.042l-0.049,0.041l-0.051,0.039l-0.052,0.038l-0.052,0.036l-0.054,0.035l-0.055,0.033l-0.055,0.032l-0.057,0.03l-0.057,0.029l-0.058,0.026l-0.059,0.026l-0.06,0.023l-0.06,0.022l-0.06,0.021l-0.062,0.018l-0.062,0.017l-0.062,0.015l-0.062,0.014l-0.063,0.011l-0.064,0.01l-0.063,0.008l-0.064,0.006l-0.064,0.005l-0.064,0.003l-0.064,0.001l-4.565,0l-0.064,-0.001l-0.064,-0.003l-0.064,-0.005l-0.064,-0.006l-0.063,-0.008l-0.063,-0.01l-0.063,-0.011l-0.063,-0.014l-0.062,-0.015l-0.062,-0.017l-0.061,-0.018l-0.061,-0.021l-0.06,-0.022l-0.06,-0.023l-0.058,-0.026l-0.058,-0.026l-0.058,-0.029l-0.056,-0.03l-0.056,-0.032l-0.055,-0.033l-0.053,-0.035l-0.053,-0.036l-0.052,-0.038l-0.05,-0.039l-0.05,-0.041l-0.048,-0.042l-0.047,-0.043l-0.046,-0.045l-0.045,-0.046l-0.043,-0.047l-0.042,-0.048l-0.041,-0.05l-0.039,-0.05l-0.038,-0.052l-0.036,-0.053l-0.035,-0.054l-0.033,-0.054l-0.032,-0.056l-0.03,-0.056l-0.029,-0.058l-0.027,-0.058l-0.025,-0.059l-0.024,-0.059l-0.022,-0.06l-0.02,-0.061l-0.019,-0.061l-0.016,-0.062l-0.016,-0.062l-0.013,-0.063l-0.011,-0.063l-0.01,-0.063l-0.008,-0.064l-0.007,-0.063l-0.004,-0.064l-0.003,-0.064l-0.001,-0.064l0.001,-0.064l0.003,-0.064l0.004,-0.064l0.007,-0.064l0.008,-0.063l0.01,-0.063l0.011,-0.063l0.013,-0.063l0.016,-0.062l0.016,-0.062l0.019,-0.061l0.02,-0.061l0.022,-0.06l0.024,-0.06l0.025,-0.058l0.027,-0.059l0.029,-0.057l0.03,-0.056l0.032,-0.056l0.033,-0.055l0.035,-0.053l0.036,-0.053l0.038,-0.052l0.039,-0.05l0.041,-0.05l0.042,-0.048l0.043,-0.047l0.045,-0.046l0.046,-0.045l0.047,-0.043l0.048,-0.042l0.05,-0.041l0.05,-0.039l0.052,-0.038l0.053,-0.036l0.053,-0.035l0.055,-0.033l0.056,-0.032l0.056,-0.03l0.058,-0.029l0.058,-0.027l0.058,-0.025l0.06,-0.024l0.06,-0.022l0.061,-0.02l0.061,-0.019l0.062,-0.016l0.062,-0.016l0.063,-0.013l0.063,-0.012l0.063,-0.009l0.063,-0.008l0.064,-0.007l0.064,-0.004l0.064,-0.003l0.064,-0.001l4.565,0l0.064,0.001Z" style="fill:#272829;"/><path d="M367.578,296.751l0.063,0.003l0.064,0.004l0.064,0.007l0.064,0.008l0.063,0.009l0.063,0.012l0.062,0.013l0.063,0.016l0.061,0.016l0.062,0.019l0.06,0.02l0.061,0.022l0.059,0.024l0.059,0.025l0.058,0.027l0.057,0.029l0.057,0.03l0.055,0.032l0.055,0.033l0.054,0.035l0.052,0.036l0.052,0.038l0.051,0.039l0.049,0.041l0.049,0.042l0.047,0.043l0.046,0.045l0.044,0.046l0.044,0.047l0.042,0.048l0.04,0.05l0.039,0.05l0.038,0.052l0.036,0.053l0.035,0.053l0.034,0.055l0.031,0.056l0.031,0.056l0.028,0.057l0.027,0.059l0.025,0.058l0.024,0.06l0.022,0.06l0.02,0.061l0.019,0.061l0.017,0.062l0.015,0.062l0.013,0.063l0.012,0.063l0.01,0.063l0.008,0.063l0.006,0.064l0.005,0.064l0.002,0.064l0.001,0.064l-0.001,0.064l-0.002,0.064l-0.005,0.064l-0.006,0.063l-0.008,0.064l-0.01,0.063l-0.012,0.063l-0.013,0.063l-0.015,0.062l-0.017,0.062l-0.019,0.061l-0.02,0.061l-0.022,0.06l-0.024,0.059l-0.025,0.059l-0.027,0.058l-0.028,0.058l-0.031,0.056l-0.031,0.056l-0.034,0.054l-0.035,0.054l-0.036,0.053l-0.038,0.052l-0.039,0.05l-0.04,0.05l-0.042,0.048l-0.044,0.047l-0.044,0.046l-0.046,0.045l-0.047,0.043l-0.049,0.042l-0.049,0.041l-0.051,0.039l-0.052,0.038l-0.052,0.036l-0.054,0.035l-0.055,0.033l-0.055,0.032l-0.057,0.03l-0.057,0.029l-0.058,0.026l-0.059,0.026l-0.059,0.023l-0.061,0.022l-0.06,0.021l-0.062,0.018l-0.061,0.017l-0.063,0.015l-0.062,0.014l-0.063,0.011l-0.063,0.01l-0.064,0.008l-0.064,0.006l-0.064,0.005l-0.063,0.003l-0.065,0.001l-4.565,0l-0.064,-0.001l-0.064,-0.003l-0.064,-0.005l-0.063,-0.006l-0.064,-0.008l-0.063,-0.01l-0.063,-0.011l-0.063,-0.014l-0.062,-0.015l-0.062,-0.017l-0.061,-0.018l-0.061,-0.021l-0.06,-0.022l-0.059,-0.023l-0.059,-0.026l-0.058,-0.026l-0.058,-0.029l-0.056,-0.03l-0.056,-0.032l-0.054,-0.033l-0.054,-0.035l-0.053,-0.036l-0.052,-0.038l-0.05,-0.039l-0.05,-0.041l-0.048,-0.042l-0.047,-0.043l-0.046,-0.045l-0.045,-0.046l-0.043,-0.047l-0.042,-0.048l-0.041,-0.05l-0.039,-0.05l-0.038,-0.052l-0.036,-0.053l-0.035,-0.054l-0.033,-0.054l-0.032,-0.056l-0.03,-0.056l-0.029,-0.058l-0.026,-0.058l-0.026,-0.059l-0.023,-0.059l-0.022,-0.06l-0.021,-0.061l-0.018,-0.061l-0.017,-0.062l-0.015,-0.062l-0.014,-0.063l-0.011,-0.063l-0.01,-0.063l-0.008,-0.064l-0.007,-0.063l-0.004,-0.064l-0.003,-0.064l-0.001,-0.064l0.001,-0.064l0.003,-0.064l0.004,-0.064l0.007,-0.064l0.008,-0.063l0.01,-0.063l0.011,-0.063l0.014,-0.063l0.015,-0.062l0.017,-0.062l0.018,-0.061l0.021,-0.061l0.022,-0.06l0.023,-0.06l0.026,-0.058l0.026,-0.059l0.029,-0.057l0.03,-0.056l0.032,-0.056l0.033,-0.055l0.035,-0.053l0.036,-0.053l0.038,-0.052l0.039,-0.05l0.041,-0.05l0.042,-0.048l0.043,-0.047l0.045,-0.046l0.046,-0.045l0.047,-0.043l0.048,-0.042l0.05,-0.041l0.05,-0.039l0.052,-0.038l0.053,-0.036l0.054,-0.035l0.054,-0.033l0.056,-0.032l0.056,-0.03l0.058,-0.029l0.058,-0.027l0.059,-0.025l0.059,-0.024l0.06,-0.022l0.061,-0.02l0.061,-0.019l0.062,-0.016l0.062,-0.016l0.063,-0.013l0.063,-0.012l0.063,-0.009l0.064,-0.008l0.063,-0.007l0.064,-0.004l0.064,-0.003l0.064,-0.001l4.565,0l0.065,0.001Z" style="fill:#272829;"/><path d="M381.274,296.751l0.064,0.003l0.064,0.004l0.063,0.007l0.064,0.008l0.063,0.009l0.063,0.012l0.063,0.013l0.062,0.016l0.062,0.016l0.061,0.019l0.061,0.02l0.06,0.022l0.059,0.024l0.059,0.025l0.058,0.027l0.057,0.029l0.057,0.03l0.055,0.032l0.055,0.033l0.054,0.035l0.053,0.036l0.051,0.038l0.051,0.039l0.049,0.041l0.049,0.042l0.047,0.043l0.046,0.045l0.044,0.046l0.044,0.047l0.042,0.048l0.04,0.05l0.04,0.05l0.037,0.052l0.037,0.053l0.034,0.053l0.034,0.055l0.032,0.056l0.03,0.056l0.028,0.057l0.027,0.059l0.026,0.058l0.023,0.06l0.022,0.06l0.021,0.061l0.018,0.061l0.017,0.062l0.015,0.062l0.013,0.063l0.012,0.063l0.01,0.063l0.008,0.063l0.006,0.064l0.005,0.064l0.002,0.064l0.001,0.064l-0.001,0.064l-0.002,0.064l-0.005,0.064l-0.006,0.063l-0.008,0.064l-0.01,0.063l-0.012,0.063l-0.013,0.063l-0.015,0.062l-0.017,0.062l-0.018,0.061l-0.021,0.061l-0.022,0.06l-0.023,0.059l-0.026,0.059l-0.027,0.058l-0.028,0.058l-0.03,0.056l-0.032,0.056l-0.034,0.054l-0.034,0.054l-0.037,0.053l-0.037,0.052l-0.04,0.05l-0.04,0.05l-0.042,0.048l-0.044,0.047l-0.044,0.046l-0.046,0.045l-0.047,0.043l-0.049,0.042l-0.049,0.041l-0.051,0.039l-0.051,0.038l-0.053,0.036l-0.054,0.035l-0.055,0.033l-0.055,0.032l-0.057,0.03l-0.057,0.029l-0.058,0.026l-0.059,0.026l-0.059,0.023l-0.06,0.022l-0.061,0.021l-0.061,0.018l-0.062,0.017l-0.062,0.015l-0.063,0.014l-0.063,0.011l-0.063,0.01l-0.064,0.008l-0.063,0.006l-0.064,0.005l-0.064,0.003l-0.064,0.001l-4.566,0l-0.064,-0.001l-0.064,-0.003l-0.064,-0.005l-0.063,-0.006l-0.064,-0.008l-0.063,-0.01l-0.063,-0.011l-0.063,-0.014l-0.062,-0.015l-0.062,-0.017l-0.061,-0.018l-0.061,-0.021l-0.06,-0.022l-0.059,-0.023l-0.059,-0.026l-0.058,-0.026l-0.057,-0.029l-0.057,-0.03l-0.056,-0.032l-0.054,-0.033l-0.054,-0.035l-0.053,-0.036l-0.051,-0.038l-0.051,-0.039l-0.049,-0.041l-0.049,-0.042l-0.047,-0.043l-0.046,-0.045l-0.044,-0.046l-0.044,-0.047l-0.042,-0.048l-0.04,-0.05l-0.04,-0.05l-0.037,-0.052l-0.037,-0.053l-0.035,-0.054l-0.033,-0.054l-0.032,-0.056l-0.03,-0.056l-0.028,-0.058l-0.027,-0.058l-0.026,-0.059l-0.023,-0.059l-0.022,-0.06l-0.021,-0.061l-0.018,-0.061l-0.017,-0.062l-0.015,-0.062l-0.014,-0.063l-0.011,-0.063l-0.01,-0.063l-0.008,-0.064l-0.006,-0.063l-0.005,-0.064l-0.003,-0.064l0,-0.064l0,-0.064l0.003,-0.064l0.005,-0.064l0.006,-0.064l0.008,-0.063l0.01,-0.063l0.011,-0.063l0.014,-0.063l0.015,-0.062l0.017,-0.062l0.018,-0.061l0.021,-0.061l0.022,-0.06l0.023,-0.06l0.026,-0.058l0.027,-0.059l0.028,-0.057l0.03,-0.056l0.032,-0.056l0.033,-0.055l0.035,-0.053l0.037,-0.053l0.037,-0.052l0.04,-0.05l0.04,-0.05l0.042,-0.048l0.044,-0.047l0.044,-0.046l0.046,-0.045l0.047,-0.043l0.049,-0.042l0.049,-0.041l0.051,-0.039l0.051,-0.038l0.053,-0.036l0.054,-0.035l0.054,-0.033l0.056,-0.032l0.057,-0.03l0.057,-0.029l0.058,-0.027l0.059,-0.025l0.059,-0.024l0.06,-0.022l0.061,-0.02l0.061,-0.019l0.062,-0.016l0.062,-0.016l0.063,-0.013l0.063,-0.012l0.063,-0.009l0.064,-0.008l0.063,-0.007l0.064,-0.004l0.064,-0.003l0.064,-0.001l4.566,0l0.064,0.001Z" style="fill:#272829;"/><rect x="340.121" y="289.902" width="105.004" height="82.177" style="fill:none;stroke:#272829;stroke-width:4.57px;stroke-miterlimit:4;"/><path d="M340.121,308.163l105.004,0" style="fill:none;stroke:#272829;stroke-width:4.57px;stroke-miterlimit:4;"/><rect x="394.906" y="335.556" width="36.523" height="9.131" style="fill:none;stroke:#272829;stroke-width:4.57px;stroke-miterlimit:4;"/><rect x="394.906" y="317.294" width="36.523" height="9.131" style="fill:none;stroke:#272829;stroke-width:4.57px;stroke-miterlimit:4;"/><rect x="394.906" y="353.817" width="36.523" height="9.131" style="fill:none;stroke:#272829;stroke-width:4.57px;stroke-miterlimit:4;"/><rect x="349.252" y="317.294" width="36.523" height="45.654" style="fill:none;stroke:#272829;stroke-width:4.57px;stroke-miterlimit:4;"/><path d="M376.644,344.687l-9.131,4.565l-9.13,-4.565l0,-11.414l9.13,-4.565l9.131,4.565l0,11.414Z" style="fill:none;stroke:#272829;stroke-width:4.57px;stroke-miterlimit:4;"/><path d="M349.252,362.948l6.848,-9.131l22.827,0l6.848,9.131" style="fill:none;stroke:#272829;stroke-width:4.57px;stroke-miterlimit:4;"/></g></g><g><path d="M82.177,134.679l-6.848,0l0,-18.262l-11.414,-9.13l-2.282,-9.131l-45.654,0l-2.283,9.131l-11.413,9.13l0,63.916l11.413,9.13l2.283,9.131l45.654,0l2.282,-9.131l11.414,-9.13l0,-31.958l6.848,0l2.283,-6.848l-2.283,-6.848Z" style="fill:#fff;fill-rule:nonzero;stroke:#272829;stroke-width:1px;stroke-linecap:butt;stroke-miterlimit:1.41421;"/><path d="M38.806,164.354l22.827,-22.827l-11.414,-13.696l-11.413,9.131l0,27.392Z" style="fill:#ccefff;fill-rule:nonzero;stroke:#272829;stroke-width:1px;stroke-linecap:butt;stroke-miterlimit:1.41421;"/><path d="M55.241,133.994l6.392,7.533l-22.827,22.827l-8.446,-8.446l-28.077,24.425l73.046,0l0,-63.916l-20.088,17.577Z" style="fill:#ccefff;fill-rule:nonzero;stroke:#272829;stroke-width:1px;stroke-linecap:butt;stroke-miterlimit:1.41421;"/><rect x="2.283" y="116.417" width="73.046" height="63.915" style="fill:none;stroke:#272829;stroke-width:4.57px;"/><path d="M75.329,116.417l-11.414,-9.13l-2.282,-9.131l-45.654,0l-2.283,9.131l-11.413,9.13" style="fill:none;stroke:#272829;stroke-width:4.57px;"/><path d="M75.329,180.333l-11.414,9.13l-2.282,9.131l-45.654,0l-2.283,-9.131l-11.413,-9.13" style="fill:none;stroke:#272829;stroke-width:4.57px;"/><path d="M75.329,134.679l6.848,0l2.283,6.848l-2.283,6.848l-6.848,0" style="fill:none;stroke:#272829;stroke-width:4.57px;"/><path d="M13.696,107.287l50.219,0" style="fill:none;stroke:#272829;stroke-width:4.57px;"/><path d="M13.696,189.463l50.219,0" style="fill:none;stroke:#272829;stroke-width:4.57px;"/><path d="M38.806,164.354l22.827,-22.827l-11.414,-13.696l-11.413,9.131l-11.414,-9.131l-11.413,13.696l22.827,22.827Z" style="fill:none;stroke:#272829;stroke-width:4.57px;stroke-linecap:butt;"/><path d="M38.806,164.354l22.827,-22.827l-11.414,-13.696l-11.413,9.131l-11.414,-9.131l-11.413,13.696l22.827,22.827Z" style="fill:none;stroke:#272829;stroke-width:4.57px;"/><path d="M38.806,164.354l22.827,-22.827l-11.414,-13.696l-11.413,9.131l-11.414,-9.131l-11.413,13.696l22.827,22.827Z" style="fill:none;stroke:#272829;stroke-width:4.57px;stroke-linecap:butt;"/></g><g><path d="M188.322,57.067l2.283,9.131l25.109,0l11.414,-18.261l11.413,18.261l25.11,0l9.131,-36.523l-91.308,0l3.424,13.696" style="fill:#fff;fill-rule:nonzero;stroke:#272829;stroke-width:1px;stroke-linecap:butt;stroke-miterlimit:1.41421;"/><path d="M263.651,66.198l9.131,-36.523l-16.207,0l-25.11,25.11l7.076,11.413l25.11,0Z" style="fill:#ccefff;fill-rule:nonzero;stroke:#272829;stroke-width:1px;stroke-linecap:butt;stroke-miterlimit:1.41421;"/><path d="M202.018,57.067l-27.392,0l-2.283,-13.696l36.523,0l-6.848,13.696Z" style="fill:#ccefff;fill-rule:nonzero;stroke:#272829;stroke-width:1px;stroke-linecap:butt;stroke-miterlimit:1.41421;"/><path d="M181.474,29.675l26.251,-27.392l10.272,0" style="fill:none;stroke:#272829;stroke-width:4.57px;"/><path d="M272.782,29.675l-26.251,-27.392l-10.272,0" style="fill:none;stroke:#272829;stroke-width:4.57px;"/><path d="M202.018,57.067l-27.392,0l-2.283,-13.696l36.523,0l-6.848,13.696Z" style="fill:none;stroke:#272829;stroke-width:4.57px;"/><path d="M188.322,57.067l2.283,9.131l25.109,0l11.414,-18.261l11.413,18.261l25.11,0l9.131,-36.523l-91.308,0l3.424,13.696" style="fill:none;stroke:#272829;stroke-width:4.57px;"/></g></g></g></svg>