<?xml version="1.0" encoding="UTF-8" standalone="no"?><!DOCTYPE svg PUBLIC "-//W3C//DTD SVG 1.1//EN" "http://www.w3.org/Graphics/SVG/1.1/DTD/svg11.dtd"><svg width="100%" height="100%" viewBox="0 0 2070 269" version="1.1" xmlns="http://www.w3.org/2000/svg" xmlns:xlink="http://www.w3.org/1999/xlink" xml:space="preserve" style="fill-rule:evenodd;clip-rule:evenodd;stroke-linejoin:round;stroke-miterlimit:1.41421;"><g><path d="M185.973,36.765l185.974,231.566l-371.947,0l185.973,-231.566Z" style="fill:#024d74;"/><path d="M560.816,120.043l119.092,148.288l-238.184,0l119.092,-148.288Z" style="fill:#0185b5;"/><path d="M409.362,77.889l151.454,188.584l-302.908,0l151.454,-188.584Z" style="fill:#023e62;"/><path d="M683.546,79.747l151.454,188.584l-302.908,0l151.454,-188.584Z" style="fill:#024d74;"/><path d="M1441.42,60l132.923,208.331l-265.846,0l132.923,-208.331Z" style="fill:#0185b5;"/><path d="M1257.5,49.806l148.5,218.525l-297,0l148.5,-218.525Z" style="fill:#024d74;"/><path d="M1687.58,60l132.923,208.331l-265.846,0l132.923,-208.331Z" style="fill:#68b0d2;"/><path d="M1854.5,0l215.5,268.331l-431,0l215.5,-268.331Z" style="fill:#024d74;"/><path d="M1566,0l162,268.331l-324,0l162,-268.331Z" style="fill:#023e62;"/></g></svg>