<?xml version="1.0" encoding="UTF-8" standalone="no"?><!DOCTYPE svg PUBLIC "-//W3C//DTD SVG 1.1//EN" "http://www.w3.org/Graphics/SVG/1.1/DTD/svg11.dtd"><svg width="100%" height="100%" viewBox="0 0 372 137" version="1.1" xmlns="http://www.w3.org/2000/svg" xmlns:xlink="http://www.w3.org/1999/xlink" xml:space="preserve" style="fill-rule:evenodd;clip-rule:evenodd;stroke-linejoin:round;stroke-miterlimit:1.41421;"><g transform="matrix(13.3769,0,0,13.3769,-654.841,-4056.33)"><path d="M48.953,311.899l1.68,0l0,-2.484l3.252,0l0,-1.5l-3.252,0l0,-2.7l3.576,0l0,-1.476l-5.256,0l0,8.16Z" style="fill:#fff;fill-rule:nonzero;"/><path d="M57.977,312.007c1.596,0 2.784,-0.828 2.784,-2.34c0,-1.404 -0.804,-2.028 -2.232,-2.64l-0.42,-0.18c-0.72,-0.312 -1.032,-0.516 -1.032,-1.02c0,-0.408 0.312,-0.72 0.804,-0.72c0.48,0 0.792,0.204 1.08,0.72l1.308,-0.84c-0.552,-0.972 -1.32,-1.344 -2.388,-1.344c-1.5,0 -2.46,0.96 -2.46,2.22c0,1.368 0.804,2.016 2.016,2.532l0.42,0.18c0.768,0.336 1.224,0.54 1.224,1.116c0,0.48 -0.444,0.828 -1.14,0.828c-0.828,0 -1.296,-0.432 -1.656,-1.02l-1.368,0.792c0.492,0.972 1.5,1.716 3.06,1.716Z" style="fill:#fff;fill-rule:nonzero;"/><path d="M61.025,313.435l1.584,0l3.348,-10.2l-1.584,0l-3.348,10.2Z" style="fill:#fff;fill-rule:nonzero;"/><path d="M67.481,312.007c1.488,0 2.508,-0.792 2.508,-2.532l0,-5.736l-1.68,0l0,5.712c0,0.84 -0.348,1.056 -0.9,1.056c-0.576,0 -0.816,-0.396 -1.08,-0.864l-1.368,0.828c0.396,0.84 1.176,1.536 2.52,1.536Z" style="fill:#f8d473;fill-rule:nonzero;"/><path d="M73.961,312.007c1.596,0 2.784,-0.828 2.784,-2.34c0,-1.404 -0.804,-2.028 -2.232,-2.64l-0.42,-0.18c-0.72,-0.312 -1.032,-0.516 -1.032,-1.02c0,-0.408 0.312,-0.72 0.804,-0.72c0.48,0 0.792,0.204 1.08,0.72l1.308,-0.84c-0.552,-0.972 -1.32,-1.344 -2.388,-1.344c-1.5,0 -2.46,0.96 -2.46,2.22c0,1.368 0.804,2.016 2.016,2.532l0.42,0.18c0.768,0.336 1.224,0.54 1.224,1.116c0,0.48 -0.444,0.828 -1.14,0.828c-0.828,0 -1.296,-0.432 -1.656,-1.02l-1.368,0.792c0.492,0.972 1.5,1.716 3.06,1.716Z" style="fill:#f8d473;fill-rule:nonzero;"/></g></svg>