<?xml version="1.0" encoding="UTF-8" standalone="no"?>
<!DOCTYPE svg PUBLIC "-//W3C//DTD SVG 1.1//EN" "http://www.w3.org/Graphics/SVG/1.1/DTD/svg11.dtd">
<svg width="100%" height="100%" viewBox="0 0 286 300" version="1.1" xmlns="http://www.w3.org/2000/svg" xmlns:xlink="http://www.w3.org/1999/xlink" xml:space="preserve" style="fill-rule:evenodd;clip-rule:evenodd;stroke-linecap:round;stroke-linejoin:round;stroke-miterlimit:1.5;">
    <g transform="matrix(1,0,0,1,-45.1885,-51)">
        <g transform="matrix(1,0,0,1,-10.5488,-17.9815)">
            <g id="XMLID_13_" transform="matrix(4.24963,0,0,4.24963,135.628,67.2307)">
                <path d="M27.667,33.736C26.734,35.611 25.198,36.981 23.216,37.972C22.257,38.452 21.246,38.823 20.191,39.098C20.128,39.129 20.065,39.159 19.97,39.153C20.02,39.087 20.092,39.08 20.153,39.056C20.835,38.734 21.255,38.214 21.476,37.573C21.964,36.157 21.902,34.762 21.177,33.414C20.808,32.728 20.364,32.075 20.053,31.363C19.729,30.622 19.408,29.881 19.285,29.086C19.257,28.903 19.276,28.72 19.277,28.52C19.159,28.557 19.117,28.638 19.065,28.705C18.497,29.442 18.253,30.273 18.195,31.154C18.154,31.778 18.212,32.398 18.344,33.013C18.354,33.058 18.362,33.104 18.366,33.15C18.368,33.167 18.355,33.186 18.343,33.221C18.205,33.165 18.114,33.07 18.025,32.976C17.382,32.307 17.13,31.51 17.085,30.648C17.04,29.791 17.193,28.955 17.483,28.142C17.911,26.945 17.825,25.762 17.402,24.588C17.024,23.542 16.314,22.701 15.351,22.027C15.31,21.999 15.267,21.973 15.224,21.947C15.213,21.94 15.197,21.941 15.18,21.937C15.127,21.988 15.175,22.036 15.192,22.08C16.114,24.589 15.314,27.312 12.972,28.75C12.009,29.342 11.63,29.554 11.396,29.675C11.374,29.686 11.239,29.75 11.06,29.846C11.06,29.846 10.949,29.905 10.846,29.965C10.615,30.098 10.385,30.266 10.168,30.445C9.232,31.216 8.608,32.295 8.419,33.493C8.295,34.278 8.274,35.2 8.492,36.137C8.668,36.892 8.972,37.437 9.141,37.704C9.705,38.597 10.552,39.294 11.66,39.81C11.687,39.819 11.732,39.839 11.716,39.858C11.675,39.907 11.625,39.863 11.579,39.851C8.535,39.178 5.771,38.035 3.588,35.955C1.958,34.402 1.112,32.542 1.011,30.409C0.917,28.407 1.469,26.523 2.285,24.685C2.676,23.803 3.18,22.969 3.637,22.115C4.319,20.841 4.806,19.51 4.986,18.099C5.145,16.85 5.026,15.638 4.341,14.509C4.317,14.47 4.269,14.423 4.307,14.383C4.352,14.336 4.419,14.37 4.473,14.386C5.058,14.558 5.571,14.843 6.027,15.21C6.969,15.967 7.549,16.926 7.929,17.989C8.466,19.491 8.593,21.038 8.53,22.604C8.512,23.041 8.475,23.477 8.448,23.913C8.445,23.962 8.413,24.027 8.487,24.053C8.543,24.072 8.581,24.025 8.618,23.994C8.805,23.839 8.944,23.651 9.061,23.451C9.423,22.83 9.578,22.156 9.669,21.469C9.842,20.165 9.781,18.861 9.601,17.564C9.518,16.961 9.282,16.381 9.162,15.78C8.64,13.17 8.563,10.564 9.272,7.97C9.886,5.722 11.074,3.762 12.97,2.168C13.761,1.503 14.636,0.939 15.582,0.463C15.62,0.444 15.661,0.427 15.702,0.413C15.713,0.409 15.729,0.418 15.744,0.421C15.77,0.487 15.716,0.533 15.688,0.584C14.783,2.216 14.316,3.952 14.196,5.763C13.948,9.483 15.215,12.814 17.461,15.89C18.228,16.94 19.099,17.918 20.037,18.849C20.104,18.915 20.159,18.998 20.286,19.04C20.18,16.716 21.025,14.702 22.711,12.964C23.545,12.104 24.529,11.403 25.614,10.816C25.667,10.876 25.638,10.913 25.624,10.949C24.749,13.288 24.726,15.658 25.31,18.047C25.567,19.099 25.974,20.107 26.475,21.086C27.644,23.371 28.4,25.757 28.603,28.27C28.755,30.154 28.534,31.992 27.667,33.736Z" style="fill:url(#_Linear1);fill-rule:nonzero;"/>
            </g>
            <g transform="matrix(0.902384,0,0,0.902384,-1212.01,-498.213)">
                <g transform="matrix(1,0,0.0174551,1,-16.7692,0)">
                    <path d="M1448.28,960.844C1450.24,960.844 1451.65,959.974 1452.54,958.594L1450.9,957.469C1450.33,958.339 1449.6,958.969 1448.28,958.969C1446.43,958.969 1445.19,957.514 1445.19,955.609C1445.19,953.704 1446.43,952.279 1448.28,952.279C1449.45,952.279 1450.27,952.834 1450.75,953.614L1452.36,952.474C1451.44,951.049 1450.12,950.389 1448.28,950.389C1445.35,950.389 1443.03,952.594 1443.03,955.609C1443.03,958.624 1445.35,960.844 1448.28,960.844Z" style="fill:none;"/>
                    <path d="M1458.88,960.844C1461.82,960.844 1464.16,958.624 1464.16,955.609C1464.16,952.594 1461.82,950.374 1458.88,950.374C1455.94,950.374 1453.6,952.594 1453.6,955.609C1453.6,958.624 1455.94,960.844 1458.88,960.844ZM1458.88,958.969C1457.02,958.969 1455.76,957.514 1455.76,955.609C1455.76,953.704 1457.02,952.249 1458.88,952.249C1460.74,952.249 1462,953.704 1462,955.609C1462,957.514 1460.74,958.969 1458.88,958.969Z" style="fill:none;"/>
                    <path d="M1465.95,960.709L1472.67,960.709L1472.67,958.864L1468.05,958.864L1468.05,950.509L1465.95,950.509L1465.95,960.709Z" style="fill:none;"/>
                    <path d="M1474.36,960.709L1481.32,960.709L1481.32,958.864L1476.46,958.864L1476.46,957.394L1480.56,957.394L1480.56,955.594L1476.46,955.594L1476.46,952.354L1481.11,952.354L1481.11,950.509L1474.36,950.509L1474.36,960.709Z" style="fill:none;"/>
                    <path d="M1485.6,960.709L1487.7,960.709L1487.7,952.354L1490.61,952.354L1490.61,950.509L1482.69,950.509L1482.69,952.354L1485.6,952.354L1485.6,960.709Z" style="fill:none;"/>
                    <rect x="1492.2" y="950.509" width="2.1" height="10.2" style="fill:none;"/>
                    <path d="M1500.36,960.799L1500.57,960.799L1505.04,950.509L1503,950.509L1501.29,954.439C1500.9,955.324 1500.51,956.749 1500.51,956.749C1500.51,956.749 1500.1,955.309 1499.71,954.439L1497.96,950.509L1495.71,950.509L1500.36,960.799Z" style="fill:none;"/>
                    <path d="M1510.45,960.844C1513.39,960.844 1515.73,958.624 1515.73,955.609C1515.73,952.594 1513.39,950.374 1510.45,950.374C1507.51,950.374 1505.17,952.594 1505.17,955.609C1505.17,958.624 1507.51,960.844 1510.45,960.844ZM1510.45,958.969C1508.59,958.969 1507.33,957.514 1507.33,955.609C1507.33,953.704 1508.59,952.249 1510.45,952.249C1512.31,952.249 1513.57,953.704 1513.57,955.609C1513.57,957.514 1512.31,958.969 1510.45,958.969Z" style="fill:none;"/>
                    <path d="M1520.83,960.709L1523.97,960.709C1527.12,960.709 1529.34,958.624 1529.34,955.609C1529.34,952.594 1527.1,950.509 1523.97,950.509L1520.83,950.509L1520.83,960.709ZM1522.93,958.864L1522.93,952.354L1523.86,952.354C1526.13,952.354 1527.16,953.704 1527.16,955.609C1527.16,957.514 1526.13,958.864 1523.86,958.864L1522.93,958.864Z" style="fill:none;"/>
                    <path d="M1531.11,960.709L1538.07,960.709L1538.07,958.864L1533.21,958.864L1533.21,957.394L1537.3,957.394L1537.3,955.594L1533.21,955.594L1533.21,952.354L1537.86,952.354L1537.86,950.509L1531.11,950.509L1531.11,960.709Z" style="fill:none;"/>
                    <path d="M1543.33,960.709L1546.47,960.709C1549.62,960.709 1551.84,958.624 1551.84,955.609C1551.84,952.594 1549.6,950.509 1546.47,950.509L1543.33,950.509L1543.33,960.709ZM1545.43,958.864L1545.43,952.354L1546.36,952.354C1548.63,952.354 1549.66,953.704 1549.66,955.609C1549.66,957.514 1548.63,958.864 1546.36,958.864L1545.43,958.864Z" style="fill:none;"/>
                    <path d="M1553.61,960.709L1560.57,960.709L1560.57,958.864L1555.71,958.864L1555.71,957.394L1559.8,957.394L1559.8,955.594L1555.71,955.594L1555.71,952.354L1560.36,952.354L1560.36,950.509L1553.61,950.509L1553.61,960.709Z" style="fill:none;"/>
                    <path d="M1565.53,960.844C1567.53,960.844 1569.01,959.809 1569.01,957.919C1569.01,956.164 1568.01,955.384 1566.22,954.619L1565.7,954.394C1564.8,954.004 1564.41,953.749 1564.41,953.119C1564.41,952.609 1564.8,952.219 1565.41,952.219C1566.01,952.219 1566.4,952.474 1566.76,953.119L1568.4,952.069C1567.71,950.854 1566.75,950.389 1565.41,950.389C1563.54,950.389 1562.34,951.589 1562.34,953.164C1562.34,954.874 1563.34,955.684 1564.86,956.329L1565.38,956.554C1566.34,956.974 1566.91,957.229 1566.91,957.949C1566.91,958.549 1566.36,958.984 1565.49,958.984C1564.45,958.984 1563.87,958.444 1563.42,957.709L1561.71,958.699C1562.32,959.914 1563.58,960.844 1565.53,960.844Z" style="fill:none;"/>
                    <path d="M1570.65,960.709L1577.61,960.709L1577.61,958.864L1572.75,958.864L1572.75,957.394L1576.84,957.394L1576.84,955.594L1572.75,955.594L1572.75,952.354L1577.4,952.354L1577.4,950.509L1570.65,950.509L1570.65,960.709Z" style="fill:none;"/>
                    <path d="M1587.73,960.799L1587.94,960.799L1587.94,950.509L1585.98,950.509L1585.98,954.784C1585.98,955.489 1586.11,956.644 1586.11,956.644C1586.11,956.644 1585.41,955.714 1584.91,955.249L1579.77,950.419L1579.56,950.419L1579.56,960.709L1581.52,960.709L1581.52,956.434C1581.52,955.699 1581.37,954.574 1581.37,954.574C1581.37,954.574 1582.08,955.489 1582.59,955.969L1587.73,960.799Z" style="fill:none;"/>
                    <path d="M1593.97,960.799L1594.18,960.799L1598.65,950.509L1596.61,950.509L1594.9,954.439C1594.51,955.324 1594.12,956.749 1594.12,956.749C1594.12,956.749 1593.72,955.309 1593.33,954.439L1591.57,950.509L1589.32,950.509L1593.97,960.799Z" style="fill:none;"/>
                    <path d="M1604.07,960.844C1607.01,960.844 1609.35,958.624 1609.35,955.609C1609.35,952.594 1607.01,950.374 1604.07,950.374C1601.13,950.374 1598.79,952.594 1598.79,955.609C1598.79,958.624 1601.13,960.844 1604.07,960.844ZM1604.07,958.969C1602.21,958.969 1600.95,957.514 1600.95,955.609C1600.95,953.704 1602.21,952.249 1604.07,952.249C1605.93,952.249 1607.19,953.704 1607.19,955.609C1607.19,957.514 1605.93,958.969 1604.07,958.969Z" style="fill:none;"/>
                    <path d="M1611.13,960.709L1617.85,960.709L1617.85,958.864L1613.23,958.864L1613.23,950.509L1611.13,950.509L1611.13,960.709Z" style="fill:none;"/>
                    <path d="M1621.72,960.799L1621.93,960.799L1626.4,950.509L1624.36,950.509L1622.65,954.439C1622.26,955.324 1621.87,956.749 1621.87,956.749C1621.87,956.749 1621.47,955.309 1621.08,954.439L1619.32,950.509L1617.07,950.509L1621.72,960.799Z" style="fill:none;"/>
                    <path d="M1627.78,960.709L1634.74,960.709L1634.74,958.864L1629.88,958.864L1629.88,957.394L1633.98,957.394L1633.98,955.594L1629.88,955.594L1629.88,952.354L1634.53,952.354L1634.53,950.509L1627.78,950.509L1627.78,960.709Z" style="fill:none;"/>
                    <path d="M1636.69,960.709L1639.83,960.709C1642.98,960.709 1645.2,958.624 1645.2,955.609C1645.2,952.594 1642.96,950.509 1639.83,950.509L1636.69,950.509L1636.69,960.709ZM1638.79,958.864L1638.79,952.354L1639.72,952.354C1641.99,952.354 1643.02,953.704 1643.02,955.609C1643.02,957.514 1641.99,958.864 1639.72,958.864L1638.79,958.864Z" style="fill:none;"/>
                    <path d="M1651.9,960.844C1654.84,960.844 1657.18,958.624 1657.18,955.609C1657.18,952.594 1654.84,950.374 1651.9,950.374C1648.96,950.374 1646.62,952.594 1646.62,955.609C1646.62,958.624 1648.96,960.844 1651.9,960.844ZM1651.9,958.969C1650.04,958.969 1648.78,957.514 1648.78,955.609C1648.78,953.704 1650.04,952.249 1651.9,952.249C1653.76,952.249 1655.02,953.704 1655.02,955.609C1655.02,957.514 1653.76,958.969 1651.9,958.969Z" style="fill:none;"/>
                    <path d="M1664.38,957.529C1665.64,956.959 1666.35,955.954 1666.35,954.364C1666.35,951.874 1664.64,950.509 1661.79,950.509L1658.97,950.509L1658.97,960.709L1661.07,960.709L1661.07,958.174L1661.79,958.174C1661.98,958.174 1662.19,958.159 1662.39,958.129L1664.07,960.709L1666.5,960.709L1664.38,957.529ZM1661.07,956.344L1661.07,952.354L1661.73,952.354C1663.41,952.354 1664.19,952.924 1664.19,954.364C1664.19,955.804 1663.44,956.344 1661.73,956.344L1661.07,956.344Z" style="fill:none;"/>
                    <path d="M1668.18,960.709L1675.14,960.709L1675.14,958.864L1670.28,958.864L1670.28,957.394L1674.37,957.394L1674.37,955.594L1670.28,955.594L1670.28,952.354L1674.93,952.354L1674.93,950.509L1668.18,950.509L1668.18,960.709Z" style="fill:none;"/>
                    <path d="M1680.1,960.844C1682.1,960.844 1683.58,959.809 1683.58,957.919C1683.58,956.164 1682.58,955.384 1680.79,954.619L1680.27,954.394C1679.37,954.004 1678.98,953.749 1678.98,953.119C1678.98,952.609 1679.37,952.219 1679.98,952.219C1680.58,952.219 1680.97,952.474 1681.33,953.119L1682.97,952.069C1682.28,950.854 1681.32,950.389 1679.98,950.389C1678.11,950.389 1676.91,951.589 1676.91,953.164C1676.91,954.874 1677.91,955.684 1679.43,956.329L1679.95,956.554C1680.91,956.974 1681.48,957.229 1681.48,957.949C1681.48,958.549 1680.93,958.984 1680.06,958.984C1679.02,958.984 1678.44,958.444 1677.99,957.709L1676.28,958.699C1676.89,959.914 1678.15,960.844 1680.1,960.844Z" style="fill:none;"/>
                </g>
                <g transform="matrix(1,0,0.0174551,1,-16.7692,0)">
                    <path d="M1448.28,960.844C1450.24,960.844 1451.65,959.974 1452.54,958.594L1450.9,957.469C1450.33,958.339 1449.6,958.969 1448.28,958.969C1446.43,958.969 1445.19,957.514 1445.19,955.609C1445.19,953.704 1446.43,952.279 1448.28,952.279C1449.45,952.279 1450.27,952.834 1450.75,953.614L1452.36,952.474C1451.44,951.049 1450.12,950.389 1448.28,950.389C1445.35,950.389 1443.03,952.594 1443.03,955.609C1443.03,958.624 1445.35,960.844 1448.28,960.844Z" style="fill:white;fill-rule:nonzero;"/>
                    <path d="M1458.88,960.844C1461.82,960.844 1464.16,958.624 1464.16,955.609C1464.16,952.594 1461.82,950.374 1458.88,950.374C1455.94,950.374 1453.6,952.594 1453.6,955.609C1453.6,958.624 1455.94,960.844 1458.88,960.844ZM1458.88,958.969C1457.02,958.969 1455.76,957.514 1455.76,955.609C1455.76,953.704 1457.02,952.249 1458.88,952.249C1460.74,952.249 1462,953.704 1462,955.609C1462,957.514 1460.74,958.969 1458.88,958.969Z" style="fill:white;fill-rule:nonzero;"/>
                    <path d="M1465.95,960.709L1472.67,960.709L1472.67,958.864L1468.05,958.864L1468.05,950.509L1465.95,950.509L1465.95,960.709Z" style="fill:white;fill-rule:nonzero;"/>
                    <path d="M1474.36,960.709L1481.32,960.709L1481.32,958.864L1476.46,958.864L1476.46,957.394L1480.56,957.394L1480.56,955.594L1476.46,955.594L1476.46,952.354L1481.11,952.354L1481.11,950.509L1474.36,950.509L1474.36,960.709Z" style="fill:white;fill-rule:nonzero;"/>
                    <path d="M1485.6,960.709L1487.7,960.709L1487.7,952.354L1490.61,952.354L1490.61,950.509L1482.69,950.509L1482.69,952.354L1485.6,952.354L1485.6,960.709Z" style="fill:white;fill-rule:nonzero;"/>
                    <rect x="1492.2" y="950.509" width="2.1" height="10.2" style="fill:white;fill-rule:nonzero;"/>
                    <path d="M1500.36,960.799L1500.57,960.799L1505.04,950.509L1503,950.509L1501.29,954.439C1500.9,955.324 1500.51,956.749 1500.51,956.749C1500.51,956.749 1500.1,955.309 1499.71,954.439L1497.96,950.509L1495.71,950.509L1500.36,960.799Z" style="fill:white;fill-rule:nonzero;"/>
                    <path d="M1510.45,960.844C1513.39,960.844 1515.73,958.624 1515.73,955.609C1515.73,952.594 1513.39,950.374 1510.45,950.374C1507.51,950.374 1505.17,952.594 1505.17,955.609C1505.17,958.624 1507.51,960.844 1510.45,960.844ZM1510.45,958.969C1508.59,958.969 1507.33,957.514 1507.33,955.609C1507.33,953.704 1508.59,952.249 1510.45,952.249C1512.31,952.249 1513.57,953.704 1513.57,955.609C1513.57,957.514 1512.31,958.969 1510.45,958.969Z" style="fill:white;fill-rule:nonzero;"/>
                    <path d="M1520.83,960.709L1523.97,960.709C1527.12,960.709 1529.34,958.624 1529.34,955.609C1529.34,952.594 1527.1,950.509 1523.97,950.509L1520.83,950.509L1520.83,960.709ZM1522.93,958.864L1522.93,952.354L1523.86,952.354C1526.13,952.354 1527.16,953.704 1527.16,955.609C1527.16,957.514 1526.13,958.864 1523.86,958.864L1522.93,958.864Z" style="fill:white;fill-rule:nonzero;"/>
                    <path d="M1531.11,960.709L1538.07,960.709L1538.07,958.864L1533.21,958.864L1533.21,957.394L1537.3,957.394L1537.3,955.594L1533.21,955.594L1533.21,952.354L1537.86,952.354L1537.86,950.509L1531.11,950.509L1531.11,960.709Z" style="fill:white;fill-rule:nonzero;"/>
                    <path d="M1543.33,960.709L1546.47,960.709C1549.62,960.709 1551.84,958.624 1551.84,955.609C1551.84,952.594 1549.6,950.509 1546.47,950.509L1543.33,950.509L1543.33,960.709ZM1545.43,958.864L1545.43,952.354L1546.36,952.354C1548.63,952.354 1549.66,953.704 1549.66,955.609C1549.66,957.514 1548.63,958.864 1546.36,958.864L1545.43,958.864Z" style="fill:white;fill-rule:nonzero;"/>
                    <path d="M1553.61,960.709L1560.57,960.709L1560.57,958.864L1555.71,958.864L1555.71,957.394L1559.8,957.394L1559.8,955.594L1555.71,955.594L1555.71,952.354L1560.36,952.354L1560.36,950.509L1553.61,950.509L1553.61,960.709Z" style="fill:white;fill-rule:nonzero;"/>
                    <path d="M1565.53,960.844C1567.53,960.844 1569.01,959.809 1569.01,957.919C1569.01,956.164 1568.01,955.384 1566.22,954.619L1565.7,954.394C1564.8,954.004 1564.41,953.749 1564.41,953.119C1564.41,952.609 1564.8,952.219 1565.41,952.219C1566.01,952.219 1566.4,952.474 1566.76,953.119L1568.4,952.069C1567.71,950.854 1566.75,950.389 1565.41,950.389C1563.54,950.389 1562.34,951.589 1562.34,953.164C1562.34,954.874 1563.34,955.684 1564.86,956.329L1565.38,956.554C1566.34,956.974 1566.91,957.229 1566.91,957.949C1566.91,958.549 1566.36,958.984 1565.49,958.984C1564.45,958.984 1563.87,958.444 1563.42,957.709L1561.71,958.699C1562.32,959.914 1563.58,960.844 1565.53,960.844Z" style="fill:white;fill-rule:nonzero;"/>
                    <path d="M1570.65,960.709L1577.61,960.709L1577.61,958.864L1572.75,958.864L1572.75,957.394L1576.84,957.394L1576.84,955.594L1572.75,955.594L1572.75,952.354L1577.4,952.354L1577.4,950.509L1570.65,950.509L1570.65,960.709Z" style="fill:white;fill-rule:nonzero;"/>
                    <path d="M1587.73,960.799L1587.94,960.799L1587.94,950.509L1585.98,950.509L1585.98,954.784C1585.98,955.489 1586.11,956.644 1586.11,956.644C1586.11,956.644 1585.41,955.714 1584.91,955.249L1579.77,950.419L1579.56,950.419L1579.56,960.709L1581.52,960.709L1581.52,956.434C1581.52,955.699 1581.37,954.574 1581.37,954.574C1581.37,954.574 1582.08,955.489 1582.59,955.969L1587.73,960.799Z" style="fill:white;fill-rule:nonzero;"/>
                    <path d="M1593.97,960.799L1594.18,960.799L1598.65,950.509L1596.61,950.509L1594.9,954.439C1594.51,955.324 1594.12,956.749 1594.12,956.749C1594.12,956.749 1593.72,955.309 1593.33,954.439L1591.57,950.509L1589.32,950.509L1593.97,960.799Z" style="fill:white;fill-rule:nonzero;"/>
                    <path d="M1604.07,960.844C1607.01,960.844 1609.35,958.624 1609.35,955.609C1609.35,952.594 1607.01,950.374 1604.07,950.374C1601.13,950.374 1598.79,952.594 1598.79,955.609C1598.79,958.624 1601.13,960.844 1604.07,960.844ZM1604.07,958.969C1602.21,958.969 1600.95,957.514 1600.95,955.609C1600.95,953.704 1602.21,952.249 1604.07,952.249C1605.93,952.249 1607.19,953.704 1607.19,955.609C1607.19,957.514 1605.93,958.969 1604.07,958.969Z" style="fill:white;fill-rule:nonzero;"/>
                    <path d="M1611.13,960.709L1617.85,960.709L1617.85,958.864L1613.23,958.864L1613.23,950.509L1611.13,950.509L1611.13,960.709Z" style="fill:white;fill-rule:nonzero;"/>
                    <path d="M1621.72,960.799L1621.93,960.799L1626.4,950.509L1624.36,950.509L1622.65,954.439C1622.26,955.324 1621.87,956.749 1621.87,956.749C1621.87,956.749 1621.47,955.309 1621.08,954.439L1619.32,950.509L1617.07,950.509L1621.72,960.799Z" style="fill:white;fill-rule:nonzero;"/>
                    <path d="M1627.78,960.709L1634.74,960.709L1634.74,958.864L1629.88,958.864L1629.88,957.394L1633.98,957.394L1633.98,955.594L1629.88,955.594L1629.88,952.354L1634.53,952.354L1634.53,950.509L1627.78,950.509L1627.78,960.709Z" style="fill:white;fill-rule:nonzero;"/>
                    <path d="M1636.69,960.709L1639.83,960.709C1642.98,960.709 1645.2,958.624 1645.2,955.609C1645.2,952.594 1642.96,950.509 1639.83,950.509L1636.69,950.509L1636.69,960.709ZM1638.79,958.864L1638.79,952.354L1639.72,952.354C1641.99,952.354 1643.02,953.704 1643.02,955.609C1643.02,957.514 1641.99,958.864 1639.72,958.864L1638.79,958.864Z" style="fill:white;fill-rule:nonzero;"/>
                    <path d="M1651.9,960.844C1654.84,960.844 1657.18,958.624 1657.18,955.609C1657.18,952.594 1654.84,950.374 1651.9,950.374C1648.96,950.374 1646.62,952.594 1646.62,955.609C1646.62,958.624 1648.96,960.844 1651.9,960.844ZM1651.9,958.969C1650.04,958.969 1648.78,957.514 1648.78,955.609C1648.78,953.704 1650.04,952.249 1651.9,952.249C1653.76,952.249 1655.02,953.704 1655.02,955.609C1655.02,957.514 1653.76,958.969 1651.9,958.969Z" style="fill:white;fill-rule:nonzero;"/>
                    <path d="M1664.38,957.529C1665.64,956.959 1666.35,955.954 1666.35,954.364C1666.35,951.874 1664.64,950.509 1661.79,950.509L1658.97,950.509L1658.97,960.709L1661.07,960.709L1661.07,958.174L1661.79,958.174C1661.98,958.174 1662.19,958.159 1662.39,958.129L1664.07,960.709L1666.5,960.709L1664.38,957.529ZM1661.07,956.344L1661.07,952.354L1661.73,952.354C1663.41,952.354 1664.19,952.924 1664.19,954.364C1664.19,955.804 1663.44,956.344 1661.73,956.344L1661.07,956.344Z" style="fill:white;fill-rule:nonzero;"/>
                    <path d="M1668.18,960.709L1675.14,960.709L1675.14,958.864L1670.28,958.864L1670.28,957.394L1674.37,957.394L1674.37,955.594L1670.28,955.594L1670.28,952.354L1674.93,952.354L1674.93,950.509L1668.18,950.509L1668.18,960.709Z" style="fill:white;fill-rule:nonzero;"/>
                    <path d="M1680.1,960.844C1682.1,960.844 1683.58,959.809 1683.58,957.919C1683.58,956.164 1682.58,955.384 1680.79,954.619L1680.27,954.394C1679.37,954.004 1678.98,953.749 1678.98,953.119C1678.98,952.609 1679.37,952.219 1679.98,952.219C1680.58,952.219 1680.97,952.474 1681.33,953.119L1682.97,952.069C1682.28,950.854 1681.32,950.389 1679.98,950.389C1678.11,950.389 1676.91,951.589 1676.91,953.164C1676.91,954.874 1677.91,955.684 1679.43,956.329L1679.95,956.554C1680.91,956.974 1681.48,957.229 1681.48,957.949C1681.48,958.549 1680.93,958.984 1680.06,958.984C1679.02,958.984 1678.44,958.444 1677.99,957.709L1676.28,958.699C1676.89,959.914 1678.15,960.844 1680.1,960.844Z" style="fill:white;fill-rule:nonzero;"/>
                </g>
            </g>
            <g transform="matrix(31.8977,0,0,1.05323,-46770.7,-640.42)">
                <path d="M1469,944L1476,944" style="fill:none;stroke:url(#_Linear2);stroke-width:0.03px;"/>
            </g>
            <g transform="matrix(6.28282,0,0,6.28282,-779.318,-45.4855)">
                <path d="M139.966,57.112L138.926,57.112C138.809,57.112 138.713,57.083 138.638,57.025C138.563,56.966 138.509,56.894 138.476,56.807L137.936,55.332L134.941,55.332L134.401,56.807C134.374,56.884 134.322,56.954 134.243,57.017C134.165,57.081 134.069,57.112 133.956,57.112L132.911,57.112L135.751,49.882L137.126,49.882L139.966,57.112ZM135.286,54.382L137.591,54.382L136.711,51.977C136.671,51.871 136.627,51.745 136.578,51.6C136.53,51.455 136.483,51.297 136.436,51.127C136.389,51.297 136.343,51.456 136.298,51.602C136.253,51.749 136.209,51.877 136.166,51.987L135.286,54.382Z" style="fill:none;"/>
                <path d="M140.641,58.787L140.641,51.982L141.396,51.982C141.476,51.982 141.544,52.001 141.601,52.037C141.658,52.074 141.694,52.131 141.711,52.207L141.811,52.682C142.018,52.446 142.255,52.254 142.523,52.107C142.792,51.961 143.106,51.887 143.466,51.887C143.746,51.887 144.002,51.946 144.233,52.062C144.465,52.179 144.665,52.348 144.833,52.57C145.002,52.791 145.132,53.065 145.223,53.39C145.315,53.715 145.361,54.087 145.361,54.507C145.361,54.891 145.309,55.246 145.206,55.572C145.103,55.899 144.955,56.182 144.763,56.422C144.572,56.662 144.34,56.85 144.068,56.985C143.797,57.12 143.493,57.187 143.156,57.187C142.866,57.187 142.62,57.143 142.418,57.055C142.217,56.966 142.036,56.844 141.876,56.687L141.876,58.787L140.641,58.787ZM143.041,52.862C142.784,52.862 142.565,52.916 142.383,53.025C142.202,53.133 142.033,53.286 141.876,53.482L141.876,55.782C142.016,55.956 142.168,56.076 142.333,56.145C142.498,56.213 142.676,56.247 142.866,56.247C143.053,56.247 143.222,56.212 143.373,56.142C143.525,56.072 143.653,55.966 143.758,55.822C143.863,55.679 143.944,55.498 144.001,55.28C144.058,55.061 144.086,54.804 144.086,54.507C144.086,54.207 144.062,53.953 144.013,53.745C143.965,53.536 143.896,53.367 143.806,53.237C143.716,53.107 143.607,53.012 143.478,52.952C143.35,52.892 143.204,52.862 143.041,52.862Z" style="fill:none;"/>
                <path d="M148.486,51.902C148.869,51.902 149.217,51.964 149.528,52.087C149.84,52.211 150.106,52.386 150.326,52.612C150.546,52.839 150.716,53.116 150.836,53.442C150.956,53.769 151.016,54.134 151.016,54.537C151.016,54.944 150.956,55.311 150.836,55.637C150.716,55.964 150.546,56.242 150.326,56.472C150.106,56.702 149.84,56.879 149.528,57.002C149.217,57.126 148.869,57.187 148.486,57.187C148.103,57.187 147.754,57.126 147.441,57.002C147.128,56.879 146.86,56.702 146.638,56.472C146.417,56.242 146.245,55.964 146.123,55.637C146.002,55.311 145.941,54.944 145.941,54.537C145.941,54.134 146.002,53.769 146.123,53.442C146.245,53.116 146.417,52.839 146.638,52.612C146.86,52.386 147.128,52.211 147.441,52.087C147.754,51.964 148.103,51.902 148.486,51.902ZM148.486,56.237C148.913,56.237 149.228,56.094 149.433,55.807C149.638,55.521 149.741,55.101 149.741,54.547C149.741,53.994 149.638,53.572 149.433,53.282C149.228,52.992 148.913,52.847 148.486,52.847C148.053,52.847 147.733,52.993 147.526,53.285C147.319,53.576 147.216,53.997 147.216,54.547C147.216,55.097 147.319,55.516 147.526,55.805C147.733,56.093 148.053,56.237 148.486,56.237Z" style="fill:none;"/>
                <rect x="152.061" y="49.682" width="1.235" height="7.43" style="fill:none;"/>
                <rect x="154.771" y="49.682" width="1.235" height="7.43" style="fill:none;"/>
                <path d="M159.591,51.902C159.974,51.902 160.322,51.964 160.633,52.087C160.945,52.211 161.211,52.386 161.431,52.612C161.651,52.839 161.821,53.116 161.941,53.442C162.061,53.769 162.121,54.134 162.121,54.537C162.121,54.944 162.061,55.311 161.941,55.637C161.821,55.964 161.651,56.242 161.431,56.472C161.211,56.702 160.945,56.879 160.633,57.002C160.322,57.126 159.974,57.187 159.591,57.187C159.208,57.187 158.859,57.126 158.546,57.002C158.233,56.879 157.965,56.702 157.743,56.472C157.522,56.242 157.35,55.964 157.228,55.637C157.107,55.311 157.046,54.944 157.046,54.537C157.046,54.134 157.107,53.769 157.228,53.442C157.35,53.116 157.522,52.839 157.743,52.612C157.965,52.386 158.233,52.211 158.546,52.087C158.859,51.964 159.208,51.902 159.591,51.902ZM159.591,56.237C160.018,56.237 160.333,56.094 160.538,55.807C160.743,55.521 160.846,55.101 160.846,54.547C160.846,53.994 160.743,53.572 160.538,53.282C160.333,52.992 160.018,52.847 159.591,52.847C159.158,52.847 158.838,52.993 158.631,53.285C158.424,53.576 158.321,53.997 158.321,54.547C158.321,55.097 158.424,55.516 158.631,55.805C158.838,56.093 159.158,56.237 159.591,56.237Z" style="fill:none;"/>
                <path d="M167.996,56.027C168.256,56.027 168.488,55.984 168.693,55.897C168.898,55.811 169.072,55.689 169.213,55.532C169.355,55.376 169.463,55.186 169.538,54.962C169.613,54.739 169.651,54.489 169.651,54.212L169.651,49.882L170.996,49.882L170.996,54.212C170.996,54.642 170.927,55.04 170.788,55.405C170.65,55.77 170.451,56.085 170.191,56.35C169.931,56.615 169.616,56.821 169.246,56.97C168.876,57.118 168.459,57.192 167.996,57.192C167.533,57.192 167.116,57.118 166.746,56.97C166.376,56.821 166.062,56.615 165.803,56.35C165.545,56.085 165.347,55.77 165.208,55.405C165.07,55.04 165.001,54.642 165.001,54.212L165.001,49.882L166.346,49.882L166.346,54.207C166.346,54.484 166.383,54.734 166.458,54.957C166.533,55.181 166.641,55.371 166.781,55.53C166.921,55.688 167.093,55.811 167.298,55.897C167.503,55.984 167.736,56.027 167.996,56.027Z" style="fill:none;"/>
                <path d="M174.101,53.392L171.796,49.882L173.136,49.882C173.229,49.882 173.297,49.895 173.338,49.92C173.38,49.945 173.418,49.986 173.451,50.042L175.096,52.697C175.113,52.654 175.131,52.611 175.151,52.57C175.171,52.528 175.194,52.486 175.221,52.442L176.726,50.067C176.799,49.944 176.894,49.882 177.011,49.882L178.301,49.882L175.971,53.337L178.366,57.112L177.021,57.112C176.931,57.112 176.858,57.089 176.803,57.042C176.748,56.996 176.703,56.942 176.666,56.882L174.991,54.112C174.978,54.152 174.963,54.19 174.946,54.225C174.929,54.26 174.913,54.292 174.896,54.322L173.291,56.882C173.254,56.939 173.209,56.991 173.156,57.04C173.103,57.088 173.036,57.112 172.956,57.112L171.696,57.112L174.101,53.392Z" style="fill:none;"/>
                <path d="M139.966,57.112L138.926,57.112C138.809,57.112 138.713,57.083 138.638,57.025C138.563,56.966 138.509,56.894 138.476,56.807L137.936,55.332L134.941,55.332L134.401,56.807C134.374,56.884 134.322,56.954 134.243,57.017C134.165,57.081 134.069,57.112 133.956,57.112L132.911,57.112L135.751,49.882L137.126,49.882L139.966,57.112ZM135.286,54.382L137.591,54.382L136.711,51.977C136.671,51.871 136.627,51.745 136.578,51.6C136.53,51.455 136.483,51.297 136.436,51.127C136.389,51.297 136.343,51.456 136.298,51.602C136.253,51.749 136.209,51.877 136.166,51.987L135.286,54.382Z" style="fill:white;fill-rule:nonzero;"/>
                <path d="M140.641,58.787L140.641,51.982L141.396,51.982C141.476,51.982 141.544,52.001 141.601,52.037C141.658,52.074 141.694,52.131 141.711,52.207L141.811,52.682C142.018,52.446 142.255,52.254 142.523,52.107C142.792,51.961 143.106,51.887 143.466,51.887C143.746,51.887 144.002,51.946 144.233,52.062C144.465,52.179 144.665,52.348 144.833,52.57C145.002,52.791 145.132,53.065 145.223,53.39C145.315,53.715 145.361,54.087 145.361,54.507C145.361,54.891 145.309,55.246 145.206,55.572C145.103,55.899 144.955,56.182 144.763,56.422C144.572,56.662 144.34,56.85 144.068,56.985C143.797,57.12 143.493,57.187 143.156,57.187C142.866,57.187 142.62,57.143 142.418,57.055C142.217,56.966 142.036,56.844 141.876,56.687L141.876,58.787L140.641,58.787ZM143.041,52.862C142.784,52.862 142.565,52.916 142.383,53.025C142.202,53.133 142.033,53.286 141.876,53.482L141.876,55.782C142.016,55.956 142.168,56.076 142.333,56.145C142.498,56.213 142.676,56.247 142.866,56.247C143.053,56.247 143.222,56.212 143.373,56.142C143.525,56.072 143.653,55.966 143.758,55.822C143.863,55.679 143.944,55.498 144.001,55.28C144.058,55.061 144.086,54.804 144.086,54.507C144.086,54.207 144.062,53.953 144.013,53.745C143.965,53.536 143.896,53.367 143.806,53.237C143.716,53.107 143.607,53.012 143.478,52.952C143.35,52.892 143.204,52.862 143.041,52.862Z" style="fill:white;fill-rule:nonzero;"/>
                <path d="M148.486,51.902C148.869,51.902 149.217,51.964 149.528,52.087C149.84,52.211 150.106,52.386 150.326,52.612C150.546,52.839 150.716,53.116 150.836,53.442C150.956,53.769 151.016,54.134 151.016,54.537C151.016,54.944 150.956,55.311 150.836,55.637C150.716,55.964 150.546,56.242 150.326,56.472C150.106,56.702 149.84,56.879 149.528,57.002C149.217,57.126 148.869,57.187 148.486,57.187C148.103,57.187 147.754,57.126 147.441,57.002C147.128,56.879 146.86,56.702 146.638,56.472C146.417,56.242 146.245,55.964 146.123,55.637C146.002,55.311 145.941,54.944 145.941,54.537C145.941,54.134 146.002,53.769 146.123,53.442C146.245,53.116 146.417,52.839 146.638,52.612C146.86,52.386 147.128,52.211 147.441,52.087C147.754,51.964 148.103,51.902 148.486,51.902ZM148.486,56.237C148.913,56.237 149.228,56.094 149.433,55.807C149.638,55.521 149.741,55.101 149.741,54.547C149.741,53.994 149.638,53.572 149.433,53.282C149.228,52.992 148.913,52.847 148.486,52.847C148.053,52.847 147.733,52.993 147.526,53.285C147.319,53.576 147.216,53.997 147.216,54.547C147.216,55.097 147.319,55.516 147.526,55.805C147.733,56.093 148.053,56.237 148.486,56.237Z" style="fill:white;fill-rule:nonzero;"/>
                <rect x="152.061" y="49.682" width="1.235" height="7.43" style="fill:white;fill-rule:nonzero;"/>
                <rect x="154.771" y="49.682" width="1.235" height="7.43" style="fill:white;fill-rule:nonzero;"/>
                <path d="M159.591,51.902C159.974,51.902 160.322,51.964 160.633,52.087C160.945,52.211 161.211,52.386 161.431,52.612C161.651,52.839 161.821,53.116 161.941,53.442C162.061,53.769 162.121,54.134 162.121,54.537C162.121,54.944 162.061,55.311 161.941,55.637C161.821,55.964 161.651,56.242 161.431,56.472C161.211,56.702 160.945,56.879 160.633,57.002C160.322,57.126 159.974,57.187 159.591,57.187C159.208,57.187 158.859,57.126 158.546,57.002C158.233,56.879 157.965,56.702 157.743,56.472C157.522,56.242 157.35,55.964 157.228,55.637C157.107,55.311 157.046,54.944 157.046,54.537C157.046,54.134 157.107,53.769 157.228,53.442C157.35,53.116 157.522,52.839 157.743,52.612C157.965,52.386 158.233,52.211 158.546,52.087C158.859,51.964 159.208,51.902 159.591,51.902ZM159.591,56.237C160.018,56.237 160.333,56.094 160.538,55.807C160.743,55.521 160.846,55.101 160.846,54.547C160.846,53.994 160.743,53.572 160.538,53.282C160.333,52.992 160.018,52.847 159.591,52.847C159.158,52.847 158.838,52.993 158.631,53.285C158.424,53.576 158.321,53.997 158.321,54.547C158.321,55.097 158.424,55.516 158.631,55.805C158.838,56.093 159.158,56.237 159.591,56.237Z" style="fill:white;fill-rule:nonzero;"/>
                <path d="M167.996,56.027C168.256,56.027 168.488,55.984 168.693,55.897C168.898,55.811 169.072,55.689 169.213,55.532C169.355,55.376 169.463,55.186 169.538,54.962C169.613,54.739 169.651,54.489 169.651,54.212L169.651,49.882L170.996,49.882L170.996,54.212C170.996,54.642 170.927,55.04 170.788,55.405C170.65,55.77 170.451,56.085 170.191,56.35C169.931,56.615 169.616,56.821 169.246,56.97C168.876,57.118 168.459,57.192 167.996,57.192C167.533,57.192 167.116,57.118 166.746,56.97C166.376,56.821 166.062,56.615 165.803,56.35C165.545,56.085 165.347,55.77 165.208,55.405C165.07,55.04 165.001,54.642 165.001,54.212L165.001,49.882L166.346,49.882L166.346,54.207C166.346,54.484 166.383,54.734 166.458,54.957C166.533,55.181 166.641,55.371 166.781,55.53C166.921,55.688 167.093,55.811 167.298,55.897C167.503,55.984 167.736,56.027 167.996,56.027Z" style="fill:white;fill-rule:nonzero;"/>
                <path d="M174.101,53.392L171.796,49.882L173.136,49.882C173.229,49.882 173.297,49.895 173.338,49.92C173.38,49.945 173.418,49.986 173.451,50.042L175.096,52.697C175.113,52.654 175.131,52.611 175.151,52.57C175.171,52.528 175.194,52.486 175.221,52.442L176.726,50.067C176.799,49.944 176.894,49.882 177.011,49.882L178.301,49.882L175.971,53.337L178.366,57.112L177.021,57.112C176.931,57.112 176.858,57.089 176.803,57.042C176.748,56.996 176.703,56.942 176.666,56.882L174.991,54.112C174.978,54.152 174.963,54.19 174.946,54.225C174.929,54.26 174.913,54.292 174.896,54.322L173.291,56.882C173.254,56.939 173.209,56.991 173.156,57.04C173.103,57.088 173.036,57.112 172.956,57.112L171.696,57.112L174.101,53.392Z" style="fill:white;fill-rule:nonzero;"/>
            </g>
        </g>
    </g>
    <defs>
        <linearGradient id="_Linear1" x1="0" y1="0" x2="1" y2="0" gradientUnits="userSpaceOnUse" gradientTransform="matrix(14.2633,17.7666,-17.7666,14.2633,9.79922,12.9283)"><stop offset="0" style="stop-color:rgb(255,173,115);stop-opacity:1"/><stop offset="1" style="stop-color:rgb(255,113,76);stop-opacity:1"/></linearGradient>
        <linearGradient id="_Linear2" x1="0" y1="0" x2="1" y2="0" gradientUnits="userSpaceOnUse" gradientTransform="matrix(7,0,0,0,1469,944)"><stop offset="0" style="stop-color:rgb(255,95,109);stop-opacity:1"/><stop offset="0.5" style="stop-color:rgb(255,138,116);stop-opacity:1"/><stop offset="1" style="stop-color:rgb(254,180,123);stop-opacity:1"/></linearGradient>
    </defs>
</svg>
