<?xml version="1.0" encoding="UTF-8" standalone="no"?><!DOCTYPE svg PUBLIC "-//W3C//DTD SVG 1.1//EN" "http://www.w3.org/Graphics/SVG/1.1/DTD/svg11.dtd"><svg width="100%" height="100%" viewBox="0 0 53 53" version="1.1" xmlns="http://www.w3.org/2000/svg" xmlns:xlink="http://www.w3.org/1999/xlink" xml:space="preserve" style="fill-rule:evenodd;clip-rule:evenodd;stroke-linejoin:round;stroke-miterlimit:1.41421;"><path id="rocket" d="M0,30.899l8.828,-8.828l7.919,-1.584c10.041,-13.658 29.279,-20.487 36.224,-20.487c0,6.945 -6.83,26.182 -20.488,36.223l-1.584,7.919l-8.828,8.829l-2.207,-11.036c-4.414,0 -4.414,0 -6.621,-2.207c-2.207,-2.207 -2.207,-2.207 -2.207,-6.622l-11.036,-2.207Zm8.828,8.829l4.415,4.414l-8.316,8.316l-4.414,0l0,-4.414l8.315,-8.316Zm-4.414,-4.414l3.863,0.551l-7.631,7.631l0,-4.415l3.768,-3.767Zm12.691,9.38l0.552,3.862l-3.768,3.768l-4.414,0l7.63,-7.63Zm14.709,-28.219c-2.586,0 -4.682,2.096 -4.682,4.682c0,2.586 2.096,4.682 4.682,4.682c2.585,0 4.682,-2.096 4.682,-4.682c0,-2.586 -2.097,-4.682 -4.682,-4.682Z" style="fill:#fff;fill-rule:nonzero;"/></svg>