<?xml version="1.0" encoding="UTF-8" standalone="no"?><!DOCTYPE svg PUBLIC "-//W3C//DTD SVG 1.1//EN" "http://www.w3.org/Graphics/SVG/1.1/DTD/svg11.dtd"><svg width="100%" height="100%" viewBox="0 0 265 265" version="1.1" xmlns="http://www.w3.org/2000/svg" xmlns:xlink="http://www.w3.org/1999/xlink" xml:space="preserve" style="fill-rule:evenodd;clip-rule:evenodd;stroke-miterlimit:10;"><g><clipPath id="_clip1"><rect x="201.194" y="110.826" width="1.664" height="21.213"/></clipPath><g clip-path="url(#_clip1)"><path d="M201.194,111.796c0.106,6.742 0.212,13.484 0.311,20.219c0.367,0.008 0.734,0.015 1.094,0.023c0.078,-5.991 0.176,-11.975 0.218,-17.966c0.008,-1.118 0.29,-2.386 -0.734,-3.246c-0.296,0.321 -0.593,0.649 -0.889,0.97" style="fill:#fff;fill-rule:nonzero;"/><rect x="201.194" y="110.826" width="1.665" height="21.212" style="fill:none;stroke:#fff;stroke-width:1px;"/></g></g><path d="M207.914,151.342c-1.313,2.558 -3.601,2.707 -5.895,1.901c-1.214,-0.43 -2.414,-1.072 -3.473,-1.87c-13.503,-10.097 -26.986,-20.234 -40.461,-30.379c-1.61,-1.212 -3.107,-2.659 -2.309,-5.107c0.812,-2.48 2.682,-3.481 4.772,-3.591c1.948,0.055 3.268,1.127 4.631,2.159c9.409,7.094 18.826,14.173 28.256,21.22c4.18,3.121 8.471,6.078 12.594,9.3c1.913,1.494 3.268,3.676 1.885,6.367m-12.41,3.919c1.807,1.416 3.6,3.316 2.245,6.226c-1.278,2.737 -3.579,3.097 -6.057,2.714c-1.906,-0.29 -3.586,-1.213 -5.132,-2.425c-11.097,-8.713 -22.193,-17.427 -33.269,-26.179c-1.969,-1.556 -3.981,-3.355 -2.28,-6.39c1.603,-2.871 3.946,-3.199 6.749,-1.909c2.195,1.01 7.242,5.343 9.31,6.532l0,-0.008c3.459,3.105 7.349,5.53 10.998,8.322c5.789,4.412 11.697,8.635 17.436,13.117m-8.047,18.279c-0.911,1.862 -2.464,2.253 -4.201,2.19c-2.258,0.164 -4.072,-0.993 -5.837,-2.33c-9.981,-7.572 -19.97,-15.136 -29.966,-22.676c-1.397,-1.056 -2.865,-2.049 -2.52,-4.255c0.346,-2.252 2.012,-3.082 3.714,-3.7c2.477,-0.906 4.623,0.196 6.621,1.651c8.739,6.359 17.478,12.71 26.153,19.155c1.835,1.369 3.876,2.487 5.238,4.545c1.115,1.673 1.779,3.402 0.798,5.42m-10.687,6.007c1.722,1.243 3.021,2.902 2.139,5.475c-0.566,1.643 -1.808,2.909 -3.298,3.488c-2.767,1.088 -5.025,-0.258 -7.15,-1.791c-5.993,-4.333 -11.944,-8.729 -17.916,-13.077c-2.937,-2.144 -5.957,-4.153 -8.824,-6.407c-1.715,-1.352 -2.739,-3.339 -1.941,-5.764c0.791,-2.393 2.365,-3.825 4.815,-3.762c1.165,0.039 2.279,0.203 3.324,0.962c9.608,6.977 19.229,13.923 28.851,20.876m29.915,-35.893c-3.762,-1.979 -4.418,-5.249 -3.974,-9.293c0.078,-0.758 0.189,-1.938 0.147,-2.713c-0.36,-0.008 -1.298,0.008 -1.665,0c-0.536,2.206 0.586,4.951 -0.416,7.555c-3.543,-2.667 -6.756,-5.491 -10.292,-7.634c-3.579,-2.174 -5.026,-5.068 -4.306,-9.441c0.162,-1.017 0.099,-2.073 0.197,-3.097c0.333,-3.669 2.083,-5.913 5.373,-6.688c3.374,-0.797 6.797,-0.359 10.193,-0.586c0.042,-0.54 0.028,-0.407 0.07,-0.954c-4.891,-1.502 -9.628,-0.658 -14.124,1.322c-0.989,-0.603 -0.728,-1.463 -0.742,-2.183c-0.12,-6.163 -0.113,-6.163 -5.555,-6.171c-2.584,0 -5.168,0.008 -7.751,0l-17.853,-0.79c-3.486,0 -2.795,-9.331 -6,-8.26c-0.677,0.071 -1.355,0.032 -2.033,-0.094c-1.108,-0.141 -1.764,-1.095 -1.722,-2.072c-0.049,-0.251 -0.077,-0.478 -0.077,-0.782c-0.022,0 -0.107,-0.04 -0.593,-0.102l0,-0.055l0,-0.086l-0.015,0c-0.522,1.51 -0.338,2.902 0.424,4.122c1.129,0.985 2.21,-0.164 3.212,1.33c1.743,2.534 1.743,3.066 2.59,5.467c0.544,1.541 0.318,1.83 1.349,1.901c9.53,0.688 20.118,1.564 30.106,1.212c1.031,-0.039 2.252,-0.047 2.323,1.643c0.275,6.429 -0.565,12.757 -0.939,19.092c-1.609,0.031 -2.259,-0.797 -3.021,-1.353c-5.753,-4.263 -11.429,-8.666 -17.288,-12.757c-3.381,-2.362 -7.44,-1.267 -9.36,2.018c-1.786,3.058 -0.967,5.491 3.057,8.549c8.322,6.336 16.68,12.609 25.031,18.889c1.024,0.767 2.421,1.213 1.934,3.223c-1.56,0.007 -2.548,-1.181 -3.664,-2.01c-4.341,-3.207 -9.268,-7.055 -13.658,-10.215c-1.004,-0.704 -2.874,-2.198 -4.745,-3.622c-1.877,-1.415 -3.748,-2.761 -4.764,-3.175c-3.551,-1.424 -7.13,-0.134 -8.52,3.073c-1.313,3.035 -0.403,5.217 3.112,7.971c10.264,8.025 20.493,16.089 30.735,24.145c0.911,0.712 2.203,1.26 1.095,3.114c-0.629,-0.392 -1.257,-0.712 -1.829,-1.127c-8.591,-6.359 -17.182,-12.718 -25.758,-19.093c-1.977,-1.47 -4.01,-2.761 -6.473,-2.745c-3.056,0.008 -5.633,1.189 -6.791,4.489c-1.193,3.411 1.292,4.936 3.311,6.461c8.329,6.312 16.716,12.546 25.052,18.85c1.271,0.955 2.838,1.612 3.692,3.333c-2.139,1.22 -3.635,0.234 -5.132,-0.845c-6.784,-4.905 -13.617,-9.723 -20.337,-14.721c-3.064,-2.276 -6.099,-3.558 -9.438,-1.048c-3.191,2.394 -2.894,5.859 -1.772,9.316c-1.602,0.805 -5.068,2.463 -6.543,3.207c-0.544,0.602 -0.749,1.658 0,2.018c3.663,-2.957 8.287,-3.739 13.97,0.304c4.341,3.09 8.661,6.226 12.967,9.371c3.07,2.253 6.113,4.552 9.635,7.18c-0.197,0.094 -0.388,0.18 -0.578,0.266c0.014,0.04 0.02,0.079 0.035,0.117c0.847,0.314 1.701,0.634 2.548,0.939c0.784,-0.125 1.567,-0.219 2.365,-0.258c3.311,-0.149 5.739,-1.533 6.826,-4.951c1.094,-3.442 -0.663,-5.663 -3.247,-7.282c-0.381,-0.243 -0.805,-0.556 -0.579,-1.689c4.165,0.07 8.915,2.956 12.558,-1.769c0.19,-0.609 0.388,-1.219 0.586,-1.83c0.635,-3.081 -2.076,-4.911 -2.633,-7.993c2.809,0.477 5.224,1.572 7.786,1.282c6.247,-3.73 6.48,-8.056 0.614,-12.663c-3.099,-2.432 -6.261,-4.763 -9.53,-7.243c1.984,-1.869 2.916,0.188 4.116,0.61c1.828,0.634 3.416,1.917 4.849,3.325c4.243,4.177 8.613,6.984 13.406,3.973c0.543,-0.946 1.199,-2.112 1.736,-3.066c0.169,-3.144 -0.84,-5.937 -3.283,-7.211" style="fill:#fff;fill-rule:nonzero;"/><path d="M206.03,144.975c1.913,1.494 3.268,3.676 1.885,6.367c-1.314,2.557 -3.601,2.706 -5.895,1.9c-1.214,-0.43 -2.414,-1.071 -3.473,-1.869c-13.504,-10.098 -26.986,-20.234 -40.462,-30.379c-1.609,-1.212 -3.106,-2.66 -2.308,-5.108c0.812,-2.479 2.682,-3.48 4.771,-3.59c1.949,0.055 3.269,1.126 4.631,2.159c9.41,7.094 18.827,14.173 28.257,21.22c4.18,3.121 8.471,6.077 12.594,9.3" style="fill:none;stroke:#fff;stroke-width:1px;"/><path d="M195.505,155.261c1.807,1.416 3.6,3.317 2.245,6.226c-1.278,2.738 -3.58,3.097 -6.057,2.714c-1.906,-0.29 -3.586,-1.212 -5.132,-2.424c-11.097,-8.714 -22.194,-17.427 -33.269,-26.18c-1.969,-1.556 -3.981,-3.355 -2.28,-6.39c1.603,-2.87 3.946,-3.199 6.749,-1.908c2.195,1.009 7.242,5.342 9.31,6.531l0,-0.008c3.459,3.105 7.349,5.53 10.998,8.322c5.789,4.412 11.697,8.635 17.436,13.117" style="fill:none;stroke:#fff;stroke-width:1px;"/><path d="M186.659,168.12c1.115,1.674 1.779,3.402 0.798,5.42c-0.911,1.862 -2.464,2.253 -4.201,2.19c-2.258,0.164 -4.072,-0.993 -5.837,-2.33c-9.981,-7.572 -19.97,-15.136 -29.966,-22.676c-1.397,-1.056 -2.865,-2.049 -2.52,-4.255c0.346,-2.252 2.012,-3.081 3.714,-3.699c2.477,-0.907 4.623,0.195 6.621,1.65c8.739,6.359 17.478,12.71 26.153,19.155c1.835,1.369 3.876,2.487 5.238,4.545" style="fill:none;stroke:#fff;stroke-width:1px;"/><path d="M168.913,190.818c0.691,-0.133 1.383,-0.266 2.083,-0.376c0.042,-0.015 0.084,-0.023 0.12,-0.023c-0.848,-0.305 -1.702,-0.625 -2.549,-0.938c0.183,0.735 0.127,0.508 0.346,1.337" style="fill:#fff;fill-rule:nonzero;"/><path d="M168.567,189.48c-0.057,-0.024 -0.106,-0.039 -0.163,-0.063c-3.247,1.439 -6.367,2.073 -8.273,5.014c0.233,0.29 0.459,0.579 0.692,0.86c3.036,-2.659 6.473,-4.247 10.173,-4.849c-0.699,0.11 -1.392,0.243 -2.083,0.375c-0.219,-0.828 -0.163,-0.601 -0.346,-1.337" style="fill:#fff;fill-rule:nonzero;"/><path d="M164.635,85.233c0,-0.015 -0.014,-0.039 -0.035,-0.039c-4.2,-0.133 -8.64,-0.962 -13.306,-1.072l-8.873,-0.32c-0.007,0 -0.007,0 -0.014,-0.008c-2.316,-1.04 -4.455,-3.05 -4.462,-6.289c0,-1.627 -0.353,-2.886 -1.249,-3.66c-0.014,-0.008 -0.014,-0.024 -0.014,-0.039c0.395,-1.048 0.861,-1.745 1.39,-2.136c0.014,-0.007 0.014,-0.023 0.014,-0.039c-0.278,-0.67 -0.689,-1.202 -1.645,-5.537c0,-0.008 -0.007,-0.016 -0.014,-0.024c-0.896,-0.782 -1.729,-1.744 -1.249,-3.402l0,-0.016l-0.395,-3.081c-0.255,0.109 -0.502,0.203 -0.756,0.312l0.071,0l0,0.767l-0.254,0c0.007,0.094 0.014,0.187 0.014,0.281c0.085,5.194 1.045,10.348 1.228,15.526c0.184,-0.266 0.501,-0.399 1.151,-0.18c0.063,0.548 0.177,1.158 0.19,1.768c0.121,5.686 2.619,8.307 7.829,8.424l1.426,0.039l0,-0.023l4.694,0c0.918,-0.259 2.005,-0.298 3.289,0l-3.289,0c-0.155,0.039 -0.31,0.093 -0.452,0.148l11.577,0.329c1.581,0.078 1.595,0.078 3.155,0.039c0.022,0 0.036,-0.023 0.036,-0.047c-0.085,-0.641 -0.085,-0.673 -0.057,-1.721" style="fill:#fff;fill-rule:nonzero;"/><path d="M159.574,195.245c0.205,0.312 0.409,0.618 0.621,0.93c0.212,-0.297 0.424,-0.586 0.629,-0.883c-0.233,-0.281 -0.459,-0.571 -0.692,-0.861c-0.191,0.274 -0.375,0.54 -0.558,0.814" style="fill:#fff;fill-rule:nonzero;"/><path d="M159.574,195.245c-1.517,2.166 -1.85,4.708 -1.898,7.344c-0.065,3.638 -0.297,7.283 -0.142,10.904c0.014,0.281 0.007,0.672 0.007,0.93l1.292,0c-0.106,-6.069 -0.614,-12.35 1.362,-18.248c-0.212,-0.312 -0.416,-0.618 -0.621,-0.93" style="fill:#fff;fill-rule:nonzero;"/><path d="M150.376,86.485l3.29,0c-1.285,-0.297 -2.372,-0.258 -3.29,0Z" style="fill:#2d3853;fill-rule:nonzero;stroke:#fff;stroke-width:1px;"/><path d="M145.682,86.509l4.242,0.125c0.142,-0.055 0.297,-0.109 0.452,-0.149l-4.694,0l0,0.024Z" style="fill:#2d3853;fill-rule:nonzero;stroke:#fff;stroke-width:1px;"/><path d="M145.562,91.53c0.198,-0.008 0.402,0.016 0.593,0.078l0,0.164c0.007,0 0.007,-0.008 0.014,-0.023c0.487,-0.68 1.864,-4.255 3.36,-4.951c0.127,-0.063 0.262,-0.118 0.395,-0.165l-4.242,-0.125c-0.043,1.674 -0.085,3.348 -0.12,5.022Z" style="fill:#fff;fill-rule:nonzero;stroke:#fff;stroke-width:1px;"/><path d="M145.844,91.569c-0.077,-0.008 -0.169,-0.023 -0.282,-0.039l0,0.141c0.487,0.062 0.572,0.101 0.593,0.101l0,-0.164c-0.028,0.039 0.042,0.016 -0.311,-0.039Z" style="fill:#2d3853;fill-rule:nonzero;stroke:#fff;stroke-width:1px;"/><path d="M146.155,91.608l-0.311,-0.039c0.353,0.055 0.283,0.078 0.311,0.039Z" style="fill:#2d3853;fill-rule:nonzero;stroke:#fff;stroke-width:1px;"/><path d="M145.844,91.569l0.311,0.039c-0.191,-0.062 -0.395,-0.086 -0.593,-0.078c0.113,0.016 0.205,0.031 0.282,0.039Z" style="fill:#2d3853;fill-rule:nonzero;stroke:#fff;stroke-width:1px;"/><rect x="132.687" y="53.908" width="7.292" height="0.876" style="fill:#2d3853;fill-rule:nonzero;stroke:#fff;stroke-width:1px;"/><path d="M134.006,59.891c-0.007,0.008 -0.014,0.008 -0.021,0.024c-0.071,0.133 -0.113,0.281 -0.155,0.438c0.006,0.101 0.014,0.195 0.014,0.297l0.254,0l0,-0.767l-0.071,0c-0.007,0 -0.014,0.008 -0.021,0.008" style="fill:#2d3853;fill-rule:nonzero;"/><path d="M134.006,59.891c-0.007,0.008 -0.014,0.008 -0.021,0.024c-0.071,0.133 -0.113,0.281 -0.155,0.438c0.006,0.101 0.014,0.195 0.014,0.297l0.254,0l0,-0.767l-0.071,0c-0.007,0 -0.014,0.008 -0.021,0.008Z" style="fill:none;stroke:#fff;stroke-width:1px;"/><path d="M132.686,60.65l1.158,0c0,-0.102 -0.008,-0.196 -0.014,-0.297c0.042,-0.157 0.084,-0.305 0.155,-0.438c0.007,-0.016 0.014,-0.016 0.021,-0.024c0.007,0 0.014,-0.007 0.021,-0.007l-1.341,0l0,0.766Z" style="fill:#2d3853;fill-rule:nonzero;stroke:#fff;stroke-width:1px;"/><path d="M122.366,167.322c-2.866,2.252 -5.887,4.263 -8.831,6.406c-5.971,4.349 -11.922,8.745 -17.908,13.078c-2.132,1.533 -4.391,2.878 -7.151,1.791c-1.497,-0.579 -2.732,-1.846 -3.297,-3.488c-0.889,-2.574 0.41,-4.232 2.132,-5.476c9.622,-6.954 19.25,-13.899 28.85,-20.876c1.045,-0.758 2.16,-0.923 3.332,-0.962c2.45,-0.062 4.024,1.369 4.807,3.762c0.805,2.425 -0.218,4.412 -1.934,5.765m-35.697,6.163c-1.772,1.338 -3.586,2.496 -5.838,2.332c-1.744,0.062 -3.297,-0.329 -4.2,-2.191c-0.988,-2.017 -0.318,-3.746 0.79,-5.42c1.37,-2.057 3.41,-3.176 5.245,-4.544c8.676,-6.446 17.415,-12.797 26.147,-19.156c2.005,-1.454 4.143,-2.557 6.621,-1.65c1.702,0.618 3.367,1.447 3.72,3.692c0.339,2.213 -1.129,3.207 -2.52,4.263c-10.002,7.54 -19.984,15.103 -29.965,22.674m-14.274,-9.198c-2.484,0.384 -4.779,0.024 -6.056,-2.714c-1.356,-2.91 0.431,-4.81 2.238,-6.226c5.745,-4.482 11.654,-8.705 17.435,-13.125c3.657,-2.784 7.546,-5.209 10.998,-8.314l0,0.008c2.069,-1.189 7.123,-5.522 9.311,-6.531c2.809,-1.291 5.146,-0.962 6.756,1.908c1.701,3.035 -0.311,4.834 -2.28,6.39c-11.076,8.753 -22.18,17.466 -33.277,26.179c-1.546,1.213 -3.226,2.136 -5.125,2.425m-6.854,-12.827c-1.059,0.798 -2.259,1.439 -3.473,1.869c-2.294,0.806 -4.581,0.657 -5.901,-1.9c-1.384,-2.691 -0.028,-4.873 1.892,-6.367c4.122,-3.223 8.407,-6.179 12.593,-9.3c9.431,-7.056 18.847,-14.134 28.25,-21.22c1.369,-1.033 2.69,-2.112 4.631,-2.167c2.096,0.117 3.967,1.119 4.772,3.598c0.797,2.448 -0.692,3.895 -2.301,5.107c-13.483,10.145 -26.959,20.282 -40.463,30.38m66.997,20.782c-0.481,-0.231 -0.568,-0.75 -0.425,-1.251c0.142,-0.496 -0.095,-1.017 -0.57,-1.218c-1.655,-0.702 -4.078,-1.565 -5.739,-2.295c-0.454,-0.2 -0.694,-0.705 -0.559,-1.182c0.902,-3.183 0.925,-6.301 -2.018,-8.509c-3.338,-2.51 -6.374,-1.227 -9.438,1.048c-6.72,4.999 -13.553,9.817 -20.337,14.713c-1.139,0.828 -2.279,1.597 -3.703,1.378c-0.803,-0.124 -1.174,-1.094 -0.621,-1.691c0.856,-0.923 1.954,-1.464 2.884,-2.166c8.337,-6.304 16.723,-12.538 25.06,-18.851c2.012,-1.525 4.496,-3.05 3.304,-6.46c-1.151,-3.301 -3.735,-4.482 -6.784,-4.498c-2.471,-0.008 -4.504,1.283 -6.473,2.754c-8.584,6.374 -17.175,12.733 -25.766,19.084c-0.037,0.027 -0.074,0.054 -0.112,0.081c-1.061,0.751 -2.233,-0.866 -1.189,-1.641c0.19,-0.141 0.387,-0.276 0.567,-0.419c10.243,-8.056 20.478,-16.12 30.735,-24.145c3.516,-2.753 4.426,-4.935 3.113,-7.97c-1.39,-3.207 -4.969,-4.498 -8.513,-3.074c-2.04,0.821 -7.49,5.381 -9.508,6.797c-4.398,3.16 -9.318,7.008 -13.667,10.215c-0.698,0.519 -1.344,1.179 -2.114,1.599c-0.894,0.486 -1.901,-0.585 -1.331,-1.428c0.406,-0.6 1.127,-0.937 1.723,-1.383c8.344,-6.281 16.701,-12.562 25.024,-18.89c4.031,-3.058 4.842,-5.491 3.057,-8.549c-1.921,-3.285 -5.972,-4.38 -9.361,-2.018c-5.852,4.083 -11.527,8.494 -17.287,12.757c-0.533,0.392 -1.012,0.919 -1.815,1.186c-0.608,0.201 -1.232,-0.273 -1.273,-0.912c-0.393,-5.975 -1.131,-11.949 -0.865,-18.013c0.07,-1.69 1.284,-1.682 2.322,-1.643c9.989,0.352 20.577,-0.524 30.107,-1.212c1.023,-0.07 0.797,-0.36 1.341,-1.908c0.847,-2.394 0.847,-2.926 2.598,-5.46c0.95,-1.417 1.964,-0.456 3.03,-1.193c0.118,-0.082 0.216,-0.2 0.287,-0.325c0.667,-1.183 0.807,-2.587 0.318,-4.02c-0.692,0.086 -0.572,0.126 -0.614,0.079c0.007,0.391 -0.021,0.735 -0.078,1.032c0.043,0.978 -0.614,1.932 -1.722,2.065c-0.671,0.133 -1.348,0.172 -2.033,0.102c-3.205,-1.072 -2.513,8.259 -6,8.259l-17.845,0.79c-2.584,0.008 -5.168,0 -7.751,0c-5.45,0.008 -5.443,0.008 -5.555,6.171c-0.009,0.435 0.083,0.921 -0.063,1.371c-0.172,0.532 -0.806,0.753 -1.323,0.539c-4.3,-1.78 -8.827,-2.48 -13.488,-1.049c0,0.039 0.007,0.078 0.007,0.11c0.173,0.186 0.349,0.378 0.523,0.569c0.185,0.202 0.443,0.321 0.716,0.33c3.008,0.09 6.032,-0.178 9.018,0.532c3.289,0.766 5.047,3.019 5.379,6.679c0.092,1.033 0.028,2.089 0.197,3.106c0.72,4.372 -0.734,7.266 -4.306,9.433c-3.137,1.904 -6.015,4.336 -9.093,6.714c-0.607,0.47 -1.502,0.106 -1.62,-0.653c-0.309,-1.995 0.119,-3.861 -0.313,-5.608c-0.367,0.008 -0.727,0.016 -1.094,0.024c-0.042,0.774 -0.191,1.564 -0.106,2.323c0.438,4.043 -0.211,7.313 -3.981,9.284c-2.346,1.236 -3.376,3.873 -3.29,6.877c0.689,1.148 1.523,2.537 2.212,3.685c4.61,2.55 8.833,-0.21 12.944,-4.25c1.433,-1.408 3.014,-2.691 4.843,-3.324c1.207,-0.423 2.139,-2.48 4.122,-0.61c-3.268,2.479 -6.438,4.81 -9.537,7.243c-5.789,4.552 -5.637,8.829 0.402,12.53c0.141,0.086 0.307,0.144 0.472,0.157c1.925,0.151 3.784,-0.451 5.801,-0.941c0.806,-0.196 1.511,0.628 1.17,1.383c-0.963,2.13 -2.582,3.791 -2.07,6.245c0.171,0.548 0.348,1.096 0.526,1.644c0.039,0.123 0.102,0.242 0.183,0.342c3.626,4.504 8.317,1.681 12.427,1.611c0.233,1.135 -0.197,1.448 -0.578,1.69c-2.577,1.619 -4.341,3.841 -3.247,7.282c1.087,3.418 3.515,4.803 6.833,4.951c0.717,0.035 1.417,0.114 2.116,0.218c0.168,0.026 0.34,0.008 0.499,-0.051c0.771,-0.289 1.532,-0.572 2.305,-0.855c0.007,-0.032 0.021,-0.071 0.028,-0.11c-0.198,-0.086 -0.388,-0.171 -0.579,-0.265c3.516,-2.629 6.558,-4.928 9.636,-7.18c4.306,-3.145 8.619,-6.281 12.96,-9.371c6.156,-4.382 8.887,-4.517 13.209,-0.628c0.194,0.174 0.448,0.274 0.709,0.267c0.61,-0.017 1.709,0.027 1.047,-0.03" style="fill:#fff;fill-rule:nonzero;"/><rect x="130.95" y="59.884" width="1.737" height="0.766" style="fill:#2d3853;fill-rule:nonzero;stroke:#fff;stroke-width:1px;"/><rect x="130.95" y="54.784" width="1.737" height="5.1" style="fill:#2d3853;fill-rule:nonzero;stroke:#fff;stroke-width:1px;"/><rect x="130.95" y="53.908" width="1.737" height="0.876" style="fill:#2d3853;fill-rule:nonzero;stroke:#fff;stroke-width:1px;"/><rect x="130.95" y="50.709" width="1.737" height="3.199" style="fill:#2d3853;fill-rule:nonzero;stroke:#fff;stroke-width:1px;"/><path d="M130.265,60.267c-0.007,0.133 -0.014,0.258 -0.014,0.383l0.699,0l0,-0.766l-0.812,0c0.057,0.117 0.099,0.25 0.127,0.383" style="fill:#2d3853;fill-rule:nonzero;"/><path d="M130.265,60.267c-0.007,0.133 -0.014,0.258 -0.014,0.383l0.699,0l0,-0.766l-0.812,0c0.057,0.117 0.099,0.25 0.127,0.383Z" style="fill:none;stroke:#fff;stroke-width:1px;"/><rect x="123.334" y="53.908" width="7.617" height="0.876" style="fill:#2d3853;fill-rule:nonzero;stroke:#fff;stroke-width:1px;"/><path d="M129.848,59.884l0,0.766l0.402,0c0,-0.125 0.007,-0.25 0.014,-0.383c-0.028,-0.133 -0.07,-0.266 -0.126,-0.383l-0.29,0Z" style="fill:#2d3853;fill-rule:nonzero;stroke:#fff;stroke-width:1px;"/><path d="M129.848,59.884l0.29,0c-0.008,-0.023 -0.015,-0.039 -0.022,-0.055c-0.007,-0.008 -0.014,-0.015 -0.021,-0.023c-0.261,-0.11 -0.522,-0.211 -0.776,-0.321l-0.403,3.082c0,0.008 0,0.008 0.007,0.015c0.48,1.658 -0.36,2.621 -1.256,3.403c-0.007,0.008 -0.007,0.015 -0.007,0.023c-0.41,1.924 -0.953,3.794 -1.645,5.538c-0.007,0.016 0,0.031 0.014,0.047c0.523,0.383 0.989,1.079 1.384,2.127c0.007,0.016 0,0.032 -0.007,0.039c-0.904,0.775 -1.257,2.034 -1.257,3.661c0,3.238 -2.139,5.248 -4.454,6.289c-0.007,0.007 -0.014,0.007 -0.014,0.007l-8.873,0.321c-4.666,0.11 -9.107,0.939 -13.314,1.072c-0.014,0 -0.028,0.023 -0.028,0.039c0.028,1.048 0.028,1.079 -0.056,1.721c0,0.023 0.014,0.047 0.035,0.047c1.56,0.039 1.567,0.039 3.148,-0.04l11.739,-0.336c-0.183,-0.07 -0.381,-0.141 -0.578,-0.195l-3.318,0c1.299,-0.306 2.393,-0.259 3.318,0l4.666,0l0,0.078l1.425,-0.039c5.203,-0.118 7.709,-2.738 7.822,-8.424c0.014,-0.61 0.134,-1.221 0.197,-1.768c0.65,-0.219 0.968,-0.086 1.151,0.18c0.184,-5.178 1.144,-10.332 1.228,-15.526c0,-0.063 0,-0.133 0.007,-0.196l-0.402,0l0,-0.766Z" style="fill:#fff;fill-rule:nonzero;"/><path d="M114.333,86.54c0.085,0.039 0.162,0.07 0.24,0.109c1.496,0.704 2.873,4.279 3.353,4.959c0.205,-0.062 0.409,-0.086 0.614,-0.078c-0.042,-1.705 -0.077,-3.402 -0.12,-5.108l-4.087,0.118Z" style="fill:#fff;fill-rule:nonzero;stroke:#fff;stroke-width:1px;"/><path d="M118.54,91.53c-0.205,-0.008 -0.409,0.016 -0.614,0.078c0.042,0.047 -0.078,0.008 0.614,-0.078Z" style="fill:#2d3853;fill-rule:nonzero;stroke:#fff;stroke-width:1px;"/><path d="M114.333,86.54l4.087,-0.118l0,-0.077l-4.666,0c0.198,0.054 0.396,0.124 0.579,0.195Z" style="fill:#2d3853;fill-rule:nonzero;stroke:#fff;stroke-width:1px;"/><path d="M110.436,86.344l3.318,0c-0.925,-0.258 -2.019,-0.305 -3.318,0Z" style="fill:#2d3853;fill-rule:nonzero;stroke:#fff;stroke-width:1px;"/><path d="M106.406,202.676c-0.042,-2.636 -0.374,-5.178 -1.899,-7.345c-0.205,0.313 -0.409,0.618 -0.614,0.931c2.047,6.108 1.419,12.428 1.341,18.702c0.445,0.125 0.904,0.234 1.363,0.328c-0.064,-0.492 -0.078,-1.064 -0.05,-1.713c0.155,-3.621 -0.078,-7.266 -0.141,-10.903" style="fill:#fff;fill-rule:nonzero;"/><path d="M103.257,195.378c0.212,0.297 0.424,0.587 0.635,0.884c0.205,-0.313 0.41,-0.618 0.614,-0.931c-0.183,-0.274 -0.367,-0.54 -0.55,-0.813c-0.233,0.289 -0.466,0.571 -0.699,0.86" style="fill:#fff;fill-rule:nonzero;"/><path d="M95.676,189.504c-0.049,0.015 -0.099,0.039 -0.148,0.054c-0.198,0.743 -0.134,0.517 -0.353,1.346c-0.734,-0.141 -1.461,-0.282 -2.195,-0.399c3.741,0.595 7.207,2.182 10.278,4.873c0.233,-0.29 0.466,-0.571 0.698,-0.86c-1.905,-2.949 -5.033,-3.575 -8.28,-5.014" style="fill:#fff;fill-rule:nonzero;"/><path d="M95.175,190.904c0.219,-0.83 0.155,-0.603 0.353,-1.346c-0.854,0.313 -1.694,0.626 -2.548,0.946c0.734,0.118 1.461,0.259 2.195,0.4" style="fill:#fff;fill-rule:nonzero;"/><path d="M62.075,110.998c-0.028,-0.031 -0.05,-0.055 -0.078,-0.086c-1.016,0.86 -0.734,2.127 -0.727,3.246c0.035,5.983 0.134,11.975 0.212,17.966c0.367,-0.008 0.727,-0.016 1.094,-0.023c0.106,-6.735 0.212,-13.477 0.311,-20.219c-0.247,-0.008 -0.495,-0.024 -0.742,-0.04c-0.042,-0.508 -0.035,-0.422 -0.07,-0.844" style="fill:#fff;fill-rule:nonzero;"/><path d="M62.146,111.843c0.247,0.016 0.494,0.031 0.741,0.039c-0.268,-0.289 -0.543,-0.594 -0.811,-0.883c0.035,0.422 0.028,0.336 0.07,0.844Z" style="fill:#413f3d;fill-rule:nonzero;stroke:#fff;stroke-width:1px;"/><path d="M131.362,60.267l0.911,0l-0.911,0Z" style="fill:none;stroke:#fff;stroke-width:1px;"/><path d="M158.578,214.214l-1.017,0.157c-0.034,0.003 -0.029,0.049 -0.063,0.052l-51.698,0c-0.306,0 -0.554,0.275 -0.554,0.614c0,0.34 0.248,0.614 0.554,0.614l52.483,0c0.307,0 0.556,-0.276 0.554,-0.617l-0.003,-0.697l-0.256,-0.123Z" style="fill:#fff;fill-rule:nonzero;"/><path d="M131.973,172.162l0,-113.741" style="fill:none;stroke:#fff;stroke-width:1px;stroke-miterlimit:100;stroke-dasharray:10,3,1,3;"/><path d="M104.571,86.34l8.216,8.705" style="fill:none;stroke:#fff;stroke-width:0.5px;"/><path d="M109.959,92.069l4.599,-6.052" style="fill:none;stroke:#fff;stroke-width:0.5px;"/><path d="M157.006,86.34l-6.863,9.232" style="fill:none;stroke:#fff;stroke-width:0.5px;"/><path d="M152.622,92.236l-4.95,-4.897" style="fill:none;stroke:#fff;stroke-width:0.5px;"/><path d="M125.964,80.923l-24.049,1.434l0.055,2.605" style="fill:none;stroke:#fff;stroke-width:0.5px;"/><path d="M117.891,81.43l0,2.607" style="fill:none;stroke:#fff;stroke-width:0.5px;"/><path d="M112.146,81.575l0,3.387" style="fill:none;stroke:#fff;stroke-width:0.5px;"/><path d="M109.253,81.792l0,2.971" style="fill:none;stroke:#fff;stroke-width:0.5px;"/><path d="M106.729,82.211l0,3.387" style="fill:none;stroke:#fff;stroke-width:0.5px;"/><path d="M104.008,82.358l0,3.387" style="fill:none;stroke:#fff;stroke-width:0.5px;"/><path d="M137.575,81.175l25.067,1.345l0,2.568" style="fill:none;stroke:#fff;stroke-width:0.5px;"/><path d="M142.978,84.28l-0.21,-2.735" style="fill:none;stroke:#fff;stroke-width:0.5px;"/><path d="M146.193,81.702l0,2.607" style="fill:none;stroke:#fff;stroke-width:0.5px;"/><path d="M151.938,81.848l0,3.387" style="fill:none;stroke:#fff;stroke-width:0.5px;"/><path d="M154.83,82.065l0,2.971" style="fill:none;stroke:#fff;stroke-width:0.5px;"/><path d="M157.354,82.174l0,3.387" style="fill:none;stroke:#fff;stroke-width:0.5px;"/><path d="M160.075,82.343l0,3.387" style="fill:none;stroke:#fff;stroke-width:0.5px;"/><path d="M125.8,62.217l2.864,0l3.308,-2.885l-9.295,0l3.123,2.885Z" style="fill:#fff;fill-rule:nonzero;stroke:#fff;stroke-width:0.5px;"/><path d="M112.927,66.224l4.286,0" style="fill:none;stroke:#fff;stroke-width:0.5px;"/><path d="M115.07,62.252c-1.062,0 -1.923,0.889 -1.923,1.986c0,1.096 0.861,1.985 1.923,1.985c1.062,0 1.923,-0.889 1.923,-1.985c0,-1.097 -0.861,-1.986 -1.923,-1.986Z" style="fill:none;stroke:#fff;stroke-width:0.5px;"/><path d="M115.07,66.224l-1.026,17.827" style="fill:none;stroke:#fff;stroke-width:0.5px;"/><path d="M115.07,66.224l1.298,17.685" style="fill:none;stroke:#fff;stroke-width:0.5px;"/><path d="M123.636,59.368l-6.758,5.409" style="fill:none;stroke:#fff;stroke-width:0.5px;"/><path d="M151.226,66.224l-4.286,0" style="fill:none;stroke:#fff;stroke-width:0.5px;"/><path d="M149.083,62.252c-1.062,0 -1.923,0.889 -1.923,1.986c0,1.096 0.861,1.985 1.923,1.985c1.062,0 1.923,-0.889 1.923,-1.985c0,-1.097 -0.861,-1.986 -1.923,-1.986Z" style="fill:none;stroke:#fff;stroke-width:0.5px;"/><path d="M149.083,66.224l1.064,18.086" style="fill:none;stroke:#fff;stroke-width:0.5px;"/><path d="M149.083,66.639l-1.298,17.685" style="fill:none;stroke:#fff;stroke-width:0.5px;"/><path d="M140.447,59.368l6.844,5.433" style="fill:none;stroke:#fff;stroke-width:0.5px;"/><rect x="130.318" y="40.073" width="3" height="19.743" style="fill:#fff;"/><path d="M131.818,59.816l0,-28.689" style="fill:none;stroke:#fff;stroke-width:1px;"/><path d="M124.8,78.519c-0.643,0 -1.164,0.539 -1.164,1.202c0,0.664 0.521,1.202 1.164,1.202c0.643,0 1.164,-0.538 1.164,-1.202c0,-0.663 -0.521,-1.202 -1.164,-1.202Z" style="fill:none;stroke:#fff;stroke-width:0.5px;"/><path d="M139.283,78.519c-0.643,0 -1.164,0.539 -1.164,1.202c0,0.664 0.521,1.202 1.164,1.202c0.643,0 1.164,-0.538 1.164,-1.202c0,-0.663 -0.521,-1.202 -1.164,-1.202Z" style="fill:none;stroke:#fff;stroke-width:0.5px;"/><path d="M124.538,78.519l4.386,-16.362" style="fill:none;stroke:#fff;stroke-width:0.5px;"/><path d="M135.095,62.157l4.188,16.362" style="fill:none;stroke:#fff;stroke-width:0.5px;"/><path d="M153.574,103.151l6.501,-1.988l-6.237,0l-0.264,1.988Z" style="fill:#fff;fill-rule:nonzero;stroke:#fff;stroke-width:0.5px;"/><path d="M153.148,101.162l6.927,0l0,2.835" style="fill:none;stroke:#fff;stroke-width:0.5px;"/><path d="M152.479,99.346l6.681,0.181" style="fill:none;stroke:#fff;stroke-width:0.5px;"/><path d="M159.009,99.5l0,1.76" style="fill:none;stroke:#fff;stroke-width:0.5px;"/><path d="M157.453,99.5l0,1.76" style="fill:none;stroke:#fff;stroke-width:0.5px;"/><path d="M156.079,99.598l0,1.76" style="fill:none;stroke:#fff;stroke-width:0.5px;"/><path d="M154.83,99.402l0,1.76" style="fill:none;stroke:#fff;stroke-width:0.5px;"/><path d="M104.571,100.666l6.501,1.988l-0.264,-1.988l-6.237,0Z" style="fill:#fff;fill-rule:nonzero;stroke:#fff;stroke-width:0.5px;"/><path d="M110.636,100.666l-5.973,0l0,2.835" style="fill:none;stroke:#fff;stroke-width:0.5px;"/><path d="M112.215,99.011l-7.073,0.158" style="fill:none;stroke:#fff;stroke-width:0.5px;"/><path d="M104.959,99.004l0,1.76" style="fill:none;stroke:#fff;stroke-width:0.5px;"/><path d="M110.636,98.914l0,1.76" style="fill:none;stroke:#fff;stroke-width:0.5px;"/><path d="M109.253,99.004l0,1.76" style="fill:none;stroke:#fff;stroke-width:0.5px;"/><path d="M107.821,99.004l0,1.76" style="fill:none;stroke:#fff;stroke-width:0.5px;"/><path d="M106.155,99.305l0,1.76" style="fill:none;stroke:#fff;stroke-width:0.5px;"/><path d="M131.503,59.391l-2.751,2.766" style="fill:none;stroke:#fff;stroke-width:0.5px;"/><path d="M134.647,62.217l2.864,0l3.123,-2.885l-9.295,0l3.308,2.885Z" style="fill:#fff;fill-rule:nonzero;stroke:#fff;stroke-width:0.5px;"/><path d="M149.083,81.792l0,2.259" style="fill:none;stroke:#fff;stroke-width:0.5px;"/><path d="M115.07,81.511l0,2.798" style="fill:none;stroke:#fff;stroke-width:0.5px;"/><path d="M120.947,81.222l0,2.686" style="fill:none;stroke:#fff;stroke-width:0.5px;"/><path d="M131.973,89.795c-0.69,0 -1.25,0.52 -1.25,1.161c0,0.641 0.56,1.161 1.25,1.161c0.69,0 1.25,-0.52 1.25,-1.161c0,-0.641 -0.56,-1.161 -1.25,-1.161" style="fill:#fff;fill-rule:nonzero;"/><path d="M131.973,89.795c-0.69,0 -1.25,0.52 -1.25,1.161c0,0.641 0.56,1.161 1.25,1.161c0.69,0 1.25,-0.52 1.25,-1.161c0,-0.641 -0.56,-1.161 -1.25,-1.161Z" style="fill:none;stroke:#fff;stroke-width:1px;"/><path d="M131.973,123.299c-0.69,0 -1.25,0.52 -1.25,1.161c0,0.641 0.56,1.161 1.25,1.161c0.69,0 1.25,-0.52 1.25,-1.161c0,-0.641 -0.56,-1.161 -1.25,-1.161" style="fill:#fff;fill-rule:nonzero;"/><path d="M131.973,123.299c-0.69,0 -1.25,0.52 -1.25,1.161c0,0.641 0.56,1.161 1.25,1.161c0.69,0 1.25,-0.52 1.25,-1.161c0,-0.641 -0.56,-1.161 -1.25,-1.161Z" style="fill:none;stroke:#fff;stroke-width:1px;"/><path d="M131.973,158.312c-0.69,0 -1.25,0.52 -1.25,1.161c0,0.641 0.56,1.161 1.25,1.161c0.69,0 1.25,-0.52 1.25,-1.161c0,-0.641 -0.56,-1.161 -1.25,-1.161" style="fill:#fff;fill-rule:nonzero;"/><path d="M131.973,158.312c-0.69,0 -1.25,0.52 -1.25,1.161c0,0.641 0.56,1.161 1.25,1.161c0.69,0 1.25,-0.52 1.25,-1.161c0,-0.641 -0.56,-1.161 -1.25,-1.161Z" style="fill:none;stroke:#fff;stroke-width:1px;"/><path d="M126.779,89.427l0.929,2.155l0.93,-2.155l0.486,0l0,2.642l-0.375,0l0,-1.029l0.035,-1.111l-0.933,2.14l-0.287,0l-0.932,-2.134l0.037,1.105l0,1.029l-0.375,0l0,-2.642l0.485,0Z" style="fill:#fff;fill-rule:nonzero;"/><path d="M136.62,125.559c-0.096,0.128 -0.231,0.224 -0.403,0.288c-0.173,0.063 -0.373,0.095 -0.603,0.095c-0.231,0 -0.437,-0.051 -0.617,-0.152c-0.179,-0.101 -0.318,-0.244 -0.417,-0.431c-0.098,-0.186 -0.149,-0.402 -0.151,-0.647l0,-0.231c0,-0.398 0.1,-0.706 0.3,-0.925c0.2,-0.219 0.48,-0.328 0.842,-0.328c0.297,0 0.536,0.07 0.717,0.211c0.181,0.141 0.292,0.341 0.332,0.6l-0.375,0c-0.07,-0.351 -0.294,-0.527 -0.672,-0.527c-0.251,0 -0.441,0.082 -0.571,0.246c-0.129,0.164 -0.195,0.402 -0.196,0.713l0,0.216c0,0.297 0.073,0.533 0.219,0.708c0.145,0.174 0.343,0.262 0.591,0.262c0.141,0 0.264,-0.015 0.37,-0.044c0.105,-0.028 0.192,-0.077 0.261,-0.146l0,-0.592l-0.658,0l0,-0.285l1.031,0l0,0.969Z" style="fill:#fff;fill-rule:nonzero;"/><path d="M127.061,161.108l0,-2.642l0.929,0c0.309,0 0.541,0.059 0.697,0.178c0.155,0.118 0.233,0.294 0.233,0.526c0,0.123 -0.038,0.233 -0.113,0.327c-0.076,0.095 -0.179,0.169 -0.309,0.221c0.154,0.04 0.275,0.116 0.365,0.228c0.089,0.111 0.133,0.245 0.133,0.4c0,0.237 -0.082,0.423 -0.248,0.558c-0.165,0.136 -0.399,0.204 -0.701,0.204l-0.986,0Zm0.375,-1.236l0,0.951l0.619,0c0.174,0 0.312,-0.042 0.413,-0.126c0.101,-0.084 0.151,-0.2 0.151,-0.348c0,-0.318 -0.186,-0.477 -0.558,-0.477l-0.625,0Zm0,-0.279l0.566,0c0.164,0 0.295,-0.038 0.394,-0.115c0.098,-0.076 0.147,-0.18 0.147,-0.311c0,-0.145 -0.045,-0.251 -0.137,-0.317c-0.091,-0.066 -0.229,-0.099 -0.416,-0.099l-0.554,0l0,0.842Z" style="fill:#fff;fill-rule:nonzero;"/><path d="M263.14,136.199c-0.018,0.368 -0.022,0.779 -0.034,1.217c-0.014,0.816 -0.029,1.74 -0.116,2.666l-0.234,3.055c-1.598,-4.721 -4.363,-7.77 -7.024,-9.727c0.006,-0.355 0.014,-0.714 0.014,-1.065c0,-3.179 -0.121,-6.332 -0.358,-9.45c1.234,0.837 2.372,1.824 3.391,2.947c1.563,1.803 2.844,4.038 3.799,6.658l0.11,0.296l0.053,0c0.17,0.588 0.32,1.154 0.441,1.648l-0.042,1.755Zm-1.057,13.285c-0.053,0.358 -0.102,0.759 -0.151,1.189c-0.094,0.785 -0.204,1.692 -0.377,2.572l-0.575,3.212c-0.501,-2.226 -1.235,-4.152 -2.228,-5.829c-1.031,-1.739 -2.303,-3.274 -3.765,-4.602c0.389,-3.542 0.638,-7.122 0.722,-10.741c2.855,2.388 5.759,6.291 6.581,12.554l-0.207,1.645Zm-2.368,12.97c-0.079,0.318 -0.162,0.675 -0.244,1.045c-0.189,0.84 -0.401,1.79 -0.692,2.729l-0.842,2.971c-0.597,-4.966 -2.7,-8.512 -4.921,-10.964c0.728,-3.41 1.326,-6.875 1.764,-10.38c1.037,1.067 1.96,2.262 2.731,3.571c1.17,2.032 1.971,4.485 2.393,7.281l0.05,0.316l0.048,0.01c0.054,0.595 0.088,1.176 0.11,1.703l-0.397,1.718Zm-3.187,11.234l-0.593,1.758c-0.324,0.973 -0.731,2.188 -1.231,3.391l-1.2,3.043c-0.034,-2.135 -0.367,-4.201 -0.994,-6.169c-0.664,-1.91 -1.601,-3.674 -2.768,-5.277c1.107,-3.393 2.07,-6.854 2.873,-10.375c2.32,2.91 4.382,7.323 3.913,13.629m-4.516,10.499c-0.076,0.619 -0.152,1.201 -0.234,1.693l-1.477,3.25l-2.36,4.616c0.079,-1.05 0.067,-2.023 0.042,-2.854c-0.102,-1.835 -0.341,-3.289 -0.749,-4.571c-0.465,-1.523 -1.11,-2.951 -1.903,-4.309c1.409,-3.205 2.7,-6.485 3.838,-9.83c0.819,1.263 1.475,2.626 1.963,4.052c0.754,2.456 1.042,5.019 0.846,7.609l-0.019,0.321l0.053,0.023Zm-5.661,10.512c-0.159,1.026 -0.396,2.088 -0.698,3.143c-0.273,0.486 -1.471,2.616 -2.838,4.66l-1.796,2.789c1.005,-5.132 -0.057,-9.239 -1.341,-12.027c1.759,-3.103 3.394,-6.288 4.894,-9.549c0.483,0.954 0.909,1.939 1.231,2.98c0.457,1.496 0.692,3.142 0.722,5.055c0.003,0.727 -0.011,1.826 -0.174,2.949m-7.216,12.146l-0.092,0.317l0.05,0.032c-0.186,0.593 -0.382,1.153 -0.556,1.622l-1.026,1.445c-0.401,0.554 -0.918,1.21 -1.471,1.905c-0.297,0.381 -0.604,0.772 -0.909,1.165c-0.653,0.861 -1.336,1.699 -1.926,2.415c0.022,-0.074 0.05,-0.153 0.068,-0.226c0.219,-0.771 0.397,-1.606 0.544,-2.559c0.235,-1.561 0.298,-3.114 0.189,-4.625c-0.137,-1.557 -0.484,-3.096 -1.001,-4.598c2.039,-2.871 3.953,-5.833 5.743,-8.877c1.107,2.85 1.828,6.935 0.387,11.984m-106.771,45.673c-66.371,0 -120.178,-53.804 -120.178,-120.176c0,-66.37 53.807,-120.175 120.178,-120.175c66.37,0 120.177,53.805 120.177,120.175c0,66.372 -53.807,120.176 -120.177,120.176m97.808,-33.253c-0.003,0 -0.441,0.524 -1.124,1.275l-2.629,2.757c-0.624,0.672 -1.484,1.567 -2.288,2.326c0.808,-1.927 1.313,-3.96 1.499,-6.073c0.189,-1.93 0.029,-3.92 -0.442,-5.929c2.368,-2.706 4.614,-5.504 6.744,-8.41c0.993,3.6 1.16,8.464 -1.76,14.054m-6.676,3.765c-0.306,1.118 -0.789,2.281 -1.551,3.773l-0.149,0.289l0.042,0.044c-0.302,0.554 -0.604,1.068 -0.873,1.507c-0.003,0.007 -0.494,0.501 -1.284,1.164l-2.952,2.557c-0.808,0.726 -1.647,1.385 -2.391,1.972c0.499,-0.91 0.888,-1.757 1.186,-2.599c0.533,-1.488 0.898,-3.007 1.087,-4.506c0.205,-1.512 0.174,-3.093 -0.04,-4.712c2.57,-2.407 5.047,-4.918 7.408,-7.535c0.076,0.442 0.14,0.887 0.186,1.318c0.082,1.041 0.079,2.107 -0.017,3.173c-0.105,1.177 -0.324,2.374 -0.652,3.555m-12.833,14.19l-4.462,3.176c-0.731,0.52 -1.493,1.007 -2.169,1.435c-0.189,0.121 -0.37,0.233 -0.547,0.344c0.437,-0.632 0.835,-1.275 1.186,-1.921c0.581,-1.058 1.061,-2.239 1.502,-3.716c0.593,-2.062 0.831,-3.993 0.768,-5.901c2.855,-2.17 5.618,-4.456 8.269,-6.864c0.076,1.086 0.068,2.159 -0.065,3.212c-0.209,1.723 -0.644,3.4 -1.287,4.967c-0.786,1.784 -1.862,3.555 -3.195,5.268m-9.554,5.707l-0.203,0.245l0.037,0.058c-0.381,0.459 -0.771,0.926 -1.133,1.28l-4.897,2.818l-2.769,1.425c0.615,-0.743 1.179,-1.504 1.677,-2.278c0.778,-1.222 1.423,-2.608 1.971,-4.221c0.51,-1.506 0.801,-3.055 0.918,-4.618c3.007,-1.842 5.925,-3.806 8.754,-5.895c-0.118,3.347 -1.201,7.24 -4.355,11.186m-13.165,7.905c-0.373,0.178 -2.672,1.227 -4.976,2.235l-3.045,1.196c3.55,-3.49 5.129,-7.252 5.714,-10.598c3.241,-1.558 6.398,-3.249 9.479,-5.07c-0.151,1.058 -0.366,2.102 -0.71,3.139c-1.072,3.38 -3.243,6.44 -6.462,9.098m-10.501,3.705l-0.242,0.204l0.023,0.058c-0.419,0.331 -0.865,0.637 -1.345,0.949l-0.093,0.063l-1.618,0.549c-0.35,0.113 -0.743,0.245 -1.158,0.391c-0.771,0.265 -1.652,0.567 -2.535,0.818l-2.961,0.835c3.901,-3.143 5.801,-6.79 6.704,-9.961c3.319,-1.196 6.57,-2.531 9.747,-4.001c-0.359,1.457 -0.896,2.865 -1.605,4.219c-1.039,2.018 -2.651,3.941 -4.917,5.876m-14.438,5.04l-1.681,0.389c-0.327,0.07 -0.686,0.155 -1.068,0.246c-0.804,0.186 -1.719,0.405 -2.64,0.551l-3.21,0.57c1.889,-1.226 3.464,-2.601 4.698,-4.101c1.274,-1.567 2.282,-3.296 3.025,-5.123c3.497,-0.865 6.938,-1.882 10.31,-3.039c-0.358,0.995 -0.782,1.981 -1.318,2.927c-0.458,0.797 -0.903,1.474 -1.353,2.056c-0.547,0.681 -1.152,1.344 -1.804,1.966c-1.692,1.601 -3.297,2.739 -4.959,3.558m-11.083,1.525l-0.284,0.154l0.008,0.051c-0.556,0.259 -1.087,0.49 -1.556,0.685c0,0 -2.398,0.304 -2.753,0.346c-0.873,0.118 -1.858,0.251 -2.858,0.304l-3.07,0.233c4.445,-2.28 7.054,-5.478 8.583,-8.402c3.501,-0.504 6.952,-1.138 10.344,-1.928c-0.639,1.344 -1.447,2.619 -2.406,3.802c-1.545,1.823 -3.57,3.424 -6.008,4.755m-15.215,2.009l-1.663,0.045c-0.342,0 -0.724,0.014 -1.132,0.029c-0.51,0.01 -1.061,0.032 -1.631,0.032c-0.336,0 -0.677,-0.006 -1.027,-0.022l-3.268,-0.084c2.112,-0.831 3.936,-1.855 5.434,-3.075c1.561,-1.281 2.894,-2.768 3.99,-4.416c3.612,-0.146 7.193,-0.436 10.723,-0.889c-1.926,3.177 -5.351,6.63 -11.426,8.38m-11.096,-0.718l-0.305,0.091l0,0.055c-0.545,0.135 -1.11,0.258 -1.663,0.365l-1.756,-0.136c-0.37,-0.034 -0.785,-0.065 -1.223,-0.094c-0.811,-0.059 -1.734,-0.122 -2.647,-0.252l-3.044,-0.383c4.801,-1.359 7.984,-3.971 10.065,-6.529c2.423,0.139 4.86,0.223 7.317,0.223c1.073,0 2.143,-0.013 3.208,-0.045c-0.895,1.194 -1.942,2.278 -3.117,3.241c-1.853,1.464 -4.154,2.627 -6.835,3.464m-15.306,-1.06l-1.638,-0.294c-0.348,-0.061 -0.729,-0.129 -1.137,-0.2c-0.797,-0.139 -1.704,-0.296 -2.591,-0.517l-3.184,-0.742c2.225,-0.384 4.215,-1.026 5.938,-1.918c1.786,-0.947 3.386,-2.139 4.787,-3.529c3.521,0.569 7.085,0.992 10.696,1.259c-2.523,2.731 -6.571,5.434 -12.871,5.941m-10.74,-2.934l-0.316,0.029l-0.016,0.049c-0.306,0.009 -0.608,0.024 -0.925,0.024c-0.174,0 -0.703,-0.005 -0.782,0l-2.492,-0.71c-0.895,-0.253 -1.911,-0.541 -2.919,-0.908l-2.938,-0.99c5.003,-0.338 8.659,-2.272 11.211,-4.353c3.373,0.907 6.798,1.672 10.281,2.291c-1.127,0.988 -2.365,1.839 -3.705,2.548c-2.127,1.072 -4.619,1.752 -7.399,2.02m-14.736,-4.117l-1.615,-0.633c-0.866,-0.333 -2.172,-0.855 -3.486,-1.477l-3.006,-1.357c0.268,0.013 0.533,0.029 0.797,0.029c1.816,0 3.64,-0.235 5.442,-0.697c1.944,-0.564 3.749,-1.414 5.407,-2.496c3.339,1.276 6.749,2.414 10.216,3.403c-2.515,1.8 -6.092,3.394 -10.877,3.394c-0.966,0 -1.974,-0.063 -2.878,-0.166m-9.953,-5.086l-0.325,-0.046l-0.031,0.06c-0.607,-0.102 -1.186,-0.211 -1.676,-0.317l-1.59,-0.812c-0.96,-0.466 -2.19,-1.17 -3.388,-1.868l-2.688,-1.551c0.883,0.116 1.82,0.179 2.851,0.184c1.755,0 3.262,-0.168 4.603,-0.504c1.537,-0.385 3.006,-0.963 4.396,-1.69c3.138,1.575 6.348,3.025 9.63,4.333c-1.322,0.763 -2.716,1.349 -4.143,1.748c-1.676,0.424 -3.365,0.637 -5.03,0.637c-0.868,0 -1.745,-0.058 -2.609,-0.174m-13.664,-7.026c-0.472,-0.297 -2.53,-1.598 -4.513,-3.07c-0.396,-0.282 -0.797,-0.564 -1.185,-0.837c-0.559,-0.394 -1.069,-0.762 -1.53,-1.108c1.688,0.423 3.365,0.65 5.019,0.65c2.44,0 4.804,-0.485 7.055,-1.384c3.02,1.926 6.128,3.723 9.319,5.384c-0.977,0.443 -1.982,0.819 -3.036,1.086c-1.427,0.323 -2.885,0.481 -4.328,0.481c-2.277,0 -4.565,-0.402 -6.801,-1.202m-8.972,-7.067l-0.034,0.045c-0.589,-0.22 -1.148,-0.439 -1.601,-0.633l-1.376,-1.084l-3.171,-2.734c-0.782,-0.677 -1.53,-1.323 -2.153,-1.904c2.25,0.808 4.528,1.222 6.797,1.222c1.786,0 3.55,-0.276 5.265,-0.768c2.761,2.179 5.619,4.237 8.565,6.178c-1.779,0.586 -3.629,0.899 -5.529,0.899c-2.115,0 -4.286,-0.381 -6.454,-1.118l-0.309,-0.103Zm-11.644,-9.465l-0.343,-0.333c-0.215,-0.2 -0.521,-0.491 -0.868,-0.864l-2.632,-2.765c-0.846,-0.855 -1.617,-1.722 -2.202,-2.403c0.729,0.361 1.424,0.653 2.107,0.889c1.292,0.431 2.602,0.737 3.89,0.918c0.921,0.127 1.827,0.189 2.7,0.189c0.275,0 0.544,-0.003 0.816,-0.021c0.815,-0.054 1.627,-0.16 2.424,-0.312c2.576,2.501 5.257,4.886 8.044,7.153c-1.065,0.237 -2.13,0.399 -3.195,0.426c-0.162,0.01 -0.333,0.01 -0.498,0.01c-1.508,0 -3.06,-0.186 -4.608,-0.554c-1.733,-0.414 -3.606,-1.199 -5.635,-2.333m-7.393,-8.767l-0.054,0.043c-0.535,-0.331 -1.038,-0.654 -1.45,-0.935l-0.305,-0.352l-3.21,-4.08c-0.601,-0.732 -1.149,-1.509 -1.632,-2.202c-0.068,-0.097 -0.136,-0.194 -0.2,-0.291c0.854,0.525 1.684,0.963 2.519,1.325c1.465,0.607 2.965,1.045 4.452,1.307c1.032,0.189 2.1,0.282 3.173,0.282c0.505,0 1.023,-0.038 1.54,-0.084c2.27,2.691 4.649,5.289 7.142,7.776c-0.65,0.077 -1.307,0.125 -1.968,0.125c-0.823,0 -1.676,-0.058 -2.522,-0.182c-1.168,-0.163 -2.354,-0.441 -3.513,-0.821c-1.182,-0.418 -2.386,-0.987 -3.697,-1.75l-0.275,-0.161Zm-9.547,-11.631l-2.954,-4.604c-0.483,-0.773 -0.929,-1.558 -1.333,-2.263c-0.048,-0.09 -0.169,-0.308 -0.328,-0.576c3.47,2.598 7.285,3.955 11.359,4.057c2.032,2.974 4.188,5.849 6.462,8.625c-0.098,0 -0.204,0.009 -0.306,0.009c-0.978,0 -1.96,-0.082 -2.911,-0.252c-1.817,-0.321 -3.418,-0.827 -4.894,-1.543c-1.813,-0.909 -3.528,-2.069 -5.095,-3.453m-5.227,-9.828l-0.242,-0.218l-0.06,0.037c-0.411,-0.377 -0.849,-0.795 -1.205,-1.201l-2.575,-5.033l-1.284,-2.845c0.71,0.656 1.443,1.255 2.19,1.797c1.13,0.82 2.436,1.517 4.12,2.187c1.496,0.584 3.022,0.954 4.559,1.154c1.688,3.093 3.515,6.114 5.453,9.042c-3.962,-0.336 -7.644,-1.981 -10.956,-4.92m-7.206,-13.492l-0.634,-1.611c-0.124,-0.333 -0.271,-0.704 -0.43,-1.098c-0.302,-0.747 -0.634,-1.592 -0.929,-2.437l-1.05,-3.102c1.541,1.74 3.115,3.073 4.777,4.025c1.741,1.022 3.595,1.758 5.521,2.215c1.39,3.328 2.927,6.576 4.596,9.753c-1.05,-0.204 -2.092,-0.495 -3.112,-0.892c-1.684,-0.64 -3.187,-1.484 -4.463,-2.495c-1.288,-1.028 -2.946,-2.459 -4.276,-4.358m-3.19,-10.737l-0.193,-0.255l-0.052,0.023c-0.314,-0.449 -0.605,-0.915 -0.918,-1.435l-0.484,-1.697c-0.094,-0.357 -0.208,-0.748 -0.328,-1.165c-0.23,-0.785 -0.495,-1.682 -0.688,-2.586l-0.69,-3.006c2.934,4.053 6.487,6.143 9.61,7.213c1.024,3.375 2.19,6.689 3.489,9.934c-1.43,-0.43 -2.813,-1.037 -4.123,-1.816c-1.991,-1.177 -3.829,-2.88 -5.623,-5.21m-4.593,-16.377c-0.052,-0.307 -0.113,-0.646 -0.181,-1.007c-0.151,-0.832 -0.324,-1.775 -0.426,-2.733l-0.404,-3.235c1.117,1.936 2.409,3.579 3.852,4.904c1.499,1.35 3.172,2.436 4.966,3.272c0.687,3.543 1.521,7.044 2.511,10.475c-3.433,-1.422 -7.368,-4.282 -10.027,-10.038l-0.291,-1.638Zm-1.457,-11.32l-0.132,-1.76c-0.023,-0.323 -0.049,-0.681 -0.08,-1.063c-0.071,-0.854 -0.147,-1.83 -0.151,-2.809l-0.075,-3.061c2.058,4.539 5.117,7.304 7.957,8.981c0.321,3.517 0.785,6.993 1.397,10.425c-1.314,-0.711 -2.545,-1.577 -3.675,-2.594c-1.752,-1.657 -3.247,-3.756 -4.441,-6.246l-0.139,-0.286l-0.053,0.003c-0.234,-0.575 -0.442,-1.118 -0.608,-1.59m-0.404,-15.073c0.015,-0.361 0.023,-0.765 0.03,-1.191c0.015,-0.8 0.031,-1.703 0.117,-2.598l0.246,-3.256c0.721,2.16 1.646,4.002 2.805,5.573c1.198,1.627 2.621,3.028 4.208,4.197c-0.004,0.404 -0.016,0.805 -0.016,1.207c0,3.217 0.125,6.404 0.366,9.554c-3.073,-2.085 -6.351,-5.674 -7.798,-11.829l0.042,-1.657Zm1.042,-13.136c0.057,-0.359 0.102,-0.768 0.155,-1.201c0.098,-0.814 0.208,-1.739 0.389,-2.643l0.544,-3.02c1.106,4.865 3.554,8.171 6.005,10.383c-0.379,3.462 -0.62,6.964 -0.706,10.507c-1.145,-0.958 -2.18,-2.059 -3.079,-3.28c-1.367,-1.903 -2.413,-4.261 -3.116,-7.004l-0.079,-0.306l-0.052,-0.008c-0.106,-0.522 -0.196,-1.078 -0.284,-1.679l0.223,-1.749Zm2.398,-13.124c0.072,-0.295 0.151,-0.635 0.23,-0.99c0.186,-0.824 0.397,-1.763 0.684,-2.689l0.892,-3.142c0.264,2.21 0.807,4.228 1.619,6.028c0.85,1.834 1.96,3.493 3.282,4.968c-0.747,3.479 -1.356,7.022 -1.801,10.614c-2.599,-2.662 -5.094,-6.836 -5.279,-13.158l0.373,-1.631Zm3.112,-10.984l0.665,-1.974c0.325,-0.97 0.729,-2.17 1.22,-3.353l1.14,-2.894c0.076,5.011 1.809,8.763 3.772,11.438c-1.072,3.321 -2.016,6.703 -2.809,10.141c-0.929,-1.173 -1.722,-2.451 -2.36,-3.828c-0.971,-2.238 -1.522,-4.76 -1.628,-7.492l-0.015,-0.32l-0.053,-0.015c0.011,-0.612 0.034,-1.207 0.068,-1.703m4.856,-12.473l1.443,-3.172l2.424,-4.731c-0.18,2.049 -0.067,4.138 0.356,6.25c0.452,1.945 1.208,3.794 2.22,5.526c-1.443,3.268 -2.753,6.611 -3.913,10.017c-0.577,-0.901 -1.098,-1.838 -1.521,-2.837c-0.604,-1.381 -1.001,-2.957 -1.239,-4.957c-0.102,-0.953 -0.147,-1.949 -0.129,-2.957c0.038,-0.948 0.163,-1.981 0.359,-3.139m5.582,-9.635l0.721,0l-0.71,-0.394c0.133,-0.61 0.268,-1.185 0.397,-1.665l0.891,-1.546c0.381,-0.704 0.929,-1.556 1.511,-2.461l1.31,-2.045c0.317,-0.49 0.62,-0.973 0.902,-1.4c-0.173,0.915 -0.282,1.859 -0.332,2.851c-0.083,1.678 0.004,3.186 0.273,4.621c0.305,1.561 0.811,3.05 1.464,4.48c-1.733,3.056 -3.342,6.187 -4.815,9.397c-0.706,-1.379 -1.223,-2.796 -1.533,-4.225c-0.517,-2.611 -0.54,-5.172 -0.079,-7.613m7.678,-13.291l1,-1.401c0.397,-0.538 0.899,-1.186 1.436,-1.863c0.294,-0.369 0.592,-0.75 0.894,-1.138c0.706,-0.939 1.443,-1.837 2.063,-2.578c-1.515,4.996 -0.877,9.184 0.117,12.092c-2.07,2.912 -4.015,5.926 -5.832,9.021c-0.392,-1.004 -0.713,-2.03 -0.929,-3.09c-0.641,-3.761 -0.207,-7.502 1.251,-11.043m7.424,-8.333l0.128,-0.302l-0.053,-0.049c0.246,-0.578 0.492,-1.113 0.711,-1.557l1.155,-1.322l4.113,-4.314l0.774,-0.743c-1.938,4.639 -1.829,8.783 -1.065,12.018c-2.312,2.647 -4.51,5.389 -6.59,8.227c-0.419,-1.509 -0.635,-2.995 -0.627,-4.451c-0.008,-2.729 0.468,-5.185 1.454,-7.507m7.538,-5.951c0.551,-1.787 1.427,-3.622 2.624,-5.519c0.008,-0.008 0.484,-0.482 1.262,-1.138l2.881,-2.501c0.858,-0.767 1.775,-1.483 2.515,-2.062c-0.374,0.687 -0.714,1.374 -0.997,2.049c-0.495,1.267 -0.865,2.566 -1.106,3.843c-0.386,1.984 -0.427,3.978 -0.163,5.942c-2.624,2.443 -5.144,5.001 -7.545,7.672c-0.189,-1.079 -0.294,-2.149 -0.264,-3.212c0.033,-1.668 0.302,-3.376 0.793,-5.074m11.57,-12.182l0.182,-0.274l-0.042,-0.053c0.344,-0.499 0.687,-0.977 1.042,-1.435c0.159,-0.116 0.669,-0.486 1.382,-0.992l3.18,-2.262c0.748,-0.539 1.541,-1.04 2.236,-1.48c0.121,-0.077 0.238,-0.15 0.355,-0.223c-0.548,0.805 -1.035,1.619 -1.454,2.446c-0.679,1.432 -1.193,2.915 -1.525,4.389c-0.359,1.523 -0.491,3.092 -0.442,4.695c-2.803,2.135 -5.518,4.382 -8.131,6.748c-0.09,-1.442 0,-2.944 0.287,-4.492c0.234,-1.206 0.571,-2.379 0.997,-3.464c0.51,-1.206 1.163,-2.422 1.933,-3.603m12.282,-9.214l4.731,-2.724l2.919,-1.498c-3.175,3.831 -4.369,7.735 -4.61,11.123c-3.078,1.881 -6.062,3.898 -8.951,6.029c0.038,-1.041 0.178,-2.117 0.412,-3.208c0.434,-1.866 1.016,-3.443 1.79,-4.81c1.061,-1.863 2.273,-3.474 3.709,-4.912m10.079,-4.727l0.223,-0.23l-0.031,-0.064c0.431,-0.427 0.865,-0.818 1.273,-1.141c0.004,0 2.572,-1.189 5.155,-2.307l2.896,-1.141c-1.925,1.89 -3.368,3.936 -4.293,6.091c-0.661,1.485 -1.103,2.989 -1.379,4.495c-3.183,1.535 -6.288,3.204 -9.313,4.99c0.449,-3.321 1.922,-7.084 5.469,-10.693m13.848,-6.504l1.631,-0.556c0.34,-0.108 0.714,-0.231 1.114,-0.376c0.763,-0.259 1.624,-0.558 2.493,-0.795l3.145,-0.898c-1.797,1.441 -3.202,2.944 -4.263,4.564c-1.11,1.69 -1.93,3.503 -2.489,5.4c-3.388,1.223 -6.703,2.584 -9.947,4.08c0.253,-1.024 0.574,-2.046 1.02,-3.047c0.695,-1.6 1.612,-3.061 2.722,-4.326c1.096,-1.246 2.618,-2.836 4.574,-4.046m10.876,-2.648l0.264,-0.181l-0.015,-0.047c0.472,-0.286 0.974,-0.57 1.48,-0.84l1.722,-0.401c0.34,-0.072 0.715,-0.16 1.111,-0.253c0.819,-0.197 1.745,-0.419 2.688,-0.564l3.033,-0.545c-4.196,2.724 -6.466,6.169 -7.693,9.233c-3.425,0.851 -6.793,1.845 -10.098,2.978c0.502,-1.405 1.178,-2.759 2.017,-4.029c1.284,-1.922 3.135,-3.721 5.491,-5.351m14.939,-3.54c0,0 2.274,-0.286 2.613,-0.331c0.858,-0.107 1.824,-0.233 2.807,-0.291l3.247,-0.244c-1.987,1.021 -3.693,2.228 -5.086,3.601c-1.425,1.429 -2.598,3.043 -3.524,4.796c-3.581,0.504 -7.111,1.163 -10.589,1.968c1.597,-3.354 4.656,-7.14 10.532,-9.499m11.122,-0.39l0.291,-0.122l0,-0.052c0.589,-0.207 1.148,-0.384 1.615,-0.525l1.76,-0.045c0.352,-0.005 0.748,-0.013 1.168,-0.031c0.525,-0.013 1.094,-0.032 1.676,-0.032c0.336,0 0.683,0.006 1.035,0.019l3.062,0.084c-4.634,1.829 -7.545,4.747 -9.362,7.5c-3.533,0.143 -7.034,0.427 -10.486,0.866c0.777,-1.274 1.703,-2.46 2.776,-3.536c1.74,-1.665 3.912,-3.056 6.465,-4.126m15.325,-0.481l1.658,0.126c0.359,0.032 0.751,0.061 1.173,0.092c0.801,0.055 1.711,0.118 2.603,0.249l3.243,0.409c-2.204,0.617 -4.09,1.446 -5.713,2.52c-1.681,1.118 -3.15,2.466 -4.407,3.991c-2.467,-0.145 -4.947,-0.226 -7.452,-0.226c-1.106,0 -2.208,0.013 -3.307,0.042c2.236,-2.966 5.99,-6.064 12.202,-7.203m10.978,1.834l0.31,-0.063l0.01,-0.053c0.547,-0.078 1.123,-0.144 1.693,-0.196l1.732,0.312c0.356,0.069 0.751,0.134 1.172,0.21c0.811,0.14 1.737,0.296 2.643,0.528l3.01,0.692c-4.928,0.856 -8.362,3.131 -10.695,5.471c-3.445,-0.553 -6.93,-0.973 -10.457,-1.231c1.016,-1.093 2.164,-2.072 3.429,-2.912c1.963,-1.263 4.369,-2.194 7.153,-2.758m14.577,2.598c0.181,0 0.365,0 0.551,0.002l2.341,0.669c0.887,0.253 1.892,0.534 2.893,0.895l3.126,1.061c-2.186,0.144 -4.248,0.567 -6.14,1.291c-1.872,0.761 -3.584,1.787 -5.125,3.033c-3.443,-0.926 -6.945,-1.713 -10.501,-2.34c2.7,-2.385 6.827,-4.611 12.855,-4.611m11.249,4.035l0.023,-0.051c0.615,0.038 1.205,0.093 1.7,0.144l1.654,0.656c1.317,0.501 2.522,1.008 3.564,1.505l2.83,1.276l-0.503,0c-0.717,0 -1.457,0.031 -2.341,0.099c-1.734,0.171 -3.219,0.497 -4.532,0.99c-1.497,0.535 -2.897,1.254 -4.208,2.115c-3.273,-1.244 -6.612,-2.365 -10.011,-3.332c1.217,-0.869 2.538,-1.596 3.942,-2.165c2.237,-0.827 4.646,-1.246 7.157,-1.246l0.725,0.009Zm13.925,5.582l1.551,0.797c0.903,0.439 2.081,1.114 3.309,1.821l2.824,1.627c-0.717,-0.092 -1.477,-0.156 -2.281,-0.178c-0.23,-0.007 -0.453,-0.011 -0.676,-0.011c-1.118,0 -2.228,0.085 -3.293,0.253c-1.925,0.33 -3.811,0.987 -5.627,1.926c-3.195,-1.606 -6.462,-3.079 -9.808,-4.411c0.929,-0.536 1.892,-1.006 2.917,-1.383c1.431,-0.53 3.024,-0.84 5.01,-0.976c0.438,-0.032 0.889,-0.042 1.349,-0.042c0.525,0 1.068,0.016 1.605,0.055c1.045,0.113 2.129,0.304 3.12,0.522m9.698,6.148l0.033,-0.052c0.589,0.159 1.156,0.323 1.695,0.509c0.475,0.302 2.607,1.653 4.618,3.138c0.406,0.291 0.813,0.58 1.209,0.86c0.472,0.331 0.926,0.647 1.333,0.948c-0.086,-0.019 -0.17,-0.042 -0.252,-0.061c-0.873,-0.181 -1.737,-0.32 -2.581,-0.406c-0.732,-0.076 -1.468,-0.111 -2.186,-0.111c-0.819,0 -1.63,0.048 -2.44,0.147c-1.57,0.226 -3.087,0.657 -4.546,1.241c-2.964,-1.892 -6.019,-3.654 -9.145,-5.289c2.268,-1.021 4.708,-1.548 7.283,-1.548c1.514,0 3.086,0.186 4.665,0.55l0.314,0.074Zm12.525,8.252l1.344,1.058l3.343,2.884c0.732,0.632 1.424,1.236 1.994,1.776c-1.937,-0.695 -3.999,-1.099 -6.153,-1.191c-0.271,-0.015 -0.543,-0.026 -0.819,-0.026c-1.638,0 -3.346,0.268 -5.078,0.764c-2.81,-2.228 -5.727,-4.323 -8.724,-6.296c1.023,-0.344 2.062,-0.614 3.13,-0.768c0.79,-0.1 1.59,-0.15 2.383,-0.15c2.938,0 5.854,0.672 8.58,1.949m8.248,7.985l0.049,-0.055c0.556,0.273 1.084,0.541 1.533,0.79l0.469,0.446c0.207,0.197 0.48,0.459 0.777,0.779l2.697,2.827c0.652,0.659 1.341,1.416 2.092,2.282c-2.27,-1.08 -4.687,-1.718 -7.21,-1.913c-0.463,-0.037 -0.92,-0.058 -1.37,-0.058c-1.084,0 -2.205,0.122 -3.346,0.336c-2.527,-2.447 -5.159,-4.786 -7.885,-7.01c1.22,-0.271 2.447,-0.423 3.66,-0.423c0.271,0 0.54,0.008 0.811,0.02c2.632,0.113 5.128,0.73 7.421,1.832l0.302,0.147Zm10.642,10.565l0.299,0.349l3.134,3.988c0.585,0.719 1.128,1.482 1.605,2.163c0.113,0.159 0.215,0.294 0.321,0.448c-0.657,-0.401 -1.322,-0.769 -1.99,-1.097c-1.172,-0.538 -2.409,-0.961 -3.788,-1.296c-1.504,-0.367 -3.007,-0.548 -4.467,-0.548c-0.492,0 -0.979,0.028 -1.466,0.071c-2.312,-2.746 -4.739,-5.391 -7.277,-7.925c0.664,-0.077 1.33,-0.136 1.979,-0.136c0.404,0 0.815,0.018 1.243,0.054c1.672,0.116 3.367,0.471 5.029,1.035c1.813,0.685 3.652,1.686 5.378,2.894m6.212,9.284l0.26,0.191l0.054,-0.039c0.46,0.346 0.924,0.706 1.378,1.117l3.025,4.71c0.567,0.947 1.118,1.897 1.582,2.698c-0.778,-0.586 -1.571,-1.113 -2.384,-1.585c-1.321,-0.725 -2.771,-1.314 -4.307,-1.753c-1.296,-0.356 -2.621,-0.588 -3.951,-0.677c-0.245,-0.011 -0.483,-0.011 -0.725,-0.018c-1.986,-2.9 -4.093,-5.715 -6.315,-8.431c0.084,-0.005 0.175,-0.005 0.257,-0.005c3.886,0 7.628,1.277 11.126,3.792m8.577,12.738l2.48,4.86l1.356,2.997c-3.751,-3.435 -7.666,-4.778 -10.887,-5.192c-1.715,-3.152 -3.57,-6.215 -5.541,-9.193c1.065,0.105 2.127,0.263 3.169,0.546c3.428,0.9 6.602,2.913 9.423,5.982m4.434,10.542l0.067,-0.029c0.419,0.47 0.789,0.966 1.065,1.328l0.645,1.644c0.132,0.334 0.279,0.704 0.438,1.105c0.307,0.772 0.657,1.638 0.959,2.519l1.001,2.957c-1.817,-2.038 -3.783,-3.587 -5.875,-4.612c-1.451,-0.724 -2.931,-1.25 -4.419,-1.599c-1.364,-3.261 -2.87,-6.442 -4.502,-9.55c3.03,0.589 6.911,2.14 10.401,5.992l0.22,0.245Zm6.033,15.581c0.095,0.349 0.205,0.732 0.324,1.149c0.223,0.766 0.48,1.632 0.666,2.52l0.732,3.18c-1.333,-1.851 -2.76,-3.335 -4.338,-4.493c-1.624,-1.189 -3.4,-2.102 -5.269,-2.757c-1.042,-3.448 -2.228,-6.826 -3.561,-10.142c1.013,0.307 2.01,0.677 2.99,1.17c0.734,0.37 1.451,0.792 2.132,1.241c0.701,0.509 1.392,1.083 2.05,1.705c1.076,1.039 2.643,2.666 3.802,4.768l0.472,1.659Zm1.84,9.603c0.291,0.546 0.551,1.076 0.763,1.522l0.313,1.738c0.052,0.314 0.113,0.664 0.184,1.041c0.155,0.848 0.33,1.811 0.435,2.789l0.393,3.061c-2.508,-4.325 -5.835,-6.765 -8.834,-8.153c-0.672,-3.467 -1.491,-6.878 -2.454,-10.234c1.378,0.574 2.689,1.312 3.92,2.212c1.872,1.417 3.58,3.356 5.06,5.763l0.167,0.269l0.053,-0.008Zm2.757,17.505c0.071,0.85 0.147,1.806 0.15,2.776l0.084,3.255c-0.934,-2.05 -2.047,-3.818 -3.343,-5.265c-1.356,-1.493 -2.912,-2.75 -4.607,-3.762c-0.329,-3.605 -0.801,-7.161 -1.434,-10.672c3.273,1.769 6.899,5.01 8.949,10.995c0,0 0.173,2.314 0.201,2.673m1.782,7.839l-0.026,0l-0.087,-3.716c0,-1.903 -0.189,-4.259 -0.382,-6.749c-0.064,-0.808 -0.129,-1.63 -0.192,-2.477c-0.11,-0.856 -0.216,-1.711 -0.318,-2.551c-0.294,-2.44 -0.577,-4.739 -0.952,-6.568l-0.656,-3.681l0.018,-0.003l-0.102,-0.441l-0.082,-0.449l-0.02,0.004l-0.834,-3.629c-0.4,-1.95 -1.095,-4.327 -1.829,-6.85l-0.596,-2.072l-0.378,-1.121c-0.951,-2.837 -1.853,-5.515 -2.718,-7.564l-1.111,-2.813c-0.26,-0.66 -0.438,-1.024 -0.464,-1.076l-1.714,-3.803c-0.449,-1.044 -1.042,-2.201 -1.669,-3.419l-0.235,-0.459c-0.248,-0.467 -0.488,-0.944 -0.733,-1.428c-0.487,-0.963 -0.992,-1.965 -1.574,-2.922l-2.459,-4.273l-2.776,-4.348c-0.464,-0.731 -0.868,-1.362 -1.204,-1.81l-0.4,-0.561l-2.697,-3.792l-2.636,-3.377l-1.513,-1.906l-1.629,-1.884c-1.861,-2.232 -3.878,-4.337 -5.502,-6.034l-0.72,-0.746c-0.576,-0.624 -1.13,-1.139 -1.573,-1.564c-0.229,-0.207 -0.429,-0.398 -0.607,-0.575l-0.771,-0.734l-0.056,-0.056c-0.049,-0.049 -4.88,-4.733 -10.17,-8.735l-1.982,-1.543c0,0 -2.836,-2.022 -3.256,-2.321c-0.794,-0.57 -1.537,-1.1 -2.232,-1.556l-3.527,-2.262c-0.098,-0.058 -1.485,-0.974 -3.592,-2.157c-0.37,-0.203 -0.759,-0.431 -1.158,-0.665c-0.797,-0.456 -1.658,-0.957 -2.58,-1.456l-4.37,-2.238c-0.982,-0.507 -1.99,-0.963 -2.968,-1.393c-0.509,-0.231 -1.016,-0.452 -1.502,-0.682c-1.715,-0.788 -2.938,-1.312 -3.962,-1.693l-4.321,-1.701l0,0.003c-0.585,-0.226 -1.635,-0.577 -3.541,-1.21c-2.18,-0.721 -5.48,-1.765 -8.848,-2.653c-0.771,-0.175 -1.534,-0.353 -2.296,-0.534c-2.471,-0.585 -4.807,-1.127 -6.711,-1.422l-3.676,-0.644l0.005,-0.024l-0.454,-0.059l-0.444,-0.08l-0.005,0.027l-3.694,-0.473c-1.819,-0.281 -4.081,-0.443 -6.475,-0.613c-0.888,-0.063 -1.797,-0.127 -2.726,-0.205c-0.9,-0.016 -1.802,-0.042 -2.686,-0.068c-1.536,-0.042 -3.021,-0.087 -4.373,-0.087c-0.763,0 -1.489,0.015 -2.145,0.047l-3.724,0.098l0,-0.019l-0.435,0.029l-0.478,0.016l0,0.02l-3.705,0.278c-1.931,0.095 -4.306,0.4 -6.817,0.727c-0.777,0.103 -1.564,0.205 -2.375,0.307c-0.805,0.142 -1.609,0.281 -2.402,0.423c-2.473,0.428 -4.799,0.837 -6.646,1.309l-3.637,0.845l-0.003,-0.018l-0.42,0.12l-0.464,0.11l0.007,0.019l-5.551,1.574c-0.453,0.142 -0.918,0.302 -1.401,0.462c0,0 -1.772,0.604 -2.293,0.772c-1.023,0.349 -2.077,0.7 -3.126,1.092l-4.562,1.797c-0.974,0.367 -1.896,0.79 -2.708,1.167c-0.431,0.2 -0.838,0.387 -1.243,0.562l-2.775,1.255l-0.615,0.312l-0.004,0l-0.386,0.197l-0.422,0.21l0,0.007l-3.313,1.692c-0.815,0.399 -1.695,0.906 -2.624,1.446c-0.37,0.213 -2.198,1.265 -2.198,1.265c-1.05,0.596 -2.141,1.22 -3.18,1.916l-4.142,2.671l-3.49,2.472c-1.125,0.792 -1.933,1.388 -2.454,1.816l-0.545,0.43l0,-0.003l-0.483,0.381l-0.23,0.181l-2.941,2.327c-0.534,0.468 -1.123,0.972 -1.749,1.512c-1.598,1.37 -3.414,2.921 -5.11,4.611c-1.918,1.762 -3.675,3.613 -5.222,5.247c-0.442,0.464 -0.858,0.906 -1.258,1.325c-1.681,1.863 -2.764,3.146 -2.764,3.146l-0.288,0.345l0.012,0.01c-1.688,1.748 -6.14,7.601 -7.926,10.221c-0.926,1.249 -1.746,2.545 -2.546,3.789l-0.204,0.319c-0.291,0.465 -0.581,0.917 -0.865,1.349c-0.521,0.809 -1.02,1.575 -1.416,2.297l-1.858,3.23l-0.31,0.545l-0.143,0.247l-0.351,0.608l-1.394,2.706c-0.189,0.378 -0.396,0.772 -0.611,1.191c-0.424,0.817 -0.881,1.698 -1.315,2.648l-2.024,4.477c-0.449,1.015 -0.849,2.046 -1.239,3.046c-0.203,0.517 -0.4,1.029 -0.604,1.53l-0.835,2.12l-2.136,6.319l0.007,0c-0.201,0.596 -0.495,1.668 -1.028,3.599c-0.607,2.207 -1.484,5.555 -2.193,8.965c-0.144,0.813 -0.291,1.624 -0.439,2.423c-0.445,2.46 -0.864,4.782 -1.057,6.666l-0.382,3.009c-0.034,0.287 -0.064,0.517 -0.083,0.701l-0.018,0l-0.034,0.448l-0.046,0.458l0.012,0l-0.284,3.705c-0.185,1.787 -0.233,3.99 -0.283,6.318c-0.019,0.95 -0.042,1.916 -0.072,2.918c0.03,0.969 0.053,1.939 0.072,2.886c0.05,2.333 0.098,4.53 0.28,6.304l0.287,3.726l-0.012,0l0.046,0.451l0.034,0.451l0.018,0c0.024,0.184 0.049,0.407 0.083,0.7l0.382,2.997c0.193,1.894 0.612,4.215 1.057,6.678c0.148,0.796 0.295,1.607 0.439,2.431c0.709,3.4 1.586,6.748 2.193,8.955c0.533,1.933 0.827,3.002 1.028,3.6l-0.007,0l2.144,6.338l0.831,2.112c0.2,0.492 0.397,1.001 0.6,1.518c0.39,1 0.79,2.034 1.243,3.049l2.02,4.475c0.434,0.949 0.891,1.829 1.315,2.647c0.215,0.418 0.422,0.817 0.615,1.204l1.397,2.708l0.344,0.597l0.453,0.787l1.855,3.225c0.399,0.732 0.898,1.49 1.419,2.303c0.284,0.431 0.574,0.885 0.873,1.352l0.196,0.315c0.8,1.246 1.62,2.54 2.537,3.776c1.795,2.637 6.247,8.486 7.935,10.234l-0.012,0.01l0.288,0.346c0,0 1.083,1.286 2.772,3.16c0.392,0.411 0.808,0.849 1.25,1.316c1.547,1.63 3.304,3.483 5.211,5.233c1.707,1.698 3.523,3.249 5.121,4.623c0.626,0.539 1.215,1.045 1.767,1.532l2.923,2.303l0.438,0.35l0.275,0.216l0,-0.006l0.537,0.425c0.529,0.431 1.337,1.029 2.462,1.821l3.509,2.488l4.116,2.65c1.046,0.704 2.137,1.325 3.187,1.926c0,0 1.828,1.053 2.198,1.262c0.929,0.538 1.809,1.045 2.617,1.441l3.32,1.698l0,0.005l0.396,0.199l0.412,0.206l0.004,0l0.63,0.322l2.768,1.249c0.397,0.171 0.804,0.362 1.239,0.562c0.808,0.373 1.73,0.798 2.7,1.168l4.577,1.799c1.038,0.388 2.092,0.736 3.115,1.086c0.521,0.167 2.293,0.772 2.293,0.772c0.483,0.165 0.948,0.32 1.412,0.467l5.54,1.569l-0.007,0.021l0.464,0.11l0.42,0.117l0.003,-0.017l3.629,0.84c1.855,0.477 4.181,0.885 6.654,1.313c0.793,0.143 1.597,0.285 2.428,0.43c0.785,0.096 1.572,0.197 2.346,0.301c2.514,0.326 4.889,0.632 6.809,0.73l3.716,0.278l0,0.018l0.456,0.015l0.457,0.032l0,-0.02l3.713,0.096c0.667,0.034 1.393,0.047 2.156,0.047c1.352,0 2.837,-0.046 4.373,-0.085c0.884,-0.025 1.786,-0.054 2.708,-0.075c0.907,-0.068 1.816,-0.131 2.704,-0.201c2.394,-0.166 4.656,-0.331 6.469,-0.607l3.7,-0.47l0.005,0.019l0.444,-0.078l0.454,-0.058l-0.005,-0.022l3.668,-0.65c1.912,-0.288 4.248,-0.835 6.719,-1.422c0.762,-0.178 1.525,-0.352 2.31,-0.536c3.354,-0.882 6.654,-1.929 8.834,-2.649c1.906,-0.635 2.956,-0.983 3.541,-1.208l0,0.008l4.313,-1.703c1.032,-0.385 2.255,-0.911 3.97,-1.7c0.486,-0.226 0.993,-0.452 1.502,-0.682c0.978,-0.43 1.986,-0.883 2.968,-1.392l4.374,-2.246c0.918,-0.488 1.779,-0.986 2.576,-1.448c0.399,-0.234 0.788,-0.462 1.155,-0.666c2.13,-1.189 3.519,-2.107 3.603,-2.162l3.519,-2.262c0.692,-0.449 1.438,-0.981 2.232,-1.551c0.42,-0.297 3.27,-2.33 3.27,-2.33l1.965,-1.528c5.293,-4.007 10.124,-8.692 10.173,-8.735l0.064,-0.068l0.766,-0.73c0.175,-0.175 0.375,-0.366 0.604,-0.574c0.443,-0.418 0.997,-0.939 1.568,-1.556l0.725,-0.753c1.624,-1.693 3.641,-3.802 5.499,-6.027l1.646,-1.903l1.499,-1.89l2.644,-3.394l2.689,-3.774l0.392,-0.552c0.344,-0.461 0.748,-1.091 1.212,-1.823l2.787,-4.363l2.443,-4.246c0.587,-0.963 1.092,-1.971 1.579,-2.934c0.245,-0.485 0.485,-0.966 0.733,-1.435l0.235,-0.446c0.627,-1.226 1.22,-2.38 1.661,-3.416l1.722,-3.809c0.023,-0.043 0.204,-0.411 0.464,-1.072l1.107,-2.808c0.869,-2.06 1.771,-4.739 2.722,-7.576l0.381,-1.136l0.593,-2.057c0.734,-2.524 1.429,-4.902 1.829,-6.841l0.834,-3.634l0.02,0.005l0.082,-0.453l0.102,-0.442l-0.018,-0.003l0.65,-3.672c0.381,-1.838 0.664,-4.138 0.958,-6.576c0.102,-0.84 0.208,-1.696 0.321,-2.577c0.06,-0.822 0.125,-1.64 0.189,-2.452c0.193,-2.49 0.382,-4.838 0.378,-6.733l0.091,-3.733l0.026,0l-0.012,-0.454l0.012,-0.451Z" style="fill:#fff;fill-rule:nonzero;"/><path d="M38.719,63.197c0.413,0.167 1.072,0.417 1.974,0.749c0.902,0.331 1.555,0.571 1.957,0.718c0.896,0.315 1.527,0.544 1.893,0.688c0.273,0.109 0.688,0.266 1.245,0.47c0.603,0.214 1.111,0.405 1.525,0.572l0.026,-0.034c-0.521,-0.675 -0.947,-1.238 -1.28,-1.689c-0.931,-1.303 -1.748,-2.407 -2.451,-3.313c-0.249,-0.318 -0.453,-0.589 -0.612,-0.816c-0.322,-0.466 -0.541,-0.814 -0.658,-1.044l-0.645,0.941l-0.557,-0.417l1.735,-2.315l0.417,0.312c-0.171,0.299 -0.263,0.554 -0.276,0.764c-0.013,0.21 0.06,0.46 0.217,0.75c0.158,0.29 0.448,0.724 0.87,1.302l1.485,2.02c1.592,2.142 2.812,3.823 3.662,5.041l-0.256,0.342l-8.359,-2.932l5.257,7.072l-0.248,0.331l-8.252,-2.995l-0.604,-0.221c-0.769,-0.291 -1.26,-0.487 -1.474,-0.588l-0.453,0.658l-0.556,-0.417l2.076,-2.771l0.417,0.312c-0.217,0.325 -0.325,0.588 -0.325,0.79c0,0.201 0.11,0.384 0.329,0.549c0.202,0.151 0.475,0.296 0.818,0.435c0.667,0.286 1.436,0.577 2.306,0.872c0.155,0.057 0.339,0.123 0.551,0.2c0.213,0.076 0.458,0.165 0.737,0.267c0.211,0.087 0.448,0.175 0.71,0.264c0.262,0.09 0.45,0.154 0.566,0.193c0.569,0.189 1.016,0.346 1.343,0.472l0.017,-0.023c-0.459,-0.581 -0.898,-1.154 -1.318,-1.717c-0.772,-1.006 -1.579,-2.08 -2.421,-3.221c-0.881,-1.194 -1.435,-1.93 -1.662,-2.206l0.274,-0.365Z" style="fill:#fff;fill-rule:nonzero;"/><path d="M46.191,54.291c0.929,-0.965 1.781,-1.512 2.556,-1.64c0.774,-0.129 1.493,0.116 2.155,0.733c0.538,0.489 0.882,1.076 1.033,1.763c0.151,0.687 -0.029,1.467 -0.541,2.34c0.21,-0.025 0.43,-0.021 0.659,0.011c0.229,0.032 0.568,0.101 1.016,0.207l1.896,0.444c0.412,0.099 0.737,0.164 0.973,0.196c0.236,0.032 0.465,0.018 0.687,-0.042c0.221,-0.06 0.429,-0.194 0.623,-0.402l0.381,0.355l-1.224,1.313c-0.352,0.023 -0.683,0.01 -0.991,-0.037c-0.309,-0.047 -0.694,-0.124 -1.156,-0.231l-1.887,-0.454l-0.369,-0.091c-0.311,-0.082 -0.572,-0.143 -0.78,-0.182c-0.209,-0.038 -0.409,-0.056 -0.599,-0.052c-0.051,0.07 -0.138,0.171 -0.261,0.303c-0.175,0.187 -0.308,0.323 -0.4,0.406l2.24,2.089c0.408,0.381 0.702,0.675 0.883,0.882l0.654,-0.793l0.508,0.474l-2.187,2.345l-0.382,-0.356c0.22,-0.25 0.32,-0.481 0.302,-0.693c-0.019,-0.212 -0.1,-0.398 -0.245,-0.56c-0.145,-0.161 -0.414,-0.424 -0.806,-0.791l-4.989,-4.653c-0.323,-0.301 -0.59,-0.57 -0.802,-0.806l-0.654,0.793l-0.508,-0.474c0.659,-0.737 1.16,-1.289 1.503,-1.657c0.311,-0.334 0.549,-0.58 0.712,-0.74Zm0.4,0.451c-0.227,0.243 -0.335,0.467 -0.325,0.672c0.011,0.205 0.087,0.386 0.228,0.543c0.141,0.158 0.408,0.42 0.8,0.786l2.217,2.068c0.21,-0.194 0.36,-0.34 0.451,-0.437c1.322,-1.418 1.363,-2.704 0.124,-3.86c-0.585,-0.546 -1.166,-0.803 -1.744,-0.77c-0.578,0.033 -1.162,0.366 -1.751,0.998Z" style="fill:#fff;fill-rule:nonzero;"/><path d="M62.796,39.994c-0.272,0.208 -0.402,0.447 -0.392,0.716c0.011,0.269 0.179,0.604 0.505,1.004l0.21,0.236l4.821,5.341c0.167,0.175 0.381,0.423 0.64,0.741l0.777,-0.693l0.438,0.539l-2.476,2.014l-0.329,-0.404c0.281,-0.242 0.401,-0.493 0.362,-0.752c-0.04,-0.26 -0.212,-0.577 -0.518,-0.953c-0.126,-0.155 -0.226,-0.271 -0.3,-0.346l-4.532,-4.986c0.019,0.053 0.042,0.123 0.069,0.209c0.027,0.087 0.063,0.187 0.106,0.3l3.052,8.835l-0.331,0.27l-1.865,-1.028c-1.683,-0.925 -3.003,-1.659 -3.96,-2.204c-0.957,-0.544 -1.942,-1.138 -2.954,-1.78l0.427,0.548c1.88,2.447 3.228,4.187 4.043,5.22c0.1,0.122 0.169,0.215 0.208,0.278c0.226,0.278 0.424,0.544 0.595,0.799l0.789,-0.723l0.439,0.539l-2.112,1.717l-0.329,-0.404c0.303,-0.26 0.426,-0.519 0.369,-0.778c-0.058,-0.259 -0.232,-0.582 -0.523,-0.97l-5.087,-6.752l-0.766,0.684l-0.428,-0.526l1.691,-1.376l4.633,2.624c1.701,0.977 2.998,1.714 3.89,2.209l0.022,-0.018c-0.11,-0.317 -0.351,-0.997 -0.721,-2.039c-0.358,-1.012 -0.738,-2.134 -1.14,-3.367c-0.47,-1.436 -0.899,-2.702 -1.288,-3.797l1.636,-1.331l0.329,0.404Z" style="fill:#fff;fill-rule:nonzero;"/><path d="M75.217,41.578c0.243,0.18 0.487,0.388 0.733,0.624c0.245,0.236 0.421,0.444 0.529,0.626l0.776,-0.584l0.381,0.581l-2.73,1.789l-0.286,-0.436c0.463,-0.316 0.559,-0.681 0.288,-1.095c-0.109,-0.167 -0.285,-0.348 -0.526,-0.543l-1.231,-0.968l-3.047,2.11c0.118,0.439 0.287,1.002 0.509,1.687c0.111,0.343 0.211,0.711 0.299,1.107l0.895,-0.663l0.381,0.582l-2.229,1.46l-0.285,-0.436c0.198,-0.13 0.324,-0.285 0.377,-0.464c0.053,-0.179 0.063,-0.375 0.032,-0.588c-0.031,-0.212 -0.102,-0.515 -0.212,-0.908l-0.123,-0.448l-2.4,-9.019l0.286,-0.187l7.583,5.773Zm-6.677,-3.611l0.477,1.821l0.672,2.429l0.222,0.78l2.753,-1.804l-2.499,-1.968l-1.601,-1.273l-0.024,0.015Z" style="fill:#fff;fill-rule:nonzero;"/><path d="M75.593,31.367c1.188,-0.619 2.169,-0.866 2.945,-0.742c0.775,0.125 1.378,0.585 1.81,1.382c0.354,0.634 0.494,1.3 0.418,2c-0.075,0.699 -0.494,1.381 -1.257,2.046c0.207,0.043 0.414,0.117 0.621,0.22c0.207,0.103 0.507,0.276 0.898,0.519l1.656,1.024c0.36,0.225 0.646,0.39 0.86,0.496c0.214,0.105 0.435,0.165 0.664,0.178c0.229,0.014 0.469,-0.047 0.72,-0.183l0.248,0.459l-1.579,0.855c-0.341,-0.091 -0.65,-0.208 -0.927,-0.351c-0.278,-0.143 -0.619,-0.338 -1.023,-0.586l-1.644,-1.031l-0.321,-0.203c-0.269,-0.178 -0.497,-0.318 -0.682,-0.421c-0.186,-0.103 -0.369,-0.183 -0.552,-0.24c-0.07,0.05 -0.184,0.118 -0.343,0.204c-0.225,0.122 -0.395,0.208 -0.509,0.257l1.46,2.694c0.265,0.49 0.451,0.863 0.556,1.117l0.872,-0.544l0.331,0.611l-2.819,1.527l-0.248,-0.458c0.287,-0.168 0.456,-0.355 0.506,-0.562c0.05,-0.206 0.032,-0.409 -0.054,-0.608c-0.086,-0.199 -0.257,-0.534 -0.513,-1.006l-3.249,-5.998c-0.211,-0.389 -0.379,-0.729 -0.504,-1.021l-0.872,0.545l-0.331,-0.611c0.859,-0.489 1.509,-0.854 1.952,-1.094c0.401,-0.217 0.704,-0.375 0.91,-0.475Zm0.236,0.555c-0.293,0.159 -0.467,0.337 -0.522,0.534c-0.055,0.197 -0.041,0.393 0.043,0.587c0.084,0.195 0.253,0.528 0.509,1l1.444,2.666c0.261,-0.118 0.449,-0.208 0.566,-0.271c1.705,-0.923 2.153,-2.13 1.346,-3.62c-0.381,-0.704 -0.851,-1.132 -1.409,-1.285c-0.558,-0.152 -1.217,-0.023 -1.977,0.389Z" style="fill:#fff;fill-rule:nonzero;"/><path d="M84.275,27.662c-0.297,0.149 -0.478,0.325 -0.541,0.528c-0.064,0.203 -0.059,0.406 0.014,0.61c0.074,0.204 0.222,0.55 0.447,1.038l2.81,6.094c0.233,0.507 0.394,0.891 0.483,1.151l0.905,-0.487l0.291,0.631l-2.912,1.343l-0.218,-0.474c0.298,-0.148 0.478,-0.324 0.542,-0.527c0.063,-0.203 0.058,-0.407 -0.015,-0.611c-0.073,-0.204 -0.222,-0.55 -0.447,-1.037l-2.856,-6.195c-0.185,-0.402 -0.33,-0.752 -0.437,-1.051l-0.905,0.487l-0.291,-0.631l2.912,-1.342l0.218,0.473Z" style="fill:#fff;fill-rule:nonzero;"/><path d="M95.084,23.41c-0.263,0.11 -0.439,0.241 -0.53,0.393c-0.09,0.152 -0.12,0.323 -0.089,0.514c0.031,0.191 0.102,0.434 0.213,0.73l0.193,0.517l3.075,8.291l-0.641,0.24l-9.021,-6.452l-0.013,0.005l2.41,6.314c0.247,0.661 0.421,1.152 0.522,1.474l0.938,-0.419l0.244,0.651l-2.442,0.914l-0.183,-0.488c0.356,-0.133 0.549,-0.335 0.58,-0.605c0.031,-0.27 -0.015,-0.567 -0.137,-0.893l-3.021,-8.109l-0.872,0.394l-0.243,-0.65l1.588,-0.595l8.842,6.3l0.013,-0.005l-2.523,-6.778c-0.155,-0.414 -0.274,-0.774 -0.359,-1.079l-0.938,0.419l-0.244,-0.651l2.456,-0.92l0.182,0.488Z" style="fill:#fff;fill-rule:nonzero;"/><path d="M104.409,23.154l-0.454,0.123c-0.226,-0.833 -0.544,-1.358 -0.952,-1.574c-0.408,-0.216 -0.903,-0.234 -1.484,-0.055l-1.175,0.352c-0.327,0.1 -0.547,0.233 -0.659,0.4c-0.112,0.167 -0.155,0.37 -0.13,0.608c0.025,0.239 0.104,0.602 0.237,1.089l0.662,2.439l2.59,-0.688l-0.452,-1.284l0.605,-0.164l0.869,3.2l-0.453,0.123c-0.103,-0.376 -0.222,-0.652 -0.358,-0.827c-0.137,-0.176 -0.299,-0.274 -0.486,-0.294c-0.188,-0.02 -0.433,0.011 -0.735,0.094l-0.422,0.131l-0.992,0.318l0.948,3.49c0.144,0.528 0.238,0.928 0.282,1.2l2.614,-0.76c0.639,-0.185 1.081,-0.498 1.325,-0.941c0.244,-0.442 0.249,-1.096 0.014,-1.959l0.467,-0.127l0.725,2.994l-7.096,1.928l-0.137,-0.503c0.319,-0.097 0.526,-0.241 0.622,-0.43c0.096,-0.19 0.125,-0.392 0.087,-0.605c-0.039,-0.213 -0.128,-0.579 -0.269,-1.097l-1.789,-6.583c-0.116,-0.427 -0.201,-0.796 -0.257,-1.108l-0.973,0.33l-0.182,-0.671l6.615,-1.797l0.793,2.648Z" style="fill:#fff;fill-rule:nonzero;"/><path d="M113.097,18.419c0.423,-0.064 0.857,-0.068 1.303,-0.014c0.445,0.055 0.868,0.202 1.27,0.439l-0.159,-0.663l0.719,-0.109l0.521,3.435l-0.508,0.077c-0.171,-0.815 -0.514,-1.474 -1.027,-1.977c-0.513,-0.502 -1.155,-0.695 -1.926,-0.578c-0.563,0.085 -0.978,0.326 -1.245,0.724c-0.266,0.397 -0.36,0.855 -0.281,1.376c0.063,0.416 0.225,0.759 0.487,1.028c0.262,0.269 0.563,0.479 0.903,0.63c0.34,0.151 0.814,0.329 1.421,0.535c0.688,0.226 1.246,0.439 1.676,0.64c0.429,0.202 0.812,0.492 1.148,0.872c0.336,0.381 0.551,0.878 0.644,1.492c0.089,0.583 0.037,1.118 -0.153,1.604c-0.191,0.487 -0.516,0.893 -0.976,1.218c-0.46,0.326 -1.033,0.54 -1.718,0.644c-0.442,0.067 -0.896,0.067 -1.363,-0.001c-0.466,-0.068 -0.889,-0.206 -1.266,-0.415l0.172,0.661l-0.733,0.111l-0.588,-3.313l0.549,-0.083c0.183,0.888 0.565,1.535 1.145,1.942c0.581,0.408 1.261,0.552 2.041,0.434c0.573,-0.087 1.028,-0.334 1.365,-0.742c0.337,-0.408 0.459,-0.914 0.368,-1.517c-0.068,-0.448 -0.236,-0.814 -0.505,-1.098c-0.269,-0.284 -0.582,-0.508 -0.938,-0.672c-0.357,-0.164 -0.833,-0.345 -1.43,-0.542c-0.68,-0.238 -1.224,-0.453 -1.633,-0.647c-0.409,-0.193 -0.776,-0.476 -1.101,-0.847c-0.326,-0.371 -0.534,-0.859 -0.626,-1.462c-0.063,-0.417 -0.039,-0.846 0.072,-1.289c0.11,-0.443 0.357,-0.842 0.741,-1.198c0.383,-0.357 0.927,-0.588 1.631,-0.695Z" style="fill:#fff;fill-rule:nonzero;"/><path d="M125.985,20.136l-0.469,0.033c-0.062,-0.861 -0.272,-1.437 -0.631,-1.728c-0.359,-0.291 -0.841,-0.404 -1.446,-0.339l-1.22,0.118c-0.34,0.035 -0.582,0.124 -0.724,0.266c-0.142,0.142 -0.224,0.332 -0.245,0.571c-0.021,0.239 -0.013,0.611 0.023,1.115l0.18,2.52l2.673,-0.175l-0.196,-1.348l0.625,-0.044l0.237,3.307l-0.469,0.034c-0.028,-0.389 -0.092,-0.682 -0.192,-0.881c-0.1,-0.199 -0.24,-0.326 -0.42,-0.382c-0.18,-0.055 -0.427,-0.072 -0.739,-0.05l-0.44,0.048l-1.034,0.121l0.258,3.607c0.039,0.546 0.054,0.956 0.045,1.232l2.711,-0.242c0.663,-0.058 1.157,-0.28 1.481,-0.668c0.325,-0.387 0.456,-1.027 0.392,-1.919l0.483,-0.035l0.134,3.078l-7.335,0.524l-0.037,-0.52c0.331,-0.034 0.562,-0.135 0.693,-0.303c0.131,-0.168 0.198,-0.36 0.202,-0.576c0.003,-0.217 -0.014,-0.593 -0.052,-1.128l-0.487,-6.805c-0.031,-0.441 -0.044,-0.82 -0.038,-1.137l-1.019,0.136l-0.049,-0.693l6.837,-0.488l0.268,2.751Z" style="fill:#fff;fill-rule:nonzero;"/><path d="M131.672,17.303c1.339,0.035 2.317,0.296 2.935,0.781c0.617,0.486 0.921,1.181 0.911,2.087c0.002,0.726 -0.2,1.377 -0.605,1.951c-0.405,0.575 -1.103,0.968 -2.093,1.178c0.16,0.139 0.305,0.304 0.436,0.495c0.131,0.19 0.309,0.487 0.533,0.889l0.951,1.7c0.205,0.371 0.375,0.654 0.511,0.851c0.136,0.196 0.3,0.355 0.494,0.478c0.193,0.124 0.433,0.187 0.718,0.19l-0.006,0.521l-1.796,-0.019c-0.253,-0.245 -0.467,-0.497 -0.64,-0.757c-0.173,-0.26 -0.376,-0.596 -0.609,-1.009l-0.937,-1.7l-0.182,-0.333c-0.149,-0.286 -0.28,-0.519 -0.392,-0.699c-0.112,-0.181 -0.234,-0.34 -0.365,-0.478c-0.086,0.01 -0.219,0.013 -0.399,0.012c-0.257,-0.003 -0.447,-0.01 -0.57,-0.022l-0.033,3.063c-0.005,0.558 -0.024,0.974 -0.055,1.247l1.026,-0.052l-0.007,0.694l-3.206,-0.034l0.005,-0.521c0.333,-0.007 0.571,-0.088 0.715,-0.245c0.144,-0.156 0.227,-0.342 0.248,-0.558c0.022,-0.215 0.035,-0.592 0.041,-1.128l0.072,-6.822c0.005,-0.442 0.023,-0.821 0.055,-1.136l-1.027,0.052l0.007,-0.695c0.989,-0.01 1.734,-0.013 2.238,-0.007c0.456,0.004 0.798,0.013 1.026,0.026Zm-0.064,0.6c-0.332,-0.004 -0.57,0.067 -0.714,0.213c-0.144,0.146 -0.227,0.324 -0.248,0.534c-0.022,0.211 -0.035,0.584 -0.041,1.121l-0.032,3.032c0.285,0.024 0.494,0.037 0.627,0.038c1.938,0.021 2.916,-0.817 2.934,-2.511c0.008,-0.8 -0.194,-1.403 -0.608,-1.807c-0.414,-0.405 -1.053,-0.611 -1.918,-0.62Z" style="fill:#fff;fill-rule:nonzero;"/><path d="M146.692,18.818c-0.418,-0.019 -0.749,0.072 -0.992,0.271c-0.243,0.199 -0.481,0.573 -0.715,1.121l-3.857,8.819l-0.397,-0.038l-2.427,-8.669c-0.256,-0.923 -0.392,-1.655 -0.408,-2.195l-0.797,-0.044l0.065,-0.692l3.292,0.312l-0.049,0.519l-0.016,0.014c-0.314,-0.008 -0.551,0.046 -0.71,0.163c-0.159,0.117 -0.25,0.301 -0.274,0.553c-0.023,0.241 0.015,0.546 0.114,0.915l0.273,1.041c0.07,0.271 0.176,0.683 0.32,1.236c0.143,0.553 0.279,1.057 0.407,1.513l0.278,0.994c0.281,0.968 0.475,1.684 0.584,2.149l0.028,0.003l0.685,-1.632l0.238,-0.549l1.616,-3.764l0.422,-0.975c0.233,-0.549 0.407,-0.924 0.522,-1.125l-1.099,-0.04l0.066,-0.692l2.88,0.273l-0.049,0.519Z" style="fill:#fff;fill-rule:nonzero;"/><path d="M150.889,19.572c-0.33,-0.043 -0.578,0.002 -0.744,0.135c-0.166,0.133 -0.276,0.305 -0.329,0.515c-0.053,0.21 -0.123,0.58 -0.208,1.11l-1.073,6.625c-0.089,0.551 -0.169,0.959 -0.241,1.224l1.023,0.102l-0.111,0.686l-3.166,-0.512l0.084,-0.515c0.33,0.043 0.578,-0.002 0.743,-0.135c0.166,-0.134 0.276,-0.305 0.329,-0.515c0.053,-0.21 0.123,-0.58 0.209,-1.11l1.09,-6.734c0.07,-0.437 0.145,-0.808 0.223,-1.116l-1.023,-0.101l0.111,-0.686l3.166,0.512l-0.083,0.515Z" style="fill:#fff;fill-rule:nonzero;"/><path d="M157.842,20.237c1.018,0.238 1.879,0.77 2.584,1.594l0.125,-0.847l0.749,0.176l-0.834,3.567l-0.499,-0.117c0.13,-0.975 0.001,-1.792 -0.386,-2.45c-0.388,-0.658 -0.984,-1.081 -1.789,-1.269c-0.657,-0.154 -1.303,-0.092 -1.939,0.187c-0.636,0.278 -1.199,0.755 -1.688,1.429c-0.49,0.675 -0.85,1.504 -1.08,2.489c-0.22,0.943 -0.251,1.825 -0.092,2.646c0.16,0.821 0.473,1.505 0.94,2.052c0.467,0.547 1.043,0.901 1.728,1.061c0.62,0.145 1.253,0.131 1.898,-0.043c0.645,-0.173 1.219,-0.499 1.721,-0.976l0.285,0.407c-0.73,0.705 -1.482,1.143 -2.253,1.314c-0.772,0.171 -1.505,0.175 -2.199,0.013c-0.906,-0.212 -1.662,-0.643 -2.266,-1.292c-0.604,-0.65 -1.011,-1.437 -1.219,-2.361c-0.208,-0.924 -0.194,-1.894 0.043,-2.909c0.235,-1.004 0.639,-1.905 1.21,-2.701c0.572,-0.796 1.285,-1.383 2.139,-1.762c0.855,-0.378 1.795,-0.448 2.822,-0.208Z" style="fill:#fff;fill-rule:nonzero;"/><path d="M169.226,26.748l-0.447,-0.148c0.27,-0.819 0.295,-1.432 0.074,-1.838c-0.222,-0.405 -0.625,-0.693 -1.209,-0.864l-1.173,-0.354c-0.329,-0.097 -0.585,-0.107 -0.771,-0.029c-0.186,0.077 -0.333,0.222 -0.444,0.435c-0.11,0.213 -0.244,0.56 -0.403,1.04l-0.791,2.399l2.539,0.854l0.331,-1.321l0.596,0.197l-1.039,3.149l-0.447,-0.147c0.122,-0.37 0.175,-0.666 0.158,-0.888c-0.017,-0.222 -0.098,-0.392 -0.244,-0.513c-0.145,-0.12 -0.367,-0.229 -0.665,-0.327l-0.424,-0.123l-1.003,-0.281l-1.133,3.434c-0.171,0.52 -0.313,0.905 -0.426,1.156l2.6,0.808c0.635,0.198 1.176,0.18 1.624,-0.055c0.447,-0.235 0.811,-0.777 1.091,-1.627l0.461,0.152l-1.046,2.898l-6.984,-2.304l0.164,-0.495c0.319,0.094 0.571,0.089 0.755,-0.016c0.185,-0.106 0.32,-0.258 0.406,-0.457c0.086,-0.199 0.213,-0.553 0.381,-1.063l2.137,-6.479c0.138,-0.42 0.27,-0.775 0.396,-1.066l-0.994,-0.261l0.218,-0.66l6.51,2.147l-0.798,2.647Z" style="fill:#fff;fill-rule:nonzero;"/><path d="M179.426,28.002c1.616,0.76 2.694,1.788 3.234,3.084c0.539,1.296 0.412,2.775 -0.382,4.437c-0.426,0.893 -1.01,1.63 -1.75,2.21c-0.74,0.579 -1.586,0.919 -2.539,1.018c-0.953,0.099 -1.948,-0.099 -2.986,-0.594l-3.382,-1.615l0.225,-0.471c0.304,0.134 0.555,0.161 0.752,0.08c0.196,-0.082 0.35,-0.215 0.46,-0.402c0.11,-0.186 0.281,-0.522 0.512,-1.007l2.939,-6.155c0.191,-0.399 0.367,-0.735 0.529,-1.008l-0.953,-0.385l0.299,-0.627l3.042,1.435Zm-0.393,0.46c-0.3,-0.144 -0.546,-0.18 -0.739,-0.108c-0.192,0.072 -0.343,0.201 -0.453,0.387c-0.11,0.187 -0.281,0.522 -0.512,1.007l-2.899,6.07c-0.236,0.494 -0.425,0.859 -0.569,1.093c0.291,0.163 0.745,0.391 1.362,0.686c0.721,0.344 1.452,0.454 2.196,0.331c0.743,-0.124 1.432,-0.454 2.067,-0.99c0.636,-0.537 1.155,-1.228 1.559,-2.074c0.662,-1.387 0.837,-2.636 0.526,-3.747c-0.312,-1.111 -1.158,-1.996 -2.538,-2.655Z" style="fill:#fff;fill-rule:nonzero;"/><path d="M190.977,33.927c0.932,0.569 1.575,1.298 1.929,2.187c0.353,0.888 0.462,1.808 0.325,2.761c-0.137,0.953 -0.449,1.829 -0.938,2.629c-0.483,0.79 -1.116,1.467 -1.9,2.031c-0.784,0.563 -1.644,0.895 -2.58,0.996c-0.935,0.101 -1.857,-0.126 -2.765,-0.681c-0.973,-0.594 -1.638,-1.328 -1.996,-2.2c-0.358,-0.873 -0.462,-1.778 -0.311,-2.716c0.15,-0.939 0.48,-1.826 0.99,-2.661c0.489,-0.799 1.124,-1.479 1.905,-2.038c0.781,-0.559 1.64,-0.889 2.575,-0.989c0.936,-0.101 1.858,0.126 2.766,0.681Zm-0.366,0.516c-0.632,-0.386 -1.298,-0.518 -1.996,-0.396c-0.698,0.123 -1.358,0.432 -1.979,0.929c-0.62,0.497 -1.142,1.091 -1.565,1.783c-0.433,0.709 -0.75,1.493 -0.952,2.351c-0.201,0.858 -0.206,1.669 -0.016,2.432c0.19,0.764 0.626,1.354 1.307,1.77c0.632,0.387 1.295,0.517 1.99,0.393c0.694,-0.125 1.349,-0.432 1.964,-0.919c0.615,-0.488 1.134,-1.078 1.557,-1.769c0.466,-0.764 0.792,-1.58 0.977,-2.447c0.185,-0.868 0.177,-1.675 -0.025,-2.421c-0.201,-0.746 -0.622,-1.314 -1.262,-1.706Z" style="fill:#fff;fill-rule:nonzero;"/><path d="M202.752,42.443c0.874,0.702 1.409,1.413 1.605,2.131c0.196,0.719 0.017,1.423 -0.537,2.112c-0.356,0.443 -0.842,0.724 -1.457,0.845c-0.614,0.12 -1.264,-0.001 -1.949,-0.362l-0.02,0.024c0.793,0.637 1.24,1.328 1.342,2.072c0.103,0.745 -0.11,1.445 -0.638,2.101c-0.396,0.492 -0.853,0.83 -1.373,1.014c-0.519,0.183 -1.054,0.212 -1.606,0.086c-0.551,-0.126 -1.078,-0.391 -1.581,-0.796l-3.243,-2.608l0.326,-0.406c0.266,0.2 0.504,0.283 0.714,0.25c0.21,-0.034 0.393,-0.133 0.55,-0.298c0.157,-0.164 0.413,-0.468 0.769,-0.911l4.157,-5.168c0.356,-0.443 0.628,-0.758 0.815,-0.945l-0.839,-0.594l0.435,-0.541c1.095,0.853 1.938,1.517 2.53,1.994Zm-0.301,0.487c-0.237,-0.19 -0.444,-0.296 -0.622,-0.318c-0.178,-0.021 -0.353,0.034 -0.526,0.165c-0.172,0.131 -0.387,0.357 -0.645,0.677l-1.84,2.289l0.83,0.627c0.592,0.462 1.161,0.626 1.708,0.492c0.547,-0.134 1.025,-0.456 1.434,-0.964c0.495,-0.616 0.677,-1.172 0.546,-1.669c-0.131,-0.497 -0.426,-0.93 -0.885,-1.299Zm-2.846,4.176c-0.407,-0.328 -0.798,-0.622 -1.173,-0.883l-2.237,2.78c-0.343,0.427 -0.611,0.738 -0.805,0.933c0.127,0.13 0.387,0.353 0.78,0.668l0.377,0.304c0.585,0.47 1.18,0.682 1.785,0.635c0.605,-0.047 1.148,-0.37 1.63,-0.969c0.56,-0.698 0.784,-1.335 0.67,-1.913c-0.115,-0.579 -0.457,-1.097 -1.027,-1.555Z" style="fill:#fff;fill-rule:nonzero;"/><path d="M209.91,48.672c0.957,0.937 1.496,1.794 1.618,2.57c0.122,0.775 -0.129,1.492 -0.752,2.148c-0.493,0.534 -1.084,0.873 -1.772,1.019c-0.688,0.145 -1.466,-0.042 -2.335,-0.562c0.023,0.21 0.017,0.43 -0.017,0.659c-0.034,0.229 -0.106,0.567 -0.216,1.014l-0.46,1.893c-0.102,0.411 -0.17,0.735 -0.204,0.971c-0.034,0.236 -0.022,0.465 0.036,0.687c0.058,0.222 0.19,0.431 0.397,0.627l-0.359,0.378l-1.302,-1.236c-0.02,-0.352 -0.004,-0.682 0.046,-0.99c0.05,-0.309 0.13,-0.693 0.24,-1.155l0.471,-1.882l0.093,-0.368c0.086,-0.311 0.149,-0.571 0.189,-0.779c0.041,-0.208 0.06,-0.408 0.058,-0.599c-0.07,-0.051 -0.17,-0.139 -0.301,-0.263c-0.186,-0.177 -0.32,-0.311 -0.402,-0.404l-2.109,2.222c-0.384,0.405 -0.681,0.697 -0.89,0.876l0.788,0.66l-0.478,0.504l-2.326,-2.207l0.358,-0.378c0.249,0.221 0.479,0.324 0.691,0.307c0.212,-0.016 0.399,-0.096 0.562,-0.24c0.162,-0.143 0.428,-0.41 0.798,-0.799l4.695,-4.948c0.305,-0.321 0.576,-0.586 0.814,-0.796l-0.788,-0.66l0.478,-0.504c0.732,0.665 1.28,1.17 1.645,1.517c0.331,0.314 0.575,0.553 0.734,0.718Zm-0.455,0.396c-0.241,-0.229 -0.464,-0.339 -0.669,-0.33c-0.205,0.009 -0.387,0.083 -0.545,0.222c-0.159,0.14 -0.423,0.405 -0.793,0.794l-2.087,2.199c0.193,0.212 0.337,0.363 0.434,0.455c1.405,1.334 2.692,1.386 3.858,0.157c0.551,-0.58 0.813,-1.16 0.785,-1.738c-0.028,-0.577 -0.356,-1.164 -0.983,-1.759Z" style="fill:#fff;fill-rule:nonzero;"/><path d="M213.075,64.669c-0.145,0.266 -0.316,0.538 -0.515,0.814c-0.198,0.276 -0.38,0.48 -0.544,0.612l0.688,0.686l-0.522,0.459l-2.157,-2.449l0.392,-0.345c0.378,0.414 0.753,0.457 1.124,0.13c0.15,-0.132 0.304,-0.331 0.463,-0.597l0.784,-1.355l-2.52,-2.719c-0.418,0.179 -0.95,0.426 -1.597,0.743c-0.324,0.158 -0.675,0.309 -1.054,0.452l0.783,0.793l-0.522,0.459l-1.761,-2l0.391,-0.345c0.157,0.179 0.328,0.281 0.513,0.308c0.185,0.027 0.38,0.01 0.586,-0.051c0.206,-0.061 0.496,-0.174 0.87,-0.338l0.426,-0.186l8.588,-3.651l0.226,0.257l-4.642,8.323Zm2.63,-7.12l-1.735,0.73l-2.31,1.008l-0.741,0.33l2.176,2.471l1.595,-2.753l1.034,-1.765l-0.019,-0.021Z" style="fill:#fff;fill-rule:nonzero;"/><path d="M223.227,63.19c0.256,0.342 0.466,0.723 0.628,1.141c0.162,0.419 0.234,0.861 0.214,1.327l0.509,-0.453l0.436,0.582l-2.781,2.082l-0.307,-0.41c0.637,-0.537 1.056,-1.15 1.256,-1.84c0.2,-0.69 0.066,-1.347 -0.401,-1.97c-0.341,-0.457 -0.75,-0.708 -1.226,-0.756c-0.476,-0.047 -0.925,0.087 -1.346,0.403c-0.337,0.252 -0.562,0.557 -0.675,0.915c-0.114,0.358 -0.157,0.723 -0.129,1.093c0.028,0.371 0.095,0.873 0.201,1.506c0.126,0.713 0.201,1.306 0.227,1.779c0.026,0.474 -0.049,0.948 -0.226,1.425c-0.176,0.476 -0.512,0.9 -1.009,1.272c-0.472,0.354 -0.968,0.561 -1.487,0.624c-0.519,0.062 -1.03,-0.033 -1.534,-0.285c-0.504,-0.251 -0.964,-0.655 -1.38,-1.21c-0.268,-0.357 -0.482,-0.757 -0.643,-1.201c-0.161,-0.443 -0.238,-0.88 -0.233,-1.312l-0.501,0.464l-0.444,-0.593l2.641,-2.085l0.333,0.445c-0.696,0.581 -1.086,1.223 -1.17,1.927c-0.085,0.705 0.109,1.372 0.582,2.003c0.348,0.464 0.781,0.748 1.299,0.853c0.519,0.104 1.022,-0.027 1.511,-0.393c0.363,-0.271 0.605,-0.593 0.728,-0.964c0.124,-0.371 0.173,-0.753 0.15,-1.144c-0.024,-0.392 -0.09,-0.897 -0.199,-1.516c-0.112,-0.712 -0.179,-1.294 -0.202,-1.745c-0.022,-0.452 0.053,-0.909 0.226,-1.371c0.174,-0.463 0.505,-0.877 0.994,-1.243c0.337,-0.252 0.726,-0.434 1.169,-0.546c0.442,-0.112 0.911,-0.083 1.406,0.087c0.495,0.169 0.956,0.539 1.383,1.109Z" style="fill:#fff;fill-rule:nonzero;"/><path d="M227.637,70.876c-0.192,-0.272 -0.393,-0.424 -0.603,-0.456c-0.21,-0.032 -0.411,0.003 -0.601,0.106c-0.191,0.103 -0.51,0.302 -0.959,0.598l-5.603,3.693c-0.466,0.307 -0.821,0.524 -1.065,0.651l0.617,0.822l-0.58,0.382l-1.765,-2.677l0.435,-0.287c0.192,0.272 0.393,0.424 0.603,0.456c0.211,0.032 0.411,-0.003 0.602,-0.106c0.191,-0.103 0.51,-0.302 0.958,-0.598l5.696,-3.754c0.369,-0.243 0.694,-0.44 0.973,-0.59l-0.617,-0.822l0.58,-0.382l1.764,2.677l-0.435,0.287Z" style="fill:#fff;fill-rule:nonzero;"/><path d="M230.347,75.356c-0.175,-0.283 -0.367,-0.447 -0.575,-0.492c-0.208,-0.045 -0.41,-0.022 -0.606,0.07c-0.197,0.091 -0.528,0.27 -0.993,0.538l-5.872,3.378c-0.475,0.273 -0.838,0.465 -1.089,0.577l1.37,2.286c0.312,0.522 0.724,0.811 1.236,0.867c0.512,0.056 1.165,-0.144 1.959,-0.601l0.242,0.42l-2.876,1.556l-3.525,-6.127l0.452,-0.26c0.175,0.283 0.366,0.447 0.574,0.492c0.208,0.045 0.41,0.022 0.607,-0.07c0.196,-0.091 0.527,-0.27 0.993,-0.538l5.913,-3.401c0.383,-0.221 0.719,-0.397 1.007,-0.53l-0.567,-0.858l0.602,-0.347l1.599,2.78l-0.451,0.26Z" style="fill:#fff;fill-rule:nonzero;"/></svg>