<svg viewBox="0 0 436 17" xmlns="http://www.w3.org/2000/svg" fill-rule="evenodd" clip-rule="evenodd" stroke-linejoin="round" stroke-miterlimit="1.414"><g fill="none"><path d="M15.644 8.134c0 1.095-.182 2.11-.548 3.043a7.202 7.202 0 0 1-1.539 2.422 6.97 6.97 0 0 1-2.386 1.596c-.93.382-1.959.573-3.089.573-1.128 0-2.16-.19-3.094-.573A7.026 7.026 0 0 1 2.592 13.6a7.195 7.195 0 0 1-1.545-2.422C.683 10.243.5 9.229.5 8.134s.183-2.11.547-3.042c.366-.933.88-1.74 1.545-2.422a7.026 7.026 0 0 1 2.396-1.596C5.922.692 6.954.5 8.082.5c1.13 0 2.16.192 3.089.578.93.385 1.725.917 2.386 1.596a7.13 7.13 0 0 1 1.54 2.417c.365.933.547 1.947.547 3.042zm-2.851 0c0-.82-.109-1.554-.326-2.205-.217-.65-.528-1.203-.935-1.658a4.004 4.004 0 0 0-1.482-1.043c-.581-.242-1.237-.362-1.968-.362-.73 0-1.387.12-1.973.362A4.064 4.064 0 0 0 4.616 4.27a4.697 4.697 0 0 0-.945 1.658c-.22.65-.33 1.386-.33 2.205 0 .82.11 1.555.33 2.206.221.65.536 1.2.945 1.653.411.45.908.797 1.493 1.038.586.24 1.244.362 1.973.362.731 0 1.387-.122 1.968-.362a4.052 4.052 0 0 0 1.482-1.038c.407-.452.718-1.002.935-1.653.217-.65.326-1.387.326-2.206zm17.954 5.424c.627 0 1.172-.057 1.637-.17a6.945 6.945 0 0 0 1.327-.47V10.2h-1.87a.587.587 0 0 1-.423-.15.492.492 0 0 1-.155-.367v-1.57h4.969v6.043a8.253 8.253 0 0 1-1.183.718 7.5 7.5 0 0 1-1.312.5c-.465.131-.962.23-1.493.295-.529.065-1.101.098-1.714.098-1.088 0-2.09-.19-3.007-.568a7.181 7.181 0 0 1-2.375-1.58 7.218 7.218 0 0 1-1.565-2.417c-.375-.938-.563-1.96-.563-3.069 0-1.123.183-2.152.547-3.088a6.959 6.959 0 0 1 1.555-2.417c.671-.676 1.486-1.199 2.443-1.57C28.523.685 29.597.5 30.788.5c1.219 0 2.275.18 3.166.542.892.361 1.648.831 2.267 1.41l-.805 1.26c-.158.255-.368.382-.63.382a.943.943 0 0 1-.507-.165c-.22-.132-.445-.262-.676-.392a4.412 4.412 0 0 0-.765-.341 6.155 6.155 0 0 0-.94-.238 6.918 6.918 0 0 0-1.203-.093c-.736 0-1.402.124-1.999.372a4.23 4.23 0 0 0-1.524 1.064 4.79 4.79 0 0 0-.97 1.663c-.228.647-.342 1.37-.342 2.17 0 .86.122 1.626.362 2.298.241.671.578 1.237 1.012 1.7.434.46.95.813 1.55 1.058a5.158 5.158 0 0 0 1.963.367zm22.24 2.045H50.84a.943.943 0 0 1-.594-.18 1.045 1.045 0 0 1-.336-.45l-1.116-3.047h-6.187l-1.116 3.047a.974.974 0 0 1-.326.434.914.914 0 0 1-.594.196h-2.159L44.28.666h2.84l5.868 14.937zm-9.669-5.64h4.763l-1.819-4.969a19.91 19.91 0 0 1-.568-1.756c-.095.351-.19.678-.284.981-.093.303-.183.569-.274.796l-1.818 4.948zM64.567.666v2.283h-4.493v12.654h-2.779V2.95h-4.514V.666h11.786zM80.89 8.134c0 1.095-.183 2.11-.548 3.043a7.202 7.202 0 0 1-1.54 2.422 6.97 6.97 0 0 1-2.386 1.596c-.93.382-1.959.573-3.089.573-1.128 0-2.16-.19-3.093-.573a7.026 7.026 0 0 1-2.397-1.596 7.195 7.195 0 0 1-1.544-2.422c-.365-.934-.548-1.948-.548-3.043 0-1.095.183-2.11.548-3.042.365-.933.88-1.74 1.544-2.422a7.026 7.026 0 0 1 2.397-1.596C71.167.692 72.199.5 73.327.5c1.13 0 2.16.192 3.09.578a7.05 7.05 0 0 1 2.385 1.596 7.13 7.13 0 0 1 1.54 2.417c.365.933.547 1.947.547 3.042zm-2.852 0c0-.82-.108-1.554-.325-2.205a4.682 4.682 0 0 0-.935-1.658 4.004 4.004 0 0 0-1.483-1.043c-.58-.242-1.237-.362-1.968-.362-.73 0-1.386.12-1.973.362a4.064 4.064 0 0 0-1.492 1.043 4.697 4.697 0 0 0-.946 1.658c-.22.65-.33 1.386-.33 2.205 0 .82.11 1.555.33 2.206.221.65.536 1.2.946 1.653.41.45.907.797 1.492 1.038.587.24 1.244.362 1.973.362.731 0 1.387-.122 1.968-.362a4.052 4.052 0 0 0 1.483-1.038 4.625 4.625 0 0 0 .935-1.653c.217-.65.325-1.387.325-2.206zm13.966 1.633v5.836h-2.778V.666h4.555c1.02 0 1.893.104 2.619.315.727.209 1.322.503 1.787.883.465.378.806.832 1.023 1.359a4.52 4.52 0 0 1 .325 1.74c0 .502-.074.978-.222 1.426a4.121 4.121 0 0 1-.64 1.219 4.335 4.335 0 0 1-1.034.96 5.41 5.41 0 0 1-1.4.661c.352.2.655.486.91.858l3.74 5.516h-2.5a1.24 1.24 0 0 1-.615-.144 1.28 1.28 0 0 1-.429-.414l-3.14-4.782a1.078 1.078 0 0 0-.388-.383c-.14-.076-.348-.113-.625-.113h-1.188zm0-1.994h1.736c.524 0 .98-.066 1.369-.196.39-.132.71-.313.96-.543a2.18 2.18 0 0 0 .563-.82c.124-.319.186-.666.186-1.044 0-.758-.249-1.34-.749-1.746-.498-.407-1.261-.61-2.288-.61h-1.777v4.959zm25.526.361c0 1.095-.182 2.11-.547 3.043a7.202 7.202 0 0 1-1.54 2.422 6.97 6.97 0 0 1-2.386 1.596c-.93.382-1.959.573-3.088.573-1.13 0-2.16-.19-3.094-.573a7.026 7.026 0 0 1-2.397-1.596 7.195 7.195 0 0 1-1.544-2.422c-.364-.934-.548-1.948-.548-3.043 0-1.095.184-2.11.548-3.042.365-.933.88-1.74 1.544-2.422a7.026 7.026 0 0 1 2.397-1.596C107.808.692 108.84.5 109.969.5c1.13 0 2.159.192 3.088.578.93.385 1.725.917 2.386 1.596a7.13 7.13 0 0 1 1.54 2.417c.365.933.547 1.947.547 3.042zm-2.85 0c0-.82-.11-1.554-.326-2.205-.217-.65-.528-1.203-.935-1.658a4.004 4.004 0 0 0-1.483-1.043c-.58-.242-1.237-.362-1.967-.362s-1.387.12-1.974.362a4.064 4.064 0 0 0-1.492 1.043 4.697 4.697 0 0 0-.945 1.658c-.22.65-.331 1.386-.331 2.205 0 .82.111 1.555.33 2.206.221.65.536 1.2.946 1.653.41.45.907.797 1.492 1.038.587.24 1.244.362 1.974.362s1.386-.122 1.967-.362a4.052 4.052 0 0 0 1.483-1.038c.407-.452.718-1.002.935-1.653.217-.65.325-1.387.325-2.206zM130.174.666v2.21h-6.621V7.02h5.216v2.138h-5.216v4.225h6.621v2.221h-9.42V.666h9.42zm9.452 12.696c.538 0 1.018-.09 1.441-.269.424-.18.783-.431 1.075-.754.293-.324.516-.717.671-1.178.155-.462.233-.979.233-1.55V.667h2.778v8.946c0 .888-.142 1.71-.428 2.463a5.562 5.562 0 0 1-1.235 1.953 5.643 5.643 0 0 1-1.952 1.28c-.765.307-1.624.46-2.583.46-.956 0-1.818-.153-2.582-.46a5.598 5.598 0 0 1-1.947-1.28 5.625 5.625 0 0 1-1.23-1.953 6.906 6.906 0 0 1-.428-2.463V.666h2.778V9.6c0 .571.078 1.088.233 1.55.155.46.377.855.666 1.183.29.326.646.58 1.07.759.423.178.903.269 1.44.269zm28.212 2.241h-2.149a.943.943 0 0 1-.594-.18 1.045 1.045 0 0 1-.335-.45l-1.116-3.047h-6.188l-1.115 3.047a.974.974 0 0 1-.326.434.914.914 0 0 1-.594.196h-2.159L159.13.666h2.84l5.868 14.937zm-9.669-5.64h4.762l-1.818-4.969a19.91 19.91 0 0 1-.568-1.756 33.18 33.18 0 0 1-.284.981c-.093.303-.183.569-.274.796l-1.818 4.948zm20.134-.196v5.836h-2.78V.666h4.556c1.02 0 1.893.104 2.619.315.727.209 1.322.503 1.787.883.465.378.806.832 1.023 1.359a4.52 4.52 0 0 1 .325 1.74c0 .502-.073.978-.222 1.426a4.121 4.121 0 0 1-.64 1.219 4.335 4.335 0 0 1-1.033.96 5.41 5.41 0 0 1-1.4.661c.351.2.655.486.909.858l3.74 5.516h-2.5a1.24 1.24 0 0 1-.615-.144 1.28 1.28 0 0 1-.429-.414l-3.14-4.782a1.078 1.078 0 0 0-.388-.383c-.14-.076-.348-.113-.625-.113h-1.187zm0-1.994h1.735c.524 0 .98-.066 1.369-.196.39-.132.71-.313.96-.543a2.18 2.18 0 0 0 .563-.82c.124-.319.186-.666.186-1.044 0-.758-.249-1.34-.749-1.746-.498-.407-1.261-.61-2.288-.61h-1.776v4.959zm25.525.361c0 1.095-.182 2.11-.547 3.043a7.202 7.202 0 0 1-1.54 2.422 6.97 6.97 0 0 1-2.386 1.596c-.93.382-1.958.573-3.088.573-1.129 0-2.16-.19-3.094-.573a7.026 7.026 0 0 1-2.397-1.596 7.195 7.195 0 0 1-1.544-2.422c-.364-.934-.548-1.948-.548-3.043 0-1.095.184-2.11.548-3.042.365-.933.88-1.74 1.544-2.422a7.026 7.026 0 0 1 2.397-1.596c.933-.382 1.965-.573 3.094-.573 1.13 0 2.159.192 3.088.578a7.05 7.05 0 0 1 2.387 1.596 7.13 7.13 0 0 1 1.539 2.417c.365.933.547 1.947.547 3.042zm-2.85 0c0-.82-.11-1.554-.326-2.205-.217-.65-.528-1.203-.935-1.658a4.004 4.004 0 0 0-1.482-1.043c-.582-.242-1.237-.362-1.968-.362-.73 0-1.387.12-1.973.362A4.064 4.064 0 0 0 192.8 4.27a4.697 4.697 0 0 0-.945 1.658c-.22.65-.33 1.386-.33 2.205 0 .82.11 1.555.33 2.206.22.65.536 1.2.945 1.653.41.45.908.797 1.493 1.038.586.24 1.243.362 1.973.362s1.386-.122 1.968-.362a4.052 4.052 0 0 0 1.482-1.038c.407-.452.718-1.002.935-1.653.217-.65.325-1.387.325-2.206zm12.085 5.228c.538 0 1.018-.09 1.442-.269a3.02 3.02 0 0 0 1.074-.754c.293-.324.516-.717.671-1.178.155-.462.233-.979.233-1.55V.667h2.779v8.946c0 .888-.142 1.71-.43 2.463a5.562 5.562 0 0 1-1.234 1.953 5.643 5.643 0 0 1-1.952 1.28c-.764.307-1.624.46-2.583.46-.956 0-1.818-.153-2.582-.46a5.598 5.598 0 0 1-1.947-1.28 5.625 5.625 0 0 1-1.23-1.953 6.906 6.906 0 0 1-.428-2.463V.666h2.779V9.6c0 .571.077 1.088.232 1.55.155.46.377.855.666 1.183.29.326.646.58 1.07.759.423.178.903.269 1.44.269zm12.934-3.017v5.258h-2.779V.666h4.866c.999 0 1.863.116 2.592.351.731.234 1.333.56 1.808.981.475.42.827.922 1.054 1.509.227.585.34 1.225.34 1.921 0 .723-.12 1.386-.36 1.989a4.114 4.114 0 0 1-1.085 1.554c-.482.434-1.085.771-1.808 1.013-.723.24-1.57.361-2.541.361h-2.087zm0-2.17h2.087c.51 0 .954-.064 1.332-.19.38-.128.692-.31.94-.548a2.24 2.24 0 0 0 .558-.868c.124-.34.186-.721.186-1.141 0-.4-.062-.762-.186-1.085a2.14 2.14 0 0 0-.558-.826 2.47 2.47 0 0 0-.94-.522c-.378-.121-.822-.18-1.332-.18h-2.087v5.36zm22.603 7.428h-2.15a.943.943 0 0 1-.593-.18 1.045 1.045 0 0 1-.336-.45l-1.116-3.047h-6.188l-1.115 3.047a.974.974 0 0 1-.326.434.914.914 0 0 1-.594.196h-2.159L239.891.666h2.84l5.868 14.937zm-9.67-5.64h4.762l-1.818-4.969a19.91 19.91 0 0 1-.568-1.756c-.095.351-.191.678-.284.981-.093.303-.183.569-.274.796l-1.818 4.948zm30.526-1.829c0 1.095-.182 2.1-.548 3.017a6.92 6.92 0 0 1-1.539 2.366 6.892 6.892 0 0 1-2.386 1.539c-.93.364-1.959.547-3.089.547h-5.702V.666h5.702c1.13 0 2.16.183 3.089.552.93.368 1.725.881 2.386 1.54a6.85 6.85 0 0 1 1.54 2.36c.365.916.547 1.921.547 3.016zm-2.841 0c0-.82-.11-1.554-.33-2.205a4.679 4.679 0 0 0-.94-1.653 4.022 4.022 0 0 0-1.483-1.038c-.581-.241-1.237-.362-1.968-.362h-2.903v10.517h2.903c.731 0 1.387-.122 1.968-.362a4.052 4.052 0 0 0 1.482-1.038 4.66 4.66 0 0 0 .94-1.653c.221-.65.331-1.387.331-2.206zm20.381 0c0 1.095-.182 2.11-.547 3.043a7.202 7.202 0 0 1-1.54 2.422 6.97 6.97 0 0 1-2.386 1.596c-.93.382-1.958.573-3.088.573-1.129 0-2.16-.19-3.094-.573a7.026 7.026 0 0 1-2.397-1.596 7.195 7.195 0 0 1-1.544-2.422c-.364-.934-.548-1.948-.548-3.043 0-1.095.184-2.11.548-3.042.365-.933.88-1.74 1.544-2.422a7.026 7.026 0 0 1 2.397-1.596c.933-.382 1.965-.573 3.094-.573 1.13 0 2.159.192 3.088.578a7.05 7.05 0 0 1 2.387 1.596 7.13 7.13 0 0 1 1.539 2.417c.365.933.547 1.947.547 3.042zm-2.85 0c0-.82-.11-1.554-.326-2.205-.217-.65-.528-1.203-.935-1.658a4.004 4.004 0 0 0-1.482-1.043c-.581-.242-1.237-.362-1.968-.362-.73 0-1.387.12-1.973.362a4.064 4.064 0 0 0-1.493 1.043 4.697 4.697 0 0 0-.945 1.658c-.22.65-.33 1.386-.33 2.205 0 .82.11 1.555.33 2.206.22.65.536 1.2.945 1.653.41.45.908.797 1.493 1.038.586.24 1.243.362 1.973.362s1.387-.122 1.968-.362a4.052 4.052 0 0 0 1.482-1.038c.407-.452.718-1.002.935-1.653.217-.65.325-1.387.325-2.206zm13.966 1.633v5.836h-2.78V.666h4.556c1.02 0 1.893.104 2.62.315.726.209 1.321.503 1.786.883.465.378.806.832 1.023 1.359a4.52 4.52 0 0 1 .325 1.74c0 .502-.073.978-.222 1.426a4.121 4.121 0 0 1-.64 1.219 4.335 4.335 0 0 1-1.033.96 5.41 5.41 0 0 1-1.4.661c.351.2.655.486.91.858l3.739 5.516h-2.5a1.24 1.24 0 0 1-.615-.144 1.28 1.28 0 0 1-.429-.414l-3.14-4.782a1.078 1.078 0 0 0-.387-.383c-.141-.076-.349-.113-.625-.113h-1.188zm0-1.994h1.735c.524 0 .98-.066 1.369-.196.39-.132.71-.313.96-.543a2.18 2.18 0 0 0 .564-.82c.124-.319.186-.666.186-1.044 0-.758-.25-1.34-.75-1.746-.498-.407-1.26-.61-2.288-.61h-1.776v4.959zM319.227.666v2.21h-6.622V7.02h5.217v2.138h-5.217v4.225h6.622v2.221h-9.422V.666h9.422zm3.78 0h2.79v14.937h-2.79zm25.464 7.468c0 1.095-.182 2.1-.547 3.017a6.92 6.92 0 0 1-1.54 2.366 6.892 6.892 0 0 1-2.386 1.539c-.93.364-1.959.547-3.088.547h-5.703V.666h5.703c1.13 0 2.159.183 3.088.552.93.368 1.725.881 2.387 1.54a6.85 6.85 0 0 1 1.539 2.36c.365.916.547 1.921.547 3.016zm-2.84 0c0-.82-.11-1.554-.331-2.205-.22-.65-.533-1.202-.94-1.653a4.022 4.022 0 0 0-1.483-1.038c-.58-.241-1.237-.362-1.967-.362h-2.903v10.517h2.903c.73 0 1.386-.122 1.967-.362a4.052 4.052 0 0 0 1.483-1.038 4.66 4.66 0 0 0 .94-1.653c.22-.65.33-1.387.33-2.206zM361.105.666v2.21h-6.622V7.02h5.217v2.138h-5.217v4.225h6.622v2.221h-9.421V.666h9.421zm11.332 9.101v5.836h-2.779V.666h4.556c1.02 0 1.893.104 2.619.315.727.209 1.322.503 1.787.883.465.378.806.832 1.022 1.359a4.52 4.52 0 0 1 .326 1.74c0 .502-.074.978-.222 1.426a4.121 4.121 0 0 1-.64 1.219 4.335 4.335 0 0 1-1.034.96 5.41 5.41 0 0 1-1.4.661c.352.2.655.486.91.858l3.74 5.516h-2.5a1.24 1.24 0 0 1-.615-.144 1.28 1.28 0 0 1-.43-.414l-3.14-4.782a1.078 1.078 0 0 0-.387-.383c-.14-.076-.348-.113-.625-.113h-1.188zm0-1.994h1.736c.524 0 .98-.066 1.368-.196.39-.132.71-.313.961-.543a2.18 2.18 0 0 0 .563-.82c.124-.319.186-.666.186-1.044 0-.758-.25-1.34-.749-1.746-.498-.407-1.261-.61-2.288-.61h-1.777v4.959zm25.526.361c0 1.095-.182 2.11-.547 3.043a7.202 7.202 0 0 1-1.54 2.422 6.97 6.97 0 0 1-2.386 1.596c-.93.382-1.959.573-3.089.573-1.128 0-2.16-.19-3.094-.573a7.026 7.026 0 0 1-2.396-1.596 7.195 7.195 0 0 1-1.544-2.422c-.365-.934-.548-1.948-.548-3.043 0-1.095.183-2.11.548-3.042.365-.933.88-1.74 1.544-2.422a7.026 7.026 0 0 1 2.396-1.596c.934-.382 1.966-.573 3.094-.573 1.13 0 2.16.192 3.09.578a7.05 7.05 0 0 1 2.385 1.596 7.13 7.13 0 0 1 1.54 2.417c.365.933.547 1.947.547 3.042zm-2.851 0c0-.82-.109-1.554-.325-2.205a4.682 4.682 0 0 0-.935-1.658 4.004 4.004 0 0 0-1.483-1.043c-.58-.242-1.237-.362-1.968-.362-.73 0-1.386.12-1.973.362a4.064 4.064 0 0 0-1.492 1.043 4.697 4.697 0 0 0-.946 1.658c-.22.65-.33 1.386-.33 2.205 0 .82.11 1.555.33 2.206.221.65.536 1.2.946 1.653.41.45.907.797 1.492 1.038.587.24 1.244.362 1.973.362.731 0 1.387-.122 1.968-.362a4.052 4.052 0 0 0 1.483-1.038 4.625 4.625 0 0 0 .935-1.653c.216-.65.325-1.387.325-2.206zm13.574 1.271c.117.22.226.45.325.687.1.238.199.477.295.718.096-.248.196-.493.3-.733a9.29 9.29 0 0 1 .33-.693l4.421-8.274a1.21 1.21 0 0 1 .17-.248.53.53 0 0 1 .197-.134.826.826 0 0 1 .242-.052c.09-.008.197-.01.32-.01h2.098v14.937h-2.449V5.955a14.283 14.283 0 0 1 .062-1.24l-4.514 8.47a1.197 1.197 0 0 1-.403.45c-.165.106-.357.16-.578.16h-.382a1.05 1.05 0 0 1-.579-.16 1.197 1.197 0 0 1-.403-.45l-4.576-8.5a8.7 8.7 0 0 1 .057.666c.01.216.015.418.015.604v9.648h-2.448V.666h2.097c.124 0 .231.002.32.01.09.007.17.023.243.052.072.027.14.072.201.134.062.062.122.145.176.248l4.463 8.295zm25.877 6.198h-2.149a.943.943 0 0 1-.594-.18 1.045 1.045 0 0 1-.336-.45l-1.115-3.047h-6.188l-1.116 3.047a.974.974 0 0 1-.325.434.914.914 0 0 1-.594.196h-2.16L425.855.666h2.841l5.868 14.937zm-9.67-5.64h4.763l-1.818-4.969a19.91 19.91 0 0 1-.568-1.756 33.18 33.18 0 0 1-.284.981c-.093.303-.184.569-.274.796l-1.818 4.948z"/><path d="M15.644 8.134c0 1.095-.182 2.11-.548 3.043a7.202 7.202 0 0 1-1.539 2.422 6.97 6.97 0 0 1-2.386 1.596c-.93.382-1.959.573-3.089.573-1.128 0-2.16-.19-3.094-.573A7.026 7.026 0 0 1 2.592 13.6a7.195 7.195 0 0 1-1.545-2.422C.683 10.243.5 9.229.5 8.134s.183-2.11.547-3.042c.366-.933.88-1.74 1.545-2.422a7.026 7.026 0 0 1 2.396-1.596C5.922.692 6.954.5 8.082.5c1.13 0 2.16.192 3.089.578.93.385 1.725.917 2.386 1.596a7.13 7.13 0 0 1 1.54 2.417c.365.933.547 1.947.547 3.042zm-2.851 0c0-.82-.109-1.554-.326-2.205-.217-.65-.528-1.203-.935-1.658a4.004 4.004 0 0 0-1.482-1.043c-.581-.242-1.237-.362-1.968-.362-.73 0-1.387.12-1.973.362A4.064 4.064 0 0 0 4.616 4.27a4.697 4.697 0 0 0-.945 1.658c-.22.65-.33 1.386-.33 2.205 0 .82.11 1.555.33 2.206.221.65.536 1.2.945 1.653.411.45.908.797 1.493 1.038.586.24 1.244.362 1.973.362.731 0 1.387-.122 1.968-.362a4.052 4.052 0 0 0 1.482-1.038c.407-.452.718-1.002.935-1.653.217-.65.326-1.387.326-2.206zm17.954 5.424c.627 0 1.172-.057 1.637-.17a6.945 6.945 0 0 0 1.327-.47V10.2h-1.87a.587.587 0 0 1-.423-.15.492.492 0 0 1-.155-.367v-1.57h4.969v6.043a8.253 8.253 0 0 1-1.183.718 7.5 7.5 0 0 1-1.312.5c-.465.131-.962.23-1.493.295-.529.065-1.101.098-1.714.098-1.088 0-2.09-.19-3.007-.568a7.181 7.181 0 0 1-2.375-1.58 7.218 7.218 0 0 1-1.565-2.417c-.375-.938-.563-1.96-.563-3.069 0-1.123.183-2.152.547-3.088a6.959 6.959 0 0 1 1.555-2.417c.671-.676 1.486-1.199 2.443-1.57C28.523.685 29.597.5 30.788.5c1.219 0 2.275.18 3.166.542.892.361 1.648.831 2.267 1.41l-.805 1.26c-.158.255-.368.382-.63.382a.943.943 0 0 1-.507-.165c-.22-.132-.445-.262-.676-.392a4.412 4.412 0 0 0-.765-.341 6.155 6.155 0 0 0-.94-.238 6.918 6.918 0 0 0-1.203-.093c-.736 0-1.402.124-1.999.372a4.23 4.23 0 0 0-1.524 1.064 4.79 4.79 0 0 0-.97 1.663c-.228.647-.342 1.37-.342 2.17 0 .86.122 1.626.362 2.298.241.671.578 1.237 1.012 1.7.434.46.95.813 1.55 1.058a5.158 5.158 0 0 0 1.963.367zm22.24 2.045H50.84a.943.943 0 0 1-.594-.18 1.045 1.045 0 0 1-.336-.45l-1.116-3.047h-6.187l-1.116 3.047a.974.974 0 0 1-.326.434.914.914 0 0 1-.594.196h-2.159L44.28.666h2.84l5.868 14.937zm-9.669-5.64h4.763l-1.819-4.969a19.91 19.91 0 0 1-.568-1.756c-.095.351-.19.678-.284.981-.093.303-.183.569-.274.796l-1.818 4.948zM64.567.666v2.283h-4.493v12.654h-2.779V2.95h-4.514V.666h11.786zM80.89 8.134c0 1.095-.183 2.11-.548 3.043a7.202 7.202 0 0 1-1.54 2.422 6.97 6.97 0 0 1-2.386 1.596c-.93.382-1.959.573-3.089.573-1.128 0-2.16-.19-3.093-.573a7.026 7.026 0 0 1-2.397-1.596 7.195 7.195 0 0 1-1.544-2.422c-.365-.934-.548-1.948-.548-3.043 0-1.095.183-2.11.548-3.042.365-.933.88-1.74 1.544-2.422a7.026 7.026 0 0 1 2.397-1.596C71.167.692 72.199.5 73.327.5c1.13 0 2.16.192 3.09.578a7.05 7.05 0 0 1 2.385 1.596 7.13 7.13 0 0 1 1.54 2.417c.365.933.547 1.947.547 3.042zm-2.852 0c0-.82-.108-1.554-.325-2.205a4.682 4.682 0 0 0-.935-1.658 4.004 4.004 0 0 0-1.483-1.043c-.58-.242-1.237-.362-1.968-.362-.73 0-1.386.12-1.973.362a4.064 4.064 0 0 0-1.492 1.043 4.697 4.697 0 0 0-.946 1.658c-.22.65-.33 1.386-.33 2.205 0 .82.11 1.555.33 2.206.221.65.536 1.2.946 1.653.41.45.907.797 1.492 1.038.587.24 1.244.362 1.973.362.731 0 1.387-.122 1.968-.362a4.052 4.052 0 0 0 1.483-1.038 4.625 4.625 0 0 0 .935-1.653c.217-.65.325-1.387.325-2.206zm13.966 1.633v5.836h-2.778V.666h4.555c1.02 0 1.893.104 2.619.315.727.209 1.322.503 1.787.883.465.378.806.832 1.023 1.359a4.52 4.52 0 0 1 .325 1.74c0 .502-.074.978-.222 1.426a4.121 4.121 0 0 1-.64 1.219 4.335 4.335 0 0 1-1.034.96 5.41 5.41 0 0 1-1.4.661c.352.2.655.486.91.858l3.74 5.516h-2.5a1.24 1.24 0 0 1-.615-.144 1.28 1.28 0 0 1-.429-.414l-3.14-4.782a1.078 1.078 0 0 0-.388-.383c-.14-.076-.348-.113-.625-.113h-1.188zm0-1.994h1.736c.524 0 .98-.066 1.369-.196.39-.132.71-.313.96-.543a2.18 2.18 0 0 0 .563-.82c.124-.319.186-.666.186-1.044 0-.758-.249-1.34-.749-1.746-.498-.407-1.261-.61-2.288-.61h-1.777v4.959zm25.526.361c0 1.095-.182 2.11-.547 3.043a7.202 7.202 0 0 1-1.54 2.422 6.97 6.97 0 0 1-2.386 1.596c-.93.382-1.959.573-3.088.573-1.13 0-2.16-.19-3.094-.573a7.026 7.026 0 0 1-2.397-1.596 7.195 7.195 0 0 1-1.544-2.422c-.364-.934-.548-1.948-.548-3.043 0-1.095.184-2.11.548-3.042.365-.933.88-1.74 1.544-2.422a7.026 7.026 0 0 1 2.397-1.596C107.808.692 108.84.5 109.969.5c1.13 0 2.159.192 3.088.578.93.385 1.725.917 2.386 1.596a7.13 7.13 0 0 1 1.54 2.417c.365.933.547 1.947.547 3.042zm-2.85 0c0-.82-.11-1.554-.326-2.205-.217-.65-.528-1.203-.935-1.658a4.004 4.004 0 0 0-1.483-1.043c-.58-.242-1.237-.362-1.967-.362s-1.387.12-1.974.362a4.064 4.064 0 0 0-1.492 1.043 4.697 4.697 0 0 0-.945 1.658c-.22.65-.331 1.386-.331 2.205 0 .82.111 1.555.33 2.206.221.65.536 1.2.946 1.653.41.45.907.797 1.492 1.038.587.24 1.244.362 1.974.362s1.386-.122 1.967-.362a4.052 4.052 0 0 0 1.483-1.038c.407-.452.718-1.002.935-1.653.217-.65.325-1.387.325-2.206zM130.174.666v2.21h-6.621V7.02h5.216v2.138h-5.216v4.225h6.621v2.221h-9.42V.666h9.42zm9.452 12.696c.538 0 1.018-.09 1.441-.269.424-.18.783-.431 1.075-.754.293-.324.516-.717.671-1.178.155-.462.233-.979.233-1.55V.667h2.778v8.946c0 .888-.142 1.71-.428 2.463a5.562 5.562 0 0 1-1.235 1.953 5.643 5.643 0 0 1-1.952 1.28c-.765.307-1.624.46-2.583.46-.956 0-1.818-.153-2.582-.46a5.598 5.598 0 0 1-1.947-1.28 5.625 5.625 0 0 1-1.23-1.953 6.906 6.906 0 0 1-.428-2.463V.666h2.778V9.6c0 .571.078 1.088.233 1.55.155.46.377.855.666 1.183.29.326.646.58 1.07.759.423.178.903.269 1.44.269zm28.212 2.241h-2.149a.943.943 0 0 1-.594-.18 1.045 1.045 0 0 1-.335-.45l-1.116-3.047h-6.188l-1.115 3.047a.974.974 0 0 1-.326.434.914.914 0 0 1-.594.196h-2.159L159.13.666h2.84l5.868 14.937zm-9.669-5.64h4.762l-1.818-4.969a19.91 19.91 0 0 1-.568-1.756 33.18 33.18 0 0 1-.284.981c-.093.303-.183.569-.274.796l-1.818 4.948zm20.134-.196v5.836h-2.78V.666h4.556c1.02 0 1.893.104 2.619.315.727.209 1.322.503 1.787.883.465.378.806.832 1.023 1.359a4.52 4.52 0 0 1 .325 1.74c0 .502-.073.978-.222 1.426a4.121 4.121 0 0 1-.64 1.219 4.335 4.335 0 0 1-1.033.96 5.41 5.41 0 0 1-1.4.661c.351.2.655.486.909.858l3.74 5.516h-2.5a1.24 1.24 0 0 1-.615-.144 1.28 1.28 0 0 1-.429-.414l-3.14-4.782a1.078 1.078 0 0 0-.388-.383c-.14-.076-.348-.113-.625-.113h-1.187zm0-1.994h1.735c.524 0 .98-.066 1.369-.196.39-.132.71-.313.96-.543a2.18 2.18 0 0 0 .563-.82c.124-.319.186-.666.186-1.044 0-.758-.249-1.34-.749-1.746-.498-.407-1.261-.61-2.288-.61h-1.776v4.959zm25.525.361c0 1.095-.182 2.11-.547 3.043a7.202 7.202 0 0 1-1.54 2.422 6.97 6.97 0 0 1-2.386 1.596c-.93.382-1.958.573-3.088.573-1.129 0-2.16-.19-3.094-.573a7.026 7.026 0 0 1-2.397-1.596 7.195 7.195 0 0 1-1.544-2.422c-.364-.934-.548-1.948-.548-3.043 0-1.095.184-2.11.548-3.042.365-.933.88-1.74 1.544-2.422a7.026 7.026 0 0 1 2.397-1.596c.933-.382 1.965-.573 3.094-.573 1.13 0 2.159.192 3.088.578a7.05 7.05 0 0 1 2.387 1.596 7.13 7.13 0 0 1 1.539 2.417c.365.933.547 1.947.547 3.042zm-2.85 0c0-.82-.11-1.554-.326-2.205-.217-.65-.528-1.203-.935-1.658a4.004 4.004 0 0 0-1.482-1.043c-.582-.242-1.237-.362-1.968-.362-.73 0-1.387.12-1.973.362A4.064 4.064 0 0 0 192.8 4.27a4.697 4.697 0 0 0-.945 1.658c-.22.65-.33 1.386-.33 2.205 0 .82.11 1.555.33 2.206.22.65.536 1.2.945 1.653.41.45.908.797 1.493 1.038.586.24 1.243.362 1.973.362s1.386-.122 1.968-.362a4.052 4.052 0 0 0 1.482-1.038c.407-.452.718-1.002.935-1.653.217-.65.325-1.387.325-2.206zm12.085 5.228c.538 0 1.018-.09 1.442-.269a3.02 3.02 0 0 0 1.074-.754c.293-.324.516-.717.671-1.178.155-.462.233-.979.233-1.55V.667h2.779v8.946c0 .888-.142 1.71-.43 2.463a5.562 5.562 0 0 1-1.234 1.953 5.643 5.643 0 0 1-1.952 1.28c-.764.307-1.624.46-2.583.46-.956 0-1.818-.153-2.582-.46a5.598 5.598 0 0 1-1.947-1.28 5.625 5.625 0 0 1-1.23-1.953 6.906 6.906 0 0 1-.428-2.463V.666h2.779V9.6c0 .571.077 1.088.232 1.55.155.46.377.855.666 1.183.29.326.646.58 1.07.759.423.178.903.269 1.44.269zm12.934-3.017v5.258h-2.779V.666h4.866c.999 0 1.863.116 2.592.351.731.234 1.333.56 1.808.981.475.42.827.922 1.054 1.509.227.585.34 1.225.34 1.921 0 .723-.12 1.386-.36 1.989a4.114 4.114 0 0 1-1.085 1.554c-.482.434-1.085.771-1.808 1.013-.723.24-1.57.361-2.541.361h-2.087zm0-2.17h2.087c.51 0 .954-.064 1.332-.19.38-.128.692-.31.94-.548a2.24 2.24 0 0 0 .558-.868c.124-.34.186-.721.186-1.141 0-.4-.062-.762-.186-1.085a2.14 2.14 0 0 0-.558-.826 2.47 2.47 0 0 0-.94-.522c-.378-.121-.822-.18-1.332-.18h-2.087v5.36zm22.603 7.428h-2.15a.943.943 0 0 1-.593-.18 1.045 1.045 0 0 1-.336-.45l-1.116-3.047h-6.188l-1.115 3.047a.974.974 0 0 1-.326.434.914.914 0 0 1-.594.196h-2.159L239.891.666h2.84l5.868 14.937zm-9.67-5.64h4.762l-1.818-4.969a19.91 19.91 0 0 1-.568-1.756c-.095.351-.191.678-.284.981-.093.303-.183.569-.274.796l-1.818 4.948zm30.526-1.829c0 1.095-.182 2.1-.548 3.017a6.92 6.92 0 0 1-1.539 2.366 6.892 6.892 0 0 1-2.386 1.539c-.93.364-1.959.547-3.089.547h-5.702V.666h5.702c1.13 0 2.16.183 3.089.552.93.368 1.725.881 2.386 1.54a6.85 6.85 0 0 1 1.54 2.36c.365.916.547 1.921.547 3.016zm-2.841 0c0-.82-.11-1.554-.33-2.205a4.679 4.679 0 0 0-.94-1.653 4.022 4.022 0 0 0-1.483-1.038c-.581-.241-1.237-.362-1.968-.362h-2.903v10.517h2.903c.731 0 1.387-.122 1.968-.362a4.052 4.052 0 0 0 1.482-1.038 4.66 4.66 0 0 0 .94-1.653c.221-.65.331-1.387.331-2.206zm20.381 0c0 1.095-.182 2.11-.547 3.043a7.202 7.202 0 0 1-1.54 2.422 6.97 6.97 0 0 1-2.386 1.596c-.93.382-1.958.573-3.088.573-1.129 0-2.16-.19-3.094-.573a7.026 7.026 0 0 1-2.397-1.596 7.195 7.195 0 0 1-1.544-2.422c-.364-.934-.548-1.948-.548-3.043 0-1.095.184-2.11.548-3.042.365-.933.88-1.74 1.544-2.422a7.026 7.026 0 0 1 2.397-1.596c.933-.382 1.965-.573 3.094-.573 1.13 0 2.159.192 3.088.578a7.05 7.05 0 0 1 2.387 1.596 7.13 7.13 0 0 1 1.539 2.417c.365.933.547 1.947.547 3.042zm-2.85 0c0-.82-.11-1.554-.326-2.205-.217-.65-.528-1.203-.935-1.658a4.004 4.004 0 0 0-1.482-1.043c-.581-.242-1.237-.362-1.968-.362-.73 0-1.387.12-1.973.362a4.064 4.064 0 0 0-1.493 1.043 4.697 4.697 0 0 0-.945 1.658c-.22.65-.33 1.386-.33 2.205 0 .82.11 1.555.33 2.206.22.65.536 1.2.945 1.653.41.45.908.797 1.493 1.038.586.24 1.243.362 1.973.362s1.387-.122 1.968-.362a4.052 4.052 0 0 0 1.482-1.038c.407-.452.718-1.002.935-1.653.217-.65.325-1.387.325-2.206zm13.966 1.633v5.836h-2.78V.666h4.556c1.02 0 1.893.104 2.62.315.726.209 1.321.503 1.786.883.465.378.806.832 1.023 1.359a4.52 4.52 0 0 1 .325 1.74c0 .502-.073.978-.222 1.426a4.121 4.121 0 0 1-.64 1.219 4.335 4.335 0 0 1-1.033.96 5.41 5.41 0 0 1-1.4.661c.351.2.655.486.91.858l3.739 5.516h-2.5a1.24 1.24 0 0 1-.615-.144 1.28 1.28 0 0 1-.429-.414l-3.14-4.782a1.078 1.078 0 0 0-.387-.383c-.141-.076-.349-.113-.625-.113h-1.188zm0-1.994h1.735c.524 0 .98-.066 1.369-.196.39-.132.71-.313.96-.543a2.18 2.18 0 0 0 .564-.82c.124-.319.186-.666.186-1.044 0-.758-.25-1.34-.75-1.746-.498-.407-1.26-.61-2.288-.61h-1.776v4.959zM319.227.666v2.21h-6.622V7.02h5.217v2.138h-5.217v4.225h6.622v2.221h-9.422V.666h9.422zm3.78 0h2.79v14.937h-2.79zm25.464 7.468c0 1.095-.182 2.1-.547 3.017a6.92 6.92 0 0 1-1.54 2.366 6.892 6.892 0 0 1-2.386 1.539c-.93.364-1.959.547-3.088.547h-5.703V.666h5.703c1.13 0 2.159.183 3.088.552.93.368 1.725.881 2.387 1.54a6.85 6.85 0 0 1 1.539 2.36c.365.916.547 1.921.547 3.016zm-2.84 0c0-.82-.11-1.554-.331-2.205-.22-.65-.533-1.202-.94-1.653a4.022 4.022 0 0 0-1.483-1.038c-.58-.241-1.237-.362-1.967-.362h-2.903v10.517h2.903c.73 0 1.386-.122 1.967-.362a4.052 4.052 0 0 0 1.483-1.038 4.66 4.66 0 0 0 .94-1.653c.22-.65.33-1.387.33-2.206zM361.105.666v2.21h-6.622V7.02h5.217v2.138h-5.217v4.225h6.622v2.221h-9.421V.666h9.421zm11.332 9.101v5.836h-2.779V.666h4.556c1.02 0 1.893.104 2.619.315.727.209 1.322.503 1.787.883.465.378.806.832 1.022 1.359a4.52 4.52 0 0 1 .326 1.74c0 .502-.074.978-.222 1.426a4.121 4.121 0 0 1-.64 1.219 4.335 4.335 0 0 1-1.034.96 5.41 5.41 0 0 1-1.4.661c.352.2.655.486.91.858l3.74 5.516h-2.5a1.24 1.24 0 0 1-.615-.144 1.28 1.28 0 0 1-.43-.414l-3.14-4.782a1.078 1.078 0 0 0-.387-.383c-.14-.076-.348-.113-.625-.113h-1.188zm0-1.994h1.736c.524 0 .98-.066 1.368-.196.39-.132.71-.313.961-.543a2.18 2.18 0 0 0 .563-.82c.124-.319.186-.666.186-1.044 0-.758-.25-1.34-.749-1.746-.498-.407-1.261-.61-2.288-.61h-1.777v4.959zm25.526.361c0 1.095-.182 2.11-.547 3.043a7.202 7.202 0 0 1-1.54 2.422 6.97 6.97 0 0 1-2.386 1.596c-.93.382-1.959.573-3.089.573-1.128 0-2.16-.19-3.094-.573a7.026 7.026 0 0 1-2.396-1.596 7.195 7.195 0 0 1-1.544-2.422c-.365-.934-.548-1.948-.548-3.043 0-1.095.183-2.11.548-3.042.365-.933.88-1.74 1.544-2.422a7.026 7.026 0 0 1 2.396-1.596c.934-.382 1.966-.573 3.094-.573 1.13 0 2.16.192 3.09.578a7.05 7.05 0 0 1 2.385 1.596 7.13 7.13 0 0 1 1.54 2.417c.365.933.547 1.947.547 3.042zm-2.851 0c0-.82-.109-1.554-.325-2.205a4.682 4.682 0 0 0-.935-1.658 4.004 4.004 0 0 0-1.483-1.043c-.58-.242-1.237-.362-1.968-.362-.73 0-1.386.12-1.973.362a4.064 4.064 0 0 0-1.492 1.043 4.697 4.697 0 0 0-.946 1.658c-.22.65-.33 1.386-.33 2.205 0 .82.11 1.555.33 2.206.221.65.536 1.2.946 1.653.41.45.907.797 1.492 1.038.587.24 1.244.362 1.973.362.731 0 1.387-.122 1.968-.362a4.052 4.052 0 0 0 1.483-1.038 4.625 4.625 0 0 0 .935-1.653c.216-.65.325-1.387.325-2.206zm13.574 1.271c.117.22.226.45.325.687.1.238.199.477.295.718.096-.248.196-.493.3-.733a9.29 9.29 0 0 1 .33-.693l4.421-8.274a1.21 1.21 0 0 1 .17-.248.53.53 0 0 1 .197-.134.826.826 0 0 1 .242-.052c.09-.008.197-.01.32-.01h2.098v14.937h-2.449V5.955a14.283 14.283 0 0 1 .062-1.24l-4.514 8.47a1.197 1.197 0 0 1-.403.45c-.165.106-.357.16-.578.16h-.382a1.05 1.05 0 0 1-.579-.16 1.197 1.197 0 0 1-.403-.45l-4.576-8.5a8.7 8.7 0 0 1 .057.666c.01.216.015.418.015.604v9.648h-2.448V.666h2.097c.124 0 .231.002.32.01.09.007.17.023.243.052.072.027.14.072.201.134.062.062.122.145.176.248l4.463 8.295zm25.877 6.198h-2.149a.943.943 0 0 1-.594-.18 1.045 1.045 0 0 1-.336-.45l-1.115-3.047h-6.188l-1.116 3.047a.974.974 0 0 1-.325.434.914.914 0 0 1-.594.196h-2.16L425.855.666h2.841l5.868 14.937zm-9.67-5.64h4.763l-1.818-4.969a19.91 19.91 0 0 1-.568-1.756 33.18 33.18 0 0 1-.284.981c-.093.303-.184.569-.274.796l-1.818 4.948z" stroke="#555" stroke-width=".994"/></g></svg>