<svg viewBox="0 0 436 16" xmlns="http://www.w3.org/2000/svg" fill-rule="evenodd" clip-rule="evenodd" stroke-linejoin="round" stroke-miterlimit="1.414"><g fill="none"><path d="M7.917 15.397c-1.116 0-2.128-.215-3.037-.64a7.545 7.545 0 0 1-2.335-1.685 7.662 7.662 0 0 1-1.508-2.386A7.402 7.402 0 0 1 .5 7.918a7.2 7.2 0 0 1 .558-2.79 7.404 7.404 0 0 1 1.56-2.365A7.606 7.606 0 0 1 4.992 1.13C5.91.724 6.913.52 8 .52c1.116 0 2.129.213 3.038.64a7.42 7.42 0 0 1 2.334 1.695 7.577 7.577 0 0 1 1.498 2.396c.351.895.527 1.81.527 2.748a7.13 7.13 0 0 1-.558 2.779 7.526 7.526 0 0 1-1.55 2.355 7.612 7.612 0 0 1-2.365 1.643c-.916.413-1.918.62-3.006.62zM4.59 7.959c0 .496.07.974.206 1.436.138.46.345.87.62 1.23.276.357.624.646 1.043.867.421.22.92.33 1.498.33.579 0 1.082-.113 1.508-.34a3.06 3.06 0 0 0 1.044-.889c.268-.365.468-.782.599-1.25.132-.469.196-.944.196-1.425 0-.496-.068-.975-.206-1.436a3.508 3.508 0 0 0-.63-1.22 3.16 3.16 0 0 0-1.054-.846c-.42-.215-.912-.32-1.477-.32-.579 0-1.077.11-1.498.33-.42.22-.767.513-1.044.878a3.731 3.731 0 0 0-.61 1.24 5.18 5.18 0 0 0-.195 1.415zm29.194 6.095a5.453 5.453 0 0 1-3.616 1.322c-.95 0-1.86-.17-2.727-.506a6.543 6.543 0 0 1-2.273-1.477c-.647-.649-1.163-1.44-1.55-2.376-.384-.938-.578-2.004-.578-3.203a7.173 7.173 0 0 1 2.17-5.196 7.51 7.51 0 0 1 2.386-1.55A7.67 7.67 0 0 1 30.56.502a8.16 8.16 0 0 1 1.9.216 6.737 6.737 0 0 1 1.684.64c.517.282.981.62 1.395 1.013.413.393.751.837 1.012 1.333l-2.996 2.293a3.378 3.378 0 0 0-1.301-1.394 3.484 3.484 0 0 0-1.84-.527 2.993 2.993 0 0 0-2.354 1.095c-.29.343-.517.754-.682 1.229a4.716 4.716 0 0 0-.248 1.56c0 .578.083 1.101.248 1.57.165.468.396.87.692 1.209.297.337.65.599 1.064.785.413.186.875.279 1.384.279 1.171 0 2.204-.483 3.1-1.447h-2.542V7.463h6.033v7.81h-3.326v-1.22zM43.928.604h3.677l5.083 14.669h-4.091l-.888-2.872h-3.905l-.868 2.872h-4.111L43.928.603zm3.14 9.111L45.767 5.17l-1.364 4.545h2.665zm17.954-5.599h-4.215v11.157H56.78V4.116h-4.236V.604h12.479v3.512zm8.884 11.281c-1.116 0-2.128-.215-3.037-.64a7.545 7.545 0 0 1-2.335-1.685 7.662 7.662 0 0 1-1.508-2.386 7.402 7.402 0 0 1-.537-2.768 7.2 7.2 0 0 1 .558-2.79 7.404 7.404 0 0 1 1.56-2.365 7.606 7.606 0 0 1 2.375-1.632C71.9.724 72.902.52 73.99.52c1.115 0 2.128.213 3.037.64a7.42 7.42 0 0 1 2.334 1.695 7.577 7.577 0 0 1 1.498 2.396c.351.895.527 1.81.527 2.748a7.13 7.13 0 0 1-.558 2.779 7.526 7.526 0 0 1-1.55 2.355 7.612 7.612 0 0 1-2.365 1.643c-.916.413-1.918.62-3.006.62zM70.58 7.959c0 .496.07.974.206 1.436.138.46.345.87.62 1.23.276.357.624.646 1.043.867.421.22.92.33 1.498.33.579 0 1.082-.113 1.508-.34a3.06 3.06 0 0 0 1.044-.889 3.82 3.82 0 0 0 .599-1.25c.132-.469.196-.944.196-1.425 0-.496-.068-.975-.206-1.436a3.508 3.508 0 0 0-.63-1.22 3.16 3.16 0 0 0-1.054-.846c-.42-.215-.912-.32-1.477-.32-.579 0-1.077.11-1.498.33-.42.22-.767.513-1.044.878a3.731 3.731 0 0 0-.61 1.24 5.18 5.18 0 0 0-.195 1.415zm19.234 7.314V.603h6.736c.716 0 1.377.148 1.983.445a5.13 5.13 0 0 1 1.56 1.157 5.398 5.398 0 0 1 1.023 1.632c.247.612.371 1.23.371 1.85 0 .853-.185 1.648-.557 2.386a4.875 4.875 0 0 1-1.55 1.807l3.1 5.393h-4.546l-2.583-4.504h-1.508v4.504h-4.029zm4.03-8.017h2.54c.248 0 .48-.138.692-.413.215-.276.32-.66.32-1.157 0-.51-.123-.898-.371-1.167s-.496-.403-.744-.403h-2.438v3.14zm17.374 8.141c-1.115 0-2.128-.215-3.037-.64a7.545 7.545 0 0 1-2.334-1.685 7.662 7.662 0 0 1-1.508-2.386 7.402 7.402 0 0 1-.538-2.768 7.2 7.2 0 0 1 .558-2.79 7.404 7.404 0 0 1 1.56-2.365 7.606 7.606 0 0 1 2.376-1.632c.917-.407 1.919-.61 3.006-.61 1.116 0 2.128.213 3.037.64.91.427 1.688.992 2.335 1.695a7.577 7.577 0 0 1 1.498 2.396c.35.895.526 1.81.526 2.748a7.13 7.13 0 0 1-.557 2.779 7.526 7.526 0 0 1-1.55 2.355 7.612 7.612 0 0 1-2.365 1.643c-.916.413-1.918.62-3.007.62zm-3.326-7.438c0 .496.07.974.207 1.436.138.46.345.87.62 1.23.276.357.623.646 1.043.867.42.22.92.33 1.498.33s1.082-.113 1.508-.34a3.06 3.06 0 0 0 1.043-.889c.269-.365.47-.782.6-1.25.131-.469.196-.944.196-1.425 0-.496-.069-.975-.207-1.436a3.508 3.508 0 0 0-.63-1.22 3.16 3.16 0 0 0-1.054-.846c-.42-.215-.911-.32-1.477-.32-.578 0-1.077.11-1.498.33a3.08 3.08 0 0 0-1.043.878 3.731 3.731 0 0 0-.61 1.24 5.18 5.18 0 0 0-.196 1.415zM131.9 11.76v3.513h-10.455V.603h10.268v3.513h-6.239v2.066h5.33v3.264h-5.33v2.314h6.425zm9.317.062c.469 0 .868-.103 1.199-.31.33-.206.599-.479.805-.816.207-.338.36-.727.455-1.167.097-.442.144-.903.144-1.384V.604h4.03v7.54c0 1.02-.131 1.974-.393 2.862a6.2 6.2 0 0 1-1.22 2.304 5.755 5.755 0 0 1-2.076 1.529c-.833.372-1.814.558-2.944.558-1.17 0-2.172-.197-3.006-.59-.833-.392-1.518-.919-2.056-1.58a6.358 6.358 0 0 1-1.177-2.303 10.15 10.15 0 0 1-.372-2.78V.605h4.029v7.54c0 .482.049.947.144 1.395.097.447.248.84.455 1.178.206.337.472.606.795.806.324.199.72.3 1.188.3zM160.06.604h3.677l5.082 14.669h-4.09l-.889-2.872h-3.905l-.867 2.872h-4.112L160.06.603zm3.14 9.111l-1.302-4.545-1.363 4.545h2.665zm12.933 5.558V.603h6.735c.717 0 1.378.148 1.984.445a5.13 5.13 0 0 1 1.56 1.157 5.398 5.398 0 0 1 1.022 1.632c.248.612.372 1.23.372 1.85 0 .853-.186 1.648-.558 2.386a4.875 4.875 0 0 1-1.55 1.807l3.1 5.393h-4.545l-2.583-4.504h-1.508v4.504h-4.029zm4.029-8.017h2.541c.248 0 .48-.138.692-.413.215-.276.32-.66.32-1.157 0-.51-.123-.898-.371-1.167s-.496-.403-.744-.403h-2.438v3.14zm17.375 8.141c-1.115 0-2.128-.215-3.037-.64a7.545 7.545 0 0 1-2.334-1.685 7.662 7.662 0 0 1-1.509-2.386 7.402 7.402 0 0 1-.537-2.768 7.2 7.2 0 0 1 .558-2.79 7.404 7.404 0 0 1 1.56-2.365 7.606 7.606 0 0 1 2.376-1.632c.917-.407 1.919-.61 3.006-.61 1.116 0 2.128.213 3.037.64a7.425 7.425 0 0 1 2.335 1.695 7.577 7.577 0 0 1 1.497 2.396c.352.895.527 1.81.527 2.748a7.13 7.13 0 0 1-.558 2.779 7.526 7.526 0 0 1-1.549 2.355 7.612 7.612 0 0 1-2.366 1.643c-.915.413-1.917.62-3.006.62zm-3.326-7.438c0 .496.07.974.207 1.436.138.46.344.87.62 1.23.276.357.623.646 1.043.867.42.22.92.33 1.498.33s1.082-.113 1.508-.34a3.06 3.06 0 0 0 1.043-.889c.269-.365.469-.782.6-1.25.131-.469.196-.944.196-1.425 0-.496-.069-.975-.207-1.436a3.508 3.508 0 0 0-.63-1.22 3.16 3.16 0 0 0-1.054-.846c-.42-.215-.911-.32-1.477-.32-.579 0-1.077.11-1.498.33a3.08 3.08 0 0 0-1.043.878 3.731 3.731 0 0 0-.61 1.24 5.18 5.18 0 0 0-.196 1.415zm19.958 3.863c.469 0 .868-.103 1.198-.31.33-.206.6-.479.806-.816.206-.338.359-.727.454-1.167.097-.442.145-.903.145-1.384V.604h4.029v7.54c0 1.02-.13 1.974-.393 2.862a6.2 6.2 0 0 1-1.219 2.304 5.755 5.755 0 0 1-2.076 1.529c-.833.372-1.814.558-2.944.558-1.17 0-2.172-.197-3.006-.59-.833-.392-1.519-.919-2.056-1.58a6.358 6.358 0 0 1-1.178-2.303 10.15 10.15 0 0 1-.371-2.78V.605h4.028v7.54c0 .482.05.947.145 1.395.097.447.248.84.454 1.178.207.337.473.606.796.806.324.199.72.3 1.188.3zm9.979 3.451V.603h6.322c.716 0 1.378.148 1.983.445a5.13 5.13 0 0 1 1.56 1.157 5.398 5.398 0 0 1 1.023 1.632c.248.612.372 1.23.372 1.85a5.24 5.24 0 0 1-.352 1.89 5.277 5.277 0 0 1-.98 1.632c-.42.475-.93.853-1.53 1.136a4.58 4.58 0 0 1-1.973.424h-2.396v4.504h-4.03zm4.029-8.017h2.128c.247 0 .479-.113.692-.34.214-.228.32-.638.32-1.23 0-.607-.124-1.02-.372-1.24-.248-.22-.496-.33-.744-.33h-2.024v3.14zM240.78.604h3.677l5.082 14.669h-4.09l-.889-2.872h-3.905l-.867 2.872h-4.112L240.78.603zm3.14 9.111l-1.302-4.545-1.363 4.545h2.665zm12.933 5.558V.603h5.64c1.213 0 2.28.193 3.203.58.923.384 1.694.908 2.314 1.57a6.587 6.587 0 0 1 1.405 2.324c.317.888.475 1.835.475 2.84 0 1.116-.176 2.125-.527 3.027a6.548 6.548 0 0 1-1.498 2.314 6.708 6.708 0 0 1-2.335 1.488c-.909.351-1.921.527-3.037.527h-5.64zm8.946-7.355a4.98 4.98 0 0 0-.227-1.55 3.442 3.442 0 0 0-.651-1.198 2.928 2.928 0 0 0-1.043-.775 3.335 3.335 0 0 0-1.385-.279h-1.611v7.644h1.611c.525 0 .992-.096 1.405-.289a2.947 2.947 0 0 0 1.044-.806c.282-.344.495-.751.64-1.219.145-.468.217-.978.217-1.528zm13.491 7.479c-1.115 0-2.128-.215-3.037-.64a7.545 7.545 0 0 1-2.335-1.685 7.662 7.662 0 0 1-1.508-2.386 7.402 7.402 0 0 1-.537-2.768 7.2 7.2 0 0 1 .558-2.79 7.404 7.404 0 0 1 1.56-2.365 7.606 7.606 0 0 1 2.376-1.632c.917-.407 1.919-.61 3.006-.61 1.115 0 2.128.213 3.037.64a7.41 7.41 0 0 1 2.334 1.695 7.577 7.577 0 0 1 1.498 2.396c.352.895.527 1.81.527 2.748a7.13 7.13 0 0 1-.558 2.779 7.526 7.526 0 0 1-1.55 2.355 7.612 7.612 0 0 1-2.365 1.643c-.915.413-1.917.62-3.006.62zm-3.326-7.438c0 .496.07.974.206 1.436.139.46.345.87.62 1.23.277.357.624.646 1.044.867.42.22.919.33 1.497.33.579 0 1.083-.113 1.509-.34a3.06 3.06 0 0 0 1.043-.889c.269-.365.469-.782.6-1.25.13-.469.195-.944.195-1.425 0-.496-.068-.975-.206-1.436a3.508 3.508 0 0 0-.63-1.22 3.16 3.16 0 0 0-1.054-.846c-.42-.215-.912-.32-1.477-.32-.579 0-1.077.11-1.498.33a3.08 3.08 0 0 0-1.043.878 3.731 3.731 0 0 0-.61 1.24 5.18 5.18 0 0 0-.196 1.415zm19.235 7.314V.603h6.735c.717 0 1.378.148 1.983.445a5.13 5.13 0 0 1 1.56 1.157 5.398 5.398 0 0 1 1.023 1.632c.248.612.372 1.23.372 1.85 0 .853-.186 1.648-.558 2.386a4.875 4.875 0 0 1-1.55 1.807l3.1 5.393h-4.546l-2.582-4.504h-1.509v4.504H295.2zm4.028-8.017h2.542c.248 0 .479-.138.692-.413.214-.276.32-.66.32-1.157 0-.51-.124-.898-.372-1.167s-.496-.403-.744-.403h-2.438v3.14zm21.404 4.504v3.513h-10.454V.603h10.269v3.513h-6.24v2.066h5.33v3.264h-5.33v2.314h6.425zM323.545.604h4.028v14.669h-4.028zm13.263 14.669V.603h5.64c1.213 0 2.281.193 3.203.58.923.384 1.694.908 2.314 1.57a6.587 6.587 0 0 1 1.405 2.324c.318.888.475 1.835.475 2.84 0 1.116-.175 2.125-.527 3.027a6.548 6.548 0 0 1-1.498 2.314 6.708 6.708 0 0 1-2.334 1.488c-.91.351-1.922.527-3.037.527h-5.64zm8.946-7.355a4.98 4.98 0 0 0-.227-1.55 3.442 3.442 0 0 0-.65-1.198 2.928 2.928 0 0 0-1.044-.775 3.335 3.335 0 0 0-1.384-.279h-1.612v7.644h1.612c.524 0 .991-.096 1.405-.289a2.947 2.947 0 0 0 1.043-.806c.283-.344.496-.751.64-1.219.145-.468.217-.978.217-1.528zm17.334 3.842v3.513h-10.454V.603h10.268v3.513h-6.239v2.066h5.33v3.264h-5.33v2.314h6.425zm8.595 3.513V.603h6.735c.717 0 1.378.148 1.984.445a5.13 5.13 0 0 1 1.56 1.157 5.398 5.398 0 0 1 1.022 1.632c.248.612.372 1.23.372 1.85 0 .853-.186 1.648-.558 2.386a4.875 4.875 0 0 1-1.55 1.807l3.1 5.393h-4.545l-2.583-4.504h-1.508v4.504h-4.029zm4.029-8.017h2.541c.248 0 .48-.138.692-.413.215-.276.32-.66.32-1.157 0-.51-.124-.898-.371-1.167-.248-.269-.496-.403-.744-.403h-2.438v3.14zm17.375 8.141c-1.115 0-2.128-.215-3.037-.64a7.545 7.545 0 0 1-2.334-1.685 7.662 7.662 0 0 1-1.509-2.386 7.402 7.402 0 0 1-.537-2.768 7.2 7.2 0 0 1 .558-2.79 7.404 7.404 0 0 1 1.56-2.365 7.606 7.606 0 0 1 2.376-1.632c.917-.407 1.919-.61 3.006-.61 1.116 0 2.128.213 3.037.64a7.425 7.425 0 0 1 2.335 1.695 7.577 7.577 0 0 1 1.497 2.396c.352.895.527 1.81.527 2.748a7.13 7.13 0 0 1-.558 2.779 7.526 7.526 0 0 1-1.55 2.355 7.612 7.612 0 0 1-2.365 1.643c-.915.413-1.917.62-3.006.62zm-3.326-7.438c0 .496.07.974.206 1.436.139.46.345.87.62 1.23.277.357.624.646 1.044.867.42.22.919.33 1.498.33.578 0 1.082-.113 1.508-.34a3.06 3.06 0 0 0 1.043-.889c.269-.365.469-.782.6-1.25.13-.469.195-.944.195-1.425 0-.496-.068-.975-.206-1.436a3.508 3.508 0 0 0-.63-1.22 3.16 3.16 0 0 0-1.054-.846c-.42-.215-.912-.32-1.477-.32-.579 0-1.077.11-1.498.33a3.08 3.08 0 0 0-1.043.878 3.731 3.731 0 0 0-.61 1.24 5.18 5.18 0 0 0-.196 1.415zm24.648 7.314V7.546l-2.459 5.433h-2.149l-2.458-5.433v7.727h-4.029V.603h4.4l3.162 6.901 3.181-6.9h4.38v14.669h-4.028zM425.792.604h3.678l5.082 14.669h-4.09l-.889-2.872h-3.904l-.868 2.872h-4.112l5.103-14.67zm3.14 9.111l-1.3-4.545-1.364 4.545h2.665z"/><path d="M7.917 15.397c-1.116 0-2.128-.215-3.037-.64a7.545 7.545 0 0 1-2.335-1.685 7.662 7.662 0 0 1-1.508-2.386A7.402 7.402 0 0 1 .5 7.918a7.2 7.2 0 0 1 .558-2.79 7.404 7.404 0 0 1 1.56-2.365A7.606 7.606 0 0 1 4.992 1.13C5.91.724 6.913.52 8 .52c1.116 0 2.129.213 3.038.64a7.42 7.42 0 0 1 2.334 1.695 7.577 7.577 0 0 1 1.498 2.396c.351.895.527 1.81.527 2.748a7.13 7.13 0 0 1-.558 2.779 7.526 7.526 0 0 1-1.55 2.355 7.612 7.612 0 0 1-2.365 1.643c-.916.413-1.918.62-3.006.62zM4.59 7.959c0 .496.07.974.206 1.436.138.46.345.87.62 1.23.276.357.624.646 1.043.867.421.22.92.33 1.498.33.579 0 1.082-.113 1.508-.34a3.06 3.06 0 0 0 1.044-.889c.268-.365.468-.782.599-1.25.132-.469.196-.944.196-1.425 0-.496-.068-.975-.206-1.436a3.508 3.508 0 0 0-.63-1.22 3.16 3.16 0 0 0-1.054-.846c-.42-.215-.912-.32-1.477-.32-.579 0-1.077.11-1.498.33-.42.22-.767.513-1.044.878a3.731 3.731 0 0 0-.61 1.24 5.18 5.18 0 0 0-.195 1.415zm29.194 6.095a5.453 5.453 0 0 1-3.616 1.322c-.95 0-1.86-.17-2.727-.506a6.543 6.543 0 0 1-2.273-1.477c-.647-.649-1.163-1.44-1.55-2.376-.384-.938-.578-2.004-.578-3.203a7.173 7.173 0 0 1 2.17-5.196 7.51 7.51 0 0 1 2.386-1.55A7.67 7.67 0 0 1 30.56.502a8.16 8.16 0 0 1 1.9.216 6.737 6.737 0 0 1 1.684.64c.517.282.981.62 1.395 1.013.413.393.751.837 1.012 1.333l-2.996 2.293a3.378 3.378 0 0 0-1.301-1.394 3.484 3.484 0 0 0-1.84-.527 2.993 2.993 0 0 0-2.354 1.095c-.29.343-.517.754-.682 1.229a4.716 4.716 0 0 0-.248 1.56c0 .578.083 1.101.248 1.57.165.468.396.87.692 1.209.297.337.65.599 1.064.785.413.186.875.279 1.384.279 1.171 0 2.204-.483 3.1-1.447h-2.542V7.463h6.033v7.81h-3.326v-1.22zM43.928.604h3.677l5.083 14.669h-4.091l-.888-2.872h-3.905l-.868 2.872h-4.111L43.928.603zm3.14 9.111L45.767 5.17l-1.364 4.545h2.665zm17.954-5.599h-4.215v11.157H56.78V4.116h-4.236V.604h12.479v3.512zm8.884 11.281c-1.116 0-2.128-.215-3.037-.64a7.545 7.545 0 0 1-2.335-1.685 7.662 7.662 0 0 1-1.508-2.386 7.402 7.402 0 0 1-.537-2.768 7.2 7.2 0 0 1 .558-2.79 7.404 7.404 0 0 1 1.56-2.365 7.606 7.606 0 0 1 2.375-1.632C71.9.724 72.902.52 73.99.52c1.115 0 2.128.213 3.037.64a7.42 7.42 0 0 1 2.334 1.695 7.577 7.577 0 0 1 1.498 2.396c.351.895.527 1.81.527 2.748a7.13 7.13 0 0 1-.558 2.779 7.526 7.526 0 0 1-1.55 2.355 7.612 7.612 0 0 1-2.365 1.643c-.916.413-1.918.62-3.006.62zM70.58 7.959c0 .496.07.974.206 1.436.138.46.345.87.62 1.23.276.357.624.646 1.043.867.421.22.92.33 1.498.33.579 0 1.082-.113 1.508-.34a3.06 3.06 0 0 0 1.044-.889 3.82 3.82 0 0 0 .599-1.25c.132-.469.196-.944.196-1.425 0-.496-.068-.975-.206-1.436a3.508 3.508 0 0 0-.63-1.22 3.16 3.16 0 0 0-1.054-.846c-.42-.215-.912-.32-1.477-.32-.579 0-1.077.11-1.498.33-.42.22-.767.513-1.044.878a3.731 3.731 0 0 0-.61 1.24 5.18 5.18 0 0 0-.195 1.415zm19.234 7.314V.603h6.736c.716 0 1.377.148 1.983.445a5.13 5.13 0 0 1 1.56 1.157 5.398 5.398 0 0 1 1.023 1.632c.247.612.371 1.23.371 1.85 0 .853-.185 1.648-.557 2.386a4.875 4.875 0 0 1-1.55 1.807l3.1 5.393h-4.546l-2.583-4.504h-1.508v4.504h-4.029zm4.03-8.017h2.54c.248 0 .48-.138.692-.413.215-.276.32-.66.32-1.157 0-.51-.123-.898-.371-1.167s-.496-.403-.744-.403h-2.438v3.14zm17.374 8.141c-1.115 0-2.128-.215-3.037-.64a7.545 7.545 0 0 1-2.334-1.685 7.662 7.662 0 0 1-1.508-2.386 7.402 7.402 0 0 1-.538-2.768 7.2 7.2 0 0 1 .558-2.79 7.404 7.404 0 0 1 1.56-2.365 7.606 7.606 0 0 1 2.376-1.632c.917-.407 1.919-.61 3.006-.61 1.116 0 2.128.213 3.037.64.91.427 1.688.992 2.335 1.695a7.577 7.577 0 0 1 1.498 2.396c.35.895.526 1.81.526 2.748a7.13 7.13 0 0 1-.557 2.779 7.526 7.526 0 0 1-1.55 2.355 7.612 7.612 0 0 1-2.365 1.643c-.916.413-1.918.62-3.007.62zm-3.326-7.438c0 .496.07.974.207 1.436.138.46.345.87.62 1.23.276.357.623.646 1.043.867.42.22.92.33 1.498.33s1.082-.113 1.508-.34a3.06 3.06 0 0 0 1.043-.889c.269-.365.47-.782.6-1.25.131-.469.196-.944.196-1.425 0-.496-.069-.975-.207-1.436a3.508 3.508 0 0 0-.63-1.22 3.16 3.16 0 0 0-1.054-.846c-.42-.215-.911-.32-1.477-.32-.578 0-1.077.11-1.498.33a3.08 3.08 0 0 0-1.043.878 3.731 3.731 0 0 0-.61 1.24 5.18 5.18 0 0 0-.196 1.415zM131.9 11.76v3.513h-10.455V.603h10.268v3.513h-6.239v2.066h5.33v3.264h-5.33v2.314h6.425zm9.317.062c.469 0 .868-.103 1.199-.31.33-.206.599-.479.805-.816.207-.338.36-.727.455-1.167.097-.442.144-.903.144-1.384V.604h4.03v7.54c0 1.02-.131 1.974-.393 2.862a6.2 6.2 0 0 1-1.22 2.304 5.755 5.755 0 0 1-2.076 1.529c-.833.372-1.814.558-2.944.558-1.17 0-2.172-.197-3.006-.59-.833-.392-1.518-.919-2.056-1.58a6.358 6.358 0 0 1-1.177-2.303 10.15 10.15 0 0 1-.372-2.78V.605h4.029v7.54c0 .482.049.947.144 1.395.097.447.248.84.455 1.178.206.337.472.606.795.806.324.199.72.3 1.188.3zM160.06.604h3.677l5.082 14.669h-4.09l-.889-2.872h-3.905l-.867 2.872h-4.112L160.06.603zm3.14 9.111l-1.302-4.545-1.363 4.545h2.665zm12.933 5.558V.603h6.735c.717 0 1.378.148 1.984.445a5.13 5.13 0 0 1 1.56 1.157 5.398 5.398 0 0 1 1.022 1.632c.248.612.372 1.23.372 1.85 0 .853-.186 1.648-.558 2.386a4.875 4.875 0 0 1-1.55 1.807l3.1 5.393h-4.545l-2.583-4.504h-1.508v4.504h-4.029zm4.029-8.017h2.541c.248 0 .48-.138.692-.413.215-.276.32-.66.32-1.157 0-.51-.123-.898-.371-1.167s-.496-.403-.744-.403h-2.438v3.14zm17.375 8.141c-1.115 0-2.128-.215-3.037-.64a7.545 7.545 0 0 1-2.334-1.685 7.662 7.662 0 0 1-1.509-2.386 7.402 7.402 0 0 1-.537-2.768 7.2 7.2 0 0 1 .558-2.79 7.404 7.404 0 0 1 1.56-2.365 7.606 7.606 0 0 1 2.376-1.632c.917-.407 1.919-.61 3.006-.61 1.116 0 2.128.213 3.037.64a7.425 7.425 0 0 1 2.335 1.695 7.577 7.577 0 0 1 1.497 2.396c.352.895.527 1.81.527 2.748a7.13 7.13 0 0 1-.558 2.779 7.526 7.526 0 0 1-1.549 2.355 7.612 7.612 0 0 1-2.366 1.643c-.915.413-1.917.62-3.006.62zm-3.326-7.438c0 .496.07.974.207 1.436.138.46.344.87.62 1.23.276.357.623.646 1.043.867.42.22.92.33 1.498.33s1.082-.113 1.508-.34a3.06 3.06 0 0 0 1.043-.889c.269-.365.469-.782.6-1.25.131-.469.196-.944.196-1.425 0-.496-.069-.975-.207-1.436a3.508 3.508 0 0 0-.63-1.22 3.16 3.16 0 0 0-1.054-.846c-.42-.215-.911-.32-1.477-.32-.579 0-1.077.11-1.498.33a3.08 3.08 0 0 0-1.043.878 3.731 3.731 0 0 0-.61 1.24 5.18 5.18 0 0 0-.196 1.415zm19.958 3.863c.469 0 .868-.103 1.198-.31.33-.206.6-.479.806-.816.206-.338.359-.727.454-1.167.097-.442.145-.903.145-1.384V.604h4.029v7.54c0 1.02-.13 1.974-.393 2.862a6.2 6.2 0 0 1-1.219 2.304 5.755 5.755 0 0 1-2.076 1.529c-.833.372-1.814.558-2.944.558-1.17 0-2.172-.197-3.006-.59-.833-.392-1.519-.919-2.056-1.58a6.358 6.358 0 0 1-1.178-2.303 10.15 10.15 0 0 1-.371-2.78V.605h4.028v7.54c0 .482.05.947.145 1.395.097.447.248.84.454 1.178.207.337.473.606.796.806.324.199.72.3 1.188.3zm9.979 3.451V.603h6.322c.716 0 1.378.148 1.983.445a5.13 5.13 0 0 1 1.56 1.157 5.398 5.398 0 0 1 1.023 1.632c.248.612.372 1.23.372 1.85a5.24 5.24 0 0 1-.352 1.89 5.277 5.277 0 0 1-.98 1.632c-.42.475-.93.853-1.53 1.136a4.58 4.58 0 0 1-1.973.424h-2.396v4.504h-4.03zm4.029-8.017h2.128c.247 0 .479-.113.692-.34.214-.228.32-.638.32-1.23 0-.607-.124-1.02-.372-1.24-.248-.22-.496-.33-.744-.33h-2.024v3.14zM240.78.604h3.677l5.082 14.669h-4.09l-.889-2.872h-3.905l-.867 2.872h-4.112L240.78.603zm3.14 9.111l-1.302-4.545-1.363 4.545h2.665zm12.933 5.558V.603h5.64c1.213 0 2.28.193 3.203.58.923.384 1.694.908 2.314 1.57a6.587 6.587 0 0 1 1.405 2.324c.317.888.475 1.835.475 2.84 0 1.116-.176 2.125-.527 3.027a6.548 6.548 0 0 1-1.498 2.314 6.708 6.708 0 0 1-2.335 1.488c-.909.351-1.921.527-3.037.527h-5.64zm8.946-7.355a4.98 4.98 0 0 0-.227-1.55 3.442 3.442 0 0 0-.651-1.198 2.928 2.928 0 0 0-1.043-.775 3.335 3.335 0 0 0-1.385-.279h-1.611v7.644h1.611c.525 0 .992-.096 1.405-.289a2.947 2.947 0 0 0 1.044-.806c.282-.344.495-.751.64-1.219.145-.468.217-.978.217-1.528zm13.491 7.479c-1.115 0-2.128-.215-3.037-.64a7.545 7.545 0 0 1-2.335-1.685 7.662 7.662 0 0 1-1.508-2.386 7.402 7.402 0 0 1-.537-2.768 7.2 7.2 0 0 1 .558-2.79 7.404 7.404 0 0 1 1.56-2.365 7.606 7.606 0 0 1 2.376-1.632c.917-.407 1.919-.61 3.006-.61 1.115 0 2.128.213 3.037.64a7.41 7.41 0 0 1 2.334 1.695 7.577 7.577 0 0 1 1.498 2.396c.352.895.527 1.81.527 2.748a7.13 7.13 0 0 1-.558 2.779 7.526 7.526 0 0 1-1.55 2.355 7.612 7.612 0 0 1-2.365 1.643c-.915.413-1.917.62-3.006.62zm-3.326-7.438c0 .496.07.974.206 1.436.139.46.345.87.62 1.23.277.357.624.646 1.044.867.42.22.919.33 1.497.33.579 0 1.083-.113 1.509-.34a3.06 3.06 0 0 0 1.043-.889c.269-.365.469-.782.6-1.25.13-.469.195-.944.195-1.425 0-.496-.068-.975-.206-1.436a3.508 3.508 0 0 0-.63-1.22 3.16 3.16 0 0 0-1.054-.846c-.42-.215-.912-.32-1.477-.32-.579 0-1.077.11-1.498.33a3.08 3.08 0 0 0-1.043.878 3.731 3.731 0 0 0-.61 1.24 5.18 5.18 0 0 0-.196 1.415zm19.235 7.314V.603h6.735c.717 0 1.378.148 1.983.445a5.13 5.13 0 0 1 1.56 1.157 5.398 5.398 0 0 1 1.023 1.632c.248.612.372 1.23.372 1.85 0 .853-.186 1.648-.558 2.386a4.875 4.875 0 0 1-1.55 1.807l3.1 5.393h-4.546l-2.582-4.504h-1.509v4.504H295.2zm4.028-8.017h2.542c.248 0 .479-.138.692-.413.214-.276.32-.66.32-1.157 0-.51-.124-.898-.372-1.167s-.496-.403-.744-.403h-2.438v3.14zm21.404 4.504v3.513h-10.454V.603h10.269v3.513h-6.24v2.066h5.33v3.264h-5.33v2.314h6.425zM323.545.604h4.028v14.669h-4.028zm13.263 14.669V.603h5.64c1.213 0 2.281.193 3.203.58.923.384 1.694.908 2.314 1.57a6.587 6.587 0 0 1 1.405 2.324c.318.888.475 1.835.475 2.84 0 1.116-.175 2.125-.527 3.027a6.548 6.548 0 0 1-1.498 2.314 6.708 6.708 0 0 1-2.334 1.488c-.91.351-1.922.527-3.037.527h-5.64zm8.946-7.355a4.98 4.98 0 0 0-.227-1.55 3.442 3.442 0 0 0-.65-1.198 2.928 2.928 0 0 0-1.044-.775 3.335 3.335 0 0 0-1.384-.279h-1.612v7.644h1.612c.524 0 .991-.096 1.405-.289a2.947 2.947 0 0 0 1.043-.806c.283-.344.496-.751.64-1.219.145-.468.217-.978.217-1.528zm17.334 3.842v3.513h-10.454V.603h10.268v3.513h-6.239v2.066h5.33v3.264h-5.33v2.314h6.425zm8.595 3.513V.603h6.735c.717 0 1.378.148 1.984.445a5.13 5.13 0 0 1 1.56 1.157 5.398 5.398 0 0 1 1.022 1.632c.248.612.372 1.23.372 1.85 0 .853-.186 1.648-.558 2.386a4.875 4.875 0 0 1-1.55 1.807l3.1 5.393h-4.545l-2.583-4.504h-1.508v4.504h-4.029zm4.029-8.017h2.541c.248 0 .48-.138.692-.413.215-.276.32-.66.32-1.157 0-.51-.124-.898-.371-1.167-.248-.269-.496-.403-.744-.403h-2.438v3.14zm17.375 8.141c-1.115 0-2.128-.215-3.037-.64a7.545 7.545 0 0 1-2.334-1.685 7.662 7.662 0 0 1-1.509-2.386 7.402 7.402 0 0 1-.537-2.768 7.2 7.2 0 0 1 .558-2.79 7.404 7.404 0 0 1 1.56-2.365 7.606 7.606 0 0 1 2.376-1.632c.917-.407 1.919-.61 3.006-.61 1.116 0 2.128.213 3.037.64a7.425 7.425 0 0 1 2.335 1.695 7.577 7.577 0 0 1 1.497 2.396c.352.895.527 1.81.527 2.748a7.13 7.13 0 0 1-.558 2.779 7.526 7.526 0 0 1-1.55 2.355 7.612 7.612 0 0 1-2.365 1.643c-.915.413-1.917.62-3.006.62zm-3.326-7.438c0 .496.07.974.206 1.436.139.46.345.87.62 1.23.277.357.624.646 1.044.867.42.22.919.33 1.498.33.578 0 1.082-.113 1.508-.34a3.06 3.06 0 0 0 1.043-.889c.269-.365.469-.782.6-1.25.13-.469.195-.944.195-1.425 0-.496-.068-.975-.206-1.436a3.508 3.508 0 0 0-.63-1.22 3.16 3.16 0 0 0-1.054-.846c-.42-.215-.912-.32-1.477-.32-.579 0-1.077.11-1.498.33a3.08 3.08 0 0 0-1.043.878 3.731 3.731 0 0 0-.61 1.24 5.18 5.18 0 0 0-.196 1.415zm24.648 7.314V7.546l-2.459 5.433h-2.149l-2.458-5.433v7.727h-4.029V.603h4.4l3.162 6.901 3.181-6.9h4.38v14.669h-4.028zM425.792.604h3.678l5.082 14.669h-4.09l-.889-2.872h-3.904l-.868 2.872h-4.112l5.103-14.67zm3.14 9.111l-1.3-4.545-1.364 4.545h2.665z" stroke="#fff" stroke-width=".994"/></g></svg>