<svg viewBox="0 0 373 21" xmlns="http://www.w3.org/2000/svg" fill-rule="evenodd" clip-rule="evenodd" stroke-linejoin="round" stroke-miterlimit="1.414"><g fill="none"><path d="M14.342 8.558c0 1.418-.296 2.692-.888 3.822-.592 1.129-1.412 2.015-2.459 2.655-1.046.64-2.238.96-3.574.96-1.335 0-2.527-.32-3.574-.96-1.046-.64-1.866-1.526-2.459-2.655C.797 11.25.5 9.976.5 8.558c0-1.433.297-2.714.888-3.843.593-1.13 1.413-2.012 2.459-2.644 1.047-.634 2.239-.95 3.574-.95 1.336 0 2.528.316 3.574.95 1.047.632 1.867 1.514 2.459 2.644.592 1.129.888 2.41.888 3.843zm-1.322 0c0-1.198-.238-2.27-.713-3.213-.475-.944-1.136-1.677-1.983-2.2-.847-.524-1.814-.785-2.903-.785-1.087 0-2.056.26-2.903.785-.847.523-1.508 1.256-1.983 2.2-.475.943-.713 2.015-.713 3.213s.238 2.269.713 3.213c.475.942 1.136 1.676 1.983 2.2.847.523 1.816.785 2.903.785 1.089 0 2.056-.262 2.903-.785.847-.524 1.508-1.258 1.983-2.2.475-.944.713-2.015.713-3.213zm20.578-3.326c.18 0 .328.058.444.175a.624.624 0 0 1 .175.465v8.946c0 1.074-.223 1.994-.671 2.758a4.443 4.443 0 0 1-1.839 1.746c-.777.4-1.67.6-2.675.6a6.68 6.68 0 0 1-1.519-.187 6.1 6.1 0 0 1-1.363-.475c-.379-.194-.596-.392-.651-.6a.46.46 0 0 1-.145-.33.38.38 0 0 1 .186-.33.336.336 0 0 1 .207-.062c.082 0 .241.048.475.144l.434.186c.855.33 1.653.496 2.396.496 1.227 0 2.188-.348 2.882-1.043.696-.696 1.044-1.636 1.044-2.82V13.62c-.344.744-.889 1.325-1.632 1.746a4.68 4.68 0 0 1-2.335.63c-.95 0-1.808-.238-2.572-.713-.765-.475-1.366-1.134-1.808-1.973-.44-.84-.661-1.785-.661-2.83 0-1.034.22-1.971.661-2.81.442-.841 1.043-1.498 1.808-1.973a4.737 4.737 0 0 1 2.551-.713 4.56 4.56 0 0 1 2.387.65c.723.434 1.257.954 1.6 1.56V5.872c0-.18.06-.33.176-.454a.587.587 0 0 1 .445-.186zm-4.484 9.607c.758 0 1.436-.184 2.035-.548a3.745 3.745 0 0 0 1.405-1.55c.339-.668.506-1.422.506-2.262 0-.84-.167-1.59-.506-2.252a3.749 3.749 0 0 0-1.405-1.539c-.599-.365-1.277-.547-2.035-.547a3.68 3.68 0 0 0-2.014.568c-.6.378-1.067.899-1.405 1.56-.337.66-.506 1.397-.506 2.21 0 .827.169 1.57.506 2.232.338.66.806 1.18 1.405 1.56.6.378 1.27.568 2.014.568zm17.871-9.607c.18 0 .328.062.445.186a.635.635 0 0 1 .175.454v9.297a.602.602 0 0 1-.62.62.607.607 0 0 1-.444-.175.607.607 0 0 1-.175-.445v-1.384c-.344.62-.86 1.143-1.55 1.57a4.197 4.197 0 0 1-2.252.64 4.454 4.454 0 0 1-2.49-.722c-.735-.483-1.314-1.144-1.735-1.984-.42-.84-.63-1.784-.63-2.83 0-1.047.214-1.987.64-2.82.428-.835 1.01-1.485 1.746-1.953a4.47 4.47 0 0 1 2.449-.702 4.44 4.44 0 0 1 2.272.599c.69.399 1.206.922 1.55 1.57v-1.28c0-.18.06-.331.175-.455a.587.587 0 0 1 .444-.186zm-4.297 9.607a3.42 3.42 0 0 0 1.932-.568c.572-.38 1.02-.903 1.343-1.57.324-.67.485-1.416.485-2.242 0-.8-.161-1.53-.485-2.19a3.851 3.851 0 0 0-1.343-1.56 3.41 3.41 0 0 0-1.932-.568c-.715 0-1.36.186-1.932.558a3.81 3.81 0 0 0-1.343 1.539c-.322.653-.485 1.394-.485 2.22 0 .827.159 1.574.475 2.242.318.668.762 1.191 1.333 1.57a3.46 3.46 0 0 0 1.952.569zm11.26-8.409v6.921c0 .523.097.878.29 1.064.193.186.447.28.764.28.082 0 .186-.019.31-.053s.22-.051.289-.051a.41.41 0 0 1 .32.155.53.53 0 0 1 .134.361c0 .193-.11.354-.33.486a1.51 1.51 0 0 1-.785.196c-.372 0-.703-.035-.992-.103-.29-.07-.568-.276-.837-.62-.268-.345-.403-.896-.403-1.653V6.43H51.2a.598.598 0 0 1-.423-.165.548.548 0 0 1-.176-.413c0-.166.06-.304.176-.414a.593.593 0 0 1 .423-.165h1.508V2.98a.603.603 0 0 1 .62-.62.598.598 0 0 1 .62.62v2.293h2.066c.152 0 .287.062.403.186.117.124.176.26.176.413 0 .165-.055.3-.166.403a.58.58 0 0 1-.413.155h-2.066zm15.619 4.07c0 1.033-.227 1.97-.682 2.81a5.038 5.038 0 0 1-1.88 1.973c-.798.475-1.686.713-2.665.713a5.119 5.119 0 0 1-2.665-.713 5.047 5.047 0 0 1-1.88-1.973c-.455-.84-.682-1.777-.682-2.81 0-1.033.227-1.97.682-2.81a5.11 5.11 0 0 1 1.88-1.983c.8-.483 1.688-.723 2.665-.723.979 0 1.867.24 2.665.723a5.1 5.1 0 0 1 1.88 1.983c.455.84.682 1.777.682 2.81zm-1.24 0c0-.826-.171-1.57-.516-2.231a3.914 3.914 0 0 0-1.436-1.56 3.785 3.785 0 0 0-2.035-.568c-.744 0-1.418.188-2.025.568a4.027 4.027 0 0 0-1.435 1.56c-.352.66-.527 1.405-.527 2.231 0 .812.175 1.55.527 2.21a4.02 4.02 0 0 0 1.435 1.56 3.744 3.744 0 0 0 2.025.569 3.845 3.845 0 0 0 3.471-2.108c.345-.66.517-1.404.517-2.23zm16.426-5.516c.276 0 .524.054.743.165.221.11.33.275.33.496a.648.648 0 0 1-.164.465.522.522 0 0 1-.393.175c-.068 0-.203-.034-.403-.103a1.716 1.716 0 0 0-.568-.103c-.509 0-1.015.196-1.519.589a4.596 4.596 0 0 0-1.24 1.518c-.322.62-.485 1.246-.485 1.88v5.103a.602.602 0 0 1-.62.62.607.607 0 0 1-.444-.175.607.607 0 0 1-.175-.445V5.914a.603.603 0 0 1 .62-.62.598.598 0 0 1 .62.62v1.818a4.749 4.749 0 0 1 1.435-1.953c.64-.516 1.395-.782 2.263-.795zM98.1 10.5c0 1.033-.228 1.97-.683 2.81a5.038 5.038 0 0 1-1.88 1.973c-.798.475-1.686.713-2.665.713a5.119 5.119 0 0 1-2.665-.713 5.047 5.047 0 0 1-1.88-1.973c-.455-.84-.682-1.777-.682-2.81 0-1.033.227-1.97.682-2.81a5.11 5.11 0 0 1 1.88-1.983c.8-.483 1.688-.723 2.665-.723.979 0 1.867.24 2.665.723a5.1 5.1 0 0 1 1.88 1.983c.455.84.682 1.777.682 2.81zm-1.24 0c0-.826-.172-1.57-.517-2.231a3.914 3.914 0 0 0-1.436-1.56 3.785 3.785 0 0 0-2.035-.568c-.744 0-1.418.188-2.025.568a4.027 4.027 0 0 0-1.436 1.56c-.35.66-.526 1.405-.526 2.231 0 .812.175 1.55.526 2.21a4.03 4.03 0 0 0 1.436 1.56 3.744 3.744 0 0 0 2.025.569 3.845 3.845 0 0 0 3.471-2.108c.345-.66.517-1.404.517-2.23zm13.739-.599a.562.562 0 0 1-.186.423.616.616 0 0 1-.434.176h-7.81c0 .827.17 1.566.506 2.221.339.653.82 1.17 1.447 1.55.627.378 1.367.568 2.22.568.662 0 1.254-.138 1.777-.413a3.667 3.667 0 0 0 1.26-1.054c.153-.124.298-.186.435-.186a.51.51 0 0 1 .371.165.51.51 0 0 1 .166.372c0 .151-.069.296-.207.434a5.19 5.19 0 0 1-1.663 1.322 4.569 4.569 0 0 1-2.118.517c-1.06 0-1.996-.228-2.81-.682a4.84 4.84 0 0 1-1.9-1.911c-.455-.82-.682-1.767-.682-2.84 0-1.13.225-2.119.671-2.966.448-.847 1.044-1.495 1.787-1.942a4.53 4.53 0 0 1 2.376-.671 4.86 4.86 0 0 1 2.325.578c.723.385 1.312.95 1.766 1.694.455.744.69 1.625.703 2.645zm-4.794-3.719c-.798 0-1.539.275-2.22.827-.682.55-1.119 1.342-1.312 2.375h7.045V9.22a3.25 3.25 0 0 0-.62-1.622 3.342 3.342 0 0 0-1.291-1.053 3.738 3.738 0 0 0-1.602-.362zm16.281-.888a.598.598 0 0 1 .62.62v5.826c0 1.35-.379 2.386-1.137 3.11-.756.722-1.804 1.084-3.14 1.084-1.322 0-2.358-.362-3.11-1.085-.75-.723-1.125-1.76-1.125-3.11V5.915a.603.603 0 0 1 .62-.62.598.598 0 0 1 .62.62v5.826c0 .991.261 1.746.784 2.262.524.517 1.26.775 2.21.775.965 0 1.713-.258 2.243-.775.53-.516.795-1.27.795-2.262V5.914a.603.603 0 0 1 .62-.62zm20.144-.062c.18 0 .328.062.444.186a.635.635 0 0 1 .175.454v9.297a.602.602 0 0 1-.62.62.607.607 0 0 1-.444-.175.607.607 0 0 1-.175-.445v-1.384c-.344.62-.86 1.143-1.55 1.57a4.197 4.197 0 0 1-2.252.64 4.454 4.454 0 0 1-2.49-.722c-.735-.483-1.314-1.144-1.735-1.984-.42-.84-.63-1.784-.63-2.83 0-1.047.214-1.987.64-2.82.428-.835 1.01-1.485 1.746-1.953a4.47 4.47 0 0 1 2.449-.702 4.44 4.44 0 0 1 2.272.599c.69.399 1.206.922 1.55 1.57v-1.28c0-.18.06-.331.175-.455a.587.587 0 0 1 .445-.186zm-4.298 9.607a3.42 3.42 0 0 0 1.932-.568c.572-.38 1.02-.903 1.343-1.57.324-.67.485-1.416.485-2.242 0-.8-.161-1.53-.485-2.19a3.851 3.851 0 0 0-1.343-1.56 3.41 3.41 0 0 0-1.932-.568c-.715 0-1.36.186-1.932.558a3.81 3.81 0 0 0-1.342 1.539c-.323.653-.486 1.394-.486 2.22 0 .827.159 1.574.475 2.242.318.668.762 1.191 1.333 1.57a3.46 3.46 0 0 0 1.952.569zm20.805-9.855c.276 0 .524.054.744.165.22.11.33.275.33.496a.648.648 0 0 1-.165.465.522.522 0 0 1-.392.175c-.069 0-.203-.034-.403-.103a1.716 1.716 0 0 0-.568-.103c-.51 0-1.015.196-1.519.589a4.596 4.596 0 0 0-1.24 1.518c-.322.62-.485 1.246-.485 1.88v5.103a.602.602 0 0 1-.62.62.607.607 0 0 1-.444-.175.607.607 0 0 1-.176-.445V5.914a.603.603 0 0 1 .62-.62.598.598 0 0 1 .62.62v1.818a4.749 4.749 0 0 1 1.436-1.953c.64-.516 1.394-.782 2.262-.795zm13.347 5.516c0 1.033-.228 1.97-.682 2.81a5.038 5.038 0 0 1-1.88 1.973c-.798.475-1.687.713-2.665.713s-1.866-.238-2.666-.713a5.047 5.047 0 0 1-1.88-1.973c-.454-.84-.681-1.777-.681-2.81 0-1.033.227-1.97.681-2.81a5.11 5.11 0 0 1 1.88-1.983c.8-.483 1.688-.723 2.666-.723s1.867.24 2.665.723a5.1 5.1 0 0 1 1.88 1.983c.454.84.682 1.777.682 2.81zm-1.24 0c0-.826-.172-1.57-.516-2.231a3.914 3.914 0 0 0-1.436-1.56 3.785 3.785 0 0 0-2.035-.568c-.744 0-1.418.188-2.025.568a4.027 4.027 0 0 0-1.436 1.56c-.351.66-.527 1.405-.527 2.231 0 .812.176 1.55.527 2.21.351.662.83 1.181 1.436 1.56.607.379 1.28.569 2.025.569a3.845 3.845 0 0 0 3.47-2.108c.345-.66.517-1.404.517-2.23zm12.706-5.206a.598.598 0 0 1 .62.62v5.826c0 1.35-.378 2.386-1.136 3.11-.757.722-1.804 1.084-3.14 1.084-1.323 0-2.359-.362-3.11-1.085-.75-.723-1.126-1.76-1.126-3.11V5.915a.603.603 0 0 1 .62-.62.598.598 0 0 1 .62.62v5.826c0 .991.262 1.746.785 2.262.524.517 1.26.775 2.21.775.965 0 1.713-.258 2.242-.775.53-.516.795-1.27.795-2.262V5.914a.603.603 0 0 1 .62-.62zm9.917-.144c.91 0 1.736.229 2.48.691a4.757 4.757 0 0 1 1.745 1.922c.421.818.63 1.738.63 2.758 0 1.033-.209 1.959-.63 2.779a4.868 4.868 0 0 1-1.735 1.931 4.512 4.512 0 0 1-2.47.703 4.4 4.4 0 0 1-2.2-.568 4.485 4.485 0 0 1-1.6-1.519v5.454a.602.602 0 0 1-.62.62.607.607 0 0 1-.445-.175.607.607 0 0 1-.175-.445V5.831c0-.18.06-.33.175-.455a.587.587 0 0 1 .445-.186c.179 0 .327.062.444.186a.635.635 0 0 1 .175.455v1.405a3.857 3.857 0 0 1 1.55-1.53 4.549 4.549 0 0 1 2.231-.557zm-.103 9.627c.717 0 1.36-.184 1.932-.548a3.74 3.74 0 0 0 1.343-1.518c.324-.648.485-1.378.485-2.19 0-.8-.161-1.519-.485-2.16a3.744 3.744 0 0 0-1.343-1.507 3.506 3.506 0 0 0-1.932-.548c-.73 0-1.384.178-1.963.537a3.594 3.594 0 0 0-1.343 1.498c-.316.64-.475 1.366-.475 2.18 0 .812.159 1.542.475 2.19a3.658 3.658 0 0 0 1.343 1.518 3.609 3.609 0 0 0 1.963.548zm17.127-9.545c.18 0 .328.062.444.186a.635.635 0 0 1 .176.454v9.297a.602.602 0 0 1-.62.62.607.607 0 0 1-.444-.175.607.607 0 0 1-.176-.445v-1.384c-.343.62-.86 1.143-1.55 1.57a4.197 4.197 0 0 1-2.251.64 4.454 4.454 0 0 1-2.49-.722c-.736-.483-1.314-1.144-1.735-1.984-.42-.84-.63-1.784-.63-2.83 0-1.047.214-1.987.64-2.82.428-.835 1.01-1.485 1.746-1.953a4.47 4.47 0 0 1 2.448-.702 4.44 4.44 0 0 1 2.273.599c.69.399 1.206.922 1.55 1.57v-1.28c0-.18.059-.331.175-.455a.587.587 0 0 1 .444-.186zm-4.297 9.607a3.42 3.42 0 0 0 1.932-.568c.572-.38 1.02-.903 1.343-1.57.324-.67.485-1.416.485-2.242 0-.8-.161-1.53-.485-2.19a3.851 3.851 0 0 0-1.343-1.56 3.41 3.41 0 0 0-1.932-.568c-.715 0-1.36.186-1.932.558a3.81 3.81 0 0 0-1.343 1.539c-.323.653-.485 1.394-.485 2.22 0 .827.159 1.574.475 2.242.318.668.762 1.191 1.333 1.57a3.46 3.46 0 0 0 1.952.569zM230.635.5a.598.598 0 0 1 .62.62v14.05a.602.602 0 0 1-.62.62.607.607 0 0 1-.444-.176.607.607 0 0 1-.176-.445v-1.446c-.343.633-.857 1.17-1.539 1.612a4.084 4.084 0 0 1-2.262.66 4.46 4.46 0 0 1-2.47-.712c-.735-.475-1.318-1.134-1.745-1.973-.426-.84-.64-1.785-.64-2.83 0-1.034.214-1.971.64-2.81.427-.841 1.01-1.498 1.746-1.973a4.426 4.426 0 0 1 2.448-.713c.814 0 1.564.203 2.252.61.69.405 1.213.932 1.57 1.58V1.12a.603.603 0 0 1 .62-.62zm-4.297 14.339a3.46 3.46 0 0 0 1.931-.558c.573-.372 1.02-.892 1.343-1.56.324-.669.486-1.415.486-2.242 0-.813-.162-1.55-.486-2.21a3.851 3.851 0 0 0-1.343-1.56 3.41 3.41 0 0 0-1.931-.568c-.716 0-1.36.188-1.932.568a3.87 3.87 0 0 0-1.343 1.56c-.323.66-.485 1.397-.485 2.21 0 .827.162 1.57.485 2.232.324.66.772 1.18 1.343 1.56a3.425 3.425 0 0 0 1.932.568zm18.945-4.339c0 1.033-.227 1.97-.682 2.81a5.038 5.038 0 0 1-1.88 1.973c-.798.475-1.686.713-2.665.713a5.119 5.119 0 0 1-2.665-.713 5.047 5.047 0 0 1-1.88-1.973c-.455-.84-.682-1.777-.682-2.81 0-1.033.227-1.97.682-2.81a5.11 5.11 0 0 1 1.88-1.983c.8-.483 1.688-.723 2.665-.723.979 0 1.867.24 2.665.723a5.1 5.1 0 0 1 1.88 1.983c.455.84.682 1.777.682 2.81zm-1.24 0c0-.826-.171-1.57-.516-2.231a3.914 3.914 0 0 0-1.436-1.56 3.785 3.785 0 0 0-2.035-.568c-.744 0-1.418.188-2.025.568a4.027 4.027 0 0 0-1.435 1.56c-.352.66-.527 1.405-.527 2.231 0 .812.175 1.55.527 2.21a4.02 4.02 0 0 0 1.435 1.56 3.744 3.744 0 0 0 2.025.569 3.845 3.845 0 0 0 3.471-2.108c.345-.66.517-1.404.517-2.23zm16.426-5.516c.276 0 .524.054.743.165.221.11.33.275.33.496a.648.648 0 0 1-.164.465.522.522 0 0 1-.393.175c-.068 0-.203-.034-.403-.103a1.716 1.716 0 0 0-.568-.103c-.509 0-1.015.196-1.518.589a4.596 4.596 0 0 0-1.24 1.518c-.323.62-.486 1.246-.486 1.88v5.103a.602.602 0 0 1-.62.62.607.607 0 0 1-.444-.175.607.607 0 0 1-.175-.445V5.914a.603.603 0 0 1 .62-.62.598.598 0 0 1 .62.62v1.818a4.749 4.749 0 0 1 1.435-1.953c.64-.516 1.395-.782 2.263-.795zm12.52 4.917a.562.562 0 0 1-.186.423.616.616 0 0 1-.434.176h-7.81c0 .827.17 1.566.506 2.221.339.653.82 1.17 1.447 1.55.627.378 1.367.568 2.22.568.662 0 1.255-.138 1.777-.413a3.667 3.667 0 0 0 1.26-1.054c.153-.124.298-.186.435-.186a.51.51 0 0 1 .372.165.51.51 0 0 1 .165.372c0 .151-.069.296-.207.434a5.19 5.19 0 0 1-1.663 1.322 4.569 4.569 0 0 1-2.118.517c-1.06 0-1.996-.228-2.81-.682a4.84 4.84 0 0 1-1.9-1.911c-.455-.82-.682-1.767-.682-2.84 0-1.13.225-2.119.671-2.966.449-.847 1.044-1.495 1.788-1.942a4.53 4.53 0 0 1 2.376-.671 4.86 4.86 0 0 1 2.324.578c.723.385 1.312.95 1.766 1.694.455.744.69 1.625.703 2.645zm-4.793-3.719c-.798 0-1.54.275-2.221.827-.682.55-1.119 1.342-1.312 2.375h7.045V9.22a3.25 3.25 0 0 0-.62-1.622 3.342 3.342 0 0 0-1.291-1.053 3.738 3.738 0 0 0-1.601-.362zm9.586 8.988a.602.602 0 0 1-.62.62.607.607 0 0 1-.444-.176.607.607 0 0 1-.176-.445V5.666a.603.603 0 0 1 .62-.62.598.598 0 0 1 .62.62v9.503zm-.62-11.508c-.275 0-.488-.066-.64-.197-.151-.131-.228-.32-.228-.568V2.69c0-.247.08-.437.238-.568.159-.131.376-.196.65-.196.552 0 .827.254.827.764v.207c0 .248-.072.437-.217.568-.144.13-.354.197-.63.197zM297.285.5a.598.598 0 0 1 .62.62v14.05a.602.602 0 0 1-.62.62.607.607 0 0 1-.444-.176.607.607 0 0 1-.176-.445v-1.446c-.343.633-.857 1.17-1.539 1.612a4.084 4.084 0 0 1-2.262.66 4.46 4.46 0 0 1-2.469-.712c-.736-.475-1.318-1.134-1.746-1.973-.426-.84-.64-1.785-.64-2.83 0-1.034.214-1.971.64-2.81.428-.841 1.01-1.498 1.746-1.973a4.426 4.426 0 0 1 2.448-.713c.814 0 1.564.203 2.252.61.69.405 1.213.932 1.57 1.58V1.12a.603.603 0 0 1 .62-.62zm-4.297 14.339c.717 0 1.36-.186 1.932-.558.572-.372 1.02-.892 1.343-1.56.324-.669.485-1.415.485-2.242 0-.813-.161-1.55-.485-2.21a3.851 3.851 0 0 0-1.343-1.56 3.41 3.41 0 0 0-1.932-.568c-.715 0-1.36.188-1.932.568a3.87 3.87 0 0 0-1.343 1.56c-.323.66-.485 1.397-.485 2.21 0 .827.162 1.57.485 2.232.324.66.772 1.18 1.343 1.56a3.425 3.425 0 0 0 1.932.568zm18.119-4.938a.562.562 0 0 1-.186.423.616.616 0 0 1-.434.176h-7.81c0 .827.17 1.566.507 2.221.338.653.82 1.17 1.446 1.55.628.378 1.367.568 2.221.568.661 0 1.254-.138 1.777-.413a3.667 3.667 0 0 0 1.26-1.054c.152-.124.297-.186.434-.186a.51.51 0 0 1 .372.165.51.51 0 0 1 .165.372c0 .151-.068.296-.207.434a5.19 5.19 0 0 1-1.663 1.322 4.569 4.569 0 0 1-2.117.517c-1.06 0-1.997-.228-2.81-.682a4.84 4.84 0 0 1-1.9-1.911c-.455-.82-.683-1.767-.683-2.84 0-1.13.225-2.119.672-2.966.448-.847 1.043-1.495 1.787-1.942a4.53 4.53 0 0 1 2.376-.671 4.86 4.86 0 0 1 2.324.578c.723.385 1.312.95 1.767 1.694.454.744.69 1.625.702 2.645zm-4.793-3.719c-.798 0-1.54.275-2.221.827-.682.55-1.118 1.342-1.312 2.375h7.045V9.22a3.25 3.25 0 0 0-.62-1.622 3.342 3.342 0 0 0-1.291-1.053 3.738 3.738 0 0 0-1.601-.362zm19.999-1.198c.276 0 .524.054.744.165.22.11.33.275.33.496a.648.648 0 0 1-.165.465.522.522 0 0 1-.392.175c-.069 0-.203-.034-.403-.103a1.716 1.716 0 0 0-.569-.103c-.508 0-1.014.196-1.518.589a4.596 4.596 0 0 0-1.24 1.518c-.322.62-.485 1.246-.485 1.88v5.103a.602.602 0 0 1-.62.62.607.607 0 0 1-.444-.175.607.607 0 0 1-.176-.445V5.914a.603.603 0 0 1 .62-.62.598.598 0 0 1 .62.62v1.818a4.749 4.749 0 0 1 1.436-1.953c.64-.516 1.394-.782 2.262-.795zM339.66 10.5c0 1.033-.228 1.97-.682 2.81a5.038 5.038 0 0 1-1.88 1.973c-.798.475-1.687.713-2.665.713s-1.866-.238-2.666-.713a5.047 5.047 0 0 1-1.88-1.973c-.454-.84-.682-1.777-.682-2.81 0-1.033.228-1.97.682-2.81a5.11 5.11 0 0 1 1.88-1.983c.8-.483 1.688-.723 2.666-.723s1.867.24 2.665.723a5.1 5.1 0 0 1 1.88 1.983c.454.84.682 1.777.682 2.81zm-1.24 0c0-.826-.172-1.57-.517-2.231a3.914 3.914 0 0 0-1.435-1.56 3.785 3.785 0 0 0-2.035-.568c-.744 0-1.418.188-2.025.568a4.027 4.027 0 0 0-1.436 1.56c-.351.66-.527 1.405-.527 2.231 0 .812.176 1.55.527 2.21.351.662.83 1.181 1.436 1.56.607.379 1.28.569 2.025.569a3.845 3.845 0 0 0 3.47-2.108c.345-.66.517-1.404.517-2.23zm16.797-5.35c1.24 0 2.152.381 2.737 1.146.587.764.878 1.773.878 3.026v5.847a.602.602 0 0 1-.62.62.607.607 0 0 1-.444-.175.607.607 0 0 1-.175-.445V9.384c0-.909-.217-1.65-.651-2.22-.434-.573-1.105-.858-2.014-.858a3.43 3.43 0 0 0-1.643.413 3.4 3.4 0 0 0-1.25 1.126 2.724 2.724 0 0 0-.475 1.54v5.784a.602.602 0 0 1-.62.62.607.607 0 0 1-.444-.175.607.607 0 0 1-.176-.445V9.322c0-.896-.206-1.621-.62-2.18-.413-.557-1.06-.836-1.942-.836-.564 0-1.097.137-1.6.413-.503.275-.91.643-1.22 1.106-.31.46-.465.96-.465 1.497v5.847a.602.602 0 0 1-.62.62.607.607 0 0 1-.444-.175.607.607 0 0 1-.175-.445V5.914a.603.603 0 0 1 .62-.62.598.598 0 0 1 .62.62v1.198a4.49 4.49 0 0 1 1.508-1.405 3.9 3.9 0 0 1 2.004-.558c.799 0 1.487.192 2.066.579.578.384.991.95 1.24 1.694.289-.607.82-1.137 1.59-1.591.772-.455 1.55-.682 2.335-.682zm16.466.082c.18 0 .328.062.444.186a.635.635 0 0 1 .176.454v9.297a.602.602 0 0 1-.62.62.607.607 0 0 1-.444-.175.607.607 0 0 1-.176-.445v-1.384c-.343.62-.86 1.143-1.55 1.57a4.197 4.197 0 0 1-2.251.64 4.454 4.454 0 0 1-2.49-.722c-.736-.483-1.314-1.144-1.735-1.984-.42-.84-.63-1.784-.63-2.83 0-1.047.214-1.987.64-2.82.427-.835 1.01-1.485 1.746-1.953a4.47 4.47 0 0 1 2.448-.702c.827 0 1.584.199 2.273.599.69.399 1.206.922 1.55 1.57v-1.28c0-.18.059-.331.175-.455a.587.587 0 0 1 .444-.186zm-4.297 9.607a3.42 3.42 0 0 0 1.931-.568c.573-.38 1.02-.903 1.343-1.57.325-.67.486-1.416.486-2.242 0-.8-.161-1.53-.486-2.19a3.851 3.851 0 0 0-1.343-1.56 3.41 3.41 0 0 0-1.931-.568c-.716 0-1.36.186-1.932.558a3.81 3.81 0 0 0-1.343 1.539c-.323.653-.485 1.394-.485 2.22 0 .827.158 1.574.475 2.242.317.668.762 1.191 1.332 1.57a3.46 3.46 0 0 0 1.953.569z"/><path d="M14.342 8.558c0 1.418-.296 2.692-.888 3.822-.592 1.129-1.412 2.015-2.459 2.655-1.046.64-2.238.96-3.574.96-1.335 0-2.527-.32-3.574-.96-1.046-.64-1.866-1.526-2.459-2.655C.797 11.25.5 9.976.5 8.558c0-1.433.297-2.714.888-3.843.593-1.13 1.413-2.012 2.459-2.644 1.047-.634 2.239-.95 3.574-.95 1.336 0 2.528.316 3.574.95 1.047.632 1.867 1.514 2.459 2.644.592 1.129.888 2.41.888 3.843zm-1.322 0c0-1.198-.238-2.27-.713-3.213-.475-.944-1.136-1.677-1.983-2.2-.847-.524-1.814-.785-2.903-.785-1.087 0-2.056.26-2.903.785-.847.523-1.508 1.256-1.983 2.2-.475.943-.713 2.015-.713 3.213s.238 2.269.713 3.213c.475.942 1.136 1.676 1.983 2.2.847.523 1.816.785 2.903.785 1.089 0 2.056-.262 2.903-.785.847-.524 1.508-1.258 1.983-2.2.475-.944.713-2.015.713-3.213zm20.578-3.326c.18 0 .328.058.444.175a.624.624 0 0 1 .175.465v8.946c0 1.074-.223 1.994-.671 2.758a4.443 4.443 0 0 1-1.839 1.746c-.777.4-1.67.6-2.675.6a6.68 6.68 0 0 1-1.519-.187 6.1 6.1 0 0 1-1.363-.475c-.379-.194-.596-.392-.651-.6a.46.46 0 0 1-.145-.33.38.38 0 0 1 .186-.33.336.336 0 0 1 .207-.062c.082 0 .241.048.475.144l.434.186c.855.33 1.653.496 2.396.496 1.227 0 2.188-.348 2.882-1.043.696-.696 1.044-1.636 1.044-2.82V13.62c-.344.744-.889 1.325-1.632 1.746a4.68 4.68 0 0 1-2.335.63c-.95 0-1.808-.238-2.572-.713-.765-.475-1.366-1.134-1.808-1.973-.44-.84-.661-1.785-.661-2.83 0-1.034.22-1.971.661-2.81.442-.841 1.043-1.498 1.808-1.973a4.737 4.737 0 0 1 2.551-.713 4.56 4.56 0 0 1 2.387.65c.723.434 1.257.954 1.6 1.56V5.872c0-.18.06-.33.176-.454a.587.587 0 0 1 .445-.186zm-4.484 9.607c.758 0 1.436-.184 2.035-.548a3.745 3.745 0 0 0 1.405-1.55c.339-.668.506-1.422.506-2.262 0-.84-.167-1.59-.506-2.252a3.749 3.749 0 0 0-1.405-1.539c-.599-.365-1.277-.547-2.035-.547a3.68 3.68 0 0 0-2.014.568c-.6.378-1.067.899-1.405 1.56-.337.66-.506 1.397-.506 2.21 0 .827.169 1.57.506 2.232.338.66.806 1.18 1.405 1.56.6.378 1.27.568 2.014.568zm17.871-9.607c.18 0 .328.062.445.186a.635.635 0 0 1 .175.454v9.297a.602.602 0 0 1-.62.62.607.607 0 0 1-.444-.175.607.607 0 0 1-.175-.445v-1.384c-.344.62-.86 1.143-1.55 1.57a4.197 4.197 0 0 1-2.252.64 4.454 4.454 0 0 1-2.49-.722c-.735-.483-1.314-1.144-1.735-1.984-.42-.84-.63-1.784-.63-2.83 0-1.047.214-1.987.64-2.82.428-.835 1.01-1.485 1.746-1.953a4.47 4.47 0 0 1 2.449-.702 4.44 4.44 0 0 1 2.272.599c.69.399 1.206.922 1.55 1.57v-1.28c0-.18.06-.331.175-.455a.587.587 0 0 1 .444-.186zm-4.297 9.607a3.42 3.42 0 0 0 1.932-.568c.572-.38 1.02-.903 1.343-1.57.324-.67.485-1.416.485-2.242 0-.8-.161-1.53-.485-2.19a3.851 3.851 0 0 0-1.343-1.56 3.41 3.41 0 0 0-1.932-.568c-.715 0-1.36.186-1.932.558a3.81 3.81 0 0 0-1.343 1.539c-.322.653-.485 1.394-.485 2.22 0 .827.159 1.574.475 2.242.318.668.762 1.191 1.333 1.57a3.46 3.46 0 0 0 1.952.569zm11.26-8.409v6.921c0 .523.097.878.29 1.064.193.186.447.28.764.28.082 0 .186-.019.31-.053s.22-.051.289-.051a.41.41 0 0 1 .32.155.53.53 0 0 1 .134.361c0 .193-.11.354-.33.486a1.51 1.51 0 0 1-.785.196c-.372 0-.703-.035-.992-.103-.29-.07-.568-.276-.837-.62-.268-.345-.403-.896-.403-1.653V6.43H51.2a.598.598 0 0 1-.423-.165.548.548 0 0 1-.176-.413c0-.166.06-.304.176-.414a.593.593 0 0 1 .423-.165h1.508V2.98a.603.603 0 0 1 .62-.62.598.598 0 0 1 .62.62v2.293h2.066c.152 0 .287.062.403.186.117.124.176.26.176.413 0 .165-.055.3-.166.403a.58.58 0 0 1-.413.155h-2.066zm15.619 4.07c0 1.033-.227 1.97-.682 2.81a5.038 5.038 0 0 1-1.88 1.973c-.798.475-1.686.713-2.665.713a5.119 5.119 0 0 1-2.665-.713 5.047 5.047 0 0 1-1.88-1.973c-.455-.84-.682-1.777-.682-2.81 0-1.033.227-1.97.682-2.81a5.11 5.11 0 0 1 1.88-1.983c.8-.483 1.688-.723 2.665-.723.979 0 1.867.24 2.665.723a5.1 5.1 0 0 1 1.88 1.983c.455.84.682 1.777.682 2.81zm-1.24 0c0-.826-.171-1.57-.516-2.231a3.914 3.914 0 0 0-1.436-1.56 3.785 3.785 0 0 0-2.035-.568c-.744 0-1.418.188-2.025.568a4.027 4.027 0 0 0-1.435 1.56c-.352.66-.527 1.405-.527 2.231 0 .812.175 1.55.527 2.21a4.02 4.02 0 0 0 1.435 1.56 3.744 3.744 0 0 0 2.025.569 3.845 3.845 0 0 0 3.471-2.108c.345-.66.517-1.404.517-2.23zm16.426-5.516c.276 0 .524.054.743.165.221.11.33.275.33.496a.648.648 0 0 1-.164.465.522.522 0 0 1-.393.175c-.068 0-.203-.034-.403-.103a1.716 1.716 0 0 0-.568-.103c-.509 0-1.015.196-1.519.589a4.596 4.596 0 0 0-1.24 1.518c-.322.62-.485 1.246-.485 1.88v5.103a.602.602 0 0 1-.62.62.607.607 0 0 1-.444-.175.607.607 0 0 1-.175-.445V5.914a.603.603 0 0 1 .62-.62.598.598 0 0 1 .62.62v1.818a4.749 4.749 0 0 1 1.435-1.953c.64-.516 1.395-.782 2.263-.795zM98.1 10.5c0 1.033-.228 1.97-.683 2.81a5.038 5.038 0 0 1-1.88 1.973c-.798.475-1.686.713-2.665.713a5.119 5.119 0 0 1-2.665-.713 5.047 5.047 0 0 1-1.88-1.973c-.455-.84-.682-1.777-.682-2.81 0-1.033.227-1.97.682-2.81a5.11 5.11 0 0 1 1.88-1.983c.8-.483 1.688-.723 2.665-.723.979 0 1.867.24 2.665.723a5.1 5.1 0 0 1 1.88 1.983c.455.84.682 1.777.682 2.81zm-1.24 0c0-.826-.172-1.57-.517-2.231a3.914 3.914 0 0 0-1.436-1.56 3.785 3.785 0 0 0-2.035-.568c-.744 0-1.418.188-2.025.568a4.027 4.027 0 0 0-1.436 1.56c-.35.66-.526 1.405-.526 2.231 0 .812.175 1.55.526 2.21a4.03 4.03 0 0 0 1.436 1.56 3.744 3.744 0 0 0 2.025.569 3.845 3.845 0 0 0 3.471-2.108c.345-.66.517-1.404.517-2.23zm13.739-.599a.562.562 0 0 1-.186.423.616.616 0 0 1-.434.176h-7.81c0 .827.17 1.566.506 2.221.339.653.82 1.17 1.447 1.55.627.378 1.367.568 2.22.568.662 0 1.254-.138 1.777-.413a3.667 3.667 0 0 0 1.26-1.054c.153-.124.298-.186.435-.186a.51.51 0 0 1 .371.165.51.51 0 0 1 .166.372c0 .151-.069.296-.207.434a5.19 5.19 0 0 1-1.663 1.322 4.569 4.569 0 0 1-2.118.517c-1.06 0-1.996-.228-2.81-.682a4.84 4.84 0 0 1-1.9-1.911c-.455-.82-.682-1.767-.682-2.84 0-1.13.225-2.119.671-2.966.448-.847 1.044-1.495 1.787-1.942a4.53 4.53 0 0 1 2.376-.671 4.86 4.86 0 0 1 2.325.578c.723.385 1.312.95 1.766 1.694.455.744.69 1.625.703 2.645zm-4.794-3.719c-.798 0-1.539.275-2.22.827-.682.55-1.119 1.342-1.312 2.375h7.045V9.22a3.25 3.25 0 0 0-.62-1.622 3.342 3.342 0 0 0-1.291-1.053 3.738 3.738 0 0 0-1.602-.362zm16.281-.888a.598.598 0 0 1 .62.62v5.826c0 1.35-.379 2.386-1.137 3.11-.756.722-1.804 1.084-3.14 1.084-1.322 0-2.358-.362-3.11-1.085-.75-.723-1.125-1.76-1.125-3.11V5.915a.603.603 0 0 1 .62-.62.598.598 0 0 1 .62.62v5.826c0 .991.261 1.746.784 2.262.524.517 1.26.775 2.21.775.965 0 1.713-.258 2.243-.775.53-.516.795-1.27.795-2.262V5.914a.603.603 0 0 1 .62-.62zm20.144-.062c.18 0 .328.062.444.186a.635.635 0 0 1 .175.454v9.297a.602.602 0 0 1-.62.62.607.607 0 0 1-.444-.175.607.607 0 0 1-.175-.445v-1.384c-.344.62-.86 1.143-1.55 1.57a4.197 4.197 0 0 1-2.252.64 4.454 4.454 0 0 1-2.49-.722c-.735-.483-1.314-1.144-1.735-1.984-.42-.84-.63-1.784-.63-2.83 0-1.047.214-1.987.64-2.82.428-.835 1.01-1.485 1.746-1.953a4.47 4.47 0 0 1 2.449-.702 4.44 4.44 0 0 1 2.272.599c.69.399 1.206.922 1.55 1.57v-1.28c0-.18.06-.331.175-.455a.587.587 0 0 1 .445-.186zm-4.298 9.607a3.42 3.42 0 0 0 1.932-.568c.572-.38 1.02-.903 1.343-1.57.324-.67.485-1.416.485-2.242 0-.8-.161-1.53-.485-2.19a3.851 3.851 0 0 0-1.343-1.56 3.41 3.41 0 0 0-1.932-.568c-.715 0-1.36.186-1.932.558a3.81 3.81 0 0 0-1.342 1.539c-.323.653-.486 1.394-.486 2.22 0 .827.159 1.574.475 2.242.318.668.762 1.191 1.333 1.57a3.46 3.46 0 0 0 1.952.569zm20.805-9.855c.276 0 .524.054.744.165.22.11.33.275.33.496a.648.648 0 0 1-.165.465.522.522 0 0 1-.392.175c-.069 0-.203-.034-.403-.103a1.716 1.716 0 0 0-.568-.103c-.51 0-1.015.196-1.519.589a4.596 4.596 0 0 0-1.24 1.518c-.322.62-.485 1.246-.485 1.88v5.103a.602.602 0 0 1-.62.62.607.607 0 0 1-.444-.175.607.607 0 0 1-.176-.445V5.914a.603.603 0 0 1 .62-.62.598.598 0 0 1 .62.62v1.818a4.749 4.749 0 0 1 1.436-1.953c.64-.516 1.394-.782 2.262-.795zm13.347 5.516c0 1.033-.228 1.97-.682 2.81a5.038 5.038 0 0 1-1.88 1.973c-.798.475-1.687.713-2.665.713s-1.866-.238-2.666-.713a5.047 5.047 0 0 1-1.88-1.973c-.454-.84-.681-1.777-.681-2.81 0-1.033.227-1.97.681-2.81a5.11 5.11 0 0 1 1.88-1.983c.8-.483 1.688-.723 2.666-.723s1.867.24 2.665.723a5.1 5.1 0 0 1 1.88 1.983c.454.84.682 1.777.682 2.81zm-1.24 0c0-.826-.172-1.57-.516-2.231a3.914 3.914 0 0 0-1.436-1.56 3.785 3.785 0 0 0-2.035-.568c-.744 0-1.418.188-2.025.568a4.027 4.027 0 0 0-1.436 1.56c-.351.66-.527 1.405-.527 2.231 0 .812.176 1.55.527 2.21.351.662.83 1.181 1.436 1.56.607.379 1.28.569 2.025.569a3.845 3.845 0 0 0 3.47-2.108c.345-.66.517-1.404.517-2.23zm12.706-5.206a.598.598 0 0 1 .62.62v5.826c0 1.35-.378 2.386-1.136 3.11-.757.722-1.804 1.084-3.14 1.084-1.323 0-2.359-.362-3.11-1.085-.75-.723-1.126-1.76-1.126-3.11V5.915a.603.603 0 0 1 .62-.62.598.598 0 0 1 .62.62v5.826c0 .991.262 1.746.785 2.262.524.517 1.26.775 2.21.775.965 0 1.713-.258 2.242-.775.53-.516.795-1.27.795-2.262V5.914a.603.603 0 0 1 .62-.62zm9.917-.144c.91 0 1.736.229 2.48.691a4.757 4.757 0 0 1 1.745 1.922c.421.818.63 1.738.63 2.758 0 1.033-.209 1.959-.63 2.779a4.868 4.868 0 0 1-1.735 1.931 4.512 4.512 0 0 1-2.47.703 4.4 4.4 0 0 1-2.2-.568 4.485 4.485 0 0 1-1.6-1.519v5.454a.602.602 0 0 1-.62.62.607.607 0 0 1-.445-.175.607.607 0 0 1-.175-.445V5.831c0-.18.06-.33.175-.455a.587.587 0 0 1 .445-.186c.179 0 .327.062.444.186a.635.635 0 0 1 .175.455v1.405a3.857 3.857 0 0 1 1.55-1.53 4.549 4.549 0 0 1 2.231-.557zm-.103 9.627c.717 0 1.36-.184 1.932-.548a3.74 3.74 0 0 0 1.343-1.518c.324-.648.485-1.378.485-2.19 0-.8-.161-1.519-.485-2.16a3.744 3.744 0 0 0-1.343-1.507 3.506 3.506 0 0 0-1.932-.548c-.73 0-1.384.178-1.963.537a3.594 3.594 0 0 0-1.343 1.498c-.316.64-.475 1.366-.475 2.18 0 .812.159 1.542.475 2.19a3.658 3.658 0 0 0 1.343 1.518 3.609 3.609 0 0 0 1.963.548zm17.127-9.545c.18 0 .328.062.444.186a.635.635 0 0 1 .176.454v9.297a.602.602 0 0 1-.62.62.607.607 0 0 1-.444-.175.607.607 0 0 1-.176-.445v-1.384c-.343.62-.86 1.143-1.55 1.57a4.197 4.197 0 0 1-2.251.64 4.454 4.454 0 0 1-2.49-.722c-.736-.483-1.314-1.144-1.735-1.984-.42-.84-.63-1.784-.63-2.83 0-1.047.214-1.987.64-2.82.428-.835 1.01-1.485 1.746-1.953a4.47 4.47 0 0 1 2.448-.702 4.44 4.44 0 0 1 2.273.599c.69.399 1.206.922 1.55 1.57v-1.28c0-.18.059-.331.175-.455a.587.587 0 0 1 .444-.186zm-4.297 9.607a3.42 3.42 0 0 0 1.932-.568c.572-.38 1.02-.903 1.343-1.57.324-.67.485-1.416.485-2.242 0-.8-.161-1.53-.485-2.19a3.851 3.851 0 0 0-1.343-1.56 3.41 3.41 0 0 0-1.932-.568c-.715 0-1.36.186-1.932.558a3.81 3.81 0 0 0-1.343 1.539c-.323.653-.485 1.394-.485 2.22 0 .827.159 1.574.475 2.242.318.668.762 1.191 1.333 1.57a3.46 3.46 0 0 0 1.952.569zM230.635.5a.598.598 0 0 1 .62.62v14.05a.602.602 0 0 1-.62.62.607.607 0 0 1-.444-.176.607.607 0 0 1-.176-.445v-1.446c-.343.633-.857 1.17-1.539 1.612a4.084 4.084 0 0 1-2.262.66 4.46 4.46 0 0 1-2.47-.712c-.735-.475-1.318-1.134-1.745-1.973-.426-.84-.64-1.785-.64-2.83 0-1.034.214-1.971.64-2.81.427-.841 1.01-1.498 1.746-1.973a4.426 4.426 0 0 1 2.448-.713c.814 0 1.564.203 2.252.61.69.405 1.213.932 1.57 1.58V1.12a.603.603 0 0 1 .62-.62zm-4.297 14.339a3.46 3.46 0 0 0 1.931-.558c.573-.372 1.02-.892 1.343-1.56.324-.669.486-1.415.486-2.242 0-.813-.162-1.55-.486-2.21a3.851 3.851 0 0 0-1.343-1.56 3.41 3.41 0 0 0-1.931-.568c-.716 0-1.36.188-1.932.568a3.87 3.87 0 0 0-1.343 1.56c-.323.66-.485 1.397-.485 2.21 0 .827.162 1.57.485 2.232.324.66.772 1.18 1.343 1.56a3.425 3.425 0 0 0 1.932.568zm18.945-4.339c0 1.033-.227 1.97-.682 2.81a5.038 5.038 0 0 1-1.88 1.973c-.798.475-1.686.713-2.665.713a5.119 5.119 0 0 1-2.665-.713 5.047 5.047 0 0 1-1.88-1.973c-.455-.84-.682-1.777-.682-2.81 0-1.033.227-1.97.682-2.81a5.11 5.11 0 0 1 1.88-1.983c.8-.483 1.688-.723 2.665-.723.979 0 1.867.24 2.665.723a5.1 5.1 0 0 1 1.88 1.983c.455.84.682 1.777.682 2.81zm-1.24 0c0-.826-.171-1.57-.516-2.231a3.914 3.914 0 0 0-1.436-1.56 3.785 3.785 0 0 0-2.035-.568c-.744 0-1.418.188-2.025.568a4.027 4.027 0 0 0-1.435 1.56c-.352.66-.527 1.405-.527 2.231 0 .812.175 1.55.527 2.21a4.02 4.02 0 0 0 1.435 1.56 3.744 3.744 0 0 0 2.025.569 3.845 3.845 0 0 0 3.471-2.108c.345-.66.517-1.404.517-2.23zm16.426-5.516c.276 0 .524.054.743.165.221.11.33.275.33.496a.648.648 0 0 1-.164.465.522.522 0 0 1-.393.175c-.068 0-.203-.034-.403-.103a1.716 1.716 0 0 0-.568-.103c-.509 0-1.015.196-1.518.589a4.596 4.596 0 0 0-1.24 1.518c-.323.62-.486 1.246-.486 1.88v5.103a.602.602 0 0 1-.62.62.607.607 0 0 1-.444-.175.607.607 0 0 1-.175-.445V5.914a.603.603 0 0 1 .62-.62.598.598 0 0 1 .62.62v1.818a4.749 4.749 0 0 1 1.435-1.953c.64-.516 1.395-.782 2.263-.795zm12.52 4.917a.562.562 0 0 1-.186.423.616.616 0 0 1-.434.176h-7.81c0 .827.17 1.566.506 2.221.339.653.82 1.17 1.447 1.55.627.378 1.367.568 2.22.568.662 0 1.255-.138 1.777-.413a3.667 3.667 0 0 0 1.26-1.054c.153-.124.298-.186.435-.186a.51.51 0 0 1 .372.165.51.51 0 0 1 .165.372c0 .151-.069.296-.207.434a5.19 5.19 0 0 1-1.663 1.322 4.569 4.569 0 0 1-2.118.517c-1.06 0-1.996-.228-2.81-.682a4.84 4.84 0 0 1-1.9-1.911c-.455-.82-.682-1.767-.682-2.84 0-1.13.225-2.119.671-2.966.449-.847 1.044-1.495 1.788-1.942a4.53 4.53 0 0 1 2.376-.671 4.86 4.86 0 0 1 2.324.578c.723.385 1.312.95 1.766 1.694.455.744.69 1.625.703 2.645zm-4.793-3.719c-.798 0-1.54.275-2.221.827-.682.55-1.119 1.342-1.312 2.375h7.045V9.22a3.25 3.25 0 0 0-.62-1.622 3.342 3.342 0 0 0-1.291-1.053 3.738 3.738 0 0 0-1.601-.362zm9.586 8.988a.602.602 0 0 1-.62.62.607.607 0 0 1-.444-.176.607.607 0 0 1-.176-.445V5.666a.603.603 0 0 1 .62-.62.598.598 0 0 1 .62.62v9.503zm-.62-11.508c-.275 0-.488-.066-.64-.197-.151-.131-.228-.32-.228-.568V2.69c0-.247.08-.437.238-.568.159-.131.376-.196.65-.196.552 0 .827.254.827.764v.207c0 .248-.072.437-.217.568-.144.13-.354.197-.63.197zM297.285.5a.598.598 0 0 1 .62.62v14.05a.602.602 0 0 1-.62.62.607.607 0 0 1-.444-.176.607.607 0 0 1-.176-.445v-1.446c-.343.633-.857 1.17-1.539 1.612a4.084 4.084 0 0 1-2.262.66 4.46 4.46 0 0 1-2.469-.712c-.736-.475-1.318-1.134-1.746-1.973-.426-.84-.64-1.785-.64-2.83 0-1.034.214-1.971.64-2.81.428-.841 1.01-1.498 1.746-1.973a4.426 4.426 0 0 1 2.448-.713c.814 0 1.564.203 2.252.61.69.405 1.213.932 1.57 1.58V1.12a.603.603 0 0 1 .62-.62zm-4.297 14.339c.717 0 1.36-.186 1.932-.558.572-.372 1.02-.892 1.343-1.56.324-.669.485-1.415.485-2.242 0-.813-.161-1.55-.485-2.21a3.851 3.851 0 0 0-1.343-1.56 3.41 3.41 0 0 0-1.932-.568c-.715 0-1.36.188-1.932.568a3.87 3.87 0 0 0-1.343 1.56c-.323.66-.485 1.397-.485 2.21 0 .827.162 1.57.485 2.232.324.66.772 1.18 1.343 1.56a3.425 3.425 0 0 0 1.932.568zm18.119-4.938a.562.562 0 0 1-.186.423.616.616 0 0 1-.434.176h-7.81c0 .827.17 1.566.507 2.221.338.653.82 1.17 1.446 1.55.628.378 1.367.568 2.221.568.661 0 1.254-.138 1.777-.413a3.667 3.667 0 0 0 1.26-1.054c.152-.124.297-.186.434-.186a.51.51 0 0 1 .372.165.51.51 0 0 1 .165.372c0 .151-.068.296-.207.434a5.19 5.19 0 0 1-1.663 1.322 4.569 4.569 0 0 1-2.117.517c-1.06 0-1.997-.228-2.81-.682a4.84 4.84 0 0 1-1.9-1.911c-.455-.82-.683-1.767-.683-2.84 0-1.13.225-2.119.672-2.966.448-.847 1.043-1.495 1.787-1.942a4.53 4.53 0 0 1 2.376-.671 4.86 4.86 0 0 1 2.324.578c.723.385 1.312.95 1.767 1.694.454.744.69 1.625.702 2.645zm-4.793-3.719c-.798 0-1.54.275-2.221.827-.682.55-1.118 1.342-1.312 2.375h7.045V9.22a3.25 3.25 0 0 0-.62-1.622 3.342 3.342 0 0 0-1.291-1.053 3.738 3.738 0 0 0-1.601-.362zm19.999-1.198c.276 0 .524.054.744.165.22.11.33.275.33.496a.648.648 0 0 1-.165.465.522.522 0 0 1-.392.175c-.069 0-.203-.034-.403-.103a1.716 1.716 0 0 0-.569-.103c-.508 0-1.014.196-1.518.589a4.596 4.596 0 0 0-1.24 1.518c-.322.62-.485 1.246-.485 1.88v5.103a.602.602 0 0 1-.62.62.607.607 0 0 1-.444-.175.607.607 0 0 1-.176-.445V5.914a.603.603 0 0 1 .62-.62.598.598 0 0 1 .62.62v1.818a4.749 4.749 0 0 1 1.436-1.953c.64-.516 1.394-.782 2.262-.795zM339.66 10.5c0 1.033-.228 1.97-.682 2.81a5.038 5.038 0 0 1-1.88 1.973c-.798.475-1.687.713-2.665.713s-1.866-.238-2.666-.713a5.047 5.047 0 0 1-1.88-1.973c-.454-.84-.682-1.777-.682-2.81 0-1.033.228-1.97.682-2.81a5.11 5.11 0 0 1 1.88-1.983c.8-.483 1.688-.723 2.666-.723s1.867.24 2.665.723a5.1 5.1 0 0 1 1.88 1.983c.454.84.682 1.777.682 2.81zm-1.24 0c0-.826-.172-1.57-.517-2.231a3.914 3.914 0 0 0-1.435-1.56 3.785 3.785 0 0 0-2.035-.568c-.744 0-1.418.188-2.025.568a4.027 4.027 0 0 0-1.436 1.56c-.351.66-.527 1.405-.527 2.231 0 .812.176 1.55.527 2.21.351.662.83 1.181 1.436 1.56.607.379 1.28.569 2.025.569a3.845 3.845 0 0 0 3.47-2.108c.345-.66.517-1.404.517-2.23zm16.797-5.35c1.24 0 2.152.381 2.737 1.146.587.764.878 1.773.878 3.026v5.847a.602.602 0 0 1-.62.62.607.607 0 0 1-.444-.175.607.607 0 0 1-.175-.445V9.384c0-.909-.217-1.65-.651-2.22-.434-.573-1.105-.858-2.014-.858a3.43 3.43 0 0 0-1.643.413 3.4 3.4 0 0 0-1.25 1.126 2.724 2.724 0 0 0-.475 1.54v5.784a.602.602 0 0 1-.62.62.607.607 0 0 1-.444-.175.607.607 0 0 1-.176-.445V9.322c0-.896-.206-1.621-.62-2.18-.413-.557-1.06-.836-1.942-.836-.564 0-1.097.137-1.6.413-.503.275-.91.643-1.22 1.106-.31.46-.465.96-.465 1.497v5.847a.602.602 0 0 1-.62.62.607.607 0 0 1-.444-.175.607.607 0 0 1-.175-.445V5.914a.603.603 0 0 1 .62-.62.598.598 0 0 1 .62.62v1.198a4.49 4.49 0 0 1 1.508-1.405 3.9 3.9 0 0 1 2.004-.558c.799 0 1.487.192 2.066.579.578.384.991.95 1.24 1.694.289-.607.82-1.137 1.59-1.591.772-.455 1.55-.682 2.335-.682zm16.466.082c.18 0 .328.062.444.186a.635.635 0 0 1 .176.454v9.297a.602.602 0 0 1-.62.62.607.607 0 0 1-.444-.175.607.607 0 0 1-.176-.445v-1.384c-.343.62-.86 1.143-1.55 1.57a4.197 4.197 0 0 1-2.251.64 4.454 4.454 0 0 1-2.49-.722c-.736-.483-1.314-1.144-1.735-1.984-.42-.84-.63-1.784-.63-2.83 0-1.047.214-1.987.64-2.82.427-.835 1.01-1.485 1.746-1.953a4.47 4.47 0 0 1 2.448-.702c.827 0 1.584.199 2.273.599.69.399 1.206.922 1.55 1.57v-1.28c0-.18.059-.331.175-.455a.587.587 0 0 1 .444-.186zm-4.297 9.607a3.42 3.42 0 0 0 1.931-.568c.573-.38 1.02-.903 1.343-1.57.325-.67.486-1.416.486-2.242 0-.8-.161-1.53-.486-2.19a3.851 3.851 0 0 0-1.343-1.56 3.41 3.41 0 0 0-1.931-.568c-.716 0-1.36.186-1.932.558a3.81 3.81 0 0 0-1.343 1.539c-.323.653-.485 1.394-.485 2.22 0 .827.158 1.574.475 2.242.317.668.762 1.191 1.332 1.57a3.46 3.46 0 0 0 1.953.569z" stroke="#555" stroke-width=".994"/></g></svg>