<?xml version="1.0" encoding="UTF-8" standalone="no"?><!DOCTYPE svg PUBLIC "-//W3C//DTD SVG 1.1//EN" "http://www.w3.org/Graphics/SVG/1.1/DTD/svg11.dtd"><svg width="100%" height="100%" viewBox="0 0 436 17" version="1.1" xmlns="http://www.w3.org/2000/svg" xmlns:xlink="http://www.w3.org/1999/xlink" xml:space="preserve" style="fill-rule:evenodd;clip-rule:evenodd;stroke-linejoin:round;stroke-miterlimit:1.41421;"><g transform="matrix(1.29127,0,0,1.29127,-10.742,1.91574)"><path d="M20.434,4.816c0,0.848 -0.141,1.633 -0.424,2.356c-0.282,0.722 -0.68,1.348 -1.192,1.876c-0.512,0.528 -1.128,0.94 -1.848,1.236c-0.72,0.296 -1.517,0.444 -2.392,0.444c-0.874,0 -1.673,-0.148 -2.396,-0.444c-0.722,-0.296 -1.341,-0.708 -1.856,-1.236c-0.514,-0.528 -0.913,-1.154 -1.196,-1.876c-0.282,-0.723 -0.424,-1.508 -0.424,-2.356c0,-0.848 0.142,-1.634 0.424,-2.356c0.283,-0.723 0.682,-1.348 1.196,-1.876c0.515,-0.528 1.134,-0.94 1.856,-1.236c0.723,-0.296 1.522,-0.444 2.396,-0.444c0.875,0 1.672,0.149 2.392,0.448c0.72,0.298 1.336,0.71 1.848,1.236c0.512,0.525 0.91,1.149 1.192,1.872c0.283,0.722 0.424,1.508 0.424,2.356Zm-2.208,0c0,-0.635 -0.084,-1.204 -0.252,-1.708c-0.168,-0.504 -0.409,-0.932 -0.724,-1.284c-0.314,-0.352 -0.697,-0.622 -1.148,-0.808c-0.45,-0.187 -0.958,-0.28 -1.524,-0.28c-0.565,0 -1.074,0.093 -1.528,0.28c-0.453,0.186 -0.838,0.456 -1.156,0.808c-0.317,0.352 -0.561,0.78 -0.732,1.284c-0.17,0.504 -0.256,1.073 -0.256,1.708c0,0.634 0.086,1.204 0.256,1.708c0.171,0.504 0.415,0.93 0.732,1.28c0.318,0.349 0.703,0.617 1.156,0.804c0.454,0.186 0.963,0.28 1.528,0.28c0.566,0 1.074,-0.094 1.524,-0.28c0.451,-0.187 0.834,-0.455 1.148,-0.804c0.315,-0.35 0.556,-0.776 0.724,-1.28c0.168,-0.504 0.252,-1.074 0.252,-1.708Z" style="fill:none;"/><path d="M32.13,9.016c0.486,0 0.908,-0.044 1.268,-0.132c0.36,-0.088 0.703,-0.21 1.028,-0.364l0,-2.104l-1.448,0c-0.138,0 -0.248,-0.039 -0.328,-0.116c-0.08,-0.078 -0.12,-0.172 -0.12,-0.284l0,-1.216l3.848,0l0,4.68c-0.293,0.213 -0.598,0.398 -0.916,0.556c-0.317,0.157 -0.656,0.286 -1.016,0.388c-0.36,0.101 -0.745,0.177 -1.156,0.228c-0.41,0.05 -0.853,0.076 -1.328,0.076c-0.842,0 -1.618,-0.147 -2.328,-0.44c-0.709,-0.294 -1.322,-0.702 -1.84,-1.224c-0.517,-0.523 -0.921,-1.147 -1.212,-1.872c-0.29,-0.726 -0.436,-1.518 -0.436,-2.376c0,-0.87 0.142,-1.667 0.424,-2.392c0.283,-0.726 0.684,-1.35 1.204,-1.872c0.52,-0.523 1.151,-0.928 1.892,-1.216c0.742,-0.288 1.574,-0.432 2.496,-0.432c0.944,0 1.762,0.14 2.452,0.42c0.691,0.28 1.276,0.644 1.756,1.092l-0.624,0.976c-0.122,0.197 -0.285,0.296 -0.488,0.296c-0.128,0 -0.258,-0.043 -0.392,-0.128c-0.17,-0.102 -0.345,-0.203 -0.524,-0.304c-0.178,-0.102 -0.376,-0.19 -0.592,-0.264c-0.216,-0.075 -0.458,-0.136 -0.728,-0.184c-0.269,-0.048 -0.58,-0.072 -0.932,-0.072c-0.57,0 -1.086,0.096 -1.548,0.288c-0.461,0.192 -0.854,0.466 -1.18,0.824c-0.325,0.357 -0.576,0.786 -0.752,1.288c-0.176,0.501 -0.264,1.061 -0.264,1.68c0,0.666 0.094,1.26 0.28,1.78c0.187,0.52 0.448,0.958 0.784,1.316c0.336,0.357 0.736,0.63 1.2,0.82c0.464,0.189 0.971,0.284 1.52,0.284Z" style="fill:none;"/><path d="M49.354,10.6l-1.664,0c-0.186,0 -0.34,-0.047 -0.46,-0.14c-0.12,-0.094 -0.206,-0.21 -0.26,-0.348l-0.864,-2.36l-4.792,0l-0.864,2.36c-0.042,0.122 -0.126,0.234 -0.252,0.336c-0.125,0.101 -0.278,0.152 -0.46,0.152l-1.672,0l4.544,-11.568l2.2,0l4.544,11.568Zm-7.488,-4.368l3.688,0l-1.408,-3.848c-0.064,-0.171 -0.134,-0.372 -0.212,-0.604c-0.077,-0.232 -0.153,-0.484 -0.228,-0.756c-0.074,0.272 -0.148,0.525 -0.22,0.76c-0.072,0.234 -0.142,0.44 -0.212,0.616l-1.408,3.832Z" style="fill:none;"/><path d="M58.322,-0.968l0,1.768l-3.48,0l0,9.8l-2.152,0l0,-9.8l-3.496,0l0,-1.768l9.128,0Z" style="fill:none;"/><path d="M70.962,4.816c0,0.848 -0.141,1.633 -0.424,2.356c-0.282,0.722 -0.68,1.348 -1.192,1.876c-0.512,0.528 -1.128,0.94 -1.848,1.236c-0.72,0.296 -1.517,0.444 -2.392,0.444c-0.874,0 -1.673,-0.148 -2.396,-0.444c-0.722,-0.296 -1.341,-0.708 -1.856,-1.236c-0.514,-0.528 -0.913,-1.154 -1.196,-1.876c-0.282,-0.723 -0.424,-1.508 -0.424,-2.356c0,-0.848 0.142,-1.634 0.424,-2.356c0.283,-0.723 0.682,-1.348 1.196,-1.876c0.515,-0.528 1.134,-0.94 1.856,-1.236c0.723,-0.296 1.522,-0.444 2.396,-0.444c0.875,0 1.672,0.149 2.392,0.448c0.72,0.298 1.336,0.71 1.848,1.236c0.512,0.525 0.91,1.149 1.192,1.872c0.283,0.722 0.424,1.508 0.424,2.356Zm-2.208,0c0,-0.635 -0.084,-1.204 -0.252,-1.708c-0.168,-0.504 -0.409,-0.932 -0.724,-1.284c-0.314,-0.352 -0.697,-0.622 -1.148,-0.808c-0.45,-0.187 -0.958,-0.28 -1.524,-0.28c-0.565,0 -1.074,0.093 -1.528,0.28c-0.453,0.186 -0.838,0.456 -1.156,0.808c-0.317,0.352 -0.561,0.78 -0.732,1.284c-0.17,0.504 -0.256,1.073 -0.256,1.708c0,0.634 0.086,1.204 0.256,1.708c0.171,0.504 0.415,0.93 0.732,1.28c0.318,0.349 0.703,0.617 1.156,0.804c0.454,0.186 0.963,0.28 1.528,0.28c0.566,0 1.074,-0.094 1.524,-0.28c0.451,-0.187 0.834,-0.455 1.148,-0.804c0.315,-0.35 0.556,-0.776 0.724,-1.28c0.168,-0.504 0.252,-1.074 0.252,-1.708Z" style="fill:none;"/><path d="M79.57,6.08l0,4.52l-2.152,0l0,-11.568l3.528,0c0.79,0 1.466,0.081 2.028,0.244c0.563,0.162 1.024,0.39 1.384,0.684c0.36,0.293 0.624,0.644 0.792,1.052c0.168,0.408 0.252,0.857 0.252,1.348c0,0.389 -0.057,0.757 -0.172,1.104c-0.114,0.346 -0.28,0.661 -0.496,0.944c-0.216,0.282 -0.482,0.53 -0.8,0.744c-0.317,0.213 -0.678,0.384 -1.084,0.512c0.272,0.154 0.507,0.376 0.704,0.664l2.896,4.272l-1.936,0c-0.186,0 -0.345,-0.038 -0.476,-0.112c-0.13,-0.075 -0.241,-0.182 -0.332,-0.32l-2.432,-3.704c-0.09,-0.139 -0.19,-0.238 -0.3,-0.296c-0.109,-0.059 -0.27,-0.088 -0.484,-0.088l-0.92,0Zm0,-1.544l1.344,0c0.406,0 0.759,-0.051 1.06,-0.152c0.302,-0.102 0.55,-0.242 0.744,-0.42c0.195,-0.179 0.34,-0.391 0.436,-0.636c0.096,-0.246 0.144,-0.515 0.144,-0.808c0,-0.587 -0.193,-1.038 -0.58,-1.352c-0.386,-0.315 -0.977,-0.472 -1.772,-0.472l-1.376,0l0,3.84Z" style="fill:none;"/><path d="M99.338,4.816c0,0.848 -0.141,1.633 -0.424,2.356c-0.282,0.722 -0.68,1.348 -1.192,1.876c-0.512,0.528 -1.128,0.94 -1.848,1.236c-0.72,0.296 -1.517,0.444 -2.392,0.444c-0.874,0 -1.673,-0.148 -2.396,-0.444c-0.722,-0.296 -1.341,-0.708 -1.856,-1.236c-0.514,-0.528 -0.913,-1.154 -1.196,-1.876c-0.282,-0.723 -0.424,-1.508 -0.424,-2.356c0,-0.848 0.142,-1.634 0.424,-2.356c0.283,-0.723 0.682,-1.348 1.196,-1.876c0.515,-0.528 1.134,-0.94 1.856,-1.236c0.723,-0.296 1.522,-0.444 2.396,-0.444c0.875,0 1.672,0.149 2.392,0.448c0.72,0.298 1.336,0.71 1.848,1.236c0.512,0.525 0.91,1.149 1.192,1.872c0.283,0.722 0.424,1.508 0.424,2.356Zm-2.208,0c0,-0.635 -0.084,-1.204 -0.252,-1.708c-0.168,-0.504 -0.409,-0.932 -0.724,-1.284c-0.314,-0.352 -0.697,-0.622 -1.148,-0.808c-0.45,-0.187 -0.958,-0.28 -1.524,-0.28c-0.565,0 -1.074,0.093 -1.528,0.28c-0.453,0.186 -0.838,0.456 -1.156,0.808c-0.317,0.352 -0.561,0.78 -0.732,1.284c-0.17,0.504 -0.256,1.073 -0.256,1.708c0,0.634 0.086,1.204 0.256,1.708c0.171,0.504 0.415,0.93 0.732,1.28c0.318,0.349 0.703,0.617 1.156,0.804c0.454,0.186 0.963,0.28 1.528,0.28c0.566,0 1.074,-0.094 1.524,-0.28c0.451,-0.187 0.834,-0.455 1.148,-0.804c0.315,-0.35 0.556,-0.776 0.724,-1.28c0.168,-0.504 0.252,-1.074 0.252,-1.708Z" style="fill:none;"/><path d="M109.13,-0.968l0,1.712l-5.128,0l0,3.208l4.04,0l0,1.656l-4.04,0l0,3.272l5.128,0l0,1.72l-7.296,0l0,-11.568l7.296,0Z" style="fill:none;"/><path d="M116.45,8.864c0.416,0 0.788,-0.07 1.116,-0.208c0.328,-0.139 0.606,-0.334 0.832,-0.584c0.227,-0.251 0.4,-0.555 0.52,-0.912c0.12,-0.358 0.18,-0.758 0.18,-1.2l0,-6.928l2.152,0l0,6.928c0,0.688 -0.11,1.324 -0.332,1.908c-0.221,0.584 -0.54,1.088 -0.956,1.512c-0.416,0.424 -0.92,0.754 -1.512,0.992c-0.592,0.237 -1.258,0.356 -2,0.356c-0.741,0 -1.408,-0.119 -2,-0.356c-0.592,-0.238 -1.094,-0.568 -1.508,-0.992c-0.413,-0.424 -0.73,-0.928 -0.952,-1.512c-0.221,-0.584 -0.332,-1.22 -0.332,-1.908l0,-6.928l2.152,0l0,6.92c0,0.442 0.06,0.842 0.18,1.2c0.12,0.357 0.292,0.662 0.516,0.916c0.224,0.253 0.5,0.449 0.828,0.588c0.328,0.138 0.7,0.208 1.116,0.208Z" style="fill:none;"/><path d="M138.298,10.6l-1.664,0c-0.186,0 -0.34,-0.047 -0.46,-0.14c-0.12,-0.094 -0.206,-0.21 -0.26,-0.348l-0.864,-2.36l-4.792,0l-0.864,2.36c-0.042,0.122 -0.126,0.234 -0.252,0.336c-0.125,0.101 -0.278,0.152 -0.46,0.152l-1.672,0l4.544,-11.568l2.2,0l4.544,11.568Zm-7.488,-4.368l3.688,0l-1.408,-3.848c-0.064,-0.171 -0.134,-0.372 -0.212,-0.604c-0.077,-0.232 -0.153,-0.484 -0.228,-0.756c-0.074,0.272 -0.148,0.525 -0.22,0.76c-0.072,0.234 -0.142,0.44 -0.212,0.616l-1.408,3.832Z" style="fill:none;"/><path d="M146.402,6.08l0,4.52l-2.152,0l0,-11.568l3.528,0c0.79,0 1.466,0.081 2.028,0.244c0.563,0.162 1.024,0.39 1.384,0.684c0.36,0.293 0.624,0.644 0.792,1.052c0.168,0.408 0.252,0.857 0.252,1.348c0,0.389 -0.057,0.757 -0.172,1.104c-0.114,0.346 -0.28,0.661 -0.496,0.944c-0.216,0.282 -0.482,0.53 -0.8,0.744c-0.317,0.213 -0.678,0.384 -1.084,0.512c0.272,0.154 0.507,0.376 0.704,0.664l2.896,4.272l-1.936,0c-0.186,0 -0.345,-0.038 -0.476,-0.112c-0.13,-0.075 -0.241,-0.182 -0.332,-0.32l-2.432,-3.704c-0.09,-0.139 -0.19,-0.238 -0.3,-0.296c-0.109,-0.059 -0.27,-0.088 -0.484,-0.088l-0.92,0Zm0,-1.544l1.344,0c0.406,0 0.759,-0.051 1.06,-0.152c0.302,-0.102 0.55,-0.242 0.744,-0.42c0.195,-0.179 0.34,-0.391 0.436,-0.636c0.096,-0.246 0.144,-0.515 0.144,-0.808c0,-0.587 -0.193,-1.038 -0.58,-1.352c-0.386,-0.315 -0.977,-0.472 -1.772,-0.472l-1.376,0l0,3.84Z" style="fill:none;"/><path d="M166.17,4.816c0,0.848 -0.141,1.633 -0.424,2.356c-0.282,0.722 -0.68,1.348 -1.192,1.876c-0.512,0.528 -1.128,0.94 -1.848,1.236c-0.72,0.296 -1.517,0.444 -2.392,0.444c-0.874,0 -1.673,-0.148 -2.396,-0.444c-0.722,-0.296 -1.341,-0.708 -1.856,-1.236c-0.514,-0.528 -0.913,-1.154 -1.196,-1.876c-0.282,-0.723 -0.424,-1.508 -0.424,-2.356c0,-0.848 0.142,-1.634 0.424,-2.356c0.283,-0.723 0.682,-1.348 1.196,-1.876c0.515,-0.528 1.134,-0.94 1.856,-1.236c0.723,-0.296 1.522,-0.444 2.396,-0.444c0.875,0 1.672,0.149 2.392,0.448c0.72,0.298 1.336,0.71 1.848,1.236c0.512,0.525 0.91,1.149 1.192,1.872c0.283,0.722 0.424,1.508 0.424,2.356Zm-2.208,0c0,-0.635 -0.084,-1.204 -0.252,-1.708c-0.168,-0.504 -0.409,-0.932 -0.724,-1.284c-0.314,-0.352 -0.697,-0.622 -1.148,-0.808c-0.45,-0.187 -0.958,-0.28 -1.524,-0.28c-0.565,0 -1.074,0.093 -1.528,0.28c-0.453,0.186 -0.838,0.456 -1.156,0.808c-0.317,0.352 -0.561,0.78 -0.732,1.284c-0.17,0.504 -0.256,1.073 -0.256,1.708c0,0.634 0.086,1.204 0.256,1.708c0.171,0.504 0.415,0.93 0.732,1.28c0.318,0.349 0.703,0.617 1.156,0.804c0.454,0.186 0.963,0.28 1.528,0.28c0.566,0 1.074,-0.094 1.524,-0.28c0.451,-0.187 0.834,-0.455 1.148,-0.804c0.315,-0.35 0.556,-0.776 0.724,-1.28c0.168,-0.504 0.252,-1.074 0.252,-1.708Z" style="fill:none;"/><path d="M173.322,8.864c0.416,0 0.788,-0.07 1.116,-0.208c0.328,-0.139 0.606,-0.334 0.832,-0.584c0.227,-0.251 0.4,-0.555 0.52,-0.912c0.12,-0.358 0.18,-0.758 0.18,-1.2l0,-6.928l2.152,0l0,6.928c0,0.688 -0.11,1.324 -0.332,1.908c-0.221,0.584 -0.54,1.088 -0.956,1.512c-0.416,0.424 -0.92,0.754 -1.512,0.992c-0.592,0.237 -1.258,0.356 -2,0.356c-0.741,0 -1.408,-0.119 -2,-0.356c-0.592,-0.238 -1.094,-0.568 -1.508,-0.992c-0.413,-0.424 -0.73,-0.928 -0.952,-1.512c-0.221,-0.584 -0.332,-1.22 -0.332,-1.908l0,-6.928l2.152,0l0,6.92c0,0.442 0.06,0.842 0.18,1.2c0.12,0.357 0.292,0.662 0.516,0.916c0.224,0.253 0.5,0.449 0.828,0.588c0.328,0.138 0.7,0.208 1.116,0.208Z" style="fill:none;"/><path d="M183.338,6.528l0,4.072l-2.152,0l0,-11.568l3.768,0c0.774,0 1.443,0.09 2.008,0.272c0.566,0.181 1.032,0.434 1.4,0.76c0.368,0.325 0.64,0.714 0.816,1.168c0.176,0.453 0.264,0.949 0.264,1.488c0,0.56 -0.093,1.073 -0.28,1.54c-0.186,0.466 -0.466,0.868 -0.84,1.204c-0.373,0.336 -0.84,0.597 -1.4,0.784c-0.56,0.186 -1.216,0.28 -1.968,0.28l-1.616,0Zm0,-1.68l1.616,0c0.395,0 0.739,-0.05 1.032,-0.148c0.294,-0.099 0.536,-0.24 0.728,-0.424c0.192,-0.184 0.336,-0.408 0.432,-0.672c0.096,-0.264 0.144,-0.559 0.144,-0.884c0,-0.31 -0.048,-0.59 -0.144,-0.84c-0.096,-0.251 -0.24,-0.464 -0.432,-0.64c-0.192,-0.176 -0.434,-0.311 -0.728,-0.404c-0.293,-0.094 -0.637,-0.14 -1.032,-0.14l-1.616,0l0,4.152Z" style="fill:none;"/><path d="M200.842,10.6l-1.664,0c-0.186,0 -0.34,-0.047 -0.46,-0.14c-0.12,-0.094 -0.206,-0.21 -0.26,-0.348l-0.864,-2.36l-4.792,0l-0.864,2.36c-0.042,0.122 -0.126,0.234 -0.252,0.336c-0.125,0.101 -0.278,0.152 -0.46,0.152l-1.672,0l4.544,-11.568l2.2,0l4.544,11.568Zm-7.488,-4.368l3.688,0l-1.408,-3.848c-0.064,-0.171 -0.134,-0.372 -0.212,-0.604c-0.077,-0.232 -0.153,-0.484 -0.228,-0.756c-0.074,0.272 -0.148,0.525 -0.22,0.76c-0.072,0.234 -0.142,0.44 -0.212,0.616l-1.408,3.832Z" style="fill:none;"/><path d="M216.994,4.816c0,0.848 -0.141,1.626 -0.424,2.336c-0.282,0.709 -0.68,1.32 -1.192,1.832c-0.512,0.512 -1.128,0.909 -1.848,1.192c-0.72,0.282 -1.517,0.424 -2.392,0.424l-4.416,0l0,-11.568l4.416,0c0.875,0 1.672,0.142 2.392,0.428c0.72,0.285 1.336,0.682 1.848,1.192c0.512,0.509 0.91,1.118 1.192,1.828c0.283,0.709 0.424,1.488 0.424,2.336Zm-2.2,0c0,-0.635 -0.085,-1.204 -0.256,-1.708c-0.17,-0.504 -0.413,-0.931 -0.728,-1.28c-0.314,-0.35 -0.697,-0.618 -1.148,-0.804c-0.45,-0.187 -0.958,-0.28 -1.524,-0.28l-2.248,0l0,8.144l2.248,0c0.566,0 1.074,-0.094 1.524,-0.28c0.451,-0.187 0.834,-0.455 1.148,-0.804c0.315,-0.35 0.558,-0.776 0.728,-1.28c0.171,-0.504 0.256,-1.074 0.256,-1.708Z" style="fill:none;"/><path d="M230.578,4.816c0,0.848 -0.141,1.633 -0.424,2.356c-0.282,0.722 -0.68,1.348 -1.192,1.876c-0.512,0.528 -1.128,0.94 -1.848,1.236c-0.72,0.296 -1.517,0.444 -2.392,0.444c-0.874,0 -1.673,-0.148 -2.396,-0.444c-0.722,-0.296 -1.341,-0.708 -1.856,-1.236c-0.514,-0.528 -0.913,-1.154 -1.196,-1.876c-0.282,-0.723 -0.424,-1.508 -0.424,-2.356c0,-0.848 0.142,-1.634 0.424,-2.356c0.283,-0.723 0.682,-1.348 1.196,-1.876c0.515,-0.528 1.134,-0.94 1.856,-1.236c0.723,-0.296 1.522,-0.444 2.396,-0.444c0.875,0 1.672,0.149 2.392,0.448c0.72,0.298 1.336,0.71 1.848,1.236c0.512,0.525 0.91,1.149 1.192,1.872c0.283,0.722 0.424,1.508 0.424,2.356Zm-2.208,0c0,-0.635 -0.084,-1.204 -0.252,-1.708c-0.168,-0.504 -0.409,-0.932 -0.724,-1.284c-0.314,-0.352 -0.697,-0.622 -1.148,-0.808c-0.45,-0.187 -0.958,-0.28 -1.524,-0.28c-0.565,0 -1.074,0.093 -1.528,0.28c-0.453,0.186 -0.838,0.456 -1.156,0.808c-0.317,0.352 -0.561,0.78 -0.732,1.284c-0.17,0.504 -0.256,1.073 -0.256,1.708c0,0.634 0.086,1.204 0.256,1.708c0.171,0.504 0.415,0.93 0.732,1.28c0.318,0.349 0.703,0.617 1.156,0.804c0.454,0.186 0.963,0.28 1.528,0.28c0.566,0 1.074,-0.094 1.524,-0.28c0.451,-0.187 0.834,-0.455 1.148,-0.804c0.315,-0.35 0.556,-0.776 0.724,-1.28c0.168,-0.504 0.252,-1.074 0.252,-1.708Z" style="fill:none;"/><path d="M239.186,6.08l0,4.52l-2.152,0l0,-11.568l3.528,0c0.79,0 1.466,0.081 2.028,0.244c0.563,0.162 1.024,0.39 1.384,0.684c0.36,0.293 0.624,0.644 0.792,1.052c0.168,0.408 0.252,0.857 0.252,1.348c0,0.389 -0.057,0.757 -0.172,1.104c-0.114,0.346 -0.28,0.661 -0.496,0.944c-0.216,0.282 -0.482,0.53 -0.8,0.744c-0.317,0.213 -0.678,0.384 -1.084,0.512c0.272,0.154 0.507,0.376 0.704,0.664l2.896,4.272l-1.936,0c-0.186,0 -0.345,-0.038 -0.476,-0.112c-0.13,-0.075 -0.241,-0.182 -0.332,-0.32l-2.432,-3.704c-0.09,-0.139 -0.19,-0.238 -0.3,-0.296c-0.109,-0.059 -0.27,-0.088 -0.484,-0.088l-0.92,0Zm0,-1.544l1.344,0c0.406,0 0.759,-0.051 1.06,-0.152c0.302,-0.102 0.55,-0.242 0.744,-0.42c0.195,-0.179 0.34,-0.391 0.436,-0.636c0.096,-0.246 0.144,-0.515 0.144,-0.808c0,-0.587 -0.193,-1.038 -0.58,-1.352c-0.386,-0.315 -0.977,-0.472 -1.772,-0.472l-1.376,0l0,3.84Z" style="fill:none;"/><path d="M255.538,-0.968l0,1.712l-5.128,0l0,3.208l4.04,0l0,1.656l-4.04,0l0,3.272l5.128,0l0,1.72l-7.296,0l0,-11.568l7.296,0Z" style="fill:none;"/><rect x="258.466" y="-0.968" width="2.16" height="11.568" style="fill:none;"/><path d="M278.186,4.816c0,0.848 -0.141,1.626 -0.424,2.336c-0.282,0.709 -0.68,1.32 -1.192,1.832c-0.512,0.512 -1.128,0.909 -1.848,1.192c-0.72,0.282 -1.517,0.424 -2.392,0.424l-4.416,0l0,-11.568l4.416,0c0.875,0 1.672,0.142 2.392,0.428c0.72,0.285 1.336,0.682 1.848,1.192c0.512,0.509 0.91,1.118 1.192,1.828c0.283,0.709 0.424,1.488 0.424,2.336Zm-2.2,0c0,-0.635 -0.085,-1.204 -0.256,-1.708c-0.17,-0.504 -0.413,-0.931 -0.728,-1.28c-0.314,-0.35 -0.697,-0.618 -1.148,-0.804c-0.45,-0.187 -0.958,-0.28 -1.524,-0.28l-2.248,0l0,8.144l2.248,0c0.566,0 1.074,-0.094 1.524,-0.28c0.451,-0.187 0.834,-0.455 1.148,-0.804c0.315,-0.35 0.558,-0.776 0.728,-1.28c0.171,-0.504 0.256,-1.074 0.256,-1.708Z" style="fill:none;"/><path d="M287.97,-0.968l0,1.712l-5.128,0l0,3.208l4.04,0l0,1.656l-4.04,0l0,3.272l5.128,0l0,1.72l-7.296,0l0,-11.568l7.296,0Z" style="fill:none;"/><path d="M296.746,6.08l0,4.52l-2.152,0l0,-11.568l3.528,0c0.79,0 1.466,0.081 2.028,0.244c0.563,0.162 1.024,0.39 1.384,0.684c0.36,0.293 0.624,0.644 0.792,1.052c0.168,0.408 0.252,0.857 0.252,1.348c0,0.389 -0.057,0.757 -0.172,1.104c-0.114,0.346 -0.28,0.661 -0.496,0.944c-0.216,0.282 -0.482,0.53 -0.8,0.744c-0.317,0.213 -0.678,0.384 -1.084,0.512c0.272,0.154 0.507,0.376 0.704,0.664l2.896,4.272l-1.936,0c-0.186,0 -0.345,-0.038 -0.476,-0.112c-0.13,-0.075 -0.241,-0.182 -0.332,-0.32l-2.432,-3.704c-0.09,-0.139 -0.19,-0.238 -0.3,-0.296c-0.109,-0.059 -0.27,-0.088 -0.484,-0.088l-0.92,0Zm0,-1.544l1.344,0c0.406,0 0.759,-0.051 1.06,-0.152c0.302,-0.102 0.55,-0.242 0.744,-0.42c0.195,-0.179 0.34,-0.391 0.436,-0.636c0.096,-0.246 0.144,-0.515 0.144,-0.808c0,-0.587 -0.193,-1.038 -0.58,-1.352c-0.386,-0.315 -0.977,-0.472 -1.772,-0.472l-1.376,0l0,3.84Z" style="fill:none;"/><path d="M316.514,4.816c0,0.848 -0.141,1.633 -0.424,2.356c-0.282,0.722 -0.68,1.348 -1.192,1.876c-0.512,0.528 -1.128,0.94 -1.848,1.236c-0.72,0.296 -1.517,0.444 -2.392,0.444c-0.874,0 -1.673,-0.148 -2.396,-0.444c-0.722,-0.296 -1.341,-0.708 -1.856,-1.236c-0.514,-0.528 -0.913,-1.154 -1.196,-1.876c-0.282,-0.723 -0.424,-1.508 -0.424,-2.356c0,-0.848 0.142,-1.634 0.424,-2.356c0.283,-0.723 0.682,-1.348 1.196,-1.876c0.515,-0.528 1.134,-0.94 1.856,-1.236c0.723,-0.296 1.522,-0.444 2.396,-0.444c0.875,0 1.672,0.149 2.392,0.448c0.72,0.298 1.336,0.71 1.848,1.236c0.512,0.525 0.91,1.149 1.192,1.872c0.283,0.722 0.424,1.508 0.424,2.356Zm-2.208,0c0,-0.635 -0.084,-1.204 -0.252,-1.708c-0.168,-0.504 -0.409,-0.932 -0.724,-1.284c-0.314,-0.352 -0.697,-0.622 -1.148,-0.808c-0.45,-0.187 -0.958,-0.28 -1.524,-0.28c-0.565,0 -1.074,0.093 -1.528,0.28c-0.453,0.186 -0.838,0.456 -1.156,0.808c-0.317,0.352 -0.561,0.78 -0.732,1.284c-0.17,0.504 -0.256,1.073 -0.256,1.708c0,0.634 0.086,1.204 0.256,1.708c0.171,0.504 0.415,0.93 0.732,1.28c0.318,0.349 0.703,0.617 1.156,0.804c0.454,0.186 0.963,0.28 1.528,0.28c0.566,0 1.074,-0.094 1.524,-0.28c0.451,-0.187 0.834,-0.455 1.148,-0.804c0.315,-0.35 0.556,-0.776 0.724,-1.28c0.168,-0.504 0.252,-1.074 0.252,-1.708Z" style="fill:none;"/><path d="M324.818,5.8c0.091,0.17 0.175,0.348 0.252,0.532c0.078,0.184 0.154,0.369 0.228,0.556c0.075,-0.192 0.152,-0.382 0.232,-0.568c0.08,-0.187 0.166,-0.366 0.256,-0.536l3.424,-6.408c0.043,-0.08 0.087,-0.144 0.132,-0.192c0.046,-0.048 0.096,-0.083 0.152,-0.104c0.056,-0.022 0.119,-0.035 0.188,-0.04c0.07,-0.006 0.152,-0.008 0.248,-0.008l1.624,0l0,11.568l-1.896,0l0,-7.472c0,-0.139 0.004,-0.291 0.012,-0.456c0.008,-0.166 0.02,-0.334 0.036,-0.504l-3.496,6.56c-0.08,0.149 -0.184,0.265 -0.312,0.348c-0.128,0.082 -0.277,0.124 -0.448,0.124l-0.296,0c-0.17,0 -0.32,-0.042 -0.448,-0.124c-0.128,-0.083 -0.232,-0.199 -0.312,-0.348l-3.544,-6.584c0.022,0.176 0.036,0.348 0.044,0.516c0.008,0.168 0.012,0.324 0.012,0.468l0,7.472l-1.896,0l0,-11.568l1.624,0c0.096,0 0.179,0.002 0.248,0.008c0.07,0.005 0.132,0.018 0.188,0.04c0.056,0.021 0.108,0.056 0.156,0.104c0.048,0.048 0.094,0.112 0.136,0.192l3.456,6.424Z" style="fill:none;"/><path d="M344.858,10.6l-1.664,0c-0.186,0 -0.34,-0.047 -0.46,-0.14c-0.12,-0.094 -0.206,-0.21 -0.26,-0.348l-0.864,-2.36l-4.792,0l-0.864,2.36c-0.042,0.122 -0.126,0.234 -0.252,0.336c-0.125,0.101 -0.278,0.152 -0.46,0.152l-1.672,0l4.544,-11.568l2.2,0l4.544,11.568Zm-7.488,-4.368l3.688,0l-1.408,-3.848c-0.064,-0.171 -0.134,-0.372 -0.212,-0.604c-0.077,-0.232 -0.153,-0.484 -0.228,-0.756c-0.074,0.272 -0.148,0.525 -0.22,0.76c-0.072,0.234 -0.142,0.44 -0.212,0.616l-1.408,3.832Z" style="fill:none;"/><path d="M20.434,4.816c0,0.848 -0.141,1.633 -0.424,2.356c-0.282,0.722 -0.68,1.348 -1.192,1.876c-0.512,0.528 -1.128,0.94 -1.848,1.236c-0.72,0.296 -1.517,0.444 -2.392,0.444c-0.874,0 -1.673,-0.148 -2.396,-0.444c-0.722,-0.296 -1.341,-0.708 -1.856,-1.236c-0.514,-0.528 -0.913,-1.154 -1.196,-1.876c-0.282,-0.723 -0.424,-1.508 -0.424,-2.356c0,-0.848 0.142,-1.634 0.424,-2.356c0.283,-0.723 0.682,-1.348 1.196,-1.876c0.515,-0.528 1.134,-0.94 1.856,-1.236c0.723,-0.296 1.522,-0.444 2.396,-0.444c0.875,0 1.672,0.149 2.392,0.448c0.72,0.298 1.336,0.71 1.848,1.236c0.512,0.525 0.91,1.149 1.192,1.872c0.283,0.722 0.424,1.508 0.424,2.356Zm-2.208,0c0,-0.635 -0.084,-1.204 -0.252,-1.708c-0.168,-0.504 -0.409,-0.932 -0.724,-1.284c-0.314,-0.352 -0.697,-0.622 -1.148,-0.808c-0.45,-0.187 -0.958,-0.28 -1.524,-0.28c-0.565,0 -1.074,0.093 -1.528,0.28c-0.453,0.186 -0.838,0.456 -1.156,0.808c-0.317,0.352 -0.561,0.78 -0.732,1.284c-0.17,0.504 -0.256,1.073 -0.256,1.708c0,0.634 0.086,1.204 0.256,1.708c0.171,0.504 0.415,0.93 0.732,1.28c0.318,0.349 0.703,0.617 1.156,0.804c0.454,0.186 0.963,0.28 1.528,0.28c0.566,0 1.074,-0.094 1.524,-0.28c0.451,-0.187 0.834,-0.455 1.148,-0.804c0.315,-0.35 0.556,-0.776 0.724,-1.28c0.168,-0.504 0.252,-1.074 0.252,-1.708Z" style="fill:none;stroke:#555;stroke-width:0.77px;"/><path d="M32.13,9.016c0.486,0 0.908,-0.044 1.268,-0.132c0.36,-0.088 0.703,-0.21 1.028,-0.364l0,-2.104l-1.448,0c-0.138,0 -0.248,-0.039 -0.328,-0.116c-0.08,-0.078 -0.12,-0.172 -0.12,-0.284l0,-1.216l3.848,0l0,4.68c-0.293,0.213 -0.598,0.398 -0.916,0.556c-0.317,0.157 -0.656,0.286 -1.016,0.388c-0.36,0.101 -0.745,0.177 -1.156,0.228c-0.41,0.05 -0.853,0.076 -1.328,0.076c-0.842,0 -1.618,-0.147 -2.328,-0.44c-0.709,-0.294 -1.322,-0.702 -1.84,-1.224c-0.517,-0.523 -0.921,-1.147 -1.212,-1.872c-0.29,-0.726 -0.436,-1.518 -0.436,-2.376c0,-0.87 0.142,-1.667 0.424,-2.392c0.283,-0.726 0.684,-1.35 1.204,-1.872c0.52,-0.523 1.151,-0.928 1.892,-1.216c0.742,-0.288 1.574,-0.432 2.496,-0.432c0.944,0 1.762,0.14 2.452,0.42c0.691,0.28 1.276,0.644 1.756,1.092l-0.624,0.976c-0.122,0.197 -0.285,0.296 -0.488,0.296c-0.128,0 -0.258,-0.043 -0.392,-0.128c-0.17,-0.102 -0.345,-0.203 -0.524,-0.304c-0.178,-0.102 -0.376,-0.19 -0.592,-0.264c-0.216,-0.075 -0.458,-0.136 -0.728,-0.184c-0.269,-0.048 -0.58,-0.072 -0.932,-0.072c-0.57,0 -1.086,0.096 -1.548,0.288c-0.461,0.192 -0.854,0.466 -1.18,0.824c-0.325,0.357 -0.576,0.786 -0.752,1.288c-0.176,0.501 -0.264,1.061 -0.264,1.68c0,0.666 0.094,1.26 0.28,1.78c0.187,0.52 0.448,0.958 0.784,1.316c0.336,0.357 0.736,0.63 1.2,0.82c0.464,0.189 0.971,0.284 1.52,0.284Z" style="fill:none;stroke:#555;stroke-width:0.77px;"/><path d="M49.354,10.6l-1.664,0c-0.186,0 -0.34,-0.047 -0.46,-0.14c-0.12,-0.094 -0.206,-0.21 -0.26,-0.348l-0.864,-2.36l-4.792,0l-0.864,2.36c-0.042,0.122 -0.126,0.234 -0.252,0.336c-0.125,0.101 -0.278,0.152 -0.46,0.152l-1.672,0l4.544,-11.568l2.2,0l4.544,11.568Zm-7.488,-4.368l3.688,0l-1.408,-3.848c-0.064,-0.171 -0.134,-0.372 -0.212,-0.604c-0.077,-0.232 -0.153,-0.484 -0.228,-0.756c-0.074,0.272 -0.148,0.525 -0.22,0.76c-0.072,0.234 -0.142,0.44 -0.212,0.616l-1.408,3.832Z" style="fill:none;stroke:#555;stroke-width:0.77px;"/><path d="M58.322,-0.968l0,1.768l-3.48,0l0,9.8l-2.152,0l0,-9.8l-3.496,0l0,-1.768l9.128,0Z" style="fill:none;stroke:#555;stroke-width:0.77px;"/><path d="M70.962,4.816c0,0.848 -0.141,1.633 -0.424,2.356c-0.282,0.722 -0.68,1.348 -1.192,1.876c-0.512,0.528 -1.128,0.94 -1.848,1.236c-0.72,0.296 -1.517,0.444 -2.392,0.444c-0.874,0 -1.673,-0.148 -2.396,-0.444c-0.722,-0.296 -1.341,-0.708 -1.856,-1.236c-0.514,-0.528 -0.913,-1.154 -1.196,-1.876c-0.282,-0.723 -0.424,-1.508 -0.424,-2.356c0,-0.848 0.142,-1.634 0.424,-2.356c0.283,-0.723 0.682,-1.348 1.196,-1.876c0.515,-0.528 1.134,-0.94 1.856,-1.236c0.723,-0.296 1.522,-0.444 2.396,-0.444c0.875,0 1.672,0.149 2.392,0.448c0.72,0.298 1.336,0.71 1.848,1.236c0.512,0.525 0.91,1.149 1.192,1.872c0.283,0.722 0.424,1.508 0.424,2.356Zm-2.208,0c0,-0.635 -0.084,-1.204 -0.252,-1.708c-0.168,-0.504 -0.409,-0.932 -0.724,-1.284c-0.314,-0.352 -0.697,-0.622 -1.148,-0.808c-0.45,-0.187 -0.958,-0.28 -1.524,-0.28c-0.565,0 -1.074,0.093 -1.528,0.28c-0.453,0.186 -0.838,0.456 -1.156,0.808c-0.317,0.352 -0.561,0.78 -0.732,1.284c-0.17,0.504 -0.256,1.073 -0.256,1.708c0,0.634 0.086,1.204 0.256,1.708c0.171,0.504 0.415,0.93 0.732,1.28c0.318,0.349 0.703,0.617 1.156,0.804c0.454,0.186 0.963,0.28 1.528,0.28c0.566,0 1.074,-0.094 1.524,-0.28c0.451,-0.187 0.834,-0.455 1.148,-0.804c0.315,-0.35 0.556,-0.776 0.724,-1.28c0.168,-0.504 0.252,-1.074 0.252,-1.708Z" style="fill:none;stroke:#555;stroke-width:0.77px;"/><path d="M79.57,6.08l0,4.52l-2.152,0l0,-11.568l3.528,0c0.79,0 1.466,0.081 2.028,0.244c0.563,0.162 1.024,0.39 1.384,0.684c0.36,0.293 0.624,0.644 0.792,1.052c0.168,0.408 0.252,0.857 0.252,1.348c0,0.389 -0.057,0.757 -0.172,1.104c-0.114,0.346 -0.28,0.661 -0.496,0.944c-0.216,0.282 -0.482,0.53 -0.8,0.744c-0.317,0.213 -0.678,0.384 -1.084,0.512c0.272,0.154 0.507,0.376 0.704,0.664l2.896,4.272l-1.936,0c-0.186,0 -0.345,-0.038 -0.476,-0.112c-0.13,-0.075 -0.241,-0.182 -0.332,-0.32l-2.432,-3.704c-0.09,-0.139 -0.19,-0.238 -0.3,-0.296c-0.109,-0.059 -0.27,-0.088 -0.484,-0.088l-0.92,0Zm0,-1.544l1.344,0c0.406,0 0.759,-0.051 1.06,-0.152c0.302,-0.102 0.55,-0.242 0.744,-0.42c0.195,-0.179 0.34,-0.391 0.436,-0.636c0.096,-0.246 0.144,-0.515 0.144,-0.808c0,-0.587 -0.193,-1.038 -0.58,-1.352c-0.386,-0.315 -0.977,-0.472 -1.772,-0.472l-1.376,0l0,3.84Z" style="fill:none;stroke:#555;stroke-width:0.77px;"/><path d="M99.338,4.816c0,0.848 -0.141,1.633 -0.424,2.356c-0.282,0.722 -0.68,1.348 -1.192,1.876c-0.512,0.528 -1.128,0.94 -1.848,1.236c-0.72,0.296 -1.517,0.444 -2.392,0.444c-0.874,0 -1.673,-0.148 -2.396,-0.444c-0.722,-0.296 -1.341,-0.708 -1.856,-1.236c-0.514,-0.528 -0.913,-1.154 -1.196,-1.876c-0.282,-0.723 -0.424,-1.508 -0.424,-2.356c0,-0.848 0.142,-1.634 0.424,-2.356c0.283,-0.723 0.682,-1.348 1.196,-1.876c0.515,-0.528 1.134,-0.94 1.856,-1.236c0.723,-0.296 1.522,-0.444 2.396,-0.444c0.875,0 1.672,0.149 2.392,0.448c0.72,0.298 1.336,0.71 1.848,1.236c0.512,0.525 0.91,1.149 1.192,1.872c0.283,0.722 0.424,1.508 0.424,2.356Zm-2.208,0c0,-0.635 -0.084,-1.204 -0.252,-1.708c-0.168,-0.504 -0.409,-0.932 -0.724,-1.284c-0.314,-0.352 -0.697,-0.622 -1.148,-0.808c-0.45,-0.187 -0.958,-0.28 -1.524,-0.28c-0.565,0 -1.074,0.093 -1.528,0.28c-0.453,0.186 -0.838,0.456 -1.156,0.808c-0.317,0.352 -0.561,0.78 -0.732,1.284c-0.17,0.504 -0.256,1.073 -0.256,1.708c0,0.634 0.086,1.204 0.256,1.708c0.171,0.504 0.415,0.93 0.732,1.28c0.318,0.349 0.703,0.617 1.156,0.804c0.454,0.186 0.963,0.28 1.528,0.28c0.566,0 1.074,-0.094 1.524,-0.28c0.451,-0.187 0.834,-0.455 1.148,-0.804c0.315,-0.35 0.556,-0.776 0.724,-1.28c0.168,-0.504 0.252,-1.074 0.252,-1.708Z" style="fill:none;stroke:#555;stroke-width:0.77px;"/><path d="M109.13,-0.968l0,1.712l-5.128,0l0,3.208l4.04,0l0,1.656l-4.04,0l0,3.272l5.128,0l0,1.72l-7.296,0l0,-11.568l7.296,0Z" style="fill:none;stroke:#555;stroke-width:0.77px;"/><path d="M116.45,8.864c0.416,0 0.788,-0.07 1.116,-0.208c0.328,-0.139 0.606,-0.334 0.832,-0.584c0.227,-0.251 0.4,-0.555 0.52,-0.912c0.12,-0.358 0.18,-0.758 0.18,-1.2l0,-6.928l2.152,0l0,6.928c0,0.688 -0.11,1.324 -0.332,1.908c-0.221,0.584 -0.54,1.088 -0.956,1.512c-0.416,0.424 -0.92,0.754 -1.512,0.992c-0.592,0.237 -1.258,0.356 -2,0.356c-0.741,0 -1.408,-0.119 -2,-0.356c-0.592,-0.238 -1.094,-0.568 -1.508,-0.992c-0.413,-0.424 -0.73,-0.928 -0.952,-1.512c-0.221,-0.584 -0.332,-1.22 -0.332,-1.908l0,-6.928l2.152,0l0,6.92c0,0.442 0.06,0.842 0.18,1.2c0.12,0.357 0.292,0.662 0.516,0.916c0.224,0.253 0.5,0.449 0.828,0.588c0.328,0.138 0.7,0.208 1.116,0.208Z" style="fill:none;stroke:#555;stroke-width:0.77px;"/><path d="M138.298,10.6l-1.664,0c-0.186,0 -0.34,-0.047 -0.46,-0.14c-0.12,-0.094 -0.206,-0.21 -0.26,-0.348l-0.864,-2.36l-4.792,0l-0.864,2.36c-0.042,0.122 -0.126,0.234 -0.252,0.336c-0.125,0.101 -0.278,0.152 -0.46,0.152l-1.672,0l4.544,-11.568l2.2,0l4.544,11.568Zm-7.488,-4.368l3.688,0l-1.408,-3.848c-0.064,-0.171 -0.134,-0.372 -0.212,-0.604c-0.077,-0.232 -0.153,-0.484 -0.228,-0.756c-0.074,0.272 -0.148,0.525 -0.22,0.76c-0.072,0.234 -0.142,0.44 -0.212,0.616l-1.408,3.832Z" style="fill:none;stroke:#555;stroke-width:0.77px;"/><path d="M146.402,6.08l0,4.52l-2.152,0l0,-11.568l3.528,0c0.79,0 1.466,0.081 2.028,0.244c0.563,0.162 1.024,0.39 1.384,0.684c0.36,0.293 0.624,0.644 0.792,1.052c0.168,0.408 0.252,0.857 0.252,1.348c0,0.389 -0.057,0.757 -0.172,1.104c-0.114,0.346 -0.28,0.661 -0.496,0.944c-0.216,0.282 -0.482,0.53 -0.8,0.744c-0.317,0.213 -0.678,0.384 -1.084,0.512c0.272,0.154 0.507,0.376 0.704,0.664l2.896,4.272l-1.936,0c-0.186,0 -0.345,-0.038 -0.476,-0.112c-0.13,-0.075 -0.241,-0.182 -0.332,-0.32l-2.432,-3.704c-0.09,-0.139 -0.19,-0.238 -0.3,-0.296c-0.109,-0.059 -0.27,-0.088 -0.484,-0.088l-0.92,0Zm0,-1.544l1.344,0c0.406,0 0.759,-0.051 1.06,-0.152c0.302,-0.102 0.55,-0.242 0.744,-0.42c0.195,-0.179 0.34,-0.391 0.436,-0.636c0.096,-0.246 0.144,-0.515 0.144,-0.808c0,-0.587 -0.193,-1.038 -0.58,-1.352c-0.386,-0.315 -0.977,-0.472 -1.772,-0.472l-1.376,0l0,3.84Z" style="fill:none;stroke:#555;stroke-width:0.77px;"/><path d="M166.17,4.816c0,0.848 -0.141,1.633 -0.424,2.356c-0.282,0.722 -0.68,1.348 -1.192,1.876c-0.512,0.528 -1.128,0.94 -1.848,1.236c-0.72,0.296 -1.517,0.444 -2.392,0.444c-0.874,0 -1.673,-0.148 -2.396,-0.444c-0.722,-0.296 -1.341,-0.708 -1.856,-1.236c-0.514,-0.528 -0.913,-1.154 -1.196,-1.876c-0.282,-0.723 -0.424,-1.508 -0.424,-2.356c0,-0.848 0.142,-1.634 0.424,-2.356c0.283,-0.723 0.682,-1.348 1.196,-1.876c0.515,-0.528 1.134,-0.94 1.856,-1.236c0.723,-0.296 1.522,-0.444 2.396,-0.444c0.875,0 1.672,0.149 2.392,0.448c0.72,0.298 1.336,0.71 1.848,1.236c0.512,0.525 0.91,1.149 1.192,1.872c0.283,0.722 0.424,1.508 0.424,2.356Zm-2.208,0c0,-0.635 -0.084,-1.204 -0.252,-1.708c-0.168,-0.504 -0.409,-0.932 -0.724,-1.284c-0.314,-0.352 -0.697,-0.622 -1.148,-0.808c-0.45,-0.187 -0.958,-0.28 -1.524,-0.28c-0.565,0 -1.074,0.093 -1.528,0.28c-0.453,0.186 -0.838,0.456 -1.156,0.808c-0.317,0.352 -0.561,0.78 -0.732,1.284c-0.17,0.504 -0.256,1.073 -0.256,1.708c0,0.634 0.086,1.204 0.256,1.708c0.171,0.504 0.415,0.93 0.732,1.28c0.318,0.349 0.703,0.617 1.156,0.804c0.454,0.186 0.963,0.28 1.528,0.28c0.566,0 1.074,-0.094 1.524,-0.28c0.451,-0.187 0.834,-0.455 1.148,-0.804c0.315,-0.35 0.556,-0.776 0.724,-1.28c0.168,-0.504 0.252,-1.074 0.252,-1.708Z" style="fill:none;stroke:#555;stroke-width:0.77px;"/><path d="M173.322,8.864c0.416,0 0.788,-0.07 1.116,-0.208c0.328,-0.139 0.606,-0.334 0.832,-0.584c0.227,-0.251 0.4,-0.555 0.52,-0.912c0.12,-0.358 0.18,-0.758 0.18,-1.2l0,-6.928l2.152,0l0,6.928c0,0.688 -0.11,1.324 -0.332,1.908c-0.221,0.584 -0.54,1.088 -0.956,1.512c-0.416,0.424 -0.92,0.754 -1.512,0.992c-0.592,0.237 -1.258,0.356 -2,0.356c-0.741,0 -1.408,-0.119 -2,-0.356c-0.592,-0.238 -1.094,-0.568 -1.508,-0.992c-0.413,-0.424 -0.73,-0.928 -0.952,-1.512c-0.221,-0.584 -0.332,-1.22 -0.332,-1.908l0,-6.928l2.152,0l0,6.92c0,0.442 0.06,0.842 0.18,1.2c0.12,0.357 0.292,0.662 0.516,0.916c0.224,0.253 0.5,0.449 0.828,0.588c0.328,0.138 0.7,0.208 1.116,0.208Z" style="fill:none;stroke:#555;stroke-width:0.77px;"/><path d="M183.338,6.528l0,4.072l-2.152,0l0,-11.568l3.768,0c0.774,0 1.443,0.09 2.008,0.272c0.566,0.181 1.032,0.434 1.4,0.76c0.368,0.325 0.64,0.714 0.816,1.168c0.176,0.453 0.264,0.949 0.264,1.488c0,0.56 -0.093,1.073 -0.28,1.54c-0.186,0.466 -0.466,0.868 -0.84,1.204c-0.373,0.336 -0.84,0.597 -1.4,0.784c-0.56,0.186 -1.216,0.28 -1.968,0.28l-1.616,0Zm0,-1.68l1.616,0c0.395,0 0.739,-0.05 1.032,-0.148c0.294,-0.099 0.536,-0.24 0.728,-0.424c0.192,-0.184 0.336,-0.408 0.432,-0.672c0.096,-0.264 0.144,-0.559 0.144,-0.884c0,-0.31 -0.048,-0.59 -0.144,-0.84c-0.096,-0.251 -0.24,-0.464 -0.432,-0.64c-0.192,-0.176 -0.434,-0.311 -0.728,-0.404c-0.293,-0.094 -0.637,-0.14 -1.032,-0.14l-1.616,0l0,4.152Z" style="fill:none;stroke:#555;stroke-width:0.77px;"/><path d="M200.842,10.6l-1.664,0c-0.186,0 -0.34,-0.047 -0.46,-0.14c-0.12,-0.094 -0.206,-0.21 -0.26,-0.348l-0.864,-2.36l-4.792,0l-0.864,2.36c-0.042,0.122 -0.126,0.234 -0.252,0.336c-0.125,0.101 -0.278,0.152 -0.46,0.152l-1.672,0l4.544,-11.568l2.2,0l4.544,11.568Zm-7.488,-4.368l3.688,0l-1.408,-3.848c-0.064,-0.171 -0.134,-0.372 -0.212,-0.604c-0.077,-0.232 -0.153,-0.484 -0.228,-0.756c-0.074,0.272 -0.148,0.525 -0.22,0.76c-0.072,0.234 -0.142,0.44 -0.212,0.616l-1.408,3.832Z" style="fill:none;stroke:#555;stroke-width:0.77px;"/><path d="M216.994,4.816c0,0.848 -0.141,1.626 -0.424,2.336c-0.282,0.709 -0.68,1.32 -1.192,1.832c-0.512,0.512 -1.128,0.909 -1.848,1.192c-0.72,0.282 -1.517,0.424 -2.392,0.424l-4.416,0l0,-11.568l4.416,0c0.875,0 1.672,0.142 2.392,0.428c0.72,0.285 1.336,0.682 1.848,1.192c0.512,0.509 0.91,1.118 1.192,1.828c0.283,0.709 0.424,1.488 0.424,2.336Zm-2.2,0c0,-0.635 -0.085,-1.204 -0.256,-1.708c-0.17,-0.504 -0.413,-0.931 -0.728,-1.28c-0.314,-0.35 -0.697,-0.618 -1.148,-0.804c-0.45,-0.187 -0.958,-0.28 -1.524,-0.28l-2.248,0l0,8.144l2.248,0c0.566,0 1.074,-0.094 1.524,-0.28c0.451,-0.187 0.834,-0.455 1.148,-0.804c0.315,-0.35 0.558,-0.776 0.728,-1.28c0.171,-0.504 0.256,-1.074 0.256,-1.708Z" style="fill:none;stroke:#555;stroke-width:0.77px;"/><path d="M230.578,4.816c0,0.848 -0.141,1.633 -0.424,2.356c-0.282,0.722 -0.68,1.348 -1.192,1.876c-0.512,0.528 -1.128,0.94 -1.848,1.236c-0.72,0.296 -1.517,0.444 -2.392,0.444c-0.874,0 -1.673,-0.148 -2.396,-0.444c-0.722,-0.296 -1.341,-0.708 -1.856,-1.236c-0.514,-0.528 -0.913,-1.154 -1.196,-1.876c-0.282,-0.723 -0.424,-1.508 -0.424,-2.356c0,-0.848 0.142,-1.634 0.424,-2.356c0.283,-0.723 0.682,-1.348 1.196,-1.876c0.515,-0.528 1.134,-0.94 1.856,-1.236c0.723,-0.296 1.522,-0.444 2.396,-0.444c0.875,0 1.672,0.149 2.392,0.448c0.72,0.298 1.336,0.71 1.848,1.236c0.512,0.525 0.91,1.149 1.192,1.872c0.283,0.722 0.424,1.508 0.424,2.356Zm-2.208,0c0,-0.635 -0.084,-1.204 -0.252,-1.708c-0.168,-0.504 -0.409,-0.932 -0.724,-1.284c-0.314,-0.352 -0.697,-0.622 -1.148,-0.808c-0.45,-0.187 -0.958,-0.28 -1.524,-0.28c-0.565,0 -1.074,0.093 -1.528,0.28c-0.453,0.186 -0.838,0.456 -1.156,0.808c-0.317,0.352 -0.561,0.78 -0.732,1.284c-0.17,0.504 -0.256,1.073 -0.256,1.708c0,0.634 0.086,1.204 0.256,1.708c0.171,0.504 0.415,0.93 0.732,1.28c0.318,0.349 0.703,0.617 1.156,0.804c0.454,0.186 0.963,0.28 1.528,0.28c0.566,0 1.074,-0.094 1.524,-0.28c0.451,-0.187 0.834,-0.455 1.148,-0.804c0.315,-0.35 0.556,-0.776 0.724,-1.28c0.168,-0.504 0.252,-1.074 0.252,-1.708Z" style="fill:none;stroke:#555;stroke-width:0.77px;"/><path d="M239.186,6.08l0,4.52l-2.152,0l0,-11.568l3.528,0c0.79,0 1.466,0.081 2.028,0.244c0.563,0.162 1.024,0.39 1.384,0.684c0.36,0.293 0.624,0.644 0.792,1.052c0.168,0.408 0.252,0.857 0.252,1.348c0,0.389 -0.057,0.757 -0.172,1.104c-0.114,0.346 -0.28,0.661 -0.496,0.944c-0.216,0.282 -0.482,0.53 -0.8,0.744c-0.317,0.213 -0.678,0.384 -1.084,0.512c0.272,0.154 0.507,0.376 0.704,0.664l2.896,4.272l-1.936,0c-0.186,0 -0.345,-0.038 -0.476,-0.112c-0.13,-0.075 -0.241,-0.182 -0.332,-0.32l-2.432,-3.704c-0.09,-0.139 -0.19,-0.238 -0.3,-0.296c-0.109,-0.059 -0.27,-0.088 -0.484,-0.088l-0.92,0Zm0,-1.544l1.344,0c0.406,0 0.759,-0.051 1.06,-0.152c0.302,-0.102 0.55,-0.242 0.744,-0.42c0.195,-0.179 0.34,-0.391 0.436,-0.636c0.096,-0.246 0.144,-0.515 0.144,-0.808c0,-0.587 -0.193,-1.038 -0.58,-1.352c-0.386,-0.315 -0.977,-0.472 -1.772,-0.472l-1.376,0l0,3.84Z" style="fill:none;stroke:#555;stroke-width:0.77px;"/><path d="M255.538,-0.968l0,1.712l-5.128,0l0,3.208l4.04,0l0,1.656l-4.04,0l0,3.272l5.128,0l0,1.72l-7.296,0l0,-11.568l7.296,0Z" style="fill:none;stroke:#555;stroke-width:0.77px;"/><rect x="258.466" y="-0.968" width="2.16" height="11.568" style="fill:none;stroke:#555;stroke-width:0.77px;"/><path d="M278.186,4.816c0,0.848 -0.141,1.626 -0.424,2.336c-0.282,0.709 -0.68,1.32 -1.192,1.832c-0.512,0.512 -1.128,0.909 -1.848,1.192c-0.72,0.282 -1.517,0.424 -2.392,0.424l-4.416,0l0,-11.568l4.416,0c0.875,0 1.672,0.142 2.392,0.428c0.72,0.285 1.336,0.682 1.848,1.192c0.512,0.509 0.91,1.118 1.192,1.828c0.283,0.709 0.424,1.488 0.424,2.336Zm-2.2,0c0,-0.635 -0.085,-1.204 -0.256,-1.708c-0.17,-0.504 -0.413,-0.931 -0.728,-1.28c-0.314,-0.35 -0.697,-0.618 -1.148,-0.804c-0.45,-0.187 -0.958,-0.28 -1.524,-0.28l-2.248,0l0,8.144l2.248,0c0.566,0 1.074,-0.094 1.524,-0.28c0.451,-0.187 0.834,-0.455 1.148,-0.804c0.315,-0.35 0.558,-0.776 0.728,-1.28c0.171,-0.504 0.256,-1.074 0.256,-1.708Z" style="fill:none;stroke:#555;stroke-width:0.77px;"/><path d="M287.97,-0.968l0,1.712l-5.128,0l0,3.208l4.04,0l0,1.656l-4.04,0l0,3.272l5.128,0l0,1.72l-7.296,0l0,-11.568l7.296,0Z" style="fill:none;stroke:#555;stroke-width:0.77px;"/><path d="M296.746,6.08l0,4.52l-2.152,0l0,-11.568l3.528,0c0.79,0 1.466,0.081 2.028,0.244c0.563,0.162 1.024,0.39 1.384,0.684c0.36,0.293 0.624,0.644 0.792,1.052c0.168,0.408 0.252,0.857 0.252,1.348c0,0.389 -0.057,0.757 -0.172,1.104c-0.114,0.346 -0.28,0.661 -0.496,0.944c-0.216,0.282 -0.482,0.53 -0.8,0.744c-0.317,0.213 -0.678,0.384 -1.084,0.512c0.272,0.154 0.507,0.376 0.704,0.664l2.896,4.272l-1.936,0c-0.186,0 -0.345,-0.038 -0.476,-0.112c-0.13,-0.075 -0.241,-0.182 -0.332,-0.32l-2.432,-3.704c-0.09,-0.139 -0.19,-0.238 -0.3,-0.296c-0.109,-0.059 -0.27,-0.088 -0.484,-0.088l-0.92,0Zm0,-1.544l1.344,0c0.406,0 0.759,-0.051 1.06,-0.152c0.302,-0.102 0.55,-0.242 0.744,-0.42c0.195,-0.179 0.34,-0.391 0.436,-0.636c0.096,-0.246 0.144,-0.515 0.144,-0.808c0,-0.587 -0.193,-1.038 -0.58,-1.352c-0.386,-0.315 -0.977,-0.472 -1.772,-0.472l-1.376,0l0,3.84Z" style="fill:none;stroke:#555;stroke-width:0.77px;"/><path d="M316.514,4.816c0,0.848 -0.141,1.633 -0.424,2.356c-0.282,0.722 -0.68,1.348 -1.192,1.876c-0.512,0.528 -1.128,0.94 -1.848,1.236c-0.72,0.296 -1.517,0.444 -2.392,0.444c-0.874,0 -1.673,-0.148 -2.396,-0.444c-0.722,-0.296 -1.341,-0.708 -1.856,-1.236c-0.514,-0.528 -0.913,-1.154 -1.196,-1.876c-0.282,-0.723 -0.424,-1.508 -0.424,-2.356c0,-0.848 0.142,-1.634 0.424,-2.356c0.283,-0.723 0.682,-1.348 1.196,-1.876c0.515,-0.528 1.134,-0.94 1.856,-1.236c0.723,-0.296 1.522,-0.444 2.396,-0.444c0.875,0 1.672,0.149 2.392,0.448c0.72,0.298 1.336,0.71 1.848,1.236c0.512,0.525 0.91,1.149 1.192,1.872c0.283,0.722 0.424,1.508 0.424,2.356Zm-2.208,0c0,-0.635 -0.084,-1.204 -0.252,-1.708c-0.168,-0.504 -0.409,-0.932 -0.724,-1.284c-0.314,-0.352 -0.697,-0.622 -1.148,-0.808c-0.45,-0.187 -0.958,-0.28 -1.524,-0.28c-0.565,0 -1.074,0.093 -1.528,0.28c-0.453,0.186 -0.838,0.456 -1.156,0.808c-0.317,0.352 -0.561,0.78 -0.732,1.284c-0.17,0.504 -0.256,1.073 -0.256,1.708c0,0.634 0.086,1.204 0.256,1.708c0.171,0.504 0.415,0.93 0.732,1.28c0.318,0.349 0.703,0.617 1.156,0.804c0.454,0.186 0.963,0.28 1.528,0.28c0.566,0 1.074,-0.094 1.524,-0.28c0.451,-0.187 0.834,-0.455 1.148,-0.804c0.315,-0.35 0.556,-0.776 0.724,-1.28c0.168,-0.504 0.252,-1.074 0.252,-1.708Z" style="fill:none;stroke:#555;stroke-width:0.77px;"/><path d="M324.818,5.8c0.091,0.17 0.175,0.348 0.252,0.532c0.078,0.184 0.154,0.369 0.228,0.556c0.075,-0.192 0.152,-0.382 0.232,-0.568c0.08,-0.187 0.166,-0.366 0.256,-0.536l3.424,-6.408c0.043,-0.08 0.087,-0.144 0.132,-0.192c0.046,-0.048 0.096,-0.083 0.152,-0.104c0.056,-0.022 0.119,-0.035 0.188,-0.04c0.07,-0.006 0.152,-0.008 0.248,-0.008l1.624,0l0,11.568l-1.896,0l0,-7.472c0,-0.139 0.004,-0.291 0.012,-0.456c0.008,-0.166 0.02,-0.334 0.036,-0.504l-3.496,6.56c-0.08,0.149 -0.184,0.265 -0.312,0.348c-0.128,0.082 -0.277,0.124 -0.448,0.124l-0.296,0c-0.17,0 -0.32,-0.042 -0.448,-0.124c-0.128,-0.083 -0.232,-0.199 -0.312,-0.348l-3.544,-6.584c0.022,0.176 0.036,0.348 0.044,0.516c0.008,0.168 0.012,0.324 0.012,0.468l0,7.472l-1.896,0l0,-11.568l1.624,0c0.096,0 0.179,0.002 0.248,0.008c0.07,0.005 0.132,0.018 0.188,0.04c0.056,0.021 0.108,0.056 0.156,0.104c0.048,0.048 0.094,0.112 0.136,0.192l3.456,6.424Z" style="fill:none;stroke:#555;stroke-width:0.77px;"/><path d="M344.858,10.6l-1.664,0c-0.186,0 -0.34,-0.047 -0.46,-0.14c-0.12,-0.094 -0.206,-0.21 -0.26,-0.348l-0.864,-2.36l-4.792,0l-0.864,2.36c-0.042,0.122 -0.126,0.234 -0.252,0.336c-0.125,0.101 -0.278,0.152 -0.46,0.152l-1.672,0l4.544,-11.568l2.2,0l4.544,11.568Zm-7.488,-4.368l3.688,0l-1.408,-3.848c-0.064,-0.171 -0.134,-0.372 -0.212,-0.604c-0.077,-0.232 -0.153,-0.484 -0.228,-0.756c-0.074,0.272 -0.148,0.525 -0.22,0.76c-0.072,0.234 -0.142,0.44 -0.212,0.616l-1.408,3.832Z" style="fill:none;stroke:#555;stroke-width:0.77px;"/></g></svg>