<svg viewBox="0 0 436 16" xmlns="http://www.w3.org/2000/svg" fill-rule="evenodd" clip-rule="evenodd" stroke-linejoin="round" stroke-miterlimit="1.414"><g fill="none"><path d="M14.342 7.938c0 1.418-.296 2.693-.888 3.822-.592 1.129-1.412 2.015-2.459 2.655-1.046.64-2.238.96-3.574.96-1.335 0-2.527-.32-3.574-.96-1.046-.64-1.866-1.526-2.459-2.655C.797 10.63.5 9.356.5 7.938c0-1.433.297-2.714.888-3.843.593-1.13 1.413-2.011 2.459-2.644C4.894.817 6.086.5 7.42.5c1.336 0 2.528.316 3.574.95 1.047.633 1.867 1.515 2.459 2.644.592 1.129.888 2.41.888 3.843zm-1.322 0c0-1.198-.238-2.27-.713-3.212-.475-.944-1.136-1.678-1.983-2.2C9.477 2 8.51 1.74 7.42 1.74c-1.087 0-2.056.261-2.903.785-.847.523-1.508 1.257-1.983 2.2-.475.943-.713 2.015-.713 3.213 0 1.199.238 2.269.713 3.213.475.943 1.136 1.676 1.983 2.2.847.523 1.816.785 2.903.785 1.089 0 2.056-.262 2.903-.785.847-.524 1.508-1.257 1.983-2.2.475-.944.713-2.014.713-3.213zm22.52-.062a.598.598 0 0 1 .62.62v4.98a.64.64 0 0 1-.31.557 7.586 7.586 0 0 1-2.066.992 7.803 7.803 0 0 1-2.314.35c-1.405 0-2.672-.323-3.802-.97a7.098 7.098 0 0 1-2.665-2.665c-.647-1.13-.971-2.397-.971-3.802 0-1.405.324-2.673.97-3.801a7.08 7.08 0 0 1 2.666-2.665C28.798.823 30.065.5 31.47.5a8.3 8.3 0 0 1 2.117.268 6.699 6.699 0 0 1 1.829.765.58.58 0 0 1 .289.516c0 .178-.058.33-.176.455a.537.537 0 0 1-.403.185.695.695 0 0 1-.371-.103 6.738 6.738 0 0 0-3.285-.847c-1.17 0-2.221.269-3.151.806a5.728 5.728 0 0 0-2.18 2.22c-.523.943-.785 2.001-.785 3.172 0 1.17.262 2.228.785 3.172a5.737 5.737 0 0 0 2.18 2.22c.93.538 1.98.806 3.15.806.593 0 1.189-.082 1.788-.248a6.12 6.12 0 0 0 1.6-.681v-4.09h-3.263a.642.642 0 0 1-.455-.176.587.587 0 0 1-.186-.444c0-.18.062-.328.186-.444a.637.637 0 0 1 .455-.176h3.946zm15.619 6.467c.028.11.041.192.041.248a.555.555 0 0 1-.186.434.635.635 0 0 1-.434.165.602.602 0 0 1-.361-.114.738.738 0 0 1-.238-.3l-1.55-3.78h-6.714l-1.529 3.78c-.11.276-.295.414-.558.414-.192 0-.337-.05-.433-.145a.613.613 0 0 1-.166-.392v-.062c0-.083.008-.145.02-.186l5.455-13.347c.111-.276.318-.413.62-.413.138 0 .258.038.362.114a.72.72 0 0 1 .237.3l5.434 13.284zm-8.967-4.566h5.744l-2.893-7.066-2.85 7.066zM62.956.707c.18 0 .328.054.444.165.118.11.176.255.176.434 0 .178-.058.32-.176.424a.644.644 0 0 1-.444.155h-4.277V14.55a.587.587 0 0 1-.186.444.64.64 0 0 1-.454.175.633.633 0 0 1-.465-.175.607.607 0 0 1-.176-.444V1.885h-4.276a.626.626 0 0 1-.445-.166.574.574 0 0 1-.175-.433c0-.166.06-.304.175-.414a.62.62 0 0 1 .445-.165h9.834zm16.776 7.231c0 1.418-.296 2.693-.888 3.822-.592 1.129-1.412 2.015-2.459 2.655-1.046.64-2.238.96-3.574.96-1.335 0-2.527-.32-3.574-.96-1.046-.64-1.866-1.526-2.459-2.655-.591-1.13-.888-2.404-.888-3.822 0-1.433.297-2.714.888-3.843.593-1.13 1.413-2.011 2.459-2.644C70.284.817 71.476.5 72.81.5c1.336 0 2.528.316 3.574.95 1.047.633 1.867 1.515 2.459 2.644.592 1.129.888 2.41.888 3.843zm-1.322 0c0-1.198-.238-2.27-.713-3.212-.475-.944-1.136-1.678-1.983-2.2-.847-.525-1.815-.786-2.903-.786-1.087 0-2.056.261-2.903.785-.847.523-1.508 1.257-1.983 2.2-.475.943-.713 2.015-.713 3.213 0 1.199.238 2.269.713 3.213.475.943 1.136 1.676 1.983 2.2.847.523 1.816.785 2.903.785 1.088 0 2.056-.262 2.903-.785.847-.524 1.508-1.257 1.983-2.2.475-.944.713-2.014.713-3.213zm22.52 6.116c.206.137.31.31.31.516a.642.642 0 0 1-.083.269.619.619 0 0 1-.537.31.71.71 0 0 1-.352-.083c-.384-.22-.694-.578-.93-1.074-.233-.496-.35-1.289-.35-2.376 0-.965-.27-1.643-.806-2.035-.537-.393-1.178-.59-1.922-.59h-4.586v5.559a.62.62 0 0 1-.166.444.57.57 0 0 1-.433.175.746.746 0 0 1-.496-.175.562.562 0 0 1-.207-.444V1.327a.603.603 0 0 1 .62-.62h5.578c.785 0 1.488.168 2.108.506.62.337 1.105.802 1.456 1.395.351.591.527 1.26.527 2.004 0 .88-.23 1.655-.692 2.324A3.496 3.496 0 0 1 98.16 8.31c.607.234 1.103.63 1.488 1.188.386.558.586 1.236.599 2.035.014.854.072 1.453.175 1.798.104.343.273.585.507.723zm-4.298-6.198c.483-.042.93-.2 1.343-.476.413-.276.744-.648.992-1.115.248-.469.372-1.006.372-1.612 0-.785-.265-1.436-.796-1.952-.53-.517-1.221-.775-2.076-.775h-4.793v5.93h4.958zm21.301.082c0 1.418-.296 2.693-.888 3.822-.592 1.129-1.412 2.015-2.459 2.655-1.046.64-2.238.96-3.574.96-1.335 0-2.527-.32-3.574-.96-1.046-.64-1.866-1.526-2.459-2.655-.591-1.13-.888-2.404-.888-3.822 0-1.433.297-2.714.888-3.843.593-1.13 1.413-2.011 2.459-2.644 1.047-.634 2.239-.95 3.574-.95 1.336 0 2.528.316 3.574.95 1.047.633 1.867 1.515 2.459 2.644.592 1.129.888 2.41.888 3.843zm-1.322 0c0-1.198-.238-2.27-.713-3.212-.475-.944-1.136-1.678-1.983-2.2-.847-.525-1.815-.786-2.903-.786-1.087 0-2.056.261-2.903.785-.847.523-1.508 1.257-1.983 2.2-.476.943-.713 2.015-.713 3.213 0 1.199.237 2.269.713 3.213.475.943 1.136 1.676 1.983 2.2.847.523 1.816.785 2.903.785 1.088 0 2.056-.262 2.903-.785.847-.524 1.508-1.257 1.983-2.2.475-.944.713-2.014.713-3.213zm13.491 6.012c.18 0 .328.062.444.186a.61.61 0 0 1 .176.434.57.57 0 0 1-.176.434.622.622 0 0 1-.444.165h-7.582a.607.607 0 0 1-.445-.175.607.607 0 0 1-.175-.444V1.327a.603.603 0 0 1 .62-.62h7.582a.598.598 0 0 1 .62.62.57.57 0 0 1-.176.434.622.622 0 0 1-.444.165h-6.9v5.186h5.97a.598.598 0 0 1 .62.62.57.57 0 0 1-.176.433.622.622 0 0 1-.444.166h-5.97v5.62h6.9zM144.895.707a.598.598 0 0 1 .62.62V9.88a5.46 5.46 0 0 1-.724 2.769 5.328 5.328 0 0 1-1.962 1.983 5.319 5.319 0 0 1-2.727.723 5.338 5.338 0 0 1-4.71-2.707 5.473 5.473 0 0 1-.724-2.768V1.327c0-.18.06-.328.176-.444.117-.118.278-.176.485-.176a.61.61 0 0 1 .434.176.583.583 0 0 1 .186.444V9.88c0 .771.186 1.48.558 2.128.372.647.878 1.16 1.518 1.54.64.378 1.333.568 2.077.568.758 0 1.456-.19 2.097-.569.64-.38 1.15-.892 1.528-1.539a4.13 4.13 0 0 0 .569-2.128V1.327a.62.62 0 0 1 .165-.444.57.57 0 0 1 .434-.176zm22.995 13.636c.028.11.041.192.041.248a.555.555 0 0 1-.186.434.635.635 0 0 1-.434.165.602.602 0 0 1-.361-.114.738.738 0 0 1-.238-.3l-1.55-3.78h-6.714l-1.529 3.78c-.11.276-.296.414-.558.414-.192 0-.337-.05-.434-.145a.613.613 0 0 1-.165-.392v-.062c0-.083.008-.145.02-.186l5.455-13.347c.111-.276.318-.413.62-.413a.59.59 0 0 1 .361.114.72.72 0 0 1 .238.3l5.434 13.284zm-8.967-4.566h5.744l-2.893-7.066-2.85 7.066zm29.813 4.277c.207.137.31.31.31.516a.642.642 0 0 1-.083.269.619.619 0 0 1-.537.31.71.71 0 0 1-.351-.083c-.385-.22-.695-.578-.93-1.074-.234-.496-.351-1.289-.351-2.376 0-.965-.269-1.643-.806-2.035-.537-.393-1.178-.59-1.921-.59h-4.587v5.559a.62.62 0 0 1-.165.444.57.57 0 0 1-.434.175.746.746 0 0 1-.496-.175.562.562 0 0 1-.206-.444V1.327a.603.603 0 0 1 .62-.62h5.578c.785 0 1.487.168 2.107.506.62.337 1.105.802 1.457 1.395.35.591.526 1.26.526 2.004 0 .88-.23 1.655-.692 2.324a3.496 3.496 0 0 1-1.808 1.374c.607.234 1.103.63 1.488 1.188.386.558.586 1.236.6 2.035.013.854.071 1.453.175 1.798.103.343.272.585.506.723zm-4.297-6.198c.483-.042.93-.2 1.343-.476a3.01 3.01 0 0 0 .991-1.115c.248-.469.372-1.006.372-1.612 0-.785-.265-1.436-.795-1.952-.53-.517-1.222-.775-2.077-.775h-4.793v5.93h4.959zm21.301.082c0 1.418-.296 2.693-.889 3.822-.591 1.129-1.411 2.015-2.459 2.655-1.046.64-2.237.96-3.574.96-1.335 0-2.527-.32-3.574-.96-1.046-.64-1.866-1.526-2.459-2.655-.591-1.13-.888-2.404-.888-3.822 0-1.433.297-2.714.888-3.843.593-1.13 1.413-2.011 2.459-2.644 1.047-.634 2.239-.95 3.574-.95 1.337 0 2.528.316 3.574.95 1.048.633 1.868 1.515 2.459 2.644.593 1.129.888 2.41.888 3.843zm-1.323 0c0-1.198-.237-2.27-.713-3.212-.475-.944-1.136-1.678-1.983-2.2-.847-.525-1.814-.786-2.903-.786-1.087 0-2.056.261-2.903.785-.847.523-1.508 1.257-1.983 2.2-.475.943-.713 2.015-.713 3.213 0 1.199.238 2.269.713 3.213.475.943 1.136 1.676 1.983 2.2.847.523 1.816.785 2.903.785 1.089 0 2.056-.262 2.903-.785.847-.524 1.508-1.257 1.983-2.2.476-.944.713-2.014.713-3.213zM219.933.707a.598.598 0 0 1 .62.62V9.88a5.46 5.46 0 0 1-.723 2.769 5.328 5.328 0 0 1-1.963 1.983 5.319 5.319 0 0 1-2.727.723 5.338 5.338 0 0 1-4.71-2.707 5.473 5.473 0 0 1-.724-2.768V1.327c0-.18.06-.328.176-.444.117-.118.279-.176.485-.176a.61.61 0 0 1 .434.176.583.583 0 0 1 .186.444V9.88c0 .771.186 1.48.558 2.128.372.647.878 1.16 1.518 1.54.64.378 1.333.568 2.077.568.758 0 1.456-.19 2.097-.569.64-.38 1.15-.892 1.529-1.539.38-.648.568-1.357.568-2.128V1.327a.62.62 0 0 1 .165-.444.57.57 0 0 1 .434-.176zm11.053 0c.758 0 1.44.176 2.046.527a3.66 3.66 0 0 1 1.415 1.467c.338.626.506 1.332.506 2.118 0 .785-.168 1.5-.506 2.148a3.831 3.831 0 0 1-1.415 1.529 3.83 3.83 0 0 1-2.046.558h-4.276v5.496a.602.602 0 0 1-.62.62.607.607 0 0 1-.444-.176.607.607 0 0 1-.176-.444V1.327a.603.603 0 0 1 .62-.62h4.896zm0 7.149c.8 0 1.447-.29 1.942-.868.496-.579.744-1.302.744-2.17 0-.854-.248-1.549-.744-2.086-.495-.537-1.142-.806-1.942-.806h-4.276v5.93h4.276zm17.789 6.487c.028.11.041.192.041.248a.555.555 0 0 1-.186.434.635.635 0 0 1-.434.165.602.602 0 0 1-.361-.114.738.738 0 0 1-.238-.3l-1.55-3.78h-6.714l-1.529 3.78c-.11.276-.295.414-.558.414-.192 0-.337-.05-.433-.145a.613.613 0 0 1-.166-.392v-.062c0-.083.008-.145.02-.186l5.455-13.347c.111-.276.318-.413.62-.413.138 0 .258.038.362.114a.72.72 0 0 1 .237.3l5.434 13.284zm-8.967-4.566h5.744l-2.893-7.066-2.85 7.066zm25.144-9.07c1.322 0 2.435.327 3.337.981.902.654 1.577 1.53 2.024 2.624.448 1.095.672 2.304.672 3.626 0 1.364-.224 2.59-.672 3.678-.447 1.087-1.122 1.952-2.024 2.593-.902.64-2.015.96-3.337.96h-5.269a.607.607 0 0 1-.444-.175.607.607 0 0 1-.175-.444V1.327a.603.603 0 0 1 .62-.62h5.268zm-.207 13.243c1.653 0 2.886-.555 3.698-1.663.814-1.109 1.22-2.56 1.22-4.349 0-1.115-.172-2.125-.517-3.027-.344-.902-.885-1.625-1.622-2.169-.736-.545-1.663-.816-2.779-.816h-4.38V13.95h4.38zm23.099-6.012c0 1.418-.296 2.693-.889 3.822-.591 1.129-1.411 2.015-2.458 2.655-1.046.64-2.238.96-3.575.96-1.335 0-2.527-.32-3.574-.96-1.046-.64-1.866-1.526-2.459-2.655-.59-1.13-.888-2.404-.888-3.822 0-1.433.297-2.714.888-3.843.593-1.13 1.413-2.011 2.46-2.644 1.046-.634 2.238-.95 3.573-.95 1.337 0 2.529.316 3.575.95 1.047.633 1.867 1.515 2.458 2.644.593 1.129.889 2.41.889 3.843zm-1.323 0c0-1.198-.237-2.27-.713-3.212-.475-.944-1.136-1.678-1.983-2.2-.847-.525-1.814-.786-2.903-.786-1.087 0-2.055.261-2.902.785-.848.523-1.509 1.257-1.984 2.2-.475.943-.713 2.015-.713 3.213 0 1.199.238 2.269.713 3.213.475.943 1.136 1.676 1.984 2.2.847.523 1.815.785 2.902.785 1.089 0 2.056-.262 2.903-.785.847-.524 1.508-1.257 1.983-2.2.476-.944.713-2.014.713-3.213zm22.52 6.116c.207.137.31.31.31.516a.642.642 0 0 1-.083.269.619.619 0 0 1-.537.31.71.71 0 0 1-.351-.083c-.385-.22-.695-.578-.93-1.074-.234-.496-.351-1.289-.351-2.376 0-.965-.269-1.643-.806-2.035-.537-.393-1.177-.59-1.921-.59h-4.587v5.559a.62.62 0 0 1-.165.444.57.57 0 0 1-.434.175.746.746 0 0 1-.496-.175.562.562 0 0 1-.206-.444V1.327a.603.603 0 0 1 .62-.62h5.578c.785 0 1.487.168 2.107.506.62.337 1.105.802 1.457 1.395.35.591.526 1.26.526 2.004 0 .88-.23 1.655-.692 2.324a3.496 3.496 0 0 1-1.807 1.374 3.16 3.16 0 0 1 1.487 1.188c.386.558.586 1.236.6 2.035.013.854.072 1.453.175 1.798.103.343.272.585.506.723zm-4.297-6.198c.483-.042.93-.2 1.343-.476a3.01 3.01 0 0 0 .991-1.115c.248-.469.372-1.006.372-1.612 0-.785-.265-1.436-.795-1.952-.53-.517-1.222-.775-2.077-.775h-4.793v5.93h4.959zm16.817 6.094c.18 0 .328.062.444.186a.61.61 0 0 1 .176.434.57.57 0 0 1-.176.434.622.622 0 0 1-.444.165h-7.582a.607.607 0 0 1-.444-.175.607.607 0 0 1-.176-.444V1.327a.603.603 0 0 1 .62-.62h7.582a.598.598 0 0 1 .62.62.57.57 0 0 1-.176.434.622.622 0 0 1-.444.165h-6.9v5.186h5.97a.598.598 0 0 1 .62.62.57.57 0 0 1-.175.433.622.622 0 0 1-.445.166h-5.97v5.62h6.9zm5.868.579a.696.696 0 0 1-.207.454.618.618 0 0 1-.454.186.633.633 0 0 1-.465-.175.633.633 0 0 1-.176-.465V1.348c0-.194.062-.35.186-.465a.663.663 0 0 1 .475-.176c.18 0 .33.062.455.186a.618.618 0 0 1 .186.455v13.18zM344.887.707c1.322 0 2.435.327 3.336.981.903.654 1.578 1.53 2.025 2.624.448 1.095.671 2.304.671 3.626 0 1.364-.223 2.59-.671 3.678-.447 1.087-1.122 1.952-2.025 2.593-.901.64-2.014.96-3.336.96h-5.269a.607.607 0 0 1-.444-.175.607.607 0 0 1-.176-.444V1.327a.603.603 0 0 1 .62-.62h5.269zm-.207 13.243c1.653 0 2.886-.555 3.698-1.663.814-1.109 1.22-2.56 1.22-4.349 0-1.115-.173-2.125-.517-3.027-.344-.902-.885-1.625-1.622-2.169-.736-.545-1.663-.816-2.779-.816h-4.38V13.95h4.38zm18.408 0c.18 0 .328.062.445.186a.61.61 0 0 1 .175.434.57.57 0 0 1-.175.434.622.622 0 0 1-.445.165h-7.582a.607.607 0 0 1-.444-.175.607.607 0 0 1-.176-.444V1.327a.603.603 0 0 1 .62-.62h7.582a.598.598 0 0 1 .62.62.57.57 0 0 1-.175.434.622.622 0 0 1-.445.165h-6.9v5.186h5.97a.598.598 0 0 1 .62.62.57.57 0 0 1-.175.433.622.622 0 0 1-.444.166h-5.971v5.62h6.9zm21.797.104c.207.137.31.31.31.516a.642.642 0 0 1-.083.269.619.619 0 0 1-.537.31.71.71 0 0 1-.351-.083c-.385-.22-.695-.578-.93-1.074-.234-.496-.351-1.289-.351-2.376 0-.965-.269-1.643-.806-2.035-.537-.393-1.177-.59-1.921-.59h-4.587v5.559a.62.62 0 0 1-.165.444.57.57 0 0 1-.434.175.746.746 0 0 1-.496-.175.562.562 0 0 1-.206-.444V1.327a.603.603 0 0 1 .62-.62h5.578c.785 0 1.487.168 2.107.506.62.337 1.105.802 1.457 1.395.35.591.526 1.26.526 2.004 0 .88-.23 1.655-.692 2.324a3.496 3.496 0 0 1-1.807 1.374 3.16 3.16 0 0 1 1.487 1.188c.386.558.586 1.236.6 2.035.013.854.072 1.453.175 1.798.103.343.272.585.506.723zm-4.297-6.198c.483-.042.93-.2 1.343-.476a3.01 3.01 0 0 0 .991-1.115c.248-.469.372-1.006.372-1.612 0-.785-.265-1.436-.795-1.952-.53-.517-1.222-.775-2.077-.775h-4.793v5.93h4.959zm21.3.082c0 1.418-.295 2.693-.888 3.822-.591 1.129-1.411 2.015-2.459 2.655-1.045.64-2.237.96-3.574.96-1.335 0-2.527-.32-3.574-.96-1.046-.64-1.866-1.526-2.459-2.655-.591-1.13-.888-2.404-.888-3.822 0-1.433.297-2.714.888-3.843.593-1.13 1.413-2.011 2.459-2.644 1.047-.634 2.24-.95 3.574-.95 1.337 0 2.529.316 3.574.95 1.048.633 1.868 1.515 2.46 2.644.592 1.129.887 2.41.887 3.843zm-1.322 0c0-1.198-.237-2.27-.713-3.212-.475-.944-1.136-1.678-1.983-2.2-.847-.525-1.814-.786-2.903-.786-1.087 0-2.055.261-2.903.785-.847.523-1.508 1.257-1.983 2.2-.475.943-.713 2.015-.713 3.213 0 1.199.238 2.269.713 3.213.475.943 1.136 1.676 1.983 2.2.848.523 1.816.785 2.903.785 1.089 0 2.056-.262 2.903-.785.847-.524 1.508-1.257 1.983-2.2.476-.944.713-2.014.713-3.213zM418.458.707c.165 0 .307.058.424.176a.598.598 0 0 1 .175.444V14.55a.587.587 0 0 1-.186.444.64.64 0 0 1-.454.175.669.669 0 0 1-.475-.175.587.587 0 0 1-.186-.444V3.186l-4.856 7.355c-.136.179-.295.261-.475.248h-.041c-.165 0-.316-.082-.455-.248l-4.855-7.396V14.55a.602.602 0 0 1-.62.62.574.574 0 0 1-.433-.176.626.626 0 0 1-.166-.444V1.327c0-.165.06-.31.176-.434a.587.587 0 0 1 .444-.186c.097 0 .2.023.31.072a.543.543 0 0 1 .248.197l5.413 8.12L417.9.975c.153-.207.339-.297.558-.269zm16.301 13.636c.028.11.041.192.041.248a.555.555 0 0 1-.186.434.635.635 0 0 1-.433.165.602.602 0 0 1-.362-.114.738.738 0 0 1-.238-.3l-1.55-3.78h-6.714l-1.529 3.78c-.11.276-.295.414-.557.414-.193 0-.337-.05-.434-.145a.613.613 0 0 1-.166-.392v-.062c0-.083.008-.145.021-.186l5.454-13.347c.111-.276.318-.413.62-.413.138 0 .258.038.362.114a.72.72 0 0 1 .237.3l5.434 13.284zm-8.967-4.566h5.744l-2.892-7.066-2.852 7.066z"/><path d="M14.342 7.938c0 1.418-.296 2.693-.888 3.822-.592 1.129-1.412 2.015-2.459 2.655-1.046.64-2.238.96-3.574.96-1.335 0-2.527-.32-3.574-.96-1.046-.64-1.866-1.526-2.459-2.655C.797 10.63.5 9.356.5 7.938c0-1.433.297-2.714.888-3.843.593-1.13 1.413-2.011 2.459-2.644C4.894.817 6.086.5 7.42.5c1.336 0 2.528.316 3.574.95 1.047.633 1.867 1.515 2.459 2.644.592 1.129.888 2.41.888 3.843zm-1.322 0c0-1.198-.238-2.27-.713-3.212-.475-.944-1.136-1.678-1.983-2.2C9.477 2 8.51 1.74 7.42 1.74c-1.087 0-2.056.261-2.903.785-.847.523-1.508 1.257-1.983 2.2-.475.943-.713 2.015-.713 3.213 0 1.199.238 2.269.713 3.213.475.943 1.136 1.676 1.983 2.2.847.523 1.816.785 2.903.785 1.089 0 2.056-.262 2.903-.785.847-.524 1.508-1.257 1.983-2.2.475-.944.713-2.014.713-3.213zm22.52-.062a.598.598 0 0 1 .62.62v4.98a.64.64 0 0 1-.31.557 7.586 7.586 0 0 1-2.066.992 7.803 7.803 0 0 1-2.314.35c-1.405 0-2.672-.323-3.802-.97a7.098 7.098 0 0 1-2.665-2.665c-.647-1.13-.971-2.397-.971-3.802 0-1.405.324-2.673.97-3.801a7.08 7.08 0 0 1 2.666-2.665C28.798.823 30.065.5 31.47.5a8.3 8.3 0 0 1 2.117.268 6.699 6.699 0 0 1 1.829.765.58.58 0 0 1 .289.516c0 .178-.058.33-.176.455a.537.537 0 0 1-.403.185.695.695 0 0 1-.371-.103 6.738 6.738 0 0 0-3.285-.847c-1.17 0-2.221.269-3.151.806a5.728 5.728 0 0 0-2.18 2.22c-.523.943-.785 2.001-.785 3.172 0 1.17.262 2.228.785 3.172a5.737 5.737 0 0 0 2.18 2.22c.93.538 1.98.806 3.15.806.593 0 1.189-.082 1.788-.248a6.12 6.12 0 0 0 1.6-.681v-4.09h-3.263a.642.642 0 0 1-.455-.176.587.587 0 0 1-.186-.444c0-.18.062-.328.186-.444a.637.637 0 0 1 .455-.176h3.946zm15.619 6.467c.028.11.041.192.041.248a.555.555 0 0 1-.186.434.635.635 0 0 1-.434.165.602.602 0 0 1-.361-.114.738.738 0 0 1-.238-.3l-1.55-3.78h-6.714l-1.529 3.78c-.11.276-.295.414-.558.414-.192 0-.337-.05-.433-.145a.613.613 0 0 1-.166-.392v-.062c0-.083.008-.145.02-.186l5.455-13.347c.111-.276.318-.413.62-.413.138 0 .258.038.362.114a.72.72 0 0 1 .237.3l5.434 13.284zm-8.967-4.566h5.744l-2.893-7.066-2.85 7.066zM62.956.707c.18 0 .328.054.444.165.118.11.176.255.176.434 0 .178-.058.32-.176.424a.644.644 0 0 1-.444.155h-4.277V14.55a.587.587 0 0 1-.186.444.64.64 0 0 1-.454.175.633.633 0 0 1-.465-.175.607.607 0 0 1-.176-.444V1.885h-4.276a.626.626 0 0 1-.445-.166.574.574 0 0 1-.175-.433c0-.166.06-.304.175-.414a.62.62 0 0 1 .445-.165h9.834zm16.776 7.231c0 1.418-.296 2.693-.888 3.822-.592 1.129-1.412 2.015-2.459 2.655-1.046.64-2.238.96-3.574.96-1.335 0-2.527-.32-3.574-.96-1.046-.64-1.866-1.526-2.459-2.655-.591-1.13-.888-2.404-.888-3.822 0-1.433.297-2.714.888-3.843.593-1.13 1.413-2.011 2.459-2.644C70.284.817 71.476.5 72.81.5c1.336 0 2.528.316 3.574.95 1.047.633 1.867 1.515 2.459 2.644.592 1.129.888 2.41.888 3.843zm-1.322 0c0-1.198-.238-2.27-.713-3.212-.475-.944-1.136-1.678-1.983-2.2-.847-.525-1.815-.786-2.903-.786-1.087 0-2.056.261-2.903.785-.847.523-1.508 1.257-1.983 2.2-.475.943-.713 2.015-.713 3.213 0 1.199.238 2.269.713 3.213.475.943 1.136 1.676 1.983 2.2.847.523 1.816.785 2.903.785 1.088 0 2.056-.262 2.903-.785.847-.524 1.508-1.257 1.983-2.2.475-.944.713-2.014.713-3.213zm22.52 6.116c.206.137.31.31.31.516a.642.642 0 0 1-.083.269.619.619 0 0 1-.537.31.71.71 0 0 1-.352-.083c-.384-.22-.694-.578-.93-1.074-.233-.496-.35-1.289-.35-2.376 0-.965-.27-1.643-.806-2.035-.537-.393-1.178-.59-1.922-.59h-4.586v5.559a.62.62 0 0 1-.166.444.57.57 0 0 1-.433.175.746.746 0 0 1-.496-.175.562.562 0 0 1-.207-.444V1.327a.603.603 0 0 1 .62-.62h5.578c.785 0 1.488.168 2.108.506.62.337 1.105.802 1.456 1.395.351.591.527 1.26.527 2.004 0 .88-.23 1.655-.692 2.324A3.496 3.496 0 0 1 98.16 8.31c.607.234 1.103.63 1.488 1.188.386.558.586 1.236.599 2.035.014.854.072 1.453.175 1.798.104.343.273.585.507.723zm-4.298-6.198c.483-.042.93-.2 1.343-.476.413-.276.744-.648.992-1.115.248-.469.372-1.006.372-1.612 0-.785-.265-1.436-.796-1.952-.53-.517-1.221-.775-2.076-.775h-4.793v5.93h4.958zm21.301.082c0 1.418-.296 2.693-.888 3.822-.592 1.129-1.412 2.015-2.459 2.655-1.046.64-2.238.96-3.574.96-1.335 0-2.527-.32-3.574-.96-1.046-.64-1.866-1.526-2.459-2.655-.591-1.13-.888-2.404-.888-3.822 0-1.433.297-2.714.888-3.843.593-1.13 1.413-2.011 2.459-2.644 1.047-.634 2.239-.95 3.574-.95 1.336 0 2.528.316 3.574.95 1.047.633 1.867 1.515 2.459 2.644.592 1.129.888 2.41.888 3.843zm-1.322 0c0-1.198-.238-2.27-.713-3.212-.475-.944-1.136-1.678-1.983-2.2-.847-.525-1.815-.786-2.903-.786-1.087 0-2.056.261-2.903.785-.847.523-1.508 1.257-1.983 2.2-.476.943-.713 2.015-.713 3.213 0 1.199.237 2.269.713 3.213.475.943 1.136 1.676 1.983 2.2.847.523 1.816.785 2.903.785 1.088 0 2.056-.262 2.903-.785.847-.524 1.508-1.257 1.983-2.2.475-.944.713-2.014.713-3.213zm13.491 6.012c.18 0 .328.062.444.186a.61.61 0 0 1 .176.434.57.57 0 0 1-.176.434.622.622 0 0 1-.444.165h-7.582a.607.607 0 0 1-.445-.175.607.607 0 0 1-.175-.444V1.327a.603.603 0 0 1 .62-.62h7.582a.598.598 0 0 1 .62.62.57.57 0 0 1-.176.434.622.622 0 0 1-.444.165h-6.9v5.186h5.97a.598.598 0 0 1 .62.62.57.57 0 0 1-.176.433.622.622 0 0 1-.444.166h-5.97v5.62h6.9zM144.895.707a.598.598 0 0 1 .62.62V9.88a5.46 5.46 0 0 1-.724 2.769 5.328 5.328 0 0 1-1.962 1.983 5.319 5.319 0 0 1-2.727.723 5.338 5.338 0 0 1-4.71-2.707 5.473 5.473 0 0 1-.724-2.768V1.327c0-.18.06-.328.176-.444.117-.118.278-.176.485-.176a.61.61 0 0 1 .434.176.583.583 0 0 1 .186.444V9.88c0 .771.186 1.48.558 2.128.372.647.878 1.16 1.518 1.54.64.378 1.333.568 2.077.568.758 0 1.456-.19 2.097-.569.64-.38 1.15-.892 1.528-1.539a4.13 4.13 0 0 0 .569-2.128V1.327a.62.62 0 0 1 .165-.444.57.57 0 0 1 .434-.176zm22.995 13.636c.028.11.041.192.041.248a.555.555 0 0 1-.186.434.635.635 0 0 1-.434.165.602.602 0 0 1-.361-.114.738.738 0 0 1-.238-.3l-1.55-3.78h-6.714l-1.529 3.78c-.11.276-.296.414-.558.414-.192 0-.337-.05-.434-.145a.613.613 0 0 1-.165-.392v-.062c0-.083.008-.145.02-.186l5.455-13.347c.111-.276.318-.413.62-.413a.59.59 0 0 1 .361.114.72.72 0 0 1 .238.3l5.434 13.284zm-8.967-4.566h5.744l-2.893-7.066-2.85 7.066zm29.813 4.277c.207.137.31.31.31.516a.642.642 0 0 1-.083.269.619.619 0 0 1-.537.31.71.71 0 0 1-.351-.083c-.385-.22-.695-.578-.93-1.074-.234-.496-.351-1.289-.351-2.376 0-.965-.269-1.643-.806-2.035-.537-.393-1.178-.59-1.921-.59h-4.587v5.559a.62.62 0 0 1-.165.444.57.57 0 0 1-.434.175.746.746 0 0 1-.496-.175.562.562 0 0 1-.206-.444V1.327a.603.603 0 0 1 .62-.62h5.578c.785 0 1.487.168 2.107.506.62.337 1.105.802 1.457 1.395.35.591.526 1.26.526 2.004 0 .88-.23 1.655-.692 2.324a3.496 3.496 0 0 1-1.808 1.374c.607.234 1.103.63 1.488 1.188.386.558.586 1.236.6 2.035.013.854.071 1.453.175 1.798.103.343.272.585.506.723zm-4.297-6.198c.483-.042.93-.2 1.343-.476a3.01 3.01 0 0 0 .991-1.115c.248-.469.372-1.006.372-1.612 0-.785-.265-1.436-.795-1.952-.53-.517-1.222-.775-2.077-.775h-4.793v5.93h4.959zm21.301.082c0 1.418-.296 2.693-.889 3.822-.591 1.129-1.411 2.015-2.459 2.655-1.046.64-2.237.96-3.574.96-1.335 0-2.527-.32-3.574-.96-1.046-.64-1.866-1.526-2.459-2.655-.591-1.13-.888-2.404-.888-3.822 0-1.433.297-2.714.888-3.843.593-1.13 1.413-2.011 2.459-2.644 1.047-.634 2.239-.95 3.574-.95 1.337 0 2.528.316 3.574.95 1.048.633 1.868 1.515 2.459 2.644.593 1.129.888 2.41.888 3.843zm-1.323 0c0-1.198-.237-2.27-.713-3.212-.475-.944-1.136-1.678-1.983-2.2-.847-.525-1.814-.786-2.903-.786-1.087 0-2.056.261-2.903.785-.847.523-1.508 1.257-1.983 2.2-.475.943-.713 2.015-.713 3.213 0 1.199.238 2.269.713 3.213.475.943 1.136 1.676 1.983 2.2.847.523 1.816.785 2.903.785 1.089 0 2.056-.262 2.903-.785.847-.524 1.508-1.257 1.983-2.2.476-.944.713-2.014.713-3.213zM219.933.707a.598.598 0 0 1 .62.62V9.88a5.46 5.46 0 0 1-.723 2.769 5.328 5.328 0 0 1-1.963 1.983 5.319 5.319 0 0 1-2.727.723 5.338 5.338 0 0 1-4.71-2.707 5.473 5.473 0 0 1-.724-2.768V1.327c0-.18.06-.328.176-.444.117-.118.279-.176.485-.176a.61.61 0 0 1 .434.176.583.583 0 0 1 .186.444V9.88c0 .771.186 1.48.558 2.128.372.647.878 1.16 1.518 1.54.64.378 1.333.568 2.077.568.758 0 1.456-.19 2.097-.569.64-.38 1.15-.892 1.529-1.539.38-.648.568-1.357.568-2.128V1.327a.62.62 0 0 1 .165-.444.57.57 0 0 1 .434-.176zm11.053 0c.758 0 1.44.176 2.046.527a3.66 3.66 0 0 1 1.415 1.467c.338.626.506 1.332.506 2.118 0 .785-.168 1.5-.506 2.148a3.831 3.831 0 0 1-1.415 1.529 3.83 3.83 0 0 1-2.046.558h-4.276v5.496a.602.602 0 0 1-.62.62.607.607 0 0 1-.444-.176.607.607 0 0 1-.176-.444V1.327a.603.603 0 0 1 .62-.62h4.896zm0 7.149c.8 0 1.447-.29 1.942-.868.496-.579.744-1.302.744-2.17 0-.854-.248-1.549-.744-2.086-.495-.537-1.142-.806-1.942-.806h-4.276v5.93h4.276zm17.789 6.487c.028.11.041.192.041.248a.555.555 0 0 1-.186.434.635.635 0 0 1-.434.165.602.602 0 0 1-.361-.114.738.738 0 0 1-.238-.3l-1.55-3.78h-6.714l-1.529 3.78c-.11.276-.295.414-.558.414-.192 0-.337-.05-.433-.145a.613.613 0 0 1-.166-.392v-.062c0-.083.008-.145.02-.186l5.455-13.347c.111-.276.318-.413.62-.413.138 0 .258.038.362.114a.72.72 0 0 1 .237.3l5.434 13.284zm-8.967-4.566h5.744l-2.893-7.066-2.85 7.066zm25.144-9.07c1.322 0 2.435.327 3.337.981.902.654 1.577 1.53 2.024 2.624.448 1.095.672 2.304.672 3.626 0 1.364-.224 2.59-.672 3.678-.447 1.087-1.122 1.952-2.024 2.593-.902.64-2.015.96-3.337.96h-5.269a.607.607 0 0 1-.444-.175.607.607 0 0 1-.175-.444V1.327a.603.603 0 0 1 .62-.62h5.268zm-.207 13.243c1.653 0 2.886-.555 3.698-1.663.814-1.109 1.22-2.56 1.22-4.349 0-1.115-.172-2.125-.517-3.027-.344-.902-.885-1.625-1.622-2.169-.736-.545-1.663-.816-2.779-.816h-4.38V13.95h4.38zm23.099-6.012c0 1.418-.296 2.693-.889 3.822-.591 1.129-1.411 2.015-2.458 2.655-1.046.64-2.238.96-3.575.96-1.335 0-2.527-.32-3.574-.96-1.046-.64-1.866-1.526-2.459-2.655-.59-1.13-.888-2.404-.888-3.822 0-1.433.297-2.714.888-3.843.593-1.13 1.413-2.011 2.46-2.644 1.046-.634 2.238-.95 3.573-.95 1.337 0 2.529.316 3.575.95 1.047.633 1.867 1.515 2.458 2.644.593 1.129.889 2.41.889 3.843zm-1.323 0c0-1.198-.237-2.27-.713-3.212-.475-.944-1.136-1.678-1.983-2.2-.847-.525-1.814-.786-2.903-.786-1.087 0-2.055.261-2.902.785-.848.523-1.509 1.257-1.984 2.2-.475.943-.713 2.015-.713 3.213 0 1.199.238 2.269.713 3.213.475.943 1.136 1.676 1.984 2.2.847.523 1.815.785 2.902.785 1.089 0 2.056-.262 2.903-.785.847-.524 1.508-1.257 1.983-2.2.476-.944.713-2.014.713-3.213zm22.52 6.116c.207.137.31.31.31.516a.642.642 0 0 1-.083.269.619.619 0 0 1-.537.31.71.71 0 0 1-.351-.083c-.385-.22-.695-.578-.93-1.074-.234-.496-.351-1.289-.351-2.376 0-.965-.269-1.643-.806-2.035-.537-.393-1.177-.59-1.921-.59h-4.587v5.559a.62.62 0 0 1-.165.444.57.57 0 0 1-.434.175.746.746 0 0 1-.496-.175.562.562 0 0 1-.206-.444V1.327a.603.603 0 0 1 .62-.62h5.578c.785 0 1.487.168 2.107.506.62.337 1.105.802 1.457 1.395.35.591.526 1.26.526 2.004 0 .88-.23 1.655-.692 2.324a3.496 3.496 0 0 1-1.807 1.374 3.16 3.16 0 0 1 1.487 1.188c.386.558.586 1.236.6 2.035.013.854.072 1.453.175 1.798.103.343.272.585.506.723zm-4.297-6.198c.483-.042.93-.2 1.343-.476a3.01 3.01 0 0 0 .991-1.115c.248-.469.372-1.006.372-1.612 0-.785-.265-1.436-.795-1.952-.53-.517-1.222-.775-2.077-.775h-4.793v5.93h4.959zm16.817 6.094c.18 0 .328.062.444.186a.61.61 0 0 1 .176.434.57.57 0 0 1-.176.434.622.622 0 0 1-.444.165h-7.582a.607.607 0 0 1-.444-.175.607.607 0 0 1-.176-.444V1.327a.603.603 0 0 1 .62-.62h7.582a.598.598 0 0 1 .62.62.57.57 0 0 1-.176.434.622.622 0 0 1-.444.165h-6.9v5.186h5.97a.598.598 0 0 1 .62.62.57.57 0 0 1-.175.433.622.622 0 0 1-.445.166h-5.97v5.62h6.9zm5.868.579a.696.696 0 0 1-.207.454.618.618 0 0 1-.454.186.633.633 0 0 1-.465-.175.633.633 0 0 1-.176-.465V1.348c0-.194.062-.35.186-.465a.663.663 0 0 1 .475-.176c.18 0 .33.062.455.186a.618.618 0 0 1 .186.455v13.18zM344.887.707c1.322 0 2.435.327 3.336.981.903.654 1.578 1.53 2.025 2.624.448 1.095.671 2.304.671 3.626 0 1.364-.223 2.59-.671 3.678-.447 1.087-1.122 1.952-2.025 2.593-.901.64-2.014.96-3.336.96h-5.269a.607.607 0 0 1-.444-.175.607.607 0 0 1-.176-.444V1.327a.603.603 0 0 1 .62-.62h5.269zm-.207 13.243c1.653 0 2.886-.555 3.698-1.663.814-1.109 1.22-2.56 1.22-4.349 0-1.115-.173-2.125-.517-3.027-.344-.902-.885-1.625-1.622-2.169-.736-.545-1.663-.816-2.779-.816h-4.38V13.95h4.38zm18.408 0c.18 0 .328.062.445.186a.61.61 0 0 1 .175.434.57.57 0 0 1-.175.434.622.622 0 0 1-.445.165h-7.582a.607.607 0 0 1-.444-.175.607.607 0 0 1-.176-.444V1.327a.603.603 0 0 1 .62-.62h7.582a.598.598 0 0 1 .62.62.57.57 0 0 1-.175.434.622.622 0 0 1-.445.165h-6.9v5.186h5.97a.598.598 0 0 1 .62.62.57.57 0 0 1-.175.433.622.622 0 0 1-.444.166h-5.971v5.62h6.9zm21.797.104c.207.137.31.31.31.516a.642.642 0 0 1-.083.269.619.619 0 0 1-.537.31.71.71 0 0 1-.351-.083c-.385-.22-.695-.578-.93-1.074-.234-.496-.351-1.289-.351-2.376 0-.965-.269-1.643-.806-2.035-.537-.393-1.177-.59-1.921-.59h-4.587v5.559a.62.62 0 0 1-.165.444.57.57 0 0 1-.434.175.746.746 0 0 1-.496-.175.562.562 0 0 1-.206-.444V1.327a.603.603 0 0 1 .62-.62h5.578c.785 0 1.487.168 2.107.506.62.337 1.105.802 1.457 1.395.35.591.526 1.26.526 2.004 0 .88-.23 1.655-.692 2.324a3.496 3.496 0 0 1-1.807 1.374 3.16 3.16 0 0 1 1.487 1.188c.386.558.586 1.236.6 2.035.013.854.072 1.453.175 1.798.103.343.272.585.506.723zm-4.297-6.198c.483-.042.93-.2 1.343-.476a3.01 3.01 0 0 0 .991-1.115c.248-.469.372-1.006.372-1.612 0-.785-.265-1.436-.795-1.952-.53-.517-1.222-.775-2.077-.775h-4.793v5.93h4.959zm21.3.082c0 1.418-.295 2.693-.888 3.822-.591 1.129-1.411 2.015-2.459 2.655-1.045.64-2.237.96-3.574.96-1.335 0-2.527-.32-3.574-.96-1.046-.64-1.866-1.526-2.459-2.655-.591-1.13-.888-2.404-.888-3.822 0-1.433.297-2.714.888-3.843.593-1.13 1.413-2.011 2.459-2.644 1.047-.634 2.24-.95 3.574-.95 1.337 0 2.529.316 3.574.95 1.048.633 1.868 1.515 2.46 2.644.592 1.129.887 2.41.887 3.843zm-1.322 0c0-1.198-.237-2.27-.713-3.212-.475-.944-1.136-1.678-1.983-2.2-.847-.525-1.814-.786-2.903-.786-1.087 0-2.055.261-2.903.785-.847.523-1.508 1.257-1.983 2.2-.475.943-.713 2.015-.713 3.213 0 1.199.238 2.269.713 3.213.475.943 1.136 1.676 1.983 2.2.848.523 1.816.785 2.903.785 1.089 0 2.056-.262 2.903-.785.847-.524 1.508-1.257 1.983-2.2.476-.944.713-2.014.713-3.213zM418.458.707c.165 0 .307.058.424.176a.598.598 0 0 1 .175.444V14.55a.587.587 0 0 1-.186.444.64.64 0 0 1-.454.175.669.669 0 0 1-.475-.175.587.587 0 0 1-.186-.444V3.186l-4.856 7.355c-.136.179-.295.261-.475.248h-.041c-.165 0-.316-.082-.455-.248l-4.855-7.396V14.55a.602.602 0 0 1-.62.62.574.574 0 0 1-.433-.176.626.626 0 0 1-.166-.444V1.327c0-.165.06-.31.176-.434a.587.587 0 0 1 .444-.186c.097 0 .2.023.31.072a.543.543 0 0 1 .248.197l5.413 8.12L417.9.975c.153-.207.339-.297.558-.269zm16.301 13.636c.028.11.041.192.041.248a.555.555 0 0 1-.186.434.635.635 0 0 1-.433.165.602.602 0 0 1-.362-.114.738.738 0 0 1-.238-.3l-1.55-3.78h-6.714l-1.529 3.78c-.11.276-.295.414-.557.414-.193 0-.337-.05-.434-.145a.613.613 0 0 1-.166-.392v-.062c0-.083.008-.145.021-.186l5.454-13.347c.111-.276.318-.413.62-.413.138 0 .258.038.362.114a.72.72 0 0 1 .237.3l5.434 13.284zm-8.967-4.566h5.744l-2.892-7.066-2.852 7.066z" stroke="#fff" stroke-width=".994"/></g></svg>