<svg viewBox="0 0 437 16" xmlns="http://www.w3.org/2000/svg" fill-rule="evenodd" clip-rule="evenodd" stroke-linejoin="round" stroke-miterlimit="1.414"><g fill="none"><path d="M7.38 15.376c-1.02 0-1.953-.21-2.8-.63a6.995 6.995 0 0 1-2.18-1.674 7.627 7.627 0 0 1-1.404-2.386A7.88 7.88 0 0 1 .5 7.938c0-.979.175-1.915.527-2.81a7.73 7.73 0 0 1 1.456-2.376 7.026 7.026 0 0 1 2.19-1.642C5.513.703 6.423.5 7.4.5c1.02 0 1.953.217 2.8.651a7.03 7.03 0 0 1 2.17 1.705 7.879 7.879 0 0 1 1.394 2.386 7.732 7.732 0 0 1-.031 5.527 7.716 7.716 0 0 1-1.446 2.365 6.987 6.987 0 0 1-2.18 1.632c-.84.406-1.749.61-2.727.61zM1.946 7.938c0 .798.132 1.567.393 2.304a6.3 6.3 0 0 0 1.115 1.963 5.519 5.519 0 0 0 1.715 1.363c.661.337 1.398.506 2.21.506.827 0 1.579-.18 2.253-.537a5.488 5.488 0 0 0 1.714-1.405 6.479 6.479 0 0 0 1.085-1.962 6.706 6.706 0 0 0 .382-2.232c0-.8-.134-1.567-.403-2.303a6.272 6.272 0 0 0-1.126-1.953A5.528 5.528 0 0 0 9.57 2.33a4.734 4.734 0 0 0-2.19-.506c-.827 0-1.577.175-2.252.527a5.381 5.381 0 0 0-1.715 1.394 6.519 6.519 0 0 0-1.085 1.963 6.733 6.733 0 0 0-.382 2.231zm32.974 5.186c-1.364 1.5-2.934 2.252-4.71 2.252a5.928 5.928 0 0 1-2.738-.64 7.243 7.243 0 0 1-2.17-1.695 8.018 8.018 0 0 1-1.435-2.386 7.533 7.533 0 0 1-.517-2.737c0-.98.17-1.915.506-2.81a7.525 7.525 0 0 1 1.416-2.366A6.945 6.945 0 0 1 27.42 1.11 6.046 6.046 0 0 1 30.127.5c.716 0 1.371.08 1.962.238.593.158 1.12.378 1.581.661.462.282.861.62 1.198 1.013.339.392.624.822.858 1.29l-1.116.745c-.482-.91-1.108-1.578-1.88-2.004-.771-.428-1.645-.64-2.624-.64-.812 0-1.546.17-2.2.516a5.301 5.301 0 0 0-1.674 1.374 6.279 6.279 0 0 0-1.064 1.962 7.108 7.108 0 0 0-.372 2.283c0 .827.142 1.612.424 2.356a6.249 6.249 0 0 0 1.167 1.952 5.698 5.698 0 0 0 1.746 1.332 4.85 4.85 0 0 0 2.18.496c.84 0 1.642-.196 2.407-.588.764-.393 1.497-1.017 2.2-1.87V9.178h-3.264V8.062h4.483v7.21h-1.22v-2.148zM44.692.604h1.22l6.094 14.669h-1.529l-1.9-4.587h-6.591l-1.88 4.587h-1.55L44.692.603zm3.554 8.946L45.29 2.298 42.296 9.55h5.95zm15.867-7.665h-5.227v13.388H57.44V1.885h-5.227V.604h11.9v1.28zm8.45 13.491c-1.019 0-1.952-.21-2.8-.63a6.995 6.995 0 0 1-2.18-1.674 7.627 7.627 0 0 1-1.404-2.386 7.88 7.88 0 0 1-.496-2.748c0-.979.176-1.915.527-2.81a7.73 7.73 0 0 1 1.457-2.376 7.026 7.026 0 0 1 2.19-1.642c.84-.407 1.75-.61 2.727-.61 1.02 0 1.952.217 2.8.651a7.03 7.03 0 0 1 2.168 1.705 7.879 7.879 0 0 1 1.395 2.386 7.732 7.732 0 0 1-.03 5.527 7.716 7.716 0 0 1-1.447 2.365 6.987 6.987 0 0 1-2.18 1.632c-.84.406-1.748.61-2.727.61zm-5.434-7.438c0 .798.132 1.567.393 2.304a6.3 6.3 0 0 0 1.116 1.963 5.519 5.519 0 0 0 1.714 1.363c.661.337 1.399.506 2.211.506.826 0 1.578-.18 2.252-.537a5.488 5.488 0 0 0 1.715-1.405 6.479 6.479 0 0 0 1.084-1.962 6.707 6.707 0 0 0 .383-2.232c0-.8-.135-1.567-.403-2.303a6.272 6.272 0 0 0-1.126-1.953 5.528 5.528 0 0 0-1.715-1.353 4.734 4.734 0 0 0-2.19-.506c-.826 0-1.577.175-2.252.527a5.381 5.381 0 0 0-1.715 1.394 6.519 6.519 0 0 0-1.084 1.963 6.733 6.733 0 0 0-.383 2.231zm22.375 7.335V.603h6.199c.634 0 1.216.135 1.745.404.531.268.99.62 1.374 1.053.386.434.686.926.899 1.478.214.55.32 1.107.32 1.673 0 .537-.079 1.05-.237 1.54a4.789 4.789 0 0 1-.661 1.322 3.972 3.972 0 0 1-1.023.991 3.62 3.62 0 0 1-1.343.548l3.595 5.66H98.74L95.29 9.86h-4.34v5.413h-1.446zm1.447-6.694h4.793c.427 0 .816-.093 1.167-.28a2.79 2.79 0 0 0 .899-.753 3.81 3.81 0 0 0 .785-2.335c0-.442-.079-.865-.238-1.27a3.475 3.475 0 0 0-.64-1.065 3.032 3.032 0 0 0-.95-.723 2.56 2.56 0 0 0-1.147-.268h-4.67v6.694zm18.987 6.797c-1.02 0-1.953-.21-2.8-.63a6.995 6.995 0 0 1-2.18-1.674 7.627 7.627 0 0 1-1.405-2.386 7.88 7.88 0 0 1-.495-2.748c0-.979.175-1.915.526-2.81a7.73 7.73 0 0 1 1.457-2.376 7.026 7.026 0 0 1 2.19-1.642c.84-.407 1.75-.61 2.727-.61 1.02 0 1.953.217 2.8.651a7.03 7.03 0 0 1 2.169 1.705 7.879 7.879 0 0 1 1.395 2.386 7.732 7.732 0 0 1-.031 5.527 7.716 7.716 0 0 1-1.447 2.365 6.987 6.987 0 0 1-2.18 1.632 6.177 6.177 0 0 1-2.726.61zm-5.434-7.438c0 .798.132 1.567.392 2.304a6.3 6.3 0 0 0 1.116 1.963 5.519 5.519 0 0 0 1.715 1.363c.661.337 1.398.506 2.21.506.827 0 1.578-.18 2.252-.537a5.488 5.488 0 0 0 1.715-1.405 6.479 6.479 0 0 0 1.085-1.962 6.706 6.706 0 0 0 .382-2.232c0-.8-.134-1.567-.403-2.303a6.272 6.272 0 0 0-1.126-1.953 5.528 5.528 0 0 0-1.714-1.353 4.734 4.734 0 0 0-2.19-.506c-.827 0-1.577.175-2.252.527a5.381 5.381 0 0 0-1.715 1.394 6.519 6.519 0 0 0-1.085 1.963 6.733 6.733 0 0 0-.382 2.231zm25.929 6.054v1.28h-9.855V.605h9.669v1.28h-8.223v5.29h7.169v1.219h-7.17v5.599h8.41zm9.71.082c.923 0 1.691-.175 2.304-.526a4.162 4.162 0 0 0 1.466-1.385c.366-.572.62-1.223.765-1.952.144-.731.217-1.467.217-2.21V.603h1.446V8c0 .992-.11 1.932-.33 2.82a6.68 6.68 0 0 1-1.065 2.345 5.272 5.272 0 0 1-1.91 1.612c-.786.399-1.743.599-2.872.599-1.157 0-2.131-.21-2.924-.63a5.367 5.367 0 0 1-1.91-1.663 6.768 6.768 0 0 1-1.034-2.356 11.917 11.917 0 0 1-.31-2.727V.604h1.426V8c0 .771.076 1.521.227 2.252.152.73.41 1.377.775 1.942a4.13 4.13 0 0 0 1.456 1.364c.607.343 1.364.516 2.273.516zM161.03.604h1.22l6.094 14.669h-1.529l-1.9-4.587h-6.591l-1.88 4.587h-1.55L161.03.603zm3.554 8.946l-2.954-7.252-2.996 7.252h5.95zm12.562 5.723V.603h6.198c.634 0 1.216.135 1.745.404.531.268.99.62 1.374 1.053.386.434.686.926.9 1.478.213.55.32 1.107.32 1.673 0 .537-.08 1.05-.238 1.54a4.789 4.789 0 0 1-.661 1.322 3.972 3.972 0 0 1-1.023.991 3.62 3.62 0 0 1-1.343.548l3.595 5.66h-1.632l-3.45-5.412h-4.34v5.413h-1.445zm1.446-6.694h4.793c.427 0 .816-.093 1.167-.28a2.79 2.79 0 0 0 .899-.753 3.81 3.81 0 0 0 .785-2.335c0-.442-.079-.865-.238-1.27a3.475 3.475 0 0 0-.64-1.065 3.032 3.032 0 0 0-.95-.723 2.56 2.56 0 0 0-1.147-.268h-4.67v6.694zm18.987 6.797c-1.02 0-1.953-.21-2.8-.63a6.995 6.995 0 0 1-2.18-1.674 7.627 7.627 0 0 1-1.404-2.386 7.88 7.88 0 0 1-.496-2.748c0-.979.175-1.915.527-2.81a7.73 7.73 0 0 1 1.456-2.376 7.026 7.026 0 0 1 2.19-1.642c.84-.407 1.75-.61 2.727-.61 1.02 0 1.953.217 2.8.651a7.03 7.03 0 0 1 2.17 1.705 7.879 7.879 0 0 1 1.394 2.386 7.732 7.732 0 0 1-.031 5.527 7.716 7.716 0 0 1-1.447 2.365 6.987 6.987 0 0 1-2.18 1.632 6.177 6.177 0 0 1-2.726.61zm-5.434-7.438c0 .798.132 1.567.392 2.304a6.3 6.3 0 0 0 1.116 1.963 5.519 5.519 0 0 0 1.715 1.363c.661.337 1.398.506 2.21.506.827 0 1.579-.18 2.253-.537a5.488 5.488 0 0 0 1.714-1.405 6.479 6.479 0 0 0 1.085-1.962 6.706 6.706 0 0 0 .382-2.232c0-.8-.134-1.567-.403-2.303a6.272 6.272 0 0 0-1.126-1.953 5.528 5.528 0 0 0-1.714-1.353 4.734 4.734 0 0 0-2.19-.506c-.827 0-1.577.175-2.252.527a5.381 5.381 0 0 0-1.715 1.394 6.519 6.519 0 0 0-1.085 1.963 6.733 6.733 0 0 0-.382 2.231zm22.024 6.136c.923 0 1.691-.175 2.303-.526a4.162 4.162 0 0 0 1.467-1.385c.366-.572.62-1.223.765-1.952.144-.731.217-1.467.217-2.21V.603h1.446V8c0 .992-.11 1.932-.33 2.82a6.68 6.68 0 0 1-1.065 2.345 5.272 5.272 0 0 1-1.91 1.612c-.786.399-1.743.599-2.873.599-1.156 0-2.13-.21-2.923-.63a5.367 5.367 0 0 1-1.911-1.663 6.768 6.768 0 0 1-1.033-2.356 11.917 11.917 0 0 1-.31-2.727V.604h1.426V8c0 .771.076 1.521.227 2.252.152.73.41 1.377.775 1.942a4.13 4.13 0 0 0 1.456 1.364c.607.343 1.364.516 2.273.516zm10.681 1.199V.603h6.074a3.8 3.8 0 0 1 1.746.404c.53.268.99.62 1.374 1.053.386.434.69.926.91 1.478.22.55.33 1.107.33 1.673 0 .606-.104 1.188-.31 1.746a4.73 4.73 0 0 1-.868 1.477 4.38 4.38 0 0 1-1.333 1.033 3.771 3.771 0 0 1-1.725.393h-4.752v5.413h-1.446zm1.446-6.694h4.69c.428 0 .816-.093 1.168-.28.35-.185.65-.433.898-.743s.442-.669.579-1.074c.138-.407.206-.83.206-1.27 0-.455-.078-.887-.237-1.292a3.475 3.475 0 0 0-.64-1.064 2.908 2.908 0 0 0-.951-.713 2.639 2.639 0 0 0-1.147-.258h-4.566v6.694zM242.35.604h1.218l6.095 14.669h-1.529l-1.9-4.587h-6.591l-1.88 4.587h-1.55L242.35.603zm3.553 8.946l-2.954-7.252-2.996 7.252h5.95zm12.562 5.723V.603h4.979c1.17 0 2.194.193 3.068.58.875.384 1.605.908 2.19 1.57a6.599 6.599 0 0 1 1.322 2.324 8.9 8.9 0 0 1 .444 2.84c0 1.116-.165 2.125-.496 3.027-.33.902-.802 1.674-1.415 2.314a6.313 6.313 0 0 1-2.21 1.488c-.86.351-1.829.527-2.903.527h-4.98zm10.557-7.355c0-.882-.124-1.692-.372-2.428a5.483 5.483 0 0 0-1.085-1.911 4.845 4.845 0 0 0-1.745-1.25c-.689-.297-1.48-.444-2.376-.444h-3.533v12.107h3.533c.909 0 1.712-.155 2.407-.465a4.888 4.888 0 0 0 1.745-1.281 5.55 5.55 0 0 0 1.064-1.922 7.672 7.672 0 0 0 .362-2.406zm11.157 7.458c-1.02 0-1.953-.21-2.8-.63a6.995 6.995 0 0 1-2.18-1.674 7.627 7.627 0 0 1-1.404-2.386 7.88 7.88 0 0 1-.496-2.748c0-.979.175-1.915.527-2.81a7.73 7.73 0 0 1 1.456-2.376 7.026 7.026 0 0 1 2.19-1.642c.84-.407 1.75-.61 2.727-.61 1.02 0 1.953.217 2.8.651a7.03 7.03 0 0 1 2.169 1.705 7.879 7.879 0 0 1 1.395 2.386 7.732 7.732 0 0 1-.031 5.527 7.716 7.716 0 0 1-1.447 2.365 6.987 6.987 0 0 1-2.18 1.632 6.177 6.177 0 0 1-2.726.61zm-5.434-7.438c0 .798.132 1.567.392 2.304a6.3 6.3 0 0 0 1.116 1.963 5.519 5.519 0 0 0 1.715 1.363c.661.337 1.398.506 2.21.506.827 0 1.578-.18 2.253-.537a5.488 5.488 0 0 0 1.714-1.405 6.479 6.479 0 0 0 1.085-1.962 6.706 6.706 0 0 0 .382-2.232c0-.8-.134-1.567-.403-2.303a6.272 6.272 0 0 0-1.126-1.953 5.528 5.528 0 0 0-1.714-1.353 4.734 4.734 0 0 0-2.19-.506c-.827 0-1.577.175-2.252.527a5.381 5.381 0 0 0-1.715 1.394 6.519 6.519 0 0 0-1.085 1.963 6.733 6.733 0 0 0-.382 2.231zm22.375 7.335V.603h6.198c.634 0 1.216.135 1.746.404.53.268.989.62 1.374 1.053.386.434.685.926.899 1.478.214.55.32 1.107.32 1.673 0 .537-.079 1.05-.238 1.54a4.759 4.759 0 0 1-.66 1.322 3.972 3.972 0 0 1-1.024.991 3.62 3.62 0 0 1-1.343.548l3.595 5.66h-1.632l-3.45-5.412h-4.339v5.413h-1.446zm1.446-6.694h4.793c.428 0 .817-.093 1.168-.28a2.79 2.79 0 0 0 .898-.753c.248-.318.442-.676.579-1.075.138-.4.207-.82.207-1.26 0-.442-.08-.865-.238-1.27a3.475 3.475 0 0 0-.64-1.065 3.032 3.032 0 0 0-.95-.723 2.56 2.56 0 0 0-1.148-.268h-4.669v6.694zm22.934 5.413v1.28h-9.856V.605h9.67v1.28h-8.224v5.29h7.17v1.219h-7.17v5.599h8.41zM325.26.604h1.446v14.669h-1.447zm12.458 14.669V.603h4.979c1.17 0 2.194.193 3.068.58.875.384 1.605.908 2.19 1.57a6.599 6.599 0 0 1 1.322 2.324 8.9 8.9 0 0 1 .444 2.84c0 1.116-.165 2.125-.496 3.027-.33.902-.802 1.674-1.415 2.314a6.313 6.313 0 0 1-2.21 1.488c-.86.351-1.829.527-2.903.527h-4.98zm10.557-7.355c0-.882-.124-1.692-.372-2.428a5.483 5.483 0 0 0-1.085-1.911 4.845 4.845 0 0 0-1.745-1.25c-.689-.297-1.48-.444-2.376-.444h-3.533v12.107h3.533c.909 0 1.712-.155 2.407-.465a4.888 4.888 0 0 0 1.745-1.281 5.55 5.55 0 0 0 1.064-1.922 7.672 7.672 0 0 0 .362-2.406zm15.103 6.074v1.28h-9.855V.605h9.669v1.28h-8.223v5.29h7.17v1.219h-7.17v5.599h8.409zm10.062 1.281V.603h6.197a3.8 3.8 0 0 1 1.746.404c.53.268.99.62 1.374 1.053.386.434.686.926.899 1.478.214.55.32 1.107.32 1.673 0 .537-.079 1.05-.238 1.54a4.759 4.759 0 0 1-.66 1.322 3.972 3.972 0 0 1-1.023.991 3.62 3.62 0 0 1-1.343.548l3.595 5.66h-1.633l-3.45-5.412h-4.339v5.413h-1.446zm1.445-6.694h4.794c.427 0 .816-.093 1.167-.28a2.79 2.79 0 0 0 .899-.753c.248-.318.441-.676.578-1.075.138-.4.207-.82.207-1.26 0-.442-.079-.865-.238-1.27a3.475 3.475 0 0 0-.64-1.065 3.032 3.032 0 0 0-.95-.723 2.56 2.56 0 0 0-1.147-.268h-4.67v6.694zm18.987 6.797c-1.019 0-1.952-.21-2.8-.63a6.995 6.995 0 0 1-2.179-1.674 7.627 7.627 0 0 1-1.405-2.386 7.88 7.88 0 0 1-.496-2.748c0-.979.176-1.915.527-2.81a7.73 7.73 0 0 1 1.457-2.376 7.026 7.026 0 0 1 2.19-1.642c.84-.407 1.75-.61 2.727-.61 1.02 0 1.952.217 2.8.651a7.03 7.03 0 0 1 2.169 1.705 7.879 7.879 0 0 1 1.394 2.386 7.732 7.732 0 0 1-.03 5.527 7.716 7.716 0 0 1-1.447 2.365 6.987 6.987 0 0 1-2.18 1.632 6.178 6.178 0 0 1-2.727.61zm-5.433-7.438c0 .798.131 1.567.392 2.304a6.3 6.3 0 0 0 1.116 1.963 5.519 5.519 0 0 0 1.715 1.363c.66.337 1.398.506 2.21.506.827 0 1.578-.18 2.252-.537a5.488 5.488 0 0 0 1.715-1.405 6.479 6.479 0 0 0 1.085-1.962 6.731 6.731 0 0 0 .382-2.232c0-.8-.134-1.567-.403-2.303a6.272 6.272 0 0 0-1.126-1.953 5.528 5.528 0 0 0-1.715-1.353 4.734 4.734 0 0 0-2.19-.506c-.826 0-1.576.175-2.252.527a5.381 5.381 0 0 0-1.714 1.394 6.519 6.519 0 0 0-1.085 1.963 6.733 6.733 0 0 0-.382 2.231zm29.069 7.335V3.228l-5.351 9.317h-.847l-5.351-9.317v12.045h-1.447V.603H406l5.723 10.042L417.487.604h1.467v14.669h-1.446zM428.21.604h1.219l6.095 14.669h-1.53l-1.9-4.587h-6.59l-1.88 4.587h-1.55L428.21.603zm3.553 8.946l-2.954-7.252-2.996 7.252h5.95z"/><path d="M7.38 15.376c-1.02 0-1.953-.21-2.8-.63a6.995 6.995 0 0 1-2.18-1.674 7.627 7.627 0 0 1-1.404-2.386A7.88 7.88 0 0 1 .5 7.938c0-.979.175-1.915.527-2.81a7.73 7.73 0 0 1 1.456-2.376 7.026 7.026 0 0 1 2.19-1.642C5.513.703 6.423.5 7.4.5c1.02 0 1.953.217 2.8.651a7.03 7.03 0 0 1 2.17 1.705 7.879 7.879 0 0 1 1.394 2.386 7.732 7.732 0 0 1-.031 5.527 7.716 7.716 0 0 1-1.446 2.365 6.987 6.987 0 0 1-2.18 1.632c-.84.406-1.749.61-2.727.61zM1.946 7.938c0 .798.132 1.567.393 2.304a6.3 6.3 0 0 0 1.115 1.963 5.519 5.519 0 0 0 1.715 1.363c.661.337 1.398.506 2.21.506.827 0 1.579-.18 2.253-.537a5.488 5.488 0 0 0 1.714-1.405 6.479 6.479 0 0 0 1.085-1.962 6.706 6.706 0 0 0 .382-2.232c0-.8-.134-1.567-.403-2.303a6.272 6.272 0 0 0-1.126-1.953A5.528 5.528 0 0 0 9.57 2.33a4.734 4.734 0 0 0-2.19-.506c-.827 0-1.577.175-2.252.527a5.381 5.381 0 0 0-1.715 1.394 6.519 6.519 0 0 0-1.085 1.963 6.733 6.733 0 0 0-.382 2.231zm32.974 5.186c-1.364 1.5-2.934 2.252-4.71 2.252a5.928 5.928 0 0 1-2.738-.64 7.243 7.243 0 0 1-2.17-1.695 8.018 8.018 0 0 1-1.435-2.386 7.533 7.533 0 0 1-.517-2.737c0-.98.17-1.915.506-2.81a7.525 7.525 0 0 1 1.416-2.366A6.945 6.945 0 0 1 27.42 1.11 6.046 6.046 0 0 1 30.127.5c.716 0 1.371.08 1.962.238.593.158 1.12.378 1.581.661.462.282.861.62 1.198 1.013.339.392.624.822.858 1.29l-1.116.745c-.482-.91-1.108-1.578-1.88-2.004-.771-.428-1.645-.64-2.624-.64-.812 0-1.546.17-2.2.516a5.301 5.301 0 0 0-1.674 1.374 6.279 6.279 0 0 0-1.064 1.962 7.108 7.108 0 0 0-.372 2.283c0 .827.142 1.612.424 2.356a6.249 6.249 0 0 0 1.167 1.952 5.698 5.698 0 0 0 1.746 1.332 4.85 4.85 0 0 0 2.18.496c.84 0 1.642-.196 2.407-.588.764-.393 1.497-1.017 2.2-1.87V9.178h-3.264V8.062h4.483v7.21h-1.22v-2.148zM44.692.604h1.22l6.094 14.669h-1.529l-1.9-4.587h-6.591l-1.88 4.587h-1.55L44.692.603zm3.554 8.946L45.29 2.298 42.296 9.55h5.95zm15.867-7.665h-5.227v13.388H57.44V1.885h-5.227V.604h11.9v1.28zm8.45 13.491c-1.019 0-1.952-.21-2.8-.63a6.995 6.995 0 0 1-2.18-1.674 7.627 7.627 0 0 1-1.404-2.386 7.88 7.88 0 0 1-.496-2.748c0-.979.176-1.915.527-2.81a7.73 7.73 0 0 1 1.457-2.376 7.026 7.026 0 0 1 2.19-1.642c.84-.407 1.75-.61 2.727-.61 1.02 0 1.952.217 2.8.651a7.03 7.03 0 0 1 2.168 1.705 7.879 7.879 0 0 1 1.395 2.386 7.732 7.732 0 0 1-.03 5.527 7.716 7.716 0 0 1-1.447 2.365 6.987 6.987 0 0 1-2.18 1.632c-.84.406-1.748.61-2.727.61zm-5.434-7.438c0 .798.132 1.567.393 2.304a6.3 6.3 0 0 0 1.116 1.963 5.519 5.519 0 0 0 1.714 1.363c.661.337 1.399.506 2.211.506.826 0 1.578-.18 2.252-.537a5.488 5.488 0 0 0 1.715-1.405 6.479 6.479 0 0 0 1.084-1.962 6.707 6.707 0 0 0 .383-2.232c0-.8-.135-1.567-.403-2.303a6.272 6.272 0 0 0-1.126-1.953 5.528 5.528 0 0 0-1.715-1.353 4.734 4.734 0 0 0-2.19-.506c-.826 0-1.577.175-2.252.527a5.381 5.381 0 0 0-1.715 1.394 6.519 6.519 0 0 0-1.084 1.963 6.733 6.733 0 0 0-.383 2.231zm22.375 7.335V.603h6.199c.634 0 1.216.135 1.745.404.531.268.99.62 1.374 1.053.386.434.686.926.899 1.478.214.55.32 1.107.32 1.673 0 .537-.079 1.05-.237 1.54a4.789 4.789 0 0 1-.661 1.322 3.972 3.972 0 0 1-1.023.991 3.62 3.62 0 0 1-1.343.548l3.595 5.66H98.74L95.29 9.86h-4.34v5.413h-1.446zm1.447-6.694h4.793c.427 0 .816-.093 1.167-.28a2.79 2.79 0 0 0 .899-.753 3.81 3.81 0 0 0 .785-2.335c0-.442-.079-.865-.238-1.27a3.475 3.475 0 0 0-.64-1.065 3.032 3.032 0 0 0-.95-.723 2.56 2.56 0 0 0-1.147-.268h-4.67v6.694zm18.987 6.797c-1.02 0-1.953-.21-2.8-.63a6.995 6.995 0 0 1-2.18-1.674 7.627 7.627 0 0 1-1.405-2.386 7.88 7.88 0 0 1-.495-2.748c0-.979.175-1.915.526-2.81a7.73 7.73 0 0 1 1.457-2.376 7.026 7.026 0 0 1 2.19-1.642c.84-.407 1.75-.61 2.727-.61 1.02 0 1.953.217 2.8.651a7.03 7.03 0 0 1 2.169 1.705 7.879 7.879 0 0 1 1.395 2.386 7.732 7.732 0 0 1-.031 5.527 7.716 7.716 0 0 1-1.447 2.365 6.987 6.987 0 0 1-2.18 1.632 6.177 6.177 0 0 1-2.726.61zm-5.434-7.438c0 .798.132 1.567.392 2.304a6.3 6.3 0 0 0 1.116 1.963 5.519 5.519 0 0 0 1.715 1.363c.661.337 1.398.506 2.21.506.827 0 1.578-.18 2.252-.537a5.488 5.488 0 0 0 1.715-1.405 6.479 6.479 0 0 0 1.085-1.962 6.706 6.706 0 0 0 .382-2.232c0-.8-.134-1.567-.403-2.303a6.272 6.272 0 0 0-1.126-1.953 5.528 5.528 0 0 0-1.714-1.353 4.734 4.734 0 0 0-2.19-.506c-.827 0-1.577.175-2.252.527a5.381 5.381 0 0 0-1.715 1.394 6.519 6.519 0 0 0-1.085 1.963 6.733 6.733 0 0 0-.382 2.231zm25.929 6.054v1.28h-9.855V.605h9.669v1.28h-8.223v5.29h7.169v1.219h-7.17v5.599h8.41zm9.71.082c.923 0 1.691-.175 2.304-.526a4.162 4.162 0 0 0 1.466-1.385c.366-.572.62-1.223.765-1.952.144-.731.217-1.467.217-2.21V.603h1.446V8c0 .992-.11 1.932-.33 2.82a6.68 6.68 0 0 1-1.065 2.345 5.272 5.272 0 0 1-1.91 1.612c-.786.399-1.743.599-2.872.599-1.157 0-2.131-.21-2.924-.63a5.367 5.367 0 0 1-1.91-1.663 6.768 6.768 0 0 1-1.034-2.356 11.917 11.917 0 0 1-.31-2.727V.604h1.426V8c0 .771.076 1.521.227 2.252.152.73.41 1.377.775 1.942a4.13 4.13 0 0 0 1.456 1.364c.607.343 1.364.516 2.273.516zM161.03.604h1.22l6.094 14.669h-1.529l-1.9-4.587h-6.591l-1.88 4.587h-1.55L161.03.603zm3.554 8.946l-2.954-7.252-2.996 7.252h5.95zm12.562 5.723V.603h6.198c.634 0 1.216.135 1.745.404.531.268.99.62 1.374 1.053.386.434.686.926.9 1.478.213.55.32 1.107.32 1.673 0 .537-.08 1.05-.238 1.54a4.789 4.789 0 0 1-.661 1.322 3.972 3.972 0 0 1-1.023.991 3.62 3.62 0 0 1-1.343.548l3.595 5.66h-1.632l-3.45-5.412h-4.34v5.413h-1.445zm1.446-6.694h4.793c.427 0 .816-.093 1.167-.28a2.79 2.79 0 0 0 .899-.753 3.81 3.81 0 0 0 .785-2.335c0-.442-.079-.865-.238-1.27a3.475 3.475 0 0 0-.64-1.065 3.032 3.032 0 0 0-.95-.723 2.56 2.56 0 0 0-1.147-.268h-4.67v6.694zm18.987 6.797c-1.02 0-1.953-.21-2.8-.63a6.995 6.995 0 0 1-2.18-1.674 7.627 7.627 0 0 1-1.404-2.386 7.88 7.88 0 0 1-.496-2.748c0-.979.175-1.915.527-2.81a7.73 7.73 0 0 1 1.456-2.376 7.026 7.026 0 0 1 2.19-1.642c.84-.407 1.75-.61 2.727-.61 1.02 0 1.953.217 2.8.651a7.03 7.03 0 0 1 2.17 1.705 7.879 7.879 0 0 1 1.394 2.386 7.732 7.732 0 0 1-.031 5.527 7.716 7.716 0 0 1-1.447 2.365 6.987 6.987 0 0 1-2.18 1.632 6.177 6.177 0 0 1-2.726.61zm-5.434-7.438c0 .798.132 1.567.392 2.304a6.3 6.3 0 0 0 1.116 1.963 5.519 5.519 0 0 0 1.715 1.363c.661.337 1.398.506 2.21.506.827 0 1.579-.18 2.253-.537a5.488 5.488 0 0 0 1.714-1.405 6.479 6.479 0 0 0 1.085-1.962 6.706 6.706 0 0 0 .382-2.232c0-.8-.134-1.567-.403-2.303a6.272 6.272 0 0 0-1.126-1.953 5.528 5.528 0 0 0-1.714-1.353 4.734 4.734 0 0 0-2.19-.506c-.827 0-1.577.175-2.252.527a5.381 5.381 0 0 0-1.715 1.394 6.519 6.519 0 0 0-1.085 1.963 6.733 6.733 0 0 0-.382 2.231zm22.024 6.136c.923 0 1.691-.175 2.303-.526a4.162 4.162 0 0 0 1.467-1.385c.366-.572.62-1.223.765-1.952.144-.731.217-1.467.217-2.21V.603h1.446V8c0 .992-.11 1.932-.33 2.82a6.68 6.68 0 0 1-1.065 2.345 5.272 5.272 0 0 1-1.91 1.612c-.786.399-1.743.599-2.873.599-1.156 0-2.13-.21-2.923-.63a5.367 5.367 0 0 1-1.911-1.663 6.768 6.768 0 0 1-1.033-2.356 11.917 11.917 0 0 1-.31-2.727V.604h1.426V8c0 .771.076 1.521.227 2.252.152.73.41 1.377.775 1.942a4.13 4.13 0 0 0 1.456 1.364c.607.343 1.364.516 2.273.516zm10.681 1.199V.603h6.074a3.8 3.8 0 0 1 1.746.404c.53.268.99.62 1.374 1.053.386.434.69.926.91 1.478.22.55.33 1.107.33 1.673 0 .606-.104 1.188-.31 1.746a4.73 4.73 0 0 1-.868 1.477 4.38 4.38 0 0 1-1.333 1.033 3.771 3.771 0 0 1-1.725.393h-4.752v5.413h-1.446zm1.446-6.694h4.69c.428 0 .816-.093 1.168-.28.35-.185.65-.433.898-.743s.442-.669.579-1.074c.138-.407.206-.83.206-1.27 0-.455-.078-.887-.237-1.292a3.475 3.475 0 0 0-.64-1.064 2.908 2.908 0 0 0-.951-.713 2.639 2.639 0 0 0-1.147-.258h-4.566v6.694zM242.35.604h1.218l6.095 14.669h-1.529l-1.9-4.587h-6.591l-1.88 4.587h-1.55L242.35.603zm3.553 8.946l-2.954-7.252-2.996 7.252h5.95zm12.562 5.723V.603h4.979c1.17 0 2.194.193 3.068.58.875.384 1.605.908 2.19 1.57a6.599 6.599 0 0 1 1.322 2.324 8.9 8.9 0 0 1 .444 2.84c0 1.116-.165 2.125-.496 3.027-.33.902-.802 1.674-1.415 2.314a6.313 6.313 0 0 1-2.21 1.488c-.86.351-1.829.527-2.903.527h-4.98zm10.557-7.355c0-.882-.124-1.692-.372-2.428a5.483 5.483 0 0 0-1.085-1.911 4.845 4.845 0 0 0-1.745-1.25c-.689-.297-1.48-.444-2.376-.444h-3.533v12.107h3.533c.909 0 1.712-.155 2.407-.465a4.888 4.888 0 0 0 1.745-1.281 5.55 5.55 0 0 0 1.064-1.922 7.672 7.672 0 0 0 .362-2.406zm11.157 7.458c-1.02 0-1.953-.21-2.8-.63a6.995 6.995 0 0 1-2.18-1.674 7.627 7.627 0 0 1-1.404-2.386 7.88 7.88 0 0 1-.496-2.748c0-.979.175-1.915.527-2.81a7.73 7.73 0 0 1 1.456-2.376 7.026 7.026 0 0 1 2.19-1.642c.84-.407 1.75-.61 2.727-.61 1.02 0 1.953.217 2.8.651a7.03 7.03 0 0 1 2.169 1.705 7.879 7.879 0 0 1 1.395 2.386 7.732 7.732 0 0 1-.031 5.527 7.716 7.716 0 0 1-1.447 2.365 6.987 6.987 0 0 1-2.18 1.632 6.177 6.177 0 0 1-2.726.61zm-5.434-7.438c0 .798.132 1.567.392 2.304a6.3 6.3 0 0 0 1.116 1.963 5.519 5.519 0 0 0 1.715 1.363c.661.337 1.398.506 2.21.506.827 0 1.578-.18 2.253-.537a5.488 5.488 0 0 0 1.714-1.405 6.479 6.479 0 0 0 1.085-1.962 6.706 6.706 0 0 0 .382-2.232c0-.8-.134-1.567-.403-2.303a6.272 6.272 0 0 0-1.126-1.953 5.528 5.528 0 0 0-1.714-1.353 4.734 4.734 0 0 0-2.19-.506c-.827 0-1.577.175-2.252.527a5.381 5.381 0 0 0-1.715 1.394 6.519 6.519 0 0 0-1.085 1.963 6.733 6.733 0 0 0-.382 2.231zm22.375 7.335V.603h6.198c.634 0 1.216.135 1.746.404.53.268.989.62 1.374 1.053.386.434.685.926.899 1.478.214.55.32 1.107.32 1.673 0 .537-.079 1.05-.238 1.54a4.759 4.759 0 0 1-.66 1.322 3.972 3.972 0 0 1-1.024.991 3.62 3.62 0 0 1-1.343.548l3.595 5.66h-1.632l-3.45-5.412h-4.339v5.413h-1.446zm1.446-6.694h4.793c.428 0 .817-.093 1.168-.28a2.79 2.79 0 0 0 .898-.753c.248-.318.442-.676.579-1.075.138-.4.207-.82.207-1.26 0-.442-.08-.865-.238-1.27a3.475 3.475 0 0 0-.64-1.065 3.032 3.032 0 0 0-.95-.723 2.56 2.56 0 0 0-1.148-.268h-4.669v6.694zm22.934 5.413v1.28h-9.856V.605h9.67v1.28h-8.224v5.29h7.17v1.219h-7.17v5.599h8.41zM325.26.604h1.446v14.669h-1.447zm12.458 14.669V.603h4.979c1.17 0 2.194.193 3.068.58.875.384 1.605.908 2.19 1.57a6.599 6.599 0 0 1 1.322 2.324 8.9 8.9 0 0 1 .444 2.84c0 1.116-.165 2.125-.496 3.027-.33.902-.802 1.674-1.415 2.314a6.313 6.313 0 0 1-2.21 1.488c-.86.351-1.829.527-2.903.527h-4.98zm10.557-7.355c0-.882-.124-1.692-.372-2.428a5.483 5.483 0 0 0-1.085-1.911 4.845 4.845 0 0 0-1.745-1.25c-.689-.297-1.48-.444-2.376-.444h-3.533v12.107h3.533c.909 0 1.712-.155 2.407-.465a4.888 4.888 0 0 0 1.745-1.281 5.55 5.55 0 0 0 1.064-1.922 7.672 7.672 0 0 0 .362-2.406zm15.103 6.074v1.28h-9.855V.605h9.669v1.28h-8.223v5.29h7.17v1.219h-7.17v5.599h8.409zm10.062 1.281V.603h6.197a3.8 3.8 0 0 1 1.746.404c.53.268.99.62 1.374 1.053.386.434.686.926.899 1.478.214.55.32 1.107.32 1.673 0 .537-.079 1.05-.238 1.54a4.759 4.759 0 0 1-.66 1.322 3.972 3.972 0 0 1-1.023.991 3.62 3.62 0 0 1-1.343.548l3.595 5.66h-1.633l-3.45-5.412h-4.339v5.413h-1.446zm1.445-6.694h4.794c.427 0 .816-.093 1.167-.28a2.79 2.79 0 0 0 .899-.753c.248-.318.441-.676.578-1.075.138-.4.207-.82.207-1.26 0-.442-.079-.865-.238-1.27a3.475 3.475 0 0 0-.64-1.065 3.032 3.032 0 0 0-.95-.723 2.56 2.56 0 0 0-1.147-.268h-4.67v6.694zm18.987 6.797c-1.019 0-1.952-.21-2.8-.63a6.995 6.995 0 0 1-2.179-1.674 7.627 7.627 0 0 1-1.405-2.386 7.88 7.88 0 0 1-.496-2.748c0-.979.176-1.915.527-2.81a7.73 7.73 0 0 1 1.457-2.376 7.026 7.026 0 0 1 2.19-1.642c.84-.407 1.75-.61 2.727-.61 1.02 0 1.952.217 2.8.651a7.03 7.03 0 0 1 2.169 1.705 7.879 7.879 0 0 1 1.394 2.386 7.732 7.732 0 0 1-.03 5.527 7.716 7.716 0 0 1-1.447 2.365 6.987 6.987 0 0 1-2.18 1.632 6.178 6.178 0 0 1-2.727.61zm-5.433-7.438c0 .798.131 1.567.392 2.304a6.3 6.3 0 0 0 1.116 1.963 5.519 5.519 0 0 0 1.715 1.363c.66.337 1.398.506 2.21.506.827 0 1.578-.18 2.252-.537a5.488 5.488 0 0 0 1.715-1.405 6.479 6.479 0 0 0 1.085-1.962 6.731 6.731 0 0 0 .382-2.232c0-.8-.134-1.567-.403-2.303a6.272 6.272 0 0 0-1.126-1.953 5.528 5.528 0 0 0-1.715-1.353 4.734 4.734 0 0 0-2.19-.506c-.826 0-1.576.175-2.252.527a5.381 5.381 0 0 0-1.714 1.394 6.519 6.519 0 0 0-1.085 1.963 6.733 6.733 0 0 0-.382 2.231zm29.069 7.335V3.228l-5.351 9.317h-.847l-5.351-9.317v12.045h-1.447V.603H406l5.723 10.042L417.487.604h1.467v14.669h-1.446zM428.21.604h1.219l6.095 14.669h-1.53l-1.9-4.587h-6.59l-1.88 4.587h-1.55L428.21.603zm3.553 8.946l-2.954-7.252-2.996 7.252h5.95z" stroke="#fff" stroke-width=".994"/></g></svg>