<?xml version="1.0" encoding="UTF-8" standalone="no"?><!DOCTYPE svg PUBLIC "-//W3C//DTD SVG 1.1//EN" "http://www.w3.org/Graphics/SVG/1.1/DTD/svg11.dtd"><svg width="100%" height="100%" viewBox="0 0 436 16" version="1.1" xmlns="http://www.w3.org/2000/svg" xmlns:xlink="http://www.w3.org/1999/xlink" xml:space="preserve" style="fill-rule:evenodd;clip-rule:evenodd;stroke-linejoin:round;stroke-miterlimit:1.41421;"><g transform="matrix(1.29127,0,0,1.29127,-11.0416,1.48187)"><path d="M19.658,5c0,1.098 -0.229,2.085 -0.688,2.96c-0.458,0.874 -1.093,1.56 -1.904,2.056c-0.81,0.496 -1.733,0.744 -2.768,0.744c-1.034,0 -1.957,-0.248 -2.768,-0.744c-0.81,-0.496 -1.445,-1.182 -1.904,-2.056c-0.458,-0.875 -0.688,-1.862 -0.688,-2.96c0,-1.11 0.23,-2.102 0.688,-2.976c0.459,-0.875 1.094,-1.558 1.904,-2.048c0.811,-0.491 1.734,-0.736 2.768,-0.736c1.035,0 1.958,0.245 2.768,0.736c0.811,0.49 1.446,1.173 1.904,2.048c0.459,0.874 0.688,1.866 0.688,2.976Zm-1.024,0c0,-0.928 -0.184,-1.758 -0.552,-2.488c-0.368,-0.731 -0.88,-1.299 -1.536,-1.704c-0.656,-0.406 -1.405,-0.608 -2.248,-0.608c-0.842,0 -1.592,0.202 -2.248,0.608c-0.656,0.405 -1.168,0.973 -1.536,1.704c-0.368,0.73 -0.552,1.56 -0.552,2.488c0,0.928 0.184,1.757 0.552,2.488c0.368,0.73 0.88,1.298 1.536,1.704c0.656,0.405 1.406,0.608 2.248,0.608c0.843,0 1.592,-0.203 2.248,-0.608c0.656,-0.406 1.168,-0.974 1.536,-1.704c0.368,-0.731 0.552,-1.56 0.552,-2.488Z" style="fill:none;"/><path d="M36.074,4.952c0.139,0 0.254,0.045 0.344,0.136c0.091,0.09 0.136,0.205 0.136,0.344l0,3.856c0,0.181 -0.08,0.325 -0.24,0.432c-0.48,0.33 -1.013,0.586 -1.6,0.768c-0.586,0.181 -1.184,0.272 -1.792,0.272c-1.088,0 -2.069,-0.251 -2.944,-0.752c-0.874,-0.502 -1.562,-1.19 -2.064,-2.064c-0.501,-0.875 -0.752,-1.856 -0.752,-2.944c0,-1.088 0.251,-2.07 0.752,-2.944c0.502,-0.875 1.19,-1.563 2.064,-2.064c0.875,-0.502 1.856,-0.752 2.944,-0.752c0.566,0 1.112,0.069 1.64,0.208c0.528,0.138 1,0.336 1.416,0.592c0.15,0.096 0.224,0.229 0.224,0.4c0,0.138 -0.045,0.256 -0.136,0.352c-0.09,0.096 -0.194,0.144 -0.312,0.144c-0.106,0 -0.202,-0.027 -0.288,-0.08c-0.8,-0.438 -1.648,-0.656 -2.544,-0.656c-0.906,0 -1.72,0.208 -2.44,0.624c-0.72,0.416 -1.282,0.989 -1.688,1.72c-0.405,0.73 -0.608,1.549 -0.608,2.456c0,0.906 0.203,1.725 0.608,2.456c0.406,0.73 0.968,1.304 1.688,1.72c0.72,0.416 1.534,0.624 2.44,0.624c0.459,0 0.92,-0.064 1.384,-0.192c0.464,-0.128 0.878,-0.304 1.24,-0.528l0,-3.168l-2.528,0c-0.138,0 -0.256,-0.046 -0.352,-0.136c-0.096,-0.091 -0.144,-0.206 -0.144,-0.344c0,-0.139 0.048,-0.254 0.144,-0.344c0.096,-0.091 0.214,-0.136 0.352,-0.136l3.056,0Z" style="fill:none;"/><path d="M48.17,9.96c0.022,0.085 0.032,0.149 0.032,0.192c0,0.138 -0.048,0.25 -0.144,0.336c-0.096,0.085 -0.208,0.128 -0.336,0.128c-0.106,0 -0.2,-0.03 -0.28,-0.088c-0.08,-0.059 -0.141,-0.136 -0.184,-0.232l-1.2,-2.928l-5.2,0l-1.184,2.928c-0.085,0.213 -0.229,0.32 -0.432,0.32c-0.149,0 -0.261,-0.038 -0.336,-0.112c-0.074,-0.075 -0.117,-0.176 -0.128,-0.304l0,-0.048c0,-0.064 0.006,-0.112 0.016,-0.144l4.224,-10.336c0.086,-0.214 0.246,-0.32 0.48,-0.32c0.107,0 0.2,0.029 0.28,0.088c0.08,0.058 0.142,0.136 0.184,0.232l4.208,10.288Zm-6.944,-3.536l4.448,0l-2.24,-5.472l-2.208,5.472Z" style="fill:none;"/><path d="M57.306,-0.6c0.139,0 0.254,0.042 0.344,0.128c0.091,0.085 0.136,0.197 0.136,0.336c0,0.138 -0.045,0.248 -0.136,0.328c-0.09,0.08 -0.205,0.12 -0.344,0.12l-3.312,0l0,9.808c0,0.138 -0.048,0.253 -0.144,0.344c-0.096,0.09 -0.213,0.136 -0.352,0.136c-0.149,0 -0.269,-0.046 -0.36,-0.136c-0.09,-0.091 -0.136,-0.206 -0.136,-0.344l0,-9.808l-3.312,0c-0.138,0 -0.253,-0.043 -0.344,-0.128c-0.09,-0.086 -0.136,-0.198 -0.136,-0.336c0,-0.128 0.046,-0.235 0.136,-0.32c0.091,-0.086 0.206,-0.128 0.344,-0.128l7.616,0Z" style="fill:none;"/><path d="M70.298,5c0,1.098 -0.229,2.085 -0.688,2.96c-0.458,0.874 -1.093,1.56 -1.904,2.056c-0.81,0.496 -1.733,0.744 -2.768,0.744c-1.034,0 -1.957,-0.248 -2.768,-0.744c-0.81,-0.496 -1.445,-1.182 -1.904,-2.056c-0.458,-0.875 -0.688,-1.862 -0.688,-2.96c0,-1.11 0.23,-2.102 0.688,-2.976c0.459,-0.875 1.094,-1.558 1.904,-2.048c0.811,-0.491 1.734,-0.736 2.768,-0.736c1.035,0 1.958,0.245 2.768,0.736c0.811,0.49 1.446,1.173 1.904,2.048c0.459,0.874 0.688,1.866 0.688,2.976Zm-1.024,0c0,-0.928 -0.184,-1.758 -0.552,-2.488c-0.368,-0.731 -0.88,-1.299 -1.536,-1.704c-0.656,-0.406 -1.405,-0.608 -2.248,-0.608c-0.842,0 -1.592,0.202 -2.248,0.608c-0.656,0.405 -1.168,0.973 -1.536,1.704c-0.368,0.73 -0.552,1.56 -0.552,2.488c0,0.928 0.184,1.757 0.552,2.488c0.368,0.73 0.88,1.298 1.536,1.704c0.656,0.405 1.406,0.608 2.248,0.608c0.843,0 1.592,-0.203 2.248,-0.608c0.656,-0.406 1.168,-0.974 1.536,-1.704c0.368,-0.731 0.552,-1.56 0.552,-2.488Z" style="fill:none;"/><path d="M86.714,9.736c0.16,0.106 0.24,0.24 0.24,0.4c0,0.053 -0.021,0.122 -0.064,0.208c-0.042,0.074 -0.101,0.133 -0.176,0.176c-0.074,0.042 -0.154,0.064 -0.24,0.064c-0.106,0 -0.197,-0.022 -0.272,-0.064c-0.298,-0.171 -0.538,-0.448 -0.72,-0.832c-0.181,-0.384 -0.272,-0.998 -0.272,-1.84c0,-0.747 -0.208,-1.272 -0.624,-1.576c-0.416,-0.304 -0.912,-0.456 -1.488,-0.456l-3.552,0l0,4.304c0,0.138 -0.042,0.253 -0.128,0.344c-0.085,0.09 -0.197,0.136 -0.336,0.136c-0.149,0 -0.277,-0.046 -0.384,-0.136c-0.106,-0.091 -0.16,-0.206 -0.16,-0.344l0,-10.24c0,-0.139 0.046,-0.254 0.136,-0.344c0.091,-0.091 0.206,-0.136 0.344,-0.136l4.32,0c0.608,0 1.152,0.13 1.632,0.392c0.48,0.261 0.856,0.621 1.128,1.08c0.272,0.458 0.408,0.976 0.408,1.552c0,0.682 -0.178,1.282 -0.536,1.8c-0.357,0.517 -0.824,0.872 -1.4,1.064c0.47,0.181 0.854,0.488 1.152,0.92c0.299,0.432 0.454,0.957 0.464,1.576c0.011,0.661 0.056,1.125 0.136,1.392c0.08,0.266 0.211,0.453 0.392,0.56Zm-3.328,-4.8c0.374,-0.032 0.72,-0.155 1.04,-0.368c0.32,-0.214 0.576,-0.502 0.768,-0.864c0.192,-0.363 0.288,-0.779 0.288,-1.248c0,-0.608 -0.205,-1.112 -0.616,-1.512c-0.41,-0.4 -0.946,-0.6 -1.608,-0.6l-3.712,0l0,4.592l3.84,0Z" style="fill:none;"/><path d="M99.882,5c0,1.098 -0.229,2.085 -0.688,2.96c-0.458,0.874 -1.093,1.56 -1.904,2.056c-0.81,0.496 -1.733,0.744 -2.768,0.744c-1.034,0 -1.957,-0.248 -2.768,-0.744c-0.81,-0.496 -1.445,-1.182 -1.904,-2.056c-0.458,-0.875 -0.688,-1.862 -0.688,-2.96c0,-1.11 0.23,-2.102 0.688,-2.976c0.459,-0.875 1.094,-1.558 1.904,-2.048c0.811,-0.491 1.734,-0.736 2.768,-0.736c1.035,0 1.958,0.245 2.768,0.736c0.811,0.49 1.446,1.173 1.904,2.048c0.459,0.874 0.688,1.866 0.688,2.976Zm-1.024,0c0,-0.928 -0.184,-1.758 -0.552,-2.488c-0.368,-0.731 -0.88,-1.299 -1.536,-1.704c-0.656,-0.406 -1.405,-0.608 -2.248,-0.608c-0.842,0 -1.592,0.202 -2.248,0.608c-0.656,0.405 -1.168,0.973 -1.536,1.704c-0.368,0.73 -0.552,1.56 -0.552,2.488c0,0.928 0.184,1.757 0.552,2.488c0.368,0.73 0.88,1.298 1.536,1.704c0.656,0.405 1.406,0.608 2.248,0.608c0.843,0 1.592,-0.203 2.248,-0.608c0.656,-0.406 1.168,-0.974 1.536,-1.704c0.368,-0.731 0.552,-1.56 0.552,-2.488Z" style="fill:none;"/><path d="M109.306,9.656c0.139,0 0.254,0.048 0.344,0.144c0.091,0.096 0.136,0.208 0.136,0.336c0,0.138 -0.045,0.25 -0.136,0.336c-0.09,0.085 -0.205,0.128 -0.344,0.128l-5.872,0c-0.138,0 -0.253,-0.046 -0.344,-0.136c-0.09,-0.091 -0.136,-0.206 -0.136,-0.344l0,-10.24c0,-0.139 0.046,-0.254 0.136,-0.344c0.091,-0.091 0.206,-0.136 0.344,-0.136l5.872,0c0.139,0 0.254,0.045 0.344,0.136c0.091,0.09 0.136,0.205 0.136,0.344c0,0.138 -0.045,0.25 -0.136,0.336c-0.09,0.085 -0.205,0.128 -0.344,0.128l-5.344,0l0,4.016l4.624,0c0.139,0 0.254,0.045 0.344,0.136c0.091,0.09 0.136,0.205 0.136,0.344c0,0.138 -0.045,0.25 -0.136,0.336c-0.09,0.085 -0.205,0.128 -0.344,0.128l-4.624,0l0,4.352l5.344,0Z" style="fill:none;"/><path d="M120.762,-0.6c0.139,0 0.254,0.045 0.344,0.136c0.091,0.09 0.136,0.205 0.136,0.344l0,6.624c0,0.778 -0.186,1.493 -0.56,2.144c-0.373,0.65 -0.88,1.162 -1.52,1.536c-0.64,0.373 -1.344,0.56 -2.112,0.56c-0.778,0 -1.488,-0.187 -2.128,-0.56c-0.64,-0.374 -1.146,-0.886 -1.52,-1.536c-0.373,-0.651 -0.56,-1.366 -0.56,-2.144l0,-6.624c0,-0.139 0.046,-0.254 0.136,-0.344c0.091,-0.091 0.216,-0.136 0.376,-0.136c0.128,0 0.24,0.045 0.336,0.136c0.096,0.09 0.144,0.205 0.144,0.344l0,6.624c0,0.597 0.144,1.146 0.432,1.648c0.288,0.501 0.68,0.898 1.176,1.192c0.496,0.293 1.032,0.44 1.608,0.44c0.587,0 1.128,-0.147 1.624,-0.44c0.496,-0.294 0.891,-0.691 1.184,-1.192c0.294,-0.502 0.44,-1.051 0.44,-1.648l0,-6.624c0,-0.139 0.043,-0.254 0.128,-0.344c0.086,-0.091 0.198,-0.136 0.336,-0.136Z" style="fill:none;"/><path d="M138.57,9.96c0.022,0.085 0.032,0.149 0.032,0.192c0,0.138 -0.048,0.25 -0.144,0.336c-0.096,0.085 -0.208,0.128 -0.336,0.128c-0.106,0 -0.2,-0.03 -0.28,-0.088c-0.08,-0.059 -0.141,-0.136 -0.184,-0.232l-1.2,-2.928l-5.2,0l-1.184,2.928c-0.085,0.213 -0.229,0.32 -0.432,0.32c-0.149,0 -0.261,-0.038 -0.336,-0.112c-0.074,-0.075 -0.117,-0.176 -0.128,-0.304l0,-0.048c0,-0.064 0.006,-0.112 0.016,-0.144l4.224,-10.336c0.086,-0.214 0.246,-0.32 0.48,-0.32c0.107,0 0.2,0.029 0.28,0.088c0.08,0.058 0.142,0.136 0.184,0.232l4.208,10.288Zm-6.944,-3.536l4.448,0l-2.24,-5.472l-2.208,5.472Z" style="fill:none;"/><path d="M154.714,9.736c0.16,0.106 0.24,0.24 0.24,0.4c0,0.053 -0.021,0.122 -0.064,0.208c-0.042,0.074 -0.101,0.133 -0.176,0.176c-0.074,0.042 -0.154,0.064 -0.24,0.064c-0.106,0 -0.197,-0.022 -0.272,-0.064c-0.298,-0.171 -0.538,-0.448 -0.72,-0.832c-0.181,-0.384 -0.272,-0.998 -0.272,-1.84c0,-0.747 -0.208,-1.272 -0.624,-1.576c-0.416,-0.304 -0.912,-0.456 -1.488,-0.456l-3.552,0l0,4.304c0,0.138 -0.042,0.253 -0.128,0.344c-0.085,0.09 -0.197,0.136 -0.336,0.136c-0.149,0 -0.277,-0.046 -0.384,-0.136c-0.106,-0.091 -0.16,-0.206 -0.16,-0.344l0,-10.24c0,-0.139 0.046,-0.254 0.136,-0.344c0.091,-0.091 0.206,-0.136 0.344,-0.136l4.32,0c0.608,0 1.152,0.13 1.632,0.392c0.48,0.261 0.856,0.621 1.128,1.08c0.272,0.458 0.408,0.976 0.408,1.552c0,0.682 -0.178,1.282 -0.536,1.8c-0.357,0.517 -0.824,0.872 -1.4,1.064c0.47,0.181 0.854,0.488 1.152,0.92c0.299,0.432 0.454,0.957 0.464,1.576c0.011,0.661 0.056,1.125 0.136,1.392c0.08,0.266 0.211,0.453 0.392,0.56Zm-3.328,-4.8c0.374,-0.032 0.72,-0.155 1.04,-0.368c0.32,-0.214 0.576,-0.502 0.768,-0.864c0.192,-0.363 0.288,-0.779 0.288,-1.248c0,-0.608 -0.205,-1.112 -0.616,-1.512c-0.41,-0.4 -0.946,-0.6 -1.608,-0.6l-3.712,0l0,4.592l3.84,0Z" style="fill:none;"/><path d="M167.882,5c0,1.098 -0.229,2.085 -0.688,2.96c-0.458,0.874 -1.093,1.56 -1.904,2.056c-0.81,0.496 -1.733,0.744 -2.768,0.744c-1.034,0 -1.957,-0.248 -2.768,-0.744c-0.81,-0.496 -1.445,-1.182 -1.904,-2.056c-0.458,-0.875 -0.688,-1.862 -0.688,-2.96c0,-1.11 0.23,-2.102 0.688,-2.976c0.459,-0.875 1.094,-1.558 1.904,-2.048c0.811,-0.491 1.734,-0.736 2.768,-0.736c1.035,0 1.958,0.245 2.768,0.736c0.811,0.49 1.446,1.173 1.904,2.048c0.459,0.874 0.688,1.866 0.688,2.976Zm-1.024,0c0,-0.928 -0.184,-1.758 -0.552,-2.488c-0.368,-0.731 -0.88,-1.299 -1.536,-1.704c-0.656,-0.406 -1.405,-0.608 -2.248,-0.608c-0.842,0 -1.592,0.202 -2.248,0.608c-0.656,0.405 -1.168,0.973 -1.536,1.704c-0.368,0.73 -0.552,1.56 -0.552,2.488c0,0.928 0.184,1.757 0.552,2.488c0.368,0.73 0.88,1.298 1.536,1.704c0.656,0.405 1.406,0.608 2.248,0.608c0.843,0 1.592,-0.203 2.248,-0.608c0.656,-0.406 1.168,-0.974 1.536,-1.704c0.368,-0.731 0.552,-1.56 0.552,-2.488Z" style="fill:none;"/><path d="M178.874,-0.6c0.139,0 0.254,0.045 0.344,0.136c0.091,0.09 0.136,0.205 0.136,0.344l0,6.624c0,0.778 -0.186,1.493 -0.56,2.144c-0.373,0.65 -0.88,1.162 -1.52,1.536c-0.64,0.373 -1.344,0.56 -2.112,0.56c-0.778,0 -1.488,-0.187 -2.128,-0.56c-0.64,-0.374 -1.146,-0.886 -1.52,-1.536c-0.373,-0.651 -0.56,-1.366 -0.56,-2.144l0,-6.624c0,-0.139 0.046,-0.254 0.136,-0.344c0.091,-0.091 0.216,-0.136 0.376,-0.136c0.128,0 0.24,0.045 0.336,0.136c0.096,0.09 0.144,0.205 0.144,0.344l0,6.624c0,0.597 0.144,1.146 0.432,1.648c0.288,0.501 0.68,0.898 1.176,1.192c0.496,0.293 1.032,0.44 1.608,0.44c0.587,0 1.128,-0.147 1.624,-0.44c0.496,-0.294 0.891,-0.691 1.184,-1.192c0.294,-0.502 0.44,-1.051 0.44,-1.648l0,-6.624c0,-0.139 0.043,-0.254 0.128,-0.344c0.086,-0.091 0.198,-0.136 0.336,-0.136Z" style="fill:none;"/><path d="M187.434,-0.6c0.587,0 1.115,0.136 1.584,0.408c0.47,0.272 0.835,0.65 1.096,1.136c0.262,0.485 0.392,1.032 0.392,1.64c0,0.608 -0.13,1.162 -0.392,1.664c-0.261,0.501 -0.626,0.896 -1.096,1.184c-0.469,0.288 -0.997,0.432 -1.584,0.432l-3.312,0l0,4.256c0,0.138 -0.045,0.253 -0.136,0.344c-0.09,0.09 -0.205,0.136 -0.344,0.136c-0.138,0 -0.253,-0.046 -0.344,-0.136c-0.09,-0.091 -0.136,-0.206 -0.136,-0.344l0,-10.24c0,-0.139 0.046,-0.254 0.136,-0.344c0.091,-0.091 0.206,-0.136 0.344,-0.136l3.792,0Zm0,5.536c0.619,0 1.12,-0.224 1.504,-0.672c0.384,-0.448 0.576,-1.008 0.576,-1.68c0,-0.662 -0.192,-1.2 -0.576,-1.616c-0.384,-0.416 -0.885,-0.624 -1.504,-0.624l-3.312,0l0,4.592l3.312,0Z" style="fill:none;"/><path d="M201.21,9.96c0.022,0.085 0.032,0.149 0.032,0.192c0,0.138 -0.048,0.25 -0.144,0.336c-0.096,0.085 -0.208,0.128 -0.336,0.128c-0.106,0 -0.2,-0.03 -0.28,-0.088c-0.08,-0.059 -0.141,-0.136 -0.184,-0.232l-1.2,-2.928l-5.2,0l-1.184,2.928c-0.085,0.213 -0.229,0.32 -0.432,0.32c-0.149,0 -0.261,-0.038 -0.336,-0.112c-0.074,-0.075 -0.117,-0.176 -0.128,-0.304l0,-0.048c0,-0.064 0.006,-0.112 0.016,-0.144l4.224,-10.336c0.086,-0.214 0.246,-0.32 0.48,-0.32c0.107,0 0.2,0.029 0.28,0.088c0.08,0.058 0.142,0.136 0.184,0.232l4.208,10.288Zm-6.944,-3.536l4.448,0l-2.24,-5.472l-2.208,5.472Z" style="fill:none;"/><path d="M213.738,-0.6c1.024,0 1.886,0.253 2.584,0.76c0.699,0.506 1.222,1.184 1.568,2.032c0.347,0.848 0.52,1.784 0.52,2.808c0,1.056 -0.173,2.005 -0.52,2.848c-0.346,0.842 -0.869,1.512 -1.568,2.008c-0.698,0.496 -1.56,0.744 -2.584,0.744l-4.08,0c-0.138,0 -0.253,-0.046 -0.344,-0.136c-0.09,-0.091 -0.136,-0.206 -0.136,-0.344l0,-10.24c0,-0.139 0.046,-0.254 0.136,-0.344c0.091,-0.091 0.206,-0.136 0.344,-0.136l4.08,0Zm-0.16,10.256c1.28,0 2.235,-0.43 2.864,-1.288c0.63,-0.859 0.944,-1.982 0.944,-3.368c0,-0.864 -0.133,-1.646 -0.4,-2.344c-0.266,-0.699 -0.685,-1.259 -1.256,-1.68c-0.57,-0.422 -1.288,-0.632 -2.152,-0.632l-3.392,0l0,9.312l3.392,0Z" style="fill:none;"/><path d="M231.466,5c0,1.098 -0.229,2.085 -0.688,2.96c-0.458,0.874 -1.093,1.56 -1.904,2.056c-0.81,0.496 -1.733,0.744 -2.768,0.744c-1.034,0 -1.957,-0.248 -2.768,-0.744c-0.81,-0.496 -1.445,-1.182 -1.904,-2.056c-0.458,-0.875 -0.688,-1.862 -0.688,-2.96c0,-1.11 0.23,-2.102 0.688,-2.976c0.459,-0.875 1.094,-1.558 1.904,-2.048c0.811,-0.491 1.734,-0.736 2.768,-0.736c1.035,0 1.958,0.245 2.768,0.736c0.811,0.49 1.446,1.173 1.904,2.048c0.459,0.874 0.688,1.866 0.688,2.976Zm-1.024,0c0,-0.928 -0.184,-1.758 -0.552,-2.488c-0.368,-0.731 -0.88,-1.299 -1.536,-1.704c-0.656,-0.406 -1.405,-0.608 -2.248,-0.608c-0.842,0 -1.592,0.202 -2.248,0.608c-0.656,0.405 -1.168,0.973 -1.536,1.704c-0.368,0.73 -0.552,1.56 -0.552,2.488c0,0.928 0.184,1.757 0.552,2.488c0.368,0.73 0.88,1.298 1.536,1.704c0.656,0.405 1.406,0.608 2.248,0.608c0.843,0 1.592,-0.203 2.248,-0.608c0.656,-0.406 1.168,-0.974 1.536,-1.704c0.368,-0.731 0.552,-1.56 0.552,-2.488Z" style="fill:none;"/><path d="M247.882,9.736c0.16,0.106 0.24,0.24 0.24,0.4c0,0.053 -0.021,0.122 -0.064,0.208c-0.042,0.074 -0.101,0.133 -0.176,0.176c-0.074,0.042 -0.154,0.064 -0.24,0.064c-0.106,0 -0.197,-0.022 -0.272,-0.064c-0.298,-0.171 -0.538,-0.448 -0.72,-0.832c-0.181,-0.384 -0.272,-0.998 -0.272,-1.84c0,-0.747 -0.208,-1.272 -0.624,-1.576c-0.416,-0.304 -0.912,-0.456 -1.488,-0.456l-3.552,0l0,4.304c0,0.138 -0.042,0.253 -0.128,0.344c-0.085,0.09 -0.197,0.136 -0.336,0.136c-0.149,0 -0.277,-0.046 -0.384,-0.136c-0.106,-0.091 -0.16,-0.206 -0.16,-0.344l0,-10.24c0,-0.139 0.046,-0.254 0.136,-0.344c0.091,-0.091 0.206,-0.136 0.344,-0.136l4.32,0c0.608,0 1.152,0.13 1.632,0.392c0.48,0.261 0.856,0.621 1.128,1.08c0.272,0.458 0.408,0.976 0.408,1.552c0,0.682 -0.178,1.282 -0.536,1.8c-0.357,0.517 -0.824,0.872 -1.4,1.064c0.47,0.181 0.854,0.488 1.152,0.92c0.299,0.432 0.454,0.957 0.464,1.576c0.011,0.661 0.056,1.125 0.136,1.392c0.08,0.266 0.211,0.453 0.392,0.56Zm-3.328,-4.8c0.374,-0.032 0.72,-0.155 1.04,-0.368c0.32,-0.214 0.576,-0.502 0.768,-0.864c0.192,-0.363 0.288,-0.779 0.288,-1.248c0,-0.608 -0.205,-1.112 -0.616,-1.512c-0.41,-0.4 -0.946,-0.6 -1.608,-0.6l-3.712,0l0,4.592l3.84,0Z" style="fill:none;"/><path d="M257.578,9.656c0.139,0 0.254,0.048 0.344,0.144c0.091,0.096 0.136,0.208 0.136,0.336c0,0.138 -0.045,0.25 -0.136,0.336c-0.09,0.085 -0.205,0.128 -0.344,0.128l-5.872,0c-0.138,0 -0.253,-0.046 -0.344,-0.136c-0.09,-0.091 -0.136,-0.206 -0.136,-0.344l0,-10.24c0,-0.139 0.046,-0.254 0.136,-0.344c0.091,-0.091 0.206,-0.136 0.344,-0.136l5.872,0c0.139,0 0.254,0.045 0.344,0.136c0.091,0.09 0.136,0.205 0.136,0.344c0,0.138 -0.045,0.25 -0.136,0.336c-0.09,0.085 -0.205,0.128 -0.344,0.128l-5.344,0l0,4.016l4.624,0c0.139,0 0.254,0.045 0.344,0.136c0.091,0.09 0.136,0.205 0.136,0.344c0,0.138 -0.045,0.25 -0.136,0.336c-0.09,0.085 -0.205,0.128 -0.344,0.128l-4.624,0l0,4.352l5.344,0Z" style="fill:none;"/><path d="M262.122,10.104c-0.01,0.138 -0.064,0.256 -0.16,0.352c-0.096,0.096 -0.213,0.144 -0.352,0.144c-0.149,0 -0.269,-0.046 -0.36,-0.136c-0.09,-0.091 -0.136,-0.211 -0.136,-0.36l0,-10.208c0,-0.15 0.048,-0.27 0.144,-0.36c0.096,-0.091 0.219,-0.136 0.368,-0.136c0.139,0 0.256,0.048 0.352,0.144c0.096,0.096 0.144,0.213 0.144,0.352l0,10.208Z" style="fill:none;"/><path d="M275.642,-0.6c1.024,0 1.886,0.253 2.584,0.76c0.699,0.506 1.222,1.184 1.568,2.032c0.347,0.848 0.52,1.784 0.52,2.808c0,1.056 -0.173,2.005 -0.52,2.848c-0.346,0.842 -0.869,1.512 -1.568,2.008c-0.698,0.496 -1.56,0.744 -2.584,0.744l-4.08,0c-0.138,0 -0.253,-0.046 -0.344,-0.136c-0.09,-0.091 -0.136,-0.206 -0.136,-0.344l0,-10.24c0,-0.139 0.046,-0.254 0.136,-0.344c0.091,-0.091 0.206,-0.136 0.344,-0.136l4.08,0Zm-0.16,10.256c1.28,0 2.235,-0.43 2.864,-1.288c0.63,-0.859 0.944,-1.982 0.944,-3.368c0,-0.864 -0.133,-1.646 -0.4,-2.344c-0.266,-0.699 -0.685,-1.259 -1.256,-1.68c-0.57,-0.422 -1.288,-0.632 -2.152,-0.632l-3.392,0l0,9.312l3.392,0Z" style="fill:none;"/><path d="M289.738,9.656c0.139,0 0.254,0.048 0.344,0.144c0.091,0.096 0.136,0.208 0.136,0.336c0,0.138 -0.045,0.25 -0.136,0.336c-0.09,0.085 -0.205,0.128 -0.344,0.128l-5.872,0c-0.138,0 -0.253,-0.046 -0.344,-0.136c-0.09,-0.091 -0.136,-0.206 -0.136,-0.344l0,-10.24c0,-0.139 0.046,-0.254 0.136,-0.344c0.091,-0.091 0.206,-0.136 0.344,-0.136l5.872,0c0.139,0 0.254,0.045 0.344,0.136c0.091,0.09 0.136,0.205 0.136,0.344c0,0.138 -0.045,0.25 -0.136,0.336c-0.09,0.085 -0.205,0.128 -0.344,0.128l-5.344,0l0,4.016l4.624,0c0.139,0 0.254,0.045 0.344,0.136c0.091,0.09 0.136,0.205 0.136,0.344c0,0.138 -0.045,0.25 -0.136,0.336c-0.09,0.085 -0.205,0.128 -0.344,0.128l-4.624,0l0,4.352l5.344,0Z" style="fill:none;"/><path d="M306.618,9.736c0.16,0.106 0.24,0.24 0.24,0.4c0,0.053 -0.021,0.122 -0.064,0.208c-0.042,0.074 -0.101,0.133 -0.176,0.176c-0.074,0.042 -0.154,0.064 -0.24,0.064c-0.106,0 -0.197,-0.022 -0.272,-0.064c-0.298,-0.171 -0.538,-0.448 -0.72,-0.832c-0.181,-0.384 -0.272,-0.998 -0.272,-1.84c0,-0.747 -0.208,-1.272 -0.624,-1.576c-0.416,-0.304 -0.912,-0.456 -1.488,-0.456l-3.552,0l0,4.304c0,0.138 -0.042,0.253 -0.128,0.344c-0.085,0.09 -0.197,0.136 -0.336,0.136c-0.149,0 -0.277,-0.046 -0.384,-0.136c-0.106,-0.091 -0.16,-0.206 -0.16,-0.344l0,-10.24c0,-0.139 0.046,-0.254 0.136,-0.344c0.091,-0.091 0.206,-0.136 0.344,-0.136l4.32,0c0.608,0 1.152,0.13 1.632,0.392c0.48,0.261 0.856,0.621 1.128,1.08c0.272,0.458 0.408,0.976 0.408,1.552c0,0.682 -0.178,1.282 -0.536,1.8c-0.357,0.517 -0.824,0.872 -1.4,1.064c0.47,0.181 0.854,0.488 1.152,0.92c0.299,0.432 0.454,0.957 0.464,1.576c0.011,0.661 0.056,1.125 0.136,1.392c0.08,0.266 0.211,0.453 0.392,0.56Zm-3.328,-4.8c0.374,-0.032 0.72,-0.155 1.04,-0.368c0.32,-0.214 0.576,-0.502 0.768,-0.864c0.192,-0.363 0.288,-0.779 0.288,-1.248c0,-0.608 -0.205,-1.112 -0.616,-1.512c-0.41,-0.4 -0.946,-0.6 -1.608,-0.6l-3.712,0l0,4.592l3.84,0Z" style="fill:none;"/><path d="M319.786,5c0,1.098 -0.229,2.085 -0.688,2.96c-0.458,0.874 -1.093,1.56 -1.904,2.056c-0.81,0.496 -1.733,0.744 -2.768,0.744c-1.034,0 -1.957,-0.248 -2.768,-0.744c-0.81,-0.496 -1.445,-1.182 -1.904,-2.056c-0.458,-0.875 -0.688,-1.862 -0.688,-2.96c0,-1.11 0.23,-2.102 0.688,-2.976c0.459,-0.875 1.094,-1.558 1.904,-2.048c0.811,-0.491 1.734,-0.736 2.768,-0.736c1.035,0 1.958,0.245 2.768,0.736c0.811,0.49 1.446,1.173 1.904,2.048c0.459,0.874 0.688,1.866 0.688,2.976Zm-1.024,0c0,-0.928 -0.184,-1.758 -0.552,-2.488c-0.368,-0.731 -0.88,-1.299 -1.536,-1.704c-0.656,-0.406 -1.405,-0.608 -2.248,-0.608c-0.842,0 -1.592,0.202 -2.248,0.608c-0.656,0.405 -1.168,0.973 -1.536,1.704c-0.368,0.73 -0.552,1.56 -0.552,2.488c0,0.928 0.184,1.757 0.552,2.488c0.368,0.73 0.88,1.298 1.536,1.704c0.656,0.405 1.406,0.608 2.248,0.608c0.843,0 1.592,-0.203 2.248,-0.608c0.656,-0.406 1.168,-0.974 1.536,-1.704c0.368,-0.731 0.552,-1.56 0.552,-2.488Z" style="fill:none;"/><path d="M332.618,-0.6c0.128,0 0.238,0.045 0.328,0.136c0.091,0.09 0.136,0.205 0.136,0.344l0,10.24c0,0.138 -0.048,0.253 -0.144,0.344c-0.096,0.09 -0.213,0.136 -0.352,0.136c-0.149,0 -0.272,-0.046 -0.368,-0.136c-0.096,-0.091 -0.144,-0.206 -0.144,-0.344l0,-8.8l-3.76,5.696c-0.106,0.138 -0.229,0.202 -0.368,0.192l-0.032,0c-0.128,0 -0.245,-0.064 -0.352,-0.192l-3.76,-5.728l0,8.832c0,0.138 -0.045,0.253 -0.136,0.344c-0.09,0.09 -0.205,0.136 -0.344,0.136c-0.138,0 -0.25,-0.046 -0.336,-0.136c-0.085,-0.091 -0.128,-0.206 -0.128,-0.344l0,-10.24c0,-0.128 0.046,-0.24 0.136,-0.336c0.091,-0.096 0.206,-0.144 0.344,-0.144c0.075,0 0.155,0.018 0.24,0.056c0.086,0.037 0.15,0.088 0.192,0.152l4.192,6.288l4.224,-6.288c0.118,-0.16 0.262,-0.23 0.432,-0.208Z" style="fill:none;"/><path d="M345.242,9.96c0.022,0.085 0.032,0.149 0.032,0.192c0,0.138 -0.048,0.25 -0.144,0.336c-0.096,0.085 -0.208,0.128 -0.336,0.128c-0.106,0 -0.2,-0.03 -0.28,-0.088c-0.08,-0.059 -0.141,-0.136 -0.184,-0.232l-1.2,-2.928l-5.2,0l-1.184,2.928c-0.085,0.213 -0.229,0.32 -0.432,0.32c-0.149,0 -0.261,-0.038 -0.336,-0.112c-0.074,-0.075 -0.117,-0.176 -0.128,-0.304l0,-0.048c0,-0.064 0.006,-0.112 0.016,-0.144l4.224,-10.336c0.086,-0.214 0.246,-0.32 0.48,-0.32c0.107,0 0.2,0.029 0.28,0.088c0.08,0.058 0.142,0.136 0.184,0.232l4.208,10.288Zm-6.944,-3.536l4.448,0l-2.24,-5.472l-2.208,5.472Z" style="fill:none;"/><path d="M19.658,5c0,1.098 -0.229,2.085 -0.688,2.96c-0.458,0.874 -1.093,1.56 -1.904,2.056c-0.81,0.496 -1.733,0.744 -2.768,0.744c-1.034,0 -1.957,-0.248 -2.768,-0.744c-0.81,-0.496 -1.445,-1.182 -1.904,-2.056c-0.458,-0.875 -0.688,-1.862 -0.688,-2.96c0,-1.11 0.23,-2.102 0.688,-2.976c0.459,-0.875 1.094,-1.558 1.904,-2.048c0.811,-0.491 1.734,-0.736 2.768,-0.736c1.035,0 1.958,0.245 2.768,0.736c0.811,0.49 1.446,1.173 1.904,2.048c0.459,0.874 0.688,1.866 0.688,2.976Zm-1.024,0c0,-0.928 -0.184,-1.758 -0.552,-2.488c-0.368,-0.731 -0.88,-1.299 -1.536,-1.704c-0.656,-0.406 -1.405,-0.608 -2.248,-0.608c-0.842,0 -1.592,0.202 -2.248,0.608c-0.656,0.405 -1.168,0.973 -1.536,1.704c-0.368,0.73 -0.552,1.56 -0.552,2.488c0,0.928 0.184,1.757 0.552,2.488c0.368,0.73 0.88,1.298 1.536,1.704c0.656,0.405 1.406,0.608 2.248,0.608c0.843,0 1.592,-0.203 2.248,-0.608c0.656,-0.406 1.168,-0.974 1.536,-1.704c0.368,-0.731 0.552,-1.56 0.552,-2.488Z" style="fill:none;stroke:#fff;stroke-width:0.77px;"/><path d="M36.074,4.952c0.139,0 0.254,0.045 0.344,0.136c0.091,0.09 0.136,0.205 0.136,0.344l0,3.856c0,0.181 -0.08,0.325 -0.24,0.432c-0.48,0.33 -1.013,0.586 -1.6,0.768c-0.586,0.181 -1.184,0.272 -1.792,0.272c-1.088,0 -2.069,-0.251 -2.944,-0.752c-0.874,-0.502 -1.562,-1.19 -2.064,-2.064c-0.501,-0.875 -0.752,-1.856 -0.752,-2.944c0,-1.088 0.251,-2.07 0.752,-2.944c0.502,-0.875 1.19,-1.563 2.064,-2.064c0.875,-0.502 1.856,-0.752 2.944,-0.752c0.566,0 1.112,0.069 1.64,0.208c0.528,0.138 1,0.336 1.416,0.592c0.15,0.096 0.224,0.229 0.224,0.4c0,0.138 -0.045,0.256 -0.136,0.352c-0.09,0.096 -0.194,0.144 -0.312,0.144c-0.106,0 -0.202,-0.027 -0.288,-0.08c-0.8,-0.438 -1.648,-0.656 -2.544,-0.656c-0.906,0 -1.72,0.208 -2.44,0.624c-0.72,0.416 -1.282,0.989 -1.688,1.72c-0.405,0.73 -0.608,1.549 -0.608,2.456c0,0.906 0.203,1.725 0.608,2.456c0.406,0.73 0.968,1.304 1.688,1.72c0.72,0.416 1.534,0.624 2.44,0.624c0.459,0 0.92,-0.064 1.384,-0.192c0.464,-0.128 0.878,-0.304 1.24,-0.528l0,-3.168l-2.528,0c-0.138,0 -0.256,-0.046 -0.352,-0.136c-0.096,-0.091 -0.144,-0.206 -0.144,-0.344c0,-0.139 0.048,-0.254 0.144,-0.344c0.096,-0.091 0.214,-0.136 0.352,-0.136l3.056,0Z" style="fill:none;stroke:#fff;stroke-width:0.77px;"/><path d="M48.17,9.96c0.022,0.085 0.032,0.149 0.032,0.192c0,0.138 -0.048,0.25 -0.144,0.336c-0.096,0.085 -0.208,0.128 -0.336,0.128c-0.106,0 -0.2,-0.03 -0.28,-0.088c-0.08,-0.059 -0.141,-0.136 -0.184,-0.232l-1.2,-2.928l-5.2,0l-1.184,2.928c-0.085,0.213 -0.229,0.32 -0.432,0.32c-0.149,0 -0.261,-0.038 -0.336,-0.112c-0.074,-0.075 -0.117,-0.176 -0.128,-0.304l0,-0.048c0,-0.064 0.006,-0.112 0.016,-0.144l4.224,-10.336c0.086,-0.214 0.246,-0.32 0.48,-0.32c0.107,0 0.2,0.029 0.28,0.088c0.08,0.058 0.142,0.136 0.184,0.232l4.208,10.288Zm-6.944,-3.536l4.448,0l-2.24,-5.472l-2.208,5.472Z" style="fill:none;stroke:#fff;stroke-width:0.77px;"/><path d="M57.306,-0.6c0.139,0 0.254,0.042 0.344,0.128c0.091,0.085 0.136,0.197 0.136,0.336c0,0.138 -0.045,0.248 -0.136,0.328c-0.09,0.08 -0.205,0.12 -0.344,0.12l-3.312,0l0,9.808c0,0.138 -0.048,0.253 -0.144,0.344c-0.096,0.09 -0.213,0.136 -0.352,0.136c-0.149,0 -0.269,-0.046 -0.36,-0.136c-0.09,-0.091 -0.136,-0.206 -0.136,-0.344l0,-9.808l-3.312,0c-0.138,0 -0.253,-0.043 -0.344,-0.128c-0.09,-0.086 -0.136,-0.198 -0.136,-0.336c0,-0.128 0.046,-0.235 0.136,-0.32c0.091,-0.086 0.206,-0.128 0.344,-0.128l7.616,0Z" style="fill:none;stroke:#fff;stroke-width:0.77px;"/><path d="M70.298,5c0,1.098 -0.229,2.085 -0.688,2.96c-0.458,0.874 -1.093,1.56 -1.904,2.056c-0.81,0.496 -1.733,0.744 -2.768,0.744c-1.034,0 -1.957,-0.248 -2.768,-0.744c-0.81,-0.496 -1.445,-1.182 -1.904,-2.056c-0.458,-0.875 -0.688,-1.862 -0.688,-2.96c0,-1.11 0.23,-2.102 0.688,-2.976c0.459,-0.875 1.094,-1.558 1.904,-2.048c0.811,-0.491 1.734,-0.736 2.768,-0.736c1.035,0 1.958,0.245 2.768,0.736c0.811,0.49 1.446,1.173 1.904,2.048c0.459,0.874 0.688,1.866 0.688,2.976Zm-1.024,0c0,-0.928 -0.184,-1.758 -0.552,-2.488c-0.368,-0.731 -0.88,-1.299 -1.536,-1.704c-0.656,-0.406 -1.405,-0.608 -2.248,-0.608c-0.842,0 -1.592,0.202 -2.248,0.608c-0.656,0.405 -1.168,0.973 -1.536,1.704c-0.368,0.73 -0.552,1.56 -0.552,2.488c0,0.928 0.184,1.757 0.552,2.488c0.368,0.73 0.88,1.298 1.536,1.704c0.656,0.405 1.406,0.608 2.248,0.608c0.843,0 1.592,-0.203 2.248,-0.608c0.656,-0.406 1.168,-0.974 1.536,-1.704c0.368,-0.731 0.552,-1.56 0.552,-2.488Z" style="fill:none;stroke:#fff;stroke-width:0.77px;"/><path d="M86.714,9.736c0.16,0.106 0.24,0.24 0.24,0.4c0,0.053 -0.021,0.122 -0.064,0.208c-0.042,0.074 -0.101,0.133 -0.176,0.176c-0.074,0.042 -0.154,0.064 -0.24,0.064c-0.106,0 -0.197,-0.022 -0.272,-0.064c-0.298,-0.171 -0.538,-0.448 -0.72,-0.832c-0.181,-0.384 -0.272,-0.998 -0.272,-1.84c0,-0.747 -0.208,-1.272 -0.624,-1.576c-0.416,-0.304 -0.912,-0.456 -1.488,-0.456l-3.552,0l0,4.304c0,0.138 -0.042,0.253 -0.128,0.344c-0.085,0.09 -0.197,0.136 -0.336,0.136c-0.149,0 -0.277,-0.046 -0.384,-0.136c-0.106,-0.091 -0.16,-0.206 -0.16,-0.344l0,-10.24c0,-0.139 0.046,-0.254 0.136,-0.344c0.091,-0.091 0.206,-0.136 0.344,-0.136l4.32,0c0.608,0 1.152,0.13 1.632,0.392c0.48,0.261 0.856,0.621 1.128,1.08c0.272,0.458 0.408,0.976 0.408,1.552c0,0.682 -0.178,1.282 -0.536,1.8c-0.357,0.517 -0.824,0.872 -1.4,1.064c0.47,0.181 0.854,0.488 1.152,0.92c0.299,0.432 0.454,0.957 0.464,1.576c0.011,0.661 0.056,1.125 0.136,1.392c0.08,0.266 0.211,0.453 0.392,0.56Zm-3.328,-4.8c0.374,-0.032 0.72,-0.155 1.04,-0.368c0.32,-0.214 0.576,-0.502 0.768,-0.864c0.192,-0.363 0.288,-0.779 0.288,-1.248c0,-0.608 -0.205,-1.112 -0.616,-1.512c-0.41,-0.4 -0.946,-0.6 -1.608,-0.6l-3.712,0l0,4.592l3.84,0Z" style="fill:none;stroke:#fff;stroke-width:0.77px;"/><path d="M99.882,5c0,1.098 -0.229,2.085 -0.688,2.96c-0.458,0.874 -1.093,1.56 -1.904,2.056c-0.81,0.496 -1.733,0.744 -2.768,0.744c-1.034,0 -1.957,-0.248 -2.768,-0.744c-0.81,-0.496 -1.445,-1.182 -1.904,-2.056c-0.458,-0.875 -0.688,-1.862 -0.688,-2.96c0,-1.11 0.23,-2.102 0.688,-2.976c0.459,-0.875 1.094,-1.558 1.904,-2.048c0.811,-0.491 1.734,-0.736 2.768,-0.736c1.035,0 1.958,0.245 2.768,0.736c0.811,0.49 1.446,1.173 1.904,2.048c0.459,0.874 0.688,1.866 0.688,2.976Zm-1.024,0c0,-0.928 -0.184,-1.758 -0.552,-2.488c-0.368,-0.731 -0.88,-1.299 -1.536,-1.704c-0.656,-0.406 -1.405,-0.608 -2.248,-0.608c-0.842,0 -1.592,0.202 -2.248,0.608c-0.656,0.405 -1.168,0.973 -1.536,1.704c-0.368,0.73 -0.552,1.56 -0.552,2.488c0,0.928 0.184,1.757 0.552,2.488c0.368,0.73 0.88,1.298 1.536,1.704c0.656,0.405 1.406,0.608 2.248,0.608c0.843,0 1.592,-0.203 2.248,-0.608c0.656,-0.406 1.168,-0.974 1.536,-1.704c0.368,-0.731 0.552,-1.56 0.552,-2.488Z" style="fill:none;stroke:#fff;stroke-width:0.77px;"/><path d="M109.306,9.656c0.139,0 0.254,0.048 0.344,0.144c0.091,0.096 0.136,0.208 0.136,0.336c0,0.138 -0.045,0.25 -0.136,0.336c-0.09,0.085 -0.205,0.128 -0.344,0.128l-5.872,0c-0.138,0 -0.253,-0.046 -0.344,-0.136c-0.09,-0.091 -0.136,-0.206 -0.136,-0.344l0,-10.24c0,-0.139 0.046,-0.254 0.136,-0.344c0.091,-0.091 0.206,-0.136 0.344,-0.136l5.872,0c0.139,0 0.254,0.045 0.344,0.136c0.091,0.09 0.136,0.205 0.136,0.344c0,0.138 -0.045,0.25 -0.136,0.336c-0.09,0.085 -0.205,0.128 -0.344,0.128l-5.344,0l0,4.016l4.624,0c0.139,0 0.254,0.045 0.344,0.136c0.091,0.09 0.136,0.205 0.136,0.344c0,0.138 -0.045,0.25 -0.136,0.336c-0.09,0.085 -0.205,0.128 -0.344,0.128l-4.624,0l0,4.352l5.344,0Z" style="fill:none;stroke:#fff;stroke-width:0.77px;"/><path d="M120.762,-0.6c0.139,0 0.254,0.045 0.344,0.136c0.091,0.09 0.136,0.205 0.136,0.344l0,6.624c0,0.778 -0.186,1.493 -0.56,2.144c-0.373,0.65 -0.88,1.162 -1.52,1.536c-0.64,0.373 -1.344,0.56 -2.112,0.56c-0.778,0 -1.488,-0.187 -2.128,-0.56c-0.64,-0.374 -1.146,-0.886 -1.52,-1.536c-0.373,-0.651 -0.56,-1.366 -0.56,-2.144l0,-6.624c0,-0.139 0.046,-0.254 0.136,-0.344c0.091,-0.091 0.216,-0.136 0.376,-0.136c0.128,0 0.24,0.045 0.336,0.136c0.096,0.09 0.144,0.205 0.144,0.344l0,6.624c0,0.597 0.144,1.146 0.432,1.648c0.288,0.501 0.68,0.898 1.176,1.192c0.496,0.293 1.032,0.44 1.608,0.44c0.587,0 1.128,-0.147 1.624,-0.44c0.496,-0.294 0.891,-0.691 1.184,-1.192c0.294,-0.502 0.44,-1.051 0.44,-1.648l0,-6.624c0,-0.139 0.043,-0.254 0.128,-0.344c0.086,-0.091 0.198,-0.136 0.336,-0.136Z" style="fill:none;stroke:#fff;stroke-width:0.77px;"/><path d="M138.57,9.96c0.022,0.085 0.032,0.149 0.032,0.192c0,0.138 -0.048,0.25 -0.144,0.336c-0.096,0.085 -0.208,0.128 -0.336,0.128c-0.106,0 -0.2,-0.03 -0.28,-0.088c-0.08,-0.059 -0.141,-0.136 -0.184,-0.232l-1.2,-2.928l-5.2,0l-1.184,2.928c-0.085,0.213 -0.229,0.32 -0.432,0.32c-0.149,0 -0.261,-0.038 -0.336,-0.112c-0.074,-0.075 -0.117,-0.176 -0.128,-0.304l0,-0.048c0,-0.064 0.006,-0.112 0.016,-0.144l4.224,-10.336c0.086,-0.214 0.246,-0.32 0.48,-0.32c0.107,0 0.2,0.029 0.28,0.088c0.08,0.058 0.142,0.136 0.184,0.232l4.208,10.288Zm-6.944,-3.536l4.448,0l-2.24,-5.472l-2.208,5.472Z" style="fill:none;stroke:#fff;stroke-width:0.77px;"/><path d="M154.714,9.736c0.16,0.106 0.24,0.24 0.24,0.4c0,0.053 -0.021,0.122 -0.064,0.208c-0.042,0.074 -0.101,0.133 -0.176,0.176c-0.074,0.042 -0.154,0.064 -0.24,0.064c-0.106,0 -0.197,-0.022 -0.272,-0.064c-0.298,-0.171 -0.538,-0.448 -0.72,-0.832c-0.181,-0.384 -0.272,-0.998 -0.272,-1.84c0,-0.747 -0.208,-1.272 -0.624,-1.576c-0.416,-0.304 -0.912,-0.456 -1.488,-0.456l-3.552,0l0,4.304c0,0.138 -0.042,0.253 -0.128,0.344c-0.085,0.09 -0.197,0.136 -0.336,0.136c-0.149,0 -0.277,-0.046 -0.384,-0.136c-0.106,-0.091 -0.16,-0.206 -0.16,-0.344l0,-10.24c0,-0.139 0.046,-0.254 0.136,-0.344c0.091,-0.091 0.206,-0.136 0.344,-0.136l4.32,0c0.608,0 1.152,0.13 1.632,0.392c0.48,0.261 0.856,0.621 1.128,1.08c0.272,0.458 0.408,0.976 0.408,1.552c0,0.682 -0.178,1.282 -0.536,1.8c-0.357,0.517 -0.824,0.872 -1.4,1.064c0.47,0.181 0.854,0.488 1.152,0.92c0.299,0.432 0.454,0.957 0.464,1.576c0.011,0.661 0.056,1.125 0.136,1.392c0.08,0.266 0.211,0.453 0.392,0.56Zm-3.328,-4.8c0.374,-0.032 0.72,-0.155 1.04,-0.368c0.32,-0.214 0.576,-0.502 0.768,-0.864c0.192,-0.363 0.288,-0.779 0.288,-1.248c0,-0.608 -0.205,-1.112 -0.616,-1.512c-0.41,-0.4 -0.946,-0.6 -1.608,-0.6l-3.712,0l0,4.592l3.84,0Z" style="fill:none;stroke:#fff;stroke-width:0.77px;"/><path d="M167.882,5c0,1.098 -0.229,2.085 -0.688,2.96c-0.458,0.874 -1.093,1.56 -1.904,2.056c-0.81,0.496 -1.733,0.744 -2.768,0.744c-1.034,0 -1.957,-0.248 -2.768,-0.744c-0.81,-0.496 -1.445,-1.182 -1.904,-2.056c-0.458,-0.875 -0.688,-1.862 -0.688,-2.96c0,-1.11 0.23,-2.102 0.688,-2.976c0.459,-0.875 1.094,-1.558 1.904,-2.048c0.811,-0.491 1.734,-0.736 2.768,-0.736c1.035,0 1.958,0.245 2.768,0.736c0.811,0.49 1.446,1.173 1.904,2.048c0.459,0.874 0.688,1.866 0.688,2.976Zm-1.024,0c0,-0.928 -0.184,-1.758 -0.552,-2.488c-0.368,-0.731 -0.88,-1.299 -1.536,-1.704c-0.656,-0.406 -1.405,-0.608 -2.248,-0.608c-0.842,0 -1.592,0.202 -2.248,0.608c-0.656,0.405 -1.168,0.973 -1.536,1.704c-0.368,0.73 -0.552,1.56 -0.552,2.488c0,0.928 0.184,1.757 0.552,2.488c0.368,0.73 0.88,1.298 1.536,1.704c0.656,0.405 1.406,0.608 2.248,0.608c0.843,0 1.592,-0.203 2.248,-0.608c0.656,-0.406 1.168,-0.974 1.536,-1.704c0.368,-0.731 0.552,-1.56 0.552,-2.488Z" style="fill:none;stroke:#fff;stroke-width:0.77px;"/><path d="M178.874,-0.6c0.139,0 0.254,0.045 0.344,0.136c0.091,0.09 0.136,0.205 0.136,0.344l0,6.624c0,0.778 -0.186,1.493 -0.56,2.144c-0.373,0.65 -0.88,1.162 -1.52,1.536c-0.64,0.373 -1.344,0.56 -2.112,0.56c-0.778,0 -1.488,-0.187 -2.128,-0.56c-0.64,-0.374 -1.146,-0.886 -1.52,-1.536c-0.373,-0.651 -0.56,-1.366 -0.56,-2.144l0,-6.624c0,-0.139 0.046,-0.254 0.136,-0.344c0.091,-0.091 0.216,-0.136 0.376,-0.136c0.128,0 0.24,0.045 0.336,0.136c0.096,0.09 0.144,0.205 0.144,0.344l0,6.624c0,0.597 0.144,1.146 0.432,1.648c0.288,0.501 0.68,0.898 1.176,1.192c0.496,0.293 1.032,0.44 1.608,0.44c0.587,0 1.128,-0.147 1.624,-0.44c0.496,-0.294 0.891,-0.691 1.184,-1.192c0.294,-0.502 0.44,-1.051 0.44,-1.648l0,-6.624c0,-0.139 0.043,-0.254 0.128,-0.344c0.086,-0.091 0.198,-0.136 0.336,-0.136Z" style="fill:none;stroke:#fff;stroke-width:0.77px;"/><path d="M187.434,-0.6c0.587,0 1.115,0.136 1.584,0.408c0.47,0.272 0.835,0.65 1.096,1.136c0.262,0.485 0.392,1.032 0.392,1.64c0,0.608 -0.13,1.162 -0.392,1.664c-0.261,0.501 -0.626,0.896 -1.096,1.184c-0.469,0.288 -0.997,0.432 -1.584,0.432l-3.312,0l0,4.256c0,0.138 -0.045,0.253 -0.136,0.344c-0.09,0.09 -0.205,0.136 -0.344,0.136c-0.138,0 -0.253,-0.046 -0.344,-0.136c-0.09,-0.091 -0.136,-0.206 -0.136,-0.344l0,-10.24c0,-0.139 0.046,-0.254 0.136,-0.344c0.091,-0.091 0.206,-0.136 0.344,-0.136l3.792,0Zm0,5.536c0.619,0 1.12,-0.224 1.504,-0.672c0.384,-0.448 0.576,-1.008 0.576,-1.68c0,-0.662 -0.192,-1.2 -0.576,-1.616c-0.384,-0.416 -0.885,-0.624 -1.504,-0.624l-3.312,0l0,4.592l3.312,0Z" style="fill:none;stroke:#fff;stroke-width:0.77px;"/><path d="M201.21,9.96c0.022,0.085 0.032,0.149 0.032,0.192c0,0.138 -0.048,0.25 -0.144,0.336c-0.096,0.085 -0.208,0.128 -0.336,0.128c-0.106,0 -0.2,-0.03 -0.28,-0.088c-0.08,-0.059 -0.141,-0.136 -0.184,-0.232l-1.2,-2.928l-5.2,0l-1.184,2.928c-0.085,0.213 -0.229,0.32 -0.432,0.32c-0.149,0 -0.261,-0.038 -0.336,-0.112c-0.074,-0.075 -0.117,-0.176 -0.128,-0.304l0,-0.048c0,-0.064 0.006,-0.112 0.016,-0.144l4.224,-10.336c0.086,-0.214 0.246,-0.32 0.48,-0.32c0.107,0 0.2,0.029 0.28,0.088c0.08,0.058 0.142,0.136 0.184,0.232l4.208,10.288Zm-6.944,-3.536l4.448,0l-2.24,-5.472l-2.208,5.472Z" style="fill:none;stroke:#fff;stroke-width:0.77px;"/><path d="M213.738,-0.6c1.024,0 1.886,0.253 2.584,0.76c0.699,0.506 1.222,1.184 1.568,2.032c0.347,0.848 0.52,1.784 0.52,2.808c0,1.056 -0.173,2.005 -0.52,2.848c-0.346,0.842 -0.869,1.512 -1.568,2.008c-0.698,0.496 -1.56,0.744 -2.584,0.744l-4.08,0c-0.138,0 -0.253,-0.046 -0.344,-0.136c-0.09,-0.091 -0.136,-0.206 -0.136,-0.344l0,-10.24c0,-0.139 0.046,-0.254 0.136,-0.344c0.091,-0.091 0.206,-0.136 0.344,-0.136l4.08,0Zm-0.16,10.256c1.28,0 2.235,-0.43 2.864,-1.288c0.63,-0.859 0.944,-1.982 0.944,-3.368c0,-0.864 -0.133,-1.646 -0.4,-2.344c-0.266,-0.699 -0.685,-1.259 -1.256,-1.68c-0.57,-0.422 -1.288,-0.632 -2.152,-0.632l-3.392,0l0,9.312l3.392,0Z" style="fill:none;stroke:#fff;stroke-width:0.77px;"/><path d="M231.466,5c0,1.098 -0.229,2.085 -0.688,2.96c-0.458,0.874 -1.093,1.56 -1.904,2.056c-0.81,0.496 -1.733,0.744 -2.768,0.744c-1.034,0 -1.957,-0.248 -2.768,-0.744c-0.81,-0.496 -1.445,-1.182 -1.904,-2.056c-0.458,-0.875 -0.688,-1.862 -0.688,-2.96c0,-1.11 0.23,-2.102 0.688,-2.976c0.459,-0.875 1.094,-1.558 1.904,-2.048c0.811,-0.491 1.734,-0.736 2.768,-0.736c1.035,0 1.958,0.245 2.768,0.736c0.811,0.49 1.446,1.173 1.904,2.048c0.459,0.874 0.688,1.866 0.688,2.976Zm-1.024,0c0,-0.928 -0.184,-1.758 -0.552,-2.488c-0.368,-0.731 -0.88,-1.299 -1.536,-1.704c-0.656,-0.406 -1.405,-0.608 -2.248,-0.608c-0.842,0 -1.592,0.202 -2.248,0.608c-0.656,0.405 -1.168,0.973 -1.536,1.704c-0.368,0.73 -0.552,1.56 -0.552,2.488c0,0.928 0.184,1.757 0.552,2.488c0.368,0.73 0.88,1.298 1.536,1.704c0.656,0.405 1.406,0.608 2.248,0.608c0.843,0 1.592,-0.203 2.248,-0.608c0.656,-0.406 1.168,-0.974 1.536,-1.704c0.368,-0.731 0.552,-1.56 0.552,-2.488Z" style="fill:none;stroke:#fff;stroke-width:0.77px;"/><path d="M247.882,9.736c0.16,0.106 0.24,0.24 0.24,0.4c0,0.053 -0.021,0.122 -0.064,0.208c-0.042,0.074 -0.101,0.133 -0.176,0.176c-0.074,0.042 -0.154,0.064 -0.24,0.064c-0.106,0 -0.197,-0.022 -0.272,-0.064c-0.298,-0.171 -0.538,-0.448 -0.72,-0.832c-0.181,-0.384 -0.272,-0.998 -0.272,-1.84c0,-0.747 -0.208,-1.272 -0.624,-1.576c-0.416,-0.304 -0.912,-0.456 -1.488,-0.456l-3.552,0l0,4.304c0,0.138 -0.042,0.253 -0.128,0.344c-0.085,0.09 -0.197,0.136 -0.336,0.136c-0.149,0 -0.277,-0.046 -0.384,-0.136c-0.106,-0.091 -0.16,-0.206 -0.16,-0.344l0,-10.24c0,-0.139 0.046,-0.254 0.136,-0.344c0.091,-0.091 0.206,-0.136 0.344,-0.136l4.32,0c0.608,0 1.152,0.13 1.632,0.392c0.48,0.261 0.856,0.621 1.128,1.08c0.272,0.458 0.408,0.976 0.408,1.552c0,0.682 -0.178,1.282 -0.536,1.8c-0.357,0.517 -0.824,0.872 -1.4,1.064c0.47,0.181 0.854,0.488 1.152,0.92c0.299,0.432 0.454,0.957 0.464,1.576c0.011,0.661 0.056,1.125 0.136,1.392c0.08,0.266 0.211,0.453 0.392,0.56Zm-3.328,-4.8c0.374,-0.032 0.72,-0.155 1.04,-0.368c0.32,-0.214 0.576,-0.502 0.768,-0.864c0.192,-0.363 0.288,-0.779 0.288,-1.248c0,-0.608 -0.205,-1.112 -0.616,-1.512c-0.41,-0.4 -0.946,-0.6 -1.608,-0.6l-3.712,0l0,4.592l3.84,0Z" style="fill:none;stroke:#fff;stroke-width:0.77px;"/><path d="M257.578,9.656c0.139,0 0.254,0.048 0.344,0.144c0.091,0.096 0.136,0.208 0.136,0.336c0,0.138 -0.045,0.25 -0.136,0.336c-0.09,0.085 -0.205,0.128 -0.344,0.128l-5.872,0c-0.138,0 -0.253,-0.046 -0.344,-0.136c-0.09,-0.091 -0.136,-0.206 -0.136,-0.344l0,-10.24c0,-0.139 0.046,-0.254 0.136,-0.344c0.091,-0.091 0.206,-0.136 0.344,-0.136l5.872,0c0.139,0 0.254,0.045 0.344,0.136c0.091,0.09 0.136,0.205 0.136,0.344c0,0.138 -0.045,0.25 -0.136,0.336c-0.09,0.085 -0.205,0.128 -0.344,0.128l-5.344,0l0,4.016l4.624,0c0.139,0 0.254,0.045 0.344,0.136c0.091,0.09 0.136,0.205 0.136,0.344c0,0.138 -0.045,0.25 -0.136,0.336c-0.09,0.085 -0.205,0.128 -0.344,0.128l-4.624,0l0,4.352l5.344,0Z" style="fill:none;stroke:#fff;stroke-width:0.77px;"/><path d="M262.122,10.104c-0.01,0.138 -0.064,0.256 -0.16,0.352c-0.096,0.096 -0.213,0.144 -0.352,0.144c-0.149,0 -0.269,-0.046 -0.36,-0.136c-0.09,-0.091 -0.136,-0.211 -0.136,-0.36l0,-10.208c0,-0.15 0.048,-0.27 0.144,-0.36c0.096,-0.091 0.219,-0.136 0.368,-0.136c0.139,0 0.256,0.048 0.352,0.144c0.096,0.096 0.144,0.213 0.144,0.352l0,10.208Z" style="fill:none;stroke:#fff;stroke-width:0.77px;"/><path d="M275.642,-0.6c1.024,0 1.886,0.253 2.584,0.76c0.699,0.506 1.222,1.184 1.568,2.032c0.347,0.848 0.52,1.784 0.52,2.808c0,1.056 -0.173,2.005 -0.52,2.848c-0.346,0.842 -0.869,1.512 -1.568,2.008c-0.698,0.496 -1.56,0.744 -2.584,0.744l-4.08,0c-0.138,0 -0.253,-0.046 -0.344,-0.136c-0.09,-0.091 -0.136,-0.206 -0.136,-0.344l0,-10.24c0,-0.139 0.046,-0.254 0.136,-0.344c0.091,-0.091 0.206,-0.136 0.344,-0.136l4.08,0Zm-0.16,10.256c1.28,0 2.235,-0.43 2.864,-1.288c0.63,-0.859 0.944,-1.982 0.944,-3.368c0,-0.864 -0.133,-1.646 -0.4,-2.344c-0.266,-0.699 -0.685,-1.259 -1.256,-1.68c-0.57,-0.422 -1.288,-0.632 -2.152,-0.632l-3.392,0l0,9.312l3.392,0Z" style="fill:none;stroke:#fff;stroke-width:0.77px;"/><path d="M289.738,9.656c0.139,0 0.254,0.048 0.344,0.144c0.091,0.096 0.136,0.208 0.136,0.336c0,0.138 -0.045,0.25 -0.136,0.336c-0.09,0.085 -0.205,0.128 -0.344,0.128l-5.872,0c-0.138,0 -0.253,-0.046 -0.344,-0.136c-0.09,-0.091 -0.136,-0.206 -0.136,-0.344l0,-10.24c0,-0.139 0.046,-0.254 0.136,-0.344c0.091,-0.091 0.206,-0.136 0.344,-0.136l5.872,0c0.139,0 0.254,0.045 0.344,0.136c0.091,0.09 0.136,0.205 0.136,0.344c0,0.138 -0.045,0.25 -0.136,0.336c-0.09,0.085 -0.205,0.128 -0.344,0.128l-5.344,0l0,4.016l4.624,0c0.139,0 0.254,0.045 0.344,0.136c0.091,0.09 0.136,0.205 0.136,0.344c0,0.138 -0.045,0.25 -0.136,0.336c-0.09,0.085 -0.205,0.128 -0.344,0.128l-4.624,0l0,4.352l5.344,0Z" style="fill:none;stroke:#fff;stroke-width:0.77px;"/><path d="M306.618,9.736c0.16,0.106 0.24,0.24 0.24,0.4c0,0.053 -0.021,0.122 -0.064,0.208c-0.042,0.074 -0.101,0.133 -0.176,0.176c-0.074,0.042 -0.154,0.064 -0.24,0.064c-0.106,0 -0.197,-0.022 -0.272,-0.064c-0.298,-0.171 -0.538,-0.448 -0.72,-0.832c-0.181,-0.384 -0.272,-0.998 -0.272,-1.84c0,-0.747 -0.208,-1.272 -0.624,-1.576c-0.416,-0.304 -0.912,-0.456 -1.488,-0.456l-3.552,0l0,4.304c0,0.138 -0.042,0.253 -0.128,0.344c-0.085,0.09 -0.197,0.136 -0.336,0.136c-0.149,0 -0.277,-0.046 -0.384,-0.136c-0.106,-0.091 -0.16,-0.206 -0.16,-0.344l0,-10.24c0,-0.139 0.046,-0.254 0.136,-0.344c0.091,-0.091 0.206,-0.136 0.344,-0.136l4.32,0c0.608,0 1.152,0.13 1.632,0.392c0.48,0.261 0.856,0.621 1.128,1.08c0.272,0.458 0.408,0.976 0.408,1.552c0,0.682 -0.178,1.282 -0.536,1.8c-0.357,0.517 -0.824,0.872 -1.4,1.064c0.47,0.181 0.854,0.488 1.152,0.92c0.299,0.432 0.454,0.957 0.464,1.576c0.011,0.661 0.056,1.125 0.136,1.392c0.08,0.266 0.211,0.453 0.392,0.56Zm-3.328,-4.8c0.374,-0.032 0.72,-0.155 1.04,-0.368c0.32,-0.214 0.576,-0.502 0.768,-0.864c0.192,-0.363 0.288,-0.779 0.288,-1.248c0,-0.608 -0.205,-1.112 -0.616,-1.512c-0.41,-0.4 -0.946,-0.6 -1.608,-0.6l-3.712,0l0,4.592l3.84,0Z" style="fill:none;stroke:#fff;stroke-width:0.77px;"/><path d="M319.786,5c0,1.098 -0.229,2.085 -0.688,2.96c-0.458,0.874 -1.093,1.56 -1.904,2.056c-0.81,0.496 -1.733,0.744 -2.768,0.744c-1.034,0 -1.957,-0.248 -2.768,-0.744c-0.81,-0.496 -1.445,-1.182 -1.904,-2.056c-0.458,-0.875 -0.688,-1.862 -0.688,-2.96c0,-1.11 0.23,-2.102 0.688,-2.976c0.459,-0.875 1.094,-1.558 1.904,-2.048c0.811,-0.491 1.734,-0.736 2.768,-0.736c1.035,0 1.958,0.245 2.768,0.736c0.811,0.49 1.446,1.173 1.904,2.048c0.459,0.874 0.688,1.866 0.688,2.976Zm-1.024,0c0,-0.928 -0.184,-1.758 -0.552,-2.488c-0.368,-0.731 -0.88,-1.299 -1.536,-1.704c-0.656,-0.406 -1.405,-0.608 -2.248,-0.608c-0.842,0 -1.592,0.202 -2.248,0.608c-0.656,0.405 -1.168,0.973 -1.536,1.704c-0.368,0.73 -0.552,1.56 -0.552,2.488c0,0.928 0.184,1.757 0.552,2.488c0.368,0.73 0.88,1.298 1.536,1.704c0.656,0.405 1.406,0.608 2.248,0.608c0.843,0 1.592,-0.203 2.248,-0.608c0.656,-0.406 1.168,-0.974 1.536,-1.704c0.368,-0.731 0.552,-1.56 0.552,-2.488Z" style="fill:none;stroke:#fff;stroke-width:0.77px;"/><path d="M332.618,-0.6c0.128,0 0.238,0.045 0.328,0.136c0.091,0.09 0.136,0.205 0.136,0.344l0,10.24c0,0.138 -0.048,0.253 -0.144,0.344c-0.096,0.09 -0.213,0.136 -0.352,0.136c-0.149,0 -0.272,-0.046 -0.368,-0.136c-0.096,-0.091 -0.144,-0.206 -0.144,-0.344l0,-8.8l-3.76,5.696c-0.106,0.138 -0.229,0.202 -0.368,0.192l-0.032,0c-0.128,0 -0.245,-0.064 -0.352,-0.192l-3.76,-5.728l0,8.832c0,0.138 -0.045,0.253 -0.136,0.344c-0.09,0.09 -0.205,0.136 -0.344,0.136c-0.138,0 -0.25,-0.046 -0.336,-0.136c-0.085,-0.091 -0.128,-0.206 -0.128,-0.344l0,-10.24c0,-0.128 0.046,-0.24 0.136,-0.336c0.091,-0.096 0.206,-0.144 0.344,-0.144c0.075,0 0.155,0.018 0.24,0.056c0.086,0.037 0.15,0.088 0.192,0.152l4.192,6.288l4.224,-6.288c0.118,-0.16 0.262,-0.23 0.432,-0.208Z" style="fill:none;stroke:#fff;stroke-width:0.77px;"/><path d="M345.242,9.96c0.022,0.085 0.032,0.149 0.032,0.192c0,0.138 -0.048,0.25 -0.144,0.336c-0.096,0.085 -0.208,0.128 -0.336,0.128c-0.106,0 -0.2,-0.03 -0.28,-0.088c-0.08,-0.059 -0.141,-0.136 -0.184,-0.232l-1.2,-2.928l-5.2,0l-1.184,2.928c-0.085,0.213 -0.229,0.32 -0.432,0.32c-0.149,0 -0.261,-0.038 -0.336,-0.112c-0.074,-0.075 -0.117,-0.176 -0.128,-0.304l0,-0.048c0,-0.064 0.006,-0.112 0.016,-0.144l4.224,-10.336c0.086,-0.214 0.246,-0.32 0.48,-0.32c0.107,0 0.2,0.029 0.28,0.088c0.08,0.058 0.142,0.136 0.184,0.232l4.208,10.288Zm-6.944,-3.536l4.448,0l-2.24,-5.472l-2.208,5.472Z" style="fill:none;stroke:#fff;stroke-width:0.77px;"/></g></svg>