<?xml version="1.0" encoding="UTF-8" standalone="no"?><!DOCTYPE svg PUBLIC "-//W3C//DTD SVG 1.1//EN" "http://www.w3.org/Graphics/SVG/1.1/DTD/svg11.dtd"><svg width="100%" height="100%" viewBox="0 0 373 21" version="1.1" xmlns="http://www.w3.org/2000/svg" xmlns:xlink="http://www.w3.org/1999/xlink" xml:space="preserve" style="fill-rule:evenodd;clip-rule:evenodd;stroke-linejoin:round;stroke-miterlimit:1.41421;"><g transform="matrix(1.29127,0,0,1.29127,-11.0416,2.10168)"><path d="M19.658,5c0,1.098 -0.229,2.085 -0.688,2.96c-0.458,0.874 -1.093,1.56 -1.904,2.056c-0.81,0.496 -1.733,0.744 -2.768,0.744c-1.034,0 -1.957,-0.248 -2.768,-0.744c-0.81,-0.496 -1.445,-1.182 -1.904,-2.056c-0.458,-0.875 -0.688,-1.862 -0.688,-2.96c0,-1.11 0.23,-2.102 0.688,-2.976c0.459,-0.875 1.094,-1.558 1.904,-2.048c0.811,-0.491 1.734,-0.736 2.768,-0.736c1.035,0 1.958,0.245 2.768,0.736c0.811,0.49 1.446,1.173 1.904,2.048c0.459,0.874 0.688,1.866 0.688,2.976Zm-1.024,0c0,-0.928 -0.184,-1.758 -0.552,-2.488c-0.368,-0.731 -0.88,-1.299 -1.536,-1.704c-0.656,-0.406 -1.405,-0.608 -2.248,-0.608c-0.842,0 -1.592,0.202 -2.248,0.608c-0.656,0.405 -1.168,0.973 -1.536,1.704c-0.368,0.73 -0.552,1.56 -0.552,2.488c0,0.928 0.184,1.757 0.552,2.488c0.368,0.73 0.88,1.298 1.536,1.704c0.656,0.405 1.406,0.608 2.248,0.608c0.843,0 1.592,-0.203 2.248,-0.608c0.656,-0.406 1.168,-0.974 1.536,-1.704c0.368,-0.731 0.552,-1.56 0.552,-2.488Z" style="fill:none;"/><path d="M34.57,2.424c0.139,0 0.254,0.045 0.344,0.136c0.091,0.09 0.136,0.21 0.136,0.36l0,6.928c0,0.832 -0.173,1.544 -0.52,2.136c-0.346,0.592 -0.821,1.042 -1.424,1.352c-0.602,0.309 -1.293,0.464 -2.072,0.464c-0.373,0 -0.765,-0.048 -1.176,-0.144c-0.41,-0.096 -0.762,-0.219 -1.056,-0.368c-0.293,-0.15 -0.461,-0.304 -0.504,-0.464c-0.074,-0.075 -0.112,-0.16 -0.112,-0.256c0,-0.107 0.048,-0.192 0.144,-0.256c0.043,-0.032 0.096,-0.048 0.16,-0.048c0.064,0 0.187,0.037 0.368,0.112l0.336,0.144c0.662,0.256 1.28,0.384 1.856,0.384c0.95,0 1.694,-0.27 2.232,-0.808c0.539,-0.539 0.808,-1.267 0.808,-2.184l0,-0.992c-0.266,0.576 -0.688,1.026 -1.264,1.352c-0.576,0.325 -1.178,0.488 -1.808,0.488c-0.736,0 -1.4,-0.184 -1.992,-0.552c-0.592,-0.368 -1.058,-0.878 -1.4,-1.528c-0.341,-0.651 -0.512,-1.382 -0.512,-2.192c0,-0.8 0.171,-1.526 0.512,-2.176c0.342,-0.651 0.808,-1.16 1.4,-1.528c0.592,-0.368 1.251,-0.552 1.976,-0.552c0.672,0 1.288,0.168 1.848,0.504c0.56,0.336 0.974,0.738 1.24,1.208l0,-1.024c0,-0.139 0.046,-0.256 0.136,-0.352c0.091,-0.096 0.206,-0.144 0.344,-0.144Zm-3.472,7.44c0.587,0 1.112,-0.142 1.576,-0.424c0.464,-0.283 0.827,-0.683 1.088,-1.2c0.262,-0.518 0.392,-1.102 0.392,-1.752c0,-0.651 -0.13,-1.232 -0.392,-1.744c-0.261,-0.512 -0.624,-0.91 -1.088,-1.192c-0.464,-0.283 -0.989,-0.424 -1.576,-0.424c-0.576,0 -1.096,0.146 -1.56,0.44c-0.464,0.293 -0.826,0.696 -1.088,1.208c-0.261,0.512 -0.392,1.082 -0.392,1.712c0,0.64 0.131,1.216 0.392,1.728c0.262,0.512 0.624,0.914 1.088,1.208c0.464,0.293 0.984,0.44 1.56,0.44Z" style="fill:none;"/><path d="M44.938,2.424c0.139,0 0.254,0.048 0.344,0.144c0.091,0.096 0.136,0.213 0.136,0.352l0,7.2c0,0.138 -0.045,0.253 -0.136,0.344c-0.09,0.09 -0.205,0.136 -0.344,0.136c-0.138,0 -0.253,-0.046 -0.344,-0.136c-0.09,-0.091 -0.136,-0.206 -0.136,-0.344l0,-1.072c-0.266,0.48 -0.666,0.885 -1.2,1.216c-0.533,0.33 -1.114,0.496 -1.744,0.496c-0.714,0 -1.357,-0.187 -1.928,-0.56c-0.57,-0.374 -1.018,-0.886 -1.344,-1.536c-0.325,-0.651 -0.488,-1.382 -0.488,-2.192c0,-0.811 0.166,-1.539 0.496,-2.184c0.331,-0.646 0.782,-1.15 1.352,-1.512c0.571,-0.363 1.203,-0.544 1.896,-0.544c0.64,0 1.227,0.154 1.76,0.464c0.534,0.309 0.934,0.714 1.2,1.216l0,-0.992c0,-0.139 0.046,-0.256 0.136,-0.352c0.091,-0.096 0.206,-0.144 0.344,-0.144Zm-3.328,7.44c0.555,0 1.054,-0.147 1.496,-0.44c0.443,-0.294 0.79,-0.699 1.04,-1.216c0.251,-0.518 0.376,-1.096 0.376,-1.736c0,-0.619 -0.125,-1.184 -0.376,-1.696c-0.25,-0.512 -0.597,-0.915 -1.04,-1.208c-0.442,-0.294 -0.941,-0.44 -1.496,-0.44c-0.554,0 -1.053,0.144 -1.496,0.432c-0.442,0.288 -0.789,0.685 -1.04,1.192c-0.25,0.506 -0.376,1.08 -0.376,1.72c0,0.64 0.123,1.218 0.368,1.736c0.246,0.517 0.59,0.922 1.032,1.216c0.443,0.293 0.947,0.44 1.512,0.44Z" style="fill:none;"/><path d="M50.33,3.352l0,5.36c0,0.405 0.075,0.68 0.224,0.824c0.15,0.144 0.347,0.216 0.592,0.216c0.064,0 0.144,-0.014 0.24,-0.04c0.096,-0.027 0.171,-0.04 0.224,-0.04c0.096,0 0.179,0.04 0.248,0.12c0.07,0.08 0.104,0.173 0.104,0.28c0,0.149 -0.085,0.274 -0.256,0.376c-0.17,0.101 -0.373,0.152 -0.608,0.152c-0.288,0 -0.544,-0.027 -0.768,-0.08c-0.224,-0.054 -0.44,-0.214 -0.648,-0.48c-0.208,-0.267 -0.312,-0.694 -0.312,-1.28l0,-5.408l-1.168,0c-0.128,0 -0.237,-0.043 -0.328,-0.128c-0.09,-0.086 -0.136,-0.192 -0.136,-0.32c0,-0.128 0.046,-0.235 0.136,-0.32c0.091,-0.086 0.2,-0.128 0.328,-0.128l1.168,0l0,-1.776c0,-0.139 0.046,-0.254 0.136,-0.344c0.091,-0.091 0.206,-0.136 0.344,-0.136c0.139,0 0.254,0.045 0.344,0.136c0.091,0.09 0.136,0.205 0.136,0.344l0,1.776l1.6,0c0.118,0 0.222,0.048 0.312,0.144c0.091,0.096 0.136,0.202 0.136,0.32c0,0.128 -0.042,0.232 -0.128,0.312c-0.085,0.08 -0.192,0.12 -0.32,0.12l-1.6,0Z" style="fill:none;"/><path d="M62.426,6.504c0,0.8 -0.176,1.525 -0.528,2.176c-0.352,0.65 -0.837,1.16 -1.456,1.528c-0.618,0.368 -1.306,0.552 -2.064,0.552c-0.757,0 -1.445,-0.184 -2.064,-0.552c-0.618,-0.368 -1.104,-0.878 -1.456,-1.528c-0.352,-0.651 -0.528,-1.376 -0.528,-2.176c0,-0.8 0.176,-1.526 0.528,-2.176c0.352,-0.651 0.838,-1.163 1.456,-1.536c0.619,-0.374 1.307,-0.56 2.064,-0.56c0.758,0 1.446,0.186 2.064,0.56c0.619,0.373 1.104,0.885 1.456,1.536c0.352,0.65 0.528,1.376 0.528,2.176Zm-0.96,0c0,-0.64 -0.133,-1.216 -0.4,-1.728c-0.266,-0.512 -0.637,-0.915 -1.112,-1.208c-0.474,-0.294 -1,-0.44 -1.576,-0.44c-0.576,0 -1.098,0.146 -1.568,0.44c-0.469,0.293 -0.84,0.696 -1.112,1.208c-0.272,0.512 -0.408,1.088 -0.408,1.728c0,0.629 0.136,1.2 0.408,1.712c0.272,0.512 0.643,0.914 1.112,1.208c0.47,0.293 0.992,0.44 1.568,0.44c0.576,0 1.102,-0.144 1.576,-0.432c0.475,-0.288 0.846,-0.688 1.112,-1.2c0.267,-0.512 0.4,-1.088 0.4,-1.728Z" style="fill:none;"/><path d="M74.186,2.232c0.214,0 0.406,0.042 0.576,0.128c0.171,0.085 0.256,0.213 0.256,0.384c0,0.149 -0.042,0.269 -0.128,0.36c-0.085,0.09 -0.186,0.136 -0.304,0.136c-0.053,0 -0.157,-0.027 -0.312,-0.08c-0.154,-0.054 -0.301,-0.08 -0.44,-0.08c-0.394,0 -0.786,0.152 -1.176,0.456c-0.389,0.304 -0.709,0.696 -0.96,1.176c-0.25,0.48 -0.376,0.965 -0.376,1.456l0,3.952c0,0.138 -0.045,0.253 -0.136,0.344c-0.09,0.09 -0.205,0.136 -0.344,0.136c-0.138,0 -0.253,-0.046 -0.344,-0.136c-0.09,-0.091 -0.136,-0.206 -0.136,-0.344l0,-7.168c0,-0.139 0.046,-0.254 0.136,-0.344c0.091,-0.091 0.206,-0.136 0.344,-0.136c0.139,0 0.254,0.045 0.344,0.136c0.091,0.09 0.136,0.205 0.136,0.344l0,1.408c0.246,-0.608 0.616,-1.112 1.112,-1.512c0.496,-0.4 1.08,-0.606 1.752,-0.616Z" style="fill:none;"/><path d="M84.522,6.504c0,0.8 -0.176,1.525 -0.528,2.176c-0.352,0.65 -0.837,1.16 -1.456,1.528c-0.618,0.368 -1.306,0.552 -2.064,0.552c-0.757,0 -1.445,-0.184 -2.064,-0.552c-0.618,-0.368 -1.104,-0.878 -1.456,-1.528c-0.352,-0.651 -0.528,-1.376 -0.528,-2.176c0,-0.8 0.176,-1.526 0.528,-2.176c0.352,-0.651 0.838,-1.163 1.456,-1.536c0.619,-0.374 1.307,-0.56 2.064,-0.56c0.758,0 1.446,0.186 2.064,0.56c0.619,0.373 1.104,0.885 1.456,1.536c0.352,0.65 0.528,1.376 0.528,2.176Zm-0.96,0c0,-0.64 -0.133,-1.216 -0.4,-1.728c-0.266,-0.512 -0.637,-0.915 -1.112,-1.208c-0.474,-0.294 -1,-0.44 -1.576,-0.44c-0.576,0 -1.098,0.146 -1.568,0.44c-0.469,0.293 -0.84,0.696 -1.112,1.208c-0.272,0.512 -0.408,1.088 -0.408,1.728c0,0.629 0.136,1.2 0.408,1.712c0.272,0.512 0.643,0.914 1.112,1.208c0.47,0.293 0.992,0.44 1.568,0.44c0.576,0 1.102,-0.144 1.576,-0.432c0.475,-0.288 0.846,-0.688 1.112,-1.2c0.267,-0.512 0.4,-1.088 0.4,-1.728Z" style="fill:none;"/><path d="M94.202,6.04c0,0.128 -0.048,0.237 -0.144,0.328c-0.096,0.09 -0.208,0.136 -0.336,0.136l-6.048,0c0,0.64 0.131,1.213 0.392,1.72c0.262,0.506 0.635,0.906 1.12,1.2c0.486,0.293 1.059,0.44 1.72,0.44c0.512,0 0.971,-0.107 1.376,-0.32c0.406,-0.214 0.731,-0.486 0.976,-0.816c0.118,-0.096 0.23,-0.144 0.336,-0.144c0.107,0 0.203,0.042 0.288,0.128c0.086,0.085 0.128,0.181 0.128,0.288c0,0.117 -0.053,0.229 -0.16,0.336c-0.341,0.416 -0.77,0.757 -1.288,1.024c-0.517,0.266 -1.064,0.4 -1.64,0.4c-0.821,0 -1.546,-0.176 -2.176,-0.528c-0.629,-0.352 -1.12,-0.846 -1.472,-1.48c-0.352,-0.635 -0.528,-1.368 -0.528,-2.2c0,-0.875 0.174,-1.64 0.52,-2.296c0.347,-0.656 0.808,-1.158 1.384,-1.504c0.576,-0.347 1.19,-0.52 1.84,-0.52c0.64,0 1.24,0.149 1.8,0.448c0.56,0.298 1.016,0.736 1.368,1.312c0.352,0.576 0.534,1.258 0.544,2.048Zm-3.712,-2.88c-0.618,0 -1.192,0.213 -1.72,0.64c-0.528,0.426 -0.866,1.04 -1.016,1.84l5.456,0l0,-0.128c-0.053,-0.48 -0.213,-0.899 -0.48,-1.256c-0.266,-0.358 -0.6,-0.63 -1,-0.816c-0.4,-0.187 -0.813,-0.28 -1.24,-0.28Z" style="fill:none;"/><path d="M103.098,2.472c0.139,0 0.254,0.045 0.344,0.136c0.091,0.09 0.136,0.205 0.136,0.344l0,4.512c0,1.045 -0.293,1.848 -0.88,2.408c-0.586,0.56 -1.397,0.84 -2.432,0.84c-1.024,0 -1.826,-0.28 -2.408,-0.84c-0.581,-0.56 -0.872,-1.363 -0.872,-2.408l0,-4.512c0,-0.139 0.046,-0.254 0.136,-0.344c0.091,-0.091 0.206,-0.136 0.344,-0.136c0.139,0 0.254,0.045 0.344,0.136c0.091,0.09 0.136,0.205 0.136,0.344l0,4.512c0,0.768 0.203,1.352 0.608,1.752c0.406,0.4 0.976,0.6 1.712,0.6c0.747,0 1.326,-0.2 1.736,-0.6c0.411,-0.4 0.616,-0.984 0.616,-1.752l0,-4.512c0,-0.139 0.046,-0.254 0.136,-0.344c0.091,-0.091 0.206,-0.136 0.344,-0.136Z" style="fill:none;"/><path d="M118.698,2.424c0.139,0 0.254,0.048 0.344,0.144c0.091,0.096 0.136,0.213 0.136,0.352l0,7.2c0,0.138 -0.045,0.253 -0.136,0.344c-0.09,0.09 -0.205,0.136 -0.344,0.136c-0.138,0 -0.253,-0.046 -0.344,-0.136c-0.09,-0.091 -0.136,-0.206 -0.136,-0.344l0,-1.072c-0.266,0.48 -0.666,0.885 -1.2,1.216c-0.533,0.33 -1.114,0.496 -1.744,0.496c-0.714,0 -1.357,-0.187 -1.928,-0.56c-0.57,-0.374 -1.018,-0.886 -1.344,-1.536c-0.325,-0.651 -0.488,-1.382 -0.488,-2.192c0,-0.811 0.166,-1.539 0.496,-2.184c0.331,-0.646 0.782,-1.15 1.352,-1.512c0.571,-0.363 1.203,-0.544 1.896,-0.544c0.64,0 1.227,0.154 1.76,0.464c0.534,0.309 0.934,0.714 1.2,1.216l0,-0.992c0,-0.139 0.046,-0.256 0.136,-0.352c0.091,-0.096 0.206,-0.144 0.344,-0.144Zm-3.328,7.44c0.555,0 1.054,-0.147 1.496,-0.44c0.443,-0.294 0.79,-0.699 1.04,-1.216c0.251,-0.518 0.376,-1.096 0.376,-1.736c0,-0.619 -0.125,-1.184 -0.376,-1.696c-0.25,-0.512 -0.597,-0.915 -1.04,-1.208c-0.442,-0.294 -0.941,-0.44 -1.496,-0.44c-0.554,0 -1.053,0.144 -1.496,0.432c-0.442,0.288 -0.789,0.685 -1.04,1.192c-0.25,0.506 -0.376,1.08 -0.376,1.72c0,0.64 0.123,1.218 0.368,1.736c0.246,0.517 0.59,0.922 1.032,1.216c0.443,0.293 0.947,0.44 1.512,0.44Z" style="fill:none;"/><path d="M131.482,2.232c0.214,0 0.406,0.042 0.576,0.128c0.171,0.085 0.256,0.213 0.256,0.384c0,0.149 -0.042,0.269 -0.128,0.36c-0.085,0.09 -0.186,0.136 -0.304,0.136c-0.053,0 -0.157,-0.027 -0.312,-0.08c-0.154,-0.054 -0.301,-0.08 -0.44,-0.08c-0.394,0 -0.786,0.152 -1.176,0.456c-0.389,0.304 -0.709,0.696 -0.96,1.176c-0.25,0.48 -0.376,0.965 -0.376,1.456l0,3.952c0,0.138 -0.045,0.253 -0.136,0.344c-0.09,0.09 -0.205,0.136 -0.344,0.136c-0.138,0 -0.253,-0.046 -0.344,-0.136c-0.09,-0.091 -0.136,-0.206 -0.136,-0.344l0,-7.168c0,-0.139 0.046,-0.254 0.136,-0.344c0.091,-0.091 0.206,-0.136 0.344,-0.136c0.139,0 0.254,0.045 0.344,0.136c0.091,0.09 0.136,0.205 0.136,0.344l0,1.408c0.246,-0.608 0.616,-1.112 1.112,-1.512c0.496,-0.4 1.08,-0.606 1.752,-0.616Z" style="fill:none;"/><path d="M141.818,6.504c0,0.8 -0.176,1.525 -0.528,2.176c-0.352,0.65 -0.837,1.16 -1.456,1.528c-0.618,0.368 -1.306,0.552 -2.064,0.552c-0.757,0 -1.445,-0.184 -2.064,-0.552c-0.618,-0.368 -1.104,-0.878 -1.456,-1.528c-0.352,-0.651 -0.528,-1.376 -0.528,-2.176c0,-0.8 0.176,-1.526 0.528,-2.176c0.352,-0.651 0.838,-1.163 1.456,-1.536c0.619,-0.374 1.307,-0.56 2.064,-0.56c0.758,0 1.446,0.186 2.064,0.56c0.619,0.373 1.104,0.885 1.456,1.536c0.352,0.65 0.528,1.376 0.528,2.176Zm-0.96,0c0,-0.64 -0.133,-1.216 -0.4,-1.728c-0.266,-0.512 -0.637,-0.915 -1.112,-1.208c-0.474,-0.294 -1,-0.44 -1.576,-0.44c-0.576,0 -1.098,0.146 -1.568,0.44c-0.469,0.293 -0.84,0.696 -1.112,1.208c-0.272,0.512 -0.408,1.088 -0.408,1.728c0,0.629 0.136,1.2 0.408,1.712c0.272,0.512 0.643,0.914 1.112,1.208c0.47,0.293 0.992,0.44 1.568,0.44c0.576,0 1.102,-0.144 1.576,-0.432c0.475,-0.288 0.846,-0.688 1.112,-1.2c0.267,-0.512 0.4,-1.088 0.4,-1.728Z" style="fill:none;"/><path d="M150.698,2.472c0.139,0 0.254,0.045 0.344,0.136c0.091,0.09 0.136,0.205 0.136,0.344l0,4.512c0,1.045 -0.293,1.848 -0.88,2.408c-0.586,0.56 -1.397,0.84 -2.432,0.84c-1.024,0 -1.826,-0.28 -2.408,-0.84c-0.581,-0.56 -0.872,-1.363 -0.872,-2.408l0,-4.512c0,-0.139 0.046,-0.254 0.136,-0.344c0.091,-0.091 0.206,-0.136 0.344,-0.136c0.139,0 0.254,0.045 0.344,0.136c0.091,0.09 0.136,0.205 0.136,0.344l0,4.512c0,0.768 0.203,1.352 0.608,1.752c0.406,0.4 0.976,0.6 1.712,0.6c0.747,0 1.326,-0.2 1.736,-0.6c0.411,-0.4 0.616,-0.984 0.616,-1.752l0,-4.512c0,-0.139 0.046,-0.254 0.136,-0.344c0.091,-0.091 0.206,-0.136 0.344,-0.136Z" style="fill:none;"/><path d="M158.378,2.36c0.704,0 1.344,0.178 1.92,0.536c0.576,0.357 1.027,0.853 1.352,1.488c0.326,0.634 0.488,1.346 0.488,2.136c0,0.8 -0.162,1.517 -0.488,2.152c-0.325,0.634 -0.773,1.133 -1.344,1.496c-0.57,0.362 -1.208,0.544 -1.912,0.544c-0.618,0 -1.186,-0.147 -1.704,-0.44c-0.517,-0.294 -0.93,-0.686 -1.24,-1.176l0,4.224c0,0.138 -0.045,0.253 -0.136,0.344c-0.09,0.09 -0.205,0.136 -0.344,0.136c-0.138,0 -0.253,-0.046 -0.344,-0.136c-0.09,-0.091 -0.136,-0.206 -0.136,-0.344l0,-10.432c0,-0.139 0.046,-0.256 0.136,-0.352c0.091,-0.096 0.206,-0.144 0.344,-0.144c0.139,0 0.254,0.048 0.344,0.144c0.091,0.096 0.136,0.213 0.136,0.352l0,1.088c0.278,-0.502 0.678,-0.896 1.2,-1.184c0.523,-0.288 1.099,-0.432 1.728,-0.432Zm-0.08,7.456c0.555,0 1.054,-0.142 1.496,-0.424c0.443,-0.283 0.79,-0.675 1.04,-1.176c0.251,-0.502 0.376,-1.067 0.376,-1.696c0,-0.619 -0.125,-1.176 -0.376,-1.672c-0.25,-0.496 -0.597,-0.886 -1.04,-1.168c-0.442,-0.283 -0.941,-0.424 -1.496,-0.424c-0.565,0 -1.072,0.138 -1.52,0.416c-0.448,0.277 -0.794,0.664 -1.04,1.16c-0.245,0.496 -0.368,1.058 -0.368,1.688c0,0.629 0.123,1.194 0.368,1.696c0.246,0.501 0.592,0.893 1.04,1.176c0.448,0.282 0.955,0.424 1.52,0.424Z" style="fill:none;"/><path d="M171.562,2.424c0.139,0 0.254,0.048 0.344,0.144c0.091,0.096 0.136,0.213 0.136,0.352l0,7.2c0,0.138 -0.045,0.253 -0.136,0.344c-0.09,0.09 -0.205,0.136 -0.344,0.136c-0.138,0 -0.253,-0.046 -0.344,-0.136c-0.09,-0.091 -0.136,-0.206 -0.136,-0.344l0,-1.072c-0.266,0.48 -0.666,0.885 -1.2,1.216c-0.533,0.33 -1.114,0.496 -1.744,0.496c-0.714,0 -1.357,-0.187 -1.928,-0.56c-0.57,-0.374 -1.018,-0.886 -1.344,-1.536c-0.325,-0.651 -0.488,-1.382 -0.488,-2.192c0,-0.811 0.166,-1.539 0.496,-2.184c0.331,-0.646 0.782,-1.15 1.352,-1.512c0.571,-0.363 1.203,-0.544 1.896,-0.544c0.64,0 1.227,0.154 1.76,0.464c0.534,0.309 0.934,0.714 1.2,1.216l0,-0.992c0,-0.139 0.046,-0.256 0.136,-0.352c0.091,-0.096 0.206,-0.144 0.344,-0.144Zm-3.328,7.44c0.555,0 1.054,-0.147 1.496,-0.44c0.443,-0.294 0.79,-0.699 1.04,-1.216c0.251,-0.518 0.376,-1.096 0.376,-1.736c0,-0.619 -0.125,-1.184 -0.376,-1.696c-0.25,-0.512 -0.597,-0.915 -1.04,-1.208c-0.442,-0.294 -0.941,-0.44 -1.496,-0.44c-0.554,0 -1.053,0.144 -1.496,0.432c-0.442,0.288 -0.789,0.685 -1.04,1.192c-0.25,0.506 -0.376,1.08 -0.376,1.72c0,0.64 0.123,1.218 0.368,1.736c0.246,0.517 0.59,0.922 1.032,1.216c0.443,0.293 0.947,0.44 1.512,0.44Z" style="fill:none;"/><path d="M187.162,-1.24c0.139,0 0.254,0.045 0.344,0.136c0.091,0.09 0.136,0.205 0.136,0.344l0,10.88c0,0.138 -0.045,0.253 -0.136,0.344c-0.09,0.09 -0.205,0.136 -0.344,0.136c-0.138,0 -0.253,-0.046 -0.344,-0.136c-0.09,-0.091 -0.136,-0.206 -0.136,-0.344l0,-1.12c-0.266,0.49 -0.664,0.906 -1.192,1.248c-0.528,0.341 -1.112,0.512 -1.752,0.512c-0.704,0 -1.341,-0.184 -1.912,-0.552c-0.57,-0.368 -1.021,-0.878 -1.352,-1.528c-0.33,-0.651 -0.496,-1.382 -0.496,-2.192c0,-0.8 0.166,-1.526 0.496,-2.176c0.331,-0.651 0.782,-1.16 1.352,-1.528c0.571,-0.368 1.203,-0.552 1.896,-0.552c0.63,0 1.211,0.157 1.744,0.472c0.534,0.314 0.939,0.722 1.216,1.224l0,-4.688c0,-0.139 0.046,-0.254 0.136,-0.344c0.091,-0.091 0.206,-0.136 0.344,-0.136Zm-3.328,11.104c0.555,0 1.054,-0.144 1.496,-0.432c0.443,-0.288 0.79,-0.691 1.04,-1.208c0.251,-0.518 0.376,-1.096 0.376,-1.736c0,-0.63 -0.125,-1.2 -0.376,-1.712c-0.25,-0.512 -0.597,-0.915 -1.04,-1.208c-0.442,-0.294 -0.941,-0.44 -1.496,-0.44c-0.554,0 -1.053,0.146 -1.496,0.44c-0.442,0.293 -0.789,0.696 -1.04,1.208c-0.25,0.512 -0.376,1.082 -0.376,1.712c0,0.64 0.126,1.216 0.376,1.728c0.251,0.512 0.598,0.914 1.04,1.208c0.443,0.293 0.942,0.44 1.496,0.44Z" style="fill:none;"/><path d="M198.506,6.504c0,0.8 -0.176,1.525 -0.528,2.176c-0.352,0.65 -0.837,1.16 -1.456,1.528c-0.618,0.368 -1.306,0.552 -2.064,0.552c-0.757,0 -1.445,-0.184 -2.064,-0.552c-0.618,-0.368 -1.104,-0.878 -1.456,-1.528c-0.352,-0.651 -0.528,-1.376 -0.528,-2.176c0,-0.8 0.176,-1.526 0.528,-2.176c0.352,-0.651 0.838,-1.163 1.456,-1.536c0.619,-0.374 1.307,-0.56 2.064,-0.56c0.758,0 1.446,0.186 2.064,0.56c0.619,0.373 1.104,0.885 1.456,1.536c0.352,0.65 0.528,1.376 0.528,2.176Zm-0.96,0c0,-0.64 -0.133,-1.216 -0.4,-1.728c-0.266,-0.512 -0.637,-0.915 -1.112,-1.208c-0.474,-0.294 -1,-0.44 -1.576,-0.44c-0.576,0 -1.098,0.146 -1.568,0.44c-0.469,0.293 -0.84,0.696 -1.112,1.208c-0.272,0.512 -0.408,1.088 -0.408,1.728c0,0.629 0.136,1.2 0.408,1.712c0.272,0.512 0.643,0.914 1.112,1.208c0.47,0.293 0.992,0.44 1.568,0.44c0.576,0 1.102,-0.144 1.576,-0.432c0.475,-0.288 0.846,-0.688 1.112,-1.2c0.267,-0.512 0.4,-1.088 0.4,-1.728Z" style="fill:none;"/><path d="M210.266,2.232c0.214,0 0.406,0.042 0.576,0.128c0.171,0.085 0.256,0.213 0.256,0.384c0,0.149 -0.042,0.269 -0.128,0.36c-0.085,0.09 -0.186,0.136 -0.304,0.136c-0.053,0 -0.157,-0.027 -0.312,-0.08c-0.154,-0.054 -0.301,-0.08 -0.44,-0.08c-0.394,0 -0.786,0.152 -1.176,0.456c-0.389,0.304 -0.709,0.696 -0.96,1.176c-0.25,0.48 -0.376,0.965 -0.376,1.456l0,3.952c0,0.138 -0.045,0.253 -0.136,0.344c-0.09,0.09 -0.205,0.136 -0.344,0.136c-0.138,0 -0.253,-0.046 -0.344,-0.136c-0.09,-0.091 -0.136,-0.206 -0.136,-0.344l0,-7.168c0,-0.139 0.046,-0.254 0.136,-0.344c0.091,-0.091 0.206,-0.136 0.344,-0.136c0.139,0 0.254,0.045 0.344,0.136c0.091,0.09 0.136,0.205 0.136,0.344l0,1.408c0.246,-0.608 0.616,-1.112 1.112,-1.512c0.496,-0.4 1.08,-0.606 1.752,-0.616Z" style="fill:none;"/><path d="M219.962,6.04c0,0.128 -0.048,0.237 -0.144,0.328c-0.096,0.09 -0.208,0.136 -0.336,0.136l-6.048,0c0,0.64 0.131,1.213 0.392,1.72c0.262,0.506 0.635,0.906 1.12,1.2c0.486,0.293 1.059,0.44 1.72,0.44c0.512,0 0.971,-0.107 1.376,-0.32c0.406,-0.214 0.731,-0.486 0.976,-0.816c0.118,-0.096 0.23,-0.144 0.336,-0.144c0.107,0 0.203,0.042 0.288,0.128c0.086,0.085 0.128,0.181 0.128,0.288c0,0.117 -0.053,0.229 -0.16,0.336c-0.341,0.416 -0.77,0.757 -1.288,1.024c-0.517,0.266 -1.064,0.4 -1.64,0.4c-0.821,0 -1.546,-0.176 -2.176,-0.528c-0.629,-0.352 -1.12,-0.846 -1.472,-1.48c-0.352,-0.635 -0.528,-1.368 -0.528,-2.2c0,-0.875 0.174,-1.64 0.52,-2.296c0.347,-0.656 0.808,-1.158 1.384,-1.504c0.576,-0.347 1.19,-0.52 1.84,-0.52c0.64,0 1.24,0.149 1.8,0.448c0.56,0.298 1.016,0.736 1.368,1.312c0.352,0.576 0.534,1.258 0.544,2.048Zm-3.712,-2.88c-0.618,0 -1.192,0.213 -1.72,0.64c-0.528,0.426 -0.866,1.04 -1.016,1.84l5.456,0l0,-0.128c-0.053,-0.48 -0.213,-0.899 -0.48,-1.256c-0.266,-0.358 -0.6,-0.63 -1,-0.816c-0.4,-0.187 -0.813,-0.28 -1.24,-0.28Z" style="fill:none;"/><path d="M223.674,10.12c0,0.138 -0.045,0.253 -0.136,0.344c-0.09,0.09 -0.205,0.136 -0.344,0.136c-0.138,0 -0.253,-0.046 -0.344,-0.136c-0.09,-0.091 -0.136,-0.206 -0.136,-0.344l0,-7.36c0,-0.139 0.046,-0.254 0.136,-0.344c0.091,-0.091 0.206,-0.136 0.344,-0.136c0.139,0 0.254,0.045 0.344,0.136c0.091,0.09 0.136,0.205 0.136,0.344l0,7.36Zm-0.48,-8.912c-0.213,0 -0.378,-0.051 -0.496,-0.152c-0.117,-0.102 -0.176,-0.248 -0.176,-0.44l0,-0.16c0,-0.192 0.062,-0.339 0.184,-0.44c0.123,-0.102 0.291,-0.152 0.504,-0.152c0.427,0 0.64,0.197 0.64,0.592l0,0.16c0,0.192 -0.056,0.338 -0.168,0.44c-0.112,0.101 -0.274,0.152 -0.488,0.152Z" style="fill:none;"/><path d="M238.778,-1.24c0.139,0 0.254,0.045 0.344,0.136c0.091,0.09 0.136,0.205 0.136,0.344l0,10.88c0,0.138 -0.045,0.253 -0.136,0.344c-0.09,0.09 -0.205,0.136 -0.344,0.136c-0.138,0 -0.253,-0.046 -0.344,-0.136c-0.09,-0.091 -0.136,-0.206 -0.136,-0.344l0,-1.12c-0.266,0.49 -0.664,0.906 -1.192,1.248c-0.528,0.341 -1.112,0.512 -1.752,0.512c-0.704,0 -1.341,-0.184 -1.912,-0.552c-0.57,-0.368 -1.021,-0.878 -1.352,-1.528c-0.33,-0.651 -0.496,-1.382 -0.496,-2.192c0,-0.8 0.166,-1.526 0.496,-2.176c0.331,-0.651 0.782,-1.16 1.352,-1.528c0.571,-0.368 1.203,-0.552 1.896,-0.552c0.63,0 1.211,0.157 1.744,0.472c0.534,0.314 0.939,0.722 1.216,1.224l0,-4.688c0,-0.139 0.046,-0.254 0.136,-0.344c0.091,-0.091 0.206,-0.136 0.344,-0.136Zm-3.328,11.104c0.555,0 1.054,-0.144 1.496,-0.432c0.443,-0.288 0.79,-0.691 1.04,-1.208c0.251,-0.518 0.376,-1.096 0.376,-1.736c0,-0.63 -0.125,-1.2 -0.376,-1.712c-0.25,-0.512 -0.597,-0.915 -1.04,-1.208c-0.442,-0.294 -0.941,-0.44 -1.496,-0.44c-0.554,0 -1.053,0.146 -1.496,0.44c-0.442,0.293 -0.789,0.696 -1.04,1.208c-0.25,0.512 -0.376,1.082 -0.376,1.712c0,0.64 0.126,1.216 0.376,1.728c0.251,0.512 0.598,0.914 1.04,1.208c0.443,0.293 0.942,0.44 1.496,0.44Z" style="fill:none;"/><path d="M249.482,6.04c0,0.128 -0.048,0.237 -0.144,0.328c-0.096,0.09 -0.208,0.136 -0.336,0.136l-6.048,0c0,0.64 0.131,1.213 0.392,1.72c0.262,0.506 0.635,0.906 1.12,1.2c0.486,0.293 1.059,0.44 1.72,0.44c0.512,0 0.971,-0.107 1.376,-0.32c0.406,-0.214 0.731,-0.486 0.976,-0.816c0.118,-0.096 0.23,-0.144 0.336,-0.144c0.107,0 0.203,0.042 0.288,0.128c0.086,0.085 0.128,0.181 0.128,0.288c0,0.117 -0.053,0.229 -0.16,0.336c-0.341,0.416 -0.77,0.757 -1.288,1.024c-0.517,0.266 -1.064,0.4 -1.64,0.4c-0.821,0 -1.546,-0.176 -2.176,-0.528c-0.629,-0.352 -1.12,-0.846 -1.472,-1.48c-0.352,-0.635 -0.528,-1.368 -0.528,-2.2c0,-0.875 0.174,-1.64 0.52,-2.296c0.347,-0.656 0.808,-1.158 1.384,-1.504c0.576,-0.347 1.19,-0.52 1.84,-0.52c0.64,0 1.24,0.149 1.8,0.448c0.56,0.298 1.016,0.736 1.368,1.312c0.352,0.576 0.534,1.258 0.544,2.048Zm-3.712,-2.88c-0.618,0 -1.192,0.213 -1.72,0.64c-0.528,0.426 -0.866,1.04 -1.016,1.84l5.456,0l0,-0.128c-0.053,-0.48 -0.213,-0.899 -0.48,-1.256c-0.266,-0.358 -0.6,-0.63 -1,-0.816c-0.4,-0.187 -0.813,-0.28 -1.24,-0.28Z" style="fill:none;"/><path d="M261.258,2.232c0.214,0 0.406,0.042 0.576,0.128c0.171,0.085 0.256,0.213 0.256,0.384c0,0.149 -0.042,0.269 -0.128,0.36c-0.085,0.09 -0.186,0.136 -0.304,0.136c-0.053,0 -0.157,-0.027 -0.312,-0.08c-0.154,-0.054 -0.301,-0.08 -0.44,-0.08c-0.394,0 -0.786,0.152 -1.176,0.456c-0.389,0.304 -0.709,0.696 -0.96,1.176c-0.25,0.48 -0.376,0.965 -0.376,1.456l0,3.952c0,0.138 -0.045,0.253 -0.136,0.344c-0.09,0.09 -0.205,0.136 -0.344,0.136c-0.138,0 -0.253,-0.046 -0.344,-0.136c-0.09,-0.091 -0.136,-0.206 -0.136,-0.344l0,-7.168c0,-0.139 0.046,-0.254 0.136,-0.344c0.091,-0.091 0.206,-0.136 0.344,-0.136c0.139,0 0.254,0.045 0.344,0.136c0.091,0.09 0.136,0.205 0.136,0.344l0,1.408c0.246,-0.608 0.616,-1.112 1.112,-1.512c0.496,-0.4 1.08,-0.606 1.752,-0.616Z" style="fill:none;"/><path d="M271.594,6.504c0,0.8 -0.176,1.525 -0.528,2.176c-0.352,0.65 -0.837,1.16 -1.456,1.528c-0.618,0.368 -1.306,0.552 -2.064,0.552c-0.757,0 -1.445,-0.184 -2.064,-0.552c-0.618,-0.368 -1.104,-0.878 -1.456,-1.528c-0.352,-0.651 -0.528,-1.376 -0.528,-2.176c0,-0.8 0.176,-1.526 0.528,-2.176c0.352,-0.651 0.838,-1.163 1.456,-1.536c0.619,-0.374 1.307,-0.56 2.064,-0.56c0.758,0 1.446,0.186 2.064,0.56c0.619,0.373 1.104,0.885 1.456,1.536c0.352,0.65 0.528,1.376 0.528,2.176Zm-0.96,0c0,-0.64 -0.133,-1.216 -0.4,-1.728c-0.266,-0.512 -0.637,-0.915 -1.112,-1.208c-0.474,-0.294 -1,-0.44 -1.576,-0.44c-0.576,0 -1.098,0.146 -1.568,0.44c-0.469,0.293 -0.84,0.696 -1.112,1.208c-0.272,0.512 -0.408,1.088 -0.408,1.728c0,0.629 0.136,1.2 0.408,1.712c0.272,0.512 0.643,0.914 1.112,1.208c0.47,0.293 0.992,0.44 1.568,0.44c0.576,0 1.102,-0.144 1.576,-0.432c0.475,-0.288 0.846,-0.688 1.112,-1.2c0.267,-0.512 0.4,-1.088 0.4,-1.728Z" style="fill:none;"/><path d="M283.642,2.36c0.96,0 1.667,0.296 2.12,0.888c0.454,0.592 0.68,1.373 0.68,2.344l0,4.528c0,0.138 -0.045,0.253 -0.136,0.344c-0.09,0.09 -0.205,0.136 -0.344,0.136c-0.138,0 -0.253,-0.046 -0.344,-0.136c-0.09,-0.091 -0.136,-0.206 -0.136,-0.344l0,-4.48c0,-0.704 -0.168,-1.278 -0.504,-1.72c-0.336,-0.443 -0.856,-0.664 -1.56,-0.664c-0.448,0 -0.872,0.106 -1.272,0.32c-0.4,0.213 -0.722,0.504 -0.968,0.872c-0.245,0.368 -0.368,0.765 -0.368,1.192l0,4.48c0,0.138 -0.045,0.253 -0.136,0.344c-0.09,0.09 -0.205,0.136 -0.344,0.136c-0.138,0 -0.253,-0.046 -0.344,-0.136c-0.09,-0.091 -0.136,-0.206 -0.136,-0.344l0,-4.528c0,-0.694 -0.16,-1.256 -0.48,-1.688c-0.32,-0.432 -0.821,-0.648 -1.504,-0.648c-0.437,0 -0.85,0.106 -1.24,0.32c-0.389,0.213 -0.704,0.498 -0.944,0.856c-0.24,0.357 -0.36,0.744 -0.36,1.16l0,4.528c0,0.138 -0.045,0.253 -0.136,0.344c-0.09,0.09 -0.205,0.136 -0.344,0.136c-0.138,0 -0.253,-0.046 -0.344,-0.136c-0.09,-0.091 -0.136,-0.206 -0.136,-0.344l0,-7.168c0,-0.139 0.046,-0.254 0.136,-0.344c0.091,-0.091 0.206,-0.136 0.344,-0.136c0.139,0 0.254,0.045 0.344,0.136c0.091,0.09 0.136,0.205 0.136,0.344l0,0.928c0.288,-0.438 0.678,-0.8 1.168,-1.088c0.491,-0.288 1.008,-0.432 1.552,-0.432c0.619,0 1.152,0.149 1.6,0.448c0.448,0.298 0.768,0.736 0.96,1.312c0.224,-0.47 0.635,-0.88 1.232,-1.232c0.598,-0.352 1.2,-0.528 1.808,-0.528Z" style="fill:none;"/><path d="M296.394,2.424c0.139,0 0.254,0.048 0.344,0.144c0.091,0.096 0.136,0.213 0.136,0.352l0,7.2c0,0.138 -0.045,0.253 -0.136,0.344c-0.09,0.09 -0.205,0.136 -0.344,0.136c-0.138,0 -0.253,-0.046 -0.344,-0.136c-0.09,-0.091 -0.136,-0.206 -0.136,-0.344l0,-1.072c-0.266,0.48 -0.666,0.885 -1.2,1.216c-0.533,0.33 -1.114,0.496 -1.744,0.496c-0.714,0 -1.357,-0.187 -1.928,-0.56c-0.57,-0.374 -1.018,-0.886 -1.344,-1.536c-0.325,-0.651 -0.488,-1.382 -0.488,-2.192c0,-0.811 0.166,-1.539 0.496,-2.184c0.331,-0.646 0.782,-1.15 1.352,-1.512c0.571,-0.363 1.203,-0.544 1.896,-0.544c0.64,0 1.227,0.154 1.76,0.464c0.534,0.309 0.934,0.714 1.2,1.216l0,-0.992c0,-0.139 0.046,-0.256 0.136,-0.352c0.091,-0.096 0.206,-0.144 0.344,-0.144Zm-3.328,7.44c0.555,0 1.054,-0.147 1.496,-0.44c0.443,-0.294 0.79,-0.699 1.04,-1.216c0.251,-0.518 0.376,-1.096 0.376,-1.736c0,-0.619 -0.125,-1.184 -0.376,-1.696c-0.25,-0.512 -0.597,-0.915 -1.04,-1.208c-0.442,-0.294 -0.941,-0.44 -1.496,-0.44c-0.554,0 -1.053,0.144 -1.496,0.432c-0.442,0.288 -0.789,0.685 -1.04,1.192c-0.25,0.506 -0.376,1.08 -0.376,1.72c0,0.64 0.123,1.218 0.368,1.736c0.246,0.517 0.59,0.922 1.032,1.216c0.443,0.293 0.947,0.44 1.512,0.44Z" style="fill:none;"/><path d="M19.658,5c0,1.098 -0.229,2.085 -0.688,2.96c-0.458,0.874 -1.093,1.56 -1.904,2.056c-0.81,0.496 -1.733,0.744 -2.768,0.744c-1.034,0 -1.957,-0.248 -2.768,-0.744c-0.81,-0.496 -1.445,-1.182 -1.904,-2.056c-0.458,-0.875 -0.688,-1.862 -0.688,-2.96c0,-1.11 0.23,-2.102 0.688,-2.976c0.459,-0.875 1.094,-1.558 1.904,-2.048c0.811,-0.491 1.734,-0.736 2.768,-0.736c1.035,0 1.958,0.245 2.768,0.736c0.811,0.49 1.446,1.173 1.904,2.048c0.459,0.874 0.688,1.866 0.688,2.976Zm-1.024,0c0,-0.928 -0.184,-1.758 -0.552,-2.488c-0.368,-0.731 -0.88,-1.299 -1.536,-1.704c-0.656,-0.406 -1.405,-0.608 -2.248,-0.608c-0.842,0 -1.592,0.202 -2.248,0.608c-0.656,0.405 -1.168,0.973 -1.536,1.704c-0.368,0.73 -0.552,1.56 -0.552,2.488c0,0.928 0.184,1.757 0.552,2.488c0.368,0.73 0.88,1.298 1.536,1.704c0.656,0.405 1.406,0.608 2.248,0.608c0.843,0 1.592,-0.203 2.248,-0.608c0.656,-0.406 1.168,-0.974 1.536,-1.704c0.368,-0.731 0.552,-1.56 0.552,-2.488Z" style="fill:none;stroke:#555;stroke-width:0.77px;"/><path d="M34.57,2.424c0.139,0 0.254,0.045 0.344,0.136c0.091,0.09 0.136,0.21 0.136,0.36l0,6.928c0,0.832 -0.173,1.544 -0.52,2.136c-0.346,0.592 -0.821,1.042 -1.424,1.352c-0.602,0.309 -1.293,0.464 -2.072,0.464c-0.373,0 -0.765,-0.048 -1.176,-0.144c-0.41,-0.096 -0.762,-0.219 -1.056,-0.368c-0.293,-0.15 -0.461,-0.304 -0.504,-0.464c-0.074,-0.075 -0.112,-0.16 -0.112,-0.256c0,-0.107 0.048,-0.192 0.144,-0.256c0.043,-0.032 0.096,-0.048 0.16,-0.048c0.064,0 0.187,0.037 0.368,0.112l0.336,0.144c0.662,0.256 1.28,0.384 1.856,0.384c0.95,0 1.694,-0.27 2.232,-0.808c0.539,-0.539 0.808,-1.267 0.808,-2.184l0,-0.992c-0.266,0.576 -0.688,1.026 -1.264,1.352c-0.576,0.325 -1.178,0.488 -1.808,0.488c-0.736,0 -1.4,-0.184 -1.992,-0.552c-0.592,-0.368 -1.058,-0.878 -1.4,-1.528c-0.341,-0.651 -0.512,-1.382 -0.512,-2.192c0,-0.8 0.171,-1.526 0.512,-2.176c0.342,-0.651 0.808,-1.16 1.4,-1.528c0.592,-0.368 1.251,-0.552 1.976,-0.552c0.672,0 1.288,0.168 1.848,0.504c0.56,0.336 0.974,0.738 1.24,1.208l0,-1.024c0,-0.139 0.046,-0.256 0.136,-0.352c0.091,-0.096 0.206,-0.144 0.344,-0.144Zm-3.472,7.44c0.587,0 1.112,-0.142 1.576,-0.424c0.464,-0.283 0.827,-0.683 1.088,-1.2c0.262,-0.518 0.392,-1.102 0.392,-1.752c0,-0.651 -0.13,-1.232 -0.392,-1.744c-0.261,-0.512 -0.624,-0.91 -1.088,-1.192c-0.464,-0.283 -0.989,-0.424 -1.576,-0.424c-0.576,0 -1.096,0.146 -1.56,0.44c-0.464,0.293 -0.826,0.696 -1.088,1.208c-0.261,0.512 -0.392,1.082 -0.392,1.712c0,0.64 0.131,1.216 0.392,1.728c0.262,0.512 0.624,0.914 1.088,1.208c0.464,0.293 0.984,0.44 1.56,0.44Z" style="fill:none;stroke:#555;stroke-width:0.77px;"/><path d="M44.938,2.424c0.139,0 0.254,0.048 0.344,0.144c0.091,0.096 0.136,0.213 0.136,0.352l0,7.2c0,0.138 -0.045,0.253 -0.136,0.344c-0.09,0.09 -0.205,0.136 -0.344,0.136c-0.138,0 -0.253,-0.046 -0.344,-0.136c-0.09,-0.091 -0.136,-0.206 -0.136,-0.344l0,-1.072c-0.266,0.48 -0.666,0.885 -1.2,1.216c-0.533,0.33 -1.114,0.496 -1.744,0.496c-0.714,0 -1.357,-0.187 -1.928,-0.56c-0.57,-0.374 -1.018,-0.886 -1.344,-1.536c-0.325,-0.651 -0.488,-1.382 -0.488,-2.192c0,-0.811 0.166,-1.539 0.496,-2.184c0.331,-0.646 0.782,-1.15 1.352,-1.512c0.571,-0.363 1.203,-0.544 1.896,-0.544c0.64,0 1.227,0.154 1.76,0.464c0.534,0.309 0.934,0.714 1.2,1.216l0,-0.992c0,-0.139 0.046,-0.256 0.136,-0.352c0.091,-0.096 0.206,-0.144 0.344,-0.144Zm-3.328,7.44c0.555,0 1.054,-0.147 1.496,-0.44c0.443,-0.294 0.79,-0.699 1.04,-1.216c0.251,-0.518 0.376,-1.096 0.376,-1.736c0,-0.619 -0.125,-1.184 -0.376,-1.696c-0.25,-0.512 -0.597,-0.915 -1.04,-1.208c-0.442,-0.294 -0.941,-0.44 -1.496,-0.44c-0.554,0 -1.053,0.144 -1.496,0.432c-0.442,0.288 -0.789,0.685 -1.04,1.192c-0.25,0.506 -0.376,1.08 -0.376,1.72c0,0.64 0.123,1.218 0.368,1.736c0.246,0.517 0.59,0.922 1.032,1.216c0.443,0.293 0.947,0.44 1.512,0.44Z" style="fill:none;stroke:#555;stroke-width:0.77px;"/><path d="M50.33,3.352l0,5.36c0,0.405 0.075,0.68 0.224,0.824c0.15,0.144 0.347,0.216 0.592,0.216c0.064,0 0.144,-0.014 0.24,-0.04c0.096,-0.027 0.171,-0.04 0.224,-0.04c0.096,0 0.179,0.04 0.248,0.12c0.07,0.08 0.104,0.173 0.104,0.28c0,0.149 -0.085,0.274 -0.256,0.376c-0.17,0.101 -0.373,0.152 -0.608,0.152c-0.288,0 -0.544,-0.027 -0.768,-0.08c-0.224,-0.054 -0.44,-0.214 -0.648,-0.48c-0.208,-0.267 -0.312,-0.694 -0.312,-1.28l0,-5.408l-1.168,0c-0.128,0 -0.237,-0.043 -0.328,-0.128c-0.09,-0.086 -0.136,-0.192 -0.136,-0.32c0,-0.128 0.046,-0.235 0.136,-0.32c0.091,-0.086 0.2,-0.128 0.328,-0.128l1.168,0l0,-1.776c0,-0.139 0.046,-0.254 0.136,-0.344c0.091,-0.091 0.206,-0.136 0.344,-0.136c0.139,0 0.254,0.045 0.344,0.136c0.091,0.09 0.136,0.205 0.136,0.344l0,1.776l1.6,0c0.118,0 0.222,0.048 0.312,0.144c0.091,0.096 0.136,0.202 0.136,0.32c0,0.128 -0.042,0.232 -0.128,0.312c-0.085,0.08 -0.192,0.12 -0.32,0.12l-1.6,0Z" style="fill:none;stroke:#555;stroke-width:0.77px;"/><path d="M62.426,6.504c0,0.8 -0.176,1.525 -0.528,2.176c-0.352,0.65 -0.837,1.16 -1.456,1.528c-0.618,0.368 -1.306,0.552 -2.064,0.552c-0.757,0 -1.445,-0.184 -2.064,-0.552c-0.618,-0.368 -1.104,-0.878 -1.456,-1.528c-0.352,-0.651 -0.528,-1.376 -0.528,-2.176c0,-0.8 0.176,-1.526 0.528,-2.176c0.352,-0.651 0.838,-1.163 1.456,-1.536c0.619,-0.374 1.307,-0.56 2.064,-0.56c0.758,0 1.446,0.186 2.064,0.56c0.619,0.373 1.104,0.885 1.456,1.536c0.352,0.65 0.528,1.376 0.528,2.176Zm-0.96,0c0,-0.64 -0.133,-1.216 -0.4,-1.728c-0.266,-0.512 -0.637,-0.915 -1.112,-1.208c-0.474,-0.294 -1,-0.44 -1.576,-0.44c-0.576,0 -1.098,0.146 -1.568,0.44c-0.469,0.293 -0.84,0.696 -1.112,1.208c-0.272,0.512 -0.408,1.088 -0.408,1.728c0,0.629 0.136,1.2 0.408,1.712c0.272,0.512 0.643,0.914 1.112,1.208c0.47,0.293 0.992,0.44 1.568,0.44c0.576,0 1.102,-0.144 1.576,-0.432c0.475,-0.288 0.846,-0.688 1.112,-1.2c0.267,-0.512 0.4,-1.088 0.4,-1.728Z" style="fill:none;stroke:#555;stroke-width:0.77px;"/><path d="M74.186,2.232c0.214,0 0.406,0.042 0.576,0.128c0.171,0.085 0.256,0.213 0.256,0.384c0,0.149 -0.042,0.269 -0.128,0.36c-0.085,0.09 -0.186,0.136 -0.304,0.136c-0.053,0 -0.157,-0.027 -0.312,-0.08c-0.154,-0.054 -0.301,-0.08 -0.44,-0.08c-0.394,0 -0.786,0.152 -1.176,0.456c-0.389,0.304 -0.709,0.696 -0.96,1.176c-0.25,0.48 -0.376,0.965 -0.376,1.456l0,3.952c0,0.138 -0.045,0.253 -0.136,0.344c-0.09,0.09 -0.205,0.136 -0.344,0.136c-0.138,0 -0.253,-0.046 -0.344,-0.136c-0.09,-0.091 -0.136,-0.206 -0.136,-0.344l0,-7.168c0,-0.139 0.046,-0.254 0.136,-0.344c0.091,-0.091 0.206,-0.136 0.344,-0.136c0.139,0 0.254,0.045 0.344,0.136c0.091,0.09 0.136,0.205 0.136,0.344l0,1.408c0.246,-0.608 0.616,-1.112 1.112,-1.512c0.496,-0.4 1.08,-0.606 1.752,-0.616Z" style="fill:none;stroke:#555;stroke-width:0.77px;"/><path d="M84.522,6.504c0,0.8 -0.176,1.525 -0.528,2.176c-0.352,0.65 -0.837,1.16 -1.456,1.528c-0.618,0.368 -1.306,0.552 -2.064,0.552c-0.757,0 -1.445,-0.184 -2.064,-0.552c-0.618,-0.368 -1.104,-0.878 -1.456,-1.528c-0.352,-0.651 -0.528,-1.376 -0.528,-2.176c0,-0.8 0.176,-1.526 0.528,-2.176c0.352,-0.651 0.838,-1.163 1.456,-1.536c0.619,-0.374 1.307,-0.56 2.064,-0.56c0.758,0 1.446,0.186 2.064,0.56c0.619,0.373 1.104,0.885 1.456,1.536c0.352,0.65 0.528,1.376 0.528,2.176Zm-0.96,0c0,-0.64 -0.133,-1.216 -0.4,-1.728c-0.266,-0.512 -0.637,-0.915 -1.112,-1.208c-0.474,-0.294 -1,-0.44 -1.576,-0.44c-0.576,0 -1.098,0.146 -1.568,0.44c-0.469,0.293 -0.84,0.696 -1.112,1.208c-0.272,0.512 -0.408,1.088 -0.408,1.728c0,0.629 0.136,1.2 0.408,1.712c0.272,0.512 0.643,0.914 1.112,1.208c0.47,0.293 0.992,0.44 1.568,0.44c0.576,0 1.102,-0.144 1.576,-0.432c0.475,-0.288 0.846,-0.688 1.112,-1.2c0.267,-0.512 0.4,-1.088 0.4,-1.728Z" style="fill:none;stroke:#555;stroke-width:0.77px;"/><path d="M94.202,6.04c0,0.128 -0.048,0.237 -0.144,0.328c-0.096,0.09 -0.208,0.136 -0.336,0.136l-6.048,0c0,0.64 0.131,1.213 0.392,1.72c0.262,0.506 0.635,0.906 1.12,1.2c0.486,0.293 1.059,0.44 1.72,0.44c0.512,0 0.971,-0.107 1.376,-0.32c0.406,-0.214 0.731,-0.486 0.976,-0.816c0.118,-0.096 0.23,-0.144 0.336,-0.144c0.107,0 0.203,0.042 0.288,0.128c0.086,0.085 0.128,0.181 0.128,0.288c0,0.117 -0.053,0.229 -0.16,0.336c-0.341,0.416 -0.77,0.757 -1.288,1.024c-0.517,0.266 -1.064,0.4 -1.64,0.4c-0.821,0 -1.546,-0.176 -2.176,-0.528c-0.629,-0.352 -1.12,-0.846 -1.472,-1.48c-0.352,-0.635 -0.528,-1.368 -0.528,-2.2c0,-0.875 0.174,-1.64 0.52,-2.296c0.347,-0.656 0.808,-1.158 1.384,-1.504c0.576,-0.347 1.19,-0.52 1.84,-0.52c0.64,0 1.24,0.149 1.8,0.448c0.56,0.298 1.016,0.736 1.368,1.312c0.352,0.576 0.534,1.258 0.544,2.048Zm-3.712,-2.88c-0.618,0 -1.192,0.213 -1.72,0.64c-0.528,0.426 -0.866,1.04 -1.016,1.84l5.456,0l0,-0.128c-0.053,-0.48 -0.213,-0.899 -0.48,-1.256c-0.266,-0.358 -0.6,-0.63 -1,-0.816c-0.4,-0.187 -0.813,-0.28 -1.24,-0.28Z" style="fill:none;stroke:#555;stroke-width:0.77px;"/><path d="M103.098,2.472c0.139,0 0.254,0.045 0.344,0.136c0.091,0.09 0.136,0.205 0.136,0.344l0,4.512c0,1.045 -0.293,1.848 -0.88,2.408c-0.586,0.56 -1.397,0.84 -2.432,0.84c-1.024,0 -1.826,-0.28 -2.408,-0.84c-0.581,-0.56 -0.872,-1.363 -0.872,-2.408l0,-4.512c0,-0.139 0.046,-0.254 0.136,-0.344c0.091,-0.091 0.206,-0.136 0.344,-0.136c0.139,0 0.254,0.045 0.344,0.136c0.091,0.09 0.136,0.205 0.136,0.344l0,4.512c0,0.768 0.203,1.352 0.608,1.752c0.406,0.4 0.976,0.6 1.712,0.6c0.747,0 1.326,-0.2 1.736,-0.6c0.411,-0.4 0.616,-0.984 0.616,-1.752l0,-4.512c0,-0.139 0.046,-0.254 0.136,-0.344c0.091,-0.091 0.206,-0.136 0.344,-0.136Z" style="fill:none;stroke:#555;stroke-width:0.77px;"/><path d="M118.698,2.424c0.139,0 0.254,0.048 0.344,0.144c0.091,0.096 0.136,0.213 0.136,0.352l0,7.2c0,0.138 -0.045,0.253 -0.136,0.344c-0.09,0.09 -0.205,0.136 -0.344,0.136c-0.138,0 -0.253,-0.046 -0.344,-0.136c-0.09,-0.091 -0.136,-0.206 -0.136,-0.344l0,-1.072c-0.266,0.48 -0.666,0.885 -1.2,1.216c-0.533,0.33 -1.114,0.496 -1.744,0.496c-0.714,0 -1.357,-0.187 -1.928,-0.56c-0.57,-0.374 -1.018,-0.886 -1.344,-1.536c-0.325,-0.651 -0.488,-1.382 -0.488,-2.192c0,-0.811 0.166,-1.539 0.496,-2.184c0.331,-0.646 0.782,-1.15 1.352,-1.512c0.571,-0.363 1.203,-0.544 1.896,-0.544c0.64,0 1.227,0.154 1.76,0.464c0.534,0.309 0.934,0.714 1.2,1.216l0,-0.992c0,-0.139 0.046,-0.256 0.136,-0.352c0.091,-0.096 0.206,-0.144 0.344,-0.144Zm-3.328,7.44c0.555,0 1.054,-0.147 1.496,-0.44c0.443,-0.294 0.79,-0.699 1.04,-1.216c0.251,-0.518 0.376,-1.096 0.376,-1.736c0,-0.619 -0.125,-1.184 -0.376,-1.696c-0.25,-0.512 -0.597,-0.915 -1.04,-1.208c-0.442,-0.294 -0.941,-0.44 -1.496,-0.44c-0.554,0 -1.053,0.144 -1.496,0.432c-0.442,0.288 -0.789,0.685 -1.04,1.192c-0.25,0.506 -0.376,1.08 -0.376,1.72c0,0.64 0.123,1.218 0.368,1.736c0.246,0.517 0.59,0.922 1.032,1.216c0.443,0.293 0.947,0.44 1.512,0.44Z" style="fill:none;stroke:#555;stroke-width:0.77px;"/><path d="M131.482,2.232c0.214,0 0.406,0.042 0.576,0.128c0.171,0.085 0.256,0.213 0.256,0.384c0,0.149 -0.042,0.269 -0.128,0.36c-0.085,0.09 -0.186,0.136 -0.304,0.136c-0.053,0 -0.157,-0.027 -0.312,-0.08c-0.154,-0.054 -0.301,-0.08 -0.44,-0.08c-0.394,0 -0.786,0.152 -1.176,0.456c-0.389,0.304 -0.709,0.696 -0.96,1.176c-0.25,0.48 -0.376,0.965 -0.376,1.456l0,3.952c0,0.138 -0.045,0.253 -0.136,0.344c-0.09,0.09 -0.205,0.136 -0.344,0.136c-0.138,0 -0.253,-0.046 -0.344,-0.136c-0.09,-0.091 -0.136,-0.206 -0.136,-0.344l0,-7.168c0,-0.139 0.046,-0.254 0.136,-0.344c0.091,-0.091 0.206,-0.136 0.344,-0.136c0.139,0 0.254,0.045 0.344,0.136c0.091,0.09 0.136,0.205 0.136,0.344l0,1.408c0.246,-0.608 0.616,-1.112 1.112,-1.512c0.496,-0.4 1.08,-0.606 1.752,-0.616Z" style="fill:none;stroke:#555;stroke-width:0.77px;"/><path d="M141.818,6.504c0,0.8 -0.176,1.525 -0.528,2.176c-0.352,0.65 -0.837,1.16 -1.456,1.528c-0.618,0.368 -1.306,0.552 -2.064,0.552c-0.757,0 -1.445,-0.184 -2.064,-0.552c-0.618,-0.368 -1.104,-0.878 -1.456,-1.528c-0.352,-0.651 -0.528,-1.376 -0.528,-2.176c0,-0.8 0.176,-1.526 0.528,-2.176c0.352,-0.651 0.838,-1.163 1.456,-1.536c0.619,-0.374 1.307,-0.56 2.064,-0.56c0.758,0 1.446,0.186 2.064,0.56c0.619,0.373 1.104,0.885 1.456,1.536c0.352,0.65 0.528,1.376 0.528,2.176Zm-0.96,0c0,-0.64 -0.133,-1.216 -0.4,-1.728c-0.266,-0.512 -0.637,-0.915 -1.112,-1.208c-0.474,-0.294 -1,-0.44 -1.576,-0.44c-0.576,0 -1.098,0.146 -1.568,0.44c-0.469,0.293 -0.84,0.696 -1.112,1.208c-0.272,0.512 -0.408,1.088 -0.408,1.728c0,0.629 0.136,1.2 0.408,1.712c0.272,0.512 0.643,0.914 1.112,1.208c0.47,0.293 0.992,0.44 1.568,0.44c0.576,0 1.102,-0.144 1.576,-0.432c0.475,-0.288 0.846,-0.688 1.112,-1.2c0.267,-0.512 0.4,-1.088 0.4,-1.728Z" style="fill:none;stroke:#555;stroke-width:0.77px;"/><path d="M150.698,2.472c0.139,0 0.254,0.045 0.344,0.136c0.091,0.09 0.136,0.205 0.136,0.344l0,4.512c0,1.045 -0.293,1.848 -0.88,2.408c-0.586,0.56 -1.397,0.84 -2.432,0.84c-1.024,0 -1.826,-0.28 -2.408,-0.84c-0.581,-0.56 -0.872,-1.363 -0.872,-2.408l0,-4.512c0,-0.139 0.046,-0.254 0.136,-0.344c0.091,-0.091 0.206,-0.136 0.344,-0.136c0.139,0 0.254,0.045 0.344,0.136c0.091,0.09 0.136,0.205 0.136,0.344l0,4.512c0,0.768 0.203,1.352 0.608,1.752c0.406,0.4 0.976,0.6 1.712,0.6c0.747,0 1.326,-0.2 1.736,-0.6c0.411,-0.4 0.616,-0.984 0.616,-1.752l0,-4.512c0,-0.139 0.046,-0.254 0.136,-0.344c0.091,-0.091 0.206,-0.136 0.344,-0.136Z" style="fill:none;stroke:#555;stroke-width:0.77px;"/><path d="M158.378,2.36c0.704,0 1.344,0.178 1.92,0.536c0.576,0.357 1.027,0.853 1.352,1.488c0.326,0.634 0.488,1.346 0.488,2.136c0,0.8 -0.162,1.517 -0.488,2.152c-0.325,0.634 -0.773,1.133 -1.344,1.496c-0.57,0.362 -1.208,0.544 -1.912,0.544c-0.618,0 -1.186,-0.147 -1.704,-0.44c-0.517,-0.294 -0.93,-0.686 -1.24,-1.176l0,4.224c0,0.138 -0.045,0.253 -0.136,0.344c-0.09,0.09 -0.205,0.136 -0.344,0.136c-0.138,0 -0.253,-0.046 -0.344,-0.136c-0.09,-0.091 -0.136,-0.206 -0.136,-0.344l0,-10.432c0,-0.139 0.046,-0.256 0.136,-0.352c0.091,-0.096 0.206,-0.144 0.344,-0.144c0.139,0 0.254,0.048 0.344,0.144c0.091,0.096 0.136,0.213 0.136,0.352l0,1.088c0.278,-0.502 0.678,-0.896 1.2,-1.184c0.523,-0.288 1.099,-0.432 1.728,-0.432Zm-0.08,7.456c0.555,0 1.054,-0.142 1.496,-0.424c0.443,-0.283 0.79,-0.675 1.04,-1.176c0.251,-0.502 0.376,-1.067 0.376,-1.696c0,-0.619 -0.125,-1.176 -0.376,-1.672c-0.25,-0.496 -0.597,-0.886 -1.04,-1.168c-0.442,-0.283 -0.941,-0.424 -1.496,-0.424c-0.565,0 -1.072,0.138 -1.52,0.416c-0.448,0.277 -0.794,0.664 -1.04,1.16c-0.245,0.496 -0.368,1.058 -0.368,1.688c0,0.629 0.123,1.194 0.368,1.696c0.246,0.501 0.592,0.893 1.04,1.176c0.448,0.282 0.955,0.424 1.52,0.424Z" style="fill:none;stroke:#555;stroke-width:0.77px;"/><path d="M171.562,2.424c0.139,0 0.254,0.048 0.344,0.144c0.091,0.096 0.136,0.213 0.136,0.352l0,7.2c0,0.138 -0.045,0.253 -0.136,0.344c-0.09,0.09 -0.205,0.136 -0.344,0.136c-0.138,0 -0.253,-0.046 -0.344,-0.136c-0.09,-0.091 -0.136,-0.206 -0.136,-0.344l0,-1.072c-0.266,0.48 -0.666,0.885 -1.2,1.216c-0.533,0.33 -1.114,0.496 -1.744,0.496c-0.714,0 -1.357,-0.187 -1.928,-0.56c-0.57,-0.374 -1.018,-0.886 -1.344,-1.536c-0.325,-0.651 -0.488,-1.382 -0.488,-2.192c0,-0.811 0.166,-1.539 0.496,-2.184c0.331,-0.646 0.782,-1.15 1.352,-1.512c0.571,-0.363 1.203,-0.544 1.896,-0.544c0.64,0 1.227,0.154 1.76,0.464c0.534,0.309 0.934,0.714 1.2,1.216l0,-0.992c0,-0.139 0.046,-0.256 0.136,-0.352c0.091,-0.096 0.206,-0.144 0.344,-0.144Zm-3.328,7.44c0.555,0 1.054,-0.147 1.496,-0.44c0.443,-0.294 0.79,-0.699 1.04,-1.216c0.251,-0.518 0.376,-1.096 0.376,-1.736c0,-0.619 -0.125,-1.184 -0.376,-1.696c-0.25,-0.512 -0.597,-0.915 -1.04,-1.208c-0.442,-0.294 -0.941,-0.44 -1.496,-0.44c-0.554,0 -1.053,0.144 -1.496,0.432c-0.442,0.288 -0.789,0.685 -1.04,1.192c-0.25,0.506 -0.376,1.08 -0.376,1.72c0,0.64 0.123,1.218 0.368,1.736c0.246,0.517 0.59,0.922 1.032,1.216c0.443,0.293 0.947,0.44 1.512,0.44Z" style="fill:none;stroke:#555;stroke-width:0.77px;"/><path d="M187.162,-1.24c0.139,0 0.254,0.045 0.344,0.136c0.091,0.09 0.136,0.205 0.136,0.344l0,10.88c0,0.138 -0.045,0.253 -0.136,0.344c-0.09,0.09 -0.205,0.136 -0.344,0.136c-0.138,0 -0.253,-0.046 -0.344,-0.136c-0.09,-0.091 -0.136,-0.206 -0.136,-0.344l0,-1.12c-0.266,0.49 -0.664,0.906 -1.192,1.248c-0.528,0.341 -1.112,0.512 -1.752,0.512c-0.704,0 -1.341,-0.184 -1.912,-0.552c-0.57,-0.368 -1.021,-0.878 -1.352,-1.528c-0.33,-0.651 -0.496,-1.382 -0.496,-2.192c0,-0.8 0.166,-1.526 0.496,-2.176c0.331,-0.651 0.782,-1.16 1.352,-1.528c0.571,-0.368 1.203,-0.552 1.896,-0.552c0.63,0 1.211,0.157 1.744,0.472c0.534,0.314 0.939,0.722 1.216,1.224l0,-4.688c0,-0.139 0.046,-0.254 0.136,-0.344c0.091,-0.091 0.206,-0.136 0.344,-0.136Zm-3.328,11.104c0.555,0 1.054,-0.144 1.496,-0.432c0.443,-0.288 0.79,-0.691 1.04,-1.208c0.251,-0.518 0.376,-1.096 0.376,-1.736c0,-0.63 -0.125,-1.2 -0.376,-1.712c-0.25,-0.512 -0.597,-0.915 -1.04,-1.208c-0.442,-0.294 -0.941,-0.44 -1.496,-0.44c-0.554,0 -1.053,0.146 -1.496,0.44c-0.442,0.293 -0.789,0.696 -1.04,1.208c-0.25,0.512 -0.376,1.082 -0.376,1.712c0,0.64 0.126,1.216 0.376,1.728c0.251,0.512 0.598,0.914 1.04,1.208c0.443,0.293 0.942,0.44 1.496,0.44Z" style="fill:none;stroke:#555;stroke-width:0.77px;"/><path d="M198.506,6.504c0,0.8 -0.176,1.525 -0.528,2.176c-0.352,0.65 -0.837,1.16 -1.456,1.528c-0.618,0.368 -1.306,0.552 -2.064,0.552c-0.757,0 -1.445,-0.184 -2.064,-0.552c-0.618,-0.368 -1.104,-0.878 -1.456,-1.528c-0.352,-0.651 -0.528,-1.376 -0.528,-2.176c0,-0.8 0.176,-1.526 0.528,-2.176c0.352,-0.651 0.838,-1.163 1.456,-1.536c0.619,-0.374 1.307,-0.56 2.064,-0.56c0.758,0 1.446,0.186 2.064,0.56c0.619,0.373 1.104,0.885 1.456,1.536c0.352,0.65 0.528,1.376 0.528,2.176Zm-0.96,0c0,-0.64 -0.133,-1.216 -0.4,-1.728c-0.266,-0.512 -0.637,-0.915 -1.112,-1.208c-0.474,-0.294 -1,-0.44 -1.576,-0.44c-0.576,0 -1.098,0.146 -1.568,0.44c-0.469,0.293 -0.84,0.696 -1.112,1.208c-0.272,0.512 -0.408,1.088 -0.408,1.728c0,0.629 0.136,1.2 0.408,1.712c0.272,0.512 0.643,0.914 1.112,1.208c0.47,0.293 0.992,0.44 1.568,0.44c0.576,0 1.102,-0.144 1.576,-0.432c0.475,-0.288 0.846,-0.688 1.112,-1.2c0.267,-0.512 0.4,-1.088 0.4,-1.728Z" style="fill:none;stroke:#555;stroke-width:0.77px;"/><path d="M210.266,2.232c0.214,0 0.406,0.042 0.576,0.128c0.171,0.085 0.256,0.213 0.256,0.384c0,0.149 -0.042,0.269 -0.128,0.36c-0.085,0.09 -0.186,0.136 -0.304,0.136c-0.053,0 -0.157,-0.027 -0.312,-0.08c-0.154,-0.054 -0.301,-0.08 -0.44,-0.08c-0.394,0 -0.786,0.152 -1.176,0.456c-0.389,0.304 -0.709,0.696 -0.96,1.176c-0.25,0.48 -0.376,0.965 -0.376,1.456l0,3.952c0,0.138 -0.045,0.253 -0.136,0.344c-0.09,0.09 -0.205,0.136 -0.344,0.136c-0.138,0 -0.253,-0.046 -0.344,-0.136c-0.09,-0.091 -0.136,-0.206 -0.136,-0.344l0,-7.168c0,-0.139 0.046,-0.254 0.136,-0.344c0.091,-0.091 0.206,-0.136 0.344,-0.136c0.139,0 0.254,0.045 0.344,0.136c0.091,0.09 0.136,0.205 0.136,0.344l0,1.408c0.246,-0.608 0.616,-1.112 1.112,-1.512c0.496,-0.4 1.08,-0.606 1.752,-0.616Z" style="fill:none;stroke:#555;stroke-width:0.77px;"/><path d="M219.962,6.04c0,0.128 -0.048,0.237 -0.144,0.328c-0.096,0.09 -0.208,0.136 -0.336,0.136l-6.048,0c0,0.64 0.131,1.213 0.392,1.72c0.262,0.506 0.635,0.906 1.12,1.2c0.486,0.293 1.059,0.44 1.72,0.44c0.512,0 0.971,-0.107 1.376,-0.32c0.406,-0.214 0.731,-0.486 0.976,-0.816c0.118,-0.096 0.23,-0.144 0.336,-0.144c0.107,0 0.203,0.042 0.288,0.128c0.086,0.085 0.128,0.181 0.128,0.288c0,0.117 -0.053,0.229 -0.16,0.336c-0.341,0.416 -0.77,0.757 -1.288,1.024c-0.517,0.266 -1.064,0.4 -1.64,0.4c-0.821,0 -1.546,-0.176 -2.176,-0.528c-0.629,-0.352 -1.12,-0.846 -1.472,-1.48c-0.352,-0.635 -0.528,-1.368 -0.528,-2.2c0,-0.875 0.174,-1.64 0.52,-2.296c0.347,-0.656 0.808,-1.158 1.384,-1.504c0.576,-0.347 1.19,-0.52 1.84,-0.52c0.64,0 1.24,0.149 1.8,0.448c0.56,0.298 1.016,0.736 1.368,1.312c0.352,0.576 0.534,1.258 0.544,2.048Zm-3.712,-2.88c-0.618,0 -1.192,0.213 -1.72,0.64c-0.528,0.426 -0.866,1.04 -1.016,1.84l5.456,0l0,-0.128c-0.053,-0.48 -0.213,-0.899 -0.48,-1.256c-0.266,-0.358 -0.6,-0.63 -1,-0.816c-0.4,-0.187 -0.813,-0.28 -1.24,-0.28Z" style="fill:none;stroke:#555;stroke-width:0.77px;"/><path d="M223.674,10.12c0,0.138 -0.045,0.253 -0.136,0.344c-0.09,0.09 -0.205,0.136 -0.344,0.136c-0.138,0 -0.253,-0.046 -0.344,-0.136c-0.09,-0.091 -0.136,-0.206 -0.136,-0.344l0,-7.36c0,-0.139 0.046,-0.254 0.136,-0.344c0.091,-0.091 0.206,-0.136 0.344,-0.136c0.139,0 0.254,0.045 0.344,0.136c0.091,0.09 0.136,0.205 0.136,0.344l0,7.36Zm-0.48,-8.912c-0.213,0 -0.378,-0.051 -0.496,-0.152c-0.117,-0.102 -0.176,-0.248 -0.176,-0.44l0,-0.16c0,-0.192 0.062,-0.339 0.184,-0.44c0.123,-0.102 0.291,-0.152 0.504,-0.152c0.427,0 0.64,0.197 0.64,0.592l0,0.16c0,0.192 -0.056,0.338 -0.168,0.44c-0.112,0.101 -0.274,0.152 -0.488,0.152Z" style="fill:none;stroke:#555;stroke-width:0.77px;"/><path d="M238.778,-1.24c0.139,0 0.254,0.045 0.344,0.136c0.091,0.09 0.136,0.205 0.136,0.344l0,10.88c0,0.138 -0.045,0.253 -0.136,0.344c-0.09,0.09 -0.205,0.136 -0.344,0.136c-0.138,0 -0.253,-0.046 -0.344,-0.136c-0.09,-0.091 -0.136,-0.206 -0.136,-0.344l0,-1.12c-0.266,0.49 -0.664,0.906 -1.192,1.248c-0.528,0.341 -1.112,0.512 -1.752,0.512c-0.704,0 -1.341,-0.184 -1.912,-0.552c-0.57,-0.368 -1.021,-0.878 -1.352,-1.528c-0.33,-0.651 -0.496,-1.382 -0.496,-2.192c0,-0.8 0.166,-1.526 0.496,-2.176c0.331,-0.651 0.782,-1.16 1.352,-1.528c0.571,-0.368 1.203,-0.552 1.896,-0.552c0.63,0 1.211,0.157 1.744,0.472c0.534,0.314 0.939,0.722 1.216,1.224l0,-4.688c0,-0.139 0.046,-0.254 0.136,-0.344c0.091,-0.091 0.206,-0.136 0.344,-0.136Zm-3.328,11.104c0.555,0 1.054,-0.144 1.496,-0.432c0.443,-0.288 0.79,-0.691 1.04,-1.208c0.251,-0.518 0.376,-1.096 0.376,-1.736c0,-0.63 -0.125,-1.2 -0.376,-1.712c-0.25,-0.512 -0.597,-0.915 -1.04,-1.208c-0.442,-0.294 -0.941,-0.44 -1.496,-0.44c-0.554,0 -1.053,0.146 -1.496,0.44c-0.442,0.293 -0.789,0.696 -1.04,1.208c-0.25,0.512 -0.376,1.082 -0.376,1.712c0,0.64 0.126,1.216 0.376,1.728c0.251,0.512 0.598,0.914 1.04,1.208c0.443,0.293 0.942,0.44 1.496,0.44Z" style="fill:none;stroke:#555;stroke-width:0.77px;"/><path d="M249.482,6.04c0,0.128 -0.048,0.237 -0.144,0.328c-0.096,0.09 -0.208,0.136 -0.336,0.136l-6.048,0c0,0.64 0.131,1.213 0.392,1.72c0.262,0.506 0.635,0.906 1.12,1.2c0.486,0.293 1.059,0.44 1.72,0.44c0.512,0 0.971,-0.107 1.376,-0.32c0.406,-0.214 0.731,-0.486 0.976,-0.816c0.118,-0.096 0.23,-0.144 0.336,-0.144c0.107,0 0.203,0.042 0.288,0.128c0.086,0.085 0.128,0.181 0.128,0.288c0,0.117 -0.053,0.229 -0.16,0.336c-0.341,0.416 -0.77,0.757 -1.288,1.024c-0.517,0.266 -1.064,0.4 -1.64,0.4c-0.821,0 -1.546,-0.176 -2.176,-0.528c-0.629,-0.352 -1.12,-0.846 -1.472,-1.48c-0.352,-0.635 -0.528,-1.368 -0.528,-2.2c0,-0.875 0.174,-1.64 0.52,-2.296c0.347,-0.656 0.808,-1.158 1.384,-1.504c0.576,-0.347 1.19,-0.52 1.84,-0.52c0.64,0 1.24,0.149 1.8,0.448c0.56,0.298 1.016,0.736 1.368,1.312c0.352,0.576 0.534,1.258 0.544,2.048Zm-3.712,-2.88c-0.618,0 -1.192,0.213 -1.72,0.64c-0.528,0.426 -0.866,1.04 -1.016,1.84l5.456,0l0,-0.128c-0.053,-0.48 -0.213,-0.899 -0.48,-1.256c-0.266,-0.358 -0.6,-0.63 -1,-0.816c-0.4,-0.187 -0.813,-0.28 -1.24,-0.28Z" style="fill:none;stroke:#555;stroke-width:0.77px;"/><path d="M261.258,2.232c0.214,0 0.406,0.042 0.576,0.128c0.171,0.085 0.256,0.213 0.256,0.384c0,0.149 -0.042,0.269 -0.128,0.36c-0.085,0.09 -0.186,0.136 -0.304,0.136c-0.053,0 -0.157,-0.027 -0.312,-0.08c-0.154,-0.054 -0.301,-0.08 -0.44,-0.08c-0.394,0 -0.786,0.152 -1.176,0.456c-0.389,0.304 -0.709,0.696 -0.96,1.176c-0.25,0.48 -0.376,0.965 -0.376,1.456l0,3.952c0,0.138 -0.045,0.253 -0.136,0.344c-0.09,0.09 -0.205,0.136 -0.344,0.136c-0.138,0 -0.253,-0.046 -0.344,-0.136c-0.09,-0.091 -0.136,-0.206 -0.136,-0.344l0,-7.168c0,-0.139 0.046,-0.254 0.136,-0.344c0.091,-0.091 0.206,-0.136 0.344,-0.136c0.139,0 0.254,0.045 0.344,0.136c0.091,0.09 0.136,0.205 0.136,0.344l0,1.408c0.246,-0.608 0.616,-1.112 1.112,-1.512c0.496,-0.4 1.08,-0.606 1.752,-0.616Z" style="fill:none;stroke:#555;stroke-width:0.77px;"/><path d="M271.594,6.504c0,0.8 -0.176,1.525 -0.528,2.176c-0.352,0.65 -0.837,1.16 -1.456,1.528c-0.618,0.368 -1.306,0.552 -2.064,0.552c-0.757,0 -1.445,-0.184 -2.064,-0.552c-0.618,-0.368 -1.104,-0.878 -1.456,-1.528c-0.352,-0.651 -0.528,-1.376 -0.528,-2.176c0,-0.8 0.176,-1.526 0.528,-2.176c0.352,-0.651 0.838,-1.163 1.456,-1.536c0.619,-0.374 1.307,-0.56 2.064,-0.56c0.758,0 1.446,0.186 2.064,0.56c0.619,0.373 1.104,0.885 1.456,1.536c0.352,0.65 0.528,1.376 0.528,2.176Zm-0.96,0c0,-0.64 -0.133,-1.216 -0.4,-1.728c-0.266,-0.512 -0.637,-0.915 -1.112,-1.208c-0.474,-0.294 -1,-0.44 -1.576,-0.44c-0.576,0 -1.098,0.146 -1.568,0.44c-0.469,0.293 -0.84,0.696 -1.112,1.208c-0.272,0.512 -0.408,1.088 -0.408,1.728c0,0.629 0.136,1.2 0.408,1.712c0.272,0.512 0.643,0.914 1.112,1.208c0.47,0.293 0.992,0.44 1.568,0.44c0.576,0 1.102,-0.144 1.576,-0.432c0.475,-0.288 0.846,-0.688 1.112,-1.2c0.267,-0.512 0.4,-1.088 0.4,-1.728Z" style="fill:none;stroke:#555;stroke-width:0.77px;"/><path d="M283.642,2.36c0.96,0 1.667,0.296 2.12,0.888c0.454,0.592 0.68,1.373 0.68,2.344l0,4.528c0,0.138 -0.045,0.253 -0.136,0.344c-0.09,0.09 -0.205,0.136 -0.344,0.136c-0.138,0 -0.253,-0.046 -0.344,-0.136c-0.09,-0.091 -0.136,-0.206 -0.136,-0.344l0,-4.48c0,-0.704 -0.168,-1.278 -0.504,-1.72c-0.336,-0.443 -0.856,-0.664 -1.56,-0.664c-0.448,0 -0.872,0.106 -1.272,0.32c-0.4,0.213 -0.722,0.504 -0.968,0.872c-0.245,0.368 -0.368,0.765 -0.368,1.192l0,4.48c0,0.138 -0.045,0.253 -0.136,0.344c-0.09,0.09 -0.205,0.136 -0.344,0.136c-0.138,0 -0.253,-0.046 -0.344,-0.136c-0.09,-0.091 -0.136,-0.206 -0.136,-0.344l0,-4.528c0,-0.694 -0.16,-1.256 -0.48,-1.688c-0.32,-0.432 -0.821,-0.648 -1.504,-0.648c-0.437,0 -0.85,0.106 -1.24,0.32c-0.389,0.213 -0.704,0.498 -0.944,0.856c-0.24,0.357 -0.36,0.744 -0.36,1.16l0,4.528c0,0.138 -0.045,0.253 -0.136,0.344c-0.09,0.09 -0.205,0.136 -0.344,0.136c-0.138,0 -0.253,-0.046 -0.344,-0.136c-0.09,-0.091 -0.136,-0.206 -0.136,-0.344l0,-7.168c0,-0.139 0.046,-0.254 0.136,-0.344c0.091,-0.091 0.206,-0.136 0.344,-0.136c0.139,0 0.254,0.045 0.344,0.136c0.091,0.09 0.136,0.205 0.136,0.344l0,0.928c0.288,-0.438 0.678,-0.8 1.168,-1.088c0.491,-0.288 1.008,-0.432 1.552,-0.432c0.619,0 1.152,0.149 1.6,0.448c0.448,0.298 0.768,0.736 0.96,1.312c0.224,-0.47 0.635,-0.88 1.232,-1.232c0.598,-0.352 1.2,-0.528 1.808,-0.528Z" style="fill:none;stroke:#555;stroke-width:0.77px;"/><path d="M296.394,2.424c0.139,0 0.254,0.048 0.344,0.144c0.091,0.096 0.136,0.213 0.136,0.352l0,7.2c0,0.138 -0.045,0.253 -0.136,0.344c-0.09,0.09 -0.205,0.136 -0.344,0.136c-0.138,0 -0.253,-0.046 -0.344,-0.136c-0.09,-0.091 -0.136,-0.206 -0.136,-0.344l0,-1.072c-0.266,0.48 -0.666,0.885 -1.2,1.216c-0.533,0.33 -1.114,0.496 -1.744,0.496c-0.714,0 -1.357,-0.187 -1.928,-0.56c-0.57,-0.374 -1.018,-0.886 -1.344,-1.536c-0.325,-0.651 -0.488,-1.382 -0.488,-2.192c0,-0.811 0.166,-1.539 0.496,-2.184c0.331,-0.646 0.782,-1.15 1.352,-1.512c0.571,-0.363 1.203,-0.544 1.896,-0.544c0.64,0 1.227,0.154 1.76,0.464c0.534,0.309 0.934,0.714 1.2,1.216l0,-0.992c0,-0.139 0.046,-0.256 0.136,-0.352c0.091,-0.096 0.206,-0.144 0.344,-0.144Zm-3.328,7.44c0.555,0 1.054,-0.147 1.496,-0.44c0.443,-0.294 0.79,-0.699 1.04,-1.216c0.251,-0.518 0.376,-1.096 0.376,-1.736c0,-0.619 -0.125,-1.184 -0.376,-1.696c-0.25,-0.512 -0.597,-0.915 -1.04,-1.208c-0.442,-0.294 -0.941,-0.44 -1.496,-0.44c-0.554,0 -1.053,0.144 -1.496,0.432c-0.442,0.288 -0.789,0.685 -1.04,1.192c-0.25,0.506 -0.376,1.08 -0.376,1.72c0,0.64 0.123,1.218 0.368,1.736c0.246,0.517 0.59,0.922 1.032,1.216c0.443,0.293 0.947,0.44 1.512,0.44Z" style="fill:none;stroke:#555;stroke-width:0.77px;"/></g></svg>