<?xml version="1.0" encoding="UTF-8" standalone="no"?><!DOCTYPE svg PUBLIC "-//W3C//DTD SVG 1.1//EN" "http://www.w3.org/Graphics/SVG/1.1/DTD/svg11.dtd"><svg width="100%" height="100%" viewBox="0 0 436 16" version="1.1" xmlns="http://www.w3.org/2000/svg" xmlns:xlink="http://www.w3.org/1999/xlink" xml:space="preserve" style="fill-rule:evenodd;clip-rule:evenodd;stroke-linejoin:round;stroke-miterlimit:1.41421;"><g transform="matrix(1.29127,0,0,1.29127,-10.5044,1.58518)"><path d="M14.266,10.696c-0.864,0 -1.648,-0.166 -2.352,-0.496c-0.704,-0.331 -1.306,-0.766 -1.808,-1.304c-0.501,-0.539 -0.89,-1.155 -1.168,-1.848c-0.277,-0.694 -0.416,-1.408 -0.416,-2.144c0,-0.747 0.144,-1.467 0.432,-2.16c0.288,-0.694 0.691,-1.304 1.208,-1.832c0.518,-0.528 1.131,-0.95 1.84,-1.264c0.71,-0.315 1.486,-0.472 2.328,-0.472c0.864,0 1.648,0.165 2.352,0.496c0.704,0.33 1.307,0.768 1.808,1.312c0.502,0.544 0.888,1.162 1.16,1.856c0.272,0.693 0.408,1.402 0.408,2.128c0,0.746 -0.144,1.464 -0.432,2.152c-0.288,0.688 -0.688,1.296 -1.2,1.824c-0.512,0.528 -1.122,0.952 -1.832,1.272c-0.709,0.32 -1.485,0.48 -2.328,0.48Zm-2.576,-5.76c0,0.384 0.054,0.754 0.16,1.112c0.107,0.357 0.267,0.674 0.48,0.952c0.214,0.277 0.483,0.501 0.808,0.672c0.326,0.17 0.712,0.256 1.16,0.256c0.448,0 0.838,-0.088 1.168,-0.264c0.331,-0.176 0.6,-0.406 0.808,-0.688c0.208,-0.283 0.363,-0.606 0.464,-0.968c0.102,-0.363 0.152,-0.731 0.152,-1.104c0,-0.384 -0.053,-0.755 -0.16,-1.112c-0.106,-0.358 -0.269,-0.672 -0.488,-0.944c-0.218,-0.272 -0.49,-0.491 -0.816,-0.656c-0.325,-0.166 -0.706,-0.248 -1.144,-0.248c-0.448,0 -0.834,0.085 -1.16,0.256c-0.325,0.17 -0.594,0.397 -0.808,0.68c-0.213,0.282 -0.37,0.602 -0.472,0.96c-0.101,0.357 -0.152,0.722 -0.152,1.096Z" style="fill:none;"/><path d="M34.298,9.656c-0.81,0.682 -1.744,1.024 -2.8,1.024c-0.736,0 -1.44,-0.131 -2.112,-0.392c-0.672,-0.262 -1.258,-0.643 -1.76,-1.144c-0.501,-0.502 -0.901,-1.115 -1.2,-1.84c-0.298,-0.726 -0.448,-1.552 -0.448,-2.48c0,-0.8 0.15,-1.544 0.448,-2.232c0.299,-0.688 0.71,-1.286 1.232,-1.792c0.523,-0.507 1.139,-0.907 1.848,-1.2c0.71,-0.294 1.475,-0.44 2.296,-0.44c0.512,0 1.003,0.056 1.472,0.168c0.47,0.112 0.904,0.277 1.304,0.496c0.4,0.218 0.76,0.48 1.08,0.784c0.32,0.304 0.582,0.648 0.784,1.032l-2.32,1.776c-0.224,-0.448 -0.56,-0.808 -1.008,-1.08c-0.448,-0.272 -0.922,-0.408 -1.424,-0.408c-0.373,0 -0.714,0.074 -1.024,0.224c-0.309,0.149 -0.576,0.357 -0.8,0.624c-0.224,0.266 -0.4,0.584 -0.528,0.952c-0.128,0.368 -0.192,0.77 -0.192,1.208c0,0.448 0.064,0.853 0.192,1.216c0.128,0.362 0.307,0.674 0.536,0.936c0.23,0.261 0.504,0.464 0.824,0.608c0.32,0.144 0.678,0.216 1.072,0.216c0.907,0 1.707,-0.374 2.4,-1.12l-1.968,0l0,-2.24l4.672,0l0,6.048l-2.576,0l0,-0.944Z" style="fill:none;"/><path d="M42.154,-0.76l2.848,0l3.936,11.36l-3.168,0l-0.688,-2.224l-3.024,0l-0.672,2.224l-3.184,0l3.952,-11.36Zm2.432,7.056l-1.008,-3.52l-1.056,3.52l2.064,0Z" style="fill:none;"/><path d="M58.49,1.96l-3.264,0l0,8.64l-3.12,0l0,-8.64l-3.28,0l0,-2.72l9.664,0l0,2.72Z" style="fill:none;"/><path d="M65.37,10.696c-0.864,0 -1.648,-0.166 -2.352,-0.496c-0.704,-0.331 -1.306,-0.766 -1.808,-1.304c-0.501,-0.539 -0.89,-1.155 -1.168,-1.848c-0.277,-0.694 -0.416,-1.408 -0.416,-2.144c0,-0.747 0.144,-1.467 0.432,-2.16c0.288,-0.694 0.691,-1.304 1.208,-1.832c0.518,-0.528 1.131,-0.95 1.84,-1.264c0.71,-0.315 1.486,-0.472 2.328,-0.472c0.864,0 1.648,0.165 2.352,0.496c0.704,0.33 1.307,0.768 1.808,1.312c0.502,0.544 0.888,1.162 1.16,1.856c0.272,0.693 0.408,1.402 0.408,2.128c0,0.746 -0.144,1.464 -0.432,2.152c-0.288,0.688 -0.688,1.296 -1.2,1.824c-0.512,0.528 -1.122,0.952 -1.832,1.272c-0.709,0.32 -1.485,0.48 -2.328,0.48Zm-2.576,-5.76c0,0.384 0.054,0.754 0.16,1.112c0.107,0.357 0.267,0.674 0.48,0.952c0.214,0.277 0.483,0.501 0.808,0.672c0.326,0.17 0.712,0.256 1.16,0.256c0.448,0 0.838,-0.088 1.168,-0.264c0.331,-0.176 0.6,-0.406 0.808,-0.688c0.208,-0.283 0.363,-0.606 0.464,-0.968c0.102,-0.363 0.152,-0.731 0.152,-1.104c0,-0.384 -0.053,-0.755 -0.16,-1.112c-0.106,-0.358 -0.269,-0.672 -0.488,-0.944c-0.218,-0.272 -0.49,-0.491 -0.816,-0.656c-0.325,-0.166 -0.706,-0.248 -1.144,-0.248c-0.448,0 -0.834,0.085 -1.16,0.256c-0.325,0.17 -0.594,0.397 -0.808,0.68c-0.213,0.282 -0.37,0.602 -0.472,0.96c-0.101,0.357 -0.152,0.722 -0.152,1.096Z" style="fill:none;"/><path d="M77.69,10.6l0,-11.36l5.216,0c0.555,0 1.067,0.114 1.536,0.344c0.47,0.229 0.872,0.528 1.208,0.896c0.336,0.368 0.6,0.789 0.792,1.264c0.192,0.474 0.288,0.952 0.288,1.432c0,0.661 -0.144,1.277 -0.432,1.848c-0.288,0.57 -0.688,1.037 -1.2,1.4l2.4,4.176l-3.52,0l-2,-3.488l-1.168,0l0,3.488l-3.12,0Zm3.12,-6.208l1.968,0c0.192,0 0.371,-0.107 0.536,-0.32c0.166,-0.214 0.248,-0.512 0.248,-0.896c0,-0.395 -0.096,-0.696 -0.288,-0.904c-0.192,-0.208 -0.384,-0.312 -0.576,-0.312l-1.888,0l0,2.432Z" style="fill:none;"/><path d="M94.266,10.696c-0.864,0 -1.648,-0.166 -2.352,-0.496c-0.704,-0.331 -1.306,-0.766 -1.808,-1.304c-0.501,-0.539 -0.89,-1.155 -1.168,-1.848c-0.277,-0.694 -0.416,-1.408 -0.416,-2.144c0,-0.747 0.144,-1.467 0.432,-2.16c0.288,-0.694 0.691,-1.304 1.208,-1.832c0.518,-0.528 1.131,-0.95 1.84,-1.264c0.71,-0.315 1.486,-0.472 2.328,-0.472c0.864,0 1.648,0.165 2.352,0.496c0.704,0.33 1.307,0.768 1.808,1.312c0.502,0.544 0.888,1.162 1.16,1.856c0.272,0.693 0.408,1.402 0.408,2.128c0,0.746 -0.144,1.464 -0.432,2.152c-0.288,0.688 -0.688,1.296 -1.2,1.824c-0.512,0.528 -1.122,0.952 -1.832,1.272c-0.709,0.32 -1.485,0.48 -2.328,0.48Zm-2.576,-5.76c0,0.384 0.054,0.754 0.16,1.112c0.107,0.357 0.267,0.674 0.48,0.952c0.214,0.277 0.483,0.501 0.808,0.672c0.326,0.17 0.712,0.256 1.16,0.256c0.448,0 0.838,-0.088 1.168,-0.264c0.331,-0.176 0.6,-0.406 0.808,-0.688c0.208,-0.283 0.363,-0.606 0.464,-0.968c0.102,-0.363 0.152,-0.731 0.152,-1.104c0,-0.384 -0.053,-0.755 -0.16,-1.112c-0.106,-0.358 -0.269,-0.672 -0.488,-0.944c-0.218,-0.272 -0.49,-0.491 -0.816,-0.656c-0.325,-0.166 -0.706,-0.248 -1.144,-0.248c-0.448,0 -0.834,0.085 -1.16,0.256c-0.325,0.17 -0.594,0.397 -0.808,0.68c-0.213,0.282 -0.37,0.602 -0.472,0.96c-0.101,0.357 -0.152,0.722 -0.152,1.096Z" style="fill:none;"/><path d="M110.282,7.88l0,2.72l-8.096,0l0,-11.36l7.952,0l0,2.72l-4.832,0l0,1.6l4.128,0l0,2.528l-4.128,0l0,1.792l4.976,0Z" style="fill:none;"/><path d="M117.498,7.928c0.363,0 0.672,-0.08 0.928,-0.24c0.256,-0.16 0.464,-0.371 0.624,-0.632c0.16,-0.262 0.278,-0.563 0.352,-0.904c0.075,-0.342 0.112,-0.699 0.112,-1.072l0,-5.84l3.12,0l0,5.84c0,0.789 -0.101,1.528 -0.304,2.216c-0.202,0.688 -0.517,1.282 -0.944,1.784c-0.426,0.501 -0.962,0.896 -1.608,1.184c-0.645,0.288 -1.405,0.432 -2.28,0.432c-0.906,0 -1.682,-0.152 -2.328,-0.456c-0.645,-0.304 -1.176,-0.712 -1.592,-1.224c-0.416,-0.512 -0.72,-1.107 -0.912,-1.784c-0.192,-0.678 -0.288,-1.395 -0.288,-2.152l0,-5.84l3.12,0l0,5.84c0,0.373 0.038,0.733 0.112,1.08c0.075,0.346 0.192,0.65 0.352,0.912c0.16,0.261 0.366,0.469 0.616,0.624c0.251,0.154 0.558,0.232 0.92,0.232Z" style="fill:none;"/><path d="M132.09,-0.76l2.848,0l3.936,11.36l-3.168,0l-0.688,-2.224l-3.024,0l-0.672,2.224l-3.184,0l3.952,-11.36Zm2.432,7.056l-1.008,-3.52l-1.056,3.52l2.064,0Z" style="fill:none;"/><path d="M144.538,10.6l0,-11.36l5.216,0c0.555,0 1.067,0.114 1.536,0.344c0.47,0.229 0.872,0.528 1.208,0.896c0.336,0.368 0.6,0.789 0.792,1.264c0.192,0.474 0.288,0.952 0.288,1.432c0,0.661 -0.144,1.277 -0.432,1.848c-0.288,0.57 -0.688,1.037 -1.2,1.4l2.4,4.176l-3.52,0l-2,-3.488l-1.168,0l0,3.488l-3.12,0Zm3.12,-6.208l1.968,0c0.192,0 0.371,-0.107 0.536,-0.32c0.166,-0.214 0.248,-0.512 0.248,-0.896c0,-0.395 -0.096,-0.696 -0.288,-0.904c-0.192,-0.208 -0.384,-0.312 -0.576,-0.312l-1.888,0l0,2.432Z" style="fill:none;"/><path d="M161.114,10.696c-0.864,0 -1.648,-0.166 -2.352,-0.496c-0.704,-0.331 -1.306,-0.766 -1.808,-1.304c-0.501,-0.539 -0.89,-1.155 -1.168,-1.848c-0.277,-0.694 -0.416,-1.408 -0.416,-2.144c0,-0.747 0.144,-1.467 0.432,-2.16c0.288,-0.694 0.691,-1.304 1.208,-1.832c0.518,-0.528 1.131,-0.95 1.84,-1.264c0.71,-0.315 1.486,-0.472 2.328,-0.472c0.864,0 1.648,0.165 2.352,0.496c0.704,0.33 1.307,0.768 1.808,1.312c0.502,0.544 0.888,1.162 1.16,1.856c0.272,0.693 0.408,1.402 0.408,2.128c0,0.746 -0.144,1.464 -0.432,2.152c-0.288,0.688 -0.688,1.296 -1.2,1.824c-0.512,0.528 -1.122,0.952 -1.832,1.272c-0.709,0.32 -1.485,0.48 -2.328,0.48Zm-2.576,-5.76c0,0.384 0.054,0.754 0.16,1.112c0.107,0.357 0.267,0.674 0.48,0.952c0.214,0.277 0.483,0.501 0.808,0.672c0.326,0.17 0.712,0.256 1.16,0.256c0.448,0 0.838,-0.088 1.168,-0.264c0.331,-0.176 0.6,-0.406 0.808,-0.688c0.208,-0.283 0.363,-0.606 0.464,-0.968c0.102,-0.363 0.152,-0.731 0.152,-1.104c0,-0.384 -0.053,-0.755 -0.16,-1.112c-0.106,-0.358 -0.269,-0.672 -0.488,-0.944c-0.218,-0.272 -0.49,-0.491 -0.816,-0.656c-0.325,-0.166 -0.706,-0.248 -1.144,-0.248c-0.448,0 -0.834,0.085 -1.16,0.256c-0.325,0.17 -0.594,0.397 -0.808,0.68c-0.213,0.282 -0.37,0.602 -0.472,0.96c-0.101,0.357 -0.152,0.722 -0.152,1.096Z" style="fill:none;"/><path d="M173.994,7.928c0.363,0 0.672,-0.08 0.928,-0.24c0.256,-0.16 0.464,-0.371 0.624,-0.632c0.16,-0.262 0.278,-0.563 0.352,-0.904c0.075,-0.342 0.112,-0.699 0.112,-1.072l0,-5.84l3.12,0l0,5.84c0,0.789 -0.101,1.528 -0.304,2.216c-0.202,0.688 -0.517,1.282 -0.944,1.784c-0.426,0.501 -0.962,0.896 -1.608,1.184c-0.645,0.288 -1.405,0.432 -2.28,0.432c-0.906,0 -1.682,-0.152 -2.328,-0.456c-0.645,-0.304 -1.176,-0.712 -1.592,-1.224c-0.416,-0.512 -0.72,-1.107 -0.912,-1.784c-0.192,-0.678 -0.288,-1.395 -0.288,-2.152l0,-5.84l3.12,0l0,5.84c0,0.373 0.038,0.733 0.112,1.08c0.075,0.346 0.192,0.65 0.352,0.912c0.16,0.261 0.366,0.469 0.616,0.624c0.251,0.154 0.558,0.232 0.92,0.232Z" style="fill:none;"/><path d="M181.722,10.6l0,-11.36l4.896,0c0.555,0 1.067,0.114 1.536,0.344c0.47,0.229 0.872,0.528 1.208,0.896c0.336,0.368 0.6,0.789 0.792,1.264c0.192,0.474 0.288,0.952 0.288,1.432c0,0.501 -0.09,0.989 -0.272,1.464c-0.181,0.474 -0.434,0.896 -0.76,1.264c-0.325,0.368 -0.72,0.661 -1.184,0.88c-0.464,0.218 -0.973,0.328 -1.528,0.328l-1.856,0l0,3.488l-3.12,0Zm3.12,-6.208l1.648,0c0.192,0 0.371,-0.088 0.536,-0.264c0.166,-0.176 0.248,-0.494 0.248,-0.952c0,-0.47 -0.096,-0.79 -0.288,-0.96c-0.192,-0.171 -0.384,-0.256 -0.576,-0.256l-1.568,0l0,2.432Z" style="fill:none;"/><path d="M194.602,-0.76l2.848,0l3.936,11.36l-3.168,0l-0.688,-2.224l-3.024,0l-0.672,2.224l-3.184,0l3.952,-11.36Zm2.432,7.056l-1.008,-3.52l-1.056,3.52l2.064,0Z" style="fill:none;"/><path d="M207.05,10.6l0,-11.36l4.368,0c0.939,0 1.766,0.149 2.48,0.448c0.715,0.298 1.312,0.704 1.792,1.216c0.48,0.512 0.843,1.112 1.088,1.8c0.246,0.688 0.368,1.421 0.368,2.2c0,0.864 -0.136,1.645 -0.408,2.344c-0.272,0.698 -0.658,1.296 -1.16,1.792c-0.501,0.496 -1.104,0.88 -1.808,1.152c-0.704,0.272 -1.488,0.408 -2.352,0.408l-4.368,0Zm6.928,-5.696c0,-0.438 -0.058,-0.838 -0.176,-1.2c-0.117,-0.363 -0.285,-0.672 -0.504,-0.928c-0.218,-0.256 -0.488,-0.456 -0.808,-0.6c-0.32,-0.144 -0.677,-0.216 -1.072,-0.216l-1.248,0l0,5.92l1.248,0c0.406,0 0.768,-0.075 1.088,-0.224c0.32,-0.15 0.59,-0.358 0.808,-0.624c0.219,-0.267 0.384,-0.582 0.496,-0.944c0.112,-0.363 0.168,-0.758 0.168,-1.184Z" style="fill:none;"/><path d="M224.426,10.696c-0.864,0 -1.648,-0.166 -2.352,-0.496c-0.704,-0.331 -1.306,-0.766 -1.808,-1.304c-0.501,-0.539 -0.89,-1.155 -1.168,-1.848c-0.277,-0.694 -0.416,-1.408 -0.416,-2.144c0,-0.747 0.144,-1.467 0.432,-2.16c0.288,-0.694 0.691,-1.304 1.208,-1.832c0.518,-0.528 1.131,-0.95 1.84,-1.264c0.71,-0.315 1.486,-0.472 2.328,-0.472c0.864,0 1.648,0.165 2.352,0.496c0.704,0.33 1.307,0.768 1.808,1.312c0.502,0.544 0.888,1.162 1.16,1.856c0.272,0.693 0.408,1.402 0.408,2.128c0,0.746 -0.144,1.464 -0.432,2.152c-0.288,0.688 -0.688,1.296 -1.2,1.824c-0.512,0.528 -1.122,0.952 -1.832,1.272c-0.709,0.32 -1.485,0.48 -2.328,0.48Zm-2.576,-5.76c0,0.384 0.054,0.754 0.16,1.112c0.107,0.357 0.267,0.674 0.48,0.952c0.214,0.277 0.483,0.501 0.808,0.672c0.326,0.17 0.712,0.256 1.16,0.256c0.448,0 0.838,-0.088 1.168,-0.264c0.331,-0.176 0.6,-0.406 0.808,-0.688c0.208,-0.283 0.363,-0.606 0.464,-0.968c0.102,-0.363 0.152,-0.731 0.152,-1.104c0,-0.384 -0.053,-0.755 -0.16,-1.112c-0.106,-0.358 -0.269,-0.672 -0.488,-0.944c-0.218,-0.272 -0.49,-0.491 -0.816,-0.656c-0.325,-0.166 -0.706,-0.248 -1.144,-0.248c-0.448,0 -0.834,0.085 -1.16,0.256c-0.325,0.17 -0.594,0.397 -0.808,0.68c-0.213,0.282 -0.37,0.602 -0.472,0.96c-0.101,0.357 -0.152,0.722 -0.152,1.096Z" style="fill:none;"/><path d="M236.746,10.6l0,-11.36l5.216,0c0.555,0 1.067,0.114 1.536,0.344c0.47,0.229 0.872,0.528 1.208,0.896c0.336,0.368 0.6,0.789 0.792,1.264c0.192,0.474 0.288,0.952 0.288,1.432c0,0.661 -0.144,1.277 -0.432,1.848c-0.288,0.57 -0.688,1.037 -1.2,1.4l2.4,4.176l-3.52,0l-2,-3.488l-1.168,0l0,3.488l-3.12,0Zm3.12,-6.208l1.968,0c0.192,0 0.371,-0.107 0.536,-0.32c0.166,-0.214 0.248,-0.512 0.248,-0.896c0,-0.395 -0.096,-0.696 -0.288,-0.904c-0.192,-0.208 -0.384,-0.312 -0.576,-0.312l-1.888,0l0,2.432Z" style="fill:none;"/><path d="M256.442,7.88l0,2.72l-8.096,0l0,-11.36l7.952,0l0,2.72l-4.832,0l0,1.6l4.128,0l0,2.528l-4.128,0l0,1.792l4.976,0Z" style="fill:none;"/><rect x="258.698" y="-0.76" width="3.12" height="11.36" style="fill:none;"/><path d="M268.97,10.6l0,-11.36l4.368,0c0.939,0 1.766,0.149 2.48,0.448c0.715,0.298 1.312,0.704 1.792,1.216c0.48,0.512 0.843,1.112 1.088,1.8c0.246,0.688 0.368,1.421 0.368,2.2c0,0.864 -0.136,1.645 -0.408,2.344c-0.272,0.698 -0.658,1.296 -1.16,1.792c-0.501,0.496 -1.104,0.88 -1.808,1.152c-0.704,0.272 -1.488,0.408 -2.352,0.408l-4.368,0Zm6.928,-5.696c0,-0.438 -0.058,-0.838 -0.176,-1.2c-0.117,-0.363 -0.285,-0.672 -0.504,-0.928c-0.218,-0.256 -0.488,-0.456 -0.808,-0.6c-0.32,-0.144 -0.677,-0.216 -1.072,-0.216l-1.248,0l0,5.92l1.248,0c0.406,0 0.768,-0.075 1.088,-0.224c0.32,-0.15 0.59,-0.358 0.808,-0.624c0.219,-0.267 0.384,-0.582 0.496,-0.944c0.112,-0.363 0.168,-0.758 0.168,-1.184Z" style="fill:none;"/><path d="M289.322,7.88l0,2.72l-8.096,0l0,-11.36l7.952,0l0,2.72l-4.832,0l0,1.6l4.128,0l0,2.528l-4.128,0l0,1.792l4.976,0Z" style="fill:none;"/><path d="M295.978,10.6l0,-11.36l5.216,0c0.555,0 1.067,0.114 1.536,0.344c0.47,0.229 0.872,0.528 1.208,0.896c0.336,0.368 0.6,0.789 0.792,1.264c0.192,0.474 0.288,0.952 0.288,1.432c0,0.661 -0.144,1.277 -0.432,1.848c-0.288,0.57 -0.688,1.037 -1.2,1.4l2.4,4.176l-3.52,0l-2,-3.488l-1.168,0l0,3.488l-3.12,0Zm3.12,-6.208l1.968,0c0.192,0 0.371,-0.107 0.536,-0.32c0.166,-0.214 0.248,-0.512 0.248,-0.896c0,-0.395 -0.096,-0.696 -0.288,-0.904c-0.192,-0.208 -0.384,-0.312 -0.576,-0.312l-1.888,0l0,2.432Z" style="fill:none;"/><path d="M312.554,10.696c-0.864,0 -1.648,-0.166 -2.352,-0.496c-0.704,-0.331 -1.306,-0.766 -1.808,-1.304c-0.501,-0.539 -0.89,-1.155 -1.168,-1.848c-0.277,-0.694 -0.416,-1.408 -0.416,-2.144c0,-0.747 0.144,-1.467 0.432,-2.16c0.288,-0.694 0.691,-1.304 1.208,-1.832c0.518,-0.528 1.131,-0.95 1.84,-1.264c0.71,-0.315 1.486,-0.472 2.328,-0.472c0.864,0 1.648,0.165 2.352,0.496c0.704,0.33 1.307,0.768 1.808,1.312c0.502,0.544 0.888,1.162 1.16,1.856c0.272,0.693 0.408,1.402 0.408,2.128c0,0.746 -0.144,1.464 -0.432,2.152c-0.288,0.688 -0.688,1.296 -1.2,1.824c-0.512,0.528 -1.122,0.952 -1.832,1.272c-0.709,0.32 -1.485,0.48 -2.328,0.48Zm-2.576,-5.76c0,0.384 0.054,0.754 0.16,1.112c0.107,0.357 0.267,0.674 0.48,0.952c0.214,0.277 0.483,0.501 0.808,0.672c0.326,0.17 0.712,0.256 1.16,0.256c0.448,0 0.838,-0.088 1.168,-0.264c0.331,-0.176 0.6,-0.406 0.808,-0.688c0.208,-0.283 0.363,-0.606 0.464,-0.968c0.102,-0.363 0.152,-0.731 0.152,-1.104c0,-0.384 -0.053,-0.755 -0.16,-1.112c-0.106,-0.358 -0.269,-0.672 -0.488,-0.944c-0.218,-0.272 -0.49,-0.491 -0.816,-0.656c-0.325,-0.166 -0.706,-0.248 -1.144,-0.248c-0.448,0 -0.834,0.085 -1.16,0.256c-0.325,0.17 -0.594,0.397 -0.808,0.68c-0.213,0.282 -0.37,0.602 -0.472,0.96c-0.101,0.357 -0.152,0.722 -0.152,1.096Z" style="fill:none;"/><path d="M329.066,10.6l0,-5.984l-1.904,4.208l-1.664,0l-1.904,-4.208l0,5.984l-3.12,0l0,-11.36l3.408,0l2.448,5.344l2.464,-5.344l3.392,0l0,11.36l-3.12,0Z" style="fill:none;"/><path d="M337.882,-0.76l2.848,0l3.936,11.36l-3.168,0l-0.688,-2.224l-3.024,0l-0.672,2.224l-3.184,0l3.952,-11.36Zm2.432,7.056l-1.008,-3.52l-1.056,3.52l2.064,0Z" style="fill:none;"/><path d="M14.266,10.696c-0.864,0 -1.648,-0.166 -2.352,-0.496c-0.704,-0.331 -1.306,-0.766 -1.808,-1.304c-0.501,-0.539 -0.89,-1.155 -1.168,-1.848c-0.277,-0.694 -0.416,-1.408 -0.416,-2.144c0,-0.747 0.144,-1.467 0.432,-2.16c0.288,-0.694 0.691,-1.304 1.208,-1.832c0.518,-0.528 1.131,-0.95 1.84,-1.264c0.71,-0.315 1.486,-0.472 2.328,-0.472c0.864,0 1.648,0.165 2.352,0.496c0.704,0.33 1.307,0.768 1.808,1.312c0.502,0.544 0.888,1.162 1.16,1.856c0.272,0.693 0.408,1.402 0.408,2.128c0,0.746 -0.144,1.464 -0.432,2.152c-0.288,0.688 -0.688,1.296 -1.2,1.824c-0.512,0.528 -1.122,0.952 -1.832,1.272c-0.709,0.32 -1.485,0.48 -2.328,0.48Zm-2.576,-5.76c0,0.384 0.054,0.754 0.16,1.112c0.107,0.357 0.267,0.674 0.48,0.952c0.214,0.277 0.483,0.501 0.808,0.672c0.326,0.17 0.712,0.256 1.16,0.256c0.448,0 0.838,-0.088 1.168,-0.264c0.331,-0.176 0.6,-0.406 0.808,-0.688c0.208,-0.283 0.363,-0.606 0.464,-0.968c0.102,-0.363 0.152,-0.731 0.152,-1.104c0,-0.384 -0.053,-0.755 -0.16,-1.112c-0.106,-0.358 -0.269,-0.672 -0.488,-0.944c-0.218,-0.272 -0.49,-0.491 -0.816,-0.656c-0.325,-0.166 -0.706,-0.248 -1.144,-0.248c-0.448,0 -0.834,0.085 -1.16,0.256c-0.325,0.17 -0.594,0.397 -0.808,0.68c-0.213,0.282 -0.37,0.602 -0.472,0.96c-0.101,0.357 -0.152,0.722 -0.152,1.096Z" style="fill:none;stroke:#fff;stroke-width:0.77px;"/><path d="M34.298,9.656c-0.81,0.682 -1.744,1.024 -2.8,1.024c-0.736,0 -1.44,-0.131 -2.112,-0.392c-0.672,-0.262 -1.258,-0.643 -1.76,-1.144c-0.501,-0.502 -0.901,-1.115 -1.2,-1.84c-0.298,-0.726 -0.448,-1.552 -0.448,-2.48c0,-0.8 0.15,-1.544 0.448,-2.232c0.299,-0.688 0.71,-1.286 1.232,-1.792c0.523,-0.507 1.139,-0.907 1.848,-1.2c0.71,-0.294 1.475,-0.44 2.296,-0.44c0.512,0 1.003,0.056 1.472,0.168c0.47,0.112 0.904,0.277 1.304,0.496c0.4,0.218 0.76,0.48 1.08,0.784c0.32,0.304 0.582,0.648 0.784,1.032l-2.32,1.776c-0.224,-0.448 -0.56,-0.808 -1.008,-1.08c-0.448,-0.272 -0.922,-0.408 -1.424,-0.408c-0.373,0 -0.714,0.074 -1.024,0.224c-0.309,0.149 -0.576,0.357 -0.8,0.624c-0.224,0.266 -0.4,0.584 -0.528,0.952c-0.128,0.368 -0.192,0.77 -0.192,1.208c0,0.448 0.064,0.853 0.192,1.216c0.128,0.362 0.307,0.674 0.536,0.936c0.23,0.261 0.504,0.464 0.824,0.608c0.32,0.144 0.678,0.216 1.072,0.216c0.907,0 1.707,-0.374 2.4,-1.12l-1.968,0l0,-2.24l4.672,0l0,6.048l-2.576,0l0,-0.944Z" style="fill:none;stroke:#fff;stroke-width:0.77px;"/><path d="M42.154,-0.76l2.848,0l3.936,11.36l-3.168,0l-0.688,-2.224l-3.024,0l-0.672,2.224l-3.184,0l3.952,-11.36Zm2.432,7.056l-1.008,-3.52l-1.056,3.52l2.064,0Z" style="fill:none;stroke:#fff;stroke-width:0.77px;"/><path d="M58.49,1.96l-3.264,0l0,8.64l-3.12,0l0,-8.64l-3.28,0l0,-2.72l9.664,0l0,2.72Z" style="fill:none;stroke:#fff;stroke-width:0.77px;"/><path d="M65.37,10.696c-0.864,0 -1.648,-0.166 -2.352,-0.496c-0.704,-0.331 -1.306,-0.766 -1.808,-1.304c-0.501,-0.539 -0.89,-1.155 -1.168,-1.848c-0.277,-0.694 -0.416,-1.408 -0.416,-2.144c0,-0.747 0.144,-1.467 0.432,-2.16c0.288,-0.694 0.691,-1.304 1.208,-1.832c0.518,-0.528 1.131,-0.95 1.84,-1.264c0.71,-0.315 1.486,-0.472 2.328,-0.472c0.864,0 1.648,0.165 2.352,0.496c0.704,0.33 1.307,0.768 1.808,1.312c0.502,0.544 0.888,1.162 1.16,1.856c0.272,0.693 0.408,1.402 0.408,2.128c0,0.746 -0.144,1.464 -0.432,2.152c-0.288,0.688 -0.688,1.296 -1.2,1.824c-0.512,0.528 -1.122,0.952 -1.832,1.272c-0.709,0.32 -1.485,0.48 -2.328,0.48Zm-2.576,-5.76c0,0.384 0.054,0.754 0.16,1.112c0.107,0.357 0.267,0.674 0.48,0.952c0.214,0.277 0.483,0.501 0.808,0.672c0.326,0.17 0.712,0.256 1.16,0.256c0.448,0 0.838,-0.088 1.168,-0.264c0.331,-0.176 0.6,-0.406 0.808,-0.688c0.208,-0.283 0.363,-0.606 0.464,-0.968c0.102,-0.363 0.152,-0.731 0.152,-1.104c0,-0.384 -0.053,-0.755 -0.16,-1.112c-0.106,-0.358 -0.269,-0.672 -0.488,-0.944c-0.218,-0.272 -0.49,-0.491 -0.816,-0.656c-0.325,-0.166 -0.706,-0.248 -1.144,-0.248c-0.448,0 -0.834,0.085 -1.16,0.256c-0.325,0.17 -0.594,0.397 -0.808,0.68c-0.213,0.282 -0.37,0.602 -0.472,0.96c-0.101,0.357 -0.152,0.722 -0.152,1.096Z" style="fill:none;stroke:#fff;stroke-width:0.77px;"/><path d="M77.69,10.6l0,-11.36l5.216,0c0.555,0 1.067,0.114 1.536,0.344c0.47,0.229 0.872,0.528 1.208,0.896c0.336,0.368 0.6,0.789 0.792,1.264c0.192,0.474 0.288,0.952 0.288,1.432c0,0.661 -0.144,1.277 -0.432,1.848c-0.288,0.57 -0.688,1.037 -1.2,1.4l2.4,4.176l-3.52,0l-2,-3.488l-1.168,0l0,3.488l-3.12,0Zm3.12,-6.208l1.968,0c0.192,0 0.371,-0.107 0.536,-0.32c0.166,-0.214 0.248,-0.512 0.248,-0.896c0,-0.395 -0.096,-0.696 -0.288,-0.904c-0.192,-0.208 -0.384,-0.312 -0.576,-0.312l-1.888,0l0,2.432Z" style="fill:none;stroke:#fff;stroke-width:0.77px;"/><path d="M94.266,10.696c-0.864,0 -1.648,-0.166 -2.352,-0.496c-0.704,-0.331 -1.306,-0.766 -1.808,-1.304c-0.501,-0.539 -0.89,-1.155 -1.168,-1.848c-0.277,-0.694 -0.416,-1.408 -0.416,-2.144c0,-0.747 0.144,-1.467 0.432,-2.16c0.288,-0.694 0.691,-1.304 1.208,-1.832c0.518,-0.528 1.131,-0.95 1.84,-1.264c0.71,-0.315 1.486,-0.472 2.328,-0.472c0.864,0 1.648,0.165 2.352,0.496c0.704,0.33 1.307,0.768 1.808,1.312c0.502,0.544 0.888,1.162 1.16,1.856c0.272,0.693 0.408,1.402 0.408,2.128c0,0.746 -0.144,1.464 -0.432,2.152c-0.288,0.688 -0.688,1.296 -1.2,1.824c-0.512,0.528 -1.122,0.952 -1.832,1.272c-0.709,0.32 -1.485,0.48 -2.328,0.48Zm-2.576,-5.76c0,0.384 0.054,0.754 0.16,1.112c0.107,0.357 0.267,0.674 0.48,0.952c0.214,0.277 0.483,0.501 0.808,0.672c0.326,0.17 0.712,0.256 1.16,0.256c0.448,0 0.838,-0.088 1.168,-0.264c0.331,-0.176 0.6,-0.406 0.808,-0.688c0.208,-0.283 0.363,-0.606 0.464,-0.968c0.102,-0.363 0.152,-0.731 0.152,-1.104c0,-0.384 -0.053,-0.755 -0.16,-1.112c-0.106,-0.358 -0.269,-0.672 -0.488,-0.944c-0.218,-0.272 -0.49,-0.491 -0.816,-0.656c-0.325,-0.166 -0.706,-0.248 -1.144,-0.248c-0.448,0 -0.834,0.085 -1.16,0.256c-0.325,0.17 -0.594,0.397 -0.808,0.68c-0.213,0.282 -0.37,0.602 -0.472,0.96c-0.101,0.357 -0.152,0.722 -0.152,1.096Z" style="fill:none;stroke:#fff;stroke-width:0.77px;"/><path d="M110.282,7.88l0,2.72l-8.096,0l0,-11.36l7.952,0l0,2.72l-4.832,0l0,1.6l4.128,0l0,2.528l-4.128,0l0,1.792l4.976,0Z" style="fill:none;stroke:#fff;stroke-width:0.77px;"/><path d="M117.498,7.928c0.363,0 0.672,-0.08 0.928,-0.24c0.256,-0.16 0.464,-0.371 0.624,-0.632c0.16,-0.262 0.278,-0.563 0.352,-0.904c0.075,-0.342 0.112,-0.699 0.112,-1.072l0,-5.84l3.12,0l0,5.84c0,0.789 -0.101,1.528 -0.304,2.216c-0.202,0.688 -0.517,1.282 -0.944,1.784c-0.426,0.501 -0.962,0.896 -1.608,1.184c-0.645,0.288 -1.405,0.432 -2.28,0.432c-0.906,0 -1.682,-0.152 -2.328,-0.456c-0.645,-0.304 -1.176,-0.712 -1.592,-1.224c-0.416,-0.512 -0.72,-1.107 -0.912,-1.784c-0.192,-0.678 -0.288,-1.395 -0.288,-2.152l0,-5.84l3.12,0l0,5.84c0,0.373 0.038,0.733 0.112,1.08c0.075,0.346 0.192,0.65 0.352,0.912c0.16,0.261 0.366,0.469 0.616,0.624c0.251,0.154 0.558,0.232 0.92,0.232Z" style="fill:none;stroke:#fff;stroke-width:0.77px;"/><path d="M132.09,-0.76l2.848,0l3.936,11.36l-3.168,0l-0.688,-2.224l-3.024,0l-0.672,2.224l-3.184,0l3.952,-11.36Zm2.432,7.056l-1.008,-3.52l-1.056,3.52l2.064,0Z" style="fill:none;stroke:#fff;stroke-width:0.77px;"/><path d="M144.538,10.6l0,-11.36l5.216,0c0.555,0 1.067,0.114 1.536,0.344c0.47,0.229 0.872,0.528 1.208,0.896c0.336,0.368 0.6,0.789 0.792,1.264c0.192,0.474 0.288,0.952 0.288,1.432c0,0.661 -0.144,1.277 -0.432,1.848c-0.288,0.57 -0.688,1.037 -1.2,1.4l2.4,4.176l-3.52,0l-2,-3.488l-1.168,0l0,3.488l-3.12,0Zm3.12,-6.208l1.968,0c0.192,0 0.371,-0.107 0.536,-0.32c0.166,-0.214 0.248,-0.512 0.248,-0.896c0,-0.395 -0.096,-0.696 -0.288,-0.904c-0.192,-0.208 -0.384,-0.312 -0.576,-0.312l-1.888,0l0,2.432Z" style="fill:none;stroke:#fff;stroke-width:0.77px;"/><path d="M161.114,10.696c-0.864,0 -1.648,-0.166 -2.352,-0.496c-0.704,-0.331 -1.306,-0.766 -1.808,-1.304c-0.501,-0.539 -0.89,-1.155 -1.168,-1.848c-0.277,-0.694 -0.416,-1.408 -0.416,-2.144c0,-0.747 0.144,-1.467 0.432,-2.16c0.288,-0.694 0.691,-1.304 1.208,-1.832c0.518,-0.528 1.131,-0.95 1.84,-1.264c0.71,-0.315 1.486,-0.472 2.328,-0.472c0.864,0 1.648,0.165 2.352,0.496c0.704,0.33 1.307,0.768 1.808,1.312c0.502,0.544 0.888,1.162 1.16,1.856c0.272,0.693 0.408,1.402 0.408,2.128c0,0.746 -0.144,1.464 -0.432,2.152c-0.288,0.688 -0.688,1.296 -1.2,1.824c-0.512,0.528 -1.122,0.952 -1.832,1.272c-0.709,0.32 -1.485,0.48 -2.328,0.48Zm-2.576,-5.76c0,0.384 0.054,0.754 0.16,1.112c0.107,0.357 0.267,0.674 0.48,0.952c0.214,0.277 0.483,0.501 0.808,0.672c0.326,0.17 0.712,0.256 1.16,0.256c0.448,0 0.838,-0.088 1.168,-0.264c0.331,-0.176 0.6,-0.406 0.808,-0.688c0.208,-0.283 0.363,-0.606 0.464,-0.968c0.102,-0.363 0.152,-0.731 0.152,-1.104c0,-0.384 -0.053,-0.755 -0.16,-1.112c-0.106,-0.358 -0.269,-0.672 -0.488,-0.944c-0.218,-0.272 -0.49,-0.491 -0.816,-0.656c-0.325,-0.166 -0.706,-0.248 -1.144,-0.248c-0.448,0 -0.834,0.085 -1.16,0.256c-0.325,0.17 -0.594,0.397 -0.808,0.68c-0.213,0.282 -0.37,0.602 -0.472,0.96c-0.101,0.357 -0.152,0.722 -0.152,1.096Z" style="fill:none;stroke:#fff;stroke-width:0.77px;"/><path d="M173.994,7.928c0.363,0 0.672,-0.08 0.928,-0.24c0.256,-0.16 0.464,-0.371 0.624,-0.632c0.16,-0.262 0.278,-0.563 0.352,-0.904c0.075,-0.342 0.112,-0.699 0.112,-1.072l0,-5.84l3.12,0l0,5.84c0,0.789 -0.101,1.528 -0.304,2.216c-0.202,0.688 -0.517,1.282 -0.944,1.784c-0.426,0.501 -0.962,0.896 -1.608,1.184c-0.645,0.288 -1.405,0.432 -2.28,0.432c-0.906,0 -1.682,-0.152 -2.328,-0.456c-0.645,-0.304 -1.176,-0.712 -1.592,-1.224c-0.416,-0.512 -0.72,-1.107 -0.912,-1.784c-0.192,-0.678 -0.288,-1.395 -0.288,-2.152l0,-5.84l3.12,0l0,5.84c0,0.373 0.038,0.733 0.112,1.08c0.075,0.346 0.192,0.65 0.352,0.912c0.16,0.261 0.366,0.469 0.616,0.624c0.251,0.154 0.558,0.232 0.92,0.232Z" style="fill:none;stroke:#fff;stroke-width:0.77px;"/><path d="M181.722,10.6l0,-11.36l4.896,0c0.555,0 1.067,0.114 1.536,0.344c0.47,0.229 0.872,0.528 1.208,0.896c0.336,0.368 0.6,0.789 0.792,1.264c0.192,0.474 0.288,0.952 0.288,1.432c0,0.501 -0.09,0.989 -0.272,1.464c-0.181,0.474 -0.434,0.896 -0.76,1.264c-0.325,0.368 -0.72,0.661 -1.184,0.88c-0.464,0.218 -0.973,0.328 -1.528,0.328l-1.856,0l0,3.488l-3.12,0Zm3.12,-6.208l1.648,0c0.192,0 0.371,-0.088 0.536,-0.264c0.166,-0.176 0.248,-0.494 0.248,-0.952c0,-0.47 -0.096,-0.79 -0.288,-0.96c-0.192,-0.171 -0.384,-0.256 -0.576,-0.256l-1.568,0l0,2.432Z" style="fill:none;stroke:#fff;stroke-width:0.77px;"/><path d="M194.602,-0.76l2.848,0l3.936,11.36l-3.168,0l-0.688,-2.224l-3.024,0l-0.672,2.224l-3.184,0l3.952,-11.36Zm2.432,7.056l-1.008,-3.52l-1.056,3.52l2.064,0Z" style="fill:none;stroke:#fff;stroke-width:0.77px;"/><path d="M207.05,10.6l0,-11.36l4.368,0c0.939,0 1.766,0.149 2.48,0.448c0.715,0.298 1.312,0.704 1.792,1.216c0.48,0.512 0.843,1.112 1.088,1.8c0.246,0.688 0.368,1.421 0.368,2.2c0,0.864 -0.136,1.645 -0.408,2.344c-0.272,0.698 -0.658,1.296 -1.16,1.792c-0.501,0.496 -1.104,0.88 -1.808,1.152c-0.704,0.272 -1.488,0.408 -2.352,0.408l-4.368,0Zm6.928,-5.696c0,-0.438 -0.058,-0.838 -0.176,-1.2c-0.117,-0.363 -0.285,-0.672 -0.504,-0.928c-0.218,-0.256 -0.488,-0.456 -0.808,-0.6c-0.32,-0.144 -0.677,-0.216 -1.072,-0.216l-1.248,0l0,5.92l1.248,0c0.406,0 0.768,-0.075 1.088,-0.224c0.32,-0.15 0.59,-0.358 0.808,-0.624c0.219,-0.267 0.384,-0.582 0.496,-0.944c0.112,-0.363 0.168,-0.758 0.168,-1.184Z" style="fill:none;stroke:#fff;stroke-width:0.77px;"/><path d="M224.426,10.696c-0.864,0 -1.648,-0.166 -2.352,-0.496c-0.704,-0.331 -1.306,-0.766 -1.808,-1.304c-0.501,-0.539 -0.89,-1.155 -1.168,-1.848c-0.277,-0.694 -0.416,-1.408 -0.416,-2.144c0,-0.747 0.144,-1.467 0.432,-2.16c0.288,-0.694 0.691,-1.304 1.208,-1.832c0.518,-0.528 1.131,-0.95 1.84,-1.264c0.71,-0.315 1.486,-0.472 2.328,-0.472c0.864,0 1.648,0.165 2.352,0.496c0.704,0.33 1.307,0.768 1.808,1.312c0.502,0.544 0.888,1.162 1.16,1.856c0.272,0.693 0.408,1.402 0.408,2.128c0,0.746 -0.144,1.464 -0.432,2.152c-0.288,0.688 -0.688,1.296 -1.2,1.824c-0.512,0.528 -1.122,0.952 -1.832,1.272c-0.709,0.32 -1.485,0.48 -2.328,0.48Zm-2.576,-5.76c0,0.384 0.054,0.754 0.16,1.112c0.107,0.357 0.267,0.674 0.48,0.952c0.214,0.277 0.483,0.501 0.808,0.672c0.326,0.17 0.712,0.256 1.16,0.256c0.448,0 0.838,-0.088 1.168,-0.264c0.331,-0.176 0.6,-0.406 0.808,-0.688c0.208,-0.283 0.363,-0.606 0.464,-0.968c0.102,-0.363 0.152,-0.731 0.152,-1.104c0,-0.384 -0.053,-0.755 -0.16,-1.112c-0.106,-0.358 -0.269,-0.672 -0.488,-0.944c-0.218,-0.272 -0.49,-0.491 -0.816,-0.656c-0.325,-0.166 -0.706,-0.248 -1.144,-0.248c-0.448,0 -0.834,0.085 -1.16,0.256c-0.325,0.17 -0.594,0.397 -0.808,0.68c-0.213,0.282 -0.37,0.602 -0.472,0.96c-0.101,0.357 -0.152,0.722 -0.152,1.096Z" style="fill:none;stroke:#fff;stroke-width:0.77px;"/><path d="M236.746,10.6l0,-11.36l5.216,0c0.555,0 1.067,0.114 1.536,0.344c0.47,0.229 0.872,0.528 1.208,0.896c0.336,0.368 0.6,0.789 0.792,1.264c0.192,0.474 0.288,0.952 0.288,1.432c0,0.661 -0.144,1.277 -0.432,1.848c-0.288,0.57 -0.688,1.037 -1.2,1.4l2.4,4.176l-3.52,0l-2,-3.488l-1.168,0l0,3.488l-3.12,0Zm3.12,-6.208l1.968,0c0.192,0 0.371,-0.107 0.536,-0.32c0.166,-0.214 0.248,-0.512 0.248,-0.896c0,-0.395 -0.096,-0.696 -0.288,-0.904c-0.192,-0.208 -0.384,-0.312 -0.576,-0.312l-1.888,0l0,2.432Z" style="fill:none;stroke:#fff;stroke-width:0.77px;"/><path d="M256.442,7.88l0,2.72l-8.096,0l0,-11.36l7.952,0l0,2.72l-4.832,0l0,1.6l4.128,0l0,2.528l-4.128,0l0,1.792l4.976,0Z" style="fill:none;stroke:#fff;stroke-width:0.77px;"/><rect x="258.698" y="-0.76" width="3.12" height="11.36" style="fill:none;stroke:#fff;stroke-width:0.77px;"/><path d="M268.97,10.6l0,-11.36l4.368,0c0.939,0 1.766,0.149 2.48,0.448c0.715,0.298 1.312,0.704 1.792,1.216c0.48,0.512 0.843,1.112 1.088,1.8c0.246,0.688 0.368,1.421 0.368,2.2c0,0.864 -0.136,1.645 -0.408,2.344c-0.272,0.698 -0.658,1.296 -1.16,1.792c-0.501,0.496 -1.104,0.88 -1.808,1.152c-0.704,0.272 -1.488,0.408 -2.352,0.408l-4.368,0Zm6.928,-5.696c0,-0.438 -0.058,-0.838 -0.176,-1.2c-0.117,-0.363 -0.285,-0.672 -0.504,-0.928c-0.218,-0.256 -0.488,-0.456 -0.808,-0.6c-0.32,-0.144 -0.677,-0.216 -1.072,-0.216l-1.248,0l0,5.92l1.248,0c0.406,0 0.768,-0.075 1.088,-0.224c0.32,-0.15 0.59,-0.358 0.808,-0.624c0.219,-0.267 0.384,-0.582 0.496,-0.944c0.112,-0.363 0.168,-0.758 0.168,-1.184Z" style="fill:none;stroke:#fff;stroke-width:0.77px;"/><path d="M289.322,7.88l0,2.72l-8.096,0l0,-11.36l7.952,0l0,2.72l-4.832,0l0,1.6l4.128,0l0,2.528l-4.128,0l0,1.792l4.976,0Z" style="fill:none;stroke:#fff;stroke-width:0.77px;"/><path d="M295.978,10.6l0,-11.36l5.216,0c0.555,0 1.067,0.114 1.536,0.344c0.47,0.229 0.872,0.528 1.208,0.896c0.336,0.368 0.6,0.789 0.792,1.264c0.192,0.474 0.288,0.952 0.288,1.432c0,0.661 -0.144,1.277 -0.432,1.848c-0.288,0.57 -0.688,1.037 -1.2,1.4l2.4,4.176l-3.52,0l-2,-3.488l-1.168,0l0,3.488l-3.12,0Zm3.12,-6.208l1.968,0c0.192,0 0.371,-0.107 0.536,-0.32c0.166,-0.214 0.248,-0.512 0.248,-0.896c0,-0.395 -0.096,-0.696 -0.288,-0.904c-0.192,-0.208 -0.384,-0.312 -0.576,-0.312l-1.888,0l0,2.432Z" style="fill:none;stroke:#fff;stroke-width:0.77px;"/><path d="M312.554,10.696c-0.864,0 -1.648,-0.166 -2.352,-0.496c-0.704,-0.331 -1.306,-0.766 -1.808,-1.304c-0.501,-0.539 -0.89,-1.155 -1.168,-1.848c-0.277,-0.694 -0.416,-1.408 -0.416,-2.144c0,-0.747 0.144,-1.467 0.432,-2.16c0.288,-0.694 0.691,-1.304 1.208,-1.832c0.518,-0.528 1.131,-0.95 1.84,-1.264c0.71,-0.315 1.486,-0.472 2.328,-0.472c0.864,0 1.648,0.165 2.352,0.496c0.704,0.33 1.307,0.768 1.808,1.312c0.502,0.544 0.888,1.162 1.16,1.856c0.272,0.693 0.408,1.402 0.408,2.128c0,0.746 -0.144,1.464 -0.432,2.152c-0.288,0.688 -0.688,1.296 -1.2,1.824c-0.512,0.528 -1.122,0.952 -1.832,1.272c-0.709,0.32 -1.485,0.48 -2.328,0.48Zm-2.576,-5.76c0,0.384 0.054,0.754 0.16,1.112c0.107,0.357 0.267,0.674 0.48,0.952c0.214,0.277 0.483,0.501 0.808,0.672c0.326,0.17 0.712,0.256 1.16,0.256c0.448,0 0.838,-0.088 1.168,-0.264c0.331,-0.176 0.6,-0.406 0.808,-0.688c0.208,-0.283 0.363,-0.606 0.464,-0.968c0.102,-0.363 0.152,-0.731 0.152,-1.104c0,-0.384 -0.053,-0.755 -0.16,-1.112c-0.106,-0.358 -0.269,-0.672 -0.488,-0.944c-0.218,-0.272 -0.49,-0.491 -0.816,-0.656c-0.325,-0.166 -0.706,-0.248 -1.144,-0.248c-0.448,0 -0.834,0.085 -1.16,0.256c-0.325,0.17 -0.594,0.397 -0.808,0.68c-0.213,0.282 -0.37,0.602 -0.472,0.96c-0.101,0.357 -0.152,0.722 -0.152,1.096Z" style="fill:none;stroke:#fff;stroke-width:0.77px;"/><path d="M329.066,10.6l0,-5.984l-1.904,4.208l-1.664,0l-1.904,-4.208l0,5.984l-3.12,0l0,-11.36l3.408,0l2.448,5.344l2.464,-5.344l3.392,0l0,11.36l-3.12,0Z" style="fill:none;stroke:#fff;stroke-width:0.77px;"/><path d="M337.882,-0.76l2.848,0l3.936,11.36l-3.168,0l-0.688,-2.224l-3.024,0l-0.672,2.224l-3.184,0l3.952,-11.36Zm2.432,7.056l-1.008,-3.52l-1.056,3.52l2.064,0Z" style="fill:none;stroke:#fff;stroke-width:0.77px;"/></g></svg>