<?xml version="1.0" encoding="UTF-8" standalone="no"?><!DOCTYPE svg PUBLIC "-//W3C//DTD SVG 1.1//EN" "http://www.w3.org/Graphics/SVG/1.1/DTD/svg11.dtd"><svg width="100%" height="100%" viewBox="0 0 431 16" version="1.1" xmlns="http://www.w3.org/2000/svg" xmlns:xlink="http://www.w3.org/1999/xlink" xml:space="preserve" style="fill-rule:evenodd;clip-rule:evenodd;stroke-linejoin:round;stroke-miterlimit:1.41421;"><g transform="matrix(1.29127,0,0,1.29127,-11.5003,1.28145)"><path d="M20.21,4.872c0,0.858 -0.136,1.646 -0.408,2.364c-0.272,0.717 -0.656,1.334 -1.152,1.852c-0.496,0.517 -1.092,0.918 -1.788,1.204c-0.696,0.285 -1.465,0.428 -2.308,0.428c-0.842,0 -1.61,-0.143 -2.304,-0.428c-0.693,-0.286 -1.288,-0.687 -1.784,-1.204c-0.496,-0.518 -0.88,-1.135 -1.152,-1.852c-0.272,-0.718 -0.408,-1.506 -0.408,-2.364c0,-0.859 0.136,-1.647 0.408,-2.364c0.272,-0.718 0.656,-1.336 1.152,-1.856c0.496,-0.52 1.091,-0.924 1.784,-1.212c0.694,-0.288 1.462,-0.432 2.304,-0.432c0.843,0 1.612,0.144 2.308,0.432c0.696,0.288 1.292,0.692 1.788,1.212c0.496,0.52 0.88,1.138 1.152,1.856c0.272,0.717 0.408,1.505 0.408,2.364Zm-1.592,0c0,-0.704 -0.096,-1.336 -0.288,-1.896c-0.192,-0.56 -0.464,-1.034 -0.816,-1.42c-0.352,-0.387 -0.778,-0.684 -1.28,-0.892c-0.501,-0.208 -1.061,-0.312 -1.68,-0.312c-0.613,0 -1.17,0.104 -1.672,0.312c-0.501,0.208 -0.929,0.505 -1.284,0.892c-0.354,0.386 -0.628,0.86 -0.82,1.42c-0.192,0.56 -0.288,1.192 -0.288,1.896c0,0.704 0.096,1.334 0.288,1.892c0.192,0.557 0.466,1.029 0.82,1.416c0.355,0.386 0.783,0.682 1.284,0.888c0.502,0.205 1.059,0.308 1.672,0.308c0.619,0 1.179,-0.103 1.68,-0.308c0.502,-0.206 0.928,-0.502 1.28,-0.888c0.352,-0.387 0.624,-0.859 0.816,-1.416c0.192,-0.558 0.288,-1.188 0.288,-1.892Z" style="fill:none;"/><path d="M32.13,9.472c0.31,0 0.594,-0.015 0.852,-0.044c0.259,-0.03 0.503,-0.074 0.732,-0.132c0.23,-0.059 0.446,-0.13 0.648,-0.212c0.203,-0.083 0.406,-0.178 0.608,-0.284l0,-2.528l-1.776,0c-0.101,0 -0.182,-0.03 -0.244,-0.088c-0.061,-0.059 -0.092,-0.131 -0.092,-0.216l0,-0.88l3.52,0l0,4.4c-0.288,0.208 -0.588,0.389 -0.9,0.544c-0.312,0.154 -0.645,0.284 -1,0.388c-0.354,0.104 -0.734,0.181 -1.14,0.232c-0.405,0.05 -0.845,0.076 -1.32,0.076c-0.832,0 -1.594,-0.143 -2.288,-0.428c-0.693,-0.286 -1.29,-0.686 -1.792,-1.2c-0.501,-0.515 -0.892,-1.132 -1.172,-1.852c-0.28,-0.72 -0.42,-1.512 -0.42,-2.376c0,-0.875 0.138,-1.672 0.412,-2.392c0.275,-0.72 0.667,-1.338 1.176,-1.852c0.51,-0.515 1.126,-0.914 1.848,-1.196c0.723,-0.283 1.532,-0.424 2.428,-0.424c0.454,0 0.875,0.033 1.264,0.1c0.39,0.066 0.751,0.162 1.084,0.288c0.334,0.125 0.642,0.277 0.924,0.456c0.283,0.178 0.547,0.38 0.792,0.604l-0.44,0.704c-0.09,0.144 -0.208,0.216 -0.352,0.216c-0.085,0 -0.178,-0.03 -0.28,-0.088c-0.133,-0.075 -0.282,-0.166 -0.448,-0.272c-0.165,-0.107 -0.366,-0.21 -0.604,-0.308c-0.237,-0.099 -0.517,-0.183 -0.84,-0.252c-0.322,-0.07 -0.705,-0.104 -1.148,-0.104c-0.645,0 -1.229,0.105 -1.752,0.316c-0.522,0.21 -0.968,0.512 -1.336,0.904c-0.368,0.392 -0.65,0.866 -0.848,1.424c-0.197,0.557 -0.296,1.182 -0.296,1.876c0,0.725 0.103,1.372 0.308,1.94c0.206,0.568 0.495,1.049 0.868,1.444c0.374,0.394 0.816,0.696 1.328,0.904c0.512,0.208 1.078,0.312 1.696,0.312Z" style="fill:none;"/><path d="M48.994,10.6l-1.2,0c-0.138,0 -0.25,-0.035 -0.336,-0.104c-0.085,-0.07 -0.149,-0.158 -0.192,-0.264l-1.072,-2.768l-5.144,0l-1.072,2.768c-0.037,0.096 -0.101,0.181 -0.192,0.256c-0.09,0.074 -0.202,0.112 -0.336,0.112l-1.2,0l4.584,-11.464l1.576,0l4.584,11.464Zm-7.512,-4.256l4.28,0l-1.8,-4.664c-0.117,-0.288 -0.232,-0.648 -0.344,-1.08c-0.058,0.218 -0.116,0.42 -0.172,0.604c-0.056,0.184 -0.11,0.345 -0.164,0.484l-1.8,4.656Z" style="fill:none;"/><path d="M57.994,-0.864l0,1.304l-3.704,0l0,10.16l-1.552,0l0,-10.16l-3.72,0l0,-1.304l8.976,0Z" style="fill:none;"/><path d="M70.29,4.872c0,0.858 -0.136,1.646 -0.408,2.364c-0.272,0.717 -0.656,1.334 -1.152,1.852c-0.496,0.517 -1.092,0.918 -1.788,1.204c-0.696,0.285 -1.465,0.428 -2.308,0.428c-0.842,0 -1.61,-0.143 -2.304,-0.428c-0.693,-0.286 -1.288,-0.687 -1.784,-1.204c-0.496,-0.518 -0.88,-1.135 -1.152,-1.852c-0.272,-0.718 -0.408,-1.506 -0.408,-2.364c0,-0.859 0.136,-1.647 0.408,-2.364c0.272,-0.718 0.656,-1.336 1.152,-1.856c0.496,-0.52 1.091,-0.924 1.784,-1.212c0.694,-0.288 1.462,-0.432 2.304,-0.432c0.843,0 1.612,0.144 2.308,0.432c0.696,0.288 1.292,0.692 1.788,1.212c0.496,0.52 0.88,1.138 1.152,1.856c0.272,0.717 0.408,1.505 0.408,2.364Zm-1.592,0c0,-0.704 -0.096,-1.336 -0.288,-1.896c-0.192,-0.56 -0.464,-1.034 -0.816,-1.42c-0.352,-0.387 -0.778,-0.684 -1.28,-0.892c-0.501,-0.208 -1.061,-0.312 -1.68,-0.312c-0.613,0 -1.17,0.104 -1.672,0.312c-0.501,0.208 -0.929,0.505 -1.284,0.892c-0.354,0.386 -0.628,0.86 -0.82,1.42c-0.192,0.56 -0.288,1.192 -0.288,1.896c0,0.704 0.096,1.334 0.288,1.892c0.192,0.557 0.466,1.029 0.82,1.416c0.355,0.386 0.783,0.682 1.284,0.888c0.502,0.205 1.059,0.308 1.672,0.308c0.619,0 1.179,-0.103 1.68,-0.308c0.502,-0.206 0.928,-0.502 1.28,-0.888c0.352,-0.387 0.624,-0.859 0.816,-1.416c0.192,-0.558 0.288,-1.188 0.288,-1.892Z" style="fill:none;"/><path d="M78.802,5.816l0,4.784l-1.544,0l0,-11.464l3.24,0c0.726,0 1.352,0.073 1.88,0.22c0.528,0.146 0.964,0.358 1.308,0.636c0.344,0.277 0.599,0.612 0.764,1.004c0.166,0.392 0.248,0.83 0.248,1.316c0,0.405 -0.064,0.784 -0.192,1.136c-0.128,0.352 -0.313,0.668 -0.556,0.948c-0.242,0.28 -0.538,0.518 -0.888,0.716c-0.349,0.197 -0.745,0.346 -1.188,0.448c0.192,0.112 0.363,0.274 0.512,0.488l3.344,4.552l-1.376,0c-0.282,0 -0.49,-0.11 -0.624,-0.328l-2.976,-4.096c-0.09,-0.128 -0.189,-0.22 -0.296,-0.276c-0.106,-0.056 -0.266,-0.084 -0.48,-0.084l-1.176,0Zm0,-1.128l1.624,0c0.454,0 0.852,-0.055 1.196,-0.164c0.344,-0.11 0.632,-0.264 0.864,-0.464c0.232,-0.2 0.407,-0.439 0.524,-0.716c0.118,-0.278 0.176,-0.584 0.176,-0.92c0,-0.683 -0.225,-1.198 -0.676,-1.544c-0.45,-0.347 -1.121,-0.52 -2.012,-0.52l-1.696,0l0,4.328Z" style="fill:none;"/><path d="M98.482,4.872c0,0.858 -0.136,1.646 -0.408,2.364c-0.272,0.717 -0.656,1.334 -1.152,1.852c-0.496,0.517 -1.092,0.918 -1.788,1.204c-0.696,0.285 -1.465,0.428 -2.308,0.428c-0.842,0 -1.61,-0.143 -2.304,-0.428c-0.693,-0.286 -1.288,-0.687 -1.784,-1.204c-0.496,-0.518 -0.88,-1.135 -1.152,-1.852c-0.272,-0.718 -0.408,-1.506 -0.408,-2.364c0,-0.859 0.136,-1.647 0.408,-2.364c0.272,-0.718 0.656,-1.336 1.152,-1.856c0.496,-0.52 1.091,-0.924 1.784,-1.212c0.694,-0.288 1.462,-0.432 2.304,-0.432c0.843,0 1.612,0.144 2.308,0.432c0.696,0.288 1.292,0.692 1.788,1.212c0.496,0.52 0.88,1.138 1.152,1.856c0.272,0.717 0.408,1.505 0.408,2.364Zm-1.592,0c0,-0.704 -0.096,-1.336 -0.288,-1.896c-0.192,-0.56 -0.464,-1.034 -0.816,-1.42c-0.352,-0.387 -0.778,-0.684 -1.28,-0.892c-0.501,-0.208 -1.061,-0.312 -1.68,-0.312c-0.613,0 -1.17,0.104 -1.672,0.312c-0.501,0.208 -0.929,0.505 -1.284,0.892c-0.354,0.386 -0.628,0.86 -0.82,1.42c-0.192,0.56 -0.288,1.192 -0.288,1.896c0,0.704 0.096,1.334 0.288,1.892c0.192,0.557 0.466,1.029 0.82,1.416c0.355,0.386 0.783,0.682 1.284,0.888c0.502,0.205 1.059,0.308 1.672,0.308c0.619,0 1.179,-0.103 1.68,-0.308c0.502,-0.206 0.928,-0.502 1.28,-0.888c0.352,-0.387 0.624,-0.859 0.816,-1.416c0.192,-0.558 0.288,-1.188 0.288,-1.892Z" style="fill:none;"/><path d="M108.466,-0.864l0,1.264l-5.504,0l0,3.808l4.456,0l0,1.216l-4.456,0l0,3.912l5.504,0l0,1.264l-7.064,0l0,-11.464l7.064,0Z" style="fill:none;"/><path d="M115.954,9.368c0.475,0 0.899,-0.08 1.272,-0.24c0.374,-0.16 0.69,-0.384 0.948,-0.672c0.259,-0.288 0.456,-0.632 0.592,-1.032c0.136,-0.4 0.204,-0.84 0.204,-1.32l0,-6.968l1.544,0l0,6.968c0,0.661 -0.105,1.274 -0.316,1.84c-0.21,0.565 -0.512,1.054 -0.904,1.468c-0.392,0.413 -0.87,0.737 -1.436,0.972c-0.565,0.234 -1.2,0.352 -1.904,0.352c-0.704,0 -1.338,-0.118 -1.904,-0.352c-0.565,-0.235 -1.045,-0.559 -1.44,-0.972c-0.394,-0.414 -0.697,-0.903 -0.908,-1.468c-0.21,-0.566 -0.316,-1.179 -0.316,-1.84l0,-6.968l1.544,0l0,6.96c0,0.48 0.068,0.92 0.204,1.32c0.136,0.4 0.334,0.744 0.592,1.032c0.259,0.288 0.576,0.513 0.952,0.676c0.376,0.162 0.802,0.244 1.276,0.244Z" style="fill:none;"/><path d="M137.298,10.6l-1.2,0c-0.138,0 -0.25,-0.035 -0.336,-0.104c-0.085,-0.07 -0.149,-0.158 -0.192,-0.264l-1.072,-2.768l-5.144,0l-1.072,2.768c-0.037,0.096 -0.101,0.181 -0.192,0.256c-0.09,0.074 -0.202,0.112 -0.336,0.112l-1.2,0l4.584,-11.464l1.576,0l4.584,11.464Zm-7.512,-4.256l4.28,0l-1.8,-4.664c-0.117,-0.288 -0.232,-0.648 -0.344,-1.08c-0.058,0.218 -0.116,0.42 -0.172,0.604c-0.056,0.184 -0.11,0.345 -0.164,0.484l-1.8,4.656Z" style="fill:none;"/><path d="M145.138,5.816l0,4.784l-1.544,0l0,-11.464l3.24,0c0.726,0 1.352,0.073 1.88,0.22c0.528,0.146 0.964,0.358 1.308,0.636c0.344,0.277 0.599,0.612 0.764,1.004c0.166,0.392 0.248,0.83 0.248,1.316c0,0.405 -0.064,0.784 -0.192,1.136c-0.128,0.352 -0.313,0.668 -0.556,0.948c-0.242,0.28 -0.538,0.518 -0.888,0.716c-0.349,0.197 -0.745,0.346 -1.188,0.448c0.192,0.112 0.363,0.274 0.512,0.488l3.344,4.552l-1.376,0c-0.282,0 -0.49,-0.11 -0.624,-0.328l-2.976,-4.096c-0.09,-0.128 -0.189,-0.22 -0.296,-0.276c-0.106,-0.056 -0.266,-0.084 -0.48,-0.084l-1.176,0Zm0,-1.128l1.624,0c0.454,0 0.852,-0.055 1.196,-0.164c0.344,-0.11 0.632,-0.264 0.864,-0.464c0.232,-0.2 0.407,-0.439 0.524,-0.716c0.118,-0.278 0.176,-0.584 0.176,-0.92c0,-0.683 -0.225,-1.198 -0.676,-1.544c-0.45,-0.347 -1.121,-0.52 -2.012,-0.52l-1.696,0l0,4.328Z" style="fill:none;"/><path d="M164.818,4.872c0,0.858 -0.136,1.646 -0.408,2.364c-0.272,0.717 -0.656,1.334 -1.152,1.852c-0.496,0.517 -1.092,0.918 -1.788,1.204c-0.696,0.285 -1.465,0.428 -2.308,0.428c-0.842,0 -1.61,-0.143 -2.304,-0.428c-0.693,-0.286 -1.288,-0.687 -1.784,-1.204c-0.496,-0.518 -0.88,-1.135 -1.152,-1.852c-0.272,-0.718 -0.408,-1.506 -0.408,-2.364c0,-0.859 0.136,-1.647 0.408,-2.364c0.272,-0.718 0.656,-1.336 1.152,-1.856c0.496,-0.52 1.091,-0.924 1.784,-1.212c0.694,-0.288 1.462,-0.432 2.304,-0.432c0.843,0 1.612,0.144 2.308,0.432c0.696,0.288 1.292,0.692 1.788,1.212c0.496,0.52 0.88,1.138 1.152,1.856c0.272,0.717 0.408,1.505 0.408,2.364Zm-1.592,0c0,-0.704 -0.096,-1.336 -0.288,-1.896c-0.192,-0.56 -0.464,-1.034 -0.816,-1.42c-0.352,-0.387 -0.778,-0.684 -1.28,-0.892c-0.501,-0.208 -1.061,-0.312 -1.68,-0.312c-0.613,0 -1.17,0.104 -1.672,0.312c-0.501,0.208 -0.929,0.505 -1.284,0.892c-0.354,0.386 -0.628,0.86 -0.82,1.42c-0.192,0.56 -0.288,1.192 -0.288,1.896c0,0.704 0.096,1.334 0.288,1.892c0.192,0.557 0.466,1.029 0.82,1.416c0.355,0.386 0.783,0.682 1.284,0.888c0.502,0.205 1.059,0.308 1.672,0.308c0.619,0 1.179,-0.103 1.68,-0.308c0.502,-0.206 0.928,-0.502 1.28,-0.888c0.352,-0.387 0.624,-0.859 0.816,-1.416c0.192,-0.558 0.288,-1.188 0.288,-1.892Z" style="fill:none;"/><path d="M172.194,9.368c0.475,0 0.899,-0.08 1.272,-0.24c0.374,-0.16 0.69,-0.384 0.948,-0.672c0.259,-0.288 0.456,-0.632 0.592,-1.032c0.136,-0.4 0.204,-0.84 0.204,-1.32l0,-6.968l1.544,0l0,6.968c0,0.661 -0.105,1.274 -0.316,1.84c-0.21,0.565 -0.512,1.054 -0.904,1.468c-0.392,0.413 -0.87,0.737 -1.436,0.972c-0.565,0.234 -1.2,0.352 -1.904,0.352c-0.704,0 -1.338,-0.118 -1.904,-0.352c-0.565,-0.235 -1.045,-0.559 -1.44,-0.972c-0.394,-0.414 -0.697,-0.903 -0.908,-1.468c-0.21,-0.566 -0.316,-1.179 -0.316,-1.84l0,-6.968l1.544,0l0,6.96c0,0.48 0.068,0.92 0.204,1.32c0.136,0.4 0.334,0.744 0.592,1.032c0.259,0.288 0.576,0.513 0.952,0.676c0.376,0.162 0.802,0.244 1.276,0.244Z" style="fill:none;"/><path d="M181.922,6.312l0,4.288l-1.544,0l0,-11.464l3.384,0c0.726,0 1.356,0.084 1.892,0.252c0.536,0.168 0.98,0.406 1.332,0.716c0.352,0.309 0.615,0.682 0.788,1.12c0.174,0.437 0.26,0.925 0.26,1.464c0,0.533 -0.093,1.021 -0.28,1.464c-0.186,0.442 -0.46,0.824 -0.82,1.144c-0.36,0.32 -0.806,0.569 -1.34,0.748c-0.533,0.178 -1.144,0.268 -1.832,0.268l-1.84,0Zm0,-1.232l1.84,0c0.443,0 0.834,-0.059 1.172,-0.176c0.339,-0.118 0.623,-0.282 0.852,-0.492c0.23,-0.211 0.403,-0.463 0.52,-0.756c0.118,-0.294 0.176,-0.616 0.176,-0.968c0,-0.731 -0.225,-1.302 -0.676,-1.712c-0.45,-0.411 -1.132,-0.616 -2.044,-0.616l-1.84,0l0,4.72Z" style="fill:none;"/><path d="M199.122,10.6l-1.2,0c-0.138,0 -0.25,-0.035 -0.336,-0.104c-0.085,-0.07 -0.149,-0.158 -0.192,-0.264l-1.072,-2.768l-5.144,0l-1.072,2.768c-0.037,0.096 -0.101,0.181 -0.192,0.256c-0.09,0.074 -0.202,0.112 -0.336,0.112l-1.2,0l4.584,-11.464l1.576,0l4.584,11.464Zm-7.512,-4.256l4.28,0l-1.8,-4.664c-0.117,-0.288 -0.232,-0.648 -0.344,-1.08c-0.058,0.218 -0.116,0.42 -0.172,0.604c-0.056,0.184 -0.11,0.345 -0.164,0.484l-1.8,4.656Z" style="fill:none;"/><path d="M215.194,4.872c0,0.858 -0.136,1.64 -0.408,2.344c-0.272,0.704 -0.656,1.306 -1.152,1.808c-0.496,0.501 -1.09,0.889 -1.784,1.164c-0.693,0.274 -1.461,0.412 -2.304,0.412l-4.288,0l0,-11.464l4.288,0c0.843,0 1.611,0.137 2.304,0.412c0.694,0.274 1.288,0.664 1.784,1.168c0.496,0.504 0.88,1.108 1.152,1.812c0.272,0.704 0.408,1.485 0.408,2.344Zm-1.592,0c0,-0.704 -0.096,-1.334 -0.288,-1.888c-0.192,-0.555 -0.464,-1.024 -0.816,-1.408c-0.352,-0.384 -0.778,-0.678 -1.28,-0.88c-0.501,-0.203 -1.058,-0.304 -1.672,-0.304l-2.728,0l0,8.952l2.728,0c0.614,0 1.171,-0.102 1.672,-0.304c0.502,-0.203 0.928,-0.495 1.28,-0.876c0.352,-0.382 0.624,-0.85 0.816,-1.404c0.192,-0.555 0.288,-1.184 0.288,-1.888Z" style="fill:none;"/><path d="M228.754,4.872c0,0.858 -0.136,1.646 -0.408,2.364c-0.272,0.717 -0.656,1.334 -1.152,1.852c-0.496,0.517 -1.092,0.918 -1.788,1.204c-0.696,0.285 -1.465,0.428 -2.308,0.428c-0.842,0 -1.61,-0.143 -2.304,-0.428c-0.693,-0.286 -1.288,-0.687 -1.784,-1.204c-0.496,-0.518 -0.88,-1.135 -1.152,-1.852c-0.272,-0.718 -0.408,-1.506 -0.408,-2.364c0,-0.859 0.136,-1.647 0.408,-2.364c0.272,-0.718 0.656,-1.336 1.152,-1.856c0.496,-0.52 1.091,-0.924 1.784,-1.212c0.694,-0.288 1.462,-0.432 2.304,-0.432c0.843,0 1.612,0.144 2.308,0.432c0.696,0.288 1.292,0.692 1.788,1.212c0.496,0.52 0.88,1.138 1.152,1.856c0.272,0.717 0.408,1.505 0.408,2.364Zm-1.592,0c0,-0.704 -0.096,-1.336 -0.288,-1.896c-0.192,-0.56 -0.464,-1.034 -0.816,-1.42c-0.352,-0.387 -0.778,-0.684 -1.28,-0.892c-0.501,-0.208 -1.061,-0.312 -1.68,-0.312c-0.613,0 -1.17,0.104 -1.672,0.312c-0.501,0.208 -0.929,0.505 -1.284,0.892c-0.354,0.386 -0.628,0.86 -0.82,1.42c-0.192,0.56 -0.288,1.192 -0.288,1.896c0,0.704 0.096,1.334 0.288,1.892c0.192,0.557 0.466,1.029 0.82,1.416c0.355,0.386 0.783,0.682 1.284,0.888c0.502,0.205 1.059,0.308 1.672,0.308c0.619,0 1.179,-0.103 1.68,-0.308c0.502,-0.206 0.928,-0.502 1.28,-0.888c0.352,-0.387 0.624,-0.859 0.816,-1.416c0.192,-0.558 0.288,-1.188 0.288,-1.892Z" style="fill:none;"/><path d="M237.266,5.816l0,4.784l-1.544,0l0,-11.464l3.24,0c0.726,0 1.352,0.073 1.88,0.22c0.528,0.146 0.964,0.358 1.308,0.636c0.344,0.277 0.599,0.612 0.764,1.004c0.166,0.392 0.248,0.83 0.248,1.316c0,0.405 -0.064,0.784 -0.192,1.136c-0.128,0.352 -0.313,0.668 -0.556,0.948c-0.242,0.28 -0.538,0.518 -0.888,0.716c-0.349,0.197 -0.745,0.346 -1.188,0.448c0.192,0.112 0.363,0.274 0.512,0.488l3.344,4.552l-1.376,0c-0.282,0 -0.49,-0.11 -0.624,-0.328l-2.976,-4.096c-0.09,-0.128 -0.189,-0.22 -0.296,-0.276c-0.106,-0.056 -0.266,-0.084 -0.48,-0.084l-1.176,0Zm0,-1.128l1.624,0c0.454,0 0.852,-0.055 1.196,-0.164c0.344,-0.11 0.632,-0.264 0.864,-0.464c0.232,-0.2 0.407,-0.439 0.524,-0.716c0.118,-0.278 0.176,-0.584 0.176,-0.92c0,-0.683 -0.225,-1.198 -0.676,-1.544c-0.45,-0.347 -1.121,-0.52 -2.012,-0.52l-1.696,0l0,4.328Z" style="fill:none;"/><path d="M253.73,-0.864l0,1.264l-5.504,0l0,3.808l4.456,0l0,1.216l-4.456,0l0,3.912l5.504,0l0,1.264l-7.064,0l0,-11.464l7.064,0Z" style="fill:none;"/><rect x="257.05" y="-0.864" width="1.552" height="11.464" style="fill:none;"/><path d="M276.298,4.872c0,0.858 -0.136,1.64 -0.408,2.344c-0.272,0.704 -0.656,1.306 -1.152,1.808c-0.496,0.501 -1.09,0.889 -1.784,1.164c-0.693,0.274 -1.461,0.412 -2.304,0.412l-4.288,0l0,-11.464l4.288,0c0.843,0 1.611,0.137 2.304,0.412c0.694,0.274 1.288,0.664 1.784,1.168c0.496,0.504 0.88,1.108 1.152,1.812c0.272,0.704 0.408,1.485 0.408,2.344Zm-1.592,0c0,-0.704 -0.096,-1.334 -0.288,-1.888c-0.192,-0.555 -0.464,-1.024 -0.816,-1.408c-0.352,-0.384 -0.778,-0.678 -1.28,-0.88c-0.501,-0.203 -1.058,-0.304 -1.672,-0.304l-2.728,0l0,8.952l2.728,0c0.614,0 1.171,-0.102 1.672,-0.304c0.502,-0.203 0.928,-0.495 1.28,-0.876c0.352,-0.382 0.624,-0.85 0.816,-1.404c0.192,-0.555 0.288,-1.184 0.288,-1.888Z" style="fill:none;"/><path d="M286.274,-0.864l0,1.264l-5.504,0l0,3.808l4.456,0l0,1.216l-4.456,0l0,3.912l5.504,0l0,1.264l-7.064,0l0,-11.464l7.064,0Z" style="fill:none;"/><path d="M294.898,5.816l0,4.784l-1.544,0l0,-11.464l3.24,0c0.726,0 1.352,0.073 1.88,0.22c0.528,0.146 0.964,0.358 1.308,0.636c0.344,0.277 0.599,0.612 0.764,1.004c0.166,0.392 0.248,0.83 0.248,1.316c0,0.405 -0.064,0.784 -0.192,1.136c-0.128,0.352 -0.313,0.668 -0.556,0.948c-0.242,0.28 -0.538,0.518 -0.888,0.716c-0.349,0.197 -0.745,0.346 -1.188,0.448c0.192,0.112 0.363,0.274 0.512,0.488l3.344,4.552l-1.376,0c-0.282,0 -0.49,-0.11 -0.624,-0.328l-2.976,-4.096c-0.09,-0.128 -0.189,-0.22 -0.296,-0.276c-0.106,-0.056 -0.266,-0.084 -0.48,-0.084l-1.176,0Zm0,-1.128l1.624,0c0.454,0 0.852,-0.055 1.196,-0.164c0.344,-0.11 0.632,-0.264 0.864,-0.464c0.232,-0.2 0.407,-0.439 0.524,-0.716c0.118,-0.278 0.176,-0.584 0.176,-0.92c0,-0.683 -0.225,-1.198 -0.676,-1.544c-0.45,-0.347 -1.121,-0.52 -2.012,-0.52l-1.696,0l0,4.328Z" style="fill:none;"/><path d="M314.578,4.872c0,0.858 -0.136,1.646 -0.408,2.364c-0.272,0.717 -0.656,1.334 -1.152,1.852c-0.496,0.517 -1.092,0.918 -1.788,1.204c-0.696,0.285 -1.465,0.428 -2.308,0.428c-0.842,0 -1.61,-0.143 -2.304,-0.428c-0.693,-0.286 -1.288,-0.687 -1.784,-1.204c-0.496,-0.518 -0.88,-1.135 -1.152,-1.852c-0.272,-0.718 -0.408,-1.506 -0.408,-2.364c0,-0.859 0.136,-1.647 0.408,-2.364c0.272,-0.718 0.656,-1.336 1.152,-1.856c0.496,-0.52 1.091,-0.924 1.784,-1.212c0.694,-0.288 1.462,-0.432 2.304,-0.432c0.843,0 1.612,0.144 2.308,0.432c0.696,0.288 1.292,0.692 1.788,1.212c0.496,0.52 0.88,1.138 1.152,1.856c0.272,0.717 0.408,1.505 0.408,2.364Zm-1.592,0c0,-0.704 -0.096,-1.336 -0.288,-1.896c-0.192,-0.56 -0.464,-1.034 -0.816,-1.42c-0.352,-0.387 -0.778,-0.684 -1.28,-0.892c-0.501,-0.208 -1.061,-0.312 -1.68,-0.312c-0.613,0 -1.17,0.104 -1.672,0.312c-0.501,0.208 -0.929,0.505 -1.284,0.892c-0.354,0.386 -0.628,0.86 -0.82,1.42c-0.192,0.56 -0.288,1.192 -0.288,1.896c0,0.704 0.096,1.334 0.288,1.892c0.192,0.557 0.466,1.029 0.82,1.416c0.355,0.386 0.783,0.682 1.284,0.888c0.502,0.205 1.059,0.308 1.672,0.308c0.619,0 1.179,-0.103 1.68,-0.308c0.502,-0.206 0.928,-0.502 1.28,-0.888c0.352,-0.387 0.624,-0.859 0.816,-1.416c0.192,-0.558 0.288,-1.188 0.288,-1.892Z" style="fill:none;"/><path d="M323.138,6.456c0.075,0.128 0.14,0.262 0.196,0.404c0.056,0.141 0.111,0.284 0.164,0.428c0.054,-0.15 0.11,-0.292 0.168,-0.428c0.059,-0.136 0.126,-0.274 0.2,-0.412l3.88,-7.048c0.07,-0.123 0.142,-0.198 0.216,-0.224c0.075,-0.027 0.182,-0.04 0.32,-0.04l1.144,0l0,11.464l-1.36,0l0,-8.424c0,-0.112 0.003,-0.232 0.008,-0.36c0.006,-0.128 0.014,-0.259 0.024,-0.392l-3.928,7.168c-0.133,0.24 -0.32,0.36 -0.56,0.36l-0.224,0c-0.24,0 -0.426,-0.12 -0.56,-0.36l-4.016,-7.192c0.016,0.138 0.028,0.274 0.036,0.408c0.008,0.133 0.012,0.256 0.012,0.368l0,8.424l-1.36,0l0,-11.464l1.144,0c0.139,0 0.246,0.013 0.32,0.04c0.075,0.026 0.147,0.101 0.216,0.224l3.96,7.056Z" style="fill:none;"/><path d="M342.45,10.6l-1.2,0c-0.138,0 -0.25,-0.035 -0.336,-0.104c-0.085,-0.07 -0.149,-0.158 -0.192,-0.264l-1.072,-2.768l-5.144,0l-1.072,2.768c-0.037,0.096 -0.101,0.181 -0.192,0.256c-0.09,0.074 -0.202,0.112 -0.336,0.112l-1.2,0l4.584,-11.464l1.576,0l4.584,11.464Zm-7.512,-4.256l4.28,0l-1.8,-4.664c-0.117,-0.288 -0.232,-0.648 -0.344,-1.08c-0.058,0.218 -0.116,0.42 -0.172,0.604c-0.056,0.184 -0.11,0.345 -0.164,0.484l-1.8,4.656Z" style="fill:none;"/><path d="M20.21,4.872c0,0.858 -0.136,1.646 -0.408,2.364c-0.272,0.717 -0.656,1.334 -1.152,1.852c-0.496,0.517 -1.092,0.918 -1.788,1.204c-0.696,0.285 -1.465,0.428 -2.308,0.428c-0.842,0 -1.61,-0.143 -2.304,-0.428c-0.693,-0.286 -1.288,-0.687 -1.784,-1.204c-0.496,-0.518 -0.88,-1.135 -1.152,-1.852c-0.272,-0.718 -0.408,-1.506 -0.408,-2.364c0,-0.859 0.136,-1.647 0.408,-2.364c0.272,-0.718 0.656,-1.336 1.152,-1.856c0.496,-0.52 1.091,-0.924 1.784,-1.212c0.694,-0.288 1.462,-0.432 2.304,-0.432c0.843,0 1.612,0.144 2.308,0.432c0.696,0.288 1.292,0.692 1.788,1.212c0.496,0.52 0.88,1.138 1.152,1.856c0.272,0.717 0.408,1.505 0.408,2.364Zm-1.592,0c0,-0.704 -0.096,-1.336 -0.288,-1.896c-0.192,-0.56 -0.464,-1.034 -0.816,-1.42c-0.352,-0.387 -0.778,-0.684 -1.28,-0.892c-0.501,-0.208 -1.061,-0.312 -1.68,-0.312c-0.613,0 -1.17,0.104 -1.672,0.312c-0.501,0.208 -0.929,0.505 -1.284,0.892c-0.354,0.386 -0.628,0.86 -0.82,1.42c-0.192,0.56 -0.288,1.192 -0.288,1.896c0,0.704 0.096,1.334 0.288,1.892c0.192,0.557 0.466,1.029 0.82,1.416c0.355,0.386 0.783,0.682 1.284,0.888c0.502,0.205 1.059,0.308 1.672,0.308c0.619,0 1.179,-0.103 1.68,-0.308c0.502,-0.206 0.928,-0.502 1.28,-0.888c0.352,-0.387 0.624,-0.859 0.816,-1.416c0.192,-0.558 0.288,-1.188 0.288,-1.892Z" style="fill:none;stroke:#555;stroke-width:0.77px;"/><path d="M32.13,9.472c0.31,0 0.594,-0.015 0.852,-0.044c0.259,-0.03 0.503,-0.074 0.732,-0.132c0.23,-0.059 0.446,-0.13 0.648,-0.212c0.203,-0.083 0.406,-0.178 0.608,-0.284l0,-2.528l-1.776,0c-0.101,0 -0.182,-0.03 -0.244,-0.088c-0.061,-0.059 -0.092,-0.131 -0.092,-0.216l0,-0.88l3.52,0l0,4.4c-0.288,0.208 -0.588,0.389 -0.9,0.544c-0.312,0.154 -0.645,0.284 -1,0.388c-0.354,0.104 -0.734,0.181 -1.14,0.232c-0.405,0.05 -0.845,0.076 -1.32,0.076c-0.832,0 -1.594,-0.143 -2.288,-0.428c-0.693,-0.286 -1.29,-0.686 -1.792,-1.2c-0.501,-0.515 -0.892,-1.132 -1.172,-1.852c-0.28,-0.72 -0.42,-1.512 -0.42,-2.376c0,-0.875 0.138,-1.672 0.412,-2.392c0.275,-0.72 0.667,-1.338 1.176,-1.852c0.51,-0.515 1.126,-0.914 1.848,-1.196c0.723,-0.283 1.532,-0.424 2.428,-0.424c0.454,0 0.875,0.033 1.264,0.1c0.39,0.066 0.751,0.162 1.084,0.288c0.334,0.125 0.642,0.277 0.924,0.456c0.283,0.178 0.547,0.38 0.792,0.604l-0.44,0.704c-0.09,0.144 -0.208,0.216 -0.352,0.216c-0.085,0 -0.178,-0.03 -0.28,-0.088c-0.133,-0.075 -0.282,-0.166 -0.448,-0.272c-0.165,-0.107 -0.366,-0.21 -0.604,-0.308c-0.237,-0.099 -0.517,-0.183 -0.84,-0.252c-0.322,-0.07 -0.705,-0.104 -1.148,-0.104c-0.645,0 -1.229,0.105 -1.752,0.316c-0.522,0.21 -0.968,0.512 -1.336,0.904c-0.368,0.392 -0.65,0.866 -0.848,1.424c-0.197,0.557 -0.296,1.182 -0.296,1.876c0,0.725 0.103,1.372 0.308,1.94c0.206,0.568 0.495,1.049 0.868,1.444c0.374,0.394 0.816,0.696 1.328,0.904c0.512,0.208 1.078,0.312 1.696,0.312Z" style="fill:none;stroke:#555;stroke-width:0.77px;"/><path d="M48.994,10.6l-1.2,0c-0.138,0 -0.25,-0.035 -0.336,-0.104c-0.085,-0.07 -0.149,-0.158 -0.192,-0.264l-1.072,-2.768l-5.144,0l-1.072,2.768c-0.037,0.096 -0.101,0.181 -0.192,0.256c-0.09,0.074 -0.202,0.112 -0.336,0.112l-1.2,0l4.584,-11.464l1.576,0l4.584,11.464Zm-7.512,-4.256l4.28,0l-1.8,-4.664c-0.117,-0.288 -0.232,-0.648 -0.344,-1.08c-0.058,0.218 -0.116,0.42 -0.172,0.604c-0.056,0.184 -0.11,0.345 -0.164,0.484l-1.8,4.656Z" style="fill:none;stroke:#555;stroke-width:0.77px;"/><path d="M57.994,-0.864l0,1.304l-3.704,0l0,10.16l-1.552,0l0,-10.16l-3.72,0l0,-1.304l8.976,0Z" style="fill:none;stroke:#555;stroke-width:0.77px;"/><path d="M70.29,4.872c0,0.858 -0.136,1.646 -0.408,2.364c-0.272,0.717 -0.656,1.334 -1.152,1.852c-0.496,0.517 -1.092,0.918 -1.788,1.204c-0.696,0.285 -1.465,0.428 -2.308,0.428c-0.842,0 -1.61,-0.143 -2.304,-0.428c-0.693,-0.286 -1.288,-0.687 -1.784,-1.204c-0.496,-0.518 -0.88,-1.135 -1.152,-1.852c-0.272,-0.718 -0.408,-1.506 -0.408,-2.364c0,-0.859 0.136,-1.647 0.408,-2.364c0.272,-0.718 0.656,-1.336 1.152,-1.856c0.496,-0.52 1.091,-0.924 1.784,-1.212c0.694,-0.288 1.462,-0.432 2.304,-0.432c0.843,0 1.612,0.144 2.308,0.432c0.696,0.288 1.292,0.692 1.788,1.212c0.496,0.52 0.88,1.138 1.152,1.856c0.272,0.717 0.408,1.505 0.408,2.364Zm-1.592,0c0,-0.704 -0.096,-1.336 -0.288,-1.896c-0.192,-0.56 -0.464,-1.034 -0.816,-1.42c-0.352,-0.387 -0.778,-0.684 -1.28,-0.892c-0.501,-0.208 -1.061,-0.312 -1.68,-0.312c-0.613,0 -1.17,0.104 -1.672,0.312c-0.501,0.208 -0.929,0.505 -1.284,0.892c-0.354,0.386 -0.628,0.86 -0.82,1.42c-0.192,0.56 -0.288,1.192 -0.288,1.896c0,0.704 0.096,1.334 0.288,1.892c0.192,0.557 0.466,1.029 0.82,1.416c0.355,0.386 0.783,0.682 1.284,0.888c0.502,0.205 1.059,0.308 1.672,0.308c0.619,0 1.179,-0.103 1.68,-0.308c0.502,-0.206 0.928,-0.502 1.28,-0.888c0.352,-0.387 0.624,-0.859 0.816,-1.416c0.192,-0.558 0.288,-1.188 0.288,-1.892Z" style="fill:none;stroke:#555;stroke-width:0.77px;"/><path d="M78.802,5.816l0,4.784l-1.544,0l0,-11.464l3.24,0c0.726,0 1.352,0.073 1.88,0.22c0.528,0.146 0.964,0.358 1.308,0.636c0.344,0.277 0.599,0.612 0.764,1.004c0.166,0.392 0.248,0.83 0.248,1.316c0,0.405 -0.064,0.784 -0.192,1.136c-0.128,0.352 -0.313,0.668 -0.556,0.948c-0.242,0.28 -0.538,0.518 -0.888,0.716c-0.349,0.197 -0.745,0.346 -1.188,0.448c0.192,0.112 0.363,0.274 0.512,0.488l3.344,4.552l-1.376,0c-0.282,0 -0.49,-0.11 -0.624,-0.328l-2.976,-4.096c-0.09,-0.128 -0.189,-0.22 -0.296,-0.276c-0.106,-0.056 -0.266,-0.084 -0.48,-0.084l-1.176,0Zm0,-1.128l1.624,0c0.454,0 0.852,-0.055 1.196,-0.164c0.344,-0.11 0.632,-0.264 0.864,-0.464c0.232,-0.2 0.407,-0.439 0.524,-0.716c0.118,-0.278 0.176,-0.584 0.176,-0.92c0,-0.683 -0.225,-1.198 -0.676,-1.544c-0.45,-0.347 -1.121,-0.52 -2.012,-0.52l-1.696,0l0,4.328Z" style="fill:none;stroke:#555;stroke-width:0.77px;"/><path d="M98.482,4.872c0,0.858 -0.136,1.646 -0.408,2.364c-0.272,0.717 -0.656,1.334 -1.152,1.852c-0.496,0.517 -1.092,0.918 -1.788,1.204c-0.696,0.285 -1.465,0.428 -2.308,0.428c-0.842,0 -1.61,-0.143 -2.304,-0.428c-0.693,-0.286 -1.288,-0.687 -1.784,-1.204c-0.496,-0.518 -0.88,-1.135 -1.152,-1.852c-0.272,-0.718 -0.408,-1.506 -0.408,-2.364c0,-0.859 0.136,-1.647 0.408,-2.364c0.272,-0.718 0.656,-1.336 1.152,-1.856c0.496,-0.52 1.091,-0.924 1.784,-1.212c0.694,-0.288 1.462,-0.432 2.304,-0.432c0.843,0 1.612,0.144 2.308,0.432c0.696,0.288 1.292,0.692 1.788,1.212c0.496,0.52 0.88,1.138 1.152,1.856c0.272,0.717 0.408,1.505 0.408,2.364Zm-1.592,0c0,-0.704 -0.096,-1.336 -0.288,-1.896c-0.192,-0.56 -0.464,-1.034 -0.816,-1.42c-0.352,-0.387 -0.778,-0.684 -1.28,-0.892c-0.501,-0.208 -1.061,-0.312 -1.68,-0.312c-0.613,0 -1.17,0.104 -1.672,0.312c-0.501,0.208 -0.929,0.505 -1.284,0.892c-0.354,0.386 -0.628,0.86 -0.82,1.42c-0.192,0.56 -0.288,1.192 -0.288,1.896c0,0.704 0.096,1.334 0.288,1.892c0.192,0.557 0.466,1.029 0.82,1.416c0.355,0.386 0.783,0.682 1.284,0.888c0.502,0.205 1.059,0.308 1.672,0.308c0.619,0 1.179,-0.103 1.68,-0.308c0.502,-0.206 0.928,-0.502 1.28,-0.888c0.352,-0.387 0.624,-0.859 0.816,-1.416c0.192,-0.558 0.288,-1.188 0.288,-1.892Z" style="fill:none;stroke:#555;stroke-width:0.77px;"/><path d="M108.466,-0.864l0,1.264l-5.504,0l0,3.808l4.456,0l0,1.216l-4.456,0l0,3.912l5.504,0l0,1.264l-7.064,0l0,-11.464l7.064,0Z" style="fill:none;stroke:#555;stroke-width:0.77px;"/><path d="M115.954,9.368c0.475,0 0.899,-0.08 1.272,-0.24c0.374,-0.16 0.69,-0.384 0.948,-0.672c0.259,-0.288 0.456,-0.632 0.592,-1.032c0.136,-0.4 0.204,-0.84 0.204,-1.32l0,-6.968l1.544,0l0,6.968c0,0.661 -0.105,1.274 -0.316,1.84c-0.21,0.565 -0.512,1.054 -0.904,1.468c-0.392,0.413 -0.87,0.737 -1.436,0.972c-0.565,0.234 -1.2,0.352 -1.904,0.352c-0.704,0 -1.338,-0.118 -1.904,-0.352c-0.565,-0.235 -1.045,-0.559 -1.44,-0.972c-0.394,-0.414 -0.697,-0.903 -0.908,-1.468c-0.21,-0.566 -0.316,-1.179 -0.316,-1.84l0,-6.968l1.544,0l0,6.96c0,0.48 0.068,0.92 0.204,1.32c0.136,0.4 0.334,0.744 0.592,1.032c0.259,0.288 0.576,0.513 0.952,0.676c0.376,0.162 0.802,0.244 1.276,0.244Z" style="fill:none;stroke:#555;stroke-width:0.77px;"/><path d="M137.298,10.6l-1.2,0c-0.138,0 -0.25,-0.035 -0.336,-0.104c-0.085,-0.07 -0.149,-0.158 -0.192,-0.264l-1.072,-2.768l-5.144,0l-1.072,2.768c-0.037,0.096 -0.101,0.181 -0.192,0.256c-0.09,0.074 -0.202,0.112 -0.336,0.112l-1.2,0l4.584,-11.464l1.576,0l4.584,11.464Zm-7.512,-4.256l4.28,0l-1.8,-4.664c-0.117,-0.288 -0.232,-0.648 -0.344,-1.08c-0.058,0.218 -0.116,0.42 -0.172,0.604c-0.056,0.184 -0.11,0.345 -0.164,0.484l-1.8,4.656Z" style="fill:none;stroke:#555;stroke-width:0.77px;"/><path d="M145.138,5.816l0,4.784l-1.544,0l0,-11.464l3.24,0c0.726,0 1.352,0.073 1.88,0.22c0.528,0.146 0.964,0.358 1.308,0.636c0.344,0.277 0.599,0.612 0.764,1.004c0.166,0.392 0.248,0.83 0.248,1.316c0,0.405 -0.064,0.784 -0.192,1.136c-0.128,0.352 -0.313,0.668 -0.556,0.948c-0.242,0.28 -0.538,0.518 -0.888,0.716c-0.349,0.197 -0.745,0.346 -1.188,0.448c0.192,0.112 0.363,0.274 0.512,0.488l3.344,4.552l-1.376,0c-0.282,0 -0.49,-0.11 -0.624,-0.328l-2.976,-4.096c-0.09,-0.128 -0.189,-0.22 -0.296,-0.276c-0.106,-0.056 -0.266,-0.084 -0.48,-0.084l-1.176,0Zm0,-1.128l1.624,0c0.454,0 0.852,-0.055 1.196,-0.164c0.344,-0.11 0.632,-0.264 0.864,-0.464c0.232,-0.2 0.407,-0.439 0.524,-0.716c0.118,-0.278 0.176,-0.584 0.176,-0.92c0,-0.683 -0.225,-1.198 -0.676,-1.544c-0.45,-0.347 -1.121,-0.52 -2.012,-0.52l-1.696,0l0,4.328Z" style="fill:none;stroke:#555;stroke-width:0.77px;"/><path d="M164.818,4.872c0,0.858 -0.136,1.646 -0.408,2.364c-0.272,0.717 -0.656,1.334 -1.152,1.852c-0.496,0.517 -1.092,0.918 -1.788,1.204c-0.696,0.285 -1.465,0.428 -2.308,0.428c-0.842,0 -1.61,-0.143 -2.304,-0.428c-0.693,-0.286 -1.288,-0.687 -1.784,-1.204c-0.496,-0.518 -0.88,-1.135 -1.152,-1.852c-0.272,-0.718 -0.408,-1.506 -0.408,-2.364c0,-0.859 0.136,-1.647 0.408,-2.364c0.272,-0.718 0.656,-1.336 1.152,-1.856c0.496,-0.52 1.091,-0.924 1.784,-1.212c0.694,-0.288 1.462,-0.432 2.304,-0.432c0.843,0 1.612,0.144 2.308,0.432c0.696,0.288 1.292,0.692 1.788,1.212c0.496,0.52 0.88,1.138 1.152,1.856c0.272,0.717 0.408,1.505 0.408,2.364Zm-1.592,0c0,-0.704 -0.096,-1.336 -0.288,-1.896c-0.192,-0.56 -0.464,-1.034 -0.816,-1.42c-0.352,-0.387 -0.778,-0.684 -1.28,-0.892c-0.501,-0.208 -1.061,-0.312 -1.68,-0.312c-0.613,0 -1.17,0.104 -1.672,0.312c-0.501,0.208 -0.929,0.505 -1.284,0.892c-0.354,0.386 -0.628,0.86 -0.82,1.42c-0.192,0.56 -0.288,1.192 -0.288,1.896c0,0.704 0.096,1.334 0.288,1.892c0.192,0.557 0.466,1.029 0.82,1.416c0.355,0.386 0.783,0.682 1.284,0.888c0.502,0.205 1.059,0.308 1.672,0.308c0.619,0 1.179,-0.103 1.68,-0.308c0.502,-0.206 0.928,-0.502 1.28,-0.888c0.352,-0.387 0.624,-0.859 0.816,-1.416c0.192,-0.558 0.288,-1.188 0.288,-1.892Z" style="fill:none;stroke:#555;stroke-width:0.77px;"/><path d="M172.194,9.368c0.475,0 0.899,-0.08 1.272,-0.24c0.374,-0.16 0.69,-0.384 0.948,-0.672c0.259,-0.288 0.456,-0.632 0.592,-1.032c0.136,-0.4 0.204,-0.84 0.204,-1.32l0,-6.968l1.544,0l0,6.968c0,0.661 -0.105,1.274 -0.316,1.84c-0.21,0.565 -0.512,1.054 -0.904,1.468c-0.392,0.413 -0.87,0.737 -1.436,0.972c-0.565,0.234 -1.2,0.352 -1.904,0.352c-0.704,0 -1.338,-0.118 -1.904,-0.352c-0.565,-0.235 -1.045,-0.559 -1.44,-0.972c-0.394,-0.414 -0.697,-0.903 -0.908,-1.468c-0.21,-0.566 -0.316,-1.179 -0.316,-1.84l0,-6.968l1.544,0l0,6.96c0,0.48 0.068,0.92 0.204,1.32c0.136,0.4 0.334,0.744 0.592,1.032c0.259,0.288 0.576,0.513 0.952,0.676c0.376,0.162 0.802,0.244 1.276,0.244Z" style="fill:none;stroke:#555;stroke-width:0.77px;"/><path d="M181.922,6.312l0,4.288l-1.544,0l0,-11.464l3.384,0c0.726,0 1.356,0.084 1.892,0.252c0.536,0.168 0.98,0.406 1.332,0.716c0.352,0.309 0.615,0.682 0.788,1.12c0.174,0.437 0.26,0.925 0.26,1.464c0,0.533 -0.093,1.021 -0.28,1.464c-0.186,0.442 -0.46,0.824 -0.82,1.144c-0.36,0.32 -0.806,0.569 -1.34,0.748c-0.533,0.178 -1.144,0.268 -1.832,0.268l-1.84,0Zm0,-1.232l1.84,0c0.443,0 0.834,-0.059 1.172,-0.176c0.339,-0.118 0.623,-0.282 0.852,-0.492c0.23,-0.211 0.403,-0.463 0.52,-0.756c0.118,-0.294 0.176,-0.616 0.176,-0.968c0,-0.731 -0.225,-1.302 -0.676,-1.712c-0.45,-0.411 -1.132,-0.616 -2.044,-0.616l-1.84,0l0,4.72Z" style="fill:none;stroke:#555;stroke-width:0.77px;"/><path d="M199.122,10.6l-1.2,0c-0.138,0 -0.25,-0.035 -0.336,-0.104c-0.085,-0.07 -0.149,-0.158 -0.192,-0.264l-1.072,-2.768l-5.144,0l-1.072,2.768c-0.037,0.096 -0.101,0.181 -0.192,0.256c-0.09,0.074 -0.202,0.112 -0.336,0.112l-1.2,0l4.584,-11.464l1.576,0l4.584,11.464Zm-7.512,-4.256l4.28,0l-1.8,-4.664c-0.117,-0.288 -0.232,-0.648 -0.344,-1.08c-0.058,0.218 -0.116,0.42 -0.172,0.604c-0.056,0.184 -0.11,0.345 -0.164,0.484l-1.8,4.656Z" style="fill:none;stroke:#555;stroke-width:0.77px;"/><path d="M215.194,4.872c0,0.858 -0.136,1.64 -0.408,2.344c-0.272,0.704 -0.656,1.306 -1.152,1.808c-0.496,0.501 -1.09,0.889 -1.784,1.164c-0.693,0.274 -1.461,0.412 -2.304,0.412l-4.288,0l0,-11.464l4.288,0c0.843,0 1.611,0.137 2.304,0.412c0.694,0.274 1.288,0.664 1.784,1.168c0.496,0.504 0.88,1.108 1.152,1.812c0.272,0.704 0.408,1.485 0.408,2.344Zm-1.592,0c0,-0.704 -0.096,-1.334 -0.288,-1.888c-0.192,-0.555 -0.464,-1.024 -0.816,-1.408c-0.352,-0.384 -0.778,-0.678 -1.28,-0.88c-0.501,-0.203 -1.058,-0.304 -1.672,-0.304l-2.728,0l0,8.952l2.728,0c0.614,0 1.171,-0.102 1.672,-0.304c0.502,-0.203 0.928,-0.495 1.28,-0.876c0.352,-0.382 0.624,-0.85 0.816,-1.404c0.192,-0.555 0.288,-1.184 0.288,-1.888Z" style="fill:none;stroke:#555;stroke-width:0.77px;"/><path d="M228.754,4.872c0,0.858 -0.136,1.646 -0.408,2.364c-0.272,0.717 -0.656,1.334 -1.152,1.852c-0.496,0.517 -1.092,0.918 -1.788,1.204c-0.696,0.285 -1.465,0.428 -2.308,0.428c-0.842,0 -1.61,-0.143 -2.304,-0.428c-0.693,-0.286 -1.288,-0.687 -1.784,-1.204c-0.496,-0.518 -0.88,-1.135 -1.152,-1.852c-0.272,-0.718 -0.408,-1.506 -0.408,-2.364c0,-0.859 0.136,-1.647 0.408,-2.364c0.272,-0.718 0.656,-1.336 1.152,-1.856c0.496,-0.52 1.091,-0.924 1.784,-1.212c0.694,-0.288 1.462,-0.432 2.304,-0.432c0.843,0 1.612,0.144 2.308,0.432c0.696,0.288 1.292,0.692 1.788,1.212c0.496,0.52 0.88,1.138 1.152,1.856c0.272,0.717 0.408,1.505 0.408,2.364Zm-1.592,0c0,-0.704 -0.096,-1.336 -0.288,-1.896c-0.192,-0.56 -0.464,-1.034 -0.816,-1.42c-0.352,-0.387 -0.778,-0.684 -1.28,-0.892c-0.501,-0.208 -1.061,-0.312 -1.68,-0.312c-0.613,0 -1.17,0.104 -1.672,0.312c-0.501,0.208 -0.929,0.505 -1.284,0.892c-0.354,0.386 -0.628,0.86 -0.82,1.42c-0.192,0.56 -0.288,1.192 -0.288,1.896c0,0.704 0.096,1.334 0.288,1.892c0.192,0.557 0.466,1.029 0.82,1.416c0.355,0.386 0.783,0.682 1.284,0.888c0.502,0.205 1.059,0.308 1.672,0.308c0.619,0 1.179,-0.103 1.68,-0.308c0.502,-0.206 0.928,-0.502 1.28,-0.888c0.352,-0.387 0.624,-0.859 0.816,-1.416c0.192,-0.558 0.288,-1.188 0.288,-1.892Z" style="fill:none;stroke:#555;stroke-width:0.77px;"/><path d="M237.266,5.816l0,4.784l-1.544,0l0,-11.464l3.24,0c0.726,0 1.352,0.073 1.88,0.22c0.528,0.146 0.964,0.358 1.308,0.636c0.344,0.277 0.599,0.612 0.764,1.004c0.166,0.392 0.248,0.83 0.248,1.316c0,0.405 -0.064,0.784 -0.192,1.136c-0.128,0.352 -0.313,0.668 -0.556,0.948c-0.242,0.28 -0.538,0.518 -0.888,0.716c-0.349,0.197 -0.745,0.346 -1.188,0.448c0.192,0.112 0.363,0.274 0.512,0.488l3.344,4.552l-1.376,0c-0.282,0 -0.49,-0.11 -0.624,-0.328l-2.976,-4.096c-0.09,-0.128 -0.189,-0.22 -0.296,-0.276c-0.106,-0.056 -0.266,-0.084 -0.48,-0.084l-1.176,0Zm0,-1.128l1.624,0c0.454,0 0.852,-0.055 1.196,-0.164c0.344,-0.11 0.632,-0.264 0.864,-0.464c0.232,-0.2 0.407,-0.439 0.524,-0.716c0.118,-0.278 0.176,-0.584 0.176,-0.92c0,-0.683 -0.225,-1.198 -0.676,-1.544c-0.45,-0.347 -1.121,-0.52 -2.012,-0.52l-1.696,0l0,4.328Z" style="fill:none;stroke:#555;stroke-width:0.77px;"/><path d="M253.73,-0.864l0,1.264l-5.504,0l0,3.808l4.456,0l0,1.216l-4.456,0l0,3.912l5.504,0l0,1.264l-7.064,0l0,-11.464l7.064,0Z" style="fill:none;stroke:#555;stroke-width:0.77px;"/><rect x="257.05" y="-0.864" width="1.552" height="11.464" style="fill:none;stroke:#555;stroke-width:0.77px;"/><path d="M276.298,4.872c0,0.858 -0.136,1.64 -0.408,2.344c-0.272,0.704 -0.656,1.306 -1.152,1.808c-0.496,0.501 -1.09,0.889 -1.784,1.164c-0.693,0.274 -1.461,0.412 -2.304,0.412l-4.288,0l0,-11.464l4.288,0c0.843,0 1.611,0.137 2.304,0.412c0.694,0.274 1.288,0.664 1.784,1.168c0.496,0.504 0.88,1.108 1.152,1.812c0.272,0.704 0.408,1.485 0.408,2.344Zm-1.592,0c0,-0.704 -0.096,-1.334 -0.288,-1.888c-0.192,-0.555 -0.464,-1.024 -0.816,-1.408c-0.352,-0.384 -0.778,-0.678 -1.28,-0.88c-0.501,-0.203 -1.058,-0.304 -1.672,-0.304l-2.728,0l0,8.952l2.728,0c0.614,0 1.171,-0.102 1.672,-0.304c0.502,-0.203 0.928,-0.495 1.28,-0.876c0.352,-0.382 0.624,-0.85 0.816,-1.404c0.192,-0.555 0.288,-1.184 0.288,-1.888Z" style="fill:none;stroke:#555;stroke-width:0.77px;"/><path d="M286.274,-0.864l0,1.264l-5.504,0l0,3.808l4.456,0l0,1.216l-4.456,0l0,3.912l5.504,0l0,1.264l-7.064,0l0,-11.464l7.064,0Z" style="fill:none;stroke:#555;stroke-width:0.77px;"/><path d="M294.898,5.816l0,4.784l-1.544,0l0,-11.464l3.24,0c0.726,0 1.352,0.073 1.88,0.22c0.528,0.146 0.964,0.358 1.308,0.636c0.344,0.277 0.599,0.612 0.764,1.004c0.166,0.392 0.248,0.83 0.248,1.316c0,0.405 -0.064,0.784 -0.192,1.136c-0.128,0.352 -0.313,0.668 -0.556,0.948c-0.242,0.28 -0.538,0.518 -0.888,0.716c-0.349,0.197 -0.745,0.346 -1.188,0.448c0.192,0.112 0.363,0.274 0.512,0.488l3.344,4.552l-1.376,0c-0.282,0 -0.49,-0.11 -0.624,-0.328l-2.976,-4.096c-0.09,-0.128 -0.189,-0.22 -0.296,-0.276c-0.106,-0.056 -0.266,-0.084 -0.48,-0.084l-1.176,0Zm0,-1.128l1.624,0c0.454,0 0.852,-0.055 1.196,-0.164c0.344,-0.11 0.632,-0.264 0.864,-0.464c0.232,-0.2 0.407,-0.439 0.524,-0.716c0.118,-0.278 0.176,-0.584 0.176,-0.92c0,-0.683 -0.225,-1.198 -0.676,-1.544c-0.45,-0.347 -1.121,-0.52 -2.012,-0.52l-1.696,0l0,4.328Z" style="fill:none;stroke:#555;stroke-width:0.77px;"/><path d="M314.578,4.872c0,0.858 -0.136,1.646 -0.408,2.364c-0.272,0.717 -0.656,1.334 -1.152,1.852c-0.496,0.517 -1.092,0.918 -1.788,1.204c-0.696,0.285 -1.465,0.428 -2.308,0.428c-0.842,0 -1.61,-0.143 -2.304,-0.428c-0.693,-0.286 -1.288,-0.687 -1.784,-1.204c-0.496,-0.518 -0.88,-1.135 -1.152,-1.852c-0.272,-0.718 -0.408,-1.506 -0.408,-2.364c0,-0.859 0.136,-1.647 0.408,-2.364c0.272,-0.718 0.656,-1.336 1.152,-1.856c0.496,-0.52 1.091,-0.924 1.784,-1.212c0.694,-0.288 1.462,-0.432 2.304,-0.432c0.843,0 1.612,0.144 2.308,0.432c0.696,0.288 1.292,0.692 1.788,1.212c0.496,0.52 0.88,1.138 1.152,1.856c0.272,0.717 0.408,1.505 0.408,2.364Zm-1.592,0c0,-0.704 -0.096,-1.336 -0.288,-1.896c-0.192,-0.56 -0.464,-1.034 -0.816,-1.42c-0.352,-0.387 -0.778,-0.684 -1.28,-0.892c-0.501,-0.208 -1.061,-0.312 -1.68,-0.312c-0.613,0 -1.17,0.104 -1.672,0.312c-0.501,0.208 -0.929,0.505 -1.284,0.892c-0.354,0.386 -0.628,0.86 -0.82,1.42c-0.192,0.56 -0.288,1.192 -0.288,1.896c0,0.704 0.096,1.334 0.288,1.892c0.192,0.557 0.466,1.029 0.82,1.416c0.355,0.386 0.783,0.682 1.284,0.888c0.502,0.205 1.059,0.308 1.672,0.308c0.619,0 1.179,-0.103 1.68,-0.308c0.502,-0.206 0.928,-0.502 1.28,-0.888c0.352,-0.387 0.624,-0.859 0.816,-1.416c0.192,-0.558 0.288,-1.188 0.288,-1.892Z" style="fill:none;stroke:#555;stroke-width:0.77px;"/><path d="M323.138,6.456c0.075,0.128 0.14,0.262 0.196,0.404c0.056,0.141 0.111,0.284 0.164,0.428c0.054,-0.15 0.11,-0.292 0.168,-0.428c0.059,-0.136 0.126,-0.274 0.2,-0.412l3.88,-7.048c0.07,-0.123 0.142,-0.198 0.216,-0.224c0.075,-0.027 0.182,-0.04 0.32,-0.04l1.144,0l0,11.464l-1.36,0l0,-8.424c0,-0.112 0.003,-0.232 0.008,-0.36c0.006,-0.128 0.014,-0.259 0.024,-0.392l-3.928,7.168c-0.133,0.24 -0.32,0.36 -0.56,0.36l-0.224,0c-0.24,0 -0.426,-0.12 -0.56,-0.36l-4.016,-7.192c0.016,0.138 0.028,0.274 0.036,0.408c0.008,0.133 0.012,0.256 0.012,0.368l0,8.424l-1.36,0l0,-11.464l1.144,0c0.139,0 0.246,0.013 0.32,0.04c0.075,0.026 0.147,0.101 0.216,0.224l3.96,7.056Z" style="fill:none;stroke:#555;stroke-width:0.77px;"/><path d="M342.45,10.6l-1.2,0c-0.138,0 -0.25,-0.035 -0.336,-0.104c-0.085,-0.07 -0.149,-0.158 -0.192,-0.264l-1.072,-2.768l-5.144,0l-1.072,2.768c-0.037,0.096 -0.101,0.181 -0.192,0.256c-0.09,0.074 -0.202,0.112 -0.336,0.112l-1.2,0l4.584,-11.464l1.576,0l4.584,11.464Zm-7.512,-4.256l4.28,0l-1.8,-4.664c-0.117,-0.288 -0.232,-0.648 -0.344,-1.08c-0.058,0.218 -0.116,0.42 -0.172,0.604c-0.056,0.184 -0.11,0.345 -0.164,0.484l-1.8,4.656Z" style="fill:none;stroke:#555;stroke-width:0.77px;"/></g></svg>