<?xml version="1.0" encoding="UTF-8" standalone="no"?>
<!DOCTYPE svg PUBLIC "-//W3C//DTD SVG 1.1//EN" "http://www.w3.org/Graphics/SVG/1.1/DTD/svg11.dtd">
<svg width="100%" height="100%" viewBox="0 0 432 17" version="1.1" xmlns="http://www.w3.org/2000/svg" xmlns:xlink="http://www.w3.org/1999/xlink" xml:space="preserve" style="fill-rule:evenodd;clip-rule:evenodd;stroke-linejoin:round;stroke-miterlimit:1.41421;">
    <g transform="matrix(1,0,0,1,-11.761,-0.519271)">
        <g transform="matrix(1.29127,0,0,1.29127,0.4501,2.31307)">
            <path d="M19.655,4.873C19.655,6.701 19.192,8.139 18.268,9.186C17.343,10.232 16.058,10.756 14.412,10.756C12.73,10.756 11.432,10.242 10.518,9.213C9.604,8.184 9.147,6.732 9.147,4.857C9.147,2.998 9.605,1.557 10.522,0.533C11.438,-0.49 12.74,-1.002 14.428,-1.002C16.069,-1.002 17.35,-0.481 18.272,0.561C19.194,1.602 19.655,3.04 19.655,4.873ZM10.553,4.873C10.553,6.42 10.882,7.593 11.541,8.393C12.2,9.192 13.157,9.592 14.412,9.592C15.678,9.592 16.634,9.193 17.28,8.396C17.925,7.6 18.248,6.425 18.248,4.873C18.248,3.337 17.927,2.171 17.283,1.377C16.64,0.583 15.688,0.186 14.428,0.186C13.162,0.186 12.2,0.585 11.541,1.385C10.882,2.184 10.553,3.347 10.553,4.873Z" style="fill:none;"/>
            <path d="M32.981,4.615L36.864,4.615L36.864,10.17C36.26,10.363 35.645,10.508 35.02,10.607C34.395,10.706 33.671,10.756 32.848,10.756C31.119,10.756 29.773,10.242 28.809,9.213C27.846,8.184 27.364,6.743 27.364,4.889C27.364,3.701 27.602,2.661 28.079,1.768C28.555,0.874 29.242,0.192 30.137,-0.279C31.033,-0.751 32.083,-0.986 33.286,-0.986C34.505,-0.986 35.64,-0.762 36.692,-0.314L36.176,0.857C35.145,0.42 34.153,0.201 33.2,0.201C31.809,0.201 30.723,0.615 29.942,1.443C29.161,2.271 28.77,3.42 28.77,4.889C28.77,6.43 29.146,7.6 29.899,8.396C30.652,9.193 31.757,9.592 33.215,9.592C34.007,9.592 34.781,9.501 35.536,9.318L35.536,5.803L32.981,5.803L32.981,4.615Z" style="fill:none;"/>
            <path d="M47.586,10.6L46.164,6.967L41.586,6.967L40.18,10.6L38.836,10.6L43.351,-0.869L44.469,-0.869L48.961,10.6L47.586,10.6ZM45.75,5.771L44.422,2.232C44.25,1.784 44.073,1.235 43.89,0.584C43.776,1.084 43.612,1.633 43.398,2.232L42.055,5.771L45.75,5.771Z" style="fill:none;"/>
            <path d="M53.73,10.6L52.401,10.6L52.401,0.357L48.784,0.357L48.784,-0.822L57.347,-0.822L57.347,0.357L53.73,0.357L53.73,10.6Z" style="fill:none;"/>
            <path d="M69.459,4.873C69.459,6.701 68.997,8.139 68.073,9.186C67.148,10.232 65.863,10.756 64.217,10.756C62.535,10.756 61.237,10.242 60.323,9.213C59.408,8.184 58.951,6.732 58.951,4.857C58.951,2.998 59.41,1.557 60.326,0.533C61.243,-0.49 62.545,-1.002 64.233,-1.002C65.873,-1.002 67.155,-0.481 68.076,0.561C68.998,1.602 69.459,3.04 69.459,4.873ZM60.358,4.873C60.358,6.42 60.687,7.593 61.346,8.393C62.005,9.192 62.962,9.592 64.217,9.592C65.483,9.592 66.438,9.193 67.084,8.396C67.73,7.6 68.053,6.425 68.053,4.873C68.053,3.337 67.731,2.171 67.088,1.377C66.445,0.583 65.493,0.186 64.233,0.186C62.967,0.186 62.005,0.585 61.346,1.385C60.687,2.184 60.358,3.347 60.358,4.873Z" style="fill:none;"/>
            <path d="M79.09,5.85L79.09,10.6L77.762,10.6L77.762,-0.822L80.895,-0.822C82.296,-0.822 83.331,-0.554 84.001,-0.018C84.67,0.519 85.005,1.326 85.005,2.404C85.005,3.915 84.239,4.936 82.708,5.467L85.809,10.6L84.239,10.6L81.473,5.85L79.09,5.85ZM79.09,4.709L80.911,4.709C81.848,4.709 82.536,4.523 82.973,4.15C83.411,3.778 83.63,3.219 83.63,2.475C83.63,1.719 83.407,1.175 82.962,0.842C82.516,0.508 81.801,0.342 80.817,0.342L79.09,0.342L79.09,4.709Z" style="fill:none;"/>
            <path d="M98.367,4.873C98.367,6.701 97.905,8.139 96.98,9.186C96.056,10.232 94.771,10.756 93.125,10.756C91.443,10.756 90.144,10.242 89.23,9.213C88.316,8.184 87.859,6.732 87.859,4.857C87.859,2.998 88.318,1.557 89.234,0.533C90.151,-0.49 91.453,-1.002 93.14,-1.002C94.781,-1.002 96.062,-0.481 96.984,0.561C97.906,1.602 98.367,3.04 98.367,4.873ZM89.265,4.873C89.265,6.42 89.595,7.593 90.254,8.393C90.913,9.192 91.87,9.592 93.125,9.592C94.39,9.592 95.346,9.193 95.992,8.396C96.638,7.6 96.961,6.425 96.961,4.873C96.961,3.337 96.639,2.171 95.996,1.377C95.353,0.583 94.401,0.186 93.14,0.186C91.875,0.186 90.913,0.585 90.254,1.385C89.595,2.184 89.265,3.347 89.265,4.873Z" style="fill:none;"/>
            <path d="M108.081,10.6L101.714,10.6L101.714,-0.822L108.081,-0.822L108.081,0.357L103.042,0.357L103.042,4.037L107.776,4.037L107.776,5.209L103.042,5.209L103.042,9.412L108.081,9.412L108.081,10.6Z" style="fill:none;"/>
            <path d="M120.037,-0.822L120.037,6.568C120.037,7.87 119.644,8.894 118.858,9.639C118.071,10.383 116.99,10.756 115.615,10.756C114.24,10.756 113.177,10.381 112.424,9.631C111.671,8.881 111.295,7.85 111.295,6.537L111.295,-0.822L112.623,-0.822L112.623,6.631C112.623,7.584 112.884,8.316 113.405,8.826C113.925,9.337 114.691,9.592 115.701,9.592C116.665,9.592 117.407,9.335 117.928,8.822C118.449,8.309 118.709,7.574 118.709,6.615L118.709,-0.822L120.037,-0.822Z" style="fill:none;"/>
            <path d="M135.997,10.6L134.575,6.967L129.997,6.967L128.59,10.6L127.247,10.6L131.762,-0.869L132.88,-0.869L137.372,10.6L135.997,10.6ZM134.161,5.771L132.833,2.232C132.661,1.784 132.484,1.235 132.301,0.584C132.187,1.084 132.023,1.633 131.809,2.232L130.465,5.771L134.161,5.771Z" style="fill:none;"/>
            <path d="M146.026,5.85L146.026,10.6L144.698,10.6L144.698,-0.822L147.831,-0.822C149.232,-0.822 150.267,-0.554 150.937,-0.018C151.606,0.519 151.94,1.326 151.94,2.404C151.94,3.915 151.175,4.936 149.644,5.467L152.745,10.6L151.175,10.6L148.409,5.85L146.026,5.85ZM146.026,4.709L147.847,4.709C148.784,4.709 149.472,4.523 149.909,4.15C150.347,3.778 150.565,3.219 150.565,2.475C150.565,1.719 150.343,1.175 149.898,0.842C149.452,0.508 148.737,0.342 147.753,0.342L146.026,0.342L146.026,4.709Z" style="fill:none;"/>
            <path d="M165.303,4.873C165.303,6.701 164.841,8.139 163.916,9.186C162.992,10.232 161.707,10.756 160.061,10.756C158.379,10.756 157.08,10.242 156.166,9.213C155.252,8.184 154.795,6.732 154.795,4.857C154.795,2.998 155.254,1.557 156.17,0.533C157.087,-0.49 158.389,-1.002 160.076,-1.002C161.717,-1.002 162.998,-0.481 163.92,0.561C164.842,1.602 165.303,3.04 165.303,4.873ZM156.201,4.873C156.201,6.42 156.531,7.593 157.19,8.393C157.849,9.192 158.806,9.592 160.061,9.592C161.326,9.592 162.282,9.193 162.928,8.396C163.574,7.6 163.897,6.425 163.897,4.873C163.897,3.337 163.575,2.171 162.932,1.377C162.289,0.583 161.337,0.186 160.076,0.186C158.811,0.186 157.849,0.585 157.19,1.385C156.531,2.184 156.201,3.347 156.201,4.873Z" style="fill:none;"/>
            <path d="M177.275,-0.822L177.275,6.568C177.275,7.87 176.882,8.894 176.095,9.639C175.309,10.383 174.228,10.756 172.853,10.756C171.478,10.756 170.414,10.381 169.662,9.631C168.909,8.881 168.533,7.85 168.533,6.537L168.533,-0.822L169.861,-0.822L169.861,6.631C169.861,7.584 170.121,8.316 170.642,8.826C171.163,9.337 171.929,9.592 172.939,9.592C173.902,9.592 174.645,9.335 175.165,8.822C175.686,8.309 175.947,7.574 175.947,6.615L175.947,-0.822L177.275,-0.822Z" style="fill:none;"/>
            <path d="M188.34,2.506C188.34,3.662 187.946,4.551 187.157,5.174C186.368,5.796 185.239,6.107 183.77,6.107L182.426,6.107L182.426,10.6L181.098,10.6L181.098,-0.822L184.059,-0.822C186.913,-0.822 188.34,0.287 188.34,2.506ZM182.426,4.967L183.622,4.967C184.799,4.967 185.65,4.777 186.176,4.396C186.702,4.016 186.965,3.407 186.965,2.568C186.965,1.813 186.718,1.251 186.223,0.881C185.729,0.511 184.958,0.326 183.911,0.326L182.426,0.326L182.426,4.967Z" style="fill:none;"/>
            <path d="M197.914,10.6L196.492,6.967L191.914,6.967L190.508,10.6L189.164,10.6L193.68,-0.869L194.797,-0.869L199.289,10.6L197.914,10.6ZM196.078,5.771L194.75,2.232C194.578,1.784 194.401,1.235 194.219,0.584C194.104,1.084 193.94,1.633 193.726,2.232L192.383,5.771L196.078,5.771Z" style="fill:none;"/>
            <path d="M215.733,4.779C215.733,6.665 215.221,8.106 214.198,9.104C213.174,10.101 211.701,10.6 209.78,10.6L206.615,10.6L206.615,-0.822L210.115,-0.822C211.892,-0.822 213.272,-0.33 214.256,0.654C215.24,1.639 215.733,3.014 215.733,4.779ZM214.326,4.826C214.326,3.337 213.953,2.214 213.205,1.459C212.458,0.704 211.347,0.326 209.873,0.326L207.944,0.326L207.944,9.451L209.561,9.451C211.144,9.451 212.334,9.062 213.131,8.283C213.928,7.505 214.326,6.352 214.326,4.826Z" style="fill:none;"/>
            <path d="M228.994,4.873C228.994,6.701 228.531,8.139 227.607,9.186C226.682,10.232 225.397,10.756 223.751,10.756C222.069,10.756 220.771,10.242 219.857,9.213C218.943,8.184 218.486,6.732 218.486,4.857C218.486,2.998 218.944,1.557 219.861,0.533C220.777,-0.49 222.08,-1.002 223.767,-1.002C225.408,-1.002 226.689,-0.481 227.611,0.561C228.533,1.602 228.994,3.04 228.994,4.873ZM219.892,4.873C219.892,6.42 220.221,7.593 220.88,8.393C221.539,9.192 222.496,9.592 223.751,9.592C225.017,9.592 225.973,9.193 226.619,8.396C227.264,7.6 227.587,6.425 227.587,4.873C227.587,3.337 227.266,2.171 226.623,1.377C225.979,0.583 225.027,0.186 223.767,0.186C222.501,0.186 221.539,0.585 220.88,1.385C220.221,2.184 219.892,3.347 219.892,4.873Z" style="fill:none;"/>
            <path d="M238.625,5.85L238.625,10.6L237.297,10.6L237.297,-0.822L240.43,-0.822C241.831,-0.822 242.866,-0.554 243.535,-0.018C244.204,0.519 244.539,1.326 244.539,2.404C244.539,3.915 243.773,4.936 242.242,5.467L245.344,10.6L243.773,10.6L241.008,5.85L238.625,5.85ZM238.625,4.709L240.445,4.709C241.383,4.709 242.07,4.523 242.508,4.15C242.945,3.778 243.164,3.219 243.164,2.475C243.164,1.719 242.941,1.175 242.496,0.842C242.051,0.508 241.336,0.342 240.351,0.342L238.625,0.342L238.625,4.709Z" style="fill:none;"/>
            <path d="M254.355,10.6L247.987,10.6L247.987,-0.822L254.355,-0.822L254.355,0.357L249.315,0.357L249.315,4.037L254.05,4.037L254.05,5.209L249.315,5.209L249.315,9.412L254.355,9.412L254.355,10.6Z" style="fill:none;"/>
            <rect x="257.686" y="-0.822" width="1.328" height="11.422" style="fill:none;"/>
            <path d="M277.02,4.779C277.02,6.665 276.508,8.106 275.485,9.104C274.462,10.101 272.989,10.6 271.067,10.6L267.903,10.6L267.903,-0.822L271.403,-0.822C273.179,-0.822 274.559,-0.33 275.544,0.654C276.528,1.639 277.02,3.014 277.02,4.779ZM275.614,4.826C275.614,3.337 275.24,2.214 274.493,1.459C273.745,0.704 272.635,0.326 271.161,0.326L269.231,0.326L269.231,9.451L270.848,9.451C272.432,9.451 273.622,9.062 274.419,8.283C275.215,7.505 275.614,6.352 275.614,4.826Z" style="fill:none;"/>
            <path d="M286.734,10.6L280.367,10.6L280.367,-0.822L286.734,-0.822L286.734,0.357L281.695,0.357L281.695,4.037L286.43,4.037L286.43,5.209L281.695,5.209L281.695,9.412L286.734,9.412L286.734,10.6Z" style="fill:none;"/>
            <path d="M296.35,5.85L296.35,10.6L295.022,10.6L295.022,-0.822L298.155,-0.822C299.556,-0.822 300.591,-0.554 301.26,-0.018C301.929,0.519 302.264,1.326 302.264,2.404C302.264,3.915 301.498,4.936 299.967,5.467L303.069,10.6L301.498,10.6L298.733,5.85L296.35,5.85ZM296.35,4.709L298.17,4.709C299.108,4.709 299.795,4.523 300.233,4.15C300.67,3.778 300.889,3.219 300.889,2.475C300.889,1.719 300.666,1.175 300.221,0.842C299.776,0.508 299.061,0.342 298.076,0.342L296.35,0.342L296.35,4.709Z" style="fill:none;"/>
            <path d="M315.626,4.873C315.626,6.701 315.164,8.139 314.24,9.186C313.315,10.232 312.03,10.756 310.384,10.756C308.702,10.756 307.404,10.242 306.49,9.213C305.576,8.184 305.119,6.732 305.119,4.857C305.119,2.998 305.577,1.557 306.494,0.533C307.41,-0.49 308.712,-1.002 310.4,-1.002C312.04,-1.002 313.322,-0.481 314.244,0.561C315.165,1.602 315.626,3.04 315.626,4.873ZM306.525,4.873C306.525,6.42 306.854,7.593 307.513,8.393C308.172,9.192 309.129,9.592 310.384,9.592C311.65,9.592 312.606,9.193 313.251,8.396C313.897,7.6 314.22,6.425 314.22,4.873C314.22,3.337 313.899,2.171 313.255,1.377C312.612,0.583 311.66,0.186 310.4,0.186C309.134,0.186 308.172,0.585 307.513,1.385C306.854,2.184 306.525,3.347 306.525,4.873Z" style="fill:none;"/>
            <path d="M324.028,10.6L320.153,0.475L320.09,0.475C320.163,1.277 320.2,2.23 320.2,3.334L320.2,10.6L318.973,10.6L318.973,-0.822L320.973,-0.822L324.59,8.6L324.653,8.6L328.301,-0.822L330.286,-0.822L330.286,10.6L328.958,10.6L328.958,3.24C328.958,2.396 328.994,1.48 329.067,0.49L329.005,0.49L325.098,10.6L324.028,10.6Z" style="fill:none;"/>
            <path d="M341.398,10.6L339.976,6.967L335.398,6.967L333.992,10.6L332.648,10.6L337.164,-0.869L338.281,-0.869L342.773,10.6L341.398,10.6ZM339.562,5.771L338.234,2.232C338.062,1.784 337.885,1.235 337.703,0.584C337.588,1.084 337.424,1.633 337.211,2.232L335.867,5.771L339.562,5.771Z" style="fill:none;"/>
            <path d="M19.655,4.873C19.655,6.701 19.192,8.139 18.268,9.186C17.343,10.232 16.058,10.756 14.412,10.756C12.73,10.756 11.432,10.242 10.518,9.213C9.604,8.184 9.147,6.732 9.147,4.857C9.147,2.998 9.605,1.557 10.522,0.533C11.438,-0.49 12.74,-1.002 14.428,-1.002C16.069,-1.002 17.35,-0.481 18.272,0.561C19.194,1.602 19.655,3.04 19.655,4.873ZM10.553,4.873C10.553,6.42 10.882,7.593 11.541,8.393C12.2,9.192 13.157,9.592 14.412,9.592C15.678,9.592 16.634,9.193 17.28,8.396C17.925,7.6 18.248,6.425 18.248,4.873C18.248,3.337 17.927,2.171 17.283,1.377C16.64,0.583 15.688,0.186 14.428,0.186C13.162,0.186 12.2,0.585 11.541,1.385C10.882,2.184 10.553,3.347 10.553,4.873Z" style="fill:none;stroke:white;stroke-width:0.77px;"/>
            <path d="M32.981,4.615L36.864,4.615L36.864,10.17C36.26,10.363 35.645,10.508 35.02,10.607C34.395,10.706 33.671,10.756 32.848,10.756C31.119,10.756 29.773,10.242 28.809,9.213C27.846,8.184 27.364,6.743 27.364,4.889C27.364,3.701 27.602,2.661 28.079,1.768C28.555,0.874 29.242,0.192 30.137,-0.279C31.033,-0.751 32.083,-0.986 33.286,-0.986C34.505,-0.986 35.64,-0.762 36.692,-0.314L36.176,0.857C35.145,0.42 34.153,0.201 33.2,0.201C31.809,0.201 30.723,0.615 29.942,1.443C29.161,2.271 28.77,3.42 28.77,4.889C28.77,6.43 29.146,7.6 29.899,8.396C30.652,9.193 31.757,9.592 33.215,9.592C34.007,9.592 34.781,9.501 35.536,9.318L35.536,5.803L32.981,5.803L32.981,4.615Z" style="fill:none;stroke:white;stroke-width:0.77px;"/>
            <path d="M47.586,10.6L46.164,6.967L41.586,6.967L40.18,10.6L38.836,10.6L43.351,-0.869L44.469,-0.869L48.961,10.6L47.586,10.6ZM45.75,5.771L44.422,2.232C44.25,1.784 44.073,1.235 43.89,0.584C43.776,1.084 43.612,1.633 43.398,2.232L42.055,5.771L45.75,5.771Z" style="fill:none;stroke:white;stroke-width:0.77px;"/>
            <path d="M53.73,10.6L52.401,10.6L52.401,0.357L48.784,0.357L48.784,-0.822L57.347,-0.822L57.347,0.357L53.73,0.357L53.73,10.6Z" style="fill:none;stroke:white;stroke-width:0.77px;"/>
            <path d="M69.459,4.873C69.459,6.701 68.997,8.139 68.073,9.186C67.148,10.232 65.863,10.756 64.217,10.756C62.535,10.756 61.237,10.242 60.323,9.213C59.408,8.184 58.951,6.732 58.951,4.857C58.951,2.998 59.41,1.557 60.326,0.533C61.243,-0.49 62.545,-1.002 64.233,-1.002C65.873,-1.002 67.155,-0.481 68.076,0.561C68.998,1.602 69.459,3.04 69.459,4.873ZM60.358,4.873C60.358,6.42 60.687,7.593 61.346,8.393C62.005,9.192 62.962,9.592 64.217,9.592C65.483,9.592 66.438,9.193 67.084,8.396C67.73,7.6 68.053,6.425 68.053,4.873C68.053,3.337 67.731,2.171 67.088,1.377C66.445,0.583 65.493,0.186 64.233,0.186C62.967,0.186 62.005,0.585 61.346,1.385C60.687,2.184 60.358,3.347 60.358,4.873Z" style="fill:none;stroke:white;stroke-width:0.77px;"/>
            <path d="M79.09,5.85L79.09,10.6L77.762,10.6L77.762,-0.822L80.895,-0.822C82.296,-0.822 83.331,-0.554 84.001,-0.018C84.67,0.519 85.005,1.326 85.005,2.404C85.005,3.915 84.239,4.936 82.708,5.467L85.809,10.6L84.239,10.6L81.473,5.85L79.09,5.85ZM79.09,4.709L80.911,4.709C81.848,4.709 82.536,4.523 82.973,4.15C83.411,3.778 83.63,3.219 83.63,2.475C83.63,1.719 83.407,1.175 82.962,0.842C82.516,0.508 81.801,0.342 80.817,0.342L79.09,0.342L79.09,4.709Z" style="fill:none;stroke:white;stroke-width:0.77px;"/>
            <path d="M98.367,4.873C98.367,6.701 97.905,8.139 96.98,9.186C96.056,10.232 94.771,10.756 93.125,10.756C91.443,10.756 90.144,10.242 89.23,9.213C88.316,8.184 87.859,6.732 87.859,4.857C87.859,2.998 88.318,1.557 89.234,0.533C90.151,-0.49 91.453,-1.002 93.14,-1.002C94.781,-1.002 96.062,-0.481 96.984,0.561C97.906,1.602 98.367,3.04 98.367,4.873ZM89.265,4.873C89.265,6.42 89.595,7.593 90.254,8.393C90.913,9.192 91.87,9.592 93.125,9.592C94.39,9.592 95.346,9.193 95.992,8.396C96.638,7.6 96.961,6.425 96.961,4.873C96.961,3.337 96.639,2.171 95.996,1.377C95.353,0.583 94.401,0.186 93.14,0.186C91.875,0.186 90.913,0.585 90.254,1.385C89.595,2.184 89.265,3.347 89.265,4.873Z" style="fill:none;stroke:white;stroke-width:0.77px;"/>
            <path d="M108.081,10.6L101.714,10.6L101.714,-0.822L108.081,-0.822L108.081,0.357L103.042,0.357L103.042,4.037L107.776,4.037L107.776,5.209L103.042,5.209L103.042,9.412L108.081,9.412L108.081,10.6Z" style="fill:none;stroke:white;stroke-width:0.77px;"/>
            <path d="M120.037,-0.822L120.037,6.568C120.037,7.87 119.644,8.894 118.858,9.639C118.071,10.383 116.99,10.756 115.615,10.756C114.24,10.756 113.177,10.381 112.424,9.631C111.671,8.881 111.295,7.85 111.295,6.537L111.295,-0.822L112.623,-0.822L112.623,6.631C112.623,7.584 112.884,8.316 113.405,8.826C113.925,9.337 114.691,9.592 115.701,9.592C116.665,9.592 117.407,9.335 117.928,8.822C118.449,8.309 118.709,7.574 118.709,6.615L118.709,-0.822L120.037,-0.822Z" style="fill:none;stroke:white;stroke-width:0.77px;"/>
            <path d="M135.997,10.6L134.575,6.967L129.997,6.967L128.59,10.6L127.247,10.6L131.762,-0.869L132.88,-0.869L137.372,10.6L135.997,10.6ZM134.161,5.771L132.833,2.232C132.661,1.784 132.484,1.235 132.301,0.584C132.187,1.084 132.023,1.633 131.809,2.232L130.465,5.771L134.161,5.771Z" style="fill:none;stroke:white;stroke-width:0.77px;"/>
            <path d="M146.026,5.85L146.026,10.6L144.698,10.6L144.698,-0.822L147.831,-0.822C149.232,-0.822 150.267,-0.554 150.937,-0.018C151.606,0.519 151.94,1.326 151.94,2.404C151.94,3.915 151.175,4.936 149.644,5.467L152.745,10.6L151.175,10.6L148.409,5.85L146.026,5.85ZM146.026,4.709L147.847,4.709C148.784,4.709 149.472,4.523 149.909,4.15C150.347,3.778 150.565,3.219 150.565,2.475C150.565,1.719 150.343,1.175 149.898,0.842C149.452,0.508 148.737,0.342 147.753,0.342L146.026,0.342L146.026,4.709Z" style="fill:none;stroke:white;stroke-width:0.77px;"/>
            <path d="M165.303,4.873C165.303,6.701 164.841,8.139 163.916,9.186C162.992,10.232 161.707,10.756 160.061,10.756C158.379,10.756 157.08,10.242 156.166,9.213C155.252,8.184 154.795,6.732 154.795,4.857C154.795,2.998 155.254,1.557 156.17,0.533C157.087,-0.49 158.389,-1.002 160.076,-1.002C161.717,-1.002 162.998,-0.481 163.92,0.561C164.842,1.602 165.303,3.04 165.303,4.873ZM156.201,4.873C156.201,6.42 156.531,7.593 157.19,8.393C157.849,9.192 158.806,9.592 160.061,9.592C161.326,9.592 162.282,9.193 162.928,8.396C163.574,7.6 163.897,6.425 163.897,4.873C163.897,3.337 163.575,2.171 162.932,1.377C162.289,0.583 161.337,0.186 160.076,0.186C158.811,0.186 157.849,0.585 157.19,1.385C156.531,2.184 156.201,3.347 156.201,4.873Z" style="fill:none;stroke:white;stroke-width:0.77px;"/>
            <path d="M177.275,-0.822L177.275,6.568C177.275,7.87 176.882,8.894 176.095,9.639C175.309,10.383 174.228,10.756 172.853,10.756C171.478,10.756 170.414,10.381 169.662,9.631C168.909,8.881 168.533,7.85 168.533,6.537L168.533,-0.822L169.861,-0.822L169.861,6.631C169.861,7.584 170.121,8.316 170.642,8.826C171.163,9.337 171.929,9.592 172.939,9.592C173.902,9.592 174.645,9.335 175.165,8.822C175.686,8.309 175.947,7.574 175.947,6.615L175.947,-0.822L177.275,-0.822Z" style="fill:none;stroke:white;stroke-width:0.77px;"/>
            <path d="M188.34,2.506C188.34,3.662 187.946,4.551 187.157,5.174C186.368,5.796 185.239,6.107 183.77,6.107L182.426,6.107L182.426,10.6L181.098,10.6L181.098,-0.822L184.059,-0.822C186.913,-0.822 188.34,0.287 188.34,2.506ZM182.426,4.967L183.622,4.967C184.799,4.967 185.65,4.777 186.176,4.396C186.702,4.016 186.965,3.407 186.965,2.568C186.965,1.813 186.718,1.251 186.223,0.881C185.729,0.511 184.958,0.326 183.911,0.326L182.426,0.326L182.426,4.967Z" style="fill:none;stroke:white;stroke-width:0.77px;"/>
            <path d="M197.914,10.6L196.492,6.967L191.914,6.967L190.508,10.6L189.164,10.6L193.68,-0.869L194.797,-0.869L199.289,10.6L197.914,10.6ZM196.078,5.771L194.75,2.232C194.578,1.784 194.401,1.235 194.219,0.584C194.104,1.084 193.94,1.633 193.726,2.232L192.383,5.771L196.078,5.771Z" style="fill:none;stroke:white;stroke-width:0.77px;"/>
            <path d="M215.733,4.779C215.733,6.665 215.221,8.106 214.198,9.104C213.174,10.101 211.701,10.6 209.78,10.6L206.615,10.6L206.615,-0.822L210.115,-0.822C211.892,-0.822 213.272,-0.33 214.256,0.654C215.24,1.639 215.733,3.014 215.733,4.779ZM214.326,4.826C214.326,3.337 213.953,2.214 213.205,1.459C212.458,0.704 211.347,0.326 209.873,0.326L207.944,0.326L207.944,9.451L209.561,9.451C211.144,9.451 212.334,9.062 213.131,8.283C213.928,7.505 214.326,6.352 214.326,4.826Z" style="fill:none;stroke:white;stroke-width:0.77px;"/>
            <path d="M228.994,4.873C228.994,6.701 228.531,8.139 227.607,9.186C226.682,10.232 225.397,10.756 223.751,10.756C222.069,10.756 220.771,10.242 219.857,9.213C218.943,8.184 218.486,6.732 218.486,4.857C218.486,2.998 218.944,1.557 219.861,0.533C220.777,-0.49 222.08,-1.002 223.767,-1.002C225.408,-1.002 226.689,-0.481 227.611,0.561C228.533,1.602 228.994,3.04 228.994,4.873ZM219.892,4.873C219.892,6.42 220.221,7.593 220.88,8.393C221.539,9.192 222.496,9.592 223.751,9.592C225.017,9.592 225.973,9.193 226.619,8.396C227.264,7.6 227.587,6.425 227.587,4.873C227.587,3.337 227.266,2.171 226.623,1.377C225.979,0.583 225.027,0.186 223.767,0.186C222.501,0.186 221.539,0.585 220.88,1.385C220.221,2.184 219.892,3.347 219.892,4.873Z" style="fill:none;stroke:white;stroke-width:0.77px;"/>
            <path d="M238.625,5.85L238.625,10.6L237.297,10.6L237.297,-0.822L240.43,-0.822C241.831,-0.822 242.866,-0.554 243.535,-0.018C244.204,0.519 244.539,1.326 244.539,2.404C244.539,3.915 243.773,4.936 242.242,5.467L245.344,10.6L243.773,10.6L241.008,5.85L238.625,5.85ZM238.625,4.709L240.445,4.709C241.383,4.709 242.07,4.523 242.508,4.15C242.945,3.778 243.164,3.219 243.164,2.475C243.164,1.719 242.941,1.175 242.496,0.842C242.051,0.508 241.336,0.342 240.351,0.342L238.625,0.342L238.625,4.709Z" style="fill:none;stroke:white;stroke-width:0.77px;"/>
            <path d="M254.355,10.6L247.987,10.6L247.987,-0.822L254.355,-0.822L254.355,0.357L249.315,0.357L249.315,4.037L254.05,4.037L254.05,5.209L249.315,5.209L249.315,9.412L254.355,9.412L254.355,10.6Z" style="fill:none;stroke:white;stroke-width:0.77px;"/>
            <rect x="257.686" y="-0.822" width="1.328" height="11.422" style="fill:none;stroke:white;stroke-width:0.77px;"/>
            <path d="M277.02,4.779C277.02,6.665 276.508,8.106 275.485,9.104C274.462,10.101 272.989,10.6 271.067,10.6L267.903,10.6L267.903,-0.822L271.403,-0.822C273.179,-0.822 274.559,-0.33 275.544,0.654C276.528,1.639 277.02,3.014 277.02,4.779ZM275.614,4.826C275.614,3.337 275.24,2.214 274.493,1.459C273.745,0.704 272.635,0.326 271.161,0.326L269.231,0.326L269.231,9.451L270.848,9.451C272.432,9.451 273.622,9.062 274.419,8.283C275.215,7.505 275.614,6.352 275.614,4.826Z" style="fill:none;stroke:white;stroke-width:0.77px;"/>
            <path d="M286.734,10.6L280.367,10.6L280.367,-0.822L286.734,-0.822L286.734,0.357L281.695,0.357L281.695,4.037L286.43,4.037L286.43,5.209L281.695,5.209L281.695,9.412L286.734,9.412L286.734,10.6Z" style="fill:none;stroke:white;stroke-width:0.77px;"/>
            <path d="M296.35,5.85L296.35,10.6L295.022,10.6L295.022,-0.822L298.155,-0.822C299.556,-0.822 300.591,-0.554 301.26,-0.018C301.929,0.519 302.264,1.326 302.264,2.404C302.264,3.915 301.498,4.936 299.967,5.467L303.069,10.6L301.498,10.6L298.733,5.85L296.35,5.85ZM296.35,4.709L298.17,4.709C299.108,4.709 299.795,4.523 300.233,4.15C300.67,3.778 300.889,3.219 300.889,2.475C300.889,1.719 300.666,1.175 300.221,0.842C299.776,0.508 299.061,0.342 298.076,0.342L296.35,0.342L296.35,4.709Z" style="fill:none;stroke:white;stroke-width:0.77px;"/>
            <path d="M315.626,4.873C315.626,6.701 315.164,8.139 314.24,9.186C313.315,10.232 312.03,10.756 310.384,10.756C308.702,10.756 307.404,10.242 306.49,9.213C305.576,8.184 305.119,6.732 305.119,4.857C305.119,2.998 305.577,1.557 306.494,0.533C307.41,-0.49 308.712,-1.002 310.4,-1.002C312.04,-1.002 313.322,-0.481 314.244,0.561C315.165,1.602 315.626,3.04 315.626,4.873ZM306.525,4.873C306.525,6.42 306.854,7.593 307.513,8.393C308.172,9.192 309.129,9.592 310.384,9.592C311.65,9.592 312.606,9.193 313.251,8.396C313.897,7.6 314.22,6.425 314.22,4.873C314.22,3.337 313.899,2.171 313.255,1.377C312.612,0.583 311.66,0.186 310.4,0.186C309.134,0.186 308.172,0.585 307.513,1.385C306.854,2.184 306.525,3.347 306.525,4.873Z" style="fill:none;stroke:white;stroke-width:0.77px;"/>
            <path d="M324.028,10.6L320.153,0.475L320.09,0.475C320.163,1.277 320.2,2.23 320.2,3.334L320.2,10.6L318.973,10.6L318.973,-0.822L320.973,-0.822L324.59,8.6L324.653,8.6L328.301,-0.822L330.286,-0.822L330.286,10.6L328.958,10.6L328.958,3.24C328.958,2.396 328.994,1.48 329.067,0.49L329.005,0.49L325.098,10.6L324.028,10.6Z" style="fill:none;stroke:white;stroke-width:0.77px;"/>
            <path d="M341.398,10.6L339.976,6.967L335.398,6.967L333.992,10.6L332.648,10.6L337.164,-0.869L338.281,-0.869L342.773,10.6L341.398,10.6ZM339.562,5.771L338.234,2.232C338.062,1.784 337.885,1.235 337.703,0.584C337.588,1.084 337.424,1.633 337.211,2.232L335.867,5.771L339.562,5.771Z" style="fill:none;stroke:white;stroke-width:0.77px;"/>
        </g>
    </g>
</svg>
