<?xml version="1.0" encoding="UTF-8" standalone="no"?><!DOCTYPE svg PUBLIC "-//W3C//DTD SVG 1.1//EN" "http://www.w3.org/Graphics/SVG/1.1/DTD/svg11.dtd"><svg width="100%" height="100%" viewBox="0 0 431 16" version="1.1" xmlns="http://www.w3.org/2000/svg" xmlns:xlink="http://www.w3.org/1999/xlink" xml:space="preserve" style="fill-rule:evenodd;clip-rule:evenodd;stroke-linejoin:round;stroke-miterlimit:1.41421;"><path d="M14.596,7.572c0,1.109 -0.175,2.126 -0.526,3.053c-0.352,0.926 -0.847,1.723 -1.488,2.391c-0.64,0.668 -1.41,1.186 -2.309,1.555c-0.898,0.368 -1.892,0.552 -2.98,0.552c-1.088,0 -2.08,-0.184 -2.975,-0.552c-0.895,-0.369 -1.663,-0.887 -2.304,-1.555c-0.64,-0.668 -1.136,-1.465 -1.487,-2.391c-0.351,-0.927 -0.527,-1.944 -0.527,-3.053c0,-1.109 0.176,-2.126 0.527,-3.053c0.351,-0.926 0.847,-1.725 1.487,-2.396c0.641,-0.672 1.409,-1.193 2.304,-1.565c0.895,-0.372 1.887,-0.558 2.975,-0.558c1.088,0 2.082,0.186 2.98,0.558c0.899,0.372 1.669,0.893 2.309,1.565c0.641,0.671 1.136,1.47 1.488,2.396c0.351,0.927 0.526,1.944 0.526,3.053Zm-2.055,0c0,-0.909 -0.124,-1.725 -0.372,-2.448c-0.248,-0.723 -0.599,-1.335 -1.054,-1.834c-0.454,-0.499 -1.005,-0.883 -1.653,-1.152c-0.647,-0.268 -1.37,-0.403 -2.169,-0.403c-0.792,0 -1.512,0.135 -2.159,0.403c-0.647,0.269 -1.2,0.653 -1.658,1.152c-0.458,0.499 -0.811,1.111 -1.059,1.834c-0.248,0.723 -0.372,1.539 -0.372,2.448c0,0.909 0.124,1.723 0.372,2.443c0.248,0.72 0.601,1.329 1.059,1.829c0.458,0.499 1.011,0.881 1.658,1.146c0.647,0.265 1.367,0.398 2.159,0.398c0.799,0 1.522,-0.133 2.169,-0.398c0.648,-0.265 1.199,-0.647 1.653,-1.146c0.455,-0.5 0.806,-1.109 1.054,-1.829c0.248,-0.72 0.372,-1.534 0.372,-2.443Z" style="fill:#fff;fill-rule:nonzero;"/><path d="M29.988,13.512c0.4,0 0.767,-0.019 1.101,-0.057c0.334,-0.038 0.649,-0.095 0.945,-0.17c0.296,-0.076 0.575,-0.167 0.837,-0.274c0.261,-0.107 0.523,-0.229 0.785,-0.367l0,-3.264l-2.294,0c-0.131,0 -0.236,-0.038 -0.315,-0.114c-0.079,-0.076 -0.119,-0.169 -0.119,-0.279l0,-1.136l4.546,0l0,5.681c-0.372,0.269 -0.76,0.503 -1.162,0.703c-0.403,0.2 -0.834,0.367 -1.292,0.501c-0.458,0.134 -0.948,0.234 -1.472,0.3c-0.523,0.065 -1.091,0.098 -1.704,0.098c-1.075,0 -2.059,-0.185 -2.955,-0.553c-0.895,-0.368 -1.666,-0.885 -2.314,-1.55c-0.647,-0.664 -1.151,-1.461 -1.513,-2.391c-0.362,-0.93 -0.542,-1.952 -0.542,-3.068c0,-1.129 0.177,-2.159 0.532,-3.089c0.354,-0.929 0.861,-1.727 1.518,-2.391c0.658,-0.665 1.453,-1.18 2.387,-1.545c0.933,-0.365 1.978,-0.547 3.135,-0.547c0.585,0 1.129,0.043 1.632,0.129c0.503,0.086 0.969,0.21 1.4,0.372c0.43,0.162 0.828,0.358 1.193,0.589c0.365,0.231 0.706,0.491 1.022,0.78l-0.568,0.909c-0.117,0.186 -0.268,0.279 -0.454,0.279c-0.11,0 -0.231,-0.038 -0.362,-0.114c-0.172,-0.096 -0.365,-0.213 -0.578,-0.351c-0.214,-0.138 -0.474,-0.27 -0.78,-0.398c-0.307,-0.127 -0.668,-0.236 -1.085,-0.325c-0.417,-0.09 -0.911,-0.135 -1.482,-0.135c-0.834,0 -1.588,0.136 -2.263,0.409c-0.674,0.272 -1.25,0.661 -1.725,1.167c-0.475,0.506 -0.84,1.119 -1.095,1.839c-0.255,0.719 -0.382,1.527 -0.382,2.422c0,0.937 0.133,1.772 0.398,2.505c0.265,0.733 0.639,1.355 1.121,1.865c0.482,0.509 1.053,0.898 1.714,1.167c0.662,0.269 1.392,0.403 2.19,0.403Z" style="fill:#fff;fill-rule:nonzero;"/><path d="M51.764,14.968l-1.549,0c-0.179,0 -0.324,-0.044 -0.434,-0.134c-0.11,-0.089 -0.193,-0.203 -0.248,-0.341l-1.384,-3.574l-6.642,0l-1.385,3.574c-0.048,0.124 -0.131,0.234 -0.248,0.331c-0.117,0.096 -0.261,0.144 -0.434,0.144l-1.549,0l5.919,-14.803l2.035,0l5.919,14.803Zm-9.7,-5.495l5.527,0l-2.324,-6.023c-0.152,-0.372 -0.3,-0.836 -0.444,-1.394c-0.076,0.282 -0.15,0.542 -0.223,0.78c-0.072,0.237 -0.142,0.446 -0.211,0.625l-2.325,6.012Z" style="fill:#fff;fill-rule:nonzero;"/><path d="M63.386,0.165l0,1.684l-4.783,0l0,13.119l-2.004,0l0,-13.119l-4.804,0l0,-1.684l11.591,0Z" style="fill:#fff;fill-rule:nonzero;"/><path d="M79.263,7.572c0,1.109 -0.175,2.126 -0.527,3.053c-0.351,0.926 -0.847,1.723 -1.487,2.391c-0.641,0.668 -1.41,1.186 -2.309,1.555c-0.899,0.368 -1.892,0.552 -2.98,0.552c-1.088,0 -2.08,-0.184 -2.975,-0.552c-0.896,-0.369 -1.663,-0.887 -2.304,-1.555c-0.64,-0.668 -1.136,-1.465 -1.487,-2.391c-0.352,-0.927 -0.527,-1.944 -0.527,-3.053c0,-1.109 0.175,-2.126 0.527,-3.053c0.351,-0.926 0.847,-1.725 1.487,-2.396c0.641,-0.672 1.408,-1.193 2.304,-1.565c0.895,-0.372 1.887,-0.558 2.975,-0.558c1.088,0 2.081,0.186 2.98,0.558c0.899,0.372 1.668,0.893 2.309,1.565c0.64,0.671 1.136,1.47 1.487,2.396c0.352,0.927 0.527,1.944 0.527,3.053Zm-2.055,0c0,-0.909 -0.124,-1.725 -0.372,-2.448c-0.248,-0.723 -0.6,-1.335 -1.054,-1.834c-0.455,-0.499 -1.006,-0.883 -1.653,-1.152c-0.647,-0.268 -1.37,-0.403 -2.169,-0.403c-0.792,0 -1.512,0.135 -2.159,0.403c-0.648,0.269 -1.2,0.653 -1.658,1.152c-0.458,0.499 -0.811,1.111 -1.059,1.834c-0.248,0.723 -0.372,1.539 -0.372,2.448c0,0.909 0.124,1.723 0.372,2.443c0.248,0.72 0.601,1.329 1.059,1.829c0.458,0.499 1.01,0.881 1.658,1.146c0.647,0.265 1.367,0.398 2.159,0.398c0.799,0 1.522,-0.133 2.169,-0.398c0.647,-0.265 1.198,-0.647 1.653,-1.146c0.454,-0.5 0.806,-1.109 1.054,-1.829c0.248,-0.72 0.372,-1.534 0.372,-2.443Z" style="fill:#fff;fill-rule:nonzero;"/><path d="M90.254,8.791l0,6.177l-1.993,0l0,-14.803l4.183,0c0.937,0 1.746,0.095 2.428,0.284c0.682,0.19 1.245,0.463 1.689,0.822c0.444,0.358 0.773,0.79 0.987,1.296c0.213,0.506 0.32,1.073 0.32,1.699c0,0.524 -0.083,1.013 -0.248,1.467c-0.165,0.455 -0.405,0.863 -0.718,1.224c-0.313,0.362 -0.696,0.67 -1.147,0.925c-0.451,0.255 -0.962,0.448 -1.534,0.578c0.248,0.145 0.469,0.355 0.661,0.631l4.318,5.877l-1.776,0c-0.365,0 -0.634,-0.141 -0.806,-0.423l-3.843,-5.289c-0.117,-0.165 -0.244,-0.284 -0.382,-0.357c-0.138,-0.072 -0.345,-0.108 -0.62,-0.108l-1.519,0Zm0,-1.457l2.098,0c0.585,0 1.1,-0.07 1.544,-0.211c0.444,-0.142 0.816,-0.341 1.116,-0.6c0.299,-0.258 0.525,-0.566 0.676,-0.924c0.152,-0.358 0.227,-0.754 0.227,-1.188c0,-0.882 -0.291,-1.546 -0.872,-1.994c-0.582,-0.447 -1.448,-0.671 -2.599,-0.671l-2.19,0l0,5.588Z" style="fill:#fff;fill-rule:nonzero;"/><path d="M115.667,7.572c0,1.109 -0.176,2.126 -0.527,3.053c-0.351,0.926 -0.847,1.723 -1.488,2.391c-0.64,0.668 -1.41,1.186 -2.309,1.555c-0.898,0.368 -1.892,0.552 -2.98,0.552c-1.088,0 -2.08,-0.184 -2.975,-0.552c-0.895,-0.369 -1.663,-0.887 -2.303,-1.555c-0.641,-0.668 -1.137,-1.465 -1.488,-2.391c-0.351,-0.927 -0.527,-1.944 -0.527,-3.053c0,-1.109 0.176,-2.126 0.527,-3.053c0.351,-0.926 0.847,-1.725 1.488,-2.396c0.64,-0.672 1.408,-1.193 2.303,-1.565c0.895,-0.372 1.887,-0.558 2.975,-0.558c1.088,0 2.082,0.186 2.98,0.558c0.899,0.372 1.669,0.893 2.309,1.565c0.641,0.671 1.137,1.47 1.488,2.396c0.351,0.927 0.527,1.944 0.527,3.053Zm-2.056,0c0,-0.909 -0.124,-1.725 -0.372,-2.448c-0.248,-0.723 -0.599,-1.335 -1.054,-1.834c-0.454,-0.499 -1.005,-0.883 -1.652,-1.152c-0.648,-0.268 -1.371,-0.403 -2.17,-0.403c-0.792,0 -1.511,0.135 -2.159,0.403c-0.647,0.269 -1.2,0.653 -1.658,1.152c-0.458,0.499 -0.811,1.111 -1.059,1.834c-0.248,0.723 -0.371,1.539 -0.371,2.448c0,0.909 0.123,1.723 0.371,2.443c0.248,0.72 0.601,1.329 1.059,1.829c0.458,0.499 1.011,0.881 1.658,1.146c0.648,0.265 1.367,0.398 2.159,0.398c0.799,0 1.522,-0.133 2.17,-0.398c0.647,-0.265 1.198,-0.647 1.652,-1.146c0.455,-0.5 0.806,-1.109 1.054,-1.829c0.248,-0.72 0.372,-1.534 0.372,-2.443Z" style="fill:#fff;fill-rule:nonzero;"/><path d="M128.559,0.165l0,1.632l-7.107,0l0,4.918l5.753,0l0,1.57l-5.753,0l0,5.051l7.107,0l0,1.632l-9.122,0l0,-14.803l9.122,0Z" style="fill:#fff;fill-rule:nonzero;"/><path d="M138.228,13.378c0.613,0 1.16,-0.104 1.642,-0.31c0.482,-0.207 0.89,-0.496 1.224,-0.868c0.334,-0.372 0.589,-0.816 0.765,-1.333c0.175,-0.516 0.263,-1.084 0.263,-1.704l0,-8.998l1.994,0l0,8.998c0,0.854 -0.136,1.646 -0.408,2.376c-0.272,0.73 -0.661,1.362 -1.167,1.895c-0.507,0.534 -1.125,0.952 -1.855,1.255c-0.73,0.303 -1.549,0.455 -2.458,0.455c-0.909,0 -1.729,-0.152 -2.459,-0.455c-0.73,-0.303 -1.35,-0.721 -1.859,-1.255c-0.51,-0.533 -0.901,-1.165 -1.173,-1.895c-0.272,-0.73 -0.408,-1.522 -0.408,-2.376l0,-8.998l1.994,0l0,8.988c0,0.619 0.088,1.187 0.263,1.704c0.176,0.516 0.431,0.961 0.765,1.333c0.334,0.371 0.744,0.662 1.229,0.872c0.486,0.211 1.035,0.316 1.648,0.316Z" style="fill:#fff;fill-rule:nonzero;"/><path d="M165.789,14.968l-1.55,0c-0.179,0 -0.324,-0.044 -0.434,-0.134c-0.11,-0.089 -0.193,-0.203 -0.248,-0.341l-1.384,-3.574l-6.642,0l-1.385,3.574c-0.048,0.124 -0.13,0.234 -0.247,0.331c-0.118,0.096 -0.262,0.144 -0.434,0.144l-1.55,0l5.919,-14.803l2.035,0l5.92,14.803Zm-9.7,-5.495l5.526,0l-2.324,-6.023c-0.152,-0.372 -0.3,-0.836 -0.444,-1.394c-0.076,0.282 -0.15,0.542 -0.222,0.78c-0.073,0.237 -0.143,0.446 -0.212,0.625l-2.324,6.012Z" style="fill:#fff;fill-rule:nonzero;"/><path d="M175.912,8.791l0,6.177l-1.994,0l0,-14.803l4.184,0c0.937,0 1.746,0.095 2.428,0.284c0.681,0.19 1.244,0.463 1.689,0.822c0.444,0.358 0.773,0.79 0.986,1.296c0.214,0.506 0.32,1.073 0.32,1.699c0,0.524 -0.082,1.013 -0.248,1.467c-0.165,0.455 -0.404,0.863 -0.717,1.224c-0.314,0.362 -0.696,0.67 -1.147,0.925c-0.451,0.255 -0.963,0.448 -1.534,0.578c0.248,0.145 0.468,0.355 0.661,0.631l4.318,5.877l-1.777,0c-0.365,0 -0.633,-0.141 -0.806,-0.423l-3.842,-5.289c-0.117,-0.165 -0.245,-0.284 -0.383,-0.357c-0.137,-0.072 -0.344,-0.108 -0.619,-0.108l-1.519,0Zm0,-1.457l2.097,0c0.585,0 1.1,-0.07 1.544,-0.211c0.445,-0.142 0.817,-0.341 1.116,-0.6c0.3,-0.258 0.525,-0.566 0.677,-0.924c0.151,-0.358 0.227,-0.754 0.227,-1.188c0,-0.882 -0.291,-1.546 -0.873,-1.994c-0.582,-0.447 -1.448,-0.671 -2.598,-0.671l-2.19,0l0,5.588Z" style="fill:#fff;fill-rule:nonzero;"/><path d="M201.324,7.572c0,1.109 -0.175,2.126 -0.527,3.053c-0.351,0.926 -0.847,1.723 -1.487,2.391c-0.641,0.668 -1.41,1.186 -2.309,1.555c-0.899,0.368 -1.892,0.552 -2.98,0.552c-1.088,0 -2.08,-0.184 -2.975,-0.552c-0.896,-0.369 -1.663,-0.887 -2.304,-1.555c-0.64,-0.668 -1.136,-1.465 -1.487,-2.391c-0.352,-0.927 -0.527,-1.944 -0.527,-3.053c0,-1.109 0.175,-2.126 0.527,-3.053c0.351,-0.926 0.847,-1.725 1.487,-2.396c0.641,-0.672 1.408,-1.193 2.304,-1.565c0.895,-0.372 1.887,-0.558 2.975,-0.558c1.088,0 2.081,0.186 2.98,0.558c0.899,0.372 1.668,0.893 2.309,1.565c0.64,0.671 1.136,1.47 1.487,2.396c0.352,0.927 0.527,1.944 0.527,3.053Zm-2.055,0c0,-0.909 -0.124,-1.725 -0.372,-2.448c-0.248,-0.723 -0.6,-1.335 -1.054,-1.834c-0.455,-0.499 -1.006,-0.883 -1.653,-1.152c-0.647,-0.268 -1.37,-0.403 -2.169,-0.403c-0.792,0 -1.512,0.135 -2.159,0.403c-0.648,0.269 -1.2,0.653 -1.658,1.152c-0.458,0.499 -0.811,1.111 -1.059,1.834c-0.248,0.723 -0.372,1.539 -0.372,2.448c0,0.909 0.124,1.723 0.372,2.443c0.248,0.72 0.601,1.329 1.059,1.829c0.458,0.499 1.01,0.881 1.658,1.146c0.647,0.265 1.367,0.398 2.159,0.398c0.799,0 1.522,-0.133 2.169,-0.398c0.647,-0.265 1.198,-0.647 1.653,-1.146c0.454,-0.5 0.806,-1.109 1.054,-1.829c0.248,-0.72 0.372,-1.534 0.372,-2.443Z" style="fill:#fff;fill-rule:nonzero;"/><path d="M210.849,13.378c0.613,0 1.16,-0.104 1.642,-0.31c0.482,-0.207 0.89,-0.496 1.224,-0.868c0.334,-0.372 0.589,-0.816 0.765,-1.333c0.175,-0.516 0.263,-1.084 0.263,-1.704l0,-8.998l1.994,0l0,8.998c0,0.854 -0.136,1.646 -0.408,2.376c-0.272,0.73 -0.661,1.362 -1.168,1.895c-0.506,0.534 -1.124,0.952 -1.854,1.255c-0.73,0.303 -1.549,0.455 -2.458,0.455c-0.909,0 -1.729,-0.152 -2.459,-0.455c-0.73,-0.303 -1.35,-0.721 -1.859,-1.255c-0.51,-0.533 -0.901,-1.165 -1.173,-1.895c-0.272,-0.73 -0.408,-1.522 -0.408,-2.376l0,-8.998l1.994,0l0,8.988c0,0.619 0.088,1.187 0.263,1.704c0.176,0.516 0.431,0.961 0.765,1.333c0.334,0.371 0.743,0.662 1.229,0.872c0.485,0.211 1.035,0.316 1.648,0.316Z" style="fill:#fff;fill-rule:nonzero;"/><path d="M223.41,9.431l0,5.537l-1.994,0l0,-14.803l4.37,0c0.937,0 1.751,0.109 2.443,0.326c0.692,0.217 1.266,0.525 1.72,0.924c0.455,0.4 0.794,0.882 1.018,1.446c0.223,0.565 0.335,1.195 0.335,1.891c0,0.689 -0.12,1.319 -0.361,1.89c-0.241,0.572 -0.594,1.064 -1.059,1.477c-0.465,0.414 -1.042,0.736 -1.73,0.966c-0.689,0.231 -1.478,0.346 -2.366,0.346l-2.376,0Zm0,-1.59l2.376,0c0.572,0 1.076,-0.076 1.513,-0.228c0.438,-0.151 0.804,-0.363 1.101,-0.635c0.296,-0.272 0.519,-0.597 0.671,-0.976c0.151,-0.379 0.227,-0.796 0.227,-1.25c0,-0.944 -0.291,-1.681 -0.873,-2.211c-0.582,-0.53 -1.461,-0.795 -2.639,-0.795l-2.376,0l0,6.095Z" style="fill:#fff;fill-rule:nonzero;"/><path d="M245.62,14.968l-1.55,0c-0.179,0 -0.323,-0.044 -0.434,-0.134c-0.11,-0.089 -0.192,-0.203 -0.247,-0.341l-1.385,-3.574l-6.642,0l-1.384,3.574c-0.048,0.124 -0.131,0.234 -0.248,0.331c-0.117,0.096 -0.262,0.144 -0.434,0.144l-1.55,0l5.92,-14.803l2.035,0l5.919,14.803Zm-9.7,-5.495l5.527,0l-2.325,-6.023c-0.151,-0.372 -0.299,-0.836 -0.444,-1.394c-0.076,0.282 -0.15,0.542 -0.222,0.78c-0.072,0.237 -0.143,0.446 -0.212,0.625l-2.324,6.012Z" style="fill:#fff;fill-rule:nonzero;"/><path d="M266.373,7.572c0,1.109 -0.175,2.118 -0.527,3.027c-0.351,0.909 -0.847,1.687 -1.487,2.334c-0.641,0.648 -1.409,1.149 -2.304,1.503c-0.895,0.355 -1.887,0.532 -2.975,0.532l-5.537,0l0,-14.803l5.537,0c1.088,0 2.08,0.178 2.975,0.532c0.895,0.355 1.663,0.858 2.304,1.508c0.64,0.651 1.136,1.431 1.487,2.34c0.352,0.909 0.527,1.918 0.527,3.027Zm-2.056,0c0,-0.909 -0.124,-1.722 -0.371,-2.438c-0.248,-0.716 -0.6,-1.322 -1.054,-1.818c-0.455,-0.496 -1.006,-0.875 -1.653,-1.136c-0.647,-0.262 -1.367,-0.393 -2.159,-0.393l-3.523,0l0,11.56l3.523,0c0.792,0 1.512,-0.131 2.159,-0.393c0.647,-0.262 1.198,-0.639 1.653,-1.131c0.454,-0.493 0.806,-1.097 1.054,-1.813c0.247,-0.716 0.371,-1.529 0.371,-2.438Z" style="fill:#fff;fill-rule:nonzero;"/><path d="M283.883,7.572c0,1.109 -0.176,2.126 -0.527,3.053c-0.351,0.926 -0.847,1.723 -1.488,2.391c-0.64,0.668 -1.41,1.186 -2.308,1.555c-0.899,0.368 -1.893,0.552 -2.981,0.552c-1.088,0 -2.079,-0.184 -2.975,-0.552c-0.895,-0.369 -1.663,-0.887 -2.303,-1.555c-0.641,-0.668 -1.137,-1.465 -1.488,-2.391c-0.351,-0.927 -0.527,-1.944 -0.527,-3.053c0,-1.109 0.176,-2.126 0.527,-3.053c0.351,-0.926 0.847,-1.725 1.488,-2.396c0.64,-0.672 1.408,-1.193 2.303,-1.565c0.896,-0.372 1.887,-0.558 2.975,-0.558c1.088,0 2.082,0.186 2.981,0.558c0.898,0.372 1.668,0.893 2.308,1.565c0.641,0.671 1.137,1.47 1.488,2.396c0.351,0.927 0.527,1.944 0.527,3.053Zm-2.056,0c0,-0.909 -0.124,-1.725 -0.372,-2.448c-0.248,-0.723 -0.599,-1.335 -1.054,-1.834c-0.454,-0.499 -1.005,-0.883 -1.652,-1.152c-0.648,-0.268 -1.371,-0.403 -2.17,-0.403c-0.792,0 -1.511,0.135 -2.159,0.403c-0.647,0.269 -1.2,0.653 -1.658,1.152c-0.458,0.499 -0.811,1.111 -1.059,1.834c-0.247,0.723 -0.371,1.539 -0.371,2.448c0,0.909 0.124,1.723 0.371,2.443c0.248,0.72 0.601,1.329 1.059,1.829c0.458,0.499 1.011,0.881 1.658,1.146c0.648,0.265 1.367,0.398 2.159,0.398c0.799,0 1.522,-0.133 2.17,-0.398c0.647,-0.265 1.198,-0.647 1.652,-1.146c0.455,-0.5 0.806,-1.109 1.054,-1.829c0.248,-0.72 0.372,-1.534 0.372,-2.443Z" style="fill:#fff;fill-rule:nonzero;"/><path d="M294.874,8.791l0,6.177l-1.994,0l0,-14.803l4.184,0c0.937,0 1.746,0.095 2.428,0.284c0.681,0.19 1.244,0.463 1.689,0.822c0.444,0.358 0.773,0.79 0.986,1.296c0.214,0.506 0.32,1.073 0.32,1.699c0,0.524 -0.082,1.013 -0.248,1.467c-0.165,0.455 -0.404,0.863 -0.718,1.224c-0.313,0.362 -0.695,0.67 -1.146,0.925c-0.451,0.255 -0.963,0.448 -1.534,0.578c0.248,0.145 0.468,0.355 0.661,0.631l4.318,5.877l-1.777,0c-0.365,0 -0.633,-0.141 -0.806,-0.423l-3.842,-5.289c-0.118,-0.165 -0.245,-0.284 -0.383,-0.357c-0.137,-0.072 -0.344,-0.108 -0.619,-0.108l-1.519,0Zm0,-1.457l2.097,0c0.585,0 1.1,-0.07 1.544,-0.211c0.445,-0.142 0.816,-0.341 1.116,-0.6c0.3,-0.258 0.525,-0.566 0.677,-0.924c0.151,-0.358 0.227,-0.754 0.227,-1.188c0,-0.882 -0.291,-1.546 -0.873,-1.994c-0.582,-0.447 -1.448,-0.671 -2.598,-0.671l-2.19,0l0,5.588Z" style="fill:#fff;fill-rule:nonzero;"/><path d="M316.133,0.165l0,1.632l-7.107,0l0,4.918l5.754,0l0,1.57l-5.754,0l0,5.051l7.107,0l0,1.632l-9.121,0l0,-14.803l9.121,0Z" style="fill:#fff;fill-rule:nonzero;"/><rect x="320.42" y="0.165" width="2.004" height="14.803" style="fill:#fff;fill-rule:nonzero;"/><path d="M345.275,7.572c0,1.109 -0.176,2.118 -0.527,3.027c-0.351,0.909 -0.847,1.687 -1.488,2.334c-0.64,0.648 -1.408,1.149 -2.303,1.503c-0.895,0.355 -1.887,0.532 -2.975,0.532l-5.537,0l0,-14.803l5.537,0c1.088,0 2.08,0.178 2.975,0.532c0.895,0.355 1.663,0.858 2.303,1.508c0.641,0.651 1.137,1.431 1.488,2.34c0.351,0.909 0.527,1.918 0.527,3.027Zm-2.056,0c0,-0.909 -0.124,-1.722 -0.372,-2.438c-0.248,-0.716 -0.599,-1.322 -1.053,-1.818c-0.455,-0.496 -1.006,-0.875 -1.653,-1.136c-0.648,-0.262 -1.367,-0.393 -2.159,-0.393l-3.523,0l0,11.56l3.523,0c0.792,0 1.511,-0.131 2.159,-0.393c0.647,-0.262 1.198,-0.639 1.653,-1.131c0.454,-0.493 0.805,-1.097 1.053,-1.813c0.248,-0.716 0.372,-1.529 0.372,-2.438Z" style="fill:#fff;fill-rule:nonzero;"/><path d="M358.156,0.165l0,1.632l-7.107,0l0,4.918l5.754,0l0,1.57l-5.754,0l0,5.051l7.107,0l0,1.632l-9.121,0l0,-14.803l9.121,0Z" style="fill:#fff;fill-rule:nonzero;"/><path d="M369.292,8.791l0,6.177l-1.993,0l0,-14.803l4.183,0c0.937,0 1.746,0.095 2.428,0.284c0.682,0.19 1.245,0.463 1.689,0.822c0.444,0.358 0.773,0.79 0.986,1.296c0.214,0.506 0.321,1.073 0.321,1.699c0,0.524 -0.083,1.013 -0.248,1.467c-0.165,0.455 -0.405,0.863 -0.718,1.224c-0.314,0.362 -0.696,0.67 -1.147,0.925c-0.451,0.255 -0.962,0.448 -1.534,0.578c0.248,0.145 0.468,0.355 0.661,0.631l4.318,5.877l-1.776,0c-0.365,0 -0.634,-0.141 -0.806,-0.423l-3.843,-5.289c-0.117,-0.165 -0.245,-0.284 -0.382,-0.357c-0.138,-0.072 -0.345,-0.108 -0.62,-0.108l-1.519,0Zm0,-1.457l2.097,0c0.586,0 1.101,-0.07 1.545,-0.211c0.444,-0.142 0.816,-0.341 1.115,-0.6c0.3,-0.258 0.526,-0.566 0.677,-0.924c0.152,-0.358 0.227,-0.754 0.227,-1.188c0,-0.882 -0.291,-1.546 -0.873,-1.994c-0.582,-0.447 -1.448,-0.671 -2.598,-0.671l-2.19,0l0,5.588Z" style="fill:#fff;fill-rule:nonzero;"/><path d="M394.705,7.572c0,1.109 -0.176,2.126 -0.527,3.053c-0.352,0.926 -0.847,1.723 -1.488,2.391c-0.64,0.668 -1.41,1.186 -2.309,1.555c-0.898,0.368 -1.892,0.552 -2.98,0.552c-1.088,0 -2.08,-0.184 -2.975,-0.552c-0.895,-0.369 -1.663,-0.887 -2.304,-1.555c-0.64,-0.668 -1.136,-1.465 -1.487,-2.391c-0.351,-0.927 -0.527,-1.944 -0.527,-3.053c0,-1.109 0.176,-2.126 0.527,-3.053c0.351,-0.926 0.847,-1.725 1.487,-2.396c0.641,-0.672 1.409,-1.193 2.304,-1.565c0.895,-0.372 1.887,-0.558 2.975,-0.558c1.088,0 2.082,0.186 2.98,0.558c0.899,0.372 1.669,0.893 2.309,1.565c0.641,0.671 1.136,1.47 1.488,2.396c0.351,0.927 0.527,1.944 0.527,3.053Zm-2.056,0c0,-0.909 -0.124,-1.725 -0.372,-2.448c-0.248,-0.723 -0.599,-1.335 -1.054,-1.834c-0.454,-0.499 -1.005,-0.883 -1.653,-1.152c-0.647,-0.268 -1.37,-0.403 -2.169,-0.403c-0.792,0 -1.512,0.135 -2.159,0.403c-0.647,0.269 -1.2,0.653 -1.658,1.152c-0.458,0.499 -0.811,1.111 -1.059,1.834c-0.248,0.723 -0.372,1.539 -0.372,2.448c0,0.909 0.124,1.723 0.372,2.443c0.248,0.72 0.601,1.329 1.059,1.829c0.458,0.499 1.011,0.881 1.658,1.146c0.647,0.265 1.367,0.398 2.159,0.398c0.799,0 1.522,-0.133 2.169,-0.398c0.648,-0.265 1.199,-0.647 1.653,-1.146c0.455,-0.5 0.806,-1.109 1.054,-1.829c0.248,-0.72 0.372,-1.534 0.372,-2.443Z" style="fill:#fff;fill-rule:nonzero;"/><path d="M405.758,9.617c0.096,0.166 0.181,0.34 0.253,0.522c0.072,0.183 0.143,0.367 0.212,0.553c0.069,-0.193 0.141,-0.377 0.217,-0.553c0.075,-0.176 0.161,-0.353 0.258,-0.532l5.01,-9.101c0.089,-0.158 0.182,-0.255 0.279,-0.289c0.096,-0.035 0.234,-0.052 0.413,-0.052l1.477,0l0,14.803l-1.756,0l0,-10.877c0,-0.145 0.004,-0.3 0.011,-0.465c0.006,-0.165 0.017,-0.334 0.03,-0.506l-5.072,9.256c-0.172,0.309 -0.413,0.464 -0.723,0.464l-0.289,0c-0.31,0 -0.551,-0.155 -0.723,-0.464l-5.186,-9.287c0.021,0.179 0.036,0.354 0.047,0.527c0.01,0.172 0.015,0.33 0.015,0.475l0,10.877l-1.756,0l0,-14.803l1.477,0c0.179,0 0.317,0.017 0.413,0.052c0.097,0.034 0.19,0.131 0.279,0.289l5.114,9.111Z" style="fill:#fff;fill-rule:nonzero;"/><path d="M430.695,14.968l-1.55,0c-0.179,0 -0.323,-0.044 -0.434,-0.134c-0.11,-0.089 -0.192,-0.203 -0.248,-0.341l-1.384,-3.574l-6.642,0l-1.384,3.574c-0.049,0.124 -0.131,0.234 -0.248,0.331c-0.117,0.096 -0.262,0.144 -0.434,0.144l-1.55,0l5.92,-14.803l2.035,0l5.919,14.803Zm-9.7,-5.495l5.526,0l-2.324,-6.023c-0.151,-0.372 -0.299,-0.836 -0.444,-1.394c-0.076,0.282 -0.15,0.542 -0.222,0.78c-0.072,0.237 -0.143,0.446 -0.212,0.625l-2.324,6.012Z" style="fill:#fff;fill-rule:nonzero;"/></svg>