<?xml version="1.0" encoding="UTF-8" standalone="no"?><!DOCTYPE svg PUBLIC "-//W3C//DTD SVG 1.1//EN" "http://www.w3.org/Graphics/SVG/1.1/DTD/svg11.dtd"><svg width="100%" height="100%" viewBox="0 0 435 15" version="1.1" xmlns="http://www.w3.org/2000/svg" xmlns:xlink="http://www.w3.org/1999/xlink" xml:space="preserve" style="fill-rule:evenodd;clip-rule:evenodd;stroke-linejoin:round;stroke-miterlimit:1.41421;"><path d="M13.842,7.438c0,1.418 -0.296,2.692 -0.888,3.822c-0.592,1.129 -1.412,2.014 -2.459,2.655c-1.046,0.64 -2.238,0.96 -3.574,0.96c-1.336,0 -2.527,-0.32 -3.574,-0.96c-1.047,-0.641 -1.866,-1.526 -2.459,-2.655c-0.592,-1.13 -0.888,-2.404 -0.888,-3.822c0,-1.433 0.296,-2.714 0.888,-3.843c0.593,-1.13 1.412,-2.011 2.459,-2.645c1.047,-0.633 2.238,-0.95 3.574,-0.95c1.336,0 2.528,0.317 3.574,0.95c1.047,0.634 1.867,1.515 2.459,2.645c0.592,1.129 0.888,2.41 0.888,3.843Zm-1.322,0c0,-1.199 -0.237,-2.269 -0.713,-3.213c-0.475,-0.943 -1.136,-1.677 -1.983,-2.2c-0.847,-0.524 -1.815,-0.785 -2.903,-0.785c-1.088,0 -2.056,0.261 -2.903,0.785c-0.847,0.523 -1.508,1.257 -1.983,2.2c-0.475,0.944 -0.713,2.014 -0.713,3.213c0,1.198 0.238,2.269 0.713,3.212c0.475,0.944 1.136,1.677 1.983,2.201c0.847,0.523 1.815,0.785 2.903,0.785c1.088,0 2.056,-0.262 2.903,-0.785c0.847,-0.524 1.508,-1.257 1.983,-2.201c0.476,-0.943 0.713,-2.014 0.713,-3.212Z" style="fill:none;"/><path d="M35.04,7.376c0.179,0 0.327,0.058 0.444,0.175c0.117,0.117 0.176,0.265 0.176,0.445l0,4.979c0,0.234 -0.104,0.42 -0.31,0.557c-0.62,0.427 -1.309,0.758 -2.066,0.992c-0.758,0.234 -1.529,0.351 -2.314,0.351c-1.405,0 -2.672,-0.323 -3.802,-0.971c-1.129,-0.647 -2.018,-1.535 -2.665,-2.665c-0.647,-1.129 -0.971,-2.396 -0.971,-3.801c0,-1.405 0.324,-2.672 0.971,-3.802c0.647,-1.129 1.536,-2.018 2.665,-2.665c1.13,-0.647 2.397,-0.971 3.802,-0.971c0.73,0 1.436,0.09 2.117,0.269c0.682,0.179 1.292,0.433 1.829,0.764c0.193,0.124 0.289,0.296 0.289,0.517c0,0.179 -0.058,0.33 -0.175,0.454c-0.118,0.124 -0.252,0.186 -0.403,0.186c-0.138,0 -0.262,-0.034 -0.372,-0.103c-1.033,-0.565 -2.128,-0.847 -3.285,-0.847c-1.171,0 -2.221,0.268 -3.151,0.805c-0.93,0.538 -1.656,1.278 -2.18,2.221c-0.523,0.944 -0.785,2.001 -0.785,3.172c0,1.17 0.262,2.228 0.785,3.171c0.524,0.944 1.25,1.684 2.18,2.221c0.93,0.537 1.98,0.806 3.151,0.806c0.592,0 1.188,-0.083 1.787,-0.248c0.599,-0.165 1.133,-0.393 1.601,-0.682l0,-4.091l-3.264,0c-0.179,0 -0.331,-0.058 -0.455,-0.175c-0.124,-0.117 -0.186,-0.265 -0.186,-0.444c0,-0.18 0.062,-0.328 0.186,-0.445c0.124,-0.117 0.276,-0.175 0.455,-0.175l3.946,0Z" style="fill:none;"/><path d="M50.659,13.842c0.028,0.111 0.041,0.193 0.041,0.248c0,0.179 -0.062,0.324 -0.186,0.434c-0.124,0.11 -0.268,0.165 -0.433,0.165c-0.138,0 -0.259,-0.037 -0.362,-0.113c-0.103,-0.076 -0.183,-0.176 -0.238,-0.3l-1.549,-3.781l-6.715,0l-1.529,3.781c-0.11,0.276 -0.296,0.413 -0.557,0.413c-0.193,0 -0.338,-0.048 -0.434,-0.144c-0.097,-0.097 -0.152,-0.227 -0.166,-0.393l0,-0.062c0,-0.082 0.007,-0.144 0.021,-0.186l5.454,-13.346c0.111,-0.276 0.317,-0.413 0.62,-0.413c0.138,0 0.258,0.037 0.362,0.113c0.103,0.076 0.182,0.176 0.237,0.3l5.434,13.284Zm-8.967,-4.566l5.744,0l-2.892,-7.065l-2.852,7.065Z" style="fill:none;"/><path d="M62.456,0.207c0.179,0 0.327,0.055 0.444,0.165c0.117,0.11 0.176,0.255 0.176,0.434c0,0.179 -0.059,0.32 -0.176,0.423c-0.117,0.104 -0.265,0.155 -0.444,0.155l-4.277,0l0,12.665c0,0.179 -0.062,0.327 -0.186,0.444c-0.124,0.117 -0.275,0.176 -0.454,0.176c-0.193,0 -0.348,-0.059 -0.465,-0.176c-0.117,-0.117 -0.176,-0.265 -0.176,-0.444l0,-12.665l-4.276,0c-0.179,0 -0.327,-0.055 -0.444,-0.165c-0.118,-0.11 -0.176,-0.255 -0.176,-0.434c0,-0.165 0.058,-0.303 0.176,-0.413c0.117,-0.11 0.265,-0.165 0.444,-0.165l9.834,0Z" style="fill:none;"/><path d="M79.232,7.438c0,1.418 -0.296,2.692 -0.888,3.822c-0.592,1.129 -1.412,2.014 -2.459,2.655c-1.047,0.64 -2.238,0.96 -3.574,0.96c-1.336,0 -2.527,-0.32 -3.574,-0.96c-1.047,-0.641 -1.867,-1.526 -2.459,-2.655c-0.592,-1.13 -0.888,-2.404 -0.888,-3.822c0,-1.433 0.296,-2.714 0.888,-3.843c0.592,-1.13 1.412,-2.011 2.459,-2.645c1.047,-0.633 2.238,-0.95 3.574,-0.95c1.336,0 2.527,0.317 3.574,0.95c1.047,0.634 1.867,1.515 2.459,2.645c0.592,1.129 0.888,2.41 0.888,3.843Zm-1.322,0c0,-1.199 -0.238,-2.269 -0.713,-3.213c-0.475,-0.943 -1.136,-1.677 -1.983,-2.2c-0.847,-0.524 -1.815,-0.785 -2.903,-0.785c-1.088,0 -2.056,0.261 -2.903,0.785c-0.847,0.523 -1.508,1.257 -1.983,2.2c-0.475,0.944 -0.713,2.014 -0.713,3.213c0,1.198 0.238,2.269 0.713,3.212c0.475,0.944 1.136,1.677 1.983,2.201c0.847,0.523 1.815,0.785 2.903,0.785c1.088,0 2.056,-0.262 2.903,-0.785c0.847,-0.524 1.508,-1.257 1.983,-2.201c0.475,-0.943 0.713,-2.014 0.713,-3.212Z" style="fill:none;"/><path d="M100.43,13.553c0.206,0.138 0.31,0.31 0.31,0.517c0,0.069 -0.028,0.158 -0.083,0.268c-0.055,0.097 -0.131,0.172 -0.227,0.228c-0.097,0.055 -0.2,0.082 -0.31,0.082c-0.138,0 -0.255,-0.027 -0.351,-0.082c-0.386,-0.221 -0.696,-0.579 -0.93,-1.075c-0.234,-0.496 -0.351,-1.288 -0.351,-2.376c0,-0.964 -0.269,-1.642 -0.806,-2.035c-0.537,-0.392 -1.178,-0.589 -1.922,-0.589l-4.586,0l0,5.558c0,0.179 -0.055,0.327 -0.165,0.444c-0.111,0.117 -0.255,0.176 -0.434,0.176c-0.193,0 -0.358,-0.059 -0.496,-0.176c-0.138,-0.117 -0.207,-0.265 -0.207,-0.444l0,-13.223c0,-0.179 0.059,-0.327 0.176,-0.444c0.117,-0.117 0.265,-0.175 0.444,-0.175l5.578,0c0.785,0 1.488,0.168 2.108,0.506c0.62,0.337 1.105,0.802 1.456,1.394c0.351,0.593 0.527,1.261 0.527,2.004c0,0.882 -0.231,1.657 -0.692,2.325c-0.461,0.668 -1.064,1.126 -1.808,1.374c0.606,0.234 1.102,0.63 1.488,1.188c0.385,0.557 0.585,1.236 0.599,2.035c0.014,0.854 0.072,1.453 0.176,1.797c0.103,0.344 0.272,0.585 0.506,0.723Zm-4.298,-6.198c0.482,-0.041 0.93,-0.2 1.343,-0.475c0.413,-0.276 0.744,-0.647 0.992,-1.116c0.248,-0.468 0.372,-1.005 0.372,-1.611c0,-0.785 -0.265,-1.436 -0.796,-1.953c-0.53,-0.516 -1.222,-0.774 -2.076,-0.774l-4.793,0l0,5.929l4.958,0Z" style="fill:none;"/><path d="M117.433,7.438c0,1.418 -0.296,2.692 -0.888,3.822c-0.593,1.129 -1.412,2.014 -2.459,2.655c-1.047,0.64 -2.238,0.96 -3.574,0.96c-1.336,0 -2.528,-0.32 -3.574,-0.96c-1.047,-0.641 -1.867,-1.526 -2.459,-2.655c-0.592,-1.13 -0.888,-2.404 -0.888,-3.822c0,-1.433 0.296,-2.714 0.888,-3.843c0.592,-1.13 1.412,-2.011 2.459,-2.645c1.046,-0.633 2.238,-0.95 3.574,-0.95c1.336,0 2.527,0.317 3.574,0.95c1.047,0.634 1.866,1.515 2.459,2.645c0.592,1.129 0.888,2.41 0.888,3.843Zm-1.322,0c0,-1.199 -0.238,-2.269 -0.713,-3.213c-0.475,-0.943 -1.136,-1.677 -1.983,-2.2c-0.847,-0.524 -1.815,-0.785 -2.903,-0.785c-1.088,0 -2.056,0.261 -2.903,0.785c-0.847,0.523 -1.508,1.257 -1.983,2.2c-0.475,0.944 -0.713,2.014 -0.713,3.213c0,1.198 0.238,2.269 0.713,3.212c0.475,0.944 1.136,1.677 1.983,2.201c0.847,0.523 1.815,0.785 2.903,0.785c1.088,0 2.056,-0.262 2.903,-0.785c0.847,-0.524 1.508,-1.257 1.983,-2.201c0.475,-0.943 0.713,-2.014 0.713,-3.212Z" style="fill:none;"/><path d="M129.602,13.45c0.179,0 0.327,0.062 0.444,0.186c0.117,0.124 0.176,0.268 0.176,0.434c0,0.179 -0.059,0.323 -0.176,0.434c-0.117,0.11 -0.265,0.165 -0.444,0.165l-7.582,0c-0.179,0 -0.327,-0.059 -0.445,-0.176c-0.117,-0.117 -0.175,-0.265 -0.175,-0.444l0,-13.223c0,-0.179 0.058,-0.327 0.175,-0.444c0.118,-0.117 0.266,-0.175 0.445,-0.175l7.582,0c0.179,0 0.327,0.058 0.444,0.175c0.117,0.117 0.176,0.265 0.176,0.444c0,0.179 -0.059,0.324 -0.176,0.434c-0.117,0.11 -0.265,0.166 -0.444,0.166l-6.901,0l0,5.185l5.971,0c0.179,0 0.327,0.059 0.444,0.176c0.118,0.117 0.176,0.265 0.176,0.444c0,0.179 -0.058,0.324 -0.176,0.434c-0.117,0.11 -0.265,0.165 -0.444,0.165l-5.971,0l0,5.62l6.901,0Z" style="fill:none;"/><path d="M144.395,0.207c0.179,0 0.327,0.058 0.444,0.175c0.117,0.117 0.176,0.265 0.176,0.444l0,8.554c0,1.005 -0.241,1.928 -0.724,2.768c-0.482,0.84 -1.136,1.502 -1.962,1.984c-0.827,0.482 -1.736,0.723 -2.727,0.723c-1.006,0 -1.922,-0.241 -2.748,-0.723c-0.827,-0.482 -1.481,-1.144 -1.963,-1.984c-0.482,-0.84 -0.723,-1.763 -0.723,-2.768l0,-8.554c0,-0.179 0.058,-0.327 0.176,-0.444c0.117,-0.117 0.278,-0.175 0.485,-0.175c0.165,0 0.31,0.058 0.434,0.175c0.124,0.117 0.186,0.265 0.186,0.444l0,8.554c0,0.771 0.186,1.48 0.558,2.128c0.372,0.647 0.878,1.16 1.518,1.539c0.641,0.379 1.333,0.568 2.077,0.568c0.757,0 1.456,-0.189 2.097,-0.568c0.64,-0.379 1.15,-0.892 1.528,-1.539c0.379,-0.648 0.569,-1.357 0.569,-2.128l0,-8.554c0,-0.179 0.055,-0.327 0.165,-0.444c0.11,-0.117 0.255,-0.175 0.434,-0.175Z" style="fill:none;"/><path d="M167.39,13.842c0.027,0.111 0.041,0.193 0.041,0.248c0,0.179 -0.062,0.324 -0.186,0.434c-0.124,0.11 -0.269,0.165 -0.434,0.165c-0.138,0 -0.258,-0.037 -0.361,-0.113c-0.104,-0.076 -0.183,-0.176 -0.238,-0.3l-1.549,-3.781l-6.715,0l-1.529,3.781c-0.11,0.276 -0.296,0.413 -0.558,0.413c-0.193,0 -0.337,-0.048 -0.434,-0.144c-0.096,-0.097 -0.151,-0.227 -0.165,-0.393l0,-0.062c0,-0.082 0.007,-0.144 0.021,-0.186l5.454,-13.346c0.11,-0.276 0.317,-0.413 0.62,-0.413c0.138,0 0.258,0.037 0.361,0.113c0.104,0.076 0.183,0.176 0.238,0.3l5.434,13.284Zm-8.967,-4.566l5.744,0l-2.893,-7.065l-2.851,7.065Z" style="fill:none;"/><path d="M188.236,13.553c0.207,0.138 0.31,0.31 0.31,0.517c0,0.069 -0.028,0.158 -0.083,0.268c-0.055,0.097 -0.131,0.172 -0.227,0.228c-0.096,0.055 -0.2,0.082 -0.31,0.082c-0.138,0 -0.255,-0.027 -0.351,-0.082c-0.386,-0.221 -0.696,-0.579 -0.93,-1.075c-0.234,-0.496 -0.351,-1.288 -0.351,-2.376c0,-0.964 -0.269,-1.642 -0.806,-2.035c-0.537,-0.392 -1.178,-0.589 -1.921,-0.589l-4.587,0l0,5.558c0,0.179 -0.055,0.327 -0.165,0.444c-0.11,0.117 -0.255,0.176 -0.434,0.176c-0.193,0 -0.358,-0.059 -0.496,-0.176c-0.138,-0.117 -0.206,-0.265 -0.206,-0.444l0,-13.223c0,-0.179 0.058,-0.327 0.175,-0.444c0.117,-0.117 0.265,-0.175 0.444,-0.175l5.579,0c0.785,0 1.487,0.168 2.107,0.506c0.62,0.337 1.105,0.802 1.456,1.394c0.352,0.593 0.527,1.261 0.527,2.004c0,0.882 -0.23,1.657 -0.692,2.325c-0.461,0.668 -1.064,1.126 -1.808,1.374c0.606,0.234 1.102,0.63 1.488,1.188c0.386,0.557 0.585,1.236 0.599,2.035c0.014,0.854 0.072,1.453 0.176,1.797c0.103,0.344 0.272,0.585 0.506,0.723Zm-4.297,-6.198c0.482,-0.041 0.929,-0.2 1.342,-0.475c0.414,-0.276 0.744,-0.647 0.992,-1.116c0.248,-0.468 0.372,-1.005 0.372,-1.611c0,-0.785 -0.265,-1.436 -0.795,-1.953c-0.531,-0.516 -1.223,-0.774 -2.077,-0.774l-4.793,0l0,5.929l4.959,0Z" style="fill:none;"/><path d="M205.239,7.438c0,1.418 -0.296,2.692 -0.888,3.822c-0.592,1.129 -1.412,2.014 -2.459,2.655c-1.046,0.64 -2.238,0.96 -3.574,0.96c-1.336,0 -2.527,-0.32 -3.574,-0.96c-1.047,-0.641 -1.866,-1.526 -2.459,-2.655c-0.592,-1.13 -0.888,-2.404 -0.888,-3.822c0,-1.433 0.296,-2.714 0.888,-3.843c0.593,-1.13 1.412,-2.011 2.459,-2.645c1.047,-0.633 2.238,-0.95 3.574,-0.95c1.336,0 2.528,0.317 3.574,0.95c1.047,0.634 1.867,1.515 2.459,2.645c0.592,1.129 0.888,2.41 0.888,3.843Zm-1.322,0c0,-1.199 -0.238,-2.269 -0.713,-3.213c-0.475,-0.943 -1.136,-1.677 -1.983,-2.2c-0.847,-0.524 -1.815,-0.785 -2.903,-0.785c-1.088,0 -2.056,0.261 -2.903,0.785c-0.847,0.523 -1.508,1.257 -1.983,2.2c-0.475,0.944 -0.713,2.014 -0.713,3.213c0,1.198 0.238,2.269 0.713,3.212c0.475,0.944 1.136,1.677 1.983,2.201c0.847,0.523 1.815,0.785 2.903,0.785c1.088,0 2.056,-0.262 2.903,-0.785c0.847,-0.524 1.508,-1.257 1.983,-2.201c0.475,-0.943 0.713,-2.014 0.713,-3.212Z" style="fill:none;"/><path d="M219.433,0.207c0.179,0 0.327,0.058 0.444,0.175c0.117,0.117 0.176,0.265 0.176,0.444l0,8.554c0,1.005 -0.241,1.928 -0.723,2.768c-0.482,0.84 -1.137,1.502 -1.963,1.984c-0.826,0.482 -1.736,0.723 -2.727,0.723c-1.006,0 -1.922,-0.241 -2.748,-0.723c-0.826,-0.482 -1.481,-1.144 -1.963,-1.984c-0.482,-0.84 -0.723,-1.763 -0.723,-2.768l0,-8.554c0,-0.179 0.059,-0.327 0.176,-0.444c0.117,-0.117 0.279,-0.175 0.485,-0.175c0.166,0 0.31,0.058 0.434,0.175c0.124,0.117 0.186,0.265 0.186,0.444l0,8.554c0,0.771 0.186,1.48 0.558,2.128c0.372,0.647 0.878,1.16 1.518,1.539c0.641,0.379 1.333,0.568 2.077,0.568c0.757,0 1.456,-0.189 2.097,-0.568c0.64,-0.379 1.15,-0.892 1.529,-1.539c0.378,-0.648 0.568,-1.357 0.568,-2.128l0,-8.554c0,-0.179 0.055,-0.327 0.165,-0.444c0.11,-0.117 0.255,-0.175 0.434,-0.175Z" style="fill:none;"/><path d="M230.486,0.207c0.758,0 1.44,0.175 2.046,0.526c0.606,0.352 1.077,0.841 1.415,1.467c0.337,0.627 0.506,1.333 0.506,2.118c0,0.785 -0.169,1.501 -0.506,2.149c-0.338,0.647 -0.809,1.157 -1.415,1.529c-0.606,0.371 -1.288,0.557 -2.046,0.557l-4.276,0l0,5.496c0,0.179 -0.059,0.327 -0.176,0.444c-0.117,0.117 -0.265,0.176 -0.444,0.176c-0.179,0 -0.327,-0.059 -0.444,-0.176c-0.118,-0.117 -0.176,-0.265 -0.176,-0.444l0,-13.223c0,-0.179 0.058,-0.327 0.176,-0.444c0.117,-0.117 0.265,-0.175 0.444,-0.175l4.896,0Zm0,7.148c0.799,0 1.446,-0.289 1.942,-0.868c0.496,-0.578 0.744,-1.301 0.744,-2.169c0,-0.854 -0.248,-1.55 -0.744,-2.087c-0.496,-0.537 -1.143,-0.805 -1.942,-0.805l-4.276,0l0,5.929l4.276,0Z" style="fill:none;"/><path d="M248.275,13.842c0.027,0.111 0.041,0.193 0.041,0.248c0,0.179 -0.062,0.324 -0.186,0.434c-0.124,0.11 -0.268,0.165 -0.434,0.165c-0.137,0 -0.258,-0.037 -0.361,-0.113c-0.104,-0.076 -0.183,-0.176 -0.238,-0.3l-1.549,-3.781l-6.715,0l-1.529,3.781c-0.11,0.276 -0.296,0.413 -0.558,0.413c-0.193,0 -0.337,-0.048 -0.434,-0.144c-0.096,-0.097 -0.151,-0.227 -0.165,-0.393l0,-0.062c0,-0.082 0.007,-0.144 0.021,-0.186l5.454,-13.346c0.11,-0.276 0.317,-0.413 0.62,-0.413c0.138,0 0.258,0.037 0.361,0.113c0.104,0.076 0.183,0.176 0.238,0.3l5.434,13.284Zm-8.967,-4.566l5.744,0l-2.893,-7.065l-2.851,7.065Z" style="fill:none;"/><path d="M264.452,0.207c1.322,0 2.434,0.327 3.336,0.981c0.903,0.654 1.577,1.529 2.025,2.624c0.448,1.095 0.672,2.303 0.672,3.626c0,1.363 -0.224,2.589 -0.672,3.677c-0.448,1.088 -1.122,1.953 -2.025,2.593c-0.902,0.641 -2.014,0.961 -3.336,0.961l-5.269,0c-0.179,0 -0.327,-0.059 -0.444,-0.176c-0.117,-0.117 -0.175,-0.265 -0.175,-0.444l0,-13.223c0,-0.179 0.058,-0.327 0.175,-0.444c0.117,-0.117 0.265,-0.175 0.444,-0.175l5.269,0Zm-0.207,13.243c1.653,0 2.886,-0.555 3.698,-1.663c0.813,-1.109 1.219,-2.559 1.219,-4.349c0,-1.116 -0.172,-2.125 -0.516,-3.027c-0.345,-0.902 -0.885,-1.625 -1.622,-2.169c-0.737,-0.544 -1.663,-0.816 -2.779,-0.816l-4.38,0l0,12.024l4.38,0Z" style="fill:none;"/><path d="M287.343,7.438c0,1.418 -0.296,2.692 -0.888,3.822c-0.592,1.129 -1.412,2.014 -2.459,2.655c-1.046,0.64 -2.238,0.96 -3.574,0.96c-1.336,0 -2.527,-0.32 -3.574,-0.96c-1.047,-0.641 -1.866,-1.526 -2.459,-2.655c-0.592,-1.13 -0.888,-2.404 -0.888,-3.822c0,-1.433 0.296,-2.714 0.888,-3.843c0.593,-1.13 1.412,-2.011 2.459,-2.645c1.047,-0.633 2.238,-0.95 3.574,-0.95c1.336,0 2.528,0.317 3.574,0.95c1.047,0.634 1.867,1.515 2.459,2.645c0.592,1.129 0.888,2.41 0.888,3.843Zm-1.322,0c0,-1.199 -0.238,-2.269 -0.713,-3.213c-0.475,-0.943 -1.136,-1.677 -1.983,-2.2c-0.847,-0.524 -1.815,-0.785 -2.903,-0.785c-1.088,0 -2.056,0.261 -2.903,0.785c-0.847,0.523 -1.508,1.257 -1.983,2.2c-0.475,0.944 -0.713,2.014 -0.713,3.213c0,1.198 0.238,2.269 0.713,3.212c0.475,0.944 1.136,1.677 1.983,2.201c0.847,0.523 1.815,0.785 2.903,0.785c1.088,0 2.056,-0.262 2.903,-0.785c0.847,-0.524 1.508,-1.257 1.983,-2.201c0.475,-0.943 0.713,-2.014 0.713,-3.212Z" style="fill:none;"/><path d="M308.541,13.553c0.206,0.138 0.31,0.31 0.31,0.517c0,0.069 -0.028,0.158 -0.083,0.268c-0.055,0.097 -0.131,0.172 -0.227,0.228c-0.097,0.055 -0.2,0.082 -0.31,0.082c-0.138,0 -0.255,-0.027 -0.351,-0.082c-0.386,-0.221 -0.696,-0.579 -0.93,-1.075c-0.234,-0.496 -0.351,-1.288 -0.351,-2.376c0,-0.964 -0.269,-1.642 -0.806,-2.035c-0.537,-0.392 -1.178,-0.589 -1.921,-0.589l-4.587,0l0,5.558c0,0.179 -0.055,0.327 -0.165,0.444c-0.11,0.117 -0.255,0.176 -0.434,0.176c-0.193,0 -0.358,-0.059 -0.496,-0.176c-0.138,-0.117 -0.207,-0.265 -0.207,-0.444l0,-13.223c0,-0.179 0.059,-0.327 0.176,-0.444c0.117,-0.117 0.265,-0.175 0.444,-0.175l5.578,0c0.786,0 1.488,0.168 2.108,0.506c0.62,0.337 1.105,0.802 1.456,1.394c0.352,0.593 0.527,1.261 0.527,2.004c0,0.882 -0.23,1.657 -0.692,2.325c-0.461,0.668 -1.064,1.126 -1.808,1.374c0.606,0.234 1.102,0.63 1.488,1.188c0.386,0.557 0.585,1.236 0.599,2.035c0.014,0.854 0.072,1.453 0.176,1.797c0.103,0.344 0.272,0.585 0.506,0.723Zm-4.298,-6.198c0.483,-0.041 0.93,-0.2 1.343,-0.475c0.414,-0.276 0.744,-0.647 0.992,-1.116c0.248,-0.468 0.372,-1.005 0.372,-1.611c0,-0.785 -0.265,-1.436 -0.795,-1.953c-0.531,-0.516 -1.223,-0.774 -2.077,-0.774l-4.793,0l0,5.929l4.958,0Z" style="fill:none;"/><path d="M321.061,13.45c0.179,0 0.327,0.062 0.444,0.186c0.117,0.124 0.176,0.268 0.176,0.434c0,0.179 -0.059,0.323 -0.176,0.434c-0.117,0.11 -0.265,0.165 -0.444,0.165l-7.582,0c-0.179,0 -0.328,-0.059 -0.445,-0.176c-0.117,-0.117 -0.175,-0.265 -0.175,-0.444l0,-13.223c0,-0.179 0.058,-0.327 0.175,-0.444c0.117,-0.117 0.266,-0.175 0.445,-0.175l7.582,0c0.179,0 0.327,0.058 0.444,0.175c0.117,0.117 0.176,0.265 0.176,0.444c0,0.179 -0.059,0.324 -0.176,0.434c-0.117,0.11 -0.265,0.166 -0.444,0.166l-6.901,0l0,5.185l5.971,0c0.179,0 0.327,0.059 0.444,0.176c0.117,0.117 0.176,0.265 0.176,0.444c0,0.179 -0.059,0.324 -0.176,0.434c-0.117,0.11 -0.265,0.165 -0.444,0.165l-5.971,0l0,5.62l6.901,0Z" style="fill:none;"/><path d="M326.928,14.028c-0.013,0.179 -0.082,0.331 -0.206,0.455c-0.124,0.124 -0.276,0.186 -0.455,0.186c-0.192,0 -0.347,-0.059 -0.465,-0.176c-0.117,-0.117 -0.175,-0.272 -0.175,-0.465l0,-13.181c0,-0.193 0.062,-0.348 0.186,-0.465c0.124,-0.117 0.282,-0.175 0.475,-0.175c0.179,0 0.331,0.062 0.455,0.186c0.123,0.124 0.185,0.275 0.185,0.454l0,13.181Z" style="fill:none;"/><path d="M344.386,0.207c1.323,0 2.435,0.327 3.337,0.981c0.902,0.654 1.577,1.529 2.025,2.624c0.447,1.095 0.671,2.303 0.671,3.626c0,1.363 -0.224,2.589 -0.671,3.677c-0.448,1.088 -1.123,1.953 -2.025,2.593c-0.902,0.641 -2.014,0.961 -3.337,0.961l-5.268,0c-0.179,0 -0.327,-0.059 -0.444,-0.176c-0.117,-0.117 -0.176,-0.265 -0.176,-0.444l0,-13.223c0,-0.179 0.059,-0.327 0.176,-0.444c0.117,-0.117 0.265,-0.175 0.444,-0.175l5.268,0Zm-0.206,13.243c1.653,0 2.885,-0.555 3.698,-1.663c0.813,-1.109 1.219,-2.559 1.219,-4.349c0,-1.116 -0.172,-2.125 -0.517,-3.027c-0.344,-0.902 -0.885,-1.625 -1.621,-2.169c-0.737,-0.544 -1.664,-0.816 -2.779,-0.816l-4.38,0l0,12.024l4.38,0Z" style="fill:none;"/><path d="M362.588,13.45c0.179,0 0.327,0.062 0.444,0.186c0.117,0.124 0.176,0.268 0.176,0.434c0,0.179 -0.059,0.323 -0.176,0.434c-0.117,0.11 -0.265,0.165 -0.444,0.165l-7.582,0c-0.179,0 -0.327,-0.059 -0.444,-0.176c-0.117,-0.117 -0.176,-0.265 -0.176,-0.444l0,-13.223c0,-0.179 0.059,-0.327 0.176,-0.444c0.117,-0.117 0.265,-0.175 0.444,-0.175l7.582,0c0.179,0 0.327,0.058 0.444,0.175c0.117,0.117 0.176,0.265 0.176,0.444c0,0.179 -0.059,0.324 -0.176,0.434c-0.117,0.11 -0.265,0.166 -0.444,0.166l-6.9,0l0,5.185l5.97,0c0.179,0 0.328,0.059 0.445,0.176c0.117,0.117 0.175,0.265 0.175,0.444c0,0.179 -0.058,0.324 -0.175,0.434c-0.117,0.11 -0.266,0.165 -0.445,0.165l-5.97,0l0,5.62l6.9,0Z" style="fill:none;"/><path d="M384.385,13.553c0.206,0.138 0.31,0.31 0.31,0.517c0,0.069 -0.028,0.158 -0.083,0.268c-0.055,0.097 -0.131,0.172 -0.227,0.228c-0.097,0.055 -0.2,0.082 -0.31,0.082c-0.138,0 -0.255,-0.027 -0.351,-0.082c-0.386,-0.221 -0.696,-0.579 -0.93,-1.075c-0.234,-0.496 -0.351,-1.288 -0.351,-2.376c0,-0.964 -0.269,-1.642 -0.806,-2.035c-0.537,-0.392 -1.178,-0.589 -1.921,-0.589l-4.587,0l0,5.558c0,0.179 -0.055,0.327 -0.165,0.444c-0.111,0.117 -0.255,0.176 -0.434,0.176c-0.193,0 -0.358,-0.059 -0.496,-0.176c-0.138,-0.117 -0.207,-0.265 -0.207,-0.444l0,-13.223c0,-0.179 0.059,-0.327 0.176,-0.444c0.117,-0.117 0.265,-0.175 0.444,-0.175l5.578,0c0.786,0 1.488,0.168 2.108,0.506c0.62,0.337 1.105,0.802 1.456,1.394c0.352,0.593 0.527,1.261 0.527,2.004c0,0.882 -0.231,1.657 -0.692,2.325c-0.461,0.668 -1.064,1.126 -1.808,1.374c0.606,0.234 1.102,0.63 1.488,1.188c0.385,0.557 0.585,1.236 0.599,2.035c0.014,0.854 0.072,1.453 0.176,1.797c0.103,0.344 0.272,0.585 0.506,0.723Zm-4.298,-6.198c0.482,-0.041 0.93,-0.2 1.343,-0.475c0.414,-0.276 0.744,-0.647 0.992,-1.116c0.248,-0.468 0.372,-1.005 0.372,-1.611c0,-0.785 -0.265,-1.436 -0.796,-1.953c-0.53,-0.516 -1.222,-0.774 -2.076,-0.774l-4.793,0l0,5.929l4.958,0Z" style="fill:none;"/><path d="M401.388,7.438c0,1.418 -0.296,2.692 -0.888,3.822c-0.593,1.129 -1.412,2.014 -2.459,2.655c-1.047,0.64 -2.238,0.96 -3.574,0.96c-1.336,0 -2.527,-0.32 -3.574,-0.96c-1.047,-0.641 -1.867,-1.526 -2.459,-2.655c-0.592,-1.13 -0.888,-2.404 -0.888,-3.822c0,-1.433 0.296,-2.714 0.888,-3.843c0.592,-1.13 1.412,-2.011 2.459,-2.645c1.047,-0.633 2.238,-0.95 3.574,-0.95c1.336,0 2.527,0.317 3.574,0.95c1.047,0.634 1.866,1.515 2.459,2.645c0.592,1.129 0.888,2.41 0.888,3.843Zm-1.322,0c0,-1.199 -0.238,-2.269 -0.713,-3.213c-0.475,-0.943 -1.136,-1.677 -1.983,-2.2c-0.847,-0.524 -1.815,-0.785 -2.903,-0.785c-1.088,0 -2.056,0.261 -2.903,0.785c-0.847,0.523 -1.508,1.257 -1.983,2.2c-0.475,0.944 -0.713,2.014 -0.713,3.213c0,1.198 0.238,2.269 0.713,3.212c0.475,0.944 1.136,1.677 1.983,2.201c0.847,0.523 1.815,0.785 2.903,0.785c1.088,0 2.056,-0.262 2.903,-0.785c0.847,-0.524 1.508,-1.257 1.983,-2.201c0.475,-0.943 0.713,-2.014 0.713,-3.212Z" style="fill:none;"/><path d="M417.958,0.207c0.165,0 0.306,0.058 0.423,0.175c0.117,0.117 0.176,0.265 0.176,0.444l0,13.223c0,0.179 -0.062,0.327 -0.186,0.444c-0.124,0.117 -0.276,0.176 -0.455,0.176c-0.192,0 -0.351,-0.059 -0.475,-0.176c-0.124,-0.117 -0.186,-0.265 -0.186,-0.444l0,-11.363l-4.855,7.355c-0.138,0.179 -0.296,0.262 -0.475,0.248l-0.041,0c-0.166,0 -0.317,-0.083 -0.455,-0.248l-4.855,-7.396l0,11.404c0,0.179 -0.059,0.327 -0.176,0.444c-0.117,0.117 -0.265,0.176 -0.444,0.176c-0.179,0 -0.324,-0.059 -0.434,-0.176c-0.11,-0.117 -0.165,-0.265 -0.165,-0.444l0,-13.223c0,-0.165 0.058,-0.309 0.176,-0.433c0.117,-0.124 0.265,-0.186 0.444,-0.186c0.096,0 0.199,0.024 0.31,0.072c0.11,0.048 0.192,0.114 0.248,0.196l5.413,8.12l5.454,-8.12c0.151,-0.206 0.337,-0.296 0.558,-0.268Z" style="fill:none;"/><path d="M434.259,13.842c0.027,0.111 0.041,0.193 0.041,0.248c0,0.179 -0.062,0.324 -0.186,0.434c-0.124,0.11 -0.269,0.165 -0.434,0.165c-0.138,0 -0.258,-0.037 -0.361,-0.113c-0.104,-0.076 -0.183,-0.176 -0.238,-0.3l-1.549,-3.781l-6.715,0l-1.529,3.781c-0.11,0.276 -0.296,0.413 -0.558,0.413c-0.193,0 -0.337,-0.048 -0.434,-0.144c-0.096,-0.097 -0.151,-0.227 -0.165,-0.393l0,-0.062c0,-0.082 0.007,-0.144 0.021,-0.186l5.454,-13.346c0.11,-0.276 0.317,-0.413 0.62,-0.413c0.138,0 0.258,0.037 0.361,0.113c0.104,0.076 0.183,0.176 0.238,0.3l5.434,13.284Zm-8.967,-4.566l5.744,0l-2.893,-7.065l-2.851,7.065Z" style="fill:none;"/></svg>