<?xml version="1.0" encoding="UTF-8" standalone="no"?><!DOCTYPE svg PUBLIC "-//W3C//DTD SVG 1.1//EN" "http://www.w3.org/Graphics/SVG/1.1/DTD/svg11.dtd"><svg width="100%" height="100%" viewBox="0 0 351 21" version="1.1" xmlns="http://www.w3.org/2000/svg" xmlns:xlink="http://www.w3.org/1999/xlink" xml:space="preserve" style="fill-rule:evenodd;clip-rule:evenodd;stroke-linejoin:round;stroke-miterlimit:1.41421;"><g transform="matrix(1.29127,0,0,1.29127,-11.2403,2.30829)"><path d="M18.24,5.279c0,1.115 -0.187,2.088 -0.562,2.918c-0.375,0.831 -0.906,1.465 -1.594,1.903c-0.687,0.437 -1.489,0.656 -2.406,0.656c-0.896,0 -1.69,-0.22 -2.383,-0.66c-0.693,-0.44 -1.23,-1.068 -1.613,-1.883c-0.383,-0.815 -0.58,-1.759 -0.59,-2.832l0,-0.82c0,-1.094 0.19,-2.06 0.57,-2.899c0.381,-0.838 0.918,-1.48 1.614,-1.926c0.695,-0.445 1.491,-0.668 2.386,-0.668c0.912,0 1.715,0.22 2.411,0.661c0.695,0.44 1.23,1.078 1.605,1.914c0.375,0.836 0.562,1.808 0.562,2.918l0,0.718Zm-1.492,-0.734c0,-1.349 -0.271,-2.384 -0.812,-3.106c-0.542,-0.721 -1.3,-1.082 -2.274,-1.082c-0.948,0 -1.694,0.361 -2.238,1.082c-0.544,0.722 -0.824,1.723 -0.84,3.004l0,0.836c0,1.308 0.275,2.335 0.824,3.082c0.55,0.748 1.306,1.121 2.27,1.121c0.969,0 1.719,-0.352 2.25,-1.058c0.531,-0.706 0.805,-1.718 0.82,-3.035l0,-0.844Z" style="fill:none;"/><path d="M25.481,6.303c0,-1.318 0.305,-2.366 0.914,-3.145c0.61,-0.778 1.417,-1.168 2.422,-1.168c1.031,0 1.836,0.365 2.414,1.094l0.07,-0.938l1.321,0l0,8.25c0,1.094 -0.324,1.956 -0.973,2.586c-0.648,0.631 -1.519,0.946 -2.613,0.946c-0.61,0 -1.206,-0.13 -1.789,-0.391c-0.584,-0.26 -1.029,-0.617 -1.336,-1.07l0.75,-0.867c0.62,0.765 1.377,1.148 2.273,1.148c0.703,0 1.252,-0.198 1.645,-0.594c0.393,-0.396 0.59,-0.953 0.59,-1.672l0,-0.726c-0.579,0.667 -1.368,1 -2.368,1c-0.989,0 -1.79,-0.399 -2.402,-1.195c-0.612,-0.797 -0.918,-1.883 -0.918,-3.258Zm1.453,0.164c0,0.953 0.196,1.702 0.586,2.246c0.391,0.544 0.938,0.816 1.641,0.816c0.911,0 1.581,-0.414 2.008,-1.242l0,-3.859c-0.443,-0.808 -1.107,-1.211 -1.993,-1.211c-0.703,0 -1.252,0.273 -1.648,0.82c-0.396,0.547 -0.594,1.357 -0.594,2.43Z" style="fill:none;"/><path d="M40.82,10.6c-0.083,-0.167 -0.151,-0.464 -0.203,-0.891c-0.672,0.698 -1.474,1.047 -2.406,1.047c-0.834,0 -1.517,-0.236 -2.051,-0.707c-0.534,-0.472 -0.801,-1.069 -0.801,-1.793c0,-0.88 0.335,-1.564 1.004,-2.051c0.669,-0.487 1.611,-0.73 2.824,-0.73l1.407,0l0,-0.664c0,-0.506 -0.151,-0.908 -0.454,-1.207c-0.302,-0.3 -0.747,-0.45 -1.335,-0.45c-0.516,0 -0.948,0.13 -1.297,0.391c-0.349,0.26 -0.524,0.575 -0.524,0.945l-1.453,0c0,-0.422 0.15,-0.829 0.449,-1.222c0.3,-0.394 0.706,-0.705 1.219,-0.934c0.513,-0.229 1.077,-0.344 1.691,-0.344c0.974,0 1.737,0.244 2.29,0.731c0.552,0.487 0.838,1.157 0.859,2.011l0,3.891c0,0.776 0.099,1.393 0.297,1.852l0,0.125l-1.516,0Zm-2.398,-1.102c0.453,0 0.883,-0.117 1.289,-0.352c0.406,-0.234 0.7,-0.539 0.883,-0.914l0,-1.734l-1.133,0c-1.771,0 -2.656,0.518 -2.656,1.555c0,0.453 0.151,0.807 0.453,1.062c0.302,0.255 0.69,0.383 1.164,0.383Z" style="fill:none;"/><path d="M47.065,0.1l0,2.046l1.579,0l0,1.118l-1.579,0l0,5.248c0,0.339 0.071,0.594 0.211,0.763c0.141,0.17 0.381,0.254 0.719,0.254c0.167,0 0.396,-0.031 0.688,-0.093l0,1.165c-0.381,0.103 -0.75,0.155 -1.11,0.155c-0.646,0 -1.133,-0.195 -1.461,-0.586c-0.328,-0.391 -0.492,-0.945 -0.492,-1.664l0,-5.242l-1.539,0l0,-1.118l1.539,0l0,-2.046l1.445,0Z" style="fill:none;"/><path d="M50.592,6.295c0,-0.828 0.163,-1.573 0.488,-2.234c0.326,-0.662 0.779,-1.172 1.36,-1.532c0.58,-0.359 1.243,-0.539 1.988,-0.539c1.151,0 2.082,0.399 2.793,1.196c0.711,0.796 1.066,1.856 1.066,3.179l0,0.102c0,0.823 -0.157,1.561 -0.472,2.215c-0.315,0.653 -0.766,1.162 -1.352,1.527c-0.586,0.365 -1.259,0.547 -2.019,0.547c-1.146,0 -2.075,-0.399 -2.786,-1.195c-0.71,-0.797 -1.066,-1.852 -1.066,-3.165l0,-0.101Zm1.453,0.172c0,0.937 0.218,1.69 0.653,2.258c0.434,0.567 1.016,0.851 1.746,0.851c0.734,0 1.317,-0.288 1.75,-0.863c0.432,-0.576 0.648,-1.382 0.648,-2.418c0,-0.927 -0.22,-1.678 -0.66,-2.254c-0.44,-0.576 -1.025,-0.863 -1.754,-0.863c-0.714,0 -1.289,0.284 -1.727,0.851c-0.437,0.568 -0.656,1.38 -0.656,2.438Z" style="fill:none;"/><path d="M69.747,3.443c-0.219,-0.036 -0.456,-0.054 -0.711,-0.054c-0.948,0 -1.591,0.403 -1.93,1.211l0,6l-1.445,0l0,-8.454l1.406,0l0.023,0.977c0.474,-0.755 1.146,-1.133 2.016,-1.133c0.281,0 0.495,0.037 0.641,0.11l0,1.343Z" style="fill:none;"/><path d="M71.336,6.295c0,-0.828 0.163,-1.573 0.488,-2.234c0.326,-0.662 0.779,-1.172 1.359,-1.532c0.581,-0.359 1.244,-0.539 1.989,-0.539c1.151,0 2.082,0.399 2.793,1.196c0.711,0.796 1.066,1.856 1.066,3.179l0,0.102c0,0.823 -0.157,1.561 -0.473,2.215c-0.315,0.653 -0.765,1.162 -1.351,1.527c-0.586,0.365 -1.259,0.547 -2.02,0.547c-1.145,0 -2.074,-0.399 -2.785,-1.195c-0.711,-0.797 -1.066,-1.852 -1.066,-3.165l0,-0.101Zm1.453,0.172c0,0.937 0.217,1.69 0.652,2.258c0.435,0.567 1.017,0.851 1.746,0.851c0.735,0 1.318,-0.288 1.75,-0.863c0.433,-0.576 0.649,-1.382 0.649,-2.418c0,-0.927 -0.22,-1.678 -0.66,-2.254c-0.44,-0.576 -1.025,-0.863 -1.754,-0.863c-0.714,0 -1.289,0.284 -1.727,0.851c-0.437,0.568 -0.656,1.38 -0.656,2.438Z" style="fill:none;"/><path d="M85.151,10.756c-1.145,0 -2.078,-0.376 -2.796,-1.129c-0.719,-0.753 -1.079,-1.759 -1.079,-3.02l0,-0.265c0,-0.839 0.161,-1.587 0.481,-2.246c0.32,-0.659 0.768,-1.175 1.344,-1.547c0.575,-0.373 1.199,-0.559 1.871,-0.559c1.099,0 1.953,0.362 2.562,1.086c0.61,0.724 0.914,1.761 0.914,3.11l0,0.601l-5.726,0c0.021,0.833 0.264,1.507 0.73,2.02c0.466,0.513 1.059,0.769 1.778,0.769c0.51,0 0.942,-0.104 1.296,-0.312c0.355,-0.209 0.664,-0.485 0.93,-0.828l0.883,0.687c-0.708,1.089 -1.771,1.633 -3.188,1.633Zm-0.179,-7.578c-0.584,0 -1.073,0.212 -1.469,0.636c-0.396,0.425 -0.641,1.02 -0.734,1.786l4.234,0l0,-0.11c-0.042,-0.734 -0.24,-1.303 -0.594,-1.707c-0.354,-0.403 -0.833,-0.605 -1.437,-0.605Z" style="fill:none;"/><path d="M96.139,9.764c-0.563,0.661 -1.388,0.992 -2.477,0.992c-0.901,0 -1.587,-0.262 -2.058,-0.785c-0.472,-0.524 -0.71,-1.298 -0.715,-2.325l0,-5.5l1.445,0l0,5.461c0,1.282 0.521,1.922 1.563,1.922c1.104,0 1.838,-0.411 2.203,-1.234l0,-6.149l1.445,0l0,8.454l-1.375,0l-0.031,-0.836Z" style="fill:none;"/><path d="M110.52,10.6c-0.083,-0.167 -0.151,-0.464 -0.203,-0.891c-0.672,0.698 -1.474,1.047 -2.406,1.047c-0.834,0 -1.517,-0.236 -2.051,-0.707c-0.534,-0.472 -0.801,-1.069 -0.801,-1.793c0,-0.88 0.335,-1.564 1.004,-2.051c0.669,-0.487 1.611,-0.73 2.824,-0.73l1.407,0l0,-0.664c0,-0.506 -0.151,-0.908 -0.454,-1.207c-0.302,-0.3 -0.747,-0.45 -1.335,-0.45c-0.516,0 -0.948,0.13 -1.297,0.391c-0.349,0.26 -0.524,0.575 -0.524,0.945l-1.453,0c0,-0.422 0.15,-0.829 0.449,-1.222c0.3,-0.394 0.706,-0.705 1.219,-0.934c0.513,-0.229 1.077,-0.344 1.691,-0.344c0.974,0 1.737,0.244 2.29,0.731c0.552,0.487 0.838,1.157 0.859,2.011l0,3.891c0,0.776 0.099,1.393 0.297,1.852l0,0.125l-1.516,0Zm-2.398,-1.102c0.453,0 0.883,-0.117 1.289,-0.352c0.406,-0.234 0.7,-0.539 0.883,-0.914l0,-1.734l-1.133,0c-1.771,0 -2.656,0.518 -2.656,1.555c0,0.453 0.151,0.807 0.453,1.062c0.302,0.255 0.69,0.383 1.164,0.383Z" style="fill:none;"/><path d="M123.651,3.443c-0.218,-0.036 -0.455,-0.054 -0.711,-0.054c-0.947,0 -1.591,0.403 -1.929,1.211l0,6l-1.446,0l0,-8.454l1.407,0l0.023,0.977c0.474,-0.755 1.146,-1.133 2.016,-1.133c0.281,0 0.495,0.037 0.64,0.11l0,1.343Z" style="fill:none;"/><path d="M125.24,6.295c0,-0.828 0.163,-1.573 0.489,-2.234c0.325,-0.662 0.778,-1.172 1.359,-1.532c0.581,-0.359 1.244,-0.539 1.988,-0.539c1.151,0 2.082,0.399 2.793,1.196c0.711,0.796 1.067,1.856 1.067,3.179l0,0.102c0,0.823 -0.158,1.561 -0.473,2.215c-0.315,0.653 -0.765,1.162 -1.351,1.527c-0.586,0.365 -1.26,0.547 -2.02,0.547c-1.146,0 -2.074,-0.399 -2.785,-1.195c-0.711,-0.797 -1.067,-1.852 -1.067,-3.165l0,-0.101Zm1.454,0.172c0,0.937 0.217,1.69 0.652,2.258c0.435,0.567 1.017,0.851 1.746,0.851c0.734,0 1.318,-0.288 1.75,-0.863c0.432,-0.576 0.648,-1.382 0.648,-2.418c0,-0.927 -0.22,-1.678 -0.66,-2.254c-0.44,-0.576 -1.024,-0.863 -1.754,-0.863c-0.713,0 -1.289,0.284 -1.726,0.851c-0.438,0.568 -0.656,1.38 -0.656,2.438Z" style="fill:none;"/><path d="M140.767,9.764c-0.562,0.661 -1.388,0.992 -2.477,0.992c-0.901,0 -1.587,-0.262 -2.058,-0.785c-0.471,-0.524 -0.71,-1.298 -0.715,-2.325l0,-5.5l1.445,0l0,5.461c0,1.282 0.521,1.922 1.563,1.922c1.104,0 1.838,-0.411 2.203,-1.234l0,-6.149l1.445,0l0,8.454l-1.375,0l-0.031,-0.836Z" style="fill:none;"/><path d="M152.309,6.467c0,1.286 -0.294,2.323 -0.883,3.109c-0.588,0.787 -1.385,1.18 -2.39,1.18c-1.026,0 -1.834,-0.326 -2.422,-0.977l0,4.071l-1.445,0l0,-11.704l1.32,0l0.07,0.938c0.589,-0.729 1.406,-1.094 2.453,-1.094c1.016,0 1.819,0.383 2.411,1.149c0.591,0.765 0.886,1.83 0.886,3.195l0,0.133Zm-1.445,-0.164c0,-0.953 -0.203,-1.706 -0.609,-2.258c-0.407,-0.552 -0.964,-0.828 -1.672,-0.828c-0.875,0 -1.532,0.388 -1.969,1.164l0,4.039c0.432,0.771 1.094,1.156 1.984,1.156c0.693,0 1.244,-0.275 1.653,-0.824c0.409,-0.55 0.613,-1.366 0.613,-2.449Z" style="fill:none;"/><path d="M160.164,10.6c-0.083,-0.167 -0.151,-0.464 -0.203,-0.891c-0.672,0.698 -1.474,1.047 -2.406,1.047c-0.834,0 -1.517,-0.236 -2.051,-0.707c-0.534,-0.472 -0.801,-1.069 -0.801,-1.793c0,-0.88 0.335,-1.564 1.004,-2.051c0.669,-0.487 1.611,-0.73 2.824,-0.73l1.406,0l0,-0.664c0,-0.506 -0.151,-0.908 -0.453,-1.207c-0.302,-0.3 -0.747,-0.45 -1.336,-0.45c-0.515,0 -0.948,0.13 -1.297,0.391c-0.349,0.26 -0.523,0.575 -0.523,0.945l-1.453,0c0,-0.422 0.15,-0.829 0.449,-1.222c0.3,-0.394 0.706,-0.705 1.219,-0.934c0.513,-0.229 1.077,-0.344 1.691,-0.344c0.974,0 1.737,0.244 2.289,0.731c0.552,0.487 0.839,1.157 0.86,2.011l0,3.891c0,0.776 0.099,1.393 0.297,1.852l0,0.125l-1.516,0Zm-2.399,-1.102c0.454,0 0.883,-0.117 1.29,-0.352c0.406,-0.234 0.7,-0.539 0.882,-0.914l0,-1.734l-1.132,0c-1.771,0 -2.657,0.518 -2.657,1.555c0,0.453 0.151,0.807 0.453,1.062c0.303,0.255 0.691,0.383 1.164,0.383Z" style="fill:none;"/><path d="M168.858,6.303c0,-1.297 0.307,-2.34 0.922,-3.129c0.614,-0.789 1.419,-1.184 2.414,-1.184c0.989,0 1.773,0.339 2.351,1.016l0,-4.406l1.445,0l0,12l-1.328,0l-0.07,-0.907c-0.578,0.709 -1.383,1.063 -2.414,1.063c-0.979,0 -1.777,-0.401 -2.395,-1.203c-0.617,-0.802 -0.925,-1.849 -0.925,-3.141l0,-0.109Zm1.445,0.164c0,0.958 0.198,1.708 0.594,2.25c0.396,0.541 0.942,0.812 1.64,0.812c0.917,0 1.586,-0.411 2.008,-1.234l0,-3.883c-0.432,-0.797 -1.096,-1.195 -1.992,-1.195c-0.708,0 -1.26,0.273 -1.656,0.82c-0.396,0.547 -0.594,1.357 -0.594,2.43Z" style="fill:none;"/><path d="M178.65,6.295c0,-0.828 0.163,-1.573 0.488,-2.234c0.326,-0.662 0.779,-1.172 1.36,-1.532c0.58,-0.359 1.243,-0.539 1.988,-0.539c1.151,0 2.082,0.399 2.793,1.196c0.711,0.796 1.066,1.856 1.066,3.179l0,0.102c0,0.823 -0.157,1.561 -0.472,2.215c-0.316,0.653 -0.766,1.162 -1.352,1.527c-0.586,0.365 -1.259,0.547 -2.02,0.547c-1.145,0 -2.074,-0.399 -2.785,-1.195c-0.711,-0.797 -1.066,-1.852 -1.066,-3.165l0,-0.101Zm1.453,0.172c0,0.937 0.217,1.69 0.652,2.258c0.435,0.567 1.017,0.851 1.746,0.851c0.735,0 1.318,-0.288 1.75,-0.863c0.433,-0.576 0.649,-1.382 0.649,-2.418c0,-0.927 -0.22,-1.678 -0.66,-2.254c-0.44,-0.576 -1.025,-0.863 -1.754,-0.863c-0.714,0 -1.289,0.284 -1.727,0.851c-0.437,0.568 -0.656,1.38 -0.656,2.438Z" style="fill:none;"/><path d="M197.805,3.443c-0.219,-0.036 -0.456,-0.054 -0.711,-0.054c-0.948,0 -1.592,0.403 -1.93,1.211l0,6l-1.445,0l0,-8.454l1.406,0l0.023,0.977c0.474,-0.755 1.146,-1.133 2.016,-1.133c0.281,0 0.495,0.037 0.641,0.11l0,1.343Z" style="fill:none;"/><path d="M203.292,10.756c-1.146,0 -2.078,-0.376 -2.797,-1.129c-0.719,-0.753 -1.078,-1.759 -1.078,-3.02l0,-0.265c0,-0.839 0.16,-1.587 0.481,-2.246c0.32,-0.659 0.768,-1.175 1.343,-1.547c0.576,-0.373 1.199,-0.559 1.871,-0.559c1.099,0 1.953,0.362 2.563,1.086c0.609,0.724 0.914,1.761 0.914,3.11l0,0.601l-5.727,0c0.021,0.833 0.265,1.507 0.731,2.02c0.466,0.513 1.058,0.769 1.777,0.769c0.511,0 0.943,-0.104 1.297,-0.312c0.354,-0.209 0.664,-0.485 0.93,-0.828l0.883,0.687c-0.709,1.089 -1.771,1.633 -3.188,1.633Zm-0.18,-7.578c-0.583,0 -1.073,0.212 -1.468,0.636c-0.396,0.425 -0.641,1.02 -0.735,1.786l4.235,0l0,-0.11c-0.042,-0.734 -0.24,-1.303 -0.594,-1.707c-0.354,-0.403 -0.833,-0.605 -1.438,-0.605Z" style="fill:none;"/><path d="M210.631,10.6l-1.445,0l0,-8.454l1.445,0l0,8.454Zm-1.562,-10.696c0,-0.234 0.071,-0.432 0.214,-0.593c0.144,-0.162 0.356,-0.243 0.637,-0.243c0.281,0 0.495,0.081 0.641,0.243c0.146,0.161 0.219,0.359 0.219,0.593c0,0.235 -0.073,0.43 -0.219,0.586c-0.146,0.156 -0.36,0.235 -0.641,0.235c-0.281,0 -0.493,-0.079 -0.637,-0.235c-0.143,-0.156 -0.214,-0.351 -0.214,-0.586Z" style="fill:none;"/><path d="M218.153,6.303c0,-1.297 0.307,-2.34 0.922,-3.129c0.614,-0.789 1.419,-1.184 2.414,-1.184c0.99,0 1.773,0.339 2.351,1.016l0,-4.406l1.446,0l0,12l-1.328,0l-0.071,-0.907c-0.578,0.709 -1.382,1.063 -2.414,1.063c-0.979,0 -1.777,-0.401 -2.394,-1.203c-0.617,-0.802 -0.926,-1.849 -0.926,-3.141l0,-0.109Zm1.445,0.164c0,0.958 0.198,1.708 0.594,2.25c0.396,0.541 0.943,0.812 1.641,0.812c0.916,0 1.586,-0.411 2.007,-1.234l0,-3.883c-0.432,-0.797 -1.096,-1.195 -1.992,-1.195c-0.708,0 -1.26,0.273 -1.656,0.82c-0.396,0.547 -0.594,1.357 -0.594,2.43Z" style="fill:none;"/><path d="M231.836,10.756c-1.146,0 -2.078,-0.376 -2.797,-1.129c-0.719,-0.753 -1.078,-1.759 -1.078,-3.02l0,-0.265c0,-0.839 0.16,-1.587 0.48,-2.246c0.321,-0.659 0.769,-1.175 1.344,-1.547c0.576,-0.373 1.199,-0.559 1.871,-0.559c1.099,0 1.953,0.362 2.563,1.086c0.609,0.724 0.914,1.761 0.914,3.11l0,0.601l-5.727,0c0.021,0.833 0.264,1.507 0.731,2.02c0.466,0.513 1.058,0.769 1.777,0.769c0.51,0 0.943,-0.104 1.297,-0.312c0.354,-0.209 0.664,-0.485 0.929,-0.828l0.883,0.687c-0.708,1.089 -1.771,1.633 -3.187,1.633Zm-0.18,-7.578c-0.583,0 -1.073,0.212 -1.469,0.636c-0.395,0.425 -0.64,1.02 -0.734,1.786l4.234,0l0,-0.11c-0.041,-0.734 -0.239,-1.303 -0.593,-1.707c-0.355,-0.403 -0.834,-0.605 -1.438,-0.605Z" style="fill:none;"/><path d="M246.451,3.443c-0.218,-0.036 -0.455,-0.054 -0.711,-0.054c-0.947,0 -1.591,0.403 -1.929,1.211l0,6l-1.446,0l0,-8.454l1.407,0l0.023,0.977c0.474,-0.755 1.146,-1.133 2.016,-1.133c0.281,0 0.495,0.037 0.64,0.11l0,1.343Z" style="fill:none;"/><path d="M248.04,6.295c0,-0.828 0.163,-1.573 0.489,-2.234c0.325,-0.662 0.778,-1.172 1.359,-1.532c0.581,-0.359 1.244,-0.539 1.988,-0.539c1.151,0 2.082,0.399 2.793,1.196c0.711,0.796 1.067,1.856 1.067,3.179l0,0.102c0,0.823 -0.158,1.561 -0.473,2.215c-0.315,0.653 -0.765,1.162 -1.351,1.527c-0.586,0.365 -1.26,0.547 -2.02,0.547c-1.146,0 -2.074,-0.399 -2.785,-1.195c-0.711,-0.797 -1.067,-1.852 -1.067,-3.165l0,-0.101Zm1.454,0.172c0,0.937 0.217,1.69 0.652,2.258c0.435,0.567 1.017,0.851 1.746,0.851c0.734,0 1.318,-0.288 1.75,-0.863c0.432,-0.576 0.648,-1.382 0.648,-2.418c0,-0.927 -0.22,-1.678 -0.66,-2.254c-0.44,-0.576 -1.024,-0.863 -1.754,-0.863c-0.713,0 -1.289,0.284 -1.726,0.851c-0.438,0.568 -0.656,1.38 -0.656,2.438Z" style="fill:none;"/><path d="M259.708,2.146l0.039,0.938c0.62,-0.729 1.455,-1.094 2.508,-1.094c1.182,0 1.987,0.453 2.414,1.36c0.281,-0.407 0.647,-0.735 1.097,-0.985c0.451,-0.25 0.983,-0.375 1.598,-0.375c1.854,0 2.797,0.982 2.828,2.946l0,5.664l-1.445,0l0,-5.579c0,-0.604 -0.138,-1.056 -0.414,-1.355c-0.276,-0.299 -0.74,-0.449 -1.391,-0.449c-0.536,0 -0.982,0.16 -1.336,0.48c-0.354,0.321 -0.56,0.752 -0.617,1.293l0,5.61l-1.453,0l0,-5.539c0,-1.23 -0.602,-1.844 -1.805,-1.844c-0.948,0 -1.596,0.403 -1.945,1.211l0,6.172l-1.446,0l0,-8.454l1.368,0Z" style="fill:none;"/><path d="M278.39,10.6c-0.083,-0.167 -0.151,-0.464 -0.203,-0.891c-0.672,0.698 -1.474,1.047 -2.406,1.047c-0.833,0 -1.517,-0.236 -2.051,-0.707c-0.534,-0.472 -0.8,-1.069 -0.8,-1.793c0,-0.88 0.334,-1.564 1.003,-2.051c0.67,-0.487 1.611,-0.73 2.825,-0.73l1.406,0l0,-0.664c0,-0.506 -0.151,-0.908 -0.453,-1.207c-0.302,-0.3 -0.748,-0.45 -1.336,-0.45c-0.516,0 -0.948,0.13 -1.297,0.391c-0.349,0.26 -0.523,0.575 -0.523,0.945l-1.454,0c0,-0.422 0.15,-0.829 0.45,-1.222c0.299,-0.394 0.705,-0.705 1.218,-0.934c0.513,-0.229 1.077,-0.344 1.692,-0.344c0.974,0 1.737,0.244 2.289,0.731c0.552,0.487 0.838,1.157 0.859,2.011l0,3.891c0,0.776 0.099,1.393 0.297,1.852l0,0.125l-1.516,0Zm-2.398,-1.102c0.453,0 0.883,-0.117 1.289,-0.352c0.406,-0.234 0.701,-0.539 0.883,-0.914l0,-1.734l-1.133,0c-1.771,0 -2.656,0.518 -2.656,1.555c0,0.453 0.151,0.807 0.453,1.062c0.302,0.255 0.69,0.383 1.164,0.383Z" style="fill:none;"/><path d="M18.24,5.279c0,1.115 -0.187,2.088 -0.562,2.918c-0.375,0.831 -0.906,1.465 -1.594,1.903c-0.687,0.437 -1.489,0.656 -2.406,0.656c-0.896,0 -1.69,-0.22 -2.383,-0.66c-0.693,-0.44 -1.23,-1.068 -1.613,-1.883c-0.383,-0.815 -0.58,-1.759 -0.59,-2.832l0,-0.82c0,-1.094 0.19,-2.06 0.57,-2.899c0.381,-0.838 0.918,-1.48 1.614,-1.926c0.695,-0.445 1.491,-0.668 2.386,-0.668c0.912,0 1.715,0.22 2.411,0.661c0.695,0.44 1.23,1.078 1.605,1.914c0.375,0.836 0.562,1.808 0.562,2.918l0,0.718Zm-1.492,-0.734c0,-1.349 -0.271,-2.384 -0.812,-3.106c-0.542,-0.721 -1.3,-1.082 -2.274,-1.082c-0.948,0 -1.694,0.361 -2.238,1.082c-0.544,0.722 -0.824,1.723 -0.84,3.004l0,0.836c0,1.308 0.275,2.335 0.824,3.082c0.55,0.748 1.306,1.121 2.27,1.121c0.969,0 1.719,-0.352 2.25,-1.058c0.531,-0.706 0.805,-1.718 0.82,-3.035l0,-0.844Z" style="fill:none;stroke:#fff;stroke-width:0.77px;"/><path d="M25.481,6.303c0,-1.318 0.305,-2.366 0.914,-3.145c0.61,-0.778 1.417,-1.168 2.422,-1.168c1.031,0 1.836,0.365 2.414,1.094l0.07,-0.938l1.321,0l0,8.25c0,1.094 -0.324,1.956 -0.973,2.586c-0.648,0.631 -1.519,0.946 -2.613,0.946c-0.61,0 -1.206,-0.13 -1.789,-0.391c-0.584,-0.26 -1.029,-0.617 -1.336,-1.07l0.75,-0.867c0.62,0.765 1.377,1.148 2.273,1.148c0.703,0 1.252,-0.198 1.645,-0.594c0.393,-0.396 0.59,-0.953 0.59,-1.672l0,-0.726c-0.579,0.667 -1.368,1 -2.368,1c-0.989,0 -1.79,-0.399 -2.402,-1.195c-0.612,-0.797 -0.918,-1.883 -0.918,-3.258Zm1.453,0.164c0,0.953 0.196,1.702 0.586,2.246c0.391,0.544 0.938,0.816 1.641,0.816c0.911,0 1.581,-0.414 2.008,-1.242l0,-3.859c-0.443,-0.808 -1.107,-1.211 -1.993,-1.211c-0.703,0 -1.252,0.273 -1.648,0.82c-0.396,0.547 -0.594,1.357 -0.594,2.43Z" style="fill:none;stroke:#fff;stroke-width:0.77px;"/><path d="M40.82,10.6c-0.083,-0.167 -0.151,-0.464 -0.203,-0.891c-0.672,0.698 -1.474,1.047 -2.406,1.047c-0.834,0 -1.517,-0.236 -2.051,-0.707c-0.534,-0.472 -0.801,-1.069 -0.801,-1.793c0,-0.88 0.335,-1.564 1.004,-2.051c0.669,-0.487 1.611,-0.73 2.824,-0.73l1.407,0l0,-0.664c0,-0.506 -0.151,-0.908 -0.454,-1.207c-0.302,-0.3 -0.747,-0.45 -1.335,-0.45c-0.516,0 -0.948,0.13 -1.297,0.391c-0.349,0.26 -0.524,0.575 -0.524,0.945l-1.453,0c0,-0.422 0.15,-0.829 0.449,-1.222c0.3,-0.394 0.706,-0.705 1.219,-0.934c0.513,-0.229 1.077,-0.344 1.691,-0.344c0.974,0 1.737,0.244 2.29,0.731c0.552,0.487 0.838,1.157 0.859,2.011l0,3.891c0,0.776 0.099,1.393 0.297,1.852l0,0.125l-1.516,0Zm-2.398,-1.102c0.453,0 0.883,-0.117 1.289,-0.352c0.406,-0.234 0.7,-0.539 0.883,-0.914l0,-1.734l-1.133,0c-1.771,0 -2.656,0.518 -2.656,1.555c0,0.453 0.151,0.807 0.453,1.062c0.302,0.255 0.69,0.383 1.164,0.383Z" style="fill:none;stroke:#fff;stroke-width:0.77px;"/><path d="M47.065,0.1l0,2.046l1.579,0l0,1.118l-1.579,0l0,5.248c0,0.339 0.071,0.594 0.211,0.763c0.141,0.17 0.381,0.254 0.719,0.254c0.167,0 0.396,-0.031 0.688,-0.093l0,1.165c-0.381,0.103 -0.75,0.155 -1.11,0.155c-0.646,0 -1.133,-0.195 -1.461,-0.586c-0.328,-0.391 -0.492,-0.945 -0.492,-1.664l0,-5.242l-1.539,0l0,-1.118l1.539,0l0,-2.046l1.445,0Z" style="fill:none;stroke:#fff;stroke-width:0.77px;"/><path d="M50.592,6.295c0,-0.828 0.163,-1.573 0.488,-2.234c0.326,-0.662 0.779,-1.172 1.36,-1.532c0.58,-0.359 1.243,-0.539 1.988,-0.539c1.151,0 2.082,0.399 2.793,1.196c0.711,0.796 1.066,1.856 1.066,3.179l0,0.102c0,0.823 -0.157,1.561 -0.472,2.215c-0.315,0.653 -0.766,1.162 -1.352,1.527c-0.586,0.365 -1.259,0.547 -2.019,0.547c-1.146,0 -2.075,-0.399 -2.786,-1.195c-0.71,-0.797 -1.066,-1.852 -1.066,-3.165l0,-0.101Zm1.453,0.172c0,0.937 0.218,1.69 0.653,2.258c0.434,0.567 1.016,0.851 1.746,0.851c0.734,0 1.317,-0.288 1.75,-0.863c0.432,-0.576 0.648,-1.382 0.648,-2.418c0,-0.927 -0.22,-1.678 -0.66,-2.254c-0.44,-0.576 -1.025,-0.863 -1.754,-0.863c-0.714,0 -1.289,0.284 -1.727,0.851c-0.437,0.568 -0.656,1.38 -0.656,2.438Z" style="fill:none;stroke:#fff;stroke-width:0.77px;"/><path d="M69.747,3.443c-0.219,-0.036 -0.456,-0.054 -0.711,-0.054c-0.948,0 -1.591,0.403 -1.93,1.211l0,6l-1.445,0l0,-8.454l1.406,0l0.023,0.977c0.474,-0.755 1.146,-1.133 2.016,-1.133c0.281,0 0.495,0.037 0.641,0.11l0,1.343Z" style="fill:none;stroke:#fff;stroke-width:0.77px;"/><path d="M71.336,6.295c0,-0.828 0.163,-1.573 0.488,-2.234c0.326,-0.662 0.779,-1.172 1.359,-1.532c0.581,-0.359 1.244,-0.539 1.989,-0.539c1.151,0 2.082,0.399 2.793,1.196c0.711,0.796 1.066,1.856 1.066,3.179l0,0.102c0,0.823 -0.157,1.561 -0.473,2.215c-0.315,0.653 -0.765,1.162 -1.351,1.527c-0.586,0.365 -1.259,0.547 -2.02,0.547c-1.145,0 -2.074,-0.399 -2.785,-1.195c-0.711,-0.797 -1.066,-1.852 -1.066,-3.165l0,-0.101Zm1.453,0.172c0,0.937 0.217,1.69 0.652,2.258c0.435,0.567 1.017,0.851 1.746,0.851c0.735,0 1.318,-0.288 1.75,-0.863c0.433,-0.576 0.649,-1.382 0.649,-2.418c0,-0.927 -0.22,-1.678 -0.66,-2.254c-0.44,-0.576 -1.025,-0.863 -1.754,-0.863c-0.714,0 -1.289,0.284 -1.727,0.851c-0.437,0.568 -0.656,1.38 -0.656,2.438Z" style="fill:none;stroke:#fff;stroke-width:0.77px;"/><path d="M85.151,10.756c-1.145,0 -2.078,-0.376 -2.796,-1.129c-0.719,-0.753 -1.079,-1.759 -1.079,-3.02l0,-0.265c0,-0.839 0.161,-1.587 0.481,-2.246c0.32,-0.659 0.768,-1.175 1.344,-1.547c0.575,-0.373 1.199,-0.559 1.871,-0.559c1.099,0 1.953,0.362 2.562,1.086c0.61,0.724 0.914,1.761 0.914,3.11l0,0.601l-5.726,0c0.021,0.833 0.264,1.507 0.73,2.02c0.466,0.513 1.059,0.769 1.778,0.769c0.51,0 0.942,-0.104 1.296,-0.312c0.355,-0.209 0.664,-0.485 0.93,-0.828l0.883,0.687c-0.708,1.089 -1.771,1.633 -3.188,1.633Zm-0.179,-7.578c-0.584,0 -1.073,0.212 -1.469,0.636c-0.396,0.425 -0.641,1.02 -0.734,1.786l4.234,0l0,-0.11c-0.042,-0.734 -0.24,-1.303 -0.594,-1.707c-0.354,-0.403 -0.833,-0.605 -1.437,-0.605Z" style="fill:none;stroke:#fff;stroke-width:0.77px;"/><path d="M96.139,9.764c-0.563,0.661 -1.388,0.992 -2.477,0.992c-0.901,0 -1.587,-0.262 -2.058,-0.785c-0.472,-0.524 -0.71,-1.298 -0.715,-2.325l0,-5.5l1.445,0l0,5.461c0,1.282 0.521,1.922 1.563,1.922c1.104,0 1.838,-0.411 2.203,-1.234l0,-6.149l1.445,0l0,8.454l-1.375,0l-0.031,-0.836Z" style="fill:none;stroke:#fff;stroke-width:0.77px;"/><path d="M110.52,10.6c-0.083,-0.167 -0.151,-0.464 -0.203,-0.891c-0.672,0.698 -1.474,1.047 -2.406,1.047c-0.834,0 -1.517,-0.236 -2.051,-0.707c-0.534,-0.472 -0.801,-1.069 -0.801,-1.793c0,-0.88 0.335,-1.564 1.004,-2.051c0.669,-0.487 1.611,-0.73 2.824,-0.73l1.407,0l0,-0.664c0,-0.506 -0.151,-0.908 -0.454,-1.207c-0.302,-0.3 -0.747,-0.45 -1.335,-0.45c-0.516,0 -0.948,0.13 -1.297,0.391c-0.349,0.26 -0.524,0.575 -0.524,0.945l-1.453,0c0,-0.422 0.15,-0.829 0.449,-1.222c0.3,-0.394 0.706,-0.705 1.219,-0.934c0.513,-0.229 1.077,-0.344 1.691,-0.344c0.974,0 1.737,0.244 2.29,0.731c0.552,0.487 0.838,1.157 0.859,2.011l0,3.891c0,0.776 0.099,1.393 0.297,1.852l0,0.125l-1.516,0Zm-2.398,-1.102c0.453,0 0.883,-0.117 1.289,-0.352c0.406,-0.234 0.7,-0.539 0.883,-0.914l0,-1.734l-1.133,0c-1.771,0 -2.656,0.518 -2.656,1.555c0,0.453 0.151,0.807 0.453,1.062c0.302,0.255 0.69,0.383 1.164,0.383Z" style="fill:none;stroke:#fff;stroke-width:0.77px;"/><path d="M123.651,3.443c-0.218,-0.036 -0.455,-0.054 -0.711,-0.054c-0.947,0 -1.591,0.403 -1.929,1.211l0,6l-1.446,0l0,-8.454l1.407,0l0.023,0.977c0.474,-0.755 1.146,-1.133 2.016,-1.133c0.281,0 0.495,0.037 0.64,0.11l0,1.343Z" style="fill:none;stroke:#fff;stroke-width:0.77px;"/><path d="M125.24,6.295c0,-0.828 0.163,-1.573 0.489,-2.234c0.325,-0.662 0.778,-1.172 1.359,-1.532c0.581,-0.359 1.244,-0.539 1.988,-0.539c1.151,0 2.082,0.399 2.793,1.196c0.711,0.796 1.067,1.856 1.067,3.179l0,0.102c0,0.823 -0.158,1.561 -0.473,2.215c-0.315,0.653 -0.765,1.162 -1.351,1.527c-0.586,0.365 -1.26,0.547 -2.02,0.547c-1.146,0 -2.074,-0.399 -2.785,-1.195c-0.711,-0.797 -1.067,-1.852 -1.067,-3.165l0,-0.101Zm1.454,0.172c0,0.937 0.217,1.69 0.652,2.258c0.435,0.567 1.017,0.851 1.746,0.851c0.734,0 1.318,-0.288 1.75,-0.863c0.432,-0.576 0.648,-1.382 0.648,-2.418c0,-0.927 -0.22,-1.678 -0.66,-2.254c-0.44,-0.576 -1.024,-0.863 -1.754,-0.863c-0.713,0 -1.289,0.284 -1.726,0.851c-0.438,0.568 -0.656,1.38 -0.656,2.438Z" style="fill:none;stroke:#fff;stroke-width:0.77px;"/><path d="M140.767,9.764c-0.562,0.661 -1.388,0.992 -2.477,0.992c-0.901,0 -1.587,-0.262 -2.058,-0.785c-0.471,-0.524 -0.71,-1.298 -0.715,-2.325l0,-5.5l1.445,0l0,5.461c0,1.282 0.521,1.922 1.563,1.922c1.104,0 1.838,-0.411 2.203,-1.234l0,-6.149l1.445,0l0,8.454l-1.375,0l-0.031,-0.836Z" style="fill:none;stroke:#fff;stroke-width:0.77px;"/><path d="M152.309,6.467c0,1.286 -0.294,2.323 -0.883,3.109c-0.588,0.787 -1.385,1.18 -2.39,1.18c-1.026,0 -1.834,-0.326 -2.422,-0.977l0,4.071l-1.445,0l0,-11.704l1.32,0l0.07,0.938c0.589,-0.729 1.406,-1.094 2.453,-1.094c1.016,0 1.819,0.383 2.411,1.149c0.591,0.765 0.886,1.83 0.886,3.195l0,0.133Zm-1.445,-0.164c0,-0.953 -0.203,-1.706 -0.609,-2.258c-0.407,-0.552 -0.964,-0.828 -1.672,-0.828c-0.875,0 -1.532,0.388 -1.969,1.164l0,4.039c0.432,0.771 1.094,1.156 1.984,1.156c0.693,0 1.244,-0.275 1.653,-0.824c0.409,-0.55 0.613,-1.366 0.613,-2.449Z" style="fill:none;stroke:#fff;stroke-width:0.77px;"/><path d="M160.164,10.6c-0.083,-0.167 -0.151,-0.464 -0.203,-0.891c-0.672,0.698 -1.474,1.047 -2.406,1.047c-0.834,0 -1.517,-0.236 -2.051,-0.707c-0.534,-0.472 -0.801,-1.069 -0.801,-1.793c0,-0.88 0.335,-1.564 1.004,-2.051c0.669,-0.487 1.611,-0.73 2.824,-0.73l1.406,0l0,-0.664c0,-0.506 -0.151,-0.908 -0.453,-1.207c-0.302,-0.3 -0.747,-0.45 -1.336,-0.45c-0.515,0 -0.948,0.13 -1.297,0.391c-0.349,0.26 -0.523,0.575 -0.523,0.945l-1.453,0c0,-0.422 0.15,-0.829 0.449,-1.222c0.3,-0.394 0.706,-0.705 1.219,-0.934c0.513,-0.229 1.077,-0.344 1.691,-0.344c0.974,0 1.737,0.244 2.289,0.731c0.552,0.487 0.839,1.157 0.86,2.011l0,3.891c0,0.776 0.099,1.393 0.297,1.852l0,0.125l-1.516,0Zm-2.399,-1.102c0.454,0 0.883,-0.117 1.29,-0.352c0.406,-0.234 0.7,-0.539 0.882,-0.914l0,-1.734l-1.132,0c-1.771,0 -2.657,0.518 -2.657,1.555c0,0.453 0.151,0.807 0.453,1.062c0.303,0.255 0.691,0.383 1.164,0.383Z" style="fill:none;stroke:#fff;stroke-width:0.77px;"/><path d="M168.858,6.303c0,-1.297 0.307,-2.34 0.922,-3.129c0.614,-0.789 1.419,-1.184 2.414,-1.184c0.989,0 1.773,0.339 2.351,1.016l0,-4.406l1.445,0l0,12l-1.328,0l-0.07,-0.907c-0.578,0.709 -1.383,1.063 -2.414,1.063c-0.979,0 -1.777,-0.401 -2.395,-1.203c-0.617,-0.802 -0.925,-1.849 -0.925,-3.141l0,-0.109Zm1.445,0.164c0,0.958 0.198,1.708 0.594,2.25c0.396,0.541 0.942,0.812 1.64,0.812c0.917,0 1.586,-0.411 2.008,-1.234l0,-3.883c-0.432,-0.797 -1.096,-1.195 -1.992,-1.195c-0.708,0 -1.26,0.273 -1.656,0.82c-0.396,0.547 -0.594,1.357 -0.594,2.43Z" style="fill:none;stroke:#fff;stroke-width:0.77px;"/><path d="M178.65,6.295c0,-0.828 0.163,-1.573 0.488,-2.234c0.326,-0.662 0.779,-1.172 1.36,-1.532c0.58,-0.359 1.243,-0.539 1.988,-0.539c1.151,0 2.082,0.399 2.793,1.196c0.711,0.796 1.066,1.856 1.066,3.179l0,0.102c0,0.823 -0.157,1.561 -0.472,2.215c-0.316,0.653 -0.766,1.162 -1.352,1.527c-0.586,0.365 -1.259,0.547 -2.02,0.547c-1.145,0 -2.074,-0.399 -2.785,-1.195c-0.711,-0.797 -1.066,-1.852 -1.066,-3.165l0,-0.101Zm1.453,0.172c0,0.937 0.217,1.69 0.652,2.258c0.435,0.567 1.017,0.851 1.746,0.851c0.735,0 1.318,-0.288 1.75,-0.863c0.433,-0.576 0.649,-1.382 0.649,-2.418c0,-0.927 -0.22,-1.678 -0.66,-2.254c-0.44,-0.576 -1.025,-0.863 -1.754,-0.863c-0.714,0 -1.289,0.284 -1.727,0.851c-0.437,0.568 -0.656,1.38 -0.656,2.438Z" style="fill:none;stroke:#fff;stroke-width:0.77px;"/><path d="M197.805,3.443c-0.219,-0.036 -0.456,-0.054 -0.711,-0.054c-0.948,0 -1.592,0.403 -1.93,1.211l0,6l-1.445,0l0,-8.454l1.406,0l0.023,0.977c0.474,-0.755 1.146,-1.133 2.016,-1.133c0.281,0 0.495,0.037 0.641,0.11l0,1.343Z" style="fill:none;stroke:#fff;stroke-width:0.77px;"/><path d="M203.292,10.756c-1.146,0 -2.078,-0.376 -2.797,-1.129c-0.719,-0.753 -1.078,-1.759 -1.078,-3.02l0,-0.265c0,-0.839 0.16,-1.587 0.481,-2.246c0.32,-0.659 0.768,-1.175 1.343,-1.547c0.576,-0.373 1.199,-0.559 1.871,-0.559c1.099,0 1.953,0.362 2.563,1.086c0.609,0.724 0.914,1.761 0.914,3.11l0,0.601l-5.727,0c0.021,0.833 0.265,1.507 0.731,2.02c0.466,0.513 1.058,0.769 1.777,0.769c0.511,0 0.943,-0.104 1.297,-0.312c0.354,-0.209 0.664,-0.485 0.93,-0.828l0.883,0.687c-0.709,1.089 -1.771,1.633 -3.188,1.633Zm-0.18,-7.578c-0.583,0 -1.073,0.212 -1.468,0.636c-0.396,0.425 -0.641,1.02 -0.735,1.786l4.235,0l0,-0.11c-0.042,-0.734 -0.24,-1.303 -0.594,-1.707c-0.354,-0.403 -0.833,-0.605 -1.438,-0.605Z" style="fill:none;stroke:#fff;stroke-width:0.77px;"/><path d="M210.631,10.6l-1.445,0l0,-8.454l1.445,0l0,8.454Zm-1.562,-10.696c0,-0.234 0.071,-0.432 0.214,-0.593c0.144,-0.162 0.356,-0.243 0.637,-0.243c0.281,0 0.495,0.081 0.641,0.243c0.146,0.161 0.219,0.359 0.219,0.593c0,0.235 -0.073,0.43 -0.219,0.586c-0.146,0.156 -0.36,0.235 -0.641,0.235c-0.281,0 -0.493,-0.079 -0.637,-0.235c-0.143,-0.156 -0.214,-0.351 -0.214,-0.586Z" style="fill:none;stroke:#fff;stroke-width:0.77px;"/><path d="M218.153,6.303c0,-1.297 0.307,-2.34 0.922,-3.129c0.614,-0.789 1.419,-1.184 2.414,-1.184c0.99,0 1.773,0.339 2.351,1.016l0,-4.406l1.446,0l0,12l-1.328,0l-0.071,-0.907c-0.578,0.709 -1.382,1.063 -2.414,1.063c-0.979,0 -1.777,-0.401 -2.394,-1.203c-0.617,-0.802 -0.926,-1.849 -0.926,-3.141l0,-0.109Zm1.445,0.164c0,0.958 0.198,1.708 0.594,2.25c0.396,0.541 0.943,0.812 1.641,0.812c0.916,0 1.586,-0.411 2.007,-1.234l0,-3.883c-0.432,-0.797 -1.096,-1.195 -1.992,-1.195c-0.708,0 -1.26,0.273 -1.656,0.82c-0.396,0.547 -0.594,1.357 -0.594,2.43Z" style="fill:none;stroke:#fff;stroke-width:0.77px;"/><path d="M231.836,10.756c-1.146,0 -2.078,-0.376 -2.797,-1.129c-0.719,-0.753 -1.078,-1.759 -1.078,-3.02l0,-0.265c0,-0.839 0.16,-1.587 0.48,-2.246c0.321,-0.659 0.769,-1.175 1.344,-1.547c0.576,-0.373 1.199,-0.559 1.871,-0.559c1.099,0 1.953,0.362 2.563,1.086c0.609,0.724 0.914,1.761 0.914,3.11l0,0.601l-5.727,0c0.021,0.833 0.264,1.507 0.731,2.02c0.466,0.513 1.058,0.769 1.777,0.769c0.51,0 0.943,-0.104 1.297,-0.312c0.354,-0.209 0.664,-0.485 0.929,-0.828l0.883,0.687c-0.708,1.089 -1.771,1.633 -3.187,1.633Zm-0.18,-7.578c-0.583,0 -1.073,0.212 -1.469,0.636c-0.395,0.425 -0.64,1.02 -0.734,1.786l4.234,0l0,-0.11c-0.041,-0.734 -0.239,-1.303 -0.593,-1.707c-0.355,-0.403 -0.834,-0.605 -1.438,-0.605Z" style="fill:none;stroke:#fff;stroke-width:0.77px;"/><path d="M246.451,3.443c-0.218,-0.036 -0.455,-0.054 -0.711,-0.054c-0.947,0 -1.591,0.403 -1.929,1.211l0,6l-1.446,0l0,-8.454l1.407,0l0.023,0.977c0.474,-0.755 1.146,-1.133 2.016,-1.133c0.281,0 0.495,0.037 0.64,0.11l0,1.343Z" style="fill:none;stroke:#fff;stroke-width:0.77px;"/><path d="M248.04,6.295c0,-0.828 0.163,-1.573 0.489,-2.234c0.325,-0.662 0.778,-1.172 1.359,-1.532c0.581,-0.359 1.244,-0.539 1.988,-0.539c1.151,0 2.082,0.399 2.793,1.196c0.711,0.796 1.067,1.856 1.067,3.179l0,0.102c0,0.823 -0.158,1.561 -0.473,2.215c-0.315,0.653 -0.765,1.162 -1.351,1.527c-0.586,0.365 -1.26,0.547 -2.02,0.547c-1.146,0 -2.074,-0.399 -2.785,-1.195c-0.711,-0.797 -1.067,-1.852 -1.067,-3.165l0,-0.101Zm1.454,0.172c0,0.937 0.217,1.69 0.652,2.258c0.435,0.567 1.017,0.851 1.746,0.851c0.734,0 1.318,-0.288 1.75,-0.863c0.432,-0.576 0.648,-1.382 0.648,-2.418c0,-0.927 -0.22,-1.678 -0.66,-2.254c-0.44,-0.576 -1.024,-0.863 -1.754,-0.863c-0.713,0 -1.289,0.284 -1.726,0.851c-0.438,0.568 -0.656,1.38 -0.656,2.438Z" style="fill:none;stroke:#fff;stroke-width:0.77px;"/><path d="M259.708,2.146l0.039,0.938c0.62,-0.729 1.455,-1.094 2.508,-1.094c1.182,0 1.987,0.453 2.414,1.36c0.281,-0.407 0.647,-0.735 1.097,-0.985c0.451,-0.25 0.983,-0.375 1.598,-0.375c1.854,0 2.797,0.982 2.828,2.946l0,5.664l-1.445,0l0,-5.579c0,-0.604 -0.138,-1.056 -0.414,-1.355c-0.276,-0.299 -0.74,-0.449 -1.391,-0.449c-0.536,0 -0.982,0.16 -1.336,0.48c-0.354,0.321 -0.56,0.752 -0.617,1.293l0,5.61l-1.453,0l0,-5.539c0,-1.23 -0.602,-1.844 -1.805,-1.844c-0.948,0 -1.596,0.403 -1.945,1.211l0,6.172l-1.446,0l0,-8.454l1.368,0Z" style="fill:none;stroke:#fff;stroke-width:0.77px;"/><path d="M278.39,10.6c-0.083,-0.167 -0.151,-0.464 -0.203,-0.891c-0.672,0.698 -1.474,1.047 -2.406,1.047c-0.833,0 -1.517,-0.236 -2.051,-0.707c-0.534,-0.472 -0.8,-1.069 -0.8,-1.793c0,-0.88 0.334,-1.564 1.003,-2.051c0.67,-0.487 1.611,-0.73 2.825,-0.73l1.406,0l0,-0.664c0,-0.506 -0.151,-0.908 -0.453,-1.207c-0.302,-0.3 -0.748,-0.45 -1.336,-0.45c-0.516,0 -0.948,0.13 -1.297,0.391c-0.349,0.26 -0.523,0.575 -0.523,0.945l-1.454,0c0,-0.422 0.15,-0.829 0.45,-1.222c0.299,-0.394 0.705,-0.705 1.218,-0.934c0.513,-0.229 1.077,-0.344 1.692,-0.344c0.974,0 1.737,0.244 2.289,0.731c0.552,0.487 0.838,1.157 0.859,2.011l0,3.891c0,0.776 0.099,1.393 0.297,1.852l0,0.125l-1.516,0Zm-2.398,-1.102c0.453,0 0.883,-0.117 1.289,-0.352c0.406,-0.234 0.701,-0.539 0.883,-0.914l0,-1.734l-1.133,0c-1.771,0 -2.656,0.518 -2.656,1.555c0,0.453 0.151,0.807 0.453,1.062c0.302,0.255 0.69,0.383 1.164,0.383Z" style="fill:none;stroke:#fff;stroke-width:0.77px;"/></g></svg>