<?xml version="1.0" encoding="UTF-8" standalone="no"?><!DOCTYPE svg PUBLIC "-//W3C//DTD SVG 1.1//EN" "http://www.w3.org/Graphics/SVG/1.1/DTD/svg11.dtd"><svg width="100%" height="100%" viewBox="0 0 437 16" version="1.1" xmlns="http://www.w3.org/2000/svg" xmlns:xlink="http://www.w3.org/1999/xlink" xml:space="preserve" style="fill-rule:evenodd;clip-rule:evenodd;stroke-linejoin:round;stroke-miterlimit:1.41421;"><g transform="matrix(1.29127,0,0,1.29127,-10.9176,1.58518)"><path d="M14.17,10.68c-0.789,0 -1.512,-0.163 -2.168,-0.488c-0.656,-0.326 -1.218,-0.758 -1.688,-1.296c-0.469,-0.539 -0.832,-1.155 -1.088,-1.848c-0.256,-0.694 -0.384,-1.403 -0.384,-2.128c0,-0.758 0.136,-1.483 0.408,-2.176c0.272,-0.694 0.648,-1.307 1.128,-1.84c0.48,-0.534 1.046,-0.958 1.696,-1.272c0.651,-0.315 1.355,-0.472 2.112,-0.472c0.79,0 1.512,0.168 2.168,0.504c0.656,0.336 1.216,0.776 1.68,1.32c0.464,0.544 0.824,1.16 1.08,1.848c0.256,0.688 0.384,1.389 0.384,2.104c0,0.757 -0.136,1.482 -0.408,2.176c-0.272,0.693 -0.645,1.304 -1.12,1.832c-0.474,0.528 -1.037,0.949 -1.688,1.264c-0.65,0.314 -1.354,0.472 -2.112,0.472Zm-4.208,-5.76c0,0.618 0.102,1.213 0.304,1.784c0.203,0.57 0.491,1.077 0.864,1.52c0.374,0.442 0.816,0.794 1.328,1.056c0.512,0.261 1.083,0.392 1.712,0.392c0.64,0 1.222,-0.139 1.744,-0.416c0.523,-0.278 0.966,-0.64 1.328,-1.088c0.363,-0.448 0.643,-0.955 0.84,-1.52c0.198,-0.566 0.296,-1.142 0.296,-1.728c0,-0.619 -0.104,-1.214 -0.312,-1.784c-0.208,-0.571 -0.498,-1.075 -0.872,-1.512c-0.373,-0.438 -0.816,-0.787 -1.328,-1.048c-0.512,-0.262 -1.077,-0.392 -1.696,-0.392c-0.64,0 -1.221,0.136 -1.744,0.408c-0.522,0.272 -0.965,0.632 -1.328,1.08c-0.362,0.448 -0.642,0.954 -0.84,1.52c-0.197,0.565 -0.296,1.141 -0.296,1.728Z" style="fill:none;"/><path d="M35.498,8.936c-1.056,1.162 -2.272,1.744 -3.648,1.744c-0.768,0 -1.474,-0.166 -2.12,-0.496c-0.645,-0.331 -1.205,-0.768 -1.68,-1.312c-0.474,-0.544 -0.845,-1.16 -1.112,-1.848c-0.266,-0.688 -0.4,-1.395 -0.4,-2.12c0,-0.758 0.131,-1.483 0.392,-2.176c0.262,-0.694 0.627,-1.304 1.096,-1.832c0.47,-0.528 1.024,-0.95 1.664,-1.264c0.64,-0.315 1.339,-0.472 2.096,-0.472c0.555,0 1.062,0.061 1.52,0.184c0.459,0.122 0.867,0.293 1.224,0.512c0.358,0.218 0.667,0.48 0.928,0.784c0.262,0.304 0.483,0.637 0.664,1l-0.864,0.576c-0.373,-0.704 -0.858,-1.222 -1.456,-1.552c-0.597,-0.331 -1.274,-0.496 -2.032,-0.496c-0.629,0 -1.197,0.133 -1.704,0.4c-0.506,0.266 -0.938,0.621 -1.296,1.064c-0.357,0.442 -0.632,0.949 -0.824,1.52c-0.192,0.57 -0.288,1.16 -0.288,1.768c0,0.64 0.11,1.248 0.328,1.824c0.219,0.576 0.52,1.08 0.904,1.512c0.384,0.432 0.835,0.776 1.352,1.032c0.518,0.256 1.08,0.384 1.688,0.384c0.651,0 1.272,-0.152 1.864,-0.456c0.592,-0.304 1.16,-0.787 1.704,-1.448l0,-1.888l-2.528,0l0,-0.864l3.472,0l0,5.584l-0.944,0l0,-1.664Z" style="fill:none;"/><path d="M43.066,-0.76l0.944,0l4.72,11.36l-1.184,0l-1.472,-3.552l-5.104,0l-1.456,3.552l-1.2,0l4.752,-11.36Zm2.752,6.928l-2.288,-5.616l-2.32,5.616l4.608,0Z" style="fill:none;"/><path d="M58.106,0.232l-4.048,0l0,10.368l-1.12,0l0,-10.368l-4.048,0l0,-0.992l9.216,0l0,0.992Z" style="fill:none;"/><path d="M64.65,10.68c-0.789,0 -1.512,-0.163 -2.168,-0.488c-0.656,-0.326 -1.218,-0.758 -1.688,-1.296c-0.469,-0.539 -0.832,-1.155 -1.088,-1.848c-0.256,-0.694 -0.384,-1.403 -0.384,-2.128c0,-0.758 0.136,-1.483 0.408,-2.176c0.272,-0.694 0.648,-1.307 1.128,-1.84c0.48,-0.534 1.046,-0.958 1.696,-1.272c0.651,-0.315 1.355,-0.472 2.112,-0.472c0.79,0 1.512,0.168 2.168,0.504c0.656,0.336 1.216,0.776 1.68,1.32c0.464,0.544 0.824,1.16 1.08,1.848c0.256,0.688 0.384,1.389 0.384,2.104c0,0.757 -0.136,1.482 -0.408,2.176c-0.272,0.693 -0.645,1.304 -1.12,1.832c-0.474,0.528 -1.037,0.949 -1.688,1.264c-0.65,0.314 -1.354,0.472 -2.112,0.472Zm-4.208,-5.76c0,0.618 0.102,1.213 0.304,1.784c0.203,0.57 0.491,1.077 0.864,1.52c0.374,0.442 0.816,0.794 1.328,1.056c0.512,0.261 1.083,0.392 1.712,0.392c0.64,0 1.222,-0.139 1.744,-0.416c0.523,-0.278 0.966,-0.64 1.328,-1.088c0.363,-0.448 0.643,-0.955 0.84,-1.52c0.198,-0.566 0.296,-1.142 0.296,-1.728c0,-0.619 -0.104,-1.214 -0.312,-1.784c-0.208,-0.571 -0.498,-1.075 -0.872,-1.512c-0.373,-0.438 -0.816,-0.787 -1.328,-1.048c-0.512,-0.262 -1.077,-0.392 -1.696,-0.392c-0.64,0 -1.221,0.136 -1.744,0.408c-0.522,0.272 -0.965,0.632 -1.328,1.08c-0.362,0.448 -0.642,0.954 -0.84,1.52c-0.197,0.565 -0.296,1.141 -0.296,1.728Z" style="fill:none;"/><path d="M77.77,10.6l0,-11.36l4.8,0c0.491,0 0.942,0.104 1.352,0.312c0.411,0.208 0.766,0.48 1.064,0.816c0.299,0.336 0.531,0.717 0.696,1.144c0.166,0.426 0.248,0.858 0.248,1.296c0,0.416 -0.061,0.813 -0.184,1.192c-0.122,0.378 -0.293,0.72 -0.512,1.024c-0.218,0.304 -0.482,0.56 -0.792,0.768c-0.309,0.208 -0.656,0.349 -1.04,0.424l2.784,4.384l-1.264,0l-2.672,-4.192l-3.36,0l0,4.192l-1.12,0Zm1.12,-5.184l3.712,0c0.331,0 0.632,-0.072 0.904,-0.216c0.272,-0.144 0.504,-0.339 0.696,-0.584c0.192,-0.246 0.342,-0.523 0.448,-0.832c0.107,-0.31 0.16,-0.635 0.16,-0.976c0,-0.342 -0.061,-0.67 -0.184,-0.984c-0.122,-0.315 -0.288,-0.59 -0.496,-0.824c-0.208,-0.235 -0.453,-0.422 -0.736,-0.56c-0.282,-0.139 -0.578,-0.208 -0.888,-0.208l-3.616,0l0,5.184Z" style="fill:none;"/><path d="M93.594,10.68c-0.789,0 -1.512,-0.163 -2.168,-0.488c-0.656,-0.326 -1.218,-0.758 -1.688,-1.296c-0.469,-0.539 -0.832,-1.155 -1.088,-1.848c-0.256,-0.694 -0.384,-1.403 -0.384,-2.128c0,-0.758 0.136,-1.483 0.408,-2.176c0.272,-0.694 0.648,-1.307 1.128,-1.84c0.48,-0.534 1.046,-0.958 1.696,-1.272c0.651,-0.315 1.355,-0.472 2.112,-0.472c0.79,0 1.512,0.168 2.168,0.504c0.656,0.336 1.216,0.776 1.68,1.32c0.464,0.544 0.824,1.16 1.08,1.848c0.256,0.688 0.384,1.389 0.384,2.104c0,0.757 -0.136,1.482 -0.408,2.176c-0.272,0.693 -0.645,1.304 -1.12,1.832c-0.474,0.528 -1.037,0.949 -1.688,1.264c-0.65,0.314 -1.354,0.472 -2.112,0.472Zm-4.208,-5.76c0,0.618 0.102,1.213 0.304,1.784c0.203,0.57 0.491,1.077 0.864,1.52c0.374,0.442 0.816,0.794 1.328,1.056c0.512,0.261 1.083,0.392 1.712,0.392c0.64,0 1.222,-0.139 1.744,-0.416c0.523,-0.278 0.966,-0.64 1.328,-1.088c0.363,-0.448 0.643,-0.955 0.84,-1.52c0.198,-0.566 0.296,-1.142 0.296,-1.728c0,-0.619 -0.104,-1.214 -0.312,-1.784c-0.208,-0.571 -0.498,-1.075 -0.872,-1.512c-0.373,-0.438 -0.816,-0.787 -1.328,-1.048c-0.512,-0.262 -1.077,-0.392 -1.696,-0.392c-0.64,0 -1.221,0.136 -1.744,0.408c-0.522,0.272 -0.965,0.632 -1.328,1.08c-0.362,0.448 -0.642,0.954 -0.84,1.52c-0.197,0.565 -0.296,1.141 -0.296,1.728Z" style="fill:none;"/><path d="M109.466,9.608l0,0.992l-7.632,0l0,-11.36l7.488,0l0,0.992l-6.368,0l0,4.096l5.552,0l0,0.944l-5.552,0l0,4.336l6.512,0Z" style="fill:none;"/><path d="M116.986,9.672c0.715,0 1.31,-0.136 1.784,-0.408c0.475,-0.272 0.854,-0.63 1.136,-1.072c0.283,-0.443 0.48,-0.947 0.592,-1.512c0.112,-0.566 0.168,-1.136 0.168,-1.712l0,-5.728l1.12,0l0,5.728c0,0.768 -0.085,1.496 -0.256,2.184c-0.17,0.688 -0.445,1.293 -0.824,1.816c-0.378,0.522 -0.872,0.938 -1.48,1.248c-0.608,0.309 -1.349,0.464 -2.224,0.464c-0.896,0 -1.65,-0.163 -2.264,-0.488c-0.613,-0.326 -1.106,-0.755 -1.48,-1.288c-0.373,-0.534 -0.64,-1.142 -0.8,-1.824c-0.16,-0.683 -0.24,-1.387 -0.24,-2.112l0,-5.728l1.104,0l0,5.728c0,0.597 0.059,1.178 0.176,1.744c0.118,0.565 0.318,1.066 0.6,1.504c0.283,0.437 0.659,0.789 1.128,1.056c0.47,0.266 1.056,0.4 1.76,0.4Z" style="fill:none;"/><path d="M133.162,-0.76l0.944,0l4.72,11.36l-1.184,0l-1.472,-3.552l-5.104,0l-1.456,3.552l-1.2,0l4.752,-11.36Zm2.752,6.928l-2.288,-5.616l-2.32,5.616l4.608,0Z" style="fill:none;"/><path d="M145.642,10.6l0,-11.36l4.8,0c0.491,0 0.942,0.104 1.352,0.312c0.411,0.208 0.766,0.48 1.064,0.816c0.299,0.336 0.531,0.717 0.696,1.144c0.166,0.426 0.248,0.858 0.248,1.296c0,0.416 -0.061,0.813 -0.184,1.192c-0.122,0.378 -0.293,0.72 -0.512,1.024c-0.218,0.304 -0.482,0.56 -0.792,0.768c-0.309,0.208 -0.656,0.349 -1.04,0.424l2.784,4.384l-1.264,0l-2.672,-4.192l-3.36,0l0,4.192l-1.12,0Zm1.12,-5.184l3.712,0c0.331,0 0.632,-0.072 0.904,-0.216c0.272,-0.144 0.504,-0.339 0.696,-0.584c0.192,-0.246 0.342,-0.523 0.448,-0.832c0.107,-0.31 0.16,-0.635 0.16,-0.976c0,-0.342 -0.061,-0.67 -0.184,-0.984c-0.122,-0.315 -0.288,-0.59 -0.496,-0.824c-0.208,-0.235 -0.453,-0.422 -0.736,-0.56c-0.282,-0.139 -0.578,-0.208 -0.888,-0.208l-3.616,0l0,5.184Z" style="fill:none;"/><path d="M161.466,10.68c-0.789,0 -1.512,-0.163 -2.168,-0.488c-0.656,-0.326 -1.218,-0.758 -1.688,-1.296c-0.469,-0.539 -0.832,-1.155 -1.088,-1.848c-0.256,-0.694 -0.384,-1.403 -0.384,-2.128c0,-0.758 0.136,-1.483 0.408,-2.176c0.272,-0.694 0.648,-1.307 1.128,-1.84c0.48,-0.534 1.046,-0.958 1.696,-1.272c0.651,-0.315 1.355,-0.472 2.112,-0.472c0.79,0 1.512,0.168 2.168,0.504c0.656,0.336 1.216,0.776 1.68,1.32c0.464,0.544 0.824,1.16 1.08,1.848c0.256,0.688 0.384,1.389 0.384,2.104c0,0.757 -0.136,1.482 -0.408,2.176c-0.272,0.693 -0.645,1.304 -1.12,1.832c-0.474,0.528 -1.037,0.949 -1.688,1.264c-0.65,0.314 -1.354,0.472 -2.112,0.472Zm-4.208,-5.76c0,0.618 0.102,1.213 0.304,1.784c0.203,0.57 0.491,1.077 0.864,1.52c0.374,0.442 0.816,0.794 1.328,1.056c0.512,0.261 1.083,0.392 1.712,0.392c0.64,0 1.222,-0.139 1.744,-0.416c0.523,-0.278 0.966,-0.64 1.328,-1.088c0.363,-0.448 0.643,-0.955 0.84,-1.52c0.198,-0.566 0.296,-1.142 0.296,-1.728c0,-0.619 -0.104,-1.214 -0.312,-1.784c-0.208,-0.571 -0.498,-1.075 -0.872,-1.512c-0.373,-0.438 -0.816,-0.787 -1.328,-1.048c-0.512,-0.262 -1.077,-0.392 -1.696,-0.392c-0.64,0 -1.221,0.136 -1.744,0.408c-0.522,0.272 -0.965,0.632 -1.328,1.08c-0.362,0.448 -0.642,0.954 -0.84,1.52c-0.197,0.565 -0.296,1.141 -0.296,1.728Z" style="fill:none;"/><path d="M174.314,9.672c0.715,0 1.31,-0.136 1.784,-0.408c0.475,-0.272 0.854,-0.63 1.136,-1.072c0.283,-0.443 0.48,-0.947 0.592,-1.512c0.112,-0.566 0.168,-1.136 0.168,-1.712l0,-5.728l1.12,0l0,5.728c0,0.768 -0.085,1.496 -0.256,2.184c-0.17,0.688 -0.445,1.293 -0.824,1.816c-0.378,0.522 -0.872,0.938 -1.48,1.248c-0.608,0.309 -1.349,0.464 -2.224,0.464c-0.896,0 -1.65,-0.163 -2.264,-0.488c-0.613,-0.326 -1.106,-0.755 -1.48,-1.288c-0.373,-0.534 -0.64,-1.142 -0.8,-1.824c-0.16,-0.683 -0.24,-1.387 -0.24,-2.112l0,-5.728l1.104,0l0,5.728c0,0.597 0.059,1.178 0.176,1.744c0.118,0.565 0.318,1.066 0.6,1.504c0.283,0.437 0.659,0.789 1.128,1.056c0.47,0.266 1.056,0.4 1.76,0.4Z" style="fill:none;"/><path d="M182.586,10.6l0,-11.36l4.704,0c0.491,0 0.942,0.104 1.352,0.312c0.411,0.208 0.766,0.48 1.064,0.816c0.299,0.336 0.534,0.717 0.704,1.144c0.171,0.426 0.256,0.858 0.256,1.296c0,0.469 -0.08,0.92 -0.24,1.352c-0.16,0.432 -0.384,0.813 -0.672,1.144c-0.288,0.33 -0.632,0.597 -1.032,0.8c-0.4,0.202 -0.845,0.304 -1.336,0.304l-3.68,0l0,4.192l-1.12,0Zm1.12,-5.184l3.632,0c0.331,0 0.632,-0.072 0.904,-0.216c0.272,-0.144 0.504,-0.336 0.696,-0.576c0.192,-0.24 0.342,-0.518 0.448,-0.832c0.107,-0.315 0.16,-0.643 0.16,-0.984c0,-0.352 -0.061,-0.686 -0.184,-1c-0.122,-0.315 -0.288,-0.59 -0.496,-0.824c-0.208,-0.235 -0.453,-0.419 -0.736,-0.552c-0.282,-0.134 -0.578,-0.2 -0.888,-0.2l-3.536,0l0,5.184Z" style="fill:none;"/><path d="M196.138,-0.76l0.944,0l4.72,11.36l-1.184,0l-1.472,-3.552l-5.104,0l-1.456,3.552l-1.2,0l4.752,-11.36Zm2.752,6.928l-2.288,-5.616l-2.32,5.616l4.608,0Z" style="fill:none;"/><path d="M208.618,10.6l0,-11.36l3.856,0c0.907,0 1.699,0.149 2.376,0.448c0.678,0.298 1.243,0.704 1.696,1.216c0.454,0.512 0.795,1.112 1.024,1.8c0.23,0.688 0.344,1.421 0.344,2.2c0,0.864 -0.128,1.645 -0.384,2.344c-0.256,0.698 -0.621,1.296 -1.096,1.792c-0.474,0.496 -1.045,0.88 -1.712,1.152c-0.666,0.272 -1.416,0.408 -2.248,0.408l-3.856,0Zm8.176,-5.696c0,-0.683 -0.096,-1.31 -0.288,-1.88c-0.192,-0.571 -0.472,-1.064 -0.84,-1.48c-0.368,-0.416 -0.818,-0.739 -1.352,-0.968c-0.533,-0.23 -1.146,-0.344 -1.84,-0.344l-2.736,0l0,9.376l2.736,0c0.704,0 1.326,-0.12 1.864,-0.36c0.539,-0.24 0.99,-0.571 1.352,-0.992c0.363,-0.422 0.638,-0.918 0.824,-1.488c0.187,-0.571 0.28,-1.192 0.28,-1.864Z" style="fill:none;"/><path d="M225.434,10.68c-0.789,0 -1.512,-0.163 -2.168,-0.488c-0.656,-0.326 -1.218,-0.758 -1.688,-1.296c-0.469,-0.539 -0.832,-1.155 -1.088,-1.848c-0.256,-0.694 -0.384,-1.403 -0.384,-2.128c0,-0.758 0.136,-1.483 0.408,-2.176c0.272,-0.694 0.648,-1.307 1.128,-1.84c0.48,-0.534 1.046,-0.958 1.696,-1.272c0.651,-0.315 1.355,-0.472 2.112,-0.472c0.79,0 1.512,0.168 2.168,0.504c0.656,0.336 1.216,0.776 1.68,1.32c0.464,0.544 0.824,1.16 1.08,1.848c0.256,0.688 0.384,1.389 0.384,2.104c0,0.757 -0.136,1.482 -0.408,2.176c-0.272,0.693 -0.645,1.304 -1.12,1.832c-0.474,0.528 -1.037,0.949 -1.688,1.264c-0.65,0.314 -1.354,0.472 -2.112,0.472Zm-4.208,-5.76c0,0.618 0.102,1.213 0.304,1.784c0.203,0.57 0.491,1.077 0.864,1.52c0.374,0.442 0.816,0.794 1.328,1.056c0.512,0.261 1.083,0.392 1.712,0.392c0.64,0 1.222,-0.139 1.744,-0.416c0.523,-0.278 0.966,-0.64 1.328,-1.088c0.363,-0.448 0.643,-0.955 0.84,-1.52c0.198,-0.566 0.296,-1.142 0.296,-1.728c0,-0.619 -0.104,-1.214 -0.312,-1.784c-0.208,-0.571 -0.498,-1.075 -0.872,-1.512c-0.373,-0.438 -0.816,-0.787 -1.328,-1.048c-0.512,-0.262 -1.077,-0.392 -1.696,-0.392c-0.64,0 -1.221,0.136 -1.744,0.408c-0.522,0.272 -0.965,0.632 -1.328,1.08c-0.362,0.448 -0.642,0.954 -0.84,1.52c-0.197,0.565 -0.296,1.141 -0.296,1.728Z" style="fill:none;"/><path d="M238.554,10.6l0,-11.36l4.8,0c0.491,0 0.942,0.104 1.352,0.312c0.411,0.208 0.766,0.48 1.064,0.816c0.299,0.336 0.531,0.717 0.696,1.144c0.166,0.426 0.248,0.858 0.248,1.296c0,0.416 -0.061,0.813 -0.184,1.192c-0.122,0.378 -0.293,0.72 -0.512,1.024c-0.218,0.304 -0.482,0.56 -0.792,0.768c-0.309,0.208 -0.656,0.349 -1.04,0.424l2.784,4.384l-1.264,0l-2.672,-4.192l-3.36,0l0,4.192l-1.12,0Zm1.12,-5.184l3.712,0c0.331,0 0.632,-0.072 0.904,-0.216c0.272,-0.144 0.504,-0.339 0.696,-0.584c0.192,-0.246 0.342,-0.523 0.448,-0.832c0.107,-0.31 0.16,-0.635 0.16,-0.976c0,-0.342 -0.061,-0.67 -0.184,-0.984c-0.122,-0.315 -0.288,-0.59 -0.496,-0.824c-0.208,-0.235 -0.453,-0.422 -0.736,-0.56c-0.282,-0.139 -0.578,-0.208 -0.888,-0.208l-3.616,0l0,5.184Z" style="fill:none;"/><path d="M257.434,9.608l0,0.992l-7.632,0l0,-11.36l7.488,0l0,0.992l-6.368,0l0,4.096l5.552,0l0,0.944l-5.552,0l0,4.336l6.512,0Z" style="fill:none;"/><rect x="260.346" y="-0.76" width="1.12" height="11.36" style="fill:none;"/><path d="M269.994,10.6l0,-11.36l3.856,0c0.907,0 1.699,0.149 2.376,0.448c0.678,0.298 1.243,0.704 1.696,1.216c0.454,0.512 0.795,1.112 1.024,1.8c0.23,0.688 0.344,1.421 0.344,2.2c0,0.864 -0.128,1.645 -0.384,2.344c-0.256,0.698 -0.621,1.296 -1.096,1.792c-0.474,0.496 -1.045,0.88 -1.712,1.152c-0.666,0.272 -1.416,0.408 -2.248,0.408l-3.856,0Zm8.176,-5.696c0,-0.683 -0.096,-1.31 -0.288,-1.88c-0.192,-0.571 -0.472,-1.064 -0.84,-1.48c-0.368,-0.416 -0.818,-0.739 -1.352,-0.968c-0.533,-0.23 -1.146,-0.344 -1.84,-0.344l-2.736,0l0,9.376l2.736,0c0.704,0 1.326,-0.12 1.864,-0.36c0.539,-0.24 0.99,-0.571 1.352,-0.992c0.363,-0.422 0.638,-0.918 0.824,-1.488c0.187,-0.571 0.28,-1.192 0.28,-1.864Z" style="fill:none;"/><path d="M289.866,9.608l0,0.992l-7.632,0l0,-11.36l7.488,0l0,0.992l-6.368,0l0,4.096l5.552,0l0,0.944l-5.552,0l0,4.336l6.512,0Z" style="fill:none;"/><path d="M297.658,10.6l0,-11.36l4.8,0c0.491,0 0.942,0.104 1.352,0.312c0.411,0.208 0.766,0.48 1.064,0.816c0.299,0.336 0.531,0.717 0.696,1.144c0.166,0.426 0.248,0.858 0.248,1.296c0,0.416 -0.061,0.813 -0.184,1.192c-0.122,0.378 -0.293,0.72 -0.512,1.024c-0.218,0.304 -0.482,0.56 -0.792,0.768c-0.309,0.208 -0.656,0.349 -1.04,0.424l2.784,4.384l-1.264,0l-2.672,-4.192l-3.36,0l0,4.192l-1.12,0Zm1.12,-5.184l3.712,0c0.331,0 0.632,-0.072 0.904,-0.216c0.272,-0.144 0.504,-0.339 0.696,-0.584c0.192,-0.246 0.342,-0.523 0.448,-0.832c0.107,-0.31 0.16,-0.635 0.16,-0.976c0,-0.342 -0.061,-0.67 -0.184,-0.984c-0.122,-0.315 -0.288,-0.59 -0.496,-0.824c-0.208,-0.235 -0.453,-0.422 -0.736,-0.56c-0.282,-0.139 -0.578,-0.208 -0.888,-0.208l-3.616,0l0,5.184Z" style="fill:none;"/><path d="M313.482,10.68c-0.789,0 -1.512,-0.163 -2.168,-0.488c-0.656,-0.326 -1.218,-0.758 -1.688,-1.296c-0.469,-0.539 -0.832,-1.155 -1.088,-1.848c-0.256,-0.694 -0.384,-1.403 -0.384,-2.128c0,-0.758 0.136,-1.483 0.408,-2.176c0.272,-0.694 0.648,-1.307 1.128,-1.84c0.48,-0.534 1.046,-0.958 1.696,-1.272c0.651,-0.315 1.355,-0.472 2.112,-0.472c0.79,0 1.512,0.168 2.168,0.504c0.656,0.336 1.216,0.776 1.68,1.32c0.464,0.544 0.824,1.16 1.08,1.848c0.256,0.688 0.384,1.389 0.384,2.104c0,0.757 -0.136,1.482 -0.408,2.176c-0.272,0.693 -0.645,1.304 -1.12,1.832c-0.474,0.528 -1.037,0.949 -1.688,1.264c-0.65,0.314 -1.354,0.472 -2.112,0.472Zm-4.208,-5.76c0,0.618 0.102,1.213 0.304,1.784c0.203,0.57 0.491,1.077 0.864,1.52c0.374,0.442 0.816,0.794 1.328,1.056c0.512,0.261 1.083,0.392 1.712,0.392c0.64,0 1.222,-0.139 1.744,-0.416c0.523,-0.278 0.966,-0.64 1.328,-1.088c0.363,-0.448 0.643,-0.955 0.84,-1.52c0.198,-0.566 0.296,-1.142 0.296,-1.728c0,-0.619 -0.104,-1.214 -0.312,-1.784c-0.208,-0.571 -0.498,-1.075 -0.872,-1.512c-0.373,-0.438 -0.816,-0.787 -1.328,-1.048c-0.512,-0.262 -1.077,-0.392 -1.696,-0.392c-0.64,0 -1.221,0.136 -1.744,0.408c-0.522,0.272 -0.965,0.632 -1.328,1.08c-0.362,0.448 -0.642,0.954 -0.84,1.52c-0.197,0.565 -0.296,1.141 -0.296,1.728Z" style="fill:none;"/><path d="M331.786,10.6l0,-9.328l-4.144,7.216l-0.656,0l-4.144,-7.216l0,9.328l-1.12,0l0,-11.36l1.152,0l4.432,7.776l4.464,-7.776l1.136,0l0,11.36l-1.12,0Z" style="fill:none;"/><path d="M340.074,-0.76l0.944,0l4.72,11.36l-1.184,0l-1.472,-3.552l-5.104,0l-1.456,3.552l-1.2,0l4.752,-11.36Zm2.752,6.928l-2.288,-5.616l-2.32,5.616l4.608,0Z" style="fill:none;"/><path d="M14.17,10.68c-0.789,0 -1.512,-0.163 -2.168,-0.488c-0.656,-0.326 -1.218,-0.758 -1.688,-1.296c-0.469,-0.539 -0.832,-1.155 -1.088,-1.848c-0.256,-0.694 -0.384,-1.403 -0.384,-2.128c0,-0.758 0.136,-1.483 0.408,-2.176c0.272,-0.694 0.648,-1.307 1.128,-1.84c0.48,-0.534 1.046,-0.958 1.696,-1.272c0.651,-0.315 1.355,-0.472 2.112,-0.472c0.79,0 1.512,0.168 2.168,0.504c0.656,0.336 1.216,0.776 1.68,1.32c0.464,0.544 0.824,1.16 1.08,1.848c0.256,0.688 0.384,1.389 0.384,2.104c0,0.757 -0.136,1.482 -0.408,2.176c-0.272,0.693 -0.645,1.304 -1.12,1.832c-0.474,0.528 -1.037,0.949 -1.688,1.264c-0.65,0.314 -1.354,0.472 -2.112,0.472Zm-4.208,-5.76c0,0.618 0.102,1.213 0.304,1.784c0.203,0.57 0.491,1.077 0.864,1.52c0.374,0.442 0.816,0.794 1.328,1.056c0.512,0.261 1.083,0.392 1.712,0.392c0.64,0 1.222,-0.139 1.744,-0.416c0.523,-0.278 0.966,-0.64 1.328,-1.088c0.363,-0.448 0.643,-0.955 0.84,-1.52c0.198,-0.566 0.296,-1.142 0.296,-1.728c0,-0.619 -0.104,-1.214 -0.312,-1.784c-0.208,-0.571 -0.498,-1.075 -0.872,-1.512c-0.373,-0.438 -0.816,-0.787 -1.328,-1.048c-0.512,-0.262 -1.077,-0.392 -1.696,-0.392c-0.64,0 -1.221,0.136 -1.744,0.408c-0.522,0.272 -0.965,0.632 -1.328,1.08c-0.362,0.448 -0.642,0.954 -0.84,1.52c-0.197,0.565 -0.296,1.141 -0.296,1.728Z" style="fill:none;stroke:#fff;stroke-width:0.77px;"/><path d="M35.498,8.936c-1.056,1.162 -2.272,1.744 -3.648,1.744c-0.768,0 -1.474,-0.166 -2.12,-0.496c-0.645,-0.331 -1.205,-0.768 -1.68,-1.312c-0.474,-0.544 -0.845,-1.16 -1.112,-1.848c-0.266,-0.688 -0.4,-1.395 -0.4,-2.12c0,-0.758 0.131,-1.483 0.392,-2.176c0.262,-0.694 0.627,-1.304 1.096,-1.832c0.47,-0.528 1.024,-0.95 1.664,-1.264c0.64,-0.315 1.339,-0.472 2.096,-0.472c0.555,0 1.062,0.061 1.52,0.184c0.459,0.122 0.867,0.293 1.224,0.512c0.358,0.218 0.667,0.48 0.928,0.784c0.262,0.304 0.483,0.637 0.664,1l-0.864,0.576c-0.373,-0.704 -0.858,-1.222 -1.456,-1.552c-0.597,-0.331 -1.274,-0.496 -2.032,-0.496c-0.629,0 -1.197,0.133 -1.704,0.4c-0.506,0.266 -0.938,0.621 -1.296,1.064c-0.357,0.442 -0.632,0.949 -0.824,1.52c-0.192,0.57 -0.288,1.16 -0.288,1.768c0,0.64 0.11,1.248 0.328,1.824c0.219,0.576 0.52,1.08 0.904,1.512c0.384,0.432 0.835,0.776 1.352,1.032c0.518,0.256 1.08,0.384 1.688,0.384c0.651,0 1.272,-0.152 1.864,-0.456c0.592,-0.304 1.16,-0.787 1.704,-1.448l0,-1.888l-2.528,0l0,-0.864l3.472,0l0,5.584l-0.944,0l0,-1.664Z" style="fill:none;stroke:#fff;stroke-width:0.77px;"/><path d="M43.066,-0.76l0.944,0l4.72,11.36l-1.184,0l-1.472,-3.552l-5.104,0l-1.456,3.552l-1.2,0l4.752,-11.36Zm2.752,6.928l-2.288,-5.616l-2.32,5.616l4.608,0Z" style="fill:none;stroke:#fff;stroke-width:0.77px;"/><path d="M58.106,0.232l-4.048,0l0,10.368l-1.12,0l0,-10.368l-4.048,0l0,-0.992l9.216,0l0,0.992Z" style="fill:none;stroke:#fff;stroke-width:0.77px;"/><path d="M64.65,10.68c-0.789,0 -1.512,-0.163 -2.168,-0.488c-0.656,-0.326 -1.218,-0.758 -1.688,-1.296c-0.469,-0.539 -0.832,-1.155 -1.088,-1.848c-0.256,-0.694 -0.384,-1.403 -0.384,-2.128c0,-0.758 0.136,-1.483 0.408,-2.176c0.272,-0.694 0.648,-1.307 1.128,-1.84c0.48,-0.534 1.046,-0.958 1.696,-1.272c0.651,-0.315 1.355,-0.472 2.112,-0.472c0.79,0 1.512,0.168 2.168,0.504c0.656,0.336 1.216,0.776 1.68,1.32c0.464,0.544 0.824,1.16 1.08,1.848c0.256,0.688 0.384,1.389 0.384,2.104c0,0.757 -0.136,1.482 -0.408,2.176c-0.272,0.693 -0.645,1.304 -1.12,1.832c-0.474,0.528 -1.037,0.949 -1.688,1.264c-0.65,0.314 -1.354,0.472 -2.112,0.472Zm-4.208,-5.76c0,0.618 0.102,1.213 0.304,1.784c0.203,0.57 0.491,1.077 0.864,1.52c0.374,0.442 0.816,0.794 1.328,1.056c0.512,0.261 1.083,0.392 1.712,0.392c0.64,0 1.222,-0.139 1.744,-0.416c0.523,-0.278 0.966,-0.64 1.328,-1.088c0.363,-0.448 0.643,-0.955 0.84,-1.52c0.198,-0.566 0.296,-1.142 0.296,-1.728c0,-0.619 -0.104,-1.214 -0.312,-1.784c-0.208,-0.571 -0.498,-1.075 -0.872,-1.512c-0.373,-0.438 -0.816,-0.787 -1.328,-1.048c-0.512,-0.262 -1.077,-0.392 -1.696,-0.392c-0.64,0 -1.221,0.136 -1.744,0.408c-0.522,0.272 -0.965,0.632 -1.328,1.08c-0.362,0.448 -0.642,0.954 -0.84,1.52c-0.197,0.565 -0.296,1.141 -0.296,1.728Z" style="fill:none;stroke:#fff;stroke-width:0.77px;"/><path d="M77.77,10.6l0,-11.36l4.8,0c0.491,0 0.942,0.104 1.352,0.312c0.411,0.208 0.766,0.48 1.064,0.816c0.299,0.336 0.531,0.717 0.696,1.144c0.166,0.426 0.248,0.858 0.248,1.296c0,0.416 -0.061,0.813 -0.184,1.192c-0.122,0.378 -0.293,0.72 -0.512,1.024c-0.218,0.304 -0.482,0.56 -0.792,0.768c-0.309,0.208 -0.656,0.349 -1.04,0.424l2.784,4.384l-1.264,0l-2.672,-4.192l-3.36,0l0,4.192l-1.12,0Zm1.12,-5.184l3.712,0c0.331,0 0.632,-0.072 0.904,-0.216c0.272,-0.144 0.504,-0.339 0.696,-0.584c0.192,-0.246 0.342,-0.523 0.448,-0.832c0.107,-0.31 0.16,-0.635 0.16,-0.976c0,-0.342 -0.061,-0.67 -0.184,-0.984c-0.122,-0.315 -0.288,-0.59 -0.496,-0.824c-0.208,-0.235 -0.453,-0.422 -0.736,-0.56c-0.282,-0.139 -0.578,-0.208 -0.888,-0.208l-3.616,0l0,5.184Z" style="fill:none;stroke:#fff;stroke-width:0.77px;"/><path d="M93.594,10.68c-0.789,0 -1.512,-0.163 -2.168,-0.488c-0.656,-0.326 -1.218,-0.758 -1.688,-1.296c-0.469,-0.539 -0.832,-1.155 -1.088,-1.848c-0.256,-0.694 -0.384,-1.403 -0.384,-2.128c0,-0.758 0.136,-1.483 0.408,-2.176c0.272,-0.694 0.648,-1.307 1.128,-1.84c0.48,-0.534 1.046,-0.958 1.696,-1.272c0.651,-0.315 1.355,-0.472 2.112,-0.472c0.79,0 1.512,0.168 2.168,0.504c0.656,0.336 1.216,0.776 1.68,1.32c0.464,0.544 0.824,1.16 1.08,1.848c0.256,0.688 0.384,1.389 0.384,2.104c0,0.757 -0.136,1.482 -0.408,2.176c-0.272,0.693 -0.645,1.304 -1.12,1.832c-0.474,0.528 -1.037,0.949 -1.688,1.264c-0.65,0.314 -1.354,0.472 -2.112,0.472Zm-4.208,-5.76c0,0.618 0.102,1.213 0.304,1.784c0.203,0.57 0.491,1.077 0.864,1.52c0.374,0.442 0.816,0.794 1.328,1.056c0.512,0.261 1.083,0.392 1.712,0.392c0.64,0 1.222,-0.139 1.744,-0.416c0.523,-0.278 0.966,-0.64 1.328,-1.088c0.363,-0.448 0.643,-0.955 0.84,-1.52c0.198,-0.566 0.296,-1.142 0.296,-1.728c0,-0.619 -0.104,-1.214 -0.312,-1.784c-0.208,-0.571 -0.498,-1.075 -0.872,-1.512c-0.373,-0.438 -0.816,-0.787 -1.328,-1.048c-0.512,-0.262 -1.077,-0.392 -1.696,-0.392c-0.64,0 -1.221,0.136 -1.744,0.408c-0.522,0.272 -0.965,0.632 -1.328,1.08c-0.362,0.448 -0.642,0.954 -0.84,1.52c-0.197,0.565 -0.296,1.141 -0.296,1.728Z" style="fill:none;stroke:#fff;stroke-width:0.77px;"/><path d="M109.466,9.608l0,0.992l-7.632,0l0,-11.36l7.488,0l0,0.992l-6.368,0l0,4.096l5.552,0l0,0.944l-5.552,0l0,4.336l6.512,0Z" style="fill:none;stroke:#fff;stroke-width:0.77px;"/><path d="M116.986,9.672c0.715,0 1.31,-0.136 1.784,-0.408c0.475,-0.272 0.854,-0.63 1.136,-1.072c0.283,-0.443 0.48,-0.947 0.592,-1.512c0.112,-0.566 0.168,-1.136 0.168,-1.712l0,-5.728l1.12,0l0,5.728c0,0.768 -0.085,1.496 -0.256,2.184c-0.17,0.688 -0.445,1.293 -0.824,1.816c-0.378,0.522 -0.872,0.938 -1.48,1.248c-0.608,0.309 -1.349,0.464 -2.224,0.464c-0.896,0 -1.65,-0.163 -2.264,-0.488c-0.613,-0.326 -1.106,-0.755 -1.48,-1.288c-0.373,-0.534 -0.64,-1.142 -0.8,-1.824c-0.16,-0.683 -0.24,-1.387 -0.24,-2.112l0,-5.728l1.104,0l0,5.728c0,0.597 0.059,1.178 0.176,1.744c0.118,0.565 0.318,1.066 0.6,1.504c0.283,0.437 0.659,0.789 1.128,1.056c0.47,0.266 1.056,0.4 1.76,0.4Z" style="fill:none;stroke:#fff;stroke-width:0.77px;"/><path d="M133.162,-0.76l0.944,0l4.72,11.36l-1.184,0l-1.472,-3.552l-5.104,0l-1.456,3.552l-1.2,0l4.752,-11.36Zm2.752,6.928l-2.288,-5.616l-2.32,5.616l4.608,0Z" style="fill:none;stroke:#fff;stroke-width:0.77px;"/><path d="M145.642,10.6l0,-11.36l4.8,0c0.491,0 0.942,0.104 1.352,0.312c0.411,0.208 0.766,0.48 1.064,0.816c0.299,0.336 0.531,0.717 0.696,1.144c0.166,0.426 0.248,0.858 0.248,1.296c0,0.416 -0.061,0.813 -0.184,1.192c-0.122,0.378 -0.293,0.72 -0.512,1.024c-0.218,0.304 -0.482,0.56 -0.792,0.768c-0.309,0.208 -0.656,0.349 -1.04,0.424l2.784,4.384l-1.264,0l-2.672,-4.192l-3.36,0l0,4.192l-1.12,0Zm1.12,-5.184l3.712,0c0.331,0 0.632,-0.072 0.904,-0.216c0.272,-0.144 0.504,-0.339 0.696,-0.584c0.192,-0.246 0.342,-0.523 0.448,-0.832c0.107,-0.31 0.16,-0.635 0.16,-0.976c0,-0.342 -0.061,-0.67 -0.184,-0.984c-0.122,-0.315 -0.288,-0.59 -0.496,-0.824c-0.208,-0.235 -0.453,-0.422 -0.736,-0.56c-0.282,-0.139 -0.578,-0.208 -0.888,-0.208l-3.616,0l0,5.184Z" style="fill:none;stroke:#fff;stroke-width:0.77px;"/><path d="M161.466,10.68c-0.789,0 -1.512,-0.163 -2.168,-0.488c-0.656,-0.326 -1.218,-0.758 -1.688,-1.296c-0.469,-0.539 -0.832,-1.155 -1.088,-1.848c-0.256,-0.694 -0.384,-1.403 -0.384,-2.128c0,-0.758 0.136,-1.483 0.408,-2.176c0.272,-0.694 0.648,-1.307 1.128,-1.84c0.48,-0.534 1.046,-0.958 1.696,-1.272c0.651,-0.315 1.355,-0.472 2.112,-0.472c0.79,0 1.512,0.168 2.168,0.504c0.656,0.336 1.216,0.776 1.68,1.32c0.464,0.544 0.824,1.16 1.08,1.848c0.256,0.688 0.384,1.389 0.384,2.104c0,0.757 -0.136,1.482 -0.408,2.176c-0.272,0.693 -0.645,1.304 -1.12,1.832c-0.474,0.528 -1.037,0.949 -1.688,1.264c-0.65,0.314 -1.354,0.472 -2.112,0.472Zm-4.208,-5.76c0,0.618 0.102,1.213 0.304,1.784c0.203,0.57 0.491,1.077 0.864,1.52c0.374,0.442 0.816,0.794 1.328,1.056c0.512,0.261 1.083,0.392 1.712,0.392c0.64,0 1.222,-0.139 1.744,-0.416c0.523,-0.278 0.966,-0.64 1.328,-1.088c0.363,-0.448 0.643,-0.955 0.84,-1.52c0.198,-0.566 0.296,-1.142 0.296,-1.728c0,-0.619 -0.104,-1.214 -0.312,-1.784c-0.208,-0.571 -0.498,-1.075 -0.872,-1.512c-0.373,-0.438 -0.816,-0.787 -1.328,-1.048c-0.512,-0.262 -1.077,-0.392 -1.696,-0.392c-0.64,0 -1.221,0.136 -1.744,0.408c-0.522,0.272 -0.965,0.632 -1.328,1.08c-0.362,0.448 -0.642,0.954 -0.84,1.52c-0.197,0.565 -0.296,1.141 -0.296,1.728Z" style="fill:none;stroke:#fff;stroke-width:0.77px;"/><path d="M174.314,9.672c0.715,0 1.31,-0.136 1.784,-0.408c0.475,-0.272 0.854,-0.63 1.136,-1.072c0.283,-0.443 0.48,-0.947 0.592,-1.512c0.112,-0.566 0.168,-1.136 0.168,-1.712l0,-5.728l1.12,0l0,5.728c0,0.768 -0.085,1.496 -0.256,2.184c-0.17,0.688 -0.445,1.293 -0.824,1.816c-0.378,0.522 -0.872,0.938 -1.48,1.248c-0.608,0.309 -1.349,0.464 -2.224,0.464c-0.896,0 -1.65,-0.163 -2.264,-0.488c-0.613,-0.326 -1.106,-0.755 -1.48,-1.288c-0.373,-0.534 -0.64,-1.142 -0.8,-1.824c-0.16,-0.683 -0.24,-1.387 -0.24,-2.112l0,-5.728l1.104,0l0,5.728c0,0.597 0.059,1.178 0.176,1.744c0.118,0.565 0.318,1.066 0.6,1.504c0.283,0.437 0.659,0.789 1.128,1.056c0.47,0.266 1.056,0.4 1.76,0.4Z" style="fill:none;stroke:#fff;stroke-width:0.77px;"/><path d="M182.586,10.6l0,-11.36l4.704,0c0.491,0 0.942,0.104 1.352,0.312c0.411,0.208 0.766,0.48 1.064,0.816c0.299,0.336 0.534,0.717 0.704,1.144c0.171,0.426 0.256,0.858 0.256,1.296c0,0.469 -0.08,0.92 -0.24,1.352c-0.16,0.432 -0.384,0.813 -0.672,1.144c-0.288,0.33 -0.632,0.597 -1.032,0.8c-0.4,0.202 -0.845,0.304 -1.336,0.304l-3.68,0l0,4.192l-1.12,0Zm1.12,-5.184l3.632,0c0.331,0 0.632,-0.072 0.904,-0.216c0.272,-0.144 0.504,-0.336 0.696,-0.576c0.192,-0.24 0.342,-0.518 0.448,-0.832c0.107,-0.315 0.16,-0.643 0.16,-0.984c0,-0.352 -0.061,-0.686 -0.184,-1c-0.122,-0.315 -0.288,-0.59 -0.496,-0.824c-0.208,-0.235 -0.453,-0.419 -0.736,-0.552c-0.282,-0.134 -0.578,-0.2 -0.888,-0.2l-3.536,0l0,5.184Z" style="fill:none;stroke:#fff;stroke-width:0.77px;"/><path d="M196.138,-0.76l0.944,0l4.72,11.36l-1.184,0l-1.472,-3.552l-5.104,0l-1.456,3.552l-1.2,0l4.752,-11.36Zm2.752,6.928l-2.288,-5.616l-2.32,5.616l4.608,0Z" style="fill:none;stroke:#fff;stroke-width:0.77px;"/><path d="M208.618,10.6l0,-11.36l3.856,0c0.907,0 1.699,0.149 2.376,0.448c0.678,0.298 1.243,0.704 1.696,1.216c0.454,0.512 0.795,1.112 1.024,1.8c0.23,0.688 0.344,1.421 0.344,2.2c0,0.864 -0.128,1.645 -0.384,2.344c-0.256,0.698 -0.621,1.296 -1.096,1.792c-0.474,0.496 -1.045,0.88 -1.712,1.152c-0.666,0.272 -1.416,0.408 -2.248,0.408l-3.856,0Zm8.176,-5.696c0,-0.683 -0.096,-1.31 -0.288,-1.88c-0.192,-0.571 -0.472,-1.064 -0.84,-1.48c-0.368,-0.416 -0.818,-0.739 -1.352,-0.968c-0.533,-0.23 -1.146,-0.344 -1.84,-0.344l-2.736,0l0,9.376l2.736,0c0.704,0 1.326,-0.12 1.864,-0.36c0.539,-0.24 0.99,-0.571 1.352,-0.992c0.363,-0.422 0.638,-0.918 0.824,-1.488c0.187,-0.571 0.28,-1.192 0.28,-1.864Z" style="fill:none;stroke:#fff;stroke-width:0.77px;"/><path d="M225.434,10.68c-0.789,0 -1.512,-0.163 -2.168,-0.488c-0.656,-0.326 -1.218,-0.758 -1.688,-1.296c-0.469,-0.539 -0.832,-1.155 -1.088,-1.848c-0.256,-0.694 -0.384,-1.403 -0.384,-2.128c0,-0.758 0.136,-1.483 0.408,-2.176c0.272,-0.694 0.648,-1.307 1.128,-1.84c0.48,-0.534 1.046,-0.958 1.696,-1.272c0.651,-0.315 1.355,-0.472 2.112,-0.472c0.79,0 1.512,0.168 2.168,0.504c0.656,0.336 1.216,0.776 1.68,1.32c0.464,0.544 0.824,1.16 1.08,1.848c0.256,0.688 0.384,1.389 0.384,2.104c0,0.757 -0.136,1.482 -0.408,2.176c-0.272,0.693 -0.645,1.304 -1.12,1.832c-0.474,0.528 -1.037,0.949 -1.688,1.264c-0.65,0.314 -1.354,0.472 -2.112,0.472Zm-4.208,-5.76c0,0.618 0.102,1.213 0.304,1.784c0.203,0.57 0.491,1.077 0.864,1.52c0.374,0.442 0.816,0.794 1.328,1.056c0.512,0.261 1.083,0.392 1.712,0.392c0.64,0 1.222,-0.139 1.744,-0.416c0.523,-0.278 0.966,-0.64 1.328,-1.088c0.363,-0.448 0.643,-0.955 0.84,-1.52c0.198,-0.566 0.296,-1.142 0.296,-1.728c0,-0.619 -0.104,-1.214 -0.312,-1.784c-0.208,-0.571 -0.498,-1.075 -0.872,-1.512c-0.373,-0.438 -0.816,-0.787 -1.328,-1.048c-0.512,-0.262 -1.077,-0.392 -1.696,-0.392c-0.64,0 -1.221,0.136 -1.744,0.408c-0.522,0.272 -0.965,0.632 -1.328,1.08c-0.362,0.448 -0.642,0.954 -0.84,1.52c-0.197,0.565 -0.296,1.141 -0.296,1.728Z" style="fill:none;stroke:#fff;stroke-width:0.77px;"/><path d="M238.554,10.6l0,-11.36l4.8,0c0.491,0 0.942,0.104 1.352,0.312c0.411,0.208 0.766,0.48 1.064,0.816c0.299,0.336 0.531,0.717 0.696,1.144c0.166,0.426 0.248,0.858 0.248,1.296c0,0.416 -0.061,0.813 -0.184,1.192c-0.122,0.378 -0.293,0.72 -0.512,1.024c-0.218,0.304 -0.482,0.56 -0.792,0.768c-0.309,0.208 -0.656,0.349 -1.04,0.424l2.784,4.384l-1.264,0l-2.672,-4.192l-3.36,0l0,4.192l-1.12,0Zm1.12,-5.184l3.712,0c0.331,0 0.632,-0.072 0.904,-0.216c0.272,-0.144 0.504,-0.339 0.696,-0.584c0.192,-0.246 0.342,-0.523 0.448,-0.832c0.107,-0.31 0.16,-0.635 0.16,-0.976c0,-0.342 -0.061,-0.67 -0.184,-0.984c-0.122,-0.315 -0.288,-0.59 -0.496,-0.824c-0.208,-0.235 -0.453,-0.422 -0.736,-0.56c-0.282,-0.139 -0.578,-0.208 -0.888,-0.208l-3.616,0l0,5.184Z" style="fill:none;stroke:#fff;stroke-width:0.77px;"/><path d="M257.434,9.608l0,0.992l-7.632,0l0,-11.36l7.488,0l0,0.992l-6.368,0l0,4.096l5.552,0l0,0.944l-5.552,0l0,4.336l6.512,0Z" style="fill:none;stroke:#fff;stroke-width:0.77px;"/><rect x="260.346" y="-0.76" width="1.12" height="11.36" style="fill:none;stroke:#fff;stroke-width:0.77px;"/><path d="M269.994,10.6l0,-11.36l3.856,0c0.907,0 1.699,0.149 2.376,0.448c0.678,0.298 1.243,0.704 1.696,1.216c0.454,0.512 0.795,1.112 1.024,1.8c0.23,0.688 0.344,1.421 0.344,2.2c0,0.864 -0.128,1.645 -0.384,2.344c-0.256,0.698 -0.621,1.296 -1.096,1.792c-0.474,0.496 -1.045,0.88 -1.712,1.152c-0.666,0.272 -1.416,0.408 -2.248,0.408l-3.856,0Zm8.176,-5.696c0,-0.683 -0.096,-1.31 -0.288,-1.88c-0.192,-0.571 -0.472,-1.064 -0.84,-1.48c-0.368,-0.416 -0.818,-0.739 -1.352,-0.968c-0.533,-0.23 -1.146,-0.344 -1.84,-0.344l-2.736,0l0,9.376l2.736,0c0.704,0 1.326,-0.12 1.864,-0.36c0.539,-0.24 0.99,-0.571 1.352,-0.992c0.363,-0.422 0.638,-0.918 0.824,-1.488c0.187,-0.571 0.28,-1.192 0.28,-1.864Z" style="fill:none;stroke:#fff;stroke-width:0.77px;"/><path d="M289.866,9.608l0,0.992l-7.632,0l0,-11.36l7.488,0l0,0.992l-6.368,0l0,4.096l5.552,0l0,0.944l-5.552,0l0,4.336l6.512,0Z" style="fill:none;stroke:#fff;stroke-width:0.77px;"/><path d="M297.658,10.6l0,-11.36l4.8,0c0.491,0 0.942,0.104 1.352,0.312c0.411,0.208 0.766,0.48 1.064,0.816c0.299,0.336 0.531,0.717 0.696,1.144c0.166,0.426 0.248,0.858 0.248,1.296c0,0.416 -0.061,0.813 -0.184,1.192c-0.122,0.378 -0.293,0.72 -0.512,1.024c-0.218,0.304 -0.482,0.56 -0.792,0.768c-0.309,0.208 -0.656,0.349 -1.04,0.424l2.784,4.384l-1.264,0l-2.672,-4.192l-3.36,0l0,4.192l-1.12,0Zm1.12,-5.184l3.712,0c0.331,0 0.632,-0.072 0.904,-0.216c0.272,-0.144 0.504,-0.339 0.696,-0.584c0.192,-0.246 0.342,-0.523 0.448,-0.832c0.107,-0.31 0.16,-0.635 0.16,-0.976c0,-0.342 -0.061,-0.67 -0.184,-0.984c-0.122,-0.315 -0.288,-0.59 -0.496,-0.824c-0.208,-0.235 -0.453,-0.422 -0.736,-0.56c-0.282,-0.139 -0.578,-0.208 -0.888,-0.208l-3.616,0l0,5.184Z" style="fill:none;stroke:#fff;stroke-width:0.77px;"/><path d="M313.482,10.68c-0.789,0 -1.512,-0.163 -2.168,-0.488c-0.656,-0.326 -1.218,-0.758 -1.688,-1.296c-0.469,-0.539 -0.832,-1.155 -1.088,-1.848c-0.256,-0.694 -0.384,-1.403 -0.384,-2.128c0,-0.758 0.136,-1.483 0.408,-2.176c0.272,-0.694 0.648,-1.307 1.128,-1.84c0.48,-0.534 1.046,-0.958 1.696,-1.272c0.651,-0.315 1.355,-0.472 2.112,-0.472c0.79,0 1.512,0.168 2.168,0.504c0.656,0.336 1.216,0.776 1.68,1.32c0.464,0.544 0.824,1.16 1.08,1.848c0.256,0.688 0.384,1.389 0.384,2.104c0,0.757 -0.136,1.482 -0.408,2.176c-0.272,0.693 -0.645,1.304 -1.12,1.832c-0.474,0.528 -1.037,0.949 -1.688,1.264c-0.65,0.314 -1.354,0.472 -2.112,0.472Zm-4.208,-5.76c0,0.618 0.102,1.213 0.304,1.784c0.203,0.57 0.491,1.077 0.864,1.52c0.374,0.442 0.816,0.794 1.328,1.056c0.512,0.261 1.083,0.392 1.712,0.392c0.64,0 1.222,-0.139 1.744,-0.416c0.523,-0.278 0.966,-0.64 1.328,-1.088c0.363,-0.448 0.643,-0.955 0.84,-1.52c0.198,-0.566 0.296,-1.142 0.296,-1.728c0,-0.619 -0.104,-1.214 -0.312,-1.784c-0.208,-0.571 -0.498,-1.075 -0.872,-1.512c-0.373,-0.438 -0.816,-0.787 -1.328,-1.048c-0.512,-0.262 -1.077,-0.392 -1.696,-0.392c-0.64,0 -1.221,0.136 -1.744,0.408c-0.522,0.272 -0.965,0.632 -1.328,1.08c-0.362,0.448 -0.642,0.954 -0.84,1.52c-0.197,0.565 -0.296,1.141 -0.296,1.728Z" style="fill:none;stroke:#fff;stroke-width:0.77px;"/><path d="M331.786,10.6l0,-9.328l-4.144,7.216l-0.656,0l-4.144,-7.216l0,9.328l-1.12,0l0,-11.36l1.152,0l4.432,7.776l4.464,-7.776l1.136,0l0,11.36l-1.12,0Z" style="fill:none;stroke:#fff;stroke-width:0.77px;"/><path d="M340.074,-0.76l0.944,0l4.72,11.36l-1.184,0l-1.472,-3.552l-5.104,0l-1.456,3.552l-1.2,0l4.752,-11.36Zm2.752,6.928l-2.288,-5.616l-2.32,5.616l4.608,0Z" style="fill:none;stroke:#fff;stroke-width:0.77px;"/></g></svg>