<?xml version="1.0" encoding="UTF-8" standalone="no"?>
<!DOCTYPE svg PUBLIC "-//W3C//DTD SVG 1.1//EN" "http://www.w3.org/Graphics/SVG/1.1/DTD/svg11.dtd">
<svg width="100%" height="100%" viewBox="0 0 118 168" version="1.1" xmlns="http://www.w3.org/2000/svg" xmlns:xlink="http://www.w3.org/1999/xlink" xml:space="preserve" style="fill-rule:evenodd;clip-rule:evenodd;stroke-linejoin:round;stroke-miterlimit:1.41421;">
    <g transform="matrix(1,0,0,1,-421.256,-30)">
        <g transform="matrix(1,0,0,1,281.376,-38.9815)">
            <g id="XMLID_13_" transform="matrix(4.24963,0,0,4.24963,135.628,67.2307)">
                <path d="M27.667,33.736C26.734,35.611 25.198,36.981 23.216,37.972C22.257,38.452 21.246,38.823 20.191,39.098C20.128,39.129 20.065,39.159 19.97,39.153C20.02,39.087 20.092,39.08 20.153,39.056C20.835,38.734 21.255,38.214 21.476,37.573C21.964,36.157 21.902,34.762 21.177,33.414C20.808,32.728 20.364,32.075 20.053,31.363C19.729,30.622 19.408,29.881 19.285,29.086C19.257,28.903 19.276,28.72 19.277,28.52C19.159,28.557 19.117,28.638 19.065,28.705C18.497,29.442 18.253,30.273 18.195,31.154C18.154,31.778 18.212,32.398 18.344,33.013C18.354,33.058 18.362,33.104 18.366,33.15C18.368,33.167 18.355,33.186 18.343,33.221C18.205,33.165 18.114,33.07 18.025,32.976C17.382,32.307 17.13,31.51 17.085,30.648C17.04,29.791 17.193,28.955 17.483,28.142C17.911,26.945 17.825,25.762 17.402,24.588C17.024,23.542 16.314,22.701 15.351,22.027C15.31,21.999 15.267,21.973 15.224,21.947C15.213,21.94 15.197,21.941 15.18,21.937C15.127,21.988 15.175,22.036 15.192,22.08C16.114,24.589 15.314,27.312 12.972,28.75C12.009,29.342 11.63,29.554 11.396,29.675C11.374,29.686 11.239,29.75 11.06,29.846C11.06,29.846 10.949,29.905 10.846,29.965C10.615,30.098 10.385,30.266 10.168,30.445C9.232,31.216 8.608,32.295 8.419,33.493C8.295,34.278 8.274,35.2 8.492,36.137C8.668,36.892 8.972,37.437 9.141,37.704C9.705,38.597 10.552,39.294 11.66,39.81C11.687,39.819 11.732,39.839 11.716,39.858C11.675,39.907 11.625,39.863 11.579,39.851C8.535,39.178 5.771,38.035 3.588,35.955C1.958,34.402 1.112,32.542 1.011,30.409C0.917,28.407 1.469,26.523 2.285,24.685C2.676,23.803 3.18,22.969 3.637,22.115C4.319,20.841 4.806,19.51 4.986,18.099C5.145,16.85 5.026,15.638 4.341,14.509C4.317,14.47 4.269,14.423 4.307,14.383C4.352,14.336 4.419,14.37 4.473,14.386C5.058,14.558 5.571,14.843 6.027,15.21C6.969,15.967 7.549,16.926 7.929,17.989C8.466,19.491 8.593,21.038 8.53,22.604C8.512,23.041 8.475,23.477 8.448,23.913C8.445,23.962 8.413,24.027 8.487,24.053C8.543,24.072 8.581,24.025 8.618,23.994C8.805,23.839 8.944,23.651 9.061,23.451C9.423,22.83 9.578,22.156 9.669,21.469C9.842,20.165 9.781,18.861 9.601,17.564C9.518,16.961 9.282,16.381 9.162,15.78C8.64,13.17 8.563,10.564 9.272,7.97C9.886,5.722 11.074,3.762 12.97,2.168C13.761,1.503 14.636,0.939 15.582,0.463C15.62,0.444 15.661,0.427 15.702,0.413C15.713,0.409 15.729,0.418 15.744,0.421C15.77,0.487 15.716,0.533 15.688,0.584C14.783,2.216 14.316,3.952 14.196,5.763C13.948,9.483 15.215,12.814 17.461,15.89C18.228,16.94 19.099,17.918 20.037,18.849C20.104,18.915 20.159,18.998 20.286,19.04C20.18,16.716 21.025,14.702 22.711,12.964C23.545,12.104 24.529,11.403 25.614,10.816C25.667,10.876 25.638,10.913 25.624,10.949C24.749,13.288 24.726,15.658 25.31,18.047C25.567,19.099 25.974,20.107 26.475,21.086C27.644,23.371 28.4,25.757 28.603,28.27C28.755,30.154 28.534,31.992 27.667,33.736Z" style="fill:url(#_Linear1);fill-rule:nonzero;"/>
            </g>
        </g>
    </g>
    <defs>
        <linearGradient id="_Linear1" x1="0" y1="0" x2="1" y2="0" gradientUnits="userSpaceOnUse" gradientTransform="matrix(27.6468,0,0,39.4686,1.00059,20.1463)"><stop offset="0" style="stop-color:rgb(255,173,115);stop-opacity:1"/><stop offset="1" style="stop-color:rgb(255,113,76);stop-opacity:1"/></linearGradient>
    </defs>
</svg>
